
<svg 
  class="airfoil-2032c"
  fill="none"
  stroke="black" 
  stroke-width="1"
  style="overflow:visible"
  viewBox="0, -0.1048, 1, 0.1098"
  xmlns="http://www.w3.org/2000/svg">
    <title>20-32C AIRFOIL</title>
    <path 
      vector-effect="non-scaling-stroke"
      d="M1,-0.0016L0.95,-0.0124L0.9,-0.0229L0.8,-0.0428L0.7,-0.061L0.6,-0.0771L0.5,-0.0905L0.4,-0.1002L0.3,-0.1048L0.25,-0.1044L0.2,-0.1013L0.15,-0.0934L0.1,-0.078L0.075,-0.0664L0.05,-0.0513L0.025,-0.0317L0.0125,-0.0193L0,-0L0.0125,0.005L0.025,0.0042L0.05,0.001L0.075,-0.0028L0.1,-0.0068L0.15,-0.0145L0.2,-0.0217L0.25,-0.0282L0.3,-0.0333L0.4,-0.0385L0.5,-0.0386L0.6,-0.035L0.7,-0.0286L0.8,-0.0202L0.9,-0.01L0.95,-0.0044L1,0.0016"
    />
</svg>
