
<svg 
  class="airfoil-30p-30n"
  fill="none"
  stroke="black" 
  stroke-width="1"
  style="overflow:visible"
  viewBox="-0.0854, -0.0619, 1.2163, 0.2077"
  xmlns="http://www.w3.org/2000/svg">
    <title>30P-30N</title>
    <desc># McDonnell Douglas (MDA)</desc>
    <desc>#            Slat      Flap</desc>
    <desc># Delta      30         30</desc>
    <desc># Gap        2.95       1.27</desc>
    <desc># Overhang   -2.50      0.25</desc>
    <desc># Slat</desc>
    <desc># Main Element</desc>
    <desc># Flap</desc>
    <path 
      vector-effect="non-scaling-stroke"
      d="M0.0188,-0.0051L0.0184,-0.0047L0.0181,-0.0043L0.0177,-0.004L0.0173,-0.0035L0.0169,-0.0031L0.0165,-0.0027L0.016,-0.0022L0.0156,-0.0017L0.0151,-0.0012L0.0146,-0.0006L0.0141,-0.0001L0.0136,0.0005L0.013,0.0011L0.0124,0.0018L0.0118,0.0024L0.0112,0.0031L0.0105,0.0038L0.0098,0.0046L0.0091,0.0053L0.0083,0.0061L0.0075,0.0069L0.0067,0.0078L0.0058,0.0087L0.0049,0.0096L0.0039,0.0106L0.0029,0.0116L0.0018,0.0126L0.0007,0.0137L-0.0004,0.0148L-0.0016,0.016L-0.0028,0.0172L-0.0041,0.0185L-0.0055,0.0198L-0.0069,0.0212L-0.0083,0.0227L-0.0098,0.0242L-0.0113,0.0258L-0.0129,0.0275L-0.0145,0.0293L-0.0162,0.0313L-0.0179,0.0333L-0.0196,0.0355L-0.0213,0.0377L-0.023,0.0401L-0.0246,0.0424L-0.0262,0.0447L-0.0278,0.0471L-0.0293,0.0495L-0.0307,0.0518L-0.0321,0.0543L-0.0334,0.0567L-0.0347,0.0591L-0.0359,0.0616L-0.0371,0.0641L-0.0381,0.0666L-0.0391,0.0692L-0.04,0.0717L-0.0408,0.0743L-0.0415,0.0769L-0.0421,0.0795L-0.0426,0.0821L-0.0431,0.0847L-0.0433,0.0873L-0.0433,0.0899L-0.0432,0.0926L-0.0428,0.0951L-0.0421,0.0976L-0.0411,0.1L-0.0399,0.1023L-0.0383,0.1043L-0.0363,0.1059L-0.0341,0.1071L-0.0317,0.1079L-0.0292,0.1084L-0.0267,0.1087L-0.0291,0.1094L-0.0314,0.11L-0.0336,0.1106L-0.0357,0.1112L-0.0376,0.1117L-0.0395,0.1122L-0.0413,0.1126L-0.0429,0.113L-0.0445,0.1134L-0.0461,0.1137L-0.0475,0.114L-0.0489,0.1142L-0.0502,0.1145L-0.0514,0.1147L-0.0526,0.1149L-0.0537,0.115L-0.0548,0.1152L-0.0558,0.1153L-0.0567,0.1154L-0.0577,0.1155L-0.0585,0.1156L-0.0593,0.1156L-0.0601,0.1157L-0.0609,0.1157L-0.0616,0.1157L-0.0622,0.1157L-0.0628,0.1157L-0.0634,0.1157L-0.064,0.1157L-0.0645,0.1157L-0.0651,0.1157L-0.0656,0.1157L-0.0662,0.1157L-0.0668,0.1157L-0.0674,0.1156L-0.068,0.1156L-0.0686,0.1155L-0.0692,0.1155L-0.0698,0.1154L-0.0704,0.1153L-0.0711,0.1151L-0.0717,0.115L-0.0724,0.1148L-0.0731,0.1147L-0.0737,0.1145L-0.0744,0.1142L-0.0751,0.114L-0.0758,0.1137L-0.0765,0.1134L-0.0772,0.1131L-0.0779,0.1127L-0.0785,0.1123L-0.0792,0.1119L-0.0799,0.1114L-0.0806,0.1109L-0.0812,0.1103L-0.0818,0.1097L-0.0824,0.109L-0.083,0.1083L-0.0834,0.1075L-0.0839,0.1067L-0.0843,0.1059L-0.0846,0.105L-0.0849,0.104L-0.0851,0.103L-0.0853,0.102L-0.0854,0.1009L-0.0854,0.0996L-0.0853,0.0985L-0.0852,0.0974L-0.085,0.0964L-0.0848,0.0954L-0.0845,0.0944L-0.0842,0.0932L-0.0838,0.092L-0.0832,0.0908L-0.0827,0.0894L-0.082,0.088L-0.0812,0.0864L-0.0802,0.0848L-0.0792,0.0831L-0.078,0.0813L-0.0767,0.0793L-0.0752,0.0772L-0.0735,0.0751L-0.0716,0.0727L-0.0695,0.0703L-0.0672,0.0677L-0.0647,0.065L-0.0619,0.062L-0.0588,0.0589L-0.0554,0.0556L-0.0516,0.0521L-0.0476,0.0484L-0.0431,0.0444L-0.0382,0.0401L-0.0329,0.0356L-0.028,0.0315L-0.0236,0.0278L-0.0195,0.0245L-0.0157,0.0215L-0.0123,0.0188L-0.0092,0.0163L-0.0063,0.0141L-0.0037,0.0121L-0.0014,0.0103L0.0008,0.0086L0.0028,0.0071L0.0046,0.0057L0.0062,0.0045L0.0077,0.0033L0.0091,0.0023L0.0103,0.0014L0.0114,0.0005L0.0124,-0.0003L0.0134,-0.001L0.0142,-0.0016L0.015,-0.0022L0.0157,-0.0027L0.0163,-0.0032L0.0169,-0.0037L0.0175,-0.0041L0.0179,-0.0044L0.0184,-0.0048L0.0188,-0.0051L0.874,-0.0309L0.8729,-0.031L0.8716,-0.0311L0.8702,-0.0311L0.8686,-0.0312L0.8669,-0.0313L0.865,-0.0314L0.8628,-0.0314L0.8604,-0.0315L0.8578,-0.0316L0.8549,-0.0317L0.8516,-0.0318L0.848,-0.0318L0.844,-0.0319L0.8395,-0.0319L0.8346,-0.032L0.8291,-0.032L0.823,-0.032L0.8163,-0.032L0.8088,-0.032L0.8004,-0.032L0.7912,-0.032L0.7826,-0.032L0.7746,-0.032L0.7672,-0.032L0.7603,-0.032L0.7539,-0.032L0.748,-0.032L0.7424,-0.032L0.7373,-0.032L0.7325,-0.032L0.7281,-0.032L0.724,-0.032L0.7201,-0.032L0.7166,-0.032L0.7133,-0.032L0.7102,-0.032L0.7073,-0.032L0.7047,-0.032L0.7022,-0.032L0.6999,-0.032L0.6999,-0.0297L0.6999,-0.0273L0.6999,-0.0246L0.6999,-0.0218L0.6999,-0.0188L0.6999,-0.0156L0.6999,-0.0122L0.6999,-0.0085L0.6999,-0.005L0.6999,-0.0017L0.6999,0.0015L0.6999,0.0045L0.6999,0.0073L0.6999,0.01L0.6999,0.0125L0.6999,0.0149L0.6999,0.0172L0.6977,0.0176L0.6951,0.0181L0.6921,0.0187L0.6886,0.0193L0.6845,0.0201L0.6798,0.021L0.6744,0.022L0.6682,0.0231L0.6609,0.0245L0.6525,0.026L0.6428,0.0278L0.6315,0.0298L0.6184,0.0321L0.6033,0.0346L0.5858,0.0373L0.5654,0.0404L0.5419,0.0436L0.5145,0.0466L0.4827,0.0497L0.4459,0.0521L0.4033,0.054L0.3538,0.0544L0.3113,0.054L0.2747,0.0531L0.2433,0.0515L0.2163,0.05L0.193,0.0483L0.1731,0.0466L0.1559,0.045L0.1412,0.0435L0.1285,0.042L0.1176,0.0407L0.1083,0.0394L0.1003,0.0383L0.0933,0.0374L0.0874,0.0365L0.0823,0.0357L0.0779,0.0349L0.0742,0.0343L0.0709,0.0337L0.0681,0.0332L0.0658,0.0328L0.0637,0.0324L0.0619,0.032L0.0604,0.0317L0.0591,0.0315L0.058,0.0312L0.0567,0.031L0.0555,0.0307L0.0543,0.0303L0.0532,0.0299L0.0521,0.0294L0.0511,0.0288L0.0502,0.0282L0.0493,0.0276L0.0484,0.0269L0.0476,0.026L0.0468,0.025L0.046,0.0239L0.0454,0.0228L0.0449,0.0216L0.0445,0.0204L0.0442,0.0192L0.0439,0.0179L0.0438,0.0167L0.0439,0.0154L0.044,0.0142L0.0441,0.0129L0.0443,0.0117L0.0446,0.0105L0.0448,0.0093L0.0452,0.0082L0.0456,0.0071L0.0461,0.006L0.0466,0.0049L0.0472,0.0039L0.0477,0.0029L0.0484,0.0019L0.049,0.001L0.0497,0L0.0504,-0.001L0.0513,-0.002L0.0522,-0.0032L0.0533,-0.0044L0.0545,-0.0056L0.0558,-0.007L0.0573,-0.0084L0.059,-0.0098L0.0609,-0.0114L0.063,-0.013L0.0653,-0.0147L0.0679,-0.0165L0.0708,-0.0183L0.074,-0.0202L0.0775,-0.0222L0.0814,-0.0242L0.0857,-0.0263L0.0904,-0.0285L0.0957,-0.0307L0.1014,-0.033L0.1077,-0.0353L0.1146,-0.0376L0.1221,-0.0399L0.1304,-0.0422L0.1395,-0.0445L0.1495,-0.0467L0.1604,-0.0483L0.1724,-0.0496L0.1855,-0.0508L0.1997,-0.0521L0.2152,-0.0533L0.232,-0.0546L0.2503,-0.0558L0.2702,-0.057L0.2919,-0.0581L0.3155,-0.0592L0.3412,-0.0601L0.3691,-0.0609L0.3995,-0.0615L0.4326,-0.0619L0.4686,-0.0619L0.5017,-0.0616L0.5322,-0.061L0.5603,-0.0602L0.5862,-0.0592L0.61,-0.0582L0.632,-0.057L0.6522,-0.0558L0.6708,-0.0546L0.6879,-0.0533L0.7037,-0.0521L0.7183,-0.0509L0.7316,-0.0496L0.7439,-0.0484L0.7553,-0.0473L0.7657,-0.0462L0.7753,-0.0451L0.7842,-0.0441L0.7923,-0.0431L0.7998,-0.0422L0.8068,-0.0413L0.8131,-0.0404L0.819,-0.0396L0.8244,-0.0389L0.8293,-0.0382L0.8339,-0.0375L0.8381,-0.0369L0.842,-0.0364L0.8456,-0.0358L0.8489,-0.0353L0.8519,-0.0348L0.8547,-0.0344L0.8572,-0.0339L0.8596,-0.0335L0.8618,-0.0331L0.8638,-0.0328L0.8656,-0.0325L0.8673,-0.0322L0.8689,-0.0319L0.8703,-0.0316L0.8717,-0.0314L0.8729,-0.0312L0.874,-0.0309L1.1283,0.1458L1.128,0.1455L1.1276,0.1453L1.1272,0.1451L1.1268,0.1447L1.1264,0.1444L1.126,0.144L1.1255,0.1436L1.125,0.1432L1.1245,0.1427L1.1239,0.1422L1.1232,0.1417L1.1226,0.1411L1.1218,0.1405L1.1211,0.1398L1.1202,0.1391L1.1193,0.1383L1.1183,0.1375L1.1173,0.1366L1.1161,0.1356L1.1149,0.1346L1.1136,0.1335L1.1121,0.1324L1.1106,0.1312L1.1089,0.1298L1.1071,0.1284L1.1051,0.1269L1.103,0.1253L1.1007,0.1236L1.0983,0.1218L1.0956,0.1198L1.0927,0.1177L1.0896,0.1155L1.0863,0.1131L1.0827,0.1105L1.0788,0.1078L1.0745,0.1049L1.07,0.1019L1.065,0.0987L1.0596,0.0953L1.0537,0.0917L1.0474,0.088L1.0405,0.0841L1.0331,0.08L1.025,0.0757L1.0162,0.0712L1.0068,0.0664L0.9978,0.0621L0.9894,0.0582L0.9814,0.0546L0.9739,0.0513L0.9669,0.0482L0.9603,0.0454L0.954,0.0429L0.9481,0.0405L0.9426,0.0383L0.9375,0.0362L0.9326,0.0344L0.928,0.0326L0.9237,0.031L0.9197,0.0295L0.9159,0.0281L0.9124,0.0268L0.909,0.0256L0.9059,0.0245L0.903,0.0234L0.9002,0.0224L0.8977,0.0214L0.8953,0.0204L0.8931,0.0195L0.891,0.0185L0.8891,0.0175L0.8874,0.0165L0.8859,0.0155L0.8844,0.0145L0.8831,0.0135L0.882,0.0125L0.8809,0.0115L0.88,0.0105L0.8791,0.0096L0.8783,0.0087L0.8776,0.0079L0.877,0.007L0.8764,0.0062L0.8759,0.0055L0.8754,0.0048L0.8749,0.004L0.8745,0.0033L0.874,0.0025L0.8736,0.0017L0.8732,0.0009L0.8728,0L0.8725,-0.0009L0.8722,-0.0018L0.8719,-0.0027L0.8717,-0.0037L0.8716,-0.0047L0.8715,-0.0058L0.8715,-0.0067L0.8716,-0.0077L0.8717,-0.0087L0.8719,-0.0096L0.8721,-0.0105L0.8724,-0.0114L0.8727,-0.0122L0.8731,-0.013L0.8735,-0.0138L0.874,-0.0145L0.8745,-0.0152L0.8751,-0.0159L0.8757,-0.0166L0.8764,-0.0172L0.8771,-0.0179L0.8779,-0.0185L0.8788,-0.0191L0.8797,-0.0196L0.8807,-0.0201L0.8818,-0.0205L0.8829,-0.0209L0.884,-0.0213L0.8853,-0.0215L0.8865,-0.0217L0.8879,-0.0219L0.8892,-0.022L0.8906,-0.0221L0.8921,-0.0221L0.8936,-0.0221L0.8952,-0.022L0.8968,-0.0219L0.8984,-0.0217L0.9001,-0.0215L0.9019,-0.0212L0.9037,-0.0209L0.9055,-0.0205L0.9074,-0.0201L0.9093,-0.0196L0.9113,-0.0191L0.9134,-0.0185L0.9155,-0.0179L0.9177,-0.0172L0.9199,-0.0165L0.9222,-0.0157L0.9245,-0.0148L0.9269,-0.0139L0.9294,-0.013L0.9319,-0.0119L0.9345,-0.0108L0.9372,-0.0097L0.9399,-0.0084L0.9428,-0.0071L0.9456,-0.0058L0.9486,-0.0043L0.9516,-0.0028L0.9547,-0.0011L0.9579,0.0006L0.9612,0.0024L0.9646,0.0042L0.968,0.0062L0.9716,0.0083L0.9752,0.0105L0.9789,0.0128L0.9828,0.0151L0.9867,0.0177L0.9907,0.0203L0.9948,0.023L0.999,0.0259L1.0034,0.0289L1.0078,0.0321L1.0123,0.0354L1.0169,0.0389L1.0217,0.0425L1.0262,0.046L1.0306,0.0495L1.0347,0.0528L1.0388,0.056L1.0426,0.0591L1.0463,0.0622L1.0499,0.0651L1.0533,0.0679L1.0566,0.0706L1.0598,0.0733L1.0628,0.0759L1.0657,0.0783L1.0685,0.0807L1.0712,0.0831L1.0738,0.0853L1.0763,0.0875L1.0786,0.0896L1.0809,0.0917L1.0831,0.0937L1.0852,0.0956L1.0873,0.0974L1.0892,0.0992L1.0911,0.1009L1.0929,0.1026L1.0946,0.1043L1.0962,0.1058L1.0978,0.1074L1.0993,0.1088L1.1008,0.1103L1.1022,0.1116L1.1035,0.113L1.1048,0.1142L1.1061,0.1155L1.1073,0.1167L1.1084,0.1178L1.1095,0.119L1.1106,0.12L1.1117,0.1211L1.1127,0.1221L1.1136,0.123L1.1145,0.124L1.1154,0.1248L1.1163,0.1257L1.1171,0.1265L1.1179,0.1273L1.1187,0.1281L1.1194,0.1288L1.1201,0.1296L1.1208,0.1302L1.1215,0.1309L1.1221,0.1315L1.1227,0.1322L1.1233,0.1328L1.1239,0.1333L1.1244,0.1339L1.125,0.1344L1.1255,0.1349L1.126,0.1354L1.1265,0.1359L1.1269,0.1363L1.1274,0.1368L1.1278,0.1372L1.1282,0.1376L1.1286,0.138L1.129,0.1384L1.1293,0.1388L1.1297,0.1391L1.13,0.1395L1.1303,0.1398L1.1306,0.1401L1.1309,0.1405"
    />
</svg>
