
<svg 
  class="airfoil-a18"
  fill="none"
  stroke="black" 
  stroke-width="1"
  style="overflow:visible"
  viewBox="0, -0.0847, 1, 0.0847"
  xmlns="http://www.w3.org/2000/svg">
    <title>A18 (original)</title>
    <path 
      vector-effect="non-scaling-stroke"
      d="M1,-0.0061L0.95,-0.0182L0.9,-0.0286L0.8,-0.0462L0.7,-0.0606L0.6,-0.072L0.55,-0.0761L0.5,-0.0798L0.45,-0.0829L0.4,-0.0838L0.35,-0.0847L0.3,-0.0838L0.25,-0.0807L0.2,-0.076L0.15,-0.0703L0.1,-0.0623L0.075,-0.0566L0.05,-0.0492L0.025,-0.0395L0.0125,-0.0324L0,-0.0187L0.0125,-0.0078L0.025,-0.0036L0.05,-0.0008L0.075,-0L0.1,-0.0001L0.15,-0.002L0.2,-0.0047L0.25,-0.0081L0.3,-0.0104L0.35,-0.0135L0.4,-0.0166L0.45,-0.0178L0.5,-0.0188L0.55,-0.0198L0.6,-0.02L0.7,-0.0192L0.8,-0.0145L0.9,-0.0081L0.95,-0.0043L1,-0"
    />
</svg>
