
<svg 
  class="airfoil-a18sm"
  fill="none"
  stroke="black" 
  stroke-width="1"
  style="overflow:visible"
  viewBox="0, -0.0716, 1, 0.089"
  xmlns="http://www.w3.org/2000/svg">
    <title>A18 (smoothed)</title>
    <path 
      vector-effect="non-scaling-stroke"
      d="M1,-0.0031L0.9975,-0.0037L0.9907,-0.0053L0.9804,-0.0077L0.967,-0.0107L0.9504,-0.0142L0.9306,-0.0182L0.9078,-0.0225L0.882,-0.0271L0.8537,-0.0318L0.8231,-0.0366L0.7905,-0.0413L0.7562,-0.0459L0.7204,-0.0503L0.6836,-0.0544L0.6459,-0.0582L0.6078,-0.0616L0.5694,-0.0646L0.531,-0.0671L0.4927,-0.0691L0.4543,-0.0706L0.4164,-0.0714L0.3789,-0.0716L0.342,-0.0709L0.3061,-0.0695L0.2712,-0.0673L0.2376,-0.0645L0.2055,-0.0611L0.175,-0.0573L0.1465,-0.0531L0.12,-0.0486L0.0958,-0.0437L0.074,-0.0384L0.0547,-0.0328L0.0381,-0.0269L0.0243,-0.021L0.0134,-0.0151L0.0055,-0.0093L0.001,-0.0038L0,-0L0.001,0.0035L0.0055,0.0077L0.0134,0.0112L0.0243,0.0139L0.0381,0.0158L0.0547,0.017L0.074,0.0174L0.0958,0.0171L0.12,0.0161L0.1465,0.0146L0.175,0.0127L0.2055,0.0105L0.2376,0.0081L0.2712,0.0055L0.3061,0.0029L0.342,0.0003L0.3789,-0.0021L0.4164,-0.0043L0.4543,-0.0062L0.4927,-0.0077L0.531,-0.0089L0.5694,-0.0098L0.6078,-0.0104L0.6459,-0.0107L0.6836,-0.0106L0.7204,-0.0102L0.7562,-0.0095L0.7905,-0.0086L0.8231,-0.0074L0.8537,-0.006L0.882,-0.0045L0.9078,-0.003L0.9306,-0.0015L0.9504,-0.0002L0.967,0.001L0.9804,0.0019L0.9907,0.0025L0.9975,0.0029L1,0.0031"
    />
</svg>
