
<svg 
  class="airfoil-ag03"
  fill="none"
  stroke="black" 
  stroke-width="1"
  style="overflow:visible"
  viewBox="0, -0.0512, 1, 0.0644"
  xmlns="http://www.w3.org/2000/svg">
    <title>AG03</title>
    <desc># flat aft bottom</desc>
    <path 
      vector-effect="non-scaling-stroke"
      d="M1,-0.0007L0.9949,-0.0012L0.985,-0.0022L0.9733,-0.0034L0.9609,-0.0046L0.9484,-0.0059L0.9358,-0.0071L0.9231,-0.0084L0.9105,-0.0097L0.8979,-0.0109L0.8852,-0.0122L0.8726,-0.0134L0.86,-0.0146L0.8474,-0.0159L0.8348,-0.0171L0.8222,-0.0183L0.8096,-0.0195L0.797,-0.0207L0.7844,-0.0218L0.7718,-0.023L0.7592,-0.0241L0.7465,-0.0252L0.7339,-0.0264L0.7213,-0.0275L0.7087,-0.0285L0.6961,-0.0296L0.6835,-0.0307L0.6709,-0.0317L0.6582,-0.0328L0.6456,-0.0338L0.633,-0.0348L0.6204,-0.0358L0.6078,-0.0367L0.5952,-0.0377L0.5826,-0.0386L0.57,-0.0395L0.5574,-0.0404L0.5449,-0.0412L0.5323,-0.042L0.5197,-0.0428L0.5071,-0.0436L0.4945,-0.0444L0.482,-0.0451L0.4694,-0.0457L0.4568,-0.0464L0.4443,-0.047L0.4317,-0.0476L0.4191,-0.0481L0.4066,-0.0486L0.394,-0.0491L0.3815,-0.0495L0.3689,-0.0499L0.3564,-0.0502L0.3439,-0.0505L0.3314,-0.0508L0.3189,-0.0509L0.3064,-0.0511L0.2939,-0.0512L0.2814,-0.0512L0.2689,-0.0511L0.2565,-0.051L0.2441,-0.0508L0.2317,-0.0506L0.2193,-0.0502L0.207,-0.0498L0.1947,-0.0493L0.1825,-0.0486L0.1703,-0.0479L0.1581,-0.047L0.1461,-0.046L0.1341,-0.0449L0.1222,-0.0436L0.1104,-0.0421L0.0988,-0.0404L0.0873,-0.0386L0.0761,-0.0365L0.0651,-0.0341L0.0545,-0.0315L0.0444,-0.0287L0.0351,-0.0256L0.0267,-0.0223L0.0198,-0.0191L0.0144,-0.0162L0.0104,-0.0135L0.0074,-0.0112L0.0052,-0.0092L0.0036,-0.0075L0.0024,-0.006L0.0015,-0.0046L0.0008,-0.0033L0.0003,-0.0022L0.0001,-0.001L0,0.0001L0.0003,0.0012L0.0013,0.0023L0.0028,0.0034L0.0051,0.0046L0.0081,0.0057L0.0121,0.0069L0.0173,0.0081L0.0241,0.0093L0.0328,0.0104L0.043,0.0113L0.0538,0.012L0.0651,0.0125L0.0767,0.0129L0.0886,0.0131L0.1007,0.0132L0.1129,0.0132L0.1251,0.0131L0.1375,0.013L0.1499,0.0129L0.1623,0.0127L0.1748,0.0125L0.1874,0.0124L0.1999,0.0122L0.2125,0.012L0.2252,0.0118L0.2378,0.0116L0.2505,0.0114L0.2632,0.0113L0.2759,0.0111L0.2886,0.0109L0.3013,0.0107L0.314,0.0105L0.3267,0.0103L0.3394,0.0101L0.352,0.01L0.3647,0.0098L0.3774,0.0096L0.3901,0.0094L0.4027,0.0092L0.4154,0.009L0.4281,0.0089L0.4407,0.0087L0.4534,0.0085L0.4661,0.0083L0.4787,0.0081L0.4914,0.0079L0.5041,0.0078L0.5167,0.0076L0.5294,0.0074L0.5421,0.0072L0.5547,0.007L0.5674,0.0068L0.5801,0.0067L0.5927,0.0065L0.6054,0.0063L0.6181,0.0061L0.6307,0.0059L0.6434,0.0057L0.656,0.0055L0.6687,0.0054L0.6814,0.0052L0.694,0.005L0.7067,0.0048L0.7194,0.0046L0.732,0.0044L0.7447,0.0043L0.7574,0.0041L0.7701,0.0039L0.7827,0.0037L0.7954,0.0035L0.8081,0.0033L0.8208,0.0032L0.8335,0.003L0.8462,0.0028L0.8589,0.0026L0.8716,0.0024L0.8843,0.0022L0.897,0.002L0.9097,0.0019L0.9224,0.0017L0.9351,0.0015L0.9478,0.0013L0.9604,0.0011L0.9729,0.0009L0.9848,0.0008L0.9948,0.0006L1,0.0005"
    />
</svg>
