
<svg 
  class="airfoil-ag04"
  fill="none"
  stroke="black" 
  stroke-width="1"
  style="overflow:visible"
  viewBox="0, -0.0482, 1, 0.0665"
  xmlns="http://www.w3.org/2000/svg">
    <title>AG04</title>
    <path 
      vector-effect="non-scaling-stroke"
      d="M1,-0.0007L0.9949,-0.0012L0.985,-0.0021L0.9733,-0.0032L0.9609,-0.0043L0.9483,-0.0054L0.9357,-0.0065L0.9231,-0.0077L0.9104,-0.0088L0.8978,-0.01L0.8851,-0.0111L0.8725,-0.0123L0.8599,-0.0134L0.8473,-0.0146L0.8347,-0.0157L0.8221,-0.0168L0.8094,-0.0179L0.7968,-0.019L0.7842,-0.0201L0.7716,-0.0211L0.759,-0.0222L0.7464,-0.0232L0.7337,-0.0243L0.7211,-0.0253L0.7085,-0.0263L0.6959,-0.0273L0.6832,-0.0283L0.6706,-0.0293L0.658,-0.0303L0.6454,-0.0313L0.6328,-0.0322L0.6202,-0.0331L0.6076,-0.0341L0.595,-0.035L0.5823,-0.0358L0.5697,-0.0367L0.5571,-0.0375L0.5446,-0.0384L0.532,-0.0392L0.5194,-0.0399L0.5068,-0.0407L0.4942,-0.0414L0.4816,-0.0421L0.469,-0.0427L0.4565,-0.0434L0.4439,-0.044L0.4313,-0.0445L0.4188,-0.0451L0.4062,-0.0456L0.3936,-0.046L0.3811,-0.0464L0.3685,-0.0468L0.356,-0.0472L0.3435,-0.0474L0.3309,-0.0477L0.3184,-0.0479L0.3059,-0.048L0.2934,-0.0481L0.2809,-0.0482L0.2685,-0.0482L0.256,-0.0481L0.2436,-0.0479L0.2312,-0.0477L0.2189,-0.0474L0.2065,-0.047L0.1942,-0.0465L0.182,-0.0459L0.1698,-0.0452L0.1576,-0.0443L0.1455,-0.0434L0.1336,-0.0423L0.1217,-0.041L0.1099,-0.0396L0.0983,-0.038L0.0868,-0.0362L0.0756,-0.0342L0.0646,-0.0319L0.054,-0.0293L0.0439,-0.0265L0.0345,-0.0235L0.0262,-0.0203L0.0192,-0.0172L0.0138,-0.0143L0.0098,-0.0118L0.0068,-0.0096L0.0046,-0.0076L0.003,-0.0059L0.0017,-0.0044L0.0009,-0.0029L0.0003,-0.0016L0,-0.0004L0.0001,0.0008L0.0006,0.002L0.0015,0.0031L0.0028,0.0042L0.0045,0.0053L0.0066,0.0064L0.0094,0.0077L0.0132,0.009L0.0181,0.0104L0.0247,0.0119L0.033,0.0134L0.0427,0.0147L0.0534,0.0158L0.0647,0.0166L0.0763,0.0173L0.0882,0.0177L0.1002,0.018L0.1124,0.0182L0.1247,0.0183L0.1371,0.0183L0.1495,0.0182L0.1619,0.0181L0.1744,0.0179L0.187,0.0176L0.1996,0.0174L0.2122,0.017L0.2248,0.0167L0.2374,0.0164L0.2501,0.016L0.2628,0.0156L0.2755,0.0152L0.2882,0.0147L0.3009,0.0143L0.3136,0.0139L0.3263,0.0134L0.339,0.0129L0.3517,0.0125L0.3644,0.012L0.3771,0.0116L0.3897,0.0111L0.4024,0.0107L0.4151,0.0102L0.4277,0.0098L0.4404,0.0093L0.4531,0.0089L0.4657,0.0085L0.4784,0.0081L0.4911,0.0077L0.5037,0.0073L0.5164,0.0069L0.5291,0.0066L0.5417,0.0062L0.5544,0.0059L0.5671,0.0055L0.5798,0.0052L0.5924,0.0049L0.6051,0.0046L0.6178,0.0044L0.6304,0.0041L0.6431,0.0039L0.6558,0.0036L0.6685,0.0034L0.6811,0.0032L0.6938,0.003L0.7065,0.0029L0.7192,0.0027L0.7318,0.0026L0.7445,0.0024L0.7572,0.0023L0.7699,0.0022L0.7826,0.0021L0.7953,0.002L0.8079,0.002L0.8206,0.0019L0.8333,0.0018L0.846,0.0017L0.8587,0.0017L0.8715,0.0016L0.8842,0.0015L0.8969,0.0015L0.9096,0.0014L0.9223,0.0013L0.935,0.0012L0.9477,0.0011L0.9604,0.001L0.9729,0.0009L0.9848,0.0008L0.9948,0.0007L1,0.0007"
    />
</svg>
