
<svg 
  class="airfoil-ag08"
  fill="none"
  stroke="black" 
  stroke-width="1"
  style="overflow:visible"
  viewBox="0, -0.0454, 1, 0.0615"
  xmlns="http://www.w3.org/2000/svg">
    <title>AG08</title>
    <path 
      vector-effect="non-scaling-stroke"
      d="M1,-0.0008L0.9955,-0.0012L0.9862,-0.0022L0.9747,-0.0033L0.9623,-0.0045L0.9495,-0.0057L0.9367,-0.0069L0.9238,-0.0081L0.9109,-0.0092L0.898,-0.0104L0.8851,-0.0115L0.8722,-0.0127L0.8593,-0.0138L0.8464,-0.0149L0.8335,-0.016L0.8206,-0.017L0.8077,-0.0181L0.7948,-0.0191L0.7818,-0.0202L0.7689,-0.0212L0.756,-0.0222L0.7431,-0.0232L0.7302,-0.0242L0.7173,-0.0251L0.7043,-0.0261L0.6914,-0.027L0.6785,-0.0279L0.6656,-0.0289L0.6527,-0.0297L0.6398,-0.0306L0.6269,-0.0315L0.614,-0.0323L0.6011,-0.0331L0.5882,-0.0339L0.5753,-0.0347L0.5624,-0.0355L0.5495,-0.0362L0.5366,-0.037L0.5237,-0.0377L0.5108,-0.0383L0.4979,-0.039L0.485,-0.0396L0.4721,-0.0402L0.4593,-0.0408L0.4464,-0.0413L0.4335,-0.0419L0.4206,-0.0423L0.4078,-0.0428L0.3949,-0.0432L0.3821,-0.0436L0.3692,-0.044L0.3564,-0.0443L0.3436,-0.0446L0.3308,-0.0449L0.318,-0.0451L0.3052,-0.0452L0.2924,-0.0454L0.2797,-0.0454L0.267,-0.0454L0.2543,-0.0453L0.2417,-0.0452L0.2291,-0.045L0.2165,-0.0447L0.2039,-0.0443L0.1914,-0.0438L0.179,-0.0433L0.1666,-0.0426L0.1544,-0.0418L0.1422,-0.0408L0.13,-0.0398L0.1181,-0.0385L0.1062,-0.0371L0.0945,-0.0355L0.0831,-0.0337L0.0719,-0.0316L0.061,-0.0294L0.0505,-0.0269L0.0408,-0.0242L0.0319,-0.0213L0.0243,-0.0184L0.0182,-0.0157L0.0135,-0.0133L0.01,-0.0112L0.0073,-0.0094L0.0052,-0.0078L0.0036,-0.0063L0.0023,-0.0049L0.0013,-0.0037L0.0006,-0.0024L0.0002,-0.0013L0,-0.0002L0.0001,0.0008L0.0004,0.0018L0.0011,0.0029L0.0021,0.0039L0.0033,0.0049L0.0049,0.0059L0.0069,0.0069L0.0093,0.008L0.0124,0.009L0.0165,0.0101L0.0218,0.0113L0.0288,0.0125L0.0376,0.0136L0.0477,0.0145L0.0588,0.0152L0.0704,0.0156L0.0824,0.0159L0.0946,0.016L0.107,0.0161L0.1196,0.016L0.1322,0.0158L0.145,0.0156L0.1578,0.0153L0.1706,0.015L0.1836,0.0146L0.1965,0.0142L0.2095,0.0138L0.2225,0.0134L0.2355,0.0129L0.2485,0.0125L0.2614,0.012L0.2744,0.0115L0.2874,0.011L0.3003,0.0105L0.3132,0.01L0.3262,0.0096L0.3391,0.0091L0.352,0.0086L0.3649,0.0082L0.3778,0.0077L0.3908,0.0073L0.4037,0.0069L0.4166,0.0065L0.4295,0.0061L0.4425,0.0057L0.4554,0.0054L0.4683,0.0051L0.4813,0.0047L0.4942,0.0044L0.5071,0.0042L0.5201,0.0039L0.533,0.0036L0.546,0.0034L0.559,0.0032L0.572,0.003L0.5849,0.0028L0.5979,0.0026L0.6109,0.0025L0.6239,0.0023L0.6369,0.0022L0.6499,0.0021L0.6629,0.002L0.6759,0.0019L0.6889,0.0019L0.7019,0.0018L0.7149,0.0017L0.7279,0.0017L0.7409,0.0016L0.7539,0.0016L0.7669,0.0015L0.7799,0.0015L0.7929,0.0014L0.806,0.0014L0.819,0.0014L0.832,0.0013L0.845,0.0013L0.858,0.0013L0.871,0.0012L0.884,0.0012L0.8971,0.0011L0.9101,0.0011L0.9231,0.0011L0.9361,0.001L0.9491,0.001L0.962,0.0009L0.9745,0.0009L0.9861,0.0008L0.9955,0.0008L1,0.0008"
    />
</svg>
