
<svg 
  class="airfoil-ag09"
  fill="none"
  stroke="black" 
  stroke-width="1"
  style="overflow:visible"
  viewBox="0, -0.0417, 1, 0.0542"
  xmlns="http://www.w3.org/2000/svg">
    <title>AG09</title>
    <path 
      vector-effect="non-scaling-stroke"
      d="M1,-0.001L0.9949,-0.0014L0.985,-0.0022L0.9734,-0.0031L0.961,-0.0041L0.9485,-0.005L0.9359,-0.006L0.9233,-0.007L0.9107,-0.0079L0.898,-0.0089L0.8854,-0.0098L0.8728,-0.0108L0.8602,-0.0117L0.8476,-0.0126L0.835,-0.0136L0.8224,-0.0145L0.8098,-0.0154L0.7972,-0.0163L0.7846,-0.0172L0.772,-0.0181L0.7594,-0.0189L0.7468,-0.0198L0.7342,-0.0207L0.7216,-0.0216L0.709,-0.0224L0.6963,-0.0233L0.6837,-0.0241L0.6711,-0.0249L0.6585,-0.0257L0.6459,-0.0265L0.6332,-0.0273L0.6206,-0.0281L0.608,-0.0289L0.5954,-0.0296L0.5828,-0.0303L0.5702,-0.0311L0.5576,-0.0318L0.545,-0.0324L0.5325,-0.0331L0.5199,-0.0337L0.5073,-0.0344L0.4948,-0.035L0.4822,-0.0356L0.4697,-0.0361L0.4571,-0.0367L0.4446,-0.0372L0.4321,-0.0377L0.4196,-0.0382L0.4071,-0.0386L0.3946,-0.0391L0.3821,-0.0395L0.3697,-0.0398L0.3572,-0.0402L0.3448,-0.0405L0.3323,-0.0408L0.3199,-0.041L0.3075,-0.0413L0.2951,-0.0414L0.2828,-0.0415L0.2704,-0.0416L0.258,-0.0417L0.2457,-0.0416L0.2333,-0.0415L0.221,-0.0414L0.2087,-0.0412L0.1964,-0.0409L0.1841,-0.0405L0.1719,-0.04L0.1597,-0.0394L0.1475,-0.0386L0.1354,-0.0378L0.1233,-0.0368L0.1114,-0.0356L0.0996,-0.0343L0.088,-0.0327L0.0766,-0.0309L0.0656,-0.0289L0.055,-0.0267L0.0448,-0.0242L0.0354,-0.0215L0.027,-0.0187L0.02,-0.0159L0.0144,-0.0132L0.0102,-0.0109L0.007,-0.0089L0.0047,-0.0071L0.0029,-0.0056L0.0017,-0.0041L0.0008,-0.0028L0.0002,-0.0016L0,-0.0005L0,0.0006L0.0003,0.0017L0.0009,0.003L0.002,0.0042L0.0036,0.0054L0.0057,0.0065L0.0086,0.0077L0.0123,0.0088L0.0174,0.0099L0.0241,0.0109L0.0325,0.0117L0.0423,0.0123L0.053,0.0125L0.0643,0.0125L0.076,0.0123L0.0879,0.012L0.0999,0.0116L0.1121,0.0112L0.1244,0.0107L0.1368,0.0101L0.1492,0.0096L0.1618,0.0091L0.1744,0.0086L0.1871,0.008L0.1998,0.0075L0.2125,0.0071L0.2253,0.0066L0.2381,0.0061L0.2509,0.0057L0.2637,0.0053L0.2766,0.005L0.2895,0.0046L0.3025,0.0043L0.3154,0.004L0.3283,0.0037L0.3412,0.0034L0.3541,0.0032L0.3669,0.003L0.3796,0.0028L0.3923,0.0026L0.405,0.0024L0.4176,0.0023L0.4303,0.0022L0.4429,0.002L0.4555,0.0019L0.4681,0.0018L0.4807,0.0017L0.4933,0.0016L0.5059,0.0015L0.5184,0.0015L0.531,0.0014L0.5436,0.0013L0.5562,0.0013L0.5688,0.0012L0.5813,0.0012L0.5939,0.0011L0.6065,0.0011L0.6191,0.0011L0.6317,0.0011L0.6443,0.0011L0.6569,0.0011L0.6695,0.001L0.6821,0.001L0.6948,0.001L0.7074,0.001L0.7201,0.001L0.7327,0.001L0.7454,0.001L0.758,0.001L0.7707,0.001L0.7833,0.001L0.796,0.001L0.8086,0.001L0.8213,0.001L0.8339,0.001L0.8466,0.001L0.8592,0.001L0.8719,0.001L0.8846,0.001L0.8972,0.001L0.9099,0.001L0.9226,0.001L0.9352,0.001L0.9479,0.001L0.9605,0.001L0.973,0.001L0.9848,0.001L0.9948,0.001L1,0.001"
    />
</svg>
