
<svg 
  class="airfoil-ag10"
  fill="none"
  stroke="black" 
  stroke-width="1"
  style="overflow:visible"
  viewBox="0, -0.0392, 1, 0.0519"
  xmlns="http://www.w3.org/2000/svg">
    <title>AG10</title>
    <path 
      vector-effect="non-scaling-stroke"
      d="M1,-0.0022L0.9948,-0.0026L0.9849,-0.0033L0.9733,-0.0041L0.9609,-0.005L0.9484,-0.0059L0.9357,-0.0068L0.9231,-0.0077L0.9105,-0.0086L0.8978,-0.0094L0.8852,-0.0103L0.8726,-0.0111L0.86,-0.012L0.8474,-0.0128L0.8348,-0.0136L0.8222,-0.0144L0.8096,-0.0152L0.797,-0.016L0.7844,-0.0168L0.7718,-0.0175L0.7592,-0.0183L0.7466,-0.0191L0.734,-0.0198L0.7214,-0.0205L0.7088,-0.0213L0.6962,-0.022L0.6836,-0.0227L0.671,-0.0234L0.6585,-0.024L0.6459,-0.0247L0.6333,-0.0254L0.6207,-0.026L0.6081,-0.0267L0.5956,-0.0273L0.583,-0.0279L0.5704,-0.0285L0.5579,-0.0291L0.5453,-0.0297L0.5328,-0.0303L0.5203,-0.0308L0.5078,-0.0314L0.4953,-0.0319L0.4828,-0.0324L0.4703,-0.0329L0.4578,-0.0334L0.4453,-0.0339L0.4329,-0.0344L0.4204,-0.0348L0.408,-0.0353L0.3955,-0.0357L0.3831,-0.0361L0.3707,-0.0365L0.3582,-0.0369L0.3458,-0.0373L0.3334,-0.0376L0.321,-0.038L0.3086,-0.0382L0.2962,-0.0385L0.2838,-0.0387L0.2714,-0.0389L0.259,-0.0391L0.2466,-0.0392L0.2342,-0.0392L0.2218,-0.0392L0.2094,-0.0391L0.1971,-0.0389L0.1847,-0.0386L0.1723,-0.0383L0.16,-0.0378L0.1477,-0.0372L0.1355,-0.0365L0.1234,-0.0357L0.1114,-0.0347L0.0996,-0.0335L0.088,-0.0322L0.0767,-0.0306L0.0657,-0.0289L0.055,-0.0268L0.0449,-0.0246L0.0354,-0.0221L0.027,-0.0194L0.02,-0.0168L0.0144,-0.0143L0.0102,-0.012L0.007,-0.0101L0.0047,-0.0083L0.0029,-0.0067L0.0016,-0.0052L0.0007,-0.0038L0.0002,-0.0024L0,-0.0012L0,-0L0.0003,0.002L0.0008,0.0033L0.0019,0.0047L0.0034,0.006L0.0056,0.0072L0.0084,0.0083L0.0122,0.0094L0.0172,0.0104L0.0239,0.0113L0.0323,0.0121L0.0422,0.0125L0.0529,0.0127L0.0642,0.0127L0.0758,0.0125L0.0877,0.0122L0.0998,0.0118L0.112,0.0114L0.1243,0.0109L0.1366,0.0104L0.149,0.0099L0.1615,0.0094L0.174,0.0089L0.1865,0.0084L0.1991,0.0078L0.2117,0.0073L0.2243,0.0068L0.237,0.0064L0.2496,0.0059L0.2623,0.0055L0.275,0.005L0.2877,0.0046L0.3004,0.0042L0.3132,0.0039L0.3259,0.0035L0.3386,0.0032L0.3513,0.0029L0.364,0.0027L0.3766,0.0024L0.3893,0.0022L0.402,0.0021L0.4147,0.0019L0.4274,0.0018L0.4401,0.0017L0.4527,0.0016L0.4654,0.0015L0.4781,0.0014L0.4908,0.0014L0.5035,0.0014L0.5162,0.0014L0.5288,0.0014L0.5415,0.0014L0.5542,0.0014L0.5669,0.0014L0.5796,0.0014L0.5923,0.0014L0.6049,0.0014L0.6176,0.0014L0.6303,0.0014L0.643,0.0014L0.6556,0.0014L0.6683,0.0014L0.681,0.0014L0.6937,0.0014L0.7064,0.0014L0.719,0.0014L0.7317,0.0014L0.7444,0.0014L0.7571,0.0014L0.7698,0.0014L0.7825,0.0014L0.7952,0.0014L0.8079,0.0014L0.8206,0.0014L0.8333,0.0014L0.846,0.0014L0.8587,0.0014L0.8714,0.0015L0.8841,0.0014L0.8969,0.0014L0.9096,0.0014L0.9223,0.0014L0.935,0.0014L0.9477,0.0014L0.9604,0.0014L0.9729,0.0014L0.9848,0.0014L0.9948,0.0014L1,0.0014"
    />
</svg>
