
<svg 
  class="airfoil-ag11"
  fill="none"
  stroke="black" 
  stroke-width="1"
  style="overflow:visible"
  viewBox="0, -0.0519, 1, 0.0599"
  xmlns="http://www.w3.org/2000/svg">
    <title>AG11</title>
    <path 
      vector-effect="non-scaling-stroke"
      d="M1,-0.0012L0.9949,-0.0018L0.9851,-0.0028L0.9735,-0.0039L0.9612,-0.0051L0.9487,-0.0063L0.9361,-0.0076L0.9235,-0.0088L0.911,-0.01L0.8984,-0.0113L0.8858,-0.0125L0.8733,-0.0137L0.8607,-0.0149L0.8482,-0.0161L0.8356,-0.0173L0.8231,-0.0185L0.8105,-0.0197L0.798,-0.0208L0.7855,-0.022L0.7729,-0.0231L0.7604,-0.0242L0.7478,-0.0253L0.7353,-0.0264L0.7227,-0.0275L0.7102,-0.0286L0.6976,-0.0297L0.685,-0.0307L0.6725,-0.0318L0.6599,-0.0328L0.6474,-0.0338L0.6349,-0.0348L0.6223,-0.0358L0.6098,-0.0367L0.5972,-0.0377L0.5847,-0.0386L0.5722,-0.0395L0.5596,-0.0404L0.5471,-0.0412L0.5346,-0.0421L0.5221,-0.0429L0.5095,-0.0437L0.497,-0.0444L0.4845,-0.0451L0.472,-0.0458L0.4595,-0.0465L0.447,-0.0471L0.4345,-0.0477L0.422,-0.0483L0.4095,-0.0488L0.397,-0.0493L0.3845,-0.0498L0.372,-0.0502L0.3595,-0.0506L0.347,-0.0509L0.3346,-0.0512L0.3221,-0.0514L0.3097,-0.0516L0.2972,-0.0518L0.2848,-0.0519L0.2724,-0.0519L0.26,-0.0518L0.2477,-0.0517L0.2353,-0.0516L0.223,-0.0513L0.2107,-0.051L0.1985,-0.0505L0.1863,-0.05L0.1741,-0.0494L0.162,-0.0487L0.15,-0.0478L0.1381,-0.0468L0.1262,-0.0457L0.1145,-0.0444L0.1029,-0.0429L0.0915,-0.0412L0.0803,-0.0393L0.0693,-0.0372L0.0588,-0.0349L0.0487,-0.0323L0.0393,-0.0294L0.031,-0.0265L0.0241,-0.0235L0.0187,-0.0208L0.0146,-0.0184L0.0116,-0.0163L0.0093,-0.0145L0.0076,-0.013L0.0061,-0.0115L0.005,-0.0103L0.0041,-0.0092L0.0033,-0.0081L0.0026,-0.0071L0.002,-0.0061L0.0015,-0.0051L0.0008,-0.0037L0.0003,-0.0019L0,-0.0006L0.0001,0.0009L0.0005,0.0023L0.0016,0.0035L0.0033,0.0044L0.0056,0.0051L0.0112,0.0061L0.0185,0.0069L0.0279,0.0074L0.0389,0.0078L0.0505,0.008L0.0626,0.008L0.0751,0.008L0.0878,0.0079L0.1007,0.0078L0.1137,0.0076L0.1269,0.0075L0.1401,0.0073L0.1534,0.0072L0.1658,0.007L0.1782,0.0069L0.1907,0.0068L0.2032,0.0067L0.2158,0.0066L0.2283,0.0065L0.2409,0.0064L0.2536,0.0063L0.2662,0.0062L0.2788,0.0061L0.2915,0.0061L0.3041,0.006L0.3168,0.0059L0.3294,0.0058L0.3421,0.0057L0.3547,0.0056L0.3673,0.0055L0.38,0.0054L0.3926,0.0054L0.4052,0.0053L0.4178,0.0052L0.4304,0.0051L0.443,0.005L0.4556,0.0049L0.4683,0.0048L0.4809,0.0047L0.4935,0.0046L0.5061,0.0046L0.5187,0.0045L0.5313,0.0044L0.544,0.0043L0.5566,0.0042L0.5692,0.0041L0.5818,0.004L0.5944,0.0039L0.607,0.0038L0.6196,0.0038L0.6322,0.0037L0.6449,0.0036L0.6575,0.0035L0.6701,0.0034L0.6827,0.0033L0.6953,0.0032L0.7079,0.0031L0.7205,0.0031L0.7332,0.003L0.7458,0.0029L0.7584,0.0028L0.771,0.0027L0.7836,0.0026L0.7963,0.0025L0.8089,0.0024L0.8215,0.0023L0.8342,0.0023L0.8468,0.0022L0.8594,0.0021L0.8721,0.002L0.8848,0.0019L0.8974,0.0018L0.9101,0.0017L0.9227,0.0016L0.9354,0.0016L0.948,0.0015L0.9606,0.0014L0.973,0.0013L0.9849,0.0012L0.9949,0.0011L1,0.0011"
    />
</svg>
