
<svg 
  class="airfoil-ag12"
  fill="none"
  stroke="black" 
  stroke-width="1"
  style="overflow:visible"
  viewBox="0, -0.0474, 1, 0.0648"
  xmlns="http://www.w3.org/2000/svg">
    <title>AG12</title>
    <path 
      vector-effect="non-scaling-stroke"
      d="M1,-0.0005L0.9941,-0.001L0.9822,-0.0022L0.9687,-0.0035L0.9549,-0.0048L0.9411,-0.0061L0.9273,-0.0073L0.9134,-0.0086L0.8996,-0.0098L0.8857,-0.011L0.8719,-0.0122L0.858,-0.0134L0.8441,-0.0145L0.8302,-0.0157L0.8163,-0.0168L0.8024,-0.018L0.7885,-0.0191L0.7747,-0.0203L0.7608,-0.0214L0.7469,-0.0225L0.733,-0.0236L0.7192,-0.0247L0.7053,-0.0258L0.6914,-0.0269L0.6775,-0.0279L0.6637,-0.029L0.6498,-0.03L0.6359,-0.031L0.6221,-0.032L0.6082,-0.033L0.5943,-0.034L0.5805,-0.0349L0.5666,-0.0358L0.5528,-0.0367L0.5389,-0.0376L0.525,-0.0385L0.5112,-0.0393L0.4973,-0.0401L0.4835,-0.0409L0.4697,-0.0416L0.4558,-0.0423L0.442,-0.043L0.4281,-0.0436L0.4143,-0.0442L0.4005,-0.0448L0.3867,-0.0453L0.3729,-0.0458L0.3591,-0.0462L0.3453,-0.0465L0.3315,-0.0468L0.3177,-0.0471L0.3039,-0.0473L0.2902,-0.0474L0.2764,-0.0474L0.2627,-0.0474L0.249,-0.0472L0.2353,-0.047L0.2216,-0.0467L0.208,-0.0463L0.1944,-0.0457L0.1808,-0.0451L0.1673,-0.0443L0.1538,-0.0433L0.1404,-0.0422L0.127,-0.0409L0.1138,-0.0394L0.1007,-0.0376L0.0877,-0.0357L0.0749,-0.0334L0.0624,-0.0308L0.0502,-0.0278L0.0386,-0.0244L0.0279,-0.0206L0.0188,-0.0166L0.0119,-0.0128L0.0072,-0.0096L0.0043,-0.0071L0.0023,-0.0049L0.001,-0.0031L0.0003,-0.0015L0,0L0.0003,0.0015L0.0013,0.0029L0.0029,0.0042L0.0052,0.0056L0.0086,0.007L0.0137,0.0087L0.0213,0.0106L0.0317,0.0125L0.0436,0.014L0.0563,0.0151L0.0693,0.016L0.0825,0.0166L0.096,0.017L0.1095,0.0173L0.1231,0.0174L0.1367,0.0174L0.1504,0.0173L0.1641,0.0171L0.1778,0.0169L0.1916,0.0165L0.2054,0.0162L0.2192,0.0157L0.233,0.0153L0.2468,0.0148L0.2607,0.0142L0.2745,0.0136L0.2884,0.0131L0.3023,0.0124L0.3162,0.0118L0.3301,0.0112L0.344,0.0105L0.3579,0.0099L0.3718,0.0093L0.3857,0.0086L0.3996,0.008L0.4136,0.0073L0.4275,0.0067L0.4414,0.006L0.4553,0.0054L0.4692,0.0048L0.4831,0.0042L0.497,0.0037L0.5109,0.0031L0.5247,0.0026L0.5386,0.0021L0.5525,0.0016L0.5664,0.0011L0.5803,0.0006L0.5941,0.0002L0.608,-0.0002L0.6219,-0.0005L0.6357,-0.0009L0.6496,-0.0012L0.6635,-0.0015L0.6773,-0.0017L0.6912,-0.002L0.7051,-0.0022L0.7189,-0.0023L0.7328,-0.0025L0.7467,-0.0026L0.7605,-0.0026L0.7744,-0.0027L0.7883,-0.0027L0.8021,-0.0027L0.816,-0.0027L0.8299,-0.0026L0.8437,-0.0025L0.8576,-0.0024L0.8715,-0.0022L0.8853,-0.002L0.8992,-0.0018L0.9131,-0.0016L0.9269,-0.0013L0.9408,-0.001L0.9547,-0.0007L0.9685,-0.0004L0.9821,0L0.9941,0.0003L1,0.0005"
    />
</svg>
