
<svg 
  class="airfoil-ag13"
  fill="none"
  stroke="black" 
  stroke-width="1"
  style="overflow:visible"
  viewBox="0, -0.0466, 1, 0.0614"
  xmlns="http://www.w3.org/2000/svg">
    <title>AG13</title>
    <path 
      vector-effect="non-scaling-stroke"
      d="M1,-0.0005L0.9942,-0.001L0.9822,-0.0022L0.9687,-0.0036L0.955,-0.0049L0.9413,-0.0062L0.9276,-0.0074L0.9138,-0.0087L0.9001,-0.0099L0.8863,-0.0111L0.8725,-0.0123L0.8588,-0.0135L0.845,-0.0147L0.8313,-0.0158L0.8175,-0.017L0.8037,-0.0181L0.7899,-0.0192L0.7762,-0.0204L0.7624,-0.0215L0.7486,-0.0225L0.7348,-0.0236L0.7211,-0.0247L0.7073,-0.0257L0.6935,-0.0268L0.6797,-0.0278L0.666,-0.0288L0.6522,-0.0298L0.6384,-0.0308L0.6246,-0.0318L0.6109,-0.0327L0.5971,-0.0336L0.5833,-0.0345L0.5695,-0.0354L0.5558,-0.0363L0.542,-0.0372L0.5283,-0.038L0.5145,-0.0388L0.5007,-0.0395L0.487,-0.0403L0.4732,-0.041L0.4595,-0.0417L0.4457,-0.0423L0.432,-0.043L0.4182,-0.0435L0.4045,-0.0441L0.3908,-0.0446L0.377,-0.045L0.3633,-0.0454L0.3496,-0.0458L0.3359,-0.0461L0.3222,-0.0463L0.3085,-0.0465L0.2948,-0.0466L0.2811,-0.0466L0.2675,-0.0466L0.2538,-0.0465L0.2402,-0.0463L0.2266,-0.0461L0.213,-0.0457L0.1994,-0.0452L0.1859,-0.0446L0.1724,-0.0439L0.1589,-0.043L0.1455,-0.042L0.1322,-0.0408L0.119,-0.0395L0.1058,-0.0379L0.0928,-0.036L0.0799,-0.034L0.0673,-0.0315L0.055,-0.0288L0.0431,-0.0256L0.032,-0.022L0.022,-0.0181L0.0139,-0.014L0.0083,-0.0104L0.0048,-0.0076L0.0025,-0.0052L0.0011,-0.0033L0.0003,-0.0016L0,-0.0001L0.0003,0.0014L0.0013,0.0029L0.003,0.0042L0.0055,0.0055L0.0092,0.0069L0.0151,0.0085L0.024,0.0103L0.0353,0.0118L0.0477,0.0129L0.0607,0.0137L0.0739,0.0143L0.0872,0.0146L0.1007,0.0147L0.1143,0.0148L0.1279,0.0147L0.1415,0.0145L0.1552,0.0143L0.1689,0.014L0.1826,0.0136L0.1964,0.0132L0.2101,0.0128L0.2239,0.0123L0.2376,0.0118L0.2514,0.0112L0.2652,0.0107L0.279,0.0101L0.2928,0.0095L0.3066,0.0089L0.3205,0.0083L0.3343,0.0077L0.3481,0.0071L0.3619,0.0065L0.3758,0.0059L0.3896,0.0053L0.4034,0.0047L0.4172,0.0041L0.431,0.0035L0.4448,0.0029L0.4586,0.0024L0.4724,0.0018L0.4862,0.0013L0.5,0.0008L0.5138,0.0003L0.5276,-0.0001L0.5414,-0.0006L0.5552,-0.001L0.5689,-0.0014L0.5827,-0.0017L0.5965,-0.0021L0.6103,-0.0024L0.624,-0.0027L0.6378,-0.0029L0.6516,-0.0031L0.6654,-0.0033L0.6791,-0.0035L0.6929,-0.0036L0.7067,-0.0037L0.7205,-0.0038L0.7342,-0.0038L0.748,-0.0039L0.7618,-0.0039L0.7756,-0.0038L0.7894,-0.0037L0.8031,-0.0036L0.8169,-0.0035L0.8307,-0.0034L0.8445,-0.0032L0.8583,-0.003L0.872,-0.0027L0.8858,-0.0025L0.8996,-0.0022L0.9134,-0.0019L0.9272,-0.0016L0.941,-0.0012L0.9548,-0.0009L0.9685,-0.0005L0.9821,-0.0001L0.9942,0.0003L1,0.0005"
    />
</svg>
