
<svg 
  class="airfoil-ag14"
  fill="none"
  stroke="black" 
  stroke-width="1"
  style="overflow:visible"
  viewBox="0, -0.0457, 1, 0.0578"
  xmlns="http://www.w3.org/2000/svg">
    <title>AG14</title>
    <path 
      vector-effect="non-scaling-stroke"
      d="M1,-0.0005L0.9942,-0.0011L0.9821,-0.0023L0.9687,-0.0036L0.9551,-0.0049L0.9414,-0.0062L0.9277,-0.0075L0.9141,-0.0087L0.9004,-0.0099L0.8867,-0.0111L0.873,-0.0122L0.8592,-0.0134L0.8455,-0.0145L0.8318,-0.0156L0.8181,-0.0168L0.8043,-0.0179L0.7906,-0.019L0.7769,-0.02L0.7632,-0.0211L0.7494,-0.0222L0.7357,-0.0232L0.722,-0.0243L0.7083,-0.0253L0.6945,-0.0263L0.6808,-0.0273L0.6671,-0.0282L0.6534,-0.0292L0.6396,-0.0301L0.6259,-0.0311L0.6122,-0.032L0.5985,-0.0329L0.5847,-0.0337L0.571,-0.0346L0.5573,-0.0354L0.5436,-0.0362L0.5298,-0.037L0.5161,-0.0378L0.5024,-0.0385L0.4887,-0.0392L0.475,-0.0399L0.4613,-0.0406L0.4475,-0.0412L0.4338,-0.0418L0.4201,-0.0424L0.4064,-0.0429L0.3927,-0.0434L0.379,-0.0438L0.3653,-0.0443L0.3517,-0.0446L0.338,-0.0449L0.3243,-0.0452L0.3107,-0.0454L0.297,-0.0456L0.2834,-0.0457L0.2697,-0.0457L0.2561,-0.0456L0.2425,-0.0455L0.2289,-0.0453L0.2154,-0.045L0.2019,-0.0445L0.1884,-0.044L0.1749,-0.0434L0.1615,-0.0426L0.1481,-0.0416L0.1348,-0.0405L0.1215,-0.0393L0.1084,-0.0378L0.0953,-0.036L0.0824,-0.0341L0.0697,-0.0318L0.0573,-0.0292L0.0454,-0.0261L0.034,-0.0227L0.0237,-0.0188L0.0151,-0.0147L0.009,-0.0109L0.0051,-0.0078L0.0027,-0.0054L0.0012,-0.0034L0.0003,-0.0016L0,-0.0001L0.0003,0.0014L0.0013,0.0028L0.003,0.0041L0.0057,0.0053L0.0096,0.0066L0.016,0.008L0.0254,0.0095L0.0372,0.0106L0.0499,0.0114L0.0629,0.0118L0.0762,0.012L0.0896,0.0121L0.1031,0.012L0.1167,0.0118L0.1303,0.0115L0.144,0.0111L0.1576,0.0107L0.1713,0.0103L0.1851,0.0098L0.1988,0.0093L0.2125,0.0087L0.2263,0.0082L0.2401,0.0076L0.2538,0.007L0.2676,0.0065L0.2814,0.0059L0.2952,0.0053L0.3089,0.0047L0.3227,0.0041L0.3365,0.0036L0.3502,0.003L0.364,0.0024L0.3778,0.0019L0.3915,0.0014L0.4053,0.0009L0.419,0.0004L0.4328,-0.0001L0.4465,-0.0006L0.4602,-0.001L0.474,-0.0014L0.4877,-0.0018L0.5015,-0.0022L0.5152,-0.0026L0.5289,-0.0029L0.5427,-0.0032L0.5564,-0.0035L0.5701,-0.0037L0.5839,-0.004L0.5976,-0.0042L0.6114,-0.0044L0.6251,-0.0045L0.6388,-0.0046L0.6526,-0.0048L0.6663,-0.0048L0.6801,-0.0049L0.6938,-0.0049L0.7075,-0.0049L0.7213,-0.0049L0.735,-0.0049L0.7488,-0.0048L0.7625,-0.0048L0.7762,-0.0047L0.79,-0.0045L0.8037,-0.0044L0.8175,-0.0042L0.8312,-0.004L0.8449,-0.0038L0.8587,-0.0035L0.8724,-0.0032L0.8861,-0.0029L0.8999,-0.0026L0.9136,-0.0023L0.9273,-0.0019L0.9411,-0.0015L0.9548,-0.001L0.9685,-0.0006L0.9821,-0.0001L0.9942,0.0003L1,0.0005"
    />
</svg>
