
<svg 
  class="airfoil-ag16"
  fill="none"
  stroke="black" 
  stroke-width="1"
  style="overflow:visible"
  viewBox="0, -0.0515, 1, 0.0736"
  xmlns="http://www.w3.org/2000/svg">
    <title>AG16</title>
    <path 
      vector-effect="non-scaling-stroke"
      d="M1,-0.0003L0.9941,-0.0009L0.9821,-0.0022L0.9685,-0.0036L0.9547,-0.005L0.9408,-0.0065L0.9269,-0.0079L0.913,-0.0093L0.8991,-0.0107L0.8852,-0.0121L0.8713,-0.0135L0.8574,-0.0149L0.8435,-0.0163L0.8297,-0.0176L0.8158,-0.019L0.8019,-0.0203L0.788,-0.0216L0.7741,-0.0229L0.7602,-0.0242L0.7463,-0.0255L0.7325,-0.0267L0.7186,-0.028L0.7047,-0.0292L0.6908,-0.0304L0.6769,-0.0316L0.663,-0.0327L0.6491,-0.0339L0.6352,-0.035L0.6214,-0.0361L0.6075,-0.0372L0.5936,-0.0382L0.5797,-0.0392L0.5658,-0.0402L0.552,-0.0412L0.5381,-0.0421L0.5242,-0.0431L0.5103,-0.0439L0.4965,-0.0448L0.4826,-0.0456L0.4687,-0.0463L0.4549,-0.047L0.441,-0.0477L0.4272,-0.0483L0.4133,-0.0489L0.3995,-0.0495L0.3856,-0.0499L0.3718,-0.0504L0.358,-0.0507L0.3442,-0.051L0.3304,-0.0513L0.3166,-0.0514L0.3028,-0.0515L0.289,-0.0515L0.2752,-0.0514L0.2615,-0.0513L0.2477,-0.051L0.234,-0.0507L0.2203,-0.0502L0.2067,-0.0496L0.193,-0.0489L0.1794,-0.0481L0.1659,-0.0471L0.1524,-0.046L0.139,-0.0447L0.1257,-0.0432L0.1124,-0.0414L0.0993,-0.0395L0.0864,-0.0372L0.0736,-0.0347L0.0612,-0.0318L0.0491,-0.0285L0.0376,-0.0248L0.027,-0.0208L0.018,-0.0166L0.0114,-0.0127L0.0069,-0.0095L0.0041,-0.0069L0.0022,-0.0048L0.001,-0.0029L0.0002,-0.0013L0,0.0002L0.0003,0.0017L0.0013,0.0031L0.0029,0.0046L0.0053,0.006L0.0087,0.0077L0.0138,0.0097L0.0215,0.012L0.0317,0.0143L0.0435,0.0163L0.0561,0.0179L0.0691,0.0191L0.0823,0.0201L0.0957,0.0209L0.1092,0.0214L0.1227,0.0218L0.1363,0.022L0.15,0.0221L0.1637,0.022L0.1774,0.0219L0.1912,0.0216L0.2049,0.0213L0.2187,0.021L0.2325,0.0205L0.2463,0.02L0.2602,0.0195L0.274,0.0189L0.2879,0.0183L0.3017,0.0176L0.3156,0.017L0.3295,0.0163L0.3434,0.0156L0.3574,0.0148L0.3713,0.0141L0.3852,0.0134L0.3992,0.0126L0.4131,0.0119L0.4271,0.0111L0.441,0.0104L0.455,0.0096L0.4689,0.0089L0.4828,0.0082L0.4967,0.0075L0.5106,0.0068L0.5245,0.0061L0.5384,0.0055L0.5522,0.0048L0.5661,0.0042L0.58,0.0036L0.5939,0.0031L0.6077,0.0025L0.6216,0.002L0.6355,0.0015L0.6493,0.0011L0.6632,0.0006L0.677,0.0002L0.6909,-0.0001L0.7048,-0.0005L0.7186,-0.0008L0.7325,-0.001L0.7463,-0.0013L0.7602,-0.0015L0.7741,-0.0016L0.7879,-0.0018L0.8018,-0.0019L0.8157,-0.0019L0.8296,-0.0019L0.8434,-0.0019L0.8573,-0.0019L0.8712,-0.0018L0.8851,-0.0017L0.899,-0.0015L0.9129,-0.0013L0.9268,-0.0011L0.9407,-0.0008L0.9546,-0.0005L0.9684,-0.0002L0.982,0.0001L0.9941,0.0005L1,0.0007"
    />
</svg>
