
<svg 
  class="airfoil-ag17"
  fill="none"
  stroke="black" 
  stroke-width="1"
  style="overflow:visible"
  viewBox="0, -0.0499, 1, 0.0677"
  xmlns="http://www.w3.org/2000/svg">
    <title>AG17</title>
    <path 
      vector-effect="non-scaling-stroke"
      d="M1,-0.0003L0.9941,-0.0009L0.9821,-0.0022L0.9685,-0.0036L0.9547,-0.005L0.9408,-0.0064L0.9269,-0.0078L0.913,-0.0092L0.8991,-0.0106L0.8852,-0.0119L0.8713,-0.0133L0.8575,-0.0146L0.8436,-0.016L0.8297,-0.0173L0.8158,-0.0186L0.8019,-0.0199L0.788,-0.0212L0.7742,-0.0224L0.7603,-0.0237L0.7464,-0.0249L0.7325,-0.0261L0.7186,-0.0273L0.7047,-0.0285L0.6909,-0.0297L0.677,-0.0308L0.6631,-0.032L0.6492,-0.0331L0.6353,-0.0342L0.6214,-0.0352L0.6076,-0.0363L0.5937,-0.0373L0.5798,-0.0383L0.5659,-0.0392L0.5521,-0.0402L0.5382,-0.0411L0.5243,-0.0419L0.5104,-0.0428L0.4966,-0.0435L0.4827,-0.0443L0.4689,-0.045L0.455,-0.0457L0.4411,-0.0463L0.4273,-0.0469L0.4135,-0.0475L0.3996,-0.0479L0.3858,-0.0484L0.3719,-0.0488L0.3581,-0.0491L0.3443,-0.0494L0.3305,-0.0496L0.3167,-0.0498L0.3029,-0.0499L0.2891,-0.0499L0.2754,-0.0499L0.2616,-0.0497L0.2479,-0.0495L0.2342,-0.0492L0.2205,-0.0488L0.2069,-0.0483L0.1932,-0.0476L0.1796,-0.0468L0.1661,-0.0459L0.1526,-0.0449L0.1392,-0.0436L0.1258,-0.0422L0.1126,-0.0406L0.0995,-0.0387L0.0865,-0.0366L0.0738,-0.0342L0.0613,-0.0314L0.0492,-0.0282L0.0376,-0.0247L0.027,-0.0207L0.018,-0.0166L0.0114,-0.0127L0.0069,-0.0095L0.0041,-0.007L0.0022,-0.0048L0.001,-0.003L0.0002,-0.0013L0,0.0002L0.0004,0.0016L0.0014,0.0031L0.0031,0.0044L0.0055,0.0057L0.0089,0.0072L0.0142,0.009L0.0219,0.0109L0.0322,0.0127L0.0441,0.0143L0.0567,0.0154L0.0697,0.0163L0.083,0.017L0.0963,0.0174L0.1098,0.0177L0.1233,0.0178L0.1369,0.0178L0.1506,0.0177L0.1643,0.0176L0.178,0.0173L0.1917,0.017L0.2055,0.0166L0.2193,0.0162L0.233,0.0157L0.2468,0.0151L0.2607,0.0146L0.2745,0.014L0.2883,0.0134L0.3022,0.0127L0.3161,0.0121L0.33,0.0114L0.3439,0.0107L0.3578,0.0101L0.3717,0.0094L0.3856,0.0087L0.3996,0.008L0.4135,0.0073L0.4275,0.0067L0.4414,0.006L0.4553,0.0054L0.4692,0.0047L0.4831,0.0041L0.497,0.0035L0.5109,0.0029L0.5248,0.0024L0.5387,0.0018L0.5526,0.0013L0.5664,0.0008L0.5803,0.0004L0.5942,-0.0001L0.608,-0.0005L0.6219,-0.0009L0.6358,-0.0012L0.6496,-0.0015L0.6635,-0.0018L0.6773,-0.0021L0.6912,-0.0023L0.705,-0.0025L0.7188,-0.0027L0.7327,-0.0029L0.7465,-0.003L0.7604,-0.003L0.7743,-0.0031L0.7881,-0.0031L0.802,-0.0031L0.8158,-0.003L0.8297,-0.0029L0.8436,-0.0028L0.8575,-0.0026L0.8713,-0.0024L0.8852,-0.0022L0.8991,-0.002L0.913,-0.0017L0.9268,-0.0014L0.9407,-0.0011L0.9546,-0.0007L0.9684,-0.0003L0.9821,0.0001L0.9941,0.0005L1,0.0007"
    />
</svg>
