
<svg 
  class="airfoil-ag18"
  fill="none"
  stroke="black" 
  stroke-width="1"
  style="overflow:visible"
  viewBox="0, -0.0483, 1, 0.062200002"
  xmlns="http://www.w3.org/2000/svg">
    <title>AG18</title>
    <path 
      vector-effect="non-scaling-stroke"
      d="M1,-0.0002L0.9941,-0.0009L0.9821,-0.0021L0.9685,-0.0035L0.9547,-0.0049L0.9408,-0.0063L0.9269,-0.0077L0.913,-0.009L0.8992,-0.0104L0.8853,-0.0117L0.8714,-0.013L0.8575,-0.0143L0.8436,-0.0156L0.8297,-0.0169L0.8159,-0.0182L0.802,-0.0194L0.7881,-0.0207L0.7742,-0.0219L0.7603,-0.0231L0.7464,-0.0243L0.7326,-0.0255L0.7187,-0.0267L0.7048,-0.0278L0.6909,-0.029L0.677,-0.0301L0.6631,-0.0312L0.6493,-0.0323L0.6354,-0.0334L0.6215,-0.0344L0.6076,-0.0354L0.5938,-0.0364L0.5799,-0.0373L0.566,-0.0382L0.5521,-0.0391L0.5383,-0.04L0.5244,-0.0408L0.5105,-0.0416L0.4967,-0.0423L0.4828,-0.043L0.469,-0.0437L0.4551,-0.0443L0.4413,-0.0449L0.4274,-0.0455L0.4136,-0.046L0.3997,-0.0464L0.3859,-0.0469L0.3721,-0.0472L0.3583,-0.0475L0.3445,-0.0478L0.3307,-0.048L0.3169,-0.0482L0.3031,-0.0483L0.2893,-0.0483L0.2756,-0.0483L0.2618,-0.0482L0.2481,-0.048L0.2344,-0.0477L0.2207,-0.0473L0.207,-0.0469L0.1934,-0.0463L0.1798,-0.0456L0.1663,-0.0447L0.1528,-0.0438L0.1394,-0.0426L0.126,-0.0413L0.1128,-0.0397L0.0997,-0.038L0.0867,-0.036L0.0739,-0.0337L0.0614,-0.031L0.0493,-0.028L0.0377,-0.0245L0.0271,-0.0206L0.0181,-0.0165L0.0114,-0.0127L0.0069,-0.0096L0.0041,-0.007L0.0022,-0.0049L0.001,-0.003L0.0002,-0.0014L0,0.0001L0.0004,0.0016L0.0014,0.003L0.0032,0.0042L0.0057,0.0054L0.0092,0.0067L0.0145,0.0082L0.0224,0.0097L0.0327,0.0111L0.0446,0.0122L0.0573,0.013L0.0703,0.0135L0.0835,0.0138L0.0969,0.0139L0.1103,0.0139L0.1239,0.0138L0.1375,0.0136L0.1511,0.0134L0.1648,0.0131L0.1785,0.0127L0.1922,0.0123L0.206,0.0119L0.2197,0.0114L0.2335,0.0108L0.2473,0.0103L0.2611,0.0097L0.2749,0.0091L0.2888,0.0085L0.3026,0.0078L0.3165,0.0072L0.3304,0.0066L0.3442,0.0059L0.3581,0.0053L0.3721,0.0047L0.386,0.004L0.3999,0.0034L0.4139,0.0028L0.4278,0.0022L0.4417,0.0017L0.4557,0.0011L0.4696,0.0006L0.4835,0L0.4974,-0.0005L0.5112,-0.0009L0.5251,-0.0014L0.539,-0.0018L0.5529,-0.0022L0.5667,-0.0026L0.5806,-0.0029L0.5945,-0.0032L0.6083,-0.0035L0.6222,-0.0037L0.636,-0.004L0.6499,-0.0042L0.6637,-0.0043L0.6775,-0.0045L0.6914,-0.0046L0.7052,-0.0046L0.7191,-0.0047L0.7329,-0.0047L0.7467,-0.0046L0.7606,-0.0046L0.7744,-0.0045L0.7883,-0.0044L0.8021,-0.0043L0.816,-0.0041L0.8299,-0.0039L0.8437,-0.0036L0.8576,-0.0034L0.8714,-0.0031L0.8853,-0.0028L0.8992,-0.0024L0.913,-0.0021L0.9269,-0.0017L0.9408,-0.0013L0.9546,-0.0008L0.9685,-0.0004L0.9821,0.0001L0.9941,0.0005L1,0.0007"
    />
</svg>
