
<svg 
  class="airfoil-ag19"
  fill="none"
  stroke="black" 
  stroke-width="1"
  style="overflow:visible"
  viewBox="0, -0.0472, 1, 0.0588"
  xmlns="http://www.w3.org/2000/svg">
    <title>AG19</title>
    <path 
      vector-effect="non-scaling-stroke"
      d="M1,-0.0002L0.9941,-0.0008L0.9821,-0.0021L0.9685,-0.0035L0.9547,-0.0049L0.9408,-0.0063L0.9269,-0.0076L0.9131,-0.0089L0.8992,-0.0102L0.8853,-0.0115L0.8714,-0.0128L0.8575,-0.0141L0.8436,-0.0154L0.8298,-0.0167L0.8159,-0.0179L0.802,-0.0191L0.7881,-0.0204L0.7742,-0.0216L0.7604,-0.0228L0.7465,-0.0239L0.7326,-0.0251L0.7187,-0.0262L0.7048,-0.0274L0.691,-0.0285L0.6771,-0.0296L0.6632,-0.0307L0.6493,-0.0318L0.6354,-0.0328L0.6216,-0.0338L0.6077,-0.0348L0.5938,-0.0357L0.5799,-0.0367L0.5661,-0.0375L0.5522,-0.0384L0.5383,-0.0392L0.5245,-0.04L0.5106,-0.0408L0.4967,-0.0415L0.4829,-0.0421L0.469,-0.0428L0.4552,-0.0434L0.4413,-0.0439L0.4275,-0.0445L0.4136,-0.0449L0.3998,-0.0454L0.386,-0.0458L0.3722,-0.0461L0.3584,-0.0464L0.3445,-0.0467L0.3307,-0.0469L0.317,-0.047L0.3032,-0.0471L0.2894,-0.0472L0.2757,-0.0471L0.2619,-0.0471L0.2482,-0.0469L0.2345,-0.0466L0.2208,-0.0463L0.2072,-0.0459L0.1936,-0.0453L0.18,-0.0447L0.1664,-0.0439L0.1529,-0.043L0.1395,-0.0419L0.1262,-0.0406L0.1129,-0.0392L0.0998,-0.0375L0.0868,-0.0355L0.074,-0.0333L0.0615,-0.0307L0.0494,-0.0278L0.0378,-0.0244L0.0271,-0.0206L0.0181,-0.0165L0.0114,-0.0127L0.0069,-0.0096L0.0041,-0.007L0.0022,-0.0049L0.001,-0.003L0.0002,-0.0014L0,0.0001L0.0004,0.0016L0.0015,0.0029L0.0033,0.0041L0.0058,0.0052L0.0094,0.0064L0.0147,0.0076L0.0226,0.0089L0.033,0.01L0.0449,0.0108L0.0576,0.0113L0.0706,0.0115L0.0838,0.0116L0.0972,0.0115L0.1107,0.0113L0.1242,0.011L0.1378,0.0106L0.1514,0.0102L0.1651,0.0098L0.1788,0.0093L0.1925,0.0087L0.2062,0.0082L0.22,0.0076L0.2337,0.007L0.2475,0.0064L0.2613,0.0058L0.2751,0.0052L0.289,0.0047L0.3028,0.0041L0.3167,0.0035L0.3306,0.0029L0.3444,0.0023L0.3584,0.0017L0.3723,0.0011L0.3862,0.0006L0.4001,0L0.4141,-0.0005L0.428,-0.001L0.4419,-0.0015L0.4558,-0.002L0.4698,-0.0024L0.4836,-0.0028L0.4975,-0.0032L0.5114,-0.0036L0.5253,-0.004L0.5392,-0.0043L0.553,-0.0046L0.5669,-0.0049L0.5808,-0.0052L0.5946,-0.0054L0.6085,-0.0056L0.6223,-0.0058L0.6362,-0.0059L0.65,-0.006L0.6639,-0.0061L0.6777,-0.0061L0.6915,-0.0061L0.7054,-0.0061L0.7192,-0.006L0.733,-0.0059L0.7469,-0.0058L0.7607,-0.0057L0.7745,-0.0055L0.7884,-0.0053L0.8022,-0.0051L0.8161,-0.0048L0.8299,-0.0046L0.8438,-0.0042L0.8576,-0.0039L0.8715,-0.0036L0.8854,-0.0032L0.8992,-0.0028L0.9131,-0.0023L0.9269,-0.0019L0.9408,-0.0014L0.9547,-0.001L0.9685,-0.0005L0.9821,0.0001L0.9941,0.0005L1,0.0007"
    />
</svg>
