
<svg 
  class="airfoil-ag23"
  fill="none"
  stroke="black" 
  stroke-width="1"
  style="overflow:visible"
  viewBox="0, -0.0648, 1, 0.0908"
  xmlns="http://www.w3.org/2000/svg">
    <title>AG23 AIRFOIL</title>
    <desc># XC Bubble Dancer Root Airfoil</desc>
    <path 
      vector-effect="non-scaling-stroke"
      d="M1,-0.0003L0.994,-0.0011L0.982,-0.0027L0.9685,-0.0046L0.9546,-0.0066L0.9408,-0.0087L0.9269,-0.0107L0.913,-0.0128L0.8991,-0.0148L0.8852,-0.0168L0.8713,-0.0187L0.8574,-0.0207L0.8436,-0.0226L0.8297,-0.0245L0.8158,-0.0264L0.8019,-0.0282L0.788,-0.03L0.7741,-0.0318L0.7602,-0.0336L0.7463,-0.0353L0.7323,-0.037L0.7184,-0.0387L0.7045,-0.0403L0.6906,-0.0418L0.6766,-0.0434L0.6627,-0.0449L0.6488,-0.0463L0.6348,-0.0477L0.6209,-0.0491L0.607,-0.0504L0.593,-0.0516L0.5791,-0.0528L0.5651,-0.054L0.5512,-0.0551L0.5373,-0.0562L0.5233,-0.0572L0.5094,-0.0581L0.4954,-0.059L0.4815,-0.0599L0.4675,-0.0606L0.4536,-0.0614L0.4397,-0.062L0.4257,-0.0626L0.4118,-0.0632L0.3979,-0.0636L0.384,-0.064L0.3701,-0.0643L0.3562,-0.0646L0.3423,-0.0647L0.3284,-0.0648L0.3145,-0.0648L0.3006,-0.0646L0.2868,-0.0644L0.2729,-0.0641L0.2591,-0.0636L0.2453,-0.0631L0.2315,-0.0624L0.2178,-0.0615L0.2041,-0.0605L0.1904,-0.0594L0.1768,-0.0581L0.1632,-0.0566L0.1497,-0.0549L0.1363,-0.053L0.123,-0.0509L0.1098,-0.0486L0.0967,-0.0459L0.0838,-0.043L0.0712,-0.0397L0.0589,-0.0361L0.047,-0.032L0.0358,-0.0275L0.0255,-0.0227L0.0168,-0.0178L0.0105,-0.0135L0.0063,-0.0099L0.0037,-0.0071L0.0019,-0.0049L0.0008,-0.003L0.0002,-0.0013L0,0.0002L0.0003,0.0017L0.0011,0.0033L0.0026,0.0049L0.0049,0.0065L0.0083,0.0083L0.0134,0.0104L0.0211,0.0128L0.0313,0.0153L0.0431,0.0175L0.0557,0.0193L0.0687,0.0209L0.0819,0.0221L0.0952,0.0231L0.1087,0.024L0.1223,0.0246L0.1359,0.0251L0.1495,0.0255L0.1632,0.0258L0.177,0.0259L0.1907,0.026L0.2045,0.026L0.2183,0.0259L0.2321,0.0257L0.246,0.0255L0.2598,0.0252L0.2737,0.0249L0.2876,0.0245L0.3014,0.0241L0.3153,0.0236L0.3292,0.0231L0.3432,0.0226L0.3571,0.0221L0.3711,0.0215L0.385,0.0209L0.399,0.0202L0.413,0.0196L0.4269,0.0189L0.4409,0.0183L0.4548,0.0176L0.4687,0.0169L0.4827,0.0162L0.4966,0.0155L0.5105,0.0147L0.5244,0.014L0.5383,0.0133L0.5521,0.0126L0.566,0.0119L0.5799,0.0111L0.5938,0.0104L0.6077,0.0097L0.6215,0.009L0.6354,0.0083L0.6493,0.0076L0.6631,0.0069L0.677,0.0063L0.6908,0.0056L0.7047,0.0049L0.7185,0.0043L0.7324,0.0037L0.7462,0.003L0.7601,0.0024L0.774,0.0018L0.7878,0.0013L0.8017,0.0007L0.8156,0.0002L0.8295,-0.0002L0.8434,-0.0006L0.8572,-0.001L0.8711,-0.0013L0.885,-0.0015L0.8989,-0.0016L0.9128,-0.0016L0.9267,-0.0016L0.9406,-0.0014L0.9545,-0.0011L0.9684,-0.0007L0.982,-0.0002L0.994,0.0003L1,0.0006"
    />
</svg>
