
<svg 
  class="airfoil-ag24"
  fill="none"
  stroke="black" 
  stroke-width="1"
  style="overflow:visible"
  viewBox="0, -0.0623, 1, 0.0863"
  xmlns="http://www.w3.org/2000/svg">
    <title>AG24</title>
    <desc># Bubble Dancer DLG by Mark Drela</desc>
    <desc># The AG2x airfoils are intended to be used on composite versions of the Bubble Dancer and the Allegro-Lite.</desc>
    <path 
      vector-effect="non-scaling-stroke"
      d="M1,-0.0003L0.994,-0.001L0.982,-0.0026L0.9685,-0.0045L0.9546,-0.0064L0.9408,-0.0084L0.9269,-0.0103L0.913,-0.0123L0.8991,-0.0142L0.8852,-0.016L0.8713,-0.0179L0.8575,-0.0197L0.8436,-0.0216L0.8297,-0.0234L0.8158,-0.0251L0.8019,-0.0269L0.788,-0.0286L0.7741,-0.0303L0.7602,-0.032L0.7463,-0.0336L0.7324,-0.0352L0.7185,-0.0368L0.7045,-0.0383L0.6906,-0.0398L0.6767,-0.0413L0.6628,-0.0427L0.6489,-0.0441L0.6349,-0.0454L0.621,-0.0467L0.6071,-0.048L0.5932,-0.0492L0.5792,-0.0504L0.5653,-0.0515L0.5514,-0.0526L0.5375,-0.0536L0.5235,-0.0546L0.5096,-0.0556L0.4957,-0.0564L0.4818,-0.0573L0.4678,-0.0581L0.4539,-0.0588L0.44,-0.0594L0.4261,-0.06L0.4122,-0.0606L0.3983,-0.0611L0.3844,-0.0615L0.3705,-0.0618L0.3566,-0.062L0.3427,-0.0622L0.3288,-0.0623L0.315,-0.0623L0.3011,-0.0623L0.2873,-0.0621L0.2735,-0.0618L0.2597,-0.0614L0.2459,-0.0609L0.2321,-0.0602L0.2184,-0.0595L0.2047,-0.0586L0.191,-0.0575L0.1774,-0.0563L0.1639,-0.0549L0.1504,-0.0533L0.1369,-0.0515L0.1236,-0.0495L0.1104,-0.0473L0.0973,-0.0448L0.0845,-0.042L0.0718,-0.0388L0.0595,-0.0353L0.0475,-0.0314L0.0362,-0.0271L0.0258,-0.0224L0.0171,-0.0176L0.0107,-0.0133L0.0065,-0.0099L0.0038,-0.0071L0.002,-0.0049L0.0009,-0.003L0.0002,-0.0013L0,0.0002L0.0003,0.0017L0.0012,0.0032L0.0027,0.0047L0.005,0.0063L0.0084,0.008L0.0135,0.0101L0.0212,0.0124L0.0314,0.0147L0.0432,0.0168L0.0558,0.0185L0.0688,0.0199L0.082,0.021L0.0954,0.0219L0.1088,0.0226L0.1224,0.0232L0.136,0.0236L0.1497,0.0238L0.1634,0.024L0.1771,0.024L0.1908,0.024L0.2046,0.0239L0.2184,0.0237L0.2322,0.0234L0.2461,0.0231L0.2599,0.0227L0.2738,0.0223L0.2876,0.0219L0.3015,0.0214L0.3154,0.0209L0.3293,0.0203L0.3432,0.0197L0.3572,0.0191L0.3711,0.0185L0.3851,0.0178L0.399,0.0172L0.413,0.0165L0.427,0.0158L0.4409,0.0151L0.4548,0.0144L0.4688,0.0137L0.4827,0.013L0.4966,0.0123L0.5105,0.0116L0.5244,0.0109L0.5383,0.0102L0.5522,0.0095L0.5661,0.0089L0.5799,0.0082L0.5938,0.0075L0.6077,0.0069L0.6216,0.0062L0.6354,0.0056L0.6493,0.005L0.6631,0.0044L0.677,0.0038L0.6908,0.0032L0.7047,0.0027L0.7185,0.0021L0.7324,0.0016L0.7463,0.0011L0.7601,0.0006L0.774,0.0002L0.7879,-0.0002L0.8017,-0.0006L0.8156,-0.001L0.8295,-0.0013L0.8434,-0.0016L0.8573,-0.0018L0.8712,-0.0019L0.885,-0.002L0.8989,-0.002L0.9128,-0.0019L0.9267,-0.0018L0.9406,-0.0015L0.9545,-0.0011L0.9684,-0.0007L0.982,-0.0002L0.994,0.0004L1,0.0007"
    />
</svg>
