
<svg 
  class="airfoil-ag25"
  fill="none"
  stroke="black" 
  stroke-width="1"
  style="overflow:visible"
  viewBox="0, -0.0597, 1, 0.0789"
  xmlns="http://www.w3.org/2000/svg">
    <title>AG25</title>
    <desc># Bubble Dancer DLG by Mark Drela</desc>
    <desc># The AG2x airfoils are intended to be used on composite versions of the Bubble Dancer and the Allegro-Lite.</desc>
    <path 
      vector-effect="non-scaling-stroke"
      d="M1,-0.0003L0.9941,-0.001L0.9821,-0.0026L0.9685,-0.0044L0.9547,-0.0063L0.9408,-0.0082L0.9269,-0.01L0.913,-0.0118L0.8991,-0.0137L0.8852,-0.0154L0.8713,-0.0172L0.8575,-0.0189L0.8436,-0.0207L0.8297,-0.0224L0.8158,-0.0241L0.8019,-0.0257L0.788,-0.0273L0.7741,-0.0289L0.7602,-0.0305L0.7463,-0.0321L0.7324,-0.0336L0.7185,-0.0351L0.7046,-0.0366L0.6907,-0.038L0.6768,-0.0394L0.6629,-0.0407L0.649,-0.0421L0.6351,-0.0434L0.6212,-0.0446L0.6073,-0.0458L0.5934,-0.047L0.5794,-0.0481L0.5655,-0.0492L0.5516,-0.0502L0.5377,-0.0512L0.5238,-0.0522L0.5099,-0.0531L0.496,-0.0539L0.4821,-0.0547L0.4682,-0.0555L0.4543,-0.0562L0.4404,-0.0568L0.4265,-0.0574L0.4126,-0.0579L0.3988,-0.0584L0.3849,-0.0588L0.371,-0.0591L0.3571,-0.0594L0.3433,-0.0596L0.3294,-0.0597L0.3156,-0.0597L0.3018,-0.0597L0.288,-0.0595L0.2742,-0.0593L0.2604,-0.059L0.2466,-0.0585L0.2329,-0.0579L0.2192,-0.0573L0.2055,-0.0564L0.1918,-0.0555L0.1782,-0.0544L0.1647,-0.0531L0.1512,-0.0516L0.1377,-0.05L0.1244,-0.0481L0.1112,-0.046L0.0981,-0.0437L0.0852,-0.041L0.0725,-0.0381L0.0601,-0.0347L0.0481,-0.031L0.0367,-0.0268L0.0262,-0.0223L0.0174,-0.0176L0.0109,-0.0134L0.0066,-0.0099L0.0039,-0.0072L0.0021,-0.0049L0.0009,-0.003L0.0002,-0.0013L0,0.0002L0.0003,0.0017L0.0013,0.0031L0.0029,0.0045L0.0052,0.0059L0.0086,0.0074L0.0138,0.0092L0.0216,0.0112L0.0318,0.0131L0.0436,0.0148L0.0563,0.0161L0.0692,0.0171L0.0825,0.0178L0.0958,0.0184L0.1093,0.0188L0.1228,0.019L0.1364,0.0192L0.1501,0.0192L0.1638,0.0191L0.1775,0.019L0.1913,0.0188L0.205,0.0185L0.2188,0.0182L0.2326,0.0178L0.2464,0.0173L0.2603,0.0169L0.2741,0.0163L0.288,0.0158L0.3018,0.0152L0.3157,0.0146L0.3296,0.014L0.3435,0.0134L0.3575,0.0128L0.3714,0.0121L0.3853,0.0114L0.3993,0.0108L0.4133,0.0101L0.4272,0.0095L0.4412,0.0088L0.4551,0.0081L0.469,0.0075L0.4829,0.0068L0.4968,0.0062L0.5107,0.0056L0.5246,0.005L0.5385,0.0044L0.5524,0.0038L0.5663,0.0032L0.5801,0.0027L0.594,0.0022L0.6079,0.0016L0.6217,0.0012L0.6356,0.0007L0.6495,0.0002L0.6633,-0.0002L0.6772,-0.0006L0.691,-0.001L0.7049,-0.0013L0.7187,-0.0016L0.7326,-0.0019L0.7464,-0.0022L0.7603,-0.0025L0.7741,-0.0027L0.788,-0.0029L0.8019,-0.003L0.8157,-0.0031L0.8296,-0.0032L0.8435,-0.0033L0.8574,-0.0032L0.8712,-0.0032L0.8851,-0.003L0.899,-0.0029L0.9129,-0.0026L0.9268,-0.0023L0.9407,-0.0019L0.9546,-0.0014L0.9684,-0.0008L0.982,-0.0002L0.9941,0.0004L1,0.0007"
    />
</svg>
