
<svg 
  class="airfoil-ag26"
  fill="none"
  stroke="black" 
  stroke-width="1"
  style="overflow:visible"
  viewBox="0, -0.0573, 1, 0.0728"
  xmlns="http://www.w3.org/2000/svg">
    <title>AG26</title>
    <desc># Bubble Dancer DLG by Mark Drela</desc>
    <desc># The AG2x airfoils are intended to be used on composite versions of the Bubble Dancer and the Allegro-Lite.</desc>
    <path 
      vector-effect="non-scaling-stroke"
      d="M1,-0.0003L0.9941,-0.001L0.9821,-0.0025L0.9685,-0.0042L0.9547,-0.006L0.9408,-0.0078L0.9269,-0.0095L0.9131,-0.0112L0.8992,-0.0129L0.8853,-0.0145L0.8714,-0.0162L0.8575,-0.0178L0.8436,-0.0195L0.8298,-0.0211L0.8159,-0.0227L0.802,-0.0242L0.7881,-0.0258L0.7742,-0.0273L0.7604,-0.0288L0.7465,-0.0303L0.7326,-0.0317L0.7187,-0.0332L0.7048,-0.0346L0.6909,-0.0359L0.677,-0.0373L0.6631,-0.0386L0.6492,-0.0399L0.6353,-0.0411L0.6214,-0.0423L0.6075,-0.0435L0.5936,-0.0447L0.5798,-0.0458L0.5659,-0.0468L0.552,-0.0479L0.5381,-0.0488L0.5242,-0.0498L0.5103,-0.0507L0.4964,-0.0515L0.4825,-0.0523L0.4687,-0.0531L0.4548,-0.0538L0.4409,-0.0544L0.427,-0.055L0.4132,-0.0555L0.3993,-0.056L0.3855,-0.0563L0.3716,-0.0567L0.3578,-0.0569L0.3439,-0.0571L0.3301,-0.0572L0.3163,-0.0573L0.3025,-0.0572L0.2887,-0.0571L0.2749,-0.0569L0.2611,-0.0566L0.2474,-0.0562L0.2337,-0.0557L0.22,-0.0551L0.2063,-0.0543L0.1927,-0.0535L0.1791,-0.0525L0.1655,-0.0513L0.152,-0.05L0.1386,-0.0485L0.1253,-0.0468L0.112,-0.0448L0.099,-0.0426L0.086,-0.0401L0.0733,-0.0374L0.0609,-0.0343L0.0488,-0.0308L0.0373,-0.0268L0.0267,-0.0224L0.0178,-0.0179L0.0112,-0.0137L0.0068,-0.0102L0.004,-0.0074L0.0021,-0.0051L0.0009,-0.0032L0.0002,-0.0014L0,0.0002L0.0003,0.0017L0.0014,0.0031L0.0031,0.0045L0.0055,0.0058L0.009,0.0071L0.0143,0.0087L0.0221,0.0104L0.0324,0.0119L0.0443,0.0132L0.0569,0.0141L0.0699,0.0147L0.0832,0.0151L0.0965,0.0154L0.11,0.0155L0.1235,0.0154L0.1371,0.0153L0.1508,0.0151L0.1644,0.0149L0.1781,0.0146L0.1919,0.0142L0.2056,0.0138L0.2194,0.0133L0.2332,0.0128L0.247,0.0122L0.2608,0.0117L0.2747,0.0111L0.2885,0.0105L0.3024,0.0098L0.3162,0.0092L0.3301,0.0085L0.344,0.0079L0.3579,0.0072L0.3718,0.0066L0.3858,0.0059L0.3997,0.0053L0.4137,0.0046L0.4276,0.004L0.4416,0.0034L0.4555,0.0028L0.4694,0.0022L0.4833,0.0016L0.4972,0.0011L0.5111,0.0005L0.525,0L0.5388,-0.0005L0.5527,-0.0009L0.5666,-0.0014L0.5805,-0.0018L0.5943,-0.0022L0.6082,-0.0025L0.622,-0.0029L0.6359,-0.0032L0.6497,-0.0034L0.6636,-0.0037L0.6774,-0.0039L0.6913,-0.0041L0.7051,-0.0043L0.7189,-0.0044L0.7328,-0.0045L0.7466,-0.0046L0.7605,-0.0046L0.7743,-0.0046L0.7882,-0.0046L0.802,-0.0045L0.8159,-0.0045L0.8298,-0.0043L0.8436,-0.0042L0.8575,-0.004L0.8714,-0.0037L0.8852,-0.0034L0.8991,-0.0031L0.913,-0.0027L0.9269,-0.0023L0.9407,-0.0018L0.9546,-0.0013L0.9685,-0.0007L0.9821,-0.0001L0.9941,0.0004L1,0.0007"
    />
</svg>
