
<svg 
  class="airfoil-ag27"
  fill="none"
  stroke="black" 
  stroke-width="1"
  style="overflow:visible"
  viewBox="0, -0.0547, 1, 0.0673"
  xmlns="http://www.w3.org/2000/svg">
    <title>AG27</title>
    <desc># Bubble Dancer DLG by Mark Drela</desc>
    <desc># The AG2x airfoils are intended to be used on composite versions of the Bubble Dancer and the Allegro-Lite.</desc>
    <path 
      vector-effect="non-scaling-stroke"
      d="M1,-0.0003L0.9942,-0.001L0.9823,-0.0024L0.9688,-0.004L0.955,-0.0057L0.9412,-0.0073L0.9273,-0.009L0.9135,-0.0106L0.8996,-0.0121L0.8858,-0.0137L0.8719,-0.0153L0.858,-0.0168L0.8441,-0.0184L0.8302,-0.0199L0.8164,-0.0214L0.8025,-0.0229L0.7886,-0.0244L0.7748,-0.0258L0.7609,-0.0272L0.7471,-0.0287L0.7332,-0.03L0.7193,-0.0314L0.7055,-0.0327L0.6916,-0.034L0.6777,-0.0353L0.6639,-0.0365L0.65,-0.0378L0.6361,-0.039L0.6223,-0.0401L0.6084,-0.0412L0.5945,-0.0423L0.5807,-0.0434L0.5668,-0.0444L0.553,-0.0454L0.5391,-0.0463L0.5253,-0.0473L0.5114,-0.0481L0.4975,-0.0489L0.4837,-0.0497L0.4698,-0.0504L0.456,-0.0511L0.4422,-0.0517L0.4283,-0.0523L0.4145,-0.0528L0.4007,-0.0533L0.3868,-0.0537L0.373,-0.054L0.3592,-0.0543L0.3454,-0.0545L0.3316,-0.0546L0.3178,-0.0547L0.304,-0.0547L0.2902,-0.0546L0.2764,-0.0544L0.2627,-0.0542L0.249,-0.0538L0.2353,-0.0534L0.2216,-0.0528L0.2079,-0.0521L0.1943,-0.0513L0.1807,-0.0504L0.1671,-0.0494L0.1536,-0.0482L0.1402,-0.0468L0.1268,-0.0453L0.1135,-0.0435L0.1004,-0.0415L0.0875,-0.0393L0.0748,-0.0368L0.0624,-0.034L0.0504,-0.0308L0.039,-0.0272L0.0286,-0.0231L0.0196,-0.0189L0.0126,-0.0147L0.0078,-0.0111L0.0046,-0.0082L0.0026,-0.0058L0.0012,-0.0038L0.0004,-0.002L0,-0.0004L0.0002,0.0011L0.001,0.0026L0.0024,0.0039L0.0046,0.0051L0.0076,0.0063L0.012,0.0076L0.0186,0.0089L0.0281,0.0103L0.0398,0.0113L0.0526,0.012L0.0657,0.0124L0.0791,0.0126L0.0927,0.0126L0.1063,0.0124L0.1201,0.0121L0.1339,0.0118L0.1477,0.0114L0.1615,0.0109L0.1754,0.0104L0.1893,0.0098L0.2031,0.0092L0.2171,0.0085L0.231,0.0079L0.2449,0.0072L0.2589,0.0065L0.2728,0.0058L0.2868,0.0051L0.3008,0.0043L0.3147,0.0036L0.3287,0.0029L0.3426,0.0022L0.3566,0.0015L0.3705,0.0009L0.3844,0.0002L0.3984,-0.0004L0.4123,-0.001L0.4262,-0.0016L0.4402,-0.0022L0.4541,-0.0027L0.468,-0.0033L0.4819,-0.0038L0.4958,-0.0042L0.5097,-0.0046L0.5236,-0.005L0.5375,-0.0054L0.5514,-0.0057L0.5653,-0.006L0.5792,-0.0063L0.5931,-0.0065L0.607,-0.0067L0.6209,-0.0068L0.6348,-0.007L0.6487,-0.0071L0.6626,-0.0071L0.6766,-0.0071L0.6905,-0.0071L0.7044,-0.0071L0.7183,-0.007L0.7322,-0.0069L0.7461,-0.0068L0.76,-0.0066L0.7739,-0.0064L0.7878,-0.0061L0.8017,-0.0059L0.8156,-0.0056L0.8296,-0.0052L0.8435,-0.0049L0.8574,-0.0045L0.8713,-0.0041L0.8853,-0.0037L0.8992,-0.0032L0.9131,-0.0028L0.927,-0.0023L0.941,-0.0017L0.9549,-0.0012L0.9687,-0.0006L0.9823,-0L0.9942,0.0005L1,0.0008"
    />
</svg>
