
<svg 
  class="airfoil-ag35"
  fill="none"
  stroke="black" 
  stroke-width="1"
  style="overflow:visible"
  viewBox="0, -0.0873, 1, 0.0873"
  xmlns="http://www.w3.org/2000/svg">
    <title>AG35</title>
    <path 
      vector-effect="non-scaling-stroke"
      d="M1,-0.0025L0.9948,-0.0033L0.9851,-0.0049L0.9736,-0.0068L0.961,-0.0089L0.9481,-0.011L0.9349,-0.0131L0.9216,-0.0153L0.9083,-0.0175L0.8951,-0.0196L0.8821,-0.0218L0.8696,-0.0238L0.8575,-0.0258L0.8453,-0.0278L0.8329,-0.0298L0.8204,-0.0318L0.8072,-0.0338L0.7939,-0.0358L0.7807,-0.0378L0.7675,-0.0398L0.7543,-0.0418L0.7411,-0.0438L0.7279,-0.0458L0.7148,-0.0477L0.7019,-0.0497L0.6893,-0.0516L0.6772,-0.0534L0.6659,-0.0551L0.6539,-0.0568L0.6414,-0.0584L0.6296,-0.0597L0.6166,-0.0611L0.6035,-0.0625L0.5902,-0.0639L0.5767,-0.0653L0.5633,-0.0667L0.5499,-0.0681L0.5365,-0.0695L0.5232,-0.0709L0.5099,-0.0722L0.4967,-0.0736L0.4835,-0.075L0.4708,-0.0763L0.4584,-0.0776L0.4459,-0.0788L0.4334,-0.0799L0.4209,-0.081L0.4083,-0.082L0.3956,-0.0829L0.3828,-0.0838L0.3699,-0.0845L0.3568,-0.0852L0.3438,-0.0858L0.3307,-0.0863L0.3176,-0.0867L0.3046,-0.087L0.2917,-0.0872L0.2788,-0.0873L0.266,-0.0872L0.2531,-0.0871L0.2403,-0.0869L0.2275,-0.0865L0.2147,-0.086L0.202,-0.0854L0.1894,-0.0847L0.1769,-0.0838L0.1646,-0.0828L0.1524,-0.0817L0.1404,-0.0803L0.1285,-0.0789L0.1168,-0.0772L0.1053,-0.0753L0.094,-0.0732L0.0828,-0.0708L0.0719,-0.0682L0.0613,-0.0653L0.0513,-0.0623L0.042,-0.059L0.0338,-0.0557L0.0266,-0.0524L0.0207,-0.0492L0.016,-0.0464L0.0122,-0.0438L0.0092,-0.0415L0.0068,-0.0395L0.0049,-0.0376L0.0034,-0.0359L0.0022,-0.0342L0.0012,-0.0327L0.0006,-0.0312L0.0001,-0.0298L0,-0.0285L0.0001,-0.0271L0.0005,-0.0258L0.0012,-0.0244L0.0023,-0.023L0.0037,-0.0217L0.0054,-0.0204L0.0076,-0.0192L0.0102,-0.018L0.0135,-0.0168L0.0175,-0.0155L0.0226,-0.0141L0.029,-0.0127L0.037,-0.0112L0.0466,-0.0097L0.0573,-0.0083L0.0688,-0.007L0.0808,-0.0059L0.0931,-0.005L0.1056,-0.0042L0.1182,-0.0034L0.1309,-0.0028L0.1437,-0.0023L0.1565,-0.0018L0.1694,-0.0014L0.1823,-0.0011L0.1953,-0.0008L0.2083,-0.0006L0.2213,-0.0004L0.2344,-0.0003L0.2475,-0.0002L0.2606,-0.0001L0.2737,-0.0001L0.2868,-0L0.3,-0L0.3132,0L0.3264,0L0.3396,0L0.3528,0L0.366,0L0.3792,0L0.3925,0L0.4057,0L0.4189,0L0.4321,0L0.4453,0L0.4586,0L0.4718,0L0.485,0L0.4982,0L0.5115,0L0.5247,0L0.5379,0L0.5511,0L0.5643,0L0.5776,0L0.5908,0L0.604,0L0.6172,0L0.6304,0L0.6437,0L0.6569,0L0.6701,0L0.6833,0L0.6965,0L0.7098,0L0.723,0L0.7362,0L0.7494,0L0.7627,0L0.7759,0L0.7891,0L0.8023,0L0.8155,0L0.8288,0L0.842,0L0.8552,-0L0.8684,0L0.8816,-0L0.8948,0L0.908,0L0.9213,0L0.9345,0L0.9476,0L0.9607,0L0.9733,-0L0.9849,-0L0.9947,0L1,-0"
    />
</svg>
