
<svg 
  class="airfoil-ag36"
  fill="none"
  stroke="black" 
  stroke-width="1"
  style="overflow:visible"
  viewBox="0, -0.0818, 1, 0.0818"
  xmlns="http://www.w3.org/2000/svg">
    <title>AG36</title>
    <path 
      vector-effect="non-scaling-stroke"
      d="M1,-0.0027L0.994,-0.0036L0.9839,-0.0053L0.972,-0.0072L0.9592,-0.0092L0.946,-0.0114L0.933,-0.0135L0.9202,-0.0155L0.9077,-0.0176L0.8955,-0.0195L0.8837,-0.0214L0.8708,-0.0232L0.858,-0.025L0.8452,-0.0268L0.8323,-0.0286L0.8192,-0.0304L0.8061,-0.0322L0.793,-0.0341L0.78,-0.0359L0.7669,-0.0377L0.7538,-0.0395L0.7408,-0.0414L0.7277,-0.0432L0.7148,-0.045L0.7019,-0.0468L0.6894,-0.0485L0.6774,-0.0502L0.6646,-0.0519L0.6524,-0.0533L0.6409,-0.0546L0.6281,-0.0559L0.6152,-0.0572L0.6022,-0.0585L0.589,-0.0598L0.5757,-0.0611L0.5624,-0.0624L0.5491,-0.0637L0.5358,-0.0651L0.5226,-0.0664L0.5094,-0.0677L0.4963,-0.069L0.4833,-0.0703L0.4707,-0.0715L0.4584,-0.0728L0.4459,-0.0739L0.4334,-0.0749L0.4209,-0.0759L0.4083,-0.0768L0.3956,-0.0777L0.3828,-0.0785L0.3699,-0.0792L0.3568,-0.0798L0.3438,-0.0804L0.3307,-0.0808L0.3176,-0.0812L0.3046,-0.0815L0.2917,-0.0817L0.2788,-0.0818L0.266,-0.0818L0.2531,-0.0817L0.2403,-0.0815L0.2275,-0.0812L0.2147,-0.0807L0.202,-0.0801L0.1894,-0.0794L0.1769,-0.0786L0.1646,-0.0776L0.1524,-0.0765L0.1404,-0.0752L0.1285,-0.0738L0.1168,-0.0722L0.1053,-0.0704L0.094,-0.0684L0.0828,-0.0662L0.0719,-0.0637L0.0613,-0.061L0.0514,-0.0581L0.0421,-0.055L0.0339,-0.0518L0.0267,-0.0487L0.0209,-0.0458L0.0161,-0.0431L0.0124,-0.0408L0.0094,-0.0386L0.007,-0.0367L0.0051,-0.035L0.0035,-0.0334L0.0023,-0.0319L0.0014,-0.0305L0.0006,-0.0292L0.0002,-0.0278L0,-0.0263L0.0001,-0.0248L0.0005,-0.0235L0.0012,-0.0222L0.0022,-0.0209L0.0036,-0.0197L0.0053,-0.0185L0.0075,-0.0173L0.0101,-0.0162L0.0134,-0.015L0.0174,-0.0139L0.0225,-0.0126L0.0289,-0.0113L0.0369,-0.0099L0.0465,-0.0086L0.0572,-0.0073L0.0688,-0.0062L0.0808,-0.0052L0.0931,-0.0044L0.1055,-0.0037L0.1182,-0.003L0.1309,-0.0025L0.1436,-0.002L0.1565,-0.0016L0.1694,-0.0013L0.1823,-0.001L0.1953,-0.0007L0.2083,-0.0005L0.2213,-0.0004L0.2344,-0.0002L0.2474,-0.0001L0.2605,-0.0001L0.2737,-0L0.2868,-0L0.3,-0L0.3131,0L0.3263,0L0.3396,0L0.3528,0L0.366,0L0.3792,0L0.3924,0L0.4057,0L0.4189,0L0.4321,0L0.4453,0L0.4585,0L0.4718,0L0.485,0L0.4982,0L0.5114,0L0.5247,0L0.5379,0L0.5511,0L0.5643,0L0.5775,0L0.5908,0L0.604,0L0.6172,0L0.6304,0L0.6437,0L0.6569,0L0.6701,0L0.6833,0L0.6965,0L0.7098,0L0.723,0L0.7362,0L0.7494,0L0.7627,0L0.7759,0L0.7891,0L0.8023,0L0.8155,0L0.8288,0L0.842,0L0.8552,0L0.8684,0L0.8816,0L0.8948,0L0.908,-0L0.9213,0L0.9345,-0L0.9476,-0L0.9607,-0L0.9733,-0L0.9849,-0L0.9947,-0L1,-0"
    />
</svg>
