
<svg 
  class="airfoil-ag37"
  fill="none"
  stroke="black" 
  stroke-width="1"
  style="overflow:visible"
  viewBox="0, -0.0775, 1, 0.0775"
  xmlns="http://www.w3.org/2000/svg">
    <title>AG37</title>
    <path 
      vector-effect="non-scaling-stroke"
      d="M1,-0.0035L0.9936,-0.0045L0.9838,-0.0061L0.9724,-0.008L0.9601,-0.01L0.9475,-0.012L0.9348,-0.0141L0.9223,-0.0161L0.9097,-0.0181L0.8972,-0.0202L0.8845,-0.0221L0.8722,-0.0237L0.8591,-0.0254L0.846,-0.027L0.8328,-0.0286L0.8193,-0.0303L0.8058,-0.032L0.7923,-0.0336L0.7788,-0.0353L0.7653,-0.037L0.7517,-0.0386L0.7382,-0.0403L0.7248,-0.042L0.7114,-0.0436L0.6982,-0.0452L0.6854,-0.0468L0.6727,-0.0484L0.66,-0.0499L0.6483,-0.0511L0.636,-0.0523L0.623,-0.0536L0.6101,-0.0547L0.5971,-0.0559L0.5839,-0.0571L0.5706,-0.0583L0.5573,-0.0595L0.544,-0.0607L0.5307,-0.0619L0.5174,-0.0631L0.5042,-0.0643L0.491,-0.0655L0.478,-0.0667L0.4653,-0.0678L0.4531,-0.0689L0.4408,-0.0699L0.4286,-0.0709L0.4164,-0.0718L0.4042,-0.0726L0.3921,-0.0734L0.38,-0.0741L0.3676,-0.0747L0.3549,-0.0753L0.342,-0.0758L0.3291,-0.0763L0.3162,-0.0767L0.3033,-0.077L0.2905,-0.0773L0.2776,-0.0774L0.2648,-0.0775L0.2519,-0.0775L0.239,-0.0773L0.226,-0.0771L0.2128,-0.0767L0.1995,-0.0761L0.1864,-0.0755L0.1734,-0.0746L0.1604,-0.0736L0.1476,-0.0725L0.1348,-0.0711L0.122,-0.0695L0.1094,-0.0677L0.0969,-0.0656L0.0854,-0.0635L0.0743,-0.0612L0.0638,-0.0586L0.0538,-0.0559L0.0445,-0.0531L0.036,-0.0502L0.0284,-0.0471L0.0218,-0.0442L0.0165,-0.0413L0.0122,-0.0388L0.009,-0.0365L0.0066,-0.0344L0.0048,-0.0327L0.0035,-0.0312L0.0025,-0.0299L0.0017,-0.0286L0.001,-0.0273L0.0005,-0.026L0.0001,-0.0245L0,-0.0231L0.0001,-0.022L0.0005,-0.0208L0.0011,-0.0197L0.0021,-0.0185L0.0034,-0.0173L0.0052,-0.0162L0.0073,-0.0152L0.01,-0.0141L0.0133,-0.0131L0.0173,-0.0121L0.0224,-0.0109L0.0289,-0.0098L0.0369,-0.0086L0.0465,-0.0074L0.0573,-0.0063L0.0688,-0.0053L0.0808,-0.0045L0.0931,-0.0038L0.1056,-0.0031L0.1182,-0.0026L0.1309,-0.0021L0.1437,-0.0017L0.1566,-0.0014L0.1695,-0.0011L0.1824,-0.0009L0.1954,-0.0007L0.2084,-0.0005L0.2214,-0.0004L0.2345,-0.0003L0.2475,-0.0002L0.2606,-0.0001L0.2738,-0.0001L0.2869,-0L0.3,-0L0.3132,0L0.3264,0L0.3396,0L0.3529,0L0.3661,0L0.3793,0L0.3925,0L0.4057,0L0.419,0L0.4322,0L0.4454,0L0.4586,0L0.4718,0L0.4851,0L0.4983,0L0.5115,0L0.5247,0L0.538,0L0.5512,0L0.5644,0L0.5776,0L0.5908,0L0.604,0L0.6173,0L0.6305,0L0.6437,0L0.6569,0L0.6701,0L0.6834,0L0.6966,0L0.7098,0L0.723,0L0.7363,0L0.7495,0L0.7627,0L0.7759,0L0.7891,0L0.8024,0L0.8156,0L0.8288,0L0.842,0L0.8552,0L0.8684,0L0.8816,0L0.8949,0L0.9081,0L0.9213,0L0.9345,0L0.9477,0L0.9607,0L0.9733,0L0.9849,0L0.9948,0L1,-0"
    />
</svg>
