
<svg 
  class="airfoil-ag38"
  fill="none"
  stroke="black" 
  stroke-width="1"
  style="overflow:visible"
  viewBox="0, -0.0705, 1, 0.0705"
  xmlns="http://www.w3.org/2000/svg">
    <title>AG38</title>
    <path 
      vector-effect="non-scaling-stroke"
      d="M1,-0.0047L0.9936,-0.0057L0.9837,-0.0072L0.9721,-0.009L0.9596,-0.011L0.9468,-0.013L0.934,-0.015L0.9212,-0.017L0.9084,-0.0189L0.8958,-0.0209L0.8829,-0.0229L0.8707,-0.0246L0.8578,-0.0261L0.8448,-0.0275L0.8316,-0.0289L0.8183,-0.0304L0.8048,-0.0318L0.7914,-0.0333L0.778,-0.0347L0.7645,-0.0362L0.7511,-0.0377L0.7377,-0.0391L0.7243,-0.0406L0.7111,-0.042L0.6979,-0.0434L0.6852,-0.0448L0.6723,-0.0462L0.6588,-0.0475L0.6475,-0.0486L0.635,-0.0496L0.6225,-0.0506L0.6095,-0.0516L0.5965,-0.0526L0.5833,-0.0537L0.57,-0.0547L0.5566,-0.0557L0.5433,-0.0568L0.53,-0.0578L0.5167,-0.0588L0.5035,-0.0598L0.4903,-0.0609L0.4772,-0.0619L0.4645,-0.0629L0.4521,-0.0638L0.4399,-0.0647L0.4276,-0.0655L0.4154,-0.0663L0.4033,-0.0669L0.3912,-0.0675L0.3791,-0.0681L0.3667,-0.0686L0.3541,-0.0691L0.3413,-0.0695L0.3285,-0.0698L0.3157,-0.0701L0.3029,-0.0703L0.2902,-0.0704L0.2775,-0.0705L0.2647,-0.0704L0.2519,-0.0703L0.239,-0.0701L0.226,-0.0698L0.2129,-0.0694L0.1998,-0.0689L0.1867,-0.0683L0.1738,-0.0676L0.1609,-0.0667L0.1481,-0.0657L0.1354,-0.0645L0.1227,-0.0631L0.11,-0.0615L0.0976,-0.0597L0.0861,-0.0579L0.0751,-0.0558L0.0645,-0.0536L0.0546,-0.0512L0.0453,-0.0487L0.0368,-0.046L0.0292,-0.0433L0.0226,-0.0406L0.0172,-0.038L0.0129,-0.0356L0.0096,-0.0334L0.007,-0.0315L0.0051,-0.0297L0.0037,-0.0282L0.0026,-0.0268L0.0017,-0.0255L0.001,-0.0241L0.0005,-0.0227L0.0001,-0.0212L0,-0.0197L0.0002,-0.0186L0.0006,-0.0175L0.0013,-0.0163L0.0024,-0.0151L0.0038,-0.0141L0.0056,-0.0131L0.0079,-0.0122L0.0106,-0.0113L0.0139,-0.0105L0.018,-0.0096L0.0232,-0.0087L0.0297,-0.0077L0.0378,-0.0067L0.0473,-0.0058L0.0581,-0.0049L0.0697,-0.0042L0.0817,-0.0035L0.094,-0.0029L0.1065,-0.0025L0.1191,-0.002L0.1318,-0.0017L0.1445,-0.0014L0.1574,-0.0011L0.1703,-0.0009L0.1832,-0.0007L0.1961,-0.0006L0.2091,-0.0004L0.2222,-0.0003L0.2352,-0.0002L0.2483,-0.0002L0.2614,-0.0001L0.2745,-0.0001L0.2876,-0L0.3007,-0L0.3139,-0L0.3271,0L0.3403,0L0.3535,0L0.3667,0L0.3799,0L0.3931,0L0.4063,0L0.4195,-0L0.4327,0L0.4459,-0L0.4592,-0L0.4724,0L0.4856,-0L0.4988,-0L0.512,-0L0.5252,-0L0.5384,0L0.5516,0L0.5648,-0L0.578,0L0.5912,0L0.6044,-0L0.6176,-0L0.6309,0L0.6441,-0L0.6573,-0L0.6705,-0L0.6837,-0L0.6969,-0L0.7101,0L0.7233,-0L0.7365,0L0.7497,0L0.763,0L0.7762,-0L0.7894,-0L0.8026,-0L0.8158,-0L0.829,-0L0.8422,-0L0.8554,0L0.8686,0L0.8818,0L0.895,0L0.9082,0L0.9214,-0L0.9346,-0L0.9478,-0L0.9608,-0L0.9734,-0L0.985,-0L0.9948,-0L1,-0"
    />
</svg>
