
<svg 
  class="airfoil-ag44ct02r"
  fill="none"
  stroke="black" 
  stroke-width="1"
  style="overflow:visible"
  viewBox="0, -0.0554, 1, 0.0741"
  xmlns="http://www.w3.org/2000/svg">
    <title>AG44ct -02f</title>
    <path 
      vector-effect="non-scaling-stroke"
      d="M1,-0.0003L0.9943,-0.0009L0.9827,-0.0022L0.9695,-0.0036L0.9559,-0.005L0.9423,-0.0064L0.9287,-0.0078L0.915,-0.0092L0.9012,-0.0105L0.8874,-0.0119L0.8736,-0.0132L0.8598,-0.0145L0.846,-0.0158L0.8321,-0.017L0.8182,-0.0183L0.8044,-0.0195L0.7905,-0.0207L0.7766,-0.0219L0.7627,-0.023L0.7488,-0.0241L0.7349,-0.0252L0.721,-0.0263L0.71,-0.0272L0.7053,-0.0275L0.703,-0.0277L0.7001,-0.028L0.6945,-0.0286L0.6803,-0.0301L0.6661,-0.0316L0.6588,-0.0323L0.6485,-0.0334L0.6378,-0.0345L0.6236,-0.0359L0.6117,-0.037L0.5955,-0.0385L0.5815,-0.0398L0.5675,-0.041L0.5565,-0.042L0.5475,-0.0427L0.5395,-0.0434L0.5256,-0.0445L0.5117,-0.0456L0.4978,-0.0466L0.4839,-0.0476L0.47,-0.0485L0.4561,-0.0494L0.4422,-0.0502L0.4282,-0.0509L0.4142,-0.0517L0.4002,-0.0523L0.3861,-0.0529L0.3721,-0.0535L0.3581,-0.054L0.3441,-0.0544L0.3301,-0.0548L0.3161,-0.055L0.3022,-0.0552L0.2883,-0.0554L0.2745,-0.0554L0.2606,-0.0553L0.2468,-0.0552L0.2331,-0.0549L0.2193,-0.0545L0.2055,-0.054L0.1918,-0.0533L0.1781,-0.0525L0.1645,-0.0515L0.1509,-0.0504L0.1374,-0.049L0.1239,-0.0474L0.1106,-0.0455L0.0974,-0.0434L0.0844,-0.0409L0.0716,-0.0381L0.0591,-0.0348L0.0471,-0.0311L0.0356,-0.027L0.0252,-0.0224L0.0164,-0.0177L0.01,-0.0134L0.0059,-0.0098L0.0032,-0.007L0.0016,-0.0047L0.0006,-0.0027L0.0001,-0.0011L0,0.0003L0.0003,0.0016L0.001,0.003L0.0025,0.0044L0.0048,0.0058L0.0082,0.0072L0.0134,0.0089L0.0211,0.0109L0.0313,0.0127L0.0431,0.0143L0.0557,0.0155L0.0687,0.0165L0.082,0.0172L0.0953,0.0178L0.1088,0.0181L0.1224,0.0184L0.136,0.0186L0.1497,0.0187L0.1634,0.0187L0.1771,0.0186L0.1909,0.0185L0.2046,0.0184L0.2185,0.0182L0.2323,0.018L0.2462,0.0177L0.26,0.0175L0.2739,0.0172L0.2879,0.0169L0.3019,0.0166L0.3158,0.0163L0.3298,0.0159L0.3438,0.0156L0.3579,0.0152L0.3719,0.0148L0.386,0.0144L0.4001,0.014L0.4142,0.0136L0.4284,0.0132L0.4426,0.0128L0.4567,0.0124L0.4709,0.012L0.485,0.0116L0.4991,0.0111L0.5132,0.0107L0.5273,0.0103L0.5413,0.0099L0.5489,0.0096L0.5585,0.0094L0.5688,0.0091L0.5822,0.0087L0.5956,0.0083L0.6019,0.0081L0.6092,0.0079L0.6228,0.0075L0.6363,0.0071L0.6462,0.0068L0.6553,0.0066L0.6636,0.0064L0.6773,0.006L0.6909,0.0057L0.6971,0.0055L0.7004,0.0054L0.7063,0.0053L0.7186,0.005L0.7325,0.0046L0.7465,0.0043L0.7604,0.004L0.7743,0.0037L0.7882,0.0034L0.8021,0.0032L0.816,0.0029L0.8298,0.0027L0.8437,0.0024L0.8576,0.0022L0.8714,0.002L0.8853,0.0018L0.8991,0.0016L0.913,0.0014L0.9268,0.0012L0.9407,0.001L0.9546,0.0008L0.9684,0.0006L0.982,0.0005L0.994,0.0003L1,0.0003"
    />
</svg>
