
<svg 
  class="airfoil-ag45c03"
  fill="none"
  stroke="black" 
  stroke-width="1"
  style="overflow:visible"
  viewBox="0.0003, -0.0589, 0.99990004, 0.0735"
  xmlns="http://www.w3.org/2000/svg">
    <title>AG45c -03f</title>
    <path 
      vector-effect="non-scaling-stroke"
      d="M1.0001,-0.0159L0.9941,-0.0163L0.9821,-0.0171L0.9685,-0.0181L0.9546,-0.019L0.9407,-0.0199L0.9268,-0.0209L0.9128,-0.0218L0.8989,-0.0227L0.885,-0.0235L0.871,-0.0244L0.8571,-0.0252L0.8432,-0.0261L0.8292,-0.0269L0.8153,-0.0277L0.8014,-0.0284L0.7875,-0.0292L0.7736,-0.0299L0.7596,-0.0306L0.7457,-0.0313L0.7318,-0.032L0.7179,-0.0326L0.7071,-0.0331L0.7035,-0.0333L0.7017,-0.0334L0.6982,-0.0337L0.6913,-0.0344L0.6774,-0.0357L0.6636,-0.0371L0.6568,-0.0377L0.6465,-0.0386L0.6359,-0.0396L0.622,-0.0409L0.6059,-0.0423L0.5943,-0.0433L0.5805,-0.0445L0.5667,-0.0456L0.5557,-0.0465L0.5468,-0.0472L0.5388,-0.0478L0.525,-0.0488L0.5112,-0.0498L0.4973,-0.0508L0.4835,-0.0517L0.4696,-0.0526L0.4558,-0.0534L0.442,-0.0542L0.4281,-0.055L0.4143,-0.0557L0.4004,-0.0564L0.3866,-0.057L0.3728,-0.0575L0.3589,-0.0579L0.3451,-0.0583L0.3313,-0.0586L0.3175,-0.0588L0.3037,-0.0589L0.2899,-0.0589L0.2761,-0.0589L0.2623,-0.0587L0.2485,-0.0584L0.2347,-0.058L0.221,-0.0574L0.2073,-0.0568L0.1936,-0.0559L0.18,-0.055L0.1663,-0.0538L0.1528,-0.0525L0.1393,-0.051L0.1259,-0.0492L0.1125,-0.0472L0.0994,-0.045L0.0863,-0.0424L0.0735,-0.0395L0.0609,-0.0363L0.0487,-0.0325L0.0371,-0.0283L0.0264,-0.0236L0.0174,-0.0188L0.0108,-0.0143L0.0064,-0.0106L0.0036,-0.0076L0.0019,-0.0052L0.0008,-0.0031L0.0003,-0.0013L0.0003,0.0002L0.0006,0.0015L0.0015,0.0029L0.0031,0.0042L0.0055,0.0055L0.009,0.0068L0.0142,0.0083L0.022,0.01L0.0323,0.0115L0.0442,0.0127L0.0568,0.0135L0.0699,0.0141L0.0831,0.0144L0.0964,0.0146L0.1099,0.0146L0.1235,0.0145L0.1371,0.0143L0.1507,0.014L0.1644,0.0137L0.1781,0.0133L0.1918,0.0129L0.2056,0.0124L0.2194,0.0119L0.2332,0.0114L0.247,0.0109L0.2609,0.0103L0.2748,0.0098L0.2888,0.0093L0.3027,0.0087L0.3167,0.0082L0.3307,0.0077L0.3448,0.0071L0.3588,0.0066L0.3728,0.006L0.3869,0.0055L0.401,0.0049L0.4151,0.0043L0.4291,0.0038L0.4432,0.0032L0.4573,0.0027L0.4713,0.0021L0.4854,0.0015L0.4994,0.001L0.5134,0.0004L0.5274,-0.0001L0.5415,-0.0007L0.549,-0.001L0.5586,-0.0014L0.569,-0.0018L0.5824,-0.0023L0.5956,-0.0028L0.6095,-0.0034L0.6231,-0.0039L0.6367,-0.0044L0.6463,-0.0048L0.6553,-0.0051L0.6639,-0.0055L0.6775,-0.006L0.6912,-0.0065L0.6971,-0.0067L0.7001,-0.0068L0.7065,-0.0071L0.719,-0.0075L0.7329,-0.008L0.7467,-0.0085L0.7606,-0.009L0.7744,-0.0095L0.7883,-0.01L0.8021,-0.0105L0.816,-0.011L0.8298,-0.0114L0.8437,-0.0119L0.8576,-0.0123L0.8714,-0.0127L0.8853,-0.0131L0.8992,-0.0134L0.9131,-0.0138L0.9269,-0.0141L0.9408,-0.0143L0.9547,-0.0146L0.9686,-0.0148L0.9822,-0.0149L0.9942,-0.015L1.0002,-0.015"
    />
</svg>
