
<svg 
  class="airfoil-ag455ct02r"
  fill="none"
  stroke="black" 
  stroke-width="1"
  style="overflow:visible"
  viewBox="0, -0.0502, 1, 0.0662"
  xmlns="http://www.w3.org/2000/svg">
    <title>AG455ct -02f rot.</title>
    <path 
      vector-effect="non-scaling-stroke"
      d="M1,-0.0004L0.9942,-0.001L0.9823,-0.002L0.9689,-0.0032L0.9552,-0.0044L0.9414,-0.0056L0.9277,-0.0068L0.9139,-0.0079L0.9001,-0.0091L0.8862,-0.0102L0.8724,-0.0113L0.8586,-0.0124L0.8448,-0.0134L0.831,-0.0144L0.8172,-0.0155L0.8034,-0.0165L0.7896,-0.0174L0.7759,-0.0184L0.7621,-0.0193L0.7483,-0.0203L0.7345,-0.0212L0.7208,-0.022L0.7101,-0.0227L0.7048,-0.023L0.7022,-0.0232L0.6996,-0.0235L0.6944,-0.024L0.6802,-0.0253L0.6661,-0.0266L0.6592,-0.0273L0.6488,-0.0282L0.6379,-0.0292L0.6239,-0.0305L0.6075,-0.0319L0.5958,-0.0329L0.5819,-0.0341L0.5679,-0.0353L0.5569,-0.0362L0.5479,-0.0369L0.5399,-0.0375L0.526,-0.0386L0.5122,-0.0396L0.4984,-0.0406L0.4845,-0.0415L0.4707,-0.0425L0.4569,-0.0434L0.4431,-0.0442L0.4293,-0.045L0.4155,-0.0458L0.4016,-0.0465L0.3878,-0.0471L0.374,-0.0477L0.3602,-0.0483L0.3464,-0.0488L0.3326,-0.0492L0.3188,-0.0495L0.305,-0.0498L0.2912,-0.05L0.2775,-0.0502L0.2637,-0.0502L0.2499,-0.0502L0.2362,-0.05L0.2225,-0.0498L0.2088,-0.0494L0.1951,-0.0489L0.1814,-0.0482L0.1678,-0.0475L0.1542,-0.0465L0.1407,-0.0454L0.1273,-0.0441L0.1139,-0.0425L0.1007,-0.0407L0.0876,-0.0386L0.0747,-0.0362L0.062,-0.0334L0.0497,-0.0302L0.0379,-0.0265L0.0271,-0.0223L0.0179,-0.0178L0.011,-0.0137L0.0065,-0.0102L0.0036,-0.0073L0.0018,-0.0049L0.0007,-0.0029L0.0001,-0.0011L0,0.0004L0.0003,0.0017L0.0012,0.0031L0.0029,0.0044L0.0052,0.0057L0.0087,0.007L0.0139,0.0085L0.0218,0.0102L0.0321,0.0118L0.0439,0.0131L0.0566,0.0141L0.0696,0.0148L0.0828,0.0153L0.0961,0.0156L0.1096,0.0159L0.1231,0.016L0.1367,0.016L0.1504,0.016L0.1641,0.0159L0.1778,0.0157L0.1915,0.0155L0.2053,0.0153L0.2191,0.0151L0.2329,0.0148L0.2468,0.0145L0.2607,0.0142L0.2746,0.0139L0.2885,0.0136L0.3025,0.0132L0.3165,0.0129L0.3305,0.0126L0.3445,0.0122L0.3586,0.0119L0.3726,0.0116L0.3867,0.0112L0.4008,0.0109L0.4149,0.0106L0.4289,0.0103L0.443,0.0099L0.4571,0.0096L0.4712,0.0093L0.4852,0.009L0.4992,0.0086L0.5133,0.0083L0.5273,0.008L0.5413,0.0077L0.5489,0.0075L0.5585,0.0073L0.5688,0.0071L0.5823,0.0068L0.5955,0.0065L0.6094,0.0062L0.623,0.0059L0.6366,0.0056L0.6462,0.0054L0.6552,0.0052L0.6638,0.005L0.6775,0.0047L0.6911,0.0044L0.697,0.0043L0.7,0.0042L0.702,0.0042L0.7063,0.0041L0.7188,0.0038L0.7327,0.0035L0.7465,0.0032L0.7604,0.003L0.7743,0.0027L0.7881,0.0024L0.802,0.0021L0.8158,0.0019L0.8297,0.0016L0.8435,0.0014L0.8574,0.0012L0.8713,0.001L0.8852,0.0008L0.899,0.0006L0.9129,0.0005L0.9268,0.0004L0.9407,0.0003L0.9546,0.0003L0.9684,0.0003L0.9821,0.0003L0.9941,0.0004L1,0.0004"
    />
</svg>
