
<svg 
  class="airfoil-ag45ct02r"
  fill="none"
  stroke="black" 
  stroke-width="1"
  style="overflow:visible"
  viewBox="0, -0.0526, 1, 0.070199996"
  xmlns="http://www.w3.org/2000/svg">
    <title>AG45ct -02f</title>
    <path 
      vector-effect="non-scaling-stroke"
      d="M1,-0.0003L0.9942,-0.0008L0.9826,-0.0019L0.9694,-0.0031L0.956,-0.0044L0.9426,-0.0056L0.9292,-0.0067L0.9157,-0.0079L0.9023,-0.0091L0.8888,-0.0102L0.8753,-0.0114L0.8618,-0.0125L0.8483,-0.0136L0.8348,-0.0147L0.8214,-0.0157L0.8079,-0.0168L0.7944,-0.0178L0.781,-0.0189L0.7676,-0.0199L0.7541,-0.0209L0.7407,-0.0219L0.7272,-0.0228L0.7168,-0.0236L0.7106,-0.024L0.7071,-0.0243L0.7026,-0.0246L0.6972,-0.0251L0.6866,-0.0262L0.6722,-0.0277L0.6652,-0.0284L0.6546,-0.0294L0.6436,-0.0305L0.6292,-0.0319L0.6126,-0.0334L0.6007,-0.0345L0.5865,-0.0358L0.5724,-0.0371L0.5612,-0.038L0.5521,-0.0388L0.544,-0.0395L0.5299,-0.0406L0.5159,-0.0417L0.5018,-0.0427L0.4876,-0.0438L0.4735,-0.0447L0.4592,-0.0457L0.445,-0.0466L0.4308,-0.0474L0.4165,-0.0482L0.4023,-0.049L0.3882,-0.0496L0.3741,-0.0502L0.3601,-0.0508L0.3462,-0.0513L0.3322,-0.0517L0.3183,-0.052L0.3045,-0.0523L0.2906,-0.0525L0.2767,-0.0526L0.2629,-0.0526L0.2491,-0.0525L0.2353,-0.0523L0.2216,-0.052L0.2079,-0.0515L0.1942,-0.0509L0.1805,-0.0502L0.1669,-0.0493L0.1533,-0.0482L0.1398,-0.047L0.1264,-0.0455L0.113,-0.0438L0.0998,-0.0418L0.0867,-0.0396L0.0738,-0.037L0.0612,-0.034L0.0489,-0.0306L0.0373,-0.0267L0.0265,-0.0223L0.0175,-0.0178L0.0108,-0.0136L0.0063,-0.01L0.0035,-0.0072L0.0017,-0.0048L0.0006,-0.0028L0.0001,-0.0011L0,0.0003L0.0003,0.0017L0.0012,0.0031L0.0028,0.0045L0.0052,0.0058L0.0086,0.0072L0.0138,0.0088L0.0216,0.0106L0.0319,0.0123L0.0438,0.0138L0.0564,0.0149L0.0694,0.0158L0.0826,0.0164L0.096,0.0169L0.1094,0.0172L0.123,0.0174L0.1366,0.0175L0.1502,0.0176L0.1639,0.0175L0.1776,0.0174L0.1914,0.0173L0.2052,0.0171L0.219,0.017L0.2328,0.0167L0.2467,0.0165L0.2606,0.0162L0.2746,0.0159L0.2886,0.0156L0.3026,0.0153L0.3167,0.015L0.3308,0.0147L0.3449,0.0143L0.359,0.014L0.3732,0.0136L0.3873,0.0132L0.4015,0.0129L0.4156,0.0125L0.4298,0.0121L0.4439,0.0117L0.458,0.0114L0.4721,0.011L0.4862,0.0106L0.5002,0.0102L0.5143,0.0098L0.5283,0.0094L0.5423,0.009L0.5499,0.0088L0.5595,0.0085L0.5698,0.0082L0.5832,0.0078L0.5963,0.0074L0.6102,0.0071L0.6237,0.0067L0.6373,0.0063L0.6468,0.0061L0.6558,0.0059L0.6644,0.0057L0.678,0.0053L0.6917,0.005L0.6972,0.0049L0.7,0.0048L0.7026,0.0047L0.7069,0.0046L0.7195,0.0044L0.7333,0.0041L0.7472,0.0038L0.7611,0.0035L0.7749,0.0032L0.7888,0.003L0.8027,0.0027L0.8166,0.0025L0.8305,0.0022L0.8443,0.002L0.8582,0.0018L0.8721,0.0016L0.8859,0.0014L0.8997,0.0013L0.9135,0.0011L0.9273,0.0009L0.9411,0.0008L0.9549,0.0007L0.9687,0.0006L0.9822,0.0004L0.9941,0.0004L1,0.0003"
    />
</svg>
