
<svg 
  class="airfoil-ag46ct02r"
  fill="none"
  stroke="black" 
  stroke-width="1"
  style="overflow:visible"
  viewBox="0, -0.0468, 1, 0.0624"
  xmlns="http://www.w3.org/2000/svg">
    <title>AG46ct -02f rot.</title>
    <path 
      vector-effect="non-scaling-stroke"
      d="M1,-0.0003L0.9942,-0.0009L0.9823,-0.0019L0.9689,-0.0031L0.9552,-0.0042L0.9415,-0.0054L0.9277,-0.0065L0.9139,-0.0076L0.9,-0.0087L0.8862,-0.0097L0.8723,-0.0108L0.8585,-0.0118L0.8447,-0.0128L0.8308,-0.0137L0.817,-0.0147L0.8032,-0.0156L0.7893,-0.0165L0.7755,-0.0174L0.7617,-0.0183L0.7478,-0.0191L0.734,-0.0199L0.7202,-0.0207L0.7092,-0.0213L0.7043,-0.0216L0.7019,-0.0217L0.6991,-0.022L0.6936,-0.0225L0.6794,-0.0237L0.6653,-0.025L0.658,-0.0256L0.6477,-0.0264L0.6371,-0.0273L0.623,-0.0285L0.6111,-0.0295L0.5949,-0.0307L0.581,-0.0318L0.567,-0.0329L0.556,-0.0337L0.547,-0.0344L0.539,-0.035L0.5251,-0.036L0.5113,-0.037L0.4974,-0.0379L0.4835,-0.0388L0.4697,-0.0397L0.4558,-0.0406L0.442,-0.0414L0.4281,-0.0421L0.4143,-0.0428L0.4004,-0.0435L0.3866,-0.0441L0.3727,-0.0447L0.3589,-0.0452L0.345,-0.0456L0.3312,-0.046L0.3174,-0.0463L0.3035,-0.0465L0.2897,-0.0467L0.2759,-0.0468L0.2621,-0.0468L0.2484,-0.0467L0.2346,-0.0465L0.2209,-0.0463L0.2071,-0.0459L0.1935,-0.0454L0.1798,-0.0448L0.1662,-0.044L0.1526,-0.0431L0.1391,-0.0421L0.1257,-0.0409L0.1123,-0.0394L0.0991,-0.0378L0.0861,-0.0359L0.0732,-0.0337L0.0606,-0.0311L0.0484,-0.0282L0.0368,-0.0247L0.0261,-0.0208L0.0171,-0.0167L0.0105,-0.0128L0.0062,-0.0095L0.0034,-0.0068L0.0017,-0.0046L0.0006,-0.0026L0.0001,-0.001L0,0.0004L0.0003,0.0017L0.0012,0.003L0.0027,0.0043L0.0051,0.0055L0.0085,0.0069L0.0137,0.0083L0.0215,0.01L0.0318,0.0115L0.0436,0.0127L0.0563,0.0137L0.0693,0.0144L0.0825,0.0149L0.0959,0.0152L0.1094,0.0154L0.1229,0.0155L0.1365,0.0156L0.1502,0.0155L0.1639,0.0154L0.1776,0.0153L0.1913,0.0151L0.2051,0.0149L0.2189,0.0146L0.2327,0.0143L0.2466,0.014L0.2605,0.0138L0.2744,0.0135L0.2883,0.0131L0.3022,0.0128L0.3162,0.0125L0.3302,0.0122L0.3442,0.0119L0.3582,0.0116L0.3723,0.0113L0.3863,0.011L0.4004,0.0107L0.4144,0.0104L0.4285,0.0101L0.4425,0.0098L0.4566,0.0095L0.4706,0.0092L0.4846,0.0089L0.4986,0.0086L0.5126,0.0083L0.5266,0.008L0.5405,0.0077L0.5481,0.0076L0.5577,0.0074L0.5679,0.0072L0.5814,0.0069L0.5948,0.0066L0.6011,0.0065L0.6084,0.0063L0.622,0.006L0.6357,0.0057L0.6456,0.0055L0.6548,0.0053L0.6631,0.0052L0.6769,0.0049L0.6906,0.0046L0.6968,0.0045L0.7,0.0044L0.702,0.0044L0.7061,0.0043L0.7185,0.004L0.7324,0.0037L0.7463,0.0035L0.7602,0.0032L0.7741,0.0029L0.788,0.0026L0.8019,0.0024L0.8158,0.0021L0.8296,0.0018L0.8435,0.0016L0.8574,0.0014L0.8712,0.0012L0.8851,0.001L0.899,0.0008L0.9129,0.0007L0.9268,0.0006L0.9407,0.0005L0.9545,0.0004L0.9684,0.0004L0.982,0.0004L0.9941,0.0004L1,0.0004"
    />
</svg>
