
<svg 
  class="airfoil-ag46c03"
  fill="none"
  stroke="black" 
  stroke-width="1"
  style="overflow:visible"
  viewBox="0.0002, -0.0514, 1, 0.0645"
  xmlns="http://www.w3.org/2000/svg">
    <title>AG46c -03f</title>
    <path 
      vector-effect="non-scaling-stroke"
      d="M1.0001,-0.0158L0.9941,-0.0162L0.9821,-0.0169L0.9685,-0.0177L0.9546,-0.0185L0.9407,-0.0193L0.9268,-0.0201L0.9128,-0.0209L0.8989,-0.0217L0.885,-0.0225L0.871,-0.0232L0.8571,-0.024L0.8432,-0.0247L0.8293,-0.0254L0.8154,-0.0261L0.8014,-0.0268L0.7875,-0.0274L0.7736,-0.028L0.7597,-0.0287L0.7457,-0.0292L0.7318,-0.0298L0.7179,-0.0304L0.7068,-0.0308L0.7031,-0.0309L0.7013,-0.031L0.6979,-0.0313L0.6912,-0.0319L0.6773,-0.033L0.6634,-0.0342L0.6563,-0.0348L0.652,-0.0352L0.6461,-0.0356L0.6357,-0.0365L0.6218,-0.0375L0.61,-0.0384L0.594,-0.0396L0.5802,-0.0406L0.5664,-0.0415L0.5554,-0.0423L0.5465,-0.0428L0.5385,-0.0433L0.5246,-0.0442L0.5108,-0.045L0.4969,-0.0457L0.4831,-0.0464L0.4692,-0.0471L0.4553,-0.0477L0.4415,-0.0483L0.4276,-0.0489L0.4138,-0.0494L0.3999,-0.0498L0.386,-0.0502L0.3722,-0.0506L0.3583,-0.0508L0.3445,-0.0511L0.3307,-0.0512L0.3168,-0.0513L0.303,-0.0514L0.2892,-0.0513L0.2754,-0.0512L0.2616,-0.051L0.2478,-0.0507L0.2341,-0.0503L0.2203,-0.0498L0.2066,-0.0493L0.1929,-0.0486L0.1793,-0.0477L0.1657,-0.0468L0.1522,-0.0457L0.1387,-0.0444L0.1253,-0.043L0.1119,-0.0413L0.0988,-0.0395L0.0857,-0.0374L0.0729,-0.035L0.0604,-0.0323L0.0482,-0.0291L0.0366,-0.0255L0.026,-0.0214L0.0171,-0.0171L0.0105,-0.0131L0.0062,-0.0098L0.0035,-0.0071L0.0018,-0.0048L0.0008,-0.0029L0.0003,-0.0012L0.0002,0.0002L0.0006,0.0015L0.0014,0.0028L0.003,0.004L0.0054,0.0052L0.0089,0.0065L0.0141,0.0079L0.0219,0.0094L0.0322,0.0107L0.0441,0.0117L0.0567,0.0124L0.0697,0.0128L0.0829,0.0131L0.0963,0.0131L0.1098,0.0131L0.1233,0.0129L0.1369,0.0127L0.1506,0.0124L0.1643,0.0121L0.178,0.0117L0.1917,0.0113L0.2055,0.0109L0.2193,0.0104L0.2331,0.01L0.247,0.0095L0.2608,0.0091L0.2747,0.0086L0.2886,0.0081L0.3026,0.0077L0.3166,0.0072L0.3305,0.0067L0.3445,0.0062L0.3586,0.0057L0.3726,0.0053L0.3866,0.0048L0.4007,0.0043L0.4147,0.0038L0.4288,0.0033L0.4428,0.0028L0.4569,0.0023L0.4709,0.0018L0.4849,0.0013L0.4989,0.0008L0.5129,0.0003L0.5268,-0.0002L0.5408,-0.0007L0.5483,-0.001L0.5579,-0.0014L0.5682,-0.0017L0.5816,-0.0022L0.595,-0.0027L0.6013,-0.0029L0.6086,-0.0032L0.6222,-0.0037L0.6359,-0.0042L0.6458,-0.0046L0.6508,-0.0047L0.655,-0.0049L0.6633,-0.0052L0.6771,-0.0057L0.6908,-0.0062L0.697,-0.0064L0.7001,-0.0065L0.7064,-0.0067L0.7187,-0.0072L0.7326,-0.0077L0.7466,-0.0082L0.7605,-0.0087L0.7744,-0.0091L0.7882,-0.0096L0.8021,-0.0101L0.816,-0.0106L0.8298,-0.0111L0.8437,-0.0115L0.8576,-0.012L0.8714,-0.0124L0.8853,-0.0128L0.8992,-0.0131L0.9131,-0.0135L0.9269,-0.0138L0.9408,-0.0141L0.9547,-0.0144L0.9686,-0.0146L0.9822,-0.0148L0.9942,-0.015L1.0002,-0.0151"
    />
</svg>
