
<svg 
  class="airfoil-ag47ct02r"
  fill="none"
  stroke="black" 
  stroke-width="1"
  style="overflow:visible"
  viewBox="0, -0.0375, 1, 0.0511"
  xmlns="http://www.w3.org/2000/svg">
    <title>AG47ct -02f rot.</title>
    <path 
      vector-effect="non-scaling-stroke"
      d="M1,-0.0003L0.9942,-0.0007L0.9823,-0.0015L0.9689,-0.0024L0.9552,-0.0034L0.9414,-0.0043L0.9276,-0.0052L0.9137,-0.006L0.8999,-0.0069L0.8861,-0.0077L0.8723,-0.0085L0.8586,-0.0093L0.8448,-0.0101L0.831,-0.0108L0.8172,-0.0116L0.8034,-0.0123L0.7897,-0.013L0.7759,-0.0137L0.7622,-0.0144L0.7484,-0.015L0.7347,-0.0156L0.7209,-0.0163L0.7087,-0.0168L0.7038,-0.017L0.7013,-0.0171L0.6989,-0.0173L0.6943,-0.0177L0.6803,-0.0187L0.6662,-0.0198L0.6523,-0.0208L0.6383,-0.0218L0.6243,-0.0228L0.6125,-0.0236L0.605,-0.0241L0.6019,-0.0243L0.5952,-0.0247L0.5826,-0.0255L0.5688,-0.0264L0.5578,-0.0271L0.5489,-0.0276L0.5409,-0.0281L0.5271,-0.0289L0.5134,-0.0297L0.4996,-0.0304L0.4858,-0.0311L0.472,-0.0318L0.4583,-0.0325L0.4445,-0.0331L0.4307,-0.0337L0.417,-0.0342L0.4032,-0.0348L0.3895,-0.0352L0.3757,-0.0357L0.362,-0.0361L0.3482,-0.0364L0.3345,-0.0367L0.3207,-0.037L0.307,-0.0372L0.2933,-0.0374L0.2796,-0.0375L0.2659,-0.0375L0.2522,-0.0375L0.2385,-0.0374L0.2249,-0.0373L0.2112,-0.0371L0.1976,-0.0368L0.184,-0.0364L0.1704,-0.036L0.1569,-0.0354L0.1434,-0.0347L0.13,-0.0339L0.1166,-0.033L0.1034,-0.0318L0.0902,-0.0305L0.0772,-0.029L0.0644,-0.0271L0.052,-0.025L0.0399,-0.0224L0.0288,-0.0194L0.0192,-0.016L0.012,-0.0126L0.0071,-0.0096L0.0039,-0.007L0.0019,-0.0048L0.0007,-0.0028L0.0001,-0.001L0,0.0004L0.0004,0.0018L0.0014,0.0031L0.0031,0.0043L0.0055,0.0055L0.009,0.0067L0.0143,0.0081L0.0222,0.0094L0.0325,0.0107L0.0444,0.0117L0.057,0.0124L0.07,0.0129L0.0832,0.0132L0.0966,0.0134L0.1101,0.0135L0.1236,0.0136L0.1372,0.0136L0.1508,0.0135L0.1645,0.0134L0.1782,0.0132L0.192,0.0131L0.2058,0.0129L0.2196,0.0127L0.2334,0.0125L0.2472,0.0122L0.261,0.012L0.2749,0.0118L0.2888,0.0115L0.3027,0.0112L0.3166,0.011L0.3305,0.0107L0.3444,0.0104L0.3584,0.0102L0.3724,0.0099L0.3863,0.0096L0.4004,0.0093L0.4144,0.0091L0.4284,0.0088L0.4424,0.0085L0.4564,0.0082L0.4704,0.008L0.4845,0.0077L0.4985,0.0074L0.5125,0.0071L0.5265,0.0069L0.5405,0.0066L0.548,0.0064L0.5576,0.0063L0.5679,0.0061L0.5814,0.0058L0.5944,0.0056L0.6009,0.0054L0.6034,0.0054L0.6086,0.0053L0.6223,0.005L0.636,0.0048L0.6496,0.0045L0.6633,0.0043L0.677,0.004L0.6907,0.0038L0.6968,0.0037L0.7,0.0037L0.7061,0.0036L0.7184,0.0033L0.7324,0.0031L0.7463,0.0029L0.7601,0.0027L0.774,0.0025L0.7879,0.0023L0.8018,0.0021L0.8157,0.0019L0.8296,0.0017L0.8435,0.0015L0.8574,0.0014L0.8713,0.0012L0.8852,0.0011L0.8991,0.0009L0.9129,0.0008L0.9268,0.0007L0.9407,0.0006L0.9546,0.0005L0.9684,0.0004L0.982,0.0004L0.9941,0.0004L1,0.0004"
    />
</svg>
