
<svg 
  class="airfoil-ag47c03"
  fill="none"
  stroke="black" 
  stroke-width="1"
  style="overflow:visible"
  viewBox="0.0003, -0.0429, 0.9998, 0.054700002"
  xmlns="http://www.w3.org/2000/svg">
    <title>AG47c -03f</title>
    <path 
      vector-effect="non-scaling-stroke"
      d="M1.0001,-0.0158L0.9942,-0.016L0.9822,-0.0165L0.9686,-0.0171L0.9548,-0.0177L0.9409,-0.0183L0.9271,-0.0189L0.9132,-0.0195L0.8993,-0.0201L0.8855,-0.0206L0.8716,-0.0212L0.8577,-0.0217L0.8439,-0.0222L0.83,-0.0227L0.8162,-0.0232L0.8023,-0.0236L0.7885,-0.0241L0.7746,-0.0245L0.7608,-0.0249L0.7469,-0.0253L0.7331,-0.0256L0.7192,-0.026L0.7069,-0.0263L0.7008,-0.0264L0.698,-0.0266L0.6924,-0.027L0.6786,-0.028L0.6648,-0.029L0.651,-0.03L0.6372,-0.0309L0.6234,-0.0318L0.6117,-0.0325L0.6043,-0.033L0.6012,-0.0332L0.5945,-0.0336L0.582,-0.0343L0.5683,-0.0351L0.5573,-0.0357L0.5485,-0.0361L0.5406,-0.0366L0.5268,-0.0372L0.513,-0.0379L0.4993,-0.0385L0.4855,-0.0391L0.4717,-0.0396L0.4579,-0.0401L0.4442,-0.0406L0.4304,-0.041L0.4166,-0.0414L0.4028,-0.0418L0.3891,-0.0421L0.3753,-0.0423L0.3616,-0.0426L0.3478,-0.0427L0.3341,-0.0428L0.3203,-0.0429L0.3066,-0.0429L0.2929,-0.0428L0.2792,-0.0427L0.2655,-0.0426L0.2518,-0.0423L0.2381,-0.042L0.2244,-0.0416L0.2108,-0.0412L0.1972,-0.0406L0.1836,-0.04L0.17,-0.0392L0.1565,-0.0384L0.1431,-0.0374L0.1297,-0.0363L0.1163,-0.0351L0.1031,-0.0337L0.09,-0.0322L0.077,-0.0304L0.0642,-0.0283L0.0518,-0.026L0.0398,-0.0232L0.0287,-0.02L0.0192,-0.0165L0.012,-0.013L0.0072,-0.0099L0.0041,-0.0073L0.0021,-0.005L0.0009,-0.003L0.0003,-0.0012L0.0003,0.0002L0.0006,0.0016L0.0016,0.0029L0.0034,0.0041L0.0058,0.0052L0.0094,0.0064L0.0147,0.0076L0.0225,0.0089L0.0329,0.01L0.0448,0.0108L0.0574,0.0113L0.0704,0.0116L0.0837,0.0118L0.097,0.0118L0.1105,0.0117L0.124,0.0115L0.1376,0.0112L0.1512,0.011L0.1649,0.0106L0.1786,0.0103L0.1924,0.0099L0.2061,0.0095L0.2199,0.0091L0.2337,0.0087L0.2476,0.0083L0.2614,0.0078L0.2753,0.0074L0.2891,0.0069L0.303,0.0064L0.3169,0.0059L0.3308,0.0055L0.3448,0.005L0.3587,0.0045L0.3727,0.004L0.3866,0.0035L0.4006,0.003L0.4147,0.0025L0.4287,0.002L0.4427,0.0015L0.4567,0.0011L0.4707,0.0006L0.4847,0.0001L0.4987,-0.0004L0.5127,-0.0009L0.5267,-0.0014L0.5407,-0.0019L0.5482,-0.0021L0.5578,-0.0025L0.5681,-0.0028L0.5816,-0.0033L0.5946,-0.0037L0.601,-0.0039L0.6036,-0.004L0.6087,-0.0042L0.6224,-0.0047L0.6361,-0.0051L0.6498,-0.0056L0.6635,-0.006L0.6771,-0.0065L0.6908,-0.0069L0.6994,-0.0072L0.7048,-0.0074L0.7187,-0.0078L0.7326,-0.0083L0.7465,-0.0087L0.7604,-0.0091L0.7743,-0.0096L0.7881,-0.01L0.802,-0.0104L0.8159,-0.0108L0.8298,-0.0112L0.8437,-0.0115L0.8576,-0.0119L0.8715,-0.0123L0.8854,-0.0126L0.8992,-0.013L0.9131,-0.0133L0.927,-0.0137L0.9409,-0.014L0.9547,-0.0143L0.9686,-0.0146L0.9822,-0.0148L0.9942,-0.015L1.0001,-0.0151"
    />
</svg>
