
<svg 
  class="airfoil-ag52"
  fill="none"
  stroke="black" 
  stroke-width="1"
  style="overflow:visible"
  viewBox="0, -0.0587, 1, 0.0846"
  xmlns="http://www.w3.org/2000/svg">
    <title>AG52</title>
    <path 
      vector-effect="non-scaling-stroke"
      d="M1,-0.0002L0.994,-0.0012L0.9819,-0.0031L0.9681,-0.0051L0.9539,-0.0072L0.9395,-0.0092L0.925,-0.0111L0.9103,-0.0129L0.8956,-0.0147L0.8809,-0.0165L0.8662,-0.0183L0.8514,-0.0201L0.8367,-0.0218L0.8219,-0.0236L0.8071,-0.0252L0.7924,-0.0269L0.7777,-0.0286L0.7629,-0.0302L0.7482,-0.0318L0.7334,-0.0333L0.7187,-0.0349L0.7039,-0.0364L0.6892,-0.0378L0.6745,-0.0393L0.6598,-0.0406L0.6451,-0.042L0.6303,-0.0433L0.6156,-0.0446L0.6009,-0.0458L0.5862,-0.047L0.5715,-0.0481L0.5568,-0.0492L0.5421,-0.0503L0.5274,-0.0513L0.5127,-0.0522L0.498,-0.0531L0.4833,-0.0539L0.4687,-0.0547L0.454,-0.0554L0.4393,-0.0561L0.4247,-0.0567L0.4101,-0.0572L0.3955,-0.0577L0.3809,-0.058L0.3663,-0.0583L0.3517,-0.0585L0.3371,-0.0587L0.3226,-0.0587L0.3081,-0.0587L0.2936,-0.0585L0.2791,-0.0583L0.2646,-0.0579L0.2502,-0.0575L0.2359,-0.0569L0.2215,-0.0562L0.2073,-0.0553L0.1931,-0.0543L0.1789,-0.0532L0.1649,-0.0519L0.1509,-0.0504L0.1371,-0.0487L0.1234,-0.0468L0.1099,-0.0447L0.0966,-0.0424L0.0835,-0.0398L0.0709,-0.0369L0.0587,-0.0337L0.0471,-0.0302L0.0365,-0.0265L0.0272,-0.0227L0.0198,-0.0191L0.0143,-0.0159L0.0103,-0.0132L0.0074,-0.011L0.0053,-0.0091L0.0037,-0.0074L0.0025,-0.0059L0.0016,-0.0046L0.0009,-0.0033L0.0004,-0.0022L0.0001,-0.0011L0,-0.0001L0.0001,0.001L0.0005,0.002L0.0012,0.003L0.0021,0.0039L0.0033,0.0049L0.0047,0.006L0.0066,0.0071L0.0089,0.0083L0.0121,0.0096L0.0164,0.0112L0.0226,0.0131L0.031,0.0151L0.0416,0.0171L0.0536,0.019L0.0664,0.0205L0.0798,0.0218L0.0936,0.0228L0.1075,0.0237L0.1217,0.0243L0.136,0.0248L0.1504,0.0252L0.1649,0.0255L0.1794,0.0257L0.194,0.0258L0.2086,0.0259L0.2233,0.0258L0.238,0.0257L0.2528,0.0256L0.2675,0.0254L0.2823,0.0252L0.2971,0.0249L0.3118,0.0246L0.3267,0.0243L0.3415,0.0239L0.3563,0.0235L0.3711,0.0231L0.386,0.0226L0.4009,0.0222L0.4157,0.0217L0.4306,0.0212L0.4455,0.0206L0.4603,0.0201L0.4752,0.0195L0.4901,0.019L0.505,0.0184L0.5199,0.0178L0.5348,0.0172L0.5498,0.0166L0.5647,0.016L0.5796,0.0154L0.5945,0.0147L0.6095,0.0141L0.6244,0.0135L0.6393,0.0129L0.6543,0.0122L0.6692,0.0116L0.6841,0.011L0.699,0.0104L0.714,0.0098L0.7289,0.0092L0.7438,0.0086L0.7587,0.008L0.7736,0.0074L0.7885,0.0069L0.8034,0.0063L0.8183,0.0058L0.8332,0.0052L0.848,0.0047L0.8629,0.0042L0.8778,0.0037L0.8927,0.0033L0.9076,0.0028L0.9225,0.0024L0.9374,0.0019L0.9523,0.0015L0.9671,0.0011L0.9814,0.0007L0.9939,0.0004L1,0.0002"
    />
</svg>
