
<svg 
  class="airfoil-ag53"
  fill="none"
  stroke="black" 
  stroke-width="1"
  style="overflow:visible"
  viewBox="0, -0.0577, 1, 0.0819"
  xmlns="http://www.w3.org/2000/svg">
    <title>AG53</title>
    <path 
      vector-effect="non-scaling-stroke"
      d="M1,-0.0002L0.9941,-0.0012L0.9819,-0.003L0.9681,-0.0049L0.9539,-0.0069L0.9395,-0.0087L0.925,-0.0106L0.9104,-0.0123L0.8957,-0.0141L0.881,-0.0158L0.8663,-0.0175L0.8516,-0.0192L0.8369,-0.0209L0.8222,-0.0225L0.8075,-0.0242L0.7927,-0.0258L0.778,-0.0274L0.7634,-0.0289L0.7489,-0.0305L0.7343,-0.032L0.7196,-0.0335L0.7049,-0.0349L0.6902,-0.0364L0.6755,-0.0378L0.6608,-0.0391L0.6462,-0.0405L0.6315,-0.0418L0.6168,-0.043L0.6022,-0.0442L0.5875,-0.0454L0.5728,-0.0466L0.5582,-0.0477L0.5435,-0.0487L0.5289,-0.0497L0.5142,-0.0507L0.4996,-0.0516L0.485,-0.0525L0.4704,-0.0533L0.4558,-0.054L0.4412,-0.0547L0.4266,-0.0553L0.412,-0.0559L0.3974,-0.0564L0.3829,-0.0568L0.3683,-0.0571L0.3538,-0.0574L0.3393,-0.0576L0.3248,-0.0577L0.3103,-0.0577L0.2959,-0.0576L0.2814,-0.0574L0.267,-0.0571L0.2527,-0.0567L0.2384,-0.0562L0.2241,-0.0555L0.2099,-0.0548L0.1957,-0.0539L0.1816,-0.0528L0.1676,-0.0516L0.1536,-0.0502L0.1398,-0.0486L0.1261,-0.0468L0.1126,-0.0448L0.0993,-0.0425L0.0862,-0.04L0.0735,-0.0372L0.0612,-0.0341L0.0495,-0.0307L0.0386,-0.0271L0.029,-0.0233L0.021,-0.0196L0.0151,-0.0162L0.0108,-0.0134L0.0077,-0.0111L0.0055,-0.0091L0.0038,-0.0074L0.0026,-0.0059L0.0016,-0.0046L0.0009,-0.0033L0.0004,-0.0022L0.0001,-0.0011L0,-0.0001L0.0001,0.0009L0.0005,0.0019L0.0012,0.0029L0.0021,0.0039L0.0033,0.0049L0.0048,0.0059L0.0067,0.007L0.0092,0.0081L0.0126,0.0095L0.0172,0.0111L0.0239,0.0129L0.033,0.0149L0.0441,0.0169L0.0564,0.0185L0.0694,0.0199L0.0829,0.021L0.0967,0.0219L0.1107,0.0226L0.1249,0.0232L0.1392,0.0236L0.1536,0.0239L0.1681,0.0241L0.1826,0.0242L0.1972,0.0242L0.2118,0.0242L0.2264,0.0241L0.2411,0.024L0.2558,0.0238L0.2705,0.0236L0.2852,0.0233L0.2999,0.023L0.3147,0.0227L0.3295,0.0223L0.3442,0.0219L0.359,0.0215L0.3738,0.0211L0.3886,0.0206L0.4034,0.0202L0.4182,0.0197L0.433,0.0192L0.4479,0.0187L0.4627,0.0181L0.4775,0.0176L0.4924,0.017L0.5072,0.0165L0.5221,0.0159L0.5369,0.0153L0.5518,0.0148L0.5666,0.0142L0.5815,0.0136L0.5964,0.013L0.6112,0.0124L0.6261,0.0119L0.641,0.0113L0.6558,0.0107L0.6707,0.0101L0.6855,0.0096L0.7004,0.009L0.7152,0.0085L0.7301,0.0079L0.7449,0.0074L0.7597,0.0069L0.7746,0.0064L0.7894,0.0059L0.8042,0.0054L0.8191,0.0049L0.8339,0.0045L0.8487,0.004L0.8635,0.0036L0.8783,0.0032L0.8931,0.0028L0.908,0.0024L0.9228,0.002L0.9376,0.0016L0.9524,0.0013L0.9672,0.0009L0.9814,0.0006L0.994,0.0004L1,0.0002"
    />
</svg>
