
<svg 
  class="airfoil-ag54"
  fill="none"
  stroke="black" 
  stroke-width="1"
  style="overflow:visible"
  viewBox="0, -0.0556, 1, 0.0767"
  xmlns="http://www.w3.org/2000/svg">
    <title>AG54</title>
    <path 
      vector-effect="non-scaling-stroke"
      d="M1,-0.0003L0.9941,-0.0011L0.9818,-0.0028L0.968,-0.0045L0.9538,-0.0062L0.9394,-0.0079L0.925,-0.0095L0.9104,-0.0111L0.8958,-0.0127L0.8812,-0.0143L0.8666,-0.0158L0.852,-0.0174L0.8373,-0.0189L0.8227,-0.0204L0.8081,-0.0219L0.7935,-0.0234L0.7789,-0.0249L0.7643,-0.0264L0.755,-0.0273L0.7499,-0.0278L0.7449,-0.0283L0.7354,-0.0292L0.7207,-0.0307L0.7062,-0.0321L0.6916,-0.0334L0.677,-0.0348L0.6624,-0.0361L0.6478,-0.0374L0.6333,-0.0387L0.6187,-0.0399L0.6041,-0.0411L0.5896,-0.0423L0.575,-0.0434L0.5604,-0.0445L0.5459,-0.0456L0.5313,-0.0466L0.5168,-0.0476L0.5023,-0.0486L0.4877,-0.0495L0.4732,-0.0503L0.4587,-0.0511L0.4442,-0.0518L0.4297,-0.0525L0.4153,-0.0532L0.4008,-0.0537L0.3863,-0.0542L0.3719,-0.0546L0.3575,-0.055L0.3431,-0.0553L0.3287,-0.0555L0.3143,-0.0556L0.2999,-0.0556L0.2856,-0.0555L0.2713,-0.0554L0.257,-0.0551L0.2428,-0.0547L0.2286,-0.0542L0.2144,-0.0536L0.2004,-0.0528L0.1863,-0.0519L0.1724,-0.0508L0.1585,-0.0496L0.1447,-0.0482L0.1311,-0.0465L0.1176,-0.0447L0.1042,-0.0426L0.0911,-0.0403L0.0783,-0.0377L0.0659,-0.0348L0.054,-0.0316L0.0426,-0.0281L0.0324,-0.0243L0.0236,-0.0205L0.0167,-0.0169L0.0117,-0.0138L0.0082,-0.0113L0.0058,-0.0092L0.004,-0.0074L0.0027,-0.0059L0.0017,-0.0045L0.0009,-0.0033L0.0004,-0.0021L0.0001,-0.001L0,-0L0.0001,0.001L0.0005,0.002L0.0013,0.0029L0.0022,0.0038L0.0035,0.0048L0.0051,0.0058L0.0072,0.0068L0.0099,0.008L0.0138,0.0093L0.0193,0.0109L0.0274,0.0127L0.0377,0.0146L0.0497,0.0162L0.0625,0.0175L0.0759,0.0185L0.0896,0.0193L0.1035,0.02L0.1176,0.0204L0.1318,0.0207L0.146,0.0209L0.1604,0.0211L0.1748,0.0211L0.1893,0.0211L0.2038,0.021L0.2184,0.0208L0.2329,0.0206L0.2475,0.0204L0.2621,0.0201L0.2768,0.0198L0.2914,0.0195L0.306,0.0191L0.3207,0.0188L0.3354,0.0184L0.35,0.0179L0.3647,0.0175L0.3794,0.0171L0.3941,0.0166L0.4088,0.0161L0.4235,0.0156L0.4382,0.0152L0.4529,0.0147L0.4677,0.0142L0.4824,0.0136L0.4971,0.0131L0.5118,0.0126L0.5266,0.0121L0.5413,0.0116L0.556,0.0111L0.5707,0.0106L0.5854,0.0101L0.6001,0.0096L0.6148,0.0091L0.6296,0.0086L0.6443,0.0081L0.659,0.0077L0.6737,0.0072L0.6884,0.0067L0.7031,0.0063L0.7178,0.0059L0.7325,0.0055L0.7472,0.005L0.7528,0.0049L0.7619,0.0047L0.7766,0.0043L0.7912,0.0039L0.8059,0.0035L0.8206,0.0032L0.8353,0.0029L0.85,0.0026L0.8647,0.0023L0.8793,0.002L0.894,0.0017L0.9087,0.0015L0.9234,0.0013L0.9381,0.001L0.9527,0.0009L0.9673,0.0007L0.9815,0.0005L0.9941,0.0004L1,0.0003"
    />
</svg>
