
<svg 
  class="airfoil-ag55"
  fill="none"
  stroke="black" 
  stroke-width="1"
  style="overflow:visible"
  viewBox="0, -0.0519, 1, 0.0676"
  xmlns="http://www.w3.org/2000/svg">
    <title>AG55</title>
    <path 
      vector-effect="non-scaling-stroke"
      d="M1,-0.0005L0.9941,-0.0011L0.9817,-0.0025L0.9679,-0.004L0.9536,-0.0055L0.9393,-0.0069L0.9249,-0.0083L0.9105,-0.0096L0.896,-0.011L0.8816,-0.0124L0.8671,-0.0137L0.8527,-0.0151L0.8382,-0.0164L0.8238,-0.0177L0.8093,-0.0191L0.7948,-0.0204L0.7804,-0.0217L0.7659,-0.023L0.756,-0.0239L0.7516,-0.0243L0.7467,-0.0248L0.7372,-0.0256L0.7227,-0.0269L0.7082,-0.0282L0.6938,-0.0295L0.6793,-0.0308L0.6648,-0.032L0.6504,-0.0332L0.6359,-0.0344L0.6215,-0.0356L0.607,-0.0368L0.5926,-0.0379L0.5782,-0.039L0.5638,-0.0401L0.5493,-0.0411L0.5349,-0.0422L0.5205,-0.0431L0.5061,-0.0441L0.4917,-0.045L0.4773,-0.0458L0.463,-0.0466L0.4486,-0.0474L0.4342,-0.0481L0.4199,-0.0488L0.4055,-0.0494L0.3912,-0.0499L0.3769,-0.0504L0.3626,-0.0509L0.3483,-0.0512L0.334,-0.0515L0.3197,-0.0517L0.3055,-0.0519L0.2912,-0.0519L0.277,-0.0519L0.2628,-0.0518L0.2487,-0.0516L0.2345,-0.0512L0.2204,-0.0508L0.2064,-0.0503L0.1924,-0.0496L0.1785,-0.0487L0.1646,-0.0478L0.1508,-0.0466L0.1372,-0.0453L0.1237,-0.0438L0.1103,-0.042L0.0972,-0.04L0.0842,-0.0378L0.0716,-0.0352L0.0594,-0.0323L0.0476,-0.0291L0.0367,-0.0256L0.027,-0.0219L0.019,-0.0182L0.0131,-0.0149L0.009,-0.0121L0.0061,-0.0098L0.0041,-0.0079L0.0027,-0.0062L0.0017,-0.0047L0.001,-0.0034L0.0004,-0.0022L0.0001,-0.0011L0,-0.0001L0.0001,0.0009L0.0005,0.0018L0.0013,0.0028L0.0023,0.0036L0.0037,0.0044L0.0054,0.0053L0.0077,0.0062L0.0108,0.0072L0.0153,0.0084L0.0222,0.0098L0.032,0.0113L0.0438,0.0126L0.0566,0.0136L0.0699,0.0144L0.0836,0.0149L0.0975,0.0153L0.1116,0.0155L0.1257,0.0157L0.1399,0.0157L0.1542,0.0156L0.1686,0.0155L0.183,0.0153L0.1974,0.0151L0.2119,0.0149L0.2263,0.0146L0.2408,0.0143L0.2553,0.0139L0.2698,0.0136L0.2843,0.0132L0.2989,0.0129L0.3134,0.0125L0.328,0.0121L0.3425,0.0117L0.3571,0.0113L0.3716,0.0108L0.3862,0.0104L0.4007,0.01L0.4153,0.0096L0.4299,0.0092L0.4445,0.0088L0.459,0.0083L0.4736,0.0079L0.4881,0.0075L0.5027,0.0071L0.5172,0.0067L0.5318,0.0063L0.5463,0.006L0.5609,0.0056L0.5754,0.0052L0.59,0.0049L0.6045,0.0045L0.619,0.0042L0.6336,0.0039L0.6481,0.0036L0.6626,0.0033L0.6772,0.003L0.6917,0.0027L0.7062,0.0025L0.7207,0.0022L0.7353,0.002L0.745,0.0018L0.75,0.0018L0.755,0.0017L0.7643,0.0016L0.7788,0.0014L0.7933,0.0012L0.8079,0.0011L0.8224,0.0009L0.8369,0.0008L0.8514,0.0007L0.866,0.0006L0.8805,0.0005L0.895,0.0004L0.9095,0.0004L0.924,0.0003L0.9386,0.0003L0.9531,0.0003L0.9675,0.0004L0.9815,0.0004L0.9941,0.0005L1,0.0005"
    />
</svg>
