
<svg 
  class="airfoil-ah21-7"
  fill="none"
  stroke="black" 
  stroke-width="1"
  style="overflow:visible"
  viewBox="0, -0.0657, 1, 0.091900006"
  xmlns="http://www.w3.org/2000/svg">
    <title>AH21 7% version (Andrew Hollom)</title>
    <path 
      vector-effect="non-scaling-stroke"
      d="M1,-0L0.9967,-0.0009L0.9873,-0.0036L0.9724,-0.0076L0.9525,-0.0127L0.9276,-0.0186L0.8981,-0.0249L0.8643,-0.0313L0.8266,-0.0376L0.7856,-0.0435L0.7416,-0.0489L0.6954,-0.0536L0.6472,-0.0576L0.5978,-0.0608L0.5475,-0.0633L0.497,-0.0649L0.4468,-0.0657L0.3973,-0.0657L0.349,-0.0649L0.3025,-0.0634L0.2581,-0.0611L0.2162,-0.0582L0.1773,-0.0546L0.1416,-0.0503L0.1094,-0.0455L0.0811,-0.0402L0.0567,-0.0345L0.0366,-0.0283L0.0208,-0.0217L0.0093,-0.0148L0.0023,-0.0076L0,-0L0.0034,0.0058L0.0125,0.0105L0.0267,0.0145L0.046,0.0179L0.0701,0.0206L0.099,0.0229L0.1322,0.0245L0.1696,0.0256L0.2107,0.0261L0.2551,0.0262L0.3022,0.0257L0.3516,0.0248L0.4026,0.0235L0.4546,0.0218L0.5071,0.0198L0.5594,0.0176L0.6113,0.0152L0.6624,0.0127L0.7124,0.0101L0.7604,0.0075L0.8058,0.0051L0.8478,0.0029L0.8858,0.0011L0.9193,-0.0002L0.9475,-0.001L0.97,-0.0012L0.9865,-0.0008L0.9966,-0.0003L1,-0"
    />
</svg>
