
<svg 
  class="airfoil-ah21-9"
  fill="none"
  stroke="black" 
  stroke-width="1"
  style="overflow:visible"
  viewBox="0, -0.0513, 1, 0.0717"
  xmlns="http://www.w3.org/2000/svg">
    <title>AH21 9% version (Andrew Hollom)</title>
    <path 
      vector-effect="non-scaling-stroke"
      d="M1,-0L0.9967,-0.0007L0.9873,-0.0028L0.9724,-0.0059L0.9525,-0.0099L0.9276,-0.0145L0.8981,-0.0194L0.8643,-0.0244L0.8266,-0.0293L0.7856,-0.0339L0.7416,-0.0381L0.6954,-0.0418L0.6472,-0.0449L0.5978,-0.0474L0.5475,-0.0493L0.497,-0.0506L0.4468,-0.0512L0.3973,-0.0513L0.349,-0.0506L0.3025,-0.0494L0.2581,-0.0477L0.2162,-0.0454L0.1773,-0.0425L0.1416,-0.0392L0.1094,-0.0355L0.0811,-0.0314L0.0567,-0.0269L0.0366,-0.0221L0.0208,-0.017L0.0093,-0.0116L0.0023,-0.0059L0,-0L0.0034,0.0045L0.0125,0.0082L0.0267,0.0113L0.046,0.0139L0.0701,0.0161L0.099,0.0178L0.1322,0.0191L0.1696,0.02L0.2107,0.0204L0.2551,0.0204L0.3022,0.02L0.3516,0.0193L0.4026,0.0183L0.4546,0.017L0.5071,0.0154L0.5594,0.0137L0.6113,0.0118L0.6624,0.0099L0.7124,0.0079L0.7604,0.0059L0.8058,0.004L0.8478,0.0023L0.8858,0.0009L0.9193,-0.0002L0.9475,-0.0008L0.97,-0.0009L0.9865,-0.0006L0.9966,-0.0002L1,-0"
    />
</svg>
