
<svg 
  class="airfoil-ah63k127"
  fill="none"
  stroke="black" 
  stroke-width="1"
  style="overflow:visible"
  viewBox="0, -0.101, 1, 0.12730001"
  xmlns="http://www.w3.org/2000/svg">
    <title>AH 63-K-127/24</title>
    <path 
      vector-effect="non-scaling-stroke"
      d="M1,-0L0.9989,-0.0008L0.9957,-0.0018L0.9904,-0.0031L0.983,-0.0049L0.9735,-0.0071L0.9619,-0.0096L0.9484,-0.0122L0.933,-0.0152L0.9157,-0.0187L0.8967,-0.0225L0.8759,-0.0267L0.8536,-0.0309L0.8297,-0.0348L0.8044,-0.0392L0.7778,-0.0453L0.75,-0.0533L0.7211,-0.0624L0.6913,-0.0709L0.6607,-0.0781L0.6294,-0.0842L0.5975,-0.0891L0.5653,-0.0931L0.5327,-0.0963L0.5,-0.0987L0.4673,-0.1002L0.4347,-0.101L0.4024,-0.101L0.3706,-0.1001L0.3393,-0.0984L0.3087,-0.0959L0.2789,-0.0926L0.25,-0.0887L0.2222,-0.0843L0.1956,-0.0793L0.1703,-0.0741L0.1464,-0.0685L0.1241,-0.0627L0.1033,-0.0569L0.0843,-0.0509L0.067,-0.0449L0.0516,-0.0388L0.0381,-0.0325L0.0265,-0.0263L0.017,-0.0202L0.0096,-0.0143L0.0043,-0.0088L0.0011,-0.0039L0,-0L0.0011,0.0031L0.0043,0.0057L0.0096,0.008L0.017,0.0102L0.0265,0.0125L0.0381,0.0146L0.0516,0.0166L0.067,0.0183L0.0843,0.0199L0.1033,0.0213L0.1241,0.0225L0.1464,0.0235L0.1703,0.0243L0.1956,0.0248L0.2222,0.0253L0.25,0.0256L0.2789,0.0258L0.3087,0.0261L0.3393,0.0263L0.3706,0.0263L0.4024,0.0261L0.4347,0.0257L0.4673,0.0251L0.5,0.0243L0.5327,0.0234L0.5653,0.0222L0.5975,0.0209L0.6294,0.0194L0.6607,0.0176L0.6913,0.0154L0.7211,0.013L0.75,0.0105L0.7778,0.008L0.8044,0.0054L0.8297,0.0029L0.8536,0.0007L0.8759,-0.001L0.8967,-0.0021L0.9157,-0.0027L0.933,-0.0029L0.9484,-0.0027L0.9619,-0.0023L0.9735,-0.0017L0.983,-0.0012L0.9904,-0.0008L0.9957,-0.0003L0.9989,-0.0001L1,-0"
    />
</svg>
