
<svg 
  class="airfoil-ah6407"
  fill="none"
  stroke="black" 
  stroke-width="1"
  style="overflow:visible"
  viewBox="0, -0.0848, 1, 0.0927"
  xmlns="http://www.w3.org/2000/svg">
    <title>AH-6-40-7 AIRFOIL</title>
    <path 
      vector-effect="non-scaling-stroke"
      d="M1,-0.0035L0.8999,-0.027L0.7998,-0.0466L0.6997,-0.0622L0.5997,-0.0737L0.4996,-0.0812L0.3996,-0.0848L0.2996,-0.0843L0.1997,-0.0779L0.1497,-0.0707L0.0997,-0.0584L0.0748,-0.0503L0.0498,-0.0402L0.0249,-0.0271L0.0124,-0.0181L0,-0L0.0125,0.0069L0.025,0.0079L0.05,0.0068L0.075,0.0052L0.1,0.0026L0.15,-0.0032L0.2,-0.0094L0.2999,-0.0193L0.3999,-0.0258L0.4999,-0.0282L0.5999,-0.0287L0.6999,-0.0251L0.7999,-0.0186L0.9,-0.0091L1,0.0035"
    />
</svg>
