
<svg 
  class="airfoil-ah7476"
  fill="none"
  stroke="black" 
  stroke-width="1"
  style="overflow:visible"
  viewBox="0, -0.0878, 1, 0.0957"
  xmlns="http://www.w3.org/2000/svg">
    <title>AH-7-47-6 AIRFOIL</title>
    <path 
      vector-effect="non-scaling-stroke"
      d="M1,-0.0035L0.8999,-0.034L0.7997,-0.0546L0.6997,-0.0706L0.5996,-0.0807L0.4996,-0.0862L0.3996,-0.0878L0.2996,-0.0859L0.1997,-0.0759L0.1497,-0.0677L0.0997,-0.0564L0.0748,-0.0488L0.0498,-0.0392L0.0249,-0.0271L0.0124,-0.0181L0,-0L0.0125,0.0079L0.025,0.0059L0.05,0.0033L0.075,-0.0003L0.1,-0.0034L0.1499,-0.0107L0.1999,-0.0169L0.2999,-0.0273L0.3999,-0.0343L0.4998,-0.0377L0.5998,-0.0387L0.6998,-0.0362L0.7999,-0.0291L0.8999,-0.016L1,0.0035"
    />
</svg>
