
<svg 
  class="airfoil-ah79k135"
  fill="none"
  stroke="black" 
  stroke-width="1"
  style="overflow:visible"
  viewBox="0, -0.098, 1, 0.1349"
  xmlns="http://www.w3.org/2000/svg">
    <title>AH 79-K-135/20 B</title>
    <path 
      vector-effect="non-scaling-stroke"
      d="M1,-0L0.9989,-0.0004L0.9957,-0.0014L0.9904,-0.0028L0.983,-0.0044L0.9735,-0.0063L0.9619,-0.0084L0.9484,-0.0108L0.933,-0.0134L0.9157,-0.0163L0.8967,-0.0194L0.8759,-0.0227L0.8536,-0.0264L0.8297,-0.0305L0.8044,-0.0357L0.7778,-0.0428L0.75,-0.0509L0.7211,-0.0591L0.6913,-0.0669L0.6607,-0.0739L0.6294,-0.0799L0.5975,-0.0848L0.5653,-0.0889L0.5327,-0.0922L0.5,-0.0947L0.4673,-0.0965L0.4347,-0.0976L0.4024,-0.098L0.3706,-0.0976L0.3393,-0.0966L0.3087,-0.0949L0.2789,-0.0925L0.25,-0.0894L0.2222,-0.0857L0.1956,-0.0815L0.1703,-0.0767L0.1464,-0.0715L0.1241,-0.0658L0.1033,-0.0597L0.0843,-0.0534L0.067,-0.0468L0.0516,-0.0399L0.0381,-0.0331L0.0265,-0.0268L0.017,-0.0202L0.0096,-0.0141L0.0043,-0.0086L0.0011,-0.0044L0,-0L0.0011,0.0039L0.0043,0.0069L0.0096,0.0099L0.017,0.013L0.0265,0.0161L0.0381,0.0187L0.0516,0.0212L0.067,0.0234L0.0843,0.0256L0.1033,0.0275L0.1241,0.0292L0.1464,0.0307L0.1703,0.0321L0.1956,0.0333L0.2222,0.0344L0.25,0.0352L0.2789,0.0359L0.3087,0.0364L0.3393,0.0368L0.3706,0.0369L0.4024,0.0369L0.4347,0.0367L0.4673,0.0363L0.5,0.0357L0.5327,0.0349L0.5653,0.0339L0.5975,0.0326L0.6294,0.0311L0.6607,0.0293L0.6913,0.0273L0.7211,0.025L0.75,0.0224L0.7778,0.0197L0.8044,0.0168L0.8297,0.0137L0.8536,0.0106L0.8759,0.0076L0.8967,0.005L0.9157,0.0029L0.933,0.0014L0.9484,0.0004L0.9619,-0.0002L0.9735,-0.0003L0.983,-0.0003L0.9904,-0.0001L0.9957,0.0001L0.9989,0L1,-0"
    />
</svg>
