
<svg 
  class="airfoil-ah79k143"
  fill="none"
  stroke="black" 
  stroke-width="1"
  style="overflow:visible"
  viewBox="0, -0.1001, 1, 0.1429"
  xmlns="http://www.w3.org/2000/svg">
    <title>AH 79-K-143/18</title>
    <path 
      vector-effect="non-scaling-stroke"
      d="M1,-0L0.9989,-0.0014L0.9957,-0.0024L0.9904,-0.0038L0.983,-0.0054L0.9735,-0.0073L0.9619,-0.0094L0.9484,-0.0118L0.933,-0.0143L0.9157,-0.017L0.8967,-0.0197L0.8759,-0.0226L0.8536,-0.0254L0.8297,-0.0292L0.8044,-0.0359L0.7778,-0.0448L0.75,-0.054L0.7211,-0.0628L0.6913,-0.0706L0.6607,-0.0773L0.6294,-0.083L0.5975,-0.0878L0.5653,-0.0918L0.5327,-0.0949L0.5,-0.0974L0.4673,-0.099L0.4347,-0.0999L0.4024,-0.1001L0.3706,-0.0995L0.3393,-0.0981L0.3087,-0.096L0.2789,-0.0932L0.25,-0.0897L0.2222,-0.0857L0.1956,-0.0811L0.1703,-0.076L0.1464,-0.0705L0.1241,-0.0646L0.1033,-0.0585L0.0843,-0.0521L0.067,-0.0456L0.0516,-0.039L0.0381,-0.0326L0.0265,-0.0264L0.017,-0.0205L0.0096,-0.0149L0.0043,-0.0097L0.0011,-0.005L0,-0L0.0011,0.0045L0.0043,0.0082L0.0096,0.0118L0.017,0.0151L0.0265,0.0184L0.0381,0.0214L0.0516,0.0242L0.067,0.0267L0.0843,0.029L0.1033,0.031L0.1241,0.0328L0.1464,0.0344L0.1703,0.036L0.1956,0.0373L0.2222,0.0385L0.25,0.0396L0.2789,0.0405L0.3087,0.0412L0.3393,0.0419L0.3706,0.0424L0.4024,0.0427L0.4347,0.0428L0.4673,0.0428L0.5,0.0425L0.5327,0.0419L0.5653,0.041L0.5975,0.0399L0.6294,0.0385L0.6607,0.0368L0.6913,0.0348L0.7211,0.0326L0.75,0.03L0.7778,0.0271L0.8044,0.0234L0.8297,0.0194L0.8536,0.0149L0.8759,0.0107L0.8967,0.0068L0.9157,0.0038L0.933,0.0016L0.9484,0.0001L0.9619,-0.0007L0.9735,-0.0009L0.983,-0.0008L0.9904,-0.0004L0.9957,0.0002L0.9989,0.0006L1,-0"
    />
</svg>
