
<svg 
  class="airfoil-ah79100a"
  fill="none"
  stroke="black" 
  stroke-width="1"
  style="overflow:visible"
  viewBox="0, -0.0807, 1, 0.105900005"
  xmlns="http://www.w3.org/2000/svg">
    <title>AH 79-100 A AIRFOIL</title>
    <path 
      vector-effect="non-scaling-stroke"
      d="M1,-0L0.9989,-0.0004L0.9957,-0.0008L0.9904,-0.002L0.983,-0.0037L0.9735,-0.0057L0.9619,-0.0082L0.9484,-0.0109L0.933,-0.0141L0.9157,-0.0176L0.8967,-0.0214L0.8759,-0.0254L0.8536,-0.0297L0.8297,-0.0341L0.8044,-0.0387L0.7778,-0.0434L0.75,-0.0481L0.7211,-0.0526L0.6913,-0.0569L0.6607,-0.061L0.6294,-0.0648L0.5975,-0.0683L0.5653,-0.0713L0.5327,-0.074L0.5,-0.0763L0.4673,-0.0781L0.4347,-0.0795L0.4024,-0.0804L0.3706,-0.0807L0.3393,-0.0804L0.3087,-0.0795L0.2789,-0.0781L0.25,-0.0761L0.2222,-0.0736L0.1956,-0.0705L0.1703,-0.0669L0.1464,-0.0628L0.1241,-0.0584L0.1033,-0.0536L0.0843,-0.0485L0.067,-0.0431L0.0516,-0.0375L0.0381,-0.0318L0.0265,-0.026L0.017,-0.0202L0.0096,-0.0146L0.0043,-0.0094L0.0011,-0.0048L0,-0L0.0011,0.0037L0.0043,0.0072L0.0096,0.0104L0.017,0.0132L0.0265,0.0158L0.0381,0.018L0.0516,0.02L0.067,0.0216L0.0843,0.0229L0.1033,0.024L0.1241,0.0247L0.1464,0.0251L0.1703,0.0252L0.1956,0.0249L0.2222,0.0243L0.25,0.0233L0.2789,0.0219L0.3087,0.0201L0.3393,0.0179L0.3706,0.0154L0.4024,0.0127L0.4347,0.0098L0.4673,0.0069L0.5,0.0039L0.5327,0.0011L0.5653,-0.0016L0.5975,-0.004L0.6294,-0.0061L0.6607,-0.0078L0.6913,-0.0092L0.7211,-0.0102L0.75,-0.0108L0.7778,-0.0111L0.8044,-0.0111L0.8297,-0.0107L0.8536,-0.0101L0.8759,-0.0093L0.8967,-0.0083L0.9157,-0.0071L0.933,-0.0059L0.9484,-0.0047L0.9619,-0.0035L0.9735,-0.0024L0.983,-0.0014L0.9904,-0.0007L0.9957,-0.0002L0.9989,-0.0001L1,-0"
    />
</svg>
