
<svg 
  class="airfoil-ah79k132"
  fill="none"
  stroke="black" 
  stroke-width="1"
  style="overflow:visible"
  viewBox="0, -0.1028, 1, 0.132"
  xmlns="http://www.w3.org/2000/svg">
    <title>AH 79-K-132/20</title>
    <path 
      vector-effect="non-scaling-stroke"
      d="M1,-0L0.9989,-0.0004L0.9957,-0.0015L0.9904,-0.003L0.983,-0.0047L0.9735,-0.0068L0.9619,-0.0091L0.9484,-0.0116L0.933,-0.0143L0.9157,-0.0173L0.8967,-0.0206L0.8759,-0.0239L0.8536,-0.0276L0.8297,-0.0319L0.8044,-0.0371L0.7778,-0.0446L0.75,-0.0532L0.7211,-0.0617L0.6913,-0.0701L0.6607,-0.0774L0.6294,-0.0837L0.5975,-0.0889L0.5653,-0.0932L0.5327,-0.0966L0.5,-0.0993L0.4673,-0.1012L0.4347,-0.1024L0.4024,-0.1028L0.3706,-0.1024L0.3393,-0.1014L0.3087,-0.0995L0.2789,-0.097L0.25,-0.0937L0.2222,-0.0898L0.1956,-0.0853L0.1703,-0.0803L0.1464,-0.0747L0.1241,-0.0687L0.1033,-0.0623L0.0843,-0.0556L0.067,-0.0487L0.0516,-0.0413L0.0381,-0.0342L0.0265,-0.0276L0.017,-0.0209L0.0096,-0.0143L0.0043,-0.0085L0.0011,-0.0036L0,-0L0.0011,0.0034L0.0043,0.007L0.0096,0.0102L0.017,0.0134L0.0265,0.0161L0.0381,0.0183L0.0516,0.0201L0.067,0.0214L0.0843,0.0227L0.1033,0.0238L0.1241,0.0248L0.1464,0.0256L0.1703,0.0263L0.1956,0.0269L0.2222,0.0275L0.25,0.028L0.2789,0.0283L0.3087,0.0286L0.3393,0.0289L0.3706,0.0291L0.4024,0.0292L0.4347,0.0292L0.4673,0.0291L0.5,0.0289L0.5327,0.0284L0.5653,0.0278L0.5975,0.0269L0.6294,0.0258L0.6607,0.0246L0.6913,0.023L0.7211,0.0213L0.75,0.0193L0.7778,0.017L0.8044,0.0147L0.8297,0.0118L0.8536,0.0089L0.8759,0.006L0.8967,0.0035L0.9157,0.0016L0.933,0.0003L0.9484,-0.0005L0.9619,-0.0009L0.9735,-0.0008L0.983,-0.0006L0.9904,-0.0002L0.9957,0.0002L0.9989,0.0001L1,-0"
    />
</svg>
