
<svg 
  class="airfoil-ah79100b"
  fill="none"
  stroke="black" 
  stroke-width="1"
  style="overflow:visible"
  viewBox="0, -0.1102, 1, 0.1211"
  xmlns="http://www.w3.org/2000/svg">
    <title>AH 79-100 B AIRFOIL</title>
    <path 
      vector-effect="non-scaling-stroke"
      d="M1,-0L0.9989,-0.0003L0.9957,-0.002L0.9904,-0.0044L0.983,-0.0076L0.9735,-0.0113L0.9619,-0.0153L0.9484,-0.0197L0.933,-0.0243L0.9157,-0.0292L0.8967,-0.0344L0.8759,-0.0399L0.8536,-0.0455L0.8297,-0.0514L0.8044,-0.0573L0.7778,-0.0634L0.75,-0.0695L0.7211,-0.0756L0.6913,-0.0816L0.6607,-0.0872L0.6294,-0.0924L0.5975,-0.0971L0.5653,-0.101L0.5327,-0.1044L0.5,-0.1069L0.4673,-0.1088L0.4347,-0.1098L0.4024,-0.1102L0.3706,-0.1096L0.3393,-0.1085L0.3087,-0.1065L0.2789,-0.1039L0.25,-0.1003L0.2222,-0.0961L0.1956,-0.0912L0.1703,-0.0858L0.1464,-0.0798L0.1241,-0.0734L0.1033,-0.0665L0.0843,-0.0594L0.067,-0.052L0.0516,-0.0446L0.0381,-0.0374L0.0265,-0.0305L0.017,-0.0235L0.0096,-0.0168L0.0043,-0.0106L0.0011,-0.0054L0,-0L0.0011,0.0032L0.0043,0.0062L0.0096,0.0087L0.017,0.0102L0.0265,0.0108L0.0381,0.0109L0.0516,0.0106L0.067,0.0099L0.0843,0.009L0.1033,0.0079L0.1241,0.0067L0.1464,0.0052L0.1703,0.0037L0.1956,0.002L0.2222,0.0002L0.25,-0.0019L0.2789,-0.0039L0.3087,-0.0061L0.3393,-0.0085L0.3706,-0.011L0.4024,-0.0136L0.4347,-0.0162L0.4673,-0.0189L0.5,-0.0215L0.5327,-0.0239L0.5653,-0.0261L0.5975,-0.0279L0.6294,-0.0294L0.6607,-0.0304L0.6913,-0.031L0.7211,-0.0312L0.75,-0.031L0.7778,-0.0304L0.8044,-0.0294L0.8297,-0.028L0.8536,-0.0262L0.8759,-0.0241L0.8967,-0.0217L0.9157,-0.0191L0.933,-0.0164L0.9484,-0.0136L0.9619,-0.0107L0.9735,-0.0079L0.983,-0.0053L0.9904,-0.0031L0.9957,-0.0014L0.9989,-0.0002L1,-0"
    />
</svg>
