
<svg 
  class="airfoil-ah79100c"
  fill="none"
  stroke="black" 
  stroke-width="1"
  style="overflow:visible"
  viewBox="0, -0.114, 1, 0.1268"
  xmlns="http://www.w3.org/2000/svg">
    <title>AH 79-100 C AIRFOIL</title>
    <path 
      vector-effect="non-scaling-stroke"
      d="M1,-0L0.9989,-0.0004L0.9957,-0.0018L0.9904,-0.0043L0.983,-0.0077L0.9735,-0.0124L0.9619,-0.0178L0.9484,-0.0237L0.933,-0.0298L0.9157,-0.0358L0.8967,-0.0419L0.8759,-0.0482L0.8536,-0.0545L0.8297,-0.0608L0.8044,-0.0671L0.7778,-0.0733L0.75,-0.0793L0.7211,-0.0851L0.6913,-0.0907L0.6607,-0.0958L0.6294,-0.1005L0.5975,-0.1046L0.5653,-0.108L0.5327,-0.1106L0.5,-0.1125L0.4673,-0.1136L0.4347,-0.114L0.4024,-0.1137L0.3706,-0.1127L0.3393,-0.111L0.3087,-0.1087L0.2789,-0.1057L0.25,-0.102L0.2222,-0.0978L0.1956,-0.093L0.1703,-0.0876L0.1464,-0.0817L0.1241,-0.0754L0.1033,-0.0685L0.0843,-0.0614L0.067,-0.0539L0.0516,-0.0463L0.0381,-0.0386L0.0265,-0.0311L0.017,-0.0236L0.0096,-0.0168L0.0043,-0.0106L0.0011,-0.0057L0,-0L0.0011,0.0038L0.0043,0.0068L0.0096,0.0096L0.017,0.0113L0.0265,0.0125L0.0381,0.0128L0.0516,0.0127L0.067,0.0121L0.0843,0.0111L0.1033,0.0097L0.1241,0.0082L0.1464,0.006L0.1703,0.0037L0.1956,0.0012L0.2222,-0.0013L0.25,-0.004L0.2789,-0.0066L0.3087,-0.0092L0.3393,-0.0117L0.3706,-0.0142L0.4024,-0.0164L0.4347,-0.0183L0.4673,-0.0201L0.5,-0.0215L0.5327,-0.0228L0.5653,-0.0238L0.5975,-0.0246L0.6294,-0.0252L0.6607,-0.0255L0.6913,-0.0255L0.7211,-0.0253L0.75,-0.0248L0.7778,-0.0241L0.8044,-0.0231L0.8297,-0.0219L0.8536,-0.0204L0.8759,-0.0187L0.8967,-0.0169L0.9157,-0.0149L0.933,-0.0128L0.9484,-0.0106L0.9619,-0.0084L0.9735,-0.0063L0.983,-0.0043L0.9904,-0.0023L0.9957,-0.001L0.9989,-0.0002L1,-0"
    />
</svg>
