
<svg 
  class="airfoil-ah80140"
  fill="none"
  stroke="black" 
  stroke-width="1"
  style="overflow:visible"
  viewBox="0, -0.1132, 1, 0.14130001"
  xmlns="http://www.w3.org/2000/svg">
    <title>AH 80-140</title>
    <path 
      vector-effect="non-scaling-stroke"
      d="M1,-0L0.9989,-0.001L0.9957,-0.0016L0.9904,-0.0025L0.983,-0.0035L0.9735,-0.0048L0.9619,-0.0063L0.9484,-0.0081L0.933,-0.0101L0.9157,-0.0125L0.8967,-0.0151L0.8759,-0.0182L0.8536,-0.0215L0.8297,-0.0254L0.8044,-0.0295L0.7778,-0.0342L0.75,-0.0393L0.7211,-0.0449L0.6913,-0.0508L0.6607,-0.0572L0.6294,-0.064L0.5975,-0.0711L0.5653,-0.0782L0.5327,-0.0855L0.5,-0.0926L0.4673,-0.0993L0.4347,-0.105L0.4024,-0.1093L0.3706,-0.1118L0.3393,-0.1132L0.3087,-0.1131L0.2789,-0.112L0.25,-0.1097L0.2222,-0.1063L0.1956,-0.102L0.1703,-0.0969L0.1464,-0.091L0.1241,-0.0847L0.1033,-0.0777L0.0843,-0.0702L0.067,-0.0623L0.0516,-0.0542L0.0381,-0.0458L0.0265,-0.0377L0.017,-0.0298L0.0096,-0.0223L0.0043,-0.0151L0.0011,-0.0081L0,-0L0.0011,0.0059L0.0043,0.0106L0.0096,0.0148L0.017,0.018L0.0265,0.0206L0.0381,0.0226L0.0516,0.0242L0.067,0.0254L0.0843,0.0264L0.1033,0.0271L0.1241,0.0277L0.1464,0.0279L0.1703,0.0281L0.1956,0.028L0.2222,0.0279L0.25,0.0275L0.2789,0.0271L0.3087,0.0265L0.3393,0.0259L0.3706,0.0252L0.4024,0.0245L0.4347,0.0237L0.4673,0.0228L0.5,0.0217L0.5327,0.0207L0.5653,0.0194L0.5975,0.0181L0.6294,0.0167L0.6607,0.0154L0.6913,0.0139L0.7211,0.0125L0.75,0.0111L0.7778,0.0097L0.8044,0.0083L0.8297,0.007L0.8536,0.0058L0.8759,0.0048L0.8967,0.0038L0.9157,0.0031L0.933,0.0024L0.9484,0.0019L0.9619,0.0015L0.9735,0.0013L0.983,0.0011L0.9904,0.001L0.9957,0.0009L0.9989,0.0008L1,-0"
    />
</svg>
