
<svg 
  class="airfoil-ah80129"
  fill="none"
  stroke="black" 
  stroke-width="1"
  style="overflow:visible"
  viewBox="0, -0.1049, 1, 0.1288"
  xmlns="http://www.w3.org/2000/svg">
    <title>AH 80-129</title>
    <path 
      vector-effect="non-scaling-stroke"
      d="M1,-0L0.9989,-0.001L0.9957,-0.0012L0.9904,-0.0018L0.983,-0.0026L0.9735,-0.0038L0.9619,-0.0055L0.9484,-0.0077L0.933,-0.0106L0.9157,-0.014L0.8967,-0.0182L0.8759,-0.023L0.8536,-0.0285L0.8297,-0.0347L0.8044,-0.0415L0.7778,-0.0489L0.75,-0.0567L0.7211,-0.0645L0.6913,-0.072L0.6607,-0.079L0.6294,-0.0852L0.5975,-0.0907L0.5653,-0.0953L0.5327,-0.0991L0.5,-0.1019L0.4673,-0.1038L0.4347,-0.1048L0.4024,-0.1049L0.3706,-0.1041L0.3393,-0.1024L0.3087,-0.0999L0.2789,-0.0967L0.25,-0.0928L0.2222,-0.0882L0.1956,-0.083L0.1703,-0.0774L0.1464,-0.0714L0.1241,-0.0651L0.1033,-0.0585L0.0843,-0.0518L0.067,-0.045L0.0516,-0.0382L0.0381,-0.0314L0.0265,-0.0248L0.017,-0.0185L0.0096,-0.0127L0.0043,-0.0076L0.0011,-0.0033L0,-0L0.0011,0.0027L0.0043,0.0052L0.0096,0.0077L0.017,0.0102L0.0265,0.0124L0.0381,0.0143L0.0516,0.0159L0.067,0.0173L0.0843,0.0186L0.1033,0.0197L0.1241,0.0207L0.1464,0.0215L0.1703,0.0222L0.1956,0.0227L0.2222,0.0232L0.25,0.0235L0.2789,0.0237L0.3087,0.0239L0.3393,0.0239L0.3706,0.0239L0.4024,0.0237L0.4347,0.0235L0.4673,0.0233L0.5,0.0229L0.5327,0.0224L0.5653,0.0219L0.5975,0.0212L0.6294,0.0205L0.6607,0.0196L0.6913,0.0186L0.7211,0.0175L0.75,0.0162L0.7778,0.0148L0.8044,0.0132L0.8297,0.0117L0.8536,0.0102L0.8759,0.0087L0.8967,0.0073L0.9157,0.006L0.933,0.0049L0.9484,0.004L0.9619,0.0032L0.9735,0.0025L0.983,0.0019L0.9904,0.0016L0.9957,0.0012L0.9989,0.0009L1,-0"
    />
</svg>
