
<svg 
  class="airfoil-ah80136"
  fill="none"
  stroke="black" 
  stroke-width="1"
  style="overflow:visible"
  viewBox="0, -0.1018, 1, 0.1356"
  xmlns="http://www.w3.org/2000/svg">
    <title>AH 80-136</title>
    <path 
      vector-effect="non-scaling-stroke"
      d="M1,-0.0015L0.9989,-0.0015L0.9957,-0.0014L0.9904,-0.0012L0.983,-0.001L0.9735,-0.0008L0.9619,-0.001L0.9484,-0.0015L0.933,-0.0023L0.9157,-0.0036L0.8967,-0.0052L0.8759,-0.0076L0.8536,-0.0106L0.8297,-0.0143L0.8044,-0.0187L0.7778,-0.0237L0.75,-0.0295L0.7211,-0.0359L0.6913,-0.0429L0.6607,-0.0504L0.6294,-0.0582L0.5975,-0.0662L0.5653,-0.074L0.5327,-0.0814L0.5,-0.088L0.4673,-0.0934L0.4347,-0.0975L0.4024,-0.1002L0.3706,-0.1016L0.3393,-0.1018L0.3087,-0.1009L0.2789,-0.0992L0.25,-0.0966L0.2222,-0.0932L0.1956,-0.0889L0.1703,-0.0839L0.1464,-0.0782L0.1241,-0.072L0.1033,-0.0654L0.0843,-0.0583L0.067,-0.051L0.0516,-0.0436L0.0381,-0.0364L0.0265,-0.0293L0.017,-0.0224L0.0096,-0.0158L0.0043,-0.0097L0.0011,-0.0044L0,-0L0.0011,0.0037L0.0043,0.0071L0.0096,0.0101L0.017,0.0127L0.0265,0.0149L0.0381,0.017L0.0516,0.0191L0.067,0.0212L0.0843,0.0233L0.1033,0.0251L0.1241,0.0267L0.1464,0.0282L0.1703,0.0294L0.1956,0.0306L0.2222,0.0316L0.25,0.0323L0.2789,0.0329L0.3087,0.0334L0.3393,0.0337L0.3706,0.0338L0.4024,0.0336L0.4347,0.0332L0.4673,0.0324L0.5,0.0314L0.5327,0.0301L0.5653,0.0289L0.5975,0.0276L0.6294,0.0262L0.6607,0.0249L0.6913,0.0235L0.7211,0.0221L0.75,0.0204L0.7778,0.0187L0.8044,0.0168L0.8297,0.015L0.8536,0.0133L0.8759,0.0117L0.8967,0.01L0.9157,0.0083L0.933,0.0067L0.9484,0.0052L0.9619,0.004L0.9735,0.003L0.983,0.002L0.9904,0.0012L0.9957,0.0006L0.9989,0.0005L1,0.0003"
    />
</svg>
