
<svg 
  class="airfoil-ah81131"
  fill="none"
  stroke="black" 
  stroke-width="1"
  style="overflow:visible"
  viewBox="0, -0.0935, 1, 0.1305"
  xmlns="http://www.w3.org/2000/svg">
    <title>AH 81-131</title>
    <path 
      vector-effect="non-scaling-stroke"
      d="M1,-0L0.9989,0.0001L0.9957,0.0004L0.9904,0.0007L0.983,0.0008L0.9735,0.0007L0.9619,0.0003L0.9484,-0.0005L0.933,-0.0018L0.9157,-0.0037L0.8967,-0.0064L0.8759,-0.0099L0.8536,-0.0143L0.8297,-0.0196L0.8044,-0.026L0.7778,-0.0334L0.75,-0.0417L0.7211,-0.0504L0.6913,-0.059L0.6607,-0.0669L0.6294,-0.0737L0.5975,-0.0795L0.5653,-0.0843L0.5327,-0.0881L0.5,-0.0908L0.4673,-0.0926L0.4347,-0.0934L0.4024,-0.0935L0.3706,-0.093L0.3393,-0.092L0.3087,-0.0902L0.2789,-0.0877L0.25,-0.0846L0.2222,-0.081L0.1956,-0.077L0.1703,-0.0724L0.1464,-0.0675L0.1241,-0.0621L0.1033,-0.0563L0.0843,-0.0504L0.067,-0.0444L0.0516,-0.0384L0.0381,-0.0325L0.0265,-0.0268L0.017,-0.021L0.0096,-0.0151L0.0043,-0.0093L0.0011,-0.0043L0,-0.0006L0.0011,0.0022L0.0043,0.0046L0.0096,0.007L0.017,0.0095L0.0265,0.0119L0.0381,0.0142L0.0516,0.0165L0.067,0.0188L0.0843,0.0211L0.1033,0.0233L0.1241,0.0254L0.1464,0.0273L0.1703,0.0291L0.1956,0.0308L0.2222,0.0324L0.25,0.0338L0.2789,0.0348L0.3087,0.0357L0.3393,0.0363L0.3706,0.0368L0.4024,0.037L0.4347,0.037L0.4673,0.0367L0.5,0.0362L0.5327,0.0355L0.5653,0.0347L0.5975,0.0336L0.6294,0.0324L0.6607,0.031L0.6913,0.0296L0.7211,0.028L0.75,0.0264L0.7778,0.0248L0.8044,0.0231L0.8297,0.0212L0.8536,0.0193L0.8759,0.0174L0.8967,0.0153L0.9157,0.0131L0.933,0.0109L0.9484,0.0088L0.9619,0.0068L0.9735,0.005L0.983,0.0034L0.9904,0.0022L0.9957,0.0011L0.9989,0.0004L1,-0"
    />
</svg>
