
<svg 
  class="airfoil-ah81k144"
  fill="none"
  stroke="black" 
  stroke-width="1"
  style="overflow:visible"
  viewBox="0, -0.1144, 1, 0.146"
  xmlns="http://www.w3.org/2000/svg">
    <title>AH 81-K-144/17</title>
    <path 
      vector-effect="non-scaling-stroke"
      d="M1,-0L0.9989,-0.0011L0.9957,-0.0018L0.9904,-0.0029L0.983,-0.0042L0.9735,-0.0061L0.9619,-0.0084L0.9484,-0.0112L0.933,-0.0144L0.9157,-0.0181L0.8967,-0.0223L0.8759,-0.0268L0.8536,-0.0318L0.8297,-0.0373L0.8044,-0.0438L0.7778,-0.0513L0.75,-0.0598L0.7211,-0.0688L0.6913,-0.0779L0.6607,-0.0865L0.6294,-0.0941L0.5975,-0.1006L0.5653,-0.1056L0.5327,-0.1094L0.5,-0.1121L0.4673,-0.1138L0.4347,-0.1144L0.4024,-0.1142L0.3706,-0.1131L0.3393,-0.1112L0.3087,-0.1085L0.2789,-0.105L0.25,-0.1008L0.2222,-0.096L0.1956,-0.0906L0.1703,-0.0846L0.1464,-0.0782L0.1241,-0.0715L0.1033,-0.0645L0.0843,-0.0573L0.067,-0.05L0.0516,-0.0428L0.0381,-0.0356L0.0265,-0.0287L0.017,-0.0221L0.0096,-0.016L0.0043,-0.0103L0.0011,-0.005L0,-0.0004L0.0011,0.0037L0.0043,0.0072L0.0096,0.0104L0.017,0.0137L0.0265,0.0167L0.0381,0.0195L0.0516,0.0219L0.067,0.0241L0.0843,0.026L0.1033,0.0275L0.1241,0.0287L0.1464,0.0297L0.1703,0.0304L0.1956,0.031L0.2222,0.0314L0.25,0.0316L0.2789,0.0316L0.3087,0.0315L0.3393,0.0313L0.3706,0.0309L0.4024,0.0304L0.4347,0.0298L0.4673,0.029L0.5,0.0281L0.5327,0.0271L0.5653,0.026L0.5975,0.0247L0.6294,0.0234L0.6607,0.0218L0.6913,0.0202L0.7211,0.0183L0.75,0.0161L0.7778,0.0137L0.8044,0.0109L0.8297,0.0082L0.8536,0.0056L0.8759,0.0036L0.8967,0.002L0.9157,0.0009L0.933,0.0002L0.9484,-0.0001L0.9619,-0.0002L0.9735,-0L0.983,0.0003L0.9904,0.0006L0.9957,0.0008L0.9989,0.0009L1,-0"
    />
</svg>
