
<svg 
  class="airfoil-ah81k144wfklappe"
  fill="none"
  stroke="black" 
  stroke-width="1"
  style="overflow:visible"
  viewBox="0, -0.119, 1, 0.2202"
  xmlns="http://www.w3.org/2000/svg">
    <title>AH 81-K-144 W-F KLAPPE</title>
    <path 
      vector-effect="non-scaling-stroke"
      d="M1,-0L0.9989,-0.0017L0.9957,-0.0027L0.9904,-0.0033L0.983,-0.0047L0.9735,-0.006L0.9619,-0.007L0.9484,-0.0087L0.933,-0.01L0.9157,-0.0127L0.8967,-0.015L0.8759,-0.018L0.8536,-0.02L0.8297,-0.0233L0.8044,-0.0267L0.7778,-0.0303L0.75,-0.0347L0.7211,-0.0383L0.6913,-0.0423L0.6607,-0.0467L0.6294,-0.0517L0.5975,-0.0567L0.5653,-0.0617L0.5327,-0.0657L0.5,-0.0707L0.4673,-0.0757L0.4347,-0.0807L0.4024,-0.085L0.3706,-0.09L0.3393,-0.095L0.3087,-0.0998L0.2789,-0.1056L0.25,-0.111L0.2222,-0.1155L0.1956,-0.1181L0.1703,-0.119L0.1464,-0.1173L0.1241,-0.1136L0.1033,-0.108L0.0843,-0.1006L0.067,-0.0931L0.0516,-0.0826L0.0381,-0.0711L0.0265,-0.059L0.017,-0.0467L0.0096,-0.0343L0.0043,-0.0219L0.0011,-0.0085L0,-0L0.0011,0.0064L0.0043,0.0187L0.0096,0.0289L0.017,0.0381L0.0265,0.0471L0.0381,0.0559L0.0516,0.064L0.067,0.0721L0.0843,0.0795L0.1033,0.0867L0.1241,0.0933L0.1464,0.0984L0.1703,0.1012L0.1956,0.1003L0.2222,0.0975L0.25,0.0926L0.2789,0.0874L0.3087,0.0822L0.3393,0.0771L0.3706,0.0717L0.4024,0.0662L0.4347,0.0608L0.4673,0.055L0.5,0.05L0.5327,0.0457L0.5653,0.0403L0.5975,0.0367L0.6294,0.032L0.6607,0.0283L0.6913,0.0253L0.7211,0.0217L0.75,0.0197L0.7778,0.0169L0.8044,0.0143L0.8297,0.0121L0.8536,0.0102L0.8759,0.0085L0.8967,0.0071L0.9157,0.007L0.933,0.0067L0.9484,0.0063L0.9619,0.0057L0.9735,0.0053L0.983,0.005L0.9904,0.0047L0.9957,0.0043L0.9989,0.004L1,-0"
    />
</svg>
