
<svg 
  class="airfoil-ah82150f"
  fill="none"
  stroke="black" 
  stroke-width="1"
  style="overflow:visible"
  viewBox="0, -0.1113, 1, 0.15"
  xmlns="http://www.w3.org/2000/svg">
    <title>AH 82-150 F</title>
    <path 
      vector-effect="non-scaling-stroke"
      d="M1,-0L0.9989,-0.0004L0.9957,-0.0013L0.9904,-0.0026L0.983,-0.0044L0.9735,-0.0067L0.9619,-0.0095L0.9484,-0.013L0.933,-0.0172L0.9157,-0.022L0.8967,-0.0275L0.8759,-0.0337L0.8536,-0.0406L0.8297,-0.048L0.8044,-0.0559L0.7778,-0.0643L0.75,-0.073L0.7211,-0.0815L0.6913,-0.0891L0.6607,-0.0954L0.6294,-0.1004L0.5975,-0.1041L0.5653,-0.107L0.5327,-0.1092L0.5,-0.1106L0.4673,-0.1113L0.4347,-0.1113L0.4024,-0.1106L0.3706,-0.1093L0.3393,-0.1073L0.3087,-0.1047L0.2789,-0.1013L0.25,-0.0973L0.2222,-0.0927L0.1956,-0.0874L0.1703,-0.0816L0.1464,-0.0752L0.1241,-0.0685L0.1033,-0.0616L0.0843,-0.0544L0.067,-0.0472L0.0516,-0.04L0.0381,-0.0328L0.0265,-0.0257L0.017,-0.019L0.0096,-0.013L0.0043,-0.0079L0.0011,-0.0037L0,-0L0.0011,0.0035L0.0043,0.007L0.0096,0.0104L0.017,0.0136L0.0265,0.0164L0.0381,0.0189L0.0516,0.0212L0.067,0.0234L0.0843,0.0255L0.1033,0.0275L0.1241,0.0294L0.1464,0.0311L0.1703,0.0327L0.1956,0.0341L0.2222,0.0353L0.25,0.0363L0.2789,0.0371L0.3087,0.0377L0.3393,0.0382L0.3706,0.0385L0.4024,0.0387L0.4347,0.0387L0.4673,0.0386L0.5,0.0383L0.5327,0.0378L0.5653,0.0372L0.5975,0.0364L0.6294,0.0354L0.6607,0.0342L0.6913,0.0328L0.7211,0.031L0.75,0.0285L0.7778,0.0253L0.8044,0.0214L0.8297,0.017L0.8536,0.0127L0.8759,0.0089L0.8967,0.0058L0.9157,0.0033L0.933,0.0015L0.9484,0.0003L0.9619,-0.0004L0.9735,-0.0008L0.983,-0.0008L0.9904,-0.0007L0.9957,-0.0004L0.9989,-0.0002L1,-0"
    />
</svg>
