
<svg 
  class="airfoil-ah82150a"
  fill="none"
  stroke="black" 
  stroke-width="1"
  style="overflow:visible"
  viewBox="0, -0.1078, 1, 0.15"
  xmlns="http://www.w3.org/2000/svg">
    <title>AH 82-150 A</title>
    <path 
      vector-effect="non-scaling-stroke"
      d="M1,-0L0.9989,-0.0005L0.9957,-0.0015L0.9904,-0.003L0.983,-0.0049L0.9735,-0.0071L0.9619,-0.0098L0.9484,-0.013L0.933,-0.0167L0.9157,-0.0208L0.8967,-0.0255L0.8759,-0.0306L0.8536,-0.0363L0.8297,-0.0423L0.8044,-0.0488L0.7778,-0.0555L0.75,-0.0625L0.7211,-0.0695L0.6913,-0.0764L0.6607,-0.083L0.6294,-0.0891L0.5975,-0.0945L0.5653,-0.099L0.5327,-0.1026L0.5,-0.1052L0.4673,-0.1069L0.4347,-0.1078L0.4024,-0.1078L0.3706,-0.107L0.3393,-0.1056L0.3087,-0.1034L0.2789,-0.1005L0.25,-0.0968L0.2222,-0.0925L0.1956,-0.0875L0.1703,-0.082L0.1464,-0.0759L0.1241,-0.0694L0.1033,-0.0626L0.0843,-0.0556L0.067,-0.0484L0.0516,-0.0413L0.0381,-0.0341L0.0265,-0.027L0.017,-0.0202L0.0096,-0.014L0.0043,-0.0086L0.0011,-0.0041L0,-0L0.0011,0.0039L0.0043,0.0079L0.0096,0.0117L0.017,0.0151L0.0265,0.0181L0.0381,0.0208L0.0516,0.0233L0.067,0.0257L0.0843,0.028L0.1033,0.0301L0.1241,0.0321L0.1464,0.0339L0.1703,0.0355L0.1956,0.0369L0.2222,0.0382L0.25,0.0392L0.2789,0.0402L0.3087,0.0409L0.3393,0.0415L0.3706,0.042L0.4024,0.0422L0.4347,0.0422L0.4673,0.0418L0.5,0.0412L0.5327,0.0402L0.5653,0.0388L0.5975,0.0367L0.6294,0.0338L0.6607,0.0301L0.6913,0.0256L0.7211,0.0209L0.75,0.0162L0.7778,0.0119L0.8044,0.0081L0.8297,0.0048L0.8536,0.0022L0.8759,0.0001L0.8967,-0.0013L0.9157,-0.0023L0.933,-0.0028L0.9484,-0.0029L0.9619,-0.0027L0.9735,-0.0023L0.983,-0.0018L0.9904,-0.0012L0.9957,-0.0007L0.9989,-0.0003L1,-0"
    />
</svg>
