
<svg 
  class="airfoil-ah83150q"
  fill="none"
  stroke="black" 
  stroke-width="1"
  style="overflow:visible"
  viewBox="0, -0.1163, 1, 0.15020001"
  xmlns="http://www.w3.org/2000/svg">
    <title>AH 83-150 Q</title>
    <path 
      vector-effect="non-scaling-stroke"
      d="M1,-0L0.9989,-0.0003L0.9957,-0.0006L0.9904,-0.0014L0.983,-0.0025L0.9735,-0.0041L0.9619,-0.0062L0.9484,-0.0087L0.933,-0.0117L0.9157,-0.0153L0.8967,-0.0193L0.8759,-0.0239L0.8536,-0.029L0.8297,-0.0346L0.8044,-0.0407L0.7778,-0.0473L0.75,-0.0543L0.7211,-0.0618L0.6913,-0.0695L0.6607,-0.0773L0.6294,-0.0852L0.5975,-0.0926L0.5653,-0.0993L0.5327,-0.105L0.5,-0.1095L0.4673,-0.1128L0.4347,-0.115L0.4024,-0.1162L0.3706,-0.1163L0.3393,-0.1156L0.3087,-0.114L0.2789,-0.1116L0.25,-0.1084L0.2222,-0.1044L0.1956,-0.0997L0.1703,-0.0944L0.1464,-0.0885L0.1241,-0.0821L0.1033,-0.0753L0.0843,-0.0682L0.067,-0.0607L0.0516,-0.0529L0.0381,-0.0449L0.0265,-0.0368L0.017,-0.029L0.0096,-0.0212L0.0043,-0.0133L0.0011,-0.0058L0,-0L0.0011,0.0039L0.0043,0.0064L0.0096,0.0086L0.017,0.0111L0.0265,0.0134L0.0381,0.0157L0.0516,0.0179L0.067,0.0199L0.0843,0.0218L0.1033,0.0236L0.1241,0.0252L0.1464,0.0267L0.1703,0.0281L0.1956,0.0293L0.2222,0.0304L0.25,0.0313L0.2789,0.0322L0.3087,0.0328L0.3393,0.0333L0.3706,0.0337L0.4024,0.0339L0.4347,0.0339L0.4673,0.0339L0.5,0.0336L0.5327,0.0331L0.5653,0.0325L0.5975,0.0316L0.6294,0.0305L0.6607,0.0289L0.6913,0.0269L0.7211,0.0243L0.75,0.0211L0.7778,0.0172L0.8044,0.0129L0.8297,0.0087L0.8536,0.005L0.8759,0.0022L0.8967,0.0003L0.9157,-0.0009L0.933,-0.0014L0.9484,-0.0015L0.9619,-0.0014L0.9735,-0.0011L0.983,-0.0007L0.9904,-0.0004L0.9957,-0.0003L0.9989,-0.0002L1,-0"
    />
</svg>
