
<svg 
  class="airfoil-ah83159"
  fill="none"
  stroke="black" 
  stroke-width="1"
  style="overflow:visible"
  viewBox="0, -0.1182, 1, 0.1595"
  xmlns="http://www.w3.org/2000/svg">
    <title>AH 83-159</title>
    <path 
      vector-effect="non-scaling-stroke"
      d="M1,-0L0.9989,-0.0003L0.9957,-0.0012L0.9904,-0.0026L0.983,-0.0043L0.9735,-0.0062L0.9619,-0.0084L0.9484,-0.011L0.933,-0.0141L0.9157,-0.018L0.8967,-0.0227L0.8759,-0.0281L0.8536,-0.0343L0.8297,-0.0411L0.8044,-0.0484L0.7778,-0.0562L0.75,-0.0642L0.7211,-0.0724L0.6913,-0.0804L0.6607,-0.0882L0.6294,-0.0955L0.5975,-0.102L0.5653,-0.1075L0.5327,-0.1119L0.5,-0.1151L0.4673,-0.1171L0.4347,-0.1182L0.4024,-0.1182L0.3706,-0.1172L0.3393,-0.1155L0.3087,-0.1129L0.2789,-0.1096L0.25,-0.1056L0.2222,-0.1009L0.1956,-0.0956L0.1703,-0.0897L0.1464,-0.0833L0.1241,-0.0765L0.1033,-0.0693L0.0843,-0.0619L0.067,-0.0543L0.0516,-0.0465L0.0381,-0.0388L0.0265,-0.0312L0.017,-0.0239L0.0096,-0.0169L0.0043,-0.0104L0.0011,-0.0046L0,-0L0.0011,0.0036L0.0043,0.0067L0.0096,0.0097L0.017,0.0127L0.0265,0.0155L0.0381,0.0182L0.0516,0.0209L0.067,0.0234L0.0843,0.0257L0.1033,0.028L0.1241,0.03L0.1464,0.032L0.1703,0.0337L0.1956,0.0353L0.2222,0.0367L0.25,0.038L0.2789,0.039L0.3087,0.0399L0.3393,0.0406L0.3706,0.041L0.4024,0.0413L0.4347,0.0413L0.4673,0.041L0.5,0.0406L0.5327,0.0399L0.5653,0.0388L0.5975,0.0375L0.6294,0.0358L0.6607,0.0337L0.6913,0.0311L0.7211,0.0279L0.75,0.0242L0.7778,0.0198L0.8044,0.0148L0.8297,0.0098L0.8536,0.0053L0.8759,0.002L0.8967,-0.0003L0.9157,-0.0018L0.933,-0.0024L0.9484,-0.0025L0.9619,-0.0022L0.9735,-0.0016L0.983,-0.001L0.9904,-0.0005L0.9957,-0.0002L0.9989,-0L1,-0"
    />
</svg>
