
<svg 
  class="airfoil-ah85l120"
  fill="none"
  stroke="black" 
  stroke-width="1"
  style="overflow:visible"
  viewBox="0, -0.0606, 1, 0.1212"
  xmlns="http://www.w3.org/2000/svg">
    <title>AH 85-L-120/17</title>
    <path 
      vector-effect="non-scaling-stroke"
      d="M1,-0L0.9989,-0.0008L0.9957,-0.0011L0.9904,-0.0017L0.983,-0.0023L0.9735,-0.0031L0.9619,-0.0042L0.9484,-0.0056L0.933,-0.0075L0.9157,-0.0098L0.8967,-0.0126L0.8759,-0.016L0.8536,-0.02L0.8297,-0.0246L0.8044,-0.0294L0.7778,-0.0343L0.75,-0.039L0.7211,-0.0433L0.6913,-0.0471L0.6607,-0.0503L0.6294,-0.0531L0.5975,-0.0554L0.5653,-0.0573L0.5327,-0.0587L0.5,-0.0597L0.4673,-0.0604L0.4347,-0.0606L0.4024,-0.0603L0.3706,-0.0597L0.3393,-0.0587L0.3087,-0.0574L0.2789,-0.0557L0.25,-0.0538L0.2222,-0.0516L0.1956,-0.0491L0.1703,-0.0464L0.1464,-0.0434L0.1241,-0.0403L0.1033,-0.0369L0.0843,-0.0333L0.067,-0.0297L0.0516,-0.0258L0.0381,-0.022L0.0265,-0.0181L0.017,-0.0143L0.0096,-0.0106L0.0043,-0.0071L0.0011,-0.0035L0,-0L0.0011,0.0035L0.0043,0.0071L0.0096,0.0106L0.017,0.0143L0.0265,0.0181L0.0381,0.022L0.0516,0.0258L0.067,0.0297L0.0843,0.0333L0.1033,0.0369L0.1241,0.0403L0.1464,0.0434L0.1703,0.0464L0.1956,0.0491L0.2222,0.0516L0.25,0.0538L0.2789,0.0557L0.3087,0.0574L0.3393,0.0587L0.3706,0.0597L0.4024,0.0603L0.4347,0.0606L0.4673,0.0604L0.5,0.0597L0.5327,0.0587L0.5653,0.0573L0.5975,0.0554L0.6294,0.0531L0.6607,0.0503L0.6913,0.0471L0.7211,0.0433L0.75,0.039L0.7778,0.0343L0.8044,0.0294L0.8297,0.0246L0.8536,0.02L0.8759,0.016L0.8967,0.0126L0.9157,0.0098L0.933,0.0075L0.9484,0.0056L0.9619,0.0042L0.9735,0.0031L0.983,0.0023L0.9904,0.0017L0.9957,0.0011L0.9989,0.0008L1,-0"
    />
</svg>
