
<svg 
  class="airfoil-ah88k136"
  fill="none"
  stroke="black" 
  stroke-width="1"
  style="overflow:visible"
  viewBox="0.0008, -0.0986, 0.99979997, 0.1359"
  xmlns="http://www.w3.org/2000/svg">
    <title>AH 88-K-136/16</title>
    <path 
      vector-effect="non-scaling-stroke"
      d="M1.0006,0.0001L0.9994,-0.0002L0.9975,-0.0007L0.9942,-0.0015L0.9894,-0.0026L0.9827,-0.0039L0.974,-0.0053L0.9632,-0.0069L0.9502,-0.0086L0.935,-0.0102L0.9177,-0.012L0.8989,-0.0139L0.8791,-0.0161L0.8593,-0.0188L0.8428,-0.0203L0.8251,-0.0269L0.81,-0.0318L0.7954,-0.0371L0.7805,-0.0428L0.7647,-0.0486L0.7475,-0.0545L0.7285,-0.0604L0.7076,-0.0663L0.6845,-0.0721L0.659,-0.0776L0.631,-0.0828L0.6001,-0.0874L0.5666,-0.0914L0.5306,-0.0945L0.4928,-0.0968L0.4538,-0.0982L0.4143,-0.0986L0.3751,-0.098L0.3368,-0.0964L0.3002,-0.094L0.2658,-0.0908L0.2338,-0.0869L0.2043,-0.0824L0.1774,-0.0776L0.1529,-0.0724L0.131,-0.067L0.1113,-0.0615L0.0938,-0.056L0.0783,-0.0506L0.0647,-0.0453L0.0529,-0.0401L0.0425,-0.0351L0.0336,-0.0304L0.0259,-0.026L0.0194,-0.0218L0.0139,-0.018L0.0096,-0.0144L0.0062,-0.0112L0.0038,-0.0084L0.0022,-0.0059L0.0013,-0.0038L0.0009,-0.0022L0.0008,-0.0009L0.0008,-0.0001L0.0009,0.0003L0.0009,0.0004L0.001,0.0007L0.0011,0.0014L0.0015,0.0023L0.0021,0.0035L0.0033,0.005L0.0051,0.0068L0.0079,0.0089L0.012,0.0111L0.0177,0.0135L0.0255,0.0159L0.0358,0.0183L0.0486,0.0205L0.064,0.0226L0.0819,0.0244L0.1018,0.026L0.1235,0.0274L0.1466,0.0286L0.1707,0.0297L0.1957,0.0308L0.2214,0.0318L0.2479,0.0327L0.2751,0.0336L0.3029,0.0345L0.3312,0.0353L0.3601,0.0359L0.3893,0.0365L0.4189,0.0369L0.4487,0.0372L0.4787,0.0373L0.5087,0.0373L0.5386,0.0372L0.5684,0.0369L0.5979,0.0365L0.627,0.036L0.6557,0.0353L0.6838,0.0344L0.7112,0.0334L0.7378,0.0323L0.7635,0.031L0.7881,0.0294L0.8113,0.0277L0.8329,0.0258L0.8529,0.0236L0.8711,0.0213L0.8876,0.0189L0.9026,0.0164L0.9162,0.0139L0.9288,0.0116L0.9403,0.0095L0.951,0.0076L0.9608,0.0059L0.9698,0.0044L0.978,0.0033L0.9853,0.0024L0.9914,0.0017L0.9958,0.001L0.9986,0.0005L1.0001,0.0002L1.0006,0.0001"
    />
</svg>
