
<svg 
  class="airfoil-ah88k130"
  fill="none"
  stroke="black" 
  stroke-width="1"
  style="overflow:visible"
  viewBox="0, -0.1043, 1, 0.1305"
  xmlns="http://www.w3.org/2000/svg">
    <title>AH 88-K-130/20</title>
    <path 
      vector-effect="non-scaling-stroke"
      d="M1,-0L0.9989,-0.0005L0.9957,-0.0017L0.9904,-0.0032L0.983,-0.0052L0.9735,-0.0077L0.9619,-0.0105L0.9484,-0.0139L0.933,-0.0178L0.9157,-0.0222L0.8967,-0.0272L0.8759,-0.0326L0.8536,-0.0386L0.8297,-0.0452L0.8044,-0.0523L0.7778,-0.0598L0.75,-0.0676L0.7211,-0.0753L0.6913,-0.0819L0.6607,-0.0874L0.6294,-0.092L0.5975,-0.096L0.5653,-0.0992L0.5327,-0.1017L0.5,-0.1035L0.4673,-0.1043L0.4347,-0.1041L0.4024,-0.1032L0.3706,-0.1016L0.3393,-0.0993L0.3087,-0.0965L0.2789,-0.093L0.25,-0.0891L0.2222,-0.0847L0.1956,-0.0798L0.1703,-0.0746L0.1464,-0.069L0.1241,-0.0632L0.1033,-0.0571L0.0843,-0.0509L0.067,-0.0446L0.0516,-0.0382L0.0381,-0.0319L0.0265,-0.0256L0.017,-0.0199L0.0096,-0.014L0.0043,-0.0089L0.0011,-0.0044L0,-0L0.0011,0.0025L0.0043,0.005L0.0096,0.0075L0.017,0.0095L0.0265,0.0114L0.0381,0.0134L0.0516,0.0149L0.067,0.0166L0.0843,0.018L0.1033,0.0194L0.1241,0.0206L0.1464,0.0217L0.1703,0.0227L0.1956,0.0236L0.2222,0.0244L0.25,0.025L0.2789,0.0255L0.3087,0.0259L0.3393,0.0261L0.3706,0.0262L0.4024,0.0261L0.4347,0.0259L0.4673,0.0255L0.5,0.0248L0.5327,0.0239L0.5653,0.0226L0.5975,0.0212L0.6294,0.0196L0.6607,0.0178L0.6913,0.0158L0.7211,0.0137L0.75,0.0112L0.7778,0.0079L0.8044,0.0045L0.8297,0.0016L0.8536,-0.0007L0.8759,-0.0025L0.8967,-0.0039L0.9157,-0.0043L0.933,-0.0045L0.9484,-0.0044L0.9619,-0.0039L0.9735,-0.0032L0.983,-0.0025L0.9904,-0.0016L0.9957,-0.001L0.9989,-0.0003L1,-0"
    />
</svg>
