
<svg 
  class="airfoil-ah93w257"
  fill="none"
  stroke="black" 
  stroke-width="1"
  style="overflow:visible"
  viewBox="0, -0.1318, 1, 0.25779998"
  xmlns="http://www.w3.org/2000/svg">
    <title>AH 93-W-257</title>
    <path 
      vector-effect="non-scaling-stroke"
      d="M1,-0.0003L0.9989,-0.0006L0.9957,-0.0016L0.9904,-0.0033L0.983,-0.0053L0.9735,-0.0078L0.9619,-0.0105L0.9484,-0.0135L0.933,-0.0168L0.9157,-0.0205L0.8967,-0.0246L0.8759,-0.029L0.8536,-0.0339L0.8297,-0.0392L0.8044,-0.045L0.7778,-0.0512L0.75,-0.0578L0.7211,-0.0648L0.6913,-0.072L0.6607,-0.0795L0.6294,-0.087L0.5975,-0.0946L0.5653,-0.1021L0.5327,-0.1093L0.5,-0.1159L0.4673,-0.1217L0.4347,-0.1263L0.4024,-0.1296L0.3706,-0.1314L0.3393,-0.1318L0.3087,-0.1308L0.2789,-0.1284L0.25,-0.1249L0.2222,-0.1203L0.1956,-0.1148L0.1703,-0.1085L0.1464,-0.1015L0.1241,-0.0939L0.1033,-0.0857L0.0843,-0.0772L0.067,-0.0684L0.0516,-0.0594L0.0381,-0.0503L0.0265,-0.0413L0.017,-0.0325L0.0096,-0.0241L0.0043,-0.0161L0.0011,-0.0084L0,-0L0.0011,0.0103L0.0043,0.0208L0.0096,0.0312L0.017,0.0412L0.0265,0.0512L0.0381,0.0608L0.0516,0.0698L0.067,0.0785L0.0843,0.0867L0.1033,0.0945L0.1241,0.1018L0.1464,0.1084L0.1703,0.1141L0.1956,0.1187L0.2222,0.1223L0.25,0.1248L0.2789,0.126L0.3087,0.126L0.3393,0.1246L0.3706,0.1219L0.4024,0.118L0.4347,0.1128L0.4673,0.1062L0.5,0.0984L0.5327,0.0895L0.5653,0.0798L0.5975,0.0695L0.6294,0.0591L0.6607,0.0489L0.6913,0.0391L0.7211,0.0302L0.75,0.0223L0.7778,0.0155L0.8044,0.0101L0.8297,0.0059L0.8536,0.003L0.8759,0.0012L0.8967,0.0004L0.9157,0.0003L0.933,0.001L0.9484,0.002L0.9619,0.0034L0.9735,0.0048L0.983,0.006L0.9904,0.007L0.9957,0.0073L0.9989,0.0074L1,0.0074"
    />
</svg>
