
<svg 
  class="airfoil-ah93w145"
  fill="none"
  stroke="black" 
  stroke-width="1"
  style="overflow:visible"
  viewBox="0, -0.1109, 1, 0.1462"
  xmlns="http://www.w3.org/2000/svg">
    <title>AH 93-W-145</title>
    <path 
      vector-effect="non-scaling-stroke"
      d="M1,-0.0003L0.9989,-0.0007L0.9957,-0.0017L0.9904,-0.0033L0.983,-0.0053L0.9735,-0.0077L0.9619,-0.0105L0.9484,-0.0136L0.933,-0.017L0.9157,-0.0206L0.8967,-0.0244L0.8759,-0.0284L0.8536,-0.0327L0.8297,-0.0373L0.8044,-0.0422L0.7778,-0.0475L0.75,-0.0531L0.7211,-0.0588L0.6913,-0.0647L0.6607,-0.0707L0.6294,-0.0768L0.5975,-0.0829L0.5653,-0.0888L0.5327,-0.0945L0.5,-0.0998L0.4673,-0.1043L0.4347,-0.1077L0.4024,-0.11L0.3706,-0.1109L0.3393,-0.1107L0.3087,-0.1092L0.2789,-0.1067L0.25,-0.1032L0.2222,-0.099L0.1956,-0.0941L0.1703,-0.0886L0.1464,-0.0826L0.1241,-0.0762L0.1033,-0.0693L0.0843,-0.0622L0.067,-0.0548L0.0516,-0.0473L0.0381,-0.0397L0.0265,-0.0322L0.017,-0.0248L0.0096,-0.0177L0.0043,-0.0112L0.0011,-0.0053L0,-0L0.0011,0.005L0.0043,0.0096L0.0096,0.0139L0.017,0.0179L0.0265,0.0214L0.0381,0.0244L0.0516,0.027L0.067,0.0292L0.0843,0.031L0.1033,0.0325L0.1241,0.0336L0.1464,0.0344L0.1703,0.0349L0.1956,0.0352L0.2222,0.0353L0.25,0.0353L0.2789,0.0351L0.3087,0.0347L0.3393,0.0342L0.3706,0.0334L0.4024,0.0325L0.4347,0.0314L0.4673,0.0301L0.5,0.0286L0.5327,0.027L0.5653,0.0252L0.5975,0.0234L0.6294,0.0214L0.6607,0.0194L0.6913,0.0173L0.7211,0.0152L0.75,0.013L0.7778,0.0109L0.8044,0.0088L0.8297,0.0069L0.8536,0.0051L0.8759,0.0035L0.8967,0.0022L0.9157,0.0011L0.933,0.0005L0.9484,0.0002L0.9619,0.0001L0.9735,0.0003L0.983,0.0006L0.9904,0.001L0.9957,0.0014L0.9989,0.0016L1,0.0016"
    />
</svg>
