
<svg 
  class="airfoil-ah93w480b"
  fill="none"
  stroke="black" 
  stroke-width="1"
  style="overflow:visible"
  viewBox="0, -0.2728, 1, 0.4785"
  xmlns="http://www.w3.org/2000/svg">
    <title>AH 93-W-480B</title>
    <path 
      vector-effect="non-scaling-stroke"
      d="M1,-0.1099L0.9999,-0.1105L0.997,-0.1252L0.9947,-0.1255L0.9916,-0.1294L0.9876,-0.1342L0.9827,-0.1396L0.9766,-0.1457L0.9691,-0.1523L0.9595,-0.1589L0.9469,-0.1651L0.9315,-0.1709L0.9148,-0.177L0.8968,-0.1834L0.8775,-0.1902L0.8567,-0.1971L0.8346,-0.2041L0.8111,-0.2113L0.7862,-0.2184L0.76,-0.2256L0.7323,-0.2325L0.7034,-0.2393L0.6731,-0.2458L0.6414,-0.2519L0.6085,-0.2575L0.5742,-0.2625L0.5387,-0.2667L0.502,-0.27L0.464,-0.2722L0.425,-0.2728L0.3852,-0.2716L0.3452,-0.2683L0.3055,-0.2627L0.267,-0.2547L0.2304,-0.2444L0.1965,-0.2323L0.1657,-0.2186L0.138,-0.2039L0.1137,-0.1885L0.0926,-0.1727L0.0743,-0.1569L0.0586,-0.1413L0.0452,-0.1259L0.0342,-0.1111L0.0252,-0.0968L0.0181,-0.0833L0.0126,-0.0706L0.0085,-0.0587L0.0055,-0.0479L0.0035,-0.038L0.0022,-0.0291L0.0012,-0.0211L0.0006,-0.014L0,-0.0004L0.0003,0.0083L0.0003,0.0095L0.0005,0.0113L0.0007,0.0141L0.0012,0.0178L0.0018,0.0226L0.0029,0.0283L0.0044,0.035L0.0066,0.0424L0.0097,0.0507L0.0137,0.0598L0.019,0.0696L0.0257,0.0802L0.0342,0.0913L0.0447,0.103L0.0574,0.1151L0.0727,0.1274L0.0907,0.1395L0.1116,0.1513L0.1353,0.1622L0.1614,0.172L0.1895,0.1805L0.2191,0.1876L0.2497,0.1933L0.281,0.1977L0.3128,0.2009L0.3447,0.2032L0.3767,0.2047L0.4087,0.2055L0.4406,0.2057L0.4723,0.2053L0.5037,0.2045L0.5348,0.2033L0.5656,0.2017L0.5958,0.1998L0.6256,0.1977L0.6548,0.1953L0.6833,0.1927L0.7111,0.1901L0.7382,0.1873L0.7644,0.1844L0.7897,0.1816L0.8141,0.1787L0.8374,0.1759L0.8597,0.1732L0.8809,0.1705L0.9009,0.168L0.9197,0.1655L0.9373,0.1634L0.9531,0.1609L0.9656,0.1568L0.9747,0.1518L0.9816,0.1469L0.987,0.1423L0.9912,0.1383L0.9945,0.135L0.9969,0.1321L0.9997,0.1244L1,0.124"
    />
</svg>
