
<svg 
  class="airfoil-ah93156"
  fill="none"
  stroke="black" 
  stroke-width="1"
  style="overflow:visible"
  viewBox="0.0001, -0.1157, 0.9999, 0.1567"
  xmlns="http://www.w3.org/2000/svg">
    <title>AH 93-156</title>
    <path 
      vector-effect="non-scaling-stroke"
      d="M1,0.002L0.9916,-0.0003L0.9791,-0.0032L0.9638,-0.0065L0.9476,-0.01L0.9296,-0.0141L0.9107,-0.0185L0.8918,-0.0232L0.8727,-0.0281L0.8537,-0.0333L0.8346,-0.0386L0.8154,-0.0441L0.7961,-0.0497L0.7768,-0.0553L0.7574,-0.061L0.7382,-0.0665L0.7191,-0.0719L0.7,-0.0771L0.6811,-0.082L0.6623,-0.0867L0.6435,-0.091L0.6248,-0.095L0.606,-0.0986L0.5872,-0.1019L0.5683,-0.1047L0.5494,-0.1073L0.5303,-0.1094L0.5112,-0.1113L0.492,-0.1128L0.4728,-0.1139L0.4535,-0.1148L0.4341,-0.1154L0.4148,-0.1157L0.3954,-0.1157L0.376,-0.1154L0.3567,-0.1148L0.3374,-0.1139L0.3182,-0.1127L0.2991,-0.1112L0.28,-0.1094L0.2611,-0.1071L0.2422,-0.1045L0.2235,-0.1015L0.2048,-0.0982L0.1864,-0.0944L0.1681,-0.0902L0.15,-0.0856L0.1323,-0.0805L0.1149,-0.0749L0.098,-0.0688L0.0815,-0.0622L0.0658,-0.0551L0.051,-0.0474L0.0375,-0.0395L0.0261,-0.0317L0.0172,-0.0245L0.0107,-0.0184L0.0063,-0.0133L0.0033,-0.009L0.0013,-0.0053L0.0002,-0.002L0.0001,0.0011L0.0009,0.0042L0.0027,0.0074L0.0056,0.0104L0.0098,0.0133L0.0156,0.0163L0.0235,0.0193L0.0344,0.0223L0.0485,0.0253L0.0649,0.028L0.0829,0.0302L0.1016,0.0321L0.1208,0.0337L0.1402,0.035L0.1599,0.0362L0.1796,0.0371L0.1995,0.0379L0.2194,0.0386L0.2393,0.0392L0.2593,0.0397L0.2793,0.0401L0.2994,0.0404L0.3194,0.0406L0.3395,0.0408L0.3597,0.0409L0.3798,0.041L0.3999,0.041L0.4201,0.0409L0.4402,0.0408L0.4604,0.0407L0.4805,0.0405L0.5007,0.0403L0.5208,0.04L0.5408,0.0397L0.5609,0.0393L0.5809,0.0388L0.6009,0.0382L0.6209,0.0375L0.6408,0.0367L0.6607,0.0358L0.6805,0.0348L0.7002,0.0336L0.7199,0.0323L0.7394,0.0307L0.7588,0.0289L0.7781,0.0269L0.7971,0.0246L0.816,0.0219L0.835,0.0188L0.8541,0.0154L0.8733,0.0118L0.8921,0.0085L0.9104,0.0057L0.9283,0.0036L0.9457,0.0023L0.9627,0.0017L0.9785,0.0018L0.9913,0.002L1,0.002"
    />
</svg>
