
<svg 
  class="airfoil-ah93w300"
  fill="none"
  stroke="black" 
  stroke-width="1"
  style="overflow:visible"
  viewBox="0, -0.1537, 1, 0.29979998"
  xmlns="http://www.w3.org/2000/svg">
    <title>AH 93-W-300</title>
    <path 
      vector-effect="non-scaling-stroke"
      d="M1,-0.0004L0.9989,-0.0008L0.9957,-0.0022L0.9904,-0.0045L0.983,-0.0071L0.9735,-0.0103L0.9619,-0.0139L0.9484,-0.0179L0.933,-0.0225L0.9157,-0.0275L0.8967,-0.033L0.8759,-0.039L0.8536,-0.0454L0.8297,-0.0521L0.8044,-0.0592L0.7778,-0.0666L0.75,-0.0742L0.7211,-0.082L0.6913,-0.0899L0.6607,-0.0977L0.6294,-0.1054L0.5975,-0.1129L0.5653,-0.1201L0.5327,-0.1268L0.5,-0.1329L0.4673,-0.1385L0.4347,-0.1433L0.4024,-0.1473L0.3706,-0.1505L0.3393,-0.1526L0.3087,-0.1537L0.2789,-0.1537L0.25,-0.1525L0.2222,-0.1502L0.1956,-0.1467L0.1703,-0.1422L0.1464,-0.1366L0.1241,-0.1301L0.1033,-0.1226L0.0843,-0.1143L0.067,-0.1051L0.0516,-0.0952L0.0381,-0.0847L0.0265,-0.0734L0.017,-0.0609L0.0096,-0.0469L0.0043,-0.0313L0.0011,-0.0152L0,-0L0.0011,0.0159L0.0043,0.0303L0.0096,0.0437L0.017,0.056L0.0265,0.0673L0.0381,0.0777L0.0516,0.0876L0.067,0.0971L0.0843,0.106L0.1033,0.1144L0.1241,0.122L0.1464,0.1288L0.1703,0.1347L0.1956,0.1394L0.2222,0.1429L0.25,0.1452L0.2789,0.1461L0.3087,0.1458L0.3393,0.1441L0.3706,0.141L0.4024,0.1367L0.4347,0.1312L0.4673,0.1247L0.5,0.1172L0.5327,0.1092L0.5653,0.1009L0.5975,0.0923L0.6294,0.0837L0.6607,0.0752L0.6913,0.067L0.7211,0.0592L0.75,0.0519L0.7778,0.0451L0.8044,0.0389L0.8297,0.0333L0.8536,0.0283L0.8759,0.0241L0.8967,0.0205L0.9157,0.0177L0.933,0.0155L0.9484,0.014L0.9619,0.0131L0.9735,0.0127L0.983,0.0128L0.9904,0.013L0.9957,0.0134L0.9989,0.0136L1,0.0137"
    />
</svg>
