
<svg 
  class="airfoil-ah93k130"
  fill="none"
  stroke="black" 
  stroke-width="1"
  style="overflow:visible"
  viewBox="0, -0.1011, 1, 0.13069999"
  xmlns="http://www.w3.org/2000/svg">
    <title>AH 93-K-130/15</title>
    <path 
      vector-effect="non-scaling-stroke"
      d="M1,-0.0006L0.9914,-0.001L0.979,-0.0019L0.9632,-0.0036L0.9453,-0.0058L0.9266,-0.0084L0.9078,-0.0113L0.8892,-0.0143L0.8714,-0.0177L0.8527,-0.0219L0.8362,-0.0262L0.8186,-0.0318L0.8003,-0.0382L0.7815,-0.0448L0.7628,-0.0513L0.7445,-0.0575L0.7263,-0.0631L0.7082,-0.0683L0.6901,-0.0728L0.6717,-0.077L0.6531,-0.0806L0.6342,-0.0839L0.6151,-0.0869L0.5958,-0.0896L0.5765,-0.092L0.5571,-0.0941L0.5376,-0.0959L0.5181,-0.0974L0.4986,-0.0987L0.4791,-0.0997L0.4595,-0.1005L0.44,-0.1009L0.4204,-0.1011L0.4009,-0.101L0.3813,-0.1006L0.3618,-0.1L0.3423,-0.0991L0.3228,-0.0978L0.3033,-0.0964L0.284,-0.0946L0.2647,-0.0925L0.2454,-0.0901L0.2263,-0.0873L0.2072,-0.0843L0.1883,-0.0808L0.1695,-0.0771L0.1509,-0.0729L0.1326,-0.0684L0.1145,-0.0635L0.0968,-0.058L0.0796,-0.0522L0.0631,-0.0459L0.0478,-0.0391L0.0342,-0.0323L0.0232,-0.0258L0.015,-0.02L0.0092,-0.0151L0.0052,-0.0109L0.0025,-0.0072L0.0008,-0.0037L0,-0.0005L0,0.0003L0.0008,0.0033L0.0028,0.0063L0.0062,0.009L0.011,0.0115L0.0177,0.0137L0.0272,0.0158L0.0404,0.0179L0.0567,0.0197L0.0747,0.0213L0.0935,0.0226L0.1126,0.0237L0.1319,0.0246L0.1513,0.0254L0.1707,0.026L0.1902,0.0266L0.2097,0.027L0.2292,0.0275L0.2488,0.0278L0.2684,0.0281L0.288,0.0284L0.3076,0.0286L0.3273,0.0288L0.3469,0.029L0.3665,0.0292L0.3861,0.0293L0.4058,0.0294L0.4254,0.0295L0.4451,0.0295L0.4647,0.0295L0.4843,0.0296L0.5039,0.0295L0.5235,0.0295L0.5431,0.0293L0.5627,0.0292L0.5823,0.029L0.6019,0.0288L0.6215,0.0285L0.641,0.0281L0.6606,0.0277L0.6801,0.0273L0.6997,0.0268L0.7192,0.0262L0.7387,0.0255L0.7582,0.0248L0.7776,0.0239L0.7971,0.023L0.8166,0.022L0.8359,0.0209L0.8552,0.0197L0.8744,0.0182L0.8935,0.0166L0.9122,0.0148L0.9306,0.0126L0.9482,0.0099L0.9651,0.0068L0.98,0.0039L0.9916,0.0015L1,0.0001"
    />
</svg>
