
<svg 
  class="airfoil-ah93k132"
  fill="none"
  stroke="black" 
  stroke-width="1"
  style="overflow:visible"
  viewBox="0, -0.1014, 1, 0.1324"
  xmlns="http://www.w3.org/2000/svg">
    <title>AH 93-K-132/15</title>
    <path 
      vector-effect="non-scaling-stroke"
      d="M1,-0.0007L0.979,-0.0019L0.9631,-0.0035L0.9452,-0.0057L0.9265,-0.0083L0.9075,-0.0111L0.8886,-0.0141L0.8707,-0.0171L0.8539,-0.0208L0.8373,-0.0257L0.82,-0.0317L0.8018,-0.0382L0.7835,-0.0448L0.7653,-0.0513L0.7475,-0.0575L0.7298,-0.0632L0.7122,-0.0683L0.6943,-0.0728L0.6763,-0.077L0.658,-0.0807L0.6395,-0.084L0.6209,-0.087L0.6021,-0.0896L0.5833,-0.092L0.5644,-0.0941L0.5454,-0.0959L0.5264,-0.0974L0.5073,-0.0987L0.4882,-0.0997L0.4691,-0.1005L0.45,-0.101L0.4309,-0.1013L0.4117,-0.1014L0.3926,-0.1011L0.3735,-0.1007L0.3545,-0.0999L0.3354,-0.0989L0.3164,-0.0977L0.2974,-0.0961L0.2785,-0.0943L0.2596,-0.0922L0.2407,-0.0899L0.222,-0.0872L0.2034,-0.0841L0.1849,-0.0808L0.1665,-0.0771L0.1482,-0.073L0.1302,-0.0685L0.1125,-0.0636L0.0951,-0.0582L0.0781,-0.0523L0.0618,-0.046L0.0466,-0.0392L0.0331,-0.0322L0.0221,-0.0255L0.014,-0.0195L0.0084,-0.0144L0.0046,-0.0101L0.002,-0.0064L0.0005,-0.003L0,-0L0.0007,0.0029L0.0029,0.0054L0.0065,0.0076L0.0114,0.0097L0.0182,0.0119L0.0279,0.0143L0.0413,0.0168L0.0578,0.0192L0.0758,0.0213L0.0945,0.023L0.1136,0.0244L0.1327,0.0257L0.1519,0.0266L0.1712,0.0275L0.1906,0.0281L0.2101,0.0287L0.2296,0.0291L0.2492,0.0295L0.2689,0.0299L0.2885,0.0302L0.3081,0.0304L0.3278,0.0306L0.3475,0.0307L0.3671,0.0309L0.3867,0.0309L0.4064,0.0309L0.4261,0.0309L0.4458,0.0309L0.4655,0.031L0.4852,0.031L0.5048,0.031L0.5245,0.0309L0.5564,0.0307L0.5764,0.0305L0.5963,0.0302L0.6162,0.0299L0.6362,0.0295L0.6561,0.0291L0.6759,0.0286L0.6958,0.028L0.7157,0.0273L0.7355,0.0265L0.7552,0.0256L0.7749,0.0245L0.7945,0.0234L0.814,0.0221L0.8333,0.0208L0.8524,0.0193L0.8701,0.0179L0.8858,0.0165L0.9002,0.015L0.914,0.0135L0.9275,0.0118L0.9417,0.0096L0.9564,0.0069L0.9694,0.004L0.9807,0.0019L0.9915,0.0005L1,0.0001"
    />
</svg>
