
<svg 
  class="airfoil-ah93k131"
  fill="none"
  stroke="black" 
  stroke-width="1"
  style="overflow:visible"
  viewBox="0, -0.1015, 1, 0.1311"
  xmlns="http://www.w3.org/2000/svg">
    <title>AH 93-K-131/15</title>
    <path 
      vector-effect="non-scaling-stroke"
      d="M1,-0.0006L0.9915,-0.0009L0.9793,-0.0017L0.9636,-0.0033L0.9456,-0.0054L0.9268,-0.0079L0.9076,-0.0106L0.8887,-0.0134L0.8705,-0.0161L0.8549,-0.0188L0.84,-0.0234L0.8231,-0.0294L0.8059,-0.035L0.7879,-0.0409L0.7696,-0.0469L0.7512,-0.0526L0.7328,-0.0581L0.7144,-0.0634L0.6961,-0.0683L0.6777,-0.0728L0.6593,-0.077L0.6408,-0.0808L0.6222,-0.0842L0.6035,-0.0873L0.5847,-0.0901L0.5659,-0.0925L0.5469,-0.0946L0.5279,-0.0965L0.5088,-0.098L0.4898,-0.0993L0.4706,-0.1002L0.4515,-0.101L0.4324,-0.1014L0.4132,-0.1015L0.3941,-0.1014L0.3749,-0.1011L0.3558,-0.1004L0.3367,-0.0994L0.3176,-0.0982L0.2986,-0.0967L0.2795,-0.0949L0.2606,-0.0929L0.2417,-0.0905L0.2229,-0.0878L0.2042,-0.0847L0.1856,-0.0814L0.1672,-0.0776L0.1489,-0.0735L0.1308,-0.069L0.113,-0.064L0.0956,-0.0586L0.0785,-0.0526L0.0621,-0.0462L0.0469,-0.0394L0.0333,-0.0323L0.0223,-0.0255L0.0141,-0.0195L0.0085,-0.0143L0.0046,-0.01L0.0021,-0.0063L0.0005,-0.003L0,0.0001L0.0006,0.003L0.0025,0.006L0.0056,0.0086L0.01,0.0111L0.0162,0.0133L0.0249,0.0154L0.0371,0.0174L0.0528,0.0193L0.0706,0.021L0.0892,0.0224L0.1084,0.0235L0.1277,0.0244L0.1472,0.0252L0.1668,0.0259L0.1864,0.0265L0.206,0.027L0.2257,0.0274L0.2454,0.0278L0.2651,0.0281L0.2848,0.0283L0.3046,0.0286L0.3243,0.0288L0.3441,0.029L0.3639,0.0291L0.3836,0.0293L0.4034,0.0294L0.4232,0.0294L0.443,0.0295L0.4627,0.0295L0.4825,0.0296L0.5022,0.0295L0.522,0.0295L0.5417,0.0294L0.5614,0.0292L0.5811,0.029L0.6009,0.0288L0.6206,0.0285L0.6403,0.0282L0.66,0.0278L0.6796,0.0273L0.6993,0.0268L0.7189,0.0262L0.7385,0.0255L0.7581,0.0248L0.7778,0.0239L0.7973,0.023L0.8169,0.022L0.8364,0.0209L0.8558,0.0196L0.8751,0.0182L0.8942,0.0166L0.9131,0.0147L0.9314,0.0125L0.9492,0.0098L0.9662,0.0066L0.981,0.0037L0.9919,0.0014L1,0.0001"
    />
</svg>
