
<svg 
  class="airfoil-ah93157"
  fill="none"
  stroke="black" 
  stroke-width="1"
  style="overflow:visible"
  viewBox="0.0001, -0.1156, 0.9999, 0.1568"
  xmlns="http://www.w3.org/2000/svg">
    <title>AH 93-157</title>
    <path 
      vector-effect="non-scaling-stroke"
      d="M1,0.0022L0.9912,-0.0002L0.9786,-0.0033L0.9618,-0.0071L0.943,-0.0115L0.9237,-0.0161L0.9043,-0.0209L0.8849,-0.0258L0.8654,-0.0309L0.8459,-0.0361L0.8264,-0.0413L0.8069,-0.0467L0.7872,-0.0522L0.7676,-0.0577L0.748,-0.0632L0.7286,-0.0686L0.7093,-0.0737L0.6902,-0.0787L0.6713,-0.0834L0.6524,-0.0877L0.6334,-0.0918L0.6145,-0.0955L0.5956,-0.0989L0.5765,-0.102L0.5575,-0.1048L0.5383,-0.1072L0.5191,-0.1094L0.4999,-0.1112L0.4806,-0.1127L0.4613,-0.1139L0.4419,-0.1148L0.4226,-0.1154L0.4032,-0.1156L0.3839,-0.1156L0.3645,-0.1152L0.3452,-0.1146L0.326,-0.1136L0.3068,-0.1123L0.2877,-0.1106L0.2686,-0.1086L0.2497,-0.1062L0.231,-0.1035L0.2124,-0.1003L0.1939,-0.0968L0.1757,-0.0928L0.1578,-0.0884L0.1401,-0.0836L0.1228,-0.0782L0.1059,-0.0724L0.0896,-0.0661L0.0739,-0.0593L0.0589,-0.0521L0.045,-0.0444L0.0326,-0.0366L0.0222,-0.0291L0.0144,-0.0224L0.0089,-0.0169L0.0051,-0.0122L0.0026,-0.0082L0.0009,-0.0047L0.0001,-0.0015L0.0001,0.0016L0.0009,0.0046L0.0027,0.0077L0.0056,0.0106L0.0095,0.0134L0.0149,0.0162L0.0222,0.0191L0.032,0.022L0.0449,0.0249L0.0604,0.0275L0.0778,0.0299L0.0962,0.0318L0.1152,0.0335L0.1346,0.0349L0.1543,0.0361L0.1741,0.0371L0.1941,0.038L0.2141,0.0387L0.2343,0.0393L0.2544,0.0398L0.2746,0.0402L0.2949,0.0406L0.3151,0.0408L0.3354,0.041L0.3558,0.0411L0.3761,0.0412L0.3965,0.0412L0.4169,0.0412L0.4372,0.0411L0.4576,0.041L0.478,0.0408L0.4983,0.0406L0.5187,0.0403L0.539,0.04L0.5592,0.0395L0.5795,0.0391L0.5997,0.0385L0.6198,0.0378L0.6399,0.037L0.6599,0.0361L0.6799,0.0351L0.6997,0.0339L0.7195,0.0325L0.7392,0.031L0.7587,0.0292L0.7779,0.0271L0.797,0.0248L0.8159,0.0221L0.8349,0.0191L0.8541,0.0156L0.8735,0.012L0.8923,0.0087L0.9105,0.0059L0.9281,0.0038L0.9454,0.0025L0.9623,0.002L0.9782,0.0021L0.9911,0.0022L1,0.0022"
    />
</svg>
