
<svg 
  class="airfoil-ah93w215"
  fill="none"
  stroke="black" 
  stroke-width="1"
  style="overflow:visible"
  viewBox="0, -0.1361, 1, 0.2126"
  xmlns="http://www.w3.org/2000/svg">
    <title>AH 93-W-215</title>
    <path 
      vector-effect="non-scaling-stroke"
      d="M1,0.0009L0.9989,0.0003L0.9957,-0.0014L0.9904,-0.0039L0.983,-0.0071L0.9735,-0.0104L0.9619,-0.0138L0.9484,-0.0173L0.933,-0.0212L0.9157,-0.0253L0.8967,-0.0297L0.8759,-0.0345L0.8536,-0.0397L0.8297,-0.0452L0.8044,-0.0511L0.7778,-0.0574L0.75,-0.064L0.7211,-0.0711L0.6913,-0.0785L0.6607,-0.0861L0.6294,-0.094L0.5975,-0.1018L0.5653,-0.1094L0.5327,-0.1164L0.5,-0.1226L0.4673,-0.1278L0.4347,-0.1317L0.4024,-0.1344L0.3706,-0.1359L0.3393,-0.1361L0.3087,-0.1352L0.2789,-0.1331L0.25,-0.13L0.2222,-0.1258L0.1956,-0.1207L0.1703,-0.1146L0.1464,-0.1077L0.1241,-0.1001L0.1033,-0.0918L0.0843,-0.083L0.067,-0.0737L0.0516,-0.0641L0.0381,-0.0543L0.0265,-0.0445L0.017,-0.0347L0.0096,-0.0252L0.0043,-0.0162L0.0011,-0.0078L0,-0L0.0011,0.0078L0.0043,0.0156L0.0096,0.0231L0.017,0.0303L0.0265,0.0371L0.0381,0.0433L0.0516,0.0489L0.067,0.054L0.0843,0.0585L0.1033,0.0625L0.1241,0.0659L0.1464,0.0688L0.1703,0.0712L0.1956,0.0732L0.2222,0.0747L0.25,0.0758L0.2789,0.0764L0.3087,0.0765L0.3393,0.0761L0.3706,0.075L0.4024,0.0734L0.4347,0.0712L0.4673,0.0684L0.5,0.0651L0.5327,0.0614L0.5653,0.0573L0.5975,0.0531L0.6294,0.0487L0.6607,0.0442L0.6913,0.0397L0.7211,0.0352L0.75,0.0307L0.7778,0.0263L0.8044,0.0222L0.8297,0.0182L0.8536,0.0147L0.8759,0.0115L0.8967,0.0087L0.9157,0.0065L0.933,0.0047L0.9484,0.0034L0.9619,0.0027L0.9735,0.0023L0.983,0.002L0.9904,0.0018L0.9957,0.0014L0.9989,0.001L1,0.0009"
    />
</svg>
