
<svg 
  class="airfoil-ah93w174"
  fill="none"
  stroke="black" 
  stroke-width="1"
  style="overflow:visible"
  viewBox="0, -0.1259, 1, 0.1762"
  xmlns="http://www.w3.org/2000/svg">
    <title>AH 93-W-174</title>
    <path 
      vector-effect="non-scaling-stroke"
      d="M1,-0L0.9989,-0.0003L0.9957,-0.0013L0.9904,-0.0029L0.983,-0.0049L0.9735,-0.0073L0.9619,-0.0099L0.9484,-0.0128L0.933,-0.016L0.9157,-0.0195L0.8967,-0.0233L0.8759,-0.0276L0.8536,-0.0323L0.8297,-0.0374L0.8044,-0.0429L0.7778,-0.0489L0.75,-0.0552L0.7211,-0.0619L0.6913,-0.0689L0.6607,-0.076L0.6294,-0.0833L0.5975,-0.0906L0.5653,-0.0978L0.5327,-0.1047L0.5,-0.1111L0.4673,-0.1167L0.4347,-0.121L0.4024,-0.1241L0.3706,-0.1257L0.3393,-0.1259L0.3087,-0.1247L0.2789,-0.1223L0.25,-0.1186L0.2222,-0.114L0.1956,-0.1085L0.1703,-0.1022L0.1464,-0.0953L0.1241,-0.0878L0.1033,-0.0798L0.0843,-0.0715L0.067,-0.063L0.0516,-0.0543L0.0381,-0.0455L0.0265,-0.0369L0.017,-0.0285L0.0096,-0.0204L0.0043,-0.013L0.0011,-0.0062L0,-0L0.0011,0.006L0.0043,0.012L0.0096,0.0178L0.017,0.0232L0.0265,0.0281L0.0381,0.0325L0.0516,0.0363L0.067,0.0397L0.0843,0.0425L0.1033,0.0449L0.1241,0.0468L0.1464,0.0482L0.1703,0.0493L0.1956,0.05L0.2222,0.0503L0.25,0.0503L0.2789,0.0499L0.3087,0.0493L0.3393,0.0484L0.3706,0.0471L0.4024,0.0456L0.4347,0.0438L0.4673,0.0416L0.5,0.0392L0.5327,0.0366L0.5653,0.0336L0.5975,0.0305L0.6294,0.0273L0.6607,0.0239L0.6913,0.0205L0.7211,0.017L0.75,0.0137L0.7778,0.0105L0.8044,0.0076L0.8297,0.005L0.8536,0.0027L0.8759,0.0008L0.8967,-0.0006L0.9157,-0.0016L0.933,-0.0022L0.9484,-0.0024L0.9619,-0.0022L0.9735,-0.0018L0.983,-0.0013L0.9904,-0.0008L0.9957,-0.0004L0.9989,-0.0001L1,-0"
    />
</svg>
