
<svg 
  class="airfoil-ah94145"
  fill="none"
  stroke="black" 
  stroke-width="1"
  style="overflow:visible"
  viewBox="0, -0.1274, 1.0002, 0.1514"
  xmlns="http://www.w3.org/2000/svg">
    <title>AH 94-145</title>
    <path 
      vector-effect="non-scaling-stroke"
      d="M1.0002,0.0016L0.9904,-0.0007L0.9761,-0.0043L0.9571,-0.0092L0.9362,-0.0148L0.9147,-0.0205L0.8931,-0.0264L0.8715,-0.0323L0.85,-0.0382L0.8284,-0.0442L0.8068,-0.0501L0.7852,-0.0561L0.7637,-0.0621L0.7421,-0.068L0.7206,-0.074L0.6992,-0.0799L0.6781,-0.0856L0.6573,-0.0912L0.637,-0.0965L0.6171,-0.1015L0.5976,-0.1061L0.5785,-0.1102L0.5597,-0.1138L0.5409,-0.117L0.5221,-0.1198L0.5032,-0.1221L0.4843,-0.124L0.4652,-0.1255L0.4462,-0.1266L0.427,-0.1272L0.4079,-0.1274L0.3887,-0.1272L0.3694,-0.1266L0.35,-0.1255L0.3306,-0.1241L0.3111,-0.1223L0.2917,-0.1201L0.2723,-0.1175L0.2531,-0.1146L0.2339,-0.1113L0.215,-0.1076L0.1962,-0.1035L0.1777,-0.0991L0.1596,-0.0943L0.1418,-0.0892L0.1244,-0.0837L0.1077,-0.0778L0.0916,-0.0716L0.0764,-0.0651L0.0622,-0.0583L0.0493,-0.0514L0.038,-0.0446L0.0285,-0.038L0.0208,-0.032L0.0149,-0.0266L0.0104,-0.0218L0.0071,-0.0176L0.0046,-0.0138L0.0028,-0.0105L0.0015,-0.0074L0.0006,-0.0046L0.0001,-0.002L0,0.0004L0.0003,0.0028L0.001,0.0052L0.0022,0.0075L0.004,0.0096L0.0063,0.0115L0.0092,0.0132L0.0127,0.0149L0.0171,0.0164L0.0225,0.018L0.0296,0.0195L0.0388,0.021L0.0509,0.0222L0.0665,0.0231L0.0857,0.0236L0.1069,0.0239L0.1287,0.024L0.1509,0.0239L0.1734,0.0237L0.196,0.0234L0.2185,0.023L0.2411,0.0225L0.2636,0.022L0.286,0.0214L0.3084,0.0209L0.3308,0.0202L0.3532,0.0196L0.3755,0.0189L0.3978,0.0182L0.4202,0.0175L0.4425,0.0167L0.4648,0.0159L0.4871,0.0151L0.5094,0.0143L0.5318,0.0134L0.5541,0.0125L0.5764,0.0116L0.5987,0.0106L0.621,0.0096L0.6434,0.0086L0.6657,0.0077L0.688,0.0067L0.7104,0.0058L0.7328,0.0049L0.7553,0.0041L0.7778,0.0032L0.8002,0.0023L0.8226,0.0014L0.8449,0.0004L0.8668,-0.0004L0.8881,-0.0011L0.9085,-0.0015L0.928,-0.0016L0.9464,-0.0013L0.9634,-0.0005L0.9783,0.0006L0.9905,0.002L0.9998,0.0036"
    />
</svg>
