
<svg 
  class="airfoil-ah94w301"
  fill="none"
  stroke="black" 
  stroke-width="1"
  style="overflow:visible"
  viewBox="0, -0.1448, 1, 0.30220002"
  xmlns="http://www.w3.org/2000/svg">
    <title>AH 94-W-301</title>
    <path 
      vector-effect="non-scaling-stroke"
      d="M1,-0.0055L0.9989,-0.006L0.9957,-0.0076L0.9904,-0.0099L0.983,-0.0127L0.9735,-0.0157L0.9619,-0.0189L0.9484,-0.0223L0.933,-0.026L0.9157,-0.0301L0.8967,-0.0345L0.8759,-0.0393L0.8536,-0.0445L0.8297,-0.0501L0.8044,-0.0562L0.7778,-0.0626L0.75,-0.0694L0.7211,-0.0766L0.6913,-0.084L0.6607,-0.0914L0.6294,-0.099L0.5975,-0.1064L0.5653,-0.1137L0.5327,-0.1206L0.5,-0.127L0.4673,-0.1327L0.4347,-0.1376L0.4024,-0.1413L0.3706,-0.1437L0.3393,-0.1448L0.3087,-0.1444L0.2789,-0.1425L0.25,-0.1392L0.2222,-0.1346L0.1956,-0.1288L0.1703,-0.1219L0.1464,-0.1142L0.1241,-0.1058L0.1033,-0.0967L0.0843,-0.0872L0.067,-0.0773L0.0516,-0.0672L0.0381,-0.057L0.0265,-0.0468L0.017,-0.0367L0.0096,-0.027L0.0043,-0.0177L0.0011,-0.0089L0,-0L0.0011,0.0109L0.0043,0.026L0.0096,0.0416L0.017,0.056L0.0265,0.0694L0.0381,0.0819L0.0516,0.0936L0.067,0.1045L0.0843,0.1147L0.1033,0.124L0.1241,0.1324L0.1464,0.1398L0.1703,0.146L0.1956,0.1509L0.2222,0.1545L0.25,0.1567L0.2789,0.1574L0.3087,0.1566L0.3393,0.1543L0.3706,0.1505L0.4024,0.1452L0.4347,0.1387L0.4673,0.131L0.5,0.1224L0.5327,0.1132L0.5653,0.1036L0.5975,0.0938L0.6294,0.0841L0.6607,0.0746L0.6913,0.0655L0.7211,0.0569L0.75,0.0488L0.7778,0.0414L0.8044,0.0347L0.8297,0.0289L0.8536,0.0238L0.8759,0.0196L0.8967,0.0163L0.9157,0.0138L0.933,0.012L0.9484,0.0109L0.9619,0.0104L0.9735,0.0102L0.983,0.0102L0.9904,0.0102L0.9957,0.0103L0.9989,0.0104L1,0.0104"
    />
</svg>
