
<svg 
  class="airfoil-ah94156"
  fill="none"
  stroke="black" 
  stroke-width="1"
  style="overflow:visible"
  viewBox="0.0001, -0.1149, 0.9999, 0.156"
  xmlns="http://www.w3.org/2000/svg">
    <title>AH 94-156</title>
    <path 
      vector-effect="non-scaling-stroke"
      d="M1,-0.0004L0.9914,-0.0019L0.9793,-0.0043L0.9633,-0.0078L0.9451,-0.0118L0.9262,-0.0162L0.9072,-0.0207L0.8883,-0.0255L0.8693,-0.0304L0.8504,-0.0354L0.8314,-0.0406L0.8123,-0.0459L0.7932,-0.0514L0.774,-0.0568L0.7549,-0.0623L0.7359,-0.0676L0.717,-0.0728L0.6981,-0.0777L0.6793,-0.0825L0.6606,-0.087L0.642,-0.0912L0.6233,-0.095L0.6047,-0.0985L0.5859,-0.1016L0.5672,-0.1044L0.5483,-0.1069L0.5294,-0.1089L0.5104,-0.1107L0.4914,-0.1122L0.4723,-0.1133L0.4532,-0.1141L0.434,-0.1147L0.4148,-0.1149L0.3956,-0.1149L0.3764,-0.1146L0.3573,-0.114L0.3381,-0.1131L0.3191,-0.1119L0.3001,-0.1104L0.2812,-0.1085L0.2624,-0.1063L0.2436,-0.1038L0.225,-0.1008L0.2065,-0.0975L0.1881,-0.0938L0.1699,-0.0897L0.152,-0.0851L0.1343,-0.0801L0.1169,-0.0746L0.0999,-0.0686L0.0833,-0.0621L0.0673,-0.055L0.0522,-0.0475L0.0385,-0.0396L0.0267,-0.0318L0.0176,-0.0247L0.0109,-0.0186L0.0064,-0.0135L0.0033,-0.0091L0.0012,-0.0054L0.0002,-0.002L0.0001,0.0011L0.001,0.0042L0.0032,0.0071L0.0066,0.0098L0.0114,0.0123L0.0181,0.0149L0.0273,0.0178L0.04,0.0208L0.0556,0.0237L0.073,0.0264L0.0914,0.0288L0.1102,0.0308L0.1293,0.0325L0.1486,0.034L0.1681,0.0352L0.1876,0.0364L0.2072,0.0373L0.2268,0.0382L0.2465,0.0389L0.2662,0.0395L0.2859,0.04L0.3057,0.0404L0.3255,0.0407L0.3452,0.0409L0.365,0.0411L0.3848,0.0411L0.4047,0.0411L0.4245,0.0411L0.4443,0.0409L0.4641,0.0407L0.4839,0.0404L0.5037,0.04L0.5235,0.0396L0.5433,0.039L0.5631,0.0384L0.5829,0.0377L0.6026,0.037L0.6223,0.0361L0.642,0.0351L0.6617,0.0341L0.6813,0.0329L0.7008,0.0315L0.7203,0.0301L0.7395,0.0284L0.7585,0.0265L0.7772,0.0242L0.7956,0.0215L0.8142,0.0183L0.8333,0.0147L0.8524,0.011L0.8712,0.0077L0.8898,0.0047L0.908,0.0023L0.9259,0.0006L0.9436,-0.0004L0.9613,-0.0008L0.9779,-0.0006L0.991,-0.0004L1,-0.0004"
    />
</svg>
