
<svg 
  class="airfoil-ah95160"
  fill="none"
  stroke="black" 
  stroke-width="1"
  style="overflow:visible"
  viewBox="0, -0.1345, 1.0002, 0.16409999"
  xmlns="http://www.w3.org/2000/svg">
    <title>AH 95-160</title>
    <path 
      vector-effect="non-scaling-stroke"
      d="M1.0002,0.0015L0.9904,-0.0008L0.9761,-0.0045L0.9571,-0.0096L0.9362,-0.0154L0.9147,-0.0215L0.8931,-0.0276L0.8715,-0.0339L0.85,-0.0401L0.8284,-0.0464L0.8068,-0.0527L0.7852,-0.059L0.7637,-0.0653L0.7421,-0.0716L0.7206,-0.0779L0.6992,-0.0841L0.6781,-0.0902L0.6573,-0.0961L0.637,-0.1017L0.6171,-0.1069L0.5976,-0.1118L0.5785,-0.1161L0.5597,-0.12L0.5409,-0.1234L0.5221,-0.1264L0.5032,-0.1288L0.4843,-0.1309L0.4652,-0.1324L0.4462,-0.1336L0.427,-0.1343L0.4079,-0.1345L0.3887,-0.1343L0.3694,-0.1337L0.35,-0.1326L0.3306,-0.1312L0.3111,-0.1293L0.2917,-0.127L0.2723,-0.1243L0.2531,-0.1213L0.2339,-0.1178L0.215,-0.114L0.1962,-0.1097L0.1777,-0.1051L0.1596,-0.1001L0.1418,-0.0947L0.1244,-0.0889L0.1077,-0.0828L0.0916,-0.0762L0.0764,-0.0694L0.0622,-0.0623L0.0493,-0.055L0.038,-0.0478L0.0285,-0.0408L0.0208,-0.0344L0.0149,-0.0286L0.0104,-0.0235L0.0071,-0.019L0.0046,-0.015L0.0028,-0.0114L0.0015,-0.0081L0.0006,-0.005L0.0001,-0.0022L0,0.0004L0.0003,0.0031L0.001,0.0057L0.0022,0.0083L0.004,0.0107L0.0063,0.0129L0.0092,0.0149L0.0127,0.0168L0.0171,0.0187L0.0225,0.0205L0.0296,0.0224L0.0388,0.0242L0.0509,0.0258L0.0665,0.0272L0.0857,0.0282L0.1069,0.0289L0.1287,0.0293L0.1509,0.0296L0.1734,0.0296L0.196,0.0296L0.2185,0.0294L0.2411,0.0291L0.2636,0.0288L0.286,0.0283L0.3084,0.0279L0.3308,0.0273L0.3532,0.0267L0.3755,0.026L0.3978,0.0253L0.4202,0.0246L0.4425,0.0238L0.4648,0.0229L0.4871,0.0219L0.5094,0.0209L0.5318,0.0199L0.5541,0.0188L0.5764,0.0176L0.5987,0.0163L0.621,0.015L0.6434,0.0137L0.6657,0.0124L0.688,0.0111L0.7104,0.0099L0.7328,0.0086L0.7553,0.0074L0.7778,0.0062L0.8002,0.0051L0.8227,0.004L0.845,0.003L0.8669,0.0022L0.8881,0.0015L0.9085,0.0011L0.9279,0.001L0.9463,0.001L0.9633,0.0014L0.9783,0.002L0.9904,0.0028L0.9998,0.0037"
    />
</svg>
