
<svg 
  class="airfoil-ames01"
  fill="none"
  stroke="black" 
  stroke-width="1"
  style="overflow:visible"
  viewBox="0, -0.0645, 1, 0.103199996"
  xmlns="http://www.w3.org/2000/svg">
    <title>NASA/AMES A-01 AIRFOIL</title>
    <path 
      vector-effect="non-scaling-stroke"
      d="M1,-0.003L0.99,-0.0032L0.975,-0.0039L0.95,-0.006L0.925,-0.009L0.9,-0.0126L0.85,-0.0206L0.8,-0.0286L0.75,-0.036L0.7,-0.0425L0.65,-0.0479L0.6,-0.0525L0.55,-0.0562L0.5,-0.0592L0.45,-0.0615L0.4,-0.0632L0.35,-0.0641L0.3,-0.0645L0.25,-0.0643L0.2,-0.0634L0.15,-0.061L0.125,-0.0583L0.1,-0.0542L0.08,-0.0496L0.065,-0.0452L0.05,-0.0399L0.035,-0.0333L0.025,-0.028L0.02,-0.0249L0.016,-0.0221L0.0125,-0.0194L0.01,-0.0173L0.008,-0.0154L0.0065,-0.0139L0.005,-0.0121L0.0035,-0.0101L0.002,-0.0077L0.001,-0.0054L0.0005,-0.0038L0.0002,-0.0024L0,-0L0.0002,0.0023L0.0005,0.0039L0.001,0.0047L0.002,0.0065L0.0035,0.0084L0.005,0.0099L0.0065,0.0112L0.008,0.0123L0.01,0.0135L0.0125,0.0148L0.016,0.0163L0.02,0.0178L0.025,0.0192L0.035,0.0214L0.05,0.0236L0.065,0.0255L0.08,0.0271L0.1,0.029L0.125,0.031L0.15,0.0328L0.2,0.0355L0.25,0.0373L0.3,0.0383L0.35,0.0387L0.4,0.0385L0.45,0.0378L0.5,0.0366L0.55,0.035L0.6,0.033L0.65,0.0306L0.7,0.0279L0.75,0.0249L0.8,0.0215L0.85,0.0179L0.9,0.0137L0.925,0.0114L0.95,0.0089L0.975,0.006L0.99,0.0042L1,0.003"
    />
</svg>
