
<svg 
  class="airfoil-ames03"
  fill="none"
  stroke="black" 
  stroke-width="1"
  style="overflow:visible"
  viewBox="0, -0.0615, 1, 0.1"
  xmlns="http://www.w3.org/2000/svg">
    <title>NASA/AMES A-03 AIRFOIL</title>
    <path 
      vector-effect="non-scaling-stroke"
      d="M1,-0.002L0.99,-0.0008L0.98,-0.0001L0.97,0.0003L0.95,-0.0001L0.925,-0.0022L0.9,-0.0056L0.875,-0.0099L0.85,-0.0146L0.825,-0.0195L0.8,-0.0244L0.775,-0.0291L0.75,-0.0337L0.725,-0.0381L0.7,-0.0421L0.675,-0.0458L0.65,-0.049L0.625,-0.0518L0.6,-0.0541L0.575,-0.0561L0.55,-0.0575L0.525,-0.0586L0.5,-0.0595L0.475,-0.0602L0.45,-0.0607L0.425,-0.0611L0.4,-0.0614L0.375,-0.0615L0.35,-0.0615L0.325,-0.0613L0.3,-0.061L0.275,-0.0605L0.25,-0.06L0.225,-0.0593L0.2,-0.0585L0.175,-0.0575L0.15,-0.056L0.125,-0.0536L0.1,-0.05L0.075,-0.0447L0.05,-0.0372L0.04,-0.0333L0.03,-0.0287L0.02,-0.0232L0.01,-0.0159L0.005,-0.011L0.002,-0.0069L0.001,-0.0048L0.0005,-0.0033L0,-0L0.0005,0.0028L0.001,0.0039L0.002,0.0055L0.005,0.0084L0.01,0.0114L0.02,0.0153L0.03,0.018L0.04,0.0201L0.05,0.0219L0.075,0.0254L0.1,0.0281L0.125,0.0302L0.15,0.032L0.175,0.0334L0.2,0.0346L0.225,0.0356L0.25,0.0364L0.275,0.0371L0.3,0.0376L0.325,0.038L0.35,0.0383L0.375,0.0385L0.4,0.0385L0.425,0.0384L0.45,0.0381L0.475,0.0377L0.5,0.0371L0.525,0.0364L0.55,0.0356L0.575,0.0346L0.6,0.0335L0.625,0.0322L0.65,0.0308L0.675,0.0293L0.7,0.0276L0.725,0.0258L0.75,0.0239L0.775,0.0219L0.8,0.0197L0.825,0.0175L0.85,0.0152L0.875,0.0129L0.9,0.0106L0.925,0.0084L0.95,0.0065L0.97,0.0051L0.98,0.0046L0.99,0.0042L1,0.004"
    />
</svg>
