
<svg 
  class="airfoil-ames02"
  fill="none"
  stroke="black" 
  stroke-width="1"
  style="overflow:visible"
  viewBox="0, -0.0438, 1, 0.0773"
  xmlns="http://www.w3.org/2000/svg">
    <title>NASA/AMES A-02 AIRFOIL</title>
    <path 
      vector-effect="non-scaling-stroke"
      d="M1,-0.007L0.995,-0.007L0.99,-0.0071L0.98,-0.0073L0.97,-0.0076L0.96,-0.008L0.95,-0.0086L0.925,-0.0101L0.9,-0.012L0.875,-0.0141L0.85,-0.0164L0.825,-0.0187L0.8,-0.0209L0.775,-0.0231L0.75,-0.0252L0.725,-0.0272L0.7,-0.0291L0.65,-0.0326L0.6,-0.0356L0.55,-0.0381L0.5,-0.0402L0.45,-0.0418L0.4,-0.0429L0.35,-0.0436L0.3,-0.0438L0.25,-0.0435L0.2,-0.0425L0.175,-0.0417L0.15,-0.0406L0.125,-0.0391L0.1,-0.0371L0.09,-0.0361L0.08,-0.0349L0.07,-0.0336L0.06,-0.0321L0.05,-0.0302L0.04,-0.0281L0.03,-0.0254L0.02,-0.0219L0.01,-0.0169L0.005,-0.0131L0.004,-0.0121L0.003,-0.0109L0.002,-0.0094L0.001,-0.0074L0.0008,-0.0069L0.0006,-0.0063L0.0004,-0.0055L0.0002,-0.0044L0,-0L0.0002,0.0028L0.0004,0.0038L0.0006,0.0044L0.0008,0.0049L0.001,0.0053L0.002,0.0069L0.003,0.008L0.004,0.0088L0.005,0.0096L0.01,0.0123L0.02,0.0157L0.03,0.0181L0.04,0.02L0.05,0.0215L0.06,0.0229L0.07,0.024L0.08,0.0251L0.09,0.026L0.1,0.0268L0.125,0.0285L0.15,0.0299L0.175,0.031L0.2,0.0318L0.25,0.033L0.3,0.0335L0.35,0.0334L0.4,0.0327L0.45,0.0314L0.5,0.0296L0.55,0.0273L0.6,0.0246L0.65,0.0216L0.7,0.0183L0.725,0.0166L0.75,0.0149L0.775,0.0133L0.8,0.0117L0.825,0.0102L0.85,0.0087L0.875,0.0073L0.9,0.0058L0.925,0.0044L0.95,0.0029L0.96,0.0023L0.97,0.0018L0.98,0.0012L0.99,0.0006L0.995,0.0003L1,-0"
    />
</svg>
