
<svg 
  class="airfoil-amsoil1"
  fill="none"
  stroke="black" 
  stroke-width="1"
  style="overflow:visible"
  viewBox="0, -0.0788, 1, 0.1162"
  xmlns="http://www.w3.org/2000/svg">
    <title>RUTAN CANARD AIRFOIL</title>
    <path 
      vector-effect="non-scaling-stroke"
      d="M1,-0.0022L0.99,-0.0036L0.96,-0.0081L0.93,-0.0131L0.9,-0.0184L0.87,-0.0238L0.84,-0.0294L0.81,-0.035L0.78,-0.0405L0.75,-0.0459L0.72,-0.051L0.69,-0.0558L0.66,-0.0602L0.63,-0.0643L0.6,-0.0679L0.57,-0.071L0.54,-0.0736L0.51,-0.0757L0.48,-0.0773L0.45,-0.0783L0.42,-0.0788L0.39,-0.0788L0.36,-0.0782L0.33,-0.0772L0.3,-0.0756L0.27,-0.0736L0.24,-0.0711L0.21,-0.0681L0.18,-0.0646L0.15,-0.0607L0.12,-0.0561L0.09,-0.0505L0.06,-0.0435L0.03,-0.0332L0.0077,-0.0186L0.0039,-0.0135L0.0019,-0.0098L0,-0L0.0019,0.0093L0.0039,0.0127L0.0077,0.0169L0.03,0.027L0.06,0.0317L0.09,0.0336L0.12,0.0347L0.15,0.0352L0.18,0.0357L0.21,0.036L0.24,0.0364L0.27,0.0367L0.3,0.0371L0.33,0.0373L0.36,0.0374L0.39,0.0374L0.42,0.0373L0.45,0.0369L0.48,0.0363L0.51,0.0355L0.54,0.0345L0.57,0.0331L0.6,0.0316L0.63,0.0298L0.66,0.0278L0.69,0.0255L0.72,0.0231L0.75,0.0205L0.78,0.0179L0.81,0.0152L0.84,0.0126L0.87,0.01L0.9,0.0077L0.93,0.0056L0.96,0.0038L0.99,0.0025L1,0.0022"
    />
</svg>
