
<svg 
  class="airfoil-amsoil2"
  fill="none"
  stroke="black" 
  stroke-width="1"
  style="overflow:visible"
  viewBox="0, -0.0682, 1, 0.1178"
  xmlns="http://www.w3.org/2000/svg">
    <title>RUTAN WING AIRFOIL</title>
    <path 
      vector-effect="non-scaling-stroke"
      d="M1,-0.0022L0.9894,-0.0036L0.9594,-0.0076L0.9294,-0.012L0.8994,-0.0168L0.8694,-0.0216L0.8395,-0.0266L0.8095,-0.0315L0.7795,-0.0363L0.7495,-0.041L0.7195,-0.0453L0.6895,-0.0495L0.6596,-0.0533L0.6296,-0.0567L0.5996,-0.0597L0.5696,-0.0623L0.5397,-0.0643L0.5097,-0.066L0.4797,-0.0672L0.4497,-0.0679L0.4197,-0.0682L0.3898,-0.068L0.3598,-0.0674L0.3298,-0.0665L0.2998,-0.0651L0.2698,-0.0635L0.2398,-0.0615L0.2099,-0.0591L0.1799,-0.0564L0.1499,-0.0535L0.1199,-0.05L0.0899,-0.0458L0.06,-0.0402L0.03,-0.0316L0.0115,-0.0216L0.0058,-0.016L0.0029,-0.0117L0,-0L0.0029,0.0115L0.0058,0.0155L0.0115,0.0207L0.03,0.0293L0.06,0.0358L0.0899,0.0394L0.1199,0.0418L0.1499,0.0436L0.1799,0.0451L0.2099,0.0463L0.2398,0.0473L0.2698,0.0482L0.2998,0.0488L0.3298,0.0493L0.3598,0.0496L0.3898,0.0496L0.4197,0.0493L0.4497,0.0487L0.4797,0.0478L0.5097,0.0466L0.5397,0.0451L0.5696,0.0432L0.5996,0.0411L0.6296,0.0386L0.6596,0.0358L0.6895,0.0329L0.7195,0.0297L0.7495,0.0264L0.7795,0.023L0.8095,0.0195L0.8395,0.0161L0.8694,0.0128L0.8994,0.0097L0.9294,0.007L0.9594,0.0046L0.9894,0.0028L1,0.0022"
    />
</svg>
