
<svg 
  class="airfoil-apex16_nasa_cr-201062"
  fill="none"
  stroke="black" 
  stroke-width="1"
  style="overflow:visible"
  viewBox="0, -0.0893, 1, 0.1323"
  xmlns="http://www.w3.org/2000/svg">
    <title>Apex 16 NASA CR-201062</title>
    <path 
      vector-effect="non-scaling-stroke"
      d="M1,-0.002L0.9969,-0.0029L0.9888,-0.0053L0.9773,-0.0087L0.9627,-0.0128L0.9467,-0.0173L0.9301,-0.0217L0.9134,-0.026L0.8967,-0.0302L0.8799,-0.0343L0.8631,-0.0382L0.8462,-0.042L0.8294,-0.0456L0.8125,-0.0491L0.7955,-0.0525L0.7786,-0.0557L0.7616,-0.0588L0.7446,-0.0617L0.7276,-0.0645L0.7105,-0.0672L0.6934,-0.0697L0.6763,-0.0721L0.6592,-0.0743L0.6421,-0.0764L0.625,-0.0784L0.6079,-0.0801L0.5908,-0.0818L0.5736,-0.0832L0.5565,-0.0845L0.5393,-0.0857L0.5222,-0.0867L0.505,-0.0875L0.4879,-0.0882L0.4707,-0.0887L0.4535,-0.0891L0.4363,-0.0893L0.4192,-0.0893L0.402,-0.0892L0.3849,-0.0889L0.3677,-0.0884L0.3506,-0.0878L0.3336,-0.087L0.3165,-0.086L0.2995,-0.0848L0.2825,-0.0834L0.2656,-0.0819L0.2487,-0.0801L0.2319,-0.0782L0.2152,-0.076L0.1986,-0.0736L0.1821,-0.071L0.1658,-0.0681L0.1496,-0.065L0.1336,-0.0616L0.1178,-0.0579L0.1024,-0.054L0.0873,-0.0496L0.0728,-0.045L0.059,-0.0401L0.0463,-0.035L0.0351,-0.0298L0.0259,-0.0251L0.0189,-0.0208L0.0136,-0.0172L0.0096,-0.0141L0.0066,-0.0114L0.0043,-0.009L0.0025,-0.0067L0.0012,-0.0046L0.0004,-0.0026L0,-0.0006L0.0001,0.0013L0.0006,0.0032L0.0015,0.0051L0.0029,0.0068L0.0049,0.0083L0.0076,0.0095L0.0109,0.0105L0.015,0.0115L0.0205,0.0125L0.028,0.0136L0.0384,0.0148L0.0521,0.0162L0.0681,0.0175L0.0854,0.019L0.1028,0.0204L0.1202,0.0219L0.1373,0.0236L0.1542,0.0254L0.171,0.0274L0.1877,0.0296L0.2046,0.0321L0.2216,0.0346L0.2381,0.037L0.254,0.0389L0.2699,0.0404L0.2861,0.0415L0.3025,0.0423L0.319,0.0427L0.3357,0.043L0.3524,0.0429L0.3694,0.0426L0.3864,0.0422L0.4036,0.0415L0.4209,0.0407L0.4382,0.0398L0.4556,0.0388L0.4731,0.0376L0.4906,0.0364L0.5081,0.0351L0.5257,0.0337L0.5433,0.0323L0.561,0.0308L0.5787,0.0292L0.5964,0.0277L0.6141,0.0261L0.6318,0.0245L0.6496,0.0228L0.6674,0.0212L0.6852,0.0195L0.703,0.0179L0.7208,0.0162L0.7385,0.0146L0.7562,0.013L0.7738,0.0115L0.7914,0.01L0.809,0.0086L0.8265,0.0073L0.8439,0.0061L0.8614,0.0049L0.8787,0.0039L0.896,0.003L0.9131,0.0022L0.93,0.0016L0.9467,0.0013L0.9627,0.0012L0.977,0.0013L0.9885,0.0016L0.9968,0.0019L1,0.0021"
    />
</svg>
