
<svg 
  class="airfoil-apex16"
  fill="none"
  stroke="black" 
  stroke-width="1"
  style="overflow:visible"
  viewBox="0, -0.0883, 1, 0.1306"
  xmlns="http://www.w3.org/2000/svg">
    <title>Apex 16</title>
    <desc># normalized using XFOIL date021206</desc>
    <path 
      vector-effect="non-scaling-stroke"
      d="M1,0.0001L0.9135,-0.0241L0.8463,-0.0402L0.7786,-0.0539L0.7104,-0.0657L0.6421,-0.0751L0.5736,-0.0819L0.5051,-0.0864L0.4361,-0.0883L0.3678,-0.0875L0.2993,-0.084L0.2319,-0.0776L0.1658,-0.0676L0.1024,-0.0536L0.0462,-0.0348L0.0137,-0.0171L0.0024,-0.0066L0,0.0001L0.003,0.0068L0.015,0.0116L0.0521,0.0162L0.1201,0.0219L0.1878,0.0294L0.2539,0.0385L0.3189,0.0423L0.3864,0.0415L0.4557,0.038L0.5258,0.0329L0.5965,0.0267L0.6674,0.02L0.7383,0.0133L0.809,0.0073L0.8786,0.0022L0.9465,0.0006L1,0.0001"
    />
</svg>
