
<svg 
  class="airfoil-aquilasm"
  fill="none"
  stroke="black" 
  stroke-width="1"
  style="overflow:visible"
  viewBox="0, -0.0874, 1, 0.09689999"
  xmlns="http://www.w3.org/2000/svg">
    <title>AQUILA 9.3% smoothed</title>
    <path 
      vector-effect="non-scaling-stroke"
      d="M1,-0L0.9967,-0.0006L0.9933,-0.0011L0.99,-0.0017L0.9867,-0.0023L0.98,-0.0034L0.9267,-0.0124L0.8733,-0.0215L0.82,-0.0306L0.76,-0.0408L0.7067,-0.0494L0.6533,-0.0577L0.6,-0.0653L0.5467,-0.0721L0.4933,-0.078L0.44,-0.0826L0.3933,-0.0855L0.3467,-0.0871L0.3133,-0.0874L0.2733,-0.0865L0.2333,-0.0844L0.1933,-0.0806L0.16,-0.0758L0.1267,-0.0691L0.0933,-0.0601L0.06,-0.0479L0.0467,-0.0417L0.0333,-0.0345L0.0267,-0.0304L0.02,-0.0259L0.0133,-0.0205L0.01,-0.0174L0.0067,-0.0138L0.0033,-0.0093L0,-0L0.0033,0.0057L0.0067,0.0072L0.01,0.0081L0.0133,0.0086L0.02,0.0092L0.0267,0.0094L0.0333,0.0095L0.0467,0.0094L0.06,0.0092L0.0933,0.0087L0.1267,0.0082L0.16,0.0079L0.1933,0.0076L0.2333,0.0072L0.2733,0.0069L0.3133,0.0065L0.3467,0.0062L0.3933,0.0057L0.44,0.0053L0.4933,0.0048L0.5467,0.0043L0.6,0.0038L0.6533,0.0033L0.7067,0.0028L0.76,0.0023L0.82,0.0017L0.8733,0.0012L0.9267,0.0007L0.98,0.0002L0.9867,0.0001L0.99,0.0001L0.9933,0.0001L0.9967,0L1,-0"
    />
</svg>
