
<svg 
  class="airfoil-arad13"
  fill="none"
  stroke="black" 
  stroke-width="1"
  style="overflow:visible"
  viewBox="0, -0.1008, 1, 0.13260001"
  xmlns="http://www.w3.org/2000/svg">
    <title>ARA-D 13% AIRFOIL</title>
    <path 
      vector-effect="non-scaling-stroke"
      d="M1,-0.009L0.975,-0.0132L0.95,-0.0174L0.9,-0.0258L0.85,-0.0343L0.8,-0.0426L0.75,-0.051L0.7,-0.0591L0.65,-0.0668L0.6,-0.0742L0.55,-0.081L0.5,-0.0871L0.45,-0.0923L0.4,-0.0964L0.35,-0.0993L0.3,-0.1008L0.25,-0.1005L0.2,-0.0984L0.15,-0.0934L0.1,-0.0838L0.07,-0.074L0.04,-0.0589L0.02,-0.0428L0.01,-0.0305L0.003,-0.0167L0,-0L0.003,0.0089L0.01,0.0154L0.02,0.0206L0.04,0.0263L0.07,0.0303L0.1,0.0318L0.15,0.0317L0.2,0.0306L0.25,0.0295L0.3,0.0285L0.35,0.0277L0.4,0.0268L0.45,0.0258L0.5,0.0248L0.55,0.0237L0.6,0.0225L0.65,0.0212L0.7,0.0198L0.75,0.0184L0.8,0.0168L0.85,0.0149L0.9,0.0129L0.95,0.0108L0.975,0.0098L1,0.009"
    />
</svg>
