
<svg 
  class="airfoil-arad6"
  fill="none"
  stroke="black" 
  stroke-width="1"
  style="overflow:visible"
  viewBox="0, -0.079, 1, 0.088300005"
  xmlns="http://www.w3.org/2000/svg">
    <title>ARA-D 6% AIRFOIL</title>
    <path 
      vector-effect="non-scaling-stroke"
      d="M1,-0.0055L0.975,-0.0115L0.95,-0.0172L0.9,-0.028L0.85,-0.0378L0.8,-0.0464L0.75,-0.054L0.7,-0.0606L0.65,-0.0663L0.6,-0.0709L0.55,-0.0746L0.5,-0.0772L0.45,-0.0787L0.4,-0.079L0.35,-0.0782L0.3,-0.0761L0.25,-0.0728L0.2,-0.0682L0.15,-0.0621L0.1,-0.0534L0.07,-0.0458L0.04,-0.0351L0.02,-0.0247L0.01,-0.0172L0.003,-0.0091L0,-0L0.003,0.0047L0.01,0.0074L0.02,0.0089L0.04,0.0093L0.07,0.0073L0.1,0.0041L0.15,-0.0022L0.2,-0.008L0.25,-0.0127L0.3,-0.0163L0.35,-0.0188L0.4,-0.0206L0.45,-0.0215L0.5,-0.0218L0.55,-0.0214L0.6,-0.0204L0.65,-0.0188L0.7,-0.0165L0.75,-0.0137L0.8,-0.0105L0.85,-0.0069L0.9,-0.0031L0.95,0.001L0.975,0.0032L1,0.0055"
    />
</svg>
