
<svg 
  class="airfoil-arad10"
  fill="none"
  stroke="black" 
  stroke-width="1"
  style="overflow:visible"
  viewBox="0, -0.089, 1, 0.1106"
  xmlns="http://www.w3.org/2000/svg">
    <title>ARA-D 10% AIRFOIL</title>
    <path 
      vector-effect="non-scaling-stroke"
      d="M1,-0.0075L0.975,-0.0123L0.95,-0.0171L0.9,-0.0267L0.85,-0.0358L0.8,-0.0442L0.75,-0.0521L0.7,-0.0594L0.65,-0.066L0.6,-0.072L0.55,-0.0773L0.5,-0.0817L0.45,-0.0852L0.4,-0.0877L0.35,-0.089L0.3,-0.0889L0.25,-0.0875L0.2,-0.0846L0.15,-0.0796L0.1,-0.0709L0.07,-0.0623L0.04,-0.0492L0.02,-0.0356L0.01,-0.0252L0.003,-0.0137L0,-0L0.003,0.0074L0.01,0.0126L0.02,0.0164L0.04,0.02L0.07,0.0216L0.1,0.0211L0.15,0.0183L0.2,0.0152L0.25,0.0125L0.3,0.0106L0.35,0.0092L0.4,0.0081L0.45,0.0073L0.5,0.0067L0.55,0.0064L0.6,0.0062L0.65,0.0062L0.7,0.0064L0.75,0.0067L0.8,0.007L0.85,0.0072L0.9,0.0073L0.95,0.0073L0.975,0.0073L1,0.0075"
    />
</svg>
