
<svg 
  class="airfoil-arad20"
  fill="none"
  stroke="black" 
  stroke-width="1"
  style="overflow:visible"
  viewBox="0, -0.1375, 1, 0.2006"
  xmlns="http://www.w3.org/2000/svg">
    <title>ARA-D 20% AIRFOIL</title>
    <path 
      vector-effect="non-scaling-stroke"
      d="M1,-0.0125L0.975,-0.0172L0.95,-0.0218L0.9,-0.0312L0.85,-0.0405L0.8,-0.0498L0.75,-0.0592L0.7,-0.0685L0.65,-0.0778L0.6,-0.0871L0.55,-0.0964L0.5,-0.1058L0.45,-0.1152L0.4,-0.124L0.35,-0.1311L0.3,-0.1358L0.25,-0.1375L0.2,-0.1354L0.15,-0.1282L0.1,-0.1136L0.07,-0.0993L0.04,-0.0781L0.02,-0.0564L0.01,-0.0402L0.003,-0.022L0,-0L0.003,0.0106L0.01,0.0188L0.02,0.0259L0.04,0.0351L0.07,0.044L0.1,0.05L0.15,0.0566L0.2,0.0605L0.25,0.0625L0.3,0.0631L0.35,0.0626L0.4,0.0611L0.45,0.0588L0.5,0.0558L0.55,0.0522L0.6,0.0481L0.65,0.0436L0.7,0.0388L0.75,0.0337L0.8,0.0286L0.85,0.0235L0.9,0.0188L0.95,0.0148L0.975,0.0133L1,0.0125"
    />
</svg>
