
<svg 
  class="airfoil-as5046"
  fill="none"
  stroke="black" 
  stroke-width="1"
  style="overflow:visible"
  viewBox="0, -0.0901, 1, 0.16"
  xmlns="http://www.w3.org/2000/svg">
    <title>AS5046 (16%)</title>
    <desc># Ref: http://www.krnet.org/as504x/ [original link: http://amber.aae.uiuc.edu/~ashok/kr2/airfoils/tests/]</desc>
    <path 
      vector-effect="non-scaling-stroke"
      d="M1,-0.0013L0.998,-0.002L0.9926,-0.0037L0.984,-0.0059L0.9722,-0.0087L0.9575,-0.0117L0.9398,-0.0147L0.919,-0.018L0.8951,-0.0215L0.8685,-0.0253L0.8392,-0.0296L0.8077,-0.0344L0.7741,-0.0398L0.7389,-0.046L0.7027,-0.0528L0.6661,-0.06L0.6296,-0.0673L0.5936,-0.0737L0.5576,-0.079L0.5214,-0.0831L0.485,-0.0861L0.4486,-0.0882L0.4123,-0.0896L0.3765,-0.0901L0.3412,-0.09L0.3068,-0.0891L0.2734,-0.0875L0.2413,-0.0853L0.2106,-0.0823L0.1815,-0.0787L0.1541,-0.0746L0.1287,-0.0698L0.1054,-0.0645L0.0843,-0.0586L0.0654,-0.0521L0.0488,-0.0453L0.0345,-0.038L0.0226,-0.0306L0.0132,-0.023L0.0063,-0.0154L0.0019,-0.008L0,-0.001L0.0007,0.0049L0.0051,0.0099L0.0134,0.015L0.0249,0.0204L0.0393,0.026L0.0562,0.0316L0.0757,0.0371L0.0975,0.0425L0.1213,0.0475L0.1472,0.0522L0.1751,0.0563L0.2046,0.06L0.2358,0.0632L0.2683,0.0658L0.302,0.0678L0.3366,0.0692L0.3721,0.0699L0.4081,0.0698L0.4444,0.069L0.4807,0.0672L0.517,0.0645L0.5531,0.0605L0.5893,0.0551L0.6258,0.0486L0.6626,0.0413L0.7001,0.034L0.7373,0.0272L0.7735,0.0214L0.8083,0.0163L0.8411,0.0121L0.8716,0.0087L0.8995,0.006L0.9244,0.0041L0.9459,0.0026L0.9642,0.0013L0.9793,0.0005L0.9906,0.0005L0.9976,0.001L1,0.0013"
    />
</svg>
