
<svg 
  class="airfoil-as5048"
  fill="none"
  stroke="black" 
  stroke-width="1"
  style="overflow:visible"
  viewBox="0.0001, -0.1014, 0.9999, 0.18"
  xmlns="http://www.w3.org/2000/svg">
    <title>AS5048 (18%)</title>
    <desc># Ref: http://www.krnet.org/as504x/ [original link: http://amber.aae.uiuc.edu/~ashok/kr2/airfoils/tests/]</desc>
    <path 
      vector-effect="non-scaling-stroke"
      d="M1,-0.0015L0.998,-0.0026L0.9926,-0.0053L0.9843,-0.0083L0.9727,-0.012L0.9584,-0.0159L0.9411,-0.0199L0.9207,-0.024L0.8973,-0.0282L0.8711,-0.0328L0.8423,-0.0377L0.8111,-0.0431L0.7779,-0.0491L0.743,-0.0556L0.7071,-0.0628L0.6706,-0.0705L0.6343,-0.0781L0.5985,-0.0849L0.5628,-0.0904L0.5269,-0.0947L0.4907,-0.0978L0.4545,-0.0999L0.4183,-0.1011L0.3825,-0.1014L0.3473,-0.1009L0.3128,-0.0997L0.2792,-0.0978L0.247,-0.095L0.216,-0.0916L0.1866,-0.0875L0.1589,-0.0827L0.1331,-0.0774L0.1094,-0.0715L0.0878,-0.065L0.0685,-0.0579L0.0515,-0.0504L0.0367,-0.0425L0.0244,-0.0344L0.0145,-0.0262L0.0072,-0.0181L0.0024,-0.01L0.0001,-0.0024L0.0004,0.0042L0.0044,0.0099L0.0125,0.0156L0.0238,0.0215L0.038,0.0277L0.0548,0.0339L0.0741,0.0401L0.0957,0.0461L0.1195,0.0517L0.1453,0.057L0.1731,0.0618L0.2026,0.066L0.2337,0.0698L0.2661,0.0729L0.2998,0.0754L0.3344,0.0772L0.3699,0.0783L0.4058,0.0786L0.4421,0.0782L0.4785,0.0767L0.5148,0.0742L0.5509,0.0705L0.587,0.0653L0.6233,0.0589L0.66,0.0516L0.6972,0.0441L0.7342,0.037L0.7703,0.0308L0.8049,0.0253L0.8376,0.0205L0.868,0.0165L0.8957,0.0131L0.9205,0.0102L0.9419,0.0076L0.9602,0.0047L0.9761,0.002L0.9889,0.0009L0.9971,0.0011L1,0.0015"
    />
</svg>
