
<svg 
  class="airfoil-as5045"
  fill="none"
  stroke="black" 
  stroke-width="1"
  style="overflow:visible"
  viewBox="0, -0.085, 1, 0.15"
  xmlns="http://www.w3.org/2000/svg">
    <title>AS5045 (15%)</title>
    <desc># Ref: http://www.krnet.org/as504x/ [original link: http://amber.aae.uiuc.edu/~ashok/kr2/airfoils/tests/]</desc>
    <path 
      vector-effect="non-scaling-stroke"
      d="M1,-0.0012L0.9981,-0.0017L0.9926,-0.0029L0.9839,-0.0046L0.9719,-0.0068L0.9569,-0.0093L0.9389,-0.012L0.9178,-0.0148L0.8937,-0.0179L0.8667,-0.0214L0.8372,-0.0254L0.8054,-0.03L0.7715,-0.0353L0.7362,-0.0413L0.6998,-0.0481L0.6632,-0.0554L0.6268,-0.0628L0.591,-0.0692L0.5552,-0.0743L0.5191,-0.0783L0.4829,-0.0812L0.4466,-0.0833L0.4105,-0.0845L0.3748,-0.085L0.3397,-0.0848L0.3054,-0.0839L0.2721,-0.0823L0.2401,-0.08L0.2095,-0.0772L0.1804,-0.0737L0.1532,-0.0696L0.1278,-0.065L0.1045,-0.0598L0.0833,-0.0542L0.0644,-0.0481L0.0478,-0.0416L0.0336,-0.0348L0.0218,-0.0279L0.0126,-0.0208L0.0059,-0.0137L0.0017,-0.0067L0,-0.0001L0.0011,0.0053L0.0059,0.0099L0.0143,0.0148L0.0259,0.0198L0.0404,0.025L0.0575,0.0302L0.077,0.0354L0.0988,0.0404L0.1228,0.0451L0.1487,0.0494L0.1766,0.0532L0.2062,0.0566L0.2374,0.0594L0.2699,0.0617L0.3036,0.0635L0.3383,0.0646L0.3737,0.065L0.4097,0.0647L0.446,0.0637L0.4823,0.0618L0.5186,0.0588L0.5548,0.0547L0.591,0.0492L0.6276,0.0426L0.6646,0.0353L0.7021,0.0281L0.7395,0.0216L0.7758,0.016L0.8106,0.0113L0.8435,0.0074L0.8741,0.0044L0.9021,0.0022L0.927,0.0009L0.9486,0.0001L0.9667,-0.0002L0.9811,-0L0.9916,0.0004L0.9979,0.001L1,0.0012"
    />
</svg>
