
<svg 
  class="airfoil-as6098"
  fill="none"
  stroke="black" 
  stroke-width="1"
  style="overflow:visible"
  viewBox="0.0001, -0.0998, 0.9999, 0.1079"
  xmlns="http://www.w3.org/2000/svg">
    <title>AS6098</title>
    <desc># Ananda-Selig</desc>
    <desc># AIAA Paper 2018-0310</desc>
    <path 
      vector-effect="non-scaling-stroke"
      d="M1,-0L0.9972,-0.0009L0.9889,-0.0037L0.9756,-0.0084L0.958,-0.0145L0.9362,-0.0218L0.9107,-0.0296L0.8814,-0.0376L0.8484,-0.0458L0.8123,-0.054L0.7733,-0.0622L0.732,-0.0698L0.6887,-0.0769L0.6436,-0.0832L0.5974,-0.0886L0.5503,-0.0931L0.5028,-0.0965L0.4555,-0.0988L0.4086,-0.0998L0.3627,-0.0997L0.3181,-0.0982L0.2752,-0.0956L0.2345,-0.0917L0.1963,-0.0867L0.1608,-0.0806L0.1284,-0.0735L0.0992,-0.0656L0.0736,-0.057L0.0517,-0.048L0.0337,-0.0386L0.0195,-0.0291L0.0094,-0.0197L0.003,-0.0106L0.0001,-0.0022L0.0005,0.0046L0.0047,0.0081L0.0139,0.0081L0.029,0.0056L0.0497,0.0008L0.076,-0.0064L0.1078,-0.0159L0.1453,-0.0282L0.1897,-0.0433L0.2423,-0.0591L0.3022,-0.0726L0.3671,-0.0826L0.4348,-0.0885L0.5035,-0.0904L0.5717,-0.0885L0.6375,-0.0827L0.6992,-0.0742L0.7559,-0.0642L0.8073,-0.0537L0.853,-0.0431L0.8929,-0.0329L0.9266,-0.0232L0.9536,-0.0148L0.9742,-0.0082L0.9886,-0.0035L0.9972,-0.0009L1,-0"
    />
</svg>
