
<svg 
  class="airfoil-as6095"
  fill="none"
  stroke="black" 
  stroke-width="1"
  style="overflow:visible"
  viewBox="0.0005, -0.085, 0.9995, 0.0934"
  xmlns="http://www.w3.org/2000/svg">
    <title>AS6095</title>
    <desc># Ananda-Selig</desc>
    <desc># AIAA Paper 2018-0310</desc>
    <path 
      vector-effect="non-scaling-stroke"
      d="M1,-0L0.9971,-0.0007L0.9887,-0.0027L0.975,-0.0062L0.9565,-0.0108L0.9336,-0.0165L0.9065,-0.0228L0.8756,-0.0295L0.841,-0.0366L0.8032,-0.0438L0.7627,-0.051L0.7201,-0.0579L0.6754,-0.0642L0.6292,-0.0698L0.5819,-0.0748L0.534,-0.0788L0.4859,-0.0819L0.4381,-0.084L0.3909,-0.085L0.3449,-0.0848L0.3005,-0.0835L0.2581,-0.0811L0.2179,-0.0776L0.1805,-0.073L0.146,-0.0674L0.1147,-0.0609L0.0869,-0.0537L0.0628,-0.0459L0.0426,-0.0376L0.0263,-0.0291L0.014,-0.0206L0.0057,-0.0122L0.0013,-0.0043L0.0005,0.0026L0.0033,0.0069L0.0112,0.0084L0.0247,0.0079L0.0435,0.0056L0.0675,0.0013L0.0965,-0.005L0.1306,-0.0138L0.1708,-0.0258L0.2184,-0.039L0.2729,-0.0511L0.3325,-0.061L0.3956,-0.0681L0.4606,-0.0723L0.5264,-0.0733L0.5915,-0.0713L0.6544,-0.0661L0.7132,-0.0583L0.7669,-0.0495L0.8155,-0.0405L0.8587,-0.0318L0.8963,-0.0238L0.9282,-0.0166L0.9542,-0.0105L0.9743,-0.0058L0.9886,-0.0025L0.9971,-0.0006L1,0"
    />
</svg>
