
<svg 
  class="airfoil-as6099"
  fill="none"
  stroke="black" 
  stroke-width="1"
  style="overflow:visible"
  viewBox="0.0001, -0.1016, 0.9999, 0.1112"
  xmlns="http://www.w3.org/2000/svg">
    <title>AS6099</title>
    <desc># Ananda-Selig</desc>
    <desc># AIAA Paper 2018-0310</desc>
    <path 
      vector-effect="non-scaling-stroke"
      d="M1,-0L0.9972,-0.0009L0.9888,-0.0038L0.9756,-0.0085L0.958,-0.0148L0.9363,-0.022L0.9107,-0.0298L0.8814,-0.0377L0.8483,-0.0458L0.8119,-0.0539L0.7726,-0.062L0.7309,-0.0697L0.6871,-0.0769L0.6417,-0.0835L0.5952,-0.0893L0.548,-0.0941L0.5004,-0.0978L0.4531,-0.1003L0.4063,-0.1016L0.3605,-0.1016L0.3161,-0.1003L0.2736,-0.0977L0.2331,-0.0937L0.1951,-0.0885L0.1598,-0.0822L0.1276,-0.0748L0.0986,-0.0666L0.0731,-0.0577L0.0513,-0.0483L0.0332,-0.0386L0.0191,-0.0288L0.009,-0.0192L0.0027,-0.01L0.0001,-0.0015L0.0007,0.0052L0.0058,0.0088L0.0163,0.0096L0.0323,0.0083L0.0535,0.005L0.0799,-0.0004L0.1112,-0.0082L0.1479,-0.0188L0.1909,-0.0321L0.241,-0.0465L0.2977,-0.06L0.3596,-0.0714L0.4253,-0.0799L0.4932,-0.085L0.562,-0.0862L0.6296,-0.0826L0.6932,-0.075L0.7514,-0.0655L0.804,-0.0551L0.8508,-0.0444L0.8915,-0.0339L0.9258,-0.024L0.9532,-0.0153L0.974,-0.0084L0.9885,-0.0036L0.9971,-0.0009L1,-0"
    />
</svg>
