
<svg 
  class="airfoil-as6097"
  fill="none"
  stroke="black" 
  stroke-width="1"
  style="overflow:visible"
  viewBox="0.0002, -0.0981, 0.9998, 0.1059"
  xmlns="http://www.w3.org/2000/svg">
    <title>AS6097</title>
    <desc># Ananda-Selig</desc>
    <desc># AIAA Paper 2018-0310</desc>
    <path 
      vector-effect="non-scaling-stroke"
      d="M1,-0L0.9972,-0.0009L0.9889,-0.0036L0.9756,-0.0082L0.9579,-0.0144L0.9361,-0.0216L0.9106,-0.0294L0.8813,-0.0375L0.8484,-0.0458L0.8125,-0.0542L0.7739,-0.0623L0.733,-0.0699L0.69,-0.0767L0.6452,-0.0828L0.5991,-0.0879L0.5521,-0.0921L0.5046,-0.0952L0.4572,-0.0972L0.4103,-0.0981L0.3642,-0.0978L0.3195,-0.0963L0.2765,-0.0937L0.2356,-0.0898L0.1972,-0.0849L0.1615,-0.079L0.129,-0.0721L0.0997,-0.0644L0.074,-0.0561L0.052,-0.0473L0.0339,-0.0383L0.0198,-0.0291L0.0096,-0.0198L0.0032,-0.0109L0.0002,-0.0026L0.0004,0.0041L0.0037,0.0078L0.0115,0.0074L0.0254,0.0034L0.0456,-0.0035L0.0722,-0.013L0.1053,-0.0247L0.1449,-0.0387L0.1921,-0.0546L0.2477,-0.0698L0.31,-0.0816L0.3763,-0.0891L0.4445,-0.0924L0.5127,-0.0918L0.5795,-0.0878L0.6435,-0.0809L0.7036,-0.0721L0.759,-0.0622L0.8093,-0.0519L0.8543,-0.0416L0.8937,-0.0318L0.927,-0.0225L0.9538,-0.0144L0.9743,-0.0079L0.9886,-0.0034L0.9972,-0.0008L1,0"
    />
</svg>
