
<svg 
  class="airfoil-as6096"
  fill="none"
  stroke="black" 
  stroke-width="1"
  style="overflow:visible"
  viewBox="0.0005, -0.0893, 0.9995, 0.0994"
  xmlns="http://www.w3.org/2000/svg">
    <title>AS6096</title>
    <desc># Ananda-Selig</desc>
    <desc># AIAA Paper 2018-0310</desc>
    <path 
      vector-effect="non-scaling-stroke"
      d="M1,-0L0.9971,-0.0007L0.9886,-0.0027L0.9749,-0.0062L0.9563,-0.0109L0.9332,-0.0165L0.9059,-0.0229L0.8747,-0.0296L0.8397,-0.0367L0.8015,-0.044L0.7606,-0.0513L0.7173,-0.0585L0.6722,-0.0652L0.6256,-0.0714L0.578,-0.0768L0.5299,-0.0815L0.4818,-0.0851L0.4341,-0.0877L0.3871,-0.0891L0.3415,-0.0893L0.2974,-0.0882L0.2554,-0.0858L0.2157,-0.0822L0.1787,-0.0774L0.1446,-0.0716L0.1137,-0.0647L0.0863,-0.057L0.0624,-0.0486L0.0423,-0.0398L0.0261,-0.0307L0.0139,-0.0217L0.0057,-0.0128L0.0013,-0.0044L0.0005,0.0028L0.0038,0.0075L0.0121,0.0097L0.0259,0.0101L0.0449,0.0088L0.0688,0.0057L0.0974,0.0006L0.1307,-0.0071L0.1698,-0.018L0.2158,-0.0308L0.2685,-0.0431L0.3266,-0.0539L0.3886,-0.0624L0.4532,-0.0683L0.5191,-0.0713L0.5852,-0.071L0.6494,-0.0666L0.7095,-0.0591L0.7643,-0.0503L0.8136,-0.0412L0.8573,-0.0324L0.8954,-0.0242L0.9277,-0.0169L0.9539,-0.0107L0.9741,-0.0059L0.9885,-0.0025L0.9971,-0.0006L1,-0"
    />
</svg>
