
<svg 
  class="airfoil-as6091"
  fill="none"
  stroke="black" 
  stroke-width="1"
  style="overflow:visible"
  viewBox="0.0001, -0.0601, 0.9999, 0.0679"
  xmlns="http://www.w3.org/2000/svg">
    <title>AS6091</title>
    <desc># Ananda-Selig</desc>
    <desc># AIAA Paper 2018-0310</desc>
    <path 
      vector-effect="non-scaling-stroke"
      d="M1,-0L0.9972,-0.0005L0.9888,-0.0019L0.9751,-0.0043L0.9564,-0.0075L0.9332,-0.0114L0.9056,-0.0157L0.8739,-0.0203L0.8384,-0.0252L0.7995,-0.0301L0.7577,-0.0351L0.7134,-0.0399L0.6672,-0.0445L0.6194,-0.0487L0.5707,-0.0523L0.5214,-0.0554L0.4721,-0.0578L0.4232,-0.0594L0.3753,-0.0601L0.3287,-0.06L0.2838,-0.059L0.2412,-0.0571L0.2011,-0.0543L0.1639,-0.0507L0.1299,-0.0464L0.0995,-0.0414L0.0728,-0.0359L0.0501,-0.0299L0.0316,-0.0238L0.0174,-0.0175L0.0076,-0.0111L0.002,-0.0046L0.0001,0.0012L0.0025,0.0051L0.0099,0.0071L0.0227,0.0078L0.0404,0.0071L0.0629,0.005L0.0901,0.001L0.1222,-0.0053L0.1599,-0.014L0.2041,-0.0244L0.2549,-0.0346L0.3111,-0.0427L0.3707,-0.0482L0.4321,-0.0511L0.4939,-0.0516L0.5549,-0.0501L0.6144,-0.0471L0.6714,-0.0428L0.7252,-0.0376L0.7751,-0.032L0.8208,-0.0263L0.8619,-0.0209L0.8981,-0.0158L0.9292,-0.0112L0.9547,-0.0071L0.9745,-0.004L0.9887,-0.0017L0.9972,-0.0004L1,0"
    />
</svg>
