
<svg 
  class="airfoil-as6093"
  fill="none"
  stroke="black" 
  stroke-width="1"
  style="overflow:visible"
  viewBox="0.0004, -0.0646, 0.9996, 0.081499994"
  xmlns="http://www.w3.org/2000/svg">
    <title>AS6093</title>
    <desc># Ananda-Selig</desc>
    <desc># AIAA Paper 2018-0310</desc>
    <path 
      vector-effect="non-scaling-stroke"
      d="M1,-0L0.9971,-0.0005L0.9886,-0.0019L0.9748,-0.0042L0.9558,-0.0074L0.9322,-0.0113L0.9041,-0.0156L0.8718,-0.0203L0.8357,-0.0252L0.7961,-0.0303L0.7536,-0.0356L0.7086,-0.0408L0.6618,-0.046L0.6137,-0.0508L0.5647,-0.0551L0.5153,-0.0588L0.4661,-0.0616L0.4174,-0.0636L0.3698,-0.0646L0.3236,-0.0646L0.2792,-0.0635L0.237,-0.0613L0.1974,-0.0582L0.1606,-0.0542L0.127,-0.0493L0.097,-0.0438L0.0707,-0.0377L0.0483,-0.0311L0.0301,-0.0242L0.0162,-0.0173L0.0067,-0.0104L0.0015,-0.0037L0.0004,0.002L0.0045,0.0065L0.0139,0.0104L0.0278,0.0137L0.046,0.016L0.0682,0.0169L0.0941,0.0157L0.1242,0.012L0.159,0.0052L0.1995,-0.0046L0.2467,-0.0156L0.2998,-0.0257L0.3573,-0.0342L0.4176,-0.0406L0.4796,-0.0447L0.5418,-0.0465L0.6035,-0.0461L0.6631,-0.0433L0.7192,-0.0384L0.7709,-0.0328L0.8179,-0.027L0.8599,-0.0212L0.8968,-0.0159L0.9282,-0.0111L0.954,-0.0071L0.9741,-0.0039L0.9885,-0.0017L0.9971,-0.0004L1,-0"
    />
</svg>
