
<svg 
  class="airfoil-as6094"
  fill="none"
  stroke="black" 
  stroke-width="1"
  style="overflow:visible"
  viewBox="0.0004, -0.0814, 0.9996, 0.0885"
  xmlns="http://www.w3.org/2000/svg">
    <title>AS6094</title>
    <desc># Ananda-Selig</desc>
    <desc># AIAA Paper 2018-0310</desc>
    <path 
      vector-effect="non-scaling-stroke"
      d="M1,-0L0.9971,-0.0007L0.9888,-0.0027L0.9752,-0.0062L0.9568,-0.0109L0.9341,-0.0165L0.9073,-0.0229L0.8766,-0.0296L0.8424,-0.0365L0.805,-0.0437L0.765,-0.0507L0.7228,-0.0573L0.6786,-0.0631L0.6327,-0.0683L0.5856,-0.0728L0.5378,-0.0764L0.4897,-0.0791L0.4418,-0.0808L0.3946,-0.0814L0.3484,-0.081L0.3037,-0.0795L0.261,-0.0769L0.2204,-0.0733L0.1826,-0.0688L0.1476,-0.0634L0.116,-0.0573L0.0879,-0.0505L0.0635,-0.0431L0.0429,-0.0354L0.0265,-0.0275L0.0141,-0.0195L0.0058,-0.0117L0.0013,-0.0042L0.0004,0.0022L0.0028,0.0062L0.01,0.0071L0.0231,0.0056L0.0419,0.002L0.0662,-0.0036L0.0959,-0.0112L0.1311,-0.0212L0.1729,-0.0339L0.2224,-0.0471L0.2786,-0.0585L0.3394,-0.067L0.4032,-0.0723L0.4683,-0.0746L0.5334,-0.0739L0.5973,-0.0705L0.6586,-0.0646L0.716,-0.0568L0.7688,-0.0483L0.8167,-0.0396L0.8594,-0.0313L0.8968,-0.0235L0.9286,-0.0164L0.9544,-0.0104L0.9744,-0.0057L0.9886,-0.0025L0.9972,-0.0006L1,0"
    />
</svg>
