
<svg 
  class="airfoil-as6092"
  fill="none"
  stroke="black" 
  stroke-width="1"
  style="overflow:visible"
  viewBox="0.0003, -0.0626, 0.9997, 0.0741"
  xmlns="http://www.w3.org/2000/svg">
    <title>AS6092</title>
    <desc># Ananda-Selig</desc>
    <desc># AIAA Paper 2018-0310</desc>
    <path 
      vector-effect="non-scaling-stroke"
      d="M1,-0L0.9971,-0.0005L0.9887,-0.0019L0.9749,-0.0042L0.9561,-0.0074L0.9327,-0.0113L0.9048,-0.0157L0.8728,-0.0204L0.837,-0.0253L0.7978,-0.0304L0.7556,-0.0356L0.711,-0.0407L0.6646,-0.0456L0.6167,-0.0501L0.5679,-0.0541L0.5186,-0.0574L0.4694,-0.06L0.4206,-0.0618L0.3728,-0.0626L0.3264,-0.0625L0.2817,-0.0614L0.2393,-0.0594L0.1994,-0.0565L0.1624,-0.0527L0.1287,-0.0482L0.0984,-0.0429L0.0719,-0.0371L0.0494,-0.0308L0.0311,-0.0242L0.017,-0.0176L0.0073,-0.0109L0.0018,-0.0043L0.0003,0.0016L0.0034,0.0058L0.0119,0.0087L0.0252,0.0107L0.0431,0.0115L0.0654,0.0109L0.092,0.0084L0.1231,0.0033L0.1593,-0.0043L0.2015,-0.0143L0.2504,-0.0249L0.3049,-0.0341L0.3633,-0.0412L0.4241,-0.0461L0.486,-0.0486L0.5478,-0.0489L0.6086,-0.0472L0.6671,-0.0437L0.7222,-0.0385L0.7731,-0.0328L0.8194,-0.0269L0.861,-0.0213L0.8976,-0.016L0.9288,-0.0112L0.9544,-0.0071L0.9743,-0.004L0.9886,-0.0017L0.9971,-0.0004L1,-0"
    />
</svg>
