
<svg 
  class="airfoil-atr72sm"
  fill="none"
  stroke="black" 
  stroke-width="1"
  style="overflow:visible"
  viewBox="0, -0.1009, 1, 0.1462"
  xmlns="http://www.w3.org/2000/svg">
    <title>ATR Airfoil Smoothed</title>
    <desc># coordinates obtained using AFSMO (Harry Morgan's NASA smoothing program)</desc>
    <path 
      vector-effect="non-scaling-stroke"
      d="M1,-0L0.968,-0.0051L0.941,-0.0098L0.914,-0.0148L0.885,-0.0205L0.859,-0.0257L0.83,-0.0314L0.805,-0.0362L0.776,-0.0416L0.751,-0.046L0.723,-0.0507L0.696,-0.0551L0.67,-0.0593L0.649,-0.0625L0.623,-0.0663L0.598,-0.0698L0.575,-0.0729L0.556,-0.0755L0.535,-0.0783L0.517,-0.0806L0.488,-0.0841L0.458,-0.0874L0.431,-0.0899L0.405,-0.0921L0.381,-0.0939L0.338,-0.0969L0.295,-0.0994L0.254,-0.1009L0.214,-0.1008L0.191,-0.0997L0.158,-0.0963L0.131,-0.0913L0.107,-0.0849L0.082,-0.0758L0.0607,-0.0656L0.0338,-0.048L0.0256,-0.0411L0.0093,-0.0228L0.0044,-0.015L0.0009,-0.0064L0,0.0001L0.0045,0.0122L0.0132,0.0192L0.0166,0.0211L0.0514,0.0316L0.0915,0.037L0.13,0.04L0.157,0.0414L0.182,0.0424L0.215,0.0434L0.246,0.0442L0.268,0.0447L0.291,0.0451L0.321,0.0453L0.346,0.0452L0.376,0.0449L0.405,0.0442L0.434,0.0434L0.46,0.0425L0.487,0.0415L0.511,0.0405L0.532,0.0395L0.552,0.0385L0.572,0.0374L0.596,0.0359L0.624,0.034L0.65,0.0321L0.682,0.0296L0.714,0.027L0.743,0.0248L0.769,0.0227L0.796,0.0204L0.826,0.0177L0.854,0.0149L0.885,0.0115L0.916,0.008L0.946,0.0046L0.979,0.0014L1,-0"
    />
</svg>
