
<svg 
  class="airfoil-august160"
  fill="none"
  stroke="black" 
  stroke-width="1"
  style="overflow:visible"
  viewBox="0, -0.1341, 1, 0.1606"
  xmlns="http://www.w3.org/2000/svg">
    <title>AUGUST 160</title>
    <path 
      vector-effect="non-scaling-stroke"
      d="M1,-0L0.9989,-0.0011L0.9957,-0.0018L0.9904,-0.0027L0.983,-0.0041L0.9735,-0.0058L0.9619,-0.0079L0.9484,-0.0103L0.933,-0.0132L0.9157,-0.0163L0.8967,-0.0199L0.8759,-0.0236L0.8536,-0.0277L0.8297,-0.0321L0.8044,-0.0369L0.7778,-0.0419L0.75,-0.0473L0.7211,-0.0531L0.6913,-0.0591L0.6607,-0.0655L0.6294,-0.072L0.5975,-0.0787L0.5653,-0.0855L0.5327,-0.0923L0.5,-0.099L0.4673,-0.1057L0.4347,-0.112L0.4024,-0.1179L0.3706,-0.1232L0.3393,-0.1276L0.3087,-0.1311L0.2789,-0.1334L0.25,-0.1341L0.2222,-0.133L0.1956,-0.1297L0.1703,-0.1247L0.1464,-0.1179L0.1241,-0.1103L0.1033,-0.1013L0.0843,-0.0921L0.067,-0.0818L0.0516,-0.0717L0.0381,-0.0608L0.0265,-0.0506L0.017,-0.041L0.0096,-0.0315L0.0043,-0.022L0.0011,-0.0131L0,-0L0.0011,0.0036L0.0043,0.0074L0.0096,0.01L0.017,0.0125L0.0265,0.015L0.0381,0.0171L0.0516,0.019L0.067,0.0207L0.0843,0.0224L0.1033,0.0232L0.1241,0.0244L0.1464,0.0248L0.1703,0.0256L0.1956,0.0258L0.2222,0.0263L0.25,0.0263L0.2789,0.0265L0.3087,0.0264L0.3393,0.0263L0.3706,0.0261L0.4024,0.0258L0.4347,0.0254L0.4673,0.025L0.5,0.0244L0.5327,0.0238L0.5653,0.0231L0.5975,0.0224L0.6294,0.0216L0.6607,0.0208L0.6913,0.0198L0.7211,0.0188L0.75,0.0177L0.7778,0.0165L0.8044,0.0152L0.8297,0.0137L0.8536,0.012L0.8759,0.0102L0.8967,0.0084L0.9157,0.0067L0.933,0.0052L0.9484,0.0038L0.9619,0.0026L0.9735,0.0017L0.983,0.0011L0.9904,0.0009L0.9957,0.0008L0.9989,0.0009L1,-0"
    />
</svg>
