
<svg 
  class="airfoil-avistar"
  fill="none"
  stroke="black" 
  stroke-width="1"
  style="overflow:visible"
  viewBox="0, -0.0943, 1, 0.1455"
  xmlns="http://www.w3.org/2000/svg">
    <title>AVISTAR</title>
    <path 
      vector-effect="non-scaling-stroke"
      d="M1,-0.0016L0.9975,-0.0021L0.9907,-0.0037L0.9804,-0.0059L0.967,-0.0087L0.9504,-0.012L0.9306,-0.0158L0.9078,-0.0202L0.882,-0.0252L0.8537,-0.0307L0.8231,-0.0367L0.7905,-0.0432L0.7562,-0.05L0.7204,-0.0568L0.6836,-0.0633L0.6459,-0.0693L0.6078,-0.0747L0.5694,-0.0795L0.531,-0.0836L0.4927,-0.0871L0.4543,-0.0901L0.4164,-0.0925L0.3789,-0.094L0.342,-0.0943L0.3061,-0.0932L0.2712,-0.0909L0.2376,-0.0879L0.2055,-0.0841L0.175,-0.0795L0.1465,-0.0738L0.12,-0.0669L0.0958,-0.0591L0.074,-0.0506L0.0547,-0.042L0.0381,-0.0338L0.0243,-0.0267L0.0134,-0.0204L0.0055,-0.0138L0.001,-0.0056L0,0.0015L0.001,0.0087L0.0055,0.0175L0.0134,0.0239L0.0243,0.0278L0.0381,0.0304L0.0547,0.033L0.074,0.0361L0.0958,0.0393L0.12,0.0422L0.1465,0.0447L0.175,0.0469L0.2055,0.0487L0.2376,0.0501L0.2712,0.0509L0.3061,0.0512L0.342,0.051L0.3789,0.0502L0.4164,0.049L0.4543,0.0476L0.4927,0.0458L0.531,0.0439L0.5694,0.0417L0.6078,0.0391L0.6459,0.036L0.6836,0.0328L0.7204,0.0297L0.7562,0.0267L0.7905,0.0239L0.8231,0.0213L0.8537,0.0186L0.882,0.0159L0.9078,0.0134L0.9306,0.0115L0.9504,0.0104L0.967,0.0094L0.9804,0.0079L0.9907,0.0056L0.9975,0.0029L1,0.0016"
    />
</svg>
