
<svg 
  class="airfoil-b29root"
  fill="none"
  stroke="black" 
  stroke-width="1"
  style="overflow:visible"
  viewBox="0, -0.1272, 1, 0.21980001"
  xmlns="http://www.w3.org/2000/svg">
    <title>B-29 ROOT AIRFOIL</title>
    <path 
      vector-effect="non-scaling-stroke"
      d="M1,-0L0.95,-0.0099L0.8999,-0.0208L0.7998,-0.0445L0.6996,-0.0695L0.5995,-0.0935L0.4994,-0.1131L0.3993,-0.1253L0.2994,-0.1272L0.2495,-0.123L0.1997,-0.1149L0.1498,-0.1024L0.1001,-0.0851L0.0752,-0.0739L0.0504,-0.0604L0.0256,-0.0426L0.0132,-0.0299L0.0083,-0.0233L0,-0L0.0061,0.0209L0.0062,0.0211L0.0088,0.0247L0.0138,0.0308L0.0264,0.0416L0.0515,0.0549L0.0766,0.0637L0.1016,0.0704L0.1517,0.0801L0.2017,0.0869L0.2517,0.091L0.3016,0.0926L0.4015,0.0905L0.5013,0.0834L0.6011,0.0728L0.7009,0.0591L0.8006,0.0429L0.9003,0.0236L0.9502,0.0123L1,-0"
    />
</svg>
