
<svg 
  class="airfoil-b29tip"
  fill="none"
  stroke="black" 
  stroke-width="1"
  style="overflow:visible"
  viewBox="0, -0.0673, 1, 0.09"
  xmlns="http://www.w3.org/2000/svg">
    <title>B-29 TIP AIRFOIL</title>
    <path 
      vector-effect="non-scaling-stroke"
      d="M1,0L0.95,-0.0037L0.9,-0.0082L0.8,-0.0198L0.6999,-0.0331L0.5999,-0.0465L0.4999,-0.0581L0.3998,-0.0659L0.2998,-0.0673L0.2498,-0.065L0.1999,-0.0604L0.1499,-0.0534L0.0999,-0.0437L0.0749,-0.0376L0.05,-0.0302L0.025,-0.0205L0.0125,-0.0137L0.0075,-0.0101L0,-0L0.005,0.0082L0.0051,0.0083L0.0076,0.0096L0.0126,0.0112L0.0251,0.0141L0.0501,0.0172L0.0751,0.0189L0.1001,0.02L0.1501,0.0214L0.2001,0.0223L0.2501,0.0227L0.3001,0.0227L0.4001,0.0226L0.5001,0.0224L0.6001,0.0215L0.7001,0.0197L0.8001,0.016L0.9,0.0098L0.95,0.0055L1,0"
    />
</svg>
