
<svg 
  class="airfoil-b540ols"
  fill="none"
  stroke="black" 
  stroke-width="1"
  style="overflow:visible"
  viewBox="0, -0.0485, 1, 0.097"
  xmlns="http://www.w3.org/2000/svg">
    <title>BELL 540 AIRFOIL (MODIFIED NACA 0012)</title>
    <path 
      vector-effect="non-scaling-stroke"
      d="M1,-0.0021L0.979,-0.0034L0.9441,-0.0057L0.9092,-0.008L0.8743,-0.0103L0.8394,-0.0126L0.8045,-0.0149L0.7695,-0.0172L0.7346,-0.0195L0.6997,-0.0218L0.6648,-0.0241L0.6299,-0.0264L0.595,-0.0287L0.56,-0.031L0.5251,-0.0333L0.4902,-0.0356L0.4553,-0.0378L0.4204,-0.0402L0.3854,-0.0424L0.3505,-0.0446L0.3295,-0.0457L0.3015,-0.047L0.2805,-0.0477L0.2525,-0.0483L0.235,-0.0485L0.2245,-0.0485L0.221,-0.0485L0.214,-0.0485L0.2,-0.0484L0.1755,-0.0477L0.1509,-0.0466L0.1334,-0.0454L0.1229,-0.0446L0.1123,-0.0435L0.1018,-0.0424L0.0912,-0.041L0.0806,-0.0394L0.0665,-0.0369L0.0559,-0.0346L0.0452,-0.032L0.0381,-0.0299L0.0309,-0.0274L0.0237,-0.0245L0.0163,-0.0209L0.0125,-0.0186L0.0086,-0.0157L0.0045,-0.0116L0,-0L0.0045,0.0116L0.0086,0.0157L0.0125,0.0186L0.0163,0.0209L0.0237,0.0245L0.0309,0.0274L0.0381,0.0299L0.0452,0.032L0.0559,0.0346L0.0665,0.0369L0.0806,0.0394L0.0912,0.041L0.1018,0.0424L0.1123,0.0435L0.1229,0.0446L0.1334,0.0454L0.1509,0.0466L0.1755,0.0477L0.2,0.0484L0.214,0.0485L0.221,0.0485L0.2245,0.0485L0.235,0.0485L0.2525,0.0483L0.2805,0.0477L0.3015,0.047L0.3295,0.0457L0.3505,0.0446L0.3854,0.0424L0.4204,0.0402L0.4553,0.0378L0.4902,0.0356L0.5251,0.0333L0.56,0.031L0.595,0.0287L0.6299,0.0264L0.6648,0.0241L0.6997,0.0218L0.7346,0.0195L0.7695,0.0172L0.8045,0.0149L0.8394,0.0126L0.8743,0.0103L0.9092,0.008L0.9441,0.0057L0.979,0.0034L1,0.0021"
    />
</svg>
