
<svg 
  class="airfoil-b707b"
  fill="none"
  stroke="black" 
  stroke-width="1"
  style="overflow:visible"
  viewBox="0, -0.0618, 1, 0.1218"
  xmlns="http://www.w3.org/2000/svg">
    <title>BOEING 707 .19 SPAN AIRFOIL</title>
    <path 
      vector-effect="non-scaling-stroke"
      d="M1,-0L0.5989,-0.0466L0.4986,-0.0608L0.3986,-0.061L0.2985,-0.0618L0.2486,-0.0613L0.1986,-0.0614L0.1486,-0.0577L0.0988,-0.0514L0.0739,-0.0457L0.049,-0.0407L0.0243,-0.0293L0.0122,-0.0188L0.0071,-0.0148L0.0047,-0.0122L0,-0L0.0052,0.0089L0.0077,0.0119L0.0129,0.0144L0.0255,0.0198L0.0506,0.0275L0.0758,0.032L0.1009,0.0371L0.151,0.0442L0.2012,0.0508L0.2513,0.0559L0.3014,0.0598L0.4014,0.06L0.5014,0.0577L0.6012,0.0502L1,-0"
    />
</svg>
