
<svg 
  class="airfoil-b707e"
  fill="none"
  stroke="black" 
  stroke-width="1"
  style="overflow:visible"
  viewBox="0, -0.0627, 1, 0.09020001"
  xmlns="http://www.w3.org/2000/svg">
    <title>BOEING 707 .99 SPAN AIRFOIL</title>
    <path 
      vector-effect="non-scaling-stroke"
      d="M1,0L0.99,-0.0017L0.98,-0.0033L0.97,-0.005L0.96,-0.0067L0.94,-0.0099L0.92,-0.0129L0.9,-0.0158L0.88,-0.0184L0.86,-0.0209L0.84,-0.0233L0.82,-0.0257L0.8,-0.0282L0.78,-0.0309L0.76,-0.0337L0.74,-0.0365L0.72,-0.0393L0.7,-0.0419L0.68,-0.0444L0.66,-0.0468L0.64,-0.049L0.62,-0.051L0.6,-0.053L0.58,-0.0549L0.56,-0.0566L0.54,-0.0581L0.52,-0.0595L0.5,-0.0606L0.48,-0.0614L0.46,-0.062L0.44,-0.0624L0.42,-0.0626L0.4,-0.0627L0.38,-0.0626L0.36,-0.0624L0.34,-0.062L0.32,-0.0614L0.3,-0.0607L0.28,-0.0597L0.26,-0.0586L0.24,-0.0574L0.22,-0.0561L0.2,-0.0546L0.18,-0.0527L0.16,-0.0506L0.14,-0.0481L0.12,-0.0451L0.1,-0.0414L0.08,-0.0369L0.06,-0.0317L0.05,-0.0284L0.04,-0.0244L0.03,-0.0202L0.02,-0.0166L0.012,-0.0126L0.008,-0.0094L0.004,-0.006L0.002,-0.004L0.001,-0.0027L0.0005,-0.0018L0,-0L0.0005,0.0027L0.001,0.0037L0.002,0.0052L0.004,0.0071L0.008,0.009L0.012,0.0095L0.02,0.0102L0.03,0.011L0.04,0.0115L0.05,0.0119L0.06,0.0125L0.08,0.0136L0.1,0.0147L0.12,0.0157L0.14,0.0167L0.16,0.0179L0.18,0.0192L0.2,0.0205L0.22,0.0215L0.24,0.0223L0.26,0.0233L0.28,0.0242L0.3,0.0251L0.32,0.0259L0.34,0.0264L0.36,0.0268L0.38,0.0271L0.4,0.0273L0.42,0.0275L0.44,0.0275L0.46,0.0275L0.48,0.0272L0.5,0.0268L0.52,0.0261L0.54,0.0252L0.56,0.0242L0.58,0.0231L0.6,0.022L0.62,0.0209L0.64,0.0198L0.66,0.0188L0.68,0.0177L0.7,0.0167L0.72,0.0156L0.74,0.0144L0.76,0.0133L0.78,0.0122L0.8,0.011L0.82,0.01L0.84,0.0089L0.86,0.0079L0.88,0.0068L0.9,0.0057L0.92,0.0046L0.94,0.0035L0.96,0.0023L0.97,0.0018L0.98,0.0012L0.99,0.0006L1,-0"
    />
</svg>
