
<svg 
  class="airfoil-b707c"
  fill="none"
  stroke="black" 
  stroke-width="1"
  style="overflow:visible"
  viewBox="0, -0.0661, 1, 0.0958"
  xmlns="http://www.w3.org/2000/svg">
    <title>BOEING 707 .40 SPAN AIRFOIL</title>
    <path 
      vector-effect="non-scaling-stroke"
      d="M1,-0L0.7,-0.0413L0.6,-0.0512L0.5,-0.0611L0.4,-0.0661L0.3,-0.0661L0.25,-0.0628L0.2,-0.0578L0.15,-0.0545L0.1,-0.0446L0.0748,-0.0396L0.05,-0.033L0.0249,-0.0256L0.0125,-0.0206L0.0083,-0.0165L0.005,-0.0149L0,-0L0.005,0.0066L0.0083,0.0074L0.0125,0.0083L0.0249,0.0091L0.05,0.0099L0.0748,0.0124L0.1,0.0132L0.15,0.0165L0.2,0.0215L0.25,0.0248L0.3,0.0297L0.4,0.0297L0.5,0.0289L0.6,0.0264L0.7,0.0198L1,-0"
    />
</svg>
