
<svg 
  class="airfoil-b707a"
  fill="none"
  stroke="black" 
  stroke-width="1"
  style="overflow:visible"
  viewBox="0, -0.0507, 1, 0.1197"
  xmlns="http://www.w3.org/2000/svg">
    <title>BOEING 707 .08 SPAN AIRFOIL</title>
    <path 
      vector-effect="non-scaling-stroke"
      d="M1,-0L0.99,-0.0012L0.98,-0.0025L0.97,-0.0037L0.96,-0.0049L0.94,-0.0072L0.92,-0.0094L0.9,-0.0115L0.88,-0.0133L0.86,-0.015L0.84,-0.0165L0.82,-0.0179L0.8,-0.0191L0.78,-0.0202L0.76,-0.0212L0.74,-0.0221L0.72,-0.023L0.7,-0.024L0.68,-0.0251L0.66,-0.0262L0.64,-0.0274L0.62,-0.0285L0.6,-0.0296L0.58,-0.0307L0.56,-0.0318L0.54,-0.0328L0.52,-0.034L0.5,-0.0352L0.48,-0.0367L0.46,-0.0381L0.44,-0.0395L0.42,-0.0407L0.4,-0.0416L0.38,-0.0421L0.36,-0.0423L0.34,-0.0425L0.32,-0.043L0.3,-0.044L0.28,-0.0457L0.26,-0.0482L0.24,-0.0502L0.22,-0.0507L0.2,-0.0505L0.18,-0.0505L0.16,-0.0505L0.14,-0.0501L0.12,-0.0491L0.1,-0.0477L0.08,-0.0454L0.06,-0.0414L0.05,-0.0388L0.04,-0.0361L0.03,-0.0327L0.02,-0.0272L0.012,-0.021L0.008,-0.0175L0.004,-0.014L0.002,-0.011L0.001,-0.0084L0.0005,-0.0065L0,-0L0.0005,0.0047L0.001,0.0068L0.002,0.0096L0.004,0.0128L0.008,0.0163L0.012,0.019L0.02,0.0241L0.03,0.029L0.04,0.0322L0.05,0.0346L0.06,0.0368L0.08,0.0415L0.1,0.0462L0.12,0.0503L0.14,0.0537L0.16,0.0567L0.18,0.0592L0.2,0.0612L0.22,0.0627L0.24,0.0641L0.26,0.0659L0.28,0.0679L0.3,0.0689L0.32,0.069L0.34,0.0684L0.36,0.0671L0.38,0.0655L0.4,0.0636L0.42,0.0615L0.44,0.0595L0.46,0.0574L0.48,0.0553L0.5,0.0533L0.52,0.0512L0.54,0.0492L0.56,0.0472L0.58,0.0452L0.6,0.0431L0.62,0.0409L0.64,0.0388L0.66,0.0366L0.68,0.0343L0.7,0.0321L0.72,0.0299L0.74,0.0276L0.76,0.0254L0.78,0.0233L0.8,0.0212L0.82,0.0191L0.84,0.0171L0.86,0.0151L0.88,0.0131L0.9,0.011L0.92,0.0089L0.94,0.0067L0.96,0.0045L0.97,0.0034L0.98,0.0022L0.99,0.0011L1,-0"
    />
</svg>
