
<svg 
  class="airfoil-b707d"
  fill="none"
  stroke="black" 
  stroke-width="1"
  style="overflow:visible"
  viewBox="0, -0.0644, 1, 0.0897"
  xmlns="http://www.w3.org/2000/svg">
    <title>BOEING 707 .54 SPAN AIRFOIL</title>
    <path 
      vector-effect="non-scaling-stroke"
      d="M1,-0L0.9,-0.0145L0.8,-0.029L0.7,-0.0427L0.6,-0.0541L0.5,-0.0618L0.4,-0.0644L0.3,-0.0627L0.25,-0.0604L0.2,-0.057L0.15,-0.052L0.1,-0.0442L0.0753,-0.0385L0.05,-0.0303L0.025,-0.0215L0.0126,-0.0147L0.0074,-0.012L0.005,-0.0099L0,-0.003L0.005,0.0046L0.0074,0.0055L0.0126,0.0065L0.025,0.0074L0.05,0.009L0.0753,0.0105L0.1,0.0118L0.15,0.0149L0.2,0.0177L0.25,0.0206L0.3,0.0227L0.4,0.0253L0.5,0.025L0.6,0.0208L0.7,0.0156L0.8,0.0105L0.9,0.0051L1,-0"
    />
</svg>
