
<svg 
  class="airfoil-b737b"
  fill="none"
  stroke="black" 
  stroke-width="1"
  style="overflow:visible"
  viewBox="0, -0.0761, 1, 0.1261"
  xmlns="http://www.w3.org/2000/svg">
    <title>BOEING 737 MIDSPAN AIRFOIL</title>
    <path 
      vector-effect="non-scaling-stroke"
      d="M1,-0.0004L0.9021,-0.0142L0.8266,-0.0233L0.7003,-0.0388L0.6001,-0.0512L0.5525,-0.0567L0.5101,-0.0614L0.4547,-0.0667L0.4075,-0.0705L0.3602,-0.0734L0.2972,-0.0756L0.25,-0.0761L0.208,-0.0756L0.1513,-0.0728L0.0996,-0.0666L0.0736,-0.0613L0.053,-0.0552L0.0229,-0.0408L0.0129,-0.0332L0.0075,-0.0275L0.0047,-0.0236L0.0026,-0.0198L0,-0.0088L0.0021,-0.0004L0.0051,0.0037L0.0078,0.0062L0.0139,0.0103L0.023,0.0147L0.0509,0.0244L0.0725,0.0301L0.0961,0.0352L0.1513,0.0432L0.208,0.0477L0.25,0.0493L0.3095,0.05L0.3449,0.0498L0.3981,0.0486L0.4512,0.0463L0.5066,0.0428L0.549,0.0397L0.5966,0.0357L0.6889,0.0275L0.8505,0.0131L0.9313,0.006L1,0.0004"
    />
</svg>
