
<svg 
  class="airfoil-b737d"
  fill="none"
  stroke="black" 
  stroke-width="1"
  style="overflow:visible"
  viewBox="0, -0.0678, 1, 0.1082"
  xmlns="http://www.w3.org/2000/svg">
    <title>BOEING 737 OUTBOARD AIRFOIL</title>
    <path 
      vector-effect="non-scaling-stroke"
      d="M1,-0.0008L0.9,-0.0145L0.8,-0.0291L0.7,-0.0437L0.6,-0.0563L0.55,-0.0611L0.5,-0.0646L0.45,-0.0668L0.4,-0.0678L0.35,-0.0678L0.3,-0.0662L0.25,-0.0643L0.2,-0.0606L0.15,-0.0549L0.1,-0.0468L0.075,-0.041L0.05,-0.0335L0.025,-0.0232L0.0125,-0.016L0.0075,-0.0123L0.005,-0.01L0.0025,-0.007L0,-0L0.0025,0.0051L0.005,0.0066L0.0075,0.0077L0.0125,0.0091L0.025,0.0116L0.05,0.0148L0.075,0.0174L0.1,0.02L0.15,0.0246L0.2,0.0291L0.25,0.0331L0.3,0.0359L0.35,0.0388L0.4,0.0402L0.45,0.0404L0.5,0.0393L0.55,0.0371L0.6,0.0339L0.7,0.0257L0.8,0.0172L0.9,0.0086L1,0.0008"
    />
</svg>
