
<svg 
  class="airfoil-b737c"
  fill="none"
  stroke="black" 
  stroke-width="1"
  style="overflow:visible"
  viewBox="0, -0.0629, 1, 0.1004"
  xmlns="http://www.w3.org/2000/svg">
    <title>BOEING 737 MIDSPAN AIRFOIL</title>
    <path 
      vector-effect="non-scaling-stroke"
      d="M1,-0.0005L0.947,-0.0076L0.8741,-0.0183L0.6571,-0.0422L0.6091,-0.047L0.5486,-0.0529L0.4904,-0.0597L0.4447,-0.0608L0.399,-0.0625L0.3468,-0.0629L0.2964,-0.0623L0.25,-0.0606L0.2036,-0.0576L0.1511,-0.0524L0.0975,-0.0441L0.0794,-0.0402L0.0505,-0.0324L0.0237,-0.0218L0.0129,-0.0157L0.0078,-0.012L0.006,-0.0105L0.0019,-0.0057L0,-0L0.0022,0.004L0.0049,0.0057L0.007,0.0066L0.0125,0.0076L0.0209,0.0101L0.0555,0.0147L0.0816,0.0174L0.1078,0.0201L0.1571,0.0247L0.2036,0.0286L0.25,0.0319L0.2964,0.0347L0.3549,0.037L0.3996,0.0375L0.4532,0.0366L0.4911,0.0352L0.5434,0.0328L0.6269,0.0282L0.7396,0.022L0.7832,0.019L0.9354,0.0056L1,0.0005"
    />
</svg>
