
<svg 
  class="airfoil-b737a"
  fill="none"
  stroke="black" 
  stroke-width="1"
  style="overflow:visible"
  viewBox="0, -0.0907, 1, 0.1539"
  xmlns="http://www.w3.org/2000/svg">
    <title>BOEING 737 ROOT AIRFOIL</title>
    <path 
      vector-effect="non-scaling-stroke"
      d="M1,-0.0003L0.9109,-0.0132L0.8351,-0.0224L0.6488,-0.0498L0.5965,-0.0575L0.5593,-0.0626L0.5034,-0.0696L0.4477,-0.0756L0.3919,-0.0804L0.352,-0.0833L0.3094,-0.0858L0.2504,-0.0887L0.1961,-0.0905L0.153,-0.0907L0.099,-0.0866L0.074,-0.0814L0.0495,-0.073L0.0249,-0.0582L0.0143,-0.0499L0.0076,-0.0415L0.005,-0.0372L0.0023,-0.0309L0,-0.0177L0.0022,-0.0038L0.0049,0.0018L0.0072,0.0053L0.0119,0.0106L0.0243,0.0204L0.0486,0.0342L0.0716,0.0457L0.0979,0.0516L0.1488,0.0607L0.1953,0.0632L0.2501,0.0632L0.2945,0.0626L0.3579,0.061L0.3965,0.0595L0.4543,0.0563L0.505,0.0527L0.5556,0.0482L0.6063,0.0427L0.6485,0.0375L0.8317,0.0149L0.941,0.0053L1,0.0003"
    />
</svg>
