
<svg 
  class="airfoil-bacj"
  fill="none"
  stroke="black" 
  stroke-width="1"
  style="overflow:visible"
  viewBox="0, -0.0563, 1, 0.1022"
  xmlns="http://www.w3.org/2000/svg">
    <title>BOEING AIRFOIL J</title>
    <path 
      vector-effect="non-scaling-stroke"
      d="M1,-0.001L0.99,-0.0032L0.98,-0.0053L0.97,-0.0075L0.95,-0.0118L0.93,-0.016L0.9,-0.022L0.86,-0.0292L0.82,-0.0354L0.78,-0.0407L0.74,-0.045L0.7,-0.0485L0.65,-0.0518L0.6,-0.0541L0.55,-0.0556L0.5,-0.0563L0.45,-0.0563L0.4,-0.0556L0.35,-0.0543L0.3,-0.0523L0.26,-0.0503L0.22,-0.0479L0.19,-0.0458L0.16,-0.0432L0.14,-0.0412L0.12,-0.0389L0.1,-0.0362L0.08,-0.033L0.07,-0.0313L0.06,-0.0294L0.05,-0.0274L0.04,-0.0251L0.032,-0.0231L0.026,-0.0214L0.02,-0.0195L0.014,-0.0172L0.012,-0.0162L0.01,-0.0152L0.008,-0.014L0.006,-0.0125L0.005,-0.0116L0.004,-0.0106L0.003,-0.0094L0.002,-0.0078L0.0014,-0.0066L0.0008,-0.005L0.0004,-0.0036L0.0002,-0.0026L0.0001,-0.0017L0,-0L0.0001,0.0016L0.0002,0.0025L0.0004,0.0035L0.0008,0.0049L0.0014,0.0065L0.002,0.0077L0.003,0.0093L0.004,0.0106L0.005,0.0118L0.006,0.0128L0.008,0.0144L0.01,0.0158L0.012,0.0169L0.014,0.018L0.02,0.0208L0.026,0.023L0.032,0.0249L0.04,0.0271L0.05,0.0295L0.06,0.0316L0.07,0.0333L0.08,0.0349L0.1,0.0374L0.12,0.0393L0.14,0.0408L0.16,0.042L0.19,0.0434L0.22,0.0444L0.26,0.0454L0.3,0.0458L0.35,0.0459L0.4,0.0451L0.45,0.0434L0.5,0.0406L0.55,0.0366L0.6,0.0313L0.65,0.0249L0.7,0.0177L0.74,0.012L0.78,0.0061L0.82,0.0013L0.86,-0.0021L0.9,-0.0039L0.93,-0.0039L0.95,-0.0033L0.97,-0.0022L0.98,-0.0015L0.99,-0.0006L1,0.0004L1,-0.001"
    />
</svg>
