
<svg 
  class="airfoil-bacnlf"
  fill="none"
  stroke="black" 
  stroke-width="1"
  style="overflow:visible"
  viewBox="0.0001, -0.0565, 0.9999, 0.1016"
  xmlns="http://www.w3.org/2000/svg">
    <title>BOEING HSNLF AIRFOIL</title>
    <path 
      vector-effect="non-scaling-stroke"
      d="M1,-0.002L0.9859,-0.0051L0.9649,-0.0099L0.9357,-0.0158L0.9,-0.023L0.859,-0.0303L0.7907,-0.04L0.7422,-0.0453L0.6925,-0.0495L0.6675,-0.0512L0.6425,-0.0526L0.6176,-0.0538L0.5929,-0.0547L0.5685,-0.0555L0.5444,-0.0561L0.5206,-0.0564L0.4972,-0.0565L0.4743,-0.0565L0.4519,-0.0564L0.43,-0.056L0.4086,-0.0555L0.3879,-0.055L0.3677,-0.0543L0.3481,-0.0536L0.3291,-0.0527L0.3108,-0.0518L0.2931,-0.0508L0.276,-0.0498L0.2595,-0.0487L0.2437,-0.0475L0.2285,-0.0463L0.214,-0.0451L0.2,-0.0438L0.1867,-0.0425L0.1739,-0.0412L0.1618,-0.0398L0.1502,-0.0385L0.1392,-0.0371L0.1287,-0.0358L0.1188,-0.0344L0.1094,-0.0331L0.1005,-0.0317L0.0921,-0.0304L0.0842,-0.029L0.0767,-0.0277L0.0697,-0.0264L0.0632,-0.0251L0.057,-0.0238L0.0513,-0.0225L0.0459,-0.0213L0.0409,-0.02L0.0363,-0.0188L0.032,-0.0175L0.028,-0.0163L0.0243,-0.0151L0.0209,-0.0139L0.0178,-0.0127L0.015,-0.0115L0.0124,-0.0103L0.01,-0.009L0.0079,-0.0078L0.006,-0.0065L0.0043,-0.0052L0.0028,-0.0039L0.0015,-0.0026L0.0005,-0.0012L0.0001,0.0004L0.0002,0.002L0.001,0.0033L0.0021,0.0043L0.0032,0.0053L0.0045,0.0062L0.0058,0.0069L0.0071,0.0076L0.0086,0.0083L0.0101,0.009L0.0117,0.0096L0.0134,0.0103L0.0152,0.0109L0.0172,0.0116L0.0194,0.0123L0.0217,0.013L0.0242,0.0137L0.0269,0.0145L0.0298,0.0152L0.0329,0.016L0.0363,0.0169L0.04,0.0177L0.044,0.0186L0.0483,0.0195L0.0529,0.0204L0.0579,0.0213L0.0632,0.0223L0.0689,0.0232L0.075,0.0242L0.0815,0.0252L0.0884,0.0262L0.0957,0.0273L0.1035,0.0283L0.1118,0.0293L0.1206,0.0304L0.1299,0.0314L0.1397,0.0325L0.15,0.0335L0.1609,0.0345L0.1723,0.0356L0.1843,0.0366L0.1968,0.0375L0.21,0.0385L0.2238,0.0394L0.2381,0.0403L0.2531,0.0411L0.2687,0.0419L0.2849,0.0427L0.3018,0.0434L0.3192,0.0439L0.3373,0.0444L0.356,0.0448L0.3753,0.045L0.3952,0.0451L0.4157,0.045L0.4367,0.0446L0.4583,0.044L0.4804,0.0431L0.5029,0.0419L0.5259,0.0404L0.5729,0.0364L0.6211,0.0313L0.67,0.0255L0.7189,0.0197L0.7674,0.0146L0.8144,0.0101L0.8589,0.0064L0.8997,0.0035L0.9355,0.0018L0.9647,0.0008L0.9858,0.0004L0.9972,0.0004"
    />
</svg>
