
<svg 
  class="airfoil-bacxxx"
  fill="none"
  stroke="black" 
  stroke-width="1"
  style="overflow:visible"
  viewBox="0, -0.0674, 1, 0.1132"
  xmlns="http://www.w3.org/2000/svg">
    <title>BOEING BACXXX AIRFOIL</title>
    <path 
      vector-effect="non-scaling-stroke"
      d="M1,-0.0004L0.95,-0.0116L0.9,-0.0218L0.85,-0.0307L0.8,-0.0384L0.75,-0.045L0.7,-0.0503L0.65,-0.0548L0.6,-0.0585L0.55,-0.0613L0.5,-0.0636L0.45,-0.0654L0.4,-0.0667L0.35,-0.0673L0.3,-0.0674L0.25,-0.0665L0.2,-0.0643L0.15,-0.0599L0.125,-0.0566L0.1,-0.0521L0.075,-0.0465L0.05,-0.0384L0.0375,-0.0334L0.025,-0.0271L0.02,-0.0242L0.015,-0.0207L0.005,-0.0112L0.0025,-0.0078L0.001,-0.005L0.0005,-0.0037L0,-0L0.0005,0.0018L0.001,0.0027L0.0025,0.0043L0.005,0.0058L0.015,0.0098L0.02,0.0112L0.025,0.0125L0.0375,0.0152L0.05,0.0175L0.075,0.0216L0.1,0.0254L0.125,0.0288L0.15,0.032L0.2,0.0375L0.25,0.0417L0.3,0.0445L0.35,0.0458L0.4,0.0457L0.45,0.0443L0.5,0.0417L0.55,0.0383L0.6,0.0344L0.65,0.0303L0.7,0.026L0.75,0.0218L0.8,0.0174L0.85,0.0132L0.9,0.009L0.95,0.0047L1,0.0004"
    />
</svg>
