
<svg 
  class="airfoil-be50sm"
  fill="none"
  stroke="black" 
  stroke-width="1"
  style="overflow:visible"
  viewBox="0, -0.0719, 1, 0.0845"
  xmlns="http://www.w3.org/2000/svg">
    <title>BE50 (smoothed)</title>
    <path 
      vector-effect="non-scaling-stroke"
      d="M1,-0.0013L0.9975,-0.0018L0.9907,-0.0031L0.9804,-0.0052L0.967,-0.0078L0.9504,-0.0109L0.9306,-0.0146L0.9078,-0.0187L0.882,-0.0231L0.8537,-0.0277L0.8231,-0.0324L0.7905,-0.0371L0.7562,-0.0418L0.7204,-0.0463L0.6836,-0.0506L0.6459,-0.0546L0.6078,-0.0584L0.5694,-0.0617L0.531,-0.0647L0.4927,-0.0671L0.4543,-0.0691L0.4164,-0.0705L0.3789,-0.0714L0.342,-0.0719L0.3061,-0.0718L0.2712,-0.0712L0.2376,-0.0699L0.2055,-0.0679L0.175,-0.065L0.1465,-0.0613L0.12,-0.0566L0.0958,-0.0511L0.074,-0.0449L0.0547,-0.0381L0.0381,-0.031L0.0243,-0.0237L0.0134,-0.0166L0.0055,-0.0099L0.001,-0.0038L0,0L0.001,0.0033L0.0055,0.0069L0.0134,0.0096L0.0243,0.0113L0.0381,0.0122L0.0547,0.0126L0.074,0.0123L0.0958,0.0115L0.12,0.0103L0.1465,0.0088L0.175,0.0071L0.2055,0.0052L0.2376,0.0032L0.2712,0.0012L0.3061,-0.001L0.342,-0.0033L0.3789,-0.0056L0.4164,-0.0079L0.4543,-0.01L0.4927,-0.0118L0.531,-0.0131L0.5694,-0.014L0.6078,-0.0144L0.6459,-0.0144L0.6836,-0.014L0.7204,-0.0133L0.7562,-0.0123L0.7905,-0.0111L0.8231,-0.0098L0.8537,-0.0084L0.882,-0.0069L0.9078,-0.0054L0.9306,-0.004L0.9504,-0.0026L0.967,-0.0015L0.9804,-0.0004L0.9907,0.0005L0.9975,0.0011L1,0.0013"
    />
</svg>
