
<svg 
  class="airfoil-be50"
  fill="none"
  stroke="black" 
  stroke-width="1"
  style="overflow:visible"
  viewBox="0, -0.0813, 1, 0.0813"
  xmlns="http://www.w3.org/2000/svg">
    <title>BE50 (original)</title>
    <path 
      vector-effect="non-scaling-stroke"
      d="M1,-0.0026L0.95,-0.0127L0.9,-0.0228L0.8,-0.0396L0.7,-0.0531L0.6,-0.0649L0.55,-0.0699L0.5,-0.0741L0.45,-0.0778L0.4,-0.0799L0.35,-0.0809L0.3,-0.0813L0.25,-0.0809L0.2,-0.0784L0.15,-0.0731L0.1,-0.064L0.075,-0.0573L0.05,-0.0484L0.025,-0.0364L0.015,-0.0301L0.01,-0.026L0,-0.0127L0.01,-0.004L0.015,-0.0027L0.025,-0.0016L0.05,-0L0.075,-0L0.1,-0.0005L0.15,-0.0029L0.2,-0.0057L0.25,-0.0081L0.3,-0.0105L0.35,-0.0131L0.4,-0.0162L0.45,-0.0185L0.5,-0.0202L0.55,-0.0214L0.6,-0.0213L0.7,-0.0194L0.8,-0.0149L0.9,-0.0086L0.95,-0.0047L1,-0"
    />
</svg>
