
<svg 
  class="airfoil-boe103"
  fill="none"
  stroke="black" 
  stroke-width="1"
  style="overflow:visible"
  viewBox="0, -0.0985, 1, 0.1274"
  xmlns="http://www.w3.org/2000/svg">
    <title>BOEING 103 AIRFOIL</title>
    <path 
      vector-effect="non-scaling-stroke"
      d="M1,-0.0012L0.95,-0.0151L0.9,-0.0266L0.8,-0.0477L0.7,-0.0661L0.6,-0.081L0.5,-0.0922L0.4,-0.0984L0.3,-0.0985L0.2,-0.092L0.15,-0.0845L0.1,-0.073L0.075,-0.0653L0.05,-0.0555L0.025,-0.0398L0.0188,-0.0346L0.0125,-0.0266L0,-0L0.0125,0.013L0.025,0.017L0.05,0.0223L0.075,0.0255L0.1,0.0272L0.15,0.0286L0.2,0.0289L0.3,0.0287L0.4,0.0265L0.5,0.0228L0.6,0.0184L0.7,0.0135L0.8,0.0089L0.9,0.0044L0.95,0.0021L1,-0"
    />
</svg>
