
<svg 
  class="airfoil-boe106"
  fill="none"
  stroke="black" 
  stroke-width="1"
  style="overflow:visible"
  viewBox="0, -0.0979, 1, 0.1307"
  xmlns="http://www.w3.org/2000/svg">
    <title>BOEING 106 AIRFOIL</title>
    <path 
      vector-effect="non-scaling-stroke"
      d="M1,-0.0004L0.95,-0.0114L0.9,-0.0224L0.8,-0.0436L0.7,-0.0629L0.6,-0.0789L0.5,-0.0905L0.4,-0.0975L0.3,-0.0979L0.2,-0.0896L0.15,-0.0802L0.1,-0.0676L0.075,-0.0594L0.05,-0.049L0.025,-0.0348L0.01,-0.0214L0,-0L0.0125,0.0141L0.025,0.0191L0.05,0.0243L0.075,0.0277L0.1,0.0296L0.15,0.0315L0.2,0.0328L0.3,0.0327L0.4,0.0307L0.5,0.0279L0.6,0.0241L0.7,0.0187L0.8,0.0132L0.9,0.0072L0.95,0.0038L1,-0"
    />
</svg>
