
<svg 
  class="airfoil-bqm34"
  fill="none"
  stroke="black" 
  stroke-width="1"
  style="overflow:visible"
  viewBox="0, -0.0495, 1, 0.099"
  xmlns="http://www.w3.org/2000/svg">
    <title>RYAN BQM-34 FIREBEE WING AIRFOIL</title>
    <path 
      vector-effect="non-scaling-stroke"
      d="M1,-0L0.9987,-0.0001L0.9949,-0.0005L0.9886,-0.0011L0.9797,-0.0019L0.9685,-0.003L0.9548,-0.0043L0.9388,-0.0058L0.9206,-0.0075L0.9003,-0.0094L0.8779,-0.0116L0.8536,-0.0139L0.8274,-0.0163L0.7996,-0.019L0.7703,-0.0218L0.7396,-0.0247L0.7077,-0.0277L0.6747,-0.0308L0.6409,-0.0338L0.6063,-0.0367L0.5712,-0.0394L0.5357,-0.0419L0.5,-0.0441L0.4643,-0.046L0.4288,-0.0475L0.3937,-0.0486L0.3591,-0.0492L0.3253,-0.0495L0.2923,-0.0494L0.2604,-0.0488L0.2297,-0.0479L0.2004,-0.0465L0.1726,-0.0449L0.1464,-0.0428L0.1221,-0.0404L0.0997,-0.0377L0.0794,-0.0346L0.0612,-0.0311L0.0452,-0.0274L0.0315,-0.0234L0.0203,-0.0191L0.0114,-0.0147L0.0051,-0.01L0.0013,-0.0052L0,-0L0.0013,0.0052L0.0051,0.01L0.0114,0.0147L0.0203,0.0191L0.0315,0.0234L0.0452,0.0274L0.0612,0.0311L0.0794,0.0346L0.0997,0.0377L0.1221,0.0404L0.1464,0.0428L0.1726,0.0449L0.2004,0.0465L0.2297,0.0479L0.2604,0.0488L0.2923,0.0494L0.3253,0.0495L0.3591,0.0492L0.3937,0.0486L0.4288,0.0475L0.4643,0.046L0.5,0.0441L0.5357,0.0419L0.5712,0.0394L0.6063,0.0367L0.6409,0.0338L0.6747,0.0308L0.7077,0.0277L0.7396,0.0247L0.7703,0.0218L0.7996,0.019L0.8274,0.0163L0.8536,0.0139L0.8779,0.0116L0.9003,0.0094L0.9206,0.0075L0.9388,0.0058L0.9548,0.0043L0.9685,0.003L0.9797,0.0019L0.9886,0.0011L0.9949,0.0005L0.9987,0.0001L1,-0"
    />
</svg>
