
<svg 
  class="airfoil-bte-fk"
  fill="none"
  stroke="black" 
  stroke-width="1"
  style="overflow:visible"
  viewBox="0, -0.0759, 1, 0.1262"
  xmlns="http://www.w3.org/2000/svg">
    <title>BTE-FK</title>
    <path 
      vector-effect="non-scaling-stroke"
      d="M0.9995,-0.0038L0.993,-0.0048L0.9819,-0.0065L0.969,-0.0085L0.9544,-0.0107L0.9385,-0.0132L0.9215,-0.0158L0.9039,-0.0185L0.8859,-0.0212L0.8676,-0.024L0.8492,-0.0269L0.8308,-0.0297L0.8123,-0.0325L0.7938,-0.0353L0.7754,-0.0382L0.757,-0.041L0.7387,-0.0438L0.7207,-0.0465L0.703,-0.0493L0.6856,-0.0518L0.6682,-0.0542L0.6509,-0.0564L0.6336,-0.0585L0.6163,-0.0605L0.5989,-0.0624L0.5815,-0.0641L0.564,-0.0657L0.5466,-0.0672L0.5293,-0.0686L0.5118,-0.0699L0.4944,-0.071L0.4769,-0.0721L0.4595,-0.073L0.442,-0.0737L0.4245,-0.0744L0.4071,-0.075L0.3897,-0.0754L0.3724,-0.0757L0.355,-0.0758L0.3377,-0.0759L0.3205,-0.0758L0.3033,-0.0755L0.2862,-0.0751L0.2692,-0.0746L0.2524,-0.0739L0.2357,-0.0731L0.2193,-0.0721L0.2031,-0.0709L0.1872,-0.0696L0.1718,-0.0681L0.1569,-0.0664L0.1425,-0.0646L0.1289,-0.0625L0.116,-0.0603L0.1039,-0.058L0.0928,-0.0556L0.0826,-0.0531L0.0734,-0.0506L0.065,-0.0481L0.0576,-0.0457L0.0509,-0.0433L0.0449,-0.0409L0.0395,-0.0385L0.0346,-0.0362L0.0302,-0.034L0.0263,-0.0318L0.0228,-0.0296L0.0195,-0.0275L0.0166,-0.0254L0.014,-0.0233L0.0115,-0.0213L0.0094,-0.0193L0.0074,-0.0173L0.0056,-0.0153L0.0041,-0.0133L0.0028,-0.0112L0.0018,-0.0092L0.0011,-0.0071L0.0005,-0.005L0.0002,-0.0029L0,-0.0001L0.0002,0.0029L0.0006,0.0051L0.0011,0.0072L0.0019,0.0093L0.0029,0.0113L0.0041,0.0133L0.0056,0.0152L0.0074,0.0171L0.0094,0.0189L0.0117,0.0207L0.0141,0.0225L0.0168,0.0242L0.0198,0.026L0.023,0.0278L0.0265,0.0296L0.0304,0.0313L0.0347,0.0331L0.0394,0.0348L0.0447,0.0365L0.0505,0.0382L0.0569,0.0399L0.0641,0.0416L0.072,0.0432L0.0808,0.0447L0.0905,0.046L0.1011,0.0473L0.1127,0.0483L0.1252,0.0491L0.1385,0.0498L0.1526,0.0502L0.1672,0.0503L0.1825,0.0502L0.1982,0.0498L0.2144,0.0492L0.2311,0.0484L0.2486,0.0475L0.2665,0.0465L0.2849,0.0454L0.3034,0.0443L0.322,0.0432L0.3407,0.0421L0.3595,0.0411L0.3782,0.04L0.397,0.0389L0.4158,0.0378L0.4345,0.0367L0.4533,0.0356L0.4721,0.0345L0.4909,0.0334L0.5097,0.0323L0.5285,0.0312L0.5473,0.0301L0.5661,0.0291L0.5849,0.028L0.6036,0.0269L0.6224,0.0258L0.6412,0.0247L0.66,0.0236L0.6788,0.0225L0.6976,0.0214L0.7164,0.0203L0.7352,0.0192L0.754,0.0181L0.7728,0.0171L0.7915,0.016L0.8103,0.0149L0.8291,0.0138L0.8478,0.0127L0.8664,0.0116L0.8849,0.0105L0.9032,0.0095L0.9211,0.0084L0.9383,0.0074L0.9544,0.0065L0.9691,0.0057L0.9821,0.0049L0.9934,0.0042L1,0.0039"
    />
</svg>
