
<svg 
  class="airfoil-bw050209"
  fill="none"
  stroke="black" 
  stroke-width="1"
  style="overflow:visible"
  viewBox="0, -0.0665, 1, 0.0941"
  xmlns="http://www.w3.org/2000/svg">
    <title>BW 05 02 09</title>
    <path 
      vector-effect="non-scaling-stroke"
      d="M1,-0L1,-0.001L0.95,-0.0045L0.9,-0.0081L0.8,-0.0183L0.7,-0.0294L0.6,-0.0416L0.5,-0.0534L0.4,-0.0624L0.3,-0.0665L0.25,-0.065L0.2,-0.061L0.15,-0.0555L0.1,-0.046L0.075,-0.0395L0.05,-0.0315L0.025,-0.0213L0.0125,-0.0143L0.0075,-0.0104L0.0037,-0.0065L0.002,-0.0045L0.001,-0.0029L0.0001,-0.0016L0,-0L0.0001,0.0005L0.001,0.0015L0.002,0.0025L0.0037,0.0037L0.0075,0.0055L0.0125,0.0072L0.025,0.0105L0.05,0.0145L0.075,0.0172L0.1,0.0194L0.15,0.0223L0.2,0.0235L0.25,0.0248L0.3,0.0255L0.4,0.0266L0.5,0.0276L0.6,0.027L0.7,0.0258L0.8,0.0218L0.9,0.014L0.95,0.0078L1,0.001L1,-0"
    />
</svg>
