
<svg 
  class="airfoil-bw3"
  fill="none"
  stroke="black" 
  stroke-width="1"
  style="overflow:visible"
  viewBox="0, -0.0778, 1, 0.092"
  xmlns="http://www.w3.org/2000/svg">
    <title>Bergey BW-3 (smoothed)</title>
    <path 
      vector-effect="non-scaling-stroke"
      d="M1,-0.0035L0.9975,-0.0054L0.9907,-0.0098L0.9804,-0.0148L0.967,-0.0192L0.9504,-0.0228L0.9306,-0.0259L0.9078,-0.0289L0.882,-0.0324L0.8537,-0.0364L0.8231,-0.0408L0.7905,-0.0456L0.7562,-0.0505L0.7204,-0.0554L0.6836,-0.06L0.6459,-0.0643L0.6078,-0.0681L0.5694,-0.0714L0.531,-0.074L0.4927,-0.076L0.4543,-0.0773L0.4164,-0.0778L0.3789,-0.0777L0.342,-0.077L0.3061,-0.0756L0.2712,-0.0736L0.2376,-0.071L0.2055,-0.0678L0.175,-0.0637L0.1465,-0.059L0.12,-0.0536L0.0958,-0.0478L0.074,-0.0419L0.0547,-0.0361L0.0381,-0.0308L0.0243,-0.0257L0.0134,-0.0204L0.0055,-0.0144L0.001,-0.0076L0,-0.0024L0.001,0.0027L0.0055,0.0085L0.0134,0.0122L0.0243,0.0139L0.0381,0.0142L0.0547,0.0126L0.074,0.0083L0.0958,0.0018L0.12,-0.0053L0.1465,-0.0117L0.175,-0.0174L0.2055,-0.0224L0.2376,-0.0266L0.2712,-0.0301L0.3061,-0.0329L0.342,-0.0351L0.3789,-0.0369L0.4164,-0.038L0.4543,-0.0385L0.4927,-0.0382L0.531,-0.037L0.5694,-0.0353L0.6078,-0.033L0.6459,-0.0304L0.6836,-0.0275L0.7204,-0.0243L0.7562,-0.0209L0.7905,-0.0173L0.8231,-0.0138L0.8537,-0.0103L0.882,-0.007L0.9078,-0.004L0.9306,-0.0013L0.9504,0.0014L0.967,0.0046L0.9804,0.0074L0.9907,0.0075L0.9975,0.0049L1,0.0031"
    />
</svg>
