
<svg 
  class="airfoil-c141a"
  fill="none"
  stroke="black" 
  stroke-width="1"
  style="overflow:visible"
  viewBox="0, -0.0745, 1, 0.1301"
  xmlns="http://www.w3.org/2000/svg">
    <title>LOCKHEED C-141 BL0 AIRFOIL</title>
    <path 
      vector-effect="non-scaling-stroke"
      d="M1,-0.0005L0.9976,-0.0012L0.9904,-0.0031L0.9785,-0.0062L0.9619,-0.0104L0.941,-0.0156L0.9157,-0.0217L0.8865,-0.0283L0.8536,-0.0352L0.8172,-0.0423L0.7778,-0.0491L0.7357,-0.0552L0.6913,-0.0603L0.6451,-0.0648L0.5975,-0.0686L0.549,-0.0715L0.5,-0.0734L0.451,-0.0745L0.4025,-0.0745L0.3549,-0.0736L0.3087,-0.0718L0.2643,-0.0693L0.2222,-0.066L0.1828,-0.0622L0.1464,-0.0578L0.1135,-0.0528L0.0843,-0.0472L0.059,-0.0411L0.0381,-0.0344L0.0215,-0.0271L0.0096,-0.0193L0.0024,-0.0108L0,-0L0.0024,0.0077L0.0096,0.0156L0.0215,0.0227L0.0381,0.029L0.059,0.0345L0.0843,0.0392L0.1135,0.0433L0.1464,0.0467L0.1828,0.0496L0.2222,0.052L0.2643,0.0538L0.3087,0.055L0.3549,0.0556L0.4025,0.0554L0.451,0.0545L0.5,0.0527L0.549,0.0501L0.5975,0.0469L0.6451,0.0429L0.6913,0.0384L0.7357,0.0336L0.7778,0.029L0.8172,0.0247L0.8536,0.0205L0.8865,0.0164L0.9157,0.0127L0.941,0.0093L0.9619,0.0062L0.9785,0.0038L0.9904,0.002L0.9976,0.0009L1,0.0005"
    />
</svg>
