
<svg 
  class="airfoil-c141f"
  fill="none"
  stroke="black" 
  stroke-width="1"
  style="overflow:visible"
  viewBox="0, -0.073, 1, 0.100099996"
  xmlns="http://www.w3.org/2000/svg">
    <title>LOCKHEED C-141 BL958.89 AIRFOIL</title>
    <path 
      vector-effect="non-scaling-stroke"
      d="M1,-0.0016L0.9976,-0.0022L0.9904,-0.004L0.9785,-0.0069L0.9619,-0.011L0.941,-0.0161L0.9157,-0.0222L0.8865,-0.029L0.8536,-0.0355L0.8172,-0.0415L0.7778,-0.0474L0.7357,-0.0531L0.6913,-0.0583L0.6451,-0.0628L0.5975,-0.0666L0.549,-0.0696L0.5,-0.0717L0.451,-0.0728L0.4025,-0.073L0.3549,-0.0723L0.3087,-0.0708L0.2643,-0.0687L0.2222,-0.0662L0.1828,-0.0633L0.1464,-0.0599L0.1135,-0.0555L0.0843,-0.05L0.059,-0.0439L0.0381,-0.0372L0.0215,-0.029L0.0096,-0.0206L0.0024,-0.0118L0,-0L0.0024,0.0101L0.0096,0.0178L0.0215,0.0226L0.0381,0.0248L0.059,0.0259L0.0843,0.0259L0.1135,0.0258L0.1464,0.0258L0.1828,0.0263L0.2222,0.0266L0.2643,0.0269L0.3087,0.0271L0.3549,0.0271L0.4025,0.027L0.451,0.0264L0.5,0.0254L0.549,0.024L0.5975,0.0222L0.6451,0.0201L0.6913,0.018L0.7357,0.016L0.7778,0.0139L0.8172,0.0119L0.8536,0.01L0.8865,0.0081L0.9157,0.0065L0.941,0.0051L0.9619,0.0039L0.9785,0.0029L0.9904,0.0022L0.9976,0.0018L1,0.0016"
    />
</svg>
