
<svg 
  class="airfoil-c141e"
  fill="none"
  stroke="black" 
  stroke-width="1"
  style="overflow:visible"
  viewBox="0, -0.0702, 1, 0.10530001"
  xmlns="http://www.w3.org/2000/svg">
    <title>LOCKHEED C-141 BL761.11 AIRFOIL</title>
    <path 
      vector-effect="non-scaling-stroke"
      d="M1,-0.0013L0.9976,-0.0018L0.9904,-0.0036L0.9785,-0.0065L0.9619,-0.0105L0.941,-0.0154L0.9157,-0.0211L0.8865,-0.0272L0.8536,-0.0333L0.8172,-0.0393L0.7778,-0.0453L0.7357,-0.0509L0.6913,-0.056L0.6451,-0.0605L0.5975,-0.0642L0.549,-0.0671L0.5,-0.0691L0.451,-0.0701L0.4025,-0.0702L0.3549,-0.0694L0.3087,-0.0679L0.2643,-0.0656L0.2222,-0.0628L0.1828,-0.0595L0.1464,-0.0557L0.1135,-0.0512L0.0843,-0.0458L0.059,-0.0401L0.0381,-0.0338L0.0215,-0.0268L0.0096,-0.0194L0.0024,-0.0109L0,-0L0.0024,0.0079L0.0096,0.015L0.0215,0.0204L0.0381,0.0244L0.059,0.0271L0.0843,0.0289L0.1135,0.0303L0.1464,0.0315L0.1828,0.0328L0.2222,0.0337L0.2643,0.0344L0.3087,0.0349L0.3549,0.0351L0.4025,0.0349L0.451,0.0342L0.5,0.033L0.549,0.0314L0.5975,0.0292L0.6451,0.0267L0.6913,0.024L0.7357,0.0212L0.7778,0.0185L0.8172,0.0159L0.8536,0.0133L0.8865,0.0107L0.9157,0.0084L0.941,0.0063L0.9619,0.0045L0.9785,0.0031L0.9904,0.0021L0.9976,0.0015L1,0.0013"
    />
</svg>
