
<svg 
  class="airfoil-c141b"
  fill="none"
  stroke="black" 
  stroke-width="1"
  style="overflow:visible"
  viewBox="0, -0.0732, 1, 0.1266"
  xmlns="http://www.w3.org/2000/svg">
    <title>LOCKHEED C-141 BL113.6 AIRFOIL</title>
    <path 
      vector-effect="non-scaling-stroke"
      d="M1,-0.0006L0.9976,-0.0012L0.9904,-0.0031L0.9785,-0.0061L0.9619,-0.0103L0.941,-0.0153L0.9157,-0.0212L0.8865,-0.0276L0.8536,-0.0344L0.8172,-0.0413L0.7778,-0.048L0.7357,-0.054L0.6913,-0.059L0.6451,-0.0635L0.5975,-0.0673L0.549,-0.0702L0.5,-0.0722L0.451,-0.0732L0.4025,-0.0732L0.3549,-0.0724L0.3087,-0.0706L0.2643,-0.0681L0.2222,-0.0649L0.1828,-0.0611L0.1464,-0.0567L0.1135,-0.0518L0.0843,-0.0463L0.059,-0.0402L0.0381,-0.0336L0.0215,-0.0264L0.0096,-0.0187L0.0024,-0.0104L0,-0L0.0024,0.0076L0.0096,0.0153L0.0215,0.0222L0.0381,0.0282L0.059,0.0334L0.0843,0.038L0.1135,0.0418L0.1464,0.0451L0.1828,0.0479L0.2222,0.0501L0.2643,0.0518L0.3087,0.0529L0.3549,0.0534L0.4025,0.0532L0.451,0.0522L0.5,0.0505L0.549,0.048L0.5975,0.0449L0.6451,0.0411L0.6913,0.0369L0.7357,0.0323L0.7778,0.0281L0.8172,0.0239L0.8536,0.0197L0.8865,0.0159L0.9157,0.0123L0.941,0.0089L0.9619,0.006L0.9785,0.0037L0.9904,0.002L0.9976,0.001L1,0.0006"
    />
</svg>
