
<svg 
  class="airfoil-c141c"
  fill="none"
  stroke="black" 
  stroke-width="1"
  style="overflow:visible"
  viewBox="0, -0.0675, 1, 0.1101"
  xmlns="http://www.w3.org/2000/svg">
    <title>LOCKHEED C-141 BL426.57 AIRFOIL</title>
    <path 
      vector-effect="non-scaling-stroke"
      d="M1,-0.0009L0.9976,-0.0015L0.9904,-0.003L0.9785,-0.0056L0.9619,-0.0093L0.941,-0.0139L0.9157,-0.0192L0.8865,-0.0249L0.8536,-0.031L0.8172,-0.0372L0.7778,-0.0432L0.7357,-0.0488L0.6913,-0.0538L0.6451,-0.0582L0.5975,-0.0618L0.549,-0.0646L0.5,-0.0665L0.451,-0.0675L0.4025,-0.0675L0.3549,-0.0667L0.3087,-0.065L0.2643,-0.0626L0.2222,-0.0595L0.1828,-0.0559L0.1464,-0.0517L0.1135,-0.0469L0.0843,-0.0417L0.059,-0.036L0.0381,-0.0297L0.0215,-0.0231L0.0096,-0.016L0.0024,-0.0085L0,-0L0.0024,0.007L0.0096,0.0136L0.0215,0.0193L0.0381,0.024L0.059,0.0281L0.0843,0.0315L0.1135,0.0344L0.1464,0.0368L0.1828,0.0387L0.2222,0.0403L0.2643,0.0415L0.3087,0.0422L0.3549,0.0426L0.4025,0.0423L0.451,0.0415L0.5,0.0402L0.549,0.0383L0.5975,0.0359L0.6451,0.033L0.6913,0.0298L0.7357,0.0263L0.7778,0.0229L0.8172,0.0195L0.8536,0.0163L0.8865,0.0131L0.9157,0.0101L0.941,0.0075L0.9619,0.0052L0.9785,0.0033L0.9904,0.002L0.9976,0.0012L1,0.0009"
    />
</svg>
