
<svg 
  class="airfoil-c141d"
  fill="none"
  stroke="black" 
  stroke-width="1"
  style="overflow:visible"
  viewBox="0, -0.0688, 1, 0.1079"
  xmlns="http://www.w3.org/2000/svg">
    <title>LOCKHEED C-141 BL610.61 AIRFOIL</title>
    <path 
      vector-effect="non-scaling-stroke"
      d="M1,-0.0011L0.9976,-0.0016L0.9904,-0.0033L0.9785,-0.0061L0.9619,-0.0099L0.941,-0.0148L0.9157,-0.0202L0.8865,-0.0261L0.8536,-0.0321L0.8172,-0.0382L0.7778,-0.0442L0.7357,-0.0498L0.6913,-0.0548L0.6451,-0.0593L0.5975,-0.0629L0.549,-0.0658L0.5,-0.0677L0.451,-0.0687L0.4025,-0.0688L0.3549,-0.068L0.3087,-0.0664L0.2643,-0.0641L0.2222,-0.0611L0.1828,-0.0576L0.1464,-0.0536L0.1135,-0.0489L0.0843,-0.0438L0.059,-0.0383L0.0381,-0.0322L0.0215,-0.0252L0.0096,-0.0177L0.0024,-0.0097L0,-0L0.0024,0.0085L0.0096,0.0147L0.0215,0.0201L0.0381,0.0243L0.059,0.0277L0.0843,0.0301L0.1135,0.0325L0.1464,0.0343L0.1828,0.036L0.2222,0.0372L0.2643,0.0382L0.3087,0.0388L0.3549,0.0391L0.4025,0.0388L0.451,0.0381L0.5,0.0368L0.549,0.0351L0.5975,0.0327L0.6451,0.0301L0.6913,0.0271L0.7357,0.024L0.7778,0.0209L0.8172,0.0179L0.8536,0.015L0.8865,0.0121L0.9157,0.0093L0.941,0.0069L0.9619,0.0049L0.9785,0.0032L0.9904,0.002L0.9976,0.0013L1,0.0011"
    />
</svg>
