
<svg 
  class="airfoil-c5a"
  fill="none"
  stroke="black" 
  stroke-width="1"
  style="overflow:visible"
  viewBox="0, -0.0661, 1, 0.1315"
  xmlns="http://www.w3.org/2000/svg">
    <title>LOCKHEED C-5A BL0 AIRFOIL</title>
    <path 
      vector-effect="non-scaling-stroke"
      d="M1,-0.0013L0.9499,-0.0144L0.8999,-0.0251L0.8498,-0.034L0.7998,-0.0414L0.7497,-0.0477L0.6997,-0.0529L0.6497,-0.0571L0.5997,-0.0604L0.5496,-0.0631L0.4996,-0.0649L0.4496,-0.0661L0.3996,-0.0658L0.3496,-0.0648L0.2996,-0.0628L0.2497,-0.0597L0.1997,-0.0556L0.1797,-0.0533L0.1597,-0.0511L0.1397,-0.0485L0.1197,-0.0455L0.0998,-0.0426L0.0798,-0.0387L0.0598,-0.0341L0.0398,-0.0281L0.0199,-0.0204L0.0099,-0.014L0.0074,-0.0118L0.0049,-0.0093L0.0025,-0.006L0,-0L0.0026,0.0098L0.0051,0.0126L0.0076,0.0146L0.0101,0.0162L0.0201,0.0211L0.0402,0.0285L0.0602,0.0345L0.0802,0.0394L0.1002,0.0434L0.1203,0.0465L0.1403,0.0496L0.1603,0.0523L0.1803,0.0547L0.2003,0.057L0.2503,0.061L0.3004,0.0638L0.3504,0.0653L0.4004,0.0654L0.4504,0.0643L0.5003,0.0618L0.5503,0.0583L0.6003,0.0536L0.6503,0.0478L0.7002,0.0413L0.7502,0.0344L0.8002,0.0269L0.8501,0.0193L0.9001,0.0122L0.95,0.006L1,0.0013"
    />
</svg>
