
<svg 
  class="airfoil-c5b"
  fill="none"
  stroke="black" 
  stroke-width="1"
  style="overflow:visible"
  viewBox="0, -0.0674, 1, 0.1161"
  xmlns="http://www.w3.org/2000/svg">
    <title>LOCKHEED C-5A BL488.2 AIRFOIL</title>
    <path 
      vector-effect="non-scaling-stroke"
      d="M1,-0.0011L0.9499,-0.0141L0.8999,-0.0252L0.8498,-0.035L0.7998,-0.043L0.7497,-0.0497L0.6997,-0.0551L0.6497,-0.0594L0.5996,-0.0627L0.5496,-0.0652L0.4996,-0.0668L0.4496,-0.0674L0.3996,-0.0671L0.3496,-0.0659L0.2996,-0.0638L0.2496,-0.0606L0.1997,-0.0563L0.1797,-0.054L0.1597,-0.0517L0.1397,-0.0491L0.1197,-0.0461L0.0998,-0.0428L0.0798,-0.0391L0.0598,-0.0343L0.0398,-0.0282L0.0199,-0.0204L0.0099,-0.0139L0.0074,-0.0118L0.0049,-0.0091L0.0025,-0.0059L0,-0L0.0026,0.0097L0.0051,0.0128L0.0076,0.0148L0.0101,0.0164L0.0201,0.0208L0.0402,0.0267L0.0602,0.0312L0.0802,0.0346L0.1002,0.0373L0.1202,0.0392L0.1402,0.041L0.1602,0.0426L0.1803,0.0439L0.2003,0.0451L0.2503,0.0472L0.3003,0.0483L0.3503,0.0487L0.4003,0.0484L0.4503,0.0473L0.5003,0.0454L0.5502,0.0428L0.6002,0.0395L0.6502,0.0355L0.7002,0.0307L0.7501,0.0258L0.8001,0.0206L0.8501,0.0155L0.9001,0.0104L0.95,0.0056L1,0.0011"
    />
</svg>
