
<svg 
  class="airfoil-c5c"
  fill="none"
  stroke="black" 
  stroke-width="1"
  style="overflow:visible"
  viewBox="0, -0.068, 1, 0.1119"
  xmlns="http://www.w3.org/2000/svg">
    <title>LOCKHEED C-5A BL576 AIRFOIL</title>
    <path 
      vector-effect="non-scaling-stroke"
      d="M1,-0.0011L0.9499,-0.0135L0.8999,-0.0253L0.8498,-0.0351L0.7997,-0.0436L0.7497,-0.0504L0.6997,-0.0558L0.6497,-0.06L0.5996,-0.0634L0.5496,-0.0658L0.4996,-0.0674L0.4496,-0.068L0.3996,-0.0676L0.3496,-0.0663L0.2996,-0.0642L0.2496,-0.061L0.1997,-0.0566L0.1797,-0.0543L0.1597,-0.052L0.1397,-0.0494L0.1197,-0.0463L0.0998,-0.0427L0.0798,-0.039L0.0598,-0.0344L0.0398,-0.0283L0.0199,-0.0204L0.0099,-0.0139L0.0074,-0.0118L0.0049,-0.0092L0.0025,-0.0058L0,-0L0.0026,0.0098L0.0051,0.0128L0.0076,0.0147L0.0101,0.0163L0.0201,0.0207L0.0402,0.0262L0.0602,0.0303L0.0802,0.0333L0.1002,0.0356L0.1202,0.0371L0.1402,0.0387L0.1602,0.0399L0.1802,0.0408L0.2002,0.0417L0.2503,0.0432L0.3003,0.0439L0.3503,0.0439L0.4003,0.0435L0.4502,0.0424L0.5002,0.0407L0.5502,0.0383L0.6002,0.0355L0.6502,0.0319L0.7002,0.0278L0.7501,0.0234L0.8001,0.0189L0.8501,0.0145L0.9001,0.01L0.95,0.0055L1,0.0011"
    />
</svg>
