
<svg 
  class="airfoil-c5d"
  fill="none"
  stroke="black" 
  stroke-width="1"
  style="overflow:visible"
  viewBox="0, -0.0677, 1, 0.111"
  xmlns="http://www.w3.org/2000/svg">
    <title>LOCKHEED C-5A BL758.6 AIRFOIL</title>
    <path 
      vector-effect="non-scaling-stroke"
      d="M1,-0.0011L0.9499,-0.0133L0.8999,-0.0242L0.8498,-0.0335L0.7997,-0.0416L0.7497,-0.0485L0.6997,-0.054L0.6496,-0.0585L0.5996,-0.0622L0.5496,-0.0649L0.4996,-0.0668L0.4496,-0.0677L0.3996,-0.0675L0.3496,-0.0665L0.2996,-0.0644L0.2496,-0.0613L0.1997,-0.057L0.1797,-0.0547L0.1597,-0.0524L0.1397,-0.0499L0.1197,-0.0468L0.0997,-0.0435L0.0798,-0.0395L0.0598,-0.035L0.0398,-0.0289L0.0199,-0.0211L0.0099,-0.0145L0.0074,-0.0123L0.0049,-0.0097L0.0025,-0.0065L0,-0L0.0026,0.0098L0.0051,0.0132L0.0076,0.0151L0.0101,0.0167L0.0201,0.0211L0.0402,0.0264L0.0602,0.0302L0.0802,0.033L0.1002,0.035L0.1202,0.0364L0.1402,0.0377L0.1602,0.0388L0.1802,0.0397L0.2002,0.0405L0.2503,0.0419L0.3003,0.0429L0.3503,0.0433L0.4003,0.043L0.4503,0.0421L0.5002,0.0404L0.5502,0.0381L0.6002,0.035L0.6502,0.0316L0.7002,0.0273L0.7501,0.0228L0.8001,0.0183L0.8501,0.0137L0.9001,0.0093L0.95,0.0051L1,0.0011"
    />
</svg>
