
<svg 
  class="airfoil-c5e"
  fill="none"
  stroke="black" 
  stroke-width="1"
  style="overflow:visible"
  viewBox="0, -0.067, 1, 0.10780001"
  xmlns="http://www.w3.org/2000/svg">
    <title>LOCKHEED C-5A BL1256 AIRFOIL</title>
    <path 
      vector-effect="non-scaling-stroke"
      d="M1,-0.001L0.9499,-0.0092L0.8999,-0.0167L0.8498,-0.0235L0.7998,-0.0304L0.7497,-0.037L0.6997,-0.0437L0.6496,-0.0499L0.5996,-0.0553L0.5496,-0.0597L0.4995,-0.0634L0.4495,-0.0658L0.3995,-0.067L0.3495,-0.067L0.2995,-0.0658L0.2495,-0.0628L0.1996,-0.0587L0.1796,-0.0565L0.1596,-0.0543L0.1396,-0.0518L0.1196,-0.0489L0.0997,-0.0461L0.0797,-0.0422L0.0597,-0.0381L0.0398,-0.0323L0.0198,-0.0244L0.0099,-0.0176L0.0074,-0.0153L0.0049,-0.0122L0.0024,-0.0084L0,-0L0.0026,0.0098L0.0051,0.0142L0.0076,0.0167L0.0101,0.0187L0.0202,0.0236L0.0402,0.0279L0.0602,0.0302L0.0802,0.0315L0.1002,0.0321L0.1202,0.0325L0.1402,0.0327L0.1602,0.033L0.1802,0.0334L0.2003,0.0337L0.2503,0.0352L0.3003,0.0373L0.3503,0.0395L0.4003,0.0408L0.4503,0.0405L0.5003,0.0391L0.5503,0.0365L0.6002,0.0329L0.6502,0.0288L0.7002,0.0242L0.7501,0.0196L0.8001,0.0145L0.8501,0.0097L0.9,0.0053L0.95,0.0024L1,0.001"
    />
</svg>
