
<svg 
  class="airfoil-cal1215j"
  fill="none"
  stroke="black" 
  stroke-width="1"
  style="overflow:visible"
  viewBox="0, -0.0802, 1, 0.1189"
  xmlns="http://www.w3.org/2000/svg">
    <title>CAL1215j</title>
    <path 
      vector-effect="non-scaling-stroke"
      d="M1,-0L0.9979,-0.0003L0.992,-0.0012L0.9825,-0.0027L0.9696,-0.005L0.9536,-0.0079L0.9347,-0.0114L0.9131,-0.0154L0.8891,-0.02L0.8629,-0.0249L0.8346,-0.0301L0.8046,-0.0354L0.7729,-0.0407L0.7398,-0.046L0.7055,-0.0512L0.6702,-0.0561L0.634,-0.0608L0.5973,-0.065L0.5601,-0.0689L0.5228,-0.0722L0.4854,-0.075L0.4482,-0.0772L0.4115,-0.0789L0.3754,-0.0798L0.34,-0.0802L0.3057,-0.0798L0.2725,-0.0787L0.2406,-0.077L0.2103,-0.0745L0.1816,-0.0714L0.1546,-0.0676L0.1296,-0.0631L0.1065,-0.0581L0.0855,-0.0525L0.0667,-0.0465L0.0501,-0.0401L0.0358,-0.0334L0.0238,-0.0264L0.0142,-0.0195L0.007,-0.0127L0.0023,-0.0062L0,-0.0005L0.0012,0.0045L0.0058,0.0094L0.0133,0.0143L0.0235,0.019L0.0363,0.0232L0.0519,0.027L0.07,0.0303L0.0908,0.033L0.114,0.0352L0.1397,0.0369L0.1676,0.038L0.1977,0.0386L0.2298,0.0387L0.2636,0.0384L0.2991,0.0376L0.336,0.0365L0.3741,0.035L0.4131,0.0333L0.4529,0.0314L0.4931,0.0293L0.5335,0.027L0.5738,0.0247L0.6138,0.0224L0.6531,0.0201L0.6916,0.0178L0.7288,0.0156L0.7646,0.0136L0.7987,0.0117L0.8309,0.0099L0.8608,0.0083L0.8883,0.0069L0.9131,0.0056L0.9351,0.0045L0.954,0.0034L0.9698,0.0024L0.9825,0.0014L0.9919,0.0006L0.9979,0.0001L1,-0"
    />
</svg>
