
<svg 
  class="airfoil-cal2263m"
  fill="none"
  stroke="black" 
  stroke-width="1"
  style="overflow:visible"
  viewBox="0.0001, -0.0928, 0.9999, 0.1207"
  xmlns="http://www.w3.org/2000/svg">
    <title>CAL2263m</title>
    <path 
      vector-effect="non-scaling-stroke"
      d="M1,-0L0.9979,-0.0004L0.9919,-0.0017L0.9824,-0.0039L0.9696,-0.007L0.9539,-0.0111L0.9357,-0.0157L0.915,-0.0208L0.8919,-0.0262L0.8666,-0.0319L0.8393,-0.0378L0.8101,-0.0438L0.7793,-0.0498L0.7471,-0.0557L0.7136,-0.0615L0.6791,-0.0669L0.6437,-0.072L0.6077,-0.0767L0.5712,-0.0808L0.5344,-0.0845L0.4976,-0.0875L0.4609,-0.0899L0.4246,-0.0916L0.3888,-0.0925L0.3536,-0.0928L0.3194,-0.0922L0.2862,-0.0909L0.2542,-0.0888L0.2236,-0.086L0.1945,-0.0825L0.1671,-0.0782L0.1414,-0.0733L0.1176,-0.0678L0.0958,-0.0617L0.076,-0.0551L0.0583,-0.0482L0.0428,-0.041L0.0297,-0.0338L0.019,-0.0265L0.0107,-0.0191L0.0047,-0.0119L0.0012,-0.0051L0.0001,0.0011L0.0017,0.0061L0.0068,0.0101L0.0152,0.0138L0.0267,0.0172L0.0411,0.0201L0.0584,0.0225L0.0785,0.0245L0.1013,0.026L0.1266,0.027L0.1544,0.0277L0.1845,0.0279L0.2166,0.0276L0.2507,0.027L0.2865,0.0261L0.324,0.0248L0.3627,0.0234L0.4026,0.0219L0.4432,0.0204L0.4843,0.0189L0.5255,0.0174L0.5665,0.0159L0.6071,0.0144L0.647,0.0129L0.6859,0.0115L0.7236,0.0101L0.7598,0.0088L0.7943,0.0076L0.8268,0.0063L0.8571,0.0052L0.8851,0.0041L0.9105,0.0032L0.9331,0.0025L0.9525,0.0019L0.9688,0.0013L0.9819,0.0007L0.9917,0.0002L0.9979,0L1,-0"
    />
</svg>
