
<svg 
  class="airfoil-cal4014l"
  fill="none"
  stroke="black" 
  stroke-width="1"
  style="overflow:visible"
  viewBox="0.0002, -0.0682, 0.9998, 0.1005"
  xmlns="http://www.w3.org/2000/svg">
    <title>CAL4014l</title>
    <path 
      vector-effect="non-scaling-stroke"
      d="M1,-0L0.9982,0.0001L0.9927,0.0004L0.9835,0.0008L0.9704,0.0011L0.9536,0.0009L0.9335,0.0001L0.9102,-0.0012L0.8841,-0.0031L0.8552,-0.0057L0.8241,-0.0091L0.791,-0.0131L0.7563,-0.0178L0.7203,-0.023L0.6834,-0.0286L0.646,-0.0343L0.6083,-0.0401L0.5705,-0.0456L0.5328,-0.0506L0.4952,-0.0549L0.4578,-0.0588L0.4209,-0.062L0.3846,-0.0646L0.3491,-0.0665L0.3146,-0.0677L0.2813,-0.0682L0.2493,-0.0679L0.2187,-0.0669L0.1898,-0.0651L0.1626,-0.0626L0.1372,-0.0594L0.1138,-0.0555L0.0923,-0.0509L0.073,-0.0459L0.0558,-0.0404L0.0408,-0.0344L0.0281,-0.0283L0.0177,-0.0219L0.0097,-0.0156L0.0042,-0.0094L0.001,-0.0035L0.0002,0.0016L0.0028,0.0058L0.0089,0.01L0.0179,0.0142L0.0295,0.0183L0.0437,0.022L0.0604,0.0251L0.0797,0.0275L0.1017,0.0293L0.1263,0.0307L0.1532,0.0316L0.1824,0.0321L0.2138,0.0323L0.2469,0.0321L0.2819,0.0316L0.3182,0.0308L0.3559,0.0298L0.3945,0.0286L0.4339,0.0273L0.4738,0.0258L0.514,0.0242L0.5541,0.0225L0.594,0.0208L0.6332,0.0191L0.6717,0.0174L0.7091,0.0157L0.7451,0.0141L0.7795,0.0125L0.8122,0.011L0.8427,0.0096L0.8711,0.0082L0.897,0.0069L0.9203,0.0057L0.9408,0.0046L0.9583,0.0035L0.9729,0.0024L0.9844,0.0014L0.9929,0.0006L0.9982,0.0001L1,-0"
    />
</svg>
