
<svg 
  class="airfoil-cap21c"
  fill="none"
  stroke="black" 
  stroke-width="1"
  style="overflow:visible"
  viewBox="0, -0.0833, 1, 0.1557"
  xmlns="http://www.w3.org/2000/svg">
    <title>CAP 21 (TraCFoil)</title>
    <path 
      vector-effect="non-scaling-stroke"
      d="M1,-0L0.9998,-0L0.9993,-0.0001L0.9985,-0.0002L0.9973,-0.0003L0.9957,-0.0005L0.9938,-0.0004L0.9916,-0.0009L0.9891,-0.0012L0.976,-0.0027L0.2533,-0.0775L0.2386,-0.0789L0.1962,-0.0823L0.1571,-0.0833L0.1218,-0.081L0.0905,-0.0754L0.0633,-0.067L0.0408,-0.0561L0.0231,-0.0429L0.0103,-0.0276L0,-0L0.0103,0.0251L0.0231,0.0382L0.0408,0.0497L0.0633,0.0593L0.0905,0.0668L0.1218,0.0714L0.1571,0.0724L0.1962,0.0702L0.2386,0.0664L0.2533,0.0652L0.976,0.0022L0.9794,0.0019L0.983,0.0016L0.9862,0.0013L0.9916,0.0007L0.9984,0.0001L1,-0L0.9989,0.001"
    />
</svg>
