
<svg 
  class="airfoil-cast102"
  fill="none"
  stroke="black" 
  stroke-width="1"
  style="overflow:visible"
  viewBox="0, -0.0722, 1, 0.121800005"
  xmlns="http://www.w3.org/2000/svg">
    <title>CAST 10-2/DOA 2 AIRFOIL</title>
    <path 
      vector-effect="non-scaling-stroke"
      d="M1,-0.0025L0.9774,-0.0077L0.9498,-0.0139L0.9197,-0.0207L0.8745,-0.0307L0.8143,-0.0429L0.7542,-0.0533L0.6941,-0.0612L0.634,-0.0667L0.5739,-0.0699L0.5139,-0.0717L0.4539,-0.0722L0.3939,-0.0716L0.334,-0.07L0.2741,-0.0673L0.2141,-0.0633L0.1542,-0.0573L0.1143,-0.0516L0.0869,-0.0463L0.0645,-0.0407L0.0471,-0.0351L0.0346,-0.03L0.0247,-0.0251L0.0173,-0.0208L0.0123,-0.0176L0.0074,-0.0137L0.0025,-0.008L0.0008,-0.0046L0,-0L0.0012,0.005L0.0027,0.0072L0.0078,0.0106L0.0128,0.0123L0.0178,0.0136L0.0253,0.0152L0.0354,0.0173L0.0479,0.0197L0.0654,0.0225L0.088,0.0258L0.1156,0.0293L0.1556,0.0337L0.2157,0.0393L0.2758,0.0439L0.3358,0.0473L0.3958,0.0494L0.4558,0.0496L0.5157,0.0475L0.5757,0.0431L0.6356,0.0371L0.6955,0.0302L0.7554,0.0231L0.8153,0.0163L0.8752,0.0105L0.9201,0.0068L0.9501,0.0049L0.9776,0.0033L1,0.0025"
    />
</svg>
