
<svg 
  class="airfoil-ch10sm"
  fill="none"
  stroke="black" 
  stroke-width="1"
  style="overflow:visible"
  viewBox="0, -0.1624, 1, 0.17510001"
  xmlns="http://www.w3.org/2000/svg">
    <title>CH10 (smoothed)</title>
    <path 
      vector-effect="non-scaling-stroke"
      d="M1,-0L0.9975,-0.0017L0.9907,-0.0058L0.9804,-0.0111L0.967,-0.0172L0.9504,-0.0245L0.9306,-0.0332L0.9078,-0.0429L0.882,-0.0537L0.8537,-0.0652L0.8231,-0.0772L0.7905,-0.0894L0.7562,-0.1014L0.7204,-0.113L0.6836,-0.1238L0.6459,-0.1337L0.6078,-0.1424L0.5694,-0.1497L0.531,-0.1554L0.4927,-0.1594L0.4543,-0.1618L0.4164,-0.1624L0.3789,-0.1613L0.342,-0.1586L0.3061,-0.1543L0.2712,-0.1486L0.2376,-0.1415L0.2055,-0.1331L0.175,-0.1235L0.1465,-0.1129L0.12,-0.1013L0.0958,-0.089L0.074,-0.0761L0.0547,-0.0631L0.0381,-0.0503L0.0243,-0.0379L0.0134,-0.0261L0.0055,-0.0153L0.001,-0.0059L0,-0.0001L0.001,0.0045L0.0055,0.0091L0.0134,0.0118L0.0243,0.0127L0.0381,0.0121L0.0547,0.0103L0.074,0.0076L0.0958,0.0044L0.12,0.0008L0.1465,-0.0032L0.175,-0.0075L0.2055,-0.012L0.2376,-0.0167L0.2712,-0.0214L0.3061,-0.026L0.342,-0.0304L0.3789,-0.0346L0.4164,-0.0384L0.4543,-0.0418L0.4927,-0.0447L0.531,-0.0469L0.5694,-0.0485L0.6078,-0.0493L0.6459,-0.0493L0.6836,-0.0485L0.7204,-0.0467L0.7562,-0.0442L0.7905,-0.0411L0.8231,-0.0374L0.8537,-0.0332L0.882,-0.0287L0.9078,-0.0239L0.9306,-0.019L0.9504,-0.0141L0.967,-0.0094L0.9804,-0.0052L0.9907,-0.0021L0.9975,-0.0004L1,0.0001"
    />
</svg>
