
<svg 
  class="airfoil-chen"
  fill="none"
  stroke="black" 
  stroke-width="1"
  style="overflow:visible"
  viewBox="0, -0.14, 1, 0.1569"
  xmlns="http://www.w3.org/2000/svg">
    <title>CHEN AIRFOIL</title>
    <path 
      vector-effect="non-scaling-stroke"
      d="M1,-0L0.9988,-0.001L0.9954,-0.0027L0.989,-0.004L0.9803,-0.0068L0.9688,-0.0093L0.9546,-0.0118L0.9381,-0.0145L0.919,-0.0174L0.8976,-0.0206L0.8739,-0.024L0.8482,-0.0278L0.8205,-0.0319L0.7911,-0.0365L0.7601,-0.0414L0.7278,-0.0468L0.6943,-0.0524L0.6599,-0.0586L0.6249,-0.065L0.5895,-0.0718L0.554,-0.0789L0.5186,-0.0862L0.4836,-0.0938L0.4494,-0.1012L0.4161,-0.1087L0.384,-0.1158L0.3533,-0.1228L0.3246,-0.1295L0.2997,-0.1359L0.2772,-0.1396L0.2544,-0.14L0.232,-0.1385L0.2099,-0.1355L0.1885,-0.1313L0.168,-0.126L0.1482,-0.1198L0.1293,-0.1128L0.1115,-0.1052L0.0949,-0.0969L0.0793,-0.0882L0.0651,-0.0792L0.0522,-0.0699L0.0407,-0.0604L0.0305,-0.051L0.0221,-0.042L0.0148,-0.033L0.009,-0.0243L0.0047,-0.016L0.0018,-0.0085L0.0004,-0.0018L0,-0L0.0001,0.004L0.0012,0.0084L0.0032,0.0114L0.0062,0.0137L0.0106,0.0154L0.0176,0.0165L0.0265,0.0169L0.0376,0.0161L0.0518,0.014L0.0691,0.0104L0.0864,0.0063L0.1068,0.0021L0.1272,-0.0022L0.1496,-0.0069L0.176,-0.0111L0.2063,-0.0143L0.2264,-0.0154L0.2664,-0.0154L0.2962,-0.014L0.326,-0.0118L0.3588,-0.0089L0.3885,-0.0059L0.4178,-0.0029L0.4568,0.0004L0.4935,0.0029L0.5296,0.005L0.5649,0.0071L0.5994,0.0088L0.6332,0.01L0.6662,0.011L0.6983,0.012L0.7298,0.0128L0.76,0.0136L0.7888,0.0143L0.8164,0.0147L0.8425,0.0144L0.8669,0.0136L0.89,0.0127L0.9114,0.0113L0.9306,0.0098L0.948,0.0081L0.9631,0.0062L0.9756,0.0043L0.9856,0.0029L0.993,0.002L0.998,0.0008L1,-0"
    />
</svg>
