
<svg 
  class="airfoil-clarym15"
  fill="none"
  stroke="black" 
  stroke-width="1"
  style="overflow:visible"
  viewBox="0, -0.1087, 1, 0.1524"
  xmlns="http://www.w3.org/2000/svg">
    <title>CLARK YM-15 AIRFOIL</title>
    <path 
      vector-effect="non-scaling-stroke"
      d="M1,-0.0008L0.9495,-0.0147L0.899,-0.0279L0.7982,-0.052L0.6975,-0.0729L0.5969,-0.0899L0.4965,-0.1021L0.3963,-0.1087L0.2963,-0.1087L0.1965,-0.1014L0.1468,-0.0918L0.0973,-0.0772L0.0727,-0.0676L0.0481,-0.0554L0.0237,-0.0379L0.0116,-0.0249L0,-0L0.0132,0.0203L0.0259,0.0265L0.0512,0.0337L0.0763,0.0377L0.1014,0.0402L0.1515,0.0432L0.2015,0.0437L0.3014,0.0411L0.4013,0.0373L0.5011,0.0326L0.6009,0.0272L0.7007,0.0213L0.8005,0.0149L0.9003,0.008L0.9502,0.0044L1,0.0008"
    />
</svg>
