
<svg 
  class="airfoil-clarkz"
  fill="none"
  stroke="black" 
  stroke-width="1"
  style="overflow:visible"
  viewBox="0, -0.0982, 1, 0.1227"
  xmlns="http://www.w3.org/2000/svg">
    <title>CLARK Z AIRFOIL</title>
    <path 
      vector-effect="non-scaling-stroke"
      d="M1,-0.0012L0.95,-0.0135L0.9,-0.0252L0.8,-0.0467L0.7,-0.0652L0.6,-0.0805L0.5,-0.0916L0.4,-0.0977L0.3,-0.0982L0.2,-0.0905L0.15,-0.082L0.1,-0.0694L0.075,-0.061L0.05,-0.0507L0.025,-0.0356L0.0125,-0.0239L0,-0L0.0125,0.017L0.025,0.0207L0.05,0.0235L0.075,0.0245L0.1,0.0245L0.15,0.0235L0.2,0.0221L0.3,0.0193L0.4,0.0166L0.5,0.0138L0.6,0.011L0.7,0.0083L0.8,0.0055L0.9,0.0028L0.95,0.0014L1,-0"
    />
</svg>
