
<svg 
  class="airfoil-clarkys"
  fill="none"
  stroke="black" 
  stroke-width="1"
  style="overflow:visible"
  viewBox="0, -0.082, 1, 0.117"
  xmlns="http://www.w3.org/2000/svg">
    <title>CLARK YS AIRFOIL</title>
    <path 
      vector-effect="non-scaling-stroke"
      d="M1,-0L0.95,-0.003L0.9,-0.008L0.8,-0.019L0.7,-0.0385L0.6,-0.0565L0.5,-0.0702L0.4,-0.079L0.3,-0.082L0.2,-0.0786L0.15,-0.0718L0.1,-0.061L0.075,-0.0535L0.05,-0.044L0.025,-0.03L0.0125,-0.0195L0,-0L0.0125,0.0157L0.025,0.0203L0.05,0.0257L0.075,0.0287L0.1,0.0308L0.15,0.0335L0.2,0.0347L0.3,0.035L0.4,0.035L0.5,0.035L0.6,0.035L0.7,0.035L0.8,0.033L0.9,0.019L0.95,0.01L1,-0"
    />
</svg>
