
<svg 
  class="airfoil-clarkx"
  fill="none"
  stroke="black" 
  stroke-width="1"
  style="overflow:visible"
  viewBox="0, -0.09, 1, 0.121800005"
  xmlns="http://www.w3.org/2000/svg">
    <title>CLARK X AIRFOIL</title>
    <path 
      vector-effect="non-scaling-stroke"
      d="M1,-0.0012L0.95,-0.0129L0.9,-0.024L0.8,-0.0442L0.7,-0.0615L0.6,-0.0755L0.5,-0.0852L0.4,-0.09L0.3,-0.089L0.2,-0.0808L0.15,-0.0728L0.1,-0.0608L0.075,-0.0522L0.05,-0.0416L0.025,-0.0276L0.0125,-0.0186L0,-0L0.0125,0.0163L0.025,0.022L0.05,0.0272L0.075,0.0296L0.1,0.031L0.15,0.0318L0.2,0.0317L0.3,0.028L0.4,0.024L0.5,0.02L0.6,0.016L0.7,0.012L0.8,0.008L0.9,0.004L0.95,0.002L1,-0"
    />
</svg>
