
<svg 
  class="airfoil-clarkysm"
  fill="none"
  stroke="black" 
  stroke-width="1"
  style="overflow:visible"
  viewBox="0, -0.0932, 1, 0.1216"
  xmlns="http://www.w3.org/2000/svg">
    <title>CLARK-Y 11.7% smoothed</title>
    <path 
      vector-effect="non-scaling-stroke"
      d="M1,-0L0.9957,-0.0012L0.983,-0.0045L0.9619,-0.0097L0.933,-0.0166L0.8967,-0.0247L0.8536,-0.034L0.8044,-0.0439L0.75,-0.0541L0.6913,-0.064L0.6294,-0.0732L0.5653,-0.0811L0.5,-0.0872L0.4347,-0.0913L0.3706,-0.0931L0.3393,-0.0932L0.3087,-0.0927L0.2789,-0.0916L0.25,-0.09L0.2222,-0.0877L0.1956,-0.0848L0.1703,-0.0811L0.1464,-0.0766L0.1241,-0.0713L0.1033,-0.0655L0.0843,-0.0594L0.067,-0.0531L0.0516,-0.0468L0.0381,-0.0403L0.0265,-0.0335L0.017,-0.0265L0.0096,-0.0194L0.0043,-0.0125L0.0011,-0.0062L0,-0.0005L0.0011,0.0045L0.0043,0.009L0.0096,0.013L0.017,0.0165L0.0265,0.0196L0.0381,0.0221L0.0516,0.0241L0.067,0.0257L0.0843,0.0268L0.1033,0.0276L0.1241,0.0282L0.1464,0.0284L0.1703,0.0283L0.1956,0.028L0.2222,0.0273L0.25,0.0265L0.2789,0.0256L0.3087,0.0246L0.3393,0.0235L0.3706,0.0224L0.4347,0.0202L0.5,0.0179L0.5653,0.0157L0.6294,0.0135L0.6913,0.0113L0.75,0.0093L0.8044,0.0074L0.8536,0.0058L0.8967,0.0043L0.933,0.003L0.9619,0.0019L0.983,0.0009L0.9957,0.0003L1,-0"
    />
</svg>
