
<svg 
  class="airfoil-clarkyh"
  fill="none"
  stroke="black" 
  stroke-width="1"
  style="overflow:visible"
  viewBox="0, -0.119, 1, 0.119"
  xmlns="http://www.w3.org/2000/svg">
    <title>CLARK YH AIRFOIL</title>
    <path 
      vector-effect="non-scaling-stroke"
      d="M1,-0.021L0.95,-0.0285L0.9,-0.037L0.8,-0.056L0.7,-0.0755L0.6,-0.091L0.5,-0.105L0.4,-0.1145L0.3,-0.119L0.2,-0.113L0.15,-0.108L0.1,-0.098L0.075,-0.09L0.05,-0.081L0.025,-0.068L0,-0.041L0.025,-0.0185L0.05,-0.012L0.075,-0.007L0.1,-0.0045L0.15,-0L0.2,-0L0.3,-0L0.4,-0L0.5,-0L0.6,-0L0.7,-0L0.8,-0.004L0.9,-0.01L0.95,-0.0137L1,-0.02"
    />
</svg>
