
<svg 
  class="airfoil-clarym18"
  fill="none"
  stroke="black" 
  stroke-width="1"
  style="overflow:visible"
  viewBox="0, -0.1237, 1, 0.1819"
  xmlns="http://www.w3.org/2000/svg">
    <title>CLARK YM-18 AIRFOIL</title>
    <path 
      vector-effect="non-scaling-stroke"
      d="M1,-0.0009L0.9494,-0.0167L0.8989,-0.0315L0.798,-0.0586L0.6972,-0.0823L0.5965,-0.1016L0.496,-0.1156L0.3958,-0.1233L0.2957,-0.1237L0.196,-0.1158L0.1464,-0.1052L0.0969,-0.089L0.0723,-0.0781L0.0478,-0.0644L0.0235,-0.0444L0.0115,-0.0294L0,-0L0.0133,0.0247L0.0261,0.033L0.0515,0.0426L0.0767,0.0482L0.1018,0.052L0.152,0.0567L0.202,0.0582L0.3019,0.0561L0.4018,0.0519L0.5016,0.0461L0.6013,0.0389L0.7011,0.0307L0.8007,0.0214L0.9004,0.0115L0.9502,0.0063L1,0.0009"
    />
</svg>
