
<svg 
  class="airfoil-clarkv"
  fill="none"
  stroke="black" 
  stroke-width="1"
  style="overflow:visible"
  viewBox="0, -0.0914, 1, 0.120799996"
  xmlns="http://www.w3.org/2000/svg">
    <title>CLARK V AIRFOIL</title>
    <path 
      vector-effect="non-scaling-stroke"
      d="M1,-0.0014L0.95,-0.0164L0.9,-0.03L0.8,-0.0519L0.7,-0.0688L0.6,-0.081L0.5,-0.0887L0.4,-0.0914L0.3,-0.0886L0.2,-0.0796L0.15,-0.0715L0.1,-0.0601L0.075,-0.0522L0.05,-0.0424L0.025,-0.0289L0.0125,-0.0195L0,-0L0.0125,0.0138L0.025,0.0183L0.05,0.0231L0.075,0.0256L0.1,0.0274L0.15,0.029L0.2,0.0294L0.3,0.0278L0.4,0.0242L0.5,0.0202L0.6,0.0161L0.7,0.0121L0.8,0.0081L0.9,0.004L0.95,0.002L1,-0"
    />
</svg>
