
<svg 
  class="airfoil-clarky"
  fill="none"
  stroke="black" 
  stroke-width="1"
  style="overflow:visible"
  viewBox="0, -0.0916, 1, 0.1219"
  xmlns="http://www.w3.org/2000/svg">
    <title>CLARK Y AIRFOIL</title>
    <path 
      vector-effect="non-scaling-stroke"
      d="M1,-0.0006L0.99,-0.003L0.98,-0.0053L0.97,-0.0077L0.96,-0.01L0.94,-0.0146L0.92,-0.0191L0.9,-0.0235L0.88,-0.0278L0.86,-0.032L0.84,-0.0361L0.82,-0.04L0.8,-0.0439L0.78,-0.0476L0.76,-0.0513L0.74,-0.0548L0.72,-0.0582L0.7,-0.0614L0.68,-0.0646L0.66,-0.0676L0.64,-0.0705L0.62,-0.0732L0.6,-0.0758L0.58,-0.0781L0.56,-0.0803L0.54,-0.0824L0.52,-0.0842L0.5,-0.0859L0.48,-0.0874L0.46,-0.0886L0.44,-0.0897L0.42,-0.0906L0.4,-0.0912L0.38,-0.0915L0.36,-0.0916L0.34,-0.0915L0.32,-0.0912L0.3,-0.0907L0.28,-0.09L0.26,-0.0891L0.24,-0.0878L0.22,-0.0861L0.2,-0.0839L0.18,-0.0811L0.16,-0.0776L0.14,-0.0734L0.12,-0.0686L0.1,-0.063L0.08,-0.0564L0.06,-0.0488L0.05,-0.0443L0.04,-0.0391L0.03,-0.033L0.02,-0.0254L0.012,-0.0179L0.008,-0.0137L0.004,-0.0089L0.002,-0.0058L0.001,-0.0037L0.0005,-0.0023L0,-0L0.0005,0.0047L0.001,0.0059L0.002,0.0078L0.004,0.0105L0.008,0.0143L0.012,0.017L0.02,0.0203L0.03,0.0226L0.04,0.0245L0.05,0.026L0.06,0.0271L0.08,0.0285L0.1,0.0294L0.12,0.03L0.14,0.0302L0.16,0.0303L0.18,0.03L0.2,0.0297L0.22,0.0291L0.24,0.0285L0.26,0.0278L0.28,0.0271L0.3,0.0263L0.32,0.0256L0.34,0.0248L0.36,0.0241L0.38,0.0234L0.4,0.0226L0.42,0.0219L0.44,0.0212L0.46,0.0204L0.48,0.0197L0.5,0.019L0.52,0.0182L0.54,0.0175L0.56,0.0168L0.58,0.016L0.6,0.0153L0.62,0.0146L0.64,0.0138L0.66,0.0131L0.68,0.0124L0.7,0.0116L0.72,0.0109L0.74,0.0101L0.76,0.0094L0.78,0.0087L0.8,0.0079L0.82,0.0072L0.84,0.0065L0.86,0.0057L0.88,0.005L0.9,0.0043L0.92,0.0035L0.94,0.0028L0.96,0.0021L0.97,0.0017L0.98,0.0013L0.99,0.001L1,0.0006"
    />
</svg>
