
<svg 
  class="airfoil-clarkw"
  fill="none"
  stroke="black" 
  stroke-width="1"
  style="overflow:visible"
  viewBox="0, -0.0906, 1, 0.1201"
  xmlns="http://www.w3.org/2000/svg">
    <title>CLARK W AIRFOIL</title>
    <path 
      vector-effect="non-scaling-stroke"
      d="M1,-0.001L0.95,-0.0136L0.9,-0.0252L0.8,-0.0458L0.7,-0.0632L0.6,-0.0767L0.5,-0.086L0.4,-0.0906L0.3,-0.0905L0.2,-0.0831L0.15,-0.0749L0.1,-0.0625L0.075,-0.0545L0.05,-0.0444L0.025,-0.0312L0.0125,-0.022L0,-0L0.0125,0.0161L0.025,0.0205L0.05,0.0258L0.075,0.0283L0.1,0.0293L0.15,0.0295L0.2,0.0279L0.3,0.0217L0.4,0.0154L0.5,0.0128L0.6,0.0124L0.7,0.0121L0.8,0.0095L0.9,0.0055L0.95,0.0029L1,-0"
    />
</svg>
