
<svg 
  class="airfoil-coanda3"
  fill="none"
  stroke="black" 
  stroke-width="1"
  style="overflow:visible"
  viewBox="0, -0.077, 1, 0.077"
  xmlns="http://www.w3.org/2000/svg">
    <title>Coanda 3</title>
    <path 
      vector-effect="non-scaling-stroke"
      d="M1,-0.007L0.95,-0.0185L0.9,-0.028L0.8,-0.045L0.7,-0.0572L0.6,-0.067L0.5,-0.074L0.4,-0.077L0.3,-0.077L0.2,-0.074L0.15,-0.0695L0.1,-0.062L0.075,-0.056L0.05,-0.048L0.025,-0.0362L0.0125,-0.0285L0,-0.017L0.0125,-0.0105L0.025,-0.0055L0.05,-0.0005L0.075,-0.0005L0.1,-0.002L0.15,-0.0045L0.2,-0.0055L0.3,-0.007L0.4,-0.007L0.5,-0.007L0.6,-0.005L0.7,-0.003L0.8,-0L0.9,-0.002L0.95,-0.003L1,-0.007"
    />
</svg>
