
<svg 
  class="airfoil-coanda1"
  fill="none"
  stroke="black" 
  stroke-width="1"
  style="overflow:visible"
  viewBox="0, -0.07, 1, 0.07"
  xmlns="http://www.w3.org/2000/svg">
    <title>Coanda 1</title>
    <path 
      vector-effect="non-scaling-stroke"
      d="M1,-0.01L0.95,-0.0195L0.9,-0.027L0.8,-0.04L0.7,-0.05L0.6,-0.0585L0.5,-0.065L0.4,-0.0695L0.3,-0.07L0.2,-0.067L0.15,-0.0632L0.1,-0.057L0.075,-0.0515L0.05,-0.0435L0.025,-0.0325L0.0125,-0.024L0,-0.014L0.0125,-0.007L0.025,-0.003L0.05,-0L0.075,-0.003L0.1,-0.007L0.15,-0.01L0.2,-0.0115L0.3,-0.0135L0.4,-0.0135L0.5,-0.0125L0.6,-0.011L0.7,-0.0085L0.8,-0.004L0.9,-0L0.95,-0.003L1,-0.01"
    />
</svg>
