
<svg 
  class="airfoil-coanda2"
  fill="none"
  stroke="black" 
  stroke-width="1"
  style="overflow:visible"
  viewBox="0, -0.073, 1, 0.073"
  xmlns="http://www.w3.org/2000/svg">
    <title>Coanda 2</title>
    <path 
      vector-effect="non-scaling-stroke"
      d="M1,-0.007L0.95,-0.017L0.9,-0.025L0.8,-0.039L0.7,-0.05L0.6,-0.058L0.5,-0.065L0.4,-0.07L0.3,-0.073L0.2,-0.071L0.15,-0.067L0.1,-0.06L0.075,-0.0545L0.05,-0.0465L0.025,-0.0355L0.0125,-0.027L0,-0.017L0.0125,-0.0088L0.025,-0.004L0.05,-0L0.075,-0.0025L0.1,-0.006L0.15,-0.009L0.2,-0.0112L0.3,-0.013L0.4,-0.013L0.5,-0.0125L0.6,-0.0115L0.7,-0.01L0.8,-0.007L0.9,-0.002L0.95,-0L1,-0.007"
    />
</svg>
