
<svg 
  class="airfoil-cootie"
  fill="none"
  stroke="black" 
  stroke-width="1"
  style="overflow:visible"
  viewBox="0, -0.1036, 1, 0.1036"
  xmlns="http://www.w3.org/2000/svg">
    <title>WACO COOTIE AIRFOIL</title>
    <path 
      vector-effect="non-scaling-stroke"
      d="M1,-0.005L0.95,-0.017L0.9,-0.028L0.8,-0.05L0.7,-0.07L0.6,-0.085L0.5,-0.097L0.4,-0.1036L0.3,-0.1036L0.2,-0.0956L0.15,-0.0864L0.1,-0.073L0.075,-0.064L0.05,-0.0538L0.025,-0.0394L0.0125,-0.029L0,-0.011L0.0125,-0.001L0.025,-0L0.05,-0L0.075,-0.0026L0.1,-0.0064L0.15,-0.012L0.2,-0.015L0.3,-0.019L0.4,-0.022L0.5,-0.0212L0.6,-0.0164L0.7,-0.0124L0.8,-0.0084L0.9,-0.004L0.95,-0.002L1,-0"
    />
</svg>
