
<svg 
  class="airfoil-cr001sm"
  fill="none"
  stroke="black" 
  stroke-width="1"
  style="overflow:visible"
  viewBox="0, -0.0748, 1, 0.085"
  xmlns="http://www.w3.org/2000/svg">
    <title>cr001sm</title>
    <path 
      vector-effect="non-scaling-stroke"
      d="M1,0L0.9975,-0.0009L0.9907,-0.0029L0.9804,-0.0053L0.967,-0.0083L0.9504,-0.012L0.9306,-0.0162L0.9078,-0.0207L0.882,-0.0256L0.8537,-0.0306L0.8231,-0.0357L0.7905,-0.0408L0.7562,-0.0459L0.7204,-0.0507L0.6836,-0.0552L0.6459,-0.0593L0.6078,-0.0631L0.5694,-0.0664L0.531,-0.0692L0.4927,-0.0715L0.4543,-0.0732L0.4164,-0.0743L0.3789,-0.0748L0.342,-0.0746L0.3061,-0.0736L0.2712,-0.072L0.2376,-0.0697L0.2055,-0.0667L0.175,-0.0632L0.1465,-0.059L0.12,-0.0543L0.0958,-0.049L0.074,-0.0431L0.0547,-0.0368L0.0381,-0.0302L0.0243,-0.0234L0.0134,-0.0165L0.0055,-0.0098L0.001,-0.0037L0,0.0001L0.001,0.0033L0.0055,0.0065L0.0134,0.0083L0.0243,0.0093L0.0381,0.0099L0.0547,0.0102L0.074,0.0101L0.0958,0.0097L0.12,0.0089L0.1465,0.0079L0.175,0.0066L0.2055,0.005L0.2376,0.0032L0.2712,0.0013L0.3061,-0.0006L0.342,-0.0026L0.3789,-0.0045L0.4164,-0.0063L0.4543,-0.008L0.4927,-0.0095L0.531,-0.0107L0.5694,-0.0118L0.6078,-0.0125L0.6459,-0.013L0.6836,-0.0131L0.7204,-0.013L0.7562,-0.0125L0.7905,-0.0117L0.8231,-0.0107L0.8537,-0.0094L0.882,-0.008L0.9078,-0.0064L0.9306,-0.0049L0.9504,-0.0035L0.967,-0.0023L0.9804,-0.0013L0.9907,-0.0006L0.9975,-0.0001L1,0"
    />
</svg>
