
<svg 
  class="airfoil-cr1"
  fill="none"
  stroke="black" 
  stroke-width="1"
  style="overflow:visible"
  viewBox="0, -0.1062, 1, 0.1384"
  xmlns="http://www.w3.org/2000/svg">
    <title>CURTISS CR-1 AIRFOIL</title>
    <path 
      vector-effect="non-scaling-stroke"
      d="M1,-0L0.99,-0.0027L0.98,-0.0053L0.97,-0.0079L0.96,-0.0105L0.94,-0.0154L0.92,-0.0202L0.9,-0.025L0.88,-0.0298L0.86,-0.0347L0.84,-0.0395L0.82,-0.0443L0.8,-0.049L0.78,-0.0535L0.76,-0.0578L0.74,-0.062L0.72,-0.0661L0.7,-0.0701L0.68,-0.0741L0.66,-0.0779L0.64,-0.0817L0.62,-0.0852L0.6,-0.0884L0.58,-0.0914L0.56,-0.094L0.54,-0.0964L0.52,-0.0985L0.5,-0.1003L0.48,-0.1019L0.46,-0.1032L0.44,-0.1043L0.42,-0.1051L0.4,-0.1057L0.38,-0.1061L0.36,-0.1062L0.34,-0.1061L0.32,-0.1057L0.3,-0.1051L0.28,-0.1041L0.26,-0.1029L0.24,-0.1012L0.22,-0.0992L0.2,-0.0968L0.18,-0.0938L0.16,-0.0903L0.14,-0.0862L0.12,-0.0812L0.1,-0.0748L0.08,-0.0667L0.06,-0.0572L0.05,-0.0515L0.04,-0.0449L0.03,-0.0372L0.02,-0.0285L0.012,-0.0205L0.008,-0.0159L0.004,-0.0105L0.002,-0.0069L0.001,-0.0045L0.0005,-0.0029L0,-0L0.0005,0.0049L0.001,0.0064L0.002,0.0085L0.004,0.0115L0.008,0.0159L0.012,0.019L0.02,0.0233L0.03,0.0265L0.04,0.0288L0.05,0.0304L0.06,0.0314L0.08,0.0322L0.1,0.0319L0.12,0.0311L0.14,0.0299L0.16,0.0283L0.18,0.0264L0.2,0.0245L0.22,0.0226L0.24,0.0208L0.26,0.0192L0.28,0.0177L0.3,0.0164L0.32,0.0152L0.34,0.0141L0.36,0.0132L0.38,0.0123L0.4,0.0116L0.42,0.0109L0.44,0.0103L0.46,0.0097L0.48,0.0092L0.5,0.0088L0.52,0.0085L0.54,0.0082L0.56,0.0079L0.58,0.0077L0.6,0.0075L0.62,0.0074L0.64,0.0072L0.66,0.0071L0.68,0.0069L0.7,0.0068L0.72,0.0066L0.74,0.0065L0.76,0.0064L0.78,0.0063L0.8,0.0063L0.82,0.0062L0.84,0.0062L0.86,0.0061L0.88,0.0059L0.9,0.0055L0.92,0.005L0.94,0.0041L0.96,0.003L0.97,0.0023L0.98,0.0016L0.99,0.0008L1,0"
    />
</svg>
