
<svg 
  class="airfoil-curtisc72"
  fill="none"
  stroke="black" 
  stroke-width="1"
  style="overflow:visible"
  viewBox="0, -0.1173, 1, 0.1173"
  xmlns="http://www.w3.org/2000/svg">
    <title>Curtis C-72</title>
    <path 
      vector-effect="non-scaling-stroke"
      d="M1,-0.001L0.95,-0.0152L0.9,-0.028L0.8,-0.0523L0.7,-0.0736L0.6,-0.0915L0.5,-0.1053L0.4,-0.1141L0.3,-0.1173L0.2,-0.1136L0.15,-0.1069L0.1,-0.096L0.075,-0.0885L0.05,-0.0789L0.025,-0.0651L0.0125,-0.0555L0,-0.0349L0.0125,-0.0192L0.025,-0.0147L0.05,-0.0093L0.075,-0.0064L0.1,-0.0043L0.15,-0.0016L0.2,-0.0003L0.3,-0L0.4,-0.0021L0.5,-0.0059L0.6,-0.0085L0.7,-0.0091L0.8,-0.0072L0.9,-0.004L0.95,-0.0021L1,-0"
    />
</svg>
