
<svg 
  class="airfoil-dae11"
  fill="none"
  stroke="black" 
  stroke-width="1"
  style="overflow:visible"
  viewBox="0, -0.1289, 1, 0.14400001"
  xmlns="http://www.w3.org/2000/svg">
    <title>DAE-11 AIRFOIL</title>
    <path 
      vector-effect="non-scaling-stroke"
      d="M1,0L0.9865,-0.0025L0.97,-0.0056L0.9479,-0.01L0.9186,-0.0164L0.888,-0.0236L0.858,-0.0311L0.828,-0.0392L0.7978,-0.0476L0.7674,-0.0564L0.7366,-0.0655L0.7057,-0.0747L0.6752,-0.0837L0.6454,-0.0922L0.6163,-0.1L0.5876,-0.1069L0.5591,-0.1128L0.5307,-0.1178L0.502,-0.1218L0.4732,-0.1249L0.4443,-0.1271L0.4153,-0.1284L0.3862,-0.1289L0.3571,-0.1284L0.3281,-0.127L0.2991,-0.1248L0.2704,-0.1217L0.2419,-0.1176L0.2138,-0.1126L0.1861,-0.1066L0.1591,-0.0995L0.1329,-0.0915L0.1079,-0.0825L0.0844,-0.0726L0.0629,-0.0618L0.044,-0.0505L0.0284,-0.0393L0.0165,-0.0287L0.0083,-0.0193L0.0033,-0.0115L0.0008,-0.0051L0,-0L0.0005,0.0035L0.002,0.0064L0.0044,0.0088L0.0081,0.0107L0.0141,0.0124L0.0246,0.0139L0.0415,0.0149L0.0649,0.0151L0.0926,0.0145L0.1226,0.0133L0.1537,0.0117L0.1854,0.01L0.2174,0.0081L0.2497,0.0061L0.2822,0.0041L0.3146,0.0021L0.347,0.0001L0.3792,-0.0018L0.4114,-0.0035L0.4436,-0.0052L0.4756,-0.0067L0.5076,-0.0081L0.5395,-0.0093L0.5713,-0.0103L0.6031,-0.011L0.6349,-0.0116L0.6666,-0.0119L0.6984,-0.0119L0.7301,-0.0118L0.7618,-0.0114L0.7934,-0.0108L0.825,-0.0099L0.8566,-0.0088L0.8883,-0.0073L0.92,-0.0056L0.948,-0.0039L0.9697,-0.0023L0.9863,-0.0011L1,-0"
    />
</svg>
