
<svg 
  class="airfoil-dae21"
  fill="none"
  stroke="black" 
  stroke-width="1"
  style="overflow:visible"
  viewBox="0, -0.1227, 1, 0.13769999"
  xmlns="http://www.w3.org/2000/svg">
    <title>DAE-21 AIRFOIL</title>
    <path 
      vector-effect="non-scaling-stroke"
      d="M1,0L0.9867,-0.0024L0.9704,-0.0055L0.9477,-0.0101L0.9177,-0.0167L0.8873,-0.0241L0.8572,-0.032L0.8269,-0.0403L0.7963,-0.049L0.7653,-0.0579L0.7342,-0.0669L0.7034,-0.0756L0.6729,-0.0838L0.6427,-0.0914L0.6128,-0.0982L0.5832,-0.1041L0.5537,-0.1092L0.5244,-0.1135L0.4952,-0.1169L0.466,-0.1195L0.4368,-0.1214L0.4075,-0.1224L0.3782,-0.1227L0.349,-0.1222L0.3198,-0.1208L0.2908,-0.1186L0.262,-0.1156L0.2335,-0.1116L0.2055,-0.1068L0.1779,-0.101L0.1511,-0.0943L0.1252,-0.0865L0.1004,-0.0778L0.0773,-0.0681L0.0563,-0.0577L0.0382,-0.0467L0.0235,-0.0359L0.0128,-0.0257L0.0059,-0.0168L0.0019,-0.0094L0,-0L0.0008,0.0052L0.0022,0.008L0.0044,0.0102L0.0078,0.0121L0.0136,0.0135L0.0243,0.0146L0.0417,0.015L0.066,0.0144L0.0946,0.013L0.1253,0.0111L0.1569,0.0088L0.189,0.0065L0.2214,0.0041L0.2537,0.0017L0.2859,-0.0006L0.3181,-0.0029L0.3502,-0.005L0.3822,-0.007L0.4141,-0.0089L0.446,-0.0106L0.4778,-0.0121L0.5095,-0.0134L0.5411,-0.0145L0.5728,-0.0153L0.6044,-0.0159L0.6359,-0.0162L0.6675,-0.0163L0.6991,-0.016L0.7306,-0.0156L0.7621,-0.0148L0.7936,-0.0138L0.8251,-0.0124L0.8565,-0.0108L0.8882,-0.0088L0.92,-0.0066L0.9485,-0.0044L0.9702,-0.0026L0.9866,-0.0012L1,-0"
    />
</svg>
