
<svg 
  class="airfoil-dae31"
  fill="none"
  stroke="black" 
  stroke-width="1"
  style="overflow:visible"
  viewBox="0, -0.1199, 1, 0.1359"
  xmlns="http://www.w3.org/2000/svg">
    <title>DAE-31 AIRFOIL</title>
    <path 
      vector-effect="non-scaling-stroke"
      d="M1,-0L0.9837,-0.0037L0.9648,-0.0082L0.9423,-0.0139L0.9151,-0.0212L0.8847,-0.0297L0.8544,-0.0386L0.8239,-0.0478L0.7933,-0.0571L0.7634,-0.066L0.734,-0.0743L0.705,-0.0819L0.676,-0.0888L0.647,-0.0949L0.6179,-0.1004L0.5887,-0.1052L0.5593,-0.1092L0.5298,-0.1126L0.5001,-0.1154L0.4703,-0.1175L0.4405,-0.119L0.4108,-0.1198L0.3811,-0.1199L0.3515,-0.1193L0.3222,-0.118L0.293,-0.116L0.2641,-0.1132L0.2356,-0.1095L0.2075,-0.105L0.18,-0.0997L0.1532,-0.0934L0.1275,-0.0862L0.1031,-0.0781L0.0803,-0.0691L0.0597,-0.0592L0.0417,-0.0487L0.0267,-0.038L0.0152,-0.0275L0.0073,-0.0181L0.0026,-0.0102L0.0003,-0.0041L0,-0L0.0002,0.0032L0.0012,0.0071L0.003,0.0101L0.0057,0.0123L0.01,0.0141L0.0172,0.0153L0.0297,0.016L0.049,0.0156L0.0743,0.0142L0.103,0.0119L0.1333,0.0092L0.1645,0.0063L0.1962,0.0033L0.2281,0.0003L0.2602,-0.0026L0.2921,-0.0053L0.324,-0.0079L0.3558,-0.0104L0.3875,-0.0126L0.4191,-0.0147L0.4507,-0.0165L0.4822,-0.018L0.5136,-0.0193L0.545,-0.0202L0.5764,-0.0209L0.6077,-0.0212L0.639,-0.0213L0.6702,-0.021L0.7015,-0.0204L0.7327,-0.0195L0.7638,-0.0183L0.795,-0.0168L0.8261,-0.015L0.8572,-0.0129L0.8888,-0.0105L0.9193,-0.0079L0.9456,-0.0055L0.9671,-0.0034L0.9849,-0.0016L1,-0"
    />
</svg>
