
<svg 
  class="airfoil-dae51"
  fill="none"
  stroke="black" 
  stroke-width="1"
  style="overflow:visible"
  viewBox="0, -0.0856, 1, 0.10170001"
  xmlns="http://www.w3.org/2000/svg">
    <title>DAE-51 AIRFOIL</title>
    <path 
      vector-effect="non-scaling-stroke"
      d="M1,-0.001L0.9892,-0.003L0.9758,-0.0055L0.9574,-0.009L0.9316,-0.014L0.9016,-0.0199L0.8708,-0.0261L0.84,-0.0322L0.8093,-0.0383L0.7788,-0.0441L0.7485,-0.0497L0.7183,-0.055L0.6883,-0.0599L0.6584,-0.0644L0.6286,-0.0685L0.5988,-0.0722L0.5689,-0.0754L0.539,-0.0782L0.509,-0.0806L0.4789,-0.0826L0.4488,-0.0841L0.4188,-0.0851L0.3888,-0.0856L0.3588,-0.0856L0.329,-0.085L0.2992,-0.0837L0.2697,-0.0819L0.2403,-0.0793L0.2113,-0.0761L0.1827,-0.0722L0.1546,-0.0674L0.1273,-0.0618L0.1011,-0.0553L0.0765,-0.0479L0.054,-0.0397L0.0348,-0.0311L0.02,-0.0228L0.01,-0.0154L0.0042,-0.0096L0,-0L0.0001,0.0015L0.001,0.0041L0.0028,0.0064L0.006,0.0085L0.012,0.0106L0.0227,0.0127L0.0403,0.0145L0.0642,0.0156L0.0919,0.0161L0.1213,0.0159L0.1516,0.0154L0.1822,0.0146L0.2132,0.0136L0.2443,0.0124L0.2755,0.0111L0.3068,0.0097L0.3382,0.0083L0.3697,0.0069L0.4012,0.0055L0.4326,0.0042L0.464,0.0029L0.4953,0.0016L0.5266,0.0004L0.5579,-0.0007L0.5892,-0.0017L0.6204,-0.0026L0.6515,-0.0034L0.6826,-0.0041L0.7137,-0.0046L0.7447,-0.0049L0.7756,-0.0051L0.8065,-0.005L0.8374,-0.0048L0.8681,-0.0043L0.899,-0.0035L0.9299,-0.0024L0.9566,-0.0012L0.9754,-0.0003L0.989,0.0004L1,0.001"
    />
</svg>
