
<svg 
  class="airfoil-davissm"
  fill="none"
  stroke="black" 
  stroke-width="1"
  style="overflow:visible"
  viewBox="0, -0.0871, 1, 0.0961"
  xmlns="http://www.w3.org/2000/svg">
    <title>davissm</title>
    <path 
      vector-effect="non-scaling-stroke"
      d="M1,-0.0059L0.9975,-0.0072L0.9907,-0.0101L0.9804,-0.0131L0.967,-0.0159L0.9504,-0.0192L0.9306,-0.0234L0.9078,-0.0283L0.882,-0.0338L0.8537,-0.0398L0.8231,-0.046L0.7905,-0.0522L0.7562,-0.0582L0.7204,-0.0639L0.6836,-0.0691L0.6459,-0.0737L0.6078,-0.0777L0.5694,-0.0811L0.531,-0.0837L0.4927,-0.0856L0.4543,-0.0868L0.4164,-0.0871L0.3789,-0.0867L0.342,-0.0855L0.3061,-0.0834L0.2712,-0.0805L0.2376,-0.0768L0.2055,-0.0723L0.175,-0.067L0.1465,-0.0608L0.12,-0.0541L0.0958,-0.047L0.074,-0.04L0.0547,-0.0336L0.0381,-0.0276L0.0243,-0.0216L0.0134,-0.0155L0.0055,-0.0096L0.001,-0.0038L0,0L0.001,0.0035L0.0055,0.0073L0.0134,0.009L0.0243,0.0084L0.0381,0.0065L0.0547,0.0038L0.074,0.0009L0.0958,-0.0022L0.12,-0.0055L0.1465,-0.0088L0.175,-0.0122L0.2055,-0.0156L0.2376,-0.0188L0.2712,-0.0219L0.3061,-0.0247L0.342,-0.0271L0.3789,-0.029L0.4164,-0.0305L0.4543,-0.0314L0.4927,-0.0318L0.531,-0.0317L0.5694,-0.031L0.6078,-0.0299L0.6459,-0.0282L0.6836,-0.0261L0.7204,-0.0236L0.7562,-0.0208L0.7905,-0.0178L0.8231,-0.0145L0.8537,-0.0112L0.882,-0.008L0.9078,-0.0049L0.9306,-0.0019L0.9504,0.0009L0.967,0.0034L0.9804,0.0053L0.9907,0.0062L0.9975,0.0061L1,0.0059"
    />
</svg>
