
<svg 
  class="airfoil-davis_corrected"
  fill="none"
  stroke="black" 
  stroke-width="1"
  style="overflow:visible"
  viewBox="0, -0.1043, 1, 0.1591"
  xmlns="http://www.w3.org/2000/svg">
    <title>DAVIS BASIC B-24 WING AIRFOIL</title>
    <path 
      vector-effect="non-scaling-stroke"
      d="M1,-0L0.9734,-0.0039L0.9473,-0.0079L0.9214,-0.012L0.896,-0.0161L0.8709,-0.0203L0.8462,-0.0245L0.8218,-0.0287L0.7978,-0.0329L0.7742,-0.0371L0.751,-0.0413L0.7281,-0.0455L0.7056,-0.0496L0.6835,-0.0537L0.6617,-0.0577L0.6403,-0.0616L0.6193,-0.0654L0.5986,-0.0691L0.5783,-0.0727L0.5583,-0.0762L0.5387,-0.0795L0.5193,-0.0826L0.5004,-0.0856L0.4817,-0.0884L0.4634,-0.091L0.4454,-0.0934L0.4277,-0.0956L0.4102,-0.0976L0.3931,-0.0993L0.3763,-0.1008L0.3597,-0.1021L0.3434,-0.103L0.3273,-0.1037L0.3115,-0.1042L0.2959,-0.1043L0.2806,-0.1041L0.2654,-0.1037L0.2505,-0.1029L0.2357,-0.1018L0.2211,-0.1004L0.2067,-0.0986L0.1925,-0.0965L0.1784,-0.0941L0.1644,-0.0913L0.1506,-0.0882L0.1369,-0.0847L0.1232,-0.0808L0.1098,-0.0767L0.0967,-0.0722L0.084,-0.0674L0.0718,-0.0625L0.0602,-0.0572L0.0493,-0.0519L0.0393,-0.0463L0.0302,-0.0406L0.022,-0.0349L0.015,-0.029L0.0092,-0.0232L0.0047,-0.0173L0.0016,-0.0115L0,-0.0057L0,-0L0.0016,0.0056L0.005,0.011L0.0102,0.0162L0.0174,0.0213L0.0265,0.026L0.0377,0.0306L0.051,0.0348L0.0666,0.0387L0.0844,0.0422L0.1046,0.0454L0.1272,0.0481L0.1523,0.0505L0.1799,0.0523L0.2101,0.0537L0.243,0.0545L0.2785,0.0548L0.3168,0.0546L0.3578,0.0537L0.4016,0.0523L0.4483,0.0502L0.4978,0.0475L0.5502,0.0441L0.6056,0.04L0.6639,0.0352L0.7252,0.0297L0.7894,0.0234L0.8566,0.0164L0.9268,0.0086L1,-0"
    />
</svg>
