
<svg 
  class="airfoil-davis"
  fill="none"
  stroke="black" 
  stroke-width="1"
  style="overflow:visible"
  viewBox="0, -0.0915, 1, 0.1185"
  xmlns="http://www.w3.org/2000/svg">
    <title>Davis AIRFOIL</title>
    <path 
      vector-effect="non-scaling-stroke"
      d="M1,-0L0.9,-0.025L0.8,-0.046L0.7,-0.0625L0.6,-0.077L0.5,-0.086L0.4,-0.0915L0.3,-0.09L0.25,-0.0875L0.2,-0.0825L0.15,-0.074L0.1,-0.06L0.075,-0.051L0.05,-0.0405L0.025,-0.0268L0.0125,-0.0175L0,-0L0.0125,0.0105L0.025,0.0147L0.05,0.0205L0.075,0.024L0.1,0.026L0.15,0.027L0.2,0.0265L0.25,0.0245L0.3,0.0225L0.4,0.0177L0.5,0.013L0.6,0.01L0.7,0.0075L0.8,0.0045L0.9,0.002L1,-0"
    />
</svg>
