
<svg 
  class="airfoil-daytonwrightt1"
  fill="none"
  stroke="black" 
  stroke-width="1"
  style="overflow:visible"
  viewBox="0, -0.1373, 1, 0.1373"
  xmlns="http://www.w3.org/2000/svg">
    <title>Dayton-Wright T-1</title>
    <path 
      vector-effect="non-scaling-stroke"
      d="M1,-0.007L0.95,-0.0233L0.9,-0.0388L0.8,-0.0673L0.7,-0.0916L0.6,-0.1107L0.5,-0.1252L0.4,-0.1344L0.3,-0.1373L0.2,-0.1325L0.15,-0.1251L0.1,-0.1111L0.075,-0.1017L0.05,-0.09L0.025,-0.0734L0.0125,-0.0621L0,-0.0404L0.0125,-0.02L0.025,-0.0141L0.05,-0.0074L0.075,-0.0038L0.1,-0.0017L0.15,-0L0.2,-0.0002L0.3,-0.0036L0.4,-0.0068L0.5,-0.0065L0.6,-0.0036L0.7,-0.0003L0.8,-0L0.9,-0.0016L0.95,-0.0026L1,-0.0049"
    />
</svg>
