
<svg 
  class="airfoil-daytonwright6"
  fill="none"
  stroke="black" 
  stroke-width="1"
  style="overflow:visible"
  viewBox="0, -0.1397, 1, 0.13939999"
  xmlns="http://www.w3.org/2000/svg">
    <title>Dayton-Wright 6</title>
    <path 
      vector-effect="non-scaling-stroke"
      d="M1,-0.0057L0.95,-0.023L0.9,-0.0377L0.8,-0.0637L0.7,-0.0882L0.6,-0.1075L0.5,-0.123L0.4,-0.135L0.3,-0.1397L0.2,-0.134L0.15,-0.1245L0.1,-0.1088L0.075,-0.0978L0.05,-0.0838L0.025,-0.0647L0.0125,-0.0522L0,-0.0308L0.0125,-0.0127L0.025,-0.0083L0.05,-0.0033L0.075,-0.0013L0.1,-0.0005L0.15,-0.0007L0.2,-0.0017L0.3,-0.0037L0.4,-0.0045L0.5,-0.003L0.6,-0.0015L0.7,-0.0003L0.8,-0.0003L0.9,-0.0012L0.95,-0.002L1,-0.0057"
    />
</svg>
