
<svg 
  class="airfoil-dbln526"
  fill="none"
  stroke="black" 
  stroke-width="1"
  style="overflow:visible"
  viewBox="0, -0.1698, 1, 0.2599"
  xmlns="http://www.w3.org/2000/svg">
    <title>SIKORSKY DBLN-526 AIRFOIL</title>
    <path 
      vector-effect="non-scaling-stroke"
      d="M1,-0L0.9875,-0.0362L0.975,-0.0491L0.95,-0.0679L0.925,-0.0823L0.9,-0.0952L0.85,-0.1152L0.8,-0.1302L0.75,-0.143L0.7,-0.153L0.6,-0.1668L0.5,-0.1698L0.4,-0.1668L0.3,-0.153L0.25,-0.143L0.2,-0.1302L0.15,-0.1152L0.1,-0.0952L0.075,-0.0823L0.05,-0.0679L0.025,-0.0491L0.0125,-0.0362L0,-0L0.0125,0.0208L0.025,0.0298L0.05,0.0405L0.075,0.0483L0.1,0.0548L0.15,0.0637L0.2,0.0708L0.25,0.0751L0.3,0.0823L0.4,0.0887L0.5,0.0901L0.6,0.0887L0.7,0.0823L0.75,0.0751L0.8,0.0708L0.85,0.0637L0.9,0.0548L0.925,0.0483L0.95,0.0405L0.975,0.0298L0.9875,0.0208L1,-0"
    />
</svg>
