
<svg 
  class="airfoil-defcnd2"
  fill="none"
  stroke="black" 
  stroke-width="1"
  style="overflow:visible"
  viewBox="0, -0.1118, 1, 0.14750001"
  xmlns="http://www.w3.org/2000/svg">
    <title>DEFIANT CANARD BL110 AIRFOIL</title>
    <path 
      vector-effect="non-scaling-stroke"
      d="M1,-0L0.9984,-0.0004L0.9935,-0.0015L0.9855,-0.0033L0.9743,-0.0058L0.96,-0.009L0.9427,-0.0128L0.9226,-0.0174L0.8997,-0.0225L0.8743,-0.0282L0.8464,-0.0345L0.8162,-0.0412L0.784,-0.0484L0.75,-0.0561L0.7143,-0.0642L0.6773,-0.072L0.6391,-0.0792L0.6,-0.0858L0.5603,-0.0917L0.5201,-0.0968L0.4799,-0.1017L0.4397,-0.106L0.4,-0.1091L0.3609,-0.1106L0.3227,-0.1114L0.2857,-0.1118L0.25,-0.1094L0.216,-0.1054L0.1838,-0.1006L0.1536,-0.093L0.1257,-0.0844L0.1003,-0.075L0.0774,-0.0651L0.0573,-0.055L0.04,-0.0445L0.0257,-0.034L0.0145,-0.0237L0.0065,-0.014L0.0016,-0.0054L0,-0L0.0016,0.006L0.0065,0.0106L0.0145,0.0142L0.0257,0.0179L0.04,0.0213L0.0573,0.0241L0.0774,0.0267L0.1003,0.0289L0.1257,0.0307L0.1536,0.0322L0.1838,0.0335L0.216,0.0344L0.25,0.0351L0.2857,0.0355L0.3227,0.0357L0.3609,0.0357L0.4,0.0354L0.4397,0.0348L0.4799,0.034L0.5201,0.0328L0.5603,0.0313L0.6,0.0293L0.6391,0.0269L0.6773,0.024L0.7143,0.0212L0.75,0.0186L0.784,0.0161L0.8162,0.0137L0.8464,0.0114L0.8743,0.0094L0.8997,0.0075L0.9226,0.0058L0.9427,0.0043L0.96,0.003L0.9743,0.0019L0.9855,0.0011L0.9935,0.0005L0.9984,0.0001L1,0"
    />
</svg>
