
<svg 
  class="airfoil-defcnd1"
  fill="none"
  stroke="black" 
  stroke-width="1"
  style="overflow:visible"
  viewBox="0, -0.1481, 1, 0.21090001"
  xmlns="http://www.w3.org/2000/svg">
    <title>DEFIANT CANARD BL20 AIRFOIL</title>
    <path 
      vector-effect="non-scaling-stroke"
      d="M1,-0L0.9984,-0.0004L0.9935,-0.0016L0.9855,-0.0035L0.9743,-0.0062L0.96,-0.0097L0.9427,-0.0139L0.9226,-0.0188L0.8997,-0.0243L0.8743,-0.0305L0.8464,-0.0373L0.8162,-0.0446L0.784,-0.0524L0.75,-0.0607L0.7143,-0.0697L0.6773,-0.0796L0.6391,-0.0901L0.6,-0.1009L0.5603,-0.1115L0.5201,-0.1215L0.4799,-0.1303L0.4397,-0.1377L0.4,-0.1432L0.3609,-0.1467L0.3227,-0.1481L0.2857,-0.1473L0.25,-0.1445L0.216,-0.1396L0.1838,-0.1328L0.1536,-0.1242L0.1257,-0.1139L0.1003,-0.1022L0.0774,-0.0893L0.0573,-0.0756L0.04,-0.0617L0.0257,-0.0481L0.0145,-0.0348L0.0065,-0.0215L0.0016,-0.0091L0,-0L0.0016,0.0113L0.0065,0.0189L0.0145,0.0262L0.0257,0.0336L0.04,0.0406L0.0573,0.0469L0.0774,0.0521L0.1003,0.0558L0.1257,0.0585L0.1536,0.0606L0.1838,0.0621L0.216,0.0628L0.25,0.0628L0.2857,0.0619L0.3227,0.0601L0.3609,0.0575L0.4,0.0541L0.4397,0.0503L0.4799,0.0463L0.5201,0.0424L0.5603,0.0388L0.6,0.0353L0.6391,0.0319L0.6773,0.0285L0.7143,0.0252L0.75,0.0221L0.784,0.0191L0.8162,0.0162L0.8464,0.0136L0.8743,0.0111L0.8997,0.0088L0.9226,0.0068L0.9427,0.0051L0.96,0.0035L0.9743,0.0023L0.9855,0.0013L0.9935,0.0006L0.9984,0.0001L1,0"
    />
</svg>
