
<svg 
  class="airfoil-defcnd3"
  fill="none"
  stroke="black" 
  stroke-width="1"
  style="overflow:visible"
  viewBox="0, -0.0812, 1, 0.114800006"
  xmlns="http://www.w3.org/2000/svg">
    <title>DEFIANT CANARD BL145 AIRFOIL</title>
    <path 
      vector-effect="non-scaling-stroke"
      d="M1,-0L0.9984,-0.0006L0.9935,-0.0011L0.9855,-0.003L0.9743,-0.0057L0.96,-0.0089L0.9427,-0.0123L0.9226,-0.0157L0.8997,-0.0192L0.8743,-0.023L0.8464,-0.0269L0.8162,-0.031L0.784,-0.0354L0.75,-0.0398L0.7143,-0.0444L0.6773,-0.0491L0.6391,-0.0538L0.6,-0.0583L0.5603,-0.0628L0.5201,-0.067L0.4799,-0.0708L0.4397,-0.0742L0.4,-0.0771L0.3609,-0.0793L0.3227,-0.0807L0.2857,-0.0812L0.25,-0.0807L0.216,-0.0793L0.1838,-0.0775L0.1536,-0.0747L0.1257,-0.0705L0.1003,-0.0651L0.0774,-0.0588L0.0573,-0.0522L0.04,-0.0451L0.0257,-0.0376L0.0145,-0.0294L0.0065,-0.0204L0.0016,-0.0122L0,-0L0.0016,0.0049L0.0065,0.0085L0.0145,0.012L0.0257,0.0155L0.04,0.0187L0.0573,0.0216L0.0774,0.0241L0.1003,0.0263L0.1257,0.0282L0.1536,0.0299L0.1838,0.0313L0.216,0.0324L0.25,0.0332L0.2857,0.0336L0.3227,0.0335L0.3609,0.0327L0.4,0.0314L0.4397,0.0299L0.4799,0.0281L0.5201,0.0261L0.5603,0.0241L0.6,0.022L0.6391,0.0197L0.6773,0.0173L0.7143,0.0148L0.75,0.0126L0.784,0.011L0.8162,0.0094L0.8464,0.008L0.8743,0.0069L0.8997,0.0051L0.9226,0.0041L0.9427,0.0031L0.96,0.0022L0.9743,0.0015L0.9855,0.0009L0.9935,0.0004L0.9984,0.0001L1,0"
    />
</svg>
