
<svg 
  class="airfoil-df102"
  fill="none"
  stroke="black" 
  stroke-width="1"
  style="overflow:visible"
  viewBox="0, -0.0765, 1, 0.1128"
  xmlns="http://www.w3.org/2000/svg">
    <title>DF102</title>
    <path 
      vector-effect="non-scaling-stroke"
      d="M1,-0L0.9968,-0.0004L0.9873,-0.0019L0.9716,-0.0044L0.9503,-0.0079L0.9238,-0.0126L0.8925,-0.0182L0.857,-0.0245L0.8178,-0.0312L0.7756,-0.0381L0.7307,-0.0448L0.6838,-0.0513L0.6353,-0.0573L0.5857,-0.0628L0.5356,-0.0676L0.4852,-0.0715L0.4352,-0.0744L0.3858,-0.076L0.3377,-0.0765L0.2913,-0.0758L0.2472,-0.074L0.2057,-0.0714L0.1672,-0.0683L0.1322,-0.0643L0.1007,-0.0592L0.0732,-0.0527L0.0498,-0.0447L0.0309,-0.0351L0.0165,-0.0245L0.0066,-0.0143L0.0012,-0.0055L0,0.0009L0.0049,0.0077L0.0152,0.0135L0.03,0.0189L0.0489,0.024L0.072,0.0285L0.0995,0.0322L0.1314,0.0347L0.1676,0.0361L0.2079,0.0363L0.2517,0.0355L0.2984,0.034L0.3476,0.032L0.3989,0.0299L0.4517,0.0275L0.5054,0.025L0.5594,0.0223L0.613,0.0195L0.6655,0.0169L0.7162,0.0144L0.7646,0.0122L0.8099,0.01L0.8517,0.0079L0.8892,0.0058L0.922,0.0039L0.9494,0.0023L0.9713,0.0011L0.9872,0.0005L0.9968,0.0002L1,0.0001"
    />
</svg>
