
<svg 
  class="airfoil-df101"
  fill="none"
  stroke="black" 
  stroke-width="1"
  style="overflow:visible"
  viewBox="0, -0.0765, 1, 0.1128"
  xmlns="http://www.w3.org/2000/svg">
    <title>DF 101 AIRFOIL</title>
    <path 
      vector-effect="non-scaling-stroke"
      d="M1,-0.0001L0.9968,-0.0005L0.9873,-0.0019L0.9716,-0.0044L0.9503,-0.008L0.9237,-0.0126L0.8924,-0.0182L0.857,-0.0246L0.8178,-0.0313L0.7756,-0.0381L0.7307,-0.0449L0.6837,-0.0513L0.6352,-0.0573L0.5857,-0.0628L0.5355,-0.0676L0.4852,-0.0715L0.4351,-0.0744L0.3858,-0.0761L0.3377,-0.0765L0.2912,-0.0758L0.2471,-0.074L0.2056,-0.0711L0.1672,-0.0672L0.1321,-0.0621L0.1006,-0.0558L0.0731,-0.0483L0.0498,-0.0397L0.0308,-0.0305L0.0164,-0.0211L0.0065,-0.0123L0.0011,-0.0045L0,-0L0,0.0009L0.0048,0.0077L0.0151,0.0135L0.0299,0.0189L0.0488,0.024L0.0719,0.0285L0.0994,0.0322L0.1313,0.0347L0.1675,0.0361L0.2078,0.0363L0.2516,0.0355L0.2983,0.034L0.3476,0.032L0.3988,0.0299L0.4516,0.0275L0.5053,0.0249L0.5593,0.0222L0.613,0.0195L0.6654,0.0168L0.7162,0.0144L0.7645,0.0121L0.8099,0.01L0.8516,0.0079L0.8892,0.0058L0.9219,0.0038L0.9494,0.0022L0.9713,0.0011L0.9872,0.0004L0.9968,0.0001L1,-0"
    />
</svg>
