
<svg 
  class="airfoil-dfvlrr4"
  fill="none"
  stroke="black" 
  stroke-width="1"
  style="overflow:visible"
  viewBox="0, -0.0756, 1, 0.1345"
  xmlns="http://www.w3.org/2000/svg">
    <title>DFVLR R-4 AIRFOIL</title>
    <path 
      vector-effect="non-scaling-stroke"
      d="M1,-0.0025L0.9949,-0.0042L0.9899,-0.0055L0.9849,-0.0068L0.9798,-0.0082L0.9598,-0.0133L0.9397,-0.0181L0.9196,-0.0228L0.8995,-0.0272L0.8794,-0.0315L0.8593,-0.0357L0.8393,-0.0396L0.8192,-0.0435L0.7992,-0.0471L0.7791,-0.0505L0.7591,-0.0537L0.739,-0.0567L0.719,-0.0595L0.6989,-0.0621L0.6788,-0.0645L0.6588,-0.0665L0.6388,-0.0682L0.6188,-0.0697L0.5987,-0.071L0.5787,-0.0721L0.5587,-0.073L0.5387,-0.0738L0.5186,-0.0744L0.4986,-0.0749L0.4786,-0.0753L0.4586,-0.0755L0.4386,-0.0756L0.4186,-0.0756L0.3986,-0.0754L0.3876,-0.0753L0.3786,-0.0752L0.3586,-0.0748L0.3386,-0.0742L0.3185,-0.0735L0.2985,-0.0727L0.2785,-0.0716L0.2586,-0.0704L0.2386,-0.069L0.2186,-0.0675L0.1986,-0.0657L0.1787,-0.0637L0.1587,-0.0615L0.1386,-0.059L0.1187,-0.0562L0.0987,-0.053L0.0788,-0.0492L0.0688,-0.047L0.0638,-0.0458L0.0588,-0.0445L0.0539,-0.0431L0.0489,-0.0416L0.0439,-0.0399L0.0389,-0.0382L0.034,-0.036L0.029,-0.0336L0.024,-0.0309L0.0191,-0.0279L0.0141,-0.0242L0.0092,-0.0198L0.0043,-0.0141L0.0019,-0.0103L0.0015,-0.0093L0.001,-0.0079L0.0004,-0.0063L0,-0.0043L0,-0L0.0005,0.0019L0.0011,0.0033L0.0024,0.0056L0.0046,0.0083L0.0097,0.0125L0.0147,0.0155L0.0198,0.0181L0.0248,0.0203L0.0298,0.0223L0.0349,0.024L0.0399,0.0256L0.0449,0.0271L0.0499,0.0285L0.0549,0.0298L0.06,0.031L0.065,0.0322L0.07,0.0333L0.075,0.0343L0.08,0.0352L0.1001,0.0389L0.1201,0.0421L0.1402,0.045L0.1603,0.0476L0.1803,0.0499L0.2004,0.0519L0.2204,0.0537L0.2404,0.0552L0.2604,0.0565L0.2804,0.0575L0.3004,0.0583L0.3204,0.0587L0.3406,0.0589L0.3605,0.0589L0.3805,0.0586L0.4005,0.0581L0.4205,0.0573L0.4405,0.0565L0.4605,0.0554L0.4805,0.0541L0.4905,0.0533L0.5054,0.0522L0.5255,0.0504L0.5455,0.0484L0.5655,0.0462L0.5854,0.0438L0.6054,0.0411L0.6253,0.0381L0.6453,0.0349L0.6652,0.0315L0.6852,0.0277L0.7051,0.0236L0.7252,0.0196L0.7451,0.0155L0.765,0.0115L0.785,0.0077L0.8049,0.0041L0.8249,0.001L0.8448,-0.0017L0.8648,-0.0037L0.8848,-0.0051L0.9049,-0.0059L0.9249,-0.006L0.9449,-0.0053L0.9649,-0.0036L0.985,-0.0006L0.99,0.0004L0.995,0.0015L1,0.0025"
    />
</svg>
