
<svg 
  class="airfoil-dga1138"
  fill="none"
  stroke="black" 
  stroke-width="1"
  style="overflow:visible"
  viewBox="0, -0.075, 1, 0.075"
  xmlns="http://www.w3.org/2000/svg">
    <title>D.G.A. 1138</title>
    <path 
      vector-effect="non-scaling-stroke"
      d="M1,-0.01L0.95,-0.02L0.9,-0.0275L0.8,-0.0425L0.7,-0.055L0.6,-0.065L0.5,-0.07L0.4,-0.075L0.3,-0.075L0.2,-0.07L0.15,-0.0655L0.1,-0.06L0.075,-0.055L0.05,-0.049L0.025,-0.039L0.0125,-0.032L0,-0.02L0.0125,-0.009L0.025,-0.006L0.05,-0.004L0.075,-0.001L0.1,-0L0.15,-0.001L0.2,-0.003L0.3,-0.006L0.4,-0.006L0.5,-0.005L0.6,-0.003L0.7,-0.002L0.8,-0.001L0.9,-0L0.95,-0.001L1,-0.004"
    />
</svg>
