
<svg 
  class="airfoil-dga1182"
  fill="none"
  stroke="black" 
  stroke-width="1"
  style="overflow:visible"
  viewBox="0, -0.043, 1, 0.076000005"
  xmlns="http://www.w3.org/2000/svg">
    <title>D.G.A. 1182</title>
    <path 
      vector-effect="non-scaling-stroke"
      d="M1,-0.003L0.95,-0.0075L0.9,-0.0125L0.8,-0.021L0.7,-0.029L0.6,-0.035L0.5,-0.04L0.4,-0.043L0.3,-0.043L0.2,-0.04L0.15,-0.0265L0.1,-0.031L0.075,-0.028L0.05,-0.025L0.025,-0.019L0.0125,-0.014L0,-0L0.0125,0.0055L0.025,0.008L0.05,0.012L0.075,0.015L0.1,0.017L0.15,0.0195L0.2,0.021L0.3,0.033L0.4,0.024L0.5,0.023L0.6,0.02L0.7,0.0175L0.8,0.0125L0.9,0.005L0.95,0.003L1,-0"
    />
</svg>
