
<svg 
  class="airfoil-dh4009sm"
  fill="none"
  stroke="black" 
  stroke-width="1"
  style="overflow:visible"
  viewBox="0, -0.0444, 1, 0.089499995"
  xmlns="http://www.w3.org/2000/svg">
    <title>dh4009sm</title>
    <path 
      vector-effect="non-scaling-stroke"
      d="M1,-0.0003L0.9975,-0.0017L0.9907,-0.0043L0.9804,-0.0062L0.967,-0.0076L0.9504,-0.009L0.9306,-0.0108L0.9078,-0.0129L0.882,-0.0152L0.8537,-0.0178L0.8231,-0.0207L0.7905,-0.0237L0.7562,-0.0269L0.7204,-0.0301L0.6836,-0.0332L0.6459,-0.0361L0.6078,-0.0387L0.5694,-0.0409L0.531,-0.0425L0.4927,-0.0436L0.4543,-0.0442L0.4164,-0.0444L0.3789,-0.0441L0.342,-0.0435L0.3061,-0.0426L0.2712,-0.0413L0.2376,-0.0395L0.2055,-0.0374L0.175,-0.035L0.1465,-0.0323L0.12,-0.0294L0.0958,-0.0263L0.074,-0.023L0.0547,-0.0198L0.0381,-0.0166L0.0243,-0.0136L0.0134,-0.0104L0.0055,-0.007L0.001,-0.0032L0,0L0.001,0.0029L0.0055,0.0057L0.0134,0.0081L0.0243,0.0105L0.0381,0.0131L0.0547,0.0159L0.074,0.019L0.0958,0.0223L0.12,0.0255L0.1465,0.0286L0.175,0.0315L0.2055,0.0342L0.2376,0.0367L0.2712,0.0392L0.3061,0.0413L0.342,0.0431L0.3789,0.0444L0.4164,0.0451L0.4543,0.0451L0.4927,0.0445L0.531,0.0432L0.5694,0.0413L0.6078,0.0389L0.6459,0.036L0.6836,0.0327L0.7204,0.0292L0.7562,0.0256L0.7905,0.022L0.8231,0.0184L0.8537,0.0151L0.882,0.0121L0.9078,0.0095L0.9306,0.0073L0.9504,0.0054L0.967,0.0038L0.9804,0.0026L0.9907,0.0015L0.9975,0.0005L1,0"
    />
</svg>
