
<svg 
  class="airfoil-doa5"
  fill="none"
  stroke="black" 
  stroke-width="1"
  style="overflow:visible"
  viewBox="0, -0.099, 1, 0.1625"
  xmlns="http://www.w3.org/2000/svg">
    <title>DORNIER A-5 AIRFOIL</title>
    <path 
      vector-effect="non-scaling-stroke"
      d="M1,-0L0.98,-0.0083L0.9601,-0.0148L0.9401,-0.0216L0.9002,-0.0331L0.8603,-0.0442L0.8204,-0.0531L0.7804,-0.0617L0.7405,-0.0701L0.7006,-0.0771L0.6806,-0.0802L0.6647,-0.0824L0.6407,-0.0854L0.6208,-0.0878L0.6008,-0.09L0.5808,-0.0918L0.5609,-0.0934L0.5409,-0.0948L0.521,-0.0962L0.501,-0.0972L0.481,-0.098L0.4611,-0.0986L0.4411,-0.0988L0.4212,-0.099L0.4012,-0.0986L0.3812,-0.0982L0.3613,-0.0978L0.3413,-0.0972L0.3214,-0.0964L0.3014,-0.0956L0.2814,-0.0946L0.2615,-0.0934L0.2216,-0.0898L0.2016,-0.087L0.1816,-0.084L0.1617,-0.0806L0.1417,-0.0768L0.1018,-0.0684L0.0918,-0.0655L0.0719,-0.0595L0.0519,-0.0517L0.0419,-0.0471L0.0319,-0.0415L0.022,-0.0347L0.012,-0.0259L0,-0L0.012,0.0174L0.022,0.0226L0.0319,0.0261L0.0419,0.029L0.0519,0.0315L0.0719,0.0353L0.0918,0.0388L0.1018,0.0403L0.1218,0.0431L0.1417,0.0457L0.1617,0.0477L0.1816,0.0499L0.2016,0.0521L0.2216,0.0541L0.2415,0.0559L0.2615,0.0577L0.3014,0.0605L0.3214,0.0617L0.3413,0.0625L0.3613,0.0633L0.3812,0.0635L0.4012,0.0635L0.4411,0.0623L0.4611,0.0611L0.481,0.0599L0.501,0.0583L0.521,0.0563L0.5409,0.0543L0.5609,0.0519L0.5808,0.0493L0.6008,0.0465L0.6208,0.0433L0.6407,0.0401L0.6647,0.0359L0.6806,0.0327L0.7006,0.0287L0.7206,0.0244L0.7405,0.0198L0.7605,0.015L0.7804,0.0108L0.8004,0.0074L0.8204,0.0044L0.8403,0.0022L0.8603,-0L0.8802,-0.002L0.9002,-0.003L0.9201,-0.0029L0.9401,-0.0026L0.9606,-0.0023L0.98,-0.001L1,-0"
    />
</svg>
