
<svg 
  class="airfoil-drgnfly"
  fill="none"
  stroke="black" 
  stroke-width="1"
  style="overflow:visible"
  viewBox="0, -0.1622, 1, 0.1947"
  xmlns="http://www.w3.org/2000/svg">
    <title>DRAGONFLY CANARD</title>
    <path 
      vector-effect="non-scaling-stroke"
      d="M1,-0L0.9924,-0.0021L0.9789,-0.0058L0.9631,-0.0102L0.9458,-0.015L0.9275,-0.0202L0.9087,-0.0255L0.8898,-0.0308L0.8709,-0.0363L0.8519,-0.0418L0.833,-0.0473L0.8141,-0.0528L0.7954,-0.0584L0.7767,-0.064L0.7582,-0.0697L0.7398,-0.0755L0.7214,-0.0815L0.7031,-0.0875L0.6846,-0.0937L0.666,-0.1001L0.6474,-0.1064L0.6288,-0.1128L0.6105,-0.119L0.5925,-0.125L0.5749,-0.1306L0.5576,-0.1359L0.5406,-0.1407L0.5238,-0.1451L0.5073,-0.149L0.4909,-0.1524L0.4745,-0.1553L0.4582,-0.1577L0.4419,-0.1596L0.4256,-0.161L0.4093,-0.1618L0.3928,-0.1622L0.3763,-0.162L0.3596,-0.1614L0.3429,-0.1603L0.3262,-0.1588L0.3095,-0.1568L0.2928,-0.1544L0.2762,-0.1516L0.2596,-0.1483L0.2431,-0.1445L0.2268,-0.1404L0.2105,-0.1358L0.1944,-0.1308L0.1784,-0.1254L0.1627,-0.1196L0.1473,-0.1135L0.1321,-0.1069L0.1173,-0.1L0.1031,-0.0929L0.0894,-0.0854L0.0765,-0.0779L0.0646,-0.0703L0.0538,-0.0628L0.0443,-0.0556L0.0362,-0.049L0.0293,-0.043L0.0237,-0.0376L0.019,-0.0327L0.0151,-0.0283L0.0119,-0.0244L0.0092,-0.0208L0.007,-0.0176L0.0052,-0.0146L0.0036,-0.0118L0.0023,-0.0091L0.0013,-0.0067L0.0006,-0.0043L0.0001,-0.0021L0,-0L0.0002,0.0022L0.0007,0.0044L0.0016,0.0065L0.0029,0.0086L0.0045,0.0107L0.0065,0.0126L0.0089,0.0144L0.0117,0.016L0.015,0.0173L0.0188,0.0185L0.0233,0.0195L0.0285,0.0206L0.0347,0.0218L0.0421,0.023L0.0509,0.0243L0.0616,0.0256L0.0743,0.0268L0.0891,0.0279L0.1056,0.029L0.1232,0.0299L0.1415,0.0306L0.1603,0.0312L0.1794,0.0317L0.1987,0.032L0.2181,0.0323L0.2375,0.0324L0.257,0.0325L0.2766,0.0325L0.2961,0.0324L0.3157,0.0323L0.3353,0.0321L0.3549,0.0318L0.3745,0.0314L0.394,0.031L0.4135,0.0305L0.4329,0.0298L0.4525,0.0291L0.4721,0.0283L0.4917,0.0275L0.5115,0.0265L0.5313,0.0256L0.5512,0.0246L0.571,0.0236L0.5909,0.0226L0.6109,0.0216L0.6308,0.0205L0.6508,0.0195L0.6708,0.0184L0.6907,0.0174L0.7107,0.0164L0.7306,0.0153L0.7506,0.0143L0.7705,0.0133L0.7904,0.0124L0.8103,0.0114L0.8301,0.0105L0.85,0.0096L0.8697,0.0087L0.8893,0.0078L0.9085,0.0068L0.9273,0.0058L0.9455,0.0046L0.9628,0.0033L0.9785,0.002L0.9922,0.0008L1,-0"
    />
</svg>
