
<svg 
  class="airfoil-ds19"
  fill="none"
  stroke="black" 
  stroke-width="1"
  style="overflow:visible"
  viewBox="0, -0.0616, 1, 0.0862"
  xmlns="http://www.w3.org/2000/svg">
    <title>DS19 Joe Wurts</title>
    <path 
      vector-effect="non-scaling-stroke"
      d="M1,0.0002L0.9932,-0.0009L0.9803,-0.0028L0.965,-0.0051L0.9486,-0.0075L0.9318,-0.0099L0.9148,-0.0122L0.8978,-0.0145L0.8808,-0.0168L0.8638,-0.0189L0.8469,-0.0211L0.83,-0.0231L0.8133,-0.025L0.7975,-0.0269L0.7811,-0.029L0.7642,-0.0311L0.7472,-0.0331L0.7302,-0.0351L0.7132,-0.037L0.6961,-0.0389L0.6791,-0.0406L0.662,-0.0424L0.6449,-0.044L0.6279,-0.0456L0.6108,-0.0472L0.5937,-0.0486L0.5766,-0.05L0.5596,-0.0514L0.5425,-0.0527L0.5254,-0.0538L0.5084,-0.055L0.4913,-0.056L0.4743,-0.057L0.4572,-0.0579L0.4402,-0.0587L0.4232,-0.0594L0.4062,-0.06L0.3892,-0.0605L0.3722,-0.061L0.3553,-0.0613L0.3384,-0.0615L0.3215,-0.0616L0.3047,-0.0616L0.288,-0.0614L0.2713,-0.061L0.2546,-0.0605L0.2381,-0.0599L0.2216,-0.059L0.2052,-0.058L0.1889,-0.0567L0.1727,-0.0553L0.1567,-0.0535L0.1408,-0.0516L0.1252,-0.0493L0.1098,-0.0468L0.0948,-0.0439L0.0802,-0.0407L0.0662,-0.0371L0.0531,-0.0333L0.0413,-0.0293L0.0313,-0.0253L0.0233,-0.0216L0.0171,-0.0183L0.0124,-0.0154L0.0088,-0.0128L0.006,-0.0104L0.0039,-0.0083L0.0023,-0.0063L0.0011,-0.0043L0.0003,-0.0025L0,-0.0007L0.0001,0.0011L0.0006,0.0029L0.0016,0.0046L0.0031,0.0063L0.0051,0.0079L0.0076,0.0093L0.0108,0.0107L0.0148,0.0121L0.0199,0.0135L0.0268,0.015L0.0359,0.0166L0.0476,0.0182L0.0615,0.0197L0.0768,0.0209L0.0927,0.022L0.109,0.0228L0.1256,0.0234L0.1424,0.0239L0.1592,0.0243L0.1761,0.0245L0.193,0.0246L0.2101,0.0246L0.2272,0.0245L0.2443,0.0243L0.2615,0.0241L0.2786,0.0238L0.2958,0.0234L0.3131,0.023L0.3303,0.0226L0.3476,0.0221L0.3649,0.0215L0.3822,0.0209L0.3994,0.0203L0.4167,0.0197L0.4341,0.019L0.4514,0.0183L0.4687,0.0175L0.4861,0.0168L0.5034,0.016L0.5208,0.0152L0.5382,0.0144L0.5555,0.0136L0.5729,0.0128L0.5903,0.0119L0.6076,0.0111L0.6249,0.0102L0.6423,0.0093L0.6597,0.0085L0.677,0.0076L0.6944,0.0067L0.7118,0.0058L0.7293,0.0049L0.7466,0.0041L0.7639,0.0032L0.781,0.0024L0.7975,0.0015L0.8137,0.001L0.8307,0.0005L0.8478,0L0.865,-0.0004L0.8821,-0.0008L0.8991,-0.001L0.916,-0.0012L0.9328,-0.0013L0.9494,-0.0012L0.9655,-0.001L0.9805,-0.0006L0.9932,-0.0001L1,0.0002"
    />
</svg>
