
<svg 
  class="airfoil-ds21"
  fill="none"
  stroke="black" 
  stroke-width="1"
  style="overflow:visible"
  viewBox="0, -0.0602, 1, 0.087"
  xmlns="http://www.w3.org/2000/svg">
    <title>DS21 Joe Wurts</title>
    <path 
      vector-effect="non-scaling-stroke"
      d="M1,0.0002L0.9997,0.0001L0.9991,0.0001L0.9982,-0.0001L0.997,-0.0002L0.9954,-0.0005L0.9936,-0.0007L0.9914,-0.001L0.9888,-0.0014L0.986,-0.0018L0.9829,-0.0023L0.9794,-0.0027L0.9757,-0.0033L0.9716,-0.0038L0.9673,-0.0044L0.9627,-0.0051L0.9578,-0.0058L0.9526,-0.0065L0.9471,-0.0072L0.9414,-0.008L0.9354,-0.0088L0.9291,-0.0096L0.9226,-0.0105L0.9158,-0.0113L0.9088,-0.0123L0.9015,-0.0132L0.894,-0.0141L0.8863,-0.0151L0.8783,-0.0161L0.8701,-0.0171L0.8617,-0.0181L0.8531,-0.0192L0.8443,-0.0202L0.8352,-0.0213L0.826,-0.0223L0.8165,-0.0234L0.8068,-0.0245L0.797,-0.0257L0.787,-0.0269L0.7769,-0.0281L0.7666,-0.0294L0.7562,-0.0306L0.7457,-0.0318L0.7351,-0.033L0.7243,-0.0342L0.7134,-0.0354L0.7024,-0.0366L0.6913,-0.0378L0.6801,-0.0389L0.6689,-0.0401L0.6575,-0.0412L0.646,-0.0423L0.6345,-0.0434L0.6229,-0.0445L0.6113,-0.0455L0.5996,-0.0465L0.5879,-0.0476L0.5761,-0.0485L0.5643,-0.0495L0.5525,-0.0504L0.5406,-0.0513L0.5288,-0.0521L0.5169,-0.053L0.5051,-0.0538L0.4933,-0.0545L0.4815,-0.0552L0.4697,-0.0559L0.458,-0.0565L0.4462,-0.0571L0.4346,-0.0576L0.423,-0.0581L0.4114,-0.0585L0.3999,-0.0589L0.3885,-0.0593L0.3771,-0.0596L0.3658,-0.0598L0.3547,-0.06L0.3436,-0.0601L0.3326,-0.0602L0.3216,-0.0602L0.3109,-0.0602L0.3002,-0.0602L0.2896,-0.06L0.2792,-0.0598L0.2689,-0.0596L0.2587,-0.0593L0.2486,-0.059L0.2387,-0.0586L0.229,-0.0581L0.2194,-0.0576L0.21,-0.057L0.2007,-0.0564L0.1916,-0.0557L0.1827,-0.055L0.174,-0.0542L0.1654,-0.0534L0.157,-0.0525L0.1488,-0.0516L0.1408,-0.0506L0.133,-0.0495L0.1254,-0.0484L0.1179,-0.0473L0.1107,-0.0461L0.1037,-0.0449L0.0969,-0.0436L0.0903,-0.0423L0.0839,-0.0409L0.0778,-0.0395L0.0718,-0.0381L0.0661,-0.0366L0.0606,-0.0352L0.0553,-0.0336L0.0503,-0.0321L0.0455,-0.0305L0.0409,-0.0289L0.0366,-0.0273L0.0324,-0.0256L0.0286,-0.024L0.0249,-0.0223L0.0215,-0.0207L0.0184,-0.019L0.0154,-0.0173L0.0127,-0.0156L0.0103,-0.014L0.0081,-0.0123L0.0062,-0.0107L0.0045,-0.0091L0.0031,-0.0075L0.0019,-0.0059L0.0011,-0.0044L0.0004,-0.0028L0.0001,-0.0013L0,0.0002L0.0002,0.0016L0.0006,0.003L0.0013,0.0044L0.0023,0.0057L0.0036,0.007L0.0051,0.0082L0.0069,0.0093L0.0091,0.0104L0.0115,0.0114L0.0142,0.0124L0.0173,0.0134L0.0206,0.0143L0.0243,0.0152L0.0282,0.016L0.0325,0.0169L0.037,0.0177L0.0418,0.0184L0.0469,0.0192L0.0522,0.0199L0.0578,0.0205L0.0637,0.0212L0.0699,0.0218L0.0763,0.0224L0.083,0.0229L0.0899,0.0234L0.0971,0.0239L0.1045,0.0243L0.1122,0.0247L0.1201,0.0251L0.1282,0.0254L0.1366,0.0257L0.1452,0.026L0.154,0.0262L0.163,0.0264L0.1722,0.0265L0.1816,0.0267L0.1912,0.0267L0.2011,0.0268L0.2111,0.0268L0.2213,0.0268L0.2316,0.0267L0.2422,0.0266L0.2529,0.0265L0.2638,0.0264L0.2748,0.0262L0.286,0.026L0.2973,0.0258L0.3087,0.0256L0.3203,0.0253L0.3319,0.025L0.3437,0.0247L0.3556,0.0244L0.3676,0.024L0.3797,0.0236L0.3918,0.0232L0.404,0.0228L0.4163,0.0224L0.4287,0.0219L0.4411,0.0214L0.4535,0.021L0.466,0.0205L0.4785,0.0199L0.4911,0.0194L0.5036,0.0189L0.5162,0.0183L0.5287,0.0178L0.5412,0.0172L0.5537,0.0166L0.5662,0.016L0.5787,0.0154L0.5911,0.0148L0.6034,0.0142L0.6157,0.0136L0.628,0.0129L0.6401,0.0123L0.6522,0.0116L0.6642,0.011L0.6761,0.0103L0.6879,0.0097L0.6997,0.009L0.7113,0.0084L0.7228,0.0077L0.7341,0.0071L0.7454,0.0064L0.7565,0.0058L0.7675,0.0052L0.7783,0.0045L0.789,0.0039L0.7996,0.0034L0.8099,0.003L0.8201,0.0026L0.83,0.0022L0.8397,0.0018L0.8492,0.0015L0.8584,0.0012L0.8674,0.0009L0.8762,0.0006L0.8847,0.0004L0.893,0.0002L0.901,0L0.9087,-0.0001L0.9162,-0.0003L0.9234,-0.0004L0.9302,-0.0005L0.9368,-0.0005L0.9431,-0.0006L0.9491,-0.0006L0.9548,-0.0006L0.9601,-0.0006L0.9652,-0.0006L0.9699,-0.0005L0.9743,-0.0005L0.9783,-0.0004L0.982,-0.0003L0.9853,-0.0003L0.9884,-0.0002L0.991,-0.0001L0.9933,-0L0.9953,0L0.9969,0.0001L0.9982,0.0001L0.9991,0.0001L0.9997,0.0002L1,0.0002"
    />
</svg>
