
<svg 
  class="airfoil-dsma523a"
  fill="none"
  stroke="black" 
  stroke-width="1"
  style="overflow:visible"
  viewBox="0, -0.0553, 1, 0.1105"
  xmlns="http://www.w3.org/2000/svg">
    <title>DSMA-523A AIRFOIL</title>
    <path 
      vector-effect="non-scaling-stroke"
      d="M1,-0.0003L0.98,-0.0068L0.96,-0.0126L0.95,-0.0177L0.92,-0.0222L0.9,-0.0262L0.88,-0.0297L0.86,-0.0328L0.84,-0.0355L0.82,-0.0379L0.8,-0.04L0.78,-0.0419L0.76,-0.0436L0.74,-0.0451L0.72,-0.0465L0.7,-0.0477L0.68,-0.0488L0.66,-0.0498L0.64,-0.0507L0.62,-0.0515L0.6,-0.0523L0.58,-0.0529L0.56,-0.0535L0.54,-0.054L0.52,-0.0544L0.5,-0.0547L0.48,-0.055L0.46,-0.0551L0.44,-0.0552L0.42,-0.0553L0.4,-0.0552L0.38,-0.0551L0.36,-0.055L0.34,-0.0548L0.32,-0.0545L0.3,-0.0542L0.28,-0.0537L0.26,-0.0532L0.24,-0.0526L0.22,-0.0518L0.2,-0.0509L0.18,-0.0498L0.16,-0.0485L0.14,-0.047L0.12,-0.0452L0.1,-0.043L0.08,-0.0404L0.06,-0.0374L0.04,-0.0335L0.03,-0.0307L0.02,-0.0269L0.015,-0.0243L0.0125,-0.0227L0.01,-0.0207L0.0075,-0.0184L0.0051,-0.0153L0.0025,-0.0111L0.001,-0.0071L0.0005,-0.0051L0,-0L0.0005,0.0051L0.001,0.0071L0.0025,0.0111L0.0051,0.0153L0.0075,0.0184L0.01,0.0207L0.0125,0.0225L0.015,0.0241L0.02,0.0267L0.03,0.0307L0.04,0.0336L0.06,0.0371L0.08,0.0417L0.1,0.0446L0.12,0.0468L0.14,0.0486L0.16,0.0501L0.18,0.0513L0.2,0.0524L0.22,0.0532L0.24,0.0539L0.26,0.0544L0.28,0.0548L0.3,0.0551L0.32,0.0552L0.34,0.0551L0.36,0.055L0.38,0.0547L0.4,0.0543L0.42,0.0537L0.44,0.053L0.46,0.0521L0.48,0.0511L0.5,0.0499L0.52,0.0485L0.54,0.0468L0.56,0.0446L0.58,0.042L0.6,0.0389L0.62,0.0352L0.64,0.0309L0.66,0.0261L0.68,0.0206L0.7,0.0154L0.72,0.0106L0.74,0.006L0.76,0.0019L0.78,-0.0019L0.8,-0.0052L0.82,-0.0081L0.84,-0.0105L0.86,-0.0124L0.88,-0.0136L0.9,-0.0142L0.92,-0.0138L0.95,-0.0123L0.96,-0.0097L0.98,-0.0058L1,-0.0005"
    />
</svg>
