
<svg 
  class="airfoil-du-80-176-v1"
  fill="none"
  stroke="black" 
  stroke-width="1"
  style="overflow:visible"
  viewBox="0, -0.1178, 1, 0.1759"
  xmlns="http://www.w3.org/2000/svg">
    <title>DU 80-176 V1</title>
    <path 
      vector-effect="non-scaling-stroke"
      d="M1,-0L0.9988,-0.0006L0.9953,-0.0025L0.9901,-0.0049L0.9832,-0.0076L0.9742,-0.0104L0.9631,-0.0134L0.9499,-0.0167L0.9347,-0.0204L0.9176,-0.0244L0.8986,-0.0288L0.8781,-0.0337L0.8561,-0.0389L0.8327,-0.0445L0.8082,-0.0505L0.7827,-0.0568L0.7563,-0.0632L0.7294,-0.0699L0.702,-0.0765L0.6743,-0.083L0.6465,-0.0893L0.6185,-0.095L0.5905,-0.1001L0.5622,-0.1046L0.5339,-0.1084L0.5056,-0.1116L0.4773,-0.1142L0.4491,-0.1161L0.4211,-0.1173L0.3934,-0.1178L0.3661,-0.1177L0.3392,-0.1169L0.3128,-0.1155L0.287,-0.1135L0.2619,-0.1108L0.2375,-0.1076L0.214,-0.1039L0.1914,-0.0996L0.1697,-0.0948L0.1491,-0.0896L0.1296,-0.084L0.1112,-0.078L0.0941,-0.0716L0.0783,-0.065L0.0638,-0.0582L0.0506,-0.0513L0.0389,-0.0442L0.0286,-0.0372L0.0198,-0.0302L0.0126,-0.0234L0.007,-0.0167L0.003,-0.0104L0.0007,-0.0044L0,0.0009L0.0015,0.0056L0.0054,0.0096L0.0116,0.0135L0.0199,0.0175L0.0302,0.0213L0.0424,0.025L0.0565,0.0286L0.0723,0.032L0.0898,0.0353L0.1089,0.0384L0.1295,0.0414L0.1515,0.0441L0.1748,0.0467L0.1994,0.049L0.225,0.0512L0.2516,0.053L0.279,0.0546L0.3072,0.0559L0.3361,0.057L0.3654,0.0577L0.3951,0.0581L0.4251,0.0581L0.4552,0.0578L0.4852,0.0571L0.5152,0.056L0.5448,0.0543L0.574,0.0522L0.6027,0.0495L0.6305,0.0458L0.6579,0.0408L0.6854,0.0345L0.7134,0.0274L0.7419,0.0201L0.7707,0.013L0.7995,0.0066L0.8279,0.0013L0.8555,-0.0027L0.8817,-0.0054L0.906,-0.0066L0.9278,-0.0068L0.9469,-0.0062L0.9632,-0.0051L0.9766,-0.0037L0.9869,-0.0022L0.9942,-0.001L0.9985,-0.0003L1,-0"
    />
</svg>
