
<svg 
  class="airfoil-du-80-141"
  fill="none"
  stroke="black" 
  stroke-width="1"
  style="overflow:visible"
  viewBox="0, -0.0978, 1, 0.1409"
  xmlns="http://www.w3.org/2000/svg">
    <title>DU 80-141</title>
    <path 
      vector-effect="non-scaling-stroke"
      d="M1,-0L0.9988,-0.0006L0.9955,-0.0024L0.9904,-0.0047L0.9838,-0.0075L0.9755,-0.0104L0.9653,-0.0131L0.9531,-0.016L0.939,-0.0191L0.923,-0.0224L0.9053,-0.0259L0.886,-0.0295L0.8651,-0.0334L0.8427,-0.0374L0.819,-0.0416L0.7941,-0.046L0.7681,-0.0505L0.7412,-0.055L0.7136,-0.0596L0.6834,-0.0651L0.6545,-0.0697L0.6253,-0.0741L0.5957,-0.0783L0.5661,-0.0822L0.5364,-0.0858L0.5068,-0.089L0.4773,-0.0918L0.4481,-0.094L0.4191,-0.0958L0.3905,-0.097L0.3625,-0.0977L0.3349,-0.0978L0.308,-0.0973L0.2818,-0.0963L0.2564,-0.0947L0.2318,-0.0926L0.2082,-0.09L0.1855,-0.0869L0.1639,-0.0833L0.1434,-0.0792L0.1241,-0.0748L0.1061,-0.0699L0.0894,-0.0647L0.074,-0.0592L0.0599,-0.0533L0.0473,-0.0473L0.0361,-0.041L0.0264,-0.0347L0.0181,-0.0283L0.0061,-0.0158L0.0026,-0.0097L0.0005,-0.004L0,-0L0.0001,0.0013L0.0015,0.006L0.0049,0.0101L0.0106,0.0139L0.0183,0.0175L0.0279,0.0209L0.0394,0.0242L0.0526,0.0272L0.0676,0.03L0.0843,0.0324L0.1025,0.0347L0.1224,0.0366L0.1437,0.0383L0.1664,0.0398L0.1904,0.041L0.2155,0.0419L0.2416,0.0426L0.2687,0.043L0.2966,0.0431L0.3252,0.0428L0.3543,0.0423L0.3839,0.0413L0.4139,0.04L0.4441,0.0383L0.4743,0.036L0.5045,0.0333L0.5346,0.0297L0.5647,0.025L0.5954,0.0194L0.6268,0.0131L0.6591,0.0069L0.6997,-0.0011L0.7315,-0.0047L0.7625,-0.0068L0.7925,-0.0082L0.8211,-0.009L0.8482,-0.0093L0.8735,-0.0091L0.8969,-0.0083L0.9181,-0.0072L0.9369,-0.0059L0.9533,-0.0045L0.9671,-0.0032L0.9786,-0.0022L0.9877,-0.0013L0.9944,-0.0006L0.9986,-0.0002L1,-0"
    />
</svg>
