
<svg 
  class="airfoil-du84132v"
  fill="none"
  stroke="black" 
  stroke-width="1"
  style="overflow:visible"
  viewBox="0, -0.0975, 1, 0.1371"
  xmlns="http://www.w3.org/2000/svg">
    <title>DELFT DU84-132V3 AIRFOIL (MEASURED)</title>
    <path 
      vector-effect="non-scaling-stroke"
      d="M1,-0L0.9772,-0.0068L0.9544,-0.0131L0.9317,-0.0192L0.9089,-0.0247L0.8861,-0.0301L0.8633,-0.0352L0.8406,-0.0401L0.8178,-0.0452L0.795,-0.05L0.7722,-0.0547L0.7494,-0.0585L0.7266,-0.0629L0.7039,-0.0665L0.6811,-0.0705L0.6583,-0.0738L0.6355,-0.0773L0.6128,-0.0802L0.59,-0.0832L0.5672,-0.0856L0.5444,-0.088L0.5216,-0.0902L0.4989,-0.092L0.4761,-0.0939L0.4533,-0.0957L0.4305,-0.0966L0.4077,-0.0974L0.385,-0.0975L0.3622,-0.0975L0.3394,-0.0974L0.3166,-0.0969L0.2939,-0.0959L0.2711,-0.0948L0.2483,-0.0929L0.2255,-0.0911L0.2027,-0.0886L0.1799,-0.0852L0.1572,-0.0811L0.1344,-0.0756L0.1116,-0.0702L0.0888,-0.0629L0.0661,-0.0547L0.0433,-0.0446L0.0342,-0.0392L0.0251,-0.0337L0.0159,-0.0264L0.0068,-0.0173L0.0023,-0.01L0,-0L0.0023,0.0055L0.0068,0.0119L0.0159,0.0167L0.0251,0.0201L0.0342,0.0228L0.0433,0.0244L0.0661,0.0288L0.0888,0.0319L0.1116,0.0346L0.1344,0.0362L0.1572,0.0374L0.1799,0.0384L0.2027,0.0392L0.2255,0.0394L0.2483,0.0396L0.2711,0.0396L0.2939,0.0395L0.3166,0.0393L0.3394,0.0389L0.3622,0.0383L0.385,0.0374L0.4077,0.0364L0.4305,0.0355L0.4533,0.0346L0.4761,0.0337L0.4989,0.0325L0.5216,0.0312L0.5444,0.03L0.5672,0.0284L0.59,0.0269L0.6128,0.0251L0.6355,0.0229L0.6583,0.0205L0.6811,0.0175L0.7039,0.0144L0.7266,0.0109L0.7494,0.0073L0.7722,0.0036L0.795,-0L0.8178,-0.0027L0.8406,-0.0046L0.8633,-0.0055L0.8861,-0.0055L0.9089,-0.0055L0.9317,-0.0048L0.9544,-0.0036L0.9772,-0.0018L1,-0"
    />
</svg>
