
<svg 
  class="airfoil-du8608418"
  fill="none"
  stroke="black" 
  stroke-width="1"
  style="overflow:visible"
  viewBox="0, -0.0533, 1, 0.0847"
  xmlns="http://www.w3.org/2000/svg">
    <title>DU86-084/18 8.44%</title>
    <path 
      vector-effect="non-scaling-stroke"
      d="M1,-0L0.9988,-0.0001L0.9954,-0.0006L0.9899,-0.0012L0.9823,-0.0018L0.9726,-0.0024L0.9606,-0.0032L0.9465,-0.0041L0.9304,-0.0053L0.9122,-0.0068L0.8923,-0.0088L0.8707,-0.011L0.8472,-0.0134L0.8218,-0.0168L0.7957,-0.022L0.7703,-0.028L0.7453,-0.0327L0.7196,-0.0363L0.6928,-0.0393L0.6651,-0.0419L0.6368,-0.0442L0.6078,-0.0463L0.5783,-0.048L0.5485,-0.0495L0.5184,-0.0507L0.4882,-0.0518L0.458,-0.0525L0.4279,-0.053L0.3981,-0.0533L0.3687,-0.0533L0.3397,-0.0531L0.3114,-0.0526L0.2837,-0.0518L0.2568,-0.0509L0.2309,-0.0496L0.206,-0.0481L0.1821,-0.0465L0.1595,-0.0445L0.1382,-0.0424L0.1182,-0.0399L0.0997,-0.0373L0.0826,-0.0344L0.0671,-0.0313L0.0531,-0.028L0.0407,-0.0246L0.0299,-0.021L0.0208,-0.0173L0.0133,-0.0135L0.0076,-0.0097L0.0033,-0.006L0.0008,-0.0025L0,0.0005L0.0016,0.0031L0.0052,0.0058L0.0108,0.0085L0.0183,0.0112L0.0276,0.0138L0.0387,0.0162L0.0515,0.0186L0.0661,0.0207L0.0823,0.0227L0.1001,0.0245L0.1194,0.026L0.1403,0.0274L0.1626,0.0286L0.1862,0.0295L0.2111,0.0302L0.2372,0.0308L0.2643,0.0312L0.2924,0.0314L0.3214,0.0314L0.3512,0.0314L0.3815,0.0312L0.4124,0.0308L0.4437,0.0304L0.4751,0.0299L0.5067,0.0293L0.5383,0.0286L0.5697,0.0279L0.6007,0.0271L0.6313,0.0262L0.6613,0.0253L0.6906,0.0242L0.719,0.0231L0.7464,0.0218L0.7727,0.0204L0.7978,0.0187L0.8216,0.0167L0.8441,0.0142L0.8659,0.011L0.8869,0.008L0.9069,0.0054L0.9255,0.0033L0.9425,0.0018L0.9575,0.0008L0.9704,0.0003L0.981,0L0.9893,-0L0.9953,-0L0.9988,-0L1,-0"
    />
</svg>
