
<svg 
  class="airfoil-du861372"
  fill="none"
  stroke="black" 
  stroke-width="1"
  style="overflow:visible"
  viewBox="0, -0.068, 1, 0.13640001"
  xmlns="http://www.w3.org/2000/svg">
    <title>DU 86-137/25 AIRFOIL</title>
    <path 
      vector-effect="non-scaling-stroke"
      d="M1,-0L0.9074,-0.0108L0.8168,-0.0221L0.7623,-0.0297L0.705,-0.0416L0.6501,-0.0514L0.593,-0.0585L0.5049,-0.0652L0.4455,-0.0675L0.416,-0.068L0.3578,-0.068L0.3015,-0.0665L0.2979,-0.0636L0.198,-0.0593L0.1524,-0.0539L0.1118,-0.0473L0.0767,-0.0397L0.0477,-0.0315L0.0252,-0.0228L0.0165,-0.0183L0.0096,-0.0138L0.0045,-0.0094L0.0013,-0.005L0,-0L0.0029,0.0077L0.0076,0.0116L0.0143,0.0112L0.0451,0.0284L0.0741,0.0365L0.1029,0.0441L0.1499,0.0511L0.2453,0.0621L0.2986,0.0657L0.3545,0.0678L0.4123,0.0684L0.6178,0.0572L0.7017,0.0453L0.8078,0.0247L0.9012,0.0087L1,-0"
    />
</svg>
