
<svg 
  class="airfoil-e1098"
  fill="none"
  stroke="black" 
  stroke-width="1"
  style="overflow:visible"
  viewBox="0, -0.1282, 1, 0.1908"
  xmlns="http://www.w3.org/2000/svg">
    <title>EPPLER 1098 AIRFOIL</title>
    <path 
      vector-effect="non-scaling-stroke"
      d="M1,-0L0.9963,-0.001L0.9857,-0.0041L0.9695,-0.0091L0.9481,-0.0155L0.9215,-0.0227L0.8899,-0.0312L0.854,-0.0409L0.8146,-0.0516L0.7724,-0.0632L0.7282,-0.0753L0.6827,-0.0875L0.6367,-0.0992L0.5907,-0.1099L0.5454,-0.1188L0.5007,-0.1247L0.4557,-0.1276L0.4105,-0.1282L0.3656,-0.1268L0.3216,-0.1237L0.2788,-0.1189L0.2378,-0.1127L0.199,-0.1051L0.1628,-0.0963L0.1296,-0.0864L0.0997,-0.0755L0.0733,-0.064L0.0506,-0.052L0.032,-0.0397L0.0175,-0.0275L0.0072,-0.0159L0.0013,-0.0053L0,-0L0.0005,0.003L0.0063,0.0099L0.0187,0.0171L0.0365,0.0243L0.0592,0.0313L0.0864,0.038L0.1179,0.0442L0.1531,0.0497L0.1917,0.0545L0.2331,0.0583L0.2769,0.061L0.3225,0.0625L0.3694,0.0626L0.4169,0.0608L0.4652,0.0563L0.5151,0.0492L0.5666,0.0407L0.6192,0.0318L0.6719,0.023L0.7239,0.015L0.7742,0.0082L0.8218,0.0028L0.8656,-0.0009L0.9047,-0.003L0.9381,-0.0036L0.9649,-0.003L0.9843,-0.0018L0.9961,-0.0005L1,0"
    />
</svg>
