
<svg 
  class="airfoil-e1200"
  fill="none"
  stroke="black" 
  stroke-width="1"
  style="overflow:visible"
  viewBox="0, -0.1187, 1, 0.17"
  xmlns="http://www.w3.org/2000/svg">
    <title>EPPLER 1200 AIRFOIL</title>
    <path 
      vector-effect="non-scaling-stroke"
      d="M1,0L0.9963,-0.001L0.9858,-0.004L0.9697,-0.0091L0.9484,-0.0154L0.9219,-0.0228L0.8907,-0.0312L0.8553,-0.0409L0.8165,-0.0514L0.7751,-0.0626L0.7316,-0.074L0.6869,-0.0851L0.6414,-0.0954L0.5955,-0.104L0.5491,-0.1105L0.5021,-0.1151L0.4549,-0.1177L0.4077,-0.1187L0.3611,-0.1181L0.3156,-0.1162L0.2718,-0.1128L0.2301,-0.1082L0.191,-0.1023L0.155,-0.0952L0.1224,-0.0869L0.0934,-0.0774L0.0681,-0.0668L0.0467,-0.0554L0.0293,-0.0433L0.0159,-0.031L0.0066,-0.0188L0.0013,-0.0073L0,-0L0.005,0.0107L0.005,0.0107L0.0161,0.0178L0.0327,0.0244L0.0544,0.0304L0.081,0.0357L0.1122,0.0401L0.1477,0.0438L0.187,0.0468L0.2297,0.0491L0.2752,0.0506L0.323,0.0513L0.3724,0.0512L0.4229,0.0502L0.4738,0.048L0.5248,0.0444L0.5757,0.0392L0.6265,0.0326L0.6771,0.0249L0.7273,0.0172L0.7762,0.0102L0.8228,0.0044L0.8659,0.0001L0.9047,-0.0026L0.938,-0.0035L0.9649,-0.0031L0.9844,-0.0018L0.9961,-0.0005L1,0"
    />
</svg>
