
<svg 
  class="airfoil-e1211"
  fill="none"
  stroke="black" 
  stroke-width="1"
  style="overflow:visible"
  viewBox="0, -0.13, 1, 0.1862"
  xmlns="http://www.w3.org/2000/svg">
    <title>EPPLER 1211 AIRFOIL</title>
    <path 
      vector-effect="non-scaling-stroke"
      d="M1,0L0.9963,-0.0009L0.9859,-0.0037L0.9699,-0.0083L0.9487,-0.0138L0.9222,-0.0199L0.8905,-0.0267L0.8541,-0.0344L0.8137,-0.043L0.7699,-0.0524L0.7233,-0.0623L0.6748,-0.0726L0.6249,-0.0829L0.5743,-0.093L0.5237,-0.1024L0.4736,-0.111L0.4246,-0.1183L0.377,-0.1241L0.3312,-0.128L0.2877,-0.13L0.2468,-0.1299L0.2086,-0.1274L0.1734,-0.1227L0.1412,-0.1156L0.1122,-0.1063L0.0863,-0.095L0.0634,-0.0821L0.0438,-0.0681L0.0277,-0.0535L0.0151,-0.0386L0.0063,-0.0237L0,-0L0.0043,0.0144L0.0141,0.0244L0.0286,0.0338L0.0473,0.0421L0.07,0.0489L0.0967,0.0537L0.1274,0.0562L0.1623,0.056L0.2019,0.0534L0.2462,0.0493L0.2945,0.0443L0.346,0.0386L0.4002,0.0328L0.4562,0.0269L0.5132,0.0212L0.5704,0.0159L0.6271,0.0111L0.6823,0.007L0.7353,0.0036L0.7854,0.001L0.8317,-0.0009L0.8737,-0.002L0.9105,-0.0024L0.9416,-0.0023L0.9666,-0.0018L0.9849,-0.0011L0.9962,-0.0003L1,0"
    />
</svg>
