
<svg 
  class="airfoil-e1213"
  fill="none"
  stroke="black" 
  stroke-width="1"
  style="overflow:visible"
  viewBox="0, -0.1059, 1, 0.1748"
  xmlns="http://www.w3.org/2000/svg">
    <title>EPPLER 1213 AIRFOIL</title>
    <path 
      vector-effect="non-scaling-stroke"
      d="M1,-0L0.9962,-0.0004L0.9853,-0.0018L0.9682,-0.0043L0.9454,-0.0077L0.9168,-0.0116L0.8829,-0.0164L0.8442,-0.0221L0.8014,-0.0288L0.7552,-0.0365L0.7064,-0.0449L0.6557,-0.0537L0.604,-0.0629L0.5518,-0.0719L0.4998,-0.0805L0.4487,-0.0884L0.3989,-0.0951L0.3509,-0.1004L0.3051,-0.1041L0.2618,-0.1059L0.2213,-0.1058L0.1839,-0.1035L0.1497,-0.0991L0.1189,-0.0927L0.0917,-0.0842L0.0679,-0.0737L0.0473,-0.0618L0.0302,-0.049L0.0168,-0.0357L0.0072,-0.0223L0,-0L0.0043,0.0132L0.0141,0.0237L0.0285,0.034L0.0471,0.0437L0.0695,0.0524L0.0956,0.0596L0.1255,0.0649L0.1589,0.0681L0.1962,0.0689L0.2375,0.0676L0.2827,0.0648L0.3312,0.061L0.3823,0.0565L0.4353,0.0515L0.4896,0.0462L0.5444,0.0408L0.599,0.0354L0.6527,0.0302L0.7047,0.0252L0.7544,0.0206L0.8011,0.0165L0.8441,0.0128L0.8828,0.0096L0.9167,0.0068L0.9453,0.0046L0.9682,0.0025L0.9854,0.001L0.9962,0.0002L1,-0"
    />
</svg>
