
<svg 
  class="airfoil-e1210"
  fill="none"
  stroke="black" 
  stroke-width="1"
  style="overflow:visible"
  viewBox="0, -0.1289, 1, 0.1667"
  xmlns="http://www.w3.org/2000/svg">
    <title>EPPLER 1210 AIRFOIL</title>
    <path 
      vector-effect="non-scaling-stroke"
      d="M1,0L0.9964,-0.0008L0.9861,-0.0034L0.9701,-0.0076L0.949,-0.0128L0.9226,-0.0185L0.8909,-0.0251L0.8546,-0.0326L0.8142,-0.041L0.7705,-0.0502L0.7241,-0.0601L0.6757,-0.0703L0.626,-0.0806L0.5756,-0.0907L0.5251,-0.1003L0.4752,-0.1089L0.4263,-0.1164L0.3789,-0.1223L0.3333,-0.1265L0.2899,-0.1287L0.2491,-0.1289L0.211,-0.1267L0.1759,-0.1223L0.1438,-0.1155L0.1148,-0.1065L0.0888,-0.0956L0.0658,-0.0831L0.046,-0.0695L0.0296,-0.0552L0.0167,-0.0406L0.0075,-0.0261L0.0019,-0.0121L0,-0L0.0024,0.011L0.0103,0.0195L0.0232,0.0269L0.0408,0.0326L0.0632,0.0363L0.0905,0.0378L0.1233,0.0371L0.1613,0.0352L0.204,0.0323L0.2509,0.0288L0.3013,0.025L0.3545,0.021L0.4099,0.017L0.4665,0.0131L0.5238,0.0095L0.5809,0.0063L0.6371,0.0035L0.6916,0.0012L0.7436,-0.0005L0.7925,-0.0017L0.8376,-0.0024L0.8782,-0.0027L0.9138,-0.0025L0.9437,-0.0021L0.9677,-0.0015L0.9853,-0.0009L0.9963,-0.0003L1,-0"
    />
</svg>
