
<svg 
  class="airfoil-e1212"
  fill="none"
  stroke="black" 
  stroke-width="1"
  style="overflow:visible"
  viewBox="0, -0.1176, 1, 0.1801"
  xmlns="http://www.w3.org/2000/svg">
    <title>EPPLER E1212 AIRFOIL</title>
    <path 
      vector-effect="non-scaling-stroke"
      d="M1,-0L0.9962,-0.0006L0.9856,-0.0027L0.969,-0.0063L0.947,-0.0108L0.9195,-0.0158L0.8866,-0.0215L0.8491,-0.0283L0.8075,-0.036L0.7625,-0.0444L0.7148,-0.0536L0.6652,-0.0631L0.6144,-0.0728L0.563,-0.0823L0.5117,-0.0913L0.4611,-0.0995L0.4116,-0.1064L0.3638,-0.1119L0.318,-0.1157L0.2746,-0.1176L0.2339,-0.1173L0.1961,-0.115L0.1614,-0.1103L0.1299,-0.1035L0.1018,-0.0945L0.0768,-0.0836L0.0551,-0.0712L0.0367,-0.0577L0.0218,-0.0437L0.0107,-0.0295L0.0034,-0.0155L0.0001,-0.0024L0,-0L0.0015,0.0089L0.0086,0.0191L0.0208,0.0293L0.0374,0.0388L0.058,0.0473L0.0825,0.0543L0.1108,0.0593L0.143,0.0622L0.1791,0.0625L0.2196,0.0606L0.2644,0.0571L0.3128,0.0527L0.3642,0.0477L0.4178,0.0423L0.473,0.0367L0.5289,0.0312L0.5848,0.0259L0.6399,0.0209L0.6935,0.0163L0.7449,0.0123L0.7932,0.0089L0.8379,0.0061L0.8782,0.0039L0.9136,0.0023L0.9434,0.0012L0.9674,0.0004L0.9851,-0.0001L0.9962,-0.0001L1,-0"
    />
</svg>
