
<svg 
  class="airfoil-e1212mod"
  fill="none"
  stroke="black" 
  stroke-width="1"
  style="overflow:visible"
  viewBox="0, -0.1113, 1, 0.1807"
  xmlns="http://www.w3.org/2000/svg">
    <title>EPPLER E1212MOD AIRFOIL</title>
    <path 
      vector-effect="non-scaling-stroke"
      d="M1,-0L0.9501,-0.0081L0.9001,-0.016L0.8502,-0.0239L0.8002,-0.032L0.7503,-0.0406L0.7003,-0.0502L0.6504,-0.0603L0.6004,-0.0697L0.5505,-0.0783L0.5005,-0.0863L0.4506,-0.0942L0.4006,-0.1017L0.3507,-0.1071L0.3007,-0.1104L0.2507,-0.1113L0.2007,-0.1088L0.1506,-0.1013L0.1005,-0.0853L0.0504,-0.0603L0.0252,-0.0394L0.0127,-0.0247L0.0076,-0.0176L0.0051,-0.0129L0.001,-0.0033L0.0002,-0.0008L0,-0L0.0001,0.018L0.0009,0.0199L0.0048,0.0266L0.0073,0.0292L0.0123,0.0335L0.0247,0.0429L0.0497,0.0548L0.0996,0.067L0.1496,0.0694L0.1996,0.0684L0.2496,0.0653L0.2996,0.0601L0.3497,0.055L0.3997,0.0499L0.4497,0.0446L0.4997,0.0399L0.5498,0.0354L0.5998,0.0306L0.6498,0.0267L0.6999,0.0217L0.7499,0.0173L0.7999,0.0139L0.8499,0.0102L0.9,0.0068L0.95,0.0032L1,-0"
    />
</svg>
