
<svg 
  class="airfoil-e1214"
  fill="none"
  stroke="black" 
  stroke-width="1"
  style="overflow:visible"
  viewBox="0, -0.1199, 1, 0.1985"
  xmlns="http://www.w3.org/2000/svg">
    <title>EPPLER 1214 AIRFOIL</title>
    <path 
      vector-effect="non-scaling-stroke"
      d="M1,-0L0.996,-0.0005L0.9846,-0.0024L0.967,-0.0058L0.9439,-0.01L0.9151,-0.0148L0.8808,-0.0204L0.8417,-0.0271L0.7986,-0.0349L0.7521,-0.0436L0.7031,-0.053L0.6523,-0.063L0.6006,-0.0732L0.5485,-0.0832L0.4968,-0.0926L0.446,-0.1012L0.3967,-0.1085L0.3493,-0.1142L0.3042,-0.1181L0.2617,-0.1199L0.2221,-0.1194L0.1856,-0.1163L0.1521,-0.1108L0.1218,-0.1029L0.0945,-0.0928L0.0702,-0.081L0.0492,-0.0679L0.0318,-0.054L0.018,-0.0396L0.008,-0.0252L0,-0L0.0037,0.0129L0.0037,0.0129L0.0134,0.0235L0.0281,0.0342L0.0473,0.0444L0.0706,0.054L0.0976,0.0624L0.1282,0.0694L0.162,0.0747L0.199,0.0778L0.2391,0.0786L0.2826,0.0771L0.3294,0.0737L0.3791,0.069L0.4311,0.0634L0.4846,0.0573L0.5389,0.051L0.5933,0.0445L0.6469,0.0382L0.6992,0.0321L0.7492,0.0265L0.7964,0.0213L0.84,0.0166L0.8794,0.0125L0.914,0.0091L0.9432,0.0061L0.9668,0.0034L0.9846,0.0013L0.996,0.0002L1,-0"
    />
</svg>
