
<svg 
  class="airfoil-e1230"
  fill="none"
  stroke="black" 
  stroke-width="1"
  style="overflow:visible"
  viewBox="0, -0.1233, 1, 0.1749"
  xmlns="http://www.w3.org/2000/svg">
    <title>EPPLER 1230 AIRFOIL</title>
    <path 
      vector-effect="non-scaling-stroke"
      d="M1,-0.0001L0.9985,-0.0009L0.9942,-0.0017L0.9874,-0.004L0.9786,-0.0071L0.968,-0.011L0.9556,-0.015L0.9414,-0.0192L0.9252,-0.0233L0.9069,-0.0277L0.8868,-0.0322L0.8648,-0.037L0.8413,-0.042L0.8162,-0.0472L0.7898,-0.0526L0.7622,-0.0581L0.7335,-0.0638L0.704,-0.0695L0.6737,-0.0752L0.6429,-0.0809L0.6117,-0.0865L0.5802,-0.092L0.5486,-0.0972L0.5171,-0.1021L0.4857,-0.1067L0.4547,-0.1108L0.4241,-0.1145L0.3941,-0.1176L0.3648,-0.12L0.3363,-0.1219L0.3086,-0.1229L0.2819,-0.1233L0.2562,-0.1227L0.2317,-0.1214L0.2082,-0.1191L0.1859,-0.1159L0.1648,-0.1118L0.1448,-0.1068L0.1259,-0.101L0.1082,-0.0945L0.0916,-0.0874L0.0762,-0.0799L0.0621,-0.0719L0.0493,-0.0637L0.0379,-0.0552L0.0279,-0.0466L0.0194,-0.0381L0.0124,-0.0296L0.0069,-0.0213L0.003,-0.0133L0.0007,-0.0058L0,-0L0,0.001L0.0013,0.0068L0.0051,0.0116L0.0115,0.0164L0.0202,0.021L0.0308,0.0254L0.0433,0.0294L0.0579,0.0329L0.0744,0.0361L0.0928,0.039L0.1131,0.0415L0.135,0.0438L0.1586,0.0457L0.1836,0.0474L0.21,0.0489L0.2375,0.05L0.2662,0.0508L0.2957,0.0514L0.3261,0.0516L0.3571,0.0515L0.3886,0.0511L0.4205,0.0503L0.4525,0.0491L0.4846,0.0474L0.5167,0.0452L0.5488,0.0424L0.5808,0.0391L0.6126,0.0354L0.6442,0.0312L0.6755,0.0265L0.7,0.024L0.72,0.022L0.74,0.02L0.768,0.018L0.794,0.016L0.822,0.014L0.85,0.012L0.88,0.01L0.898,0.008L0.928,0.006L0.952,0.004L0.98,0.002L1,0.0001"
    />
</svg>
