
<svg 
  class="airfoil-e1233"
  fill="none"
  stroke="black" 
  stroke-width="1"
  style="overflow:visible"
  viewBox="0, -0.1379, 1, 0.1895"
  xmlns="http://www.w3.org/2000/svg">
    <title>EPPLER 1233 AIRFOIL</title>
    <path 
      vector-effect="non-scaling-stroke"
      d="M1,-0L0.9985,-0.0005L0.9944,-0.0021L0.9879,-0.005L0.9795,-0.0088L0.9695,-0.0133L0.9579,-0.0181L0.9444,-0.0229L0.929,-0.0278L0.9115,-0.0328L0.8922,-0.0381L0.8712,-0.0436L0.8485,-0.0494L0.8243,-0.0553L0.7988,-0.0613L0.772,-0.0675L0.7442,-0.0738L0.7154,-0.0801L0.6859,-0.0864L0.6558,-0.0926L0.6252,-0.0987L0.5944,-0.1046L0.5633,-0.1102L0.5323,-0.1155L0.5013,-0.1204L0.4706,-0.1248L0.4403,-0.1286L0.4105,-0.1319L0.3813,-0.1345L0.3528,-0.1364L0.3251,-0.1376L0.2983,-0.1379L0.2725,-0.1373L0.2476,-0.1357L0.2238,-0.1333L0.201,-0.1299L0.1793,-0.1255L0.1586,-0.1203L0.139,-0.1142L0.1205,-0.1074L0.1031,-0.0999L0.0869,-0.0919L0.0719,-0.0836L0.0581,-0.0749L0.0458,-0.0659L0.0348,-0.0568L0.0252,-0.0476L0.0172,-0.0384L0.0106,-0.0293L0.003,-0.0133L0.0007,-0.0058L0,0.001L0.0013,0.0068L0.0051,0.0116L0.0115,0.0164L0.0202,0.021L0.0308,0.0254L0.0433,0.0294L0.0579,0.0329L0.0744,0.0361L0.0928,0.039L0.1131,0.0415L0.135,0.0438L0.1586,0.0457L0.1836,0.0474L0.21,0.0489L0.2375,0.05L0.2662,0.0508L0.2957,0.0514L0.3261,0.0516L0.3571,0.0515L0.3886,0.0511L0.4205,0.0503L0.4525,0.0491L0.4846,0.0474L0.5167,0.0452L0.5488,0.0424L0.5808,0.0391L0.6126,0.0354L0.6442,0.0312L0.6755,0.0265L0.7066,0.0215L0.7375,0.0165L0.7679,0.0119L0.7976,0.0076L0.8263,0.0039L0.8536,0.0009L0.8794,-0.0014L0.9034,-0.0029L0.9252,-0.0038L0.9447,-0.004L0.9614,-0.0036L0.9753,-0.0028L0.9861,-0.0018L0.9938,-0.0009L0.9985,-0.0003L1,-0"
    />
</svg>
