
<svg 
  class="airfoil-e168"
  fill="none"
  stroke="black" 
  stroke-width="1"
  style="overflow:visible"
  viewBox="0, -0.0622, 1, 0.1244"
  xmlns="http://www.w3.org/2000/svg">
    <title>E168 (12.45%)</title>
    <path 
      vector-effect="non-scaling-stroke"
      d="M1,-0L0.9965,-0.0002L0.9863,-0.0011L0.9702,-0.0027L0.9485,-0.0048L0.9215,-0.0071L0.8891,-0.0098L0.8521,-0.0131L0.8109,-0.0169L0.7662,-0.0213L0.7185,-0.0261L0.6687,-0.0314L0.6174,-0.0367L0.5652,-0.0421L0.5128,-0.0473L0.4608,-0.052L0.4097,-0.0561L0.3602,-0.0592L0.3126,-0.0613L0.2674,-0.0622L0.2248,-0.0618L0.1854,-0.06L0.1491,-0.0567L0.1164,-0.0521L0.0873,-0.0463L0.062,-0.0394L0.0407,-0.0319L0.0236,-0.0238L0.011,-0.0155L0.0029,-0.0073L0,-0L0.0029,0.0073L0.011,0.0155L0.0236,0.0238L0.0407,0.0319L0.062,0.0394L0.0873,0.0463L0.1164,0.0521L0.1491,0.0567L0.1854,0.06L0.2248,0.0618L0.2674,0.0622L0.3126,0.0613L0.3602,0.0592L0.4097,0.0561L0.4608,0.052L0.5128,0.0473L0.5652,0.0421L0.6174,0.0367L0.6687,0.0314L0.7185,0.0261L0.7662,0.0213L0.8109,0.0169L0.8521,0.0131L0.8891,0.0098L0.9215,0.0071L0.9485,0.0048L0.9702,0.0027L0.9863,0.0011L0.9965,0.0002L1,-0"
    />
</svg>
