
<svg 
  class="airfoil-e169"
  fill="none"
  stroke="black" 
  stroke-width="1"
  style="overflow:visible"
  viewBox="0, -0.072, 1, 0.144"
  xmlns="http://www.w3.org/2000/svg">
    <title>E169 (14.4%)</title>
    <path 
      vector-effect="non-scaling-stroke"
      d="M1,-0L0.9964,-0.0002L0.986,-0.0012L0.9695,-0.0029L0.9474,-0.0051L0.9197,-0.0077L0.8867,-0.0108L0.849,-0.0146L0.8071,-0.019L0.7617,-0.0242L0.7135,-0.0299L0.6632,-0.036L0.6115,-0.0423L0.5591,-0.0487L0.5067,-0.0548L0.455,-0.0604L0.4044,-0.0652L0.3555,-0.0689L0.3088,-0.0713L0.2646,-0.072L0.2229,-0.0711L0.1841,-0.0686L0.1484,-0.0645L0.116,-0.059L0.0872,-0.0521L0.0621,-0.0443L0.0408,-0.0357L0.0238,-0.0266L0.0111,-0.0173L0.0029,-0.0082L0,-0L0.0029,0.0082L0.0111,0.0173L0.0238,0.0266L0.0408,0.0357L0.0621,0.0443L0.0872,0.0521L0.116,0.059L0.1484,0.0645L0.1841,0.0686L0.2229,0.0711L0.2646,0.072L0.3088,0.0713L0.3555,0.0689L0.4044,0.0652L0.455,0.0604L0.5067,0.0548L0.5591,0.0487L0.6115,0.0423L0.6632,0.036L0.7135,0.0299L0.7617,0.0242L0.8071,0.019L0.849,0.0146L0.8867,0.0108L0.9197,0.0077L0.9474,0.0051L0.9695,0.0029L0.986,0.0012L0.9964,0.0002L1,-0"
    />
</svg>
