
<svg 
  class="airfoil-e171"
  fill="none"
  stroke="black" 
  stroke-width="1"
  style="overflow:visible"
  viewBox="0, -0.0613, 1, 0.1226"
  xmlns="http://www.w3.org/2000/svg">
    <title>(Dicke 12.28%)</title>
    <path 
      vector-effect="non-scaling-stroke"
      d="M1,-0L0.9964,-0.0002L0.9861,-0.0012L0.9699,-0.003L0.9481,-0.0054L0.9209,-0.0081L0.8885,-0.0113L0.8516,-0.0153L0.8107,-0.0198L0.7664,-0.0249L0.7195,-0.0305L0.6706,-0.0364L0.6205,-0.0423L0.5698,-0.0479L0.5191,-0.053L0.4689,-0.0571L0.4194,-0.0598L0.371,-0.0612L0.3239,-0.0613L0.2784,-0.0601L0.235,-0.058L0.1942,-0.0548L0.1565,-0.0508L0.1221,-0.0459L0.0914,-0.0403L0.0648,-0.0341L0.0425,-0.0274L0.0246,-0.0203L0.0114,-0.0131L0.003,-0.0061L0,-0L0.003,0.0061L0.0114,0.0131L0.0246,0.0203L0.0425,0.0274L0.0648,0.0341L0.0914,0.0403L0.1221,0.0459L0.1565,0.0508L0.1942,0.0548L0.235,0.058L0.2784,0.0601L0.3239,0.0613L0.371,0.0612L0.4194,0.0598L0.4689,0.0571L0.5191,0.053L0.5698,0.0479L0.6205,0.0423L0.6706,0.0364L0.7195,0.0305L0.7664,0.0249L0.8107,0.0198L0.8516,0.0153L0.8885,0.0113L0.9209,0.0081L0.9481,0.0054L0.9699,0.003L0.9861,0.0012L0.9964,0.0002L1,-0"
    />
</svg>
