
<svg 
  class="airfoil-e174"
  fill="none"
  stroke="black" 
  stroke-width="1"
  style="overflow:visible"
  viewBox="0.0005, -0.0821, 0.9995, 0.096499994"
  xmlns="http://www.w3.org/2000/svg">
    <title>E174 (Dicke 8.92%)</title>
    <path 
      vector-effect="non-scaling-stroke"
      d="M1,-0L0.9968,-0.0004L0.9874,-0.0018L0.9721,-0.0042L0.9514,-0.0075L0.9258,-0.0117L0.8953,-0.0167L0.8607,-0.0223L0.8222,-0.0285L0.7805,-0.0353L0.7362,-0.0424L0.6898,-0.0496L0.642,-0.0569L0.5934,-0.0638L0.5447,-0.07L0.4963,-0.0752L0.4485,-0.0791L0.4017,-0.0814L0.3559,-0.0821L0.3116,-0.0812L0.2689,-0.0787L0.2281,-0.0749L0.1896,-0.07L0.154,-0.0642L0.1214,-0.0575L0.0922,-0.0502L0.0668,-0.0423L0.0452,-0.034L0.0277,-0.0256L0.0144,-0.0173L0.0053,-0.0094L0.0005,-0.0024L0.0008,0.0027L0.0069,0.0066L0.0186,0.0099L0.0355,0.0123L0.0578,0.0138L0.0851,0.0144L0.1174,0.0143L0.1542,0.0136L0.1953,0.0124L0.2402,0.0108L0.2883,0.009L0.339,0.007L0.3919,0.005L0.4462,0.003L0.5013,0.0012L0.5565,-0.0004L0.6111,-0.0018L0.6644,-0.0028L0.7158,-0.0036L0.7646,-0.004L0.8101,-0.0042L0.8519,-0.004L0.8894,-0.0036L0.9221,-0.003L0.9495,-0.0023L0.9713,-0.0015L0.9871,-0.0008L0.9968,-0.0002L1,-0"
    />
</svg>
