
<svg 
  class="airfoil-e176"
  fill="none"
  stroke="black" 
  stroke-width="1"
  style="overflow:visible"
  viewBox="0.0001, -0.0766, 0.9999, 0.0933"
  xmlns="http://www.w3.org/2000/svg">
    <title>E176 (8.83%)</title>
    <path 
      vector-effect="non-scaling-stroke"
      d="M1,-0L0.9968,-0.0003L0.9873,-0.0013L0.9718,-0.0032L0.9507,-0.006L0.9245,-0.0096L0.8934,-0.014L0.8581,-0.0191L0.8189,-0.025L0.7766,-0.0314L0.7316,-0.0382L0.6848,-0.0453L0.6365,-0.0523L0.5876,-0.0591L0.5387,-0.0652L0.4901,-0.0702L0.4422,-0.0739L0.3952,-0.076L0.3493,-0.0766L0.305,-0.0756L0.2622,-0.0732L0.2215,-0.0695L0.1832,-0.0649L0.1479,-0.0593L0.1157,-0.053L0.087,-0.046L0.0622,-0.0385L0.0413,-0.0306L0.0246,-0.0227L0.0121,-0.0148L0.0039,-0.0074L0.0001,-0.001L0.0018,0.0038L0.0093,0.0078L0.0222,0.0111L0.0403,0.0137L0.0636,0.0154L0.0919,0.0164L0.1249,0.0167L0.1624,0.0163L0.204,0.0156L0.2491,0.0144L0.2973,0.0129L0.348,0.0113L0.4007,0.0095L0.4547,0.0078L0.5093,0.0061L0.5639,0.0046L0.6178,0.0032L0.6704,0.0019L0.721,0.001L0.7689,0.0002L0.8137,-0.0003L0.8547,-0.0007L0.8914,-0.0008L0.9234,-0.0008L0.9502,-0.0007L0.9716,-0.0005L0.9872,-0.0003L0.9968,-0.0001L1,-0"
    />
</svg>
