
<svg 
  class="airfoil-e178"
  fill="none"
  stroke="black" 
  stroke-width="1"
  style="overflow:visible"
  viewBox="0, -0.0709, 1, 0.09"
  xmlns="http://www.w3.org/2000/svg">
    <title>E178 (8.69%)</title>
    <path 
      vector-effect="non-scaling-stroke"
      d="M1,-0L0.9968,-0.0002L0.9872,-0.0009L0.9716,-0.0022L0.9501,-0.0043L0.9233,-0.0073L0.8916,-0.0111L0.8555,-0.0158L0.8157,-0.0212L0.7727,-0.0273L0.7272,-0.0338L0.6797,-0.0407L0.631,-0.0475L0.5818,-0.0541L0.5326,-0.06L0.4838,-0.0648L0.4356,-0.0683L0.3884,-0.0704L0.3425,-0.0709L0.298,-0.0698L0.2552,-0.0675L0.2146,-0.0641L0.1766,-0.0597L0.1415,-0.0544L0.1098,-0.0485L0.0817,-0.0419L0.0575,-0.0348L0.0373,-0.0273L0.0214,-0.0198L0.0099,-0.0124L0.0026,-0.0055L0,0.0002L0.003,0.0047L0.0119,0.0088L0.026,0.0122L0.0452,0.015L0.0695,0.017L0.0987,0.0183L0.1325,0.019L0.1705,0.0191L0.2125,0.0187L0.2579,0.0179L0.3062,0.0168L0.3569,0.0155L0.4093,0.014L0.463,0.0124L0.5171,0.0109L0.5711,0.0093L0.6244,0.0079L0.6762,0.0065L0.7261,0.0053L0.7733,0.0042L0.8173,0.0033L0.8575,0.0025L0.8935,0.0019L0.9248,0.0014L0.9511,0.0009L0.9719,0.0005L0.9873,0.0001L0.9968,0L1,-0"
    />
</svg>
