
<svg 
  class="airfoil-e180"
  fill="none"
  stroke="black" 
  stroke-width="1"
  style="overflow:visible"
  viewBox="0.0003, -0.065, 0.9997, 0.0874"
  xmlns="http://www.w3.org/2000/svg">
    <title>E180 (8.59%)</title>
    <path 
      vector-effect="non-scaling-stroke"
      d="M1,-0L0.9968,-0.0001L0.9871,-0.0004L0.9713,-0.0012L0.9494,-0.0027L0.922,-0.005L0.8897,-0.0083L0.8529,-0.0125L0.8124,-0.0176L0.7687,-0.0233L0.7225,-0.0295L0.6745,-0.0361L0.6254,-0.0428L0.5758,-0.0492L0.5263,-0.0548L0.4772,-0.0594L0.4288,-0.0627L0.3815,-0.0646L0.3354,-0.065L0.2907,-0.064L0.2479,-0.0618L0.2074,-0.0586L0.1696,-0.0545L0.1349,-0.0496L0.1036,-0.0439L0.076,-0.0377L0.0525,-0.031L0.0331,-0.024L0.0181,-0.0168L0.0075,-0.0098L0.0012,-0.0034L0.0003,0.0016L0.0051,0.006L0.0153,0.0102L0.0305,0.0138L0.0508,0.0168L0.0761,0.0191L0.1061,0.0208L0.1405,0.0218L0.1791,0.0224L0.2214,0.0224L0.267,0.0219L0.3154,0.0212L0.366,0.0201L0.4182,0.0189L0.4714,0.0175L0.5251,0.016L0.5785,0.0145L0.6311,0.0129L0.6823,0.0114L0.7313,0.0099L0.7777,0.0084L0.8209,0.0071L0.8604,0.0058L0.8956,0.0047L0.9263,0.0036L0.9519,0.0026L0.9723,0.0015L0.9874,0.0006L0.9968,0.0001L1,-0"
    />
</svg>
