
<svg 
  class="airfoil-e182"
  fill="none"
  stroke="black" 
  stroke-width="1"
  style="overflow:visible"
  viewBox="0.0005, -0.0594, 0.9995, 0.0853"
  xmlns="http://www.w3.org/2000/svg">
    <title>E182 (8.47%)</title>
    <path 
      vector-effect="non-scaling-stroke"
      d="M1,-0L0.9968,0L0.9871,0L0.971,-0.0002L0.9488,-0.001L0.9208,-0.0027L0.8878,-0.0054L0.8504,-0.0091L0.8091,-0.0137L0.7648,-0.0191L0.718,-0.0251L0.6694,-0.0315L0.6198,-0.038L0.57,-0.0442L0.5202,-0.0497L0.4708,-0.0541L0.4222,-0.0572L0.3746,-0.059L0.3284,-0.0594L0.2836,-0.0584L0.2408,-0.0564L0.2004,-0.0535L0.1629,-0.0497L0.1285,-0.0451L0.0977,-0.0399L0.0708,-0.0341L0.048,-0.0278L0.0294,-0.0213L0.0153,-0.0146L0.0056,-0.008L0.0005,-0.0022L0.001,0.0027L0.0072,0.0073L0.0185,0.0116L0.0349,0.0154L0.0562,0.0187L0.0824,0.0213L0.1132,0.0233L0.1483,0.0247L0.1874,0.0255L0.23,0.0259L0.2758,0.0258L0.3242,0.0254L0.3747,0.0246L0.4267,0.0235L0.4796,0.0223L0.5328,0.0208L0.5856,0.0192L0.6376,0.0176L0.688,0.0159L0.7363,0.0141L0.7819,0.0123L0.8244,0.0106L0.8631,0.0089L0.8977,0.0072L0.9277,0.0056L0.9528,0.0041L0.9727,0.0025L0.9875,0.0011L0.9968,0.0003L1,-0"
    />
</svg>
