
<svg 
  class="airfoil-e184"
  fill="none"
  stroke="black" 
  stroke-width="1"
  style="overflow:visible"
  viewBox="0.0001, -0.0536, 0.9999, 0.083399996"
  xmlns="http://www.w3.org/2000/svg">
    <title>E184 (8.33%)</title>
    <path 
      vector-effect="non-scaling-stroke"
      d="M1,-0L0.9968,0.0002L0.987,0.0005L0.9708,0.0009L0.9482,0.0008L0.9197,-0.0003L0.886,-0.0024L0.8478,-0.0056L0.8059,-0.0098L0.7608,-0.0148L0.7134,-0.0205L0.6643,-0.0267L0.6143,-0.0331L0.564,-0.0391L0.5139,-0.0443L0.4642,-0.0486L0.4154,-0.0516L0.3676,-0.0533L0.3212,-0.0536L0.2763,-0.0528L0.2335,-0.051L0.1933,-0.0483L0.156,-0.0449L0.122,-0.0407L0.0918,-0.0359L0.0655,-0.0305L0.0435,-0.0247L0.0258,-0.0186L0.0126,-0.0123L0.004,-0.0062L0.0001,-0.0009L0.0019,0.0038L0.0094,0.0085L0.0219,0.013L0.0393,0.0171L0.0617,0.0206L0.0887,0.0235L0.1202,0.0258L0.1559,0.0276L0.1954,0.0288L0.2384,0.0295L0.2844,0.0298L0.3328,0.0296L0.3832,0.029L0.4349,0.0281L0.4875,0.027L0.5402,0.0256L0.5925,0.024L0.6439,0.0222L0.6936,0.0203L0.7412,0.0182L0.7861,0.0161L0.8278,0.014L0.8658,0.0119L0.8997,0.0097L0.9291,0.0076L0.9536,0.0055L0.9731,0.0034L0.9876,0.0015L0.9968,0.0004L1,-0"
    />
</svg>
