
<svg 
  class="airfoil-e186"
  fill="none"
  stroke="black" 
  stroke-width="1"
  style="overflow:visible"
  viewBox="0, -0.0645, 1, 0.1029"
  xmlns="http://www.w3.org/2000/svg">
    <title>E186 (10.27%)</title>
    <path 
      vector-effect="non-scaling-stroke"
      d="M1,-0L0.9965,0.0002L0.9862,0.0007L0.9691,0.0009L0.9455,0.0005L0.9161,-0.0009L0.8815,-0.0032L0.8424,-0.0066L0.7994,-0.011L0.7531,-0.0164L0.7045,-0.0225L0.6541,-0.0292L0.6028,-0.0363L0.5514,-0.0435L0.5005,-0.0502L0.4507,-0.056L0.4022,-0.0604L0.3553,-0.0633L0.3101,-0.0645L0.2668,-0.064L0.2256,-0.0619L0.1868,-0.0586L0.1508,-0.0542L0.118,-0.049L0.0887,-0.0429L0.0633,-0.0362L0.0419,-0.029L0.0247,-0.0216L0.012,-0.0141L0.0037,-0.0069L0,-0.0007L0.0022,0.0047L0.0105,0.01L0.0237,0.0153L0.0419,0.0202L0.0648,0.0246L0.0924,0.0283L0.1244,0.0315L0.1605,0.034L0.2004,0.036L0.2436,0.0373L0.2897,0.0381L0.3381,0.0384L0.3885,0.0382L0.4401,0.0375L0.4924,0.0365L0.5448,0.0351L0.5968,0.0333L0.6477,0.0313L0.697,0.029L0.7441,0.0264L0.7885,0.0237L0.8297,0.0209L0.8672,0.0179L0.9006,0.0149L0.9295,0.0119L0.9536,0.0088L0.9728,0.0055L0.9872,0.0026L0.9967,0.0006L1,-0"
    />
</svg>
