
<svg 
  class="airfoil-e193"
  fill="none"
  stroke="black" 
  stroke-width="1"
  style="overflow:visible"
  viewBox="0.0003, -0.086, 0.9997, 0.1071"
  xmlns="http://www.w3.org/2000/svg">
    <title>E193 (10.22%)</title>
    <path 
      vector-effect="non-scaling-stroke"
      d="M1,-0L0.9966,-0.0005L0.9867,-0.0022L0.9711,-0.0052L0.9502,-0.0093L0.9245,-0.0142L0.8941,-0.0196L0.8594,-0.0256L0.821,-0.0322L0.7792,-0.0391L0.7348,-0.0464L0.6884,-0.0538L0.6405,-0.0611L0.5919,-0.0681L0.5431,-0.0744L0.4946,-0.0795L0.4467,-0.0833L0.3998,-0.0855L0.354,-0.086L0.3097,-0.0849L0.267,-0.0821L0.2262,-0.0781L0.1878,-0.0728L0.1522,-0.0666L0.1197,-0.0596L0.0906,-0.0518L0.0653,-0.0435L0.0438,-0.0349L0.0265,-0.0261L0.0134,-0.0174L0.0047,-0.0092L0.0003,-0.0019L0.0013,0.0037L0.0082,0.0084L0.0204,0.0125L0.0379,0.0159L0.0605,0.0184L0.088,0.0201L0.1203,0.021L0.157,0.0211L0.1978,0.0206L0.2423,0.0195L0.29,0.0181L0.3404,0.0163L0.3928,0.0143L0.4467,0.0122L0.5015,0.0102L0.5563,0.0082L0.6106,0.0064L0.6636,0.0049L0.7148,0.0035L0.7634,0.0024L0.8088,0.0015L0.8505,0.0009L0.8879,0.0005L0.9205,0.0002L0.9479,-0.0001L0.97,-0.0003L0.9864,-0.0003L0.9966,-0.0001L1,-0"
    />
</svg>
