
<svg 
  class="airfoil-e195"
  fill="none"
  stroke="black" 
  stroke-width="1"
  style="overflow:visible"
  viewBox="0.0001, -0.09, 0.9999, 0.1206"
  xmlns="http://www.w3.org/2000/svg">
    <title>E195 (11.82%)</title>
    <path 
      vector-effect="non-scaling-stroke"
      d="M1,-0L0.9965,-0.0005L0.9864,-0.0022L0.9704,-0.0053L0.949,-0.0095L0.9228,-0.0145L0.8918,-0.0201L0.8566,-0.0265L0.8175,-0.0334L0.7753,-0.0408L0.7305,-0.0486L0.6837,-0.0565L0.6356,-0.0643L0.5869,-0.0717L0.5381,-0.0784L0.4899,-0.0837L0.4422,-0.0876L0.3955,-0.0897L0.3499,-0.09L0.3058,-0.0887L0.2633,-0.0856L0.2228,-0.0812L0.1846,-0.0756L0.1492,-0.069L0.117,-0.0615L0.0882,-0.0533L0.0631,-0.0446L0.042,-0.0355L0.025,-0.0263L0.0123,-0.0172L0.0039,-0.0086L0.0001,-0.0011L0.002,0.005L0.0099,0.0104L0.0229,0.0155L0.0411,0.02L0.0642,0.0237L0.0921,0.0266L0.1244,0.0287L0.161,0.0301L0.2014,0.0306L0.2453,0.0305L0.2921,0.0297L0.3413,0.0283L0.3926,0.0262L0.4455,0.0236L0.4994,0.0207L0.5536,0.0177L0.6075,0.0148L0.6604,0.0121L0.7116,0.0096L0.7603,0.0074L0.8061,0.0055L0.8481,0.0039L0.8859,0.0027L0.919,0.0017L0.9469,0.0008L0.9693,0.0002L0.9861,-0.0001L0.9965,-0.0001L1,-0"
    />
</svg>
