
<svg 
  class="airfoil-e197"
  fill="none"
  stroke="black" 
  stroke-width="1"
  style="overflow:visible"
  viewBox="0, -0.0941, 1, 0.1361"
  xmlns="http://www.w3.org/2000/svg">
    <title>E197 (13.49%)</title>
    <path 
      vector-effect="non-scaling-stroke"
      d="M1,-0L0.9964,-0.0005L0.986,-0.0022L0.9696,-0.0053L0.9478,-0.0096L0.921,-0.0148L0.8894,-0.0207L0.8535,-0.0273L0.8138,-0.0347L0.771,-0.0425L0.7258,-0.0508L0.6786,-0.0592L0.6303,-0.0675L0.5815,-0.0754L0.5328,-0.0825L0.4848,-0.0881L0.4374,-0.0919L0.3909,-0.094L0.3455,-0.0941L0.3016,-0.0925L0.2593,-0.0892L0.219,-0.0844L0.1811,-0.0785L0.146,-0.0714L0.114,-0.0635L0.0855,-0.0548L0.0608,-0.0456L0.04,-0.036L0.0234,-0.0264L0.011,-0.0169L0.0032,-0.0079L0,-0.0002L0.0028,0.0064L0.0116,0.0127L0.0256,0.0189L0.0444,0.0245L0.068,0.0295L0.0961,0.0337L0.1285,0.037L0.1649,0.0395L0.205,0.0412L0.2482,0.042L0.2941,0.0419L0.3423,0.0408L0.3924,0.0386L0.4442,0.0354L0.4972,0.0316L0.5509,0.0276L0.6045,0.0236L0.6572,0.0197L0.7083,0.016L0.7573,0.0126L0.8032,0.0097L0.8456,0.0071L0.8839,0.005L0.9174,0.0033L0.9457,0.0018L0.9686,0.0007L0.9857,0.0001L0.9964,-0L1,-0"
    />
</svg>
