
<svg 
  class="airfoil-e201"
  fill="none"
  stroke="black" 
  stroke-width="1"
  style="overflow:visible"
  viewBox="0.0001, -0.089, 0.9999, 0.1213"
  xmlns="http://www.w3.org/2000/svg">
    <title>E201 (11.88%)</title>
    <path 
      vector-effect="non-scaling-stroke"
      d="M1,-0L0.9965,-0.0006L0.9865,-0.0025L0.9707,-0.0059L0.9498,-0.0104L0.9241,-0.0157L0.8937,-0.0214L0.859,-0.0277L0.8205,-0.0345L0.7787,-0.0418L0.7343,-0.0492L0.6878,-0.0568L0.6398,-0.0642L0.5911,-0.0712L0.5422,-0.0775L0.4936,-0.0827L0.4457,-0.0864L0.3987,-0.0886L0.3528,-0.089L0.3084,-0.0876L0.2657,-0.0847L0.2248,-0.0804L0.1864,-0.075L0.1508,-0.0685L0.1183,-0.0611L0.0892,-0.0531L0.064,-0.0444L0.0426,-0.0355L0.0255,-0.0263L0.0126,-0.0173L0.0041,-0.0088L0.0001,-0.0013L0.0019,0.0049L0.0096,0.0105L0.0226,0.0157L0.0406,0.0204L0.0634,0.0244L0.091,0.0276L0.123,0.0299L0.1592,0.0315L0.1991,0.0323L0.2425,0.0323L0.2888,0.0316L0.3375,0.0301L0.3882,0.0278L0.4407,0.0247L0.4944,0.0213L0.5486,0.0178L0.6027,0.0144L0.6559,0.0113L0.7075,0.0084L0.7568,0.0059L0.803,0.0039L0.8457,0.0022L0.8842,0.0011L0.9178,0.0003L0.9463,-0.0003L0.9691,-0.0005L0.986,-0.0004L0.9965,-0.0002L1,-0"
    />
</svg>
