
<svg 
  class="airfoil-e203"
  fill="none"
  stroke="black" 
  stroke-width="1"
  style="overflow:visible"
  viewBox="0, -0.092, 1, 0.138"
  xmlns="http://www.w3.org/2000/svg">
    <title>E203 (13.64%)</title>
    <path 
      vector-effect="non-scaling-stroke"
      d="M1,-0L0.9965,-0.0007L0.9862,-0.0028L0.9703,-0.0066L0.9493,-0.0116L0.9236,-0.0172L0.8932,-0.0233L0.8585,-0.03L0.82,-0.0371L0.7782,-0.0445L0.7337,-0.0522L0.6871,-0.0599L0.6391,-0.0674L0.5903,-0.0745L0.5413,-0.0809L0.4926,-0.086L0.4446,-0.0897L0.3975,-0.0918L0.3515,-0.092L0.307,-0.0905L0.2642,-0.0874L0.2233,-0.0829L0.1849,-0.0772L0.1492,-0.0704L0.1167,-0.0627L0.0877,-0.0543L0.0625,-0.0453L0.0413,-0.036L0.0243,-0.0265L0.0116,-0.0171L0.0034,-0.0082L0,-0.0005L0.0026,0.0063L0.0111,0.013L0.0247,0.0195L0.0431,0.0256L0.0662,0.0311L0.0937,0.0359L0.1253,0.0398L0.1609,0.0428L0.2,0.0449L0.2422,0.046L0.287,0.046L0.334,0.0448L0.3829,0.0421L0.4338,0.038L0.4864,0.0331L0.5401,0.028L0.5939,0.0229L0.6473,0.018L0.6994,0.0135L0.7494,0.0095L0.7966,0.0062L0.8404,0.0035L0.8801,0.0016L0.9149,0.0002L0.9444,-0.0005L0.9681,-0.0008L0.9856,-0.0006L0.9964,-0.0002L1,-0"
    />
</svg>
