
<svg 
  class="airfoil-e205"
  fill="none"
  stroke="black" 
  stroke-width="1"
  style="overflow:visible"
  viewBox="0, -0.0821, 1, 0.1065"
  xmlns="http://www.w3.org/2000/svg">
    <title>E205 (10.48%)</title>
    <path 
      vector-effect="non-scaling-stroke"
      d="M1,-0L0.9966,-0.0004L0.9865,-0.0017L0.9705,-0.0043L0.9492,-0.0078L0.9229,-0.012L0.8917,-0.0167L0.8562,-0.022L0.8168,-0.0279L0.7741,-0.0342L0.7287,-0.0409L0.6811,-0.0478L0.632,-0.0547L0.5822,-0.0615L0.5322,-0.0678L0.4827,-0.0734L0.4341,-0.0778L0.3868,-0.0808L0.341,-0.0821L0.297,-0.0818L0.255,-0.0797L0.2151,-0.0761L0.1776,-0.0711L0.143,-0.0651L0.1116,-0.0581L0.0836,-0.0504L0.0594,-0.0421L0.0391,-0.0334L0.0229,-0.0246L0.011,-0.0159L0.0033,-0.0077L0,-0.0005L0.0023,0.0051L0.0106,0.0099L0.0242,0.0142L0.0429,0.0178L0.0667,0.0205L0.0953,0.0225L0.1286,0.0238L0.1663,0.0244L0.2078,0.0244L0.2529,0.0238L0.301,0.0229L0.3515,0.0217L0.4039,0.0202L0.4575,0.0186L0.5117,0.0169L0.5659,0.0152L0.6194,0.0135L0.6715,0.0118L0.7216,0.0102L0.7691,0.0088L0.8134,0.0074L0.854,0.0061L0.8903,0.005L0.9219,0.0038L0.9486,0.0025L0.9702,0.0012L0.9863,0.0004L0.9965,0L1,-0"
    />
</svg>
