
<svg 
  class="airfoil-e207"
  fill="none"
  stroke="black" 
  stroke-width="1"
  style="overflow:visible"
  viewBox="0, -0.0848, 1, 0.1209"
  xmlns="http://www.w3.org/2000/svg">
    <title>E207 (12.04%)</title>
    <path 
      vector-effect="non-scaling-stroke"
      d="M1,-0L0.9965,-0.0004L0.9862,-0.002L0.9701,-0.0049L0.9487,-0.0088L0.9224,-0.0134L0.8913,-0.0184L0.8558,-0.024L0.8163,-0.0301L0.7736,-0.0367L0.7281,-0.0435L0.6804,-0.0505L0.6313,-0.0576L0.5814,-0.0644L0.5313,-0.0708L0.4817,-0.0764L0.4331,-0.0808L0.3857,-0.0836L0.3398,-0.0848L0.2957,-0.0843L0.2536,-0.0821L0.2137,-0.0782L0.1762,-0.073L0.1416,-0.0667L0.1102,-0.0594L0.0822,-0.0514L0.0581,-0.0428L0.0379,-0.0338L0.0219,-0.0247L0.0102,-0.0157L0.0028,-0.0071L0,0.0002L0.003,0.0063L0.0121,0.012L0.0263,0.0175L0.0454,0.0223L0.0694,0.0265L0.0981,0.0299L0.1311,0.0326L0.1682,0.0345L0.2089,0.0356L0.2529,0.0361L0.2997,0.0359L0.3486,0.0349L0.3994,0.033L0.4516,0.0304L0.5049,0.0274L0.5586,0.0243L0.6119,0.021L0.6641,0.0179L0.7147,0.0149L0.7628,0.0121L0.808,0.0096L0.8495,0.0074L0.8868,0.0055L0.9194,0.0039L0.947,0.0024L0.9693,0.0011L0.986,0.0003L0.9964,-0L1,-0"
    />
</svg>
