
<svg 
  class="airfoil-e209"
  fill="none"
  stroke="black" 
  stroke-width="1"
  style="overflow:visible"
  viewBox="0.0001, -0.0876, 0.9999, 0.1374"
  xmlns="http://www.w3.org/2000/svg">
    <title>E209 (13.72%)</title>
    <path 
      vector-effect="non-scaling-stroke"
      d="M1,-0L0.9964,-0.0005L0.986,-0.0023L0.9697,-0.0056L0.9482,-0.0099L0.9219,-0.0149L0.8908,-0.0203L0.8552,-0.0261L0.8158,-0.0325L0.7729,-0.0393L0.7274,-0.0463L0.6797,-0.0535L0.6305,-0.0606L0.5805,-0.0675L0.5303,-0.0739L0.4806,-0.0795L0.4318,-0.0838L0.3844,-0.0866L0.3384,-0.0876L0.2942,-0.0869L0.2521,-0.0845L0.2121,-0.0804L0.1746,-0.0749L0.14,-0.0683L0.1085,-0.0607L0.0807,-0.0524L0.0566,-0.0434L0.0365,-0.0341L0.0207,-0.0245L0.0092,-0.0152L0.0022,-0.0063L0.0001,0.0011L0.004,0.0077L0.0138,0.0147L0.0285,0.0214L0.048,0.0277L0.0722,0.0333L0.1007,0.0382L0.1334,0.0423L0.1699,0.0456L0.2097,0.048L0.2526,0.0494L0.2979,0.0498L0.3452,0.0491L0.3943,0.0468L0.4452,0.0432L0.4975,0.0388L0.5506,0.0341L0.6037,0.0292L0.6561,0.0245L0.7071,0.0199L0.7559,0.0158L0.802,0.0121L0.8445,0.0088L0.8829,0.0062L0.9166,0.004L0.9452,0.0022L0.9683,0.0009L0.9856,0.0001L0.9963,-0L1,-0"
    />
</svg>
