
<svg 
  class="airfoil-e210"
  fill="none"
  stroke="black" 
  stroke-width="1"
  style="overflow:visible"
  viewBox="0.0001, -0.1062, 0.9999, 0.139"
  xmlns="http://www.w3.org/2000/svg">
    <title>E210 (13.64%)</title>
    <path 
      vector-effect="non-scaling-stroke"
      d="M1,-0L0.9965,-0.001L0.9866,-0.0041L0.9714,-0.0094L0.9518,-0.0159L0.9278,-0.0228L0.8993,-0.03L0.8664,-0.0375L0.8297,-0.0453L0.7895,-0.0533L0.7464,-0.0613L0.701,-0.0693L0.6537,-0.077L0.6053,-0.0843L0.5563,-0.0909L0.5073,-0.0968L0.4589,-0.1015L0.4116,-0.1047L0.3656,-0.1062L0.3212,-0.1058L0.2786,-0.1036L0.238,-0.0995L0.1998,-0.0938L0.1639,-0.0866L0.131,-0.0782L0.1012,-0.0689L0.0749,-0.0589L0.0522,-0.0484L0.0334,-0.0375L0.0187,-0.0268L0.0082,-0.0163L0.0019,-0.0066L0.0001,0.0014L0.0041,0.0079L0.0144,0.0136L0.0299,0.0188L0.0504,0.0233L0.0759,0.0269L0.106,0.0296L0.1404,0.0315L0.1789,0.0326L0.2209,0.0328L0.266,0.0323L0.3137,0.0309L0.3633,0.0286L0.4147,0.025L0.4678,0.0203L0.5223,0.0153L0.5774,0.0103L0.6323,0.0057L0.6861,0.0018L0.7381,-0.0015L0.7873,-0.0039L0.8332,-0.0054L0.8748,-0.006L0.9115,-0.0058L0.9425,-0.0049L0.9673,-0.0034L0.9854,-0.0018L0.9963,-0.0005L1,-0"
    />
</svg>
