
<svg 
  class="airfoil-e211"
  fill="none"
  stroke="black" 
  stroke-width="1"
  style="overflow:visible"
  viewBox="0.0002, -0.0785, 0.9998, 0.1111"
  xmlns="http://www.w3.org/2000/svg">
    <title>E211 (10.96%)</title>
    <path 
      vector-effect="non-scaling-stroke"
      d="M1,-0L0.9966,-0.0008L0.987,-0.0035L0.9722,-0.0079L0.9529,-0.0134L0.9293,-0.0191L0.9011,-0.0249L0.8687,-0.0308L0.8323,-0.0368L0.7923,-0.0428L0.7495,-0.0488L0.7041,-0.0546L0.6567,-0.0601L0.608,-0.0652L0.5585,-0.0697L0.5088,-0.0735L0.4594,-0.0763L0.4107,-0.078L0.3632,-0.0785L0.3171,-0.0776L0.2729,-0.0755L0.2309,-0.0721L0.1914,-0.0676L0.1547,-0.0621L0.1214,-0.0558L0.0917,-0.0488L0.0658,-0.0413L0.044,-0.0333L0.0264,-0.025L0.0132,-0.0167L0.0044,-0.0087L0.0002,-0.0016L0.0016,0.0043L0.009,0.0097L0.0215,0.0148L0.039,0.0194L0.0615,0.0234L0.0886,0.0266L0.1202,0.0292L0.156,0.031L0.1956,0.0321L0.2385,0.0326L0.2843,0.0324L0.3324,0.0316L0.3823,0.0301L0.4333,0.0278L0.4852,0.0244L0.5378,0.0201L0.591,0.0153L0.6439,0.0106L0.6959,0.0062L0.7462,0.0024L0.7939,-0.0006L0.8383,-0.0028L0.8787,-0.004L0.9143,-0.0043L0.9444,-0.0038L0.9684,-0.0028L0.9859,-0.0015L0.9965,-0.0004L1,-0"
    />
</svg>
