
<svg 
  class="airfoil-e212"
  fill="none"
  stroke="black" 
  stroke-width="1"
  style="overflow:visible"
  viewBox="0.0003, -0.0771, 0.9997, 0.1101"
  xmlns="http://www.w3.org/2000/svg">
    <title>E212 (10.55%)</title>
    <path 
      vector-effect="non-scaling-stroke"
      d="M1,-0L0.9968,-0.0009L0.9876,-0.0037L0.9735,-0.008L0.9547,-0.0131L0.9312,-0.0184L0.9032,-0.0242L0.8709,-0.0302L0.8347,-0.0364L0.7952,-0.0427L0.7528,-0.0488L0.708,-0.0547L0.6611,-0.0601L0.6128,-0.065L0.5635,-0.0692L0.5138,-0.0726L0.4642,-0.0751L0.415,-0.0766L0.3669,-0.0771L0.3202,-0.0765L0.2755,-0.0747L0.233,-0.0719L0.1933,-0.0679L0.1565,-0.063L0.1231,-0.057L0.0933,-0.0502L0.0673,-0.0428L0.0453,-0.0347L0.0276,-0.0264L0.0141,-0.0179L0.005,-0.0097L0.0003,-0.0022L0.0012,0.004L0.008,0.0097L0.0198,0.0153L0.0365,0.0204L0.0578,0.0249L0.0836,0.0284L0.1138,0.031L0.1481,0.0325L0.1862,0.033L0.2279,0.0325L0.2728,0.031L0.3205,0.0286L0.3706,0.0255L0.4226,0.0217L0.4759,0.0176L0.53,0.0132L0.5843,0.0088L0.6382,0.0045L0.6909,0.0006L0.7418,-0.0027L0.7902,-0.0054L0.8353,-0.0071L0.8764,-0.0079L0.9128,-0.0078L0.9438,-0.0066L0.9685,-0.0046L0.9862,-0.0023L0.9966,-0.0006L1,-0"
    />
</svg>
