
<svg 
  class="airfoil-e214"
  fill="none"
  stroke="black" 
  stroke-width="1"
  style="overflow:visible"
  viewBox="0, -0.0933, 1, 0.1158"
  xmlns="http://www.w3.org/2000/svg">
    <title>E214 (11.1%)</title>
    <path 
      vector-effect="non-scaling-stroke"
      d="M1,-0L0.9967,-0.001L0.9874,-0.0042L0.9731,-0.0092L0.9543,-0.015L0.9308,-0.0214L0.9028,-0.0283L0.8707,-0.0358L0.8351,-0.0434L0.7963,-0.051L0.7546,-0.0584L0.7104,-0.0654L0.6643,-0.0721L0.6168,-0.0781L0.5685,-0.0834L0.5199,-0.0878L0.4714,-0.0909L0.4235,-0.0928L0.3765,-0.0933L0.3308,-0.0924L0.2867,-0.0901L0.2447,-0.0864L0.2051,-0.0814L0.1682,-0.0753L0.1342,-0.0682L0.1037,-0.0603L0.0767,-0.0517L0.0535,-0.0426L0.0343,-0.0332L0.0193,-0.0238L0.0086,-0.0147L0.0021,-0.0062L0,0.0009L0.0036,0.0063L0.0133,0.0109L0.0283,0.0148L0.0486,0.0178L0.0739,0.0201L0.1041,0.0216L0.1387,0.0224L0.1776,0.0225L0.2202,0.0219L0.266,0.0209L0.3145,0.0193L0.3651,0.0172L0.4171,0.0145L0.4703,0.011L0.5245,0.0068L0.5793,0.0025L0.634,-0.0016L0.6877,-0.0049L0.7396,-0.0076L0.7888,-0.0092L0.8346,-0.0099L0.8761,-0.0097L0.9126,-0.0086L0.9435,-0.0068L0.9681,-0.0046L0.9858,-0.0023L0.9965,-0.0007L1,-0"
    />
</svg>
