
<svg 
  class="airfoil-e216"
  fill="none"
  stroke="black" 
  stroke-width="1"
  style="overflow:visible"
  viewBox="0.0003, -0.0975, 0.9997, 0.117699996"
  xmlns="http://www.w3.org/2000/svg">
    <title>E216 (10.4%)</title>
    <path 
      vector-effect="non-scaling-stroke"
      d="M1,-0L0.9969,-0.0014L0.9884,-0.0055L0.9756,-0.0116L0.9588,-0.0184L0.9374,-0.0255L0.9116,-0.033L0.8817,-0.0408L0.848,-0.0487L0.811,-0.0565L0.7711,-0.0641L0.7286,-0.0712L0.6839,-0.0777L0.6376,-0.0835L0.59,-0.0885L0.5418,-0.0924L0.4932,-0.0953L0.4449,-0.097L0.3972,-0.0975L0.3506,-0.0968L0.3056,-0.0948L0.2625,-0.0914L0.2217,-0.0869L0.1835,-0.0812L0.1484,-0.0744L0.1164,-0.0667L0.088,-0.0581L0.0633,-0.0489L0.0425,-0.0393L0.0258,-0.0295L0.0131,-0.0198L0.0046,-0.0106L0.0003,-0.0024L0.0011,0.0038L0.0077,0.0087L0.0198,0.0129L0.037,0.0163L0.0592,0.0187L0.0863,0.02L0.1179,0.0202L0.154,0.0193L0.1942,0.0174L0.2382,0.0146L0.2855,0.011L0.3359,0.0068L0.3887,0.0021L0.4434,-0.0028L0.4994,-0.0076L0.5561,-0.0121L0.6128,-0.0161L0.6686,-0.0194L0.7229,-0.0217L0.7747,-0.0228L0.8233,-0.0228L0.8678,-0.0214L0.9074,-0.0186L0.941,-0.0146L0.9676,-0.0094L0.9861,-0.0045L0.9966,-0.0011L1,-0"
    />
</svg>
