
<svg 
  class="airfoil-e220"
  fill="none"
  stroke="black" 
  stroke-width="1"
  style="overflow:visible"
  viewBox="0.0003, -0.0819, 0.9997, 0.1151"
  xmlns="http://www.w3.org/2000/svg">
    <title>E220 (11.48%)</title>
    <path 
      vector-effect="non-scaling-stroke"
      d="M1,-0L0.9964,-0.0001L0.9858,-0.0006L0.9686,-0.0021L0.9454,-0.0046L0.9167,-0.0081L0.883,-0.0127L0.8449,-0.0184L0.8032,-0.0253L0.7587,-0.0331L0.712,-0.0416L0.6641,-0.0503L0.6155,-0.0589L0.5671,-0.0667L0.5189,-0.0732L0.4711,-0.0778L0.4238,-0.0807L0.3771,-0.0819L0.3314,-0.0815L0.2872,-0.0798L0.2449,-0.0769L0.2049,-0.0728L0.1676,-0.0675L0.1334,-0.0614L0.1026,-0.0543L0.0754,-0.0466L0.0522,-0.0383L0.0331,-0.0297L0.0182,-0.021L0.0076,-0.0124L0.0015,-0.0045L0.0003,0.0017L0.0049,0.0069L0.0155,0.0121L0.0313,0.0169L0.0522,0.0211L0.078,0.0247L0.1083,0.0277L0.1431,0.03L0.1819,0.0316L0.2244,0.0327L0.27,0.0332L0.3184,0.0332L0.3688,0.0328L0.4209,0.032L0.4739,0.0309L0.5272,0.0295L0.5803,0.0279L0.6325,0.026L0.6832,0.024L0.7318,0.0219L0.7777,0.0197L0.8204,0.0173L0.8594,0.0149L0.8942,0.0124L0.9244,0.0098L0.9498,0.0069L0.9705,0.004L0.9863,0.0016L0.9965,0.0003L1,-0"
    />
</svg>
