
<svg 
  class="airfoil-e221"
  fill="none"
  stroke="black" 
  stroke-width="1"
  style="overflow:visible"
  viewBox="0.0005, -0.0651, 0.9995, 0.0938"
  xmlns="http://www.w3.org/2000/svg">
    <title>E221 (9.39%)</title>
    <path 
      vector-effect="non-scaling-stroke"
      d="M1,-0L0.9966,-0.0001L0.9865,-0.0006L0.9703,-0.0019L0.9484,-0.0039L0.9212,-0.0065L0.889,-0.0098L0.8523,-0.0137L0.8116,-0.0183L0.7676,-0.0235L0.721,-0.0292L0.6724,-0.0353L0.6225,-0.0414L0.5719,-0.0473L0.5212,-0.0526L0.4708,-0.0573L0.4212,-0.0609L0.3728,-0.0636L0.326,-0.065L0.2812,-0.0651L0.2387,-0.064L0.1989,-0.0615L0.162,-0.0579L0.1283,-0.0532L0.0981,-0.0475L0.0716,-0.041L0.0491,-0.0338L0.0307,-0.0262L0.0165,-0.0183L0.0066,-0.0106L0.001,-0.0034L0.0005,0.0022L0.0058,0.007L0.0166,0.0117L0.0326,0.016L0.0535,0.0197L0.0793,0.0227L0.1097,0.0251L0.1445,0.0269L0.1833,0.028L0.2257,0.0286L0.2714,0.0287L0.3197,0.0284L0.3701,0.0277L0.4221,0.0267L0.4751,0.0255L0.5284,0.024L0.5814,0.0224L0.6336,0.0206L0.6842,0.0188L0.7328,0.0169L0.7787,0.0149L0.8214,0.013L0.8604,0.011L0.8952,0.0091L0.9254,0.0071L0.9508,0.0049L0.9714,0.0028L0.9869,0.0011L0.9966,0.0002L1,-0"
    />
</svg>
