
<svg 
  class="airfoil-e222"
  fill="none"
  stroke="black" 
  stroke-width="1"
  style="overflow:visible"
  viewBox="0.0001, -0.0738, 0.9999, 0.104399994"
  xmlns="http://www.w3.org/2000/svg">
    <title>E222 (10.17%)</title>
    <path 
      vector-effect="non-scaling-stroke"
      d="M1,-0L0.9967,-0.0007L0.9872,-0.0029L0.9724,-0.0065L0.9527,-0.0108L0.9281,-0.0156L0.8989,-0.0209L0.8655,-0.0267L0.8283,-0.0327L0.7878,-0.0388L0.7446,-0.0449L0.699,-0.0508L0.6516,-0.0563L0.6029,-0.0613L0.5534,-0.0656L0.5036,-0.0691L0.454,-0.0717L0.405,-0.0733L0.3572,-0.0738L0.3109,-0.0732L0.2666,-0.0715L0.2247,-0.0686L0.1856,-0.0647L0.1495,-0.0598L0.1168,-0.054L0.0877,-0.0473L0.0626,-0.0399L0.0415,-0.0321L0.0246,-0.024L0.012,-0.0158L0.0038,-0.0079L0.0001,-0.001L0.002,0.0047L0.0099,0.0099L0.0229,0.015L0.0408,0.0195L0.0635,0.0234L0.0908,0.0265L0.1224,0.0287L0.1582,0.0301L0.1978,0.0306L0.2408,0.0303L0.2869,0.0293L0.3356,0.0276L0.3863,0.0253L0.4387,0.0225L0.492,0.0194L0.5458,0.0161L0.5993,0.0127L0.6521,0.0093L0.7034,0.0061L0.7527,0.0032L0.7992,0.0008L0.8424,-0.0012L0.8816,-0.0025L0.9162,-0.0031L0.9456,-0.0031L0.9692,-0.0023L0.9862,-0.0013L0.9966,-0.0004L1,-0"
    />
</svg>
