
<svg 
  class="airfoil-e224"
  fill="none"
  stroke="black" 
  stroke-width="1"
  style="overflow:visible"
  viewBox="0.0001, -0.0669, 0.9999, 0.1029"
  xmlns="http://www.w3.org/2000/svg">
    <title>E224 (10.17%)</title>
    <path 
      vector-effect="non-scaling-stroke"
      d="M1,-0L0.9966,-0.0005L0.9869,-0.0021L0.9715,-0.0047L0.9509,-0.0082L0.9252,-0.0123L0.8949,-0.0169L0.8603,-0.0221L0.822,-0.0276L0.7805,-0.0332L0.7362,-0.0389L0.6897,-0.0445L0.6414,-0.0498L0.592,-0.0545L0.5419,-0.0587L0.4916,-0.0621L0.4416,-0.0647L0.3925,-0.0663L0.3446,-0.0669L0.2984,-0.0664L0.2544,-0.0649L0.2129,-0.0623L0.1743,-0.0586L0.139,-0.054L0.1071,-0.0484L0.0791,-0.0421L0.055,-0.0351L0.0352,-0.0276L0.0196,-0.0199L0.0084,-0.0121L0.0018,-0.0048L0.0001,0.0012L0.0043,0.0066L0.014,0.0122L0.0287,0.0177L0.0481,0.0226L0.0721,0.0269L0.1006,0.0304L0.1332,0.0331L0.1698,0.0349L0.2101,0.0358L0.2536,0.036L0.3,0.0353L0.3487,0.0339L0.3994,0.0319L0.4514,0.0293L0.5043,0.0264L0.5575,0.0231L0.6102,0.0197L0.6621,0.0162L0.7123,0.0128L0.7603,0.0096L0.8056,0.0067L0.8475,0.0042L0.8854,0.0022L0.9188,0.0008L0.9471,-0.0001L0.9698,-0.0005L0.9864,-0.0004L0.9966,-0.0002L1,-0"
    />
</svg>
