
<svg 
  class="airfoil-e226"
  fill="none"
  stroke="black" 
  stroke-width="1"
  style="overflow:visible"
  viewBox="0.0004, -0.0602, 0.9996, 0.1023"
  xmlns="http://www.w3.org/2000/svg">
    <title>E226 (10.19%)</title>
    <path 
      vector-effect="non-scaling-stroke"
      d="M1,-0L0.9966,-0.0003L0.9867,-0.0012L0.9707,-0.003L0.9492,-0.0056L0.9225,-0.0089L0.891,-0.0128L0.8553,-0.0174L0.8159,-0.0223L0.7732,-0.0275L0.7279,-0.0329L0.6804,-0.0381L0.6313,-0.0431L0.5811,-0.0477L0.5304,-0.0518L0.4796,-0.0551L0.4293,-0.0577L0.38,-0.0594L0.3321,-0.0602L0.286,-0.0599L0.2423,-0.0586L0.2013,-0.0562L0.1634,-0.0529L0.1288,-0.0486L0.0979,-0.0434L0.0708,-0.0374L0.048,-0.0308L0.0294,-0.0238L0.0152,-0.0164L0.0055,-0.0092L0.0004,-0.0024L0.001,0.0035L0.0076,0.0093L0.019,0.0154L0.0353,0.0212L0.0561,0.0265L0.0814,0.0311L0.111,0.035L0.1446,0.0381L0.182,0.0403L0.2228,0.0416L0.2668,0.0421L0.3134,0.0417L0.3623,0.0406L0.4128,0.0388L0.4646,0.0364L0.517,0.0336L0.5694,0.0303L0.6214,0.0269L0.6722,0.0233L0.7214,0.0196L0.7682,0.0161L0.8122,0.0127L0.8528,0.0096L0.8895,0.0069L0.9216,0.0047L0.9487,0.0029L0.9705,0.0015L0.9866,0.0005L0.9966,0.0001L1,-0"
    />
</svg>
