
<svg 
  class="airfoil-e228"
  fill="none"
  stroke="black" 
  stroke-width="1"
  style="overflow:visible"
  viewBox="0, -0.0531, 1, 0.100700006"
  xmlns="http://www.w3.org/2000/svg">
    <title>E10(08%)</title>
    <path 
      vector-effect="non-scaling-stroke"
      d="M1,-0L0.9966,-0L0.9865,-0.0003L0.97,-0.0012L0.9476,-0.0027L0.9198,-0.0052L0.8871,-0.0084L0.8503,-0.0122L0.8096,-0.0166L0.7658,-0.0213L0.7194,-0.0262L0.6709,-0.0311L0.6209,-0.0359L0.57,-0.0403L0.5186,-0.0443L0.4674,-0.0477L0.4167,-0.0503L0.3672,-0.0521L0.3193,-0.0531L0.2734,-0.0531L0.2301,-0.052L0.1895,-0.05L0.1523,-0.047L0.1185,-0.0431L0.0886,-0.0383L0.0627,-0.0327L0.0411,-0.0266L0.0238,-0.0199L0.0112,-0.013L0.0031,-0.0062L0,-0.0002L0.0027,0.0055L0.011,0.0119L0.024,0.0183L0.0417,0.0245L0.0638,0.0301L0.0903,0.0351L0.1209,0.0393L0.1555,0.0427L0.1936,0.0452L0.2351,0.0468L0.2794,0.0476L0.3263,0.0475L0.3753,0.0466L0.4257,0.045L0.4772,0.0428L0.5292,0.04L0.581,0.0369L0.6322,0.0334L0.6821,0.0296L0.7302,0.0258L0.7759,0.0219L0.8187,0.0181L0.858,0.0145L0.8934,0.0112L0.9244,0.0082L0.9504,0.0056L0.9713,0.0032L0.9868,0.0014L0.9966,0.0003L1,-0"
    />
</svg>
