
<svg 
  class="airfoil-e230"
  fill="none"
  stroke="black" 
  stroke-width="1"
  style="overflow:visible"
  viewBox="0.0004, -0.0459, 0.9996, 0.0998"
  xmlns="http://www.w3.org/2000/svg">
    <title>E230 (9.96%)</title>
    <path 
      vector-effect="non-scaling-stroke"
      d="M1,-0L0.9966,0.0002L0.9863,0.0006L0.9693,0.0008L0.946,0.0003L0.9171,-0.0012L0.8833,-0.0035L0.8451,-0.0066L0.8033,-0.0103L0.7582,-0.0145L0.7107,-0.019L0.6611,-0.0235L0.6102,-0.0281L0.5584,-0.0323L0.5063,-0.0363L0.4545,-0.0397L0.4035,-0.0424L0.3539,-0.0445L0.306,-0.0457L0.2603,-0.0459L0.2173,-0.0453L0.1774,-0.0437L0.1408,-0.0411L0.108,-0.0376L0.0791,-0.0332L0.0545,-0.0281L0.0342,-0.0224L0.0185,-0.0162L0.0074,-0.0098L0.0011,-0.0035L0.0004,0.0023L0.0057,0.0086L0.0157,0.0153L0.0303,0.0221L0.0494,0.0286L0.0728,0.0346L0.1005,0.0399L0.1321,0.0445L0.1675,0.0482L0.2064,0.051L0.2484,0.0529L0.2931,0.0538L0.3402,0.0539L0.3892,0.0532L0.4395,0.0518L0.4906,0.0497L0.542,0.047L0.5932,0.0438L0.6435,0.0402L0.6924,0.0363L0.7394,0.0321L0.784,0.0279L0.8255,0.0236L0.8636,0.0195L0.8977,0.0155L0.9274,0.0118L0.9523,0.0083L0.9722,0.005L0.9871,0.0022L0.9967,0.0005L1,-0"
    />
</svg>
