
<svg 
  class="airfoil-e231"
  fill="none"
  stroke="black" 
  stroke-width="1"
  style="overflow:visible"
  viewBox="0.0002, -0.0863, 0.9961, 0.1234"
  xmlns="http://www.w3.org/2000/svg">
    <title>E231</title>
    <path 
      vector-effect="non-scaling-stroke"
      d="M0.9963,-0.0004L0.9855,-0.0019L0.9685,-0.0048L0.9457,-0.009L0.9177,-0.0146L0.8852,-0.0215L0.849,-0.0295L0.8097,-0.0384L0.7681,-0.0476L0.7248,-0.0565L0.6801,-0.0646L0.6339,-0.0714L0.5867,-0.077L0.5386,-0.0813L0.4902,-0.0842L0.4416,-0.0858L0.3936,-0.0863L0.3465,-0.0856L0.3008,-0.0837L0.2571,-0.0807L0.2158,-0.0767L0.1772,-0.0717L0.1418,-0.0657L0.1099,-0.0588L0.0817,-0.0511L0.0575,-0.0428L0.0374,-0.0341L0.0216,-0.0251L0.01,-0.0161L0.0028,-0.0076L0.0002,-0.0015L0.0002,0.0014L0.0009,0.0026L0.0022,0.0038L0.0033,0.0047L0.0129,0.0097L0.028,0.0145L0.0484,0.0189L0.0738,0.0229L0.1039,0.0264L0.1385,0.0294L0.177,0.0319L0.2192,0.0339L0.2645,0.0354L0.3124,0.0364L0.3624,0.037L0.4139,0.0371L0.4662,0.0368L0.5189,0.036L0.5713,0.0348L0.6228,0.0331L0.6728,0.031L0.7207,0.0285L0.7659,0.0254L0.8083,0.0215L0.8477,0.0169L0.8839,0.0122L0.9166,0.008L0.9449,0.0045L0.968,0.0021L0.9854,0.0006L0.9963,0.0001"
    />
</svg>
