
<svg 
  class="airfoil-e266"
  fill="none"
  stroke="black" 
  stroke-width="1"
  style="overflow:visible"
  viewBox="0.0002, -0.1186, 0.9998, 0.1735"
  xmlns="http://www.w3.org/2000/svg">
    <title>EPPLER 266 AIRFOIL</title>
    <path 
      vector-effect="non-scaling-stroke"
      d="M1,-0L0.9962,-0.0008L0.9852,-0.0033L0.9683,-0.0079L0.9463,-0.0139L0.9195,-0.0206L0.8878,-0.028L0.8515,-0.0362L0.8113,-0.0454L0.7681,-0.0553L0.7225,-0.066L0.6754,-0.077L0.6277,-0.0881L0.5801,-0.0985L0.5336,-0.1076L0.488,-0.114L0.4428,-0.1176L0.3979,-0.1186L0.3535,-0.1174L0.3099,-0.1143L0.2677,-0.1097L0.2274,-0.1035L0.1893,-0.096L0.1538,-0.0873L0.1213,-0.0777L0.0922,-0.0673L0.0667,-0.0562L0.045,-0.0449L0.0273,-0.0334L0.0139,-0.0222L0.0048,-0.0116L0.0002,-0.0023L0.0015,0.005L0.0093,0.0112L0.023,0.0174L0.0422,0.0233L0.0665,0.0289L0.0956,0.034L0.1292,0.0386L0.1668,0.0428L0.2079,0.0464L0.2522,0.0495L0.299,0.0519L0.3478,0.0536L0.398,0.0546L0.449,0.0549L0.5003,0.0543L0.5513,0.0529L0.6012,0.0505L0.6496,0.0468L0.6963,0.0414L0.7414,0.0343L0.7852,0.0261L0.8277,0.0176L0.8681,0.0101L0.9053,0.0044L0.9379,0.0008L0.9646,0.0008L0.9842,0.0009L0.9961,0.0003L1,-0"
    />
</svg>
