
<svg 
  class="airfoil-e297"
  fill="none"
  stroke="black" 
  stroke-width="1"
  style="overflow:visible"
  viewBox="0, -0.0569, 1, 0.1138"
  xmlns="http://www.w3.org/2000/svg">
    <title>EPPLER 297 AIRFOIL</title>
    <path 
      vector-effect="non-scaling-stroke"
      d="M1,-0L0.9966,-0.0001L0.9864,-0.0007L0.9698,-0.002L0.9474,-0.004L0.9194,-0.007L0.8866,-0.011L0.8494,-0.0159L0.8088,-0.0218L0.7655,-0.0282L0.7203,-0.0348L0.6737,-0.0408L0.6257,-0.0458L0.5765,-0.0498L0.5265,-0.0529L0.4762,-0.0551L0.4262,-0.0565L0.3768,-0.0569L0.3288,-0.0565L0.2824,-0.0552L0.2383,-0.0531L0.1968,-0.0502L0.1584,-0.0465L0.1235,-0.0421L0.0925,-0.037L0.0656,-0.0314L0.043,-0.0253L0.0251,-0.0188L0.0118,-0.0122L0.0033,-0.0057L0.0018,-0.0039L0.001,-0.0027L0.0004,-0.0016L0.0002,-0.001L0,-0.0005L0,0.0005L0.0002,0.001L0.0004,0.0016L0.001,0.0027L0.0018,0.0039L0.0033,0.0057L0.0118,0.0122L0.0251,0.0188L0.043,0.0253L0.0656,0.0314L0.0925,0.037L0.1235,0.0421L0.1584,0.0465L0.1968,0.0502L0.2383,0.0531L0.2824,0.0552L0.3288,0.0565L0.3768,0.0569L0.4262,0.0565L0.4762,0.0551L0.5265,0.0529L0.5765,0.0498L0.6257,0.0458L0.6737,0.0408L0.7203,0.0348L0.7655,0.0282L0.8088,0.0218L0.8494,0.0159L0.8866,0.011L0.9194,0.007L0.9474,0.004L0.9698,0.002L0.9864,0.0007L0.9966,0.0001L1,-0"
    />
</svg>
