
<svg 
  class="airfoil-e325"
  fill="none"
  stroke="black" 
  stroke-width="1"
  style="overflow:visible"
  viewBox="0, -0.078, 1, 0.1348"
  xmlns="http://www.w3.org/2000/svg">
    <title>EPPLER 325 AIRFOIL</title>
    <path 
      vector-effect="non-scaling-stroke"
      d="M1,-0L0.9962,-0.0002L0.9854,-0.0009L0.9684,-0.0026L0.9457,-0.0047L0.9173,-0.0072L0.8836,-0.0103L0.8451,-0.0141L0.8025,-0.0188L0.7564,-0.0243L0.7076,-0.0304L0.6569,-0.0371L0.605,-0.0441L0.5526,-0.0511L0.5003,-0.0579L0.4489,-0.0641L0.3989,-0.0695L0.3505,-0.0738L0.3045,-0.0767L0.2611,-0.078L0.2206,-0.0774L0.1829,-0.0749L0.1483,-0.0707L0.1169,-0.0648L0.0887,-0.0576L0.0642,-0.0494L0.0433,-0.0404L0.0264,-0.0309L0.0136,-0.0213L0.0048,-0.012L0.0008,-0.0047L0.0002,-0.0024L0,-0.001L0,0.0004L0.0001,0.001L0.0002,0.0017L0.0004,0.0022L0.0007,0.0027L0.0011,0.0033L0.0016,0.0038L0.0027,0.0049L0.0041,0.006L0.0067,0.0076L0.0081,0.0084L0.0213,0.0138L0.0398,0.0191L0.0635,0.0241L0.0922,0.0288L0.1254,0.0332L0.1629,0.0374L0.2039,0.0415L0.248,0.0454L0.2945,0.0489L0.3428,0.0519L0.3925,0.0542L0.4431,0.0559L0.494,0.0568L0.5447,0.0568L0.5945,0.056L0.6431,0.0543L0.6898,0.0516L0.7341,0.0477L0.776,0.0423L0.8157,0.0355L0.8533,0.0282L0.8881,0.0211L0.9194,0.0148L0.9464,0.0093L0.9687,0.005L0.9855,0.002L0.9963,0.0004L1,-0"
    />
</svg>
