
<svg 
  class="airfoil-e326"
  fill="none"
  stroke="black" 
  stroke-width="1"
  style="overflow:visible"
  viewBox="0, -0.084, 1, 0.136"
  xmlns="http://www.w3.org/2000/svg">
    <title>EPPLER 326 AIRFOIL</title>
    <path 
      vector-effect="non-scaling-stroke"
      d="M1,-0L0.9963,-0.0003L0.9855,-0.0015L0.9688,-0.0037L0.9465,-0.0064L0.9186,-0.0095L0.8855,-0.0131L0.8476,-0.0176L0.8057,-0.0228L0.7602,-0.0287L0.7121,-0.0353L0.662,-0.0423L0.6107,-0.0496L0.5587,-0.0568L0.5069,-0.0638L0.4558,-0.0702L0.4059,-0.0756L0.3578,-0.0799L0.3119,-0.0828L0.2685,-0.084L0.2278,-0.0833L0.1899,-0.0806L0.155,-0.0761L0.1231,-0.0699L0.0944,-0.0624L0.0692,-0.0539L0.0477,-0.0445L0.03,-0.0347L0.0163,-0.0247L0.0066,-0.0149L0.0012,-0.0058L0.0007,-0.0042L0.0002,-0.0019L0,-0.0004L0,0.001L0.0002,0.0017L0.0003,0.0023L0.0005,0.0029L0.0009,0.0034L0.0013,0.0039L0.0018,0.0044L0.003,0.0055L0.0045,0.0065L0.0072,0.0081L0.0172,0.0122L0.0345,0.0171L0.0571,0.0217L0.0849,0.026L0.1174,0.0299L0.1544,0.0338L0.1951,0.0375L0.2389,0.0411L0.2853,0.0443L0.3337,0.0471L0.3836,0.0496L0.4345,0.0509L0.4857,0.0518L0.5368,0.052L0.5872,0.0513L0.6363,0.0497L0.6836,0.0473L0.7286,0.0437L0.7712,0.0385L0.8116,0.032L0.85,0.0251L0.8855,0.0185L0.9176,0.0126L0.9453,0.0077L0.9681,0.004L0.9853,0.0015L0.9962,0.0003L1,-0"
    />
</svg>
