
<svg 
  class="airfoil-e327"
  fill="none"
  stroke="black" 
  stroke-width="1"
  style="overflow:visible"
  viewBox="0, -0.0901, 1, 0.1372"
  xmlns="http://www.w3.org/2000/svg">
    <title>EPPLER 327 AIRFOIL</title>
    <path 
      vector-effect="non-scaling-stroke"
      d="M1,-0L0.9963,-0.0004L0.9856,-0.002L0.9692,-0.0047L0.9473,-0.0081L0.92,-0.0117L0.8874,-0.016L0.8502,-0.0209L0.8088,-0.0267L0.7641,-0.0331L0.7166,-0.04L0.6671,-0.0474L0.6162,-0.055L0.5648,-0.0625L0.5134,-0.0697L0.4626,-0.0762L0.4129,-0.0817L0.365,-0.0861L0.3191,-0.089L0.2757,-0.0901L0.2349,-0.0892L0.1968,-0.0863L0.1615,-0.0816L0.1292,-0.0752L0.1,-0.0674L0.0742,-0.0585L0.052,-0.0488L0.0335,-0.0386L0.019,-0.0282L0.0085,-0.0179L0.0021,-0.0083L0.0005,-0.0038L0.0001,-0.0013L0,0.0002L0.0001,0.0016L0.0002,0.0022L0.0004,0.0029L0.0007,0.0034L0.001,0.0039L0.0015,0.0044L0.002,0.005L0.0033,0.006L0.0049,0.0069L0.0077,0.0084L0.0134,0.0108L0.0293,0.0154L0.0509,0.0196L0.0777,0.0234L0.1095,0.0269L0.1459,0.0303L0.1862,0.0337L0.2298,0.0369L0.2761,0.0399L0.3245,0.0425L0.3745,0.0446L0.4256,0.0461L0.4773,0.047L0.5288,0.0471L0.5797,0.0465L0.6294,0.0452L0.6774,0.0429L0.723,0.0396L0.7663,0.0347L0.8076,0.0286L0.8467,0.022L0.883,0.0158L0.9158,0.0104L0.9442,0.006L0.9676,0.0029L0.9852,0.0009L0.9962,0.0001L1,-0"
    />
</svg>
