
<svg 
  class="airfoil-e328"
  fill="none"
  stroke="black" 
  stroke-width="1"
  style="overflow:visible"
  viewBox="0, -0.0962, 1, 0.13839999"
  xmlns="http://www.w3.org/2000/svg">
    <title>EPPLER 328 AIRFOIL</title>
    <path 
      vector-effect="non-scaling-stroke"
      d="M1,-0L0.9963,-0.0006L0.9858,-0.0025L0.9696,-0.0058L0.9481,-0.0097L0.9214,-0.0139L0.8894,-0.0187L0.8527,-0.0242L0.812,-0.0304L0.7679,-0.0373L0.721,-0.0447L0.672,-0.0525L0.6217,-0.0604L0.5707,-0.0681L0.5197,-0.0755L0.4692,-0.0821L0.4198,-0.0878L0.372,-0.0922L0.3262,-0.0951L0.2828,-0.0962L0.2419,-0.0952L0.2036,-0.0921L0.168,-0.0872L0.1352,-0.0805L0.1056,-0.0725L0.0792,-0.0633L0.0563,-0.0533L0.0371,-0.0427L0.0218,-0.0319L0.0105,-0.0211L0.0032,-0.0109L0.0003,-0.0033L0,-0.0008L0,0.0007L0.0002,0.0022L0.0003,0.0028L0.0005,0.0034L0.0008,0.004L0.0012,0.0045L0.0017,0.005L0.0022,0.0055L0.0036,0.0064L0.0052,0.0074L0.0081,0.0088L0.0099,0.0096L0.0244,0.0139L0.0447,0.0177L0.0705,0.0211L0.1015,0.0241L0.1373,0.0271L0.1772,0.03L0.2205,0.0329L0.2667,0.0356L0.3151,0.0379L0.3653,0.0398L0.4167,0.0412L0.4687,0.042L0.5207,0.0422L0.5721,0.0417L0.6224,0.0405L0.6711,0.0385L0.7174,0.0354L0.7614,0.0308L0.8034,0.025L0.8433,0.0188L0.8805,0.0131L0.914,0.0081L0.9432,0.0043L0.9671,0.0018L0.985,0.0004L0.9962,0L1,-0"
    />
</svg>
