
<svg 
  class="airfoil-e329"
  fill="none"
  stroke="black" 
  stroke-width="1"
  style="overflow:visible"
  viewBox="0, -0.1025, 1, 0.13949999"
  xmlns="http://www.w3.org/2000/svg">
    <title>EPPLER 329 AIRFOIL</title>
    <path 
      vector-effect="non-scaling-stroke"
      d="M1,-0L0.9963,-0.0007L0.9859,-0.003L0.97,-0.0068L0.949,-0.0113L0.9228,-0.0161L0.8914,-0.0215L0.8554,-0.0275L0.8153,-0.0342L0.7718,-0.0416L0.7255,-0.0494L0.6771,-0.0575L0.6274,-0.0658L0.5768,-0.0738L0.5262,-0.0814L0.476,-0.0882L0.4269,-0.094L0.3792,-0.0985L0.3335,-0.1015L0.29,-0.1025L0.2491,-0.1015L0.2106,-0.0983L0.1747,-0.0932L0.1415,-0.0864L0.1114,-0.0781L0.0844,-0.0686L0.0609,-0.0583L0.041,-0.0474L0.025,-0.0361L0.0128,-0.025L0.0046,-0.0143L0.0005,-0.0046L0.0003,-0.0032L0,-0.0007L0.0001,0.0009L0.0003,0.0023L0.0004,0.003L0.0007,0.0036L0.001,0.0041L0.0014,0.0046L0.0019,0.0051L0.0024,0.0056L0.0038,0.0065L0.0055,0.0074L0.0085,0.0087L0.0199,0.0121L0.0388,0.0155L0.0636,0.0184L0.0937,0.021L0.1288,0.0235L0.1682,0.026L0.2112,0.0285L0.2573,0.0309L0.3057,0.033L0.356,0.0347L0.4076,0.036L0.46,0.0367L0.5124,0.037L0.5644,0.0366L0.6153,0.0355L0.6646,0.0337L0.7117,0.0309L0.7564,0.0266L0.7992,0.0212L0.84,0.0154L0.8779,0.0101L0.9123,0.0057L0.9421,0.0025L0.9666,0.0006L0.9849,0.0002L0.9962,0.0001L1,-0"
    />
</svg>
