
<svg 
  class="airfoil-e330"
  fill="none"
  stroke="black" 
  stroke-width="1"
  style="overflow:visible"
  viewBox="0, -0.0753, 1, 0.117400005"
  xmlns="http://www.w3.org/2000/svg">
    <title>EPPLER 330 AIRFOIL</title>
    <path 
      vector-effect="non-scaling-stroke"
      d="M1,-0L0.9963,-0L0.9857,-0.0005L0.9688,-0.0017L0.9461,-0.0034L0.9178,-0.0055L0.8841,-0.0082L0.8456,-0.0117L0.803,-0.0161L0.757,-0.0213L0.7083,-0.0273L0.6576,-0.0338L0.6058,-0.0407L0.5535,-0.0477L0.5013,-0.0545L0.4499,-0.0608L0.3999,-0.0663L0.3518,-0.0707L0.3058,-0.0738L0.2626,-0.0753L0.2221,-0.0749L0.1845,-0.0727L0.1499,-0.0688L0.1185,-0.0632L0.0904,-0.0564L0.0657,-0.0485L0.0448,-0.0399L0.0277,-0.0308L0.0147,-0.0215L0.0057,-0.0125L0.0009,-0.0043L0.0002,-0.0019L0,-0.0006L0,0.0006L0.0001,0.0012L0.0002,0.0018L0.0004,0.0022L0.0007,0.0027L0.0011,0.0032L0.0016,0.0036L0.0027,0.0045L0.0042,0.0054L0.0068,0.0068L0.0189,0.011L0.0367,0.015L0.06,0.0186L0.0883,0.0219L0.1215,0.0249L0.1691,0.0278L0.2005,0.0306L0.2451,0.0334L0.2922,0.0359L0.3413,0.0381L0.392,0.0399L0.4435,0.0412L0.4955,0.0419L0.5473,0.0421L0.5984,0.0416L0.6483,0.0406L0.6963,0.039L0.742,0.0367L0.7849,0.0338L0.8244,0.0301L0.8606,0.0254L0.8936,0.0199L0.9233,0.0144L0.9489,0.0095L0.97,0.0053L0.9861,0.0022L0.9964,0.0005L1,-0"
    />
</svg>
