
<svg 
  class="airfoil-e331"
  fill="none"
  stroke="black" 
  stroke-width="1"
  style="overflow:visible"
  viewBox="0.0001, -0.0814, 0.9999, 0.118599996"
  xmlns="http://www.w3.org/2000/svg">
    <title>EPPLER 331 AIRFOIL</title>
    <path 
      vector-effect="non-scaling-stroke"
      d="M1,-0L0.9963,-0.0002L0.9858,-0.0011L0.9691,-0.0028L0.9469,-0.0051L0.919,-0.0078L0.8859,-0.0112L0.8481,-0.0153L0.8062,-0.0202L0.7608,-0.0259L0.7127,-0.0323L0.6627,-0.0392L0.6114,-0.0464L0.5596,-0.0536L0.5079,-0.0605L0.4568,-0.067L0.4071,-0.0725L0.3591,-0.077L0.3132,-0.08L0.2699,-0.0814L0.2293,-0.0809L0.1915,-0.0785L0.1566,-0.0742L0.1247,-0.0684L0.096,-0.0613L0.0707,-0.053L0.0491,-0.044L0.0313,-0.0345L0.0174,-0.0249L0.0075,-0.0154L0.0016,-0.0065L0.0006,-0.0037L0.0001,-0.0015L0.0001,0.0012L0.0002,0.0018L0.0003,0.0023L0.0006,0.0028L0.0009,0.0033L0.0013,0.0037L0.0018,0.0041L0.0031,0.005L0.0046,0.0059L0.0073,0.0071L0.0149,0.0097L0.0314,0.0134L0.0535,0.0166L0.0809,0.0194L0.1134,0.0219L0.1504,0.0244L0.1914,0.0268L0.2358,0.0292L0.2828,0.0315L0.332,0.0335L0.3828,0.0351L0.4347,0.0362L0.4871,0.0369L0.5394,0.0372L0.591,0.0369L0.6415,0.036L0.6902,0.0346L0.7366,0.0327L0.7802,0.0301L0.8205,0.0268L0.8574,0.0224L0.8911,0.0174L0.9215,0.0124L0.9478,0.0079L0.9694,0.0043L0.9859,0.0017L0.9964,0.0003L1,-0"
    />
</svg>
