
<svg 
  class="airfoil-e332"
  fill="none"
  stroke="black" 
  stroke-width="1"
  style="overflow:visible"
  viewBox="0, -0.0876, 1, 0.120000005"
  xmlns="http://www.w3.org/2000/svg">
    <title>EPPLER 332 AIRFOIL</title>
    <path 
      vector-effect="non-scaling-stroke"
      d="M1,-0L0.9963,-0.0003L0.9859,-0.0016L0.9695,-0.004L0.9476,-0.0069L0.9203,-0.0102L0.8878,-0.0141L0.8506,-0.0188L0.8093,-0.0243L0.7646,-0.0304L0.7171,-0.0373L0.6677,-0.0445L0.617,-0.052L0.5656,-0.0595L0.5143,-0.0666L0.4636,-0.0731L0.4141,-0.0788L0.3662,-0.0833L0.3204,-0.0863L0.2671,-0.0876L0.2364,-0.0869L0.1984,-0.0843L0.1631,-0.0798L0.1308,-0.0737L0.1016,-0.0662L0.0757,-0.0577L0.0534,-0.0483L0.0348,-0.0384L0.0201,-0.0283L0.0094,-0.0183L0.0026,-0.0089L0.0004,-0.0032L0,-0.0009L0,0.0005L0.0002,0.0018L0.0003,0.0024L0.0005,0.0029L0.0007,0.0034L0.0011,0.0039L0.0015,0.0043L0.0021,0.0047L0.0034,0.0055L0.0049,0.0064L0.0077,0.0075L0.0112,0.0087L0.0263,0.0122L0.0472,0.015L0.0736,0.0174L0.1052,0.0194L0.1416,0.0214L0.1822,0.0234L0.2263,0.0254L0.2733,0.0274L0.3225,0.0291L0.3735,0.0305L0.4257,0.0315L0.4784,0.0322L0.5312,0.0324L0.5835,0.0322L0.6346,0.0315L0.684,0.0304L0.7311,0.0287L0.7754,0.0264L0.8165,0.0235L0.8541,0.0195L0.8886,0.0148L0.9198,0.0103L0.9467,0.0064L0.9689,0.0033L0.9857,0.0012L0.9963,0.0002L1,-0"
    />
</svg>
