
<svg 
  class="airfoil-e333"
  fill="none"
  stroke="black" 
  stroke-width="1"
  style="overflow:visible"
  viewBox="0, -0.0941, 1, 0.1213"
  xmlns="http://www.w3.org/2000/svg">
    <title>EPPLER 333 AIRFOIL</title>
    <path 
      vector-effect="non-scaling-stroke"
      d="M1,-0L0.9964,-0.0005L0.9859,-0.0022L0.9699,-0.005L0.9484,-0.0086L0.9217,-0.0125L0.8897,-0.017L0.8531,-0.0222L0.8125,-0.0282L0.7684,-0.0349L0.7216,-0.0421L0.6727,-0.0498L0.6226,-0.0576L0.5717,-0.0654L0.5208,-0.0727L0.4704,-0.0794L0.4211,-0.0852L0.3734,-0.0897L0.3277,-0.0928L0.2844,-0.0941L0.2436,-0.0933L0.2053,-0.0905L0.1698,-0.0858L0.1371,-0.0795L0.1073,-0.0717L0.0809,-0.0629L0.0579,-0.0532L0.0386,-0.0429L0.0231,-0.0324L0.0116,-0.022L0.0039,-0.012L0.0003,-0.0033L0,-0.0008L0,0.0006L0.0002,0.0019L0.0004,0.0025L0.0006,0.003L0.0009,0.0035L0.0012,0.004L0.0017,0.0044L0.0023,0.0048L0.0036,0.0056L0.0052,0.0064L0.0081,0.0075L0.0215,0.0106L0.041,0.0131L0.0663,0.015L0.0971,0.0165L0.1329,0.018L0.173,0.0196L0.2168,0.0212L0.2636,0.0228L0.3129,0.0242L0.364,0.0254L0.4165,0.0264L0.4697,0.0269L0.523,0.0272L0.5758,0.0271L0.6275,0.0266L0.6776,0.0257L0.7255,0.0243L0.7706,0.0224L0.8124,0.0198L0.8508,0.0163L0.8861,0.0121L0.918,0.008L0.9456,0.0047L0.9684,0.0022L0.9855,0.0006L0.9963,0.0001L1,-0"
    />
</svg>
