
<svg 
  class="airfoil-e334"
  fill="none"
  stroke="black" 
  stroke-width="1"
  style="overflow:visible"
  viewBox="0, -0.1001, 1, 0.1221"
  xmlns="http://www.w3.org/2000/svg">
    <title>EPPLER 334 AIRFOIL</title>
    <path 
      vector-effect="non-scaling-stroke"
      d="M1,-0L0.9964,-0.0006L0.9861,-0.0026L0.9703,-0.0061L0.9493,-0.0101L0.9231,-0.0146L0.8917,-0.0196L0.8557,-0.0254L0.8157,-0.0319L0.7722,-0.039L0.726,-0.0467L0.6777,-0.0547L0.6281,-0.0628L0.5777,-0.0708L0.5271,-0.0784L0.4771,-0.0853L0.4281,-0.0912L0.3805,-0.0958L0.3349,-0.0988L0.2916,-0.1001L0.2507,-0.0993L0.2122,-0.0963L0.1764,-0.0914L0.1432,-0.0849L0.1131,-0.0769L0.0861,-0.0677L0.0625,-0.0577L0.0425,-0.0471L0.0262,-0.0362L0.0138,-0.0253L0.0054,-0.0149L0.0008,-0.0055L0.0002,-0.0025L0,-0.0002L0.0001,0.0012L0.0004,0.0025L0.0005,0.003L0.0008,0.0036L0.0011,0.0041L0.0015,0.0045L0.002,0.0049L0.0026,0.0053L0.004,0.006L0.0057,0.0067L0.0087,0.0077L0.0171,0.0095L0.0352,0.0116L0.0593,0.0131L0.0891,0.0141L0.1242,0.0151L0.1638,0.0161L0.2073,0.0173L0.2539,0.0185L0.3032,0.0196L0.3545,0.0205L0.4072,0.0212L0.4608,0.0217L0.5146,0.022L0.568,0.0219L0.6205,0.0215L0.6713,0.0208L0.7199,0.0197L0.7658,0.0182L0.8084,0.016L0.8476,0.0129L0.8837,0.0092L0.9163,0.0057L0.9446,0.0029L0.9679,0.001L0.9854,0.0001L0.9963,0.0001L1,-0"
    />
</svg>
