
<svg 
  class="airfoil-e335"
  fill="none"
  stroke="black" 
  stroke-width="1"
  style="overflow:visible"
  viewBox="0, -0.085, 1, 0.1337"
  xmlns="http://www.w3.org/2000/svg">
    <title>EPPLER 335 AIRFOIL</title>
    <path 
      vector-effect="non-scaling-stroke"
      d="M1,-0L0.9962,-0.0002L0.9853,-0.001L0.9681,-0.0027L0.9452,-0.005L0.9167,-0.0077L0.8829,-0.011L0.8442,-0.0152L0.8013,-0.0203L0.7551,-0.0262L0.7062,-0.0329L0.6555,-0.0401L0.6036,-0.0477L0.5513,-0.0554L0.4992,-0.0628L0.4481,-0.0696L0.3984,-0.0756L0.3506,-0.0803L0.3051,-0.0835L0.2623,-0.085L0.2224,-0.0843L0.1852,-0.0815L0.1509,-0.0769L0.1197,-0.0705L0.0916,-0.0628L0.0669,-0.0541L0.0459,-0.0445L0.0287,-0.0345L0.0154,-0.0243L0.0061,-0.0144L0.001,-0.0053L0.0006,-0.0041L0.0001,-0.0017L0,-0.0002L0.0001,0.0011L0.0002,0.0018L0.0003,0.0024L0.0006,0.0029L0.0009,0.0035L0.0013,0.004L0.0018,0.0045L0.0031,0.0055L0.0046,0.0065L0.0073,0.008L0.018,0.0122L0.0356,0.0168L0.0587,0.0211L0.0869,0.0249L0.1199,0.0285L0.1574,0.032L0.1986,0.0354L0.243,0.0386L0.29,0.0416L0.339,0.0441L0.3895,0.0461L0.441,0.0476L0.4928,0.0485L0.5445,0.0487L0.5955,0.0482L0.6452,0.0471L0.6931,0.0452L0.7387,0.0426L0.7814,0.0393L0.8208,0.0349L0.8568,0.0293L0.89,0.0227L0.9201,0.0162L0.9466,0.0103L0.9685,0.0055L0.9854,0.0022L0.9962,0.0004L1,-0"
    />
</svg>
