
<svg 
  class="airfoil-e336"
  fill="none"
  stroke="black" 
  stroke-width="1"
  style="overflow:visible"
  viewBox="0, -0.0911, 1, 0.135"
  xmlns="http://www.w3.org/2000/svg">
    <title>EPPLER 336 AIRFOIL</title>
    <path 
      vector-effect="non-scaling-stroke"
      d="M1,-0L0.9962,-0.0003L0.9854,-0.0015L0.9685,-0.0038L0.946,-0.0068L0.9181,-0.01L0.8848,-0.0139L0.8467,-0.0187L0.8045,-0.0243L0.7589,-0.0307L0.7107,-0.0378L0.6605,-0.0454L0.6092,-0.0533L0.5573,-0.0612L0.5057,-0.0688L0.4549,-0.0757L0.4054,-0.0817L0.3577,-0.0865L0.3023,-0.0897L0.2695,-0.0911L0.2294,-0.0903L0.192,-0.0874L0.1574,-0.0825L0.1257,-0.0759L0.0971,-0.0679L0.0719,-0.0588L0.0501,-0.0489L0.0322,-0.0384L0.0181,-0.0279L0.0079,-0.0175L0.0019,-0.0077L0.0004,-0.0035L0,-0.0011L0,0.0004L0.0001,0.0018L0.0003,0.0024L0.0005,0.003L0.0007,0.0036L0.0011,0.0041L0.0016,0.0046L0.0021,0.0051L0.0034,0.0061L0.005,0.007L0.0078,0.0084L0.0141,0.0109L0.0304,0.0152L0.0523,0.0191L0.0796,0.0225L0.1119,0.0256L0.1488,0.0287L0.1896,0.0317L0.2338,0.0346L0.2807,0.0372L0.3297,0.0396L0.3804,0.0415L0.4321,0.0428L0.4843,0.0437L0.5365,0.0439L0.588,0.0436L0.6383,0.0426L0.6869,0.041L0.7332,0.0387L0.7766,0.0356L0.8167,0.0317L0.8535,0.0264L0.8874,0.0202L0.9183,0.0141L0.9454,0.0087L0.968,0.0045L0.9852,0.0016L0.9962,0.0003L1,-0"
    />
</svg>
