
<svg 
  class="airfoil-e337"
  fill="none"
  stroke="black" 
  stroke-width="1"
  style="overflow:visible"
  viewBox="0, -0.0974, 1, 0.1365"
  xmlns="http://www.w3.org/2000/svg">
    <title>EPPLER 337 AIRFOIL</title>
    <path 
      vector-effect="non-scaling-stroke"
      d="M1,-0L0.9962,-0.0004L0.9855,-0.0021L0.9689,-0.005L0.9469,-0.0085L0.9194,-0.0123L0.8867,-0.0168L0.8492,-0.0222L0.8077,-0.0283L0.7627,-0.0351L0.7151,-0.0427L0.6655,-0.0507L0.6147,-0.0589L0.5633,-0.067L0.5121,-0.0748L0.4615,-0.0819L0.4123,-0.088L0.3647,-0.0928L0.3194,-0.0961L0.2765,-0.0974L0.2364,-0.0965L0.1988,-0.0934L0.1638,-0.0883L0.1317,-0.0814L0.1026,-0.0732L0.1026,-0.0732L0.0767,-0.0638L0.0544,-0.0535L0.0357,-0.0427L0.0208,-0.0317L0.0099,-0.0209L0.0029,-0.0106L0.0003,-0.0032L0,-0.0007L0,0.0008L0.0003,0.0022L0.0004,0.0029L0.0006,0.0035L0.0009,0.004L0.0013,0.0045L0.0018,0.005L0.0024,0.0055L0.0037,0.0064L0.0054,0.0074L0.0083,0.0087L0.0105,0.0096L0.0254,0.0136L0.0461,0.0171L0.0723,0.0201L0.1038,0.0228L0.1401,0.0254L0.1805,0.028L0.2244,0.0305L0.2712,0.0329L0.3203,0.035L0.3711,0.0367L0.4231,0.038L0.4757,0.0388L0.5284,0.0391L0.5804,0.0389L0.6314,0.038L0.6806,0.0366L0.7276,0.0346L0.7718,0.0319L0.8126,0.0283L0.8502,0.0234L0.8848,0.0176L0.9165,0.0119L0.9443,0.0071L0.9674,0.0034L0.985,0.0011L0.9962,0.0002L1,-0"
    />
</svg>
