
<svg 
  class="airfoil-e338"
  fill="none"
  stroke="black" 
  stroke-width="1"
  style="overflow:visible"
  viewBox="0, -0.1037, 1, 0.1376"
  xmlns="http://www.w3.org/2000/svg">
    <title>EPPLER 338 AIRFOIL</title>
    <path 
      vector-effect="non-scaling-stroke"
      d="M1,-0L0.9962,-0.0006L0.9856,-0.0026L0.9693,-0.006L0.9477,-0.0101L0.9208,-0.0145L0.8886,-0.0196L0.8518,-0.0254L0.8109,-0.032L0.7666,-0.0394L0.7196,-0.0474L0.6706,-0.0557L0.6203,-0.0642L0.5694,-0.0727L0.5185,-0.0807L0.4683,-0.0879L0.4192,-0.0942L0.3718,-0.0991L0.3265,-0.1023L0.2837,-0.1037L0.2434,-0.1027L0.2056,-0.0994L0.1704,-0.0941L0.1378,-0.0871L0.1082,-0.0786L0.0818,-0.0689L0.0588,-0.0584L0.0399,-0.0472L0.0238,-0.0358L0.012,-0.0245L0.0042,-0.0137L0.0004,-0.004L0.0002,-0.0028L0,-0.0004L0.0001,0.0012L0.0003,0.0026L0.0005,0.0032L0.0008,0.0038L0.0011,0.0043L0.0015,0.0048L0.002,0.0053L0.0026,0.0058L0.004,0.0067L0.0057,0.0076L0.0088,0.0088L0.0207,0.012L0.0401,0.0152L0.0652,0.0177L0.0958,0.0199L0.1314,0.022L0.1714,0.0242L0.215,0.0263L0.2617,0.0284L0.3108,0.0302L0.3617,0.0317L0.414,0.0329L0.467,0.0336L0.5201,0.0339L0.5727,0.0338L0.6243,0.0331L0.6742,0.032L0.7219,0.0302L0.7669,0.0279L0.8085,0.0247L0.8468,0.0202L0.8822,0.0148L0.9146,0.0096L0.9431,0.0053L0.9669,0.0022L0.9849,0.0006L0.9961,0L1,-0"
    />
</svg>
