
<svg 
  class="airfoil-e339"
  fill="none"
  stroke="black" 
  stroke-width="1"
  style="overflow:visible"
  viewBox="0.0001, -0.1097, 0.9999, 0.1388"
  xmlns="http://www.w3.org/2000/svg">
    <title>EPPLER 339 AIRFOIL</title>
    <path 
      vector-effect="non-scaling-stroke"
      d="M1,-0L0.9963,-0.0007L0.9858,-0.0031L0.9697,-0.0071L0.9486,-0.0117L0.9222,-0.0167L0.8906,-0.0223L0.8544,-0.0287L0.8141,-0.0358L0.7704,-0.0436L0.724,-0.0519L0.6755,-0.0606L0.6257,-0.0695L0.5753,-0.0782L0.5248,-0.0864L0.4749,-0.0938L0.426,-0.1002L0.3788,-0.1051L0.3335,-0.1085L0.2907,-0.1097L0.2503,-0.1087L0.2123,-0.1053L0.1767,-0.0998L0.1438,-0.0926L0.1138,-0.0838L0.0868,-0.0739L0.0632,-0.0631L0.0432,-0.0515L0.0268,-0.0397L0.0143,-0.028L0.0056,-0.0166L0.0009,-0.0063L0.0001,-0.002L0.0001,0.0004L0.0002,0.002L0.0005,0.0034L0.0007,0.004L0.001,0.0046L0.0014,0.0052L0.0018,0.0056L0.0023,0.0061L0.003,0.0065L0.0044,0.0074L0.0062,0.0082L0.0094,0.0093L0.0164,0.0111L0.0343,0.014L0.0583,0.0161L0.0879,0.0178L0.1228,0.0194L0.1623,0.0211L0.2056,0.0228L0.2521,0.0244L0.3011,0.0259L0.3522,0.0272L0.4048,0.0282L0.4581,0.0288L0.5117,0.0291L0.5649,0.029L0.6172,0.0285L0.6678,0.0275L0.7162,0.026L0.7619,0.024L0.8043,0.0211L0.8434,0.017L0.8796,0.0121L0.9128,0.0073L0.942,0.0035L0.9664,0.0011L0.9847,0L0.9961,-0.0001L1,-0"
    />
</svg>
