
<svg 
  class="airfoil-e340"
  fill="none"
  stroke="black" 
  stroke-width="1"
  style="overflow:visible"
  viewBox="0, -0.093, 1, 0.1454"
  xmlns="http://www.w3.org/2000/svg">
    <title>EPPLER 340 AIRFOIL</title>
    <path 
      vector-effect="non-scaling-stroke"
      d="M1,-0L0.9961,-0.0002L0.985,-0.0012L0.9676,-0.0033L0.9445,-0.0059L0.9158,-0.0089L0.8816,-0.0126L0.8426,-0.0172L0.7995,-0.0228L0.753,-0.0293L0.7038,-0.0366L0.6529,-0.0445L0.6009,-0.0528L0.5485,-0.0611L0.4966,-0.0691L0.4455,-0.0765L0.3961,-0.0829L0.3486,-0.088L0.3036,-0.0915L0.2614,-0.093L0.222,-0.0921L0.1853,-0.089L0.1514,-0.0838L0.1203,-0.0768L0.0924,-0.0684L0.0678,-0.0589L0.0468,-0.0486L0.0294,-0.0378L0.016,-0.0269L0.0066,-0.0162L0.0012,-0.0063L0.0005,-0.0038L0.0001,-0.0013L0,0.0003L0.0001,0.0017L0.0003,0.0024L0.0004,0.0031L0.0007,0.0037L0.0011,0.0042L0.0015,0.0048L0.0021,0.0053L0.0034,0.0064L0.005,0.0075L0.0079,0.0091L0.0169,0.0129L0.0343,0.0179L0.0572,0.0225L0.0852,0.0268L0.1181,0.0307L0.1555,0.0345L0.1966,0.0381L0.2409,0.0416L0.2878,0.0448L0.3368,0.0475L0.3873,0.0497L0.4387,0.0513L0.4905,0.0522L0.5422,0.0524L0.5932,0.0519L0.6429,0.0506L0.6908,0.0486L0.7364,0.0459L0.7792,0.0422L0.8186,0.0376L0.8546,0.0316L0.8879,0.0244L0.9183,0.0172L0.9452,0.0108L0.9677,0.0057L0.985,0.0022L0.9961,-0.0004L1,-0"
    />
</svg>
