
<svg 
  class="airfoil-e341"
  fill="none"
  stroke="black" 
  stroke-width="1"
  style="overflow:visible"
  viewBox="0, -0.0992, 1, 0.1469"
  xmlns="http://www.w3.org/2000/svg">
    <title>EPPLER 341 AIRFOIL</title>
    <path 
      vector-effect="non-scaling-stroke"
      d="M1,-0L0.9961,-0.0003L0.9851,-0.0018L0.968,-0.0044L0.9454,-0.0076L0.9171,-0.0112L0.8835,-0.0155L0.8452,-0.0207L0.8027,-0.0268L0.7568,-0.0338L0.7083,-0.0415L0.6579,-0.0497L0.6064,-0.0583L0.5545,-0.0668L0.5029,-0.0751L0.4522,-0.0826L0.4029,-0.0891L0.3556,-0.0943L0.3106,-0.0978L0.2684,-0.0992L0.2288,-0.0983L0.1919,-0.0949L0.1577,-0.0895L0.1262,-0.0823L0.0978,-0.0737L0.0726,-0.0639L0.0509,-0.0532L0.0329,-0.0421L0.0187,-0.0307L0.0084,-0.0196L0.0021,-0.0091L0.0003,-0.0034L0,-0.0008L0,0.0008L0.0003,0.0023L0.0004,0.003L0.0006,0.0036L0.0009,0.0042L0.0013,0.0048L0.0018,0.0053L0.0024,0.0058L0.0038,0.0069L0.0054,0.0079L0.0084,0.0095L0.0131,0.0115L0.0292,0.0162L0.0509,0.0204L0.0779,0.0242L0.1101,0.0277L0.1469,0.0311L0.1876,0.0344L0.2317,0.0375L0.2785,0.0404L0.3275,0.043L0.3781,0.045L0.4298,0.0465L0.482,0.0474L0.5342,0.0477L0.5857,0.0473L0.636,0.0462L0.6846,0.0444L0.7309,0.0419L0.7743,0.0386L0.8144,0.0344L0.8512,0.0287L0.8852,0.0219L0.9164,0.0151L0.944,0.0092L0.9671,0.0046L0.9848,0.0016L0.9961,-0.0003L1,-0"
    />
</svg>
