
<svg 
  class="airfoil-e342"
  fill="none"
  stroke="black" 
  stroke-width="1"
  style="overflow:visible"
  viewBox="0, -0.1056, 1, 0.1485"
  xmlns="http://www.w3.org/2000/svg">
    <title>EPPLER 342 AIRFOIL</title>
    <path 
      vector-effect="non-scaling-stroke"
      d="M1,-0L0.9961,-0.0005L0.9852,-0.0023L0.9684,-0.0055L0.9462,-0.0093L0.9185,-0.0135L0.8855,-0.0184L0.8477,-0.0242L0.8059,-0.0308L0.7606,-0.0382L0.7127,-0.0464L0.6629,-0.055L0.6119,-0.0639L0.5605,-0.0727L0.5092,-0.0811L0.4588,-0.0888L0.4098,-0.0954L0.3626,-0.1006L0.3176,-0.1041L0.2753,-0.1056L0.2357,-0.1045L0.1985,-0.1011L0.1639,-0.0955L0.1321,-0.0881L0.1032,-0.0792L0.0774,-0.0691L0.0551,-0.0581L0.0364,-0.0466L0.0214,-0.0348L0.0103,-0.0232L0.0032,-0.0121L0.0002,-0.003L0,-0.0004L0.0001,0.0013L0.0003,0.0028L0.0005,0.0035L0.0008,0.0041L0.0011,0.0047L0.0015,0.0052L0.002,0.0058L0.0026,0.0063L0.0041,0.0073L0.0058,0.0083L0.0088,0.0098L0.0242,0.0146L0.0447,0.0185L0.0707,0.0218L0.1021,0.0249L0.1382,0.0278L0.1785,0.0307L0.2223,0.0336L0.269,0.0362L0.318,0.0385L0.3688,0.0403L0.4208,0.0417L0.4734,0.0426L0.526,0.0429L0.5781,0.0426L0.629,0.0417L0.6782,0.0402L0.7252,0.0379L0.7694,0.035L0.8103,0.031L0.8478,0.0257L0.8826,0.0193L0.9145,0.0129L0.9428,0.0075L0.9665,0.0035L0.9846,0.0011L0.9961,-0.0002L1,-0"
    />
</svg>
