
<svg 
  class="airfoil-e343"
  fill="none"
  stroke="black" 
  stroke-width="1"
  style="overflow:visible"
  viewBox="0, -0.1117, 1, 0.1496"
  xmlns="http://www.w3.org/2000/svg">
    <title>EPPLER 343 AIRFOIL</title>
    <path 
      vector-effect="non-scaling-stroke"
      d="M1,-0L0.9962,-0.0006L0.9854,-0.0028L0.9688,-0.0065L0.9471,-0.0109L0.9199,-0.0157L0.8875,-0.0211L0.8503,-0.0274L0.8091,-0.0345L0.7644,-0.0424L0.7171,-0.0509L0.6679,-0.0599L0.6174,-0.0691L0.5664,-0.0782L0.5156,-0.0868L0.4655,-0.0947L0.4166,-0.1014L0.3695,-0.1067L0.3246,-0.1103L0.2823,-0.1117L0.2426,-0.1106L0.2052,-0.107L0.1703,-0.1013L0.1381,-0.0937L0.1087,-0.0846L0.0824,-0.0742L0.0594,-0.0629L0.04,-0.051L0.0243,-0.0389L0.0125,-0.0268L0.0045,-0.0152L0.0005,-0.0048L0.0001,-0.0023L0,0.0003L0.0002,0.0019L0.0005,0.0034L0.0007,0.0041L0.001,0.0047L0.0013,0.0053L0.0018,0.0058L0.0023,0.0063L0.003,0.0068L0.0045,0.0078L0.0063,0.0087L0.0094,0.0101L0.0197,0.0131L0.0388,0.0167L0.0637,0.0196L0.0942,0.0222L0.1297,0.0247L0.1695,0.0271L0.213,0.0295L0.2596,0.0318L0.3086,0.0338L0.3595,0.0355L0.4117,0.0368L0.4647,0.0376L0.5178,0.0379L0.5704,0.0377L0.6219,0.0369L0.6718,0.0356L0.7195,0.0337L0.7645,0.031L0.8061,0.0274L0.8444,0.0225L0.8799,0.0165L0.9127,0.0106L0.9517,0.0058L0.966,0.0023L0.9844,0.0005L0.996,0L1,-0"
    />
</svg>
