
<svg 
  class="airfoil-e344"
  fill="none"
  stroke="black" 
  stroke-width="1"
  style="overflow:visible"
  viewBox="0.0001, -0.1179, 0.9999, 0.151"
  xmlns="http://www.w3.org/2000/svg">
    <title>EPPLER 344 AIRFOIL</title>
    <path 
      vector-effect="non-scaling-stroke"
      d="M1,-0L0.9962,-0.0008L0.9855,-0.0034L0.9693,-0.0076L0.948,-0.0125L0.9213,-0.0179L0.8895,-0.0238L0.8529,-0.0306L0.8123,-0.0382L0.7682,-0.0466L0.7215,-0.0555L0.6728,-0.0649L0.6229,-0.0743L0.5723,-0.0837L0.5218,-0.0925L0.472,-0.1006L0.4234,-0.1074L0.3764,-0.1128L0.3316,-0.1164L0.2892,-0.1179L0.2493,-0.1167L0.2118,-0.113L0.1766,-0.1071L0.144,-0.0993L0.1141,-0.09L0.0873,-0.0794L0.0638,-0.0678L0.0438,-0.0556L0.0274,-0.043L0.0148,-0.0305L0.006,-0.0184L0.0011,-0.0074L0.0001,-0.0016L0.0002,0.001L0.0004,0.0027L0.0008,0.0042L0.0011,0.0049L0.0014,0.0055L0.0018,0.006L0.0022,0.0066L0.0028,0.0071L0.0035,0.0076L0.005,0.0085L0.0069,0.0093L0.0102,0.0105L0.0156,0.0121L0.0333,0.0154L0.057,0.0179L0.0865,0.02L0.1212,0.022L0.1605,0.024L0.2037,0.026L0.2501,0.0279L0.2991,0.0297L0.3501,0.0311L0.4025,0.0322L0.4559,0.0329L0.5094,0.0331L0.5626,0.033L0.6148,0.0323L0.6654,0.0312L0.7138,0.0295L0.7595,0.0272L0.8019,0.0239L0.8409,0.0193L0.8773,0.0137L0.9108,0.0083L0.9406,0.004L0.9655,0.0012L0.9843,-0L0.996,-0.0001L1,-0"
    />
</svg>
