
<svg 
  class="airfoil-e360"
  fill="none"
  stroke="black" 
  stroke-width="1"
  style="overflow:visible"
  viewBox="0, -0.0761, 1, 0.1231"
  xmlns="http://www.w3.org/2000/svg">
    <title>EPPLER 360 AIRFOIL</title>
    <path 
      vector-effect="non-scaling-stroke"
      d="M1,-0L0.9963,-0.0004L0.9858,-0.0018L0.9694,-0.0044L0.9477,-0.0077L0.9206,-0.0114L0.8885,-0.0157L0.8518,-0.0207L0.8112,-0.0263L0.7674,-0.0325L0.7208,-0.0391L0.6723,-0.0458L0.6225,-0.0526L0.5721,-0.059L0.5215,-0.0649L0.4715,-0.0698L0.4223,-0.0735L0.3742,-0.0755L0.3274,-0.0761L0.2822,-0.0753L0.239,-0.0733L0.1982,-0.0702L0.1604,-0.0662L0.1259,-0.0613L0.0953,-0.0557L0.0688,-0.0492L0.0468,-0.0419L0.0291,-0.0336L0.0157,-0.0246L0.0064,-0.0153L0.0012,-0.0062L0.0004,-0.0035L0,-0.001L0,0.0005L0.0002,0.002L0.0003,0.0027L0.0005,0.0033L0.0008,0.0039L0.0011,0.0045L0.0016,0.0051L0.0021,0.0056L0.0033,0.0068L0.0048,0.0079L0.0075,0.0096L0.0156,0.0135L0.0318,0.0188L0.0532,0.0237L0.0796,0.0282L0.1106,0.0323L0.1458,0.036L0.1848,0.0393L0.2272,0.042L0.2724,0.0441L0.3199,0.0457L0.3692,0.0467L0.4198,0.047L0.4711,0.0466L0.5224,0.0455L0.5733,0.0435L0.6235,0.0405L0.6724,0.0367L0.7198,0.0322L0.7653,0.0272L0.8085,0.0219L0.8488,0.0169L0.8857,0.0123L0.9183,0.0084L0.9462,0.0052L0.9688,0.0027L0.9857,0.001L0.9963,0.0002L1,-0"
    />
</svg>
