
<svg 
  class="airfoil-e361"
  fill="none"
  stroke="black" 
  stroke-width="1"
  style="overflow:visible"
  viewBox="0, -0.0767, 1, 0.12190001"
  xmlns="http://www.w3.org/2000/svg">
    <title>EPPLER 361 AIRFOIL</title>
    <path 
      vector-effect="non-scaling-stroke"
      d="M1,-0L0.9963,-0.0003L0.9858,-0.0014L0.9692,-0.0037L0.947,-0.0066L0.9195,-0.01L0.8868,-0.0141L0.8496,-0.0191L0.8085,-0.0247L0.7642,-0.0311L0.7173,-0.0378L0.6685,-0.0449L0.6186,-0.052L0.5681,-0.0588L0.5176,-0.065L0.4678,-0.0702L0.4189,-0.074L0.3712,-0.0761L0.3247,-0.0767L0.2798,-0.0758L0.2368,-0.0737L0.1964,-0.0706L0.1588,-0.0665L0.1246,-0.0615L0.0942,-0.0558L0.0679,-0.0492L0.0461,-0.0418L0.0286,-0.0334L0.0153,-0.0244L0.0061,-0.015L0.0011,-0.006L0.0004,-0.0034L0,-0.0009L0,0.0006L0.0002,0.0021L0.0003,0.0028L0.0005,0.0034L0.0008,0.004L0.0012,0.0046L0.0016,0.0052L0.0021,0.0057L0.0034,0.0068L0.0049,0.008L0.0076,0.0096L0.0158,0.0135L0.0322,0.0187L0.0537,0.0234L0.0803,0.0277L0.1114,0.0317L0.1468,0.0352L0.186,0.0382L0.2285,0.0407L0.2739,0.0427L0.3216,0.0441L0.3712,0.045L0.422,0.0452L0.4734,0.0447L0.525,0.0436L0.5761,0.0416L0.6265,0.0387L0.6756,0.0351L0.7232,0.0309L0.7687,0.0263L0.8117,0.0215L0.8517,0.0169L0.888,0.0127L0.9201,0.009L0.9473,0.0058L0.9694,0.0032L0.9859,0.0013L0.9964,0.0003L1,-0"
    />
</svg>
