
<svg 
  class="airfoil-e374"
  fill="none"
  stroke="black" 
  stroke-width="1"
  style="overflow:visible"
  viewBox="0.0001, -0.0768, 0.9999, 0.1093"
  xmlns="http://www.w3.org/2000/svg">
    <title>E374</title>
    <path 
      vector-effect="non-scaling-stroke"
      d="M1,-0L0.9964,-0.0004L0.9861,-0.002L0.97,-0.0049L0.9486,-0.0085L0.9221,-0.0126L0.8908,-0.0175L0.8551,-0.023L0.8156,-0.0291L0.7729,-0.0356L0.7277,-0.0425L0.6805,-0.0494L0.6321,-0.0563L0.5831,-0.0627L0.534,-0.0682L0.4851,-0.0725L0.4368,-0.0754L0.3894,-0.0768L0.3431,-0.0767L0.2982,-0.0751L0.2551,-0.0722L0.2141,-0.0682L0.1758,-0.0632L0.1405,-0.0573L0.1086,-0.0507L0.0804,-0.0435L0.056,-0.0358L0.0359,-0.0278L0.02,-0.0197L0.0086,-0.0119L0.0018,-0.0046L0.0001,0.0012L0.0044,0.0062L0.0143,0.0113L0.0293,0.016L0.0495,0.0202L0.0745,0.0237L0.1043,0.0266L0.1384,0.0289L0.1767,0.0306L0.2186,0.0318L0.2637,0.0324L0.3116,0.0325L0.3616,0.0323L0.4132,0.0316L0.4658,0.0306L0.5188,0.0293L0.5715,0.0277L0.6234,0.0257L0.6738,0.0233L0.7224,0.0206L0.7687,0.0176L0.8123,0.0145L0.8525,0.0115L0.8889,0.0088L0.9208,0.0064L0.9478,0.0043L0.9696,0.0024L0.9859,0.0009L0.9964,0.0002L1,-0"
    />
</svg>
