
<svg 
  class="airfoil-e376"
  fill="none"
  stroke="black" 
  stroke-width="1"
  style="overflow:visible"
  viewBox="0, -0.0918, 1, 0.094699994"
  xmlns="http://www.w3.org/2000/svg">
    <title>EPPLER 376 AIRFOIL</title>
    <path 
      vector-effect="non-scaling-stroke"
      d="M1,-0L0.9971,-0.0004L0.9885,-0.0014L0.9742,-0.0033L0.9545,-0.0061L0.9297,-0.0099L0.9003,-0.0146L0.8667,-0.0201L0.8293,-0.0263L0.7886,-0.0331L0.7453,-0.0404L0.6998,-0.048L0.6527,-0.0557L0.6046,-0.0633L0.5562,-0.0707L0.508,-0.0775L0.4606,-0.0834L0.4145,-0.0879L0.3698,-0.0907L0.3267,-0.0918L0.2853,-0.0911L0.246,-0.0885L0.2087,-0.0843L0.1736,-0.0788L0.1412,-0.0722L0.1117,-0.0646L0.0853,-0.0564L0.0624,-0.0477L0.0429,-0.0386L0.0271,-0.0296L0.0149,-0.0208L0.0065,-0.0126L0.0015,-0.0053L0,0.0003L0.0021,0.0029L0.0085,0.0021L0.0202,-0.0026L0.0381,-0.0115L0.0635,-0.0243L0.0975,-0.0402L0.1413,-0.0579L0.196,-0.0742L0.2596,-0.0844L0.3262,-0.0869L0.392,-0.0845L0.4565,-0.0794L0.5191,-0.0723L0.5792,-0.0643L0.6366,-0.0559L0.6909,-0.0474L0.7418,-0.0391L0.7889,-0.0313L0.8317,-0.024L0.8702,-0.0176L0.9039,-0.0121L0.9326,-0.0077L0.9563,-0.0043L0.975,-0.0022L0.9886,-0.001L0.9971,-0.0003L1,-0"
    />
</svg>
