
<svg 
  class="airfoil-e377m"
  fill="none"
  stroke="black" 
  stroke-width="1"
  style="overflow:visible"
  viewBox="0.0001, -0.094, 0.9999, 0.0986"
  xmlns="http://www.w3.org/2000/svg">
    <title>EPPLER 377 (MODIFIED) AIRFOIL</title>
    <path 
      vector-effect="non-scaling-stroke"
      d="M1,-0L0.9971,-0.0004L0.9884,-0.0016L0.9741,-0.0036L0.9543,-0.0066L0.9296,-0.0106L0.9002,-0.0154L0.8665,-0.0211L0.8291,-0.0275L0.7884,-0.0345L0.745,-0.0419L0.6994,-0.0497L0.6523,-0.0575L0.6042,-0.0653L0.5557,-0.0727L0.5074,-0.0796L0.46,-0.0855L0.4138,-0.0901L0.369,-0.0929L0.3258,-0.094L0.2845,-0.0932L0.245,-0.0905L0.2077,-0.0862L0.1726,-0.0806L0.1401,-0.0738L0.1106,-0.0661L0.0843,-0.0577L0.0613,-0.0487L0.042,-0.0395L0.0262,-0.0301L0.0143,-0.021L0.006,-0.0124L0.0014,-0.0048L0.0001,0.001L0.0032,0.0041L0.0114,0.0046L0.0244,0.002L0.0429,-0.0036L0.065,-0.0125L0.0876,-0.0243L0.1123,-0.0392L0.14,-0.055L0.1718,-0.0688L0.2077,-0.0793L0.245,-0.0855L0.2845,-0.0882L0.3263,-0.0886L0.3696,-0.0871L0.4138,-0.0841L0.461,-0.0796L0.5084,-0.0741L0.5557,-0.0677L0.6049,-0.0603L0.6529,-0.0525L0.6994,-0.0447L0.7454,-0.0369L0.7888,-0.0295L0.8291,-0.0225L0.8667,-0.016L0.9003,-0.0106L0.9296,-0.0066L0.9545,-0.0039L0.9742,-0.0021L0.9885,-0.0009L0.9971,-0.0002L1,-0"
    />
</svg>
