
<svg 
  class="airfoil-e378"
  fill="none"
  stroke="black" 
  stroke-width="1"
  style="overflow:visible"
  viewBox="0.0005, -0.0884, 0.9995, 0.092599995"
  xmlns="http://www.w3.org/2000/svg">
    <title>EPPLER 378 AIRFOIL</title>
    <path 
      vector-effect="non-scaling-stroke"
      d="M1,-0L0.9971,-0.0002L0.9883,-0.001L0.9736,-0.0024L0.9533,-0.0047L0.9278,-0.008L0.8976,-0.0122L0.8631,-0.0173L0.8248,-0.0231L0.7832,-0.0296L0.7389,-0.0367L0.6925,-0.0441L0.6446,-0.0518L0.5957,-0.0594L0.5467,-0.0668L0.498,-0.0737L0.4503,-0.0797L0.404,-0.0843L0.3592,-0.0873L0.3161,-0.0884L0.275,-0.0877L0.2359,-0.0852L0.1989,-0.0811L0.1644,-0.0755L0.1325,-0.0689L0.1036,-0.0614L0.078,-0.0532L0.0559,-0.0446L0.0373,-0.0356L0.0225,-0.0267L0.0115,-0.018L0.0043,-0.0099L0.0006,-0.0029L0.0005,0.002L0.0052,0.0042L0.0153,0.0042L0.0303,0.0017L0.0507,-0.0038L0.0773,-0.0122L0.1108,-0.0233L0.1515,-0.0361L0.1999,-0.0493L0.2557,-0.0615L0.3181,-0.0705L0.3847,-0.0741L0.4513,-0.0723L0.5159,-0.0672L0.5778,-0.0604L0.6366,-0.0525L0.6919,-0.0443L0.7434,-0.0361L0.7907,-0.0282L0.8336,-0.0211L0.8719,-0.0148L0.9052,-0.0096L0.9336,-0.0055L0.9568,-0.0026L0.975,-0.001L0.9886,-0.0004L0.9971,-0.0001L1,-0"
    />
</svg>
