
<svg 
  class="airfoil-e379"
  fill="none"
  stroke="black" 
  stroke-width="1"
  style="overflow:visible"
  viewBox="0.0001, -0.0863, 0.9999, 0.087400004"
  xmlns="http://www.w3.org/2000/svg">
    <title>EPPLER 379 AIRFOIL</title>
    <path 
      vector-effect="non-scaling-stroke"
      d="M1,-0L0.9971,-0.0002L0.9883,-0.0009L0.9736,-0.0021L0.9534,-0.0043L0.928,-0.0074L0.8978,-0.0114L0.8633,-0.0163L0.8251,-0.022L0.7836,-0.0283L0.7394,-0.0352L0.6931,-0.0425L0.6453,-0.05L0.5966,-0.0575L0.5477,-0.0648L0.4991,-0.0716L0.4515,-0.0776L0.4053,-0.0822L0.3607,-0.0851L0.3177,-0.0863L0.2767,-0.0857L0.2377,-0.0833L0.2008,-0.0793L0.1663,-0.0739L0.1345,-0.0675L0.1056,-0.0602L0.08,-0.0523L0.0578,-0.0439L0.0392,-0.0352L0.0242,-0.0266L0.0129,-0.0183L0.0053,-0.0106L0.0012,-0.004L0.0001,0.0007L0.0028,0.0011L0.0116,-0.0024L0.0271,-0.0088L0.0495,-0.0182L0.0795,-0.03L0.1177,-0.0432L0.1647,-0.0563L0.2195,-0.0665L0.2793,-0.0723L0.3417,-0.0741L0.4049,-0.0725L0.4677,-0.0683L0.529,-0.0621L0.5881,-0.0549L0.6445,-0.0471L0.6978,-0.0393L0.7476,-0.0318L0.7937,-0.0247L0.8356,-0.0182L0.8731,-0.0127L0.9059,-0.0081L0.9339,-0.0045L0.957,-0.002L0.9751,-0.0008L0.9886,-0.0003L0.9971,-0.0001L1,-0"
    />
</svg>
