
<svg 
  class="airfoil-e385"
  fill="none"
  stroke="black" 
  stroke-width="1"
  style="overflow:visible"
  viewBox="0.0003, -0.0977, 0.9997, 0.1062"
  xmlns="http://www.w3.org/2000/svg">
    <title>E385 (8.41%)</title>
    <path 
      vector-effect="non-scaling-stroke"
      d="M1,-0L0.9969,-0.0008L0.988,-0.0032L0.9738,-0.0072L0.9548,-0.0123L0.9312,-0.0183L0.9031,-0.0248L0.8708,-0.0319L0.8349,-0.0395L0.7957,-0.0474L0.7538,-0.0555L0.7096,-0.0636L0.6639,-0.0714L0.6171,-0.0787L0.5698,-0.0853L0.5225,-0.0907L0.4755,-0.0946L0.429,-0.097L0.3834,-0.0977L0.3389,-0.0967L0.2957,-0.0941L0.2542,-0.09L0.2148,-0.0848L0.1778,-0.0785L0.1436,-0.0712L0.1125,-0.0631L0.0849,-0.0544L0.0609,-0.0453L0.0407,-0.0359L0.0245,-0.0265L0.0123,-0.0174L0.0042,-0.009L0.0003,-0.0018L0.0011,0.0031L0.0077,0.0061L0.02,0.008L0.0378,0.0085L0.0613,0.0078L0.0902,0.0061L0.1244,0.0035L0.1634,0.0004L0.2069,-0.0031L0.2543,-0.0068L0.3051,-0.0105L0.3586,-0.014L0.4141,-0.0171L0.471,-0.0198L0.5284,-0.0218L0.5856,-0.0232L0.6419,-0.0238L0.6964,-0.0237L0.7484,-0.0228L0.7972,-0.0213L0.8421,-0.0191L0.8825,-0.0163L0.9178,-0.0132L0.9474,-0.0097L0.9708,-0.006L0.9872,-0.0028L0.9969,-0.0007L1,-0"
    />
</svg>
