
<svg 
  class="airfoil-e387"
  fill="none"
  stroke="black" 
  stroke-width="1"
  style="overflow:visible"
  viewBox="0.0004, -0.0825, 0.9996, 0.097500004"
  xmlns="http://www.w3.org/2000/svg">
    <title>E387</title>
    <path 
      vector-effect="non-scaling-stroke"
      d="M1,-0L0.9968,-0.0004L0.9873,-0.0018L0.972,-0.0042L0.9513,-0.0076L0.9255,-0.0118L0.8951,-0.0168L0.8604,-0.0224L0.8218,-0.0287L0.7801,-0.0354L0.7357,-0.0425L0.6892,-0.0498L0.6414,-0.057L0.5927,-0.0639L0.5439,-0.0702L0.4955,-0.0755L0.4477,-0.0794L0.4008,-0.0817L0.355,-0.0825L0.3108,-0.0816L0.2681,-0.0791L0.2274,-0.0753L0.1891,-0.0704L0.1534,-0.0645L0.1209,-0.0578L0.0918,-0.0503L0.0664,-0.0424L0.0449,-0.0341L0.0275,-0.0256L0.0142,-0.0173L0.0052,-0.0093L0.0004,-0.0023L0.0009,0.0029L0.0072,0.0068L0.0189,0.0102L0.036,0.0126L0.0583,0.0143L0.0857,0.015L0.118,0.015L0.1549,0.0144L0.196,0.0133L0.2408,0.0118L0.2889,0.01L0.3397,0.008L0.3925,0.006L0.4468,0.0041L0.5018,0.0023L0.5569,0.0007L0.6115,-0.0007L0.6647,-0.0019L0.716,-0.0027L0.7648,-0.0032L0.8103,-0.0034L0.852,-0.0034L0.8894,-0.0031L0.922,-0.0026L0.9494,-0.002L0.9712,-0.0013L0.987,-0.0007L0.9967,-0.0002L1,-0"
    />
</svg>
