
<svg 
  class="airfoil-e392"
  fill="none"
  stroke="black" 
  stroke-width="1"
  style="overflow:visible"
  viewBox="0.0007, -0.088, 0.9993, 0.1068"
  xmlns="http://www.w3.org/2000/svg">
    <title>E392 (10.15%)</title>
    <path 
      vector-effect="non-scaling-stroke"
      d="M1,-0L0.9968,-0.0006L0.9873,-0.0023L0.9721,-0.0054L0.9517,-0.0095L0.9264,-0.0144L0.8965,-0.02L0.8623,-0.0261L0.8243,-0.0329L0.7831,-0.0401L0.7392,-0.0475L0.6933,-0.0551L0.6458,-0.0625L0.5975,-0.0695L0.549,-0.0759L0.5007,-0.0812L0.453,-0.0851L0.4061,-0.0874L0.3604,-0.088L0.316,-0.0869L0.2732,-0.0843L0.2322,-0.0803L0.1936,-0.0751L0.1576,-0.0689L0.1248,-0.0618L0.0953,-0.054L0.0694,-0.0457L0.0474,-0.0369L0.0294,-0.028L0.0156,-0.0191L0.0061,-0.0107L0.0008,-0.0032L0.0007,0.0025L0.0063,0.007L0.0176,0.0109L0.0341,0.0141L0.0559,0.0164L0.0827,0.0179L0.1143,0.0187L0.1504,0.0188L0.1906,0.0183L0.2345,0.0173L0.2815,0.0158L0.3312,0.014L0.383,0.0117L0.4363,0.0092L0.4907,0.0065L0.5456,0.0037L0.6003,0.0011L0.6541,-0.0011L0.7063,-0.003L0.7561,-0.0043L0.8029,-0.0052L0.846,-0.0055L0.8849,-0.0053L0.9189,-0.0047L0.9475,-0.0038L0.9703,-0.0025L0.9868,-0.0013L0.9967,-0.0003L1,-0"
    />
</svg>
