
<svg 
  class="airfoil-e393"
  fill="none"
  stroke="black" 
  stroke-width="1"
  style="overflow:visible"
  viewBox="0, -0.0956, 1, 0.1197"
  xmlns="http://www.w3.org/2000/svg">
    <title>EPPLER 393 AIRFOIL</title>
    <path 
      vector-effect="non-scaling-stroke"
      d="M1,-0L0.9967,-0.0007L0.9872,-0.0031L0.9722,-0.007L0.9522,-0.0121L0.9276,-0.0179L0.8984,-0.0243L0.8649,-0.0312L0.8277,-0.0386L0.7872,-0.0464L0.744,-0.0543L0.6986,-0.0622L0.6517,-0.0699L0.6039,-0.0772L0.5557,-0.0837L0.5077,-0.089L0.4601,-0.0928L0.4133,-0.0951L0.3675,-0.0956L0.3229,-0.0943L0.2799,-0.0915L0.2387,-0.0872L0.1997,-0.0816L0.1633,-0.075L0.1299,-0.0675L0.0999,-0.0592L0.0734,-0.0503L0.0508,-0.041L0.0321,-0.0315L0.0177,-0.022L0.0074,-0.0129L0.0014,-0.0046L0,-0L0.0003,0.0018L0.0049,0.0068L0.0155,0.0114L0.0314,0.0154L0.0525,0.0187L0.0785,0.0212L0.1093,0.0229L0.1444,0.0238L0.1836,0.0241L0.2263,0.0237L0.2721,0.0227L0.3205,0.0211L0.371,0.0186L0.4232,0.0154L0.4768,0.0116L0.5314,0.0075L0.5863,0.0035L0.6407,-0.0001L0.694,-0.0032L0.7452,-0.0056L0.7936,-0.0072L0.8385,-0.008L0.8791,-0.008L0.9149,-0.0073L0.9451,-0.0059L0.9691,-0.004L0.9863,-0.002L0.9966,-0.0005L1,-0"
    />
</svg>
