
<svg 
  class="airfoil-e395"
  fill="none"
  stroke="black" 
  stroke-width="1"
  style="overflow:visible"
  viewBox="0, -0.1091, 1, 0.1366"
  xmlns="http://www.w3.org/2000/svg">
    <title>EPPLER 395 AIRFOIL</title>
    <path 
      vector-effect="non-scaling-stroke"
      d="M1,-0L0.9967,-0.0011L0.9873,-0.0044L0.973,-0.0096L0.9539,-0.0158L0.9301,-0.0228L0.9017,-0.0305L0.8691,-0.0389L0.8329,-0.048L0.7937,-0.0573L0.752,-0.0668L0.7083,-0.076L0.6632,-0.0847L0.6171,-0.0925L0.5705,-0.099L0.5235,-0.104L0.4764,-0.1073L0.4298,-0.109L0.3837,-0.1091L0.3388,-0.1075L0.2952,-0.1043L0.2533,-0.0997L0.2136,-0.0937L0.1764,-0.0866L0.142,-0.0785L0.1108,-0.0694L0.0831,-0.0597L0.0591,-0.0495L0.0389,-0.039L0.0228,-0.0285L0.0109,-0.0183L0.0032,-0.0089L0.0018,-0.0062L0.0007,-0.0038L0.0003,-0.0022L0,-0.0008L0,-0.0001L0,0.0005L0.0001,0.0011L0.0003,0.0017L0.0006,0.0023L0.0009,0.0029L0.0018,0.0041L0.003,0.0053L0.005,0.0072L0.0115,0.0114L0.025,0.0169L0.0434,0.0213L0.0664,0.0247L0.0941,0.0267L0.1263,0.0275L0.1627,0.027L0.2033,0.0252L0.2477,0.0223L0.2955,0.0186L0.3463,0.0142L0.3996,0.0095L0.4547,0.0047L0.511,-0L0.5677,-0.0044L0.6241,-0.0081L0.6794,-0.0111L0.7327,-0.0132L0.7833,-0.0144L0.8304,-0.0145L0.8731,-0.0136L0.9108,-0.0117L0.9426,-0.0091L0.9678,-0.006L0.9858,-0.003L0.9965,-0.0008L1,-0"
    />
</svg>
