
<svg 
  class="airfoil-e396"
  fill="none"
  stroke="black" 
  stroke-width="1"
  style="overflow:visible"
  viewBox="0, -0.1153, 1, 0.1439"
  xmlns="http://www.w3.org/2000/svg">
    <title>EPPLER 396 AIRFOIL</title>
    <path 
      vector-effect="non-scaling-stroke"
      d="M1,-0L0.9966,-0.0011L0.9871,-0.0044L0.9724,-0.0096L0.9529,-0.0159L0.9286,-0.0231L0.8996,-0.0312L0.8666,-0.0402L0.8301,-0.0498L0.7906,-0.0599L0.7487,-0.07L0.7049,-0.0799L0.6599,-0.0893L0.614,-0.0976L0.5677,-0.1045L0.521,-0.1098L0.4743,-0.1134L0.428,-0.1152L0.3824,-0.1153L0.3377,-0.1137L0.2945,-0.1103L0.253,-0.1054L0.2135,-0.0991L0.1765,-0.0915L0.1423,-0.0829L0.1112,-0.0734L0.0836,-0.0632L0.0596,-0.0524L0.0394,-0.0414L0.0233,-0.0304L0.0112,-0.0197L0.0034,-0.0098L0.0016,-0.0063L0.0007,-0.0037L0.0002,-0.0022L0,-0.0007L0,0.0001L0,0.0007L0.0002,0.0014L0.0003,0.002L0.0007,0.0026L0.001,0.0032L0.0019,0.0045L0.0031,0.0058L0.0053,0.0077L0.0111,0.0115L0.0245,0.0172L0.0428,0.0219L0.0658,0.0254L0.0935,0.0277L0.1257,0.0286L0.1621,0.0283L0.2027,0.0267L0.2471,0.0239L0.295,0.0203L0.3458,0.016L0.3991,0.0113L0.4543,0.0065L0.5105,0.0018L0.5673,-0.0025L0.6237,-0.0063L0.6789,-0.0094L0.7323,-0.0117L0.7829,-0.0129L0.83,-0.0132L0.8728,-0.0125L0.9104,-0.0109L0.9423,-0.0085L0.9676,-0.0056L0.9857,-0.0028L0.9964,-0.0008L1,-0"
    />
</svg>
