
<svg 
  class="airfoil-e397"
  fill="none"
  stroke="black" 
  stroke-width="1"
  style="overflow:visible"
  viewBox="0, -0.116, 1, 0.1482"
  xmlns="http://www.w3.org/2000/svg">
    <title>EPPLER 397 AIRFOIL</title>
    <path 
      vector-effect="non-scaling-stroke"
      d="M1,-0L0.9966,-0.0011L0.987,-0.0044L0.9722,-0.0097L0.9525,-0.0161L0.9281,-0.0234L0.899,-0.0317L0.8659,-0.0408L0.8292,-0.0506L0.7897,-0.0608L0.7478,-0.0712L0.7042,-0.0812L0.6592,-0.0907L0.6135,-0.0991L0.5674,-0.1061L0.521,-0.1112L0.4746,-0.1145L0.4284,-0.116L0.3827,-0.1156L0.338,-0.1135L0.2945,-0.1098L0.2527,-0.1047L0.213,-0.0983L0.1759,-0.0906L0.1415,-0.082L0.1104,-0.0725L0.0827,-0.0622L0.0587,-0.0515L0.0386,-0.04L0.0225,-0.0295L0.0106,-0.0189L0.003,-0.009L0.0018,-0.0066L0.0007,-0.004L0.0003,-0.0024L0,-0.0009L0,-0.0001L0,0.0006L0.0001,0.0012L0.0003,0.0018L0.0006,0.0025L0.001,0.0031L0.0019,0.0044L0.003,0.0058L0.0051,0.0078L0.0121,0.0126L0.0259,0.0187L0.0445,0.0238L0.0677,0.0279L0.0955,0.0306L0.1276,0.0321L0.164,0.0322L0.2043,0.0311L0.2483,0.0287L0.2957,0.0252L0.346,0.021L0.3989,0.0162L0.4536,0.0111L0.5095,0.0061L0.5659,0.0013L0.6222,-0.0031L0.6773,-0.0067L0.7307,-0.0095L0.7814,-0.0113L0.8287,-0.012L0.8717,-0.0117L0.9096,-0.0104L0.9417,-0.0083L0.9672,-0.0055L0.9855,-0.0028L0.9964,-0.0007L1,-0"
    />
</svg>
