
<svg 
  class="airfoil-e398"
  fill="none"
  stroke="black" 
  stroke-width="1"
  style="overflow:visible"
  viewBox="0, -0.1198, 1, 0.15290001"
  xmlns="http://www.w3.org/2000/svg">
    <title>EPPLER 398 AIRFOIL</title>
    <path 
      vector-effect="non-scaling-stroke"
      d="M1,-0L0.9966,-0.001L0.9869,-0.0043L0.972,-0.0094L0.9523,-0.0158L0.9276,-0.0229L0.8982,-0.0309L0.8647,-0.0399L0.8276,-0.0495L0.7875,-0.0596L0.7449,-0.0698L0.7005,-0.08L0.6547,-0.0896L0.6081,-0.0985L0.5611,-0.1062L0.5143,-0.1125L0.4678,-0.117L0.422,-0.1194L0.3769,-0.1198L0.3328,-0.1182L0.2901,-0.1148L0.2492,-0.1097L0.2102,-0.1032L0.1737,-0.0953L0.1399,-0.0862L0.1092,-0.0762L0.0819,-0.0655L0.0582,-0.0543L0.0383,-0.0428L0.0224,-0.0313L0.0106,-0.0201L0.0031,-0.0098L0.0015,-0.0064L0.0005,-0.0037L0.0002,-0.002L0,-0.0004L0,0.0003L0.0001,0.001L0.0002,0.0017L0.0004,0.0024L0.0007,0.003L0.0011,0.0037L0.0021,0.0051L0.0033,0.0064L0.0055,0.0085L0.0118,0.0128L0.0255,0.019L0.0441,0.0243L0.0674,0.0284L0.0952,0.0313L0.1274,0.0329L0.1638,0.0331L0.2042,0.032L0.2482,0.0297L0.2956,0.0263L0.346,0.0221L0.3988,0.0173L0.4535,0.0123L0.5095,0.0072L0.5659,0.0023L0.6221,-0.0021L0.6773,-0.0058L0.7306,-0.0087L0.7814,-0.0106L0.8286,-0.0115L0.8716,-0.0113L0.9095,-0.0101L0.9417,-0.0081L0.9672,-0.0054L0.9855,-0.0027L0.9964,-0.0007L1,-0"
    />
</svg>
