
<svg 
  class="airfoil-e399"
  fill="none"
  stroke="black" 
  stroke-width="1"
  style="overflow:visible"
  viewBox="0, -0.1209, 1, 0.1586"
  xmlns="http://www.w3.org/2000/svg">
    <title>EPPLER 399 AIRFOIL</title>
    <path 
      vector-effect="non-scaling-stroke"
      d="M1,-0L0.9966,-0.0011L0.9869,-0.0044L0.9719,-0.0098L0.9522,-0.0162L0.9276,-0.0235L0.8982,-0.0316L0.8647,-0.0407L0.8276,-0.0504L0.7874,-0.0606L0.7449,-0.0709L0.7004,-0.0811L0.6546,-0.0908L0.608,-0.0997L0.561,-0.1075L0.5141,-0.1137L0.4676,-0.1182L0.4217,-0.1206L0.3765,-0.1209L0.3325,-0.1193L0.2897,-0.1158L0.2487,-0.1107L0.2097,-0.104L0.1732,-0.096L0.1394,-0.0868L0.1087,-0.0767L0.0813,-0.0659L0.0576,-0.0545L0.0378,-0.0428L0.022,-0.0312L0.0103,-0.0199L0.0029,-0.0095L0.0016,-0.0067L0.0006,-0.004L0.0002,-0.0022L0,-0.0006L0,0.0002L0,0.0009L0.0002,0.0016L0.0004,0.0023L0.0007,0.003L0.0011,0.0037L0.002,0.0052L0.0032,0.0066L0.0054,0.0088L0.0125,0.014L0.0265,0.0207L0.0452,0.0265L0.0685,0.0312L0.0963,0.0347L0.1284,0.0369L0.1646,0.0377L0.2045,0.0372L0.248,0.0353L0.2947,0.0321L0.3444,0.0279L0.3966,0.0228L0.4508,0.0174L0.5063,0.0118L0.5624,0.0063L0.6185,0.0012L0.6737,-0.0033L0.7273,-0.0069L0.7784,-0.0095L0.8261,-0.0109L0.8696,-0.0111L0.9081,-0.0102L0.9407,-0.0083L0.9668,-0.0056L0.9854,-0.0028L0.9964,-0.0008L1,-0"
    />
</svg>
