
<svg 
  class="airfoil-e403"
  fill="none"
  stroke="black" 
  stroke-width="1"
  style="overflow:visible"
  viewBox="0.0005, -0.0946, 0.9995, 0.1508"
  xmlns="http://www.w3.org/2000/svg">
    <title>EPPLER 403 AIRFOIL</title>
    <path 
      vector-effect="non-scaling-stroke"
      d="M1,-0L0.9965,-0.001L0.9866,-0.0043L0.9711,-0.0097L0.951,-0.017L0.9267,-0.0254L0.8984,-0.0346L0.8669,-0.0444L0.8325,-0.0539L0.7953,-0.0627L0.7554,-0.0706L0.713,-0.0773L0.6684,-0.083L0.622,-0.0875L0.5741,-0.0909L0.5253,-0.0932L0.4762,-0.0944L0.4272,-0.0946L0.3789,-0.0936L0.3318,-0.0916L0.2864,-0.0884L0.2431,-0.0842L0.2024,-0.0788L0.1646,-0.0725L0.1302,-0.0652L0.0992,-0.0571L0.0721,-0.0484L0.0491,-0.0392L0.0302,-0.0297L0.0157,-0.0203L0.0058,-0.0112L0.0005,-0.0029L0.001,0.0038L0.008,0.0101L0.0205,0.0166L0.0381,0.023L0.0606,0.0291L0.0876,0.0349L0.1188,0.0402L0.1538,0.045L0.1922,0.0491L0.2336,0.0524L0.2773,0.0548L0.3229,0.0561L0.3698,0.0562L0.4177,0.0548L0.4662,0.0515L0.5151,0.0462L0.5646,0.039L0.6148,0.03L0.6657,0.0201L0.7171,0.0105L0.7677,0.0023L0.8163,-0.004L0.8617,-0.008L0.9025,-0.0097L0.9376,-0.0091L0.9655,-0.0065L0.9851,-0.0033L0.9964,-0.0009L1,-0"
    />
</svg>
