
<svg 
  class="airfoil-e407"
  fill="none"
  stroke="black" 
  stroke-width="1"
  style="overflow:visible"
  viewBox="0, -0.0957, 1, 0.14590001"
  xmlns="http://www.w3.org/2000/svg">
    <title>EPPLER 407 AIRFOIL</title>
    <path 
      vector-effect="non-scaling-stroke"
      d="M1,-0L0.9966,-0.0011L0.9868,-0.0046L0.9718,-0.0103L0.9523,-0.0177L0.9287,-0.0259L0.901,-0.0347L0.8696,-0.0439L0.8351,-0.0532L0.7977,-0.062L0.7577,-0.0701L0.7154,-0.0772L0.6709,-0.0833L0.6248,-0.0881L0.5773,-0.0918L0.5289,-0.0943L0.48,-0.0956L0.4313,-0.0957L0.3832,-0.0948L0.3362,-0.0926L0.2907,-0.0893L0.2474,-0.085L0.2064,-0.0796L0.1683,-0.0732L0.1335,-0.066L0.1022,-0.058L0.0746,-0.0494L0.0512,-0.0403L0.0319,-0.031L0.0171,-0.0216L0.0067,-0.0126L0.0019,-0.0061L0.0008,-0.0038L0.0003,-0.0023L0.0001,-0.0009L0,-0.0003L0,0.0004L0.0001,0.001L0.0003,0.0015L0.0006,0.0021L0.0009,0.0027L0.0018,0.0039L0.003,0.0052L0.0051,0.007L0.0071,0.0085L0.0189,0.0149L0.0358,0.0212L0.0575,0.0271L0.0838,0.0325L0.1145,0.0373L0.149,0.0414L0.1872,0.0448L0.2285,0.0475L0.2724,0.0493L0.3194,0.0502L0.3659,0.0501L0.4143,0.0486L0.4633,0.0454L0.5129,0.0403L0.5631,0.0334L0.6138,0.025L0.6652,0.0158L0.7168,0.007L0.7676,-0.0005L0.8163,-0.0062L0.8617,-0.0097L0.9025,-0.0109L0.9376,-0.0099L0.9656,-0.007L0.9851,-0.0035L0.9964,-0.0009L1,-0"
    />
</svg>
