
<svg 
  class="airfoil-e417"
  fill="none"
  stroke="black" 
  stroke-width="1"
  style="overflow:visible"
  viewBox="0.0004, -0.088, 0.9996, 0.1433"
  xmlns="http://www.w3.org/2000/svg">
    <title>EPPLER 417 AIRFOIL</title>
    <path 
      vector-effect="non-scaling-stroke"
      d="M1,-0L0.9966,-0.0013L0.987,-0.0052L0.9726,-0.0113L0.9539,-0.0185L0.9309,-0.0265L0.9039,-0.0351L0.8734,-0.0437L0.8395,-0.052L0.8025,-0.0597L0.7626,-0.0665L0.72,-0.0725L0.675,-0.0775L0.6282,-0.0815L0.58,-0.0847L0.5308,-0.0868L0.4814,-0.0879L0.432,-0.088L0.3833,-0.087L0.3358,-0.085L0.29,-0.082L0.2462,-0.0778L0.2049,-0.0728L0.1666,-0.0669L0.1316,-0.0601L0.1002,-0.0526L0.0727,-0.0445L0.0494,-0.036L0.0303,-0.0273L0.0157,-0.0185L0.0057,-0.0101L0.0004,-0.0025L0.0012,0.0038L0.0083,0.0098L0.0209,0.016L0.0386,0.0223L0.061,0.0283L0.088,0.034L0.1192,0.0392L0.1541,0.0439L0.1925,0.048L0.2337,0.0513L0.2773,0.0537L0.3228,0.0551L0.3697,0.0553L0.4175,0.0539L0.4658,0.0507L0.5147,0.0455L0.5641,0.0384L0.6142,0.0296L0.665,0.0198L0.7163,0.0103L0.7668,0.0022L0.8154,-0.0041L0.8608,-0.0081L0.9017,-0.0097L0.9368,-0.0091L0.9649,-0.0066L0.9847,-0.0034L0.9963,-0.0009L1,-0"
    />
</svg>
