
<svg 
  class="airfoil-e420"
  fill="none"
  stroke="black" 
  stroke-width="1"
  style="overflow:visible"
  viewBox="0, -0.1736, 1, 0.1896"
  xmlns="http://www.w3.org/2000/svg">
    <title>EPPLER 420 AIRFOIL</title>
    <path 
      vector-effect="non-scaling-stroke"
      d="M1,-0L0.9965,-0.0016L0.9869,-0.0067L0.9728,-0.0148L0.9549,-0.0246L0.933,-0.0348L0.9064,-0.0454L0.8754,-0.0566L0.8404,-0.0684L0.8019,-0.0808L0.7607,-0.0935L0.7171,-0.1063L0.6719,-0.1189L0.6257,-0.1311L0.579,-0.1424L0.5323,-0.1525L0.4862,-0.1611L0.4411,-0.1678L0.3975,-0.1721L0.3555,-0.1736L0.3148,-0.1721L0.2755,-0.1679L0.2377,-0.1613L0.2017,-0.1525L0.1678,-0.142L0.1364,-0.13L0.1078,-0.1167L0.0821,-0.1024L0.0597,-0.0874L0.0407,-0.072L0.0253,-0.0564L0.0135,-0.0412L0.0053,-0.0265L0.0009,-0.0131L0,-0.0013L0.0003,0.0011L0.001,0.004L0.0016,0.0057L0.0024,0.0073L0.0029,0.008L0.0033,0.0087L0.0039,0.0093L0.0045,0.0098L0.0052,0.0103L0.006,0.0108L0.0079,0.0117L0.0099,0.0125L0.0135,0.0135L0.0252,0.0154L0.045,0.016L0.0702,0.0141L0.101,0.0098L0.1373,0.0032L0.1794,-0.0057L0.2277,-0.0159L0.282,-0.0264L0.3415,-0.0357L0.4047,-0.0427L0.4696,-0.047L0.5347,-0.049L0.5989,-0.0489L0.6612,-0.0467L0.7202,-0.0428L0.7751,-0.0377L0.8252,-0.0319L0.8698,-0.0257L0.9085,-0.0195L0.9408,-0.0136L0.9664,-0.0084L0.985,-0.0041L0.9962,-0.0011L1,-0"
    />
</svg>
