
<svg 
  class="airfoil-e421"
  fill="none"
  stroke="black" 
  stroke-width="1"
  style="overflow:visible"
  viewBox="0.0003, -0.1557, 0.9997, 0.1766"
  xmlns="http://www.w3.org/2000/svg">
    <title>EPPLER 421 AIRFOIL</title>
    <path 
      vector-effect="non-scaling-stroke"
      d="M1,-0L0.9964,-0.0013L0.9863,-0.0053L0.9711,-0.0119L0.9517,-0.0202L0.928,-0.029L0.8997,-0.0382L0.8667,-0.0481L0.8298,-0.0587L0.7895,-0.0698L0.7465,-0.0814L0.7013,-0.0932L0.6546,-0.1049L0.607,-0.1162L0.5592,-0.1268L0.5116,-0.1362L0.4648,-0.1443L0.4193,-0.1505L0.3755,-0.1544L0.3335,-0.1557L0.2931,-0.154L0.2544,-0.1498L0.2175,-0.1432L0.1825,-0.1345L0.1499,-0.1242L0.1199,-0.1124L0.0928,-0.0995L0.0689,-0.0857L0.0484,-0.0713L0.0314,-0.0567L0.018,-0.042L0.0083,-0.0278L0.0024,-0.0144L0.0003,-0.0025L0.0003,0.0003L0.0007,0.0033L0.0011,0.0052L0.0017,0.0069L0.002,0.0077L0.0025,0.0084L0.0029,0.0091L0.0035,0.0097L0.0041,0.0103L0.0048,0.0109L0.0065,0.012L0.0084,0.013L0.0117,0.0145L0.0218,0.0176L0.0402,0.0202L0.0637,0.0209L0.0923,0.0194L0.1261,0.0157L0.1652,0.0099L0.21,0.0026L0.2603,-0.0054L0.3152,-0.0131L0.374,-0.0198L0.4354,-0.0248L0.4977,-0.0277L0.5597,-0.0291L0.6204,-0.0291L0.6791,-0.0279L0.7349,-0.0255L0.7867,-0.0222L0.8339,-0.0183L0.8758,-0.0144L0.9121,-0.0107L0.9425,-0.0074L0.967,-0.0047L0.985,-0.0025L0.9962,-0.0007L1,-0"
    />
</svg>
