
<svg 
  class="airfoil-e422"
  fill="none"
  stroke="black" 
  stroke-width="1"
  style="overflow:visible"
  viewBox="0, -0.1388, 1, 0.1598"
  xmlns="http://www.w3.org/2000/svg">
    <title>EPPLER 422 AIRFOIL</title>
    <path 
      vector-effect="non-scaling-stroke"
      d="M1,-0L0.9963,-0.0009L0.9859,-0.0038L0.9698,-0.0088L0.9491,-0.0154L0.9236,-0.0226L0.8934,-0.0303L0.8586,-0.0388L0.8198,-0.048L0.7776,-0.058L0.7328,-0.0685L0.6859,-0.0794L0.6377,-0.0903L0.5889,-0.1009L0.5399,-0.1109L0.4915,-0.1199L0.4441,-0.1276L0.3982,-0.1336L0.3543,-0.1375L0.3124,-0.1388L0.2724,-0.1374L0.2344,-0.1334L0.1983,-0.127L0.1645,-0.1188L0.1332,-0.1089L0.1046,-0.0977L0.0792,-0.0854L0.057,-0.0724L0.0383,-0.0588L0.0233,-0.0451L0.0119,-0.0315L0.0044,-0.0186L0.0005,-0.0067L0,-0.0008L0.0002,0.0021L0.0006,0.0038L0.0011,0.0055L0.0014,0.0062L0.0018,0.0069L0.0022,0.0075L0.0027,0.0081L0.0033,0.0087L0.004,0.0092L0.0056,0.0103L0.0075,0.0113L0.0108,0.0127L0.0166,0.0146L0.0336,0.0182L0.0556,0.0205L0.0825,0.021L0.1143,0.0197L0.1512,0.0164L0.1934,0.0115L0.2406,0.0059L0.2923,0.0001L0.3477,-0.0053L0.406,-0.0099L0.4659,-0.013L0.5263,-0.0147L0.5859,-0.0152L0.644,-0.0147L0.6996,-0.0134L0.752,-0.0113L0.8004,-0.0089L0.8443,-0.0066L0.8832,-0.0044L0.9169,-0.0027L0.9451,-0.0017L0.968,-0.0012L0.9853,-0.0009L0.9962,-0.0003L1,-0"
    />
</svg>
