
<svg 
  class="airfoil-e423"
  fill="none"
  stroke="black" 
  stroke-width="1"
  style="overflow:visible"
  viewBox="0, -0.1583, 1, 0.1731"
  xmlns="http://www.w3.org/2000/svg">
    <title>E423</title>
    <path 
      vector-effect="non-scaling-stroke"
      d="M1,-0L0.9966,-0.0016L0.9871,-0.0065L0.973,-0.0143L0.9553,-0.0238L0.9336,-0.0338L0.9073,-0.044L0.8767,-0.0548L0.8422,-0.0662L0.8044,-0.078L0.7637,-0.0901L0.7209,-0.1022L0.6764,-0.1139L0.6309,-0.1251L0.5849,-0.1352L0.5389,-0.1441L0.4935,-0.1512L0.4487,-0.1559L0.4046,-0.1583L0.3615,-0.1582L0.3195,-0.1559L0.2788,-0.1514L0.2399,-0.1449L0.2029,-0.1366L0.1682,-0.1268L0.1361,-0.1156L0.107,-0.1034L0.0811,-0.0902L0.0585,-0.0765L0.0395,-0.0623L0.0242,-0.0481L0.0126,-0.0342L0.0048,-0.0209L0.0007,-0.0088L0,-0.0009L0.0003,0.0019L0.0007,0.0036L0.0012,0.0052L0.0016,0.0059L0.0019,0.0066L0.0024,0.0072L0.0029,0.0077L0.0035,0.0082L0.0041,0.0087L0.0057,0.0097L0.0075,0.0106L0.0106,0.0118L0.0137,0.0127L0.0289,0.0148L0.0495,0.0148L0.0753,0.0124L0.1067,0.0074L0.1438,0L0.1873,-0.0092L0.2369,-0.0191L0.292,-0.0287L0.3516,-0.0369L0.4145,-0.0428L0.4787,-0.0463L0.5428,-0.0476L0.6058,-0.0472L0.6669,-0.045L0.725,-0.0413L0.7791,-0.0362L0.8284,-0.0305L0.8722,-0.0244L0.9101,-0.0184L0.9418,-0.0129L0.9669,-0.0079L0.9852,-0.0039L0.9963,-0.0011L1,-0"
    />
</svg>
