
<svg 
  class="airfoil-e426"
  fill="none"
  stroke="black" 
  stroke-width="1"
  style="overflow:visible"
  viewBox="0.0003, -0.0606, 0.9997, 0.108600006"
  xmlns="http://www.w3.org/2000/svg">
    <title>EPPLER 426 AIRFOIL</title>
    <path 
      vector-effect="non-scaling-stroke"
      d="M1,-0L0.987,-0.0013L0.952,-0.0053L0.892,-0.0107L0.816,-0.0181L0.725,-0.0272L0.625,-0.0373L0.521,-0.047L0.418,-0.0549L0.319,-0.0597L0.229,-0.0606L0.151,-0.0585L0.117,-0.0556L0.089,-0.0511L0.064,-0.0452L0.043,-0.0379L0.026,-0.0295L0.0134,-0.0206L0.005,-0.0114L0.0003,-0.0028L0.001,0.0054L0.007,0.0137L0.018,0.022L0.033,0.0297L0.051,0.0364L0.075,0.0416L0.102,0.0453L0.134,0.0473L0.173,0.048L0.255,0.0475L0.302,0.0463L0.401,0.0415L0.506,0.034L0.613,0.0253L0.715,0.0167L0.809,0.0096L0.888,0.0047L0.947,0.0018L0.987,0.0002L1,-0"
    />
</svg>
