
<svg 
  class="airfoil-e428"
  fill="none"
  stroke="black" 
  stroke-width="1"
  style="overflow:visible"
  viewBox="0.0002, -0.0598, 0.9998, 0.11229999"
  xmlns="http://www.w3.org/2000/svg">
    <title>EPPLER 428 AIRFOIL</title>
    <path 
      vector-effect="non-scaling-stroke"
      d="M1,-0L0.9872,-0.0012L0.95,-0.0049L0.892,-0.0104L0.815,-0.0176L0.724,-0.0266L0.624,-0.0366L0.52,-0.0463L0.417,-0.0541L0.318,-0.0589L0.227,-0.0598L0.149,-0.0577L0.116,-0.0549L0.087,-0.0505L0.0626,-0.0445L0.042,-0.0372L0.025,-0.0289L0.013,-0.02L0.004,-0.0109L0.0002,-0.0023L0.001,0.0059L0.008,0.0143L0.019,0.0227L0.034,0.0307L0.054,0.0377L0.077,0.0436L0.105,0.0481L0.136,0.0511L0.172,0.0525L0.254,0.051L0.301,0.049L0.401,0.0433L0.506,0.0354L0.613,0.0263L0.715,0.0175L0.809,0.0102L0.888,0.005L0.949,0.002L0.987,0.0006L1,-0"
    />
</svg>
