
<svg 
  class="airfoil-e431"
  fill="none"
  stroke="black" 
  stroke-width="1"
  style="overflow:visible"
  viewBox="0, -0.1179, 1, 0.1515"
  xmlns="http://www.w3.org/2000/svg">
    <title>EPPLER 431 AIRFOIL</title>
    <path 
      vector-effect="non-scaling-stroke"
      d="M1,-0L0.9964,-0.0011L0.9864,-0.0044L0.9709,-0.0097L0.9505,-0.0163L0.9252,-0.0238L0.8953,-0.0322L0.8613,-0.0416L0.8238,-0.0516L0.7835,-0.062L0.7408,-0.0726L0.6965,-0.083L0.6511,-0.0928L0.6051,-0.1012L0.5587,-0.1081L0.5119,-0.1132L0.4651,-0.1165L0.4187,-0.1179L0.3728,-0.1176L0.3281,-0.1156L0.2848,-0.1121L0.2433,-0.1071L0.2042,-0.1007L0.1677,-0.0931L0.1342,-0.0843L0.1039,-0.0746L0.0772,-0.0641L0.0542,-0.053L0.0351,-0.0416L0.02,-0.0303L0.0091,-0.0192L0.0024,-0.009L0.0006,-0.0044L0.0001,-0.0018L0,-0.0002L0.0001,0.0013L0.0002,0.0019L0.0003,0.0026L0.0006,0.0032L0.0009,0.0037L0.0013,0.0043L0.0019,0.0048L0.0031,0.0059L0.0047,0.0069L0.0074,0.0085L0.0132,0.0111L0.0289,0.0158L0.0501,0.0199L0.0765,0.0233L0.1079,0.0262L0.1438,0.0285L0.1838,0.0304L0.2274,0.0319L0.274,0.0329L0.323,0.0334L0.3738,0.0336L0.4258,0.0332L0.4783,0.0323L0.5307,0.0308L0.5823,0.0282L0.6328,0.0244L0.6825,0.0192L0.7311,0.0133L0.7785,0.0072L0.824,0.0019L0.8665,-0.0021L0.905,-0.0044L0.9382,-0.005L0.9651,-0.0041L0.9846,-0.0023L0.9962,-0.0007L1,-0"
    />
</svg>
