
<svg 
  class="airfoil-e432"
  fill="none"
  stroke="black" 
  stroke-width="1"
  style="overflow:visible"
  viewBox="0, -0.1243, 1, 0.15980001"
  xmlns="http://www.w3.org/2000/svg">
    <title>EPPLER 432 AIRFOIL</title>
    <path 
      vector-effect="non-scaling-stroke"
      d="M1,-0L0.9964,-0.001L0.9863,-0.0042L0.9707,-0.0093L0.9501,-0.0156L0.9245,-0.0228L0.8941,-0.0309L0.8595,-0.0398L0.8212,-0.0495L0.7799,-0.0597L0.736,-0.0701L0.6903,-0.0807L0.6434,-0.0909L0.5959,-0.1006L0.5484,-0.1092L0.5015,-0.116L0.455,-0.1209L0.4093,-0.1237L0.3645,-0.1243L0.321,-0.1229L0.2788,-0.1195L0.2385,-0.1143L0.2003,-0.1076L0.1646,-0.0995L0.1319,-0.0901L0.1022,-0.0798L0.076,-0.0685L0.0534,-0.0567L0.0346,-0.0446L0.0198,-0.0325L0.009,-0.0207L0.0024,-0.0098L0.0004,-0.004L0,-0.0012L0,0.0004L0.0002,0.002L0.0003,0.0027L0.0005,0.0034L0.0008,0.004L0.0011,0.0046L0.0016,0.0052L0.0022,0.0058L0.0035,0.0069L0.0051,0.008L0.008,0.0097L0.0127,0.0119L0.0284,0.0168L0.0496,0.0212L0.076,0.0248L0.1074,0.0278L0.1433,0.0303L0.1834,0.0323L0.227,0.0338L0.2736,0.0348L0.3226,0.0354L0.3735,0.0355L0.4255,0.0351L0.4781,0.0341L0.5305,0.0325L0.5821,0.0299L0.6327,0.0259L0.6824,0.0206L0.731,0.0145L0.7784,0.0083L0.8239,0.0028L0.8665,-0.0014L0.9049,-0.0039L0.9382,-0.0047L0.9651,-0.0039L0.9846,-0.0022L0.9962,-0.0006L1,-0"
    />
</svg>
