
<svg 
  class="airfoil-e433"
  fill="none"
  stroke="black" 
  stroke-width="1"
  style="overflow:visible"
  viewBox="0, -0.1109, 1, 0.1425"
  xmlns="http://www.w3.org/2000/svg">
    <title>EPPLER 433 AIRFOIL</title>
    <path 
      vector-effect="non-scaling-stroke"
      d="M1,-0L0.9965,-0.0011L0.9865,-0.0045L0.9712,-0.01L0.9512,-0.0168L0.9263,-0.0245L0.897,-0.0331L0.8638,-0.0426L0.8272,-0.0526L0.7879,-0.0629L0.7465,-0.073L0.7034,-0.0825L0.6588,-0.0908L0.613,-0.0978L0.5663,-0.1034L0.5191,-0.1075L0.4716,-0.1099L0.4243,-0.1109L0.3776,-0.1103L0.332,-0.1084L0.2879,-0.105L0.2458,-0.1003L0.2061,-0.0944L0.1691,-0.0873L0.1351,-0.0791L0.1045,-0.07L0.0775,-0.0602L0.0543,-0.0498L0.0351,-0.0391L0.0199,-0.0283L0.009,-0.018L0.0023,-0.0083L0.0008,-0.0046L0.0002,-0.0021L0,-0.0006L0,0.0008L0.0001,0.0014L0.0003,0.0021L0.0005,0.0026L0.0008,0.0031L0.0012,0.0037L0.0017,0.0042L0.0029,0.0052L0.0044,0.0062L0.007,0.0077L0.0136,0.0105L0.0294,0.015L0.0506,0.0188L0.077,0.0221L0.1084,0.0247L0.1443,0.0269L0.1843,0.0287L0.2279,0.03L0.2744,0.031L0.3234,0.0315L0.3742,0.0316L0.4261,0.0313L0.4786,0.0304L0.531,0.0289L0.5825,0.0265L0.633,0.0227L0.6827,0.0177L0.7313,0.012L0.7787,0.006L0.8242,0.0009L0.8667,-0.0029L0.9051,-0.0051L0.9384,-0.0055L0.9652,-0.0044L0.9846,-0.0024L0.9962,-0.0007L1,-0"
    />
</svg>
