
<svg 
  class="airfoil-e434"
  fill="none"
  stroke="black" 
  stroke-width="1"
  style="overflow:visible"
  viewBox="0, -0.1099, 1, 0.1337"
  xmlns="http://www.w3.org/2000/svg">
    <title>EPPLER 434 AIRFOIL</title>
    <path 
      vector-effect="non-scaling-stroke"
      d="M1,-0L0.9964,-0.0008L0.9862,-0.0034L0.9703,-0.0077L0.9493,-0.0133L0.9231,-0.02L0.8924,-0.0276L0.8575,-0.0362L0.8192,-0.0456L0.7781,-0.0555L0.7347,-0.0657L0.6897,-0.0758L0.6439,-0.0852L0.5975,-0.0935L0.5508,-0.1002L0.5038,-0.1052L0.457,-0.1084L0.4106,-0.1099L0.3649,-0.1096L0.3203,-0.1078L0.2773,-0.1044L0.2362,-0.0997L0.1975,-0.0936L0.1615,-0.0863L0.1286,-0.078L0.099,-0.0687L0.0729,-0.0588L0.0506,-0.0483L0.0322,-0.0376L0.0179,-0.0269L0.0077,-0.0166L0.0017,-0.0072L0.0006,-0.0041L0.0001,-0.0017L0,-0.0002L0.0001,0.0012L0.0002,0.0018L0.0003,0.0024L0.0006,0.0029L0.0009,0.0034L0.0013,0.0038L0.0018,0.0043L0.003,0.0052L0.0046,0.0061L0.0073,0.0075L0.0148,0.0102L0.0313,0.0139L0.0533,0.0169L0.0805,0.0192L0.1128,0.021L0.1497,0.0222L0.1908,0.0231L0.2355,0.0236L0.2833,0.0238L0.3336,0.0238L0.3857,0.0236L0.4391,0.0232L0.493,0.0225L0.5467,0.0216L0.5997,0.0204L0.6511,0.0188L0.7005,0.0166L0.7478,0.0133L0.793,0.0095L0.8356,0.0056L0.8751,0.0021L0.9107,-0.0004L0.9416,-0.0017L0.9667,-0.0019L0.9851,-0.0012L0.9962,-0.0004L1,-0"
    />
</svg>
