
<svg 
  class="airfoil-e435"
  fill="none"
  stroke="black" 
  stroke-width="1"
  style="overflow:visible"
  viewBox="0, -0.1234, 1, 0.1632"
  xmlns="http://www.w3.org/2000/svg">
    <title>EPPLER 435 AIRFOIL</title>
    <path 
      vector-effect="non-scaling-stroke"
      d="M1,-0L0.9965,-0.0012L0.9867,-0.0049L0.9716,-0.0108L0.9518,-0.0179L0.9272,-0.0259L0.8979,-0.0349L0.8647,-0.0447L0.8279,-0.0551L0.7882,-0.0659L0.7462,-0.0769L0.7024,-0.0875L0.6576,-0.0975L0.6119,-0.1062L0.5657,-0.1132L0.5191,-0.1184L0.4724,-0.1218L0.426,-0.1234L0.3801,-0.1231L0.3352,-0.1211L0.2917,-0.1176L0.25,-0.1125L0.2105,-0.1059L0.1735,-0.0981L0.1395,-0.0891L0.1087,-0.0791L0.0814,-0.0683L0.0577,-0.0569L0.0379,-0.0452L0.0222,-0.0333L0.0105,-0.0218L0.0031,-0.011L0.0007,-0.0047L0.0001,-0.002L0,-0.0003L0.0001,0.0012L0.0002,0.0019L0.0003,0.0026L0.0005,0.0033L0.0009,0.0039L0.0013,0.0045L0.0018,0.0051L0.0031,0.0063L0.0046,0.0074L0.0073,0.0092L0.0114,0.0114L0.0262,0.0169L0.0465,0.0219L0.0718,0.0263L0.102,0.03L0.1365,0.0332L0.1751,0.0358L0.2171,0.0378L0.2621,0.0392L0.3094,0.0398L0.3584,0.0397L0.4085,0.0386L0.4592,0.0363L0.5101,0.0321L0.5617,0.0263L0.6137,0.0192L0.6662,0.0116L0.7184,0.0044L0.7693,-0.0016L0.8178,-0.0061L0.8627,-0.0087L0.9029,-0.0094L0.9374,-0.0084L0.9649,-0.006L0.9846,-0.0031L0.9962,-0.0009L1,-0"
    />
</svg>
