
<svg 
  class="airfoil-e471"
  fill="none"
  stroke="black" 
  stroke-width="1"
  style="overflow:visible"
  viewBox="0, -0.0755, 1, 0.083299994"
  xmlns="http://www.w3.org/2000/svg">
    <title>E471 (6.25%)</title>
    <path 
      vector-effect="non-scaling-stroke"
      d="M1,-0L0.997,-0.0009L0.9883,-0.0034L0.9746,-0.0076L0.9565,-0.0129L0.9341,-0.0188L0.9074,-0.0249L0.8766,-0.0314L0.8422,-0.038L0.8045,-0.0446L0.7641,-0.0511L0.7214,-0.0571L0.6768,-0.0625L0.6306,-0.0671L0.5833,-0.0708L0.5353,-0.0734L0.4868,-0.0749L0.4384,-0.0755L0.3905,-0.0751L0.3437,-0.0737L0.2983,-0.0714L0.2549,-0.0683L0.2139,-0.0642L0.1757,-0.0595L0.1405,-0.054L0.1089,-0.0479L0.0809,-0.0412L0.0569,-0.0342L0.0371,-0.0269L0.0214,-0.0195L0.01,-0.0124L0.0029,-0.0057L0,-0.0002L0.0024,0.0034L0.0107,0.0058L0.0244,0.0073L0.0434,0.0078L0.0678,0.0072L0.0973,0.0057L0.1317,0.0035L0.1708,0.0006L0.2142,-0.0027L0.2613,-0.0062L0.3117,-0.0098L0.3647,-0.0132L0.4197,-0.0163L0.476,-0.0189L0.5328,-0.0211L0.5894,-0.0225L0.6451,-0.0233L0.699,-0.0233L0.7505,-0.0226L0.7989,-0.0211L0.8434,-0.019L0.8835,-0.0163L0.9184,-0.0132L0.9478,-0.0098L0.971,-0.0061L0.9873,-0.0029L0.9969,-0.0007L1,-0"
    />
</svg>
