
<svg 
  class="airfoil-e472"
  fill="none"
  stroke="black" 
  stroke-width="1"
  style="overflow:visible"
  viewBox="0, -0.0605, 1, 0.121"
  xmlns="http://www.w3.org/2000/svg">
    <title>EPPLER 472 AIRFOIL</title>
    <path 
      vector-effect="non-scaling-stroke"
      d="M1,-0L0.9962,-0.0004L0.9857,-0.002L0.9695,-0.0046L0.9483,-0.0076L0.922,-0.0106L0.8905,-0.0136L0.8543,-0.0169L0.814,-0.0204L0.7699,-0.0241L0.7227,-0.0279L0.6729,-0.0319L0.6212,-0.0359L0.5681,-0.0399L0.5145,-0.0438L0.4608,-0.0475L0.4078,-0.051L0.3561,-0.0542L0.3063,-0.0568L0.2591,-0.0588L0.215,-0.0601L0.1746,-0.0605L0.1385,-0.0596L0.1068,-0.0569L0.0794,-0.0524L0.056,-0.046L0.0367,-0.0381L0.0213,-0.029L0.0099,-0.0192L0.0026,-0.0093L0,-0L0.0026,0.0093L0.0099,0.0192L0.0213,0.029L0.0367,0.0381L0.056,0.046L0.0794,0.0524L0.1068,0.0569L0.1385,0.0596L0.1746,0.0605L0.215,0.0601L0.2591,0.0588L0.3063,0.0568L0.3561,0.0542L0.4078,0.051L0.4608,0.0475L0.5145,0.0438L0.5681,0.0399L0.6212,0.0359L0.6729,0.0319L0.7227,0.0279L0.7699,0.0241L0.814,0.0204L0.8543,0.0169L0.8905,0.0136L0.922,0.0106L0.9483,0.0076L0.9695,0.0046L0.9857,0.002L0.9962,0.0004L1,-0"
    />
</svg>
