
<svg 
  class="airfoil-e473"
  fill="none"
  stroke="black" 
  stroke-width="1"
  style="overflow:visible"
  viewBox="0, -0.0809, 1, 0.1618"
  xmlns="http://www.w3.org/2000/svg">
    <title>EPPLER 473 AIRFOIL</title>
    <path 
      vector-effect="non-scaling-stroke"
      d="M1,-0L0.996,-0.0005L0.9849,-0.0022L0.968,-0.0053L0.9459,-0.0088L0.9185,-0.0124L0.8858,-0.0164L0.8484,-0.0207L0.8069,-0.0255L0.7617,-0.0306L0.7134,-0.036L0.6628,-0.0417L0.6105,-0.0474L0.5572,-0.0532L0.5035,-0.0589L0.4502,-0.0644L0.3979,-0.0694L0.3473,-0.0738L0.2991,-0.0774L0.2539,-0.0799L0.2124,-0.0809L0.1747,-0.0798L0.1405,-0.0763L0.1098,-0.0706L0.0825,-0.0631L0.0588,-0.0541L0.0389,-0.0439L0.0227,-0.0329L0.0107,-0.0216L0.0028,-0.0103L0,-0L0.0028,0.0103L0.0107,0.0216L0.0227,0.0329L0.0389,0.0439L0.0588,0.0541L0.0825,0.0631L0.1098,0.0706L0.1405,0.0763L0.1747,0.0798L0.2124,0.0809L0.2539,0.0799L0.2991,0.0774L0.3473,0.0738L0.3979,0.0694L0.4502,0.0644L0.5035,0.0589L0.5572,0.0532L0.6105,0.0474L0.6628,0.0417L0.7134,0.036L0.7617,0.0306L0.8069,0.0255L0.8484,0.0207L0.8858,0.0164L0.9185,0.0124L0.9459,0.0088L0.968,0.0053L0.9849,0.0022L0.996,0.0005L1,-0"
    />
</svg>
