
<svg 
  class="airfoil-e474"
  fill="none"
  stroke="black" 
  stroke-width="1"
  style="overflow:visible"
  viewBox="0, -0.0704, 1, 0.1408"
  xmlns="http://www.w3.org/2000/svg">
    <title>E474 (14.09%)</title>
    <path 
      vector-effect="non-scaling-stroke"
      d="M1,-0L0.9962,-0.0003L0.9854,-0.0014L0.9683,-0.0037L0.9456,-0.007L0.9178,-0.0111L0.8854,-0.0157L0.8491,-0.0205L0.8087,-0.0252L0.7647,-0.0299L0.7176,-0.0347L0.668,-0.0395L0.6165,-0.0443L0.5637,-0.049L0.5104,-0.0535L0.4572,-0.0577L0.4047,-0.0615L0.3537,-0.0649L0.3046,-0.0676L0.2583,-0.0695L0.2152,-0.0704L0.1759,-0.07L0.1407,-0.0678L0.1094,-0.0635L0.0819,-0.0574L0.0583,-0.0496L0.0384,-0.0405L0.0225,-0.0305L0.0105,-0.02L0.0028,-0.0095L0,-0L0.0028,0.0095L0.0105,0.02L0.0225,0.0305L0.0384,0.0405L0.0583,0.0496L0.0819,0.0574L0.1094,0.0635L0.1407,0.0678L0.1759,0.07L0.2152,0.0704L0.2583,0.0695L0.3046,0.0676L0.3537,0.0649L0.4047,0.0615L0.4572,0.0577L0.5104,0.0535L0.5637,0.049L0.6165,0.0443L0.668,0.0395L0.7176,0.0347L0.7647,0.0299L0.8087,0.0252L0.8491,0.0205L0.8854,0.0157L0.9178,0.0111L0.9456,0.007L0.9683,0.0037L0.9854,0.0014L0.9962,0.0003L1,-0"
    />
</svg>
