
<svg 
  class="airfoil-e475"
  fill="none"
  stroke="black" 
  stroke-width="1"
  style="overflow:visible"
  viewBox="0, -0.075, 1, 0.15"
  xmlns="http://www.w3.org/2000/svg">
    <title>E475 (15.01%)</title>
    <path 
      vector-effect="non-scaling-stroke"
      d="M1,-0L0.9961,-0.0003L0.9848,-0.0017L0.9671,-0.0045L0.9438,-0.0085L0.9156,-0.0137L0.8833,-0.0196L0.8472,-0.0254L0.8073,-0.0308L0.7638,-0.036L0.717,-0.0412L0.6678,-0.0462L0.6167,-0.0512L0.5643,-0.0559L0.5112,-0.0603L0.4583,-0.0643L0.406,-0.0679L0.355,-0.0709L0.3061,-0.0732L0.2597,-0.0746L0.2166,-0.075L0.1772,-0.0741L0.1418,-0.0713L0.1103,-0.0665L0.0827,-0.0599L0.0588,-0.0516L0.0388,-0.0421L0.0227,-0.0317L0.0106,-0.0208L0.0028,-0.0099L0,-0L0.0028,0.0099L0.0106,0.0208L0.0227,0.0317L0.0388,0.0421L0.0588,0.0516L0.0827,0.0599L0.1103,0.0665L0.1418,0.0713L0.1772,0.0741L0.2166,0.075L0.2597,0.0746L0.3061,0.0732L0.355,0.0709L0.406,0.0679L0.4583,0.0643L0.5112,0.0603L0.5643,0.0559L0.6167,0.0512L0.6678,0.0462L0.717,0.0412L0.7638,0.036L0.8073,0.0308L0.8472,0.0254L0.8833,0.0196L0.9156,0.0137L0.9438,0.0085L0.9671,0.0045L0.9848,0.0017L0.9961,0.0003L1,-0"
    />
</svg>
