
<svg 
  class="airfoil-e476"
  fill="none"
  stroke="black" 
  stroke-width="1"
  style="overflow:visible"
  viewBox="0, -0.0836, 1, 0.1672"
  xmlns="http://www.w3.org/2000/svg">
    <title>E476</title>
    <path 
      vector-effect="non-scaling-stroke"
      d="M1,-0L0.9961,-0.0003L0.9849,-0.0015L0.9672,-0.0039L0.9437,-0.0073L0.9146,-0.0115L0.8804,-0.0169L0.8419,-0.0234L0.7999,-0.0308L0.7551,-0.0389L0.7084,-0.0473L0.6603,-0.0553L0.6111,-0.0626L0.5612,-0.0691L0.511,-0.0745L0.461,-0.0788L0.4117,-0.0818L0.3635,-0.0834L0.3169,-0.0836L0.2721,-0.0824L0.2297,-0.0797L0.19,-0.0756L0.1532,-0.0702L0.1198,-0.0636L0.0901,-0.056L0.0642,-0.0474L0.0424,-0.0382L0.0248,-0.0284L0.0118,-0.0185L0.0033,-0.0088L0.0018,-0.006L0.001,-0.0042L0.0004,-0.0025L0.0002,-0.0016L0,-0.0008L0,-0L0,0.0008L0.0002,0.0016L0.0004,0.0025L0.001,0.0042L0.0018,0.006L0.0033,0.0088L0.0118,0.0185L0.0248,0.0284L0.0424,0.0382L0.0642,0.0474L0.0901,0.056L0.1198,0.0636L0.1532,0.0702L0.19,0.0756L0.2297,0.0797L0.2721,0.0824L0.3169,0.0836L0.3635,0.0834L0.4117,0.0818L0.461,0.0788L0.511,0.0745L0.5612,0.0691L0.6111,0.0626L0.6603,0.0553L0.7084,0.0473L0.7551,0.0389L0.7999,0.0308L0.8419,0.0234L0.8804,0.0169L0.9146,0.0115L0.9437,0.0073L0.9672,0.0039L0.9849,0.0015L0.9961,0.0003L1,-0"
    />
</svg>
