
<svg 
  class="airfoil-e477"
  fill="none"
  stroke="black" 
  stroke-width="1"
  style="overflow:visible"
  viewBox="0, -0.0768, 1, 0.1536"
  xmlns="http://www.w3.org/2000/svg">
    <title>E477</title>
    <path 
      vector-effect="non-scaling-stroke"
      d="M1,-0L0.9962,-0.0003L0.9854,-0.0014L0.9682,-0.0035L0.9452,-0.0065L0.9167,-0.0102L0.8831,-0.0147L0.8451,-0.0202L0.8033,-0.0265L0.7585,-0.0334L0.7115,-0.0408L0.6628,-0.048L0.613,-0.0549L0.5625,-0.0612L0.5118,-0.0666L0.4615,-0.071L0.4119,-0.0742L0.3634,-0.0762L0.3165,-0.0768L0.2716,-0.076L0.2291,-0.0738L0.1893,-0.0703L0.1526,-0.0655L0.1192,-0.0595L0.0895,-0.0525L0.0637,-0.0446L0.042,-0.0359L0.0246,-0.0268L0.0116,-0.0175L0.0033,-0.0083L0.0017,-0.0057L0.001,-0.004L0.0004,-0.0023L0.0002,-0.0015L0,-0.0008L0,-0L0,0.0008L0.0002,0.0015L0.0004,0.0023L0.001,0.004L0.0017,0.0057L0.0033,0.0083L0.0116,0.0175L0.0246,0.0268L0.042,0.0359L0.0637,0.0446L0.0895,0.0525L0.1192,0.0595L0.1526,0.0655L0.1893,0.0703L0.2291,0.0738L0.2716,0.076L0.3165,0.0768L0.3634,0.0762L0.4119,0.0742L0.4615,0.071L0.5118,0.0666L0.5625,0.0612L0.613,0.0549L0.6628,0.048L0.7115,0.0408L0.7585,0.0334L0.8033,0.0265L0.8451,0.0202L0.8831,0.0147L0.9167,0.0102L0.9452,0.0065L0.9682,0.0035L0.9854,0.0014L0.9962,0.0003L1,-0"
    />
</svg>
