
<svg 
  class="airfoil-e478"
  fill="none"
  stroke="black" 
  stroke-width="1"
  style="overflow:visible"
  viewBox="0, -0.0785, 1, 0.157"
  xmlns="http://www.w3.org/2000/svg">
    <title>E487</title>
    <path 
      vector-effect="non-scaling-stroke"
      d="M1,-0L0.9963,-0.0003L0.9855,-0.0014L0.9686,-0.0035L0.946,-0.0062L0.918,-0.0093L0.8846,-0.0131L0.8466,-0.0175L0.8045,-0.0225L0.7589,-0.0282L0.7106,-0.0343L0.6601,-0.0407L0.6083,-0.0473L0.5557,-0.0538L0.503,-0.06L0.4509,-0.0657L0.3999,-0.0706L0.3505,-0.0745L0.3033,-0.0772L0.2588,-0.0785L0.2172,-0.078L0.1787,-0.0758L0.1434,-0.0719L0.1117,-0.0664L0.0836,-0.0594L0.0594,-0.0511L0.0391,-0.0417L0.0229,-0.0314L0.0109,-0.0207L0.0031,-0.01L0.0016,-0.0069L0.0009,-0.0048L0.0003,-0.0028L0.0002,-0.0019L0,-0.0009L0,-0L0,0.0009L0.0002,0.0019L0.0003,0.0028L0.0009,0.0048L0.0016,0.0069L0.0031,0.01L0.0109,0.0207L0.0229,0.0314L0.0391,0.0417L0.0594,0.0511L0.0836,0.0594L0.1117,0.0664L0.1434,0.0719L0.1787,0.0758L0.2172,0.078L0.2588,0.0785L0.3033,0.0772L0.3505,0.0745L0.3999,0.0706L0.4509,0.0657L0.503,0.06L0.5557,0.0538L0.6083,0.0473L0.6601,0.0407L0.7106,0.0343L0.7589,0.0282L0.8045,0.0225L0.8466,0.0175L0.8846,0.0131L0.918,0.0093L0.946,0.0062L0.9686,0.0035L0.9855,0.0014L0.9963,0.0003L1,-0"
    />
</svg>
