
<svg 
  class="airfoil-e479"
  fill="none"
  stroke="black" 
  stroke-width="1"
  style="overflow:visible"
  viewBox="0, -0.0828, 1, 0.1656"
  xmlns="http://www.w3.org/2000/svg">
    <title>EPPLER 479 AIRFOIL</title>
    <path 
      vector-effect="non-scaling-stroke"
      d="M1,-0L0.9962,-0.0003L0.9854,-0.0014L0.9683,-0.0035L0.9455,-0.0063L0.9171,-0.0095L0.8834,-0.0134L0.845,-0.0181L0.8025,-0.0235L0.7566,-0.0295L0.708,-0.036L0.6574,-0.0429L0.6054,-0.0499L0.5528,-0.0569L0.5002,-0.0635L0.4482,-0.0695L0.3974,-0.0747L0.3483,-0.0788L0.3015,-0.0816L0.2573,-0.0828L0.2161,-0.0822L0.1779,-0.0796L0.1429,-0.0753L0.1113,-0.0694L0.0833,-0.0619L0.0591,-0.0531L0.0389,-0.0432L0.0227,-0.0325L0.0106,-0.0214L0.0028,-0.0103L0,-0L0.0028,0.0103L0.0106,0.0214L0.0227,0.0325L0.0389,0.0432L0.0591,0.0531L0.0833,0.0619L0.1113,0.0694L0.1429,0.0753L0.1779,0.0796L0.2161,0.0822L0.2573,0.0828L0.3015,0.0816L0.3483,0.0788L0.3974,0.0747L0.4482,0.0695L0.5002,0.0635L0.5528,0.0569L0.6054,0.0499L0.6574,0.0429L0.708,0.036L0.7566,0.0295L0.8025,0.0235L0.845,0.0181L0.8834,0.0134L0.9171,0.0095L0.9455,0.0063L0.9683,0.0035L0.9854,0.0014L0.9962,0.0003L1,-0"
    />
</svg>
