
<svg 
  class="airfoil-e485"
  fill="none"
  stroke="black" 
  stroke-width="1"
  style="overflow:visible"
  viewBox="0, -0.0737, 1, 0.12550001"
  xmlns="http://www.w3.org/2000/svg">
    <title>EPPLER 485 AIRFOIL</title>
    <path 
      vector-effect="non-scaling-stroke"
      d="M1,-0L0.9964,-0.0004L0.986,-0.0018L0.9696,-0.0042L0.9477,-0.0075L0.9204,-0.0113L0.8882,-0.0158L0.8515,-0.0211L0.8111,-0.0271L0.7676,-0.0336L0.7217,-0.0404L0.6739,-0.047L0.6248,-0.0533L0.5747,-0.059L0.5243,-0.0639L0.4739,-0.0679L0.424,-0.0709L0.375,-0.0729L0.3275,-0.0737L0.2819,-0.0734L0.2387,-0.0719L0.1982,-0.0692L0.1608,-0.0654L0.1269,-0.0603L0.0967,-0.0542L0.0703,-0.0471L0.048,-0.0392L0.0298,-0.0306L0.0159,-0.0216L0.0062,-0.0127L0.002,-0.0066L0.0009,-0.0041L0.0004,-0.0026L0.0001,-0.0011L0,-0.0004L0,0.0003L0.0001,0.0009L0.0002,0.0015L0.0005,0.0021L0.0008,0.0028L0.0016,0.0041L0.0026,0.0054L0.0046,0.0074L0.0068,0.0093L0.0182,0.0159L0.0346,0.0223L0.0558,0.0282L0.0816,0.0336L0.112,0.0383L0.1464,0.0423L0.1846,0.0457L0.2262,0.0483L0.2707,0.0502L0.3176,0.0514L0.3664,0.0518L0.4166,0.0515L0.4677,0.0505L0.519,0.0487L0.5701,0.0461L0.6205,0.0427L0.6696,0.0386L0.7172,0.0338L0.7628,0.0285L0.8059,0.023L0.8463,0.0174L0.8834,0.0122L0.9166,0.0078L0.9451,0.0044L0.9683,0.002L0.9856,0.0006L0.9963,0.0001L1,-0"
    />
</svg>
