
<svg 
  class="airfoil-e502"
  fill="none"
  stroke="black" 
  stroke-width="1"
  style="overflow:visible"
  viewBox="0, -0.093, 1, 0.15709999"
  xmlns="http://www.w3.org/2000/svg">
    <title>EPPLER 502 AIRFOIL</title>
    <path 
      vector-effect="non-scaling-stroke"
      d="M1,-0L0.9961,-0.0004L0.9851,-0.0021L0.9678,-0.0053L0.9449,-0.0094L0.9166,-0.0144L0.8832,-0.0204L0.8455,-0.0278L0.8043,-0.0362L0.7603,-0.0455L0.7146,-0.0554L0.6679,-0.0654L0.621,-0.0746L0.5741,-0.0823L0.5271,-0.0879L0.48,-0.0914L0.4328,-0.093L0.3858,-0.0929L0.3397,-0.0913L0.2948,-0.0885L0.2518,-0.0844L0.2109,-0.0791L0.1727,-0.0729L0.1376,-0.0657L0.1058,-0.0578L0.0778,-0.0492L0.0538,-0.0402L0.0339,-0.0309L0.0184,-0.0216L0.0075,-0.0126L0.0026,-0.0066L0.0012,-0.0043L0.0006,-0.0028L0.0002,-0.0014L0.0001,-0.0007L0,-0.0001L0,0.0005L0.0002,0.0011L0.0004,0.0017L0.0007,0.0023L0.0015,0.0035L0.0025,0.0048L0.0044,0.0068L0.0067,0.0087L0.0183,0.0153L0.0351,0.0216L0.0572,0.0278L0.084,0.0337L0.1152,0.0394L0.1505,0.0446L0.1894,0.0493L0.2315,0.0535L0.2763,0.057L0.3233,0.0599L0.3719,0.0621L0.4215,0.0636L0.4714,0.0641L0.5212,0.0635L0.5702,0.0617L0.6179,0.0584L0.6644,0.0528L0.7103,0.0453L0.7556,0.0371L0.7995,0.029L0.8411,0.0216L0.8795,0.0152L0.9137,0.01L0.9431,0.006L0.9669,0.003L0.9848,0.001L0.9961,0.0002L1,-0"
    />
</svg>
