
<svg 
  class="airfoil-e520"
  fill="none"
  stroke="black" 
  stroke-width="1"
  style="overflow:visible"
  viewBox="0, -0.075, 1, 0.15"
  xmlns="http://www.w3.org/2000/svg">
    <title>EPPLER 520 AIRFOIL</title>
    <path 
      vector-effect="non-scaling-stroke"
      d="M1,-0L0.9964,-0.0001L0.9858,-0.0008L0.9687,-0.0022L0.9455,-0.0044L0.9164,-0.0075L0.8821,-0.0118L0.8432,-0.0173L0.8006,-0.024L0.7552,-0.0318L0.708,-0.0406L0.6601,-0.0494L0.6119,-0.0573L0.5631,-0.0636L0.514,-0.0685L0.4647,-0.0719L0.4156,-0.0741L0.3674,-0.075L0.3204,-0.0747L0.2752,-0.0733L0.2324,-0.0706L0.1919,-0.0669L0.1546,-0.062L0.1208,-0.0562L0.0906,-0.0495L0.0644,-0.042L0.0424,-0.0338L0.0248,-0.0252L0.0117,-0.0164L0.0033,-0.0078L0.0017,-0.0053L0.001,-0.0037L0.0004,-0.0022L0.0002,-0.0014L0,-0.0007L0,0.0007L0.0002,0.0014L0.0004,0.0022L0.001,0.0037L0.0017,0.0053L0.0033,0.0078L0.0117,0.0164L0.0248,0.0252L0.0424,0.0338L0.0644,0.042L0.0906,0.0495L0.1208,0.0562L0.1546,0.062L0.1919,0.0669L0.2322,0.0706L0.2752,0.0733L0.3204,0.0747L0.3674,0.075L0.4156,0.0741L0.4647,0.0719L0.514,0.0685L0.5631,0.0636L0.6119,0.0573L0.6601,0.0494L0.708,0.0406L0.7552,0.0318L0.8006,0.024L0.8432,0.0173L0.8821,0.0118L0.9164,0.0075L0.9455,0.0044L0.9687,0.0022L0.9858,0.0008L0.9964,0.0001L1,-0"
    />
</svg>
