
<svg 
  class="airfoil-e521"
  fill="none"
  stroke="black" 
  stroke-width="1"
  style="overflow:visible"
  viewBox="0, -0.0688, 1, 0.1376"
  xmlns="http://www.w3.org/2000/svg">
    <title>EPPLER 521 AIRFOIL</title>
    <path 
      vector-effect="non-scaling-stroke"
      d="M1,-0L0.9964,-0.0002L0.9859,-0.0008L0.9689,-0.0022L0.9458,-0.0045L0.917,-0.0078L0.8831,-0.0121L0.8447,-0.0178L0.8028,-0.0246L0.7584,-0.0324L0.7126,-0.0406L0.6657,-0.0481L0.6177,-0.0544L0.5687,-0.0595L0.5189,-0.0633L0.4689,-0.0662L0.4191,-0.068L0.3702,-0.0688L0.3226,-0.0686L0.2768,-0.0674L0.2333,-0.0651L0.1925,-0.0619L0.1549,-0.0576L0.1208,-0.0524L0.0906,-0.0462L0.0643,-0.0393L0.0423,-0.0317L0.0247,-0.0237L0.0116,-0.0154L0.0033,-0.0073L0.0017,-0.005L0.001,-0.0035L0.0004,-0.002L0.0002,-0.0013L0,-0.0007L0,0.0007L0.0002,0.0013L0.0004,0.002L0.001,0.0035L0.0017,0.005L0.0033,0.0073L0.0116,0.0154L0.0247,0.0237L0.0423,0.0317L0.0643,0.0393L0.0906,0.0462L0.1208,0.0524L0.1549,0.0576L0.1925,0.0619L0.2333,0.0651L0.2768,0.0674L0.3226,0.0686L0.3702,0.0688L0.4191,0.068L0.4689,0.0662L0.5189,0.0633L0.5687,0.0595L0.6177,0.0544L0.6657,0.0481L0.7126,0.0406L0.7584,0.0324L0.8028,0.0246L0.8447,0.0178L0.8831,0.0121L0.917,0.0077L0.9458,0.0045L0.9689,0.0022L0.9859,0.0008L0.9964,0.0002L1,-0"
    />
</svg>
