
<svg 
  class="airfoil-e540"
  fill="none"
  stroke="black" 
  stroke-width="1"
  style="overflow:visible"
  viewBox="0, -0.0998, 1, 0.1689"
  xmlns="http://www.w3.org/2000/svg">
    <title>EPPLER 540 AIRFOIL</title>
    <path 
      vector-effect="non-scaling-stroke"
      d="M1,-0L0.9962,-0.001L0.9858,-0.0042L0.97,-0.0087L0.9487,-0.014L0.922,-0.0203L0.8905,-0.0277L0.855,-0.036L0.816,-0.0451L0.7742,-0.0546L0.7304,-0.0642L0.685,-0.0735L0.6387,-0.082L0.5918,-0.0892L0.5447,-0.0947L0.4973,-0.0982L0.4497,-0.0998L0.4022,-0.0998L0.3555,-0.0984L0.3099,-0.0956L0.266,-0.0915L0.2243,-0.0863L0.1851,-0.08L0.1489,-0.0727L0.116,-0.0645L0.0867,-0.0557L0.0613,-0.0463L0.0401,-0.0365L0.0232,-0.0267L0.0107,-0.017L0.0029,-0.008L0.002,-0.0063L0.0009,-0.0039L0.0003,-0.0023L0.0001,-0.0009L0,-0.0002L0,0.0004L0.0001,0.001L0.0003,0.0016L0.0006,0.0022L0.001,0.0028L0.002,0.004L0.0032,0.0053L0.0055,0.0073L0.0141,0.0127L0.0297,0.0196L0.0503,0.0263L0.0759,0.0328L0.1059,0.039L0.1401,0.0448L0.1781,0.0503L0.2193,0.0552L0.2632,0.0596L0.3093,0.0633L0.357,0.0662L0.4058,0.0681L0.455,0.0691L0.5042,0.0688L0.5526,0.0672L0.5998,0.0638L0.6457,0.0579L0.6909,0.0494L0.736,0.0392L0.7811,0.0286L0.8249,0.0191L0.8664,0.0112L0.9041,0.0054L0.9369,0.0016L0.9637,-0.0003L0.9836,-0.0007L0.9959,-0.0003L1,-0"
    />
</svg>
