
<svg 
  class="airfoil-e541"
  fill="none"
  stroke="black" 
  stroke-width="1"
  style="overflow:visible"
  viewBox="0, -0.0993, 1, 0.1667"
  xmlns="http://www.w3.org/2000/svg">
    <title>EPPLER 541 AIRFOIL</title>
    <path 
      vector-effect="non-scaling-stroke"
      d="M1,-0L0.9962,-0.0009L0.9855,-0.0036L0.969,-0.0078L0.9468,-0.0131L0.9193,-0.0197L0.8872,-0.0275L0.8511,-0.0365L0.812,-0.0464L0.7704,-0.0566L0.7271,-0.0668L0.6825,-0.0764L0.6372,-0.0848L0.5913,-0.0913L0.5446,-0.0957L0.497,-0.0983L0.4492,-0.0993L0.4015,-0.0989L0.3545,-0.0972L0.3088,-0.0942L0.2647,-0.09L0.2229,-0.0847L0.1837,-0.0783L0.1475,-0.071L0.1146,-0.0629L0.0854,-0.0542L0.0602,-0.0449L0.0391,-0.0353L0.0224,-0.0256L0.0102,-0.0161L0.0026,-0.0074L0.0019,-0.0062L0.0008,-0.0038L0.0003,-0.0023L0.0001,-0.0009L0,-0.0002L0,0.0004L0.0001,0.001L0.0003,0.0016L0.0006,0.0021L0.001,0.0027L0.002,0.0039L0.0032,0.0051L0.0055,0.007L0.0149,0.0126L0.0308,0.0192L0.0518,0.0257L0.0778,0.0319L0.1083,0.0378L0.143,0.0433L0.1815,0.0485L0.2233,0.0532L0.2678,0.0575L0.3145,0.0611L0.3629,0.064L0.4123,0.0661L0.4622,0.0672L0.5119,0.0674L0.561,0.0664L0.6089,0.064L0.6549,0.0599L0.699,0.0534L0.7421,0.0444L0.7848,0.0338L0.8269,0.0234L0.8672,0.0144L0.9044,0.0074L0.937,0.0027L0.9638,-0.0003L0.9837,-0.0005L0.9959,-0.0002L1,-0"
    />
</svg>
