
<svg 
  class="airfoil-e542"
  fill="none"
  stroke="black" 
  stroke-width="1"
  style="overflow:visible"
  viewBox="0, -0.1024, 1, 0.1704"
  xmlns="http://www.w3.org/2000/svg">
    <title>EPPLER 542 AIRFOIL</title>
    <path 
      vector-effect="non-scaling-stroke"
      d="M1,-0L0.9962,-0.001L0.9856,-0.0038L0.9695,-0.008L0.9478,-0.0129L0.9205,-0.0187L0.8884,-0.0256L0.852,-0.0334L0.812,-0.042L0.7692,-0.0511L0.7241,-0.0605L0.6774,-0.0697L0.6297,-0.0785L0.5814,-0.0864L0.5331,-0.0931L0.4852,-0.0982L0.438,-0.1013L0.3913,-0.1024L0.3455,-0.1016L0.3009,-0.0992L0.258,-0.0953L0.2172,-0.0901L0.179,-0.0836L0.1437,-0.0761L0.1117,-0.0676L0.0833,-0.0584L0.0587,-0.0485L0.0382,-0.0383L0.0219,-0.0279L0.01,-0.0178L0.0026,-0.0082L0.0016,-0.0061L0.0006,-0.0036L0.0002,-0.002L0,-0.0005L0,0.0002L0,0.0009L0.0002,0.0015L0.0004,0.0021L0.0008,0.0027L0.0012,0.0033L0.0022,0.0046L0.0036,0.0059L0.006,0.0078L0.0145,0.0129L0.0304,0.0197L0.0515,0.0262L0.0775,0.0325L0.108,0.0385L0.1429,0.0441L0.1815,0.0492L0.2234,0.054L0.268,0.0582L0.3148,0.0618L0.3633,0.0647L0.4128,0.0667L0.4628,0.0678L0.5127,0.068L0.562,0.0669L0.6099,0.0646L0.656,0.0605L0.7003,0.054L0.7435,0.0451L0.7861,0.0347L0.828,0.0245L0.8681,0.0155L0.9049,0.0085L0.9372,0.0037L0.9637,0.0009L0.9836,-0.0002L0.9958,-0.0002L1,-0"
    />
</svg>
