
<svg 
  class="airfoil-e543"
  fill="none"
  stroke="black" 
  stroke-width="1"
  style="overflow:visible"
  viewBox="0, -0.104, 1, 0.1734"
  xmlns="http://www.w3.org/2000/svg">
    <title>EPPLER 543 AIRFOIL</title>
    <path 
      vector-effect="non-scaling-stroke"
      d="M1,-0L0.9962,-0.001L0.9857,-0.0039L0.9697,-0.0082L0.9481,-0.0132L0.9211,-0.0191L0.8891,-0.0261L0.8529,-0.0341L0.8131,-0.0428L0.7705,-0.0521L0.7256,-0.0616L0.6791,-0.0709L0.6315,-0.0798L0.5833,-0.0878L0.5351,-0.0946L0.4873,-0.0998L0.4401,-0.1029L0.3935,-0.104L0.3477,-0.1033L0.3031,-0.1008L0.2601,-0.097L0.2193,-0.0917L0.1809,-0.0852L0.1455,-0.0777L0.1134,-0.0691L0.0848,-0.0597L0.06,-0.0498L0.0393,-0.0394L0.0227,-0.0289L0.0106,-0.0186L0.0029,-0.0089L0.0016,-0.0063L0.0006,-0.0037L0.0002,-0.0021L0,-0.0005L0,0.0002L0,0.0009L0.0002,0.0015L0.0004,0.0021L0.0008,0.0027L0.0012,0.0034L0.0022,0.0047L0.0035,0.006L0.006,0.008L0.0138,0.013L0.0294,0.02L0.0501,0.0268L0.0756,0.0334L0.1058,0.0396L0.1401,0.0454L0.1782,0.0508L0.2196,0.0558L0.2637,0.0601L0.3099,0.0637L0.3578,0.0666L0.4067,0.0685L0.4561,0.0694L0.5054,0.0691L0.5541,0.0674L0.6014,0.064L0.6474,0.0581L0.6927,0.0497L0.7379,0.0397L0.7828,0.0293L0.8265,0.0199L0.8676,0.0121L0.905,0.0062L0.9375,0.0023L0.964,0.0002L0.9837,-0.0005L0.9959,-0.0002L1,-0"
    />
</svg>
