
<svg 
  class="airfoil-e544"
  fill="none"
  stroke="black" 
  stroke-width="1"
  style="overflow:visible"
  viewBox="0, -0.1055, 1, 0.17559999"
  xmlns="http://www.w3.org/2000/svg">
    <title>EPPLER 544 AIRFOIL</title>
    <path 
      vector-effect="non-scaling-stroke"
      d="M1,-0L0.9962,-0.001L0.9859,-0.004L0.97,-0.0083L0.9485,-0.0134L0.9216,-0.0194L0.8898,-0.0266L0.8538,-0.0347L0.8142,-0.0435L0.7717,-0.0529L0.727,-0.0625L0.6806,-0.072L0.6332,-0.0809L0.5852,-0.089L0.5371,-0.0959L0.4894,-0.1012L0.4422,-0.1044L0.3957,-0.1055L0.3499,-0.1048L0.3052,-0.1024L0.2622,-0.0985L0.2213,-0.0932L0.1829,-0.0867L0.1473,-0.0791L0.115,-0.0705L0.0862,-0.061L0.0613,-0.0509L0.0403,-0.0405L0.0236,-0.0298L0.0111,-0.0194L0.0033,-0.0095L0.0016,-0.0064L0.0007,-0.0038L0.0002,-0.0021L0,-0.0006L0,0.0002L0,0.0009L0.0002,0.0015L0.0004,0.0021L0.0007,0.0028L0.0012,0.0034L0.0022,0.0048L0.0035,0.0061L0.0059,0.0082L0.0131,0.013L0.0283,0.0202L0.0486,0.0273L0.0738,0.0341L0.1035,0.0405L0.1373,0.0466L0.1749,0.0522L0.2157,0.0572L0.2591,0.0616L0.3048,0.0652L0.352,0.0679L0.4003,0.0696L0.4491,0.0701L0.4977,0.0692L0.5456,0.0665L0.5928,0.0613L0.6398,0.0536L0.687,0.044L0.7344,0.0339L0.781,0.0243L0.8258,0.0159L0.8676,0.0091L0.9053,0.0043L0.9379,0.0012L0.9643,0.0003L0.9839,-0.0007L0.9959,-0.0003L1,-0"
    />
</svg>
