
<svg 
  class="airfoil-e545"
  fill="none"
  stroke="black" 
  stroke-width="1"
  style="overflow:visible"
  viewBox="0, -0.105, 1, 0.17449999"
  xmlns="http://www.w3.org/2000/svg">
    <title>EPPLER 545 AIRFOIL</title>
    <path 
      vector-effect="non-scaling-stroke"
      d="M1,-0L0.9963,-0.001L0.9862,-0.0041L0.9706,-0.0084L0.9495,-0.0134L0.923,-0.0194L0.8916,-0.0263L0.8559,-0.0341L0.8166,-0.0427L0.7742,-0.0517L0.7295,-0.061L0.683,-0.0702L0.6353,-0.0789L0.587,-0.0869L0.5384,-0.0938L0.4902,-0.0993L0.4426,-0.1031L0.3959,-0.105L0.3503,-0.1048L0.3059,-0.1028L0.263,-0.0991L0.2222,-0.094L0.1839,-0.0877L0.1448,-0.0801L0.1161,-0.0715L0.0873,-0.0621L0.0623,-0.052L0.0412,-0.0414L0.0243,-0.0307L0.0117,-0.0201L0.0036,-0.0101L0.0017,-0.0065L0.0007,-0.0039L0.0002,-0.0022L0,-0.0006L0,0.0001L0,0.0008L0.0002,0.0015L0.0004,0.0022L0.0007,0.0028L0.0011,0.0035L0.0022,0.0049L0.0035,0.0062L0.0058,0.0084L0.0124,0.0129L0.0272,0.0203L0.047,0.0276L0.0717,0.0346L0.1008,0.0412L0.134,0.0474L0.1709,0.0531L0.211,0.0581L0.2537,0.0625L0.2986,0.0659L0.345,0.0683L0.3925,0.0695L0.4404,0.0693L0.4882,0.0672L0.5359,0.0625L0.5841,0.0553L0.633,0.0462L0.6826,0.0365L0.7319,0.027L0.7799,0.0184L0.8256,0.0113L0.8679,0.0057L0.9059,0.0019L0.9384,-0.0003L0.9647,-0.0011L0.9841,-0.001L0.996,-0.0004L1,-0"
    />
</svg>
