
<svg 
  class="airfoil-e546"
  fill="none"
  stroke="black" 
  stroke-width="1"
  style="overflow:visible"
  viewBox="0, -0.0979, 1, 0.1639"
  xmlns="http://www.w3.org/2000/svg">
    <title>EPPLER 546 AIRFOIL</title>
    <path 
      vector-effect="non-scaling-stroke"
      d="M1,-0L0.9963,-0.0009L0.9861,-0.0037L0.9705,-0.0076L0.9494,-0.0122L0.9228,-0.0175L0.8912,-0.0237L0.8553,-0.0308L0.8157,-0.0386L0.773,-0.0468L0.7278,-0.0553L0.6808,-0.0637L0.6325,-0.0718L0.5835,-0.0793L0.5342,-0.0859L0.4852,-0.0912L0.4369,-0.0952L0.3897,-0.0975L0.3438,-0.0979L0.2996,-0.0965L0.2571,-0.0933L0.2166,-0.0886L0.1787,-0.0826L0.1437,-0.0754L0.1119,-0.0672L0.0836,-0.0582L0.0591,-0.0485L0.0386,-0.0384L0.0223,-0.0282L0.0104,-0.0181L0.0029,-0.0086L0.0016,-0.0062L0.0006,-0.0036L0.0002,-0.0021L0,-0.0005L0,0.0002L0,0.0008L0.0002,0.0015L0.0004,0.0021L0.0007,0.0027L0.0012,0.0033L0.0022,0.0046L0.0035,0.0059L0.0059,0.0079L0.0138,0.0128L0.0292,0.0196L0.0498,0.0263L0.0752,0.0327L0.105,0.0388L0.1391,0.0444L0.1769,0.0496L0.2178,0.0543L0.2615,0.0583L0.3074,0.0617L0.3548,0.0641L0.4033,0.0656L0.4523,0.066L0.5011,0.065L0.5492,0.0623L0.5966,0.0572L0.6438,0.0497L0.6913,0.0407L0.7386,0.0312L0.785,0.0224L0.8293,0.0147L0.8705,0.0085L0.9075,0.004L0.9393,0.0012L0.9651,-0.0003L0.9843,-0.0006L0.996,-0.0003L1,-0"
    />
</svg>
