
<svg 
  class="airfoil-e547"
  fill="none"
  stroke="black" 
  stroke-width="1"
  style="overflow:visible"
  viewBox="0, -0.1067, 1, 0.1753"
  xmlns="http://www.w3.org/2000/svg">
    <title>EPPLER 547 AIRFOIL</title>
    <path 
      vector-effect="non-scaling-stroke"
      d="M1,-0L0.9962,-0.0009L0.9858,-0.0036L0.9696,-0.0076L0.9478,-0.0123L0.9205,-0.018L0.8883,-0.0247L0.8517,-0.0325L0.8115,-0.041L0.7684,-0.0502L0.7229,-0.0596L0.6758,-0.069L0.6276,-0.078L0.5788,-0.0863L0.5299,-0.0935L0.4814,-0.0994L0.4336,-0.1038L0.3871,-0.1063L0.3419,-0.1067L0.2982,-0.105L0.2562,-0.1015L0.2163,-0.0963L0.1787,-0.0897L0.144,-0.0819L0.1124,-0.073L0.0842,-0.0632L0.0598,-0.0528L0.0393,-0.0419L0.0229,-0.0309L0.0108,-0.0201L0.0031,-0.0099L0.0014,-0.0064L0.0005,-0.0037L0.0002,-0.0021L0,-0.0004L0,0.0003L0.0001,0.001L0.0002,0.0017L0.0005,0.0023L0.0009,0.003L0.0013,0.0037L0.0024,0.005L0.0037,0.0064L0.0062,0.0084L0.0132,0.013L0.0285,0.0201L0.049,0.0271L0.0743,0.0338L0.1042,0.0401L0.1382,0.046L0.176,0.0514L0.217,0.0563L0.2607,0.0606L0.3066,0.064L0.3541,0.0666L0.4026,0.0682L0.4516,0.0686L0.5005,0.0676L0.5487,0.0649L0.5961,0.0598L0.6434,0.0522L0.6909,0.043L0.7382,0.0334L0.7846,0.0244L0.8289,0.0164L0.8701,0.01L0.9072,0.0052L0.939,0.0021L0.9649,0.0003L0.9841,-0.0003L0.996,-0.0002L1,-0"
    />
</svg>
