
<svg 
  class="airfoil-e548"
  fill="none"
  stroke="black" 
  stroke-width="1"
  style="overflow:visible"
  viewBox="0, -0.1084, 1, 0.1764"
  xmlns="http://www.w3.org/2000/svg">
    <title>EPPLER 548 AIRFOIL</title>
    <path 
      vector-effect="non-scaling-stroke"
      d="M1,-0L0.9963,-0.0009L0.9861,-0.0035L0.9703,-0.0071L0.9488,-0.0113L0.9217,-0.0161L0.8893,-0.0218L0.8523,-0.0285L0.8114,-0.036L0.7671,-0.0443L0.7203,-0.0532L0.6716,-0.0624L0.6218,-0.0718L0.5716,-0.0809L0.5216,-0.0893L0.4724,-0.0968L0.4245,-0.1028L0.3785,-0.1069L0.3343,-0.1084L0.2917,-0.1074L0.2508,-0.1042L0.2117,-0.0991L0.175,-0.0925L0.141,-0.0846L0.1101,-0.0755L0.0825,-0.0654L0.0586,-0.0547L0.0385,-0.0435L0.0225,-0.0321L0.0106,-0.0209L0.003,-0.0104L0.0012,-0.0064L0.0004,-0.0037L0.0001,-0.0019L0,-0.0003L0,0.0005L0.0001,0.0012L0.0003,0.0019L0.0006,0.0026L0.001,0.0032L0.0014,0.0039L0.0025,0.0053L0.0039,0.0066L0.0065,0.0088L0.013,0.013L0.0284,0.0202L0.0488,0.0272L0.0742,0.0338L0.1041,0.0401L0.1381,0.0459L0.1759,0.0513L0.217,0.0561L0.2607,0.0603L0.3066,0.0637L0.3541,0.0662L0.4027,0.0677L0.4517,0.068L0.5006,0.067L0.5488,0.0643L0.5962,0.0591L0.6435,0.0514L0.691,0.0422L0.7384,0.0326L0.7848,0.0236L0.8291,0.0157L0.8704,0.0093L0.9074,0.0046L0.9393,0.0016L0.9651,-0L0.9842,-0.0005L0.996,-0.0002L1,-0"
    />
</svg>
