
<svg 
  class="airfoil-e549"
  fill="none"
  stroke="black" 
  stroke-width="1"
  style="overflow:visible"
  viewBox="0, -0.1113, 1, 0.1814"
  xmlns="http://www.w3.org/2000/svg">
    <title>EPPLER 549 AIRFOIL</title>
    <path 
      vector-effect="non-scaling-stroke"
      d="M1,-0L0.9963,-0.001L0.986,-0.0039L0.9702,-0.0082L0.9487,-0.0133L0.9218,-0.0193L0.89,-0.0265L0.8539,-0.0346L0.8142,-0.0435L0.7716,-0.0531L0.7266,-0.0628L0.6799,-0.0725L0.632,-0.0818L0.5836,-0.0903L0.5349,-0.0977L0.4866,-0.1038L0.439,-0.1082L0.3926,-0.1108L0.3475,-0.1113L0.3037,-0.1096L0.2616,-0.1056L0.2215,-0.1007L0.1837,-0.094L0.1486,-0.086L0.1166,-0.0769L0.088,-0.0669L0.0631,-0.0561L0.042,-0.045L0.025,-0.0336L0.0123,-0.0223L0.0039,-0.0116L0.0015,-0.0068L0.0006,-0.0039L0.0002,-0.0022L0,-0.0005L0,0.0003L0.0001,0.001L0.0002,0.0018L0.0005,0.0024L0.0008,0.0031L0.0013,0.0038L0.0023,0.0053L0.0037,0.0068L0.0061,0.009L0.0114,0.0129L0.0259,0.0206L0.0454,0.0281L0.0696,0.0354L0.0984,0.0423L0.1312,0.0487L0.1677,0.0545L0.2073,0.0596L0.2496,0.0639L0.294,0.0672L0.34,0.0693L0.3869,0.0701L0.4344,0.069L0.4821,0.0655L0.5306,0.0593L0.5803,0.0512L0.631,0.042L0.6818,0.0328L0.732,0.0241L0.7806,0.0164L0.8266,0.01L0.8689,0.0051L0.9067,0.0018L0.9389,-0.0002L0.9649,-0.0009L0.9841,-0.0009L0.996,-0.0003L1,-0"
    />
</svg>
