
<svg 
  class="airfoil-e550"
  fill="none"
  stroke="black" 
  stroke-width="1"
  style="overflow:visible"
  viewBox="0, -0.113, 1, 0.18259999"
  xmlns="http://www.w3.org/2000/svg">
    <title>EPPLER 550 AIRFOIL</title>
    <path 
      vector-effect="non-scaling-stroke"
      d="M1,-0L0.9963,-0.001L0.9863,-0.0038L0.9708,-0.0078L0.9497,-0.0123L0.9229,-0.0175L0.891,-0.0236L0.8545,-0.0306L0.814,-0.0385L0.7702,-0.0472L0.7239,-0.0564L0.6756,-0.066L0.6262,-0.0756L0.5763,-0.0849L0.5266,-0.0936L0.4776,-0.1012L0.4299,-0.1073L0.384,-0.1115L0.3398,-0.113L0.2972,-0.112L0.2561,-0.1088L0.2168,-0.1036L0.1799,-0.0969L0.1456,-0.0888L0.1143,-0.0795L0.0863,-0.0692L0.0618,-0.0581L0.0412,-0.0466L0.0246,-0.0349L0.0121,-0.0233L0.0039,-0.0122L0.0013,-0.0068L0.0004,-0.0039L0.0001,-0.0021L0,-0.0004L0,0.0004L0.0001,0.0012L0.0003,0.0019L0.0006,0.0026L0.0009,0.0034L0.0014,0.0041L0.0025,0.0055L0.0039,0.007L0.0064,0.0093L0.0113,0.0129L0.0257,0.0206L0.0452,0.0281L0.0695,0.0354L0.0983,0.0422L0.1311,0.0486L0.1676,0.0543L0.2073,0.0594L0.2496,0.0636L0.294,0.0669L0.34,0.0689L0.387,0.0696L0.4344,0.0685L0.4822,0.0649L0.5307,0.0586L0.5804,0.0504L0.6311,0.0413L0.682,0.032L0.7322,0.0233L0.7808,0.0156L0.8268,0.0092L0.8692,0.0044L0.9069,0.0011L0.9392,-0.0006L0.9652,-0.0012L0.9843,-0.001L0.9961,-0.0003L1,-0"
    />
</svg>
