
<svg 
  class="airfoil-e551"
  fill="none"
  stroke="black" 
  stroke-width="1"
  style="overflow:visible"
  viewBox="0, -0.115, 1, 0.1834"
  xmlns="http://www.w3.org/2000/svg">
    <title>EPPLER 551 AIRFOIL</title>
    <path 
      vector-effect="non-scaling-stroke"
      d="M1,-0L0.9963,-0.0011L0.9862,-0.0042L0.9707,-0.0087L0.9496,-0.014L0.923,-0.0204L0.8917,-0.0278L0.856,-0.0363L0.8168,-0.0455L0.7746,-0.0553L0.73,-0.0653L0.6837,-0.0752L0.6362,-0.0847L0.5881,-0.0934L0.5397,-0.101L0.4916,-0.1072L0.4442,-0.1118L0.3978,-0.1145L0.3528,-0.115L0.309,-0.1134L0.2668,-0.1098L0.2265,-0.1045L0.1885,-0.0977L0.1531,-0.0896L0.1208,-0.0803L0.0918,-0.0701L0.0663,-0.0591L0.0448,-0.0477L0.0272,-0.036L0.0139,-0.0245L0.0049,-0.0134L0.0016,-0.007L0.0006,-0.0041L0.0002,-0.0022L0,-0.0005L0,0.0003L0.0001,0.0011L0.0002,0.0018L0.0004,0.0026L0.0008,0.0033L0.0012,0.004L0.0022,0.0056L0.0036,0.0071L0.0059,0.0095L0.0097,0.0125L0.0232,0.0206L0.0416,0.0286L0.0647,0.0363L0.0922,0.0435L0.1236,0.0502L0.1586,0.0561L0.1967,0.0611L0.2374,0.065L0.2801,0.0676L0.3243,0.0684L0.37,0.0667L0.4174,0.0625L0.4669,0.056L0.5183,0.0482L0.5709,0.0397L0.6242,0.0312L0.6772,0.023L0.7291,0.0156L0.7789,0.0094L0.8258,0.0045L0.8687,0.001L0.9068,-0.0011L0.9391,-0.0019L0.9652,-0.0019L0.9843,-0.0013L0.996,-0.0004L1,-0"
    />
</svg>
