
<svg 
  class="airfoil-e552"
  fill="none"
  stroke="black" 
  stroke-width="1"
  style="overflow:visible"
  viewBox="0, -0.1169, 1, 0.1848"
  xmlns="http://www.w3.org/2000/svg">
    <title>EPPLER 552 AIRFOIL</title>
    <path 
      vector-effect="non-scaling-stroke"
      d="M1,-0L0.9964,-0.001L0.9865,-0.0041L0.9713,-0.0082L0.9505,-0.013L0.9241,-0.0185L0.8926,-0.025L0.8565,-0.0323L0.8165,-0.0406L0.7732,-0.0495L0.7272,-0.059L0.6794,-0.0688L0.6304,-0.0787L0.5808,-0.0882L0.5313,-0.097L0.4826,-0.1048L0.4351,-0.1111L0.3892,-0.1153L0.3451,-0.1169L0.3024,-0.1159L0.2613,-0.1127L0.2219,-0.1075L0.1847,-0.1007L0.1501,-0.0925L0.1184,-0.083L0.09,-0.0725L0.0651,-0.0613L0.0439,-0.0495L0.0267,-0.0375L0.0136,-0.0256L0.0048,-0.0141L0.0014,-0.0071L0.0005,-0.0041L0.0002,-0.0022L0,-0.0004L0,0.0004L0.0001,0.0012L0.0003,0.002L0.0005,0.0027L0.0013,0.0042L0.0024,0.0058L0.0038,0.0073L0.0062,0.0097L0.0095,0.0124L0.023,0.0205L0.0415,0.0286L0.0646,0.0362L0.0921,0.0434L0.1235,0.05L0.1586,0.0559L0.1967,0.0608L0.2374,0.0647L0.2801,0.0672L0.3244,0.0679L0.3701,0.0662L0.4175,0.0619L0.467,0.0554L0.5184,0.0475L0.5711,0.039L0.6243,0.0304L0.6773,0.0222L0.7293,0.0148L0.7792,0.0086L0.826,0.0037L0.869,0.0003L0.9071,-0.0017L0.9395,-0.0024L0.9654,-0.0022L0.9845,-0.0014L0.9961,-0.0004L1,-0"
    />
</svg>
