
<svg 
  class="airfoil-e553"
  fill="none"
  stroke="black" 
  stroke-width="1"
  style="overflow:visible"
  viewBox="0, -0.1144, 1, 0.1821"
  xmlns="http://www.w3.org/2000/svg">
    <title>EPPLER 553 AIRFOIL</title>
    <path 
      vector-effect="non-scaling-stroke"
      d="M1,-0L0.9964,-0.0011L0.9865,-0.0044L0.9713,-0.0092L0.9507,-0.0146L0.9247,-0.021L0.8938,-0.0283L0.8587,-0.0366L0.8198,-0.0456L0.7779,-0.0551L0.7336,-0.0649L0.6873,-0.0745L0.6398,-0.0837L0.5915,-0.0922L0.5429,-0.0996L0.4944,-0.1058L0.4464,-0.1104L0.3995,-0.1133L0.3539,-0.1144L0.3098,-0.1134L0.2676,-0.1105L0.2275,-0.1056L0.1896,-0.0991L0.1544,-0.0911L0.1221,-0.0819L0.093,-0.0717L0.0676,-0.0607L0.0459,-0.0492L0.0281,-0.0374L0.0146,-0.0257L0.0053,-0.0144L0.0015,-0.0071L0.0005,-0.0041L0.0002,-0.0023L0,-0.0005L0,0.0003L0.0001,0.0011L0.0002,0.0019L0.0005,0.0026L0.0008,0.0034L0.0013,0.0042L0.0023,0.0057L0.0036,0.0073L0.006,0.0097L0.0089,0.0122L0.0219,0.0205L0.0399,0.0287L0.0624,0.0366L0.0893,0.044L0.1202,0.0507L0.1545,0.0567L0.1919,0.0617L0.2319,0.0655L0.2739,0.0676L0.3176,0.0677L0.3633,0.0653L0.4109,0.0606L0.4606,0.0537L0.5124,0.0456L0.5655,0.0368L0.6193,0.0281L0.6729,0.0198L0.7255,0.0125L0.776,0.0064L0.8236,0.0017L0.8671,-0.0014L0.9058,-0.0031L0.9387,-0.0035L0.965,-0.0029L0.9843,-0.0017L0.9961,-0.0005L1,-0"
    />
</svg>
