
<svg 
  class="airfoil-e554"
  fill="none"
  stroke="black" 
  stroke-width="1"
  style="overflow:visible"
  viewBox="0, -0.1152, 1, 0.18239999"
  xmlns="http://www.w3.org/2000/svg">
    <title>EPPLER 554 AIRFOIL</title>
    <path 
      vector-effect="non-scaling-stroke"
      d="M1,-0L0.9965,-0.0011L0.9868,-0.0043L0.972,-0.0087L0.9517,-0.0136L0.9259,-0.0192L0.895,-0.0256L0.8595,-0.0327L0.82,-0.0407L0.7771,-0.0493L0.7315,-0.0583L0.6838,-0.0677L0.6348,-0.077L0.585,-0.086L0.5351,-0.0944L0.4858,-0.1019L0.4374,-0.1081L0.3906,-0.1127L0.3456,-0.1152L0.3027,-0.1152L0.2616,-0.1127L0.2224,-0.1081L0.1855,-0.1017L0.151,-0.0936L0.1194,-0.0843L0.091,-0.0739L0.0661,-0.0626L0.0449,-0.0508L0.0275,-0.0387L0.0142,-0.0266L0.0052,-0.015L0.0013,-0.007L0.0004,-0.004L0.0001,-0.0021L0,-0.0003L0,0.0005L0.0001,0.0013L0.0003,0.0021L0.0006,0.0029L0.0009,0.0036L0.0014,0.0044L0.0025,0.006L0.0038,0.0076L0.0063,0.01L0.0088,0.0121L0.0218,0.0204L0.0398,0.0286L0.0624,0.0365L0.0893,0.0438L0.1201,0.0505L0.1545,0.0564L0.1919,0.0614L0.2319,0.0651L0.2739,0.0672L0.3177,0.0672L0.3634,0.0647L0.411,0.0599L0.4608,0.053L0.5125,0.0448L0.5657,0.036L0.6195,0.0272L0.6731,0.0189L0.7257,0.0116L0.7763,0.0055L0.8238,0.0008L0.8674,-0.0022L0.9061,-0.0038L0.939,-0.004L0.9653,-0.0032L0.9845,-0.0019L0.9961,-0.0006L1,-0"
    />
</svg>
