
<svg 
  class="airfoil-e555"
  fill="none"
  stroke="black" 
  stroke-width="1"
  style="overflow:visible"
  viewBox="0, -0.0969, 1, 0.1609"
  xmlns="http://www.w3.org/2000/svg">
    <title>EPPLER 555 AIRFOIL</title>
    <path 
      vector-effect="non-scaling-stroke"
      d="M1,-0L0.9966,-0.0012L0.9872,-0.0046L0.9729,-0.0092L0.9534,-0.0142L0.9286,-0.0199L0.8989,-0.0263L0.8649,-0.0332L0.8271,-0.0408L0.7859,-0.0486L0.742,-0.0565L0.696,-0.0644L0.6483,-0.0718L0.5995,-0.0787L0.5501,-0.0847L0.5006,-0.0897L0.4516,-0.0935L0.4033,-0.096L0.3562,-0.0969L0.3108,-0.0964L0.2673,-0.0943L0.2262,-0.0906L0.1876,-0.0853L0.1518,-0.0788L0.1193,-0.0711L0.0902,-0.0625L0.0649,-0.053L0.0435,-0.0429L0.0262,-0.0325L0.0131,-0.022L0.0044,-0.0119L0.0015,-0.0064L0.0005,-0.0037L0.0002,-0.002L0,-0.0004L0,0.0004L0.0001,0.0011L0.0002,0.0018L0.0004,0.0025L0.0008,0.0032L0.0012,0.0039L0.0022,0.0054L0.0035,0.0068L0.0058,0.0091L0.0099,0.0124L0.0232,0.0202L0.0413,0.0279L0.064,0.0353L0.091,0.0422L0.1219,0.0485L0.1563,0.054L0.1937,0.0586L0.2336,0.0621L0.2755,0.064L0.3192,0.0638L0.3648,0.0612L0.4123,0.0564L0.4619,0.0494L0.5136,0.0413L0.5666,0.0326L0.6204,0.024L0.6739,0.0159L0.7264,0.0088L0.7769,0.003L0.8244,-0.0013L0.868,-0.004L0.9066,-0.0052L0.9394,-0.005L0.9657,-0.0038L0.9847,-0.0022L0.9962,-0.0006L1,-0"
    />
</svg>
