
<svg 
  class="airfoil-e556"
  fill="none"
  stroke="black" 
  stroke-width="1"
  style="overflow:visible"
  viewBox="0, -0.1016, 1, 0.16139999"
  xmlns="http://www.w3.org/2000/svg">
    <title>EPPLER 556 AIRFOIL</title>
    <path 
      vector-effect="non-scaling-stroke"
      d="M1,-0L0.9966,-0.0013L0.9875,-0.005L0.9735,-0.0099L0.9544,-0.0154L0.9301,-0.0215L0.901,-0.0283L0.8676,-0.0357L0.8303,-0.0435L0.7897,-0.0517L0.7463,-0.0599L0.7008,-0.068L0.6535,-0.0757L0.6051,-0.0828L0.5561,-0.089L0.5069,-0.0942L0.4581,-0.0981L0.4099,-0.1006L0.3629,-0.1016L0.3175,-0.1011L0.2739,-0.0989L0.2326,-0.0952L0.1937,-0.0899L0.1576,-0.0832L0.1246,-0.0754L0.095,-0.0665L0.0691,-0.0568L0.0471,-0.0465L0.0291,-0.0358L0.0153,-0.0251L0.0058,-0.0146L0.0014,-0.0066L0.0005,-0.0039L0.0002,-0.0021L0,-0.0004L0,0.0003L0.0001,0.0011L0.0002,0.0018L0.0005,0.0025L0.0008,0.0032L0.0012,0.0039L0.0023,0.0054L0.0035,0.0069L0.0059,0.0091L0.0076,0.0106L0.0197,0.0182L0.0368,0.0257L0.0586,0.0328L0.0848,0.0394L0.115,0.0454L0.1488,0.0506L0.1858,0.055L0.2254,0.0581L0.2672,0.0598L0.3108,0.0593L0.3564,0.0566L0.4042,0.0515L0.4542,0.0445L0.5063,0.0362L0.5599,0.0276L0.6143,0.019L0.6686,0.0111L0.7219,0.0043L0.7732,-0.0012L0.8215,-0.005L0.8659,-0.0072L0.9052,-0.0078L0.9387,-0.0069L0.9654,-0.005L0.9847,-0.0027L0.9962,-0.0008L1,-0"
    />
</svg>
