
<svg 
  class="airfoil-e557"
  fill="none"
  stroke="black" 
  stroke-width="1"
  style="overflow:visible"
  viewBox="0, -0.1068, 1, 0.16239999"
  xmlns="http://www.w3.org/2000/svg">
    <title>EPPLER 557 AIRFOIL</title>
    <path 
      vector-effect="non-scaling-stroke"
      d="M1,-0L0.9967,-0.0014L0.9877,-0.0054L0.9741,-0.0108L0.9555,-0.0166L0.9316,-0.0231L0.903,-0.0303L0.8701,-0.0381L0.8334,-0.0463L0.7934,-0.0548L0.7505,-0.0634L0.7055,-0.0718L0.6587,-0.0798L0.6108,-0.0872L0.5621,-0.0936L0.5132,-0.099L0.4646,-0.1031L0.4166,-0.1057L0.3697,-0.1068L0.3243,-0.1063L0.2807,-0.1041L0.2392,-0.1002L0.2001,-0.0948L0.1637,-0.088L0.1303,-0.08L0.1002,-0.0709L0.0737,-0.061L0.0511,-0.0504L0.0324,-0.0395L0.0178,-0.0283L0.0075,-0.0174L0.0015,-0.0073L0.0004,-0.0038L0.0001,-0.0021L0,-0.0004L0,0.0004L0.0001,0.0012L0.0003,0.0019L0.0005,0.0026L0.0009,0.0033L0.0013,0.0041L0.0023,0.0055L0.0036,0.007L0.006,0.0093L0.0164,0.0163L0.0324,0.0236L0.0531,0.0304L0.0785,0.0367L0.108,0.0424L0.1412,0.0473L0.1778,0.0513L0.2171,0.0542L0.2586,0.0556L0.3022,0.0549L0.3479,0.0519L0.3958,0.0466L0.4462,0.0394L0.4987,0.0311L0.5529,0.0224L0.608,0.0139L0.663,0.0062L0.7172,-0.0004L0.7694,-0.0055L0.8186,-0.0089L0.8637,-0.0105L0.9038,-0.0104L0.9379,-0.0088L0.9651,-0.0062L0.9846,-0.0032L0.9962,-0.0009L1,-0"
    />
</svg>
