
<svg 
  class="airfoil-e558"
  fill="none"
  stroke="black" 
  stroke-width="1"
  style="overflow:visible"
  viewBox="0.0008, -0.1103, 0.9992, 0.1636"
  xmlns="http://www.w3.org/2000/svg">
    <title>EPPLER 558 AIRFOIL</title>
    <path 
      vector-effect="non-scaling-stroke"
      d="M1,-0L0.9964,-0.001L0.9864,-0.0043L0.9713,-0.0093L0.9515,-0.015L0.9266,-0.0211L0.8967,-0.0278L0.8623,-0.035L0.8239,-0.0428L0.7822,-0.051L0.7376,-0.0595L0.6907,-0.068L0.6423,-0.0764L0.5929,-0.0844L0.5431,-0.0917L0.4934,-0.0981L0.4444,-0.1034L0.3965,-0.1074L0.3501,-0.1097L0.3057,-0.1103L0.2636,-0.109L0.2239,-0.1057L0.1869,-0.1003L0.1526,-0.0931L0.1212,-0.0843L0.093,-0.0743L0.068,-0.0632L0.0467,-0.0515L0.0291,-0.0394L0.0155,-0.0272L0.006,-0.0155L0.0008,-0.0047L0.0008,0.0044L0.0068,0.0124L0.0184,0.0207L0.0346,0.0288L0.0551,0.0362L0.0798,0.0426L0.1085,0.0477L0.1409,0.0513L0.1769,0.0532L0.2164,0.0533L0.2592,0.0516L0.3052,0.0482L0.3541,0.0433L0.4058,0.0373L0.4597,0.0308L0.515,0.0243L0.5709,0.0181L0.6266,0.0124L0.6812,0.0074L0.7339,0.0032L0.7839,-0.0001L0.8303,-0.0024L0.8725,-0.0037L0.9097,-0.0042L0.9412,-0.0038L0.9665,-0.0029L0.975,-0.0016L0.9962,-0.0005L1,-0"
    />
</svg>
