
<svg 
  class="airfoil-e559"
  fill="none"
  stroke="black" 
  stroke-width="1"
  style="overflow:visible"
  viewBox="0.0002, -0.1155, 0.9998, 0.1661"
  xmlns="http://www.w3.org/2000/svg">
    <title>EPPLER 559 AIRFOIL</title>
    <path 
      vector-effect="non-scaling-stroke"
      d="M1,-0L0.9965,-0.0012L0.9867,-0.0049L0.972,-0.0104L0.9528,-0.0168L0.9287,-0.0234L0.8995,-0.0305L0.866,-0.0383L0.8284,-0.0465L0.7874,-0.0551L0.7436,-0.0639L0.6975,-0.0727L0.6497,-0.0813L0.6008,-0.0894L0.5515,-0.0968L0.5021,-0.1033L0.4532,-0.1086L0.4054,-0.1126L0.359,-0.1149L0.3145,-0.1155L0.2721,-0.1141L0.2321,-0.1107L0.1947,-0.1053L0.1599,-0.098L0.1279,-0.0891L0.099,-0.079L0.0733,-0.0677L0.0512,-0.0558L0.0329,-0.0435L0.0184,-0.0311L0.008,-0.0189L0.0018,-0.0076L0.0002,0.0021L0.0045,0.0105L0.0148,0.0188L0.0298,0.0269L0.0492,0.0343L0.0728,0.0406L0.1004,0.0455L0.1319,0.0489L0.1671,0.0506L0.2059,0.0503L0.2482,0.0482L0.2939,0.0443L0.3428,0.039L0.3946,0.0325L0.4489,0.0257L0.5048,0.0188L0.5615,0.0124L0.618,0.0066L0.6737,0.0016L0.7275,-0.0023L0.7786,-0.0052L0.8263,-0.007L0.8695,-0.0077L0.9077,-0.0074L0.9402,-0.0062L0.9661,-0.0044L0.9849,-0.0023L0.9962,-0.0007L1,-0"
    />
</svg>
