
<svg 
  class="airfoil-e560"
  fill="none"
  stroke="black" 
  stroke-width="1"
  style="overflow:visible"
  viewBox="0, -0.1208, 1, 0.169"
  xmlns="http://www.w3.org/2000/svg">
    <title>EPPLER 560 AIRFOIL</title>
    <path 
      vector-effect="non-scaling-stroke"
      d="M1,-0L0.9965,-0.0014L0.987,-0.0054L0.9728,-0.0115L0.9542,-0.0184L0.9307,-0.0256L0.9023,-0.0332L0.8695,-0.0414L0.8328,-0.0501L0.7926,-0.059L0.7495,-0.0682L0.7041,-0.0772L0.6569,-0.0861L0.6086,-0.0944L0.5596,-0.102L0.5106,-0.1085L0.462,-0.1139L0.4142,-0.1179L0.3679,-0.1202L0.3232,-0.1208L0.2806,-0.1194L0.2403,-0.1159L0.2025,-0.1104L0.1672,-0.103L0.1346,-0.094L0.1051,-0.0836L0.0788,-0.0722L0.0559,-0.0601L0.0367,-0.0475L0.0214,-0.0347L0.0101,-0.0222L0.0029,-0.0104L0,0L0.0029,0.0089L0.0118,0.0172L0.0255,0.0254L0.0437,0.0327L0.0661,0.0389L0.0927,0.0437L0.1232,0.0469L0.1575,0.0482L0.1956,0.0476L0.2373,0.0451L0.2826,0.0407L0.3314,0.0348L0.3833,0.0278L0.4379,0.0205L0.4944,0.0133L0.5518,0.0066L0.6094,0.0006L0.6661,-0.0043L0.7211,-0.0081L0.7734,-0.0106L0.8222,-0.0119L0.8666,-0.0119L0.9058,-0.0108L0.9392,-0.0087L0.9657,-0.0059L0.9848,-0.003L0.9962,-0.0008L1,-0"
    />
</svg>
