
<svg 
  class="airfoil-e561"
  fill="none"
  stroke="black" 
  stroke-width="1"
  style="overflow:visible"
  viewBox="0, -0.1292, 1, 0.1769"
  xmlns="http://www.w3.org/2000/svg">
    <title>EPPLER 561 AIRFOIL</title>
    <path 
      vector-effect="non-scaling-stroke"
      d="M1,-0L0.9965,-0.0013L0.9867,-0.0054L0.9722,-0.0115L0.9532,-0.0184L0.9293,-0.0257L0.9004,-0.0336L0.867,-0.0422L0.8297,-0.0514L0.789,-0.0609L0.7455,-0.0708L0.6997,-0.0806L0.6523,-0.0902L0.6039,-0.0994L0.555,-0.1078L0.5062,-0.1151L0.4579,-0.1212L0.4107,-0.1257L0.3649,-0.1284L0.321,-0.1292L0.2792,-0.1277L0.2394,-0.1239L0.202,-0.118L0.1671,-0.1102L0.1349,-0.1006L0.1057,-0.0897L0.0795,-0.0776L0.0568,-0.0648L0.0376,-0.0514L0.0222,-0.038L0.0108,-0.0247L0.0033,-0.0121L0,-0.0009L0.0023,0.0083L0.0107,0.0164L0.0243,0.0244L0.0425,0.0317L0.065,0.038L0.0917,0.0429L0.1223,0.0462L0.1568,0.0477L0.1951,0.0473L0.2371,0.045L0.2825,0.041L0.3313,0.0354L0.3832,0.0286L0.4378,0.0215L0.4943,0.0144L0.5517,0.0077L0.6093,0.0019L0.666,-0.003L0.7209,-0.0069L0.7732,-0.0094L0.822,-0.0108L0.8664,-0.011L0.9056,-0.01L0.9389,-0.0082L0.9655,-0.0056L0.9847,-0.0029L0.9962,-0.0008L1,-0"
    />
</svg>
