
<svg 
  class="airfoil-e562"
  fill="none"
  stroke="black" 
  stroke-width="1"
  style="overflow:visible"
  viewBox="0.0002, -0.1066, 0.9998, 0.1547"
  xmlns="http://www.w3.org/2000/svg">
    <title>EPPLER 562 AIRFOIL</title>
    <path 
      vector-effect="non-scaling-stroke"
      d="M1,-0L0.9965,-0.0012L0.9869,-0.005L0.9727,-0.0106L0.954,-0.017L0.9304,-0.0235L0.902,-0.0304L0.8691,-0.0378L0.8323,-0.0455L0.7919,-0.0535L0.7487,-0.0616L0.7031,-0.0696L0.6557,-0.0773L0.6071,-0.0846L0.5577,-0.0911L0.5083,-0.0968L0.4592,-0.1013L0.4109,-0.1046L0.364,-0.1064L0.3188,-0.1066L0.2757,-0.1051L0.2349,-0.1018L0.1966,-0.0967L0.1611,-0.09L0.1286,-0.0818L0.0993,-0.0724L0.0733,-0.062L0.051,-0.0509L0.0325,-0.0395L0.018,-0.028L0.0077,-0.0168L0.0016,-0.0064L0.0002,0.0023L0.0049,0.0099L0.0155,0.0175L0.031,0.0249L0.051,0.0317L0.0753,0.0376L0.1036,0.0423L0.1358,0.0459L0.1715,0.0479L0.2107,0.0481L0.2532,0.0467L0.2988,0.0436L0.3472,0.039L0.3982,0.0332L0.4515,0.0265L0.5066,0.0196L0.5626,0.013L0.6187,0.0069L0.674,0.0017L0.7275,-0.0025L0.7785,-0.0057L0.8261,-0.0076L0.8694,-0.0084L0.9076,-0.0081L0.9402,-0.0068L0.9662,-0.0048L0.985,-0.0025L0.9962,-0.0007L1,-0"
    />
</svg>
