
<svg 
  class="airfoil-e58"
  fill="none"
  stroke="black" 
  stroke-width="1"
  style="overflow:visible"
  viewBox="0, -0.089, 1, 0.094000004"
  xmlns="http://www.w3.org/2000/svg">
    <title>EPPLER 58 AIRFOIL</title>
    <path 
      vector-effect="non-scaling-stroke"
      d="M1,-0L0.95,-0.02L0.9,-0.037L0.8,-0.062L0.7,-0.077L0.6,-0.085L0.5,-0.089L0.4,-0.088L0.3,-0.083L0.25,-0.078L0.2,-0.072L0.15,-0.063L0.1,-0.052L0.075,-0.044L0.05,-0.035L0.025,-0.0235L0.0125,-0.015L0,-0L0.0125,0.005L0.025,0.005L0.05,0.004L0.075,0.002L0.1,-0.001L0.15,-0.009L0.2,-0.016L0.25,-0.022L0.3,-0.027L0.4,-0.035L0.5,-0.04L0.6,-0.042L0.7,-0.041L0.8,-0.036L0.9,-0.025L0.95,-0.015L1,-0"
    />
</svg>
