
<svg 
  class="airfoil-e580"
  fill="none"
  stroke="black" 
  stroke-width="1"
  style="overflow:visible"
  viewBox="0, -0.1167, 1, 0.16170001"
  xmlns="http://www.w3.org/2000/svg">
    <title>EPPLER 580 AIRFOIL</title>
    <path 
      vector-effect="non-scaling-stroke"
      d="M1,-0L0.9965,-0.0012L0.9867,-0.0047L0.9717,-0.0106L0.9522,-0.0179L0.9284,-0.0259L0.9002,-0.0342L0.8677,-0.043L0.8314,-0.0521L0.7919,-0.0614L0.7496,-0.0707L0.7052,-0.0797L0.659,-0.0883L0.6117,-0.0962L0.5637,-0.1031L0.5156,-0.1089L0.4678,-0.1132L0.4207,-0.1158L0.3746,-0.1167L0.3298,-0.1157L0.2866,-0.113L0.2454,-0.1087L0.2064,-0.1027L0.1701,-0.0952L0.1366,-0.0865L0.1063,-0.0767L0.0794,-0.066L0.0562,-0.0547L0.0368,-0.043L0.0213,-0.0313L0.01,-0.0199L0.0028,-0.0092L0,0.0001L0.0029,0.0072L0.0124,0.0131L0.0277,0.0187L0.0483,0.0239L0.0738,0.0287L0.104,0.033L0.1384,0.0367L0.1766,0.0399L0.2178,0.0425L0.2617,0.0442L0.3076,0.045L0.355,0.0445L0.4034,0.0423L0.4528,0.0382L0.5033,0.0318L0.5554,0.0236L0.6089,0.0149L0.663,0.0066L0.7167,-0.0007L0.7688,-0.0064L0.8183,-0.0102L0.8639,-0.012L0.9045,-0.0118L0.939,-0.0097L0.966,-0.0064L0.9851,-0.0032L0.9963,-0.0008L1,-0"
    />
</svg>
