
<svg 
  class="airfoil-e582"
  fill="none"
  stroke="black" 
  stroke-width="1"
  style="overflow:visible"
  viewBox="0, -0.1164, 1, 0.14750001"
  xmlns="http://www.w3.org/2000/svg">
    <title>EPPLER 582 AIRFOIL</title>
    <path 
      vector-effect="non-scaling-stroke"
      d="M1,-0L0.9964,-0.001L0.9863,-0.0043L0.9708,-0.0095L0.9503,-0.0159L0.925,-0.0233L0.895,-0.0317L0.8609,-0.0409L0.8234,-0.0508L0.783,-0.0611L0.7402,-0.0716L0.6956,-0.082L0.6505,-0.0916L0.6045,-0.1L0.558,-0.1068L0.5112,-0.1118L0.4645,-0.115L0.418,-0.1164L0.3722,-0.1161L0.3275,-0.1141L0.2843,-0.1106L0.2429,-0.1055L0.2038,-0.0992L0.1674,-0.0916L0.1339,-0.0828L0.1037,-0.0732L0.0771,-0.0628L0.0541,-0.0518L0.035,-0.0406L0.02,-0.0293L0.0091,-0.0185L0.0024,-0.0086L0.0008,-0.0049L0.0002,-0.0024L0,-0.0009L0,0.0006L0.0001,0.0012L0.0002,0.0018L0.0004,0.0024L0.0007,0.0029L0.0011,0.0034L0.0016,0.0039L0.0028,0.0049L0.0043,0.006L0.007,0.0074L0.0137,0.0103L0.0297,0.0147L0.0512,0.0185L0.078,0.0217L0.1097,0.0243L0.1459,0.0264L0.1863,0.028L0.2303,0.0293L0.2774,0.0302L0.3269,0.0308L0.3782,0.0311L0.4307,0.0309L0.4837,0.0304L0.5366,0.0293L0.5887,0.0278L0.6393,0.0255L0.6879,0.0221L0.7345,0.0168L0.7803,0.0103L0.8248,0.0042L0.8669,-0.0005L0.9051,-0.0034L0.9383,-0.0044L0.9651,-0.0038L0.9846,-0.0022L0.9962,-0.0006L1,-0"
    />
</svg>
