
<svg 
  class="airfoil-e583"
  fill="none"
  stroke="black" 
  stroke-width="1"
  style="overflow:visible"
  viewBox="0, -0.1273, 1, 0.16489999"
  xmlns="http://www.w3.org/2000/svg">
    <title>EPPLER 583 AIRFOIL</title>
    <path 
      vector-effect="non-scaling-stroke"
      d="M1,-0L0.9963,-0.001L0.9858,-0.0043L0.9698,-0.0096L0.9488,-0.016L0.9226,-0.0233L0.8916,-0.0317L0.8563,-0.0411L0.8174,-0.0514L0.7757,-0.0624L0.7317,-0.0738L0.6862,-0.0853L0.6399,-0.0963L0.5932,-0.1064L0.5469,-0.115L0.5009,-0.1214L0.455,-0.1254L0.4099,-0.1273L0.3648,-0.1271L0.3211,-0.1251L0.2788,-0.1212L0.2384,-0.1156L0.2001,-0.1085L0.1644,-0.1L0.1316,-0.0903L0.102,-0.0796L0.0757,-0.0681L0.0531,-0.0561L0.0343,-0.0438L0.0195,-0.0316L0.0088,-0.0199L0.0022,-0.0091L0.0007,-0.0046L0.0001,-0.0019L0,-0.0003L0.0001,0.0013L0.0002,0.002L0.0003,0.0027L0.0006,0.0033L0.0009,0.0039L0.0014,0.0044L0.0019,0.005L0.0032,0.0061L0.0047,0.0073L0.0076,0.0089L0.0141,0.012L0.0304,0.017L0.0521,0.0214L0.0791,0.0252L0.1111,0.0283L0.1476,0.031L0.1881,0.0331L0.2323,0.0349L0.2794,0.0362L0.3288,0.0371L0.3801,0.0376L0.4324,0.0376L0.4853,0.037L0.5379,0.0359L0.5897,0.0341L0.64,0.0313L0.6886,0.0271L0.7358,0.0216L0.7814,0.0152L0.8254,0.0089L0.8668,0.0036L0.9046,-0.0002L0.9376,-0.0022L0.9644,-0.0025L0.9841,-0.0016L0.996,-0.0005L1,-0"
    />
</svg>
