
<svg 
  class="airfoil-e584"
  fill="none"
  stroke="black" 
  stroke-width="1"
  style="overflow:visible"
  viewBox="0, -0.1282, 1, 0.1662"
  xmlns="http://www.w3.org/2000/svg">
    <title>EPPLER 584 AIRFOIL</title>
    <path 
      vector-effect="non-scaling-stroke"
      d="M1,-0L0.9962,-0.0011L0.9856,-0.0045L0.9696,-0.01L0.9486,-0.0167L0.9224,-0.0241L0.8914,-0.0326L0.8561,-0.0421L0.8173,-0.0525L0.7755,-0.0635L0.7315,-0.075L0.6861,-0.0864L0.6397,-0.0963L0.593,-0.1075L0.5466,-0.1161L0.5006,-0.1224L0.4548,-0.1264L0.4093,-0.1282L0.3645,-0.128L0.3207,-0.1259L0.2785,-0.1219L0.238,-0.1162L0.1998,-0.109L0.1641,-0.1005L0.1313,-0.0907L0.1017,-0.0799L0.0755,-0.0684L0.0529,-0.0563L0.0341,-0.0439L0.0193,-0.0316L0.0087,-0.0198L0.0022,-0.009L0.0007,-0.0046L0.0001,-0.0019L0,-0.0002L0.0001,0.0014L0.0002,0.0021L0.0004,0.0027L0.0006,0.0034L0.001,0.0039L0.0014,0.0045L0.0019,0.0051L0.0032,0.0062L0.0048,0.0073L0.0076,0.009L0.0143,0.012L0.0307,0.017L0.0527,0.0214L0.0799,0.0251L0.1121,0.0282L0.1489,0.0309L0.1897,0.033L0.2342,0.0348L0.2816,0.0362L0.3315,0.0372L0.3831,0.0378L0.4359,0.038L0.4891,0.0377L0.5422,0.037L0.5944,0.0358L0.6451,0.0339L0.6937,0.0312L0.7396,0.0274L0.7829,0.0215L0.8248,0.0143L0.8652,0.0074L0.9027,0.0021L0.936,-0.0012L0.9632,-0.0022L0.9837,-0.0016L0.9959,-0.0005L1,-0"
    />
</svg>
