
<svg 
  class="airfoil-e585"
  fill="none"
  stroke="black" 
  stroke-width="1"
  style="overflow:visible"
  viewBox="0, -0.1158, 1, 0.1464"
  xmlns="http://www.w3.org/2000/svg">
    <title>EPPLER 585 AIRFOIL</title>
    <path 
      vector-effect="non-scaling-stroke"
      d="M1,-0L0.9965,-0.001L0.9864,-0.0042L0.9709,-0.0092L0.9505,-0.0155L0.9251,-0.0228L0.8951,-0.0311L0.861,-0.0403L0.8235,-0.0501L0.7831,-0.0604L0.7403,-0.0709L0.696,-0.0812L0.6506,-0.0908L0.6046,-0.0993L0.5581,-0.106L0.5114,-0.1111L0.4646,-0.1144L0.4158,-0.1158L0.3724,-0.1155L0.3277,-0.1135L0.2845,-0.1101L0.2431,-0.1051L0.204,-0.0988L0.1676,-0.0912L0.1341,-0.0826L0.1039,-0.073L0.0772,-0.0626L0.0543,-0.0517L0.0352,-0.0405L0.0201,-0.0294L0.0092,-0.0186L0.0024,-0.0087L0.0009,-0.005L0.0002,-0.0025L0,-0.001L0,0.0005L0.0001,0.0011L0.0002,0.0017L0.0004,0.0023L0.0007,0.0028L0.0011,0.0033L0.0016,0.0038L0.0028,0.0049L0.0043,0.0059L0.0069,0.0074L0.0136,0.0102L0.0295,0.0147L0.0508,0.0185L0.0774,0.0217L0.1089,0.0243L0.145,0.0264L0.1851,0.028L0.2288,0.0293L0.2756,0.0301L0.3248,0.0306L0.3758,0.0306L0.4279,0.0303L0.4806,0.0294L0.5332,0.0279L0.5849,0.0256L0.6356,0.0221L0.6852,0.0174L0.7337,0.0118L0.7809,0.006L0.8263,0.001L0.8686,-0.0025L0.9066,-0.0045L0.9394,-0.0049L0.9657,-0.0038L0.9848,-0.0022L0.9962,-0.0006L1,-0"
    />
</svg>
