
<svg 
  class="airfoil-e587"
  fill="none"
  stroke="black" 
  stroke-width="1"
  style="overflow:visible"
  viewBox="0, -0.1241, 1, 0.1671"
  xmlns="http://www.w3.org/2000/svg">
    <title>EPPLER 587 AIRFOIL</title>
    <path 
      vector-effect="non-scaling-stroke"
      d="M1,-0L0.9965,-0.0013L0.9866,-0.0052L0.9716,-0.0112L0.9518,-0.0185L0.9273,-0.0266L0.8981,-0.0357L0.8649,-0.0456L0.8282,-0.0561L0.7886,-0.067L0.7466,-0.0779L0.7028,-0.0886L0.658,-0.0985L0.6123,-0.1072L0.5661,-0.1141L0.5195,-0.1193L0.4728,-0.1227L0.4264,-0.1241L0.3805,-0.1238L0.3355,-0.1217L0.292,-0.1181L0.2502,-0.1129L0.2107,-0.1063L0.1738,-0.0983L0.1397,-0.0892L0.1089,-0.0791L0.0815,-0.0682L0.0578,-0.0567L0.038,-0.0449L0.0222,-0.033L0.0105,-0.0214L0.0031,-0.0107L0.0009,-0.0057L0.0003,-0.003L0,-0.0013L0,0.0003L0.0001,0.001L0.0002,0.0017L0.0004,0.0023L0.0007,0.0029L0.0011,0.0035L0.0016,0.0041L0.0028,0.0054L0.0043,0.0066L0.0069,0.0084L0.0123,0.0113L0.0275,0.0171L0.0481,0.0223L0.0737,0.027L0.1041,0.0311L0.1389,0.0347L0.1776,0.0376L0.2197,0.04L0.2647,0.0417L0.312,0.0428L0.361,0.043L0.4111,0.0423L0.4616,0.0405L0.5123,0.037L0.5631,0.0318L0.6141,0.0249L0.6654,0.017L0.7166,0.0091L0.767,0.002L0.8153,-0.0035L0.8603,-0.0071L0.901,-0.0087L0.9361,-0.0083L0.9642,-0.0061L0.9843,-0.0032L0.9961,-0.0009L1,-0"
    />
</svg>
