
<svg 
  class="airfoil-e59"
  fill="none"
  stroke="black" 
  stroke-width="1"
  style="overflow:visible"
  viewBox="0, -0.077, 1, 0.084"
  xmlns="http://www.w3.org/2000/svg">
    <title>EPPLER 59 AIRFOIL</title>
    <path 
      vector-effect="non-scaling-stroke"
      d="M1,-0L0.95,-0.018L0.9,-0.032L0.8,-0.052L0.7,-0.065L0.6,-0.073L0.5,-0.076L0.4,-0.077L0.3,-0.072L0.25,-0.068L0.2,-0.063L0.15,-0.056L0.1,-0.046L0.075,-0.0395L0.05,-0.032L0.025,-0.022L0.0125,-0.016L0,-0L0.0125,0.006L0.025,0.007L0.05,0.006L0.075,0.004L0.1,0.002L0.15,-0.003L0.2,-0.008L0.25,-0.012L0.3,-0.016L0.4,-0.023L0.5,-0.028L0.6,-0.031L0.7,-0.03L0.8,-0.027L0.9,-0.019L0.95,-0.012L1,-0"
    />
</svg>
