
<svg 
  class="airfoil-e591"
  fill="none"
  stroke="black" 
  stroke-width="1"
  style="overflow:visible"
  viewBox="0, -0.136, 1, 0.1666"
  xmlns="http://www.w3.org/2000/svg">
    <title>E591</title>
    <path 
      vector-effect="non-scaling-stroke"
      d="M1,-0L0.9967,-0.0015L0.9876,-0.006L0.974,-0.0126L0.956,-0.0202L0.9333,-0.0283L0.9058,-0.0371L0.874,-0.0465L0.8383,-0.0564L0.7993,-0.0665L0.7574,-0.0767L0.7131,-0.0868L0.6669,-0.0966L0.6194,-0.1057L0.5712,-0.114L0.5225,-0.1212L0.4741,-0.1272L0.4263,-0.1318L0.3797,-0.1348L0.3346,-0.136L0.2914,-0.1354L0.2504,-0.1328L0.2118,-0.1282L0.176,-0.1218L0.1431,-0.1135L0.1133,-0.1036L0.0868,-0.0923L0.0636,-0.0797L0.044,-0.0662L0.028,-0.0521L0.0155,-0.0377L0.0067,-0.0236L0.0015,-0.0104L0,0.0015L0.0026,0.0105L0.0109,0.0169L0.0258,0.0218L0.0462,0.0257L0.0717,0.0285L0.1018,0.0302L0.1362,0.0306L0.1746,0.0295L0.2168,0.0269L0.2626,0.0228L0.3119,0.0173L0.3644,0.0109L0.4196,0.004L0.4768,-0.0028L0.5353,-0.0092L0.5942,-0.0148L0.6527,-0.0192L0.7097,-0.0223L0.7643,-0.0238L0.8155,-0.0237L0.8621,-0.022L0.9034,-0.0189L0.9383,-0.0145L0.9658,-0.0094L0.9852,-0.0045L0.9964,-0.0012L1,-0"
    />
</svg>
