
<svg 
  class="airfoil-e593"
  fill="none"
  stroke="black" 
  stroke-width="1"
  style="overflow:visible"
  viewBox="0, -0.1028, 1, 0.1215"
  xmlns="http://www.w3.org/2000/svg">
    <title>EPPLER 593 AIRFOIL</title>
    <path 
      vector-effect="non-scaling-stroke"
      d="M1,-0L0.9967,-0.0002L0.9869,-0.0008L0.9709,-0.0022L0.9491,-0.0043L0.9217,-0.007L0.889,-0.0105L0.8514,-0.0148L0.8094,-0.0202L0.7638,-0.0266L0.7153,-0.0341L0.6647,-0.0426L0.6128,-0.0519L0.5606,-0.0619L0.509,-0.0723L0.4591,-0.0824L0.4117,-0.0916L0.3672,-0.0984L0.3248,-0.1021L0.2843,-0.1028L0.2454,-0.1009L0.2081,-0.0969L0.1731,-0.0912L0.1405,-0.084L0.1107,-0.0756L0.0841,-0.0662L0.0608,-0.0561L0.0411,-0.0454L0.0251,-0.0345L0.013,-0.0238L0.0048,-0.0135L0.0006,-0.0043L0.0001,-0.0016L0,-0L0.0001,0.0014L0.0002,0.0021L0.0004,0.0027L0.0006,0.0033L0.0009,0.0038L0.0013,0.0043L0.0018,0.0049L0.003,0.0059L0.0044,0.007L0.0069,0.0085L0.0182,0.0129L0.0348,0.0163L0.0566,0.0182L0.0836,0.0187L0.116,0.0179L0.1535,0.0163L0.1957,0.0143L0.2421,0.012L0.292,0.0099L0.3446,0.0081L0.399,0.0068L0.4544,0.0058L0.5101,0.0049L0.5646,0.0042L0.6199,0.0036L0.6727,0.0031L0.7233,0.0027L0.7712,0.0024L0.8156,0.0022L0.8563,0.0019L0.8925,0.0017L0.924,0.0014L0.9504,0.0009L0.9715,0.0005L0.9871,0.0001L0.9967,-0L1,-0"
    />
</svg>
