
<svg 
  class="airfoil-e598"
  fill="none"
  stroke="black" 
  stroke-width="1"
  style="overflow:visible"
  viewBox="0, -0.1005, 1, 0.119500004"
  xmlns="http://www.w3.org/2000/svg">
    <title>EPPLER 598 AIRFOIL</title>
    <path 
      vector-effect="non-scaling-stroke"
      d="M1,-0L0.9966,-0.0002L0.9867,-0.0009L0.9704,-0.0024L0.9481,-0.0048L0.9203,-0.0081L0.8872,-0.0125L0.8496,-0.0179L0.8079,-0.0245L0.763,-0.0321L0.7156,-0.0406L0.6665,-0.0497L0.6165,-0.0592L0.5661,-0.0687L0.5162,-0.0777L0.4673,-0.0859L0.4199,-0.0926L0.3742,-0.0974L0.3301,-0.1L0.2879,-0.1005L0.2477,-0.099L0.2097,-0.0955L0.1742,-0.0903L0.1414,-0.0835L0.1115,-0.0753L0.0847,-0.0661L0.0613,-0.056L0.0415,-0.0454L0.0254,-0.0346L0.0132,-0.0239L0.0049,-0.0136L0.0006,-0.0044L0.0001,-0.0016L0,-0.0001L0.0001,0.0013L0.0002,0.002L0.0003,0.0026L0.0006,0.0032L0.0009,0.0037L0.0013,0.0043L0.0018,0.0048L0.003,0.0059L0.0044,0.0069L0.0069,0.0085L0.0181,0.013L0.0347,0.0164L0.0565,0.0184L0.0835,0.019L0.1159,0.0182L0.1534,0.0168L0.1956,0.0148L0.2419,0.0127L0.2918,0.0106L0.3444,0.0089L0.3988,0.0077L0.4542,0.0067L0.5098,0.0059L0.5652,0.0053L0.6196,0.0047L0.6724,0.0042L0.723,0.0038L0.7709,0.0034L0.8153,0.0031L0.8559,0.0028L0.8922,0.0025L0.9236,0.002L0.95,0.0014L0.9712,0.0007L0.9869,0.0002L0.9967,-0L1,-0"
    />
</svg>
