
<svg 
  class="airfoil-e603"
  fill="none"
  stroke="black" 
  stroke-width="1"
  style="overflow:visible"
  viewBox="0.0008, -0.1279, 0.9992, 0.19"
  xmlns="http://www.w3.org/2000/svg">
    <title>EPPLER 603 AIRFOIL</title>
    <path 
      vector-effect="non-scaling-stroke"
      d="M1,-0L0.9962,-0.0009L0.9855,-0.0037L0.9687,-0.0085L0.9468,-0.015L0.9201,-0.0223L0.8884,-0.0304L0.8522,-0.0395L0.8123,-0.0496L0.7693,-0.0605L0.7241,-0.072L0.6775,-0.0837L0.6302,-0.0953L0.5829,-0.1061L0.5364,-0.1154L0.4906,-0.1222L0.4452,-0.1262L0.4,-0.1279L0.3556,-0.1273L0.3121,-0.1247L0.2701,-0.1203L0.2298,-0.1141L0.1918,-0.1065L0.1564,-0.0976L0.1239,-0.0875L0.0947,-0.0765L0.0691,-0.0647L0.0472,-0.0525L0.0293,-0.04L0.0155,-0.0275L0.006,-0.0156L0.0008,-0.0047L0.0008,0.0041L0.007,0.0114L0.0195,0.0188L0.0374,0.0257L0.0604,0.0322L0.0883,0.0381L0.1208,0.0435L0.1573,0.0483L0.1974,0.0525L0.2406,0.056L0.2864,0.0588L0.3343,0.0607L0.3836,0.0619L0.4337,0.0621L0.4839,0.0613L0.5337,0.0591L0.5826,0.0552L0.6304,0.0493L0.6774,0.041L0.7245,0.0309L0.7714,0.0207L0.8173,0.0115L0.8608,0.0042L0.9007,-0.0009L0.9356,-0.0033L0.9639,-0.0034L0.9842,-0.002L0.9961,-0.0006L1,-0"
    />
</svg>
