
<svg 
  class="airfoil-e604"
  fill="none"
  stroke="black" 
  stroke-width="1"
  style="overflow:visible"
  viewBox="0, -0.1273, 1, 0.1882"
  xmlns="http://www.w3.org/2000/svg">
    <title>EPPLER 604 AIRFOIL</title>
    <path 
      vector-effect="non-scaling-stroke"
      d="M1,-0L0.9962,-0.0011L0.9857,-0.0046L0.9696,-0.0102L0.9485,-0.0172L0.9223,-0.0251L0.8914,-0.0342L0.8565,-0.0443L0.8181,-0.0552L0.777,-0.0666L0.7338,-0.0781L0.689,-0.0893L0.6432,-0.0998L0.5968,-0.1092L0.5504,-0.1169L0.504,-0.1225L0.4577,-0.1259L0.4117,-0.1273L0.3663,-0.1267L0.322,-0.1242L0.279,-0.1199L0.2379,-0.1141L0.199,-0.1068L0.1628,-0.0982L0.1295,-0.0885L0.0995,-0.0778L0.0731,-0.0664L0.0505,-0.0545L0.0318,-0.0422L0.0173,-0.03L0.0071,-0.0182L0.0013,-0.0074L0.0003,-0.0036L0.0001,-0.0018L0,0.0008L0.0002,0.0016L0.0004,0.0024L0.0007,0.0031L0.001,0.0038L0.0015,0.0046L0.0027,0.006L0.0041,0.0075L0.0067,0.0098L0.0178,0.0166L0.0349,0.0238L0.0572,0.0304L0.0843,0.0366L0.1158,0.0422L0.1515,0.0473L0.1907,0.0516L0.233,0.0553L0.2779,0.058L0.3249,0.06L0.3733,0.0609L0.4225,0.0606L0.4719,0.0589L0.5211,0.0552L0.5705,0.0493L0.6201,0.0416L0.6698,0.0325L0.7194,0.023L0.7684,0.014L0.8157,0.0064L0.8601,0.0006L0.9003,-0.003L0.9353,-0.0045L0.9635,-0.004L0.9839,-0.0023L0.996,-0.0007L1,-0"
    />
</svg>
