
<svg 
  class="airfoil-e61"
  fill="none"
  stroke="black" 
  stroke-width="1"
  style="overflow:visible"
  viewBox="0, -0.0918, 1, 0.09599999"
  xmlns="http://www.w3.org/2000/svg">
    <title>E61 (5.64%)</title>
    <path 
      vector-effect="non-scaling-stroke"
      d="M1,-0L0.9971,-0.0012L0.9888,-0.0049L0.9762,-0.0108L0.9598,-0.0178L0.9395,-0.0251L0.9151,-0.0325L0.8865,-0.0399L0.8543,-0.0474L0.8186,-0.0549L0.78,-0.062L0.7388,-0.0688L0.6955,-0.0751L0.6505,-0.0806L0.6044,-0.0852L0.5574,-0.0886L0.51,-0.0908L0.4624,-0.0918L0.4151,-0.0916L0.3686,-0.0903L0.3233,-0.0879L0.2796,-0.0844L0.238,-0.0799L0.1989,-0.0745L0.1626,-0.0683L0.1294,-0.0613L0.0996,-0.0537L0.0734,-0.0456L0.0511,-0.0372L0.0328,-0.0287L0.0185,-0.0203L0.0083,-0.0124L0.0022,-0.0053L0,0.0003L0.0029,0.0033L0.0117,0.0042L0.0263,0.0037L0.0466,0.0017L0.0727,-0.0016L0.1044,-0.0059L0.1415,-0.011L0.1835,-0.0166L0.2302,-0.0223L0.2808,-0.0279L0.3349,-0.0331L0.3916,-0.0375L0.4503,-0.0409L0.5097,-0.043L0.5691,-0.0439L0.6277,-0.0436L0.6845,-0.0422L0.7387,-0.0397L0.7897,-0.0362L0.8366,-0.0318L0.8788,-0.0268L0.9156,-0.0212L0.9464,-0.0153L0.9705,-0.0094L0.9872,-0.0044L0.9969,-0.0011L1,-0"
    />
</svg>
