
<svg 
  class="airfoil-e62"
  fill="none"
  stroke="black" 
  stroke-width="1"
  style="overflow:visible"
  viewBox="0.0002, -0.0794, 0.9998, 0.084800005"
  xmlns="http://www.w3.org/2000/svg">
    <title>E62 (5.62%)</title>
    <path 
      vector-effect="non-scaling-stroke"
      d="M1,-0L0.997,-0.001L0.9884,-0.004L0.9751,-0.0088L0.9576,-0.0146L0.9361,-0.0209L0.9103,-0.0272L0.8804,-0.0336L0.8467,-0.0402L0.8095,-0.0467L0.7695,-0.053L0.727,-0.0591L0.6824,-0.0646L0.6364,-0.0696L0.5893,-0.0736L0.5415,-0.0767L0.4933,-0.0786L0.4453,-0.0794L0.3977,-0.0791L0.351,-0.0778L0.3058,-0.0755L0.2624,-0.0722L0.2213,-0.0681L0.1828,-0.0631L0.1474,-0.0573L0.1152,-0.0509L0.0867,-0.044L0.062,-0.0367L0.0413,-0.0291L0.0248,-0.0215L0.0124,-0.0141L0.0042,-0.0072L0.0002,-0.0014L0.0012,0.0024L0.0076,0.0045L0.0197,0.0054L0.0374,0.005L0.0607,0.0035L0.0894,0.001L0.1233,-0.0024L0.1622,-0.0063L0.2056,-0.0106L0.2531,-0.015L0.3043,-0.0193L0.3583,-0.0231L0.4145,-0.0263L0.4719,-0.0285L0.5298,-0.03L0.5873,-0.0306L0.6437,-0.0303L0.6982,-0.0293L0.7502,-0.0275L0.7988,-0.025L0.8435,-0.022L0.8836,-0.0185L0.9185,-0.0146L0.9478,-0.0106L0.9709,-0.0066L0.9872,-0.0031L0.9969,-0.0008L1,-0"
    />
</svg>
