
<svg 
  class="airfoil-e625"
  fill="none"
  stroke="black" 
  stroke-width="1"
  style="overflow:visible"
  viewBox="0, -0.0931, 1, 0.13599999"
  xmlns="http://www.w3.org/2000/svg">
    <title>EPPLER 625 AIRFOIL</title>
    <path 
      vector-effect="non-scaling-stroke"
      d="M1,-0L0.99,-0.0012L0.98,-0.0024L0.97,-0.0037L0.95,-0.0062L0.925,-0.0094L0.9,-0.0128L0.875,-0.0163L0.85,-0.02L0.825,-0.0238L0.8,-0.0277L0.775,-0.0317L0.75,-0.0357L0.725,-0.0398L0.7,-0.0439L0.675,-0.048L0.65,-0.052L0.6,-0.06L0.55,-0.0675L0.5,-0.0745L0.45,-0.0807L0.4,-0.0859L0.35,-0.09L0.3,-0.0925L0.275,-0.0931L0.25,-0.0931L0.225,-0.0925L0.2,-0.0912L0.175,-0.0889L0.15,-0.0856L0.125,-0.0809L0.1,-0.0745L0.075,-0.066L0.05,-0.0544L0.035,-0.0452L0.025,-0.0376L0.02,-0.0332L0.015,-0.0282L0.0125,-0.0254L0.01,-0.0224L0.0075,-0.0189L0.005,-0.0148L0.004,-0.0129L0.003,-0.0108L0.0025,-0.0097L0.002,-0.0086L0.0015,-0.0073L0.001,-0.0059L0.0005,-0.0042L0,-0.0002L0.0005,0.0033L0.001,0.0047L0.0015,0.0057L0.002,0.0066L0.0025,0.0073L0.003,0.008L0.004,0.009L0.005,0.0099L0.0075,0.0115L0.01,0.0127L0.0125,0.0137L0.015,0.0146L0.02,0.0162L0.025,0.0177L0.035,0.0201L0.05,0.0227L0.075,0.0259L0.1,0.0281L0.125,0.0298L0.15,0.0312L0.175,0.0324L0.2,0.0335L0.225,0.0345L0.25,0.0356L0.275,0.0366L0.3,0.0375L0.35,0.0393L0.4,0.0409L0.45,0.042L0.5,0.0427L0.55,0.0429L0.6,0.0424L0.65,0.0413L0.675,0.0404L0.7,0.0393L0.725,0.0378L0.75,0.036L0.775,0.0339L0.8,0.0314L0.825,0.0285L0.85,0.0252L0.875,0.0216L0.9,0.0176L0.925,0.0134L0.95,0.009L0.97,0.0054L0.98,0.0036L0.99,0.0018L1,-0"
    />
</svg>
