
<svg 
  class="airfoil-e63"
  fill="none"
  stroke="black" 
  stroke-width="1"
  style="overflow:visible"
  viewBox="0.0005, -0.0709, 0.9995, 0.074200004"
  xmlns="http://www.w3.org/2000/svg">
    <title>E63 (4.25%)</title>
    <path 
      vector-effect="non-scaling-stroke"
      d="M1,-0L0.9972,-0.0012L0.9894,-0.0047L0.9775,-0.0099L0.9617,-0.0155L0.9416,-0.0213L0.9172,-0.0271L0.8886,-0.033L0.8562,-0.0388L0.8204,-0.0445L0.7814,-0.0498L0.7397,-0.0548L0.6956,-0.0592L0.6497,-0.063L0.6023,-0.0662L0.5539,-0.0686L0.5051,-0.0702L0.4562,-0.0709L0.4079,-0.0708L0.3604,-0.0699L0.3144,-0.0681L0.2703,-0.0654L0.2284,-0.062L0.1892,-0.0578L0.153,-0.0528L0.1202,-0.0472L0.091,-0.0411L0.0657,-0.0346L0.0443,-0.0278L0.0271,-0.0208L0.0142,-0.014L0.0054,-0.0077L0.0008,-0.0022L0.0005,0.0014L0.0056,0.0031L0.0165,0.0033L0.0332,0.0023L0.0555,0L0.0834,-0.0032L0.1167,-0.0071L0.155,-0.0115L0.198,-0.0162L0.2451,-0.0209L0.2957,-0.0255L0.3493,-0.0296L0.4051,-0.0332L0.4625,-0.036L0.5206,-0.038L0.5786,-0.0391L0.6358,-0.0391L0.6913,-0.0381L0.7443,-0.036L0.7941,-0.0331L0.84,-0.0293L0.8813,-0.0248L0.9173,-0.0198L0.9476,-0.0144L0.9711,-0.0089L0.9875,-0.0041L0.9969,-0.001L1,-0"
    />
</svg>
