
<svg 
  class="airfoil-e635"
  fill="none"
  stroke="black" 
  stroke-width="1"
  style="overflow:visible"
  viewBox="0.0002, -0.0861, 0.9998, 0.1223"
  xmlns="http://www.w3.org/2000/svg">
    <title>EPPLER 635 AIRFOIL</title>
    <path 
      vector-effect="non-scaling-stroke"
      d="M1,-0L0.9962,-0L0.9853,-0.0005L0.9681,-0.0018L0.9451,-0.0037L0.9164,-0.006L0.8822,-0.009L0.8433,-0.013L0.8002,-0.018L0.7537,-0.0239L0.7046,-0.0307L0.6537,-0.0381L0.6017,-0.046L0.5494,-0.054L0.4974,-0.0617L0.4463,-0.069L0.3968,-0.0754L0.3492,-0.0806L0.304,-0.0843L0.2616,-0.0861L0.2221,-0.0859L0.1853,-0.0834L0.1515,-0.079L0.1207,-0.0727L0.0928,-0.065L0.0682,-0.0563L0.0472,-0.0467L0.0299,-0.0367L0.0165,-0.0266L0.007,-0.0167L0.0015,-0.0075L0.0002,-0L0.0047,0.0054L0.0158,0.0096L0.0327,0.0134L0.0551,0.0167L0.0828,0.0195L0.1156,0.022L0.153,0.0244L0.1942,0.0268L0.2388,0.0291L0.2861,0.0312L0.3356,0.0331L0.3866,0.0345L0.4386,0.0355L0.4912,0.0361L0.5436,0.0362L0.5954,0.0357L0.646,0.0347L0.6948,0.0332L0.7413,0.0311L0.7852,0.0284L0.826,0.0252L0.8633,0.0216L0.8969,0.0178L0.9262,0.0139L0.951,0.01L0.971,0.0061L0.9863,0.0027L0.9964,0.0006L1,-0"
    />
</svg>
