
<svg 
  class="airfoil-e636"
  fill="none"
  stroke="black" 
  stroke-width="1"
  style="overflow:visible"
  viewBox="0, -0.0907, 1, 0.122999996"
  xmlns="http://www.w3.org/2000/svg">
    <title>EPPLER 636 AIRFOIL</title>
    <path 
      vector-effect="non-scaling-stroke"
      d="M1,-0L0.9962,-0.0002L0.9854,-0.0011L0.9685,-0.003L0.9459,-0.0054L0.9177,-0.0083L0.8842,-0.0119L0.8458,-0.0164L0.8034,-0.0218L0.7577,-0.0281L0.7092,-0.0351L0.6589,-0.0429L0.6075,-0.0509L0.5556,-0.059L0.504,-0.0668L0.4533,-0.0741L0.404,-0.0804L0.3565,-0.0855L0.3114,-0.0891L0.269,-0.0907L0.2293,-0.0902L0.1923,-0.0875L0.1581,-0.0827L0.1268,-0.076L0.0984,-0.068L0.0732,-0.0588L0.0514,-0.0489L0.0333,-0.0385L0.0191,-0.0279L0.0087,-0.0175L0.0023,-0.0078L0,0.0005L0.003,0.0063L0.0124,0.0104L0.0278,0.0139L0.049,0.0168L0.0757,0.0191L0.1077,0.0211L0.1444,0.0229L0.1853,0.0248L0.2296,0.0267L0.2768,0.0284L0.3263,0.0299L0.3775,0.0311L0.4298,0.0319L0.4827,0.0323L0.5357,0.0323L0.588,0.0318L0.6392,0.0309L0.6887,0.0295L0.7359,0.0276L0.7805,0.0251L0.8221,0.0222L0.8602,0.019L0.8945,0.0155L0.9245,0.012L0.9499,0.0086L0.9704,0.0052L0.9861,0.0023L0.9964,0.0005L1,-0"
    />
</svg>
