
<svg 
  class="airfoil-e637"
  fill="none"
  stroke="black" 
  stroke-width="1"
  style="overflow:visible"
  viewBox="0.0001, -0.0958, 0.9999, 0.12369999"
  xmlns="http://www.w3.org/2000/svg">
    <title>EPPLER 637 AIRFOIL</title>
    <path 
      vector-effect="non-scaling-stroke"
      d="M1,-0L0.9962,-0.0003L0.9855,-0.0016L0.9688,-0.0041L0.9467,-0.0071L0.9191,-0.0106L0.8861,-0.0147L0.8485,-0.0197L0.8068,-0.0256L0.7616,-0.0323L0.7139,-0.0397L0.6642,-0.0477L0.6133,-0.056L0.5619,-0.0642L0.5107,-0.0722L0.4602,-0.0795L0.4112,-0.0858L0.3638,-0.0909L0.3188,-0.0943L0.2763,-0.0958L0.2365,-0.0951L0.1992,-0.0921L0.1647,-0.087L0.1329,-0.0801L0.104,-0.0717L0.0782,-0.0622L0.0558,-0.0519L0.0369,-0.0411L0.0219,-0.0301L0.0107,-0.0192L0.0034,-0.009L0.0001,-0L0.0013,0.0064L0.0086,0.0105L0.0225,0.0137L0.0424,0.0162L0.068,0.018L0.0992,0.0195L0.1353,0.0209L0.1757,0.0222L0.2197,0.0236L0.2668,0.0249L0.3163,0.0261L0.3677,0.027L0.4204,0.0276L0.4737,0.0279L0.5272,0.0279L0.5801,0.0274L0.632,0.0266L0.6822,0.0254L0.7302,0.0237L0.7756,0.0215L0.8179,0.0189L0.8568,0.0161L0.8919,0.013L0.9227,0.01L0.9487,0.007L0.9698,0.0042L0.9859,0.0018L0.9963,0.0004L1,-0"
    />
</svg>
