
<svg 
  class="airfoil-e638"
  fill="none"
  stroke="black" 
  stroke-width="1"
  style="overflow:visible"
  viewBox="0.0006, -0.1058, 0.9994, 0.1263"
  xmlns="http://www.w3.org/2000/svg">
    <title>EPPLER 638 AIRFOIL</title>
    <path 
      vector-effect="non-scaling-stroke"
      d="M1,-0L0.9963,-0.0005L0.9857,-0.0022L0.9693,-0.0054L0.9476,-0.0091L0.9206,-0.0133L0.8883,-0.0182L0.8514,-0.024L0.8104,-0.0306L0.766,-0.038L0.7189,-0.0461L0.6698,-0.0547L0.6196,-0.0635L0.5687,-0.0723L0.518,-0.0807L0.468,-0.0884L0.4192,-0.0951L0.372,-0.1004L0.3271,-0.1041L0.2846,-0.1058L0.2446,-0.1052L0.2072,-0.1022L0.1723,-0.0971L0.1401,-0.0901L0.1106,-0.0816L0.0841,-0.072L0.061,-0.0615L0.0414,-0.0504L0.0255,-0.0391L0.0134,-0.0279L0.0052,-0.0172L0.0009,-0.0076L0.0006,-0L0.006,0.0049L0.0183,0.0079L0.0368,0.0101L0.0612,0.0116L0.0913,0.0127L0.1267,0.0137L0.1666,0.0148L0.2103,0.016L0.2573,0.0171L0.3067,0.0182L0.3582,0.0191L0.4111,0.0198L0.4649,0.0203L0.5188,0.0205L0.5723,0.0204L0.6248,0.02L0.6757,0.0192L0.7245,0.018L0.7707,0.0164L0.8138,0.0144L0.8535,0.0122L0.8893,0.0098L0.9208,0.0074L0.9476,0.0051L0.9693,0.0029L0.9857,0.0012L0.9963,0.0002L1,-0"
    />
</svg>
