
<svg 
  class="airfoil-e639"
  fill="none"
  stroke="black" 
  stroke-width="1"
  style="overflow:visible"
  viewBox="0.0002, -0.1108, 0.9998, 0.1269"
  xmlns="http://www.w3.org/2000/svg">
    <title>EPPLER 639 AIRFOIL</title>
    <path 
      vector-effect="non-scaling-stroke"
      d="M1,-0L0.9963,-0.0006L0.9858,-0.0028L0.9697,-0.0064L0.9485,-0.0108L0.922,-0.0155L0.8904,-0.0209L0.854,-0.0271L0.8137,-0.0342L0.7699,-0.042L0.7235,-0.0504L0.675,-0.0593L0.6253,-0.0683L0.5749,-0.0773L0.5246,-0.0858L0.4748,-0.0936L0.4262,-0.1002L0.3792,-0.1056L0.3343,-0.1092L0.2918,-0.1108L0.2518,-0.11L0.2141,-0.1069L0.1789,-0.1015L0.1463,-0.0943L0.1163,-0.0855L0.0893,-0.0755L0.0656,-0.0646L0.0453,-0.0532L0.0286,-0.0415L0.0157,-0.0298L0.0066,-0.0186L0.0014,-0.0084L0.0002,-0L0.0041,0.0055L0.0145,0.0085L0.0315,0.0104L0.0546,0.0114L0.0837,0.012L0.1183,0.0124L0.1576,0.0129L0.201,0.0135L0.2477,0.0142L0.2971,0.0149L0.3487,0.0154L0.4019,0.0158L0.456,0.0161L0.5105,0.0161L0.5646,0.016L0.6177,0.0157L0.6693,0.015L0.7189,0.014L0.7658,0.0126L0.8098,0.011L0.8503,0.0091L0.8869,0.0072L0.9191,0.0053L0.9465,0.0035L0.9688,0.0019L0.9855,0.0006L0.9963,0.0001L1,-0"
    />
</svg>
