
<svg 
  class="airfoil-e64"
  fill="none"
  stroke="black" 
  stroke-width="1"
  style="overflow:visible"
  viewBox="0.0006, -0.0729, 0.9994, 0.091"
  xmlns="http://www.w3.org/2000/svg">
    <title>E64 (8.45%)</title>
    <path 
      vector-effect="non-scaling-stroke"
      d="M1,-0L0.9968,-0.0008L0.9876,-0.0031L0.9732,-0.0069L0.9541,-0.0115L0.9302,-0.0166L0.9018,-0.0222L0.8694,-0.0283L0.8334,-0.0345L0.7941,-0.0408L0.752,-0.0469L0.7076,-0.0527L0.6612,-0.0579L0.6134,-0.0626L0.5647,-0.0665L0.5154,-0.0695L0.4661,-0.0716L0.4173,-0.0728L0.3694,-0.0729L0.3228,-0.072L0.278,-0.07L0.2355,-0.0671L0.1955,-0.0632L0.1586,-0.0584L0.1249,-0.0529L0.0949,-0.0465L0.0687,-0.0396L0.0466,-0.0322L0.0286,-0.0245L0.015,-0.0168L0.0056,-0.0093L0.0006,-0.0026L0.0008,0.0026L0.0068,0.0066L0.0182,0.0104L0.0348,0.0135L0.0564,0.0158L0.0829,0.0173L0.1142,0.0181L0.1498,0.0181L0.1895,0.0174L0.233,0.0161L0.2797,0.0143L0.3292,0.0121L0.381,0.0097L0.4344,0.007L0.4888,0.0043L0.5437,0.0017L0.5983,-0.0007L0.652,-0.0028L0.7041,-0.0046L0.7539,-0.006L0.8008,-0.0068L0.8442,-0.0071L0.8833,-0.0069L0.9177,-0.0061L0.9467,-0.0049L0.9699,-0.0033L0.9866,-0.0017L0.9966,-0.0005L1,-0"
    />
</svg>
