
<svg 
  class="airfoil-e642"
  fill="none"
  stroke="black" 
  stroke-width="1"
  style="overflow:visible"
  viewBox="0.0001, -0.1066, 0.9999, 0.1509"
  xmlns="http://www.w3.org/2000/svg">
    <title>EPPLER 642 AIRFOIL</title>
    <path 
      vector-effect="non-scaling-stroke"
      d="M1,-0L0.9962,-0.0006L0.9854,-0.0027L0.9685,-0.0065L0.9463,-0.0117L0.9192,-0.0177L0.8871,-0.0244L0.8505,-0.0321L0.8102,-0.0407L0.7668,-0.0503L0.7213,-0.0605L0.6744,-0.071L0.6272,-0.0814L0.5803,-0.0908L0.5339,-0.0981L0.4873,-0.1028L0.4407,-0.1056L0.3945,-0.1066L0.349,-0.1059L0.3048,-0.1036L0.2623,-0.0997L0.2218,-0.0945L0.1838,-0.088L0.1486,-0.0804L0.1166,-0.0718L0.0881,-0.0623L0.0633,-0.0522L0.0423,-0.0416L0.0254,-0.0308L0.0126,-0.0203L0.0041,-0.0103L0.0001,-0.0015L0.0018,0.0054L0.0098,0.011L0.0237,0.0165L0.0429,0.0215L0.0673,0.026L0.0967,0.03L0.1306,0.0335L0.1687,0.0365L0.2105,0.039L0.2555,0.0411L0.3031,0.0426L0.3528,0.0437L0.4041,0.0443L0.4562,0.0443L0.5087,0.0437L0.5608,0.0427L0.6119,0.041L0.6615,0.0388L0.7089,0.0358L0.7533,0.0315L0.7952,0.0254L0.8356,0.018L0.8742,0.0111L0.9097,0.0057L0.9407,0.0021L0.966,0.0002L0.9847,-0.0003L0.9962,-0.0002L1,-0"
    />
</svg>
