
<svg 
  class="airfoil-e654"
  fill="none"
  stroke="black" 
  stroke-width="1"
  style="overflow:visible"
  viewBox="0, -0.1337, 1, 0.1739"
  xmlns="http://www.w3.org/2000/svg">
    <title>EPPLER 654 AIRFOIL</title>
    <path 
      vector-effect="non-scaling-stroke"
      d="M1,-0L0.9964,-0.001L0.9862,-0.0043L0.9704,-0.0096L0.9495,-0.0162L0.9233,-0.0238L0.8924,-0.0327L0.8572,-0.0428L0.8184,-0.0539L0.7769,-0.0659L0.7334,-0.0784L0.6886,-0.0909L0.6432,-0.103L0.5979,-0.1137L0.5526,-0.1223L0.5073,-0.1285L0.4619,-0.1322L0.4166,-0.1337L0.3717,-0.1332L0.3277,-0.1309L0.285,-0.1268L0.2441,-0.1211L0.2053,-0.1139L0.1691,-0.1054L0.1357,-0.0957L0.1055,-0.0849L0.0787,-0.0732L0.0556,-0.0609L0.0364,-0.0483L0.0211,-0.0356L0.0099,-0.0232L0.0028,-0.0115L0.0004,-0.0042L0,-0.0013L0,0.0006L0.0002,0.0023L0.0003,0.0031L0.0005,0.0038L0.0008,0.0046L0.0012,0.0052L0.0016,0.0059L0.0022,0.0066L0.0035,0.0079L0.0051,0.0092L0.008,0.0111L0.0115,0.0132L0.0263,0.0192L0.0465,0.0246L0.0717,0.0292L0.1118,0.034L0.1363,0.036L0.1749,0.0381L0.2171,0.0395L0.2625,0.0402L0.3105,0.0401L0.3606,0.0393L0.4122,0.0377L0.4646,0.0355L0.5173,0.0324L0.5696,0.0284L0.6214,0.0232L0.6726,0.0169L0.7231,0.0103L0.7724,0.0039L0.8196,-0.0013L0.8636,-0.0049L0.9033,-0.0067L0.9375,-0.0067L0.965,-0.005L0.9846,-0.0027L0.9962,-0.0007L1,-0"
    />
</svg>
