
<svg 
  class="airfoil-e655"
  fill="none"
  stroke="black" 
  stroke-width="1"
  style="overflow:visible"
  viewBox="0, -0.1264, 1, 0.17449999"
  xmlns="http://www.w3.org/2000/svg">
    <title>EPPLER 655 AIRFOIL</title>
    <path 
      vector-effect="non-scaling-stroke"
      d="M1,-0L0.9963,-0.0009L0.9858,-0.0038L0.9696,-0.0087L0.9481,-0.0148L0.9213,-0.022L0.8895,-0.0303L0.8536,-0.04L0.8141,-0.0507L0.772,-0.0624L0.7278,-0.0745L0.6825,-0.0866L0.6367,-0.0982L0.591,-0.1085L0.5455,-0.1165L0.4997,-0.122L0.4539,-0.1252L0.4082,-0.1264L0.3629,-0.1256L0.3187,-0.1231L0.276,-0.119L0.2351,-0.1134L0.1966,-0.1063L0.1607,-0.0979L0.1278,-0.0884L0.0981,-0.0779L0.0721,-0.0665L0.0498,-0.0546L0.0315,-0.0424L0.0172,-0.0302L0.0071,-0.0184L0.0014,-0.0074L0.0009,-0.0057L0.0002,-0.0027L0,-0.0009L0,0.0009L0.0001,0.0017L0.0002,0.0025L0.0005,0.0033L0.0008,0.004L0.0012,0.0047L0.0016,0.0055L0.0028,0.0069L0.0042,0.0084L0.0068,0.0106L0.0164,0.0165L0.0329,0.0232L0.0545,0.0292L0.0809,0.0344L0.1118,0.0388L0.1471,0.0423L0.1863,0.0449L0.2289,0.0468L0.2745,0.0478L0.3226,0.0481L0.3726,0.0475L0.4239,0.0463L0.4759,0.0442L0.528,0.0413L0.5795,0.0373L0.6303,0.0321L0.6804,0.0257L0.7295,0.0188L0.7772,0.012L0.8229,0.0058L0.8655,0.001L0.9042,-0.0022L0.9376,-0.0037L0.9648,-0.0033L0.9844,-0.0019L0.9961,-0.0006L1,-0"
    />
</svg>
