
<svg 
  class="airfoil-e656"
  fill="none"
  stroke="black" 
  stroke-width="1"
  style="overflow:visible"
  viewBox="0, -0.1289, 1, 0.1639"
  xmlns="http://www.w3.org/2000/svg">
    <title>EPPLER 656 AIRFOIL</title>
    <path 
      vector-effect="non-scaling-stroke"
      d="M1,-0L0.9964,-0.0009L0.986,-0.0039L0.97,-0.0088L0.9486,-0.015L0.9221,-0.0223L0.8906,-0.0308L0.855,-0.0407L0.816,-0.0517L0.7742,-0.0636L0.7305,-0.076L0.6857,-0.0884L0.6404,-0.1003L0.5953,-0.1108L0.5503,-0.1189L0.5051,-0.1245L0.4596,-0.1278L0.4142,-0.1289L0.3692,-0.1282L0.3251,-0.1257L0.2824,-0.1216L0.2415,-0.1159L0.2028,-0.1088L0.1667,-0.1004L0.1334,-0.0909L0.1034,-0.0804L0.0769,-0.0691L0.054,-0.0572L0.035,-0.045L0.02,-0.0328L0.0091,-0.021L0.0024,-0.0099L0.0006,-0.0044L0.0001,-0.0017L0,0.0001L0.0001,0.0017L0.0002,0.0024L0.0004,0.0031L0.0007,0.0038L0.001,0.0044L0.0015,0.005L0.002,0.0056L0.0033,0.0069L0.0048,0.0081L0.0076,0.0099L0.0128,0.0126L0.0282,0.018L0.049,0.0227L0.0749,0.0267L0.1056,0.0298L0.1408,0.0322L0.1802,0.0338L0.2233,0.0337L0.2696,0.035L0.3186,0.0347L0.3697,0.0338L0.4222,0.0325L0.4755,0.0308L0.529,0.0284L0.5821,0.0256L0.6344,0.0222L0.6851,0.0183L0.7338,0.0137L0.7806,0.0084L0.8254,0.0033L0.8674,-0.0008L0.9055,-0.0034L0.9386,-0.0044L0.9653,-0.0037L0.9847,-0.0021L0.9962,-0.0006L1,-0"
    />
</svg>
