
<svg 
  class="airfoil-e657"
  fill="none"
  stroke="black" 
  stroke-width="1"
  style="overflow:visible"
  viewBox="0, -0.124, 1, 0.15779999"
  xmlns="http://www.w3.org/2000/svg">
    <title>EPPLER 657 AIRFOIL</title>
    <path 
      vector-effect="non-scaling-stroke"
      d="M1,-0L0.9964,-0.001L0.9861,-0.004L0.9701,-0.009L0.9489,-0.0154L0.9226,-0.0229L0.8915,-0.0318L0.8563,-0.0419L0.8179,-0.0532L0.7769,-0.0652L0.7343,-0.0776L0.6906,-0.0898L0.6466,-0.1008L0.6023,-0.1097L0.5572,-0.1163L0.5114,-0.1207L0.4652,-0.1233L0.4189,-0.124L0.3732,-0.1231L0.3285,-0.1207L0.2852,-0.1166L0.2438,-0.1112L0.2046,-0.1044L0.168,-0.0963L0.1344,-0.0872L0.1041,-0.0771L0.0773,-0.0663L0.0543,-0.0549L0.0351,-0.0432L0.0201,-0.0314L0.0091,-0.02L0.0024,-0.0094L0.0007,-0.0047L0.0001,-0.002L0,-0.0003L0.0001,0.0013L0.0002,0.002L0.0003,0.0027L0.0006,0.0033L0.0009,0.0039L0.0013,0.0045L0.0018,0.0051L0.0031,0.0063L0.0046,0.0075L0.0073,0.0092L0.0131,0.0121L0.0286,0.0174L0.0494,0.022L0.0753,0.0258L0.106,0.0289L0.1412,0.0311L0.1806,0.0327L0.2236,0.0335L0.2699,0.0338L0.3189,0.0335L0.3699,0.0327L0.4224,0.0314L0.4757,0.0296L0.5292,0.0273L0.5823,0.0246L0.6345,0.0213L0.6852,0.0174L0.7339,0.013L0.7885,0.0078L0.8255,0.0028L0.8675,-0.0013L0.9056,-0.0038L0.9386,-0.0046L0.9654,-0.0038L0.9847,-0.0021L0.9962,-0.0006L1,-0"
    />
</svg>
