
<svg 
  class="airfoil-e66"
  fill="none"
  stroke="black" 
  stroke-width="1"
  style="overflow:visible"
  viewBox="0.0002, -0.087, 0.9998, 0.1101"
  xmlns="http://www.w3.org/2000/svg">
    <title>EPPLER 66 AIRFOIL</title>
    <path 
      vector-effect="non-scaling-stroke"
      d="M1,-0L0.9967,-0.001L0.9874,-0.0041L0.9732,-0.0089L0.9544,-0.0147L0.931,-0.0209L0.9031,-0.0277L0.8711,-0.035L0.8356,-0.0425L0.7969,-0.05L0.7555,-0.0572L0.7118,-0.064L0.6662,-0.0702L0.6192,-0.0756L0.5711,-0.0801L0.5225,-0.0835L0.4739,-0.0859L0.4255,-0.087L0.378,-0.087L0.3316,-0.0857L0.287,-0.0833L0.2444,-0.0797L0.2042,-0.075L0.1668,-0.0694L0.1327,-0.0628L0.1019,-0.0554L0.0749,-0.0474L0.0518,-0.0389L0.0328,-0.0301L0.0181,-0.0212L0.0076,-0.0126L0.0015,-0.0047L0.0002,0.0016L0.0046,0.0067L0.0146,0.0116L0.0298,0.0158L0.0499,0.0191L0.0748,0.0214L0.1045,0.0227L0.1388,0.0231L0.1772,0.0225L0.2196,0.0211L0.2655,0.0191L0.3144,0.0165L0.3657,0.0135L0.419,0.0102L0.4736,0.0068L0.5289,0.0035L0.5841,0.0003L0.6387,-0.0026L0.6919,-0.005L0.7431,-0.0069L0.7915,-0.0082L0.8364,-0.0088L0.8772,-0.0088L0.9133,-0.008L0.9438,-0.0065L0.9683,-0.0044L0.9859,-0.0023L0.9965,-0.0006L1,-0"
    />
</svg>
