
<svg 
  class="airfoil-e662"
  fill="none"
  stroke="black" 
  stroke-width="1"
  style="overflow:visible"
  viewBox="0, -0.1157, 1, 0.1508"
  xmlns="http://www.w3.org/2000/svg">
    <title>EPPLER E662 AIRFOIL</title>
    <path 
      vector-effect="non-scaling-stroke"
      d="M1,-0L0.9964,-0.0012L0.9864,-0.0048L0.9712,-0.0106L0.9511,-0.0174L0.9261,-0.0252L0.8963,-0.034L0.8623,-0.0439L0.825,-0.0549L0.7853,-0.0668L0.7444,-0.0789L0.7028,-0.0897L0.6598,-0.0982L0.6152,-0.1049L0.5692,-0.1099L0.5223,-0.1133L0.475,-0.1152L0.4278,-0.1157L0.3811,-0.1147L0.3354,-0.1123L0.2912,-0.1084L0.2489,-0.1032L0.2089,-0.0968L0.1716,-0.0892L0.1373,-0.0806L0.1063,-0.0711L0.0789,-0.0609L0.0553,-0.0502L0.0358,-0.0393L0.0204,-0.0283L0.0092,-0.0176L0.0024,-0.0077L0,-0L0,0.0007L0.0035,0.0073L0.0134,0.0129L0.0288,0.0179L0.0497,0.0221L0.0757,0.0257L0.1067,0.0286L0.1422,0.0309L0.1819,0.0326L0.2252,0.0339L0.2716,0.0347L0.3206,0.0351L0.3715,0.0351L0.4236,0.0346L0.4764,0.0336L0.5292,0.0321L0.5813,0.0299L0.6321,0.027L0.6812,0.023L0.7284,0.0174L0.7745,0.0106L0.8194,0.0038L0.8623,-0.0017L0.9018,-0.0051L0.9363,-0.0061L0.9642,-0.005L0.9843,-0.0028L0.9961,-0.0008L1,-0"
    />
</svg>
