
<svg 
  class="airfoil-e664"
  fill="none"
  stroke="black" 
  stroke-width="1"
  style="overflow:visible"
  viewBox="0.0002, -0.1106, 0.9998, 0.1663"
  xmlns="http://www.w3.org/2000/svg">
    <title>EPPLER 664 AIRFOIL</title>
    <path 
      vector-effect="non-scaling-stroke"
      d="M1,-0L0.9962,-0.0009L0.9856,-0.0039L0.9692,-0.0088L0.9477,-0.0149L0.9211,-0.0219L0.8896,-0.0301L0.8541,-0.0393L0.8151,-0.0494L0.7735,-0.0602L0.7301,-0.0712L0.6855,-0.082L0.6404,-0.0917L0.595,-0.0994L0.5487,-0.1048L0.5017,-0.1084L0.4564,-0.1103L0.4073,-0.1106L0.3609,-0.1094L0.3156,-0.1067L0.272,-0.1026L0.2305,-0.0972L0.1914,-0.0905L0.1552,-0.0828L0.1222,-0.074L0.0926,-0.0644L0.0667,-0.0542L0.0449,-0.0435L0.0271,-0.0326L0.0137,-0.0218L0.0047,-0.0115L0.0002,-0.0023L0.0015,0.0052L0.009,0.0117L0.0223,0.0182L0.041,0.0242L0.0647,0.0298L0.0933,0.0348L0.1265,0.0394L0.1638,0.0434L0.2047,0.0469L0.2488,0.0499L0.2955,0.0523L0.3443,0.0541L0.3945,0.0552L0.4456,0.0557L0.4968,0.0555L0.5475,0.0543L0.5972,0.0522L0.6451,0.0487L0.6912,0.0432L0.7356,0.0357L0.7791,0.0262L0.8222,0.0164L0.864,0.0081L0.9026,0.0022L0.9364,-0.001L0.9639,-0.002L0.984,-0.0014L0.996,-0.0004L1,-0"
    />
</svg>
