
<svg 
  class="airfoil-e664ex"
  fill="none"
  stroke="black" 
  stroke-width="1"
  style="overflow:visible"
  viewBox="0.0002, -0.1106, 1.1998, 0.2006"
  xmlns="http://www.w3.org/2000/svg">
    <title>EPPLER 664 (EXTENDED) AIRFOIL</title>
    <path 
      vector-effect="non-scaling-stroke"
      d="M1.2,0.09L1.1937,0.0862L1.175,0.075L1.1439,0.0571L1.1,0.035L1.0705,0.0229L1.0371,0.0113L1,-0L0.9692,-0.0088L0.9211,-0.0219L0.8541,-0.0393L0.8151,-0.0494L0.7735,-0.0602L0.7301,-0.0712L0.6855,-0.082L0.6406,-0.0917L0.595,-0.0994L0.5487,-0.1048L0.5017,-0.1084L0.4544,-0.1103L0.4073,-0.1106L0.3609,-0.1094L0.3156,-0.1067L0.272,-0.1026L0.2305,-0.0972L0.1914,-0.0905L0.1552,-0.0828L0.1222,-0.074L0.0926,-0.0644L0.0667,-0.0542L0.0449,-0.0435L0.0271,-0.0326L0.0137,-0.0218L0.0047,-0.0115L0.0002,-0.0023L0.0015,0.0052L0.009,0.0117L0.0223,0.0182L0.041,0.0242L0.0647,0.0298L0.0933,0.0348L0.1265,0.0394L0.1638,0.0434L0.2047,0.0469L0.2488,0.0499L0.2955,0.0523L0.3443,0.0541L0.3945,0.0552L0.4456,0.0557L0.4968,0.0555L0.5475,0.0543L0.5972,0.0522L0.6451,0.0487L0.6912,0.0432L0.7418,0.0364L0.7915,0.0304L0.84,0.0265L0.8818,0.0254L0.9219,0.0264L0.96,0.029L1.0041,0.034L1.0442,0.0408L1.08,0.049L1.1228,0.0618L1.1563,0.0735L1.1805,0.0825L1.1951,0.0881L1.2,0.09"
    />
</svg>
