
<svg 
  class="airfoil-e668"
  fill="none"
  stroke="black" 
  stroke-width="1"
  style="overflow:visible"
  viewBox="0, -0.1085, 1, 0.1414"
  xmlns="http://www.w3.org/2000/svg">
    <title>EPPLER 668 AIRFOIL</title>
    <path 
      vector-effect="non-scaling-stroke"
      d="M1,-0L0.9965,-0.001L0.9865,-0.0041L0.9711,-0.009L0.9506,-0.0151L0.9251,-0.0222L0.8948,-0.0303L0.8604,-0.0396L0.8224,-0.0501L0.7823,-0.0618L0.7414,-0.0735L0.6995,-0.0834L0.6559,-0.0914L0.6108,-0.0979L0.5644,-0.1027L0.5172,-0.106L0.4696,-0.108L0.4222,-0.1085L0.3754,-0.1076L0.3297,-0.1054L0.2856,-0.1019L0.2434,-0.0971L0.2036,-0.091L0.1666,-0.0839L0.1326,-0.0758L0.1021,-0.0668L0.0751,-0.0572L0.0521,-0.0471L0.0331,-0.0367L0.0183,-0.0263L0.0078,-0.0163L0.0017,-0.007L0.0012,-0.0057L0.0004,-0.0033L0.0001,-0.0017L0,-0.0002L0,0.0004L0.0001,0.0011L0.0003,0.0017L0.0005,0.0023L0.0009,0.0028L0.0013,0.0034L0.0024,0.0046L0.0037,0.0057L0.0061,0.0075L0.0156,0.0122L0.0317,0.0173L0.0529,0.0217L0.0791,0.0254L0.11,0.0283L0.1453,0.0305L0.1846,0.032L0.2275,0.0328L0.2736,0.0329L0.3223,0.0324L0.3731,0.0314L0.4253,0.03L0.4784,0.0281L0.5316,0.0257L0.5844,0.0229L0.6363,0.0195L0.6867,0.0156L0.7352,0.011L0.7819,0.0056L0.8269,0.0006L0.8691,-0.003L0.9071,-0.0049L0.9398,-0.0051L0.9661,-0.004L0.985,-0.0022L0.9963,-0.0006L1,-0"
    />
</svg>
