
<svg 
  class="airfoil-e67"
  fill="none"
  stroke="black" 
  stroke-width="1"
  style="overflow:visible"
  viewBox="0, -0.0916, 1, 0.1221"
  xmlns="http://www.w3.org/2000/svg">
    <title>EPPLER 67 AIRFOIL</title>
    <path 
      vector-effect="non-scaling-stroke"
      d="M1,-0L0.9966,-0.001L0.9869,-0.004L0.9721,-0.0088L0.9526,-0.0146L0.9284,-0.0211L0.8997,-0.0282L0.867,-0.0358L0.8307,-0.0438L0.7915,-0.0518L0.7496,-0.0596L0.7055,-0.067L0.6597,-0.0736L0.6125,-0.0794L0.5645,-0.0842L0.516,-0.0879L0.4675,-0.0904L0.4194,-0.0916L0.3721,-0.0914L0.3261,-0.09L0.2818,-0.0872L0.2396,-0.0833L0.1998,-0.0781L0.1628,-0.072L0.129,-0.0649L0.0986,-0.057L0.072,-0.0485L0.0493,-0.0395L0.0307,-0.0302L0.0164,-0.0209L0.0064,-0.0119L0.0008,-0.0037L0,-0L0.0006,0.003L0.0062,0.0087L0.0172,0.0143L0.0331,0.0193L0.054,0.0234L0.0795,0.0267L0.1097,0.0289L0.1443,0.0302L0.1829,0.0305L0.2252,0.03L0.2709,0.0286L0.3193,0.0266L0.3701,0.024L0.4227,0.0209L0.4765,0.0175L0.531,0.0138L0.5855,0.0102L0.6393,0.0066L0.692,0.0032L0.7426,0.0003L0.7907,-0.0021L0.8354,-0.0039L0.8761,-0.0049L0.9122,-0.0052L0.9429,-0.0046L0.9676,-0.0034L0.9855,-0.0018L0.9964,-0.0005L1,-0"
    />
</svg>
