
<svg 
  class="airfoil-e678"
  fill="none"
  stroke="black" 
  stroke-width="1"
  style="overflow:visible"
  viewBox="0.0003, -0.1261, 0.9997, 0.15540001"
  xmlns="http://www.w3.org/2000/svg">
    <title>EPPLER 678 AIRFOIL</title>
    <path 
      vector-effect="non-scaling-stroke"
      d="M1,-0L0.9964,-0.0014L0.9864,-0.0057L0.9713,-0.0128L0.9521,-0.0217L0.9288,-0.0316L0.9014,-0.0422L0.8703,-0.0535L0.8364,-0.0653L0.8004,-0.0766L0.7622,-0.0861L0.7203,-0.094L0.6753,-0.1018L0.6291,-0.1098L0.5828,-0.1169L0.5366,-0.1222L0.4905,-0.1253L0.4443,-0.1261L0.3982,-0.1251L0.3528,-0.1226L0.3085,-0.1185L0.2659,-0.113L0.2253,-0.1062L0.1871,-0.0982L0.1517,-0.0891L0.1195,-0.0791L0.0907,-0.0684L0.0655,-0.0571L0.0443,-0.0455L0.0269,-0.0339L0.0138,-0.0226L0.0049,-0.012L0.0003,-0.0027L0.0012,0.0044L0.0083,0.0099L0.0212,0.0149L0.0397,0.0191L0.0635,0.0226L0.0923,0.0254L0.1257,0.0274L0.1635,0.0287L0.2052,0.0293L0.2502,0.0293L0.298,0.0287L0.3481,0.0274L0.3999,0.0256L0.4529,0.0231L0.5065,0.02L0.5601,0.0164L0.6131,0.0123L0.665,0.0072L0.7161,0.0015L0.7662,-0.0041L0.8145,-0.0086L0.8598,-0.0113L0.9008,-0.0119L0.9361,-0.0105L0.9644,-0.0074L0.9845,-0.0038L0.9962,-0.001L1,-0"
    />
</svg>
