
<svg 
  class="airfoil-e68"
  fill="none"
  stroke="black" 
  stroke-width="1"
  style="overflow:visible"
  viewBox="0, -0.0963, 1, 0.1348"
  xmlns="http://www.w3.org/2000/svg">
    <title>EPPLER 68 AIRFOIL</title>
    <path 
      vector-effect="non-scaling-stroke"
      d="M1,-0L0.9964,-0.0009L0.9864,-0.0039L0.971,-0.0086L0.9507,-0.0145L0.9257,-0.0211L0.8961,-0.0286L0.8625,-0.0367L0.8255,-0.0452L0.7856,-0.0538L0.7433,-0.0621L0.6988,-0.07L0.6527,-0.0772L0.6055,-0.0834L0.5574,-0.0886L0.509,-0.0925L0.4607,-0.0951L0.4129,-0.0963L0.366,-0.0961L0.3204,-0.0944L0.2765,-0.0913L0.2346,-0.087L0.1952,-0.0814L0.1586,-0.0748L0.1252,-0.0671L0.0953,-0.0587L0.0691,-0.0497L0.0468,-0.0401L0.0287,-0.0304L0.0148,-0.0206L0.0053,-0.0113L0.0004,-0.0028L0,-0L0.0011,0.0043L0.0077,0.0107L0.0196,0.017L0.0364,0.0227L0.058,0.0277L0.0842,0.0318L0.1149,0.0349L0.1498,0.0371L0.1886,0.0383L0.2309,0.0385L0.2764,0.0379L0.3246,0.0364L0.3749,0.0342L0.4269,0.0313L0.48,0.0278L0.5338,0.0239L0.5877,0.0199L0.6408,0.0157L0.6927,0.0116L0.7428,0.0078L0.7903,0.0043L0.8347,0.0014L0.8752,-0.0007L0.9112,-0.0021L0.9421,-0.0026L0.9669,-0.0022L0.9851,-0.0013L0.9963,-0.0004L1,-0"
    />
</svg>
