
<svg 
  class="airfoil-e682"
  fill="none"
  stroke="black" 
  stroke-width="1"
  style="overflow:visible"
  viewBox="0.0002, -0.1068, 0.9998, 0.1532"
  xmlns="http://www.w3.org/2000/svg">
    <title>EPPLER 682 AIRFOIL</title>
    <path 
      vector-effect="non-scaling-stroke"
      d="M1,-0L0.9962,-0.0007L0.9853,-0.0029L0.9682,-0.007L0.9457,-0.0126L0.9183,-0.0195L0.8861,-0.0275L0.8498,-0.0367L0.8102,-0.0471L0.7682,-0.0583L0.7249,-0.0699L0.6811,-0.0809L0.637,-0.09L0.5918,-0.0966L0.5452,-0.1015L0.498,-0.1047L0.4506,-0.1065L0.4035,-0.1068L0.3573,-0.1055L0.3122,-0.1029L0.2689,-0.0988L0.2276,-0.0935L0.1889,-0.087L0.153,-0.0793L0.1203,-0.0707L0.091,-0.0613L0.0655,-0.0513L0.044,-0.0409L0.0265,-0.0304L0.0133,-0.0201L0.0045,-0.0103L0.0002,-0.0017L0.0017,0.005L0.0096,0.0107L0.0233,0.0163L0.0425,0.0214L0.0667,0.0261L0.0959,0.0303L0.1297,0.034L0.1677,0.0373L0.2093,0.0401L0.2541,0.0424L0.3015,0.0442L0.351,0.0455L0.4021,0.0462L0.454,0.0464L0.5063,0.046L0.5582,0.045L0.6091,0.0434L0.6585,0.0411L0.7057,0.038L0.7499,0.0336L0.7917,0.027L0.8321,0.019L0.871,0.0113L0.9071,0.0053L0.939,0.0014L0.9652,-0.0004L0.9845,-0.0007L0.9961,-0.0003L1,-0"
    />
</svg>
