
<svg 
  class="airfoil-e694"
  fill="none"
  stroke="black" 
  stroke-width="1"
  style="overflow:visible"
  viewBox="0.0002, -0.1251, 0.9998, 0.158"
  xmlns="http://www.w3.org/2000/svg">
    <title>EPPLER 694 AIRFOIL</title>
    <path 
      vector-effect="non-scaling-stroke"
      d="M1,-0L0.9964,-0.0014L0.9863,-0.0059L0.9711,-0.0132L0.9517,-0.0226L0.9283,-0.0331L0.901,-0.0445L0.8702,-0.0567L0.837,-0.0694L0.802,-0.0811L0.764,-0.0907L0.7225,-0.1L0.68,-0.1091L0.6367,-0.1159L0.5917,-0.1205L0.5454,-0.1236L0.4984,-0.1251L0.4512,-0.125L0.4043,-0.1235L0.3581,-0.1205L0.3131,-0.1161L0.2697,-0.1104L0.2285,-0.1033L0.1897,-0.0955L0.1537,-0.0865L0.1209,-0.0766L0.0917,-0.066L0.0661,-0.055L0.0444,-0.0437L0.0269,-0.0324L0.0136,-0.0214L0.0047,-0.0111L0.0002,-0.0022L0.0015,0.0047L0.0091,0.0102L0.0225,0.0154L0.0413,0.0199L0.0654,0.0237L0.0945,0.0267L0.1283,0.0291L0.1664,0.031L0.2082,0.0322L0.2533,0.0329L0.301,0.0329L0.351,0.0322L0.4027,0.0309L0.4553,0.0291L0.5084,0.0266L0.5615,0.0234L0.6139,0.0198L0.6647,0.0156L0.7138,0.01L0.7618,0.0033L0.8086,-0.0034L0.8538,-0.0088L0.896,-0.0116L0.9331,-0.0114L0.9631,-0.0084L0.9841,-0.0043L0.9962,-0.0011L1,-0"
    />
</svg>
