
<svg 
  class="airfoil-e71"
  fill="none"
  stroke="black" 
  stroke-width="1"
  style="overflow:visible"
  viewBox="0, -0.0681, 1, 0.074099995"
  xmlns="http://www.w3.org/2000/svg">
    <title>E71 (5.15%)</title>
    <path 
      vector-effect="non-scaling-stroke"
      d="M1,-0L0.9971,-0.0009L0.9887,-0.0036L0.9756,-0.0079L0.9582,-0.0131L0.9368,-0.0187L0.911,-0.0244L0.8811,-0.0301L0.8474,-0.0359L0.8104,-0.0416L0.7703,-0.0471L0.7277,-0.0521L0.6829,-0.0567L0.6364,-0.0606L0.5887,-0.0637L0.5401,-0.066L0.4911,-0.0675L0.4422,-0.0681L0.3939,-0.0679L0.3466,-0.0668L0.3008,-0.0649L0.257,-0.0622L0.2157,-0.0588L0.1771,-0.0545L0.1417,-0.0497L0.1098,-0.0442L0.0817,-0.0382L0.0576,-0.0318L0.0375,-0.0251L0.0218,-0.0183L0.0103,-0.0117L0.0031,-0.0055L0,-0.0004L0.0022,0.0029L0.0101,0.0049L0.0234,0.006L0.0421,0.006L0.0661,0.005L0.0953,0.003L0.1294,0.0003L0.1684,-0.0031L0.2116,-0.0068L0.2587,-0.0107L0.3091,-0.0146L0.3622,-0.0183L0.4174,-0.0216L0.4738,-0.0244L0.5309,-0.0265L0.5878,-0.0279L0.6437,-0.0285L0.698,-0.0282L0.7498,-0.0271L0.7985,-0.0253L0.8433,-0.0226L0.8836,-0.0194L0.9188,-0.0156L0.9483,-0.0115L0.9715,-0.0071L0.9876,-0.0033L0.997,-0.0008L1,-0"
    />
</svg>
