
<svg 
  class="airfoil-e715"
  fill="none"
  stroke="black" 
  stroke-width="1"
  style="overflow:visible"
  viewBox="0, -0.1018, 1, 0.1517"
  xmlns="http://www.w3.org/2000/svg">
    <title>EPPLER 715 AIRFOIL</title>
    <path 
      vector-effect="non-scaling-stroke"
      d="M1,-0L0.9965,-0.0003L0.9862,-0.0013L0.9695,-0.0032L0.947,-0.006L0.9187,-0.0097L0.8852,-0.0144L0.847,-0.0203L0.8048,-0.0273L0.7595,-0.0355L0.7118,-0.0446L0.6625,-0.0544L0.6124,-0.0645L0.5624,-0.0746L0.5133,-0.084L0.4656,-0.0922L0.4196,-0.0979L0.3748,-0.1011L0.3312,-0.1018L0.2888,-0.1002L0.2479,-0.0968L0.209,-0.0919L0.1724,-0.0855L0.1386,-0.078L0.1079,-0.0694L0.0806,-0.0599L0.0569,-0.0499L0.0371,-0.0394L0.0214,-0.0288L0.0098,-0.0184L0.0044,-0.0116L0.0014,-0.0061L0.0003,-0.0026L0,-0.0003L0.0001,0.0011L0.0006,0.0025L0.0019,0.0045L0.0044,0.0074L0.0098,0.0117L0.0133,0.014L0.0278,0.0211L0.0471,0.0277L0.0709,0.0337L0.0991,0.0389L0.1312,0.0433L0.1671,0.0466L0.2063,0.0488L0.2485,0.0499L0.2932,0.0498L0.34,0.0483L0.3885,0.0452L0.4387,0.0401L0.4913,0.0333L0.546,0.0266L0.6014,0.0208L0.6559,0.016L0.7087,0.0122L0.759,0.0091L0.8059,0.0068L0.8487,0.005L0.887,0.0037L0.9202,0.0028L0.948,0.002L0.97,0.0011L0.9863,0.0004L0.9965,0L1,-0"
    />
</svg>
