
<svg 
  class="airfoil-e748"
  fill="none"
  stroke="black" 
  stroke-width="1"
  style="overflow:visible"
  viewBox="0, -0.1355, 1, 0.1991"
  xmlns="http://www.w3.org/2000/svg">
    <title>EPPLER 748 AIRFOIL</title>
    <path 
      vector-effect="non-scaling-stroke"
      d="M1,-0L0.9964,-0.0012L0.9863,-0.005L0.971,-0.0113L0.9513,-0.019L0.9272,-0.0271L0.8984,-0.0355L0.8648,-0.0443L0.8273,-0.0536L0.7861,-0.0633L0.7421,-0.0733L0.6958,-0.0834L0.6478,-0.0934L0.5989,-0.1029L0.5495,-0.1118L0.5003,-0.1197L0.4518,-0.1263L0.4046,-0.1314L0.359,-0.1345L0.3154,-0.1355L0.2739,-0.134L0.2347,-0.1302L0.1978,-0.124L0.1634,-0.1158L0.1316,-0.1057L0.1028,-0.0942L0.0771,-0.0814L0.0548,-0.0678L0.0361,-0.0537L0.021,-0.0394L0.0099,-0.0253L0.0028,-0.012L0,-0.0001L0.0027,0.0099L0.0117,0.0187L0.0261,0.0273L0.0454,0.0354L0.0693,0.0428L0.0973,0.0493L0.1292,0.0549L0.1645,0.0592L0.2028,0.0622L0.2434,0.0636L0.2859,0.0628L0.3303,0.059L0.3774,0.0517L0.4283,0.0422L0.4824,0.0319L0.5386,0.0219L0.5957,0.0126L0.6528,0.0043L0.7089,-0.0025L0.7629,-0.0076L0.8138,-0.0108L0.8604,-0.0122L0.9018,-0.0118L0.937,-0.0098L0.9648,-0.0067L0.9846,-0.0034L0.9962,-0.0009L1,-0"
    />
</svg>
