
<svg 
  class="airfoil-e793"
  fill="none"
  stroke="black" 
  stroke-width="1"
  style="overflow:visible"
  viewBox="0.0001, -0.1149, 0.9999, 0.1595"
  xmlns="http://www.w3.org/2000/svg">
    <title>EPPLER 793 AIRFOIL</title>
    <path 
      vector-effect="non-scaling-stroke"
      d="M1,-0L0.9965,-0.001L0.9866,-0.0041L0.9714,-0.009L0.9514,-0.0149L0.9263,-0.0213L0.8964,-0.0283L0.8621,-0.0361L0.8239,-0.0445L0.7824,-0.0532L0.7382,-0.0622L0.6918,-0.0712L0.6439,-0.0799L0.5949,-0.0882L0.5455,-0.0957L0.4961,-0.1023L0.4473,-0.1077L0.3995,-0.1118L0.3533,-0.1143L0.309,-0.1149L0.2668,-0.1137L0.2271,-0.1104L0.1899,-0.1052L0.1556,-0.0982L0.1241,-0.0895L0.0957,-0.0794L0.0706,-0.0684L0.0491,-0.0565L0.0313,-0.0443L0.0175,-0.0318L0.0076,-0.0196L0.0017,-0.0081L0.0001,0.002L0.0041,0.0103L0.0142,0.0175L0.0295,0.0243L0.0497,0.0304L0.0745,0.0356L0.1035,0.0398L0.1366,0.0428L0.1734,0.0445L0.2137,0.0446L0.2573,0.0433L0.3039,0.0404L0.3534,0.0363L0.4053,0.0313L0.4591,0.0257L0.5142,0.0199L0.5699,0.0141L0.6254,0.0087L0.68,0.0038L0.7329,-0.0002L0.7831,-0.0032L0.8299,-0.0051L0.8724,-0.006L0.9098,-0.0059L0.9415,-0.0049L0.9668,-0.0035L0.9851,-0.0019L0.9963,-0.0005L1,-0"
    />
</svg>
