
<svg 
  class="airfoil-e817"
  fill="none"
  stroke="black" 
  stroke-width="1"
  style="overflow:visible"
  viewBox="0, -0.0734, 1, 0.1179"
  xmlns="http://www.w3.org/2000/svg">
    <title>EPPLER 817 HYDROFOIL AIRFOIL</title>
    <path 
      vector-effect="non-scaling-stroke"
      d="M1,-0L0.9967,-0.0009L0.9872,-0.0035L0.9725,-0.0078L0.9531,-0.0132L0.9289,-0.0192L0.9003,-0.026L0.868,-0.0333L0.8323,-0.0411L0.794,-0.0488L0.7536,-0.0559L0.7113,-0.0618L0.6668,-0.0663L0.6203,-0.0696L0.5724,-0.0718L0.5235,-0.0731L0.4742,-0.0734L0.425,-0.0727L0.3765,-0.0711L0.329,-0.0686L0.2831,-0.0653L0.2393,-0.0612L0.198,-0.0564L0.1596,-0.051L0.1247,-0.0451L0.0935,-0.0388L0.0663,-0.0321L0.0434,-0.0253L0.0252,-0.0185L0.0118,-0.0117L0.0069,-0.0085L0.0027,-0.0047L0.0009,-0.0024L0.0002,-0.0009L0,0L0.0002,0.001L0.001,0.0025L0.0029,0.0047L0.0073,0.0083L0.0123,0.0114L0.0259,0.0175L0.0442,0.0234L0.0669,0.0291L0.0937,0.0342L0.1243,0.0386L0.1583,0.042L0.1955,0.044L0.2359,0.0445L0.2794,0.0436L0.3255,0.0414L0.3741,0.0381L0.3741,0.0381L0.4246,0.0338L0.4766,0.0288L0.5296,0.0233L0.583,0.0175L0.6363,0.0118L0.6888,0.0065L0.7397,0.0018L0.7882,-0.002L0.8337,-0.0047L0.8752,-0.0063L0.912,-0.0066L0.9432,-0.0058L0.9681,-0.0042L0.9859,-0.0022L0.9965,-0.0006L1,-0"
    />
</svg>
