
<svg 
  class="airfoil-e818"
  fill="none"
  stroke="black" 
  stroke-width="1"
  style="overflow:visible"
  viewBox="0, -0.0658, 1, 0.1018"
  xmlns="http://www.w3.org/2000/svg">
    <title>EPPLER 818 HYDROFOIL AIRFOIL</title>
    <path 
      vector-effect="non-scaling-stroke"
      d="M1,-0L0.9968,-0.0008L0.9876,-0.0033L0.9734,-0.0073L0.9544,-0.0122L0.9308,-0.0177L0.9027,-0.0238L0.8707,-0.0303L0.8354,-0.0372L0.7972,-0.044L0.7568,-0.0503L0.7143,-0.0556L0.6697,-0.0595L0.6231,-0.0625L0.5751,-0.0645L0.5261,-0.0656L0.4768,-0.0658L0.4275,-0.0651L0.3788,-0.0636L0.3312,-0.0612L0.2852,-0.0581L0.2412,-0.0543L0.1998,-0.0499L0.1614,-0.0449L0.1263,-0.0395L0.0949,-0.0337L0.0675,-0.0276L0.0444,-0.0215L0.0259,-0.0154L0.0121,-0.0095L0.0071,-0.0068L0.0028,-0.0037L0.001,-0.0019L0.0002,-0.0007L0,0L0.0002,0.0007L0.001,0.0019L0.003,0.0036L0.0074,0.0066L0.0125,0.0091L0.0263,0.0142L0.0448,0.0194L0.0676,0.0243L0.0946,0.0287L0.1252,0.0323L0.1594,0.0348L0.1971,0.036L0.2382,0.036L0.2823,0.0348L0.329,0.0326L0.3781,0.0294L0.429,0.0255L0.4813,0.0209L0.5345,0.016L0.588,0.011L0.6412,0.0061L0.6935,0.0016L0.7441,-0.0022L0.7922,-0.0052L0.8371,-0.0071L0.878,-0.008L0.9142,-0.0077L0.9448,-0.0065L0.9691,-0.0045L0.9864,-0.0023L0.9966,-0.0006L1,-0"
    />
</svg>
