
<svg 
  class="airfoil-e836"
  fill="none"
  stroke="black" 
  stroke-width="1"
  style="overflow:visible"
  viewBox="0, -0.0632, 1, 0.1264"
  xmlns="http://www.w3.org/2000/svg">
    <title>EPPLER E836 HYDROFOIL AIRFOIL</title>
    <path 
      vector-effect="non-scaling-stroke"
      d="M1,-0L0.9964,-0.0002L0.9858,-0.0012L0.9689,-0.0031L0.9463,-0.0059L0.9184,-0.0096L0.8855,-0.0141L0.8484,-0.0197L0.8079,-0.026L0.7646,-0.0329L0.7194,-0.0398L0.6728,-0.0463L0.6249,-0.052L0.5762,-0.0566L0.5268,-0.0601L0.4773,-0.0622L0.4278,-0.0632L0.3789,-0.0631L0.3311,-0.062L0.2848,-0.0601L0.2406,-0.0573L0.1991,-0.0536L0.1605,-0.0493L0.1253,-0.0442L0.094,-0.0386L0.0667,-0.0324L0.0438,-0.0258L0.0254,-0.019L0.0118,-0.0122L0.0031,-0.0056L0,-0L0.0031,0.0056L0.0118,0.0122L0.0254,0.019L0.0438,0.0258L0.0667,0.0324L0.094,0.0386L0.1253,0.0442L0.1605,0.0493L0.1991,0.0536L0.2406,0.0573L0.2848,0.0601L0.3311,0.062L0.3789,0.0631L0.4278,0.0632L0.4773,0.0622L0.5268,0.0601L0.5762,0.0566L0.6249,0.052L0.6728,0.0463L0.7194,0.0398L0.7646,0.0329L0.8079,0.026L0.8484,0.0197L0.8855,0.0141L0.9184,0.0096L0.9463,0.0059L0.9689,0.0031L0.9858,0.0012L0.9964,0.0002L1,-0"
    />
</svg>
