
<svg 
  class="airfoil-e837"
  fill="none"
  stroke="black" 
  stroke-width="1"
  style="overflow:visible"
  viewBox="0, -0.0805, 1, 0.161"
  xmlns="http://www.w3.org/2000/svg">
    <title>EPPLER E837 HYDROFOIL AIRFOIL</title>
    <path 
      vector-effect="non-scaling-stroke"
      d="M1,-0L0.9962,-0.0002L0.9853,-0.0012L0.9679,-0.0032L0.9446,-0.0061L0.9157,-0.0099L0.8816,-0.0147L0.8432,-0.0207L0.8011,-0.0277L0.7562,-0.0355L0.7091,-0.0438L0.6608,-0.0522L0.6118,-0.0603L0.5627,-0.0674L0.5137,-0.0731L0.4649,-0.0773L0.4167,-0.0798L0.3694,-0.0805L0.3232,-0.0797L0.2785,-0.0775L0.2358,-0.074L0.1955,-0.0693L0.1581,-0.0637L0.1239,-0.0571L0.0932,-0.0496L0.0665,-0.0416L0.0439,-0.0331L0.0256,-0.0243L0.012,-0.0156L0.0032,-0.0072L0,-0L0.0032,0.0072L0.012,0.0156L0.0256,0.0243L0.0439,0.0331L0.0665,0.0416L0.0932,0.0496L0.1239,0.0571L0.1581,0.0637L0.1955,0.0693L0.2358,0.074L0.2785,0.0775L0.3232,0.0797L0.3694,0.0805L0.4167,0.0798L0.4649,0.0773L0.5137,0.0731L0.5627,0.0674L0.6118,0.0603L0.6608,0.0522L0.7091,0.0438L0.7562,0.0355L0.8011,0.0277L0.8432,0.0207L0.8816,0.0147L0.9157,0.0099L0.9446,0.0061L0.9679,0.0032L0.9853,0.0012L0.9962,0.0002L1,-0"
    />
</svg>
