
<svg 
  class="airfoil-e838"
  fill="none"
  stroke="black" 
  stroke-width="1"
  style="overflow:visible"
  viewBox="0, -0.0918, 1, 0.1836"
  xmlns="http://www.w3.org/2000/svg">
    <title>EPPLER E838 HYDROFOIL AIRFOIL</title>
    <path 
      vector-effect="non-scaling-stroke"
      d="M1,-0L0.9961,-0.0003L0.9847,-0.0014L0.9667,-0.0037L0.9426,-0.0072L0.9129,-0.0118L0.8781,-0.0177L0.839,-0.0249L0.7964,-0.0334L0.7513,-0.0427L0.7044,-0.0526L0.6566,-0.0625L0.6086,-0.0717L0.5606,-0.0796L0.5128,-0.0857L0.4652,-0.0898L0.4182,-0.0918L0.3718,-0.0918L0.3262,-0.09L0.2819,-0.0866L0.2394,-0.0818L0.199,-0.0759L0.1613,-0.069L0.1267,-0.0613L0.0955,-0.0529L0.0682,-0.044L0.045,-0.0348L0.0263,-0.0255L0.0122,-0.0163L0.0032,-0.0076L0,-0L0.0032,0.0076L0.0122,0.0163L0.0263,0.0255L0.045,0.0348L0.0682,0.044L0.0955,0.0529L0.1267,0.0613L0.1613,0.069L0.199,0.0759L0.2394,0.0818L0.2819,0.0866L0.3262,0.09L0.3718,0.0918L0.4182,0.0918L0.4651,0.0898L0.5128,0.0857L0.5606,0.0796L0.6086,0.0717L0.6566,0.0625L0.7044,0.0526L0.7513,0.0427L0.7964,0.0334L0.839,0.0249L0.8781,0.0177L0.9129,0.0118L0.9426,0.0072L0.9667,0.0037L0.9847,0.0014L0.9961,0.0003L1,-0"
    />
</svg>
