
<svg 
  class="airfoil-e850"
  fill="none"
  stroke="black" 
  stroke-width="1"
  style="overflow:visible"
  viewBox="0, -0.0507, 1, 0.0826"
  xmlns="http://www.w3.org/2000/svg">
    <title>EPPLER E850 AIRFOIL</title>
    <path 
      vector-effect="non-scaling-stroke"
      d="M1,-0.0001L0.9967,-0.0008L0.9874,-0.003L0.973,-0.0065L0.954,-0.0107L0.9303,-0.0152L0.9021,-0.0201L0.8699,-0.0253L0.8343,-0.0305L0.7956,-0.0354L0.7542,-0.0398L0.7102,-0.0433L0.664,-0.0462L0.616,-0.0483L0.5666,-0.0498L0.5164,-0.0506L0.466,-0.0507L0.4158,-0.0503L0.3665,-0.0491L0.3184,-0.0474L0.2722,-0.0451L0.2282,-0.0423L0.1871,-0.0389L0.1491,-0.0352L0.1148,-0.0311L0.0844,-0.0266L0.0584,-0.022L0.0369,-0.0171L0.0203,-0.0122L0.0084,-0.0074L0.0063,-0.0062L0.0024,-0.0035L0.0008,-0.0018L0.0001,-0.0007L0,-0L0.0002,0.0006L0.001,0.0017L0.0029,0.0033L0.0072,0.0058L0.0153,0.0089L0.0304,0.0129L0.0503,0.0167L0.0751,0.0202L0.1043,0.0234L0.1376,0.0261L0.1746,0.0285L0.2148,0.0303L0.2579,0.0315L0.3033,0.0319L0.3505,0.0312L0.3995,0.0295L0.4499,0.0267L0.5015,0.023L0.5539,0.0189L0.6064,0.0146L0.6585,0.0105L0.7092,0.0068L0.758,0.0036L0.804,0.001L0.8466,-0.0007L0.8851,-0.0018L0.9188,-0.0022L0.9472,-0.0022L0.9699,-0.0017L0.9865,-0.001L0.9966,-0.0004L1,-0.0001"
    />
</svg>
