
<svg 
  class="airfoil-e851"
  fill="none"
  stroke="black" 
  stroke-width="1"
  style="overflow:visible"
  viewBox="0, -0.0623, 1, 0.0937"
  xmlns="http://www.w3.org/2000/svg">
    <title>EPPLER E851 AIRFOIL</title>
    <path 
      vector-effect="non-scaling-stroke"
      d="M1,-0.0002L0.9967,-0.0009L0.9873,-0.0033L0.9729,-0.0072L0.9538,-0.0117L0.9299,-0.0165L0.9014,-0.0218L0.8688,-0.0276L0.8326,-0.0336L0.7934,-0.0398L0.7518,-0.0457L0.7081,-0.0509L0.6626,-0.0553L0.6155,-0.0585L0.5672,-0.0607L0.518,-0.0619L0.4684,-0.0623L0.419,-0.0618L0.3703,-0.0606L0.3228,-0.0585L0.2769,-0.0557L0.2333,-0.0523L0.1923,-0.0483L0.1544,-0.0437L0.1199,-0.0387L0.0892,-0.0333L0.0627,-0.0277L0.0407,-0.0219L0.0233,-0.016L0.0106,-0.0101L0.006,-0.0073L0.0023,-0.004L0.0007,-0.0021L0.0001,-0.0007L0,-0L0.0003,0.0007L0.0012,0.0019L0.0031,0.0036L0.0076,0.0063L0.0127,0.0084L0.0268,0.0126L0.046,0.0165L0.0699,0.0201L0.0985,0.0232L0.1312,0.026L0.1678,0.0283L0.2077,0.03L0.2505,0.0311L0.2958,0.0314L0.343,0.0306L0.392,0.0288L0.4426,0.0258L0.4944,0.0219L0.5472,0.0175L0.6003,0.0131L0.6529,0.0089L0.7043,0.0051L0.7537,0.0019L0.8005,-0.0006L0.8438,-0.0023L0.883,-0.0032L0.9173,-0.0034L0.9463,-0.003L0.9694,-0.0023L0.9863,-0.0014L0.9965,-0.0005L1,-0.0002"
    />
</svg>
