
<svg 
  class="airfoil-e852"
  fill="none"
  stroke="black" 
  stroke-width="1"
  style="overflow:visible"
  viewBox="0, -0.0732, 1, 0.1045"
  xmlns="http://www.w3.org/2000/svg">
    <title>EPPLER E852 AIRFOIL</title>
    <path 
      vector-effect="non-scaling-stroke"
      d="M1,-0.0003L0.9967,-0.0011L0.9873,-0.0037L0.9728,-0.0077L0.9536,-0.0124L0.9296,-0.0175L0.901,-0.0231L0.8681,-0.0291L0.8314,-0.0355L0.7917,-0.0422L0.7493,-0.0489L0.7049,-0.0554L0.6591,-0.0614L0.6123,-0.0663L0.5646,-0.07L0.5164,-0.0723L0.4679,-0.0732L0.4195,-0.073L0.3717,-0.0718L0.3249,-0.0696L0.2797,-0.0665L0.2366,-0.0625L0.1959,-0.0578L0.1582,-0.0525L0.1238,-0.0466L0.0931,-0.0403L0.0663,-0.0337L0.0439,-0.0269L0.0259,-0.02L0.0126,-0.0132L0.0057,-0.0082L0.0021,-0.0046L0.0006,-0.0023L0,-0.0009L0,-0L0.0003,0.0008L0.0013,0.0021L0.0034,0.004L0.0081,0.0068L0.0106,0.0079L0.024,0.0124L0.0423,0.0165L0.0656,0.0201L0.0935,0.0234L0.1257,0.0261L0.1619,0.0284L0.2015,0.0301L0.2441,0.0311L0.2892,0.0313L0.3363,0.0304L0.3854,0.0284L0.436,0.0252L0.4881,0.0211L0.5412,0.0165L0.5947,0.0119L0.6478,0.0076L0.6998,0.0037L0.7499,0.0004L0.7973,-0.0021L0.8412,-0.0037L0.881,-0.0045L0.916,-0.0045L0.9455,-0.0039L0.969,-0.0029L0.9861,-0.0017L0.9965,-0.0007L1,-0.0003"
    />
</svg>
