
<svg 
  class="airfoil-e853"
  fill="none"
  stroke="black" 
  stroke-width="1"
  style="overflow:visible"
  viewBox="0, -0.0843, 1, 0.1197"
  xmlns="http://www.w3.org/2000/svg">
    <title>EPPLER E853 AIRFOIL</title>
    <path 
      vector-effect="non-scaling-stroke"
      d="M1,0.0006L0.9966,-0.0003L0.9872,-0.0031L0.9727,-0.0075L0.9536,-0.0126L0.9296,-0.018L0.9008,-0.0238L0.8677,-0.0302L0.8308,-0.037L0.7907,-0.0442L0.7478,-0.0514L0.7028,-0.0586L0.6562,-0.0654L0.6087,-0.0717L0.5608,-0.077L0.5128,-0.081L0.4651,-0.0835L0.4177,-0.0843L0.371,-0.0835L0.3253,-0.0813L0.281,-0.078L0.2385,-0.0736L0.1985,-0.0683L0.1611,-0.0621L0.127,-0.0553L0.0963,-0.048L0.0695,-0.0402L0.0468,-0.0322L0.0284,-0.0241L0.0145,-0.0161L0.0052,-0.0085L0.0018,-0.0043L0.0005,-0.0017L0,-0L0,0.001L0.0004,0.0019L0.0015,0.0034L0.0037,0.0055L0.0087,0.0087L0.0214,0.0138L0.039,0.0185L0.0615,0.0226L0.0887,0.0263L0.1203,0.0294L0.1558,0.032L0.1948,0.0339L0.2369,0.0351L0.2814,0.0354L0.3282,0.0345L0.3768,0.0323L0.4271,0.0288L0.479,0.0241L0.5323,0.0189L0.5861,0.0136L0.6398,0.0085L0.6926,0.0041L0.7436,0.0003L0.792,-0.0025L0.837,-0.0042L0.8778,-0.0051L0.9138,-0.005L0.9441,-0.0041L0.9683,-0.0028L0.9859,-0.0012L0.9965,0L1,0.0006"
    />
</svg>
