
<svg 
  class="airfoil-e854"
  fill="none"
  stroke="black" 
  stroke-width="1"
  style="overflow:visible"
  viewBox="0, -0.0963, 1, 0.1363"
  xmlns="http://www.w3.org/2000/svg">
    <title>EPPLER E854 AIRFOIL</title>
    <path 
      vector-effect="non-scaling-stroke"
      d="M1,0.0004L0.9965,-0.0006L0.9869,-0.0039L0.9723,-0.0089L0.9533,-0.0146L0.9294,-0.0206L0.9006,-0.0269L0.8674,-0.0338L0.8304,-0.041L0.7899,-0.0486L0.7467,-0.0563L0.7012,-0.0639L0.6541,-0.0713L0.6059,-0.0782L0.5572,-0.0844L0.5086,-0.0896L0.4605,-0.0935L0.4134,-0.0958L0.3674,-0.0963L0.3228,-0.0949L0.2796,-0.0917L0.2382,-0.087L0.1989,-0.0812L0.1623,-0.0742L0.1286,-0.0664L0.0983,-0.0579L0.0716,-0.0489L0.0489,-0.0396L0.0303,-0.0301L0.016,-0.0207L0.0062,-0.0117L0.0047,-0.0099L0.0015,-0.005L0.0003,-0.002L0,-0L0.0001,0.0012L0.0005,0.0022L0.0018,0.004L0.0042,0.0063L0.0095,0.0099L0.0194,0.0145L0.0364,0.0199L0.0584,0.0248L0.085,0.0291L0.1161,0.0327L0.1511,0.0358L0.1898,0.0381L0.2315,0.0396L0.2757,0.04L0.3221,0.0393L0.3705,0.0371L0.4206,0.0334L0.4724,0.0284L0.5258,0.0227L0.5798,0.017L0.6339,0.0114L0.6871,0.0065L0.7387,0.0023L0.7878,-0.0009L0.8334,-0.003L0.8749,-0.0041L0.9115,-0.0043L0.9424,-0.0037L0.9671,-0.0026L0.9852,-0.0013L0.9963,-0.0001L1,0.0004"
    />
</svg>
