
<svg 
  class="airfoil-e855"
  fill="none"
  stroke="black" 
  stroke-width="1"
  style="overflow:visible"
  viewBox="0.0002, -0.1133, 0.9998, 0.1591"
  xmlns="http://www.w3.org/2000/svg">
    <title>EPPLER 855 AIRFOIL</title>
    <path 
      vector-effect="non-scaling-stroke"
      d="M1,-0L0.9964,-0.0012L0.9864,-0.0051L0.9717,-0.0109L0.9526,-0.0174L0.9285,-0.0242L0.8996,-0.0314L0.8661,-0.0391L0.8288,-0.0473L0.788,-0.0559L0.7445,-0.0647L0.6988,-0.0735L0.6514,-0.082L0.6031,-0.0901L0.5544,-0.0974L0.5057,-0.1037L0.4578,-0.1086L0.411,-0.112L0.3655,-0.1133L0.3216,-0.1125L0.2795,-0.1095L0.239,-0.1046L0.2006,-0.098L0.1646,-0.0901L0.1314,-0.0811L0.1013,-0.0712L0.0746,-0.0607L0.0518,-0.0497L0.0329,-0.0386L0.0181,-0.0274L0.0077,-0.0167L0.004,-0.0115L0.0012,-0.0058L0.0002,-0.0023L0.0002,0.0014L0.0007,0.0027L0.0021,0.0047L0.0049,0.0074L0.0106,0.0116L0.0167,0.0149L0.0329,0.0213L0.054,0.0271L0.0799,0.0322L0.1102,0.0366L0.1446,0.0403L0.1825,0.0432L0.2236,0.0451L0.2672,0.0458L0.3131,0.0451L0.361,0.0427L0.4109,0.0386L0.4628,0.0331L0.5163,0.0269L0.5708,0.0205L0.6255,0.0143L0.6794,0.0088L0.7319,0.004L0.7819,0.0004L0.8285,-0.0022L0.871,-0.0036L0.9085,-0.0041L0.9402,-0.0037L0.9657,-0.0028L0.9844,-0.0017L0.9961,-0.0005L1,-0"
    />
</svg>
