
<svg 
  class="airfoil-e856"
  fill="none"
  stroke="black" 
  stroke-width="1"
  style="overflow:visible"
  viewBox="0.0001, -0.1304, 0.9999, 0.183"
  xmlns="http://www.w3.org/2000/svg">
    <title>EPPLER 856 AIRFOIL</title>
    <path 
      vector-effect="non-scaling-stroke"
      d="M1,-0L0.9962,-0.0014L0.986,-0.0059L0.9711,-0.0125L0.9519,-0.0198L0.9276,-0.0273L0.8984,-0.0353L0.8647,-0.044L0.8269,-0.0532L0.7857,-0.0628L0.7418,-0.0727L0.6957,-0.0827L0.648,-0.0924L0.5994,-0.1016L0.5505,-0.1102L0.5017,-0.1176L0.4538,-0.1236L0.407,-0.128L0.362,-0.1304L0.3188,-0.1304L0.2774,-0.128L0.2381,-0.1231L0.2007,-0.1161L0.1656,-0.1073L0.1331,-0.0971L0.1035,-0.0858L0.0771,-0.0737L0.0543,-0.0609L0.0352,-0.0479L0.0202,-0.0349L0.0092,-0.0222L0.0031,-0.012L0.0007,-0.0054L0.0001,-0.0014L0.0001,0.0013L0.0004,0.0029L0.0011,0.0045L0.0027,0.0068L0.0058,0.0099L0.0121,0.0146L0.0139,0.0158L0.0292,0.0232L0.0495,0.0301L0.0746,0.0361L0.1041,0.0414L0.1377,0.0458L0.175,0.0492L0.2153,0.0516L0.2583,0.0526L0.3036,0.0519L0.3511,0.0493L0.4008,0.0449L0.4526,0.0388L0.5064,0.0319L0.5613,0.0248L0.6166,0.018L0.6714,0.0117L0.7248,0.0064L0.7757,0.0022L0.8234,-0.0008L0.8669,-0.0026L0.9053,-0.0033L0.9379,-0.0032L0.9641,-0.0026L0.9836,-0.0016L0.9958,-0.0005L1,-0"
    />
</svg>
