
<svg 
  class="airfoil-e857"
  fill="none"
  stroke="black" 
  stroke-width="1"
  style="overflow:visible"
  viewBox="0.0003, -0.1461, 0.9997, 0.205"
  xmlns="http://www.w3.org/2000/svg">
    <title>EPPLER 857 AIRFOIL</title>
    <path 
      vector-effect="non-scaling-stroke"
      d="M1,-0L0.996,-0.0017L0.9856,-0.0067L0.9707,-0.0142L0.9516,-0.0224L0.9274,-0.0306L0.8981,-0.0393L0.8642,-0.0488L0.8262,-0.0588L0.7848,-0.0692L0.7405,-0.08L0.6941,-0.0909L0.646,-0.1015L0.5971,-0.1118L0.5479,-0.1212L0.4989,-0.1296L0.4507,-0.1365L0.4038,-0.1418L0.3586,-0.1451L0.3146,-0.1461L0.2747,-0.1444L0.236,-0.14L0.1996,-0.1331L0.1654,-0.1238L0.1336,-0.1128L0.1045,-0.1004L0.0786,-0.0869L0.056,-0.0726L0.037,-0.058L0.0217,-0.0432L0.0104,-0.0286L0.0032,-0.0148L0.0021,-0.012L0.0003,-0.0046L0.0003,0.0031L0.0008,0.0049L0.0016,0.0067L0.0035,0.0093L0.0069,0.0128L0.0137,0.0181L0.0255,0.0247L0.0449,0.0326L0.0691,0.0396L0.0978,0.0456L0.1306,0.0508L0.1671,0.0548L0.2067,0.0576L0.249,0.0589L0.2937,0.0582L0.3408,0.0554L0.3902,0.0505L0.442,0.0439L0.496,0.0364L0.5514,0.0286L0.6074,0.0211L0.663,0.0142L0.7173,0.0083L0.7694,0.0036L0.8181,0.0003L0.8626,-0.0018L0.9021,-0.0028L0.9355,-0.0028L0.9625,-0.0024L0.9828,-0.0017L0.9956,-0.0006L1,-0"
    />
</svg>
