
<svg 
  class="airfoil-e858"
  fill="none"
  stroke="black" 
  stroke-width="1"
  style="overflow:visible"
  viewBox="0.0001, -0.1599, 0.9999, 0.2279"
  xmlns="http://www.w3.org/2000/svg">
    <title>EPPLER 858 AIRFOIL</title>
    <path 
      vector-effect="non-scaling-stroke"
      d="M1,-0L0.9959,-0.0018L0.9851,-0.0074L0.9701,-0.0155L0.9508,-0.0242L0.9264,-0.0329L0.8966,-0.0422L0.8622,-0.0521L0.8236,-0.0627L0.7814,-0.0738L0.7364,-0.0853L0.6891,-0.097L0.6403,-0.1085L0.5907,-0.1197L0.5408,-0.1301L0.4912,-0.1395L0.4426,-0.1475L0.3954,-0.1537L0.3499,-0.1579L0.3068,-0.1599L0.2662,-0.1593L0.2283,-0.1557L0.1929,-0.1491L0.16,-0.1399L0.1295,-0.1283L0.1016,-0.1149L0.0767,-0.1001L0.0549,-0.0843L0.0365,-0.0679L0.0217,-0.0512L0.0106,-0.0347L0.0034,-0.0188L0.0011,-0.0104L0.0001,-0.0021L0.0003,0.0031L0.0009,0.0066L0.0017,0.0087L0.0028,0.0107L0.005,0.0137L0.0089,0.0177L0.0165,0.0236L0.0232,0.0278L0.0421,0.0369L0.0657,0.0451L0.0938,0.0522L0.1259,0.0582L0.1618,0.063L0.2008,0.0664L0.2425,0.068L0.2865,0.0674L0.3331,0.0644L0.3821,0.0591L0.4338,0.0519L0.4879,0.0436L0.5436,0.035L0.6,0.0266L0.6562,0.019L0.7113,0.0123L0.7641,0.0069L0.8137,0.0028L0.859,0.0002L0.8992,-0.0012L0.9334,-0.0018L0.961,-0.0018L0.982,-0.0015L0.9954,-0.0006L1,-0"
    />
</svg>
