
<svg 
  class="airfoil-e862"
  fill="none"
  stroke="black" 
  stroke-width="1"
  style="overflow:visible"
  viewBox="0, -0.1619, 1, 0.3238"
  xmlns="http://www.w3.org/2000/svg">
    <title>EPPLER 862 STRUT AIRFOIL</title>
    <path 
      vector-effect="non-scaling-stroke"
      d="M1,-0.006L0.9962,-0.0069L0.9851,-0.0094L0.9666,-0.0136L0.9412,-0.0194L0.9091,-0.0267L0.8709,-0.0356L0.8273,-0.0459L0.7788,-0.0578L0.7262,-0.0711L0.6752,-0.0846L0.6229,-0.0985L0.5704,-0.1123L0.5183,-0.1255L0.4674,-0.1376L0.4182,-0.1479L0.3714,-0.1558L0.327,-0.1605L0.2847,-0.1619L0.2445,-0.1599L0.2065,-0.1548L0.1709,-0.1469L0.138,-0.1365L0.108,-0.1238L0.0813,-0.1092L0.0579,-0.0929L0.0382,-0.0752L0.0223,-0.0567L0.0104,-0.0376L0.0027,-0.0185L0,-0L0.0027,0.0185L0.0104,0.0376L0.0223,0.0567L0.0382,0.0752L0.0579,0.0929L0.0813,0.1092L0.108,0.1238L0.138,0.1365L0.1709,0.1469L0.2065,0.1548L0.2445,0.1599L0.2847,0.1619L0.327,0.1605L0.3714,0.1558L0.4182,0.1479L0.4674,0.1376L0.5183,0.1255L0.5704,0.1123L0.6229,0.0985L0.6752,0.0846L0.7262,0.0711L0.7788,0.0578L0.8273,0.0459L0.8709,0.0356L0.9091,0.0267L0.9412,0.0194L0.9666,0.0136L0.9851,0.0094L0.9962,0.0069L1,0.006"
    />
</svg>
