
<svg 
  class="airfoil-e863"
  fill="none"
  stroke="black" 
  stroke-width="1"
  style="overflow:visible"
  viewBox="0, -0.1787, 1, 0.3574"
  xmlns="http://www.w3.org/2000/svg">
    <title>EPPLER 863 STRUT AIRFOIL</title>
    <path 
      vector-effect="non-scaling-stroke"
      d="M1,-0.007L0.9962,-0.008L0.9849,-0.0111L0.9662,-0.0162L0.9405,-0.0232L0.908,-0.0321L0.8694,-0.0427L0.8252,-0.0549L0.7762,-0.0686L0.723,-0.0837L0.6719,-0.0985L0.6197,-0.1135L0.5673,-0.1284L0.5155,-0.1424L0.465,-0.1552L0.4165,-0.1659L0.3704,-0.1739L0.3268,-0.1782L0.2851,-0.1787L0.2453,-0.1756L0.2075,-0.1693L0.172,-0.1601L0.139,-0.1483L0.1089,-0.1342L0.082,-0.1181L0.0585,-0.1003L0.0386,-0.0812L0.0225,-0.0611L0.0105,-0.0406L0.0027,-0.02L0,-0L0.0027,0.02L0.0105,0.0406L0.0225,0.0611L0.0386,0.0812L0.0585,0.1003L0.082,0.1181L0.1089,0.1342L0.139,0.1483L0.172,0.1601L0.2075,0.1693L0.2453,0.1756L0.2851,0.1787L0.3268,0.1782L0.3704,0.1739L0.4165,0.1659L0.465,0.1552L0.5155,0.1424L0.5673,0.1284L0.6197,0.1135L0.6719,0.0985L0.723,0.0837L0.7762,0.0686L0.8252,0.0549L0.8694,0.0427L0.908,0.0321L0.9405,0.0232L0.9662,0.0162L0.9849,0.0111L0.9962,0.008L1,0.007"
    />
</svg>
