
<svg 
  class="airfoil-e864"
  fill="none"
  stroke="black" 
  stroke-width="1"
  style="overflow:visible"
  viewBox="0, -0.1941, 1, 0.3882"
  xmlns="http://www.w3.org/2000/svg">
    <title>EPPLER 864 STRUT AIRFOIL</title>
    <path 
      vector-effect="non-scaling-stroke"
      d="M1,-0.008L0.9962,-0.0092L0.9848,-0.0128L0.966,-0.0188L0.9401,-0.027L0.9074,-0.0373L0.8686,-0.0496L0.8241,-0.0636L0.7746,-0.0791L0.7209,-0.0958L0.6698,-0.1116L0.6176,-0.1275L0.5653,-0.1432L0.5138,-0.1579L0.4636,-0.1712L0.4155,-0.1822L0.37,-0.1902L0.3269,-0.1941L0.2857,-0.1939L0.2461,-0.1899L0.2084,-0.1825L0.1729,-0.1722L0.1399,-0.1592L0.1079,-0.1438L0.0826,-0.1264L0.059,-0.1073L0.0389,-0.0868L0.0227,-0.0653L0.0106,-0.0433L0.0028,-0.0214L0,-0L0.0028,0.0214L0.0106,0.0433L0.0227,0.0653L0.0389,0.0868L0.059,0.1073L0.0826,0.1264L0.1097,0.1438L0.1399,0.1592L0.1729,0.1722L0.2084,0.1825L0.2461,0.1899L0.2857,0.1939L0.3269,0.1941L0.37,0.1902L0.4155,0.1822L0.4636,0.1712L0.5138,0.1579L0.5653,0.1432L0.6176,0.1275L0.6698,0.1116L0.7209,0.0958L0.7746,0.0791L0.8241,0.0636L0.8686,0.0496L0.9077,0.0373L0.9401,0.027L0.966,0.0188L0.9848,0.0128L0.9962,0.0092L1,0.008"
    />
</svg>
