
<svg 
  class="airfoil-e874"
  fill="none"
  stroke="black" 
  stroke-width="1"
  style="overflow:visible"
  viewBox="0.0002, -0.0488, 0.9998, 0.0797"
  xmlns="http://www.w3.org/2000/svg">
    <title>EPPLER 874 HYDROFOIL AIRFOIL</title>
    <path 
      vector-effect="non-scaling-stroke"
      d="M1,-0L0.9991,-0.0001L0.9965,-0.0003L0.9923,-0.0009L0.9866,-0.0018L0.9798,-0.003L0.9717,-0.0041L0.9624,-0.0053L0.9517,-0.0065L0.9398,-0.0076L0.9265,-0.0088L0.912,-0.01L0.8963,-0.0113L0.8795,-0.0126L0.8615,-0.014L0.8426,-0.0155L0.8227,-0.017L0.8018,-0.0186L0.7801,-0.0203L0.7577,-0.022L0.7346,-0.0238L0.7108,-0.0256L0.6865,-0.0274L0.6618,-0.0292L0.6366,-0.0311L0.6112,-0.033L0.5855,-0.0348L0.5597,-0.0366L0.5338,-0.0384L0.508,-0.0401L0.4822,-0.0417L0.4566,-0.0432L0.4312,-0.0446L0.4061,-0.0458L0.3814,-0.0469L0.3572,-0.0477L0.3335,-0.0484L0.3104,-0.0487L0.288,-0.0488L0.2662,-0.0484L0.2449,-0.0476L0.2243,-0.0465L0.2042,-0.0451L0.1848,-0.0435L0.1661,-0.0416L0.1482,-0.0396L0.1311,-0.0374L0.1149,-0.035L0.0996,-0.0326L0.0853,-0.03L0.0719,-0.0273L0.0596,-0.0246L0.0483,-0.0218L0.0381,-0.019L0.0291,-0.0162L0.0212,-0.0134L0.0145,-0.0107L0.009,-0.008L0.0048,-0.0055L0.0018,-0.0031L0.0002,-0.001L0.0002,0.001L0.0019,0.0032L0.0049,0.0055L0.0092,0.0079L0.0147,0.0104L0.0213,0.0129L0.0291,0.0154L0.0381,0.0178L0.0481,0.0201L0.0592,0.0223L0.0713,0.0243L0.0845,0.026L0.0987,0.0273L0.1141,0.0284L0.1306,0.0293L0.1481,0.03L0.1667,0.0304L0.1863,0.0308L0.2068,0.0309L0.2281,0.0309L0.2503,0.0308L0.2732,0.0305L0.2968,0.0301L0.321,0.0296L0.3458,0.029L0.371,0.0283L0.3967,0.0276L0.4227,0.0268L0.449,0.0259L0.4755,0.025L0.5021,0.0241L0.5287,0.0231L0.5552,0.0221L0.5817,0.0211L0.6079,0.0201L0.6339,0.0191L0.6595,0.018L0.6864,0.017L0.7093,0.0161L0.7333,0.0151L0.7567,0.0142L0.7793,0.0132L0.8012,0.0123L0.8222,0.0115L0.8422,0.0106L0.8613,0.0098L0.8793,0.009L0.8962,0.0082L0.9119,0.0074L0.9264,0.0066L0.9397,0.0059L0.9517,0.0051L0.9623,0.0043L0.9716,0.0034L0.9797,0.0024L0.9866,0.0015L0.9922,0.0007L0.9965,0.0003L1,-0"
    />
</svg>
