
<svg 
  class="airfoil-e904"
  fill="none"
  stroke="black" 
  stroke-width="1"
  style="overflow:visible"
  viewBox="0, -0.0583, 1, 0.09"
  xmlns="http://www.w3.org/2000/svg">
    <title>EPPLER 904 AIRFOIL</title>
    <path 
      vector-effect="non-scaling-stroke"
      d="M1,-0L0.9989,-0.0001L0.9955,-0.0006L0.9902,-0.0016L0.9831,-0.0032L0.9745,-0.0051L0.9644,-0.0073L0.9529,-0.0096L0.9398,-0.012L0.9251,-0.0144L0.9089,-0.0171L0.8915,-0.02L0.8727,-0.0231L0.8528,-0.0264L0.8319,-0.0298L0.8101,-0.0333L0.7875,-0.0369L0.7643,-0.0404L0.7405,-0.0439L0.7164,-0.0469L0.6918,-0.0494L0.6664,-0.0515L0.6403,-0.0533L0.6138,-0.0548L0.5868,-0.056L0.5596,-0.0569L0.532,-0.0576L0.5043,-0.0581L0.4766,-0.0583L0.4489,-0.0583L0.4213,-0.058L0.3939,-0.0576L0.3669,-0.0569L0.3402,-0.0559L0.3141,-0.0548L0.2885,-0.0534L0.2636,-0.0518L0.2394,-0.0501L0.2161,-0.0481L0.1937,-0.046L0.1722,-0.0437L0.1518,-0.0411L0.1325,-0.0384L0.1142,-0.0355L0.0972,-0.0324L0.0813,-0.0293L0.0668,-0.0261L0.0535,-0.0229L0.0416,-0.0196L0.0312,-0.0164L0.0221,-0.0132L0.0145,-0.0101L0.0085,-0.0072L0.004,-0.0044L0.0011,-0.0019L0,-0L0.0011,0.0018L0.0041,0.004L0.0088,0.0063L0.0151,0.0087L0.0229,0.0111L0.0322,0.0134L0.0429,0.0156L0.0551,0.0176L0.0688,0.0194L0.084,0.021L0.1007,0.0224L0.1189,0.0238L0.1383,0.025L0.159,0.0261L0.1808,0.0272L0.2038,0.0281L0.2278,0.0289L0.2527,0.0296L0.2784,0.0303L0.3049,0.0308L0.3321,0.0312L0.3598,0.0315L0.388,0.0316L0.4165,0.0317L0.4453,0.0317L0.4743,0.0316L0.5034,0.0313L0.5323,0.031L0.5612,0.0305L0.5898,0.0299L0.618,0.0292L0.6459,0.0283L0.6731,0.0274L0.6998,0.0263L0.7256,0.025L0.7507,0.0236L0.7748,0.022L0.798,0.02L0.8204,0.0176L0.842,0.0151L0.8629,0.0127L0.8827,0.0104L0.9014,0.0083L0.9187,0.0065L0.9347,0.0049L0.9491,0.0035L0.9619,0.0023L0.973,0.0014L0.9823,0.0006L0.9899,0.0002L0.9955,-0L0.9988,-0L1,-0"
    />
</svg>
