
<svg 
  class="airfoil-e908"
  fill="none"
  stroke="black" 
  stroke-width="1"
  style="overflow:visible"
  viewBox="0, -0.0704, 1, 0.0935"
  xmlns="http://www.w3.org/2000/svg">
    <title>EPPLER 908 AIRFOIL</title>
    <path 
      vector-effect="non-scaling-stroke"
      d="M1,-0L0.9989,-0.0003L0.9957,-0.0011L0.9906,-0.0027L0.984,-0.005L0.9759,-0.0078L0.9666,-0.0109L0.9559,-0.0142L0.9438,-0.0176L0.9303,-0.0211L0.9155,-0.0248L0.8994,-0.0287L0.8823,-0.0328L0.8641,-0.0369L0.8451,-0.041L0.8253,-0.0449L0.8046,-0.0484L0.783,-0.0516L0.7605,-0.0545L0.7371,-0.0573L0.7129,-0.0597L0.6881,-0.062L0.6627,-0.064L0.6368,-0.0657L0.6104,-0.0672L0.5838,-0.0685L0.5568,-0.0694L0.5298,-0.0701L0.5026,-0.0704L0.4755,-0.0704L0.4485,-0.07L0.4215,-0.0693L0.3947,-0.0682L0.3682,-0.0668L0.342,-0.0652L0.3162,-0.0633L0.291,-0.0612L0.2663,-0.0588L0.2422,-0.0563L0.219,-0.0536L0.1965,-0.0507L0.175,-0.0476L0.1544,-0.0444L0.1349,-0.0411L0.1164,-0.0378L0.0991,-0.0343L0.0831,-0.0309L0.0683,-0.0274L0.0549,-0.024L0.0428,-0.0205L0.0321,-0.0171L0.0229,-0.0138L0.0152,-0.0106L0.0091,-0.0076L0.0044,-0.0048L0.0014,-0.0022L0,-0.0002L0.0008,0.0015L0.0037,0.0036L0.0083,0.0057L0.0145,0.0079L0.0222,0.0101L0.0314,0.0123L0.0421,0.0144L0.0542,0.0163L0.0677,0.018L0.0825,0.0194L0.0988,0.0205L0.1165,0.0213L0.1356,0.022L0.1561,0.0225L0.1778,0.0228L0.2007,0.023L0.2246,0.0231L0.2495,0.0231L0.2753,0.023L0.3019,0.0228L0.3292,0.0225L0.357,0.0221L0.3853,0.0215L0.414,0.0209L0.443,0.0202L0.4721,0.0194L0.5013,0.0184L0.5304,0.0172L0.5593,0.0159L0.5881,0.0141L0.6168,0.0121L0.6455,0.0099L0.674,0.0078L0.7021,0.0058L0.7297,0.0039L0.7566,0.0023L0.7828,0.0008L0.808,-0.0004L0.8322,-0.0014L0.8551,-0.0021L0.8768,-0.0026L0.8969,-0.0029L0.9155,-0.003L0.9325,-0.0028L0.9477,-0.0026L0.9611,-0.0023L0.9726,-0.0019L0.9823,-0.0015L0.9899,-0.001L0.9955,-0.0006L0.9989,-0.0002L1,-0"
    />
</svg>
