
<svg 
  class="airfoil-ebambino7"
  fill="none"
  stroke="black" 
  stroke-width="1"
  style="overflow:visible"
  viewBox="0, -0.06, 1, 0.06"
  xmlns="http://www.w3.org/2000/svg">
    <title>E. Bambino</title>
    <path 
      vector-effect="non-scaling-stroke"
      d="M1,-0.027L0.95,-0.029L0.9,-0.0325L0.8,-0.04L0.7,-0.046L0.6,-0.052L0.5,-0.058L0.4,-0.06L0.3,-0.058L0.2,-0.0555L0.15,-0.051L0.1,-0.048L0.075,-0.043L0.05,-0.036L0.025,-0.0295L0.0125,-0.016L0,-0.005L0.0125,-0.002L0.025,-0L0.05,-0L0.075,-0L0.1,-0L0.15,-0L0.2,-0L0.3,-0L0.4,-0L0.5,-0L0.6,-0L0.7,-0.001L0.8,-0.0075L0.9,-0.014L0.95,-0.018L1,-0.022"
    />
</svg>
