
<svg 
  class="airfoil-ec863914"
  fill="none"
  stroke="black" 
  stroke-width="1"
  style="overflow:visible"
  viewBox="0, -0.1061, 1, 0.147"
  xmlns="http://www.w3.org/2000/svg">
    <title>EPPLER EC 86(-3)-914 AIRFOIL</title>
    <path 
      vector-effect="non-scaling-stroke"
      d="M1,-0L0.9803,-0.0079L0.9303,-0.0289L0.8134,-0.0673L0.7123,-0.0863L0.5977,-0.0994L0.4757,-0.1061L0.3547,-0.1059L0.2972,-0.1032L0.1929,-0.0928L0.1478,-0.0851L0.1089,-0.0757L0.0484,-0.0505L0.0109,-0.023L0.0017,-0.0106L0,-0L0.0009,0.0006L0.0102,0.0078L0.0282,0.0168L0.053,0.0254L0.0845,0.0329L0.1216,0.0383L0.2155,0.0409L0.3314,0.0379L0.4594,0.0309L0.5885,0.0192L0.7166,-0.0023L0.8421,-0.0186L0.9451,-0.0152L0.9772,-0.0075L1,-0"
    />
</svg>
