
<svg 
  class="airfoil-eh0009"
  fill="none"
  stroke="black" 
  stroke-width="1"
  style="overflow:visible"
  viewBox="0, -0.045, 1, 0.09"
  xmlns="http://www.w3.org/2000/svg">
    <title>EH 0.0/9.0</title>
    <path 
      vector-effect="non-scaling-stroke"
      d="M1,-0L0.999,-0L0.9961,-0.0002L0.9911,-0.0005L0.9843,-0.0009L0.9755,-0.0016L0.9649,-0.0024L0.9524,-0.0034L0.9381,-0.0046L0.9222,-0.006L0.9045,-0.0075L0.8853,-0.0092L0.8645,-0.011L0.8423,-0.013L0.8187,-0.015L0.7939,-0.0172L0.7409,-0.0218L0.7129,-0.0242L0.6841,-0.0265L0.6545,-0.0288L0.6244,-0.031L0.5937,-0.0332L0.5627,-0.0353L0.5314,-0.0372L0.5,-0.0389L0.4686,-0.0405L0.4373,-0.0419L0.4063,-0.0431L0.3756,-0.044L0.3455,-0.0446L0.3159,-0.045L0.2871,-0.045L0.2591,-0.0447L0.2321,-0.0441L0.2061,-0.0432L0.1813,-0.042L0.1577,-0.0404L0.1355,-0.0385L0.1147,-0.0362L0.0955,-0.0337L0.0778,-0.0309L0.0619,-0.0278L0.0476,-0.0245L0.0351,-0.0209L0.0245,-0.0173L0.0157,-0.0135L0.0089,-0.0098L0.0039,-0.0062L0.001,-0.0029L0,-0L0.001,0.0029L0.0039,0.0062L0.0089,0.0098L0.0157,0.0135L0.0245,0.0173L0.0351,0.0209L0.0476,0.0245L0.0619,0.0278L0.0778,0.0309L0.0955,0.0337L0.1147,0.0362L0.1355,0.0385L0.1577,0.0404L0.1813,0.042L0.2061,0.0432L0.2321,0.0441L0.2591,0.0447L0.2871,0.045L0.3159,0.045L0.3455,0.0446L0.3756,0.044L0.4063,0.0431L0.4373,0.0419L0.4686,0.0405L0.5,0.0389L0.5314,0.0372L0.5627,0.0353L0.5937,0.0332L0.6244,0.031L0.6545,0.0288L0.6841,0.0265L0.7129,0.0242L0.7409,0.0218L0.7679,0.0195L0.7939,0.0172L0.8187,0.015L0.8423,0.013L0.8645,0.011L0.8853,0.0092L0.9045,0.0075L0.9222,0.006L0.9381,0.0046L0.9524,0.0034L0.9649,0.0024L0.9755,0.0016L0.9843,0.0009L0.9911,0.0005L0.9961,0.0002L0.999,0L1,-0"
    />
</svg>
