
<svg 
  class="airfoil-eh1070"
  fill="none"
  stroke="black" 
  stroke-width="1"
  style="overflow:visible"
  viewBox="0, -0.0449, 1, 0.0704"
  xmlns="http://www.w3.org/2000/svg">
    <title>Eh 1.0/7.0</title>
    <path 
      vector-effect="non-scaling-stroke"
      d="M1,-0L0.999,-0L0.9961,-0.0001L0.9911,-0.0004L0.9843,-0.0007L0.9755,-0.0012L0.9649,-0.0019L0.9524,-0.0027L0.9381,-0.0036L0.9222,-0.0047L0.9045,-0.0059L0.8853,-0.0072L0.8645,-0.0087L0.8423,-0.0104L0.8187,-0.0122L0.7939,-0.0141L0.7679,-0.0161L0.7409,-0.0182L0.7129,-0.0204L0.6841,-0.0226L0.6545,-0.0249L0.6244,-0.0273L0.5937,-0.0296L0.5627,-0.0319L0.5314,-0.0341L0.5,-0.0362L0.4686,-0.0382L0.4373,-0.04L0.4063,-0.0416L0.3757,-0.0429L0.3455,-0.0439L0.3155,-0.0446L0.2871,-0.0449L0.2591,-0.0448L0.2321,-0.0443L0.2061,-0.0434L0.1813,-0.0421L0.1577,-0.0404L0.1352,-0.0382L0.1147,-0.0357L0.0955,-0.0329L0.0778,-0.0298L0.0619,-0.0265L0.0476,-0.0229L0.0351,-0.0193L0.0245,-0.0156L0.0157,-0.0119L0.0089,-0.0084L0.0039,-0.0053L0.001,-0.0025L0,-0L0.001,0.0023L0.0039,0.0045L0.0089,0.0068L0.0157,0.0091L0.0245,0.0113L0.0351,0.0133L0.0476,0.0151L0.0619,0.0168L0.0778,0.0182L0.0955,0.0195L0.1147,0.0206L0.1352,0.0216L0.1577,0.0225L0.1813,0.0232L0.2061,0.0238L0.2321,0.0244L0.2591,0.0248L0.2871,0.0251L0.3155,0.0254L0.3455,0.0255L0.3757,0.0255L0.4063,0.0254L0.4373,0.0252L0.4686,0.0248L0.5,0.0244L0.5314,0.0237L0.5627,0.0229L0.5937,0.022L0.6244,0.021L0.6545,0.0198L0.6841,0.0185L0.7129,0.0172L0.7409,0.0157L0.7679,0.0143L0.7939,0.0127L0.8187,0.0112L0.8423,0.0096L0.8645,0.0083L0.8853,0.007L0.9045,0.0057L0.9222,0.0046L0.9381,0.0036L0.9524,0.0026L0.9649,0.0019L0.9755,0.0012L0.9843,0.0007L0.9911,0.0004L0.9961,0.0001L0.999,0L1,-0"
    />
</svg>
