
<svg 
  class="airfoil-eh1090"
  fill="none"
  stroke="black" 
  stroke-width="1"
  style="overflow:visible"
  viewBox="0, -0.0548, 1, 0.0902"
  xmlns="http://www.w3.org/2000/svg">
    <title>EH 1.0/9.0</title>
    <path 
      vector-effect="non-scaling-stroke"
      d="M1,-0L0.9961,-0.0002L0.9911,-0.0004L0.9843,-0.0009L0.9755,-0.0015L0.9649,-0.0024L0.9524,-0.0034L0.9382,-0.0046L0.9222,-0.006L0.9045,-0.0075L0.8853,-0.0093L0.8645,-0.0112L0.8423,-0.0132L0.8187,-0.0155L0.7939,-0.0179L0.7679,-0.0204L0.7409,-0.023L0.7129,-0.0257L0.6841,-0.0285L0.6545,-0.0313L0.6243,-0.0341L0.5937,-0.0369L0.5627,-0.0397L0.5314,-0.0423L0.5,-0.0448L0.4686,-0.0471L0.4373,-0.0492L0.4063,-0.0511L0.3757,-0.0526L0.3455,-0.0537L0.3159,-0.0545L0.2871,-0.0548L0.2591,-0.0547L0.2321,-0.054L0.2061,-0.0529L0.1812,-0.0513L0.1577,-0.0493L0.1355,-0.0467L0.1147,-0.0437L0.0955,-0.0403L0.0778,-0.0366L0.0615,-0.0326L0.0476,-0.0283L0.0351,-0.0239L0.0245,-0.0194L0.0157,-0.0149L0.0089,-0.0106L0.0039,-0.0067L0.001,-0.0031L0,-0L0.001,0.003L0.0039,0.0059L0.0089,0.009L0.0157,0.0121L0.0245,0.0151L0.0351,0.0179L0.0476,0.0205L0.0615,0.0229L0.0778,0.0251L0.0955,0.027L0.1147,0.0287L0.1355,0.0302L0.1577,0.0314L0.1813,0.0325L0.2061,0.0334L0.2321,0.0342L0.2591,0.0347L0.2871,0.0351L0.3159,0.0353L0.3455,0.0354L0.3757,0.0353L0.4063,0.035L0.4373,0.0345L0.4696,0.0338L0.5,0.033L0.5314,0.032L0.5627,0.0308L0.5936,0.0294L0.6243,0.0279L0.6545,0.0262L0.6841,0.0244L0.7129,0.0225L0.7409,0.0206L0.7679,0.0186L0.7939,0.0166L0.8187,0.0146L0.8423,0.0126L0.8645,0.0108L0.8853,0.009L0.9045,0.0074L0.9222,0.0059L0.9382,0.0046L0.9524,0.0034L0.9649,0.0024L0.9755,0.0015L0.9843,0.0009L0.9911,0.0004L0.9961,0.0002L1,-0"
    />
</svg>
