
<svg 
  class="airfoil-eh1590"
  fill="none"
  stroke="black" 
  stroke-width="1"
  style="overflow:visible"
  viewBox="0, -0.0597, 1, 0.0907"
  xmlns="http://www.w3.org/2000/svg">
    <title>EH 1.5/9.0</title>
    <path 
      vector-effect="non-scaling-stroke"
      d="M1,-0L0.9961,-0.0002L0.9911,-0.0005L0.9843,-0.0009L0.9755,-0.0016L0.9649,-0.0024L0.9524,-0.0034L0.9382,-0.0046L0.9222,-0.006L0.9045,-0.0076L0.8853,-0.0093L0.8645,-0.0113L0.8423,-0.0134L0.8187,-0.0157L0.7939,-0.0182L0.7679,-0.0209L0.7409,-0.0236L0.7129,-0.0265L0.6841,-0.0295L0.6545,-0.0326L0.6243,-0.0357L0.5937,-0.0388L0.5627,-0.0419L0.5314,-0.0449L0.5,-0.0478L0.4686,-0.0505L0.4373,-0.0529L0.4063,-0.0551L0.3757,-0.0569L0.3455,-0.0583L0.3159,-0.0593L0.2871,-0.0597L0.2591,-0.0596L0.2321,-0.059L0.2061,-0.0578L0.1813,-0.056L0.1577,-0.0537L0.1355,-0.0509L0.1147,-0.0475L0.0955,-0.0437L0.0778,-0.0395L0.0618,-0.035L0.0476,-0.0303L0.0351,-0.0254L0.0245,-0.0205L0.0157,-0.0156L0.0089,-0.011L0.0039,-0.0069L0.001,-0.0032L0,-0L0.001,0.0029L0.0039,0.0057L0.0089,0.0086L0.0157,0.0114L0.0245,0.014L0.0351,0.0164L0.0476,0.0186L0.0618,0.0205L0.0778,0.0222L0.0955,0.0237L0.1147,0.0249L0.1355,0.026L0.1577,0.027L0.1813,0.0278L0.2061,0.0286L0.2321,0.0292L0.2591,0.0298L0.2871,0.0302L0.3159,0.0306L0.3455,0.0308L0.3757,0.031L0.4063,0.031L0.4373,0.0308L0.4686,0.0305L0.5,0.0301L0.5314,0.0294L0.5627,0.0286L0.5937,0.0275L0.6243,0.0263L0.6545,0.0249L0.6841,0.0234L0.7129,0.0217L0.7409,0.02L0.7679,0.0181L0.7939,0.0162L0.8187,0.0143L0.8423,0.0125L0.8645,0.0107L0.8853,0.009L0.9045,0.0074L0.9222,0.0059L0.9382,0.0046L0.9524,0.0034L0.9649,0.0024L0.9755,0.0016L0.9843,0.0009L0.9911,0.0005L0.9961,0.0002L1,-0"
    />
</svg>
