
<svg 
  class="airfoil-eh2010"
  fill="none"
  stroke="black" 
  stroke-width="1"
  style="overflow:visible"
  viewBox="0, -0.0701, 1, 0.1023"
  xmlns="http://www.w3.org/2000/svg">
    <title>EH 2.0/10</title>
    <path 
      vector-effect="non-scaling-stroke"
      d="M1,-0L0.999,-0L0.9961,-0.0002L0.9911,-0.0005L0.9843,-0.001L0.9755,-0.0018L0.9649,-0.0027L0.9524,-0.0039L0.9382,-0.0052L0.9222,-0.0068L0.9045,-0.0085L0.8853,-0.0105L0.8645,-0.0127L0.8423,-0.0151L0.8187,-0.0178L0.7939,-0.0206L0.7679,-0.0237L0.7409,-0.0269L0.7129,-0.0302L0.6841,-0.0337L0.6545,-0.0374L0.6243,-0.041L0.5937,-0.0447L0.5627,-0.0484L0.5314,-0.052L0.5,-0.0555L0.4686,-0.0587L0.4373,-0.0617L0.4063,-0.0643L0.3757,-0.0666L0.3455,-0.0683L0.3159,-0.0695L0.2871,-0.0701L0.2591,-0.0701L0.2321,-0.0694L0.2061,-0.068L0.1813,-0.0659L0.1577,-0.0631L0.1355,-0.0597L0.1147,-0.0557L0.0955,-0.0511L0.0778,-0.0461L0.0618,-0.0408L0.0476,-0.0352L0.0351,-0.0294L0.0245,-0.0236L0.0157,-0.018L0.0089,-0.0126L0.0039,-0.0077L0.001,-0.0034L0,-0L0.001,0.003L0.0039,0.0062L0.0089,0.0094L0.0157,0.0123L0.0245,0.015L0.0351,0.0175L0.0476,0.0196L0.0618,0.0214L0.0778,0.023L0.0955,0.0243L0.1147,0.0255L0.1355,0.0265L0.1577,0.0274L0.1813,0.0281L0.2061,0.0289L0.2321,0.0295L0.2591,0.0301L0.2871,0.0307L0.3159,0.0312L0.3455,0.0316L0.3757,0.0319L0.4063,0.0321L0.4373,0.0322L0.4686,0.0321L0.5,0.0318L0.5314,0.0313L0.5627,0.0306L0.5937,0.0296L0.6243,0.0285L0.6545,0.0271L0.6841,0.0256L0.7129,0.0238L0.7409,0.022L0.7679,0.02L0.7939,0.018L0.8187,0.0159L0.8423,0.0139L0.8645,0.0119L0.8853,0.01L0.9045,0.0082L0.9222,0.0066L0.9382,0.0051L0.9524,0.0038L0.9649,0.0027L0.9755,0.0018L0.9843,0.001L0.9911,0.0005L0.9961,0.0002L0.999,0L1,-0"
    />
</svg>
