
<svg 
  class="airfoil-eh2012"
  fill="none"
  stroke="black" 
  stroke-width="1"
  style="overflow:visible"
  viewBox="0, -0.0796, 1, 0.1209"
  xmlns="http://www.w3.org/2000/svg">
    <title>EH 2.0/12</title>
    <path 
      vector-effect="non-scaling-stroke"
      d="M1,-0L0.999,-0.0001L0.9961,-0.0002L0.9911,-0.0006L0.9843,-0.0012L0.9755,-0.0021L0.9649,-0.0032L0.9524,-0.0046L0.9381,-0.0062L0.9222,-0.008L0.9045,-0.0101L0.8853,-0.0124L0.8645,-0.015L0.8423,-0.0179L0.8187,-0.021L0.7939,-0.0243L0.7679,-0.0278L0.7409,-0.0315L0.7129,-0.0354L0.6841,-0.0394L0.6545,-0.0435L0.6244,-0.0476L0.5937,-0.0518L0.5627,-0.0559L0.5314,-0.0599L0.5,-0.0637L0.4686,-0.0673L0.4373,-0.0706L0.4063,-0.0735L0.3757,-0.0759L0.3455,-0.0777L0.3159,-0.079L0.2871,-0.0796L0.2591,-0.0795L0.2321,-0.0787L0.2061,-0.0771L0.1813,-0.0747L0.1577,-0.0716L0.1355,-0.0678L0.1147,-0.0633L0.0955,-0.0582L0.0778,-0.0527L0.0619,-0.0467L0.0476,-0.0404L0.0351,-0.0338L0.0245,-0.0273L0.0157,-0.0208L0.0089,-0.0147L0.0039,-0.0092L0.001,-0.0043L0,-0L0.001,0.0039L0.0039,0.0077L0.0089,0.0114L0.0157,0.0152L0.0245,0.0187L0.0351,0.0219L0.0476,0.0248L0.0619,0.0274L0.0778,0.0296L0.0955,0.0315L0.1147,0.0332L0.1355,0.0347L0.1577,0.036L0.1813,0.0371L0.2061,0.0381L0.2321,0.0389L0.2591,0.0397L0.2871,0.0403L0.3159,0.0408L0.3455,0.0411L0.3757,0.0413L0.4063,0.0413L0.4373,0.0411L0.4686,0.0407L0.5,0.0401L0.5314,0.0392L0.5627,0.0381L0.5937,0.0367L0.6244,0.0351L0.6545,0.0332L0.6841,0.0312L0.7129,0.029L0.7409,0.0266L0.7679,0.0242L0.7939,0.0216L0.8187,0.0191L0.8423,0.0166L0.8645,0.0142L0.8853,0.0119L0.9045,0.0098L0.9222,0.0078L0.9381,0.0061L0.9524,0.0045L0.9649,0.0032L0.9755,0.0021L0.9843,0.0012L0.9911,0.0006L0.9961,0.0002L0.999,0.0001L1,-0"
    />
</svg>
