
<svg 
  class="airfoil-eh2070"
  fill="none"
  stroke="black" 
  stroke-width="1"
  style="overflow:visible"
  viewBox="0, -0.0547, 1, 0.0733"
  xmlns="http://www.w3.org/2000/svg">
    <title>EH 2.0/7.0</title>
    <path 
      vector-effect="non-scaling-stroke"
      d="M1,-0L0.999,-0L0.9961,-0.0001L0.9911,-0.0004L0.9843,-0.0007L0.9755,-0.0012L0.9649,-0.0019L0.9524,-0.0027L0.9381,-0.0036L0.9222,-0.0047L0.9045,-0.006L0.8853,-0.0074L0.8645,-0.0089L0.8423,-0.0108L0.8187,-0.0126L0.7939,-0.0147L0.7679,-0.017L0.7409,-0.0194L0.7129,-0.022L0.6841,-0.0247L0.6545,-0.0275L0.6244,-0.0304L0.5937,-0.0334L0.5627,-0.0363L0.5314,-0.0393L0.5,-0.0421L0.4686,-0.0448L0.4373,-0.0473L0.4063,-0.0496L0.3757,-0.0515L0.3455,-0.053L0.3155,-0.0541L0.2871,-0.0547L0.2591,-0.0547L0.2321,-0.0542L0.2061,-0.0531L0.1813,-0.0515L0.1577,-0.0492L0.1352,-0.0465L0.1147,-0.0432L0.0955,-0.0396L0.0778,-0.0355L0.0619,-0.0313L0.0476,-0.0268L0.0351,-0.0222L0.0245,-0.0177L0.0157,-0.0133L0.0089,-0.0093L0.0039,-0.0056L0.001,-0.0026L0,-0L0.001,0.0022L0.0039,0.0042L0.0089,0.006L0.0157,0.0077L0.0245,0.0091L0.0351,0.0103L0.0476,0.0113L0.0619,0.012L0.0778,0.0125L0.0955,0.0128L0.1147,0.0131L0.1355,0.0134L0.1577,0.0136L0.1813,0.0138L0.2061,0.0141L0.2321,0.0145L0.2591,0.0149L0.2871,0.0153L0.3159,0.0158L0.3455,0.0164L0.3757,0.0169L0.4063,0.0174L0.4373,0.0179L0.4686,0.0182L0.5,0.0185L0.5314,0.0186L0.5627,0.0185L0.5937,0.0183L0.6244,0.0179L0.6545,0.0173L0.6841,0.0165L0.7129,0.0156L0.7409,0.0145L0.7679,0.0133L0.7939,0.0121L0.8187,0.0108L0.8423,0.0092L0.8645,0.0081L0.8853,0.0069L0.9045,0.0057L0.9222,0.0046L0.9381,0.0035L0.9524,0.0026L0.9649,0.0019L0.9755,0.0012L0.9843,0.0007L0.9911,0.0004L0.9961,0.0001L0.999,0L1,-0"
    />
</svg>
