
<svg 
  class="airfoil-eh2510"
  fill="none"
  stroke="black" 
  stroke-width="1"
  style="overflow:visible"
  viewBox="0, -0.0746, 1, 0.1031"
  xmlns="http://www.w3.org/2000/svg">
    <title>EH 2.5/10</title>
    <path 
      vector-effect="non-scaling-stroke"
      d="M1,-0L0.99,-0.0008L0.98,-0.0017L0.97,-0.0026L0.95,-0.0043L0.925,-0.0066L0.9,-0.0091L0.875,-0.0116L0.85,-0.0143L0.825,-0.0171L0.8,-0.0201L0.775,-0.0231L0.75,-0.0261L0.725,-0.0293L0.7,-0.0325L0.675,-0.0357L0.65,-0.0389L0.6,-0.0455L0.55,-0.0519L0.5,-0.058L0.45,-0.0636L0.4,-0.0685L0.35,-0.0722L0.3,-0.0743L0.275,-0.0746L0.25,-0.0744L0.225,-0.0735L0.2,-0.0719L0.175,-0.0694L0.15,-0.0659L0.125,-0.0613L0.1,-0.0553L0.075,-0.0477L0.05,-0.038L0.035,-0.0306L0.025,-0.0249L0.02,-0.0216L0.015,-0.018L0.0125,-0.016L0.01,-0.014L0.0075,-0.0117L0.005,-0.0092L0.004,-0.009L0.003,-0.0068L0.0025,-0.0061L0.002,-0.0054L0.0015,-0.0046L0.001,-0.0037L0.0005,-0.0026L0,-0.0003L0.0005,0.0019L0.001,0.0029L0.0015,0.0037L0.002,0.0043L0.0025,0.0049L0.003,0.0054L0.004,0.0062L0.005,0.007L0.0075,0.0083L0.01,0.0094L0.0125,0.0103L0.015,0.0111L0.02,0.0126L0.025,0.0139L0.035,0.0158L0.05,0.0177L0.075,0.0197L0.1,0.0209L0.125,0.0217L0.15,0.0224L0.175,0.023L0.2,0.0235L0.225,0.024L0.25,0.0246L0.275,0.0251L0.3,0.0256L0.35,0.0267L0.4,0.0276L0.45,0.0282L0.5,0.0285L0.55,0.0282L0.6,0.0273L0.65,0.0257L0.675,0.0247L0.7,0.0235L0.72,0.0221L0.75,0.0206L0.775,0.0189L0.8,0.017L0.825,0.015L0.85,0.013L0.875,0.0109L0.9,0.0087L0.925,0.0066L0.95,0.0044L0.97,0.0026L0.98,0.0018L0.99,0.0009L1,-0"
    />
</svg>
