
<svg 
  class="airfoil-eh3012"
  fill="none"
  stroke="black" 
  stroke-width="1"
  style="overflow:visible"
  viewBox="0, -0.0896, 1, 0.123799995"
  xmlns="http://www.w3.org/2000/svg">
    <title>EH 3.0/12</title>
    <path 
      vector-effect="non-scaling-stroke"
      d="M1,-0L0.99,-0.0007L0.98,-0.0016L0.97,-0.0026L0.95,-0.0048L0.925,-0.0077L0.9,-0.0107L0.875,-0.0139L0.85,-0.0172L0.825,-0.0205L0.8,-0.0241L0.775,-0.0277L0.75,-0.0314L0.725,-0.0351L0.7,-0.039L0.675,-0.0428L0.65,-0.0468L0.6,-0.0546L0.55,-0.0623L0.5,-0.0696L0.45,-0.0764L0.4,-0.0822L0.35,-0.0866L0.3,-0.0892L0.275,-0.0896L0.25,-0.0893L0.225,-0.0882L0.2,-0.0863L0.175,-0.0833L0.15,-0.0791L0.125,-0.0736L0.1,-0.0664L0.075,-0.0573L0.05,-0.0455L0.035,-0.0367L0.025,-0.0298L0.02,-0.0259L0.015,-0.0216L0.0125,-0.0192L0.01,-0.0167L0.0075,-0.014L0.005,-0.0109L0.004,-0.0096L0.003,-0.0091L0.0025,-0.0073L0.002,-0.0065L0.0015,-0.0056L0.001,-0.0046L0.0005,-0.0033L0,-0.001L0,-0L0,-0.001L0.0005,0.0024L0.001,0.0036L0.0015,0.0044L0.002,0.0052L0.0025,0.0059L0.003,0.0065L0.004,0.0075L0.005,0.0083L0.0075,0.0099L0.01,0.0113L0.0125,0.0124L0.015,0.0134L0.02,0.015L0.025,0.0165L0.035,0.0189L0.05,0.0212L0.075,0.0236L0.1,0.0251L0.125,0.026L0.15,0.0268L0.175,0.0274L0.2,0.028L0.225,0.0287L0.25,0.0293L0.275,0.03L0.3,0.0306L0.35,0.0319L0.4,0.0331L0.45,0.034L0.5,0.0342L0.55,0.0338L0.6,0.0327L0.65,0.0309L0.675,0.0297L0.7,0.0282L0.725,0.0266L0.75,0.0247L0.775,0.0226L0.8,0.0204L0.825,0.0181L0.85,0.0157L0.875,0.0132L0.9,0.0106L0.925,0.008L0.95,0.0054L0.97,0.0032L0.98,0.0022L0.99,0.0011L1,-0"
    />
</svg>
