
<svg 
  class="airfoil-eiffel10"
  fill="none"
  stroke="black" 
  stroke-width="1"
  style="overflow:visible"
  viewBox="0, -0.0718, 1, 0.0718"
  xmlns="http://www.w3.org/2000/svg">
    <title>Eiffel 10 (Wright) - 1903 Wright Flyer airfoil</title>
    <path 
      vector-effect="non-scaling-stroke"
      d="M1,-0.0064L0.95,-0.0143L0.9,-0.022L0.8,-0.037L0.7,-0.051L0.6,-0.0623L0.5,-0.0693L0.4,-0.0718L0.3,-0.0701L0.2,-0.0614L0.15,-0.055L0.1,-0.0468L0.075,-0.0423L0.05,-0.0375L0.025,-0.0323L0.0125,-0.0296L0,-0.0273L0,-0L0.0125,-0.0032L0.025,-0.006L0.05,-0.0117L0.075,-0.017L0.1,-0.0223L0.15,-0.0315L0.2,-0.039L0.3,-0.0486L0.4,-0.0527L0.5,-0.0518L0.6,-0.0456L0.7,-0.037L0.8,-0.0255L0.9,-0.0127L0.95,-0.0065L1,-0"
    />
</svg>
