
<svg 
  class="airfoil-eiffel385"
  fill="none"
  stroke="black" 
  stroke-width="1"
  style="overflow:visible"
  viewBox="0, -0.1403, 1, 0.1403"
  xmlns="http://www.w3.org/2000/svg">
    <title>Eiffel 385 (S.T. Ae)</title>
    <path 
      vector-effect="non-scaling-stroke"
      d="M1,-0L0.95,-0.0165L0.9,-0.0313L0.8,-0.059L0.7,-0.0833L0.6,-0.1042L0.5,-0.1229L0.4,-0.1354L0.3,-0.1403L0.2,-0.1363L0.15,-0.129L0.1,-0.1167L0.075,-0.1085L0.05,-0.098L0.025,-0.085L0.0125,-0.0749L0,-0.0521L0.0125,-0.0303L0.025,-0.0225L0.05,-0.0125L0.075,-0.0065L0.1,-0.0035L0.15,-0.0005L0.2,-0.0028L0.3,-0.0083L0.4,-0.0153L0.5,-0.0174L0.6,-0.0174L0.7,-0.016L0.8,-0.0125L0.9,-0.0069L0.95,-0.0025L1,-0"
    />
</svg>
