
<svg 
  class="airfoil-eiffel371"
  fill="none"
  stroke="black" 
  stroke-width="1"
  style="overflow:visible"
  viewBox="0, -0.1447, 1, 0.14400001"
  xmlns="http://www.w3.org/2000/svg">
    <title>Eiffel 371 (Monge)</title>
    <path 
      vector-effect="non-scaling-stroke"
      d="M1,-0.0395L0.95,-0.0522L0.9,-0.0638L0.8,-0.0855L0.7,-0.1033L0.6,-0.1188L0.5,-0.1322L0.4,-0.1421L0.3,-0.1447L0.2,-0.1395L0.15,-0.132L0.1,-0.1195L0.075,-0.111L0.05,-0.0983L0.025,-0.08L0.0125,-0.066L0,-0.0395L0.0125,-0.0304L0.025,-0.026L0.05,-0.02L0.075,-0.0162L0.1,-0.0132L0.15,-0.0088L0.2,-0.0053L0.3,-0.0007L0.4,-0.0013L0.5,-0.0046L0.6,-0.0099L0.7,-0.0045L0.8,-0.0224L0.9,-0.0288L0.95,-0.0345L1,-0.0395"
    />
</svg>
