
<svg 
  class="airfoil-eiffel430"
  fill="none"
  stroke="black" 
  stroke-width="1"
  style="overflow:visible"
  viewBox="0, -0.11, 1, 0.11"
  xmlns="http://www.w3.org/2000/svg">
    <title>Eiffel 430 (Lachassgne)</title>
    <path 
      vector-effect="non-scaling-stroke"
      d="M1,-0.005L0.95,-0.0169L0.9,-0.028L0.8,-0.051L0.7,-0.07L0.6,-0.086L0.5,-0.102L0.4,-0.11L0.3,-0.102L0.2,-0.106L0.15,-0.1017L0.1,-0.091L0.075,-0.0848L0.05,-0.0757L0.025,-0.0621L0.0125,-0.0509L0,-0.027L0.0125,-0.009L0.025,-0.0042L0.05,-0.0014L0.075,-0L0.1,-0.001L0.15,-0.0048L0.2,-0.012L0.3,-0.016L0.4,-0.016L0.5,-0.014L0.6,-0.011L0.7,-0.006L0.8,-0.003L0.9,-0L0.95,-0.0014L1,-0.005"
    />
</svg>
