
<svg 
  class="airfoil-esa40"
  fill="none"
  stroke="black" 
  stroke-width="1"
  style="overflow:visible"
  viewBox="0, -0.0702, 1, 0.114700004"
  xmlns="http://www.w3.org/2000/svg">
    <title>ESA40</title>
    <path 
      vector-effect="non-scaling-stroke"
      d="M1,-0.0044L0.9975,-0.0045L0.9907,-0.0046L0.9804,-0.0045L0.967,-0.0042L0.9504,-0.0037L0.9306,-0.0032L0.9078,-0.0024L0.882,-0.0016L0.8537,-0.0021L0.8231,-0.0056L0.7905,-0.0102L0.7562,-0.0151L0.7204,-0.0203L0.6836,-0.0256L0.6459,-0.0308L0.6078,-0.0358L0.5694,-0.0406L0.531,-0.0454L0.4927,-0.0498L0.4543,-0.054L0.4164,-0.0577L0.3789,-0.061L0.342,-0.064L0.3061,-0.0664L0.2712,-0.0683L0.2376,-0.0695L0.2055,-0.0702L0.175,-0.0702L0.1465,-0.0694L0.12,-0.0676L0.0958,-0.0644L0.074,-0.0598L0.0547,-0.0535L0.0381,-0.046L0.0243,-0.0376L0.0134,-0.0283L0.0055,-0.0172L0.001,-0.006L0,-0L0.001,0.004L0.0055,0.0075L0.0134,0.0104L0.0243,0.0136L0.0381,0.0168L0.0547,0.0197L0.074,0.0224L0.0958,0.025L0.12,0.0275L0.1465,0.0297L0.175,0.0319L0.2055,0.0344L0.2376,0.0368L0.2712,0.0389L0.3061,0.0407L0.342,0.0422L0.3789,0.0435L0.4164,0.0443L0.4543,0.0445L0.4927,0.0441L0.531,0.0432L0.5694,0.042L0.6078,0.0402L0.6459,0.0382L0.6836,0.036L0.7204,0.0339L0.7562,0.0319L0.7905,0.0298L0.8231,0.0274L0.8537,0.0241L0.882,0.0203L0.9078,0.0167L0.9306,0.0137L0.9504,0.0111L0.967,0.0088L0.9804,0.0068L0.9907,0.0054L0.9975,0.0046L0.9999,0.0044"
    />
</svg>
