
<svg 
  class="airfoil-falcon"
  fill="none"
  stroke="black" 
  stroke-width="1"
  style="overflow:visible"
  viewBox="0, -0.0832, 1, 0.1371"
  xmlns="http://www.w3.org/2000/svg">
    <title>Falcon</title>
    <path 
      vector-effect="non-scaling-stroke"
      d="M1,-0.0013L0.9975,-0.0028L0.9907,-0.0056L0.9804,-0.008L0.967,-0.0097L0.9504,-0.0115L0.9306,-0.0141L0.9078,-0.0175L0.882,-0.0216L0.8537,-0.0261L0.8231,-0.0308L0.7905,-0.0356L0.7562,-0.0405L0.7204,-0.0454L0.6836,-0.0502L0.6459,-0.055L0.6078,-0.0595L0.5694,-0.064L0.531,-0.0682L0.4927,-0.072L0.4543,-0.0755L0.4164,-0.0784L0.3789,-0.0807L0.342,-0.0823L0.3061,-0.0832L0.2712,-0.0831L0.2376,-0.0822L0.2055,-0.0802L0.175,-0.0771L0.1465,-0.0731L0.12,-0.0681L0.0958,-0.0622L0.074,-0.0552L0.0547,-0.0471L0.0381,-0.0381L0.0243,-0.0287L0.0134,-0.0198L0.0055,-0.0117L0.001,-0.0044L0,0.0007L0.001,0.0057L0.0055,0.0122L0.0134,0.018L0.0243,0.0233L0.0381,0.028L0.0547,0.0323L0.074,0.0359L0.0958,0.039L0.12,0.0416L0.1465,0.044L0.175,0.0464L0.2055,0.0487L0.2376,0.0509L0.2712,0.0526L0.3061,0.0536L0.342,0.0539L0.3789,0.0537L0.4164,0.053L0.4543,0.0519L0.4927,0.0504L0.531,0.0486L0.5694,0.0464L0.6078,0.044L0.6459,0.0413L0.6836,0.0383L0.7204,0.035L0.7562,0.0316L0.7905,0.0281L0.8231,0.0246L0.8537,0.0213L0.882,0.0182L0.9078,0.0153L0.9306,0.0127L0.9504,0.0106L0.967,0.0092L0.9804,0.008L0.9907,0.0059L0.9975,0.003L1,0.0016"
    />
</svg>
