
<svg 
  class="airfoil-fauvel"
  fill="none"
  stroke="black" 
  stroke-width="1"
  style="overflow:visible"
  viewBox="0, -0.0953, 1, 0.1435"
  xmlns="http://www.w3.org/2000/svg">
    <title>FAUVEL 14% AIRFOIL</title>
    <path 
      vector-effect="non-scaling-stroke"
      d="M1,0L0.9002,-0.0071L0.8004,-0.0157L0.7007,-0.028L0.601,-0.0437L0.5014,-0.0644L0.4018,-0.0812L0.3021,-0.0928L0.2521,-0.0953L0.2022,-0.0942L0.1521,-0.0885L0.102,-0.077L0.0769,-0.0689L0.0518,-0.058L0.0266,-0.0426L0.0139,-0.0315L0.0011,-0.0074L0,-0L0.0009,0.0063L0.0132,0.0197L0.0256,0.0243L0.0505,0.0302L0.0754,0.0341L0.1004,0.0369L0.1502,0.0415L0.2002,0.0438L0.2501,0.0445L0.3,0.0453L0.3999,0.0467L0.4998,0.0482L0.5997,0.0452L0.6997,0.0383L0.7998,0.0283L0.8999,0.0153L1,0"
    />
</svg>
