
<svg 
  class="airfoil-fg1"
  fill="none"
  stroke="black" 
  stroke-width="1"
  style="overflow:visible"
  viewBox="0, -0.0817, 1, 0.0817"
  xmlns="http://www.w3.org/2000/svg">
    <title>Fage & Collins 1</title>
    <path 
      vector-effect="non-scaling-stroke"
      d="M1,-0.004L0.95,-0.0185L0.9,-0.0273L0.8,-0.0451L0.7,-0.0593L0.6,-0.0694L0.5,-0.0761L0.4,-0.0806L0.3,-0.0817L0.2,-0.0775L0.15,-0.0725L0.1,-0.0651L0.075,-0.059L0.05,-0.051L0.025,-0.0398L0.0125,-0.0315L0,-0.0133L0.0125,-0.0002L0.025,-0L0.05,-0L0.075,-0L0.1,-0L0.15,-0L0.2,-0L0.3,-0L0.4,-0L0.5,-0L0.6,-0L0.7,-0L0.8,-0L0.9,-0L0.95,-0L1,-0.004"
    />
</svg>
