
<svg 
  class="airfoil-fg4"
  fill="none"
  stroke="black" 
  stroke-width="1"
  style="overflow:visible"
  viewBox="0, -0.127, 1, 0.127"
  xmlns="http://www.w3.org/2000/svg">
    <title>Fage & Collins 4</title>
    <path 
      vector-effect="non-scaling-stroke"
      d="M1,-0.0075L0.95,-0.03L0.9,-0.0423L0.8,-0.0668L0.7,-0.086L0.6,-0.102L0.5,-0.1151L0.4,-0.1244L0.3,-0.127L0.2,-0.1218L0.15,-0.1145L0.1,-0.102L0.075,-0.0925L0.05,-0.0794L0.025,-0.0655L0.0125,-0.048L0,-0.02L0.0125,-0.0015L0.025,-0L0.05,-0L0.075,-0L0.1,-0L0.15,-0L0.2,-0L0.3,-0L0.4,-0L0.5,-0L0.6,-0L0.7,-0L0.8,-0L0.9,-0L0.95,-0L1,-0.0075"
    />
</svg>
