
<svg 
  class="airfoil-fx05188"
  fill="none"
  stroke="black" 
  stroke-width="1"
  style="overflow:visible"
  viewBox="0, -0.1193, 1, 0.1888"
  xmlns="http://www.w3.org/2000/svg">
    <title>WORTMANN FX 05-188 AIRFOIL</title>
    <path 
      vector-effect="non-scaling-stroke"
      d="M1,-0L0.9957,-0.002L0.983,-0.0062L0.9616,-0.0121L0.933,-0.0195L0.8967,-0.0289L0.8536,-0.0401L0.8044,-0.0534L0.75,-0.0688L0.6913,-0.0835L0.6294,-0.098L0.5653,-0.1087L0.5,-0.1159L0.4347,-0.1193L0.3706,-0.1186L0.3087,-0.1146L0.25,-0.1071L0.1956,-0.0968L0.1464,-0.0844L0.1033,-0.0707L0.067,-0.056L0.0381,-0.0416L0.017,-0.027L0.0043,-0.014L0,-0L0.0043,0.0111L0.017,0.0198L0.0381,0.0286L0.067,0.0372L0.1033,0.0456L0.1464,0.0532L0.1956,0.0599L0.25,0.0652L0.3087,0.0686L0.3706,0.0695L0.4347,0.0681L0.5,0.0635L0.5653,0.0563L0.6294,0.0463L0.6913,0.0328L0.75,0.0204L0.8044,0.0089L0.8536,0.0009L0.8967,-0.0036L0.933,-0.0055L0.9616,-0.0049L0.983,-0.0034L0.9957,-0.0012L1,-0"
    />
</svg>
