
<svg 
  class="airfoil-fx05h126"
  fill="none"
  stroke="black" 
  stroke-width="1"
  style="overflow:visible"
  viewBox="0, -0.1071, 1, 0.12640001"
  xmlns="http://www.w3.org/2000/svg">
    <title>WORTMANN FX 05-H-126 AIRFOIL</title>
    <path 
      vector-effect="non-scaling-stroke"
      d="M1,-0L0.9957,0.0001L0.983,0.0002L0.9616,-0.0005L0.933,-0.0023L0.8967,-0.0061L0.8536,-0.012L0.8044,-0.0204L0.75,-0.0316L0.6913,-0.0457L0.6294,-0.0617L0.5653,-0.0789L0.5,-0.0946L0.4347,-0.1043L0.3706,-0.1071L0.3087,-0.1055L0.25,-0.1L0.1956,-0.0913L0.1464,-0.0801L0.1033,-0.0676L0.067,-0.0536L0.0381,-0.0398L0.017,-0.0257L0.0043,-0.0119L0,-0L0.0043,0.0069L0.017,0.0114L0.0381,0.0144L0.067,0.0159L0.1033,0.0172L0.1464,0.0178L0.1956,0.0182L0.25,0.0186L0.3087,0.0193L0.3706,0.019L0.4347,0.0188L0.5,0.018L0.5653,0.0166L0.6294,0.0153L0.6913,0.014L0.75,0.0125L0.8044,0.0111L0.8536,0.0093L0.8967,0.0075L0.933,0.0057L0.9616,0.0041L0.983,0.0024L0.9957,0.0009L1,-0"
    />
</svg>
