
<svg 
  class="airfoil-fx05191"
  fill="none"
  stroke="black" 
  stroke-width="1"
  style="overflow:visible"
  viewBox="0, -0.1209, 1, 0.1917"
  xmlns="http://www.w3.org/2000/svg">
    <title>WORTMANN FX 05-191 AIRFOIL</title>
    <path 
      vector-effect="non-scaling-stroke"
      d="M1,-0L0.9957,-0.0019L0.983,-0.0061L0.9616,-0.0124L0.933,-0.0204L0.8967,-0.0316L0.8536,-0.0445L0.8044,-0.0597L0.75,-0.0764L0.6913,-0.0913L0.6294,-0.1027L0.5653,-0.1117L0.5,-0.118L0.4347,-0.1209L0.3706,-0.12L0.3087,-0.1152L0.25,-0.1071L0.1956,-0.0965L0.1464,-0.084L0.1033,-0.0702L0.067,-0.0556L0.0381,-0.0414L0.017,-0.027L0.0043,-0.0131L0,-0L0.0043,0.0103L0.017,0.0197L0.0381,0.0284L0.067,0.0368L0.1033,0.0451L0.1464,0.0528L0.1956,0.0596L0.25,0.0653L0.3087,0.0692L0.3706,0.0708L0.4347,0.0696L0.5,0.0656L0.5653,0.0593L0.6294,0.051L0.6913,0.0406L0.75,0.0281L0.8044,0.0153L0.8536,0.0053L0.8967,-0.001L0.933,-0.0045L0.9616,-0.0046L0.983,-0.0035L0.9957,-0.0013L1,-0"
    />
</svg>
