
<svg 
  class="airfoil-fx08s176"
  fill="none"
  stroke="black" 
  stroke-width="1"
  style="overflow:visible"
  viewBox="0, -0.1446, 1, 0.1771"
  xmlns="http://www.w3.org/2000/svg">
    <title>WORTMANN FX 08-S-176 AIRFOIL</title>
    <path 
      vector-effect="non-scaling-stroke"
      d="M1,-0L0.9957,-0.0018L0.983,-0.0054L0.9616,-0.0106L0.933,-0.0174L0.8967,-0.026L0.8536,-0.0364L0.8044,-0.0483L0.75,-0.0621L0.6913,-0.0779L0.6294,-0.0949L0.5653,-0.1138L0.5,-0.1312L0.4347,-0.1416L0.3706,-0.1446L0.3087,-0.1419L0.25,-0.1346L0.1956,-0.1217L0.1464,-0.1054L0.1033,-0.0866L0.067,-0.0666L0.0381,-0.0467L0.017,-0.0283L0.0043,-0.0114L0,-0L0.0043,0.0059L0.017,0.0116L0.0381,0.016L0.067,0.0189L0.1033,0.0218L0.1464,0.0242L0.1956,0.0264L0.25,0.0286L0.3087,0.03L0.3706,0.0314L0.4347,0.0323L0.5,0.0325L0.5653,0.0312L0.6294,0.0284L0.6913,0.0256L0.75,0.0212L0.8044,0.0152L0.8536,0.0077L0.8967,0.0016L0.933,-0.0018L0.9616,-0.0027L0.983,-0.0022L0.9957,-0.0008L1,-0"
    />
</svg>
