
<svg 
  class="airfoil-fx2"
  fill="none"
  stroke="black" 
  stroke-width="1"
  style="overflow:visible"
  viewBox="0, -0.1302, 1, 0.2061"
  xmlns="http://www.w3.org/2000/svg">
    <title>WORTMANN FX 2 AIRFOIL</title>
    <path 
      vector-effect="non-scaling-stroke"
      d="M1,-0L0.9957,-0.0021L0.983,-0.0068L0.9616,-0.0144L0.933,-0.0247L0.8967,-0.0386L0.8536,-0.0564L0.8044,-0.0767L0.75,-0.0983L0.6913,-0.114L0.6294,-0.1233L0.5653,-0.1284L0.5,-0.1302L0.4347,-0.1286L0.3706,-0.1242L0.3087,-0.1173L0.25,-0.108L0.1956,-0.0966L0.1464,-0.0837L0.1033,-0.0698L0.067,-0.0548L0.0381,-0.0405L0.017,-0.0256L0,-0L0.017,0.0187L0.0381,0.0288L0.067,0.0375L0.1033,0.0468L0.1464,0.0549L0.1956,0.0622L0.25,0.0684L0.3087,0.073L0.3706,0.0755L0.4347,0.0759L0.5,0.073L0.5653,0.0654L0.6294,0.0547L0.6913,0.0386L0.75,0.0242L0.8044,0.0133L0.8536,0.0046L0.8967,-0.0001L0.933,-0.0026L0.9616,-0.0028L0.983,-0.002L0.9957,-0.0006L1,-0"
    />
</svg>
