
<svg 
  class="airfoil-fx3"
  fill="none"
  stroke="black" 
  stroke-width="1"
  style="overflow:visible"
  viewBox="0, -0.1286, 1, 0.2013"
  xmlns="http://www.w3.org/2000/svg">
    <title>WORTMANN FX 3 AIRFOIL</title>
    <path 
      vector-effect="non-scaling-stroke"
      d="M1,-0L0.9957,-0.0021L0.983,-0.0072L0.9616,-0.015L0.933,-0.0254L0.8967,-0.0395L0.8536,-0.0569L0.8044,-0.079L0.75,-0.1037L0.6913,-0.1174L0.6294,-0.1242L0.5653,-0.1278L0.5,-0.1286L0.4347,-0.1265L0.3706,-0.1218L0.3087,-0.1146L0.25,-0.1052L0.1956,-0.0939L0.1464,-0.0811L0.1033,-0.0674L0.067,-0.0533L0.0381,-0.0391L0.017,-0.0246L0,-0L0.017,0.0179L0.0381,0.027L0.067,0.0348L0.1033,0.0426L0.1464,0.0505L0.1956,0.0575L0.25,0.0636L0.3087,0.0683L0.3706,0.0715L0.4347,0.0727L0.5,0.0712L0.5653,0.0667L0.6294,0.0568L0.6913,0.0366L0.75,0.0204L0.8044,0.0085L0.8536,-0.0005L0.8967,-0.0055L0.933,-0.0079L0.9616,-0.0069L0.983,-0.0049L0.9957,-0.0018L1,-0"
    />
</svg>
