
<svg 
  class="airfoil-fx38153"
  fill="none"
  stroke="black" 
  stroke-width="1"
  style="overflow:visible"
  viewBox="0, -0.0974, 1, 0.15540001"
  xmlns="http://www.w3.org/2000/svg">
    <title>FX 38-153 AIRFOIL</title>
    <path 
      vector-effect="non-scaling-stroke"
      d="M1,-0L0.9989,-0.0004L0.9957,-0.0016L0.9903,-0.0035L0.9829,-0.0062L0.9734,-0.0097L0.9619,-0.0138L0.9485,-0.0186L0.933,-0.0239L0.9157,-0.0299L0.8964,-0.0363L0.8759,-0.0429L0.8535,-0.0496L0.8297,-0.056L0.8044,-0.062L0.7777,-0.0676L0.75,-0.0727L0.7211,-0.0773L0.6913,-0.0815L0.6607,-0.085L0.6294,-0.0882L0.5975,-0.0908L0.5652,-0.0931L0.5327,-0.0948L0.5,-0.0962L0.4673,-0.097L0.4347,-0.0974L0.4024,-0.0972L0.3706,-0.0967L0.3393,-0.0955L0.3086,-0.094L0.2789,-0.0918L0.25,-0.0893L0.2222,-0.0861L0.1956,-0.0827L0.1703,-0.0785L0.1464,-0.0743L0.124,-0.0693L0.1033,-0.0642L0.0842,-0.0585L0.0669,-0.0527L0.0516,-0.0461L0.038,-0.0397L0.0265,-0.0327L0.017,-0.0263L0.0096,-0.0191L0.0042,-0.0135L0.001,-0.0065L0,-0L0.001,0.0025L0.0042,0.0052L0.0096,0.0091L0.017,0.0123L0.0265,0.0163L0.038,0.0196L0.0516,0.0235L0.0669,0.0269L0.0842,0.0306L0.1033,0.0339L0.124,0.0373L0.1464,0.0403L0.1703,0.0435L0.1956,0.0461L0.2222,0.0487L0.25,0.0509L0.2789,0.053L0.3086,0.0547L0.3393,0.0562L0.3706,0.0571L0.4024,0.0578L0.4347,0.058L0.4673,0.058L0.5,0.0573L0.5327,0.0562L0.5652,0.0546L0.5975,0.0525L0.6294,0.0498L0.6607,0.0464L0.6913,0.0421L0.7211,0.0372L0.75,0.0314L0.7777,0.0254L0.8044,0.0193L0.8297,0.0135L0.8535,0.0084L0.8759,0.0041L0.8964,0.0006L0.9157,-0.002L0.933,-0.0038L0.9485,-0.0048L0.9619,-0.005L0.9734,-0.0046L0.9829,-0.0037L0.9903,-0.0026L0.9957,-0.0014L0.9989,-0.0005L1,-0"
    />
</svg>
