
<svg 
  class="airfoil-fx60100"
  fill="none"
  stroke="black" 
  stroke-width="1"
  style="overflow:visible"
  viewBox="0, -0.079, 1, 0.104"
  xmlns="http://www.w3.org/2000/svg">
    <title>FX 60-100 AIRFOIL</title>
    <path 
      vector-effect="non-scaling-stroke"
      d="M1,-0L0.9989,-0.0002L0.9957,-0.0009L0.9904,-0.0019L0.983,-0.0034L0.9735,-0.0053L0.9619,-0.0077L0.9484,-0.0104L0.933,-0.0134L0.9157,-0.0168L0.8967,-0.0205L0.8759,-0.0245L0.8536,-0.0286L0.8297,-0.033L0.8044,-0.0375L0.7778,-0.042L0.75,-0.0465L0.7211,-0.0509L0.6913,-0.0551L0.6607,-0.0591L0.6294,-0.0627L0.5975,-0.0661L0.5653,-0.0691L0.5327,-0.0717L0.5,-0.0741L0.4673,-0.076L0.4347,-0.0775L0.4024,-0.0785L0.3706,-0.079L0.3393,-0.0789L0.3087,-0.0784L0.2789,-0.0772L0.25,-0.0756L0.2222,-0.0734L0.1956,-0.0708L0.1703,-0.0675L0.1464,-0.064L0.1241,-0.0599L0.1033,-0.0557L0.0843,-0.0509L0.067,-0.0461L0.0516,-0.0406L0.0381,-0.0352L0.0265,-0.0295L0.017,-0.0237L0.0096,-0.0178L0.0043,-0.0114L0.0011,-0.0057L0,-0L0.0011,0.002L0.0043,0.0044L0.0096,0.0069L0.017,0.0097L0.0265,0.0125L0.0381,0.0148L0.0516,0.0173L0.067,0.0191L0.0843,0.0211L0.1033,0.0225L0.1241,0.0238L0.1464,0.0245L0.1703,0.025L0.1956,0.025L0.2222,0.0247L0.25,0.0239L0.2789,0.0227L0.3087,0.021L0.3393,0.019L0.3706,0.0164L0.4024,0.0136L0.4347,0.0104L0.4673,0.0073L0.5,0.0041L0.5327,0.0009L0.5653,-0.0022L0.5975,-0.005L0.6294,-0.0075L0.6607,-0.0095L0.6913,-0.0112L0.7211,-0.0124L0.75,-0.0133L0.7778,-0.0137L0.8044,-0.0138L0.8297,-0.0135L0.8536,-0.0128L0.8759,-0.0119L0.8967,-0.0107L0.9157,-0.0094L0.933,-0.008L0.9484,-0.0066L0.9619,-0.0052L0.9735,-0.0038L0.983,-0.0025L0.9904,-0.0015L0.9957,-0.0007L0.9989,-0.0002L1,-0"
    />
</svg>
