
<svg 
  class="airfoil-fx60160"
  fill="none"
  stroke="black" 
  stroke-width="1"
  style="overflow:visible"
  viewBox="0, -0.1072, 1, 0.1572"
  xmlns="http://www.w3.org/2000/svg">
    <title>FX 60-160 AIRFOIL</title>
    <path 
      vector-effect="non-scaling-stroke"
      d="M1,-0L0.95,-0.0145L0.9,-0.029L0.8,-0.0532L0.7,-0.0742L0.6,-0.0919L0.5,-0.1033L0.4,-0.1072L0.3,-0.1035L0.25,-0.0981L0.2,-0.0897L0.15,-0.0783L0.1,-0.063L0.075,-0.0533L0.05,-0.043L0.025,-0.0303L0.0125,-0.0213L0.0063,-0.0142L0,-0L0.0063,0.011L0.0125,0.0157L0.025,0.021L0.05,0.0268L0.075,0.0313L0.1,0.0352L0.15,0.0407L0.2,0.0455L0.25,0.049L0.3,0.05L0.4,0.0487L0.5,0.0422L0.6,0.0303L0.7,0.0141L0.8,0.0014L0.9,-0.003L0.95,-0.0018L1,-0"
    />
</svg>
