
<svg 
  class="airfoil-fx60177"
  fill="none"
  stroke="black" 
  stroke-width="1"
  style="overflow:visible"
  viewBox="0, -0.1106, 1, 0.1772"
  xmlns="http://www.w3.org/2000/svg">
    <title>FX 60-177 AIRFOIL</title>
    <path 
      vector-effect="non-scaling-stroke"
      d="M1,-0L0.9989,-0.0007L0.9957,-0.0022L0.9903,-0.0046L0.9829,-0.0078L0.9734,-0.0117L0.9619,-0.0161L0.9485,-0.021L0.933,-0.0265L0.9157,-0.0323L0.8964,-0.0384L0.8759,-0.0447L0.8535,-0.0512L0.8297,-0.0576L0.8044,-0.064L0.7777,-0.0702L0.75,-0.0761L0.7211,-0.0817L0.6913,-0.087L0.6607,-0.0917L0.6294,-0.096L0.5975,-0.0997L0.5652,-0.1029L0.5327,-0.1055L0.5,-0.1076L0.4673,-0.1091L0.4347,-0.1102L0.4024,-0.1106L0.3706,-0.1106L0.3393,-0.1098L0.3086,-0.1087L0.278,-0.1068L0.25,-0.1045L0.2222,-0.1015L0.1956,-0.098L0.1704,-0.0938L0.1464,-0.0892L0.124,-0.0838L0.1033,-0.078L0.0842,-0.0715L0.0669,-0.0647L0.0516,-0.0573L0.038,-0.0497L0.0265,-0.0418L0.017,-0.034L0.0096,-0.0258L0.0042,-0.0179L0.001,-0.0098L0,-0L0.001,0.0015L0.0042,0.0056L0.0096,0.01L0.017,0.0146L0.0265,0.0194L0.038,0.0241L0.0516,0.0288L0.0669,0.0335L0.0842,0.0381L0.1033,0.0423L0.124,0.0464L0.1464,0.0501L0.1704,0.0537L0.1956,0.0568L0.2222,0.0597L0.25,0.062L0.278,0.064L0.3086,0.0654L0.3393,0.0663L0.3706,0.0666L0.4024,0.0665L0.4347,0.0656L0.4673,0.0643L0.5,0.0623L0.5327,0.0596L0.5652,0.0561L0.5975,0.052L0.6294,0.0469L0.6607,0.0414L0.6913,0.0352L0.7211,0.0287L0.75,0.0221L0.7777,0.0158L0.8044,0.0098L0.8297,0.0047L0.8535,0.0003L0.8759,-0.0031L0.8964,-0.0057L0.9157,-0.0074L0.933,-0.0083L0.9485,-0.0084L0.9619,-0.0079L0.9734,-0.0067L0.9829,-0.0052L0.9903,-0.0035L0.9957,-0.0019L0.9989,-0.0006L1,-0"
    />
</svg>
