
<svg 
  class="airfoil-fx60126"
  fill="none"
  stroke="black" 
  stroke-width="1"
  style="overflow:visible"
  viewBox="0, -0.0916, 1, 0.1291"
  xmlns="http://www.w3.org/2000/svg">
    <title>WORTMANN FX 60-126 AIRFOIL</title>
    <path 
      vector-effect="non-scaling-stroke"
      d="M1,-0L0.9989,-0.0002L0.9957,-0.0009L0.9904,-0.002L0.983,-0.0035L0.9735,-0.0055L0.9619,-0.008L0.9484,-0.0108L0.933,-0.0141L0.9157,-0.0178L0.8967,-0.0218L0.8759,-0.0261L0.8536,-0.0307L0.8297,-0.0355L0.8044,-0.0406L0.7778,-0.0457L0.75,-0.0508L0.7211,-0.0559L0.6913,-0.0608L0.6607,-0.0655L0.6294,-0.0699L0.5975,-0.074L0.5653,-0.0778L0.5327,-0.0812L0.5,-0.0843L0.4673,-0.0868L0.4347,-0.0889L0.4024,-0.0904L0.3706,-0.0914L0.3393,-0.0916L0.3087,-0.0913L0.2789,-0.0902L0.25,-0.0886L0.2222,-0.0861L0.1956,-0.0833L0.1703,-0.0796L0.1464,-0.0755L0.1241,-0.0708L0.1033,-0.0658L0.0843,-0.0602L0.067,-0.0546L0.0516,-0.0481L0.0381,-0.0417L0.0265,-0.0349L0.017,-0.028L0.0096,-0.021L0.0043,-0.0135L0.0011,-0.0068L0,-0L0.0011,0.003L0.0043,0.0064L0.0096,0.0101L0.017,0.014L0.0265,0.0179L0.0381,0.0213L0.0516,0.0248L0.067,0.0276L0.0843,0.0304L0.1033,0.0326L0.1241,0.0347L0.1464,0.036L0.1703,0.0371L0.1956,0.0375L0.2222,0.0375L0.25,0.0368L0.2789,0.0357L0.3087,0.0339L0.3393,0.0317L0.3706,0.0288L0.4024,0.0255L0.4347,0.0219L0.4673,0.0181L0.5,0.0142L0.5327,0.0104L0.5653,0.0065L0.5975,0.003L0.6294,-0.0003L0.6607,-0.0031L0.6913,-0.0055L0.7211,-0.0074L0.75,-0.009L0.7778,-0.0101L0.8044,-0.0107L0.8297,-0.0109L0.8536,-0.0107L0.8759,-0.0102L0.8967,-0.0094L0.9157,-0.0084L0.933,-0.0073L0.9484,-0.0061L0.9619,-0.0048L0.9735,-0.0036L0.983,-0.0024L0.9904,-0.0015L0.9957,-0.0007L0.9989,-0.0001L1,-0"
    />
</svg>
