
<svg 
  class="airfoil-fx601261"
  fill="none"
  stroke="black" 
  stroke-width="1"
  style="overflow:visible"
  viewBox="0, -0.0958, 1, 0.1301"
  xmlns="http://www.w3.org/2000/svg">
    <title>FX 60-126/1 AIRFOIL</title>
    <path 
      vector-effect="non-scaling-stroke"
      d="M1,-0L0.9989,-0.0005L0.9957,-0.0016L0.9903,-0.0032L0.9829,-0.0053L0.9734,-0.0078L0.9619,-0.0107L0.9485,-0.0138L0.933,-0.0171L0.9157,-0.0205L0.8964,-0.0243L0.8759,-0.0283L0.8535,-0.0327L0.8297,-0.0374L0.8044,-0.0424L0.7777,-0.0476L0.75,-0.0529L0.7211,-0.0583L0.6913,-0.0635L0.6607,-0.0685L0.6294,-0.0733L0.5975,-0.0777L0.5652,-0.0818L0.5327,-0.0854L0.5,-0.0886L0.4673,-0.0912L0.4347,-0.0934L0.4024,-0.0948L0.3706,-0.0957L0.3393,-0.0958L0.3086,-0.0953L0.2789,-0.094L0.25,-0.0923L0.2222,-0.0896L0.1956,-0.0865L0.1704,-0.0826L0.1464,-0.0784L0.124,-0.0733L0.1033,-0.0681L0.0842,-0.0622L0.0669,-0.0564L0.0516,-0.0496L0.038,-0.0431L0.0265,-0.0355L0.017,-0.0286L0.0096,-0.0209L0.0042,-0.0128L0.001,-0.0036L0,-0L0.001,0.0047L0.0042,0.0068L0.0096,0.0098L0.017,0.0131L0.0265,0.0171L0.038,0.0202L0.0516,0.0234L0.0669,0.0259L0.0842,0.0285L0.1033,0.0304L0.124,0.0322L0.1464,0.0333L0.1704,0.0341L0.1956,0.0343L0.2222,0.0341L0.25,0.0332L0.2789,0.0319L0.3086,0.0299L0.3393,0.0275L0.3706,0.0245L0.4024,0.0212L0.4347,0.0175L0.4673,0.0137L0.5,0.0099L0.5327,0.0061L0.5652,0.0025L0.5975,-0.0007L0.6294,-0.0037L0.6607,-0.0061L0.6913,-0.0082L0.7211,-0.0098L0.75,-0.0111L0.7777,-0.0119L0.8044,-0.0124L0.8297,-0.0124L0.8535,-0.0121L0.8759,-0.0115L0.8964,-0.0106L0.9157,-0.0095L0.933,-0.0084L0.9485,-0.0071L0.9619,-0.0057L0.9734,-0.0043L0.9829,-0.0029L0.9903,-0.0018L0.9957,-0.0009L0.9989,-0.0002L1,-0"
    />
</svg>
