
<svg 
  class="airfoil-fx60157"
  fill="none"
  stroke="black" 
  stroke-width="1"
  style="overflow:visible"
  viewBox="0, -0.1015, 1, 0.15689999"
  xmlns="http://www.w3.org/2000/svg">
    <title>FX 60-157 AIRFOIL</title>
    <path 
      vector-effect="non-scaling-stroke"
      d="M1,-0L0.9989,-0.0006L0.9957,-0.0018L0.9903,-0.0039L0.9829,-0.0066L0.9734,-0.01L0.9619,-0.0139L0.9485,-0.0183L0.933,-0.0232L0.9157,-0.0284L0.8964,-0.034L0.8759,-0.0399L0.8535,-0.0459L0.8297,-0.052L0.8044,-0.058L0.7777,-0.0638L0.75,-0.0695L0.7211,-0.0747L0.6913,-0.0796L0.6607,-0.084L0.6294,-0.088L0.5975,-0.0914L0.5652,-0.0944L0.5327,-0.0968L0.5,-0.0988L0.4673,-0.1001L0.4347,-0.1012L0.4024,-0.1015L0.3706,-0.1015L0.3393,-0.1007L0.3086,-0.0996L0.2789,-0.0977L0.25,-0.0954L0.2222,-0.0925L0.1956,-0.0892L0.1704,-0.0851L0.1464,-0.0808L0.124,-0.0756L0.1033,-0.0702L0.0842,-0.064L0.0669,-0.0578L0.0516,-0.0507L0.038,-0.0438L0.0265,-0.0362L0.017,-0.0293L0.0096,-0.0218L0.0042,-0.0158L0.001,-0.0085L0,-0L0.001,0.0022L0.0042,0.0058L0.0096,0.0103L0.017,0.014L0.0265,0.0182L0.038,0.0218L0.0516,0.0258L0.0669,0.0292L0.0842,0.033L0.1033,0.0362L0.124,0.0397L0.1464,0.0426L0.1704,0.0456L0.1956,0.048L0.2222,0.0504L0.25,0.0521L0.2789,0.0537L0.3086,0.0546L0.3393,0.0554L0.3706,0.0551L0.4024,0.0552L0.4347,0.0544L0.4673,0.0532L0.5,0.0514L0.5327,0.0491L0.5652,0.046L0.5975,0.0423L0.6294,0.0377L0.6607,0.0325L0.6913,0.0267L0.7211,0.0209L0.75,0.0151L0.7777,0.0099L0.8044,0.0053L0.8297,0.0014L0.8535,-0.0018L0.8759,-0.0042L0.8964,-0.0059L0.9157,-0.0069L0.933,-0.0073L0.9485,-0.0072L0.9619,-0.0065L0.9734,-0.0054L0.9829,-0.0041L0.9903,-0.0027L0.9957,-0.0014L0.9989,-0.0004L1,-0"
    />
</svg>
