
<svg 
  class="airfoil-fx601001"
  fill="none"
  stroke="black" 
  stroke-width="1"
  style="overflow:visible"
  viewBox="0, -0.0784, 1, 0.1039"
  xmlns="http://www.w3.org/2000/svg">
    <title>FX 60-100 (126) AIRFOIL</title>
    <path 
      vector-effect="non-scaling-stroke"
      d="M1,-0L0.948,-0.0105L0.896,-0.0208L0.804,-0.037L0.691,-0.0543L0.597,-0.0655L0.5,-0.0742L0.442,-0.0779L0.308,-0.0784L0.25,-0.0755L0.196,-0.0706L0.146,-0.0636L0.103,-0.055L0.0842,-0.0498L0.0516,-0.0385L0.026,-0.0262L0.0096,-0.0146L0,-0L0.0096,0.0075L0.026,0.0134L0.0516,0.0178L0.0842,0.0213L0.103,0.0228L0.146,0.0248L0.196,0.0255L0.25,0.0246L0.308,0.0228L0.442,0.0115L0.5,0.0035L0.597,-0.006L0.691,-0.0125L0.804,-0.015L0.896,-0.0105L0.948,-0.0066L1,-0"
    />
</svg>
