
<svg 
  class="airfoil-fx60100sm"
  fill="none"
  stroke="black" 
  stroke-width="1"
  style="overflow:visible"
  viewBox="0, -0.0788, 1, 0.104"
  xmlns="http://www.w3.org/2000/svg">
    <title>FX60-100 10.0% smoothed</title>
    <path 
      vector-effect="non-scaling-stroke"
      d="M1,-0L0.9957,-0.0009L0.983,-0.0034L0.9619,-0.0077L0.933,-0.0134L0.8967,-0.0206L0.8536,-0.0288L0.8044,-0.0375L0.75,-0.0464L0.6913,-0.0549L0.6294,-0.0626L0.5653,-0.069L0.5,-0.074L0.4347,-0.0773L0.3706,-0.0788L0.3393,-0.0788L0.3087,-0.0782L0.2789,-0.0771L0.25,-0.0754L0.2222,-0.0733L0.1956,-0.0706L0.1703,-0.0674L0.1464,-0.0638L0.1241,-0.0598L0.1033,-0.0554L0.0843,-0.0508L0.067,-0.0458L0.0516,-0.0406L0.0381,-0.0352L0.0265,-0.0294L0.017,-0.0233L0.0096,-0.0171L0.0043,-0.0112L0.0011,-0.0059L0,-0.0014L0.0011,0.0022L0.0043,0.005L0.0096,0.0075L0.017,0.0099L0.0265,0.0124L0.0381,0.0148L0.0516,0.0172L0.067,0.0193L0.0843,0.0212L0.1033,0.0226L0.1241,0.0238L0.1464,0.0246L0.1703,0.0251L0.1956,0.0252L0.2222,0.0248L0.25,0.024L0.2789,0.0227L0.3087,0.021L0.3393,0.0187L0.3706,0.0162L0.4347,0.0103L0.5,0.004L0.5653,-0.0019L0.6294,-0.007L0.6913,-0.0108L0.75,-0.0131L0.8044,-0.0137L0.8536,-0.0128L0.8967,-0.0108L0.933,-0.0081L0.9619,-0.0051L0.983,-0.0025L0.9957,-0.0007L1,-0"
    />
</svg>
