
<svg 
  class="airfoil-fx61147"
  fill="none"
  stroke="black" 
  stroke-width="1"
  style="overflow:visible"
  viewBox="0, -0.1057, 1, 0.1477"
  xmlns="http://www.w3.org/2000/svg">
    <title>FX 61-147 AIRFOIL</title>
    <path 
      vector-effect="non-scaling-stroke"
      d="M1,-0L0.9989,-0.001L0.9957,-0.0027L0.9903,-0.0048L0.9829,-0.0074L0.9734,-0.0105L0.9619,-0.0138L0.9485,-0.0174L0.933,-0.0212L0.9157,-0.0253L0.8964,-0.0295L0.8759,-0.034L0.8535,-0.0388L0.8297,-0.0437L0.8044,-0.0487L0.7777,-0.0538L0.75,-0.0588L0.7211,-0.0639L0.6913,-0.0689L0.6607,-0.0738L0.6294,-0.0786L0.5975,-0.0831L0.5652,-0.0875L0.5327,-0.0916L0.5,-0.0954L0.4673,-0.0987L0.4347,-0.1015L0.4024,-0.1037L0.3706,-0.1051L0.3393,-0.1057L0.3086,-0.1054L0.2789,-0.1041L0.25,-0.1019L0.2222,-0.0988L0.1956,-0.0949L0.17,-0.0901L0.1464,-0.0845L0.124,-0.0783L0.1033,-0.0716L0.0842,-0.0645L0.0669,-0.0572L0.0516,-0.0496L0.038,-0.042L0.0265,-0.0344L0.017,-0.027L0.0096,-0.02L0.0042,-0.0132L0.001,-0.0069L0,-0L0.001,0.0017L0.0042,0.0047L0.0096,0.0079L0.017,0.011L0.0265,0.0141L0.038,0.0171L0.0516,0.02L0.0669,0.0229L0.0842,0.0257L0.1033,0.0284L0.124,0.0309L0.1464,0.0333L0.17,0.0354L0.1956,0.0373L0.2222,0.0389L0.25,0.0402L0.2789,0.0412L0.3086,0.0418L0.3393,0.042L0.3706,0.0417L0.4024,0.041L0.4347,0.0398L0.4673,0.038L0.5,0.0357L0.5327,0.0329L0.5652,0.0295L0.5975,0.0255L0.6294,0.021L0.6607,0.0159L0.6913,0.0107L0.7211,0.0057L0.75,0.0012L0.7777,-0.0026L0.8044,-0.0057L0.8297,-0.0079L0.8535,-0.0094L0.8759,-0.0101L0.8964,-0.0103L0.9157,-0.0099L0.933,-0.0092L0.9485,-0.0082L0.9619,-0.007L0.9734,-0.0056L0.9829,-0.0041L0.9903,-0.0028L0.9957,-0.0015L0.9989,-0.0004L1,-0"
    />
</svg>
