
<svg 
  class="airfoil-fx61168"
  fill="none"
  stroke="black" 
  stroke-width="1"
  style="overflow:visible"
  viewBox="0, -0.1139, 1, 0.168"
  xmlns="http://www.w3.org/2000/svg">
    <title>FX 61-168 AIRFOIL</title>
    <path 
      vector-effect="non-scaling-stroke"
      d="M1,-0L0.9989,-0.001L0.9957,-0.0027L0.9903,-0.0048L0.9829,-0.0074L0.9734,-0.0105L0.9619,-0.0138L0.9485,-0.0174L0.933,-0.0212L0.9157,-0.0253L0.8964,-0.0295L0.8759,-0.034L0.8535,-0.0388L0.8297,-0.0437L0.8044,-0.049L0.7777,-0.0544L0.75,-0.06L0.7211,-0.0657L0.6913,-0.0715L0.6607,-0.0774L0.6294,-0.0833L0.5975,-0.089L0.5652,-0.0947L0.5327,-0.1001L0.5,-0.1048L0.4673,-0.1086L0.4347,-0.1115L0.4024,-0.1132L0.3706,-0.1139L0.3393,-0.1137L0.3086,-0.1127L0.2789,-0.1107L0.25,-0.1079L0.2222,-0.1041L0.1956,-0.0997L0.1704,-0.0944L0.1464,-0.0886L0.124,-0.0822L0.1033,-0.0754L0.0842,-0.0681L0.0669,-0.0605L0.0516,-0.0526L0.038,-0.0445L0.0265,-0.0364L0.017,-0.0286L0.0096,-0.0211L0.0042,-0.0138L0.001,-0.0067L0,-0L0.001,0.0022L0.0042,0.0055L0.0096,0.009L0.017,0.0126L0.0265,0.0163L0.038,0.02L0.0516,0.0237L0.0669,0.0273L0.0842,0.0309L0.1033,0.0343L0.124,0.0377L0.1464,0.0409L0.1704,0.0439L0.1956,0.0467L0.2222,0.0492L0.25,0.0512L0.2789,0.0527L0.3086,0.0536L0.3393,0.0541L0.3706,0.0541L0.4024,0.0536L0.4347,0.0524L0.4673,0.0505L0.5,0.0478L0.5327,0.0446L0.5652,0.0406L0.5975,0.0358L0.6294,0.0302L0.6607,0.0242L0.6913,0.0182L0.7211,0.0126L0.75,0.0077L0.7777,0.0034L0.8044,-0.0001L0.8297,-0.0031L0.8535,-0.0054L0.8759,-0.007L0.8964,-0.0081L0.9157,-0.0085L0.933,-0.0084L0.9485,-0.0079L0.9619,-0.0069L0.9734,-0.0056L0.9829,-0.0041L0.9903,-0.0028L0.9957,-0.0015L0.9989,-0.0004L1,-0"
    />
</svg>
