
<svg 
  class="airfoil-fx61184"
  fill="none"
  stroke="black" 
  stroke-width="1"
  style="overflow:visible"
  viewBox="0, -0.1197, 1, 0.1838"
  xmlns="http://www.w3.org/2000/svg">
    <title>FX 61-184 AIRFOIL</title>
    <path 
      vector-effect="non-scaling-stroke"
      d="M1,-0L0.9989,-0.0008L0.9957,-0.0022L0.9903,-0.0041L0.9829,-0.0064L0.9734,-0.0092L0.9619,-0.0123L0.9485,-0.0158L0.933,-0.0196L0.9157,-0.0237L0.8964,-0.0282L0.8759,-0.0331L0.8535,-0.0384L0.8297,-0.0442L0.8044,-0.0503L0.7777,-0.0569L0.75,-0.064L0.7211,-0.0712L0.6913,-0.0788L0.6607,-0.0862L0.6294,-0.0932L0.5975,-0.0996L0.5652,-0.1051L0.5327,-0.1097L0.5,-0.1135L0.4673,-0.1165L0.4347,-0.1185L0.4024,-0.1196L0.3706,-0.1197L0.3393,-0.1189L0.3086,-0.1172L0.2789,-0.1147L0.25,-0.1113L0.2222,-0.1071L0.1956,-0.1023L0.1704,-0.0968L0.1464,-0.0908L0.124,-0.0843L0.1033,-0.0772L0.0842,-0.0698L0.0669,-0.062L0.0516,-0.0541L0.038,-0.046L0.0265,-0.0379L0.017,-0.0301L0.0096,-0.0225L0.0042,-0.0152L0.001,-0.0081L0,-0L0.001,0.0024L0.0042,0.0067L0.0096,0.011L0.017,0.0154L0.0265,0.0198L0.038,0.0241L0.0516,0.0285L0.0669,0.0329L0.0842,0.0371L0.1033,0.0413L0.124,0.0453L0.1464,0.0491L0.1704,0.0525L0.1956,0.0556L0.2222,0.0583L0.25,0.0606L0.2789,0.0623L0.3086,0.0635L0.3393,0.0641L0.3706,0.064L0.4024,0.0632L0.4347,0.0616L0.4673,0.0589L0.5,0.0552L0.5327,0.0504L0.5652,0.0446L0.5975,0.0382L0.6294,0.0315L0.6607,0.0249L0.6913,0.0189L0.7211,0.0134L0.75,0.0085L0.7777,0.0043L0.8044,0.0008L0.8297,-0.0022L0.8535,-0.0044L0.8759,-0.006L0.8964,-0.007L0.9157,-0.0075L0.933,-0.0074L0.9485,-0.007L0.9619,-0.0061L0.9734,-0.0049L0.9829,-0.0036L0.9903,-0.0024L0.9957,-0.0013L0.9989,-0.0003L1,-0"
    />
</svg>
