
<svg 
  class="airfoil-fx61163"
  fill="none"
  stroke="black" 
  stroke-width="1"
  style="overflow:visible"
  viewBox="0, -0.1073, 1, 0.1635"
  xmlns="http://www.w3.org/2000/svg">
    <title>FX 61-163 AIRFOIL</title>
    <path 
      vector-effect="non-scaling-stroke"
      d="M1,-0L0.9989,-0.0007L0.9957,-0.0021L0.9903,-0.0039L0.9829,-0.0061L0.9734,-0.0088L0.9619,-0.0117L0.9485,-0.0148L0.933,-0.0182L0.9157,-0.0218L0.8964,-0.0256L0.8759,-0.0297L0.8535,-0.034L0.8297,-0.0386L0.8044,-0.0435L0.7777,-0.0486L0.75,-0.0539L0.7211,-0.0593L0.6913,-0.065L0.6607,-0.0706L0.6294,-0.0764L0.5975,-0.0821L0.5652,-0.0877L0.5327,-0.093L0.5,-0.0978L0.4673,-0.1017L0.4347,-0.1046L0.4024,-0.1064L0.3706,-0.1073L0.3393,-0.1072L0.3086,-0.1063L0.2789,-0.1045L0.25,-0.1019L0.2222,-0.0984L0.1956,-0.0942L0.1704,-0.0892L0.1464,-0.0837L0.124,-0.0776L0.1033,-0.0711L0.0842,-0.0641L0.0669,-0.0569L0.0516,-0.0493L0.038,-0.0417L0.0265,-0.034L0.017,-0.0264L0.0096,-0.0192L0.0042,-0.0123L0.001,-0.0057L0,-0L0.001,0.0025L0.0042,0.0056L0.0096,0.0091L0.017,0.0127L0.0265,0.0166L0.038,0.0203L0.0516,0.0241L0.0669,0.0279L0.0842,0.0316L0.1033,0.0352L0.124,0.0387L0.1464,0.042L0.1704,0.0451L0.1956,0.0479L0.2222,0.0504L0.25,0.0525L0.2789,0.0542L0.3086,0.0554L0.3393,0.0561L0.3706,0.0562L0.4024,0.0558L0.4347,0.0547L0.4673,0.0529L0.5,0.0504L0.5327,0.0472L0.5652,0.0432L0.5975,0.0384L0.6294,0.0329L0.6607,0.0269L0.6913,0.0208L0.7211,0.0152L0.75,0.0101L0.7777,0.0058L0.8044,0.002L0.8297,-0.0011L0.8535,-0.0036L0.8759,-0.0054L0.8964,-0.0067L0.9157,-0.0073L0.933,-0.0075L0.9485,-0.0071L0.9619,-0.0064L0.9734,-0.0053L0.9829,-0.0039L0.9903,-0.0027L0.9957,-0.0015L0.9989,-0.0004L1,-0"
    />
</svg>
