
<svg 
  class="airfoil-fx61140"
  fill="none"
  stroke="black" 
  stroke-width="1"
  style="overflow:visible"
  viewBox="0, -0.0944, 1, 0.13980001"
  xmlns="http://www.w3.org/2000/svg">
    <title>FX 61-140 AIRFOIL</title>
    <path 
      vector-effect="non-scaling-stroke"
      d="M1,-0L0.9989,-0.0006L0.9957,-0.002L0.9904,-0.0039L0.983,-0.0062L0.9735,-0.009L0.9619,-0.0119L0.9484,-0.015L0.933,-0.0183L0.9157,-0.0217L0.8967,-0.0253L0.8759,-0.0291L0.8536,-0.033L0.8297,-0.0371L0.8044,-0.0413L0.7778,-0.0456L0.75,-0.05L0.7211,-0.0545L0.6913,-0.0589L0.6607,-0.0634L0.6294,-0.0678L0.5975,-0.0721L0.5653,-0.0762L0.5327,-0.0801L0.5,-0.0838L0.4673,-0.087L0.4347,-0.0899L0.4024,-0.0921L0.3706,-0.0937L0.3393,-0.0944L0.3087,-0.0944L0.2789,-0.0934L0.25,-0.0915L0.2222,-0.0888L0.1956,-0.0852L0.1703,-0.0808L0.1464,-0.0758L0.1241,-0.0701L0.1033,-0.0639L0.0843,-0.0574L0.067,-0.0507L0.0516,-0.0438L0.0381,-0.0368L0.0265,-0.0299L0.017,-0.0231L0.0096,-0.0168L0.0043,-0.0107L0.0011,-0.005L0,-0L0.0011,0.002L0.0043,0.0049L0.0096,0.008L0.017,0.0112L0.0265,0.0145L0.0381,0.0178L0.0516,0.021L0.067,0.0241L0.0843,0.0272L0.1033,0.0302L0.1241,0.0329L0.1464,0.0355L0.1703,0.0379L0.1956,0.04L0.2222,0.0418L0.25,0.0432L0.2789,0.0443L0.3087,0.0451L0.3393,0.0454L0.3706,0.0452L0.4024,0.0446L0.4347,0.0434L0.4673,0.0417L0.5,0.0393L0.5327,0.0364L0.5653,0.033L0.5975,0.0289L0.6294,0.0242L0.6607,0.0189L0.6913,0.0134L0.7211,0.0081L0.75,0.0033L0.7778,-0.0009L0.8044,-0.0044L0.8297,-0.0071L0.8536,-0.0091L0.8759,-0.0103L0.8967,-0.0109L0.9157,-0.0109L0.933,-0.0104L0.9484,-0.0094L0.9619,-0.008L0.9735,-0.0063L0.983,-0.0044L0.9904,-0.0029L0.9957,-0.0015L0.9989,-0.0003L1,-0"
    />
</svg>
