
<svg 
  class="airfoil-fx62k131"
  fill="none"
  stroke="black" 
  stroke-width="1"
  style="overflow:visible"
  viewBox="0, -0.1036, 1, 0.1321"
  xmlns="http://www.w3.org/2000/svg">
    <title>WORTMANN FX 62-K-131 AIRFOIL</title>
    <path 
      vector-effect="non-scaling-stroke"
      d="M1,-0L0.9989,-0.0003L0.9957,-0.0018L0.9904,-0.0039L0.983,-0.0066L0.9735,-0.0099L0.9619,-0.0136L0.9484,-0.0176L0.933,-0.0218L0.9157,-0.0264L0.8967,-0.0312L0.8759,-0.0364L0.8536,-0.042L0.8297,-0.048L0.8044,-0.0542L0.7778,-0.0608L0.75,-0.0673L0.7211,-0.0737L0.6913,-0.0798L0.6607,-0.0852L0.6294,-0.09L0.5975,-0.094L0.5653,-0.0973L0.5327,-0.0998L0.5,-0.1017L0.4673,-0.103L0.4347,-0.1036L0.4024,-0.1034L0.3706,-0.1024L0.3393,-0.1008L0.3087,-0.0986L0.2789,-0.0958L0.25,-0.0923L0.2222,-0.0883L0.1956,-0.0837L0.1703,-0.0786L0.1464,-0.0731L0.1241,-0.0672L0.1033,-0.0611L0.0843,-0.0548L0.067,-0.0483L0.0516,-0.0417L0.0381,-0.0351L0.0265,-0.0286L0.017,-0.0221L0.0096,-0.0161L0.0043,-0.0104L0.0011,-0.0052L0,-0L0.0011,0.0016L0.0043,0.0039L0.0096,0.0061L0.017,0.0084L0.0265,0.0106L0.0381,0.0128L0.0516,0.0149L0.067,0.0168L0.0843,0.0186L0.1033,0.0204L0.1241,0.022L0.1464,0.0235L0.1703,0.0248L0.1956,0.026L0.2222,0.027L0.25,0.0278L0.2789,0.0283L0.3087,0.0285L0.3393,0.0285L0.3706,0.0281L0.4024,0.0275L0.4347,0.0267L0.4673,0.0255L0.5,0.0239L0.5327,0.022L0.5653,0.0196L0.5975,0.0168L0.6294,0.0137L0.6607,0.0103L0.6913,0.0065L0.7211,0.0024L0.75,-0.0018L0.7778,-0.0057L0.8044,-0.0092L0.8297,-0.0119L0.8536,-0.0139L0.8759,-0.015L0.8967,-0.0155L0.9157,-0.0152L0.933,-0.0144L0.9484,-0.0129L0.9619,-0.011L0.9735,-0.0088L0.983,-0.0064L0.9904,-0.0043L0.9957,-0.0023L0.9989,-0.0006L1,-0"
    />
</svg>
