
<svg 
  class="airfoil-fx62k153"
  fill="none"
  stroke="black" 
  stroke-width="1"
  style="overflow:visible"
  viewBox="0, -0.1149, 1, 0.1536"
  xmlns="http://www.w3.org/2000/svg">
    <title>FX 62-K-153/20 AIRFOIL</title>
    <path 
      vector-effect="non-scaling-stroke"
      d="M1,-0L0.9989,-0.0007L0.9957,-0.0024L0.9903,-0.0047L0.9829,-0.0076L0.9734,-0.011L0.9619,-0.0149L0.9485,-0.0192L0.933,-0.0238L0.9157,-0.0289L0.8964,-0.0344L0.8759,-0.0403L0.8535,-0.0467L0.8297,-0.0534L0.8044,-0.0605L0.7777,-0.0679L0.75,-0.0754L0.7211,-0.0828L0.6913,-0.0897L0.6607,-0.0958L0.6294,-0.1011L0.5975,-0.1055L0.5652,-0.109L0.5327,-0.1117L0.5,-0.1136L0.4673,-0.1146L0.4347,-0.1149L0.4024,-0.1145L0.3706,-0.1133L0.3393,-0.1115L0.3086,-0.1088L0.2789,-0.1055L0.25,-0.1016L0.2222,-0.0971L0.1956,-0.0922L0.1704,-0.0869L0.1464,-0.0809L0.124,-0.0747L0.1033,-0.0681L0.0842,-0.0614L0.0669,-0.0545L0.0516,-0.0476L0.038,-0.0405L0.0265,-0.0334L0.017,-0.0264L0.0096,-0.0197L0.0042,-0.0132L0.001,-0.0071L0,-0L0.001,0.0017L0.0042,0.0048L0.0096,0.0078L0.017,0.0108L0.0265,0.0137L0.038,0.0165L0.0516,0.019L0.0669,0.0215L0.0842,0.0238L0.1033,0.0261L0.124,0.0283L0.1464,0.0303L0.1704,0.0321L0.1956,0.0338L0.2222,0.0353L0.25,0.0366L0.2789,0.0376L0.3086,0.0383L0.3393,0.0387L0.3706,0.0387L0.4024,0.0382L0.4347,0.0373L0.4673,0.0359L0.5,0.0339L0.5327,0.0313L0.5652,0.028L0.5975,0.024L0.6294,0.0195L0.6607,0.0144L0.6913,0.0091L0.7211,0.004L0.75,-0.0007L0.7777,-0.0046L0.8044,-0.0077L0.8297,-0.01L0.8535,-0.0116L0.8759,-0.0126L0.8964,-0.0128L0.9157,-0.0126L0.933,-0.0118L0.9485,-0.0106L0.9619,-0.009L0.9734,-0.0072L0.9829,-0.0052L0.9903,-0.0035L0.9957,-0.0019L0.9989,-0.0005L1,-0"
    />
</svg>
