
<svg 
  class="airfoil-fx63143"
  fill="none"
  stroke="black" 
  stroke-width="1"
  style="overflow:visible"
  viewBox="0, -0.1022, 1, 0.14320001"
  xmlns="http://www.w3.org/2000/svg">
    <title>FX 63-143 AIRFOIL</title>
    <path 
      vector-effect="non-scaling-stroke"
      d="M1,-0L0.9989,-0.0004L0.9957,-0.0014L0.9903,-0.0029L0.9829,-0.0048L0.9734,-0.0071L0.9619,-0.0095L0.9485,-0.0122L0.933,-0.015L0.9157,-0.018L0.8964,-0.0213L0.8759,-0.0249L0.8535,-0.0288L0.8297,-0.033L0.8044,-0.0375L0.7777,-0.0422L0.75,-0.0472L0.7211,-0.0523L0.6913,-0.0577L0.6607,-0.0631L0.6294,-0.0687L0.5975,-0.0741L0.5663,-0.0794L0.5327,-0.0844L0.5,-0.0893L0.4673,-0.0935L0.4347,-0.0972L0.4024,-0.0997L0.3706,-0.1017L0.3393,-0.1022L0.3086,-0.1021L0.2789,-0.1005L0.25,-0.0986L0.2222,-0.095L0.1956,-0.0914L0.1704,-0.0861L0.1464,-0.0811L0.124,-0.0744L0.1033,-0.0685L0.0842,-0.0607L0.0669,-0.0544L0.0516,-0.046L0.038,-0.0396L0.0265,-0.0322L0.017,-0.025L0.0096,-0.018L0.0042,-0.0119L0.001,-0.0055L0,-0L0.001,0.003L0.0042,0.0052L0.0096,0.0098L0.017,0.0116L0.0265,0.0158L0.038,0.0176L0.0516,0.0212L0.0669,0.0229L0.0842,0.0261L0.1033,0.0279L0.124,0.0307L0.1464,0.0323L0.1704,0.0347L0.1956,0.0368L0.2222,0.0379L0.25,0.0388L0.2789,0.04L0.3086,0.0404L0.3393,0.041L0.3706,0.0408L0.4024,0.0408L0.4347,0.0401L0.4673,0.0396L0.5,0.0385L0.5327,0.0375L0.5663,0.036L0.5975,0.0346L0.6294,0.0328L0.6607,0.031L0.6913,0.0289L0.7211,0.0267L0.75,0.0242L0.7777,0.0216L0.8044,0.0187L0.8297,0.0157L0.8535,0.0124L0.8759,0.0091L0.8964,0.0057L0.9157,0.0026L0.933,0.0002L0.9485,-0.0015L0.9619,-0.0024L0.9734,-0.0027L0.9829,-0.0023L0.9903,-0.0017L0.9957,-0.0009L0.9989,-0.0003L1,-0"
    />
</svg>
