
<svg 
  class="airfoil-fx63137sm"
  fill="none"
  stroke="black" 
  stroke-width="1"
  style="overflow:visible"
  viewBox="0, -0.1218, 1, 0.1445"
  xmlns="http://www.w3.org/2000/svg">
    <title>FX 63-137 13.7% smoothed</title>
    <path 
      vector-effect="non-scaling-stroke"
      d="M1,-0L0.9957,-0.0023L0.983,-0.0082L0.9619,-0.0164L0.933,-0.0258L0.8967,-0.0362L0.8536,-0.0476L0.8044,-0.06L0.75,-0.073L0.6913,-0.086L0.6294,-0.0979L0.5653,-0.108L0.5,-0.1156L0.4347,-0.1203L0.3706,-0.1218L0.3393,-0.1213L0.3087,-0.12L0.2789,-0.1178L0.25,-0.1149L0.2222,-0.1112L0.1956,-0.1068L0.1703,-0.1017L0.1464,-0.0959L0.1241,-0.0895L0.1033,-0.0827L0.0843,-0.0755L0.067,-0.0681L0.0516,-0.0605L0.0381,-0.0526L0.0265,-0.0443L0.017,-0.0355L0.0096,-0.0264L0.0043,-0.0174L0.0011,-0.0093L0,-0.0024L0.0011,0.003L0.0043,0.007L0.0096,0.0102L0.017,0.0128L0.0265,0.015L0.0381,0.0171L0.0516,0.0188L0.067,0.0202L0.0843,0.0212L0.1033,0.022L0.1241,0.0225L0.1464,0.0227L0.1703,0.0227L0.1956,0.0223L0.2222,0.0216L0.25,0.0204L0.2789,0.0188L0.3087,0.0168L0.3393,0.0142L0.3706,0.0112L0.4347,0.0042L0.5,-0.0034L0.5653,-0.0109L0.6294,-0.0176L0.6913,-0.0229L0.75,-0.0263L0.8044,-0.0276L0.8536,-0.0266L0.8967,-0.0234L0.933,-0.0184L0.9619,-0.0123L0.983,-0.0062L0.9957,-0.0017L1,-0"
    />
</svg>
