
<svg 
  class="airfoil-fx63145"
  fill="none"
  stroke="black" 
  stroke-width="1"
  style="overflow:visible"
  viewBox="0, -0.1121, 1, 0.1458"
  xmlns="http://www.w3.org/2000/svg">
    <title>FX 63-145 AIRFOIL</title>
    <path 
      vector-effect="non-scaling-stroke"
      d="M1,-0L0.9989,-0.0009L0.9957,-0.0022L0.9903,-0.0041L0.9829,-0.0065L0.9734,-0.0093L0.9619,-0.0124L0.9485,-0.0156L0.933,-0.0191L0.9157,-0.0228L0.8964,-0.0269L0.8759,-0.031L0.8535,-0.0355L0.8297,-0.0401L0.8044,-0.0449L0.7777,-0.0498L0.75,-0.055L0.7211,-0.0601L0.6913,-0.0657L0.6607,-0.071L0.6294,-0.0765L0.5975,-0.0819L0.5652,-0.0874L0.5327,-0.0924L0.5,-0.0975L0.4673,-0.1018L0.4347,-0.106L0.4024,-0.1086L0.3706,-0.111L0.3393,-0.1115L0.3085,-0.1121L0.2789,-0.1105L0.25,-0.1093L0.2222,-0.1058L0.1956,-0.1029L0.1704,-0.0976L0.1464,-0.0934L0.124,-0.0865L0.1033,-0.0813L0.0842,-0.0729L0.0669,-0.067L0.0516,-0.057L0.038,-0.049L0.0265,-0.0405L0.017,-0.032L0.0096,-0.024L0.0042,-0.016L0.001,-0.0065L0,-0L0.001,0.002L0.0042,0.004L0.0096,0.007L0.017,0.0097L0.0265,0.0131L0.038,0.015L0.0516,0.0185L0.0669,0.0206L0.0842,0.0239L0.1033,0.0252L0.124,0.0284L0.1464,0.0293L0.1704,0.0317L0.1956,0.0321L0.2222,0.0335L0.25,0.0332L0.2789,0.0337L0.3085,0.0326L0.3393,0.0321L0.3706,0.0302L0.4024,0.0288L0.4347,0.0261L0.4673,0.0237L0.5,0.0203L0.5327,0.0171L0.5652,0.013L0.5975,0.0091L0.6294,0.0048L0.6607,0.0013L0.6913,-0.0022L0.7211,-0.005L0.75,-0.0076L0.7777,-0.0095L0.8044,-0.0111L0.8297,-0.012L0.8535,-0.0126L0.8759,-0.0127L0.8964,-0.0124L0.9157,-0.0117L0.933,-0.0107L0.9485,-0.0094L0.9619,-0.0078L0.9734,-0.006L0.9829,-0.0041L0.9903,-0.0024L0.9957,-0.001L0.9989,-0.0001L1,-0"
    />
</svg>
