
<svg 
  class="airfoil-fx63120"
  fill="none"
  stroke="black" 
  stroke-width="1"
  style="overflow:visible"
  viewBox="0, -0.1063, 1, 0.1261"
  xmlns="http://www.w3.org/2000/svg">
    <title>FX 63-120 AIRFOIL</title>
    <path 
      vector-effect="non-scaling-stroke"
      d="M1,-0L0.948,-0.018L0.896,-0.0311L0.804,-0.0522L0.691,-0.0752L0.597,-0.0905L0.5,-0.1014L0.402,-0.1063L0.308,-0.1053L0.25,-0.1009L0.196,-0.0938L0.146,-0.0843L0.103,-0.0728L0.067,-0.0598L0.038,-0.046L0.026,-0.0385L0.009,-0.024L0,-0L0.009,0.0083L0.026,0.013L0.038,0.0149L0.067,0.0174L0.103,0.0191L0.146,0.0198L0.196,0.0194L0.25,0.0178L0.308,0.0148L0.402,0.0057L0.5,-0.0033L0.597,-0.0129L0.691,-0.0205L0.804,-0.0242L0.896,-0.0198L0.948,-0.0133L1,-0"
    />
</svg>
