
<svg 
  class="airfoil-fx63110"
  fill="none"
  stroke="black" 
  stroke-width="1"
  style="overflow:visible"
  viewBox="0, -0.0936, 1, 0.11489999"
  xmlns="http://www.w3.org/2000/svg">
    <title>FX 63-110 AIRFOIL</title>
    <path 
      vector-effect="non-scaling-stroke"
      d="M1,-0L0.948,-0.0151L0.896,-0.0264L0.804,-0.0448L0.691,-0.0652L0.597,-0.0789L0.5,-0.0889L0.402,-0.0936L0.308,-0.0931L0.25,-0.0894L0.196,-0.0832L0.146,-0.0749L0.103,-0.0648L0.067,-0.0532L0.038,-0.041L0.026,-0.0344L0.009,-0.0215L0,-0L0.009,0.0088L0.026,0.0144L0.103,0.0202L0.146,0.0212L0.196,0.0213L0.25,0.0201L0.308,0.0169L0.402,0.0097L0.5,0.0021L0.597,-0.0073L0.691,-0.0146L0.804,-0.0189L0.896,-0.016L0.948,-0.0108L1,-0"
    />
</svg>
