
<svg 
  class="airfoil-fx63100"
  fill="none"
  stroke="black" 
  stroke-width="1"
  style="overflow:visible"
  viewBox="0, -0.0886, 1, 0.105100006"
  xmlns="http://www.w3.org/2000/svg">
    <title>FX 63-100 AIRFOIL</title>
    <path 
      vector-effect="non-scaling-stroke"
      d="M1,-0L0.948,-0.0149L0.896,-0.0259L0.804,-0.0435L0.691,-0.0627L0.597,-0.0754L0.5,-0.0845L0.402,-0.0886L0.308,-0.0878L0.25,-0.0841L0.196,-0.0781L0.146,-0.0702L0.103,-0.0607L0.067,-0.0498L0.038,-0.0383L0.026,-0.032L0.009,-0.02L0,-0L0.009,0.0073L0.026,0.012L0.103,0.0161L0.146,0.0165L0.196,0.0162L0.25,0.0148L0.308,0.0115L0.402,0.0047L0.5,-0.0023L0.597,-0.0108L0.691,-0.0171L0.804,-0.0202L0.896,-0.0165L0.948,-0.011L1,-0"
    />
</svg>
