
<svg 
  class="airfoil-fx63158"
  fill="none"
  stroke="black" 
  stroke-width="1"
  style="overflow:visible"
  viewBox="0, -0.1166, 1, 0.1583"
  xmlns="http://www.w3.org/2000/svg">
    <title>FX 63-158 AIRFOIL</title>
    <path 
      vector-effect="non-scaling-stroke"
      d="M1,-0L0.9989,-0.0009L0.9957,-0.0024L0.9903,-0.0047L0.9829,-0.0075L0.9734,-0.0108L0.9619,-0.0145L0.9485,-0.0182L0.933,-0.0223L0.9157,-0.0265L0.8964,-0.0311L0.8753,-0.0358L0.8535,-0.0408L0.8297,-0.0459L0.8044,-0.0512L0.7777,-0.0566L0.75,-0.0622L0.7211,-0.0678L0.6913,-0.0735L0.6607,-0.0791L0.6294,-0.0848L0.5975,-0.0903L0.5652,-0.0958L0.5327,-0.1007L0.5,-0.1056L0.4673,-0.1095L0.4347,-0.1131L0.4024,-0.1151L0.3706,-0.1166L0.3393,-0.1164L0.3086,-0.1158L0.2789,-0.1134L0.25,-0.1109L0.2222,-0.1067L0.1956,-0.1026L0.1704,-0.0966L0.1464,-0.0913L0.124,-0.0841L0.1033,-0.0779L0.0842,-0.0696L0.0669,-0.0628L0.0516,-0.0539L0.038,-0.0471L0.0265,-0.039L0.017,-0.0316L0.0096,-0.024L0.0042,-0.0166L0.001,-0.0082L0,-0L0.001,0.002L0.0042,0.0043L0.0096,0.0072L0.017,0.0095L0.0265,0.0128L0.038,0.015L0.0516,0.019L0.0669,0.022L0.0842,0.0248L0.1033,0.0268L0.124,0.0301L0.1464,0.0319L0.1704,0.0347L0.1956,0.0362L0.2222,0.0384L0.25,0.0393L0.2789,0.0407L0.3086,0.041L0.3393,0.0417L0.3706,0.0412L0.4024,0.041L0.4347,0.0397L0.4673,0.0385L0.5,0.0363L0.5327,0.034L0.5652,0.0305L0.5975,0.0263L0.6294,0.0208L0.6607,0.0151L0.6913,0.0092L0.7211,0.004L0.75,-0.0009L0.7777,-0.0048L0.8044,-0.0081L0.8297,-0.0105L0.8535,-0.0123L0.8753,-0.0132L0.8964,-0.0135L0.9157,-0.0132L0.933,-0.0123L0.9485,-0.011L0.9619,-0.0092L0.9734,-0.0071L0.9829,-0.0049L0.9903,-0.0029L0.9957,-0.0013L0.9989,-0.0003L1,-0"
    />
</svg>
