
<svg 
  class="airfoil-fx63137"
  fill="none"
  stroke="black" 
  stroke-width="1"
  style="overflow:visible"
  viewBox="0, -0.1219, 1, 0.1447"
  xmlns="http://www.w3.org/2000/svg">
    <title>WORTMANN FX 63-137 AIRFOIL</title>
    <path 
      vector-effect="non-scaling-stroke"
      d="M1,-0L0.9989,-0.0008L0.9957,-0.0025L0.9904,-0.005L0.983,-0.0082L0.9735,-0.0119L0.9619,-0.016L0.9484,-0.0204L0.933,-0.0252L0.9157,-0.0302L0.8967,-0.0355L0.8759,-0.0411L0.8536,-0.0471L0.8297,-0.0532L0.8044,-0.0596L0.7778,-0.0661L0.75,-0.0727L0.7211,-0.0793L0.6913,-0.0859L0.6607,-0.092L0.6294,-0.098L0.5975,-0.1033L0.5653,-0.1082L0.5327,-0.1122L0.5,-0.1158L0.4673,-0.1183L0.4347,-0.1204L0.4024,-0.1214L0.3706,-0.1219L0.3393,-0.1213L0.3087,-0.1202L0.2789,-0.1179L0.25,-0.1152L0.2222,-0.1112L0.1956,-0.107L0.1703,-0.1016L0.1464,-0.0962L0.1241,-0.0896L0.1033,-0.0831L0.0843,-0.0755L0.067,-0.0684L0.0516,-0.06L0.0381,-0.0525L0.0265,-0.0448L0.017,-0.0362L0.0096,-0.0274L0.0043,-0.0175L0.0011,-0.009L0,-0L0.0011,0.0023L0.0043,0.0057L0.0096,0.0099L0.017,0.0125L0.0265,0.0154L0.0381,0.017L0.0516,0.0189L0.067,0.0199L0.0843,0.0212L0.1033,0.0218L0.1241,0.0226L0.1464,0.0226L0.1703,0.0228L0.1956,0.0222L0.2222,0.0216L0.25,0.0203L0.2789,0.019L0.3087,0.0169L0.3393,0.0146L0.3706,0.0117L0.4024,0.0085L0.4347,0.0049L0.4673,0.001L0.5,-0.0031L0.5327,-0.0072L0.5653,-0.0111L0.5975,-0.0148L0.6294,-0.0181L0.6607,-0.021L0.6913,-0.0235L0.7211,-0.0253L0.75,-0.0267L0.7778,-0.0275L0.8044,-0.0277L0.8297,-0.0273L0.8536,-0.0263L0.8759,-0.0248L0.8967,-0.0228L0.9157,-0.0205L0.933,-0.0179L0.9484,-0.0151L0.9619,-0.0122L0.9735,-0.0092L0.983,-0.0063L0.9904,-0.0037L0.9957,-0.0017L0.9989,-0.0004L1,-0"
    />
</svg>
