
<svg 
  class="airfoil-fx63147"
  fill="none"
  stroke="black" 
  stroke-width="1"
  style="overflow:visible"
  viewBox="0, -0.105, 1, 0.1475"
  xmlns="http://www.w3.org/2000/svg">
    <title>FX 63-147 AIRFOIL</title>
    <path 
      vector-effect="non-scaling-stroke"
      d="M1,-0L0.9989,-0.0003L0.9957,-0.0016L0.9903,-0.0039L0.9829,-0.0068L0.9734,-0.0103L0.9619,-0.014L0.9485,-0.0179L0.933,-0.022L0.9157,-0.0262L0.8964,-0.0305L0.8759,-0.035L0.8535,-0.0396L0.8297,-0.0444L0.8044,-0.0492L0.7777,-0.0542L0.75,-0.0592L0.7211,-0.0643L0.6913,-0.0693L0.6607,-0.0742L0.6294,-0.0791L0.5975,-0.0837L0.5652,-0.0882L0.5327,-0.0922L0.5,-0.096L0.4673,-0.0992L0.4347,-0.1018L0.4024,-0.1037L0.3706,-0.1048L0.3393,-0.105L0.3086,-0.1045L0.2789,-0.103L0.25,-0.1006L0.2222,-0.0973L0.1956,-0.0933L0.1704,-0.0883L0.1464,-0.0829L0.124,-0.0766L0.1033,-0.0702L0.0842,-0.063L0.0669,-0.056L0.0516,-0.0484L0.038,-0.0411L0.0265,-0.0334L0.017,-0.0263L0.0096,-0.0188L0.0042,-0.0128L0.001,-0.0055L0,-0L0.001,0.0026L0.0042,0.0049L0.0096,0.0084L0.017,0.0112L0.0265,0.0146L0.038,0.0174L0.0516,0.0204L0.0669,0.0229L0.0842,0.0257L0.1033,0.0281L0.124,0.0307L0.1464,0.0329L0.1704,0.0351L0.1956,0.0369L0.2222,0.0387L0.25,0.04L0.2789,0.0412L0.3086,0.0419L0.3393,0.0424L0.3706,0.0425L0.4024,0.0423L0.4347,0.0417L0.4673,0.0409L0.5,0.0397L0.5327,0.0383L0.5652,0.0364L0.5975,0.0342L0.6294,0.0316L0.6607,0.0286L0.6913,0.0251L0.7211,0.0213L0.75,0.0171L0.7777,0.0127L0.8044,0.0082L0.8297,0.0036L0.8535,-0.0007L0.8759,-0.0043L0.8964,-0.0069L0.9157,-0.0086L0.933,-0.0095L0.9485,-0.0095L0.9619,-0.0089L0.9734,-0.0076L0.9829,-0.0058L0.9903,-0.0039L0.9957,-0.0021L0.9989,-0.0007L1,-0"
    />
</svg>
