
<svg 
  class="airfoil-fx66h60"
  fill="none"
  stroke="black" 
  stroke-width="1"
  style="overflow:visible"
  viewBox="0, -0.0465, 1, 0.0671"
  xmlns="http://www.w3.org/2000/svg">
    <title>FX 66-H-60</title>
    <path 
      vector-effect="non-scaling-stroke"
      d="M1,-0L0.9989,-0.0001L0.9957,-0.0004L0.9904,-0.0007L0.983,-0.0011L0.9735,-0.0016L0.9619,-0.002L0.9484,-0.0024L0.933,-0.0027L0.9157,-0.003L0.8967,-0.0032L0.8759,-0.0035L0.8536,-0.0041L0.8297,-0.0049L0.8044,-0.0059L0.7778,-0.0072L0.75,-0.0086L0.7211,-0.0103L0.6913,-0.0121L0.6607,-0.0142L0.6294,-0.0164L0.5975,-0.0188L0.5653,-0.0213L0.5327,-0.0239L0.5,-0.0266L0.4673,-0.0293L0.4347,-0.0321L0.4024,-0.0348L0.3706,-0.0373L0.3393,-0.0397L0.3087,-0.0419L0.2789,-0.0438L0.25,-0.0452L0.2222,-0.0461L0.1956,-0.0465L0.1703,-0.0461L0.1464,-0.0449L0.1241,-0.0428L0.1033,-0.0398L0.0843,-0.0362L0.067,-0.032L0.0516,-0.0275L0.0381,-0.0229L0.0265,-0.0183L0.017,-0.0138L0.0096,-0.0097L0.0043,-0.006L0.0011,-0.0027L0,-0L0.0011,0.0022L0.0043,0.0039L0.0096,0.0053L0.017,0.0065L0.0265,0.0074L0.0381,0.0082L0.0516,0.0089L0.067,0.0094L0.0843,0.01L0.1033,0.0105L0.1241,0.011L0.1464,0.0117L0.1703,0.0124L0.1956,0.0132L0.2222,0.014L0.25,0.0149L0.2789,0.0158L0.3087,0.0166L0.3393,0.0174L0.3706,0.0182L0.4024,0.0189L0.4347,0.0195L0.4673,0.0199L0.5,0.0203L0.5327,0.0205L0.5653,0.0206L0.5975,0.0205L0.6294,0.0202L0.6607,0.0198L0.6913,0.0193L0.7211,0.0186L0.75,0.0177L0.7778,0.0166L0.8044,0.0152L0.8297,0.0135L0.8536,0.0116L0.8759,0.0097L0.8967,0.0078L0.9157,0.0062L0.933,0.0048L0.9484,0.0036L0.9619,0.0026L0.9735,0.0018L0.983,0.0012L0.9904,0.0007L0.9957,0.0003L0.9989,0.0001L1,-0"
    />
</svg>
