
<svg 
  class="airfoil-fx66s171"
  fill="none"
  stroke="black" 
  stroke-width="1"
  style="overflow:visible"
  viewBox="0, -0.1233, 1, 0.1726"
  xmlns="http://www.w3.org/2000/svg">
    <title>FX 66-S-171 AIRFOIL</title>
    <path 
      vector-effect="non-scaling-stroke"
      d="M1,-0L0.9989,-0.0003L0.9904,-0.0027L0.9735,-0.007L0.9484,-0.0127L0.9157,-0.0197L0.8759,-0.0283L0.8536,-0.0331L0.8297,-0.0383L0.8044,-0.0439L0.7778,-0.0498L0.75,-0.0559L0.7211,-0.0624L0.6913,-0.069L0.6607,-0.0758L0.6294,-0.0827L0.5975,-0.0896L0.5653,-0.0963L0.5327,-0.1028L0.5,-0.1086L0.4673,-0.1139L0.4347,-0.1183L0.4024,-0.1215L0.3706,-0.123L0.3393,-0.1233L0.3087,-0.1221L0.2787,-0.1199L0.25,-0.1164L0.2222,-0.1119L0.1956,-0.1062L0.1703,-0.0998L0.1464,-0.0926L0.1241,-0.085L0.1033,-0.0768L0.0843,-0.0684L0.067,-0.0598L0.0516,-0.0511L0.0381,-0.0425L0.0265,-0.034L0.017,-0.026L0.0096,-0.0184L0.0043,-0.0116L0.0011,-0.0057L0,-0L0.0011,0.0035L0.0043,0.0074L0.0096,0.0115L0.017,0.0155L0.0265,0.0194L0.0381,0.0232L0.0516,0.0269L0.067,0.0304L0.0843,0.0338L0.1033,0.0369L0.1241,0.0398L0.1464,0.0423L0.1703,0.0446L0.1956,0.0464L0.2222,0.0479L0.25,0.0489L0.2787,0.0493L0.3087,0.0487L0.3393,0.0478L0.3706,0.0461L0.4024,0.0438L0.4347,0.0406L0.4673,0.0368L0.5,0.0327L0.5327,0.0287L0.5653,0.0247L0.5975,0.0209L0.6294,0.0172L0.6607,0.014L0.6913,0.0109L0.7211,0.0083L0.75,0.006L0.7778,0.004L0.8044,0.0023L0.8297,0.001L0.8536,-0L0.8759,-0.0007L0.9157,-0.0014L0.9484,-0.0014L0.9735,-0.001L0.9904,-0.0006L0.9989,-0.0001L1,-0"
    />
</svg>
