
<svg 
  class="airfoil-fx66196v"
  fill="none"
  stroke="black" 
  stroke-width="1"
  style="overflow:visible"
  viewBox="0, -0.1369, 1, 0.1962"
  xmlns="http://www.w3.org/2000/svg">
    <title>FX 66-S-196 V1 AIRFOIL</title>
    <path 
      vector-effect="non-scaling-stroke"
      d="M1,-0L0.9989,-0.0004L0.9904,-0.0028L0.9735,-0.0073L0.9484,-0.0136L0.9157,-0.0219L0.8759,-0.0324L0.8536,-0.0384L0.8297,-0.045L0.8044,-0.052L0.7778,-0.0594L0.75,-0.067L0.7211,-0.0748L0.6913,-0.0827L0.6607,-0.0907L0.6294,-0.0984L0.5975,-0.1061L0.5653,-0.1132L0.5327,-0.1199L0.5,-0.1259L0.4673,-0.131L0.4347,-0.1347L0.4024,-0.1369L0.3706,-0.1369L0.3393,-0.1354L0.3087,-0.1324L0.2787,-0.1285L0.25,-0.1235L0.2222,-0.1177L0.1956,-0.1111L0.1703,-0.104L0.1464,-0.0962L0.1241,-0.088L0.1033,-0.0795L0.0843,-0.0707L0.067,-0.0617L0.0516,-0.0527L0.0381,-0.0438L0.0265,-0.0352L0.017,-0.0269L0.0096,-0.0192L0.0043,-0.0122L0.0011,-0.0062L0,-0L0.0011,0.0035L0.0043,0.0078L0.0096,0.0121L0.017,0.0164L0.0265,0.0206L0.0381,0.0249L0.0516,0.029L0.067,0.0331L0.0843,0.0369L0.1033,0.0406L0.1241,0.0441L0.1464,0.0473L0.1703,0.0502L0.1956,0.0528L0.2222,0.055L0.25,0.0568L0.2787,0.0582L0.3087,0.059L0.3393,0.0593L0.3706,0.0588L0.4024,0.0574L0.4347,0.0545L0.4673,0.0508L0.5,0.0463L0.5327,0.0416L0.5653,0.0367L0.5975,0.0319L0.6294,0.0271L0.6607,0.0226L0.6913,0.0183L0.7211,0.0143L0.75,0.0108L0.7778,0.0076L0.8044,0.0049L0.8297,0.0026L0.8536,0.0007L0.8759,-0.0008L0.9157,-0.0025L0.9484,-0.0029L0.9735,-0.0021L0.9904,-0.0007L0.9989,0.0002L1,-0"
    />
</svg>
