
<svg 
  class="airfoil-fx66182"
  fill="none"
  stroke="black" 
  stroke-width="1"
  style="overflow:visible"
  viewBox="0, -0.129, 1, 0.18219998"
  xmlns="http://www.w3.org/2000/svg">
    <title>FX 66-182 AIRFOIL</title>
    <path 
      vector-effect="non-scaling-stroke"
      d="M1,-0L0.9989,-0.0002L0.9904,-0.0026L0.9735,-0.0076L0.9484,-0.014L0.9157,-0.0214L0.8759,-0.0303L0.8536,-0.0353L0.8297,-0.0408L0.8044,-0.0466L0.7778,-0.0528L0.75,-0.0593L0.7211,-0.0661L0.6913,-0.0732L0.6607,-0.0803L0.6294,-0.0875L0.5975,-0.0948L0.5653,-0.1019L0.5327,-0.1087L0.5,-0.1151L0.4673,-0.1207L0.4347,-0.1249L0.4024,-0.1277L0.3706,-0.129L0.3393,-0.1287L0.3087,-0.127L0.2787,-0.1241L0.25,-0.1198L0.2222,-0.1146L0.1956,-0.1085L0.1703,-0.1017L0.1464,-0.0943L0.1241,-0.0864L0.1033,-0.0781L0.0843,-0.0695L0.067,-0.0608L0.0516,-0.052L0.0381,-0.0433L0.0265,-0.0349L0.017,-0.0269L0.0096,-0.0187L0.0043,-0.0121L0.0011,-0.0062L0,-0L0.0011,0.0034L0.0043,0.0074L0.0096,0.0116L0.017,0.0151L0.0265,0.0191L0.0381,0.023L0.0516,0.0267L0.067,0.0303L0.0843,0.0338L0.1033,0.037L0.1241,0.04L0.1464,0.0428L0.1703,0.0453L0.1956,0.0475L0.2222,0.0494L0.25,0.051L0.2787,0.0522L0.3087,0.0529L0.3393,0.0532L0.3706,0.0529L0.4024,0.052L0.4347,0.0504L0.4673,0.048L0.5,0.0446L0.5327,0.0405L0.5653,0.0357L0.5975,0.0307L0.6294,0.0258L0.6607,0.0211L0.6913,0.0169L0.7211,0.0133L0.75,0.0101L0.7778,0.0074L0.8044,0.0052L0.8297,0.0034L0.8536,0.002L0.8759,0.001L0.9157,-0.0002L0.9484,-0.0006L0.9735,-0.0007L0.9904,-0.0005L0.9989,-0.0002L1,-0"
    />
</svg>
