
<svg 
  class="airfoil-fx66h80"
  fill="none"
  stroke="black" 
  stroke-width="1"
  style="overflow:visible"
  viewBox="0, -0.0645, 1, 0.0822"
  xmlns="http://www.w3.org/2000/svg">
    <title>FX 66-H-80</title>
    <path 
      vector-effect="non-scaling-stroke"
      d="M1,-0L0.9989,-0L0.9957,-0L0.9904,-0.0002L0.983,-0.0005L0.9735,-0.0008L0.9619,-0.0012L0.9484,-0.0017L0.933,-0.0023L0.9157,-0.003L0.8967,-0.0039L0.8759,-0.0051L0.8536,-0.0065L0.8297,-0.0082L0.8044,-0.0102L0.7778,-0.0126L0.75,-0.0153L0.7211,-0.0182L0.6913,-0.0215L0.6607,-0.0249L0.6294,-0.0285L0.5975,-0.0323L0.5653,-0.0363L0.5327,-0.0403L0.5,-0.0443L0.4673,-0.0483L0.4347,-0.0521L0.4024,-0.0558L0.3706,-0.0591L0.3393,-0.0618L0.3087,-0.0636L0.2789,-0.0645L0.25,-0.0645L0.2222,-0.0636L0.1956,-0.0618L0.1703,-0.059L0.1464,-0.0555L0.1241,-0.0513L0.1033,-0.0467L0.0843,-0.0417L0.067,-0.0366L0.0516,-0.0313L0.0381,-0.026L0.0265,-0.0208L0.017,-0.0158L0.0096,-0.0112L0.0043,-0.0071L0.0011,-0.0033L0,-0L0.0011,0.0027L0.0043,0.0048L0.0096,0.0066L0.017,0.0081L0.0265,0.0094L0.0381,0.0104L0.0516,0.0113L0.067,0.0121L0.0843,0.0127L0.1033,0.0132L0.1241,0.0136L0.1464,0.014L0.1703,0.0143L0.1956,0.0146L0.2222,0.0149L0.25,0.0152L0.2789,0.0155L0.3087,0.0158L0.3393,0.0162L0.3706,0.0166L0.4024,0.0169L0.4347,0.0172L0.4673,0.0174L0.5,0.0176L0.5327,0.0177L0.5653,0.0176L0.5975,0.0175L0.6294,0.0172L0.6607,0.0169L0.6913,0.0165L0.7211,0.0159L0.75,0.0153L0.7778,0.0145L0.8044,0.0136L0.8297,0.0126L0.8536,0.0114L0.8759,0.0101L0.8967,0.0088L0.9157,0.0075L0.933,0.0062L0.9484,0.005L0.9619,0.0039L0.9735,0.0029L0.983,0.0019L0.9904,0.0012L0.9957,0.0005L0.9989,0.0001L1,-0"
    />
</svg>
