
<svg 
  class="airfoil-fx66s161"
  fill="none"
  stroke="black" 
  stroke-width="1"
  style="overflow:visible"
  viewBox="0, -0.1186, 1, 0.1627"
  xmlns="http://www.w3.org/2000/svg">
    <title>FX 66-S-161 AIRFOIL</title>
    <path 
      vector-effect="non-scaling-stroke"
      d="M1,-0L0.9989,-0.0003L0.9904,-0.0026L0.9735,-0.0068L0.9484,-0.0124L0.9157,-0.0192L0.8759,-0.0275L0.8536,-0.0322L0.8297,-0.0373L0.8044,-0.0426L0.7778,-0.0483L0.75,-0.0542L0.7211,-0.0604L0.6913,-0.0668L0.6607,-0.0733L0.6294,-0.0799L0.5975,-0.0865L0.5653,-0.0929L0.5327,-0.0991L0.5,-0.1047L0.4673,-0.1098L0.4347,-0.1139L0.4024,-0.1169L0.3706,-0.1184L0.3393,-0.1186L0.3087,-0.1175L0.2787,-0.1153L0.25,-0.112L0.2222,-0.1076L0.1956,-0.1021L0.1703,-0.0959L0.1464,-0.089L0.1241,-0.0816L0.1033,-0.0738L0.0843,-0.0657L0.067,-0.0574L0.0516,-0.049L0.0381,-0.0407L0.0265,-0.0326L0.017,-0.0248L0.0096,-0.0176L0.0043,-0.011L0.0011,-0.0054L0,-0L0.0011,0.0033L0.0043,0.007L0.0096,0.0108L0.017,0.0144L0.0265,0.018L0.0381,0.0214L0.0516,0.0247L0.067,0.0279L0.0843,0.0308L0.1033,0.0335L0.1241,0.0361L0.1464,0.0383L0.1703,0.0402L0.1956,0.0418L0.2222,0.0431L0.25,0.0439L0.2787,0.0441L0.3087,0.0435L0.3393,0.0425L0.3706,0.0409L0.4024,0.0388L0.4347,0.0357L0.4673,0.0322L0.5,0.0284L0.5327,0.0247L0.5653,0.021L0.5975,0.0176L0.6294,0.0142L0.6607,0.0113L0.6913,0.0085L0.7211,0.0062L0.75,0.0041L0.7778,0.0024L0.8044,0.0009L0.8297,-0.0002L0.8536,-0.001L0.8759,-0.0015L0.9157,-0.0019L0.9484,-0.0017L0.9735,-0.0012L0.9904,-0.0006L0.9989,-0.0001L1,-0"
    />
</svg>
