
<svg 
  class="airfoil-fx6617ai"
  fill="none"
  stroke="black" 
  stroke-width="1"
  style="overflow:visible"
  viewBox="0, -0.1307, 1, 0.1885"
  xmlns="http://www.w3.org/2000/svg">
    <title>WORTMANN FX 66-17AII-182 AIRFOIL</title>
    <desc># AS TESTED AT NASA</desc>
    <path 
      vector-effect="non-scaling-stroke"
      d="M0.9996,-0.0002L0.9903,-0.0029L0.9761,-0.0063L0.9499,-0.0126L0.9001,-0.0243L0.85,-0.0358L0.8001,-0.0474L0.7444,-0.0603L0.7014,-0.0703L0.6506,-0.082L0.601,-0.0933L0.5518,-0.1043L0.5004,-0.1151L0.4524,-0.1234L0.4018,-0.129L0.3528,-0.1307L0.3031,-0.1282L0.2532,-0.1217L0.2004,-0.1104L0.1511,-0.0955L0.102,-0.0761L0.0757,-0.0633L0.0609,-0.0551L0.0501,-0.0486L0.0347,-0.0384L0.0247,-0.0311L0.0178,-0.0252L0.0135,-0.0212L0.0058,-0.0126L0.005,-0.0113L0.0039,-0.0097L0.0028,-0.0079L0.0017,-0.0056L0.0008,-0.0035L0,-0L0.0008,0.0052L0.0017,0.0069L0.0028,0.0086L0.0039,0.0099L0.0053,0.0114L0.0064,0.0123L0.0135,0.0168L0.0359,0.0257L0.0511,0.0304L0.0764,0.0365L0.1017,0.0413L0.1507,0.0483L0.2006,0.0532L0.2503,0.0562L0.3017,0.0578L0.3505,0.0578L0.4007,0.056L0.4501,0.0525L0.5,0.0477L0.5506,0.0413L0.5997,0.034L0.6495,0.0263L0.7001,0.0189L0.7499,0.0123L0.7981,0.0073L0.849,0.0036L0.8991,0.0013L0.9476,0.0008L0.9703,0.001L0.9783,0.001L1,0.0006"
    />
</svg>
