
<svg 
  class="airfoil-fx66a175"
  fill="none"
  stroke="black" 
  stroke-width="1"
  style="overflow:visible"
  viewBox="0, -0.1289, 1, 0.17570001"
  xmlns="http://www.w3.org/2000/svg">
    <title>WORTMANN FX 66-17A-175 AIRFOIL</title>
    <path 
      vector-effect="non-scaling-stroke"
      d="M1,-0L0.9989,-0.0001L0.9904,-0.0024L0.9735,-0.0078L0.9484,-0.0142L0.9157,-0.0215L0.8759,-0.03L0.8536,-0.0347L0.8297,-0.0397L0.8044,-0.0451L0.7778,-0.0507L0.75,-0.0566L0.7211,-0.0627L0.6913,-0.0691L0.6607,-0.0757L0.6294,-0.0825L0.5975,-0.0895L0.5653,-0.0965L0.5327,-0.1034L0.5,-0.1099L0.4673,-0.1159L0.4347,-0.121L0.4024,-0.1251L0.3706,-0.1277L0.3393,-0.1289L0.3087,-0.1281L0.2789,-0.1259L0.25,-0.1219L0.2222,-0.1169L0.1956,-0.1107L0.1703,-0.1037L0.1464,-0.096L0.1241,-0.0878L0.1033,-0.0791L0.0843,-0.0701L0.067,-0.0609L0.0516,-0.0516L0.0381,-0.0424L0.0265,-0.0335L0.017,-0.025L0.0096,-0.0171L0.0043,-0.0103L0.0011,-0.0047L0,-0L0.0011,0.0026L0.0043,0.0059L0.0096,0.0094L0.017,0.0131L0.0265,0.0167L0.0381,0.0204L0.0516,0.024L0.067,0.0275L0.0843,0.0307L0.1033,0.0338L0.1241,0.0366L0.1464,0.0392L0.1703,0.0415L0.1956,0.0434L0.2222,0.045L0.25,0.0461L0.2789,0.0468L0.3087,0.0468L0.3393,0.0463L0.3706,0.0446L0.4024,0.042L0.4347,0.0381L0.4673,0.0334L0.5,0.0285L0.5327,0.0238L0.5653,0.0194L0.5975,0.0153L0.6294,0.0117L0.6607,0.0086L0.6913,0.0059L0.7211,0.0037L0.75,0.0019L0.7778,0.0005L0.8044,-0.0005L0.8297,-0.0012L0.8536,-0.0017L0.8759,-0.0019L0.9157,-0.0018L0.9484,-0.0013L0.9735,-0.0008L0.9904,-0.0003L0.9989,-0.0001L1,-0"
    />
</svg>
