
<svg 
  class="airfoil-fx66s196"
  fill="none"
  stroke="black" 
  stroke-width="1"
  style="overflow:visible"
  viewBox="0, -0.1357, 1, 0.1968"
  xmlns="http://www.w3.org/2000/svg">
    <title>FX 66-S-196 AIRFOIL</title>
    <path 
      vector-effect="non-scaling-stroke"
      d="M1,-0L0.9989,-0.0002L0.9904,-0.0026L0.9735,-0.0069L0.9484,-0.0131L0.9157,-0.0214L0.8759,-0.0318L0.8536,-0.0378L0.8297,-0.0444L0.8044,-0.0513L0.7778,-0.0588L0.75,-0.0665L0.7211,-0.0745L0.6913,-0.0825L0.6607,-0.0908L0.6294,-0.0989L0.5975,-0.1068L0.5653,-0.1141L0.5327,-0.121L0.5,-0.1267L0.4673,-0.1314L0.4347,-0.1343L0.4024,-0.1357L0.3706,-0.1352L0.3393,-0.1335L0.3087,-0.1304L0.2787,-0.1265L0.25,-0.1215L0.2222,-0.1159L0.1956,-0.1094L0.1703,-0.1024L0.1464,-0.0948L0.1241,-0.0868L0.1033,-0.0784L0.0843,-0.0699L0.067,-0.0611L0.0516,-0.0524L0.0381,-0.0436L0.0265,-0.0352L0.017,-0.027L0.0096,-0.0194L0.0043,-0.0124L0.0011,-0.0064L0,-0L0.0011,0.0034L0.0043,0.0079L0.0096,0.0122L0.017,0.0167L0.0265,0.021L0.0381,0.0254L0.0516,0.0295L0.067,0.0336L0.0843,0.0375L0.1033,0.0413L0.1241,0.0447L0.1464,0.0481L0.1703,0.0509L0.1956,0.0536L0.2222,0.0559L0.25,0.0579L0.2787,0.0594L0.3087,0.0605L0.3393,0.061L0.3706,0.0611L0.4024,0.0603L0.4347,0.0588L0.4673,0.0568L0.5,0.052L0.5327,0.0472L0.5653,0.0419L0.5975,0.0365L0.6294,0.0313L0.6607,0.0262L0.6913,0.0216L0.7211,0.0172L0.75,0.0134L0.7778,0.0099L0.8044,0.0069L0.8297,0.0043L0.8536,0.0023L0.8759,0.0006L0.9157,-0.0015L0.9484,-0.0021L0.9735,-0.0015L0.9904,-0.0003L0.9989,0.0004L1,-0"
    />
</svg>
