
<svg 
  class="airfoil-fx67k150"
  fill="none"
  stroke="black" 
  stroke-width="1"
  style="overflow:visible"
  viewBox="0, -0.1232, 1, 0.1505"
  xmlns="http://www.w3.org/2000/svg">
    <title>FX 67-K-150/17 AIRFOIL</title>
    <path 
      vector-effect="non-scaling-stroke"
      d="M1,-0L0.9989,-0.0003L0.9904,-0.0023L0.9735,-0.006L0.9484,-0.0113L0.9157,-0.0186L0.8759,-0.0281L0.8536,-0.0339L0.8297,-0.0406L0.8044,-0.0483L0.7778,-0.0567L0.75,-0.0657L0.7211,-0.0749L0.6913,-0.0839L0.6607,-0.0925L0.6294,-0.1002L0.5975,-0.107L0.5653,-0.1127L0.5327,-0.1172L0.5,-0.1204L0.4673,-0.1224L0.4347,-0.1232L0.4024,-0.1229L0.3706,-0.1215L0.3393,-0.1193L0.3087,-0.1162L0.2789,-0.1123L0.25,-0.1077L0.2222,-0.1025L0.1956,-0.0966L0.1703,-0.0903L0.1464,-0.0835L0.1241,-0.0763L0.1033,-0.0688L0.0843,-0.0611L0.067,-0.0533L0.0516,-0.0454L0.0381,-0.0375L0.0265,-0.0299L0.017,-0.0231L0.0096,-0.0163L0.0043,-0.0099L0.0011,-0.0046L0,-0L0.0011,0.0014L0.0043,0.0037L0.0096,0.0061L0.017,0.008L0.0265,0.0102L0.0381,0.0122L0.0516,0.0142L0.067,0.0161L0.0843,0.0179L0.1033,0.0195L0.1241,0.0211L0.1464,0.0225L0.1703,0.0237L0.1956,0.0247L0.2222,0.0256L0.25,0.0263L0.2789,0.0268L0.3087,0.0272L0.3393,0.0273L0.3706,0.0272L0.4024,0.027L0.4347,0.0265L0.4673,0.0259L0.5,0.025L0.5327,0.024L0.5653,0.0227L0.5975,0.0213L0.6294,0.0197L0.6607,0.0178L0.6913,0.0158L0.7211,0.0134L0.75,0.0108L0.7778,0.0081L0.8044,0.0056L0.8297,0.0033L0.8536,0.0015L0.8759,0.0001L0.9157,-0.0016L0.9484,-0.0019L0.9735,-0.0014L0.9904,-0.0006L0.9989,-0.0001L1,-0"
    />
</svg>
