
<svg 
  class="airfoil-fx67k170"
  fill="none"
  stroke="black" 
  stroke-width="1"
  style="overflow:visible"
  viewBox="0, -0.1357, 1, 0.1707"
  xmlns="http://www.w3.org/2000/svg">
    <title>FX 67-K-170/17 AIRFOIL</title>
    <path 
      vector-effect="non-scaling-stroke"
      d="M1,-0L0.9989,-0.0003L0.9904,-0.0024L0.9735,-0.0063L0.9484,-0.012L0.9157,-0.0199L0.8759,-0.0304L0.8536,-0.0369L0.8297,-0.0444L0.8044,-0.0529L0.7778,-0.0623L0.75,-0.0723L0.7211,-0.0826L0.6913,-0.0926L0.6607,-0.1021L0.6294,-0.1106L0.5975,-0.1181L0.5653,-0.1243L0.5327,-0.1292L0.5,-0.1327L0.4673,-0.1349L0.4347,-0.1357L0.4024,-0.1353L0.3706,-0.1337L0.3393,-0.1312L0.3087,-0.1278L0.2789,-0.1236L0.25,-0.1187L0.2222,-0.113L0.1956,-0.1068L0.1703,-0.0999L0.1464,-0.0926L0.1241,-0.0849L0.1033,-0.0768L0.0843,-0.0686L0.067,-0.0601L0.0516,-0.0516L0.0381,-0.0431L0.0265,-0.0349L0.017,-0.0277L0.0096,-0.0201L0.0043,-0.0129L0.0011,-0.0065L0,-0L0.0011,0.0022L0.0043,0.0051L0.0096,0.0082L0.017,0.0106L0.0265,0.0132L0.0381,0.0158L0.0516,0.0183L0.067,0.0206L0.0843,0.0228L0.1033,0.0249L0.1241,0.0268L0.1464,0.0286L0.1703,0.0301L0.1956,0.0315L0.2222,0.0326L0.25,0.0335L0.2789,0.0342L0.3087,0.0347L0.3393,0.035L0.3706,0.035L0.4024,0.0348L0.4347,0.0344L0.4673,0.0336L0.5,0.0327L0.5327,0.0316L0.5653,0.0301L0.5975,0.0284L0.6294,0.0265L0.6607,0.0244L0.6913,0.0219L0.7211,0.019L0.75,0.0157L0.7778,0.0124L0.8044,0.0091L0.8297,0.0063L0.8536,0.0039L0.8759,0.002L0.9157,-0.0004L0.9484,-0.0012L0.9735,-0.001L0.9904,-0.0004L0.9989,-0L1,-0"
    />
</svg>
