
<svg 
  class="airfoil-fx68h120"
  fill="none"
  stroke="black" 
  stroke-width="1"
  style="overflow:visible"
  viewBox="0, -0.0819, 1, 0.1187"
  xmlns="http://www.w3.org/2000/svg">
    <title>FX 68-H-120</title>
    <path 
      vector-effect="non-scaling-stroke"
      d="M1,-0L0.9989,-0.0001L0.9957,-0L0.9904,-0.0002L0.983,-0.0006L0.9735,-0.0013L0.9619,-0.0024L0.9484,-0.0041L0.933,-0.0063L0.9157,-0.0091L0.8967,-0.0125L0.8759,-0.0165L0.8536,-0.0209L0.8297,-0.0258L0.8044,-0.031L0.7778,-0.0364L0.75,-0.0418L0.7211,-0.047L0.6913,-0.0521L0.6607,-0.0568L0.6294,-0.061L0.5975,-0.0648L0.5653,-0.068L0.5327,-0.0707L0.5,-0.0732L0.4673,-0.0754L0.4347,-0.0773L0.4024,-0.0789L0.3706,-0.0802L0.3393,-0.0811L0.3087,-0.0817L0.2789,-0.0819L0.25,-0.0816L0.2222,-0.0807L0.1956,-0.0794L0.1703,-0.0773L0.1464,-0.0747L0.1241,-0.0714L0.1033,-0.0672L0.0843,-0.0618L0.067,-0.0552L0.0516,-0.0474L0.0381,-0.0389L0.0265,-0.0301L0.017,-0.0217L0.0096,-0.0142L0.0043,-0.0082L0.0011,-0.0036L0,-0L0.0011,0.0034L0.0043,0.007L0.0096,0.011L0.017,0.0151L0.0265,0.0193L0.0381,0.0233L0.0516,0.027L0.067,0.0302L0.0843,0.0328L0.1033,0.0347L0.1241,0.0358L0.1464,0.0364L0.1703,0.0367L0.1956,0.0368L0.2222,0.0368L0.25,0.0365L0.2789,0.0361L0.3087,0.0355L0.3393,0.0349L0.3706,0.0341L0.4024,0.0332L0.4347,0.0322L0.4673,0.0311L0.5,0.03L0.5327,0.0288L0.5653,0.0275L0.5975,0.0262L0.6294,0.0249L0.6607,0.0236L0.6913,0.0223L0.7211,0.0209L0.75,0.0194L0.7778,0.018L0.8044,0.0166L0.8297,0.0151L0.8536,0.0136L0.8759,0.0121L0.8967,0.0105L0.9157,0.009L0.933,0.0075L0.9484,0.006L0.9619,0.0046L0.9735,0.0033L0.983,0.0023L0.9904,0.0014L0.9957,0.0008L0.9989,0.0003L1,-0"
    />
</svg>
