
<svg 
  class="airfoil-fx69pr281"
  fill="none"
  stroke="black" 
  stroke-width="1"
  style="overflow:visible"
  viewBox="0, -0.1851, 1, 0.2875"
  xmlns="http://www.w3.org/2000/svg">
    <title>FX 69-PR-281</title>
    <path 
      vector-effect="non-scaling-stroke"
      d="M1,-0L0.9989,-0.0009L0.9957,-0.0029L0.9904,-0.0057L0.983,-0.0093L0.9735,-0.0136L0.9619,-0.0184L0.9484,-0.0239L0.933,-0.0299L0.9157,-0.0364L0.8967,-0.0432L0.8759,-0.0507L0.8536,-0.0586L0.8297,-0.0667L0.8044,-0.0753L0.7778,-0.0841L0.75,-0.0931L0.7211,-0.1021L0.6913,-0.1111L0.6607,-0.12L0.6294,-0.1289L0.5975,-0.1373L0.5653,-0.1453L0.5327,-0.1529L0.5,-0.1599L0.4673,-0.1661L0.4347,-0.1719L0.4024,-0.1766L0.3706,-0.1803L0.3393,-0.1829L0.3087,-0.1846L0.2789,-0.1851L0.25,-0.1846L0.2222,-0.1829L0.1956,-0.1796L0.1703,-0.1749L0.1464,-0.1687L0.1241,-0.161L0.1033,-0.1519L0.0843,-0.1413L0.067,-0.1293L0.0516,-0.116L0.0381,-0.1019L0.0265,-0.087L0.017,-0.0716L0.0096,-0.0557L0.0043,-0.0389L0.0011,-0.0204L0,-0L0.0011,0.016L0.0043,0.03L0.0096,0.0424L0.017,0.0537L0.0265,0.064L0.0381,0.073L0.0516,0.0809L0.067,0.0876L0.0843,0.0933L0.1033,0.0977L0.1241,0.1007L0.1464,0.1023L0.1703,0.1024L0.1956,0.101L0.2222,0.0984L0.25,0.0949L0.2789,0.0906L0.3087,0.0856L0.3393,0.08L0.3706,0.0739L0.4024,0.0676L0.4347,0.061L0.4673,0.0543L0.5,0.0476L0.5327,0.0411L0.5653,0.0349L0.5975,0.0289L0.6294,0.0231L0.6607,0.0179L0.6913,0.0131L0.7211,0.0087L0.75,0.0049L0.7778,0.0016L0.8044,-0.0011L0.8297,-0.0033L0.8536,-0.005L0.8759,-0.0061L0.8967,-0.0072L0.9157,-0.0073L0.933,-0.0072L0.9484,-0.0067L0.9619,-0.006L0.9735,-0.0051L0.983,-0.004L0.9904,-0.0027L0.9957,-0.0016L0.9989,-0.0006L1,-0"
    />
</svg>
