
<svg 
  class="airfoil-fx69h083"
  fill="none"
  stroke="black" 
  stroke-width="1"
  style="overflow:visible"
  viewBox="0, -0.0664, 1, 0.0845"
  xmlns="http://www.w3.org/2000/svg">
    <title>BELL/WORTMANN FX 69-H-083 AIRFOIL</title>
    <path 
      vector-effect="non-scaling-stroke"
      d="M1,-0.0005L0.9444,-0.0059L0.8888,-0.0134L0.8333,-0.0218L0.7777,-0.0301L0.7222,-0.038L0.6667,-0.0452L0.6111,-0.0515L0.5555,-0.0568L0.5,-0.0612L0.4444,-0.0643L0.3889,-0.0661L0.3333,-0.0664L0.2778,-0.0651L0.2222,-0.0615L0.1667,-0.0553L0.1389,-0.0505L0.1111,-0.0459L0.0833,-0.0391L0.0556,-0.0318L0.0389,-0.0259L0.0278,-0.0213L0.0222,-0.0187L0.0167,-0.0157L0.0111,-0.0123L0.0055,-0.0082L0,-0L0.0055,0.005L0.0111,0.0068L0.0167,0.008L0.0222,0.009L0.0278,0.0098L0.0389,0.0111L0.0556,0.0124L0.0833,0.0139L0.1111,0.0149L0.1389,0.0156L0.1667,0.0161L0.2222,0.0168L0.2778,0.0172L0.3333,0.0176L0.3889,0.0178L0.4444,0.0181L0.5,0.018L0.5555,0.0176L0.6111,0.0169L0.6667,0.0161L0.7222,0.0151L0.7777,0.0138L0.8333,0.0119L0.8888,0.0091L0.9444,0.0055L1,0.0014"
    />
</svg>
