
<svg 
  class="airfoil-fx69h098"
  fill="none"
  stroke="black" 
  stroke-width="1"
  style="overflow:visible"
  viewBox="0, -0.0666, 1, 0.09900001"
  xmlns="http://www.w3.org/2000/svg">
    <title>BELL/WORTMANN FX 69-H-098 AIRFOIL</title>
    <path 
      vector-effect="non-scaling-stroke"
      d="M1,-0.0009L0.9579,-0.0072L0.8847,-0.0185L0.8379,-0.0248L0.7856,-0.0312L0.7283,-0.0377L0.6673,-0.0442L0.6035,-0.0501L0.538,-0.0553L0.471,-0.0598L0.407,-0.0631L0.3429,-0.0654L0.2818,-0.0666L0.2245,-0.0661L0.1721,-0.063L0.1253,-0.0573L0.0851,-0.0486L0.052,-0.0377L0.0384,-0.032L0.0172,-0.0204L0.0096,-0.0148L0.0043,-0.0096L0,-0L0.0043,0.0069L0.0096,0.0096L0.0172,0.0122L0.0384,0.0171L0.052,0.0192L0.0851,0.0231L0.1253,0.0264L0.1721,0.0292L0.2245,0.0313L0.2818,0.0323L0.3429,0.0324L0.407,0.0317L0.471,0.0305L0.538,0.0288L0.6035,0.0267L0.6673,0.0242L0.7283,0.0215L0.7856,0.0186L0.8379,0.0156L0.8847,0.0126L0.9579,0.0064L1,0.0013"
    />
</svg>
