
<svg 
  class="airfoil-fx69274"
  fill="none"
  stroke="black" 
  stroke-width="1"
  style="overflow:visible"
  viewBox="0, -0.1687, 1, 0.2741"
  xmlns="http://www.w3.org/2000/svg">
    <title>FX 69-274</title>
    <path 
      vector-effect="non-scaling-stroke"
      d="M1,-0L0.9989,-0.0074L0.9957,-0.0081L0.9904,-0.0093L0.983,-0.0111L0.9735,-0.0134L0.9619,-0.0164L0.9484,-0.02L0.933,-0.0244L0.9157,-0.0296L0.8967,-0.0355L0.8759,-0.0421L0.8536,-0.0494L0.8297,-0.0574L0.8044,-0.066L0.7778,-0.075L0.75,-0.0843L0.7211,-0.0937L0.6913,-0.1033L0.6607,-0.1127L0.6294,-0.1219L0.5975,-0.1306L0.5653,-0.1389L0.5327,-0.1463L0.5,-0.153L0.4673,-0.1586L0.4347,-0.1631L0.4024,-0.1664L0.3706,-0.1683L0.3393,-0.1687L0.3087,-0.1679L0.2789,-0.1653L0.25,-0.1614L0.2222,-0.1561L0.1956,-0.1494L0.1703,-0.1416L0.1464,-0.1327L0.1241,-0.1229L0.1033,-0.1123L0.0843,-0.1013L0.067,-0.0897L0.0516,-0.078L0.0381,-0.0661L0.0265,-0.0544L0.017,-0.0429L0.0096,-0.0316L0.0043,-0.0207L0.0011,-0.0104L0,-0L0.0011,0.0094L0.0043,0.0184L0.0096,0.0271L0.017,0.0354L0.0265,0.0436L0.0381,0.0511L0.0516,0.0586L0.067,0.0656L0.0843,0.0721L0.1033,0.0783L0.1241,0.0839L0.1464,0.089L0.1703,0.0936L0.1956,0.0974L0.2222,0.1006L0.25,0.103L0.2789,0.1046L0.3087,0.1054L0.3393,0.1054L0.3706,0.1046L0.4024,0.103L0.4347,0.1007L0.4673,0.0979L0.5,0.0943L0.5327,0.09L0.5653,0.0854L0.5975,0.0803L0.6294,0.0749L0.6607,0.0691L0.6913,0.0633L0.7211,0.0573L0.75,0.0513L0.7778,0.0454L0.8044,0.0397L0.8297,0.0343L0.8536,0.0294L0.8759,0.0249L0.8967,0.0207L0.9157,0.0176L0.933,0.0148L0.9484,0.0124L0.9619,0.0106L0.9735,0.0091L0.983,0.0082L0.9904,0.0076L0.9957,0.0071L0.9989,0.0069L1,-0"
    />
</svg>
