
<svg 
  class="airfoil-fx711520"
  fill="none"
  stroke="black" 
  stroke-width="1"
  style="overflow:visible"
  viewBox="0, -0.075, 1, 0.15"
  xmlns="http://www.w3.org/2000/svg">
    <title>FX 71-L-150/20 AIRFOIL</title>
    <path 
      vector-effect="non-scaling-stroke"
      d="M1,-0L0.9989,-0.0001L0.9904,-0.0008L0.9735,-0.0021L0.9484,-0.0038L0.9157,-0.0063L0.8759,-0.0093L0.8536,-0.0112L0.8297,-0.0135L0.8044,-0.0164L0.7778,-0.0205L0.75,-0.0253L0.7211,-0.0303L0.6913,-0.0358L0.6607,-0.0414L0.6294,-0.047L0.5975,-0.0524L0.5653,-0.0577L0.5327,-0.0622L0.5,-0.0663L0.4673,-0.0695L0.4347,-0.072L0.4024,-0.0737L0.3706,-0.0748L0.3393,-0.075L0.3087,-0.0747L0.2787,-0.0736L0.25,-0.0721L0.2222,-0.07L0.1956,-0.0675L0.1703,-0.0645L0.1464,-0.0611L0.1241,-0.0573L0.1033,-0.0534L0.0843,-0.0489L0.067,-0.0444L0.0516,-0.0395L0.0381,-0.0347L0.0265,-0.0295L0.017,-0.0246L0.0096,-0.0192L0.0043,-0.0147L0.0011,-0.0083L0,-0L0.0011,0.0083L0.0043,0.0147L0.0096,0.0192L0.017,0.0246L0.0265,0.0295L0.0381,0.0347L0.0516,0.0395L0.067,0.0444L0.0843,0.0489L0.1033,0.0534L0.1241,0.0573L0.1464,0.0611L0.1703,0.0645L0.1956,0.0675L0.2222,0.07L0.25,0.0721L0.2787,0.0736L0.3087,0.0747L0.3393,0.075L0.3706,0.0748L0.4024,0.0737L0.4347,0.072L0.4673,0.0695L0.5,0.0663L0.5327,0.0622L0.5653,0.0577L0.5975,0.0524L0.6294,0.047L0.6607,0.0414L0.6913,0.0358L0.7211,0.0303L0.75,0.0253L0.7778,0.0205L0.8044,0.0164L0.8297,0.0135L0.8536,0.0112L0.8759,0.0093L0.9157,0.0063L0.9484,0.0038L0.9735,0.0021L0.9904,0.0008L0.9989,0.0001L1,-0"
    />
</svg>
