
<svg 
  class="airfoil-fx71089a"
  fill="none"
  stroke="black" 
  stroke-width="1"
  style="overflow:visible"
  viewBox="0, -0.0447, 1, 0.0894"
  xmlns="http://www.w3.org/2000/svg">
    <title>WORTMANN FX 71-089A AIRFOIL</title>
    <path 
      vector-effect="non-scaling-stroke"
      d="M1,-0L0.9904,-0.0009L0.9735,-0.0026L0.9484,-0.0049L0.9157,-0.0077L0.8759,-0.0111L0.8536,-0.013L0.8297,-0.0149L0.8044,-0.017L0.7778,-0.0191L0.75,-0.0213L0.7211,-0.0236L0.6913,-0.0258L0.6607,-0.0279L0.6294,-0.0301L0.5975,-0.0321L0.5653,-0.0341L0.5327,-0.0359L0.5,-0.0376L0.4673,-0.0391L0.4347,-0.0406L0.4024,-0.0418L0.3706,-0.0428L0.3393,-0.0436L0.3087,-0.0442L0.2789,-0.0446L0.25,-0.0447L0.2222,-0.0447L0.1956,-0.0443L0.1703,-0.0438L0.1464,-0.0429L0.1241,-0.0417L0.1033,-0.0404L0.0843,-0.0386L0.067,-0.0365L0.0516,-0.0341L0.0381,-0.0312L0.0265,-0.0282L0.017,-0.0238L0.0096,-0.018L0.0043,-0.0122L0.0011,-0.0062L0,-0L0.0011,0.0062L0.0043,0.0122L0.0096,0.018L0.017,0.0238L0.0265,0.0282L0.0381,0.0312L0.0516,0.0341L0.067,0.0365L0.0843,0.0386L0.1033,0.0404L0.1241,0.0417L0.1464,0.0429L0.1703,0.0438L0.1956,0.0443L0.2222,0.0447L0.25,0.0447L0.2789,0.0446L0.3087,0.0442L0.3393,0.0436L0.3706,0.0428L0.4024,0.0418L0.4347,0.0406L0.4673,0.0391L0.5,0.0376L0.5327,0.0359L0.5653,0.0341L0.5975,0.0321L0.6294,0.0301L0.6607,0.0279L0.6913,0.0258L0.7211,0.0236L0.75,0.0213L0.7778,0.0191L0.8044,0.017L0.8297,0.0149L0.8536,0.013L0.8759,0.0111L0.9157,0.0077L0.9484,0.0049L0.9735,0.0026L0.9904,0.0009L1,-0"
    />
</svg>
