
<svg 
  class="airfoil-fx71l150"
  fill="none"
  stroke="black" 
  stroke-width="1"
  style="overflow:visible"
  viewBox="0.0011, -0.075, 0.9978, 0.15"
  xmlns="http://www.w3.org/2000/svg">
    <title>FX 71-L-150/30 AIRFOIL</title>
    <path 
      vector-effect="non-scaling-stroke"
      d="M0.9989,-0.0001L0.9904,-0.0009L0.9735,-0.0023L0.9484,-0.0044L0.9157,-0.0076L0.8759,-0.0118L0.8536,-0.0145L0.8297,-0.0171L0.8044,-0.0204L0.7778,-0.0235L0.75,-0.0274L0.7211,-0.0314L0.6913,-0.0373L0.6607,-0.0426L0.6294,-0.0485L0.5975,-0.0536L0.5653,-0.0584L0.5327,-0.0627L0.5,-0.0667L0.4673,-0.0697L0.4347,-0.0722L0.4024,-0.0737L0.3706,-0.0749L0.3393,-0.075L0.3087,-0.0748L0.2789,-0.0737L0.25,-0.0723L0.2222,-0.0701L0.1956,-0.0677L0.1703,-0.0647L0.1464,-0.0614L0.1241,-0.0575L0.1033,-0.0535L0.0843,-0.049L0.067,-0.0445L0.0516,-0.0396L0.0381,-0.0347L0.0265,-0.0294L0.017,-0.0244L0.0096,-0.019L0.0043,-0.0144L0.0011,-0.0081L0.0011,0.0081L0.0043,0.0144L0.0096,0.019L0.017,0.0244L0.0265,0.0294L0.0381,0.0347L0.0516,0.0396L0.067,0.0445L0.0843,0.049L0.1033,0.0535L0.1241,0.0575L0.1464,0.0614L0.1703,0.0647L0.1956,0.0677L0.2222,0.0701L0.25,0.0723L0.2789,0.0737L0.3087,0.0748L0.3393,0.075L0.3706,0.0749L0.4024,0.0737L0.4347,0.0722L0.4673,0.0697L0.5,0.0667L0.5327,0.0627L0.5653,0.0584L0.5975,0.0536L0.6294,0.0485L0.6607,0.0426L0.6913,0.0373L0.7211,0.0314L0.75,0.0274L0.7778,0.0235L0.8044,0.0204L0.8297,0.0171L0.8536,0.0145L0.8759,0.0118L0.9157,0.0076L0.9484,0.0044L0.9735,0.0023L0.9904,0.0009L0.9989,0.0001"
    />
</svg>
