
<svg 
  class="airfoil-fx71120"
  fill="none"
  stroke="black" 
  stroke-width="1"
  style="overflow:visible"
  viewBox="0, -0.0599, 1, 0.1198"
  xmlns="http://www.w3.org/2000/svg">
    <title>WORTMANN FX 71-120 AIRFOIL</title>
    <path 
      vector-effect="non-scaling-stroke"
      d="M1,-0L0.9904,-0.001L0.9735,-0.0034L0.9484,-0.0066L0.9157,-0.0104L0.8759,-0.0149L0.8536,-0.0174L0.8297,-0.0201L0.8044,-0.0229L0.7778,-0.0258L0.75,-0.0288L0.7211,-0.0318L0.6913,-0.0348L0.6607,-0.0377L0.6294,-0.0405L0.5975,-0.0433L0.5653,-0.0459L0.5327,-0.0484L0.5,-0.0507L0.4673,-0.0527L0.4347,-0.0547L0.4024,-0.0563L0.3706,-0.0576L0.3393,-0.0586L0.3087,-0.0594L0.2789,-0.0598L0.25,-0.0599L0.2222,-0.0598L0.1956,-0.0593L0.1703,-0.0583L0.1464,-0.0571L0.1241,-0.0553L0.1033,-0.0532L0.0843,-0.0507L0.067,-0.0479L0.0516,-0.0444L0.0381,-0.0407L0.0265,-0.0348L0.017,-0.0281L0.0096,-0.0212L0.0043,-0.0141L0.0011,-0.0071L0,-0L0.0011,0.0071L0.0043,0.0141L0.0096,0.0212L0.017,0.0281L0.0265,0.0348L0.0381,0.0407L0.0516,0.0444L0.067,0.0479L0.0843,0.0507L0.1033,0.0532L0.1241,0.0553L0.1464,0.0571L0.1703,0.0583L0.1956,0.0593L0.2222,0.0598L0.25,0.0599L0.2789,0.0598L0.3087,0.0594L0.3393,0.0586L0.3706,0.0576L0.4024,0.0563L0.4347,0.0547L0.4673,0.0527L0.5,0.0507L0.5327,0.0484L0.5653,0.0459L0.5975,0.0433L0.6294,0.0405L0.6607,0.0377L0.6913,0.0348L0.7211,0.0318L0.75,0.0288L0.7778,0.0258L0.8044,0.0229L0.8297,0.0201L0.8536,0.0174L0.8759,0.0149L0.9157,0.0104L0.9484,0.0066L0.9735,0.0034L0.9904,0.001L1,-0"
    />
</svg>
