
<svg 
  class="airfoil-fx711525"
  fill="none"
  stroke="black" 
  stroke-width="1"
  style="overflow:visible"
  viewBox="0, -0.075, 1, 0.15"
  xmlns="http://www.w3.org/2000/svg">
    <title>FX 71-L-150/25 AIRFOIL</title>
    <path 
      vector-effect="non-scaling-stroke"
      d="M1,-0L0.9989,-0.0001L0.9904,-0.0009L0.9735,-0.0022L0.9484,-0.0043L0.9157,-0.0073L0.8759,-0.0114L0.8536,-0.0138L0.8297,-0.0163L0.8044,-0.0192L0.7778,-0.0226L0.75,-0.0277L0.7211,-0.033L0.6913,-0.0385L0.6607,-0.0441L0.6294,-0.0495L0.5975,-0.0546L0.5653,-0.0589L0.5327,-0.0632L0.5,-0.0669L0.4673,-0.07L0.4347,-0.0723L0.4024,-0.0739L0.3706,-0.0748L0.3393,-0.075L0.3087,-0.0746L0.2787,-0.0736L0.25,-0.072L0.2222,-0.0699L0.1956,-0.0674L0.1703,-0.0644L0.1464,-0.0611L0.1241,-0.0572L0.1033,-0.0533L0.0843,-0.0488L0.067,-0.0443L0.0516,-0.0394L0.0381,-0.0346L0.0265,-0.0294L0.017,-0.0245L0.0096,-0.019L0.0043,-0.0146L0.0011,-0.0082L0,-0L0.0011,0.0082L0.0043,0.0146L0.0096,0.019L0.017,0.0245L0.0265,0.0294L0.0381,0.0346L0.0516,0.0394L0.067,0.0443L0.0843,0.0488L0.1033,0.0533L0.1241,0.0572L0.1464,0.0611L0.1703,0.0644L0.1956,0.0674L0.2222,0.0699L0.25,0.072L0.2787,0.0736L0.3087,0.0746L0.3393,0.075L0.3706,0.0748L0.4024,0.0739L0.4347,0.0723L0.4673,0.07L0.5,0.0669L0.5327,0.0632L0.5653,0.0589L0.5975,0.0546L0.6294,0.0495L0.6607,0.0441L0.6913,0.0385L0.7211,0.033L0.75,0.0277L0.7778,0.0226L0.8044,0.0192L0.8297,0.0163L0.8536,0.0138L0.8759,0.0114L0.9157,0.0073L0.9484,0.0043L0.9735,0.0022L0.9904,0.0009L0.9989,0.0001L1,-0"
    />
</svg>
