
<svg 
  class="airfoil-fx72ls160"
  fill="none"
  stroke="black" 
  stroke-width="1"
  style="overflow:visible"
  viewBox="0, -0.1619, 1, 0.1778"
  xmlns="http://www.w3.org/2000/svg">
    <title>FX 72-LS-160</title>
    <path 
      vector-effect="non-scaling-stroke"
      d="M1,-0L0.9989,-0.0004L0.9957,-0.0015L0.9904,-0.0033L0.983,-0.0058L0.9735,-0.0091L0.9619,-0.0131L0.9484,-0.0177L0.933,-0.023L0.9157,-0.0289L0.8967,-0.0354L0.8759,-0.0425L0.8536,-0.0502L0.8297,-0.0584L0.8044,-0.0671L0.7778,-0.0762L0.75,-0.0858L0.7211,-0.0958L0.6913,-0.106L0.6607,-0.1164L0.6294,-0.1266L0.5975,-0.1362L0.5653,-0.1446L0.5327,-0.1514L0.5,-0.1564L0.4673,-0.1598L0.4347,-0.1616L0.4024,-0.1619L0.3706,-0.1606L0.3393,-0.1579L0.3087,-0.1541L0.2789,-0.1494L0.25,-0.1436L0.2222,-0.1371L0.1956,-0.1298L0.1703,-0.1218L0.1464,-0.1133L0.1241,-0.1043L0.1033,-0.0949L0.0843,-0.0852L0.067,-0.0754L0.0516,-0.0655L0.0381,-0.0556L0.0265,-0.0458L0.017,-0.0363L0.0096,-0.0275L0.0043,-0.0181L0.0011,-0.0083L0,-0L0.0011,0.0058L0.0043,0.0089L0.0096,0.011L0.017,0.0131L0.0265,0.0147L0.0381,0.0156L0.0516,0.0159L0.067,0.0157L0.0843,0.0151L0.1033,0.0142L0.1241,0.0132L0.1464,0.012L0.1703,0.0105L0.1956,0.009L0.2222,0.0075L0.25,0.0058L0.2789,0.0042L0.3087,0.0026L0.3393,0.001L0.3706,-0.0005L0.4024,-0.0019L0.4347,-0.0032L0.4673,-0.0044L0.5,-0.0055L0.5327,-0.0065L0.5653,-0.0073L0.5975,-0.008L0.6294,-0.0086L0.6607,-0.009L0.6913,-0.0093L0.7211,-0.0095L0.75,-0.0096L0.7778,-0.0097L0.8044,-0.0099L0.8297,-0.0101L0.8536,-0.0102L0.8759,-0.0103L0.8967,-0.0102L0.9157,-0.0098L0.933,-0.0092L0.9484,-0.0082L0.9619,-0.0069L0.9735,-0.0054L0.983,-0.0039L0.9904,-0.0025L0.9957,-0.0014L0.9989,-0.0004L1,-0"
    />
</svg>
