
<svg 
  class="airfoil-fx72150a"
  fill="none"
  stroke="black" 
  stroke-width="1"
  style="overflow:visible"
  viewBox="0, -0.1551, 1, 0.17"
  xmlns="http://www.w3.org/2000/svg">
    <title>WORTMANN FX 72-MS-150A AIRFOIL</title>
    <path 
      vector-effect="non-scaling-stroke"
      d="M1,-0L0.9989,-0.0004L0.9904,-0.0033L0.9735,-0.0091L0.9484,-0.0178L0.9157,-0.029L0.8759,-0.0427L0.8536,-0.0504L0.8297,-0.0586L0.8044,-0.0674L0.7778,-0.0765L0.75,-0.0861L0.7211,-0.0952L0.6913,-0.1042L0.6607,-0.1129L0.6294,-0.1214L0.5975,-0.1292L0.5653,-0.1363L0.5327,-0.1425L0.5,-0.1478L0.4673,-0.1517L0.4347,-0.1544L0.4024,-0.1551L0.3706,-0.1543L0.3393,-0.1517L0.3087,-0.1481L0.2789,-0.1433L0.25,-0.1375L0.2222,-0.1308L0.1956,-0.1234L0.1703,-0.1153L0.1464,-0.1066L0.1241,-0.0973L0.1033,-0.0877L0.0843,-0.0778L0.067,-0.0678L0.0516,-0.0577L0.0381,-0.0477L0.0265,-0.0379L0.017,-0.0287L0.0096,-0.0199L0.0043,-0.0125L0.0011,-0.0068L0,-0L0.0011,0.006L0.0043,0.0106L0.0096,0.0125L0.017,0.0138L0.0265,0.0143L0.0381,0.0149L0.0516,0.0148L0.067,0.0146L0.0843,0.0141L0.1033,0.0133L0.1241,0.0123L0.1464,0.0111L0.1703,0.0098L0.1956,0.0083L0.2222,0.0066L0.25,0.0048L0.2789,0.0028L0.3087,0.0007L0.3393,-0.0017L0.3706,-0.0042L0.4024,-0.0074L0.4347,-0.0109L0.4673,-0.0151L0.5,-0.0188L0.5327,-0.0227L0.5653,-0.0261L0.5975,-0.0292L0.6294,-0.0317L0.6607,-0.0336L0.6913,-0.0347L0.7211,-0.0352L0.75,-0.0349L0.7778,-0.0339L0.8044,-0.0322L0.8297,-0.0301L0.8536,-0.0273L0.8759,-0.0244L0.9157,-0.0179L0.9484,-0.0116L0.9735,-0.0062L0.9904,-0.0024L0.9989,-0.0003L1,-0"
    />
</svg>
