
<svg 
  class="airfoil-fx72150b"
  fill="none"
  stroke="black" 
  stroke-width="1"
  style="overflow:visible"
  viewBox="0, -0.1686, 1, 0.181"
  xmlns="http://www.w3.org/2000/svg">
    <title>WORTMANN FX 72-MS-150B AIRFOIL</title>
    <path 
      vector-effect="non-scaling-stroke"
      d="M1,-0L0.9989,-0.0004L0.9904,-0.0037L0.9735,-0.0102L0.9484,-0.0198L0.9157,-0.0323L0.8759,-0.0476L0.8536,-0.0561L0.8297,-0.0653L0.8044,-0.075L0.7778,-0.0852L0.75,-0.0958L0.7211,-0.1057L0.6913,-0.1155L0.6607,-0.1249L0.6294,-0.1339L0.5975,-0.1421L0.5653,-0.1496L0.5327,-0.156L0.5,-0.1616L0.4673,-0.1655L0.4347,-0.1681L0.4024,-0.1686L0.3706,-0.1675L0.3393,-0.1645L0.3087,-0.1605L0.2789,-0.155L0.25,-0.1487L0.2222,-0.1414L0.1956,-0.1332L0.1703,-0.1243L0.1464,-0.1148L0.1241,-0.1047L0.1033,-0.0943L0.0843,-0.0835L0.067,-0.0726L0.0516,-0.0615L0.0381,-0.0507L0.0265,-0.0401L0.017,-0.0305L0.0096,-0.0215L0.0043,-0.0133L0.0011,-0.0065L0,-0L0.0011,0.0056L0.0043,0.0095L0.0096,0.0115L0.017,0.0123L0.0265,0.0124L0.0381,0.0123L0.0516,0.0114L0.067,0.0103L0.0843,0.0089L0.1033,0.0072L0.1241,0.0053L0.1464,0.0032L0.1703,0.001L0.1956,-0.0013L0.2222,-0.0038L0.25,-0.0063L0.2789,-0.009L0.3087,-0.0116L0.3393,-0.0145L0.3706,-0.0174L0.4024,-0.0209L0.4347,-0.0246L0.4673,-0.0289L0.5,-0.0327L0.5327,-0.0364L0.5653,-0.0396L0.5975,-0.0424L0.6294,-0.0445L0.6607,-0.0459L0.6913,-0.0464L0.7211,-0.0462L0.75,-0.0451L0.7778,-0.0433L0.8044,-0.0407L0.8297,-0.0377L0.8536,-0.0341L0.8759,-0.0302L0.9157,-0.0221L0.9484,-0.0143L0.9735,-0.0077L0.9904,-0.003L0.9989,-0.0004L1,-0"
    />
</svg>
