
<svg 
  class="airfoil-fx73cl1152"
  fill="none"
  stroke="black" 
  stroke-width="1"
  style="overflow:visible"
  viewBox="0, -0.1343, 1, 0.1672"
  xmlns="http://www.w3.org/2000/svg">
    <title>FX 73-CL1-152</title>
    <path 
      vector-effect="non-scaling-stroke"
      d="M1,-0L0.9989,-0.0007L0.9957,-0.0018L0.9904,-0.0033L0.983,-0.0053L0.9735,-0.0076L0.9619,-0.0103L0.9484,-0.0132L0.933,-0.0164L0.9157,-0.02L0.8967,-0.0239L0.8759,-0.0281L0.8536,-0.0328L0.8297,-0.0377L0.8044,-0.0429L0.7778,-0.0485L0.75,-0.0543L0.7211,-0.0604L0.6913,-0.0667L0.6607,-0.0733L0.6294,-0.0799L0.5975,-0.0867L0.5653,-0.0934L0.5327,-0.1001L0.5,-0.1066L0.4673,-0.1128L0.4347,-0.1186L0.4024,-0.1238L0.3706,-0.1283L0.3393,-0.1318L0.3087,-0.1339L0.2789,-0.1343L0.25,-0.1331L0.2222,-0.1304L0.1956,-0.1263L0.1703,-0.1207L0.1464,-0.1136L0.1241,-0.1055L0.1033,-0.0965L0.0843,-0.0869L0.067,-0.0767L0.0516,-0.0662L0.0381,-0.0557L0.0265,-0.0453L0.017,-0.0351L0.0096,-0.0253L0.0043,-0.0161L0.0011,-0.0078L0,-0L0.0011,0.0076L0.0043,0.0148L0.0096,0.0212L0.017,0.0259L0.0265,0.0292L0.0381,0.0313L0.0516,0.0325L0.067,0.0329L0.0843,0.0328L0.1033,0.0321L0.1241,0.0309L0.1464,0.0293L0.1703,0.0271L0.1956,0.0245L0.2222,0.0217L0.25,0.0188L0.2789,0.0159L0.3087,0.013L0.3393,0.0101L0.3706,0.0073L0.4024,0.0046L0.4347,0.0022L0.4673,-0.0001L0.5,-0.0021L0.5327,-0.004L0.5653,-0.0056L0.5975,-0.007L0.6294,-0.0081L0.6607,-0.0089L0.6913,-0.0095L0.7211,-0.0099L0.75,-0.01L0.7778,-0.01L0.8044,-0.0097L0.8297,-0.0092L0.8536,-0.0085L0.8759,-0.0078L0.8967,-0.0069L0.9157,-0.006L0.933,-0.005L0.9484,-0.004L0.9619,-0.003L0.9735,-0.002L0.983,-0.0011L0.9904,-0.0004L0.9957,0.0001L0.9989,0.0002L1,-0"
    />
</svg>
