
<svg 
  class="airfoil-fx73k170"
  fill="none"
  stroke="black" 
  stroke-width="1"
  style="overflow:visible"
  viewBox="0, -0.1292, 1, 0.17269999"
  xmlns="http://www.w3.org/2000/svg">
    <title>FX 73-K-170/22</title>
    <path 
      vector-effect="non-scaling-stroke"
      d="M1,-0L0.9989,-0.0014L0.9957,-0.0026L0.9904,-0.0044L0.983,-0.0065L0.9735,-0.0091L0.9619,-0.0121L0.9484,-0.0156L0.933,-0.0196L0.9157,-0.0242L0.8967,-0.0294L0.8759,-0.0354L0.8536,-0.0421L0.8297,-0.0495L0.8044,-0.0576L0.7778,-0.0664L0.75,-0.0754L0.7211,-0.0845L0.6913,-0.0932L0.6607,-0.1011L0.6294,-0.1081L0.5975,-0.1142L0.5653,-0.1193L0.5327,-0.1235L0.5,-0.1266L0.4673,-0.1284L0.4347,-0.1292L0.4024,-0.129L0.3706,-0.1278L0.3393,-0.1256L0.3087,-0.1226L0.2789,-0.1188L0.25,-0.1142L0.2222,-0.1089L0.1956,-0.103L0.1703,-0.0965L0.1464,-0.0895L0.1241,-0.0821L0.1033,-0.0744L0.0843,-0.0663L0.067,-0.0582L0.0516,-0.0499L0.0381,-0.0417L0.0265,-0.0336L0.017,-0.0258L0.0096,-0.0184L0.0043,-0.0115L0.0011,-0.0052L0,-0L0.0011,0.0041L0.0043,0.0074L0.0096,0.0107L0.017,0.0142L0.0265,0.0176L0.0381,0.0208L0.0516,0.0239L0.067,0.0269L0.0843,0.0297L0.1033,0.0323L0.1241,0.0347L0.1464,0.0369L0.1703,0.0388L0.1956,0.0404L0.2222,0.0417L0.25,0.0426L0.2789,0.0433L0.3087,0.0435L0.3393,0.0434L0.3706,0.0428L0.4024,0.0418L0.4347,0.0402L0.4673,0.0381L0.5,0.0353L0.5327,0.0317L0.5653,0.0275L0.5975,0.0228L0.6294,0.018L0.6607,0.0133L0.6913,0.0091L0.7211,0.0053L0.75,0.0021L0.7778,-0.0005L0.8044,-0.0027L0.8297,-0.0042L0.8536,-0.0053L0.8759,-0.0059L0.8967,-0.006L0.9157,-0.0057L0.933,-0.0052L0.9484,-0.0044L0.9619,-0.0035L0.9735,-0.0025L0.983,-0.0015L0.9904,-0.0005L0.9957,0.0002L0.9989,0.0008L1,-0"
    />
</svg>
