
<svg 
  class="airfoil-fx73cl3152"
  fill="none"
  stroke="black" 
  stroke-width="1"
  style="overflow:visible"
  viewBox="0, -0.1498, 1, 0.1773"
  xmlns="http://www.w3.org/2000/svg">
    <title>FX 73-CL3-152</title>
    <path 
      vector-effect="non-scaling-stroke"
      d="M1,-0L0.9989,-0.0006L0.9957,-0.0017L0.9904,-0.0035L0.983,-0.0058L0.9735,-0.0088L0.9619,-0.0124L0.9484,-0.0166L0.933,-0.0215L0.9157,-0.027L0.8967,-0.0331L0.8759,-0.0399L0.8536,-0.0473L0.8297,-0.0552L0.8044,-0.0633L0.7778,-0.0716L0.75,-0.0796L0.7211,-0.0873L0.6913,-0.0944L0.6607,-0.1012L0.6294,-0.1078L0.5975,-0.1141L0.5653,-0.1201L0.5327,-0.1258L0.5,-0.1312L0.4673,-0.1361L0.4347,-0.1405L0.4024,-0.1442L0.3706,-0.1472L0.3393,-0.1492L0.3087,-0.1498L0.2789,-0.1487L0.25,-0.1461L0.2222,-0.1421L0.1956,-0.1368L0.1703,-0.1301L0.1464,-0.1221L0.1241,-0.1131L0.1033,-0.1034L0.0843,-0.0932L0.067,-0.0825L0.0516,-0.0716L0.0381,-0.0605L0.0265,-0.0493L0.017,-0.0383L0.0096,-0.0276L0.0043,-0.0175L0.0011,-0.0083L0,-0L0.0011,0.0074L0.0043,0.0139L0.0096,0.0193L0.017,0.0231L0.0265,0.0255L0.0381,0.0269L0.0516,0.0275L0.067,0.0275L0.0843,0.0268L0.1033,0.0255L0.1241,0.0234L0.1464,0.0208L0.1703,0.0177L0.1956,0.014L0.2222,0.01L0.25,0.0058L0.2789,0.0015L0.3087,-0.0029L0.3393,-0.0073L0.3706,-0.0116L0.4024,-0.0158L0.4347,-0.0198L0.4673,-0.0234L0.5,-0.0267L0.5327,-0.0297L0.5653,-0.0323L0.5975,-0.0344L0.6294,-0.0359L0.6607,-0.0368L0.6913,-0.0371L0.7211,-0.0367L0.75,-0.0354L0.7778,-0.0331L0.8044,-0.03L0.8297,-0.0266L0.8536,-0.0231L0.8759,-0.0196L0.8967,-0.0163L0.9157,-0.0131L0.933,-0.0101L0.9484,-0.0074L0.9619,-0.0052L0.9735,-0.0032L0.983,-0.0016L0.9904,-0.0005L0.9957,0.0002L0.9989,0.0003L1,-0"
    />
</svg>
