
<svg 
  class="airfoil-fx73cl2152"
  fill="none"
  stroke="black" 
  stroke-width="1"
  style="overflow:visible"
  viewBox="0, -0.1365, 1, 0.1683"
  xmlns="http://www.w3.org/2000/svg">
    <title>FX 73-CL2-152</title>
    <path 
      vector-effect="non-scaling-stroke"
      d="M1,-0L0.9989,-0.0014L0.9957,-0.0039L0.9904,-0.0071L0.983,-0.011L0.9735,-0.0154L0.9619,-0.0201L0.9484,-0.0251L0.933,-0.0304L0.9157,-0.0358L0.8967,-0.0413L0.8759,-0.0469L0.8536,-0.0525L0.8297,-0.0582L0.8044,-0.0639L0.7778,-0.0696L0.75,-0.0752L0.7211,-0.0809L0.6913,-0.0865L0.6607,-0.092L0.6294,-0.0975L0.5975,-0.1029L0.5653,-0.1081L0.5327,-0.1132L0.5,-0.118L0.4673,-0.1225L0.4347,-0.1266L0.4024,-0.1303L0.3706,-0.1333L0.3393,-0.1356L0.3087,-0.1365L0.2789,-0.1359L0.25,-0.1339L0.2222,-0.1306L0.1956,-0.1262L0.1703,-0.1204L0.1464,-0.1134L0.1241,-0.1054L0.1033,-0.0968L0.0843,-0.0877L0.067,-0.0782L0.0516,-0.0685L0.0381,-0.0585L0.0265,-0.0484L0.017,-0.038L0.0096,-0.0275L0.0043,-0.0173L0.0011,-0.008L0,-0L0.0011,0.007L0.0043,0.0132L0.0096,0.0187L0.017,0.023L0.0265,0.0262L0.0381,0.0285L0.0516,0.03L0.067,0.0311L0.0843,0.0317L0.1033,0.0318L0.1241,0.031L0.1464,0.0295L0.1703,0.0274L0.1956,0.0247L0.2222,0.0215L0.25,0.018L0.2789,0.0143L0.3087,0.0104L0.3393,0.0064L0.3706,0.0022L0.4024,-0.0019L0.4347,-0.0059L0.4673,-0.0098L0.5,-0.0135L0.5327,-0.017L0.5653,-0.0203L0.5975,-0.0232L0.6294,-0.0257L0.6607,-0.0277L0.6913,-0.0292L0.7211,-0.0303L0.75,-0.031L0.7778,-0.031L0.8044,-0.0306L0.8297,-0.0296L0.8536,-0.0282L0.8759,-0.0265L0.8967,-0.0244L0.9157,-0.0218L0.933,-0.019L0.9484,-0.016L0.9619,-0.0129L0.9735,-0.0098L0.983,-0.0068L0.9904,-0.0042L0.9957,-0.0021L0.9989,-0.0005L1,-0"
    />
</svg>
