
<svg 
  class="airfoil-fx73170a"
  fill="none"
  stroke="black" 
  stroke-width="1"
  style="overflow:visible"
  viewBox="0, -0.1419, 1, 0.1717"
  xmlns="http://www.w3.org/2000/svg">
    <title>FX 73-170 A</title>
    <path 
      vector-effect="non-scaling-stroke"
      d="M1,-0L0.9989,-0.0013L0.9957,-0.0022L0.9904,-0.0038L0.983,-0.0058L0.9735,-0.0084L0.9619,-0.0115L0.9484,-0.0151L0.933,-0.0195L0.9157,-0.0245L0.8967,-0.0303L0.8759,-0.0368L0.8536,-0.044L0.8297,-0.0519L0.8044,-0.0604L0.7778,-0.0693L0.75,-0.0788L0.7211,-0.0885L0.6913,-0.0981L0.6607,-0.1073L0.6294,-0.1158L0.5975,-0.1235L0.5653,-0.13L0.5327,-0.1353L0.5,-0.139L0.4673,-0.1412L0.4347,-0.1419L0.4024,-0.1413L0.3706,-0.1395L0.3393,-0.1367L0.3087,-0.1329L0.2789,-0.1283L0.25,-0.123L0.2222,-0.1169L0.1956,-0.1103L0.1703,-0.1031L0.1464,-0.0954L0.1241,-0.0874L0.1033,-0.079L0.0843,-0.0704L0.067,-0.0616L0.0516,-0.0529L0.0381,-0.0441L0.0265,-0.0356L0.017,-0.0274L0.0096,-0.0196L0.0043,-0.0122L0.0011,-0.0055L0,-0L0.0011,0.0041L0.0043,0.0072L0.0096,0.0099L0.017,0.0124L0.0265,0.0146L0.0381,0.0167L0.0516,0.0186L0.067,0.0203L0.0843,0.022L0.1033,0.0234L0.1241,0.0247L0.1464,0.0259L0.1703,0.0269L0.1956,0.0278L0.2222,0.0285L0.25,0.029L0.2789,0.0294L0.3087,0.0297L0.3393,0.0298L0.3706,0.0298L0.4024,0.0295L0.4347,0.0292L0.4673,0.0286L0.5,0.0278L0.5327,0.0268L0.5653,0.0255L0.5975,0.024L0.6294,0.0223L0.6607,0.0204L0.6913,0.0181L0.7211,0.0155L0.75,0.0125L0.7778,0.0094L0.8044,0.0064L0.8297,0.0038L0.8536,0.0018L0.8759,0.0002L0.8967,-0.0009L0.9157,-0.0015L0.933,-0.0018L0.9484,-0.0018L0.9619,-0.0015L0.9735,-0.001L0.983,-0.0004L0.9904,0.0002L0.9957,0.0006L0.9989,0.0009L1,-0"
    />
</svg>
