
<svg 
  class="airfoil-fx73170"
  fill="none"
  stroke="black" 
  stroke-width="1"
  style="overflow:visible"
  viewBox="0, -0.1281, 1, 0.17199999"
  xmlns="http://www.w3.org/2000/svg">
    <title>FX 73-170</title>
    <path 
      vector-effect="non-scaling-stroke"
      d="M1,-0L0.9989,-0.0014L0.9957,-0.0026L0.9904,-0.0044L0.983,-0.0066L0.9735,-0.0092L0.9619,-0.0123L0.9484,-0.0158L0.933,-0.0198L0.9157,-0.0244L0.8967,-0.0296L0.8759,-0.0355L0.8536,-0.0421L0.8297,-0.0494L0.8044,-0.0572L0.7778,-0.0656L0.75,-0.0746L0.7211,-0.0839L0.6913,-0.093L0.6607,-0.1015L0.6294,-0.109L0.5975,-0.1155L0.5653,-0.1206L0.5327,-0.1243L0.5,-0.1268L0.4673,-0.128L0.4347,-0.1281L0.4024,-0.1271L0.3706,-0.1253L0.3393,-0.1226L0.3087,-0.1192L0.2789,-0.1151L0.25,-0.1103L0.2222,-0.1049L0.1956,-0.099L0.1703,-0.0927L0.1464,-0.0859L0.1241,-0.0788L0.1033,-0.0714L0.0843,-0.0638L0.067,-0.056L0.0516,-0.0483L0.0381,-0.0406L0.0265,-0.033L0.017,-0.0257L0.0096,-0.0186L0.0043,-0.0118L0.0011,-0.0055L0,-0L0.0011,0.0044L0.0043,0.0081L0.0096,0.0113L0.017,0.0145L0.0265,0.0176L0.0381,0.0206L0.0516,0.0234L0.067,0.0262L0.0843,0.0288L0.1033,0.0313L0.1241,0.0336L0.1464,0.0357L0.1703,0.0376L0.1956,0.0393L0.2222,0.0408L0.25,0.042L0.2789,0.0429L0.3087,0.0436L0.3393,0.0439L0.3706,0.0439L0.4024,0.0436L0.4347,0.0428L0.4673,0.0416L0.5,0.0397L0.5327,0.037L0.5653,0.0332L0.5975,0.0283L0.6294,0.0228L0.6607,0.0172L0.6913,0.012L0.7211,0.0073L0.75,0.0033L0.7778,-0L0.8044,-0.0026L0.8297,-0.0044L0.8536,-0.0056L0.8759,-0.0063L0.8967,-0.0064L0.9157,-0.0062L0.933,-0.0056L0.9484,-0.0048L0.9619,-0.0038L0.9735,-0.0027L0.983,-0.0016L0.9904,-0.0006L0.9957,0.0002L0.9989,0.0008L1,-0"
    />
</svg>
