
<svg 
  class="airfoil-fx74modsm"
  fill="none"
  stroke="black" 
  stroke-width="1"
  style="overflow:visible"
  viewBox="0, -0.1594, 1, 0.1681"
  xmlns="http://www.w3.org/2000/svg">
    <title>FX 74-Cl5-140 MOD (smoothed)</title>
    <path 
      vector-effect="non-scaling-stroke"
      d="M1,-0.0001L0.9975,-0.0019L0.9907,-0.0062L0.9804,-0.0115L0.967,-0.0174L0.9504,-0.024L0.9306,-0.0319L0.9078,-0.04L0.882,-0.0485L0.8537,-0.0572L0.8231,-0.0662L0.7905,-0.0755L0.7562,-0.0851L0.7204,-0.0948L0.6836,-0.1045L0.6459,-0.1138L0.6078,-0.1229L0.5694,-0.1314L0.531,-0.1392L0.4927,-0.146L0.4543,-0.1518L0.4164,-0.1561L0.3789,-0.1587L0.342,-0.1594L0.3061,-0.1582L0.2712,-0.1549L0.2376,-0.1496L0.2055,-0.1424L0.175,-0.1334L0.1465,-0.1229L0.12,-0.1111L0.0958,-0.0983L0.074,-0.0846L0.0547,-0.0703L0.0381,-0.0558L0.0243,-0.0415L0.0134,-0.0277L0.0055,-0.0152L0.001,-0.0052L0,0.0002L0.001,0.0044L0.0055,0.0079L0.0134,0.0087L0.0243,0.0075L0.0381,0.0054L0.0547,0.0029L0.074,0.0002L0.0958,-0.0027L0.12,-0.0058L0.1465,-0.0092L0.175,-0.0128L0.2055,-0.0165L0.2376,-0.0203L0.2712,-0.0241L0.3061,-0.0279L0.342,-0.0315L0.3789,-0.035L0.4164,-0.0383L0.4543,-0.0413L0.4927,-0.044L0.531,-0.0462L0.5694,-0.048L0.6078,-0.0492L0.6459,-0.0499L0.6836,-0.05L0.7204,-0.0494L0.7562,-0.0481L0.7905,-0.0461L0.8231,-0.0433L0.8537,-0.0398L0.882,-0.0354L0.9078,-0.0301L0.9306,-0.0243L0.9504,-0.0185L0.967,-0.0129L0.9804,-0.0076L0.9907,-0.0032L0.9975,-0.0007L1,0"
    />
</svg>
