
<svg 
  class="airfoil-fx74130wp2mod"
  fill="none"
  stroke="black" 
  stroke-width="1"
  style="overflow:visible"
  viewBox="0, -0.1034, 1, 0.1292"
  xmlns="http://www.w3.org/2000/svg">
    <title>74-130 WP2 MOD</title>
    <path 
      vector-effect="non-scaling-stroke"
      d="M1,-0L0.9989,-0.0004L0.9957,-0.0014L0.9904,-0.0027L0.983,-0.0045L0.9735,-0.0066L0.9619,-0.009L0.9484,-0.0119L0.933,-0.0152L0.9157,-0.0192L0.8967,-0.0236L0.8759,-0.0284L0.8536,-0.0338L0.8297,-0.0397L0.8044,-0.0463L0.7778,-0.0534L0.75,-0.0611L0.7211,-0.0688L0.6913,-0.076L0.6607,-0.0823L0.6294,-0.0875L0.5975,-0.0919L0.5653,-0.0956L0.5327,-0.0987L0.5,-0.1011L0.4673,-0.1027L0.4347,-0.1034L0.4024,-0.1029L0.3706,-0.1015L0.3393,-0.0993L0.3087,-0.0964L0.2789,-0.0931L0.25,-0.0891L0.2222,-0.0847L0.1956,-0.0798L0.1703,-0.0746L0.1464,-0.069L0.1241,-0.0632L0.1033,-0.0572L0.0843,-0.051L0.067,-0.0446L0.0516,-0.0383L0.0381,-0.0319L0.0265,-0.0258L0.017,-0.0197L0.0096,-0.0141L0.0043,-0.0087L0.0011,-0.0039L0,-0L0.0011,0.003L0.0043,0.0053L0.0096,0.0074L0.017,0.0094L0.0265,0.0113L0.0381,0.013L0.0516,0.0147L0.067,0.0162L0.0843,0.0176L0.1033,0.0189L0.1241,0.0201L0.1464,0.0212L0.1703,0.0221L0.1956,0.023L0.2222,0.0237L0.25,0.0244L0.2789,0.0249L0.3087,0.0253L0.3393,0.0256L0.3706,0.0258L0.4024,0.0258L0.4347,0.0257L0.4673,0.0255L0.5,0.0251L0.5327,0.0246L0.5653,0.024L0.5975,0.0231L0.6294,0.022L0.6607,0.0207L0.6913,0.0191L0.7211,0.0169L0.75,0.014L0.7778,0.0107L0.8044,0.0074L0.8297,0.0044L0.8536,0.002L0.8759,0.0003L0.8967,-0.001L0.9157,-0.0019L0.933,-0.0025L0.9484,-0.0027L0.9619,-0.0025L0.9735,-0.0021L0.983,-0.0016L0.9904,-0.0011L0.9957,-0.0007L0.9989,-0.0002L1,-0"
    />
</svg>
