
<svg 
  class="airfoil-fx74cl6140"
  fill="none"
  stroke="black" 
  stroke-width="1"
  style="overflow:visible"
  viewBox="0, -0.1411, 1, 0.1533"
  xmlns="http://www.w3.org/2000/svg">
    <title>FX 74-CL6-140</title>
    <path 
      vector-effect="non-scaling-stroke"
      d="M1,-0L0.9989,-0.0004L0.9957,-0.0016L0.9904,-0.0034L0.983,-0.0057L0.9735,-0.0085L0.9619,-0.0115L0.9484,-0.015L0.933,-0.0187L0.9157,-0.0228L0.8967,-0.0272L0.8759,-0.0321L0.8536,-0.0374L0.8297,-0.043L0.8044,-0.0489L0.7778,-0.0551L0.75,-0.0616L0.7211,-0.0683L0.6913,-0.0752L0.6607,-0.0822L0.6294,-0.0893L0.5975,-0.0965L0.5653,-0.1038L0.5327,-0.111L0.5,-0.1181L0.4673,-0.1249L0.4347,-0.1311L0.4024,-0.1362L0.3706,-0.1396L0.3393,-0.1411L0.3087,-0.1409L0.2789,-0.1391L0.25,-0.1358L0.2222,-0.1312L0.1956,-0.1252L0.1703,-0.1183L0.1464,-0.1104L0.1241,-0.1017L0.1033,-0.0925L0.0843,-0.0828L0.067,-0.0728L0.0516,-0.0626L0.0381,-0.0525L0.0265,-0.0426L0.017,-0.033L0.0096,-0.024L0.0043,-0.0153L0.0011,-0.007L0,-0L0.0011,0.0051L0.0043,0.0082L0.0096,0.0099L0.017,0.0111L0.0265,0.0119L0.0381,0.0122L0.0516,0.0122L0.067,0.0118L0.0843,0.0111L0.1033,0.01L0.1241,0.0089L0.1464,0.0076L0.1703,0.0063L0.1956,0.0049L0.2222,0.0035L0.25,0.0022L0.2789,0.0009L0.3087,-0.0004L0.3393,-0.0016L0.3706,-0.0027L0.4024,-0.0037L0.4347,-0.0047L0.4673,-0.0057L0.5,-0.0068L0.5327,-0.008L0.5653,-0.0093L0.5975,-0.0109L0.6294,-0.0128L0.6607,-0.0151L0.6913,-0.0172L0.7211,-0.019L0.75,-0.0202L0.7778,-0.0207L0.8044,-0.0206L0.8297,-0.02L0.8536,-0.0189L0.8759,-0.0174L0.8967,-0.0155L0.9157,-0.0135L0.933,-0.0114L0.9484,-0.0091L0.9619,-0.007L0.9735,-0.005L0.983,-0.0033L0.9904,-0.0019L0.9957,-0.0009L0.9989,-0.0002L1,-0"
    />
</svg>
