
<svg 
  class="airfoil-fx74cl5140"
  fill="none"
  stroke="black" 
  stroke-width="1"
  style="overflow:visible"
  viewBox="0, -0.1685, 1, 0.1754"
  xmlns="http://www.w3.org/2000/svg">
    <title>FX74_CL5_140</title>
    <path 
      vector-effect="non-scaling-stroke"
      d="M1,-0L0.9989,-0.0008L0.9904,-0.006L0.9735,-0.0141L0.9484,-0.024L0.9157,-0.0357L0.8759,-0.0488L0.8536,-0.0558L0.8297,-0.0632L0.8044,-0.0707L0.7778,-0.0785L0.75,-0.0863L0.7211,-0.0943L0.6913,-0.1022L0.6607,-0.1103L0.6294,-0.1181L0.5975,-0.1259L0.5653,-0.1335L0.5327,-0.141L0.5,-0.148L0.4673,-0.1547L0.4347,-0.1605L0.4024,-0.1652L0.3706,-0.1678L0.3392,-0.1685L0.3087,-0.1672L0.2787,-0.1642L0.25,-0.1596L0.2222,-0.1536L0.1956,-0.1461L0.1703,-0.1375L0.1464,-0.1279L0.1241,-0.1176L0.1033,-0.1065L0.0843,-0.0951L0.067,-0.0833L0.0516,-0.0715L0.0381,-0.0595L0.0265,-0.048L0.017,-0.0366L0.0096,-0.0263L0.0043,-0.0173L0.0011,-0.0094L0,-0L0.0011,0.0037L0.0043,0.0069L0.0096,0.0068L0.017,0.0063L0.0265,0.0059L0.0381,0.005L0.0516,0.0035L0.067,0.0013L0.0843,-0.0012L0.1033,-0.0041L0.1241,-0.0069L0.1464,-0.01L0.1703,-0.013L0.1956,-0.016L0.2222,-0.0188L0.25,-0.0217L0.2787,-0.0242L0.3087,-0.0267L0.3392,-0.0289L0.3706,-0.0309L0.4024,-0.0326L0.4347,-0.0342L0.4673,-0.0355L0.5,-0.0368L0.5327,-0.0379L0.5653,-0.0391L0.5975,-0.0401L0.6294,-0.0416L0.6607,-0.0431L0.6913,-0.0444L0.7211,-0.045L0.75,-0.0449L0.7778,-0.044L0.8044,-0.0424L0.8297,-0.0401L0.8536,-0.0373L0.8759,-0.034L0.9157,-0.0264L0.9484,-0.0182L0.9735,-0.0105L0.9904,-0.0044L0.9989,-0.0007L1,-0"
    />
</svg>
