
<svg 
  class="airfoil-fx74080"
  fill="none"
  stroke="black" 
  stroke-width="1"
  style="overflow:visible"
  viewBox="0, -0.0839, 1, 0.089999996"
  xmlns="http://www.w3.org/2000/svg">
    <title>FX 74-080</title>
    <path 
      vector-effect="non-scaling-stroke"
      d="M1,-0L0.9989,-0.0013L0.9957,-0.0024L0.9904,-0.0038L0.983,-0.0056L0.9735,-0.0077L0.9619,-0.0101L0.9484,-0.013L0.933,-0.0162L0.9157,-0.0199L0.8967,-0.0239L0.8759,-0.0283L0.8536,-0.033L0.8297,-0.038L0.8044,-0.0435L0.7778,-0.0494L0.75,-0.0553L0.7211,-0.0612L0.6913,-0.0665L0.6607,-0.071L0.6294,-0.0747L0.5975,-0.0778L0.5653,-0.0803L0.5327,-0.0822L0.5,-0.0834L0.4673,-0.0839L0.4347,-0.0836L0.4024,-0.0826L0.3706,-0.081L0.3393,-0.0788L0.3087,-0.0762L0.2789,-0.0731L0.25,-0.0695L0.2222,-0.0656L0.1956,-0.0614L0.1703,-0.0569L0.1464,-0.0521L0.1241,-0.0471L0.1033,-0.0421L0.0843,-0.0369L0.067,-0.0318L0.0516,-0.0267L0.0381,-0.0217L0.0265,-0.017L0.017,-0.0127L0.0096,-0.0088L0.0043,-0.0054L0.0011,-0.0025L0,-0L0.0011,0.002L0.0043,0.0036L0.0096,0.0047L0.017,0.0055L0.0265,0.0059L0.0381,0.0061L0.0516,0.006L0.067,0.0058L0.0843,0.0055L0.1033,0.005L0.1241,0.0045L0.1464,0.0039L0.1703,0.0033L0.1956,0.0026L0.2222,0.002L0.25,0.0013L0.2789,0.0006L0.3087,0L0.3393,-0.0006L0.3706,-0.0011L0.4024,-0.0016L0.4347,-0.0021L0.4673,-0.0024L0.5,-0.0027L0.5327,-0.003L0.5653,-0.0033L0.5975,-0.0036L0.6294,-0.0039L0.6607,-0.004L0.6913,-0.0041L0.7211,-0.0041L0.75,-0.0044L0.7778,-0.0049L0.8044,-0.0056L0.8297,-0.0063L0.8536,-0.0066L0.8759,-0.0067L0.8967,-0.0064L0.9157,-0.006L0.933,-0.0054L0.9484,-0.0046L0.9619,-0.0037L0.9735,-0.0027L0.983,-0.0017L0.9904,-0.0008L0.9957,-0.0001L0.9989,-0L1,-0"
    />
</svg>
