
<svg 
  class="airfoil-fx74130wp1"
  fill="none"
  stroke="black" 
  stroke-width="1"
  style="overflow:visible"
  viewBox="0, -0.1032, 1, 0.1305"
  xmlns="http://www.w3.org/2000/svg">
    <title>FX 74-130 WP1</title>
    <path 
      vector-effect="non-scaling-stroke"
      d="M1,-0L0.9989,-0.0005L0.9957,-0.0017L0.9904,-0.0033L0.983,-0.0053L0.9735,-0.0078L0.9619,-0.0107L0.9484,-0.0141L0.933,-0.0179L0.9157,-0.0223L0.8967,-0.0273L0.8759,-0.0329L0.8536,-0.039L0.8297,-0.0457L0.8044,-0.0528L0.7778,-0.0606L0.75,-0.0685L0.7211,-0.0761L0.6913,-0.0827L0.6607,-0.0883L0.6294,-0.093L0.5975,-0.0969L0.5653,-0.0999L0.5327,-0.1019L0.5,-0.1029L0.4673,-0.1032L0.4347,-0.1028L0.4024,-0.1017L0.3706,-0.1L0.3393,-0.0977L0.3087,-0.0948L0.2789,-0.0914L0.25,-0.0875L0.2222,-0.0832L0.1956,-0.0785L0.1703,-0.0734L0.1464,-0.068L0.1241,-0.0624L0.1033,-0.0565L0.0843,-0.0504L0.067,-0.0443L0.0516,-0.0381L0.0381,-0.0319L0.0265,-0.0259L0.017,-0.02L0.0096,-0.0145L0.0043,-0.0092L0.0011,-0.0043L0,-0L0.0011,0.0035L0.0043,0.0062L0.0096,0.0084L0.017,0.0105L0.0265,0.0125L0.0381,0.0143L0.0516,0.016L0.067,0.0176L0.0843,0.019L0.1033,0.0203L0.1241,0.0215L0.1464,0.0226L0.1703,0.0236L0.1956,0.0245L0.2222,0.0252L0.25,0.0258L0.2789,0.0264L0.3087,0.0268L0.3393,0.0271L0.3706,0.0272L0.4024,0.0273L0.4347,0.0272L0.4673,0.0269L0.5,0.0266L0.5327,0.026L0.5653,0.0253L0.5975,0.0244L0.6294,0.0232L0.6607,0.0218L0.6913,0.02L0.7211,0.0176L0.75,0.0143L0.7778,0.0105L0.8044,0.0066L0.8297,0.0032L0.8536,0.0005L0.8759,-0.0015L0.8967,-0.0029L0.9157,-0.0037L0.933,-0.0041L0.9484,-0.004L0.9619,-0.0036L0.9735,-0.003L0.983,-0.0023L0.9904,-0.0016L0.9957,-0.0009L0.9989,-0.0003L1,-0"
    />
</svg>
