
<svg 
  class="airfoil-fx75141"
  fill="none"
  stroke="black" 
  stroke-width="1"
  style="overflow:visible"
  viewBox="0, -0.1022, 1, 0.1434"
  xmlns="http://www.w3.org/2000/svg">
    <title>FX 75-141</title>
    <path 
      vector-effect="non-scaling-stroke"
      d="M1,-0L0.9989,-0.0013L0.9957,-0.0026L0.9904,-0.0043L0.983,-0.0063L0.9735,-0.0086L0.9619,-0.0113L0.9484,-0.0143L0.933,-0.0175L0.9157,-0.0211L0.8967,-0.0251L0.8759,-0.0296L0.8536,-0.0345L0.8297,-0.0398L0.8044,-0.0457L0.7778,-0.0522L0.75,-0.0592L0.7211,-0.0665L0.6913,-0.0734L0.6607,-0.0797L0.6294,-0.085L0.5975,-0.0895L0.5653,-0.0932L0.5327,-0.0964L0.5,-0.0989L0.4673,-0.1007L0.4347,-0.1018L0.4024,-0.1022L0.3706,-0.1018L0.3393,-0.1005L0.3087,-0.0986L0.2789,-0.0959L0.25,-0.0926L0.2222,-0.0888L0.1956,-0.0846L0.1703,-0.0798L0.1464,-0.0747L0.1241,-0.0693L0.1033,-0.0635L0.0843,-0.0573L0.067,-0.0508L0.0516,-0.0442L0.0381,-0.0375L0.0265,-0.0309L0.017,-0.0244L0.0096,-0.0179L0.0043,-0.0116L0.0011,-0.0056L0,-0L0.0011,0.0051L0.0043,0.0097L0.0096,0.014L0.017,0.018L0.0265,0.0215L0.0381,0.0247L0.0516,0.0277L0.067,0.0303L0.0843,0.0326L0.1033,0.0347L0.1241,0.0364L0.1464,0.0379L0.1703,0.0391L0.1956,0.0401L0.2222,0.0407L0.25,0.0411L0.2789,0.0412L0.3087,0.041L0.3393,0.0405L0.3706,0.0396L0.4024,0.0382L0.4347,0.0363L0.4673,0.034L0.5,0.0314L0.5327,0.0285L0.5653,0.0254L0.5975,0.022L0.6294,0.0181L0.6607,0.0138L0.6913,0.0093L0.7211,0.0051L0.75,0.0014L0.7778,-0.0016L0.8044,-0.0038L0.8297,-0.0055L0.8536,-0.0066L0.8759,-0.0071L0.8967,-0.0073L0.9157,-0.0069L0.933,-0.0063L0.9484,-0.0054L0.9619,-0.0043L0.9735,-0.0032L0.983,-0.0021L0.9904,-0.0009L0.9957,-0.0002L0.9989,-0L1,-0"
    />
</svg>
