
<svg 
  class="airfoil-fx75vg166"
  fill="none"
  stroke="black" 
  stroke-width="1"
  style="overflow:visible"
  viewBox="0, -0.1079, 1, 0.1673"
  xmlns="http://www.w3.org/2000/svg">
    <title>FX 75-VG-166/22</title>
    <path 
      vector-effect="non-scaling-stroke"
      d="M1,-0L0.9989,-0.0012L0.9957,-0.002L0.9904,-0.0033L0.983,-0.0051L0.9735,-0.0072L0.9619,-0.0096L0.9484,-0.0122L0.933,-0.015L0.9157,-0.018L0.8967,-0.0208L0.8759,-0.0245L0.8536,-0.0283L0.8297,-0.0323L0.8044,-0.0375L0.7778,-0.044L0.75,-0.0529L0.7211,-0.0622L0.6913,-0.0725L0.6607,-0.0815L0.6294,-0.0891L0.5975,-0.095L0.5653,-0.0999L0.5327,-0.1033L0.5,-0.1059L0.4673,-0.1073L0.4347,-0.1079L0.4024,-0.1076L0.3706,-0.1066L0.3393,-0.1048L0.3087,-0.1024L0.2789,-0.0993L0.25,-0.0956L0.2222,-0.0914L0.1956,-0.0867L0.1703,-0.0815L0.1464,-0.076L0.1241,-0.0701L0.1033,-0.064L0.0843,-0.0577L0.067,-0.0511L0.0516,-0.0443L0.0381,-0.0374L0.0265,-0.0306L0.017,-0.0239L0.0096,-0.0177L0.0043,-0.0117L0.0011,-0.0061L0,-0L0.0011,0.0047L0.0043,0.0089L0.0096,0.0129L0.017,0.0166L0.0265,0.0203L0.0381,0.0238L0.0516,0.0274L0.067,0.0308L0.0843,0.0342L0.1033,0.0373L0.1241,0.0404L0.1464,0.0433L0.1703,0.046L0.1956,0.0485L0.2222,0.0508L0.25,0.0529L0.2789,0.0547L0.3087,0.0562L0.3393,0.0575L0.3706,0.0584L0.4024,0.059L0.4347,0.0594L0.4673,0.0593L0.5,0.0589L0.5327,0.058L0.5653,0.0569L0.5975,0.0551L0.6294,0.053L0.6607,0.0499L0.6913,0.0464L0.7211,0.0416L0.75,0.0363L0.7778,0.0284L0.8044,0.0214L0.8297,0.0151L0.8536,0.0103L0.8759,0.0064L0.8967,0.0033L0.9157,0.0014L0.933,0.0001L0.9484,-0.0006L0.9619,-0.0009L0.9735,-0.0007L0.983,-0.0003L0.9904,0.0003L0.9957,0.0006L0.9989,0.0009L1,-0"
    />
</svg>
