
<svg 
  class="airfoil-fx75193"
  fill="none"
  stroke="black" 
  stroke-width="1"
  style="overflow:visible"
  viewBox="0, -0.1312, 1, 0.1931"
  xmlns="http://www.w3.org/2000/svg">
    <title>FX 75-193</title>
    <path 
      vector-effect="non-scaling-stroke"
      d="M1,-0L0.9989,-0.0014L0.9957,-0.0027L0.9904,-0.0046L0.983,-0.0069L0.9735,-0.0097L0.9619,-0.0129L0.9484,-0.0165L0.933,-0.0206L0.9157,-0.0252L0.8967,-0.0304L0.8759,-0.0363L0.8536,-0.0428L0.8297,-0.0503L0.8044,-0.0586L0.7778,-0.068L0.75,-0.0784L0.7211,-0.0895L0.6913,-0.0986L0.6607,-0.1066L0.6294,-0.1132L0.5975,-0.1186L0.5653,-0.1232L0.5327,-0.1267L0.5,-0.1292L0.4673,-0.1307L0.4347,-0.1312L0.4024,-0.1308L0.3706,-0.1294L0.3393,-0.1271L0.3087,-0.1239L0.2789,-0.1199L0.25,-0.1151L0.2222,-0.1097L0.1956,-0.1034L0.1703,-0.0968L0.1464,-0.0895L0.1241,-0.0819L0.1033,-0.0738L0.0843,-0.0658L0.067,-0.0575L0.0516,-0.0494L0.0381,-0.0412L0.0265,-0.0335L0.017,-0.0259L0.0096,-0.019L0.0043,-0.0124L0.0011,-0.0072L0,-0L0.0011,0.0061L0.0043,0.0099L0.0096,0.0138L0.017,0.0185L0.0265,0.0227L0.0381,0.0265L0.0516,0.0306L0.067,0.0342L0.0843,0.038L0.1033,0.0413L0.1241,0.0447L0.1464,0.0477L0.1703,0.0507L0.1956,0.0532L0.2222,0.0556L0.25,0.0575L0.2789,0.0593L0.3087,0.0605L0.3393,0.0615L0.3706,0.0619L0.4024,0.0619L0.4347,0.0614L0.4673,0.0603L0.5,0.0582L0.5327,0.0554L0.5653,0.0517L0.5975,0.0473L0.6294,0.0417L0.6607,0.0337L0.6913,0.0254L0.7211,0.0184L0.75,0.0123L0.7778,0.0075L0.8044,0.0033L0.8297,0.0002L0.8536,-0.0023L0.8759,-0.0039L0.8967,-0.005L0.9157,-0.0054L0.933,-0.0053L0.9484,-0.0049L0.9619,-0.0042L0.9735,-0.0032L0.983,-0.0021L0.9904,-0.0009L0.9957,-0.0003L0.9989,-0.0001L1,-0"
    />
</svg>
