
<svg 
  class="airfoil-fx76120"
  fill="none"
  stroke="black" 
  stroke-width="1"
  style="overflow:visible"
  viewBox="0, -0.0604, 1, 0.1208"
  xmlns="http://www.w3.org/2000/svg">
    <title>FX 76-120</title>
    <path 
      vector-effect="non-scaling-stroke"
      d="M1,-0L0.9989,-0.0007L0.9957,-0.001L0.9904,-0.0017L0.983,-0.0026L0.9735,-0.0039L0.9619,-0.0053L0.9484,-0.007L0.933,-0.009L0.9157,-0.0112L0.8967,-0.0137L0.8759,-0.0163L0.8536,-0.0191L0.8297,-0.0221L0.8044,-0.025L0.7778,-0.0281L0.75,-0.0311L0.7211,-0.0341L0.6913,-0.037L0.6607,-0.0399L0.6294,-0.0426L0.5975,-0.0453L0.5653,-0.0479L0.5327,-0.0502L0.5,-0.0524L0.4673,-0.0543L0.4347,-0.056L0.4024,-0.0575L0.3706,-0.0587L0.3393,-0.0596L0.3087,-0.0601L0.2789,-0.0604L0.25,-0.0602L0.2222,-0.0597L0.1956,-0.0587L0.1703,-0.0573L0.1464,-0.0553L0.1241,-0.0529L0.1033,-0.0498L0.0843,-0.0461L0.067,-0.042L0.0516,-0.0375L0.0381,-0.0327L0.0265,-0.0277L0.017,-0.0225L0.0096,-0.0169L0.0043,-0.0113L0.0011,-0.0056L0,-0L0.0011,0.0056L0.0043,0.0113L0.0096,0.0169L0.017,0.0225L0.0265,0.0277L0.0381,0.0327L0.0516,0.0375L0.067,0.042L0.0843,0.0461L0.1033,0.0498L0.1241,0.0529L0.1464,0.0553L0.1703,0.0573L0.1956,0.0587L0.2222,0.0597L0.25,0.0602L0.2789,0.0604L0.3087,0.0601L0.3393,0.0596L0.3706,0.0587L0.4024,0.0575L0.4347,0.056L0.4673,0.0543L0.5,0.0524L0.5327,0.0502L0.5653,0.0479L0.5975,0.0453L0.6294,0.0426L0.6607,0.0399L0.6913,0.037L0.7211,0.0341L0.75,0.0311L0.7778,0.0281L0.8044,0.025L0.8297,0.0221L0.8536,0.0191L0.8759,0.0163L0.8967,0.0137L0.9157,0.0112L0.933,0.009L0.9484,0.007L0.9619,0.0053L0.9735,0.0039L0.983,0.0026L0.9904,0.0017L0.9957,0.001L0.9989,0.0007L1,-0"
    />
</svg>
