
<svg 
  class="airfoil-fx76mp160"
  fill="none"
  stroke="black" 
  stroke-width="1"
  style="overflow:visible"
  viewBox="0, -0.1389, 1, 0.1737"
  xmlns="http://www.w3.org/2000/svg">
    <title>FX 76-MP-160</title>
    <path 
      vector-effect="non-scaling-stroke"
      d="M1,-0L0.9989,-0.0013L0.9957,-0.0028L0.9904,-0.0049L0.983,-0.0076L0.9735,-0.0109L0.9619,-0.0146L0.9484,-0.019L0.933,-0.0239L0.9157,-0.0296L0.8967,-0.0357L0.8759,-0.0426L0.8536,-0.0498L0.8297,-0.0579L0.8044,-0.0663L0.7778,-0.0753L0.75,-0.0844L0.7211,-0.0936L0.6913,-0.1022L0.6607,-0.1101L0.6294,-0.1169L0.5975,-0.1229L0.5653,-0.1277L0.5327,-0.1317L0.5,-0.1346L0.4673,-0.137L0.4347,-0.1383L0.4024,-0.1389L0.3706,-0.1385L0.3393,-0.1375L0.3087,-0.1354L0.2789,-0.1328L0.25,-0.1291L0.2222,-0.1249L0.1956,-0.1195L0.1703,-0.1138L0.1464,-0.1069L0.1241,-0.0995L0.1033,-0.0913L0.0843,-0.0827L0.067,-0.0735L0.0516,-0.0641L0.0381,-0.0542L0.0265,-0.0444L0.017,-0.0344L0.0096,-0.025L0.0043,-0.0159L0.0011,-0.008L0,-0L0.0011,0.0057L0.0043,0.0113L0.0096,0.017L0.017,0.0212L0.0265,0.0254L0.0381,0.0282L0.0516,0.031L0.067,0.0325L0.0843,0.0341L0.1033,0.0344L0.1241,0.0348L0.1464,0.0341L0.1703,0.0336L0.1956,0.0321L0.2222,0.0311L0.25,0.0292L0.2789,0.0278L0.3087,0.0256L0.3393,0.024L0.3706,0.0216L0.4024,0.02L0.4347,0.0176L0.4673,0.0159L0.5,0.0135L0.5327,0.0117L0.5653,0.0093L0.5975,0.0074L0.6294,0.0048L0.6607,0.0026L0.6913,-0.0003L0.7211,-0.0028L0.75,-0.0058L0.7778,-0.0079L0.8044,-0.0101L0.8297,-0.0112L0.8536,-0.0122L0.8759,-0.0121L0.8967,-0.012L0.9157,-0.0109L0.933,-0.0099L0.9484,-0.0081L0.9619,-0.0066L0.9735,-0.0046L0.983,-0.0031L0.9904,-0.0014L0.9957,-0.0007L0.9989,-0.0004L1,-0"
    />
</svg>
