
<svg 
  class="airfoil-fx76mp140"
  fill="none"
  stroke="black" 
  stroke-width="1"
  style="overflow:visible"
  viewBox="0, -0.14, 1, 0.1617"
  xmlns="http://www.w3.org/2000/svg">
    <title>FX 76-MP-140</title>
    <path 
      vector-effect="non-scaling-stroke"
      d="M1,-0L0.9989,-0.0014L0.9957,-0.0029L0.9904,-0.0051L0.983,-0.0079L0.9735,-0.0112L0.9619,-0.015L0.9484,-0.0194L0.933,-0.0243L0.9157,-0.03L0.8967,-0.0362L0.8759,-0.043L0.8536,-0.0505L0.8297,-0.0585L0.8044,-0.0671L0.7778,-0.0761L0.75,-0.0854L0.7211,-0.0947L0.6913,-0.1034L0.6607,-0.1114L0.6294,-0.1184L0.5975,-0.1245L0.5653,-0.1295L0.5327,-0.1335L0.5,-0.1365L0.4673,-0.1386L0.4347,-0.1398L0.4024,-0.14L0.3706,-0.1393L0.3393,-0.1378L0.3087,-0.1353L0.2789,-0.132L0.25,-0.1278L0.2222,-0.1228L0.1956,-0.1169L0.1703,-0.1104L0.1464,-0.1032L0.1241,-0.0956L0.1033,-0.0873L0.0843,-0.0787L0.067,-0.0695L0.0516,-0.0599L0.0381,-0.05L0.0265,-0.0404L0.017,-0.0312L0.0096,-0.0227L0.0043,-0.0146L0.0011,-0.0075L0,-0L0.0011,0.0049L0.0043,0.0094L0.0096,0.0136L0.017,0.0169L0.0265,0.0194L0.0381,0.0209L0.0516,0.0216L0.067,0.0217L0.0843,0.0213L0.1033,0.0204L0.1241,0.0192L0.1464,0.0176L0.1703,0.0157L0.1956,0.0138L0.2222,0.0117L0.25,0.0096L0.2789,0.0074L0.3087,0.0053L0.3393,0.0033L0.3706,0.0014L0.4024,-0.0005L0.4347,-0.0022L0.4673,-0.0038L0.5,-0.0053L0.5327,-0.0068L0.5653,-0.0081L0.5975,-0.0093L0.6294,-0.0105L0.6607,-0.0117L0.6913,-0.0129L0.7211,-0.014L0.75,-0.0151L0.7778,-0.016L0.8044,-0.0165L0.8297,-0.0167L0.8536,-0.0164L0.8759,-0.0157L0.8967,-0.0146L0.9157,-0.0132L0.933,-0.0115L0.9484,-0.0096L0.9619,-0.0076L0.9735,-0.0055L0.983,-0.0035L0.9904,-0.0017L0.9957,-0.0003L0.9989,-0.0002L1,-0"
    />
</svg>
