
<svg 
  class="airfoil-fx76mp120"
  fill="none"
  stroke="black" 
  stroke-width="1"
  style="overflow:visible"
  viewBox="0, -0.1346, 1, 0.1497"
  xmlns="http://www.w3.org/2000/svg">
    <title>FX 76-MP-120</title>
    <path 
      vector-effect="non-scaling-stroke"
      d="M1,-0L0.9989,-0.0006L0.9957,-0.0027L0.9904,-0.0052L0.983,-0.0082L0.9735,-0.0115L0.9619,-0.0155L0.9484,-0.0201L0.933,-0.0252L0.9157,-0.0308L0.8967,-0.0369L0.8759,-0.0436L0.8536,-0.0509L0.8297,-0.0586L0.8044,-0.0669L0.7778,-0.0755L0.75,-0.0843L0.7211,-0.0929L0.6913,-0.1011L0.6607,-0.1085L0.6294,-0.1151L0.5975,-0.1208L0.5653,-0.1254L0.5327,-0.1291L0.5,-0.1319L0.4673,-0.1337L0.4347,-0.1346L0.4024,-0.1346L0.3706,-0.1337L0.3393,-0.132L0.3087,-0.1294L0.2789,-0.1259L0.25,-0.1217L0.2222,-0.1167L0.1956,-0.1109L0.1703,-0.1045L0.1464,-0.0975L0.1241,-0.0898L0.1033,-0.0817L0.0843,-0.0731L0.067,-0.0642L0.0516,-0.055L0.0381,-0.0458L0.0265,-0.0367L0.017,-0.0279L0.0096,-0.0195L0.0043,-0.0119L0.0011,-0.0052L0,-0L0.0011,0.0044L0.0043,0.0081L0.0096,0.011L0.017,0.0132L0.0265,0.0146L0.0381,0.0151L0.0516,0.0149L0.067,0.0141L0.0843,0.0127L0.1033,0.0109L0.1241,0.0088L0.1464,0.0065L0.1703,0.004L0.1956,0.0014L0.2222,-0.0012L0.25,-0.0038L0.2789,-0.0063L0.3087,-0.0086L0.3393,-0.0108L0.3706,-0.0129L0.4024,-0.0147L0.4347,-0.0164L0.4673,-0.0178L0.5,-0.0191L0.5327,-0.0202L0.5653,-0.0211L0.5975,-0.0218L0.6294,-0.0224L0.6607,-0.0228L0.6913,-0.0232L0.7211,-0.0235L0.75,-0.0236L0.7778,-0.0235L0.8044,-0.0231L0.8297,-0.0223L0.8536,-0.0212L0.8759,-0.0198L0.8967,-0.018L0.9157,-0.0159L0.933,-0.0137L0.9484,-0.0113L0.9619,-0.0088L0.9735,-0.0063L0.983,-0.004L0.9904,-0.0019L0.9957,-0.0005L0.9989,-0L1,-0"
    />
</svg>
