
<svg 
  class="airfoil-fx76100"
  fill="none"
  stroke="black" 
  stroke-width="1"
  style="overflow:visible"
  viewBox="0, -0.0503, 1, 0.1006"
  xmlns="http://www.w3.org/2000/svg">
    <title>FX 76-100</title>
    <path 
      vector-effect="non-scaling-stroke"
      d="M1,-0L0.9989,-0.0008L0.9957,-0.001L0.9904,-0.0016L0.983,-0.0024L0.9735,-0.0034L0.9619,-0.0047L0.9484,-0.0061L0.933,-0.0077L0.9157,-0.0096L0.8967,-0.0116L0.8759,-0.0138L0.8536,-0.0162L0.8297,-0.0186L0.8044,-0.0211L0.7778,-0.0236L0.75,-0.0261L0.7211,-0.0286L0.6913,-0.031L0.6607,-0.0334L0.6294,-0.0356L0.5975,-0.0379L0.5653,-0.04L0.5327,-0.0419L0.5,-0.0437L0.4673,-0.0453L0.4347,-0.0467L0.4024,-0.0479L0.3706,-0.049L0.3393,-0.0497L0.3087,-0.0501L0.2789,-0.0503L0.25,-0.0502L0.2222,-0.0498L0.1956,-0.049L0.1703,-0.0478L0.1464,-0.0461L0.1241,-0.0441L0.1033,-0.0415L0.0843,-0.0384L0.067,-0.035L0.0516,-0.0313L0.0381,-0.0273L0.0265,-0.0231L0.017,-0.0187L0.0096,-0.0141L0.0043,-0.0094L0.0011,-0.0047L0,-0L0.0011,0.0047L0.0043,0.0094L0.0096,0.0141L0.017,0.0187L0.0265,0.0231L0.0381,0.0273L0.0516,0.0313L0.067,0.035L0.0843,0.0384L0.1033,0.0415L0.1241,0.0441L0.1464,0.0461L0.1703,0.0478L0.1956,0.049L0.2222,0.0498L0.25,0.0502L0.2789,0.0503L0.3087,0.0501L0.3393,0.0497L0.3706,0.049L0.4024,0.0479L0.4347,0.0467L0.4673,0.0453L0.5,0.0437L0.5327,0.0419L0.5653,0.04L0.5975,0.0379L0.6294,0.0356L0.6607,0.0334L0.6913,0.031L0.7211,0.0286L0.75,0.0261L0.7778,0.0236L0.8044,0.0211L0.8297,0.0186L0.8536,0.0162L0.8759,0.0138L0.8967,0.0116L0.9157,0.0096L0.933,0.0077L0.9484,0.0061L0.9619,0.0047L0.9735,0.0034L0.983,0.0024L0.9904,0.0016L0.9957,0.001L0.9989,0.0008L1,-0"
    />
</svg>
