
<svg 
  class="airfoil-fx77w270"
  fill="none"
  stroke="black" 
  stroke-width="1"
  style="overflow:visible"
  viewBox="0, -0.178, 1, 0.2737"
  xmlns="http://www.w3.org/2000/svg">
    <title>FX 77-W-270</title>
    <path 
      vector-effect="non-scaling-stroke"
      d="M1,-0.0214L0.9989,-0.0214L0.9957,-0.0223L0.9904,-0.0236L0.983,-0.0251L0.9735,-0.027L0.9619,-0.0292L0.9484,-0.032L0.933,-0.035L0.9157,-0.0387L0.8967,-0.0427L0.8759,-0.0473L0.8536,-0.0523L0.8297,-0.058L0.8044,-0.064L0.7778,-0.0707L0.75,-0.0776L0.7211,-0.0851L0.6913,-0.0928L0.6607,-0.101L0.6294,-0.1091L0.5975,-0.1176L0.5653,-0.1258L0.5327,-0.1345L0.5,-0.1428L0.4673,-0.1513L0.4347,-0.1592L0.4024,-0.1668L0.3706,-0.1729L0.3393,-0.1769L0.3087,-0.178L0.2789,-0.1773L0.25,-0.1741L0.2222,-0.1695L0.1956,-0.1627L0.1703,-0.155L0.1464,-0.1455L0.1241,-0.1356L0.1033,-0.124L0.0843,-0.1126L0.067,-0.0999L0.0516,-0.0877L0.0381,-0.0745L0.0265,-0.0626L0.017,-0.0499L0.0096,-0.0392L0.0043,-0.0273L0.0011,-0.0175L0,-0L0.0011,0.0127L0.0043,0.0177L0.0096,0.0254L0.017,0.031L0.0265,0.0374L0.0381,0.0425L0.0516,0.0487L0.067,0.0536L0.0843,0.0593L0.1033,0.0639L0.1241,0.0691L0.1464,0.0732L0.1703,0.0777L0.1956,0.0813L0.2222,0.085L0.25,0.0878L0.2789,0.0906L0.3087,0.0925L0.3393,0.0943L0.3706,0.0951L0.4024,0.0957L0.4347,0.0952L0.4673,0.0943L0.5,0.0922L0.5327,0.0895L0.5653,0.0851L0.5975,0.0797L0.6294,0.0722L0.6607,0.0648L0.6913,0.0574L0.7211,0.0509L0.75,0.0448L0.7778,0.0397L0.8044,0.035L0.8297,0.0313L0.8536,0.0279L0.8759,0.0253L0.8967,0.0231L0.9157,0.0217L0.933,0.0205L0.9484,0.02L0.9619,0.0196L0.9735,0.0197L0.983,0.0199L0.9904,0.0202L0.9957,0.0206L0.9989,0.0208L1,0.0208"
    />
</svg>
