
<svg 
  class="airfoil-fx77w153"
  fill="none"
  stroke="black" 
  stroke-width="1"
  style="overflow:visible"
  viewBox="0, -0.1211, 0.9989, 0.1528"
  xmlns="http://www.w3.org/2000/svg">
    <title>WORTMANN FX 77-W-153 AIRFOIL</title>
    <path 
      vector-effect="non-scaling-stroke"
      d="M0.9989,-0.0008L0.9957,-0.001L0.9904,-0.0014L0.983,-0.0023L0.9735,-0.0037L0.9619,-0.0056L0.9484,-0.008L0.933,-0.0109L0.9157,-0.0141L0.8967,-0.0176L0.8759,-0.0212L0.8536,-0.025L0.8297,-0.029L0.8044,-0.0334L0.7778,-0.0379L0.75,-0.0429L0.7211,-0.048L0.6913,-0.0536L0.6607,-0.0591L0.6294,-0.0651L0.5975,-0.0711L0.5653,-0.0774L0.5327,-0.0836L0.5,-0.09L0.4673,-0.0961L0.4347,-0.1021L0.4024,-0.1076L0.3706,-0.1128L0.3393,-0.117L0.3087,-0.1204L0.2789,-0.1211L0.25,-0.1204L0.2222,-0.1179L0.1956,-0.1145L0.1703,-0.1095L0.1464,-0.1037L0.1241,-0.0964L0.1033,-0.0884L0.0843,-0.0793L0.067,-0.0701L0.0516,-0.0601L0.0381,-0.0505L0.0265,-0.0403L0.017,-0.0309L0.0096,-0.0214L0.0043,-0.0137L0.0011,-0.0059L0,-0L0.0011,0.0046L0.0043,0.0111L0.0096,0.0148L0.017,0.0182L0.0265,0.0202L0.0381,0.0225L0.0516,0.0241L0.067,0.026L0.0843,0.0271L0.1033,0.0285L0.1241,0.0293L0.1464,0.0302L0.1703,0.0306L0.1956,0.0312L0.2222,0.0313L0.25,0.0317L0.2789,0.0314L0.3087,0.0315L0.3393,0.0311L0.3706,0.0309L0.4024,0.0302L0.4347,0.0298L0.4673,0.0291L0.5,0.0285L0.5327,0.0276L0.5653,0.0268L0.5975,0.0258L0.6294,0.0249L0.6607,0.0238L0.6913,0.0228L0.7211,0.0215L0.75,0.0204L0.7778,0.0191L0.8044,0.018L0.8297,0.0166L0.8536,0.0154L0.8759,0.014L0.8967,0.0126L0.9157,0.0111L0.933,0.0096L0.9484,0.0079L0.9619,0.0063L0.9735,0.0046L0.983,0.0033L0.9904,0.0022L0.9957,0.0014L0.9989,0.001"
    />
</svg>
