
<svg 
  class="airfoil-fx77080"
  fill="none"
  stroke="black" 
  stroke-width="1"
  style="overflow:visible"
  viewBox="0, -0.0402, 1, 0.0804"
  xmlns="http://www.w3.org/2000/svg">
    <title>FX 77-080</title>
    <path 
      vector-effect="non-scaling-stroke"
      d="M1,-0L0.9989,-0.0008L0.9957,-0.001L0.9904,-0.0015L0.983,-0.0021L0.9735,-0.0029L0.9619,-0.0039L0.9484,-0.005L0.933,-0.0063L0.9157,-0.0078L0.8967,-0.0094L0.8759,-0.0111L0.8536,-0.0129L0.8297,-0.0148L0.8044,-0.0168L0.7778,-0.0188L0.75,-0.0207L0.7211,-0.0227L0.6913,-0.0246L0.6607,-0.0265L0.6294,-0.0283L0.5975,-0.0301L0.5653,-0.0318L0.5327,-0.0333L0.5,-0.0348L0.4673,-0.036L0.4347,-0.0372L0.4024,-0.0382L0.3706,-0.039L0.3393,-0.0396L0.3087,-0.04L0.2789,-0.0402L0.25,-0.0402L0.2222,-0.0399L0.1956,-0.0394L0.1703,-0.0386L0.1464,-0.0376L0.1241,-0.0362L0.1033,-0.0346L0.0843,-0.0325L0.067,-0.03L0.0516,-0.027L0.0381,-0.0236L0.0265,-0.02L0.017,-0.0163L0.0096,-0.0123L0.0043,-0.0083L0.0011,-0.0041L0,-0L0.0011,0.0041L0.0043,0.0083L0.0096,0.0123L0.017,0.0163L0.0265,0.02L0.0381,0.0236L0.0516,0.027L0.067,0.03L0.0843,0.0325L0.1033,0.0346L0.1241,0.0362L0.1464,0.0376L0.1703,0.0386L0.1956,0.0394L0.2222,0.0399L0.25,0.0402L0.2789,0.0402L0.3087,0.04L0.3393,0.0396L0.3706,0.039L0.4024,0.0382L0.4347,0.0372L0.4673,0.036L0.5,0.0348L0.5327,0.0333L0.5653,0.0318L0.5975,0.0301L0.6294,0.0283L0.6607,0.0265L0.6913,0.0246L0.7211,0.0227L0.75,0.0207L0.7778,0.0188L0.8044,0.0168L0.8297,0.0148L0.8536,0.0129L0.8759,0.0111L0.8967,0.0094L0.9157,0.0078L0.933,0.0063L0.9484,0.005L0.9619,0.0039L0.9735,0.0029L0.983,0.0021L0.9904,0.0015L0.9957,0.001L0.9989,0.0008L1,-0"
    />
</svg>
