
<svg 
  class="airfoil-fx77w343"
  fill="none"
  stroke="black" 
  stroke-width="1"
  style="overflow:visible"
  viewBox="0, -0.2175, 0.9989, 0.3463"
  xmlns="http://www.w3.org/2000/svg">
    <title>WORTMANN FX 77-W-343 AIRFOIL</title>
    <path 
      vector-effect="non-scaling-stroke"
      d="M0.9989,-0.0214L0.9957,-0.0224L0.9904,-0.0238L0.983,-0.0256L0.9735,-0.0278L0.9619,-0.0304L0.9484,-0.0337L0.933,-0.0374L0.9157,-0.0419L0.8967,-0.0469L0.8759,-0.0527L0.8536,-0.059L0.8297,-0.0662L0.8044,-0.0739L0.7778,-0.0825L0.75,-0.0914L0.7211,-0.1012L0.6913,-0.1113L0.6607,-0.122L0.6294,-0.1326L0.5975,-0.1437L0.5653,-0.1541L0.5327,-0.1651L0.5,-0.1752L0.4673,-0.1856L0.4347,-0.195L0.4024,-0.2041L0.3706,-0.2113L0.3393,-0.2162L0.3087,-0.2175L0.2789,-0.2168L0.25,-0.213L0.2222,-0.2076L0.1956,-0.1995L0.1703,-0.1903L0.1464,-0.179L0.1241,-0.1671L0.1033,-0.1532L0.0843,-0.1393L0.067,-0.1238L0.0516,-0.1088L0.0381,-0.0927L0.0265,-0.078L0.017,-0.0624L0.0096,-0.0491L0.0043,-0.0342L0.0011,-0.0214L0,-0L0.0011,0.0162L0.0043,0.0239L0.0096,0.0343L0.017,0.0422L0.0265,0.0508L0.0381,0.0578L0.0516,0.0659L0.067,0.0725L0.0843,0.0801L0.1033,0.0865L0.1241,0.0934L0.1464,0.0992L0.1703,0.1053L0.1956,0.1102L0.2222,0.1152L0.25,0.1191L0.2789,0.1228L0.3087,0.1253L0.3393,0.1276L0.3706,0.1284L0.4024,0.1288L0.4347,0.1274L0.4673,0.1253L0.5,0.1217L0.5327,0.1174L0.5653,0.1109L0.5975,0.1034L0.6294,0.0934L0.6607,0.0837L0.6913,0.0739L0.7211,0.0652L0.75,0.057L0.7778,0.05L0.8044,0.0436L0.8297,0.0383L0.8536,0.0335L0.8759,0.0298L0.8967,0.0266L0.9157,0.0243L0.933,0.0225L0.9484,0.0213L0.9619,0.0205L0.9735,0.0203L0.983,0.0202L0.9904,0.0204L0.9957,0.0207L0.9989,0.0208"
    />
</svg>
