
<svg 
  class="airfoil-fx77w270s"
  fill="none"
  stroke="black" 
  stroke-width="1"
  style="overflow:visible"
  viewBox="0, -0.1781, 1, 0.27380002"
  xmlns="http://www.w3.org/2000/svg">
    <title>FX 77-W-270S</title>
    <path 
      vector-effect="non-scaling-stroke"
      d="M1,-0.0124L0.9989,-0.0128L0.9957,-0.0138L0.9904,-0.0153L0.983,-0.0172L0.9735,-0.0198L0.9619,-0.0229L0.9484,-0.0265L0.933,-0.0306L0.9157,-0.0352L0.8967,-0.0402L0.8759,-0.0456L0.8536,-0.0515L0.8297,-0.0577L0.8044,-0.0643L0.7778,-0.0711L0.75,-0.0781L0.7211,-0.0854L0.6913,-0.0931L0.6607,-0.101L0.6294,-0.1093L0.5975,-0.1176L0.5653,-0.126L0.5327,-0.1345L0.5,-0.143L0.4673,-0.1513L0.4347,-0.1593L0.4024,-0.1668L0.3706,-0.173L0.3393,-0.1768L0.3087,-0.1781L0.2789,-0.1771L0.25,-0.1742L0.2222,-0.1693L0.1956,-0.1628L0.1703,-0.1549L0.1464,-0.1458L0.1241,-0.1356L0.1033,-0.1244L0.0843,-0.1126L0.067,-0.1003L0.0516,-0.0877L0.0381,-0.075L0.0265,-0.0626L0.017,-0.0503L0.0096,-0.039L0.0043,-0.0273L0.0011,-0.0175L0,-0L0.0011,0.0127L0.0043,0.0177L0.0096,0.0254L0.017,0.0316L0.0265,0.0374L0.0381,0.0432L0.0516,0.0489L0.067,0.0543L0.0843,0.0594L0.1033,0.0644L0.1241,0.0691L0.1464,0.0736L0.1703,0.0777L0.1956,0.0815L0.2222,0.085L0.25,0.0881L0.2789,0.0907L0.3087,0.0927L0.3393,0.0943L0.3706,0.0953L0.4024,0.0957L0.4347,0.0954L0.4673,0.0943L0.5,0.0925L0.5327,0.0895L0.5653,0.0853L0.5975,0.0795L0.6294,0.0723L0.6607,0.0648L0.6913,0.0575L0.7211,0.0509L0.75,0.045L0.7778,0.0399L0.8044,0.0353L0.8297,0.0313L0.8536,0.0277L0.8759,0.0244L0.8967,0.0212L0.9157,0.018L0.933,0.015L0.9484,0.0123L0.9619,0.01L0.9735,0.0081L0.983,0.0066L0.9904,0.0055L0.9957,0.0047L0.9989,0.0043L1,0.0041"
    />
</svg>
