
<svg 
  class="airfoil-fx77w121"
  fill="none"
  stroke="black" 
  stroke-width="1"
  style="overflow:visible"
  viewBox="0, -0.1067, 1, 0.122"
  xmlns="http://www.w3.org/2000/svg">
    <title>FX 77-W-121</title>
    <path 
      vector-effect="non-scaling-stroke"
      d="M1,-0L0.9989,-0.0009L0.9957,-0.0009L0.9904,-0.0012L0.983,-0.0018L0.9735,-0.0027L0.9619,-0.004L0.9484,-0.0056L0.933,-0.0076L0.9157,-0.01L0.8967,-0.0129L0.8759,-0.0156L0.8536,-0.0187L0.8297,-0.0225L0.8044,-0.0265L0.7778,-0.0309L0.75,-0.0355L0.7211,-0.0406L0.6913,-0.0459L0.6607,-0.0516L0.6294,-0.0574L0.5975,-0.0635L0.5653,-0.0697L0.5327,-0.0759L0.5,-0.0821L0.4673,-0.0882L0.4347,-0.0939L0.4024,-0.0992L0.3706,-0.1036L0.3393,-0.106L0.3087,-0.1067L0.2789,-0.1058L0.25,-0.1038L0.2222,-0.1007L0.1956,-0.0966L0.1703,-0.0918L0.1464,-0.0861L0.1241,-0.0796L0.1033,-0.0725L0.0843,-0.0648L0.067,-0.0569L0.0516,-0.0486L0.0381,-0.0404L0.0265,-0.0322L0.017,-0.0243L0.0096,-0.0171L0.0043,-0.0106L0.0011,-0.0052L0,-0L0.0011,0.0027L0.0043,0.0057L0.0096,0.0082L0.017,0.0102L0.0265,0.0115L0.0381,0.0127L0.0516,0.0135L0.067,0.0142L0.0843,0.0147L0.1033,0.015L0.1241,0.0152L0.1464,0.0153L0.1703,0.0153L0.1956,0.0152L0.2222,0.015L0.25,0.0149L0.2789,0.0146L0.3087,0.0143L0.3393,0.014L0.3706,0.0138L0.4024,0.0135L0.4347,0.0133L0.4673,0.013L0.5,0.0128L0.5327,0.0125L0.5653,0.0123L0.5975,0.0123L0.6294,0.0122L0.6607,0.0122L0.6913,0.0121L0.7211,0.012L0.75,0.0118L0.7778,0.0116L0.8044,0.0113L0.8297,0.0109L0.8536,0.0104L0.8759,0.0099L0.8967,0.0091L0.9157,0.0084L0.933,0.0074L0.9484,0.0063L0.9619,0.0052L0.9735,0.004L0.983,0.003L0.9904,0.0021L0.9957,0.0014L0.9989,0.001L1,-0"
    />
</svg>
