
<svg 
  class="airfoil-fx77w258"
  fill="none"
  stroke="black" 
  stroke-width="1"
  style="overflow:visible"
  viewBox="0, -0.1734, 0.9989, 0.2631"
  xmlns="http://www.w3.org/2000/svg">
    <title>WORTMANN FX 77-W-258 AIRFOIL</title>
    <path 
      vector-effect="non-scaling-stroke"
      d="M0.9989,-0.0064L0.9957,-0.0067L0.9904,-0.0087L0.983,-0.0104L0.9735,-0.0124L0.9619,-0.0148L0.9484,-0.0177L0.933,-0.021L0.9157,-0.0249L0.8967,-0.0292L0.8759,-0.0342L0.8536,-0.0395L0.8297,-0.0455L0.8044,-0.0519L0.7778,-0.059L0.75,-0.0663L0.7211,-0.0743L0.6913,-0.0825L0.6607,-0.0911L0.6294,-0.0996L0.5975,-0.1086L0.5653,-0.1173L0.5327,-0.1265L0.5,-0.1353L0.4673,-0.1443L0.4347,-0.1526L0.4024,-0.1607L0.3706,-0.1673L0.3393,-0.1718L0.3087,-0.1734L0.2789,-0.1732L0.25,-0.1704L0.2222,-0.1662L0.1956,-0.1597L0.1703,-0.1524L0.1464,-0.1433L0.1241,-0.1337L0.1033,-0.1225L0.0843,-0.1113L0.067,-0.0989L0.0516,-0.087L0.0381,-0.074L0.0265,-0.0622L0.017,-0.0496L0.0096,-0.039L0.0043,-0.0272L0.0011,-0.0175L0,-0L0.0011,0.0127L0.0043,0.0176L0.0096,0.0252L0.017,0.0307L0.0265,0.037L0.0381,0.0419L0.0516,0.0479L0.067,0.0526L0.0843,0.058L0.1033,0.0624L0.1241,0.0672L0.1464,0.071L0.1703,0.0752L0.1956,0.0783L0.2222,0.0816L0.25,0.084L0.2789,0.0864L0.3087,0.0878L0.3393,0.0892L0.3706,0.0896L0.4024,0.0897L0.4347,0.0887L0.4673,0.0873L0.5,0.0847L0.5327,0.0816L0.5653,0.0766L0.5975,0.0707L0.6294,0.0627L0.6607,0.0549L0.6913,0.0471L0.7211,0.0401L0.75,0.0336L0.7778,0.028L0.8044,0.023L0.8297,0.0188L0.8536,0.0151L0.8759,0.0122L0.8967,0.0097L0.9157,0.0079L0.933,0.0066L0.9484,0.0057L0.9619,0.0052L0.9735,0.0051L0.983,0.0051L0.9904,0.0054L0.9957,0.0056L0.9989,0.0058"
    />
</svg>
