
<svg 
  class="airfoil-fx78k161"
  fill="none"
  stroke="black" 
  stroke-width="1"
  style="overflow:visible"
  viewBox="0, -0.1092, 1, 0.1619"
  xmlns="http://www.w3.org/2000/svg">
    <title>FX 78-K-161</title>
    <path 
      vector-effect="non-scaling-stroke"
      d="M1,-0L0.9989,-0.001L0.9957,-0.0017L0.9904,-0.0026L0.983,-0.0037L0.9735,-0.0049L0.9619,-0.0062L0.9484,-0.0078L0.933,-0.0095L0.9157,-0.0115L0.8967,-0.0135L0.8759,-0.0159L0.8536,-0.0182L0.8297,-0.0212L0.8044,-0.0255L0.7778,-0.0341L0.75,-0.0438L0.7211,-0.0545L0.6913,-0.0648L0.6607,-0.0747L0.6294,-0.083L0.5975,-0.0902L0.5653,-0.0961L0.5327,-0.1012L0.5,-0.1047L0.4673,-0.1074L0.4347,-0.1087L0.4024,-0.1092L0.3706,-0.1086L0.3393,-0.1073L0.3087,-0.1049L0.2789,-0.1019L0.25,-0.0979L0.2222,-0.0933L0.1956,-0.088L0.1703,-0.0824L0.1464,-0.0762L0.1241,-0.0697L0.1033,-0.0629L0.0843,-0.0559L0.067,-0.0487L0.0516,-0.0416L0.0381,-0.0344L0.0265,-0.0275L0.017,-0.0208L0.0096,-0.0147L0.0043,-0.0093L0.0011,-0.0049L0,-0L0.0011,0.0051L0.0043,0.0097L0.0096,0.0143L0.017,0.0182L0.0265,0.0218L0.0381,0.025L0.0516,0.0281L0.067,0.031L0.0843,0.0338L0.1033,0.0362L0.1241,0.0387L0.1464,0.0408L0.1703,0.0429L0.1956,0.0447L0.2222,0.0465L0.25,0.0478L0.2789,0.0492L0.3087,0.0502L0.3393,0.0512L0.3706,0.0518L0.4024,0.0524L0.4347,0.0525L0.4673,0.0527L0.5,0.0523L0.5327,0.0521L0.5653,0.0511L0.5975,0.0503L0.6294,0.0488L0.6607,0.0473L0.6913,0.0448L0.7211,0.0422L0.75,0.0386L0.7778,0.035L0.8044,0.0301L0.8297,0.025L0.8536,0.0195L0.8759,0.0151L0.8967,0.011L0.9157,0.008L0.933,0.0055L0.9484,0.0037L0.9619,0.0025L0.9735,0.0017L0.983,0.0012L0.9904,0.001L0.9957,0.001L0.9989,0.0009L1,-0"
    />
</svg>
