
<svg 
  class="airfoil-fx78k140a20"
  fill="none"
  stroke="black" 
  stroke-width="1"
  style="overflow:visible"
  viewBox="0, -0.1143, 1, 0.141"
  xmlns="http://www.w3.org/2000/svg">
    <title>FX 78-K-140 A/20</title>
    <path 
      vector-effect="non-scaling-stroke"
      d="M1,-0L0.9989,-0.0012L0.9957,-0.002L0.9904,-0.0033L0.983,-0.0049L0.9735,-0.0069L0.9619,-0.0092L0.9484,-0.0119L0.933,-0.0149L0.9157,-0.0183L0.8967,-0.022L0.8759,-0.026L0.8536,-0.0304L0.8297,-0.035L0.8044,-0.0398L0.7778,-0.0482L0.75,-0.0574L0.7211,-0.0669L0.6913,-0.0764L0.6607,-0.0854L0.6294,-0.0934L0.5975,-0.1001L0.5653,-0.1054L0.5327,-0.1094L0.5,-0.1121L0.4673,-0.1137L0.4347,-0.1143L0.4024,-0.1139L0.3706,-0.1127L0.3393,-0.1106L0.3087,-0.1077L0.2789,-0.1041L0.25,-0.0997L0.2222,-0.0947L0.1956,-0.0891L0.1703,-0.083L0.1464,-0.0766L0.1241,-0.0698L0.1033,-0.0628L0.0843,-0.0556L0.067,-0.0483L0.0516,-0.041L0.0381,-0.0338L0.0265,-0.0268L0.017,-0.02L0.0096,-0.0138L0.0043,-0.0084L0.0011,-0.0039L0,-0L0.0011,0.0024L0.0043,0.0054L0.0096,0.0083L0.017,0.011L0.0265,0.0135L0.0381,0.0155L0.0516,0.0173L0.067,0.0189L0.0843,0.0203L0.1033,0.0215L0.1241,0.0225L0.1464,0.0234L0.1703,0.0242L0.1956,0.0248L0.2222,0.0254L0.25,0.0258L0.2789,0.0261L0.3087,0.0263L0.3393,0.0265L0.3706,0.0266L0.4024,0.0267L0.4347,0.0267L0.4673,0.0266L0.5,0.0264L0.5327,0.0261L0.5653,0.0257L0.5975,0.0251L0.6294,0.0244L0.6607,0.0235L0.6913,0.0224L0.7211,0.0211L0.75,0.0196L0.7778,0.0177L0.8044,0.0151L0.8297,0.0119L0.8536,0.0083L0.8759,0.0054L0.8967,0.0032L0.9157,0.0015L0.933,0.0003L0.9484,-0.0003L0.9619,-0.0005L0.9735,-0.0004L0.983,-0.0001L0.9904,0.0003L0.9957,0.0007L0.9989,0.0008L1,-0"
    />
</svg>
