
<svg 
  class="airfoil-fx78k150"
  fill="none"
  stroke="black" 
  stroke-width="1"
  style="overflow:visible"
  viewBox="0, -0.1189, 1, 0.1515"
  xmlns="http://www.w3.org/2000/svg">
    <title>FX 78-K-150/20</title>
    <path 
      vector-effect="non-scaling-stroke"
      d="M1,-0L0.9989,-0.0011L0.9957,-0.0016L0.9904,-0.0026L0.983,-0.0039L0.9735,-0.0057L0.9619,-0.0079L0.9484,-0.0106L0.933,-0.0137L0.9157,-0.0173L0.8967,-0.0214L0.8759,-0.026L0.8536,-0.0308L0.8297,-0.0362L0.8044,-0.0429L0.7778,-0.0509L0.75,-0.06L0.7211,-0.0696L0.6913,-0.0794L0.6607,-0.0887L0.6294,-0.0972L0.5975,-0.1044L0.5653,-0.1101L0.5327,-0.1142L0.5,-0.117L0.4673,-0.1185L0.4347,-0.1189L0.4024,-0.1182L0.3706,-0.1165L0.3393,-0.114L0.3087,-0.1106L0.2789,-0.1064L0.25,-0.1015L0.2222,-0.0959L0.1956,-0.0897L0.1703,-0.0831L0.1464,-0.0761L0.1241,-0.0689L0.1033,-0.0615L0.0843,-0.0541L0.067,-0.0466L0.0516,-0.0393L0.0381,-0.0322L0.0265,-0.0255L0.017,-0.0192L0.0096,-0.0135L0.0043,-0.0085L0.0011,-0.0042L0,-0L0.0011,0.0036L0.0043,0.0073L0.0096,0.0109L0.017,0.0143L0.0265,0.0173L0.0381,0.0198L0.0516,0.022L0.067,0.024L0.0843,0.0257L0.1033,0.0271L0.1241,0.0284L0.1464,0.0295L0.1703,0.0304L0.1956,0.0311L0.2222,0.0317L0.25,0.0321L0.2789,0.0324L0.3087,0.0325L0.3393,0.0326L0.3706,0.0325L0.4024,0.0325L0.4347,0.0322L0.4673,0.0319L0.5,0.0315L0.5327,0.0308L0.5653,0.0301L0.5975,0.0292L0.6294,0.0281L0.6607,0.0268L0.6913,0.0253L0.7211,0.0234L0.75,0.0212L0.7778,0.0186L0.8044,0.0156L0.8297,0.012L0.8536,0.0088L0.8759,0.0062L0.8967,0.0042L0.9157,0.0026L0.933,0.0015L0.9484,0.0009L0.9619,0.0006L0.9735,0.0006L0.983,0.0008L0.9904,0.001L0.9957,0.0011L0.9989,0.001L1,-0"
    />
</svg>
