
<svg 
  class="airfoil-fx78pk188"
  fill="none"
  stroke="black" 
  stroke-width="1"
  style="overflow:visible"
  viewBox="0, -0.1177, 1, 0.18830001"
  xmlns="http://www.w3.org/2000/svg">
    <title>FX 78-PK-188/20</title>
    <path 
      vector-effect="non-scaling-stroke"
      d="M1,-0L0.9989,-0.0002L0.9957,-0.0009L0.9904,-0.002L0.983,-0.0035L0.9735,-0.0055L0.9619,-0.008L0.9484,-0.011L0.933,-0.0147L0.9157,-0.019L0.8967,-0.024L0.8759,-0.0296L0.8536,-0.036L0.8297,-0.0431L0.8044,-0.0508L0.7778,-0.0589L0.75,-0.0676L0.7211,-0.0766L0.6913,-0.0855L0.6607,-0.0939L0.6294,-0.1012L0.5975,-0.1072L0.5653,-0.1117L0.5327,-0.1149L0.5,-0.1168L0.4673,-0.1177L0.4347,-0.1176L0.4024,-0.1166L0.3706,-0.1148L0.3393,-0.1123L0.3087,-0.1092L0.2789,-0.1055L0.25,-0.1011L0.2222,-0.0962L0.1956,-0.0907L0.1703,-0.0848L0.1464,-0.0786L0.1241,-0.0721L0.1033,-0.0654L0.0843,-0.0584L0.067,-0.0514L0.0516,-0.0445L0.0381,-0.0375L0.0265,-0.0304L0.017,-0.0235L0.0096,-0.0166L0.0043,-0.0101L0.0011,-0.0047L0,-0L0.0011,0.0043L0.0043,0.009L0.0096,0.0139L0.017,0.0184L0.0265,0.0226L0.0381,0.0269L0.0516,0.0313L0.067,0.0357L0.0843,0.0397L0.1033,0.0436L0.1241,0.0472L0.1464,0.0509L0.1703,0.0542L0.1956,0.0573L0.2222,0.0601L0.25,0.0627L0.2789,0.0651L0.3087,0.067L0.3393,0.0685L0.3706,0.0696L0.4024,0.0703L0.4347,0.0706L0.4673,0.0703L0.5,0.0694L0.5327,0.0679L0.5653,0.0657L0.5975,0.0628L0.6294,0.0589L0.6607,0.054L0.6913,0.0483L0.7211,0.0421L0.75,0.0359L0.7778,0.0299L0.8044,0.0246L0.8297,0.0198L0.8536,0.0155L0.8759,0.0116L0.8967,0.0084L0.9157,0.0058L0.933,0.0039L0.9484,0.0027L0.9619,0.0019L0.9735,0.0012L0.983,0.0008L0.9904,0.0004L0.9957,0.0002L0.9989,0L1,-0"
    />
</svg>
