
<svg 
  class="airfoil-fx79w151a"
  fill="none"
  stroke="black" 
  stroke-width="1"
  style="overflow:visible"
  viewBox="0, -0.1133, 1, 0.1533"
  xmlns="http://www.w3.org/2000/svg">
    <title>FX 79-W-151 A</title>
    <path 
      vector-effect="non-scaling-stroke"
      d="M1,-0L0.9989,-0.0008L0.9957,-0.001L0.9904,-0.0015L0.983,-0.0024L0.9735,-0.0039L0.9619,-0.006L0.9484,-0.0086L0.933,-0.0119L0.9157,-0.0157L0.8967,-0.0201L0.8759,-0.0249L0.8536,-0.0303L0.8297,-0.0361L0.8044,-0.0423L0.7778,-0.0487L0.75,-0.0553L0.7211,-0.062L0.6913,-0.0687L0.6607,-0.0753L0.6294,-0.0816L0.5975,-0.0876L0.5653,-0.0933L0.5327,-0.0984L0.5,-0.103L0.4673,-0.1068L0.4347,-0.1098L0.4024,-0.1119L0.3706,-0.1131L0.3393,-0.1133L0.3087,-0.1125L0.2789,-0.1106L0.25,-0.1076L0.2222,-0.1036L0.1956,-0.0985L0.1703,-0.0926L0.1464,-0.086L0.1241,-0.0789L0.1033,-0.0714L0.0843,-0.0636L0.067,-0.0555L0.0516,-0.0474L0.0381,-0.0393L0.0265,-0.0313L0.017,-0.0236L0.0096,-0.0165L0.0043,-0.0101L0.0011,-0.0047L0,-0L0.0011,0.0044L0.0043,0.0089L0.0096,0.0136L0.017,0.0182L0.0265,0.0226L0.0381,0.0266L0.0516,0.0301L0.067,0.0331L0.0843,0.0353L0.1033,0.037L0.1241,0.0382L0.1464,0.0391L0.1703,0.0397L0.1956,0.04L0.2222,0.04L0.25,0.0399L0.2789,0.0395L0.3087,0.039L0.3393,0.0384L0.3706,0.0376L0.4024,0.0366L0.4347,0.0355L0.4673,0.0343L0.5,0.0329L0.5327,0.0315L0.5653,0.03L0.5975,0.0284L0.6294,0.0268L0.6607,0.0251L0.6913,0.0234L0.7211,0.0216L0.75,0.0199L0.7778,0.0182L0.8044,0.0165L0.8297,0.0149L0.8536,0.0133L0.8759,0.0117L0.8967,0.0103L0.9157,0.0088L0.933,0.0074L0.9484,0.0062L0.9619,0.0049L0.9735,0.0036L0.983,0.0026L0.9904,0.0019L0.9957,0.0015L0.9989,0.001L1,-0"
    />
</svg>
