
<svg 
  class="airfoil-fx79k144"
  fill="none"
  stroke="black" 
  stroke-width="1"
  style="overflow:visible"
  viewBox="0, -0.1001, 1, 0.1439"
  xmlns="http://www.w3.org/2000/svg">
    <title>WORTMANN FX 79-K-144/17 AIRFOIL</title>
    <path 
      vector-effect="non-scaling-stroke"
      d="M1,-0.002L0.9989,-0.0022L0.9957,-0.0028L0.9904,-0.0041L0.983,-0.0057L0.9735,-0.0076L0.9619,-0.01L0.9484,-0.0127L0.933,-0.0156L0.9157,-0.0188L0.8967,-0.022L0.8759,-0.0254L0.8536,-0.0293L0.8297,-0.0334L0.8044,-0.0397L0.7778,-0.0478L0.75,-0.0569L0.7211,-0.0658L0.6913,-0.0735L0.6607,-0.0798L0.6294,-0.0845L0.5975,-0.0888L0.5653,-0.0927L0.5327,-0.0956L0.5,-0.0977L0.4673,-0.0993L0.4347,-0.1001L0.4024,-0.1L0.3706,-0.0992L0.3393,-0.0978L0.3087,-0.0955L0.2789,-0.0926L0.25,-0.0891L0.2222,-0.0848L0.1956,-0.0799L0.1703,-0.0748L0.1464,-0.0695L0.1241,-0.0637L0.1033,-0.0577L0.0843,-0.0516L0.067,-0.0454L0.0516,-0.0391L0.0381,-0.0327L0.0265,-0.0265L0.017,-0.0206L0.0096,-0.0151L0.0048,-0.0099L0.0011,-0.0048L0,-0L0.0011,0.0043L0.0048,0.0087L0.0096,0.0125L0.017,0.0159L0.0265,0.0192L0.0381,0.0223L0.0516,0.0252L0.067,0.0279L0.0843,0.0303L0.1033,0.0325L0.1241,0.0344L0.1464,0.0361L0.1703,0.0376L0.1956,0.0388L0.2222,0.0399L0.25,0.0408L0.2789,0.0416L0.3087,0.0424L0.3393,0.043L0.3706,0.0434L0.4024,0.0437L0.4347,0.0438L0.4673,0.0437L0.5,0.0433L0.5327,0.0425L0.5653,0.0416L0.5975,0.0401L0.6294,0.0384L0.6607,0.0364L0.6913,0.0343L0.7211,0.0319L0.75,0.0288L0.7778,0.0247L0.8044,0.0203L0.8297,0.0157L0.8536,0.0117L0.8759,0.0084L0.8967,0.0056L0.9157,0.0033L0.933,0.0016L0.9484,0.0003L0.9619,-0.0005L0.9735,-0.001L0.983,-0.001L0.9904,-0.0008L0.9957,-0.0004L0.9989,-0.0001L1,-0"
    />
</svg>
