
<svg 
  class="airfoil-fx79l100"
  fill="none"
  stroke="black" 
  stroke-width="1"
  style="overflow:visible"
  viewBox="0, -0.0503, 1, 0.1006"
  xmlns="http://www.w3.org/2000/svg">
    <title>FX 79-L-100</title>
    <path 
      vector-effect="non-scaling-stroke"
      d="M1,-0L0.9989,-0.0009L0.9957,-0.0011L0.9904,-0.0016L0.983,-0.002L0.9735,-0.0027L0.9619,-0.0034L0.9484,-0.0044L0.933,-0.0054L0.9157,-0.0066L0.8967,-0.008L0.8759,-0.0096L0.8536,-0.0114L0.8297,-0.0133L0.8044,-0.0155L0.7778,-0.0179L0.75,-0.0205L0.7211,-0.0232L0.6913,-0.026L0.6607,-0.029L0.6294,-0.0321L0.5975,-0.0351L0.5653,-0.0382L0.5327,-0.041L0.5,-0.0436L0.4673,-0.0459L0.4347,-0.0477L0.4024,-0.0491L0.3706,-0.0499L0.3393,-0.0503L0.3087,-0.0502L0.2789,-0.0497L0.25,-0.0488L0.2222,-0.0475L0.1956,-0.046L0.1703,-0.0441L0.1464,-0.0419L0.1241,-0.0395L0.1033,-0.0369L0.0843,-0.0341L0.067,-0.031L0.0516,-0.0278L0.0381,-0.0244L0.0265,-0.0208L0.017,-0.0169L0.0096,-0.0128L0.0043,-0.0086L0.0011,-0.0043L0,-0L0.0011,0.0043L0.0043,0.0086L0.0096,0.0128L0.017,0.0169L0.0265,0.0208L0.0381,0.0244L0.0516,0.0278L0.067,0.031L0.0843,0.0341L0.1033,0.0369L0.1241,0.0395L0.1464,0.0419L0.1703,0.0441L0.1956,0.046L0.2222,0.0475L0.25,0.0488L0.2789,0.0497L0.3087,0.0502L0.3393,0.0503L0.3706,0.0499L0.4024,0.0491L0.4347,0.0477L0.4673,0.0459L0.5,0.0436L0.5327,0.041L0.5653,0.0382L0.5975,0.0351L0.6294,0.0321L0.6607,0.029L0.6913,0.026L0.7211,0.0232L0.75,0.0205L0.7778,0.0179L0.8044,0.0155L0.8297,0.0133L0.8536,0.0114L0.8759,0.0096L0.8967,0.008L0.9157,0.0066L0.933,0.0054L0.9484,0.0044L0.9619,0.0034L0.9735,0.0027L0.983,0.002L0.9904,0.0016L0.9957,0.0011L0.9989,0.0009L1,-0"
    />
</svg>
