
<svg 
  class="airfoil-fx79w660a"
  fill="none"
  stroke="black" 
  stroke-width="1"
  style="overflow:visible"
  viewBox="0, -0.346, 1, 0.66499996"
  xmlns="http://www.w3.org/2000/svg">
    <title>FX 79-W-660A</title>
    <path 
      vector-effect="non-scaling-stroke"
      d="M1,-0.0424L0.9989,-0.0468L0.9957,-0.0651L0.9904,-0.0957L0.983,-0.1217L0.9735,-0.1452L0.9619,-0.1718L0.9484,-0.1992L0.933,-0.2179L0.9157,-0.2251L0.8967,-0.2296L0.8759,-0.2349L0.8536,-0.2422L0.8297,-0.25L0.8044,-0.2581L0.7778,-0.2666L0.75,-0.2754L0.7211,-0.2846L0.6913,-0.2948L0.6607,-0.3054L0.6294,-0.3156L0.5975,-0.3247L0.5653,-0.3318L0.5327,-0.3376L0.5,-0.342L0.4673,-0.3449L0.4347,-0.346L0.4024,-0.3452L0.3706,-0.343L0.3393,-0.3396L0.3087,-0.3348L0.2789,-0.3275L0.25,-0.3179L0.2222,-0.3058L0.1956,-0.2919L0.1703,-0.2763L0.1464,-0.2591L0.1241,-0.2404L0.1033,-0.2199L0.0843,-0.1985L0.067,-0.1767L0.0516,-0.1546L0.0381,-0.1326L0.0265,-0.1101L0.017,-0.0859L0.0096,-0.063L0.0043,-0.0401L0.0011,-0.0129L0,-0L0.0011,0.01L0.0043,0.0316L0.0096,0.0501L0.017,0.0675L0.0265,0.0862L0.0381,0.1039L0.0516,0.122L0.067,0.1404L0.0843,0.1589L0.1033,0.1773L0.1241,0.1957L0.1464,0.2132L0.1703,0.2299L0.1956,0.2456L0.2222,0.2599L0.25,0.2727L0.2789,0.2839L0.3087,0.2938L0.3393,0.3022L0.3706,0.3091L0.4024,0.3145L0.4347,0.3178L0.4673,0.319L0.5,0.3182L0.5327,0.3156L0.5653,0.3111L0.5975,0.3046L0.6294,0.2968L0.6607,0.2882L0.6913,0.2782L0.7211,0.2681L0.75,0.2587L0.7778,0.2499L0.8044,0.2419L0.8297,0.235L0.8536,0.229L0.8759,0.2236L0.8967,0.2186L0.9157,0.214L0.933,0.2102L0.9484,0.2031L0.9619,0.1802L0.9735,0.1485L0.983,0.1192L0.9904,0.0895L0.9957,0.063L0.9989,0.0473L1,0.0424"
    />
</svg>
