
<svg 
  class="airfoil-fx79w470a"
  fill="none"
  stroke="black" 
  stroke-width="1"
  style="overflow:visible"
  viewBox="0, -0.2635, 1, 0.4675"
  xmlns="http://www.w3.org/2000/svg">
    <title>FX 79-W-470A</title>
    <path 
      vector-effect="non-scaling-stroke"
      d="M1,-0.0321L0.9989,-0.0298L0.9957,-0.0689L0.9904,-0.0832L0.983,-0.0938L0.9735,-0.1023L0.9619,-0.1065L0.9484,-0.109L0.933,-0.1117L0.9157,-0.1161L0.8967,-0.1214L0.8759,-0.1273L0.8536,-0.134L0.8297,-0.1412L0.8044,-0.1489L0.7778,-0.1571L0.75,-0.1663L0.7211,-0.1759L0.6913,-0.1857L0.6607,-0.1959L0.6294,-0.2064L0.5975,-0.2165L0.5653,-0.2256L0.5327,-0.2336L0.5,-0.2411L0.4673,-0.2481L0.4347,-0.2541L0.4024,-0.259L0.3706,-0.2624L0.3393,-0.2635L0.3087,-0.2624L0.2789,-0.259L0.25,-0.2535L0.2222,-0.2458L0.1956,-0.236L0.1703,-0.224L0.1464,-0.2102L0.1241,-0.1951L0.1033,-0.1792L0.0843,-0.1626L0.067,-0.145L0.0516,-0.1265L0.0381,-0.1079L0.0265,-0.0904L0.017,-0.0738L0.0096,-0.0578L0.0043,-0.0409L0.0011,-0.0249L0,-0L0.0011,0.01L0.0043,0.0233L0.0096,0.0362L0.017,0.0481L0.0265,0.0602L0.0381,0.0719L0.0516,0.0835L0.067,0.095L0.0843,0.1063L0.1033,0.1178L0.1241,0.1292L0.1464,0.1401L0.1703,0.1506L0.1956,0.1603L0.2222,0.1694L0.25,0.1777L0.2789,0.1851L0.3087,0.1916L0.3393,0.1971L0.3706,0.2013L0.4024,0.2035L0.4347,0.204L0.4673,0.2032L0.5,0.2014L0.5327,0.1981L0.5653,0.1925L0.5975,0.185L0.6294,0.1763L0.6607,0.1668L0.6913,0.157L0.7211,0.1472L0.75,0.1384L0.7778,0.131L0.8044,0.1247L0.8297,0.1186L0.8536,0.1127L0.8759,0.1072L0.8967,0.1031L0.9157,0.0998L0.933,0.0972L0.9484,0.096L0.9619,0.0949L0.9735,0.092L0.983,0.0853L0.9904,0.0768L0.9957,0.0644L0.9989,0.0385L1,0.0322"
    />
</svg>
