
<svg 
  class="airfoil-fx79l120"
  fill="none"
  stroke="black" 
  stroke-width="1"
  style="overflow:visible"
  viewBox="0, -0.0603, 1, 0.1206"
  xmlns="http://www.w3.org/2000/svg">
    <title>FX 79-L-120</title>
    <path 
      vector-effect="non-scaling-stroke"
      d="M1,-0L0.9989,-0.0009L0.9957,-0.0012L0.9904,-0.0017L0.983,-0.0022L0.9735,-0.003L0.9619,-0.0039L0.9484,-0.005L0.933,-0.0063L0.9157,-0.0077L0.8967,-0.0094L0.8759,-0.0113L0.8536,-0.0134L0.8297,-0.0158L0.8044,-0.0184L0.7778,-0.0213L0.75,-0.0244L0.7211,-0.0277L0.6913,-0.0311L0.6607,-0.0347L0.6294,-0.0384L0.5975,-0.0421L0.5653,-0.0457L0.5327,-0.0492L0.5,-0.0523L0.4673,-0.055L0.4347,-0.0572L0.4024,-0.0588L0.3706,-0.0599L0.3393,-0.0603L0.3087,-0.0602L0.2789,-0.0596L0.25,-0.0585L0.2222,-0.057L0.1956,-0.0551L0.1703,-0.0529L0.1464,-0.0503L0.1241,-0.0474L0.1033,-0.0443L0.0843,-0.0408L0.067,-0.0372L0.0516,-0.0333L0.0381,-0.0292L0.0265,-0.0249L0.017,-0.0203L0.0096,-0.0154L0.0043,-0.0103L0.0011,-0.0052L0,-0L0.0011,0.0052L0.0043,0.0103L0.0096,0.0154L0.017,0.0203L0.0265,0.0249L0.0381,0.0292L0.0516,0.0333L0.067,0.0372L0.0843,0.0408L0.1033,0.0443L0.1241,0.0474L0.1464,0.0503L0.1703,0.0529L0.1956,0.0551L0.2222,0.057L0.25,0.0585L0.2789,0.0596L0.3087,0.0602L0.3393,0.0603L0.3706,0.0599L0.4024,0.0588L0.4347,0.0572L0.4673,0.055L0.5,0.0523L0.5327,0.0492L0.5653,0.0457L0.5975,0.0421L0.6294,0.0384L0.6607,0.0347L0.6913,0.0311L0.7211,0.0277L0.75,0.0244L0.7778,0.0213L0.8044,0.0184L0.8297,0.0158L0.8536,0.0134L0.8759,0.0113L0.8967,0.0094L0.9157,0.0077L0.933,0.0063L0.9484,0.005L0.9619,0.0039L0.9735,0.003L0.983,0.0022L0.9904,0.0017L0.9957,0.0012L0.9989,0.0009L1,-0"
    />
</svg>
