
<svg 
  class="airfoil-fx80080"
  fill="none"
  stroke="black" 
  stroke-width="1"
  style="overflow:visible"
  viewBox="0, -0.0621, 1, 0.0815"
  xmlns="http://www.w3.org/2000/svg">
    <title>FX 80-080</title>
    <path 
      vector-effect="non-scaling-stroke"
      d="M1,-0L0.9989,-0.0011L0.9957,-0.002L0.9904,-0.0033L0.983,-0.0048L0.9735,-0.0066L0.9619,-0.0087L0.9484,-0.0109L0.933,-0.0134L0.9157,-0.0161L0.8967,-0.019L0.8759,-0.0222L0.8536,-0.0256L0.8297,-0.0293L0.8044,-0.0332L0.7778,-0.0372L0.75,-0.0412L0.7211,-0.045L0.6913,-0.0488L0.6607,-0.0521L0.6294,-0.055L0.5975,-0.0574L0.5653,-0.0593L0.5327,-0.0606L0.5,-0.0615L0.4673,-0.062L0.4347,-0.0621L0.4024,-0.0617L0.3706,-0.0611L0.3393,-0.0601L0.3087,-0.0587L0.2789,-0.057L0.25,-0.0551L0.2222,-0.0528L0.1956,-0.0503L0.1703,-0.0475L0.1464,-0.0445L0.1241,-0.0413L0.1033,-0.0379L0.0843,-0.0343L0.067,-0.0307L0.0516,-0.0269L0.0381,-0.023L0.0265,-0.019L0.017,-0.0149L0.0096,-0.0108L0.0043,-0.0069L0.0011,-0.0031L0,-0L0.0011,0.0026L0.0043,0.0052L0.0096,0.0074L0.017,0.0094L0.0265,0.0112L0.0381,0.0127L0.0516,0.0139L0.067,0.015L0.0843,0.0159L0.1033,0.0167L0.1241,0.0174L0.1464,0.018L0.1703,0.0184L0.1956,0.0188L0.2222,0.0191L0.25,0.0193L0.2789,0.0194L0.3087,0.0194L0.3393,0.0193L0.3706,0.0191L0.4024,0.0189L0.4347,0.0185L0.4673,0.018L0.5,0.0174L0.5327,0.0166L0.5653,0.0157L0.5975,0.0145L0.6294,0.0131L0.6607,0.0113L0.6913,0.0094L0.7211,0.0074L0.75,0.0054L0.7778,0.0034L0.8044,0.0017L0.8297,0.0002L0.8536,-0.0009L0.8759,-0.0017L0.8967,-0.0022L0.9157,-0.0023L0.933,-0.0023L0.9484,-0.002L0.9619,-0.0016L0.9735,-0.0012L0.983,-0.0007L0.9904,-0.0002L0.9957,-0.0002L0.9989,-0.0006L1,-0"
    />
</svg>
