
<svg 
  class="airfoil-fx83w108"
  fill="none"
  stroke="black" 
  stroke-width="1"
  style="overflow:visible"
  viewBox="0, -0.0914, 1, 0.119399995"
  xmlns="http://www.w3.org/2000/svg">
    <title>FX 83-W-108</title>
    <path 
      vector-effect="non-scaling-stroke"
      d="M1,-0L0.9989,-0.0011L0.9957,-0.0021L0.9904,-0.0037L0.983,-0.0058L0.9735,-0.0086L0.9619,-0.0117L0.9484,-0.0152L0.933,-0.0189L0.9157,-0.0229L0.8967,-0.0273L0.8759,-0.032L0.8536,-0.0369L0.8297,-0.0421L0.8044,-0.0474L0.7778,-0.0528L0.75,-0.0582L0.7211,-0.0636L0.6913,-0.0688L0.6607,-0.0737L0.6294,-0.0781L0.5975,-0.082L0.5653,-0.0853L0.5327,-0.0878L0.5,-0.0897L0.4673,-0.0909L0.4347,-0.0914L0.4024,-0.0913L0.3706,-0.0904L0.3393,-0.089L0.3087,-0.087L0.2789,-0.0845L0.25,-0.0816L0.2222,-0.0782L0.1956,-0.0744L0.1703,-0.0702L0.1464,-0.0657L0.1241,-0.0609L0.1033,-0.0559L0.0843,-0.0507L0.067,-0.0453L0.0516,-0.0397L0.0381,-0.0342L0.0265,-0.0284L0.017,-0.0228L0.0096,-0.017L0.0043,-0.0114L0.0011,-0.0055L0,-0L0.0011,0.0042L0.0043,0.0088L0.0096,0.0125L0.017,0.0157L0.0265,0.0184L0.0381,0.0207L0.0516,0.0227L0.067,0.0244L0.0843,0.0258L0.1033,0.0269L0.1241,0.0276L0.1464,0.028L0.1703,0.028L0.1956,0.0276L0.2222,0.0268L0.25,0.0255L0.2789,0.0238L0.3087,0.0216L0.3393,0.0192L0.3706,0.0164L0.4024,0.0136L0.4347,0.0107L0.4673,0.008L0.5,0.0055L0.5327,0.0031L0.5653,0.001L0.5975,-0.001L0.6294,-0.0027L0.6607,-0.0041L0.6913,-0.0053L0.7211,-0.0062L0.75,-0.0069L0.7778,-0.0073L0.8044,-0.0075L0.8297,-0.0075L0.8536,-0.0072L0.8759,-0.0068L0.8967,-0.0062L0.9157,-0.0055L0.933,-0.0047L0.9484,-0.0037L0.9619,-0.0028L0.9735,-0.0019L0.983,-0.0011L0.9904,-0.0004L0.9957,0.0001L0.9989,0.0005L1,-0"
    />
</svg>
