
<svg 
  class="airfoil-fx83w160"
  fill="none"
  stroke="black" 
  stroke-width="1"
  style="overflow:visible"
  viewBox="0, -0.1106, 1, 0.1662"
  xmlns="http://www.w3.org/2000/svg">
    <title>FX 83-W-160</title>
    <path 
      vector-effect="non-scaling-stroke"
      d="M1,-0L0.9989,-0.001L0.9957,-0.0023L0.9904,-0.0044L0.983,-0.0071L0.9735,-0.0106L0.9619,-0.0147L0.9484,-0.0193L0.933,-0.0243L0.9157,-0.0299L0.8967,-0.0357L0.8759,-0.0419L0.8536,-0.0483L0.8297,-0.0549L0.8044,-0.0615L0.7778,-0.0681L0.75,-0.0746L0.7211,-0.0809L0.6913,-0.0869L0.6607,-0.0923L0.6294,-0.0973L0.5975,-0.1015L0.5653,-0.105L0.5327,-0.1076L0.5,-0.1094L0.4673,-0.1103L0.4347,-0.1106L0.4024,-0.1101L0.3706,-0.1089L0.3393,-0.1071L0.3087,-0.1048L0.2789,-0.1018L0.25,-0.0984L0.2222,-0.0945L0.1956,-0.0902L0.1703,-0.0855L0.1464,-0.0804L0.1241,-0.0749L0.1033,-0.0692L0.0843,-0.0631L0.067,-0.0567L0.0516,-0.05L0.0381,-0.0429L0.0265,-0.0358L0.017,-0.0284L0.0096,-0.0211L0.0043,-0.0139L0.0011,-0.007L0,-0L0.0011,0.006L0.0043,0.0119L0.0096,0.0177L0.017,0.0231L0.0265,0.0283L0.0381,0.033L0.0516,0.0374L0.067,0.0411L0.0843,0.0445L0.1033,0.0474L0.1241,0.0498L0.1464,0.0518L0.1703,0.0534L0.1956,0.0546L0.2222,0.0553L0.25,0.0556L0.2789,0.0553L0.3087,0.0546L0.3393,0.0533L0.3706,0.0516L0.4024,0.0491L0.4347,0.0462L0.4673,0.0425L0.5,0.0383L0.5327,0.0334L0.5653,0.0287L0.5975,0.0239L0.6294,0.0194L0.6607,0.0153L0.6913,0.0115L0.7211,0.008L0.75,0.005L0.7778,0.0025L0.8044,0.0003L0.8297,-0.0014L0.8536,-0.0027L0.8759,-0.0036L0.8967,-0.0041L0.9157,-0.0042L0.933,-0.004L0.9484,-0.0036L0.9619,-0.003L0.9735,-0.0023L0.983,-0.0016L0.9904,-0.0009L0.9957,-0.0002L0.9989,0.0003L1,-0"
    />
</svg>
