
<svg 
  class="airfoil-fx83w227"
  fill="none"
  stroke="black" 
  stroke-width="1"
  style="overflow:visible"
  viewBox="0, -0.1472, 1, 0.227"
  xmlns="http://www.w3.org/2000/svg">
    <title>FX 83-W-227</title>
    <path 
      vector-effect="non-scaling-stroke"
      d="M1,-0L0.9989,-0.0006L0.9957,-0.0014L0.9904,-0.0032L0.983,-0.0059L0.9735,-0.0095L0.9619,-0.0139L0.9484,-0.019L0.933,-0.0247L0.9157,-0.0309L0.8967,-0.0375L0.8759,-0.0445L0.8536,-0.0518L0.8297,-0.0593L0.8044,-0.067L0.7778,-0.075L0.75,-0.0831L0.7211,-0.0912L0.6913,-0.0992L0.6607,-0.1069L0.6294,-0.1142L0.5975,-0.1211L0.5653,-0.1274L0.5327,-0.1331L0.5,-0.1378L0.4673,-0.1417L0.4347,-0.1445L0.4024,-0.1464L0.3706,-0.1472L0.3393,-0.1469L0.3087,-0.1455L0.2789,-0.1429L0.25,-0.1391L0.2222,-0.1342L0.1956,-0.1282L0.1703,-0.1213L0.1464,-0.1134L0.1241,-0.1048L0.1033,-0.0957L0.0843,-0.086L0.067,-0.076L0.0516,-0.0659L0.0381,-0.0557L0.0265,-0.0455L0.017,-0.0354L0.0096,-0.0256L0.0043,-0.0163L0.0011,-0.0077L0,-0L0.0011,0.0073L0.0043,0.0146L0.0096,0.0222L0.017,0.0299L0.0265,0.0371L0.0381,0.0437L0.0516,0.0497L0.067,0.0551L0.0843,0.0598L0.1033,0.064L0.1241,0.0677L0.1464,0.0708L0.1703,0.0735L0.1956,0.0758L0.2222,0.0775L0.25,0.0788L0.2789,0.0795L0.3087,0.0798L0.3393,0.0795L0.3706,0.0788L0.4024,0.0776L0.4347,0.0759L0.4673,0.0737L0.5,0.071L0.5327,0.0677L0.5653,0.064L0.5975,0.0599L0.6294,0.0555L0.6607,0.0509L0.6913,0.0462L0.7211,0.0416L0.75,0.037L0.7778,0.0326L0.8044,0.0284L0.8297,0.0245L0.8536,0.021L0.8759,0.0178L0.8967,0.0148L0.9157,0.012L0.933,0.0094L0.9484,0.007L0.9619,0.0049L0.9735,0.0031L0.983,0.0017L0.9904,0.0009L0.9957,0.0003L0.9989,0.0003L1,-0"
    />
</svg>
