
<svg 
  class="airfoil-fx84w127"
  fill="none"
  stroke="black" 
  stroke-width="1"
  style="overflow:visible"
  viewBox="0, -0.1008, 1, 0.13"
  xmlns="http://www.w3.org/2000/svg">
    <title>FX 84-W-127</title>
    <path 
      vector-effect="non-scaling-stroke"
      d="M1,-0L0.9989,-0.0001L0.9957,-0.0005L0.9904,-0.0012L0.983,-0.0023L0.9735,-0.0038L0.9619,-0.0059L0.9484,-0.0084L0.933,-0.0115L0.9157,-0.0152L0.8967,-0.0193L0.8759,-0.024L0.8536,-0.0291L0.8297,-0.0346L0.8044,-0.0404L0.7778,-0.0465L0.75,-0.0527L0.7211,-0.0589L0.6913,-0.0651L0.6607,-0.0711L0.6294,-0.0768L0.5975,-0.0821L0.5653,-0.0869L0.5327,-0.091L0.5,-0.0945L0.4673,-0.0974L0.4347,-0.0993L0.4024,-0.1005L0.3706,-0.1008L0.3393,-0.1003L0.3087,-0.099L0.2789,-0.0967L0.25,-0.0938L0.2222,-0.0901L0.1956,-0.0857L0.1703,-0.0808L0.1464,-0.0754L0.1241,-0.0695L0.1033,-0.0632L0.0843,-0.0566L0.067,-0.0499L0.0516,-0.0431L0.0381,-0.0363L0.0265,-0.0296L0.017,-0.0231L0.0096,-0.0168L0.0043,-0.0108L0.0011,-0.0052L0,-0L0.0011,0.0047L0.0043,0.009L0.0096,0.0128L0.017,0.0162L0.0265,0.0192L0.0381,0.0216L0.0516,0.0237L0.067,0.0254L0.0843,0.0267L0.1033,0.0277L0.1241,0.0284L0.1464,0.0289L0.1703,0.0291L0.1956,0.0292L0.2222,0.029L0.25,0.0288L0.2789,0.0284L0.3087,0.0279L0.3393,0.0272L0.3706,0.0265L0.4024,0.0257L0.4347,0.0247L0.4673,0.0236L0.5,0.0224L0.5327,0.0211L0.5653,0.0197L0.5975,0.0181L0.6294,0.0165L0.6607,0.0147L0.6913,0.0129L0.7211,0.0111L0.75,0.0093L0.7778,0.0075L0.8044,0.0058L0.8297,0.0043L0.8536,0.0029L0.8759,0.0017L0.8967,0.0007L0.9157,-0.0001L0.933,-0.0006L0.9484,-0.0009L0.9619,-0.001L0.9735,-0.001L0.983,-0.0008L0.9904,-0.0005L0.9957,-0.0003L0.9989,-0.0001L1,-0"
    />
</svg>
