
<svg 
  class="airfoil-fx84w140"
  fill="none"
  stroke="black" 
  stroke-width="1"
  style="overflow:visible"
  viewBox="0, -0.1121, 1, 0.1434"
  xmlns="http://www.w3.org/2000/svg">
    <title>FX 84-W-140</title>
    <path 
      vector-effect="non-scaling-stroke"
      d="M1,-0L0.9989,-0.0001L0.9957,-0.0006L0.9904,-0.0015L0.983,-0.0028L0.9735,-0.0046L0.9619,-0.007L0.9484,-0.01L0.933,-0.0136L0.9157,-0.0178L0.8967,-0.0226L0.8759,-0.028L0.8536,-0.0339L0.8297,-0.0402L0.8044,-0.0468L0.7778,-0.0536L0.75,-0.0606L0.7211,-0.0675L0.6913,-0.0744L0.6607,-0.0809L0.6294,-0.0872L0.5975,-0.0929L0.5653,-0.098L0.5327,-0.1024L0.5,-0.1061L0.4673,-0.109L0.4347,-0.1109L0.4024,-0.112L0.3706,-0.1121L0.3393,-0.1113L0.3087,-0.1095L0.2789,-0.1069L0.25,-0.1034L0.2222,-0.0992L0.1956,-0.0942L0.1703,-0.0887L0.1464,-0.0826L0.1241,-0.076L0.1033,-0.069L0.0843,-0.0618L0.067,-0.0544L0.0516,-0.0469L0.0381,-0.0395L0.0265,-0.0322L0.017,-0.0251L0.0096,-0.0183L0.0043,-0.0118L0.0011,-0.0056L0,-0L0.0011,0.0051L0.0043,0.0096L0.0096,0.0137L0.017,0.0173L0.0265,0.0205L0.0381,0.0231L0.0516,0.0253L0.067,0.0271L0.0843,0.0286L0.1033,0.0296L0.1241,0.0304L0.1464,0.0309L0.1703,0.0312L0.1956,0.0313L0.2222,0.0312L0.25,0.031L0.2789,0.0306L0.3087,0.0301L0.3393,0.0295L0.3706,0.0287L0.4024,0.0278L0.4347,0.0268L0.4673,0.0257L0.5,0.0243L0.5327,0.0229L0.5653,0.0212L0.5975,0.0195L0.6294,0.0176L0.6607,0.0156L0.6913,0.0136L0.7211,0.0115L0.75,0.0094L0.7778,0.0074L0.8044,0.0055L0.8297,0.0038L0.8536,0.0023L0.8759,0.001L0.8967,0L0.9157,-0.0007L0.933,-0.0012L0.9484,-0.0015L0.9619,-0.0015L0.9735,-0.0013L0.983,-0.001L0.9904,-0.0007L0.9957,-0.0003L0.9989,-0.0001L1,-0"
    />
</svg>
