
<svg 
  class="airfoil-fx84w097"
  fill="none"
  stroke="black" 
  stroke-width="1"
  style="overflow:visible"
  viewBox="0, -0.0766, 1, 0.0996"
  xmlns="http://www.w3.org/2000/svg">
    <title>FX 84-W-097</title>
    <path 
      vector-effect="non-scaling-stroke"
      d="M1,-0L0.9989,-0.0001L0.9957,-0.0003L0.9904,-0.0007L0.983,-0.0014L0.9735,-0.0023L0.9619,-0.0036L0.9484,-0.0052L0.933,-0.0073L0.9157,-0.0097L0.8967,-0.0125L0.8759,-0.0157L0.8536,-0.0193L0.8297,-0.0232L0.8044,-0.0274L0.7778,-0.0318L0.75,-0.0364L0.7211,-0.0411L0.6913,-0.0458L0.6607,-0.0505L0.6294,-0.055L0.5975,-0.0593L0.5653,-0.0632L0.5327,-0.0668L0.5,-0.0699L0.4673,-0.0725L0.4347,-0.0745L0.4024,-0.0758L0.3706,-0.0765L0.3393,-0.0766L0.3087,-0.076L0.2789,-0.0747L0.25,-0.0728L0.2222,-0.0702L0.1956,-0.0671L0.1703,-0.0635L0.1464,-0.0595L0.1241,-0.055L0.1033,-0.0502L0.0843,-0.0451L0.067,-0.0399L0.0516,-0.0345L0.0381,-0.0291L0.0265,-0.0238L0.017,-0.0185L0.0096,-0.0135L0.0043,-0.0087L0.0011,-0.0042L0,-0L0.0011,0.0039L0.0043,0.0074L0.0096,0.0106L0.017,0.0133L0.0265,0.0156L0.0381,0.0176L0.0516,0.0192L0.067,0.0205L0.0843,0.0215L0.1033,0.0222L0.1241,0.0227L0.1464,0.0229L0.1703,0.023L0.1956,0.0229L0.2222,0.0226L0.25,0.0223L0.2789,0.0219L0.3087,0.0214L0.3393,0.0208L0.3706,0.0202L0.4024,0.0195L0.4347,0.0188L0.4673,0.018L0.5,0.0171L0.5327,0.0162L0.5653,0.0152L0.5975,0.0142L0.6294,0.0131L0.6607,0.0119L0.6913,0.0107L0.7211,0.0094L0.75,0.0082L0.7778,0.0069L0.8044,0.0057L0.8297,0.0046L0.8536,0.0035L0.8759,0.0026L0.8967,0.0018L0.9157,0.0011L0.933,0.0005L0.9484,0.0001L0.9619,-0.0001L0.9735,-0.0002L0.983,-0.0003L0.9904,-0.0002L0.9957,-0.0001L0.9989,-0L1,-0"
    />
</svg>
