
<svg 
  class="airfoil-fx84w175"
  fill="none"
  stroke="black" 
  stroke-width="1"
  style="overflow:visible"
  viewBox="0, -0.1311, 1, 0.178"
  xmlns="http://www.w3.org/2000/svg">
    <title>FX 84-W-175</title>
    <path 
      vector-effect="non-scaling-stroke"
      d="M1,-0L0.9989,-0.0002L0.9957,-0.0007L0.9904,-0.0017L0.983,-0.0032L0.9735,-0.0054L0.9619,-0.0082L0.9484,-0.0117L0.933,-0.0159L0.9157,-0.0209L0.8967,-0.0266L0.8759,-0.0329L0.8536,-0.0399L0.8297,-0.0473L0.8044,-0.0551L0.7778,-0.0632L0.75,-0.0714L0.7211,-0.0796L0.6913,-0.0876L0.6607,-0.0953L0.6294,-0.1025L0.5975,-0.1091L0.5653,-0.1151L0.5327,-0.1202L0.5,-0.1244L0.4673,-0.1276L0.4347,-0.1299L0.4024,-0.131L0.3706,-0.1311L0.3393,-0.1302L0.3087,-0.1282L0.2789,-0.1252L0.25,-0.1212L0.2222,-0.1163L0.1956,-0.1107L0.1703,-0.1043L0.1464,-0.0973L0.1241,-0.0898L0.1033,-0.0818L0.0843,-0.0734L0.067,-0.0648L0.0516,-0.0561L0.0381,-0.0474L0.0265,-0.0388L0.017,-0.0303L0.0096,-0.0221L0.0043,-0.0143L0.0011,-0.007L0,-0L0.0011,0.0066L0.0043,0.0127L0.0096,0.0182L0.017,0.0232L0.0265,0.0275L0.0381,0.0314L0.0516,0.0348L0.067,0.0376L0.0843,0.04L0.1033,0.0421L0.1241,0.0437L0.1464,0.0449L0.1703,0.0459L0.1956,0.0465L0.2222,0.0468L0.25,0.0469L0.2789,0.0468L0.3087,0.0464L0.3393,0.0458L0.3706,0.045L0.4024,0.0438L0.4347,0.0425L0.4673,0.0408L0.5,0.0389L0.5327,0.0367L0.5653,0.0343L0.5975,0.0316L0.6294,0.0288L0.6607,0.0258L0.6913,0.0226L0.7211,0.0195L0.75,0.0163L0.7778,0.0133L0.8044,0.0104L0.8297,0.0078L0.8536,0.0054L0.8759,0.0034L0.8967,0.0017L0.9157,0.0004L0.933,-0.0005L0.9484,-0.001L0.9619,-0.0013L0.9735,-0.0012L0.983,-0.001L0.9904,-0.0007L0.9957,-0.0004L0.9989,-0.0001L1,-0"
    />
</svg>
