
<svg 
  class="airfoil-fx84w218"
  fill="none"
  stroke="black" 
  stroke-width="1"
  style="overflow:visible"
  viewBox="0, -0.1412, 1, 0.22060001"
  xmlns="http://www.w3.org/2000/svg">
    <title>FX 84-W-218</title>
    <path 
      vector-effect="non-scaling-stroke"
      d="M1,-0L0.9989,-0.0001L0.9957,-0.0005L0.9904,-0.0013L0.983,-0.0026L0.9735,-0.0045L0.9619,-0.007L0.9484,-0.0103L0.933,-0.0143L0.9157,-0.0191L0.8967,-0.0247L0.8759,-0.031L0.8536,-0.0381L0.8297,-0.0457L0.8044,-0.0538L0.7778,-0.0623L0.75,-0.071L0.7211,-0.0798L0.6913,-0.0885L0.6607,-0.097L0.6294,-0.1051L0.5975,-0.1126L0.5653,-0.1195L0.5327,-0.1256L0.5,-0.1308L0.4673,-0.135L0.4347,-0.1382L0.4024,-0.1402L0.3706,-0.1412L0.3393,-0.1411L0.3087,-0.1398L0.2789,-0.1375L0.25,-0.1341L0.2222,-0.1297L0.1956,-0.1244L0.1703,-0.1182L0.1464,-0.1113L0.1241,-0.1037L0.1033,-0.0954L0.0843,-0.0866L0.067,-0.0773L0.0516,-0.0678L0.0381,-0.058L0.0265,-0.0481L0.017,-0.0381L0.0096,-0.0283L0.0043,-0.0186L0.0011,-0.0092L0,-0L0.0011,0.0089L0.0043,0.0174L0.0096,0.0254L0.017,0.0329L0.0265,0.0399L0.0381,0.0463L0.0516,0.0521L0.067,0.0574L0.0843,0.0621L0.1033,0.0662L0.1241,0.0698L0.1464,0.0728L0.1703,0.0752L0.1956,0.077L0.2222,0.0783L0.25,0.0791L0.2789,0.0794L0.3087,0.0793L0.3393,0.0786L0.3706,0.0774L0.4024,0.0758L0.4347,0.0736L0.4673,0.071L0.5,0.068L0.5327,0.0645L0.5653,0.0606L0.5975,0.0564L0.6294,0.052L0.6607,0.0472L0.6913,0.0424L0.7211,0.0374L0.75,0.0325L0.7778,0.0277L0.8044,0.0231L0.8297,0.0187L0.8536,0.0148L0.8759,0.0113L0.8967,0.0082L0.9157,0.0056L0.933,0.0036L0.9484,0.002L0.9619,0.0009L0.9735,0.0002L0.983,-0.0001L0.9904,-0.0002L0.9957,-0.0002L0.9989,-0.0001L1,-0"
    />
</svg>
