
<svg 
  class="airfoil-fx84w150"
  fill="none"
  stroke="black" 
  stroke-width="1"
  style="overflow:visible"
  viewBox="0, -0.1174, 1, 0.1518"
  xmlns="http://www.w3.org/2000/svg">
    <title>FX 84-W-150</title>
    <path 
      vector-effect="non-scaling-stroke"
      d="M1,-0L0.9989,-0.0001L0.9957,-0.0006L0.9904,-0.0015L0.983,-0.0029L0.9735,-0.0047L0.9619,-0.0072L0.9484,-0.0104L0.933,-0.0141L0.9157,-0.0185L0.8967,-0.0235L0.8759,-0.0291L0.8536,-0.0352L0.8297,-0.0418L0.8044,-0.0487L0.7778,-0.0558L0.75,-0.0632L0.7211,-0.0704L0.6913,-0.0776L0.6607,-0.0845L0.6294,-0.091L0.5975,-0.097L0.5653,-0.1024L0.5327,-0.1071L0.5,-0.111L0.4673,-0.114L0.4347,-0.1161L0.4024,-0.1173L0.3706,-0.1174L0.3393,-0.1167L0.3087,-0.1149L0.2789,-0.1123L0.25,-0.1087L0.2222,-0.1044L0.1956,-0.0993L0.1703,-0.0936L0.1464,-0.0874L0.1241,-0.0806L0.1033,-0.0734L0.0843,-0.0659L0.067,-0.0582L0.0516,-0.0505L0.0381,-0.0428L0.0265,-0.0352L0.017,-0.0278L0.0096,-0.0206L0.0043,-0.0138L0.0011,-0.0073L0,-0.0013L0.0011,0.0041L0.0043,0.009L0.0096,0.0134L0.017,0.0174L0.0265,0.0209L0.0381,0.0239L0.0516,0.0264L0.067,0.0286L0.0843,0.0303L0.1033,0.0316L0.1241,0.0327L0.1464,0.0335L0.1703,0.034L0.1956,0.0343L0.2222,0.0344L0.25,0.0343L0.2789,0.0341L0.3087,0.0337L0.3393,0.0331L0.3706,0.0324L0.4024,0.0316L0.4347,0.0305L0.4673,0.0293L0.5,0.0279L0.5327,0.0263L0.5653,0.0245L0.5975,0.0226L0.6294,0.0205L0.6607,0.0183L0.6913,0.016L0.7211,0.0137L0.75,0.0114L0.7778,0.0091L0.8044,0.007L0.8297,0.005L0.8536,0.0033L0.8759,0.0018L0.8967,0.0006L0.9157,-0.0003L0.933,-0.0009L0.9484,-0.0013L0.9619,-0.0014L0.9735,-0.0012L0.983,-0.001L0.9904,-0.0007L0.9957,-0.0003L0.9989,-0.0001L1,-0"
    />
</svg>
