
<svg 
  class="airfoil-fxl142k"
  fill="none"
  stroke="black" 
  stroke-width="1"
  style="overflow:visible"
  viewBox="0, -0.071, 1, 0.142"
  xmlns="http://www.w3.org/2000/svg">
    <title>FX LIII-142 K 25 AIRFOIL</title>
    <path 
      vector-effect="non-scaling-stroke"
      d="M1,-0L0.9989,-0.0006L0.9957,-0.0008L0.9903,-0.0014L0.9829,-0.002L0.9734,-0.0026L0.9619,-0.0034L0.9485,-0.0048L0.933,-0.0058L0.9157,-0.0076L0.8964,-0.0096L0.8759,-0.0114L0.8535,-0.0138L0.8297,-0.0162L0.8044,-0.0192L0.7777,-0.0234L0.75,-0.026L0.7211,-0.0292L0.6913,-0.0334L0.6607,-0.0378L0.6294,-0.0416L0.5975,-0.0463L0.5652,-0.0506L0.5327,-0.0552L0.5,-0.059L0.4673,-0.063L0.4347,-0.066L0.4024,-0.0682L0.3706,-0.0698L0.3393,-0.0708L0.3086,-0.071L0.2789,-0.0706L0.25,-0.0694L0.2222,-0.0678L0.1956,-0.0656L0.1704,-0.0628L0.1464,-0.0596L0.124,-0.0562L0.1033,-0.0524L0.0842,-0.0484L0.0669,-0.0436L0.0516,-0.0388L0.038,-0.0334L0.0265,-0.0282L0.017,-0.0224L0.0096,-0.0162L0.0042,-0.0098L0.001,-0.0042L0,-0L0.001,0.0042L0.0042,0.0098L0.0096,0.0162L0.017,0.0224L0.0265,0.0282L0.038,0.0334L0.0516,0.0388L0.0669,0.0436L0.0842,0.0484L0.1033,0.0524L0.124,0.0562L0.1464,0.0596L0.1704,0.0628L0.1956,0.0656L0.2222,0.0678L0.25,0.0694L0.2789,0.0706L0.3086,0.071L0.3393,0.0708L0.3706,0.0698L0.4024,0.0682L0.4347,0.066L0.4673,0.063L0.5,0.059L0.5327,0.0552L0.5652,0.0506L0.5975,0.0463L0.6294,0.0416L0.6607,0.0378L0.6913,0.0334L0.7211,0.0292L0.75,0.026L0.7777,0.0234L0.8044,0.0192L0.8297,0.0162L0.8535,0.0138L0.8759,0.0114L0.8964,0.0096L0.9157,0.0076L0.933,0.0058L0.9485,0.0048L0.9619,0.0034L0.9734,0.0026L0.9829,0.002L0.9903,0.0014L0.9957,0.0008L0.9989,0.0006L1,-0"
    />
</svg>
