
<svg 
  class="airfoil-fxlv152"
  fill="none"
  stroke="black" 
  stroke-width="1"
  style="overflow:visible"
  viewBox="0, -0.0764, 1, 0.1528"
  xmlns="http://www.w3.org/2000/svg">
    <title>WORTMANN FX L V-152 AIRFOIL</title>
    <path 
      vector-effect="non-scaling-stroke"
      d="M1,-0L0.9989,-0.0004L0.9957,-0.0008L0.9903,-0.0012L0.9829,-0.0018L0.9734,-0.0024L0.9619,-0.0034L0.9485,-0.0046L0.933,-0.0058L0.9157,-0.0076L0.8964,-0.0098L0.8759,-0.0124L0.8536,-0.015L0.8297,-0.0182L0.8044,-0.0218L0.7777,-0.0258L0.7499,-0.0296L0.7211,-0.0342L0.6913,-0.0392L0.6607,-0.0438L0.6294,-0.049L0.5975,-0.0542L0.5652,-0.059L0.5327,-0.0638L0.5,-0.068L0.4673,-0.071L0.4347,-0.0736L0.4024,-0.0754L0.3706,-0.0764L0.3393,-0.0764L0.3086,-0.0758L0.2789,-0.0748L0.25,-0.0734L0.2222,-0.071L0.1956,-0.0684L0.1704,-0.065L0.1464,-0.0614L0.124,-0.0576L0.1033,-0.0534L0.0842,-0.0488L0.0669,-0.0438L0.0516,-0.0388L0.038,-0.0332L0.0265,-0.0276L0.0176,-0.0218L0.0096,-0.016L0.0042,-0.0092L0.001,-0.0044L0,-0L0,-0L0.001,0.0044L0.0042,0.0092L0.0096,0.016L0.0176,0.0218L0.0265,0.0276L0.038,0.0332L0.0516,0.0388L0.0669,0.0438L0.0842,0.0488L0.1033,0.0534L0.124,0.0576L0.1464,0.0614L0.1704,0.065L0.1956,0.0684L0.2222,0.071L0.25,0.0734L0.2789,0.0748L0.3086,0.0758L0.3393,0.0764L0.3706,0.0764L0.4024,0.0754L0.4347,0.0736L0.4673,0.071L0.5,0.068L0.5327,0.0638L0.5652,0.059L0.5975,0.0542L0.6294,0.049L0.6607,0.0438L0.6913,0.0392L0.7211,0.0342L0.7499,0.0296L0.7777,0.0258L0.8044,0.0218L0.8297,0.0182L0.8536,0.015L0.8759,0.0124L0.8964,0.0098L0.9157,0.0076L0.933,0.0058L0.9485,0.0046L0.9619,0.0034L0.9734,0.0024L0.9829,0.0018L0.9903,0.0012L0.9957,0.0008L0.9989,0.0004"
    />
</svg>
