
<svg 
  class="airfoil-fxm2"
  fill="none"
  stroke="black" 
  stroke-width="1"
  style="overflow:visible"
  viewBox="0, -0.0881, 1, 0.0979"
  xmlns="http://www.w3.org/2000/svg">
    <title>WORTMANN FX M2 AIRFOIL</title>
    <path 
      vector-effect="non-scaling-stroke"
      d="M1,-0L0.9989,-0.0002L0.9957,-0.001L0.9904,-0.0023L0.983,-0.0041L0.9735,-0.0063L0.9619,-0.0089L0.9484,-0.0118L0.933,-0.0148L0.9157,-0.018L0.8967,-0.0215L0.8759,-0.025L0.8536,-0.0287L0.8297,-0.0324L0.8044,-0.0362L0.7778,-0.0399L0.75,-0.0438L0.7211,-0.0474L0.6913,-0.0513L0.6607,-0.0547L0.6294,-0.0586L0.5975,-0.0618L0.5653,-0.0656L0.5327,-0.0686L0.5,-0.0723L0.4673,-0.0749L0.4347,-0.0782L0.4024,-0.0803L0.3706,-0.0831L0.3393,-0.0844L0.3087,-0.0865L0.2789,-0.0868L0.25,-0.0881L0.2222,-0.0872L0.1956,-0.0875L0.1703,-0.086L0.1464,-0.0842L0.1241,-0.0815L0.1033,-0.0774L0.0843,-0.0725L0.067,-0.0666L0.0516,-0.0605L0.0381,-0.052L0.0265,-0.0445L0.017,-0.0352L0.0096,-0.0265L0.0043,-0.0177L0.0011,-0.0097L0,-0L0.0011,0.0035L0.0043,0.0068L0.0096,0.0091L0.017,0.0098L0.0265,0.0088L0.0381,0.007L0.0516,0.0058L0.067,0.0044L0.0843,0.0025L0.1033,0.0014L0.1241,-0.0001L0.1464,-0.0015L0.1703,-0.0028L0.1956,-0.0035L0.2222,-0.0047L0.25,-0.0069L0.2789,-0.0073L0.3087,-0.0092L0.3393,-0.0095L0.3706,-0.0111L0.4024,-0.0113L0.4347,-0.0126L0.4673,-0.0127L0.5,-0.0137L0.5327,-0.0137L0.5653,-0.0144L0.5975,-0.0143L0.6294,-0.0148L0.6607,-0.0146L0.6913,-0.0147L0.7211,-0.0144L0.75,-0.0142L0.7778,-0.0136L0.8044,-0.013L0.8297,-0.0122L0.8536,-0.0114L0.8759,-0.0105L0.8967,-0.0096L0.9157,-0.0085L0.933,-0.0075L0.9484,-0.0063L0.9619,-0.0052L0.9735,-0.0039L0.983,-0.0027L0.9904,-0.0016L0.9957,-0.0007L0.9989,-0.0002L1,-0"
    />
</svg>
