
<svg 
  class="airfoil-fxs03182"
  fill="none"
  stroke="black" 
  stroke-width="1"
  style="overflow:visible"
  viewBox="0, -0.1185, 1, 0.18259999"
  xmlns="http://www.w3.org/2000/svg">
    <title>FX S 03-182 AIRFOIL</title>
    <path 
      vector-effect="non-scaling-stroke"
      d="M1,-0L0.9989,-0.0004L0.9957,-0.0014L0.9903,-0.0031L0.9829,-0.0053L0.9734,-0.0081L0.9619,-0.0114L0.9485,-0.0151L0.933,-0.0194L0.9157,-0.024L0.8964,-0.0292L0.8759,-0.0348L0.8535,-0.0409L0.8297,-0.0472L0.8044,-0.054L0.7777,-0.061L0.75,-0.0682L0.7211,-0.0754L0.6913,-0.0826L0.6607,-0.0896L0.6294,-0.0964L0.5975,-0.1026L0.5652,-0.1082L0.5327,-0.1128L0.5,-0.1161L0.4673,-0.1179L0.4347,-0.1185L0.4024,-0.118L0.3706,-0.1167L0.3393,-0.1146L0.3086,-0.1117L0.2789,-0.1081L0.25,-0.1039L0.2222,-0.0991L0.1956,-0.0939L0.1704,-0.0881L0.1464,-0.0821L0.124,-0.0756L0.1033,-0.069L0.0842,-0.0619L0.0669,-0.0549L0.0516,-0.0476L0.038,-0.0405L0.0265,-0.0331L0.017,-0.0263L0.0096,-0.0191L0.0042,-0.013L0.001,-0.005L0,-0L0.001,0.002L0.0042,0.0055L0.0096,0.0108L0.017,0.0148L0.0265,0.0193L0.038,0.0234L0.0516,0.0278L0.0669,0.0318L0.0842,0.0359L0.1033,0.0397L0.124,0.0435L0.1464,0.047L0.1704,0.0504L0.1956,0.0534L0.2222,0.0562L0.25,0.0586L0.2789,0.0607L0.3086,0.0623L0.3393,0.0635L0.3706,0.064L0.4024,0.0641L0.4347,0.0634L0.4673,0.0621L0.5,0.0596L0.5327,0.056L0.5652,0.0511L0.5975,0.0457L0.6294,0.0399L0.6607,0.0341L0.6913,0.0283L0.7211,0.0228L0.75,0.0177L0.7777,0.013L0.8044,0.0088L0.8297,0.0051L0.8535,0.0021L0.8759,-0.0003L0.8964,-0.0022L0.9157,-0.0034L0.933,-0.0041L0.9485,-0.0044L0.9619,-0.0042L0.9734,-0.0036L0.9829,-0.0027L0.9903,-0.0018L0.9957,-0.0009L0.9989,-0.0003L1,-0"
    />
</svg>
