
<svg 
  class="airfoil-fxs02196"
  fill="none"
  stroke="black" 
  stroke-width="1"
  style="overflow:visible"
  viewBox="0, -0.1344, 1, 0.19659999"
  xmlns="http://www.w3.org/2000/svg">
    <title>FX S 02-196 AIRFOIL</title>
    <path 
      vector-effect="non-scaling-stroke"
      d="M1,-0L0.9989,-0.0003L0.9957,-0.0011L0.9903,-0.0023L0.9829,-0.0041L0.9734,-0.0064L0.9619,-0.0092L0.9485,-0.0124L0.933,-0.0163L0.9157,-0.0206L0.8964,-0.0255L0.8759,-0.0309L0.8535,-0.0369L0.8297,-0.0434L0.8044,-0.0503L0.7777,-0.0575L0.75,-0.0651L0.7211,-0.0727L0.6913,-0.0806L0.6607,-0.0883L0.6294,-0.096L0.5975,-0.1033L0.5652,-0.1105L0.5327,-0.1169L0.5,-0.1229L0.4673,-0.1278L0.4347,-0.1318L0.4024,-0.1338L0.3706,-0.1344L0.3393,-0.1331L0.3086,-0.131L0.2789,-0.1273L0.25,-0.1235L0.2222,-0.1179L0.1956,-0.1126L0.1704,-0.1056L0.1464,-0.0991L0.124,-0.0909L0.1033,-0.0838L0.0842,-0.0748L0.0669,-0.0674L0.0516,-0.0578L0.038,-0.0504L0.0265,-0.0405L0.017,-0.0337L0.0096,-0.026L0.0042,-0.0179L0.001,-0.0085L0,-0L0.001,0.0035L0.0042,0.008L0.0096,0.0129L0.017,0.016L0.0265,0.0216L0.038,0.0248L0.0516,0.0299L0.0669,0.0331L0.0842,0.0379L0.1033,0.041L0.124,0.0454L0.1464,0.0483L0.1704,0.0521L0.1956,0.0545L0.2222,0.0575L0.25,0.0591L0.2789,0.061L0.3086,0.0616L0.3393,0.0622L0.3706,0.0614L0.4024,0.0603L0.4347,0.057L0.4673,0.0532L0.5,0.0483L0.5327,0.0434L0.5652,0.0379L0.5975,0.0328L0.6294,0.0274L0.6607,0.0226L0.6913,0.0178L0.7211,0.0136L0.75,0.0097L0.7777,0.0063L0.8044,0.0033L0.8297,0.0009L0.8535,-0.0011L0.8759,-0.0026L0.8964,-0.0036L0.9157,-0.0043L0.933,-0.0045L0.9485,-0.0044L0.9619,-0.0039L0.9734,-0.0032L0.9829,-0.0024L0.9903,-0.0015L0.9957,-0.0007L0.9989,-0.0002L1,-0"
    />
</svg>
