
<svg 
  class="airfoil-fxs21158"
  fill="none"
  stroke="black" 
  stroke-width="1"
  style="overflow:visible"
  viewBox="0, -0.1135, 1, 0.1578"
  xmlns="http://www.w3.org/2000/svg">
    <title>FX S 02/1-158 AIRFOIL</title>
    <path 
      vector-effect="non-scaling-stroke"
      d="M1,-0L0.9989,-0.0006L0.9957,-0.0015L0.9903,-0.0027L0.9829,-0.0043L0.9734,-0.0062L0.9619,-0.0083L0.9485,-0.0108L0.933,-0.0137L0.9157,-0.0168L0.8964,-0.0203L0.8759,-0.0241L0.8535,-0.0283L0.8297,-0.0327L0.8044,-0.0375L0.7777,-0.0425L0.75,-0.0479L0.7211,-0.0533L0.6913,-0.0591L0.6607,-0.0649L0.6294,-0.071L0.5975,-0.0769L0.5652,-0.0831L0.5327,-0.0888L0.5,-0.0946L0.4673,-0.0997L0.4347,-0.1048L0.4024,-0.1089L0.3706,-0.1121L0.3393,-0.1134L0.3086,-0.1135L0.2789,-0.1117L0.25,-0.109L0.2222,-0.1045L0.1956,-0.0996L0.1704,-0.0934L0.1464,-0.0871L0.124,-0.0796L0.1033,-0.0724L0.0842,-0.0641L0.0669,-0.0566L0.0516,-0.0479L0.038,-0.04L0.0265,-0.0316L0.017,-0.0245L0.0096,-0.0175L0.0042,-0.0105L0.001,-0.004L0,-0L0.001,0.0025L0.0042,0.0068L0.0096,0.011L0.017,0.014L0.0265,0.0171L0.038,0.02L0.0516,0.0231L0.0669,0.0256L0.0842,0.0289L0.1033,0.0313L0.124,0.0343L0.1464,0.0364L0.1704,0.0389L0.1956,0.0406L0.2222,0.0424L0.25,0.0435L0.2789,0.0443L0.3086,0.0443L0.3393,0.0437L0.3706,0.0421L0.4024,0.0395L0.4347,0.0356L0.4673,0.031L0.5,0.0261L0.5327,0.0214L0.5652,0.0168L0.5975,0.0126L0.6294,0.0088L0.6607,0.0056L0.6913,0.0027L0.7211,0.0004L0.75,-0.0015L0.7777,-0.0029L0.8044,-0.004L0.8297,-0.0047L0.8535,-0.0051L0.8759,-0.0052L0.8964,-0.0051L0.9157,-0.0047L0.933,-0.0042L0.9485,-0.0036L0.9619,-0.003L0.9734,-0.0022L0.9829,-0.0014L0.9903,-0.0008L0.9957,-0.0002L0.9989,-0L1,-0"
    />
</svg>
