
<svg 
  class="airfoil-giiig"
  fill="none"
  stroke="black" 
  stroke-width="1"
  style="overflow:visible"
  viewBox="0, -0.0531, 1, 0.0834"
  xmlns="http://www.w3.org/2000/svg">
    <title>GIII BL167 AIRFOIL</title>
    <path 
      vector-effect="non-scaling-stroke"
      d="M1,-0.0002L0.9499,-0.0061L0.8998,-0.0119L0.8497,-0.0178L0.7996,-0.0236L0.7495,-0.0295L0.6994,-0.0352L0.6493,-0.0402L0.5992,-0.0446L0.5491,-0.0483L0.4991,-0.0511L0.449,-0.0526L0.399,-0.0531L0.349,-0.0529L0.2991,-0.052L0.2491,-0.05L0.1991,-0.0468L0.1492,-0.0419L0.0994,-0.0349L0.0744,-0.0303L0.0496,-0.0248L0.0247,-0.0175L0.0123,-0.0124L0.0073,-0.0096L0.0049,-0.0078L0,-0L0.0051,0.0057L0.0076,0.007L0.0127,0.0089L0.0252,0.012L0.0503,0.0152L0.0753,0.0171L0.1003,0.0186L0.1504,0.0208L0.2004,0.0227L0.2504,0.0244L0.3005,0.026L0.3505,0.0277L0.4005,0.0292L0.4505,0.0303L0.5005,0.0303L0.5505,0.0296L0.6005,0.028L0.6505,0.0256L0.7004,0.0226L0.7503,0.019L0.8003,0.0152L0.8502,0.0115L0.9001,0.0077L0.9501,0.0039L1,0.0002"
    />
</svg>
