
<svg 
  class="airfoil-giiik"
  fill="none"
  stroke="black" 
  stroke-width="1"
  style="overflow:visible"
  viewBox="0, -0.0569, 1, 0.085999995"
  xmlns="http://www.w3.org/2000/svg">
    <title>GIII BL369 AIRFOIL</title>
    <path 
      vector-effect="non-scaling-stroke"
      d="M1,-0.0002L0.95,-0.0062L0.9001,-0.0122L0.8501,-0.0182L0.8002,-0.0241L0.7502,-0.0296L0.7003,-0.0349L0.6503,-0.0399L0.6003,-0.0443L0.5503,-0.048L0.5004,-0.0511L0.4504,-0.0536L0.4004,-0.0557L0.3504,-0.0569L0.3004,-0.0569L0.2504,-0.0558L0.2004,-0.0534L0.1504,-0.0494L0.1003,-0.0432L0.0753,-0.0388L0.0502,-0.0332L0.0252,-0.0249L0.0126,-0.0185L0.0076,-0.0146L0.0051,-0.0122L0,-0L0.0049,0.0089L0.0074,0.0105L0.0124,0.0125L0.0249,0.0146L0.0499,0.0166L0.0749,0.0182L0.0999,0.0196L0.1498,0.022L0.1998,0.024L0.2498,0.0258L0.2998,0.0273L0.3498,0.0284L0.3998,0.0291L0.4498,0.0291L0.4998,0.0287L0.5498,0.0276L0.5998,0.026L0.6498,0.0238L0.6998,0.0209L0.7499,0.0175L0.7999,0.014L0.8499,0.0106L0.8999,0.0071L0.95,0.0036L1,0.0002"
    />
</svg>
