
<svg 
  class="airfoil-giiij"
  fill="none"
  stroke="black" 
  stroke-width="1"
  style="overflow:visible"
  viewBox="0, -0.0558, 1, 0.0858"
  xmlns="http://www.w3.org/2000/svg">
    <title>GIII BL332 AIRFOIL</title>
    <path 
      vector-effect="non-scaling-stroke"
      d="M1,-0.0002L0.95,-0.0062L0.9,-0.0123L0.85,-0.0183L0.8,-0.0244L0.75,-0.03L0.7,-0.0354L0.65,-0.0403L0.6,-0.0446L0.55,-0.0483L0.5,-0.0511L0.45,-0.0533L0.4,-0.055L0.35,-0.0558L0.3,-0.0555L0.25,-0.0542L0.2,-0.0516L0.15,-0.0473L0.1,-0.0409L0.075,-0.0364L0.05,-0.0309L0.025,-0.0229L0.0125,-0.0168L0.0075,-0.0133L0.005,-0.011L0,-0L0.005,0.008L0.0075,0.0095L0.0125,0.0114L0.025,0.0136L0.05,0.016L0.075,0.0179L0.1,0.0196L0.15,0.0223L0.2,0.0245L0.25,0.0263L0.3,0.0279L0.35,0.0291L0.4,0.0298L0.45,0.03L0.5,0.0295L0.55,0.0285L0.6,0.0268L0.65,0.0245L0.7,0.0215L0.75,0.018L0.8,0.0144L0.85,0.0109L0.9,0.0073L0.95,0.0037L1,0.0002"
    />
</svg>
