
<svg 
  class="airfoil-giiin"
  fill="none"
  stroke="black" 
  stroke-width="1"
  style="overflow:visible"
  viewBox="0, -0.0622, 1, 0.0863"
  xmlns="http://www.w3.org/2000/svg">
    <title>GIII BL450 AIRFOIL</title>
    <path 
      vector-effect="non-scaling-stroke"
      d="M1,-0.0002L0.9501,-0.0045L0.9003,-0.0088L0.8505,-0.0143L0.8007,-0.0202L0.7509,-0.0263L0.7011,-0.0321L0.6513,-0.0373L0.6014,-0.0423L0.5516,-0.0469L0.5017,-0.0512L0.4519,-0.0551L0.402,-0.0585L0.3521,-0.061L0.3021,-0.0622L0.2521,-0.0617L0.202,-0.06L0.1519,-0.0571L0.1018,-0.0516L0.0766,-0.0473L0.0514,-0.0412L0.0261,-0.0317L0.0133,-0.0237L0.0081,-0.019L0.0055,-0.0159L0,-0L0.0046,0.0119L0.007,0.014L0.0119,0.0165L0.0244,0.0187L0.0494,0.0174L0.0745,0.016L0.0995,0.0152L0.1494,0.0161L0.1994,0.0184L0.2493,0.0204L0.2993,0.0219L0.3492,0.0231L0.3992,0.0239L0.4492,0.0241L0.4992,0.0239L0.5492,0.0232L0.5993,0.0218L0.6493,0.0201L0.6994,0.0183L0.7495,0.0153L0.7996,0.0123L0.8497,0.0092L0.8998,0.0062L0.9499,0.0032L1,0.0002"
    />
</svg>
