
<svg 
  class="airfoil-giiic"
  fill="none"
  stroke="black" 
  stroke-width="1"
  style="overflow:visible"
  viewBox="0, -0.0585, 1, 0.1002"
  xmlns="http://www.w3.org/2000/svg">
    <title>GIII BL75 AIRFOIL</title>
    <path 
      vector-effect="non-scaling-stroke"
      d="M1,-0.0002L0.9498,-0.0054L0.8996,-0.0106L0.8493,-0.0163L0.7991,-0.0227L0.7488,-0.0295L0.6986,-0.0359L0.6483,-0.0416L0.5981,-0.0465L0.548,-0.0506L0.4978,-0.054L0.4477,-0.0566L0.3977,-0.0582L0.3477,-0.0585L0.2977,-0.0576L0.2478,-0.0559L0.1979,-0.0531L0.148,-0.0488L0.0983,-0.0417L0.0735,-0.0364L0.0488,-0.0294L0.0242,-0.02L0.012,-0.0135L0.0071,-0.0102L0.0047,-0.0082L0,-0L0.0053,0.0073L0.0079,0.009L0.013,0.0116L0.0256,0.0162L0.0509,0.0223L0.0761,0.0263L0.1012,0.0292L0.1513,0.0332L0.2014,0.0359L0.2515,0.0379L0.3016,0.0394L0.3516,0.0404L0.4016,0.0412L0.4517,0.0417L0.5016,0.0413L0.5516,0.04L0.6015,0.0378L0.6514,0.035L0.7013,0.0317L0.7511,0.0277L0.8009,0.0229L0.8507,0.0177L0.9005,0.0122L0.9502,0.0064L1,0.0002"
    />
</svg>
