
<svg 
  class="airfoil-giiih"
  fill="none"
  stroke="black" 
  stroke-width="1"
  style="overflow:visible"
  viewBox="0, -0.0534, 1, 0.0839"
  xmlns="http://www.w3.org/2000/svg">
    <title>GIII BL207 AIRFOIL</title>
    <path 
      vector-effect="non-scaling-stroke"
      d="M1,-0.0002L0.9499,-0.0061L0.8998,-0.012L0.8497,-0.0179L0.7996,-0.0238L0.7495,-0.0297L0.6995,-0.0353L0.6494,-0.0404L0.5993,-0.0447L0.5493,-0.0484L0.4992,-0.0511L0.4492,-0.0527L0.3992,-0.0534L0.3492,-0.0534L0.2992,-0.0526L0.2492,-0.0507L0.1993,-0.0476L0.1494,-0.0428L0.0995,-0.0359L0.0745,-0.0314L0.0496,-0.0258L0.0247,-0.0185L0.0123,-0.0132L0.0073,-0.0102L0.0049,-0.0084L0,-0L0.0051,0.0061L0.0076,0.0074L0.0126,0.0093L0.0252,0.0122L0.0502,0.015L0.0753,0.0171L0.1003,0.0187L0.1503,0.0213L0.2004,0.0233L0.2504,0.0251L0.3004,0.0267L0.3504,0.0283L0.4004,0.0298L0.4505,0.0305L0.5005,0.0304L0.5504,0.0295L0.6004,0.0279L0.6504,0.0255L0.7003,0.0225L0.7503,0.0189L0.8002,0.0151L0.8502,0.0114L0.9001,0.0076L0.9501,0.0039L1,0.0002"
    />
</svg>
