
<svg 
  class="airfoil-giiim"
  fill="none"
  stroke="black" 
  stroke-width="1"
  style="overflow:visible"
  viewBox="0, -0.0605, 1, 0.086500004"
  xmlns="http://www.w3.org/2000/svg">
    <title>GIII BL430 AIRFOIL</title>
    <path 
      vector-effect="non-scaling-stroke"
      d="M1,-0.0002L0.9501,-0.0054L0.9003,-0.0107L0.8504,-0.0161L0.8005,-0.0218L0.7507,-0.0276L0.7008,-0.0333L0.651,-0.0384L0.6011,-0.043L0.5512,-0.0472L0.5013,-0.051L0.4514,-0.0545L0.4015,-0.0576L0.3515,-0.0599L0.3015,-0.0605L0.2515,-0.0598L0.2015,-0.0579L0.1514,-0.0547L0.1012,-0.0489L0.0761,-0.0446L0.051,-0.0387L0.0257,-0.0296L0.0131,-0.0221L0.0079,-0.0177L0.0054,-0.0147L0,-0L0.0047,0.011L0.0072,0.0128L0.0121,0.0152L0.0246,0.0173L0.0496,0.0169L0.0746,0.0168L0.0996,0.0171L0.1495,0.0185L0.1995,0.0207L0.2494,0.0226L0.2994,0.0241L0.3494,0.0252L0.3993,0.0258L0.4493,0.026L0.4993,0.0256L0.5494,0.0248L0.5994,0.0233L0.6495,0.0214L0.6995,0.0192L0.7496,0.0161L0.7997,0.0129L0.8497,0.0097L0.8998,0.0065L0.9499,0.0033L1,0.0002"
    />
</svg>
