
<svg 
  class="airfoil-giiid"
  fill="none"
  stroke="black" 
  stroke-width="1"
  style="overflow:visible"
  viewBox="0, -0.0578, 1, 0.0979"
  xmlns="http://www.w3.org/2000/svg">
    <title>GIII BL86 AIRFOIL</title>
    <path 
      vector-effect="non-scaling-stroke"
      d="M1,-0.0002L0.9498,-0.0053L0.8996,-0.0105L0.8494,-0.0159L0.7992,-0.0223L0.7489,-0.0291L0.6987,-0.0356L0.6485,-0.0414L0.5983,-0.0463L0.5481,-0.0504L0.498,-0.0538L0.4479,-0.0563L0.3979,-0.0577L0.3479,-0.0578L0.2979,-0.0569L0.248,-0.0551L0.1981,-0.0523L0.1482,-0.0478L0.0985,-0.0407L0.0737,-0.0355L0.0489,-0.0287L0.0243,-0.0196L0.012,-0.0134L0.0071,-0.0101L0.0047,-0.0081L0,-0L0.0053,0.0071L0.0078,0.0087L0.0129,0.0112L0.0256,0.0157L0.0508,0.0215L0.0759,0.0254L0.101,0.0281L0.1512,0.0318L0.2013,0.0344L0.2513,0.0362L0.3014,0.0376L0.3514,0.0387L0.4015,0.0395L0.4515,0.0401L0.5015,0.0398L0.5514,0.0385L0.6013,0.0365L0.6512,0.0338L0.7011,0.0305L0.751,0.0265L0.8008,0.0218L0.8506,0.0168L0.9004,0.0115L0.9502,0.006L1,0.0002"
    />
</svg>
