
<svg 
  class="airfoil-giiie"
  fill="none"
  stroke="black" 
  stroke-width="1"
  style="overflow:visible"
  viewBox="0, -0.0549, 1, 0.0885"
  xmlns="http://www.w3.org/2000/svg">
    <title>GIII BL126 AIRFOIL</title>
    <path 
      vector-effect="non-scaling-stroke"
      d="M1,-0.0002L0.9498,-0.0058L0.8997,-0.0113L0.8496,-0.0169L0.7994,-0.0225L0.7493,-0.0286L0.6991,-0.035L0.649,-0.0406L0.5988,-0.0453L0.5487,-0.0492L0.4987,-0.0523L0.4486,-0.0542L0.3986,-0.0549L0.3486,-0.0546L0.2986,-0.0536L0.2487,-0.0517L0.1988,-0.0486L0.1489,-0.0438L0.0991,-0.0366L0.0742,-0.0318L0.0493,-0.0259L0.0245,-0.018L0.0122,-0.0125L0.0073,-0.0096L0.0048,-0.0078L0,-0L0.0052,0.0061L0.0077,0.0075L0.0127,0.0097L0.0253,0.0135L0.0505,0.0181L0.0755,0.0207L0.1006,0.0225L0.1506,0.025L0.2007,0.0269L0.2507,0.0285L0.3008,0.03L0.3508,0.0313L0.4008,0.0326L0.4509,0.0336L0.5009,0.0336L0.5508,0.0327L0.6008,0.031L0.6507,0.0286L0.7007,0.0255L0.7506,0.0217L0.8004,0.0175L0.8503,0.0133L0.9002,0.009L0.9501,0.0046L1,0.0002"
    />
</svg>
