
<svg 
  class="airfoil-giiib"
  fill="none"
  stroke="black" 
  stroke-width="1"
  style="overflow:visible"
  viewBox="0, -0.0598, 1, 0.1056"
  xmlns="http://www.w3.org/2000/svg">
    <title>GIII BL45 AIRFOIL</title>
    <path 
      vector-effect="non-scaling-stroke"
      d="M1,-0.0002L0.9497,-0.0062L0.8994,-0.0121L0.8491,-0.0182L0.7988,-0.0246L0.7485,-0.0311L0.6983,-0.0369L0.648,-0.0422L0.5978,-0.0468L0.5476,-0.0509L0.4974,-0.0544L0.4473,-0.0572L0.3972,-0.059L0.3472,-0.0598L0.2972,-0.0593L0.2473,-0.0577L0.1974,-0.0551L0.1476,-0.0511L0.0979,-0.0443L0.0732,-0.0387L0.0485,-0.0311L0.024,-0.0209L0.0118,-0.014L0.007,-0.0104L0.0046,-0.0083L0,-0L0.0054,0.0078L0.008,0.0096L0.0131,0.0124L0.0258,0.0173L0.0511,0.0239L0.0763,0.0284L0.1015,0.0317L0.1517,0.0362L0.2019,0.0393L0.252,0.0417L0.302,0.0434L0.3521,0.0447L0.4021,0.0455L0.4522,0.0458L0.5021,0.0452L0.5521,0.0436L0.6019,0.0413L0.6518,0.0383L0.7016,0.0347L0.7514,0.0305L0.8012,0.0257L0.8509,0.0201L0.9007,0.014L0.9503,0.0074L1,0.0002"
    />
</svg>
