
<svg 
  class="airfoil-giiii"
  fill="none"
  stroke="black" 
  stroke-width="1"
  style="overflow:visible"
  viewBox="0, -0.0547, 1, 0.0852"
  xmlns="http://www.w3.org/2000/svg">
    <title>GIII BL288 AIRFOIL</title>
    <path 
      vector-effect="non-scaling-stroke"
      d="M1,-0.0002L0.95,-0.0062L0.8999,-0.0122L0.8499,-0.0182L0.7998,-0.0243L0.7498,-0.0301L0.6998,-0.0356L0.6497,-0.0404L0.5997,-0.0448L0.5497,-0.0484L0.4997,-0.0511L0.4497,-0.053L0.3996,-0.0544L0.3496,-0.0547L0.2996,-0.0542L0.2497,-0.0527L0.1997,-0.0498L0.1497,-0.0454L0.0997,-0.0387L0.0748,-0.0342L0.0498,-0.0287L0.0249,-0.021L0.0124,-0.0153L0.0074,-0.012L0.0049,-0.0099L0,-0L0.005,0.0072L0.0076,0.0086L0.0126,0.0105L0.0251,0.0129L0.0501,0.0153L0.0751,0.0174L0.1001,0.0192L0.1501,0.022L0.2002,0.0243L0.2502,0.0262L0.3002,0.0278L0.3502,0.0293L0.4002,0.0302L0.4502,0.0305L0.5002,0.0301L0.5502,0.029L0.6002,0.0274L0.6502,0.025L0.7001,0.0221L0.7501,0.0184L0.8001,0.0148L0.8501,0.0111L0.9,0.0075L0.95,0.0038L1,0.0002"
    />
</svg>
