
<svg 
  class="airfoil-giiif"
  fill="none"
  stroke="black" 
  stroke-width="1"
  style="overflow:visible"
  viewBox="0, -0.053, 1, 0.0833"
  xmlns="http://www.w3.org/2000/svg">
    <title>GIII BL145 AIRFOIL</title>
    <path 
      vector-effect="non-scaling-stroke"
      d="M1,-0.0002L0.9499,-0.006L0.8998,-0.0118L0.8496,-0.0177L0.7995,-0.0235L0.7494,-0.0293L0.6993,-0.035L0.6492,-0.0402L0.5991,-0.0445L0.5491,-0.0482L0.499,-0.051L0.449,-0.0526L0.399,-0.053L0.349,-0.0527L0.299,-0.0517L0.249,-0.0497L0.1991,-0.0464L0.1492,-0.0415L0.0993,-0.0344L0.0744,-0.0298L0.0495,-0.0243L0.0247,-0.017L0.0123,-0.012L0.0073,-0.0092L0.0049,-0.0075L0,-0L0.0051,0.0055L0.0076,0.0068L0.0127,0.0087L0.0252,0.0119L0.0503,0.0154L0.0753,0.0172L0.1004,0.0185L0.1504,0.0205L0.2004,0.0224L0.2505,0.0241L0.3005,0.0257L0.3505,0.0273L0.4006,0.0289L0.4506,0.0301L0.5006,0.0303L0.5506,0.0296L0.6005,0.0281L0.6505,0.0257L0.7004,0.0227L0.7504,0.0191L0.8003,0.0153L0.8502,0.0115L0.9001,0.0077L0.9501,0.004L1,0.0002"
    />
</svg>
