
<svg 
  class="airfoil-giiil"
  fill="none"
  stroke="black" 
  stroke-width="1"
  style="overflow:visible"
  viewBox="0, -0.0578, 1, 0.0863"
  xmlns="http://www.w3.org/2000/svg">
    <title>GIII BL387 AIRFOIL</title>
    <path 
      vector-effect="non-scaling-stroke"
      d="M1,-0.0002L0.9501,-0.0061L0.9001,-0.012L0.8502,-0.0179L0.8003,-0.0237L0.7503,-0.0293L0.7004,-0.0346L0.6505,-0.0396L0.6005,-0.044L0.5506,-0.0478L0.5006,-0.051L0.4506,-0.0538L0.4007,-0.0561L0.3507,-0.0577L0.3007,-0.0578L0.2507,-0.0568L0.2006,-0.0545L0.1506,-0.0507L0.1005,-0.0446L0.0755,-0.0403L0.0504,-0.0346L0.0253,-0.0261L0.0127,-0.0194L0.0077,-0.0154L0.0051,-0.0128L0,-0L0.0049,0.0094L0.0074,0.0111L0.0123,0.0131L0.0248,0.0152L0.0498,0.0167L0.0748,0.018L0.0998,0.0192L0.1498,0.0213L0.1997,0.0234L0.2497,0.0252L0.2997,0.0267L0.3497,0.0278L0.3997,0.0284L0.4497,0.0285L0.4997,0.028L0.5497,0.027L0.5997,0.0254L0.6497,0.0232L0.6998,0.0204L0.7498,0.0172L0.7998,0.0138L0.8499,0.0104L0.8999,0.007L0.95,0.0036L1,0.0002"
    />
</svg>
