
<svg 
  class="airfoil-giiia"
  fill="none"
  stroke="black" 
  stroke-width="1"
  style="overflow:visible"
  viewBox="0, -0.0609, 1, 0.112"
  xmlns="http://www.w3.org/2000/svg">
    <title>GIII BL0 AIRFOIL</title>
    <path 
      vector-effect="non-scaling-stroke"
      d="M1,-0.0002L0.9496,-0.0068L0.8992,-0.0135L0.8488,-0.0202L0.7985,-0.0268L0.7481,-0.0332L0.6978,-0.0384L0.6476,-0.0429L0.5973,-0.047L0.5471,-0.0508L0.4969,-0.0543L0.4468,-0.0572L0.3966,-0.0595L0.3466,-0.0606L0.2965,-0.0609L0.2466,-0.0596L0.1967,-0.0574L0.1469,-0.0539L0.0973,-0.0477L0.0726,-0.0417L0.0481,-0.0332L0.0238,-0.0219L0.0117,-0.0145L0.0069,-0.0107L0.0045,-0.0085L0,-0L0.0055,0.0084L0.0081,0.0104L0.0133,0.0133L0.0261,0.0187L0.0515,0.0258L0.0767,0.0307L0.102,0.0344L0.1522,0.0396L0.2024,0.043L0.2526,0.0457L0.3027,0.0478L0.3528,0.0495L0.4029,0.0507L0.4529,0.0511L0.5028,0.0503L0.5527,0.0484L0.6026,0.0457L0.6524,0.0424L0.7022,0.0385L0.7519,0.0342L0.8017,0.0293L0.8513,0.0234L0.9009,0.0166L0.9505,0.009L1,0.0002"
    />
</svg>
