
<svg 
  class="airfoil-glennmartin3"
  fill="none"
  stroke="black" 
  stroke-width="1"
  style="overflow:visible"
  viewBox="0, -0.1378, 1, 0.1378"
  xmlns="http://www.w3.org/2000/svg">
    <title>Glenn Martin 3</title>
    <path 
      vector-effect="non-scaling-stroke"
      d="M1,-0.0191L0.95,-0.0475L0.9,-0.0646L0.8,-0.0889L0.7,-0.1084L0.6,-0.1216L0.5,-0.1309L0.4,-0.1356L0.3,-0.1378L0.2,-0.1331L0.15,-0.127L0.1,-0.1149L0.075,-0.1045L0.05,-0.0905L0.025,-0.0705L0.0125,-0.0568L0,-0.0245L0.0125,-0.014L0.025,-0.0105L0.05,-0.0067L0.075,-0.0045L0.1,-0.0023L0.15,-0.0015L0.2,-0.0013L0.3,-0.0001L0.4,-0L0.5,-0.0006L0.6,-0L0.7,-0L0.8,-0.0006L0.9,-0.0027L0.95,-0.005L1,-0.0191"
    />
</svg>
