
<svg 
  class="airfoil-glennmartin4"
  fill="none"
  stroke="black" 
  stroke-width="1"
  style="overflow:visible"
  viewBox="0, -0.1542, 1, 0.1549"
  xmlns="http://www.w3.org/2000/svg">
    <title>Glenn Martin 4</title>
    <path 
      vector-effect="non-scaling-stroke"
      d="M1,-0.014L0.95,-0.0558L0.9,-0.0752L0.8,-0.0993L0.7,-0.118L0.6,-0.1322L0.5,-0.1439L0.4,-0.1525L0.3,-0.1542L0.2,-0.146L0.15,-0.134L0.1,-0.1144L0.075,-0.1L0.05,-0.0798L0.025,-0.0581L0.0125,-0.045L0,-0.0185L0.0125,-0.0085L0.025,-0.0051L0.05,-0.0013L0.075,-0.001L0.1,-0.0001L0.15,-0L0.2,0.0001L0.3,0.0007L0.4,-0.0001L0.5,-0.0006L0.6,-0.0013L0.7,-0.0043L0.8,-0.0061L0.9,-0.0092L0.95,-0.0098L1,-0.014"
    />
</svg>
