
<svg 
  class="airfoil-glennmartin2"
  fill="none"
  stroke="black" 
  stroke-width="1"
  style="overflow:visible"
  viewBox="0, -0.1423, 1, 0.1423"
  xmlns="http://www.w3.org/2000/svg">
    <title>Glenn Martin 2</title>
    <path 
      vector-effect="non-scaling-stroke"
      d="M1,-0.0082L0.95,-0.0265L0.9,-0.0423L0.8,-0.0709L0.7,-0.0947L0.6,-0.1128L0.5,-0.1289L0.4,-0.1377L0.3,-0.1423L0.2,-0.1383L0.15,-0.128L0.1,-0.1116L0.075,-0.0995L0.05,-0.0829L0.025,-0.0597L0.0125,-0.044L0,-0.0193L0.0125,-0.0083L0.025,-0.0043L0.05,-0.0006L0.075,-0L0.1,-0L0.15,-0.0005L0.2,-0.0036L0.3,-0.011L0.4,-0.0114L0.5,-0.0092L0.6,-0.0035L0.7,-0.0007L0.8,-0L0.9,-0.0017L0.95,-0.0035L1,-0.0082"
    />
</svg>
