
<svg 
  class="airfoil-gm15sm"
  fill="none"
  stroke="black" 
  stroke-width="1"
  style="overflow:visible"
  viewBox="0, -0.0735, 1, 0.0856"
  xmlns="http://www.w3.org/2000/svg">
    <title>GM15 (smoothed)</title>
    <path 
      vector-effect="non-scaling-stroke"
      d="M1,-0.0001L0.9975,-0.0011L0.9907,-0.0036L0.9804,-0.0062L0.967,-0.0087L0.9504,-0.0115L0.9306,-0.0152L0.9078,-0.0197L0.882,-0.0247L0.8537,-0.03L0.8231,-0.0352L0.7905,-0.0403L0.7562,-0.0451L0.7204,-0.0496L0.6836,-0.0539L0.6459,-0.0578L0.6078,-0.0614L0.5694,-0.0647L0.531,-0.0675L0.4927,-0.0699L0.4543,-0.0717L0.4164,-0.0729L0.3789,-0.0735L0.342,-0.0734L0.3061,-0.0725L0.2712,-0.071L0.2376,-0.0687L0.2055,-0.0656L0.175,-0.0618L0.1465,-0.0573L0.12,-0.0521L0.0958,-0.0463L0.074,-0.04L0.0547,-0.0335L0.0381,-0.027L0.0243,-0.0205L0.0134,-0.0143L0.0055,-0.0085L0.001,-0.0032L0,0.0002L0.001,0.0031L0.0055,0.0063L0.0134,0.0087L0.0243,0.0104L0.0381,0.0115L0.0547,0.0121L0.074,0.0121L0.0958,0.0114L0.12,0.01L0.1465,0.0078L0.175,0.0051L0.2055,0.0018L0.2376,-0.0019L0.2712,-0.0059L0.3061,-0.0099L0.342,-0.0138L0.3789,-0.0174L0.4164,-0.0206L0.4543,-0.0232L0.4927,-0.0253L0.531,-0.0266L0.5694,-0.0273L0.6078,-0.0274L0.6459,-0.0269L0.6836,-0.0259L0.7204,-0.0246L0.7562,-0.0229L0.7905,-0.0209L0.8231,-0.0186L0.8537,-0.016L0.882,-0.0132L0.9078,-0.0103L0.9306,-0.0077L0.9504,-0.0053L0.967,-0.0033L0.9804,-0.0018L0.9907,-0.0008L0.9975,-0.0002L1,0"
    />
</svg>
