
<svg 
  class="airfoil-goe05k"
  fill="none"
  stroke="black" 
  stroke-width="1"
  style="overflow:visible"
  viewBox="0, -0.0338, 1, 0.038399998"
  xmlns="http://www.w3.org/2000/svg">
    <title>GOE 5K AIRFOIL</title>
    <path 
      vector-effect="non-scaling-stroke"
      d="M1,-0L0.95,-0.0081L0.9,-0.0139L0.8,-0.0231L0.7,-0.0294L0.6,-0.033L0.5,-0.0338L0.4,-0.0329L0.3,-0.03L0.2,-0.025L0.15,-0.0216L0.1,-0.0173L0.075,-0.0146L0.05,-0.0116L0.025,-0.0078L0,-0L0.025,0.0035L0.05,0.0039L0.075,0.0042L0.1,0.0043L0.15,0.0046L0.2,0.0044L0.3,0.004L0.4,0.0036L0.5,0.0032L0.6,0.0027L0.7,0.0023L0.8,0.0019L0.9,0.0014L0.95,0.0012L1,-0"
    />
</svg>
