
<svg 
  class="airfoil-goe06k"
  fill="none"
  stroke="black" 
  stroke-width="1"
  style="overflow:visible"
  viewBox="0, -0.0685, 1, 0.0778"
  xmlns="http://www.w3.org/2000/svg">
    <title>GOE 6K AIRFOIL</title>
    <path 
      vector-effect="non-scaling-stroke"
      d="M1,-0L0.95,-0.0163L0.9,-0.0279L0.8,-0.0468L0.7,-0.0594L0.6,-0.0669L0.5,-0.0685L0.4,-0.0665L0.3,-0.0608L0.2,-0.0506L0.15,-0.0437L0.1,-0.035L0.075,-0.0295L0.05,-0.0234L0.025,-0.0157L0,-0L0.025,0.0071L0.05,0.008L0.075,0.0086L0.1,0.0088L0.15,0.0093L0.2,0.0091L0.3,0.0082L0.4,0.0074L0.5,0.0065L0.6,0.0056L0.7,0.0048L0.8,0.0039L0.9,0.0031L0.95,0.0026L1,-0"
    />
</svg>
