
<svg 
  class="airfoil-goe07k"
  fill="none"
  stroke="black" 
  stroke-width="1"
  style="overflow:visible"
  viewBox="0, -0.1005, 1, 0.1141"
  xmlns="http://www.w3.org/2000/svg">
    <title>GOE 7K AIRFOIL</title>
    <path 
      vector-effect="non-scaling-stroke"
      d="M1,-0L0.95,-0.0238L0.9,-0.041L0.8,-0.0686L0.7,-0.0872L0.6,-0.098L0.5,-0.1005L0.4,-0.0975L0.3,-0.0891L0.2,-0.0741L0.15,-0.0642L0.1,-0.0514L0.075,-0.0433L0.05,-0.0344L0.025,-0.0231L0,-0L0.025,0.0103L0.05,0.0117L0.075,0.0125L0.1,0.013L0.15,0.0136L0.2,0.0133L0.3,0.0121L0.4,0.0108L0.5,0.0095L0.6,0.0083L0.7,0.0071L0.8,0.0058L0.9,0.0046L0.95,0.0039L1,-0"
    />
</svg>
