
<svg 
  class="airfoil-goe190"
  fill="none"
  stroke="black" 
  stroke-width="1"
  style="overflow:visible"
  viewBox="0, -0.1076, 1, 0.13700001"
  xmlns="http://www.w3.org/2000/svg">
    <title>GOE 190 (MVA MK.18) AIRFOIL</title>
    <path 
      vector-effect="non-scaling-stroke"
      d="M1,-0L0.9494,-0.0162L0.8989,-0.0318L0.7981,-0.0539L0.6975,-0.0711L0.5969,-0.0872L0.4965,-0.0984L0.3962,-0.1068L0.2962,-0.1076L0.1965,-0.0987L0.1469,-0.0888L0.0974,-0.0745L0.0685,-0.0628L0.0481,-0.0526L0.0237,-0.0364L0.0116,-0.0251L0,-0L0.013,0.0134L0.0256,0.0182L0.0508,0.0225L0.0759,0.0254L0.101,0.0279L0.151,0.0294L0.201,0.0276L0.3005,0.0141L0.3998,-0.0045L0.4993,-0.0205L0.5991,-0.0268L0.6991,-0.0254L0.7993,-0.0201L0.8996,-0.0107L0.9499,-0.0036L1,-0"
    />
</svg>
