
<svg 
  class="airfoil-goe142"
  fill="none"
  stroke="black" 
  stroke-width="1"
  style="overflow:visible"
  viewBox="0, -0.0688, 1, 0.078200005"
  xmlns="http://www.w3.org/2000/svg">
    <title>GOE 142 (MVA H.19) AIRFOIL</title>
    <path 
      vector-effect="non-scaling-stroke"
      d="M1,-0.001L0.99,-0.0026L0.98,-0.0042L0.97,-0.0058L0.9499,-0.0089L0.9249,-0.0129L0.8999,-0.0167L0.8748,-0.0205L0.8498,-0.0241L0.8248,-0.0277L0.7997,-0.0311L0.7747,-0.0344L0.7497,-0.0376L0.7246,-0.0406L0.6996,-0.0435L0.6746,-0.0463L0.6496,-0.049L0.5995,-0.0538L0.5495,-0.0581L0.4994,-0.0618L0.4494,-0.0648L0.3994,-0.0671L0.3494,-0.0685L0.2994,-0.0688L0.2744,-0.0684L0.2494,-0.0677L0.2244,-0.0666L0.1994,-0.065L0.1744,-0.0627L0.1495,-0.0598L0.1245,-0.0559L0.0995,-0.0509L0.0746,-0.0443L0.0497,-0.0357L0.0347,-0.0291L0.0248,-0.0239L0.0198,-0.021L0.0148,-0.0177L0.0124,-0.0159L0.0099,-0.0139L0.0074,-0.0118L0.0049,-0.0094L0.0039,-0.0082L0.0029,-0.007L0.0024,-0.0063L0.0019,-0.0056L0.0015,-0.0048L0.001,-0.0038L0.0005,-0.0026L0,-0L0.0005,0.0024L0.001,0.0032L0.0015,0.0039L0.002,0.0044L0.0025,0.0048L0.003,0.0052L0.0041,0.0058L0.0051,0.0063L0.0076,0.0073L0.0101,0.008L0.0126,0.0084L0.0151,0.0088L0.0201,0.0092L0.0251,0.0094L0.0351,0.0092L0.0501,0.0083L0.0751,0.0061L0.1,0.0037L0.125,0.0014L0.15,-0.0006L0.175,-0.0023L0.2,-0.0038L0.225,-0.0051L0.2499,-0.0061L0.2749,-0.007L0.2999,-0.0077L0.3499,-0.0085L0.3999,-0.0089L0.4499,-0.0089L0.4999,-0.0086L0.5499,-0.0082L0.5999,-0.0076L0.6499,-0.0069L0.6749,-0.0065L0.6999,-0.0061L0.725,-0.0056L0.75,-0.0051L0.775,-0.0046L0.8,-0.004L0.825,-0.0034L0.85,-0.0029L0.875,-0.0022L0.9,-0.0016L0.925,-0.001L0.95,-0.0003L0.97,0.0002L0.98,0.0005L0.99,0.0007L1,0.001"
    />
</svg>
