
<svg 
  class="airfoil-goe15"
  fill="none"
  stroke="black" 
  stroke-width="1"
  style="overflow:visible"
  viewBox="0, -0.1226, 1, 0.1375"
  xmlns="http://www.w3.org/2000/svg">
    <title>GOE 15 AIRFOIL</title>
    <path 
      vector-effect="non-scaling-stroke"
      d="M1,-0L0.9498,-0.0142L0.8996,-0.027L0.7992,-0.0519L0.6989,-0.0734L0.5986,-0.0939L0.4983,-0.109L0.3982,-0.1183L0.2981,-0.1226L0.1982,-0.1144L0.1484,-0.104L0.0987,-0.0882L0.0738,-0.0768L0.049,-0.0622L0.0244,-0.0418L0.0121,-0.0274L0,-0L0.0127,0.0136L0.0252,0.0149L0.0501,0.005L0.0749,-0.0049L0.0998,-0.0127L0.1496,-0.023L0.1996,-0.0278L0.2995,-0.0326L0.3995,-0.0308L0.4996,-0.0273L0.5997,-0.0206L0.6998,-0.0121L0.7999,-0.0062L0.9,-0.0015L0.95,-0.0005L1,-0"
    />
</svg>
