
<svg 
  class="airfoil-goe122"
  fill="none"
  stroke="black" 
  stroke-width="1"
  style="overflow:visible"
  viewBox="0, -0.0771, 1, 0.0847"
  xmlns="http://www.w3.org/2000/svg">
    <title>GOE 122 (MVA H.2) AIRFOIL</title>
    <path 
      vector-effect="non-scaling-stroke"
      d="M1,-0.0012L0.9499,-0.0083L0.8999,-0.0152L0.7998,-0.0307L0.6997,-0.0449L0.5996,-0.057L0.4996,-0.0673L0.3995,-0.0739L0.2995,-0.0771L0.1995,-0.0726L0.1496,-0.0657L0.0996,-0.0559L0.0747,-0.0481L0.0498,-0.0379L0.0248,-0.0257L0.0124,-0.0184L0,-0L0.0126,0.0076L0.025,0.0075L0.05,0.0068L0.075,0.0055L0.1,0.0043L0.15,0.0023L0.2,0.0003L0.3,-0.0041L0.4,-0.006L0.5,-0.0066L0.6,-0.0056L0.7,-0.0034L0.8,-0.0016L0.9,0.0002L0.95,0.001L1,0.0012"
    />
</svg>
