
<svg 
  class="airfoil-goe173"
  fill="none"
  stroke="black" 
  stroke-width="1"
  style="overflow:visible"
  viewBox="0, -0.0965, 1, 0.101900004"
  xmlns="http://www.w3.org/2000/svg">
    <title>GOE 173 (ALBATROS 6020) AIRFOIL</title>
    <path 
      vector-effect="non-scaling-stroke"
      d="M1,-0.0009L0.9499,-0.014L0.8999,-0.0248L0.7998,-0.043L0.6997,-0.0599L0.5997,-0.0756L0.4996,-0.0878L0.3996,-0.0953L0.2996,-0.0965L0.1996,-0.0915L0.1496,-0.0837L0.0997,-0.069L0.0747,-0.0593L0.0498,-0.0472L0.0249,-0.0311L0.0124,-0.0196L0,-0L0.0125,0.0054L0.025,0.0044L0.05,0.002L0.075,-0.0008L0.1,-0.0037L0.15,-0.0092L0.1999,-0.0139L0.2999,-0.0199L0.3999,-0.0228L0.4999,-0.023L0.5999,-0.0206L0.6999,-0.0167L0.8,-0.0116L0.9,-0.0056L0.95,-0.0029L1,0.0009"
    />
</svg>
