
<svg 
  class="airfoil-goe198"
  fill="none"
  stroke="black" 
  stroke-width="1"
  style="overflow:visible"
  viewBox="0, -0.1029, 1, 0.1165"
  xmlns="http://www.w3.org/2000/svg">
    <title>GOE 198 (L.F.G. 5294) AIRFOIL</title>
    <path 
      vector-effect="non-scaling-stroke"
      d="M1,-0.0043L0.9499,-0.0164L0.8997,-0.0275L0.7995,-0.0519L0.6993,-0.0726L0.5992,-0.0875L0.4991,-0.097L0.399,-0.1029L0.2991,-0.101L0.1991,-0.0927L0.1492,-0.0827L0.0994,-0.0682L0.0745,-0.0582L0.0496,-0.0459L0.0247,-0.0329L0.0123,-0.0223L0,-0L0.0126,0.0136L0.0251,0.0135L0.0501,0.0095L0.075,0.0035L0.1,-0.0012L0.1499,-0.0088L0.1999,-0.0151L0.2998,-0.0245L0.3997,-0.0276L0.4997,-0.0274L0.5998,-0.0237L0.6998,-0.0179L0.7999,-0.0108L0.9,-0.0038L0.95,-0.0003L1,0.0043"
    />
</svg>
