
<svg 
  class="airfoil-goe165"
  fill="none"
  stroke="black" 
  stroke-width="1"
  style="overflow:visible"
  viewBox="0, -0.1029, 1, 0.127"
  xmlns="http://www.w3.org/2000/svg">
    <title>GOE 165 (MVA MK.11) AIRFOIL</title>
    <path 
      vector-effect="non-scaling-stroke"
      d="M1,-0.0006L0.9495,-0.0189L0.8991,-0.0313L0.7985,-0.0517L0.6981,-0.0678L0.5977,-0.0825L0.4973,-0.0952L0.3971,-0.1011L0.2971,-0.1029L0.1972,-0.0977L0.1475,-0.0882L0.0979,-0.0729L0.0732,-0.0629L0.0487,-0.0477L0.0241,-0.0325L0.012,-0.0194L0,-0L0.0127,0.0066L0.0253,0.0109L0.0504,0.0149L0.0755,0.0193L0.1006,0.0209L0.1507,0.0241L0.2007,0.0233L0.3004,0.0147L0.3999,-0.0033L0.4994,-0.02L0.5992,-0.0274L0.6992,-0.0268L0.7994,-0.0215L0.8996,-0.0127L0.9498,-0.0061L1,0.0006"
    />
</svg>
