
<svg 
  class="airfoil-goe124"
  fill="none"
  stroke="black" 
  stroke-width="1"
  style="overflow:visible"
  viewBox="0, -0.0932, 1, 0.1041"
  xmlns="http://www.w3.org/2000/svg">
    <title>GOE 124 (MVA H.4) AIRFOIL</title>
    <path 
      vector-effect="non-scaling-stroke"
      d="M1,-0.0025L0.9499,-0.0119L0.8998,-0.0214L0.7997,-0.0404L0.6995,-0.0582L0.5994,-0.0738L0.4993,-0.0861L0.3992,-0.093L0.2992,-0.0932L0.1993,-0.0856L0.1494,-0.076L0.0995,-0.063L0.0745,-0.0551L0.0496,-0.045L0.0247,-0.031L0.0123,-0.0211L0,-0L0.0126,0.0109L0.0251,0.0108L0.0501,0.0073L0.075,0.0047L0.1,0.0022L0.15,-0.0024L0.1999,-0.0072L0.2999,-0.0141L0.3999,-0.0182L0.4998,-0.0196L0.5998,-0.0172L0.6999,-0.0142L0.7999,-0.0101L0.9,-0.0049L0.95,-0.002L1,0.0025"
    />
</svg>
