
<svg 
  class="airfoil-goe184"
  fill="none"
  stroke="black" 
  stroke-width="1"
  style="overflow:visible"
  viewBox="0, -0.0917, 1, 0.1056"
  xmlns="http://www.w3.org/2000/svg">
    <title>GOE 184 (MVA H.29) AIRFOIL</title>
    <path 
      vector-effect="non-scaling-stroke"
      d="M1,-0.0011L0.9498,-0.0111L0.8997,-0.0209L0.7994,-0.0391L0.6992,-0.0555L0.599,-0.0706L0.4988,-0.0815L0.3987,-0.0898L0.2987,-0.0917L0.1988,-0.0852L0.1489,-0.0761L0.0991,-0.0641L0.0742,-0.0554L0.0493,-0.0449L0.0246,-0.0295L0.0122,-0.0203L0,-0L0.0126,0.0099L0.0251,0.0117L0.0502,0.0139L0.0752,0.0112L0.1001,0.0086L0.15,0.0029L0.2,-0.0023L0.2998,-0.0111L0.3998,-0.0159L0.4998,-0.0162L0.5998,-0.0144L0.6998,-0.0113L0.7999,-0.0072L0.9,-0.0036L0.95,-0.0016L1,0.0011"
    />
</svg>
