
<svg 
  class="airfoil-goe164"
  fill="none"
  stroke="black" 
  stroke-width="1"
  style="overflow:visible"
  viewBox="0, -0.102, 1, 0.1123"
  xmlns="http://www.w3.org/2000/svg">
    <title>GOE 164 (MVA MK.10) AIRFOIL</title>
    <path 
      vector-effect="non-scaling-stroke"
      d="M1,-0.0005L0.9498,-0.0177L0.8997,-0.0316L0.7995,-0.0515L0.6993,-0.0687L0.5991,-0.0837L0.499,-0.0948L0.3989,-0.1015L0.2989,-0.102L0.199,-0.0955L0.1491,-0.0862L0.0992,-0.0729L0.0743,-0.0616L0.0495,-0.0502L0.0247,-0.0334L0.0123,-0.0222L0,-0L0.0126,0.0066L0.0251,0.0086L0.0501,0.01L0.0751,0.0103L0.1001,0.0089L0.15,0.002L0.1999,-0.007L0.3,-0.0212L0.3997,-0.0313L0.4996,-0.034L0.5997,-0.0336L0.6997,-0.0289L0.7998,-0.0194L0.8999,-0.0095L0.9499,-0.005L1,0.0005"
    />
</svg>
