
<svg 
  class="airfoil-goe155"
  fill="none"
  stroke="black" 
  stroke-width="1"
  style="overflow:visible"
  viewBox="0, -0.087, 1, 0.095199995"
  xmlns="http://www.w3.org/2000/svg">
    <title>GOE 155 (SSW D.1) AIRFOIL</title>
    <path 
      vector-effect="non-scaling-stroke"
      d="M1,-0.002L0.9499,-0.0096L0.8999,-0.0193L0.7998,-0.0387L0.6996,-0.0563L0.5996,-0.0715L0.4995,-0.0816L0.3995,-0.0865L0.2995,-0.087L0.1995,-0.0797L0.1495,-0.0722L0.0996,-0.0586L0.0747,-0.0491L0.0498,-0.0384L0.0248,-0.0251L0.0124,-0.0172L0,-0L0.0126,0.0082L0.025,0.0075L0.05,0.0058L0.075,0.0023L0.1,-0L0.15,-0.0064L0.1999,-0.0118L0.2999,-0.0168L0.3999,-0.0191L0.4999,-0.0192L0.5999,-0.0176L0.6999,-0.0127L0.8,-0.0078L0.9,-0.0002L0.95,0.0012L1,0.002"
    />
</svg>
