
<svg 
  class="airfoil-goe180"
  fill="none"
  stroke="black" 
  stroke-width="1"
  style="overflow:visible"
  viewBox="0, -0.0874, 1, 0.0998"
  xmlns="http://www.w3.org/2000/svg">
    <title>GOE 180 (MVA H.26) AIRFOIL</title>
    <path 
      vector-effect="non-scaling-stroke"
      d="M1,-0.0025L0.95,-0.0147L0.9,-0.0237L0.8,-0.0412L0.7,-0.0561L0.6,-0.0681L0.5,-0.0778L0.4,-0.0852L0.3,-0.0874L0.2,-0.0801L0.15,-0.0734L0.1,-0.062L0.075,-0.0545L0.05,-0.0437L0.025,-0.0293L0.0125,-0.02L0,-0L0.0125,0.0098L0.025,0.0113L0.05,0.0124L0.075,0.0115L0.1,0.0102L0.15,0.0074L0.2,0.0044L0.3,-0.0007L0.4,-0.0037L0.5,-0.005L0.6,-0.0058L0.7,-0.0054L0.8,-0.0044L0.9,-0.0029L0.95,-0.0014L1,-0"
    />
</svg>
