
<svg 
  class="airfoil-goe177"
  fill="none"
  stroke="black" 
  stroke-width="1"
  style="overflow:visible"
  viewBox="0, -0.0867, 1, 0.095300004"
  xmlns="http://www.w3.org/2000/svg">
    <title>GOE 177 AIRFOIL</title>
    <path 
      vector-effect="non-scaling-stroke"
      d="M1,-0.002L0.95,-0.0115L0.9,-0.0211L0.8,-0.0372L0.7,-0.0513L0.6,-0.0644L0.5,-0.0755L0.4,-0.0836L0.3,-0.0867L0.2,-0.0818L0.15,-0.0733L0.1,-0.0599L0.075,-0.0517L0.05,-0.0395L0.025,-0.0267L0.0125,-0.0151L0,-0L0.0125,0.0059L0.025,0.0078L0.05,0.0086L0.075,0.0063L0.1,0.0041L0.15,-0.0003L0.2,-0.0048L0.3,-0.0127L0.4,-0.0176L0.5,-0.0175L0.6,-0.0154L0.7,-0.0123L0.8,-0.0082L0.9,-0.0041L0.95,-0.0026L1,-0"
    />
</svg>
