
<svg 
  class="airfoil-goe100"
  fill="none"
  stroke="black" 
  stroke-width="1"
  style="overflow:visible"
  viewBox="0, -0.068, 1, 0.0772"
  xmlns="http://www.w3.org/2000/svg">
    <title>GOE 100 (SOPWITH) AIRFOIL</title>
    <path 
      vector-effect="non-scaling-stroke"
      d="M1,-0.002L0.9499,-0.0126L0.8998,-0.021L0.7997,-0.0365L0.6996,-0.0495L0.5996,-0.0585L0.4995,-0.0642L0.3995,-0.0676L0.2995,-0.068L0.1995,-0.0644L0.1495,-0.06L0.0996,-0.0524L0.0746,-0.046L0.0497,-0.0361L0.0248,-0.0212L0.0124,-0.0115L0,-0L0.0126,0.0061L0.025,0.0086L0.0501,0.0092L0.0751,0.009L0.1001,0.0082L0.15,0.0046L0.2,0.0013L0.3,-0.0023L0.4,-0.0042L0.5,-0.0021L0.6,0.0005L0.7,0.0026L0.8,0.0035L0.9,0.0028L0.95,0.0024L1,0.002"
    />
</svg>
