
<svg 
  class="airfoil-goe176"
  fill="none"
  stroke="black" 
  stroke-width="1"
  style="overflow:visible"
  viewBox="0, -0.0994, 1, 0.1151"
  xmlns="http://www.w3.org/2000/svg">
    <title>GOE 176 (ALBATROS 7020) AIRFOIL</title>
    <path 
      vector-effect="non-scaling-stroke"
      d="M1,-0.0012L0.9497,-0.0161L0.8996,-0.0264L0.7993,-0.0452L0.699,-0.0631L0.5987,-0.0784L0.4985,-0.0904L0.3984,-0.0987L0.2984,-0.0994L0.1985,-0.0949L0.1486,-0.0854L0.0988,-0.0718L0.074,-0.0626L0.0492,-0.0488L0.0244,-0.0344L0.0121,-0.022L0,-0L0.0126,0.0072L0.0252,0.0099L0.0502,0.0133L0.0752,0.0154L0.1002,0.0157L0.1502,0.0137L0.2001,0.0083L0.2999,-0.0038L0.3998,-0.0125L0.4997,-0.0179L0.5997,-0.0181L0.6924,-0.0158L0.7998,-0.0125L0.8999,-0.0065L0.9499,-0.0032L1,0.0012"
    />
</svg>
