
<svg 
  class="airfoil-goe188"
  fill="none"
  stroke="black" 
  stroke-width="1"
  style="overflow:visible"
  viewBox="0, -0.0886, 1, 0.0897"
  xmlns="http://www.w3.org/2000/svg">
    <title>GOE 188 (SCHUETTE-LANZ 3U10) AIRFOIL</title>
    <path 
      vector-effect="non-scaling-stroke"
      d="M1,-0.005L0.95,-0.015L0.9,-0.0234L0.8,-0.0389L0.7,-0.055L0.6,-0.0694L0.5,-0.0809L0.4,-0.087L0.3,-0.0886L0.2,-0.0829L0.15,-0.0751L0.1,-0.0632L0.075,-0.0546L0.05,-0.0442L0.025,-0.0309L0.0125,-0.0212L0,-0L0.0125,0.0011L0.025,0.0011L0.05,0.001L0.075,0.001L0.1,0.001L0.15,0.0009L0.2,0.0009L0.3,0.0008L0.4,0.0007L0.5,0.0005L0.6,0.0004L0.7,0.0003L0.8,0.0002L0.9,0.0001L0.95,0L1,-0"
    />
</svg>
