
<svg 
  class="airfoil-goe143"
  fill="none"
  stroke="black" 
  stroke-width="1"
  style="overflow:visible"
  viewBox="0, -0.0748, 1, 0.0889"
  xmlns="http://www.w3.org/2000/svg">
    <title>GOE 143 (MVA H.20) AIRFOIL</title>
    <path 
      vector-effect="non-scaling-stroke"
      d="M1,-0.0014L0.9499,-0.0094L0.8998,-0.0174L0.8,-0.0316L0.6994,-0.0454L0.5993,-0.0568L0.4992,-0.0656L0.3991,-0.0718L0.299,-0.0748L0.1991,-0.0712L0.1491,-0.0653L0.0993,-0.0561L0.0743,-0.05L0.0495,-0.041L0.0247,-0.0262L0.0123,-0.0175L0,-0L0.0126,0.0113L0.0252,0.0141L0.0502,0.0132L0.0751,0.0111L0.1001,0.0085L0.1501,0.0056L0.2,0.0032L0.3,-0.001L0.3999,-0.0035L0.4999,-0.0048L0.5999,-0.0055L0.6999,-0.0045L0.8,-0.0035L0.9,-0.0018L0.95,0.0001L1,0.0014"
    />
</svg>
