
<svg 
  class="airfoil-goe115"
  fill="none"
  stroke="black" 
  stroke-width="1"
  style="overflow:visible"
  viewBox="0, -0.0833, 1, 0.1093"
  xmlns="http://www.w3.org/2000/svg">
    <title>GOE 115 (MVA MK.2) AIRFOIL</title>
    <path 
      vector-effect="non-scaling-stroke"
      d="M1,-0L0.9497,-0.0097L0.8994,-0.0187L0.7989,-0.036L0.6983,-0.0525L0.5979,-0.0663L0.4975,-0.0775L0.3974,-0.0833L0.2975,-0.0802L0.1978,-0.0699L0.1481,-0.0604L0.0985,-0.0476L0.0737,-0.0395L0.049,-0.0303L0.0244,-0.0198L0.0121,-0.0131L0,-0L0.0128,0.0102L0.0254,0.0127L0.0506,0.0179L0.0757,0.0214L0.1008,0.0244L0.1508,0.026L0.2008,0.0254L0.3005,0.0166L0.4003,0.0086L0.5001,0.0032L0.6,-0.0007L0.6999,-0.0025L0.7999,-0.0026L0.8999,-0.0018L0.95,-0.0004L1,-0"
    />
</svg>
