
<svg 
  class="airfoil-goe182"
  fill="none"
  stroke="black" 
  stroke-width="1"
  style="overflow:visible"
  viewBox="0, -0.0954, 1, 0.109699994"
  xmlns="http://www.w3.org/2000/svg">
    <title>GOE 182 (MVA H.27) AIRFOIL</title>
    <path 
      vector-effect="non-scaling-stroke"
      d="M1,-0.0008L0.9499,-0.0105L0.8997,-0.0206L0.7995,-0.0381L0.6992,-0.0533L0.599,-0.0685L0.4988,-0.081L0.3987,-0.0907L0.2986,-0.0954L0.1987,-0.0933L0.1488,-0.0865L0.099,-0.0708L0.0741,-0.0611L0.0493,-0.0479L0.0245,-0.0325L0.0122,-0.0224L0,-0L0.0127,0.0115L0.0252,0.014L0.0502,0.0143L0.0752,0.0126L0.1002,0.0114L0.1501,0.0062L0.2,0.001L0.2999,-0.0082L0.3998,-0.0146L0.4997,-0.0193L0.5997,-0.0196L0.6998,-0.0167L0.7998,-0.0108L0.8999,-0.0045L0.95,-0.0013L1,0.0008"
    />
</svg>
