
<svg 
  class="airfoil-goe117"
  fill="none"
  stroke="black" 
  stroke-width="1"
  style="overflow:visible"
  viewBox="0, -0.0893, 1, 0.1069"
  xmlns="http://www.w3.org/2000/svg">
    <title>GOE 117 (MVA MK.4) AIRFOIL</title>
    <path 
      vector-effect="non-scaling-stroke"
      d="M1,-0L0.9498,-0.0116L0.8996,-0.0214L0.7992,-0.0406L0.6988,-0.0583L0.5986,-0.0716L0.4984,-0.0827L0.3983,-0.0893L0.2983,-0.0866L0.1986,-0.0741L0.1488,-0.0626L0.0991,-0.0473L0.0742,-0.0393L0.0494,-0.0305L0.0246,-0.0202L0.0122,-0.0136L0,-0L0.0127,0.0095L0.0252,0.0121L0.0503,0.0151L0.0753,0.0167L0.1003,0.0176L0.1503,0.0153L0.2002,0.0122L0.3001,0.0032L0.4,-0.0022L0.4999,-0.0056L0.5999,-0.0062L0.6999,-0.0051L0.7999,-0.0041L0.9,-0.0022L0.95,-0.0015L1,-0"
    />
</svg>
