
<svg 
  class="airfoil-goe134"
  fill="none"
  stroke="black" 
  stroke-width="1"
  style="overflow:visible"
  viewBox="0, -0.0883, 1, 0.0971"
  xmlns="http://www.w3.org/2000/svg">
    <title>GOE 134 (MVA H.12) AIRFOIL</title>
    <path 
      vector-effect="non-scaling-stroke"
      d="M1,-0.009L0.95,-0.0191L0.9,-0.0286L0.8,-0.0452L0.7,-0.0583L0.6,-0.0707L0.5,-0.0806L0.4,-0.0869L0.3,-0.0883L0.2,-0.0827L0.15,-0.0754L0.1,-0.0633L0.075,-0.0553L0.05,-0.045L0.025,-0.0311L0.0125,-0.0207L0,-0L0.0125,0.0088L0.025,0.0087L0.05,0.0084L0.075,0.0082L0.1,0.008L0.15,0.0076L0.2,0.0071L0.3,0.0062L0.4,0.0053L0.5,0.0044L0.6,0.0036L0.7,0.0027L0.8,0.0018L0.9,0.0009L0.95,0.0004L1,-0"
    />
</svg>
