
<svg 
  class="airfoil-goe199"
  fill="none"
  stroke="black" 
  stroke-width="1"
  style="overflow:visible"
  viewBox="0, -0.0885, 1, 0.0969"
  xmlns="http://www.w3.org/2000/svg">
    <title>GOE 199 (L.F.G. 5406) AIRFOIL</title>
    <path 
      vector-effect="non-scaling-stroke"
      d="M1,-0.0055L0.95,-0.0149L0.8999,-0.0242L0.7999,-0.0419L0.6998,-0.0585L0.5998,-0.0724L0.4998,-0.0816L0.3997,-0.0877L0.2997,-0.0885L0.1998,-0.0834L0.1498,-0.0774L0.0998,-0.0657L0.0748,-0.0556L0.0499,-0.0444L0.0249,-0.0297L0.0124,-0.0206L0,-0L0.0125,0.0084L0.025,0.0067L0.05,0.003L0.075,-0.0008L0.1,-0.0034L0.15,-0.0081L0.2,-0.0117L0.3,-0.0152L0.4,-0.0155L0.5,-0.0142L0.6,-0.0103L0.7,-0.0052L0.8,-0.0002L0.9,0.0032L0.95,0.0056L1,0.0055"
    />
</svg>
