
<svg 
  class="airfoil-goe147"
  fill="none"
  stroke="black" 
  stroke-width="1"
  style="overflow:visible"
  viewBox="0, -0.0708, 1, 0.0867"
  xmlns="http://www.w3.org/2000/svg">
    <title>GOE 147 (MVA H.6) AIRFOIL</title>
    <path 
      vector-effect="non-scaling-stroke"
      d="M1,-0.0016L0.9499,-0.008L0.8998,-0.0138L0.7996,-0.0254L0.6994,-0.037L0.5993,-0.048L0.4991,-0.0582L0.399,-0.0668L0.2989,-0.0708L0.1989,-0.0703L0.149,-0.0667L0.0991,-0.0584L0.0742,-0.052L0.0494,-0.0413L0.0246,-0.0272L0.0122,-0.0182L0,-0L0.0126,0.0079L0.0252,0.0111L0.0502,0.0151L0.0752,0.0159L0.1002,0.0133L0.1501,0.0087L0.2,0.0029L0.2999,-0.0044L0.3999,-0.0072L0.4999,-0.0068L0.5999,-0.0053L0.6999,-0.0036L0.8,-0.0019L0.9,-0.0007L0.95,0.0003L1,0.0016"
    />
</svg>
