
<svg 
  class="airfoil-goe116"
  fill="none"
  stroke="black" 
  stroke-width="1"
  style="overflow:visible"
  viewBox="0, -0.0874, 1, 0.1129"
  xmlns="http://www.w3.org/2000/svg">
    <title>GOE 116 (MVA MK.3) AIRFOIL</title>
    <path 
      vector-effect="non-scaling-stroke"
      d="M1,-0.0018L0.9497,-0.0114L0.8995,-0.0209L0.799,-0.0386L0.6985,-0.0563L0.5981,-0.0722L0.4978,-0.0835L0.3977,-0.0874L0.2978,-0.0833L0.1982,-0.07L0.1484,-0.0608L0.0987,-0.0484L0.074,-0.0399L0.0492,-0.0307L0.0245,-0.0189L0.0122,-0.0117L0,-0L0.0127,0.0081L0.0254,0.0134L0.0505,0.0203L0.0756,0.024L0.1007,0.0255L0.1506,0.0213L0.2004,0.0163L0.3003,0.0097L0.4002,0.0058L0.5001,0.0023L0.6,0.0003L0.7,-0.0008L0.8,-0.001L0.9,0.0002L0.95,0.0011L1,0.0018"
    />
</svg>
