
<svg 
  class="airfoil-goe174"
  fill="none"
  stroke="black" 
  stroke-width="1"
  style="overflow:visible"
  viewBox="0, -0.0967, 1, 0.1048"
  xmlns="http://www.w3.org/2000/svg">
    <title>GOE 174 (ALBATROS 5020) AIRFOIL</title>
    <path 
      vector-effect="non-scaling-stroke"
      d="M1,-0.0014L0.9499,-0.0147L0.8998,-0.0244L0.7997,-0.0425L0.6996,-0.06L0.5995,-0.0737L0.4994,-0.0864L0.3994,-0.0945L0.2993,-0.0967L0.1994,-0.0913L0.1494,-0.0828L0.0995,-0.069L0.0746,-0.0599L0.0497,-0.0465L0.0248,-0.0318L0.0124,-0.0213L0,-0L0.0126,0.0081L0.025,0.008L0.0501,0.0073L0.075,0.0059L0.1,0.0041L0.15,0.0001L0.2,-0.0055L0.2999,-0.0126L0.3999,-0.0169L0.4999,-0.0176L0.5999,-0.0153L0.6999,-0.0124L0.7999,-0.009L0.9,-0.0038L0.95,-0.0008L1,0.0014"
    />
</svg>
