
<svg 
  class="airfoil-goe144"
  fill="none"
  stroke="black" 
  stroke-width="1"
  style="overflow:visible"
  viewBox="0, -0.0814, 1, 0.095699996"
  xmlns="http://www.w3.org/2000/svg">
    <title>GOE 144 (MVA H.21) AIRFOIL</title>
    <path 
      vector-effect="non-scaling-stroke"
      d="M1,-0L0.9498,-0.0117L0.8997,-0.0208L0.7994,-0.0388L0.6992,-0.052L0.599,-0.0636L0.4989,-0.0733L0.3988,-0.08L0.2988,-0.0814L0.1989,-0.0749L0.149,-0.068L0.0992,-0.0565L0.0743,-0.0491L0.0494,-0.0397L0.0246,-0.025L0.0123,-0.0158L0,-0L0.0126,0.0092L0.0252,0.0118L0.0502,0.0143L0.0752,0.0129L0.1002,0.0113L0.1501,0.0044L0.2,-0.0019L0.2998,-0.0118L0.3998,-0.0144L0.4998,-0.0148L0.5998,-0.0139L0.6998,-0.0122L0.7999,-0.008L0.8999,-0.0041L0.95,-0.0021L1,-0"
    />
</svg>
