
<svg 
  class="airfoil-goe187"
  fill="none"
  stroke="black" 
  stroke-width="1"
  style="overflow:visible"
  viewBox="0, -0.0898, 1, 0.0923"
  xmlns="http://www.w3.org/2000/svg">
    <title>GOE 187 (SCHUETTE-LANZ 2U10) AIRFOIL</title>
    <path 
      vector-effect="non-scaling-stroke"
      d="M1,-0.0025L0.95,-0.0125L0.9,-0.0215L0.8,-0.0388L0.7,-0.0544L0.6001,-0.0689L0.5001,-0.0807L0.4001,-0.0874L0.3001,-0.0898L0.2001,-0.0842L0.1501,-0.076L0.1001,-0.0643L0.075,-0.056L0.05,-0.0466L0.025,-0.0316L0.0125,-0.0205L0,-0L0.0125,0.0017L0.025,0.0006L0.05,-0.0011L0.075,-0.0022L0.1,-0.003L0.15,-0.0043L0.2,-0.0053L0.3,-0.007L0.4,-0.008L0.5,-0.0079L0.6,-0.0067L0.7,-0.0055L0.8,-0.0033L0.9,0.0007L0.95,0.0025L1,0.0025"
    />
</svg>
