
<svg 
  class="airfoil-goe121"
  fill="none"
  stroke="black" 
  stroke-width="1"
  style="overflow:visible"
  viewBox="0, -0.0752, 1, 0.0897"
  xmlns="http://www.w3.org/2000/svg">
    <title>GOE 121 (MVA H.1) AIRFOIL</title>
    <path 
      vector-effect="non-scaling-stroke"
      d="M1,-0.001L0.9498,-0.0119L0.8997,-0.0198L0.7995,-0.0362L0.6993,-0.0498L0.5991,-0.0621L0.499,-0.0694L0.3989,-0.0745L0.2989,-0.0752L0.199,-0.07L0.1491,-0.0628L0.0993,-0.0529L0.0744,-0.0444L0.0495,-0.0359L0.0247,-0.0231L0.0123,-0.0154L0,-0L0.0127,0.0123L0.0252,0.0142L0.0502,0.0145L0.0752,0.0125L0.1001,0.0084L0.15,0.0023L0.1999,-0.0036L0.2998,-0.014L0.3997,-0.0176L0.4997,-0.0179L0.5998,-0.015L0.6998,-0.012L0.7999,-0.0092L0.8999,-0.0052L0.9499,-0.0023L1,0.001"
    />
</svg>
