
<svg 
  class="airfoil-goe137"
  fill="none"
  stroke="black" 
  stroke-width="1"
  style="overflow:visible"
  viewBox="0, -0.0871, 1, 0.098299995"
  xmlns="http://www.w3.org/2000/svg">
    <title>GOE 137 (MVA H.15) AIRFOIL</title>
    <path 
      vector-effect="non-scaling-stroke"
      d="M1,-0.0014L0.9499,-0.0105L0.8998,-0.02L0.7996,-0.0376L0.6994,-0.0529L0.5993,-0.0668L0.4992,-0.0786L0.3991,-0.0856L0.2991,-0.0871L0.1991,-0.0801L0.1492,-0.072L0.0994,-0.0611L0.0745,-0.0523L0.0496,-0.042L0.0247,-0.0277L0.0123,-0.0175L0,-0L0.0126,0.009L0.0251,0.0105L0.0501,0.0111L0.0751,0.0112L0.1001,0.0099L0.1501,0.0063L0.2,0.0034L0.3,-0.0012L0.4,-0.0028L0.5,-0.0039L0.6,-0.0038L0.7,-0.0034L0.8,-0.0019L0.9,-0.0004L0.95,0.0008L1,0.0014"
    />
</svg>
