
<svg 
  class="airfoil-goe113"
  fill="none"
  stroke="black" 
  stroke-width="1"
  style="overflow:visible"
  viewBox="0, -0.0638, 1, 0.0697"
  xmlns="http://www.w3.org/2000/svg">
    <title>GOE 113 AIRFOIL</title>
    <path 
      vector-effect="non-scaling-stroke"
      d="M1,-0.003L0.9,-0.0184L0.8,-0.0303L0.7,-0.0407L0.6,-0.0501L0.5,-0.058L0.4,-0.0634L0.3,-0.0638L0.2,-0.0584L0.15,-0.0539L0.1,-0.0461L0.075,-0.0404L0.05,-0.0313L0.025,-0.0202L0.0125,-0.0121L0,-0L0.0125,0.0059L0.025,0.0058L0.05,0.0057L0.075,0.0054L0.1,0.005L0.15,0.0043L0.2,0.0038L0.3,0.0027L0.4,0.0016L0.5,0.001L0.6,0.0004L0.7,0.0003L0.8,0.0002L0.9,-0.0001L1,-0"
    />
</svg>
