
<svg 
  class="airfoil-goe195"
  fill="none"
  stroke="black" 
  stroke-width="1"
  style="overflow:visible"
  viewBox="0, -0.0878, 1, 0.1035"
  xmlns="http://www.w3.org/2000/svg">
    <title>GOE 195 AIRFOIL</title>
    <path 
      vector-effect="non-scaling-stroke"
      d="M1,-0.002L0.95,-0.0142L0.9,-0.0253L0.8,-0.0446L0.7,-0.0599L0.6,-0.0732L0.5,-0.0815L0.4,-0.0878L0.3,-0.0871L0.2,-0.0784L0.15,-0.0706L0.1,-0.0587L0.075,-0.0513L0.05,-0.0419L0.025,-0.0284L0.0125,-0.0202L0,-0L0.0125,0.0118L0.025,0.0136L0.05,0.0152L0.075,0.0157L0.1,0.0153L0.15,0.0125L0.2,0.0076L0.3,-0.0051L0.4,-0.0138L0.5,-0.0205L0.6,-0.0242L0.7,-0.0229L0.8,-0.0166L0.9,-0.0083L0.95,-0.0041L1,-0"
    />
</svg>
