
<svg 
  class="airfoil-goe178"
  fill="none"
  stroke="black" 
  stroke-width="1"
  style="overflow:visible"
  viewBox="0, -0.0865, 1, 0.10079999"
  xmlns="http://www.w3.org/2000/svg">
    <title>GOE 178 AIRFOIL</title>
    <path 
      vector-effect="non-scaling-stroke"
      d="M1,-0.003L0.95,-0.0113L0.9,-0.0205L0.8,-0.036L0.7,-0.0505L0.6,-0.063L0.5,-0.0735L0.4,-0.082L0.3,-0.0865L0.2,-0.08L0.15,-0.0723L0.1,-0.0585L0.075,-0.0491L0.05,-0.0377L0.025,-0.0254L0.0125,-0.0162L0,-0L0.0125,0.0108L0.025,0.0126L0.05,0.0143L0.075,0.0129L0.1,0.011L0.15,0.0077L0.2,0.004L0.3,-0.0015L0.4,-0.006L0.5,-0.0085L0.6,-0.009L0.7,-0.0085L0.8,-0.007L0.9,-0.0045L0.95,-0.0022L1,-0"
    />
</svg>
