
<svg 
  class="airfoil-goe114"
  fill="none"
  stroke="black" 
  stroke-width="1"
  style="overflow:visible"
  viewBox="0, -0.0776, 1, 0.1058"
  xmlns="http://www.w3.org/2000/svg">
    <title>GOE 114 (MVA MK.1) AIRFOIL</title>
    <path 
      vector-effect="non-scaling-stroke"
      d="M1,-0L0.9496,-0.0102L0.8993,-0.02L0.7987,-0.0381L0.6981,-0.0543L0.5976,-0.067L0.4974,-0.0748L0.3973,-0.0776L0.2974,-0.0741L0.1978,-0.0617L0.1482,-0.0516L0.0986,-0.0392L0.0739,-0.0323L0.0492,-0.0229L0.0245,-0.0131L0.0122,-0.0071L0,-0L0.0127,0.0058L0.0253,0.0097L0.0506,0.0165L0.0758,0.0213L0.1009,0.0247L0.151,0.0275L0.201,0.0282L0.3007,0.0212L0.4004,0.0107L0.5002,0.0046L0.6,0.0006L0.7,-0.0009L0.8,-0.0013L0.9,-0.0007L0.95,-0.0003L1,-0"
    />
</svg>
