
<svg 
  class="airfoil-goe14"
  fill="none"
  stroke="black" 
  stroke-width="1"
  style="overflow:visible"
  viewBox="0, -0.1188, 1, 0.13690001"
  xmlns="http://www.w3.org/2000/svg">
    <title>GOE 14 AIRFOIL</title>
    <path 
      vector-effect="non-scaling-stroke"
      d="M1,-0.0007L0.9498,-0.012L0.8996,-0.0236L0.7992,-0.0466L0.6988,-0.0686L0.5984,-0.0879L0.4982,-0.1026L0.398,-0.1136L0.2979,-0.1188L0.198,-0.1137L0.1481,-0.1051L0.0984,-0.0898L0.0736,-0.0793L0.0488,-0.0649L0.0242,-0.0446L0.012,-0.0297L0,-0L0.0128,0.0173L0.0253,0.0181L0.0502,0.0131L0.0751,0.0032L0.0999,-0.0051L0.1498,-0.0132L0.1997,-0.0163L0.2997,-0.0199L0.3997,-0.0184L0.4997,-0.0159L0.5998,-0.0137L0.6998,-0.0105L0.7999,-0.0068L0.8999,-0.003L0.95,-0.0011L1,0.0007"
    />
</svg>
