
<svg 
  class="airfoil-goe101"
  fill="none"
  stroke="black" 
  stroke-width="1"
  style="overflow:visible"
  viewBox="0, -0.0741, 1, 0.081"
  xmlns="http://www.w3.org/2000/svg">
    <title>GOE 101 AIRFOIL</title>
    <path 
      vector-effect="non-scaling-stroke"
      d="M1,-0L0.9,-0.0153L0.8,-0.0296L0.7,-0.0424L0.6,-0.0542L0.5,-0.064L0.4,-0.0713L0.3,-0.0741L0.2,-0.0674L0.15,-0.0606L0.1,-0.0507L0.075,-0.0435L0.05,-0.0353L0.025,-0.0232L0.0125,-0.0151L0,-0L0.0125,0.0069L0.025,0.0067L0.05,0.0055L0.075,0.0038L0.1,0.0023L0.15,-0L0.2,-0.0019L0.3,-0.0051L0.4,-0.0075L0.5,-0.0085L0.6,-0.0082L0.7,-0.0069L0.8,-0.0051L0.9,-0.0028L1,-0"
    />
</svg>
