
<svg 
  class="airfoil-goe133"
  fill="none"
  stroke="black" 
  stroke-width="1"
  style="overflow:visible"
  viewBox="0, -0.0827, 1, 0.0915"
  xmlns="http://www.w3.org/2000/svg">
    <title>GOE 133 (MVA H.11) AIRFOIL</title>
    <path 
      vector-effect="non-scaling-stroke"
      d="M1,-0.002L0.95,-0.0115L0.9,-0.0211L0.8,-0.0382L0.7,-0.0523L0.6,-0.0644L0.5,-0.0735L0.4,-0.0803L0.3,-0.0827L0.2,-0.0768L0.15,-0.0708L0.1,-0.0609L0.075,-0.0527L0.05,-0.0435L0.025,-0.0312L0.0125,-0.0221L0,-0L0.0125,0.0069L0.025,0.0088L0.05,0.0082L0.075,0.0068L0.1,0.0051L0.15,0.0016L0.2,-0.0008L0.3,-0.0037L0.4,-0.0051L0.5,-0.006L0.6,-0.0064L0.7,-0.0063L0.8,-0.0052L0.9,-0.0031L0.95,-0.0016L1,-0"
    />
</svg>
