
<svg 
  class="airfoil-goe123"
  fill="none"
  stroke="black" 
  stroke-width="1"
  style="overflow:visible"
  viewBox="0, -0.084, 1, 0.0929"
  xmlns="http://www.w3.org/2000/svg">
    <title>GOE 123 AIRFOIL</title>
    <path 
      vector-effect="non-scaling-stroke"
      d="M1,-0.002L0.9,-0.022L0.8,-0.042L0.7,-0.059L0.6,-0.072L0.5,-0.08L0.4,-0.084L0.3,-0.083L0.25,-0.0805L0.2,-0.076L0.15,-0.0685L0.1,-0.057L0.075,-0.0487L0.05,-0.0395L0.025,-0.0262L0.0125,-0.0181L0,-0L0.0125,0.0089L0.025,0.0077L0.05,0.0035L0.075,-0.0018L0.1,-0.007L0.15,-0.0175L0.2,-0.023L0.25,-0.0265L0.3,-0.029L0.4,-0.03L0.5,-0.027L0.6,-0.022L0.7,-0.017L0.8,-0.011L0.9,-0.006L1,-0"
    />
</svg>
