
<svg 
  class="airfoil-goe140"
  fill="none"
  stroke="black" 
  stroke-width="1"
  style="overflow:visible"
  viewBox="0, -0.0968, 1, 0.1082"
  xmlns="http://www.w3.org/2000/svg">
    <title>GOE 140 (MVA H.17) AIRFOIL</title>
    <path 
      vector-effect="non-scaling-stroke"
      d="M1,-0.0029L0.9499,-0.013L0.8998,-0.0224L0.7997,-0.0399L0.6995,-0.0565L0.5994,-0.0711L0.4993,-0.0834L0.3992,-0.0924L0.2992,-0.0968L0.1992,-0.0924L0.1493,-0.0839L0.0994,-0.0683L0.0745,-0.0591L0.0496,-0.0469L0.0247,-0.0299L0.0124,-0.0176L0,-0L0.0126,0.0109L0.0251,0.0114L0.0501,0.0087L0.075,0.0039L0.1,0.0007L0.15,-0.0042L0.1999,-0.0064L0.2999,-0.009L0.3999,-0.0105L0.4999,-0.0103L0.5999,-0.0099L0.6999,-0.0085L0.8,-0.0054L0.9,-0.002L0.95,0.0004L1,0.0029"
    />
</svg>
