
<svg 
  class="airfoil-goe167"
  fill="none"
  stroke="black" 
  stroke-width="1"
  style="overflow:visible"
  viewBox="0, -0.0958, 1, 0.1078"
  xmlns="http://www.w3.org/2000/svg">
    <title>GOE 167 (V.KARMAN PROP.2) AIRFOIL</title>
    <path 
      vector-effect="non-scaling-stroke"
      d="M1,-0.0045L0.9499,-0.013L0.8998,-0.0223L0.7997,-0.0392L0.6996,-0.0554L0.5995,-0.0704L0.4994,-0.0838L0.3993,-0.0945L0.2993,-0.0958L0.1993,-0.0853L0.1494,-0.0767L0.0995,-0.0621L0.0746,-0.0522L0.0497,-0.0413L0.0248,-0.0284L0.0124,-0.0182L0,-0L0.0126,0.011L0.0251,0.012L0.0501,0.0113L0.0751,0.0103L0.1001,0.0087L0.1501,0.0073L0.2,0.0064L0.3,0.0051L0.4,0.0038L0.5,0.003L0.6,0.0028L0.7,0.0025L0.8,0.0023L0.9,0.0026L0.95,0.004L1,0.0045"
    />
</svg>
