
<svg 
  class="airfoil-goe118"
  fill="none"
  stroke="black" 
  stroke-width="1"
  style="overflow:visible"
  viewBox="0, -0.0994, 1, 0.1081"
  xmlns="http://www.w3.org/2000/svg">
    <title>GOE 118 (MVA MK.7) AIRFOIL</title>
    <path 
      vector-effect="non-scaling-stroke"
      d="M1,-0.001L0.9499,-0.0131L0.8998,-0.0241L0.7996,-0.045L0.6995,-0.0639L0.5993,-0.0807L0.4992,-0.0931L0.3992,-0.0994L0.2992,-0.0972L0.1993,-0.0837L0.1494,-0.0706L0.0996,-0.0549L0.0746,-0.0441L0.0497,-0.0334L0.0248,-0.0191L0.0124,-0.012L0,-0L0.0125,0.0045L0.025,0.0061L0.0501,0.0087L0.0751,0.0075L0.1,0.0048L0.15,-0.0005L0.2,-0.0045L0.2999,-0.0108L0.3999,-0.0152L0.4999,-0.0174L0.5999,-0.0172L0.6999,-0.015L0.7999,-0.0103L0.9,-0.0051L0.95,-0.0021L1,0.001"
    />
</svg>
