
<svg 
  class="airfoil-goe284"
  fill="none"
  stroke="black" 
  stroke-width="1"
  style="overflow:visible"
  viewBox="0, -0.1374, 1, 0.1828"
  xmlns="http://www.w3.org/2000/svg">
    <title>GOE 284 AIRFOIL</title>
    <path 
      vector-effect="non-scaling-stroke"
      d="M1,-0.003L0.9492,-0.015L0.8985,-0.0289L0.7971,-0.0561L0.6959,-0.0809L0.5947,-0.1033L0.4937,-0.123L0.393,-0.1366L0.293,-0.1374L0.1935,-0.1264L0.1442,-0.1139L0.0952,-0.0932L0.0709,-0.081L0.0466,-0.0658L0.0227,-0.0451L0.0109,-0.0318L0,-0L0.0137,0.024L0.0266,0.0315L0.0521,0.0408L0.0773,0.0446L0.1023,0.0454L0.1523,0.0451L0.2022,0.0438L0.302,0.0386L0.4017,0.0336L0.5015,0.0284L0.6012,0.0234L0.7009,0.0182L0.8007,0.0132L0.9004,0.008L0.9503,0.0055L1,0.003"
    />
</svg>
