
<svg 
  class="airfoil-goe210"
  fill="none"
  stroke="black" 
  stroke-width="1"
  style="overflow:visible"
  viewBox="0, -0.0762, 1, 0.0819"
  xmlns="http://www.w3.org/2000/svg">
    <title>GOE 210 (DAIMLER) AIRFOIL</title>
    <path 
      vector-effect="non-scaling-stroke"
      d="M1,-0.0008L0.9499,-0.011L0.8999,-0.0207L0.7998,-0.0366L0.6997,-0.0512L0.5997,-0.064L0.4996,-0.0726L0.3996,-0.0762L0.2996,-0.0753L0.1997,-0.0695L0.1497,-0.064L0.0997,-0.0557L0.0748,-0.0487L0.0498,-0.0395L0.0249,-0.0281L0.0124,-0.0182L0,-0L0.0125,0.0057L0.025,0.0056L0.05,0.0044L0.075,0.0023L0.1,-0L0.15,-0.0033L0.2,-0.0058L0.3,-0.009L0.3999,-0.0107L0.4999,-0.0118L0.5999,-0.0112L0.7,-0.0094L0.8,-0.0072L0.9,-0.0038L0.95,-0.0014L1,0.0008"
    />
</svg>
