
<svg 
  class="airfoil-goe242"
  fill="none"
  stroke="black" 
  stroke-width="1"
  style="overflow:visible"
  viewBox="0, -0.1466, 1, 0.17029999"
  xmlns="http://www.w3.org/2000/svg">
    <title>GOE 242 (MVA PR.2) AIRFOIL</title>
    <path 
      vector-effect="non-scaling-stroke"
      d="M1,-0.002L0.9495,-0.019L0.8991,-0.0354L0.7983,-0.0669L0.6976,-0.0953L0.597,-0.1177L0.4965,-0.136L0.3963,-0.1466L0.2963,-0.1441L0.1967,-0.13L0.147,-0.1168L0.0976,-0.095L0.073,-0.0801L0.0484,-0.0637L0.0239,-0.0431L0.0118,-0.0278L0,-0L0.0128,0.0102L0.0253,0.0128L0.0504,0.0167L0.0755,0.0196L0.1006,0.0214L0.1506,0.0237L0.2006,0.0224L0.3004,0.0175L0.4001,0.0043L0.4996,-0.0147L0.5992,-0.0315L0.699,-0.0403L0.799,-0.0379L0.8994,-0.0229L0.9497,-0.0117L1,0.002"
    />
</svg>
