
<svg 
  class="airfoil-goe286"
  fill="none"
  stroke="black" 
  stroke-width="1"
  style="overflow:visible"
  viewBox="0, -0.0878, 1, 0.101900004"
  xmlns="http://www.w3.org/2000/svg">
    <title>GOE 286 AIRFOIL</title>
    <path 
      vector-effect="non-scaling-stroke"
      d="M1,-0.0025L0.9499,-0.0102L0.8998,-0.0198L0.7996,-0.0362L0.6994,-0.052L0.5992,-0.0644L0.4991,-0.0767L0.399,-0.0843L0.2989,-0.0878L0.199,-0.0836L0.1491,-0.0759L0.0992,-0.0636L0.0743,-0.0568L0.0494,-0.0447L0.0246,-0.0315L0.0122,-0.0207L0,-0L0.0126,0.0116L0.0252,0.0132L0.0502,0.0141L0.0752,0.0133L0.1001,0.0123L0.1501,0.01L0.2001,0.0082L0.3001,0.0057L0.4,0.0033L0.5,0.0027L0.6,0.0021L0.7,0.0021L0.8,0.0031L0.9,0.0031L0.95,0.0031L1,0.0025"
    />
</svg>
