
<svg 
  class="airfoil-goe234"
  fill="none"
  stroke="black" 
  stroke-width="1"
  style="overflow:visible"
  viewBox="0, -0.1366, 1, 0.16260001"
  xmlns="http://www.w3.org/2000/svg">
    <title>GOE 234 (MVA CA5) AIRFOIL</title>
    <path 
      vector-effect="non-scaling-stroke"
      d="M1,-0.0037L0.9495,-0.0207L0.899,-0.0386L0.7982,-0.0692L0.6975,-0.0962L0.597,-0.1164L0.4967,-0.1304L0.3965,-0.1366L0.2966,-0.1333L0.1969,-0.1201L0.1472,-0.1081L0.0977,-0.0884L0.073,-0.076L0.0484,-0.0606L0.0239,-0.0407L0.0117,-0.0292L0,-0L0.0128,0.0136L0.0255,0.0181L0.0506,0.0217L0.0756,0.0238L0.1007,0.026L0.1507,0.0255L0.2006,0.0222L0.3,0.0009L0.3992,-0.0312L0.4986,-0.0532L0.5984,-0.0614L0.6986,-0.056L0.7988,-0.0446L0.8994,-0.022L0.9498,-0.0089L1,0.0037"
    />
</svg>
