
<svg 
  class="airfoil-goe264"
  fill="none"
  stroke="black" 
  stroke-width="1"
  style="overflow:visible"
  viewBox="0, -0.088, 1, 0.099"
  xmlns="http://www.w3.org/2000/svg">
    <title>GOE 264 AIRFOIL</title>
    <path 
      vector-effect="non-scaling-stroke"
      d="M1,-0.0032L0.9499,-0.0127L0.8999,-0.0229L0.7997,-0.0409L0.6996,-0.0568L0.5996,-0.0689L0.4995,-0.0795L0.3995,-0.0864L0.2893,-0.088L0.2017,-0.0818L0.1495,-0.0724L0.0996,-0.0577L0.0747,-0.0493L0.0498,-0.0382L0.0277,-0.0268L0.0122,-0.0165L0,-0L0.0126,0.0092L0.0261,0.011L0.0501,0.008L0.075,0.004L0.1,-0.0006L0.1499,-0.0101L0.1999,-0.0173L0.2998,-0.0259L0.3998,-0.0266L0.4999,-0.0235L0.5999,-0.0198L0.6999,-0.0146L0.7999,-0.0094L0.9,-0.0047L0.95,-0.0013L1,0.0032"
    />
</svg>
