
<svg 
  class="airfoil-goe275"
  fill="none"
  stroke="black" 
  stroke-width="1"
  style="overflow:visible"
  viewBox="0, -0.0855, 1, 0.0935"
  xmlns="http://www.w3.org/2000/svg">
    <title>GOE 275 (DAIMLER VI) AIRFOIL</title>
    <path 
      vector-effect="non-scaling-stroke"
      d="M1,-0L0.9499,-0.0129L0.8998,-0.0227L0.7997,-0.041L0.6995,-0.0562L0.5994,-0.0677L0.4994,-0.0769L0.3993,-0.0831L0.2993,-0.0855L0.1993,-0.0825L0.1494,-0.0757L0.0995,-0.0657L0.0745,-0.0575L0.0496,-0.0483L0.0247,-0.0347L0.0123,-0.024L0,-0L0.0126,0.008L0.025,0.0066L0.05,0.0034L0.075,0.0016L0.1,0.0004L0.15,-0.0027L0.2,-0.0052L0.2999,-0.0087L0.3999,-0.0106L0.4999,-0.0115L0.5999,-0.0112L0.6999,-0.0104L0.7999,-0.008L0.9,-0.004L0.95,-0.0023L1,-0"
    />
</svg>
