
<svg 
  class="airfoil-goe239"
  fill="none"
  stroke="black" 
  stroke-width="1"
  style="overflow:visible"
  viewBox="0, -0.1098, 1, 0.1287"
  xmlns="http://www.w3.org/2000/svg">
    <title>GOE 239 (MVA H.31) AIRFOIL</title>
    <path 
      vector-effect="non-scaling-stroke"
      d="M1,-0.0021L0.9497,-0.0168L0.8995,-0.0291L0.799,-0.053L0.6987,-0.074L0.5984,-0.0895L0.4982,-0.1011L0.398,-0.1098L0.298,-0.1098L0.1982,-0.0997L0.1484,-0.0895L0.0987,-0.0733L0.0738,-0.0632L0.0491,-0.0504L0.0244,-0.035L0.0121,-0.0242L0,-0L0.0127,0.0124L0.0253,0.016L0.0503,0.0185L0.0753,0.0189L0.1003,0.0185L0.1503,0.0171L0.2002,0.0123L0.3,0.0005L0.3998,-0.0107L0.4997,-0.0163L0.5997,-0.0188L0.6997,-0.0182L0.7998,-0.0127L0.8999,-0.0071L0.9499,-0.003L1,0.0021"
    />
</svg>
