
<svg 
  class="airfoil-goe280"
  fill="none"
  stroke="black" 
  stroke-width="1"
  style="overflow:visible"
  viewBox="0, -0.0851, 1, 0.091800004"
  xmlns="http://www.w3.org/2000/svg">
    <title>GOE 280 (DAIMLER XI) AIRFOIL</title>
    <path 
      vector-effect="non-scaling-stroke"
      d="M1,-0.004L0.95,-0.0139L0.8999,-0.0234L0.7999,-0.0418L0.6999,-0.0559L0.5998,-0.0683L0.4998,-0.0772L0.3998,-0.0834L0.2998,-0.0851L0.1998,-0.08L0.1498,-0.0741L0.0998,-0.0646L0.0748,-0.0575L0.0499,-0.0461L0.0249,-0.0307L0.0125,-0.0167L0,-0L0.0125,0.0067L0.025,0.0057L0.05,0.0026L0.075,0.0006L0.1,-0.0011L0.15,-0.0033L0.2,-0.0048L0.3,-0.0058L0.4,-0.0056L0.5,-0.0052L0.6,-0.0045L0.7,-0.003L0.8,-0.0014L0.9,0.0008L0.95,0.0023L1,0.004"
    />
</svg>
