
<svg 
  class="airfoil-goe257"
  fill="none"
  stroke="black" 
  stroke-width="1"
  style="overflow:visible"
  viewBox="0, -0.085, 1, 0.0946"
  xmlns="http://www.w3.org/2000/svg">
    <title>GOE 257 AIRFOIL</title>
    <path 
      vector-effect="non-scaling-stroke"
      d="M1,-0.0064L0.9499,-0.0148L0.8999,-0.0233L0.7999,-0.0395L0.6998,-0.0526L0.5998,-0.0661L0.4997,-0.0776L0.3997,-0.0837L0.2997,-0.085L0.1998,-0.0766L0.1498,-0.0695L0.0998,-0.0575L0.0748,-0.0484L0.0499,-0.0377L0.0249,-0.0253L0.0125,-0.0161L0,-0L0.0125,0.0096L0.025,0.0095L0.05,0.0089L0.075,0.0083L0.1,0.0072L0.15,0.0059L0.2,0.0047L0.3,0.0033L0.4,0.0025L0.5,0.0027L0.6,0.0024L0.7,0.0031L0.8,0.0038L0.9,0.0051L0.95,0.0066L1,0.0064"
    />
</svg>
