
<svg 
  class="airfoil-goe274"
  fill="none"
  stroke="black" 
  stroke-width="1"
  style="overflow:visible"
  viewBox="0, -0.0917, 1, 0.1023"
  xmlns="http://www.w3.org/2000/svg">
    <title>GOE 274 (DAIMLER V) AIRFOIL</title>
    <path 
      vector-effect="non-scaling-stroke"
      d="M1,-0.004L0.9499,-0.0171L0.8998,-0.0289L0.7997,-0.0486L0.6996,-0.0639L0.5995,-0.0755L0.4994,-0.0834L0.3994,-0.0894L0.2994,-0.0917L0.1994,-0.0865L0.1495,-0.0796L0.0995,-0.0685L0.0746,-0.0592L0.0497,-0.0481L0.0248,-0.0311L0.0124,-0.0202L0,-0L0.0126,0.0106L0.0251,0.0099L0.05,0.0061L0.075,0.0043L0.1,0.0025L0.15,-0.0008L0.2,-0.0026L0.3,-0.0052L0.3999,-0.0075L0.4999,-0.0082L0.5999,-0.0082L0.7,-0.0063L0.8,-0.0043L0.9,-0.0014L0.95,0.0006L1,0.004"
    />
</svg>
