
<svg 
  class="airfoil-goe287"
  fill="none"
  stroke="black" 
  stroke-width="1"
  style="overflow:visible"
  viewBox="0, -0.0926, 1, 0.103"
  xmlns="http://www.w3.org/2000/svg">
    <title>GOE 287 AIRFOIL</title>
    <path 
      vector-effect="non-scaling-stroke"
      d="M1,-0.0025L0.9499,-0.0089L0.8999,-0.0179L0.7997,-0.0347L0.6996,-0.0527L0.5994,-0.069L0.4993,-0.0828L0.3993,-0.0926L0.2993,-0.0923L0.1993,-0.0851L0.1494,-0.0777L0.0995,-0.0637L0.0746,-0.0547L0.0497,-0.0423L0.0248,-0.0261L0.0124,-0.0171L0,-0L0.0126,0.0098L0.0251,0.0104L0.0501,0.009L0.0751,0.0071L0.1,0.0051L0.15,0.0023L0.2,0.0001L0.3,-0.0036L0.4,-0.005L0.5,-0.0052L0.6,-0.0037L0.7,-0.0019L0.8,-0.0006L0.9,0.0009L0.95,0.0017L1,0.0025"
    />
</svg>
