
<svg 
  class="airfoil-goe207"
  fill="none"
  stroke="black" 
  stroke-width="1"
  style="overflow:visible"
  viewBox="0, -0.1098, 1, 0.12450001"
  xmlns="http://www.w3.org/2000/svg">
    <title>GOE 207 (AVIATIK V8) AIRFOIL</title>
    <path 
      vector-effect="non-scaling-stroke"
      d="M1,-0.0037L0.9499,-0.0129L0.8998,-0.0215L0.7996,-0.0397L0.6994,-0.0578L0.5992,-0.0751L0.499,-0.0902L0.3989,-0.103L0.2988,-0.1098L0.1988,-0.1071L0.1489,-0.0987L0.0991,-0.0812L0.0742,-0.0702L0.0494,-0.0543L0.0246,-0.033L0.0122,-0.0222L0,-0L0.0127,0.0147L0.0251,0.0134L0.0501,0.0071L0.075,-0L0.0999,-0.0053L0.1498,-0.0138L0.1998,-0.0194L0.2998,-0.0228L0.3998,-0.0216L0.4998,-0.0187L0.5998,-0.0145L0.6999,-0.0106L0.7999,-0.006L0.9,-0.0009L0.95,0.0011L1,0.0037"
    />
</svg>
