
<svg 
  class="airfoil-goe238"
  fill="none"
  stroke="black" 
  stroke-width="1"
  style="overflow:visible"
  viewBox="0, -0.1041, 1, 0.11929999"
  xmlns="http://www.w3.org/2000/svg">
    <title>GOE 238 (HANSA-BRANDENBURG) AIRFOIL</title>
    <path 
      vector-effect="non-scaling-stroke"
      d="M1,-0L0.9499,-0.0091L0.8997,-0.0166L0.7995,-0.0323L0.6992,-0.051L0.5989,-0.0708L0.4986,-0.0886L0.3984,-0.101L0.2984,-0.1041L0.1985,-0.0937L0.1487,-0.0847L0.0989,-0.0698L0.0741,-0.0596L0.0493,-0.0477L0.0245,-0.0338L0.0121,-0.0237L0,-0L0.0127,0.014L0.0252,0.0152L0.0502,0.0122L0.0751,0.0092L0.1001,0.0078L0.15,0.0029L0.2,-0.0016L0.2999,-0.0061L0.3999,-0.0073L0.4999,-0.0057L0.6,-0.0032L0.7,-0.001L0.8,0.0005L0.9,-0L0.95,0.0005L1,-0"
    />
</svg>
