
<svg 
  class="airfoil-goe276"
  fill="none"
  stroke="black" 
  stroke-width="1"
  style="overflow:visible"
  viewBox="0, -0.0766, 1, 0.0854"
  xmlns="http://www.w3.org/2000/svg">
    <title>GOE 276 (DAIMLER VII) AIRFOIL</title>
    <path 
      vector-effect="non-scaling-stroke"
      d="M1,-0.004L0.9499,-0.0152L0.8999,-0.0233L0.7998,-0.0387L0.6997,-0.0527L0.5997,-0.0623L0.4996,-0.0692L0.3996,-0.0735L0.2996,-0.0766L0.1996,-0.0724L0.1496,-0.0665L0.0997,-0.0563L0.0747,-0.0496L0.0498,-0.0397L0.0249,-0.0265L0.0124,-0.0174L0,-0L0.0126,0.0088L0.025,0.0088L0.05,0.0061L0.075,0.0041L0.1,0.0025L0.15,0.0006L0.2,-0.001L0.3,-0.004L0.4,-0.0062L0.5,-0.0067L0.6,-0.0061L0.7,-0.0051L0.8,-0.0029L0.9,-0.0003L0.95,0.0022L1,0.004"
    />
</svg>
