
<svg 
  class="airfoil-goe226"
  fill="none"
  stroke="black" 
  stroke-width="1"
  style="overflow:visible"
  viewBox="0, -0.1396, 1, 0.1642"
  xmlns="http://www.w3.org/2000/svg">
    <title>GOE 226 (MVA H.36) AIRFOIL</title>
    <path 
      vector-effect="non-scaling-stroke"
      d="M1,-0.001L0.9495,-0.0177L0.8991,-0.0339L0.7983,-0.0669L0.6976,-0.0953L0.597,-0.1172L0.4966,-0.1332L0.3964,-0.1396L0.2964,-0.1396L0.1968,-0.1255L0.1471,-0.1123L0.0976,-0.092L0.073,-0.0789L0.0484,-0.0625L0.0239,-0.0421L0.0117,-0.0298L0,-0L0.0129,0.0157L0.0255,0.0209L0.0506,0.0242L0.0756,0.0246L0.1006,0.0229L0.1505,0.0189L0.2003,0.0129L0.3,-0.0022L0.3996,-0.0167L0.4993,-0.0287L0.5991,-0.0358L0.699,-0.0378L0.7992,-0.0304L0.8996,-0.0159L0.9498,-0.0077L1,0.001"
    />
</svg>
