
<svg 
  class="airfoil-goe243"
  fill="none"
  stroke="black" 
  stroke-width="1"
  style="overflow:visible"
  viewBox="0, -0.1642, 1, 0.2006"
  xmlns="http://www.w3.org/2000/svg">
    <title>GOE 243 (MVA PR.3) AIRFOIL</title>
    <path 
      vector-effect="non-scaling-stroke"
      d="M1,-0.0015L0.9491,-0.0213L0.8982,-0.0421L0.7966,-0.0786L0.6952,-0.1102L0.5941,-0.1358L0.4933,-0.154L0.3929,-0.1636L0.2929,-0.1642L0.1934,-0.1509L0.144,-0.1373L0.0949,-0.1181L0.0705,-0.1026L0.0464,-0.083L0.0226,-0.056L0.0108,-0.0385L0,-0L0.0135,0.0219L0.0261,0.0264L0.0513,0.0303L0.0764,0.0322L0.1015,0.0336L0.1516,0.0364L0.2016,0.0362L0.3011,0.0249L0.4003,0.0071L0.4994,-0.0127L0.5986,-0.033L0.698,-0.0454L0.7981,-0.0442L0.8989,-0.0241L0.9495,-0.0113L1,0.0015"
    />
</svg>
