
<svg 
  class="airfoil-goe229"
  fill="none"
  stroke="black" 
  stroke-width="1"
  style="overflow:visible"
  viewBox="0, -0.1484, 1, 0.19739999"
  xmlns="http://www.w3.org/2000/svg">
    <title>GOE 229 (MVA H.39) AIRFOIL</title>
    <path 
      vector-effect="non-scaling-stroke"
      d="M1,-0.001L0.9487,-0.0196L0.8975,-0.0372L0.7953,-0.0704L0.6934,-0.0992L0.5918,-0.1227L0.4908,-0.1391L0.3901,-0.1484L0.2903,-0.1458L0.1913,-0.1309L0.1422,-0.1179L0.0936,-0.0962L0.0695,-0.0821L0.0558,-0.064L0.0224,-0.039L0.011,-0.0232L0,-0L0.0134,0.0141L0.0263,0.0192L0.0518,0.0271L0.0773,0.0339L0.1025,0.0382L0.153,0.0453L0.2033,0.049L0.3031,0.0473L0.4024,0.0352L0.5013,0.0192L0.6003,0.0046L0.6995,-0.007L0.7993,-0.0106L0.8995,-0.0083L0.9498,-0.0037L1,0.001"
    />
</svg>
