
<svg 
  class="airfoil-goe228"
  fill="none"
  stroke="black" 
  stroke-width="1"
  style="overflow:visible"
  viewBox="0, -0.1529, 1, 0.1873"
  xmlns="http://www.w3.org/2000/svg">
    <title>GOE 228 (MVA H.38) AIRFOIL</title>
    <path 
      vector-effect="non-scaling-stroke"
      d="M1,-0.0015L0.9492,-0.0204L0.8984,-0.0394L0.797,-0.0733L0.6958,-0.1032L0.5949,-0.1261L0.4942,-0.1425L0.3938,-0.1524L0.2938,-0.1529L0.1944,-0.1374L0.1452,-0.1207L0.0959,-0.1004L0.0715,-0.0859L0.0472,-0.0679L0.0232,-0.0449L0.0113,-0.0305L0,-0L0.0131,0.015L0.0258,0.0204L0.0511,0.0267L0.0762,0.0299L0.1013,0.0324L0.1514,0.0344L0.2014,0.0338L0.301,0.0253L0.4005,0.0133L0.5001,0.0018L0.5996,-0.0103L0.6993,-0.0178L0.7993,-0.0184L0.8995,-0.0119L0.9498,-0.006L1,0.0015"
    />
</svg>
