
<svg 
  class="airfoil-goe29b"
  fill="none"
  stroke="black" 
  stroke-width="1"
  style="overflow:visible"
  viewBox="0, -0.112, 1, 0.1315"
  xmlns="http://www.w3.org/2000/svg">
    <title>GOE 29B AIRFOIL</title>
    <path 
      vector-effect="non-scaling-stroke"
      d="M1,-0.0014L0.9498,-0.0116L0.8996,-0.0218L0.7992,-0.0429L0.6988,-0.063L0.5985,-0.0802L0.4982,-0.0963L0.398,-0.1072L0.2979,-0.112L0.198,-0.1057L0.1482,-0.0987L0.0984,-0.0843L0.0736,-0.0744L0.0489,-0.06L0.0243,-0.0389L0.012,-0.0248L0,-0L0.0128,0.017L0.0254,0.0195L0.0503,0.0163L0.0752,0.0096L0.1001,0.0042L0.1499,-0.0051L0.1998,-0.0116L0.2997,-0.019L0.3996,-0.0208L0.4996,-0.0205L0.5997,-0.0187L0.6997,-0.0153L0.7998,-0.0109L0.8999,-0.0042L0.95,-0.0012L1,0.0014"
    />
</svg>
