
<svg 
  class="airfoil-goe256"
  fill="none"
  stroke="black" 
  stroke-width="1"
  style="overflow:visible"
  viewBox="0, -0.1259, 1, 0.1624"
  xmlns="http://www.w3.org/2000/svg">
    <title>GOE 256 (JUNKERS E) AIRFOIL</title>
    <path 
      vector-effect="non-scaling-stroke"
      d="M1,-0.0012L0.9495,-0.0174L0.899,-0.0324L0.7981,-0.0614L0.6973,-0.0865L0.5967,-0.1072L0.4963,-0.1197L0.3961,-0.1259L0.2961,-0.1252L0.1965,-0.1129L0.1469,-0.1001L0.0974,-0.083L0.0728,-0.072L0.0482,-0.0575L0.0238,-0.0375L0.0117,-0.0249L0,-0L0.0132,0.0221L0.0259,0.0284L0.051,0.0334L0.0761,0.0348L0.1011,0.0356L0.1511,0.0363L0.2011,0.0365L0.3011,0.0346L0.401,0.0315L0.5009,0.0283L0.6008,0.0252L0.7007,0.0221L0.8006,0.019L0.9004,0.0121L0.9502,0.0064L1,0.0012"
    />
</svg>
