
<svg 
  class="airfoil-goe277"
  fill="none"
  stroke="black" 
  stroke-width="1"
  style="overflow:visible"
  viewBox="0, -0.0856, 1, 0.096"
  xmlns="http://www.w3.org/2000/svg">
    <title>GOE 277 (DAIMLER VIII) AIRFOIL</title>
    <path 
      vector-effect="non-scaling-stroke"
      d="M1,-0.0016L0.9499,-0.0117L0.8998,-0.0214L0.7997,-0.0391L0.6995,-0.0533L0.5994,-0.0663L0.4993,-0.0762L0.3993,-0.0832L0.2992,-0.0856L0.1993,-0.0814L0.1493,-0.0735L0.0994,-0.0609L0.0745,-0.0527L0.0496,-0.0428L0.0247,-0.0283L0.0123,-0.0185L0,-0L0.0126,0.0095L0.0251,0.0104L0.0501,0.0091L0.0751,0.0077L0.1001,0.0064L0.15,0.0037L0.2,0.0015L0.3,-0.0022L0.4,-0.0038L0.5,-0.0047L0.6,-0.0044L0.7,-0.0034L0.8,-0.0022L0.9,-0.0007L0.95,0.0005L1,0.0016"
    />
</svg>
