
<svg 
  class="airfoil-goe282"
  fill="none"
  stroke="black" 
  stroke-width="1"
  style="overflow:visible"
  viewBox="0, -0.0947, 1, 0.1098"
  xmlns="http://www.w3.org/2000/svg">
    <title>GOE 282 (DAIMLER XIII) AIRFOIL</title>
    <path 
      vector-effect="non-scaling-stroke"
      d="M1,-0.0032L0.9498,-0.0166L0.8996,-0.0282L0.7994,-0.0489L0.6992,-0.0647L0.599,-0.0779L0.4989,-0.0874L0.3988,-0.0941L0.2988,-0.0947L0.1989,-0.0878L0.149,-0.0807L0.0991,-0.0678L0.0742,-0.0589L0.0494,-0.0483L0.0246,-0.0325L0.0123,-0.019L0,-0L0.0126,0.01L0.0252,0.0129L0.0502,0.0146L0.0752,0.0151L0.1002,0.0139L0.1501,0.0088L0.2,0.0033L0.3,-0.004L0.3999,-0.0063L0.4999,-0.0076L0.5999,-0.0077L0.6999,-0.0063L0.8,-0.0039L0.9,-0.0005L0.95,0.0013L1,0.0032"
    />
</svg>
