
<svg 
  class="airfoil-goe269"
  fill="none"
  stroke="black" 
  stroke-width="1"
  style="overflow:visible"
  viewBox="0, -0.0825, 1, 0.096"
  xmlns="http://www.w3.org/2000/svg">
    <title>GOE 269 AIRFOIL</title>
    <path 
      vector-effect="non-scaling-stroke"
      d="M1,-0.0029L0.9499,-0.0118L0.8998,-0.0197L0.7996,-0.0365L0.6994,-0.0512L0.5992,-0.0643L0.4991,-0.0752L0.399,-0.0809L0.299,-0.0825L0.1991,-0.0765L0.1492,-0.0691L0.0993,-0.0585L0.0744,-0.0515L0.0495,-0.042L0.0247,-0.0288L0.0123,-0.0192L0,-0L0.0127,0.0116L0.0252,0.0135L0.0501,0.0113L0.0751,0.006L0.1,0.0017L0.1499,-0.0058L0.1999,-0.0114L0.2998,-0.0166L0.3998,-0.0196L0.4998,-0.0203L0.5998,-0.0182L0.6998,-0.0143L0.7999,-0.0085L0.9,-0.0022L0.95,0.0003L1,0.0029"
    />
</svg>
