
<svg 
  class="airfoil-goe289"
  fill="none"
  stroke="black" 
  stroke-width="1"
  style="overflow:visible"
  viewBox="0, -0.1417, 1, 0.1761"
  xmlns="http://www.w3.org/2000/svg">
    <title>GOE 289 (MVA 289) AIRFOIL</title>
    <path 
      vector-effect="non-scaling-stroke"
      d="M1,-0L0.95,-0.0175L0.9,-0.0329L0.8,-0.0629L0.7,-0.0888L0.6,-0.1118L0.5,-0.1293L0.4,-0.1402L0.3,-0.1417L0.2,-0.1291L0.15,-0.1141L0.1,-0.0916L0.075,-0.077L0.05,-0.0605L0.025,-0.039L0.0125,-0.026L0,-0L0.0125,0.0195L0.025,0.0245L0.05,0.0305L0.075,0.0335L0.1,0.0344L0.15,0.0339L0.2,0.0324L0.3,0.0264L0.4,0.0178L0.5,0.0117L0.6,0.0067L0.7,0.0026L0.8,0.0006L0.9,0L0.95,0.0005L1,-0"
    />
</svg>
