
<svg 
  class="airfoil-goe233"
  fill="none"
  stroke="black" 
  stroke-width="1"
  style="overflow:visible"
  viewBox="0, -0.1194, 1, 0.1404"
  xmlns="http://www.w3.org/2000/svg">
    <title>GOE 233 (MVA CA4) AIRFOIL</title>
    <path 
      vector-effect="non-scaling-stroke"
      d="M1,-0.0016L0.9496,-0.0165L0.8993,-0.0314L0.7987,-0.0585L0.6982,-0.0821L0.5978,-0.1005L0.4975,-0.1139L0.3974,-0.1194L0.2975,-0.1167L0.1978,-0.1033L0.148,-0.0929L0.0983,-0.0768L0.0736,-0.066L0.0488,-0.0532L0.0242,-0.0371L0.0119,-0.0266L0,-0L0.0128,0.0121L0.0253,0.0149L0.0504,0.0195L0.0755,0.0206L0.1005,0.021L0.1504,0.0178L0.2003,0.0127L0.2998,-0.007L0.3993,-0.0333L0.4989,-0.0505L0.5988,-0.0568L0.6988,-0.0538L0.7991,-0.0405L0.8996,-0.0205L0.9498,-0.0093L1,0.0016"
    />
</svg>
