
<svg 
  class="airfoil-goe223"
  fill="none"
  stroke="black" 
  stroke-width="1"
  style="overflow:visible"
  viewBox="0, -0.1439, 1, 0.1922"
  xmlns="http://www.w3.org/2000/svg">
    <title>GOE 223 (MVA H.34) AIRFOIL</title>
    <path 
      vector-effect="non-scaling-stroke"
      d="M1,-0.001L0.9489,-0.0172L0.8977,-0.0349L0.7956,-0.0671L0.6938,-0.0961L0.5923,-0.1187L0.4913,-0.1339L0.3907,-0.1439L0.2908,-0.1416L0.1917,-0.1255L0.1427,-0.1128L0.094,-0.0916L0.0698,-0.08L0.046,-0.0623L0.0225,-0.0393L0.0109,-0.0247L0,-0L0.0135,0.0151L0.0263,0.0198L0.0518,0.0276L0.0772,0.0335L0.1024,0.0373L0.1529,0.0444L0.2031,0.0483L0.303,0.0463L0.4022,0.0339L0.5012,0.0184L0.6003,0.0043L0.6995,-0.007L0.7993,-0.011L0.8995,-0.008L0.9498,-0.0037L1,0.001"
    />
</svg>
