
<svg 
  class="airfoil-goe217"
  fill="none"
  stroke="black" 
  stroke-width="1"
  style="overflow:visible"
  viewBox="0, -0.1493, 1, 0.197"
  xmlns="http://www.w3.org/2000/svg">
    <title>GOE 217 (MVA MK.12) AIRFOIL</title>
    <path 
      vector-effect="non-scaling-stroke"
      d="M1,-0.0037L0.9489,-0.0204L0.8981,-0.0346L0.7965,-0.0624L0.6951,-0.088L0.5938,-0.1111L0.4927,-0.1305L0.3919,-0.1447L0.2917,-0.1493L0.1923,-0.1387L0.1429,-0.128L0.0938,-0.1115L0.0695,-0.0994L0.0454,-0.083L0.0216,-0.0617L0.01,-0.0441L0,-0L0.0136,0.0197L0.0264,0.0243L0.0517,0.0311L0.0771,0.037L0.1023,0.042L0.1527,0.0477L0.2026,0.0475L0.3022,0.0398L0.4014,0.0246L0.5002,0.0039L0.5991,-0.0164L0.6983,-0.0305L0.7985,-0.0271L0.8993,-0.0132L0.9497,-0.0047L1,0.0037"
    />
</svg>
