
<svg 
  class="airfoil-goe241"
  fill="none"
  stroke="black" 
  stroke-width="1"
  style="overflow:visible"
  viewBox="0, -0.1688, 1, 0.19659999"
  xmlns="http://www.w3.org/2000/svg">
    <title>GOE 241 (MVA PR.1) AIRFOIL</title>
    <path 
      vector-effect="non-scaling-stroke"
      d="M1,-0.002L0.9493,-0.0224L0.8986,-0.0427L0.7975,-0.0787L0.6964,-0.1106L0.5956,-0.1365L0.495,-0.1552L0.3946,-0.167L0.2946,-0.1688L0.195,-0.1549L0.1454,-0.1419L0.0962,-0.1189L0.0717,-0.1033L0.0473,-0.0846L0.0232,-0.0573L0.0113,-0.0382L0,-0L0.013,0.0153L0.0256,0.0196L0.0507,0.0224L0.0758,0.0243L0.1008,0.0258L0.1509,0.0278L0.2009,0.0277L0.3006,0.0195L0.4002,0.0048L0.4996,-0.0131L0.599,-0.0295L0.6988,-0.0357L0.7989,-0.0333L0.8994,-0.02L0.9497,-0.0089L1,0.002"
    />
</svg>
