
<svg 
  class="airfoil-goe227"
  fill="none"
  stroke="black" 
  stroke-width="1"
  style="overflow:visible"
  viewBox="0, -0.1406, 1, 0.1674"
  xmlns="http://www.w3.org/2000/svg">
    <title>GOE 227 (MVA H.37) AIRFOIL</title>
    <path 
      vector-effect="non-scaling-stroke"
      d="M1,-0.003L0.9,-0.0381L0.8,-0.0692L0.7,-0.0973L0.6,-0.1184L0.5,-0.1355L0.4,-0.1406L0.3,-0.1377L0.25,-0.1322L0.2,-0.1228L0.15,-0.1084L0.1,-0.0879L0.075,-0.0752L0.05,-0.0584L0.025,-0.0377L0.0125,-0.0254L0,-0L0.0125,0.0166L0.025,0.0223L0.05,0.0266L0.075,0.0268L0.1,0.0261L0.15,0.0226L0.2,0.0192L0.25,0.0137L0.3,0.0063L0.4,-0.0086L0.5,-0.0215L0.6,-0.0314L0.7,-0.0343L0.8,-0.0322L0.9,-0.0201L1,-0"
    />
</svg>
