
<svg 
  class="airfoil-goe288"
  fill="none"
  stroke="black" 
  stroke-width="1"
  style="overflow:visible"
  viewBox="0, -0.1365, 1, 0.182"
  xmlns="http://www.w3.org/2000/svg">
    <title>GOE 288 AIRFOIL</title>
    <path 
      vector-effect="non-scaling-stroke"
      d="M1,-0.003L0.949,-0.0185L0.8983,-0.0329L0.7969,-0.0599L0.6956,-0.084L0.5945,-0.1052L0.4935,-0.1234L0.3929,-0.1353L0.2928,-0.1365L0.1934,-0.1266L0.1441,-0.1134L0.0952,-0.0922L0.0709,-0.0784L0.0467,-0.0624L0.0228,-0.0414L0.0111,-0.0273L0,-0L0.0137,0.0234L0.0266,0.0298L0.052,0.0373L0.0772,0.0418L0.1023,0.044L0.1524,0.0455L0.2023,0.0447L0.3019,0.0366L0.4012,0.0237L0.5007,0.0126L0.6002,0.0045L0.7,-0.0001L0.7999,-0.0013L0.9,-0.0006L0.95,0.001L1,0.003"
    />
</svg>
