
<svg 
  class="airfoil-goe225"
  fill="none"
  stroke="black" 
  stroke-width="1"
  style="overflow:visible"
  viewBox="0, -0.1306, 1, 0.1539"
  xmlns="http://www.w3.org/2000/svg">
    <title>GOE 225 (MVA H.35) AIRFOIL</title>
    <path 
      vector-effect="non-scaling-stroke"
      d="M1,-0.003L0.9495,-0.0204L0.8992,-0.0368L0.7985,-0.0677L0.6979,-0.0949L0.5975,-0.1127L0.4973,-0.124L0.3971,-0.1306L0.2972,-0.1285L0.1975,-0.1147L0.1478,-0.1027L0.0981,-0.0853L0.0734,-0.0732L0.0487,-0.0578L0.0241,-0.0398L0.0119,-0.0279L0,-0L0.0128,0.0154L0.0254,0.0193L0.0505,0.023L0.0755,0.0233L0.1005,0.0217L0.1504,0.0183L0.2003,0.0132L0.3,-0.0016L0.3997,-0.0159L0.4994,-0.0288L0.5992,-0.0367L0.6992,-0.0364L0.7994,-0.0286L0.8997,-0.0148L0.9499,-0.0065L1,0.003"
    />
</svg>
