
<svg 
  class="airfoil-goe281"
  fill="none"
  stroke="black" 
  stroke-width="1"
  style="overflow:visible"
  viewBox="0, -0.0851, 1, 0.0935"
  xmlns="http://www.w3.org/2000/svg">
    <title>GOE 281 (DAIMLER XII) AIRFOIL</title>
    <path 
      vector-effect="non-scaling-stroke"
      d="M1,-0.0026L0.9499,-0.0128L0.8999,-0.0233L0.7998,-0.0412L0.6997,-0.0564L0.5996,-0.0688L0.4995,-0.0791L0.3995,-0.0839L0.2995,-0.0851L0.1995,-0.0784L0.1496,-0.0718L0.0996,-0.0608L0.0747,-0.0533L0.0498,-0.0426L0.0248,-0.0267L0.0124,-0.0166L0,-0L0.0126,0.0084L0.025,0.0074L0.05,0.0056L0.075,0.0041L0.1,0.0029L0.15,0.0005L0.2,-0.0013L0.3,-0.0047L0.4,-0.0071L0.4999,-0.0077L0.6,-0.0075L0.7,-0.0051L0.8,-0.0022L0.9,0.0001L0.95,0.0017L1,0.0026"
    />
</svg>
