
<svg 
  class="airfoil-goe222"
  fill="none"
  stroke="black" 
  stroke-width="1"
  style="overflow:visible"
  viewBox="0, -0.1535, 1, 0.1967"
  xmlns="http://www.w3.org/2000/svg">
    <title>GOE 222 (MVA H.33) AIRFOIL</title>
    <path 
      vector-effect="non-scaling-stroke"
      d="M1,-0.0015L0.9487,-0.0236L0.8976,-0.045L0.7956,-0.0816L0.6941,-0.1101L0.5928,-0.1342L0.4921,-0.1478L0.3918,-0.1535L0.2919,-0.1506L0.1929,-0.1331L0.1436,-0.1192L0.0948,-0.0981L0.0705,-0.0838L0.0465,-0.065L0.0227,-0.0432L0.011,-0.0286L0,-0L0.0134,0.0168L0.0262,0.0226L0.0516,0.0297L0.0769,0.0356L0.1021,0.039L0.1523,0.0428L0.2023,0.0432L0.3018,0.0338L0.401,0.0181L0.5002,0.0032L0.5995,-0.0091L0.6992,-0.0149L0.7992,-0.0151L0.8994,-0.0106L0.9497,-0.0058L1,0.0015"
    />
</svg>
