
<svg 
  class="airfoil-goe279"
  fill="none"
  stroke="black" 
  stroke-width="1"
  style="overflow:visible"
  viewBox="0, -0.0842, 1, 0.0899"
  xmlns="http://www.w3.org/2000/svg">
    <title>GOE 279 (DAIMLER X) AIRFOIL</title>
    <path 
      vector-effect="non-scaling-stroke"
      d="M1,-0.0019L0.9499,-0.0136L0.8999,-0.0243L0.7998,-0.0434L0.6998,-0.0594L0.5997,-0.0702L0.4997,-0.0786L0.3997,-0.0837L0.2997,-0.0842L0.1997,-0.0796L0.1497,-0.0731L0.0998,-0.0625L0.0748,-0.0556L0.0498,-0.0455L0.0249,-0.032L0.0124,-0.0236L0,-0L0.0125,0.0057L0.025,0.0051L0.05,0.0015L0.075,-0.0007L0.1,-0.0027L0.15,-0.0053L0.2,-0.0076L0.3,-0.0099L0.4,-0.0108L0.5,-0.0099L0.6,-0.0086L0.7,-0.007L0.8,-0.0051L0.9,-0.0022L0.95,-0.0005L1,0.0019"
    />
</svg>
