
<svg 
  class="airfoil-goe240"
  fill="none"
  stroke="black" 
  stroke-width="1"
  style="overflow:visible"
  viewBox="0, -0.0853, 1, 0.0938"
  xmlns="http://www.w3.org/2000/svg">
    <title>GOE 240 (KOLLER) AIRFOIL</title>
    <path 
      vector-effect="non-scaling-stroke"
      d="M1,-0.0011L0.9499,-0.0119L0.8998,-0.0233L0.7997,-0.0402L0.6996,-0.0565L0.5995,-0.0708L0.4994,-0.0796L0.3994,-0.0853L0.2994,-0.0851L0.1994,-0.0785L0.1495,-0.0711L0.0996,-0.0606L0.0746,-0.053L0.0497,-0.0415L0.0248,-0.0285L0.0124,-0.0182L0,-0L0.0126,0.0085L0.0251,0.0084L0.0501,0.0071L0.075,0.0037L0.1,0.0003L0.15,-0.0043L0.1999,-0.0089L0.2999,-0.015L0.3999,-0.0179L0.4999,-0.0177L0.5999,-0.0157L0.6999,-0.0116L0.8,-0.007L0.9,-0.0025L0.95,-0.0006L1,0.0011"
    />
</svg>
