
<svg 
  class="airfoil-goe235"
  fill="none"
  stroke="black" 
  stroke-width="1"
  style="overflow:visible"
  viewBox="0, -0.0674, 1, 0.084"
  xmlns="http://www.w3.org/2000/svg">
    <title>GOE 235 (SCHUETTE-LANZ) AIRFOIL</title>
    <path 
      vector-effect="non-scaling-stroke"
      d="M1,-0.0016L0.9499,-0.0077L0.8998,-0.015L0.7996,-0.0277L0.6994,-0.0417L0.5992,-0.0523L0.499,-0.062L0.399,-0.0662L0.299,-0.0674L0.199,-0.0632L0.1491,-0.0598L0.0992,-0.0526L0.0743,-0.0453L0.0494,-0.037L0.0246,-0.0265L0.0122,-0.0204L0,-0L0.0127,0.0157L0.0253,0.0166L0.0502,0.013L0.0752,0.0105L0.1001,0.0086L0.1501,0.0051L0.2,0.0022L0.3,-0.0025L0.3999,-0.0046L0.4999,-0.004L0.6,-0.0028L0.7,-0.0018L0.8,-0.0012L0.9,-0.0001L0.95,0.0011L1,0.0016"
    />
</svg>
