
<svg 
  class="airfoil-goe285"
  fill="none"
  stroke="black" 
  stroke-width="1"
  style="overflow:visible"
  viewBox="0, -0.0958, 1, 0.1224"
  xmlns="http://www.w3.org/2000/svg">
    <title>GOE 285 AIRFOIL</title>
    <path 
      vector-effect="non-scaling-stroke"
      d="M1,-0.003L0.95,-0.0147L0.9,-0.0249L0.8,-0.0432L0.7,-0.0603L0.6,-0.0744L0.5,-0.0861L0.4,-0.0931L0.3,-0.0958L0.25,-0.0942L0.2,-0.0905L0.15,-0.0837L0.1,-0.0696L0.075,-0.0607L0.05,-0.0496L0.025,-0.0344L0.0125,-0.0251L0,-0L0.0125,0.0168L0.025,0.0211L0.05,0.0254L0.075,0.0265L0.1,0.0266L0.15,0.0253L0.2,0.0241L0.25,0.0228L0.3,0.0215L0.4,0.0189L0.5,0.0163L0.6,0.0138L0.7,0.0112L0.8,0.0086L0.9,0.0052L0.95,0.0028L1,-0"
    />
</svg>
