
<svg 
  class="airfoil-goe298"
  fill="none"
  stroke="black" 
  stroke-width="1"
  style="overflow:visible"
  viewBox="0, -0.104, 1, 0.1452"
  xmlns="http://www.w3.org/2000/svg">
    <title>GOE 298 AIRFOIL</title>
    <path 
      vector-effect="non-scaling-stroke"
      d="M1,-0.003L0.9495,-0.0128L0.8991,-0.0219L0.7982,-0.0431L0.6973,-0.0627L0.5967,-0.0809L0.4961,-0.0945L0.3957,-0.104L0.2957,-0.104L0.196,-0.0988L0.1462,-0.0913L0.0968,-0.0789L0.0721,-0.0704L0.0476,-0.0582L0.0233,-0.04L0.0113,-0.0283L0,-0L0.0136,0.026L0.0264,0.0338L0.0517,0.0403L0.0767,0.0412L0.1016,0.039L0.1514,0.034L0.2012,0.029L0.3008,0.0201L0.4005,0.013L0.5004,0.0095L0.6003,0.007L0.7002,0.0055L0.8002,0.0041L0.9001,0.0024L0.9501,0.002L1,0.003"
    />
</svg>
