
<svg 
  class="airfoil-goe255"
  fill="none"
  stroke="black" 
  stroke-width="1"
  style="overflow:visible"
  viewBox="0, -0.1388, 1, 0.19049999"
  xmlns="http://www.w3.org/2000/svg">
    <title>GOE 255 (MVA CA.6) AIRFOIL</title>
    <path 
      vector-effect="non-scaling-stroke"
      d="M1,-0.0025L0.9487,-0.0189L0.8975,-0.0364L0.7955,-0.0648L0.6937,-0.0911L0.5921,-0.1142L0.491,-0.13L0.3904,-0.1388L0.2907,-0.1343L0.1916,-0.1215L0.1425,-0.1081L0.0938,-0.0897L0.0697,-0.077L0.0457,-0.0614L0.0223,-0.0388L0.0109,-0.0239L0,-0L0.0135,0.0147L0.0265,0.0222L0.0522,0.0322L0.0777,0.0387L0.103,0.0437L0.1534,0.0494L0.2036,0.0517L0.3035,0.0508L0.4029,0.0414L0.5022,0.032L0.6016,0.0233L0.7011,0.0157L0.8007,0.0098L0.9004,0.0059L0.9503,0.0039L1,0.0025"
    />
</svg>
