
<svg 
  class="airfoil-goe278"
  fill="none"
  stroke="black" 
  stroke-width="1"
  style="overflow:visible"
  viewBox="0, -0.0798, 1, 0.088"
  xmlns="http://www.w3.org/2000/svg">
    <title>GOE 278 (DAIMLER IX) AIRFOIL</title>
    <path 
      vector-effect="non-scaling-stroke"
      d="M1,-0.001L0.9499,-0.0116L0.8999,-0.0212L0.7997,-0.0392L0.6996,-0.0541L0.5995,-0.0648L0.4995,-0.0734L0.3994,-0.0785L0.2994,-0.0798L0.1995,-0.0755L0.1495,-0.0683L0.0996,-0.0575L0.0746,-0.0495L0.0497,-0.0396L0.0248,-0.0278L0.0124,-0.0204L0,-0L0.0126,0.0082L0.0251,0.0076L0.05,0.0048L0.075,0.0021L0.1,-0.0002L0.15,-0.0027L0.2,-0.0036L0.3,-0.0054L0.4,-0.0061L0.5,-0.0062L0.6,-0.006L0.7,-0.0046L0.8,-0.0027L0.9,-0.0004L0.95,0.0004L1,0.001"
    />
</svg>
