
<svg 
  class="airfoil-goe290"
  fill="none"
  stroke="black" 
  stroke-width="1"
  style="overflow:visible"
  viewBox="0, -0.1247, 1, 0.1776"
  xmlns="http://www.w3.org/2000/svg">
    <title>GOE 290 (MVA 290) AIRFOIL</title>
    <path 
      vector-effect="non-scaling-stroke"
      d="M1,-0.003L0.9489,-0.0155L0.898,-0.0287L0.7965,-0.051L0.695,-0.0725L0.5937,-0.0918L0.4926,-0.1087L0.3916,-0.1221L0.2915,-0.1247L0.1922,-0.1143L0.1429,-0.1039L0.0942,-0.085L0.0699,-0.0739L0.046,-0.0586L0.0223,-0.039L0.0106,-0.0281L0,-0L0.0141,0.0228L0.0271,0.0302L0.0526,0.038L0.0779,0.0423L0.1031,0.0459L0.1534,0.0502L0.2036,0.0529L0.3035,0.0506L0.403,0.0438L0.5025,0.037L0.6021,0.0302L0.7016,0.0234L0.8011,0.0166L0.9007,0.0098L0.9504,0.0064L1,0.003"
    />
</svg>
