
<svg 
  class="airfoil-goe265"
  fill="none"
  stroke="black" 
  stroke-width="1"
  style="overflow:visible"
  viewBox="0, -0.107, 1, 0.1168"
  xmlns="http://www.w3.org/2000/svg">
    <title>GOE 265 AIRFOIL</title>
    <path 
      vector-effect="non-scaling-stroke"
      d="M1,-0.001L0.9499,-0.0118L0.8998,-0.0215L0.7996,-0.0417L0.6995,-0.0603L0.5993,-0.0781L0.4992,-0.093L0.3991,-0.1036L0.299,-0.107L0.1991,-0.1013L0.1492,-0.0923L0.0993,-0.0779L0.0744,-0.069L0.0495,-0.0564L0.0247,-0.039L0.0123,-0.0266L0,-0L0.0126,0.0083L0.0251,0.0098L0.0501,0.0076L0.075,0.0023L0.1,-0.004L0.1499,-0.0159L0.1998,-0.0253L0.2997,-0.0377L0.3996,-0.0416L0.4996,-0.04L0.5997,-0.0347L0.6998,-0.0267L0.7998,-0.0172L0.8999,-0.0074L0.95,-0.0027L1,0.001"
    />
</svg>
