
<svg 
  class="airfoil-goe244"
  fill="none"
  stroke="black" 
  stroke-width="1"
  style="overflow:visible"
  viewBox="0, -0.1755, 1, 0.1974"
  xmlns="http://www.w3.org/2000/svg">
    <title>GOE 244 (MVA PR.4) AIRFOIL</title>
    <path 
      vector-effect="non-scaling-stroke"
      d="M1,-0.001L0.9495,-0.0231L0.899,-0.046L0.7981,-0.0866L0.6974,-0.1201L0.5968,-0.1461L0.4964,-0.1644L0.3962,-0.1737L0.2961,-0.1755L0.1964,-0.1635L0.1467,-0.1482L0.0972,-0.127L0.0725,-0.1126L0.048,-0.0929L0.0236,-0.0635L0.0116,-0.0408L0,-0L0.0129,0.0169L0.0254,0.0194L0.0505,0.0219L0.0755,0.0213L0.1005,0.0208L0.1504,0.0188L0.2003,0.0128L0.2999,-0.0026L0.3996,-0.0186L0.4992,-0.0358L0.599,-0.0477L0.6988,-0.0524L0.799,-0.0471L0.8994,-0.0283L0.9497,-0.0139L1,0.001"
    />
</svg>
