
<svg 
  class="airfoil-goe386"
  fill="none"
  stroke="black" 
  stroke-width="1"
  style="overflow:visible"
  viewBox="0, -0.153, 1, 0.20879999"
  xmlns="http://www.w3.org/2000/svg">
    <title>GOE 386 AIRFOIL</title>
    <path 
      vector-effect="non-scaling-stroke"
      d="M1,-0.0016L0.9487,-0.0189L0.8976,-0.0355L0.7954,-0.0674L0.6936,-0.095L0.592,-0.118L0.4906,-0.1384L0.3897,-0.1518L0.2896,-0.153L0.1903,-0.1428L0.1412,-0.1296L0.0926,-0.1089L0.0685,-0.0953L0.0448,-0.0769L0.0214,-0.0531L0.0101,-0.0359L0,-0L0.0145,0.0289L0.0276,0.0382L0.0532,0.0466L0.0784,0.0502L0.1037,0.0539L0.1538,0.0558L0.2037,0.0543L0.3033,0.0488L0.4029,0.0421L0.5024,0.0353L0.6019,0.0286L0.7015,0.0218L0.801,0.0151L0.9006,0.0083L0.9503,0.005L1,0.0016"
    />
</svg>
