
<svg 
  class="airfoil-goe383"
  fill="none"
  stroke="black" 
  stroke-width="1"
  style="overflow:visible"
  viewBox="0, -0.15, 1, 0.2025"
  xmlns="http://www.w3.org/2000/svg">
    <title>GOE 383 AIRFOIL</title>
    <path 
      vector-effect="non-scaling-stroke"
      d="M1,-0.0016L0.9486,-0.0161L0.8971,-0.0329L0.7943,-0.0641L0.6918,-0.0923L0.5896,-0.1173L0.4877,-0.138L0.3868,-0.1487L0.2867,-0.15L0.1879,-0.1364L0.1391,-0.123L0.0909,-0.1023L0.0672,-0.0879L0.0436,-0.072L0.0204,-0.0518L0.0091,-0.0381L0,-0L0.0148,0.0258L0.0279,0.032L0.0535,0.0388L0.0789,0.044L0.1042,0.0472L0.1545,0.0506L0.2047,0.0525L0.3046,0.0516L0.4043,0.0486L0.5039,0.0436L0.6033,0.0368L0.7025,0.028L0.8017,0.0192L0.9009,0.0104L0.9505,0.006L1,0.0016"
    />
</svg>
