
<svg 
  class="airfoil-goe328"
  fill="none"
  stroke="black" 
  stroke-width="1"
  style="overflow:visible"
  viewBox="0, -0.0845, 1, 0.0991"
  xmlns="http://www.w3.org/2000/svg">
    <title>GOE 328 AIRFOIL</title>
    <path 
      vector-effect="non-scaling-stroke"
      d="M1,-0.005L0.95,-0.0132L0.9,-0.0215L0.8,-0.038L0.7,-0.0535L0.6,-0.067L0.5,-0.0775L0.4,-0.083L0.3,-0.0845L0.2,-0.078L0.15,-0.0702L0.1,-0.0565L0.075,-0.0481L0.05,-0.0377L0.025,-0.0254L0.0125,-0.0172L0,-0L0.0125,0.0138L0.025,0.0146L0.05,0.0122L0.075,0.0099L0.1,0.0075L0.15,0.0037L0.2,0.001L0.3,-0.0025L0.4,-0.004L0.5,-0.0045L0.6,-0.004L0.7,-0.003L0.8,-0.002L0.9,-0.001L0.95,-0.0008L1,-0"
    />
</svg>
