
<svg 
  class="airfoil-goe314"
  fill="none"
  stroke="black" 
  stroke-width="1"
  style="overflow:visible"
  viewBox="0, -0.0871, 1, 0.1014"
  xmlns="http://www.w3.org/2000/svg">
    <title>GOE 314 (HANSA-BRANDENBURG) AIRFOIL</title>
    <path 
      vector-effect="non-scaling-stroke"
      d="M1,-0L0.9499,-0.0104L0.8997,-0.019L0.7995,-0.0349L0.6993,-0.0506L0.5991,-0.0641L0.4989,-0.0746L0.3988,-0.0827L0.2987,-0.0871L0.1988,-0.0835L0.1489,-0.077L0.099,-0.0655L0.0742,-0.0559L0.0494,-0.0439L0.0246,-0.0307L0.0121,-0.0205L0,-0L0.0127,0.013L0.0252,0.0143L0.0501,0.0108L0.0751,0.0073L0.1001,0.0037L0.15,-0.0007L0.1999,-0.004L0.2999,-0.0067L0.3999,-0.007L0.4999,-0.0058L0.5999,-0.0046L0.7,-0.0019L0.8,-0.0003L0.9005,0.001L0.95,0.0002L1,-0"
    />
</svg>
