
<svg 
  class="airfoil-goe381"
  fill="none"
  stroke="black" 
  stroke-width="1"
  style="overflow:visible"
  viewBox="0, -0.0895, 1, 0.0948"
  xmlns="http://www.w3.org/2000/svg">
    <title>GOE 381 AIRFOIL</title>
    <path 
      vector-effect="non-scaling-stroke"
      d="M1,-0.0008L0.9499,-0.0104L0.8999,-0.0203L0.7998,-0.0399L0.6997,-0.057L0.5997,-0.0704L0.4996,-0.0807L0.3996,-0.0883L0.2996,-0.0895L0.1996,-0.0837L0.1496,-0.0774L0.0997,-0.0654L0.0747,-0.0571L0.0498,-0.0434L0.0249,-0.0271L0.0124,-0.0163L0,-0L0.0125,0.0053L0.025,0.0039L0.05,-0.0002L0.075,-0.0057L0.1,-0.0116L0.1499,-0.0196L0.1999,-0.0225L0.2999,-0.0257L0.3999,-0.0261L0.4999,-0.0239L0.5999,-0.0196L0.6999,-0.0143L0.8,-0.0097L0.9,-0.0041L0.95,-0.0017L1,0.0008"
    />
</svg>
