
<svg 
  class="airfoil-goe309"
  fill="none"
  stroke="black" 
  stroke-width="1"
  style="overflow:visible"
  viewBox="0, -0.0889, 1, 0.0996"
  xmlns="http://www.w3.org/2000/svg">
    <title>GOE 309 (MVA H.41) AIRFOIL</title>
    <path 
      vector-effect="non-scaling-stroke"
      d="M1,-0.002L0.95,-0.0102L0.9,-0.0196L0.8,-0.0365L0.7,-0.0525L0.6,-0.0675L0.5001,-0.0791L0.4001,-0.0866L0.3001,-0.0889L0.2001,-0.0821L0.15,-0.0748L0.1,-0.0633L0.075,-0.0543L0.05,-0.0431L0.025,-0.0265L0.0125,-0.0159L0,-0L0.0125,0.0085L0.025,0.0101L0.05,0.0103L0.075,0.0091L0.1,0.0065L0.15,0.0027L0.2,-0.0001L0.3,-0.0046L0.4,-0.0026L0.5,0.0018L0.6,0.0068L0.7,0.0102L0.8,0.0107L0.9,0.0075L0.95,0.0049L1,0.002"
    />
</svg>
