
<svg 
  class="airfoil-goe342"
  fill="none"
  stroke="black" 
  stroke-width="1"
  style="overflow:visible"
  viewBox="0, -0.0872, 1, 0.0951"
  xmlns="http://www.w3.org/2000/svg">
    <title>GOE 342 AIRFOIL</title>
    <path 
      vector-effect="non-scaling-stroke"
      d="M1,-0.003L0.9,-0.0262L0.8,-0.0464L0.7,-0.0636L0.6,-0.0778L0.5,-0.085L0.4,-0.0872L0.3,-0.0854L0.2,-0.0786L0.15,-0.0702L0.1,-0.0578L0.075,-0.0506L0.05,-0.0414L0.025,-0.0292L0.0125,-0.0201L0,-0L0.0125,0.0079L0.025,0.0058L0.05,-0.0004L0.075,-0.0046L0.1,-0.0098L0.15,-0.0177L0.2,-0.0246L0.3,-0.0334L0.4,-0.0372L0.5,-0.0375L0.6,-0.0358L0.7,-0.0306L0.8,-0.0224L0.9,-0.0122L1,-0"
    />
</svg>
