
<svg 
  class="airfoil-goe310"
  fill="none"
  stroke="black" 
  stroke-width="1"
  style="overflow:visible"
  viewBox="0, -0.0867, 1, 0.1018"
  xmlns="http://www.w3.org/2000/svg">
    <title>GOE 310 (MVA H.42) AIRFOIL</title>
    <path 
      vector-effect="non-scaling-stroke"
      d="M1,-0L0.9499,-0.0111L0.8998,-0.0211L0.7996,-0.0407L0.6994,-0.0566L0.5993,-0.0698L0.4992,-0.0804L0.3991,-0.0867L0.2991,-0.0857L0.1992,-0.0766L0.1493,-0.0687L0.0994,-0.0571L0.0745,-0.0484L0.0496,-0.0366L0.0247,-0.026L0.0123,-0.0176L0,-0L0.0126,0.0095L0.0251,0.0108L0.0501,0.0138L0.0752,0.0151L0.1001,0.0145L0.1501,0.0106L0.2,0.0043L0.3,-0.0043L0.3999,-0.0095L0.4999,-0.0074L0.6,-0.0011L0.7,0.0032L0.8001,0.0058L0.9001,0.0053L0.95,0.0037L1,-0"
    />
</svg>
