
<svg 
  class="airfoil-goe336"
  fill="none"
  stroke="black" 
  stroke-width="1"
  style="overflow:visible"
  viewBox="0, -0.0988, 1, 0.111200005"
  xmlns="http://www.w3.org/2000/svg">
    <title>GOE 336 (MVA H.44) AIRFOIL</title>
    <path 
      vector-effect="non-scaling-stroke"
      d="M1,-0.0015L0.9499,-0.0125L0.8999,-0.0226L0.7997,-0.0413L0.6997,-0.0578L0.5996,-0.0743L0.4995,-0.0875L0.3994,-0.0967L0.2994,-0.0988L0.1995,-0.0887L0.1495,-0.0802L0.0996,-0.0673L0.0746,-0.0589L0.0497,-0.0473L0.0248,-0.0327L0.0124,-0.0196L0,-0L0.0126,0.011L0.0251,0.0124L0.0501,0.0122L0.0751,0.0098L0.1,0.0064L0.15,0.0008L0.2,-0.0037L0.2999,-0.0093L0.3999,-0.0094L0.5,-0.0059L0.6,-0.0011L0.7,0.0033L0.8,0.0072L0.9,0.0071L0.95,0.0058L1,0.0015"
    />
</svg>
