
<svg 
  class="airfoil-goe397"
  fill="none"
  stroke="black" 
  stroke-width="1"
  style="overflow:visible"
  viewBox="0, -0.0646, 1, 0.072"
  xmlns="http://www.w3.org/2000/svg">
    <title>GOE 397 AIRFOIL</title>
    <path 
      vector-effect="non-scaling-stroke"
      d="M1,-0L0.95,-0.0077L0.9,-0.0148L0.8,-0.0282L0.7,-0.0415L0.6,-0.0524L0.5,-0.0613L0.4,-0.0646L0.3,-0.0635L0.2,-0.0563L0.15,-0.049L0.1,-0.0397L0.075,-0.034L0.05,-0.0273L0.025,-0.0192L0.0125,-0.0131L0,-0L0.0125,0.0074L0.025,0.0073L0.05,0.0052L0.075,0.003L0.1,0.0003L0.15,-0.0045L0.2,-0.0078L0.3,-0.0125L0.4,-0.0146L0.5,-0.0137L0.6,-0.0119L0.7,-0.0086L0.8,-0.0052L0.9,-0.0019L0.95,-0.0002L1,-0"
    />
</svg>
