
<svg 
  class="airfoil-goe308"
  fill="none"
  stroke="black" 
  stroke-width="1"
  style="overflow:visible"
  viewBox="0, -0.0909, 1, 0.101799995"
  xmlns="http://www.w3.org/2000/svg">
    <title>GOE 308 (MVA H.40) AIRFOIL</title>
    <path 
      vector-effect="non-scaling-stroke"
      d="M1,-0L0.9499,-0.0123L0.8999,-0.0228L0.7998,-0.0408L0.6997,-0.0573L0.5996,-0.0706L0.4995,-0.0812L0.3995,-0.088L0.2995,-0.0909L0.1995,-0.0844L0.1496,-0.0762L0.0996,-0.0639L0.0747,-0.0547L0.0498,-0.0428L0.0248,-0.027L0.0124,-0.0176L0,-0L0.0126,0.0093L0.0251,0.0105L0.0501,0.0109L0.0751,0.0095L0.1,0.0058L0.15,0.0004L0.2,-0.0049L0.2999,-0.01L0.3999,-0.0102L0.5,-0.0069L0.6,-0.0035L0.7,0.0002L0.8,0.0052L0.9,0.0043L0.95,0.0024L1,-0"
    />
</svg>
