
<svg 
  class="airfoil-goe393"
  fill="none"
  stroke="black" 
  stroke-width="1"
  style="overflow:visible"
  viewBox="0, -0.071, 1, 0.083900005"
  xmlns="http://www.w3.org/2000/svg">
    <title>GOE 393 AIRFOIL</title>
    <path 
      vector-effect="non-scaling-stroke"
      d="M1,-0.0007L0.9499,-0.006L0.8998,-0.012L0.7997,-0.023L0.6995,-0.0338L0.5994,-0.0458L0.4992,-0.0577L0.3991,-0.067L0.2991,-0.071L0.1991,-0.0674L0.1492,-0.0605L0.0993,-0.0508L0.0744,-0.0445L0.0495,-0.0367L0.0247,-0.0251L0.0123,-0.0172L0,-0L0.0126,0.011L0.0252,0.0129L0.0502,0.0129L0.0751,0.01L0.1001,0.0057L0.15,-0.0015L0.1999,-0.0067L0.2998,-0.0132L0.3998,-0.0148L0.4998,-0.0127L0.5999,-0.0091L0.6999,-0.0053L0.8,-0.0022L0.9,-0L0.95,0.0008L1,0.0007"
    />
</svg>
