
<svg 
  class="airfoil-goe363"
  fill="none"
  stroke="black" 
  stroke-width="1"
  style="overflow:visible"
  viewBox="0, -0.1098, 1, 0.1247"
  xmlns="http://www.w3.org/2000/svg">
    <title>GOE 363 AIRFOIL</title>
    <path 
      vector-effect="non-scaling-stroke"
      d="M1,-0.0005L0.9498,-0.0137L0.8996,-0.0269L0.7992,-0.0503L0.6989,-0.0721L0.5986,-0.0887L0.4984,-0.1001L0.3983,-0.1082L0.2983,-0.1098L0.1984,-0.1051L0.1485,-0.0984L0.0987,-0.0847L0.0738,-0.0752L0.0491,-0.0598L0.0244,-0.039L0.0121,-0.0243L0,-0L0.0126,0.0095L0.0252,0.0119L0.0502,0.0142L0.0752,0.0149L0.1002,0.014L0.1502,0.0095L0.2001,0.0055L0.3,-0.002L0.3999,-0.0062L0.4999,-0.0078L0.5999,-0.0072L0.6999,-0.0066L0.7999,-0.0058L0.9,-0.0033L0.95,-0.0014L1,0.0005"
    />
</svg>
