
<svg 
  class="airfoil-goe303"
  fill="none"
  stroke="black" 
  stroke-width="1"
  style="overflow:visible"
  viewBox="0, -0.1063, 1, 0.118499994"
  xmlns="http://www.w3.org/2000/svg">
    <title>GOE 303 (FRIEDRICHSHAFEN G03) AIRFOIL</title>
    <path 
      vector-effect="non-scaling-stroke"
      d="M1,-0.0022L0.9498,-0.0167L0.8997,-0.0292L0.7995,-0.0527L0.6993,-0.0717L0.5991,-0.0873L0.499,-0.0993L0.3989,-0.1063L0.2989,-0.106L0.199,-0.097L0.1491,-0.0887L0.0992,-0.0745L0.0743,-0.0648L0.0495,-0.053L0.0246,-0.0373L0.0122,-0.0258L0,-0L0.0126,0.0106L0.0251,0.0122L0.0501,0.012L0.0751,0.0099L0.1001,0.0075L0.15,0.0025L0.2,-0.0022L0.2999,-0.0076L0.3999,-0.0113L0.4999,-0.0123L0.5999,-0.0111L0.6999,-0.0088L0.7999,-0.0057L0.9,-0.0012L0.95,0.0012L1,0.0022"
    />
</svg>
