
<svg 
  class="airfoil-goe379"
  fill="none"
  stroke="black" 
  stroke-width="1"
  style="overflow:visible"
  viewBox="0, -0.0846, 1, 0.089"
  xmlns="http://www.w3.org/2000/svg">
    <title>GOE 379 AIRFOIL</title>
    <path 
      vector-effect="non-scaling-stroke"
      d="M1,-0L0.95,-0.0098L0.8999,-0.0192L0.7999,-0.0368L0.6998,-0.0529L0.5998,-0.0666L0.4997,-0.0768L0.3997,-0.0834L0.2997,-0.0846L0.1997,-0.0782L0.1497,-0.07L0.0998,-0.0578L0.0748,-0.0488L0.0499,-0.0382L0.0249,-0.0241L0.0125,-0.015L0,-0L0.0125,0.004L0.025,0.0044L0.05,0.0018L0.075,-0.0018L0.1,-0.0054L0.15,-0.011L0.1999,-0.0157L0.2999,-0.0201L0.3999,-0.0214L0.4999,-0.0192L0.6,-0.0151L0.7,-0.0104L0.8,-0.0048L0.9,-0.0002L0.95,0.0012L1,-0"
    />
</svg>
