
<svg 
  class="airfoil-goe365"
  fill="none"
  stroke="black" 
  stroke-width="1"
  style="overflow:visible"
  viewBox="0, -0.1096, 1, 0.1198"
  xmlns="http://www.w3.org/2000/svg">
    <title>GOE 365 AIRFOIL</title>
    <path 
      vector-effect="non-scaling-stroke"
      d="M1,-0L0.9499,-0.0145L0.8997,-0.0269L0.7995,-0.0504L0.6992,-0.0713L0.599,-0.0903L0.4989,-0.1027L0.3988,-0.1092L0.2988,-0.1096L0.1989,-0.1016L0.149,-0.0936L0.0992,-0.0805L0.0743,-0.0703L0.0494,-0.058L0.0246,-0.0388L0.0122,-0.0266L0,-0L0.0126,0.0094L0.0251,0.0102L0.0501,0.01L0.0751,0.0097L0.1001,0.0094L0.1501,0.0089L0.2001,0.0084L0.3001,0.0074L0.4001,0.0063L0.5001,0.0052L0.6,0.0042L0.7,0.0032L0.8,0.0021L0.9,0.001L0.95,0.0005L1,-0"
    />
</svg>
