
<svg 
  class="airfoil-goe332"
  fill="none"
  stroke="black" 
  stroke-width="1"
  style="overflow:visible"
  viewBox="0, -0.1212, 1, 0.1374"
  xmlns="http://www.w3.org/2000/svg">
    <title>GOE 332 (PFALZ 61) AIRFOIL</title>
    <path 
      vector-effect="non-scaling-stroke"
      d="M1,-0.0015L0.9497,-0.0197L0.8995,-0.0339L0.7991,-0.0582L0.6988,-0.0808L0.5985,-0.0998L0.4982,-0.1142L0.3981,-0.1212L0.2981,-0.1198L0.1983,-0.1081L0.1485,-0.0963L0.0988,-0.0795L0.0739,-0.0681L0.0492,-0.0548L0.0244,-0.0359L0.0121,-0.0242L0,-0L0.0127,0.014L0.0253,0.0161L0.0503,0.0162L0.0752,0.0153L0.1002,0.0131L0.1501,0.0075L0.2,0.0034L0.3,-0.0021L0.3999,-0.0062L0.4999,-0.0074L0.5999,-0.0075L0.6999,-0.0074L0.7999,-0.0054L0.9,-0.0019L0.95,-0.0007L1,0.0015"
    />
</svg>
