
<svg 
  class="airfoil-goe325"
  fill="none"
  stroke="black" 
  stroke-width="1"
  style="overflow:visible"
  viewBox="0, -0.0877, 1, 0.097500004"
  xmlns="http://www.w3.org/2000/svg">
    <title>GOE 325 (PFALZ 54) AIRFOIL</title>
    <path 
      vector-effect="non-scaling-stroke"
      d="M1,-0.003L0.95,-0.0126L0.9,-0.0231L0.8,-0.0412L0.7,-0.0553L0.6,-0.0674L0.5,-0.0765L0.4,-0.0846L0.3,-0.0877L0.2,-0.0838L0.15,-0.0764L0.1,-0.0629L0.075,-0.0537L0.05,-0.0424L0.025,-0.0282L0.0125,-0.0181L0,-0L0.0125,0.0089L0.025,0.0098L0.05,0.0086L0.075,0.0063L0.1,0.0041L0.15,0.0007L0.2,-0.0018L0.3,-0.0057L0.4,-0.0076L0.5,-0.008L0.6,-0.0074L0.7,-0.0063L0.8,-0.0047L0.9,-0.0026L0.95,-0.0016L1,-0"
    />
</svg>
