
<svg 
  class="airfoil-goe311"
  fill="none"
  stroke="black" 
  stroke-width="1"
  style="overflow:visible"
  viewBox="0, -0.1013, 1, 0.1135"
  xmlns="http://www.w3.org/2000/svg">
    <title>GOE 311 (MVA H.43) AIRFOIL</title>
    <path 
      vector-effect="non-scaling-stroke"
      d="M1,-0.0021L0.9499,-0.0112L0.8998,-0.0223L0.7995,-0.0435L0.6993,-0.0615L0.5992,-0.0785L0.499,-0.0907L0.3989,-0.1007L0.2989,-0.1013L0.199,-0.0912L0.1491,-0.0817L0.0993,-0.0674L0.0744,-0.057L0.0495,-0.0461L0.0247,-0.03L0.0123,-0.0192L0,-0L0.0126,0.0084L0.0251,0.0119L0.0501,0.0122L0.0751,0.0119L0.1001,0.0092L0.15,0.0005L0.1999,-0.0069L0.2998,-0.0181L0.3998,-0.0207L0.4998,-0.0165L0.5999,-0.0101L0.7,-0.0037L0.8,0.0015L0.9,0.0029L0.95,0.0026L1,0.0021"
    />
</svg>
