
<svg 
  class="airfoil-goe362"
  fill="none"
  stroke="black" 
  stroke-width="1"
  style="overflow:visible"
  viewBox="0, -0.0833, 1, 0.0891"
  xmlns="http://www.w3.org/2000/svg">
    <title>GOE 362 AIRFOIL</title>
    <path 
      vector-effect="non-scaling-stroke"
      d="M1,-0L0.95,-0.0097L0.9,-0.0194L0.8,-0.0368L0.7,-0.0522L0.6,-0.0651L0.5,-0.0755L0.4,-0.0814L0.3,-0.0833L0.2,-0.0772L0.15,-0.0699L0.1,-0.0586L0.075,-0.0509L0.05,-0.0418L0.025,-0.0297L0.0125,-0.0206L0,-0L0.0125,0.0049L0.025,0.0058L0.05,0.0052L0.075,0.003L0.1,-0.0001L0.15,-0.0054L0.2,-0.0112L0.3,-0.0193L0.4,-0.0244L0.5,-0.0265L0.6,-0.0256L0.7,-0.0212L0.8,-0.0168L0.9,-0.0084L0.95,-0.0037L1,-0"
    />
</svg>
