
<svg 
  class="airfoil-goe326"
  fill="none"
  stroke="black" 
  stroke-width="1"
  style="overflow:visible"
  viewBox="0, -0.0877, 1, 0.0983"
  xmlns="http://www.w3.org/2000/svg">
    <title>GOE 326 (PFALZ 55) AIRFOIL</title>
    <path 
      vector-effect="non-scaling-stroke"
      d="M1,-0.0015L0.9499,-0.0112L0.8998,-0.0199L0.7997,-0.0381L0.6995,-0.0542L0.5994,-0.069L0.4993,-0.0789L0.3992,-0.086L0.2992,-0.0877L0.1993,-0.0815L0.1493,-0.0737L0.0994,-0.0613L0.0745,-0.0539L0.0496,-0.044L0.0247,-0.0295L0.0132,-0.0197L0,-0L0.0126,0.0094L0.0251,0.0106L0.0501,0.0085L0.0751,0.0064L0.1,0.0047L0.15,0.0012L0.2,-0.0018L0.3,-0.0059L0.3999,-0.0084L0.4999,-0.0088L0.5999,-0.0074L0.6999,-0.0054L0.8,-0.0025L0.9,-0.0001L0.95,0.001L1,0.0015"
    />
</svg>
