
<svg 
  class="airfoil-goe344"
  fill="none"
  stroke="black" 
  stroke-width="1"
  style="overflow:visible"
  viewBox="0, -0.0608, 1, 0.0801"
  xmlns="http://www.w3.org/2000/svg">
    <title>GOE 344 (PFALZ 71) AIRFOIL</title>
    <path 
      vector-effect="non-scaling-stroke"
      d="M1,-0.0033L0.9499,-0.0133L0.8998,-0.0203L0.7997,-0.0328L0.6996,-0.0415L0.5996,-0.0491L0.4995,-0.0552L0.3995,-0.0596L0.2995,-0.0608L0.1995,-0.0589L0.1495,-0.0551L0.0996,-0.0478L0.0746,-0.0423L0.0497,-0.0351L0.0248,-0.0253L0.0123,-0.0177L0,-0L0.0126,0.0123L0.0251,0.0158L0.0502,0.0188L0.0752,0.0193L0.1002,0.0188L0.1501,0.0157L0.2001,0.0131L0.3001,0.0079L0.4001,0.0054L0.5001,0.0061L0.6001,0.009L0.7001,0.0115L0.8001,0.0125L0.9001,0.01L0.9501,0.0069L1,0.0033"
    />
</svg>
