
<svg 
  class="airfoil-goe368"
  fill="none"
  stroke="black" 
  stroke-width="1"
  style="overflow:visible"
  viewBox="0, -0.0716, 1, 0.087299995"
  xmlns="http://www.w3.org/2000/svg">
    <title>GOE 368 AIRFOIL</title>
    <path 
      vector-effect="non-scaling-stroke"
      d="M1,-0L0.9499,-0.0075L0.8998,-0.0143L0.7996,-0.0256L0.6994,-0.0379L0.5992,-0.0487L0.499,-0.0595L0.3989,-0.0668L0.2988,-0.0716L0.1988,-0.0709L0.1489,-0.067L0.099,-0.0587L0.0741,-0.0508L0.0493,-0.0398L0.0246,-0.0249L0.0123,-0.0147L0,-0L0.0126,0.0065L0.0252,0.0096L0.0502,0.0137L0.0753,0.0157L0.1002,0.0148L0.1502,0.0099L0.2001,0.0036L0.2999,-0.0046L0.3999,-0.0078L0.4999,-0.0075L0.5999,-0.0062L0.6999,-0.0044L0.8,-0.0031L0.9,-0.0018L0.95,-0.0012L1,-0"
    />
</svg>
