
<svg 
  class="airfoil-goe392"
  fill="none"
  stroke="black" 
  stroke-width="1"
  style="overflow:visible"
  viewBox="0, -0.0966, 1, 0.108500004"
  xmlns="http://www.w3.org/2000/svg">
    <title>GOE 392 AIRFOIL</title>
    <path 
      vector-effect="non-scaling-stroke"
      d="M1,-0L0.95,-0.0148L0.9,-0.0271L0.8,-0.0472L0.7,-0.0653L0.6,-0.0804L0.5,-0.091L0.4,-0.0966L0.3,-0.0947L0.2,-0.0828L0.15,-0.0706L0.1,-0.0544L0.075,-0.0446L0.05,-0.0332L0.025,-0.0189L0.0125,-0.0112L0,-0L0.0125,0.0053L0.025,0.0066L0.05,0.0088L0.075,0.0104L0.1,0.0111L0.15,0.0119L0.2,0.0112L0.3,0.0068L0.4,-0.0001L0.5,-0.0038L0.6,-0.0059L0.7,-0.0078L0.8,-0.0072L0.9,-0.0051L0.95,-0.0023L1,-0"
    />
</svg>
