
<svg 
  class="airfoil-goe396"
  fill="none"
  stroke="black" 
  stroke-width="1"
  style="overflow:visible"
  viewBox="0, -0.0802, 1, 0.0842"
  xmlns="http://www.w3.org/2000/svg">
    <title>GOE 396 AIRFOIL</title>
    <path 
      vector-effect="non-scaling-stroke"
      d="M1,-0L0.95,-0.0109L0.9,-0.0207L0.8,-0.0384L0.7,-0.0551L0.6,-0.0678L0.5,-0.0765L0.4,-0.0802L0.3,-0.0779L0.2,-0.0676L0.15,-0.0584L0.1,-0.0473L0.075,-0.0412L0.05,-0.0322L0.025,-0.0201L0.0125,-0.012L0,-0L0.0125,0.004L0.025,0.0039L0.05,0.0019L0.075,-0.0012L0.1,-0.0053L0.15,-0.0135L0.2,-0.0206L0.3,-0.0309L0.4,-0.0352L0.5,-0.0325L0.6,-0.0278L0.7,-0.0211L0.8,-0.0134L0.9,-0.0057L0.95,-0.0019L1,-0"
    />
</svg>
