
<svg 
  class="airfoil-goe388"
  fill="none"
  stroke="black" 
  stroke-width="1"
  style="overflow:visible"
  viewBox="0, -0.1032, 1, 0.11790001"
  xmlns="http://www.w3.org/2000/svg">
    <title>GOE 388 AIRFOIL</title>
    <path 
      vector-effect="non-scaling-stroke"
      d="M1,-0.001L0.9498,-0.0132L0.8997,-0.0244L0.7993,-0.047L0.6991,-0.0666L0.5988,-0.0844L0.4987,-0.096L0.3986,-0.1032L0.2986,-0.1029L0.1987,-0.095L0.1488,-0.0847L0.099,-0.07L0.0742,-0.06L0.0493,-0.0279L0.0246,-0.0325L0.0122,-0.0227L0,-0L0.0127,0.0127L0.0252,0.0147L0.0502,0.0143L0.0752,0.0135L0.1002,0.0125L0.1501,0.0086L0.2001,0.0052L0.3,-0.001L0.3999,-0.0056L0.4999,-0.0081L0.5999,-0.0084L0.6999,-0.0073L0.7999,-0.0059L0.9,-0.003L0.95,-0.0012L1,0.001"
    />
</svg>
