
<svg 
  class="airfoil-goe320"
  fill="none"
  stroke="black" 
  stroke-width="1"
  style="overflow:visible"
  viewBox="0, -0.1235, 1, 0.1442"
  xmlns="http://www.w3.org/2000/svg">
    <title>GOE 320 (HANSA-BRANDENBURG II.1) AIRFOIL</title>
    <path 
      vector-effect="non-scaling-stroke"
      d="M1,-0.0026L0.9497,-0.0146L0.8995,-0.0272L0.799,-0.0518L0.6986,-0.0765L0.5982,-0.0978L0.4979,-0.1139L0.3977,-0.1216L0.2977,-0.1235L0.1978,-0.119L0.1479,-0.1106L0.0982,-0.097L0.0734,-0.085L0.0487,-0.0689L0.0241,-0.0463L0.0119,-0.0319L0,-0L0.0129,0.0189L0.0254,0.0207L0.0503,0.0188L0.0753,0.0158L0.1002,0.0126L0.1501,0.0068L0.2001,0.0035L0.3,-0.0003L0.4,-0.0012L0.5,-0.0013L0.6,-0.0005L0.7,0.0003L0.8,0.0011L0.9,0.002L0.95,0.0026L1,0.0026"
    />
</svg>
