
<svg 
  class="airfoil-goe304"
  fill="none"
  stroke="black" 
  stroke-width="1"
  style="overflow:visible"
  viewBox="0, -0.1065, 1, 0.122099996"
  xmlns="http://www.w3.org/2000/svg">
    <title>GOE 304 (FRIEDRICHSHAFEN G02) AIRFOIL</title>
    <path 
      vector-effect="non-scaling-stroke"
      d="M1,-0.0012L0.9498,-0.0153L0.8996,-0.0283L0.7992,-0.0514L0.6989,-0.0715L0.5987,-0.0881L0.4985,-0.1004L0.3984,-0.1065L0.2984,-0.1057L0.1986,-0.0961L0.1487,-0.0873L0.0989,-0.0743L0.074,-0.0651L0.0492,-0.0542L0.0244,-0.038L0.0121,-0.027L0,-0L0.0127,0.0142L0.0252,0.0156L0.0502,0.0117L0.0751,0.0079L0.1001,0.0039L0.15,-0.0027L0.1999,-0.0083L0.2998,-0.0159L0.3997,-0.0199L0.4997,-0.0207L0.5997,-0.0195L0.6998,-0.0149L0.7998,-0.0099L0.8999,-0.0041L0.95,-0.0013L1,0.0012"
    />
</svg>
