
<svg 
  class="airfoil-goe399"
  fill="none"
  stroke="black" 
  stroke-width="1"
  style="overflow:visible"
  viewBox="0, -0.0759, 1, 0.085200004"
  xmlns="http://www.w3.org/2000/svg">
    <title>GOE 399 AIRFOIL</title>
    <path 
      vector-effect="non-scaling-stroke"
      d="M1,-0L0.9499,-0.0091L0.8999,-0.0182L0.7997,-0.0344L0.6996,-0.0486L0.5995,-0.0613L0.4994,-0.0705L0.3994,-0.0752L0.2994,-0.0759L0.1995,-0.0686L0.1495,-0.0612L0.0996,-0.0493L0.0747,-0.0421L0.0497,-0.0334L0.0248,-0.0232L0.0124,-0.0156L0,-0L0.0126,0.0079L0.0251,0.0093L0.0501,0.0086L0.075,0.0064L0.1001,0.0044L0.15,0.0008L0.2,-0.0026L0.2999,-0.0069L0.3999,-0.0092L0.4999,-0.01L0.5999,-0.0098L0.6999,-0.0071L0.8,-0.0049L0.9,-0.0017L0.95,-0.0001L1,-0"
    />
</svg>
