
<svg 
  class="airfoil-goe387"
  fill="none"
  stroke="black" 
  stroke-width="1"
  style="overflow:visible"
  viewBox="0, -0.1276, 1, 0.1556"
  xmlns="http://www.w3.org/2000/svg">
    <title>GOE 387 AIRFOIL</title>
    <path 
      vector-effect="non-scaling-stroke"
      d="M1,-0L0.95,-0.0145L0.9,-0.028L0.8,-0.0539L0.7,-0.0784L0.6,-0.0998L0.5,-0.1168L0.4,-0.1262L0.3,-0.1276L0.2,-0.1181L0.15,-0.1066L0.1,-0.0905L0.075,-0.0788L0.05,-0.0645L0.025,-0.0453L0.0125,-0.0309L0,-0L0.0125,0.0186L0.025,0.0217L0.05,0.025L0.075,0.0272L0.1,0.028L0.15,0.0274L0.2,0.0259L0.3,0.0209L0.4,0.0158L0.5,0.0122L0.6,0.0087L0.7,0.0061L0.8,0.0046L0.9,0.003L0.95,0.0025L1,-0"
    />
</svg>
