
<svg 
  class="airfoil-goe324"
  fill="none"
  stroke="black" 
  stroke-width="1"
  style="overflow:visible"
  viewBox="0, -0.1252, 1, 0.14230001"
  xmlns="http://www.w3.org/2000/svg">
    <title>GOE 324 (HANSA-BRANDENBURG) AIRFOIL</title>
    <path 
      vector-effect="non-scaling-stroke"
      d="M1,-0.0012L0.9499,-0.0086L0.8997,-0.0174L0.7994,-0.0365L0.699,-0.0588L0.5986,-0.0827L0.4983,-0.1044L0.3981,-0.1193L0.298,-0.1252L0.1981,-0.1171L0.1482,-0.1072L0.0985,-0.0905L0.0737,-0.0787L0.0489,-0.0651L0.0243,-0.0452L0.012,-0.0322L0,-0L0.0128,0.0162L0.0253,0.0171L0.0503,0.0156L0.0752,0.0142L0.1002,0.013L0.1502,0.0103L0.2001,0.0084L0.3001,0.0062L0.4001,0.0046L0.5001,0.0041L0.6001,0.004L0.7001,0.0045L0.8001,0.004L0.9,0.0028L0.95,0.002L1,0.0012"
    />
</svg>
