
<svg 
  class="airfoil-goe335"
  fill="none"
  stroke="black" 
  stroke-width="1"
  style="overflow:visible"
  viewBox="0, -0.0812, 1, 0.0885"
  xmlns="http://www.w3.org/2000/svg">
    <title>GOE 335 (D.F.W.) AIRFOIL</title>
    <path 
      vector-effect="non-scaling-stroke"
      d="M1,-0L0.95,-0.0106L0.9,-0.0203L0.8,-0.0355L0.7,-0.0507L0.6,-0.064L0.5,-0.0737L0.4,-0.079L0.3,-0.0812L0.2,-0.0765L0.15,-0.0686L0.1,-0.0567L0.075,-0.0481L0.05,-0.0384L0.025,-0.0252L0.0125,-0.0161L0,-0L0.0125,0.0069L0.025,0.0073L0.05,0.0056L0.075,0.0034L0.1,0.0008L0.15,-0.0041L0.2,-0.008L0.3,-0.0143L0.4,-0.017L0.5,-0.0162L0.6,-0.014L0.7,-0.0108L0.8,-0.007L0.9,-0.0037L0.95,-0.0021L1,-0"
    />
</svg>
