
<svg 
  class="airfoil-goe319"
  fill="none"
  stroke="black" 
  stroke-width="1"
  style="overflow:visible"
  viewBox="0, -0.1088, 1, 0.1234"
  xmlns="http://www.w3.org/2000/svg">
    <title>GOE 319 (HANSA-BRANDENBURG II) AIRFOIL</title>
    <path 
      vector-effect="non-scaling-stroke"
      d="M1,-0.0005L0.9498,-0.0113L0.8997,-0.022L0.7994,-0.0439L0.6991,-0.0637L0.5988,-0.0824L0.4986,-0.0968L0.3985,-0.1066L0.2984,-0.1088L0.1985,-0.1034L0.1486,-0.0967L0.0988,-0.0839L0.0739,-0.0746L0.0491,-0.0617L0.0244,-0.0439L0.0121,-0.0307L0,-0L0.0127,0.0139L0.0252,0.0146L0.0502,0.0128L0.0751,0.0099L0.1001,0.0069L0.15,0.0023L0.2,-0.0023L0.2999,-0.0063L0.3999,-0.0063L0.4999,-0.0047L0.5999,-0.0042L0.7,-0.0026L0.8,-0.0015L0.9,0.0009L0.95,0.0013L1,0.0005"
    />
</svg>
