
<svg 
  class="airfoil-goe375"
  fill="none"
  stroke="black" 
  stroke-width="1"
  style="overflow:visible"
  viewBox="0, -0.0773, 1, 0.081199996"
  xmlns="http://www.w3.org/2000/svg">
    <title>GOE 375 AIRFOIL</title>
    <path 
      vector-effect="non-scaling-stroke"
      d="M1,-0L0.95,-0.0088L0.8999,-0.0166L0.7999,-0.0306L0.6998,-0.0452L0.5997,-0.0572L0.4997,-0.0662L0.3997,-0.0733L0.2997,-0.0773L0.1997,-0.0759L0.1497,-0.0722L0.0997,-0.064L0.0747,-0.0573L0.0498,-0.0472L0.0249,-0.0321L0.0124,-0.0211L0,-0L0.0125,0.0039L0.025,0.0004L0.05,-0.0042L0.075,-0.0058L0.1,-0.0074L0.15,-0.0092L0.1999,-0.0109L0.2999,-0.0124L0.3999,-0.0123L0.4999,-0.0117L0.6,-0.0102L0.7,-0.0077L0.8,-0.0041L0.9,-0.0021L0.95,-0.0003L1,-0"
    />
</svg>
