
<svg 
  class="airfoil-goe380"
  fill="none"
  stroke="black" 
  stroke-width="1"
  style="overflow:visible"
  viewBox="0, -0.0887, 1, 0.091199994"
  xmlns="http://www.w3.org/2000/svg">
    <title>GOE 380 AIRFOIL</title>
    <path 
      vector-effect="non-scaling-stroke"
      d="M1,-0L0.95,-0.0109L0.9,-0.0213L0.7999,-0.0395L0.6999,-0.0558L0.5998,-0.069L0.4998,-0.0793L0.3998,-0.087L0.2998,-0.0887L0.1998,-0.0835L0.1498,-0.0759L0.0998,-0.0642L0.0749,-0.0557L0.0499,-0.0441L0.0249,-0.0281L0.0125,-0.018L0,-0L0.0125,0.0025L0.025,0.0024L0.05,-0.0006L0.075,-0.0052L0.1,-0.0103L0.15,-0.0154L0.1999,-0.0195L0.2999,-0.0233L0.3999,-0.0235L0.4999,-0.0207L0.6,-0.017L0.7,-0.0117L0.8,-0.0065L0.9,-0.0012L0.95,-0.0004L1,-0"
    />
</svg>
