
<svg 
  class="airfoil-goe301"
  fill="none"
  stroke="black" 
  stroke-width="1"
  style="overflow:visible"
  viewBox="0, -0.1137, 1, 0.1251"
  xmlns="http://www.w3.org/2000/svg">
    <title>GOE 301 (FRIEDRICHSHAFEN G 13) AIRFOIL</title>
    <path 
      vector-effect="non-scaling-stroke"
      d="M1,-0.0015L0.9498,-0.018L0.8997,-0.031L0.7994,-0.0545L0.6992,-0.0734L0.5991,-0.0904L0.4989,-0.1044L0.3988,-0.1124L0.2886,-0.1137L0.1989,-0.1053L0.149,-0.0958L0.0992,-0.0808L0.0743,-0.0711L0.0494,-0.0573L0.0246,-0.0395L0.0122,-0.0274L0,-0L0.0126,0.0101L0.0251,0.0114L0.0501,0.0087L0.075,0.0044L0.1,0.0012L0.15,-0.0043L0.1999,-0.009L0.2998,-0.0149L0.3998,-0.0174L0.4998,-0.0179L0.5998,-0.0174L0.6999,-0.0144L0.7999,-0.0105L0.8999,-0.0055L0.95,-0.0017L1,0.0015"
    />
</svg>
