
<svg 
  class="airfoil-goe372"
  fill="none"
  stroke="black" 
  stroke-width="1"
  style="overflow:visible"
  viewBox="0, -0.0726, 1, 0.0845"
  xmlns="http://www.w3.org/2000/svg">
    <title>GOE 372 AIRFOIL</title>
    <path 
      vector-effect="non-scaling-stroke"
      d="M1,-0L0.9499,-0.0099L0.8998,-0.0189L0.7996,-0.0347L0.6994,-0.049L0.5993,-0.0609L0.4992,-0.0682L0.3992,-0.0726L0.2992,-0.0709L0.1993,-0.0618L0.1494,-0.0549L0.0995,-0.0446L0.0746,-0.0379L0.0497,-0.0286L0.0248,-0.0173L0.0124,-0.0101L0,-0L0.0126,0.0089L0.0251,0.0112L0.0501,0.0119L0.0751,0.0101L0.1001,0.0078L0.15,0.0028L0.2,-0.0018L0.2999,-0.0089L0.3998,-0.0136L0.4998,-0.0153L0.5998,-0.0144L0.6999,-0.0121L0.7999,-0.0087L0.9,-0.0038L0.95,-0.0014L1,-0"
    />
</svg>
