
<svg 
  class="airfoil-goe323"
  fill="none"
  stroke="black" 
  stroke-width="1"
  style="overflow:visible"
  viewBox="0, -0.107, 1, 0.123500004"
  xmlns="http://www.w3.org/2000/svg">
    <title>GOE 323 (HANSA-BRANDENBURG V.1) AIRFOIL</title>
    <path 
      vector-effect="non-scaling-stroke"
      d="M1,-0.0005L0.9499,-0.0081L0.8997,-0.0153L0.7995,-0.0322L0.6992,-0.0495L0.5989,-0.0701L0.4985,-0.0896L0.3983,-0.1034L0.2982,-0.107L0.1983,-0.1013L0.1485,-0.0934L0.0987,-0.0799L0.0739,-0.0698L0.051,-0.0585L0.0244,-0.0385L0.0121,-0.0256L0,-0L0.0127,0.0146L0.0253,0.0165L0.0502,0.015L0.0752,0.0136L0.1002,0.0121L0.1502,0.0092L0.2001,0.0062L0.3001,0.0035L0.4001,0.003L0.5001,0.0034L0.6001,0.0034L0.7,0.0033L0.8,0.0027L0.9,0.0017L0.95,0.0014L1,0.0005"
    />
</svg>
