
<svg 
  class="airfoil-goe316"
  fill="none"
  stroke="black" 
  stroke-width="1"
  style="overflow:visible"
  viewBox="0, -0.0878, 1, 0.099300005"
  xmlns="http://www.w3.org/2000/svg">
    <title>GOE 316 (HANSA-BRANDENBURG IV.5) AIRFOIL</title>
    <path 
      vector-effect="non-scaling-stroke"
      d="M1,-0.0021L0.9499,-0.0092L0.8998,-0.017L0.7997,-0.0319L0.6995,-0.0472L0.5994,-0.0627L0.4993,-0.0749L0.3992,-0.084L0.2992,-0.0878L0.1992,-0.0853L0.1493,-0.0769L0.0994,-0.0642L0.0745,-0.0556L0.0496,-0.0444L0.0247,-0.0308L0.0123,-0.021L0,-0L0.0126,0.0105L0.0251,0.0115L0.0501,0.009L0.0751,0.0073L0.1001,0.0057L0.15,0.0037L0.2,0.0032L0.3,0.003L0.4,0.0025L0.5,0.0026L0.6,0.0027L0.7,0.0029L0.8,0.0029L0.9,0.0026L0.95,0.0026L1,0.0021"
    />
</svg>
