
<svg 
  class="airfoil-goe321"
  fill="none"
  stroke="black" 
  stroke-width="1"
  style="overflow:visible"
  viewBox="0, -0.1072, 1, 0.122899994"
  xmlns="http://www.w3.org/2000/svg">
    <title>GOE 321 (HANSA-BRANDENBURG III.1) AIRFOIL</title>
    <path 
      vector-effect="non-scaling-stroke"
      d="M1,-0.0022L0.9499,-0.011L0.8997,-0.021L0.7994,-0.0398L0.6992,-0.0586L0.5989,-0.0785L0.4987,-0.0941L0.3985,-0.1055L0.2985,-0.1072L0.1986,-0.1005L0.1487,-0.0925L0.0989,-0.0801L0.074,-0.0695L0.0492,-0.056L0.0245,-0.0378L0.0121,-0.0257L0,-0L0.0127,0.0137L0.0252,0.0157L0.0502,0.0148L0.0752,0.0129L0.1001,0.0111L0.1501,0.0086L0.2001,0.0067L0.3001,0.0043L0.4001,0.0037L0.5001,0.0048L0.6001,0.0052L0.7001,0.0047L0.8001,0.0038L0.9,0.0035L0.95,0.0028L1,0.0022"
    />
</svg>
