
<svg 
  class="airfoil-goe384"
  fill="none"
  stroke="black" 
  stroke-width="1"
  style="overflow:visible"
  viewBox="0, -0.165, 1, 0.1988"
  xmlns="http://www.w3.org/2000/svg">
    <title>GOE 384 AIRFOIL</title>
    <path 
      vector-effect="non-scaling-stroke"
      d="M1,-0.0022L0.9493,-0.0181L0.8985,-0.0364L0.7971,-0.0726L0.6958,-0.1046L0.5947,-0.1304L0.4938,-0.1529L0.3934,-0.1637L0.2933,-0.165L0.1939,-0.1498L0.1446,-0.1335L0.0955,-0.1102L0.0712,-0.0943L0.047,-0.0731L0.023,-0.0487L0.0112,-0.0323L0,-0L0.0133,0.0208L0.0261,0.0271L0.0513,0.0315L0.0763,0.0331L0.1013,0.0332L0.1514,0.0338L0.2014,0.0334L0.3012,0.0304L0.4011,0.0264L0.5009,0.0223L0.6007,0.0183L0.7006,0.0143L0.8004,0.0102L0.9003,0.0062L0.9502,0.0042L1,0.0022"
    />
</svg>
