
<svg 
  class="airfoil-goe389"
  fill="none"
  stroke="black" 
  stroke-width="1"
  style="overflow:visible"
  viewBox="0, -0.0906, 1, 0.109799996"
  xmlns="http://www.w3.org/2000/svg">
    <title>GOE 389 AIRFOIL</title>
    <path 
      vector-effect="non-scaling-stroke"
      d="M1,-0.001L0.9497,-0.0127L0.8996,-0.0223L0.7992,-0.0415L0.6988,-0.0575L0.5985,-0.0724L0.4984,-0.0822L0.3982,-0.0884L0.2982,-0.0906L0.1983,-0.0833L0.1485,-0.0744L0.0988,-0.0612L0.0739,-0.0533L0.0492,-0.0422L0.0244,-0.028L0.0121,-0.0171L0,-0L0.0127,0.0124L0.0253,0.0154L0.0504,0.018L0.0754,0.0186L0.1004,0.0192L0.1504,0.0187L0.2004,0.0172L0.3002,0.0126L0.4002,0.0089L0.5001,0.0058L0.6001,0.0028L0.7,0.0018L0.8,0.0014L0.9,0.001L0.95,0.001L1,0.001"
    />
</svg>
