
<svg 
  class="airfoil-goe390"
  fill="none"
  stroke="black" 
  stroke-width="1"
  style="overflow:visible"
  viewBox="0, -0.168, 1, 0.212"
  xmlns="http://www.w3.org/2000/svg">
    <title>GOE 390 AIRFOIL</title>
    <path 
      vector-effect="non-scaling-stroke"
      d="M1,-0.001L0.949,-0.0205L0.898,-0.0404L0.7962,-0.0755L0.6946,-0.1079L0.5933,-0.1348L0.4923,-0.1555L0.3917,-0.1666L0.2916,-0.168L0.1923,-0.154L0.1431,-0.1394L0.0942,-0.117L0.07,-0.1014L0.0459,-0.082L0.0223,-0.0551L0.0107,-0.0363L0,-0L0.0138,0.026L0.0266,0.033L0.052,0.0397L0.0771,0.0422L0.1022,0.044L0.1521,0.0429L0.202,0.0408L0.3017,0.0345L0.4014,0.0279L0.501,0.0211L0.6007,0.0145L0.7005,0.01L0.8003,0.0059L0.9002,0.0033L0.9501,0.0023L1,0.001"
    />
</svg>
