
<svg 
  class="airfoil-goe322"
  fill="none"
  stroke="black" 
  stroke-width="1"
  style="overflow:visible"
  viewBox="0, -0.1255, 1, 0.1423"
  xmlns="http://www.w3.org/2000/svg">
    <title>GOE 322 (HANSA-BRANDENBURG IV.1) AIRFOIL</title>
    <path 
      vector-effect="non-scaling-stroke"
      d="M1,-0.003L0.9498,-0.0143L0.8996,-0.0257L0.7993,-0.0475L0.699,-0.0706L0.5986,-0.0942L0.4984,-0.1122L0.3982,-0.1235L0.2982,-0.1255L0.1983,-0.1174L0.1485,-0.1072L0.0987,-0.0909L0.0739,-0.0779L0.0491,-0.0612L0.0244,-0.0395L0.0121,-0.0247L0,-0L0.0127,0.0138L0.0252,0.0158L0.0502,0.0168L0.0752,0.0154L0.1002,0.0141L0.1502,0.0103L0.2001,0.0081L0.3001,0.0052L0.4001,0.0042L0.5001,0.0041L0.6001,0.0038L0.7001,0.0038L0.8001,0.0034L0.9,0.0033L0.95,0.0036L1,0.003"
    />
</svg>
