
<svg 
  class="airfoil-goe367"
  fill="none"
  stroke="black" 
  stroke-width="1"
  style="overflow:visible"
  viewBox="0, -0.1272, 1, 0.1648"
  xmlns="http://www.w3.org/2000/svg">
    <title>GOE 367 AIRFOIL</title>
    <path 
      vector-effect="non-scaling-stroke"
      d="M1,-0.0016L0.9496,-0.0166L0.8992,-0.0318L0.7984,-0.0602L0.6978,-0.0853L0.5973,-0.106L0.4969,-0.1198L0.3967,-0.1272L0.2967,-0.1262L0.1971,-0.113L0.1474,-0.099L0.0979,-0.0813L0.0732,-0.0691L0.0485,-0.0563L0.024,-0.0387L0.0118,-0.0268L0,-0L0.0131,0.0214L0.0257,0.0279L0.0509,0.0336L0.0759,0.0366L0.101,0.0376L0.151,0.0374L0.201,0.0373L0.3009,0.0366L0.4009,0.0351L0.5008,0.0325L0.6008,0.0299L0.7007,0.0262L0.8005,0.0213L0.9003,0.0116L0.9502,0.0061L1,0.0016"
    />
</svg>
