
<svg 
  class="airfoil-goe394"
  fill="none"
  stroke="black" 
  stroke-width="1"
  style="overflow:visible"
  viewBox="0, -0.0849, 1, 0.0961"
  xmlns="http://www.w3.org/2000/svg">
    <title>GOE 394 AIRFOIL</title>
    <path 
      vector-effect="non-scaling-stroke"
      d="M1,-0.0008L0.9499,-0.0092L0.8998,-0.0186L0.7996,-0.0368L0.6994,-0.0539L0.5992,-0.0709L0.4991,-0.0801L0.399,-0.0847L0.2991,-0.0849L0.1991,-0.0767L0.1492,-0.0682L0.0994,-0.0561L0.0745,-0.0488L0.0496,-0.0396L0.0247,-0.0268L0.0123,-0.0181L0,-0L0.0126,0.0099L0.0251,0.0112L0.0501,0.0106L0.0751,0.007L0.1,0.0009L0.1499,-0.0082L0.1998,-0.0158L0.2997,-0.0269L0.3996,-0.033L0.4996,-0.0356L0.5996,-0.0345L0.6997,-0.0246L0.7998,-0.0154L0.8999,-0.0066L0.95,-0.0022L1,0.0008"
    />
</svg>
