
<svg 
  class="airfoil-goe373"
  fill="none"
  stroke="black" 
  stroke-width="1"
  style="overflow:visible"
  viewBox="0, -0.083, 1, 0.09289999"
  xmlns="http://www.w3.org/2000/svg">
    <title>GOE 373 AIRFOIL</title>
    <path 
      vector-effect="non-scaling-stroke"
      d="M1,-0L0.9499,-0.01L0.8998,-0.019L0.7997,-0.035L0.6995,-0.05L0.5994,-0.0635L0.4993,-0.0735L0.3992,-0.081L0.2992,-0.083L0.1992,-0.078L0.1493,-0.0705L0.0994,-0.06L0.0745,-0.0522L0.0496,-0.042L0.0247,-0.0278L0.0123,-0.0166L0,-0L0.0126,0.0099L0.0251,0.0068L0.05,0.003L0.075,-0.0008L0.1,-0.004L0.1499,-0.009L0.1999,-0.0135L0.2998,-0.018L0.3998,-0.0205L0.4998,-0.02L0.5998,-0.0185L0.6999,-0.0155L0.7999,-0.0105L0.9,-0.0055L0.95,-0.0025L1,-0"
    />
</svg>
