
<svg 
  class="airfoil-goe376"
  fill="none"
  stroke="black" 
  stroke-width="1"
  style="overflow:visible"
  viewBox="0, -0.0825, 1, 0.09060001"
  xmlns="http://www.w3.org/2000/svg">
    <title>GOE 376 AIRFOIL</title>
    <path 
      vector-effect="non-scaling-stroke"
      d="M1,-0L0.9499,-0.0114L0.8999,-0.0199L0.7998,-0.0364L0.6997,-0.0508L0.5996,-0.0637L0.4996,-0.0737L0.3995,-0.0799L0.2995,-0.0825L0.1996,-0.0774L0.1496,-0.0714L0.0997,-0.0609L0.0747,-0.0532L0.0498,-0.0426L0.0248,-0.0284L0.0124,-0.0181L0,-0L0.0126,0.0081L0.025,0.0059L0.05,0.0019L0.075,-0.0014L0.1,-0.0047L0.1499,-0.0094L0.1999,-0.0129L0.2999,-0.0165L0.3999,-0.0179L0.4999,-0.0167L0.5999,-0.014L0.6999,-0.0113L0.8,-0.0069L0.9,-0.0024L0.95,0.0003L1,-0"
    />
</svg>
