
<svg 
  class="airfoil-goe385"
  fill="none"
  stroke="black" 
  stroke-width="1"
  style="overflow:visible"
  viewBox="0, -0.0908, 1, 0.1012"
  xmlns="http://www.w3.org/2000/svg">
    <title>GOE 385 AIRFOIL</title>
    <path 
      vector-effect="non-scaling-stroke"
      d="M1,-0.0021L0.9499,-0.0113L0.8998,-0.0214L0.7997,-0.0385L0.6995,-0.0556L0.5994,-0.0695L0.4993,-0.082L0.3992,-0.0896L0.2992,-0.0908L0.1993,-0.0851L0.1494,-0.0774L0.0994,-0.0644L0.0745,-0.0561L0.0496,-0.0445L0.0247,-0.0303L0.0123,-0.0198L0,-0L0.0126,0.0094L0.0251,0.0104L0.0501,0.0102L0.0751,0.01L0.1001,0.0098L0.1501,0.0093L0.2001,0.0089L0.3001,0.0081L0.4001,0.0072L0.5001,0.0063L0.6,0.0055L0.7,0.0047L0.8,0.0038L0.9,0.003L0.95,0.0025L1,0.0021"
    />
</svg>
