
<svg 
  class="airfoil-goe360"
  fill="none"
  stroke="black" 
  stroke-width="1"
  style="overflow:visible"
  viewBox="0, -0.1071, 1, 0.1176"
  xmlns="http://www.w3.org/2000/svg">
    <title>GOE 360 AIRFOIL</title>
    <path 
      vector-effect="non-scaling-stroke"
      d="M1,-0.001L0.9499,-0.0117L0.8998,-0.0218L0.7996,-0.0441L0.6994,-0.0644L0.5992,-0.0808L0.4991,-0.0953L0.399,-0.1043L0.299,-0.1071L0.199,-0.0998L0.1491,-0.0895L0.0993,-0.0729L0.0744,-0.0621L0.0495,-0.0492L0.0247,-0.0319L0.0123,-0.0212L0,-0L0.0126,0.0105L0.0251,0.0099L0.0501,0.0053L0.075,0.0019L0.1,-0.0009L0.1499,-0.0048L0.1999,-0.0076L0.2999,-0.0103L0.3999,-0.0117L0.4999,-0.0101L0.5999,-0.0082L0.6999,-0.0058L0.8,-0.0033L0.9,-0.0011L0.95,-0.0001L1,0.001"
    />
</svg>
