
<svg 
  class="airfoil-goe329"
  fill="none"
  stroke="black" 
  stroke-width="1"
  style="overflow:visible"
  viewBox="0, -0.1061, 1, 0.1188"
  xmlns="http://www.w3.org/2000/svg">
    <title>GOE 329 (PFALZ 58) AIRFOIL</title>
    <path 
      vector-effect="non-scaling-stroke"
      d="M1,-0.003L0.9499,-0.0151L0.8997,-0.0263L0.7995,-0.0482L0.6993,-0.0685L0.5992,-0.0848L0.4991,-0.0964L0.399,-0.1039L0.299,-0.1061L0.199,-0.0979L0.1491,-0.0871L0.0993,-0.0702L0.0744,-0.0592L0.0495,-0.0467L0.0247,-0.0304L0.0123,-0.0203L0,-0L0.0126,0.0127L0.0251,0.0121L0.0501,0.0096L0.0751,0.0073L0.1001,0.0055L0.15,0.002L0.2,-0.0012L0.3,-0.0045L0.3999,-0.0056L0.4999,-0.0058L0.6,-0.0048L0.7,-0.0031L0.8,-0.0019L0.9,-0.0002L0.95,0.0008L1,0.003"
    />
</svg>
