
<svg 
  class="airfoil-goe374"
  fill="none"
  stroke="black" 
  stroke-width="1"
  style="overflow:visible"
  viewBox="0, -0.0775, 1, 0.0814"
  xmlns="http://www.w3.org/2000/svg">
    <title>GOE 374 AIRFOIL</title>
    <path 
      vector-effect="non-scaling-stroke"
      d="M1,-0L0.95,-0.0088L0.8999,-0.017L0.7998,-0.0325L0.6998,-0.0465L0.5997,-0.0575L0.4997,-0.0675L0.3996,-0.074L0.2996,-0.0775L0.1996,-0.074L0.1497,-0.0683L0.0997,-0.0585L0.0747,-0.0519L0.0498,-0.0422L0.0249,-0.0281L0.0124,-0.0176L0,-0L0.0125,0.0039L0.025,0.0014L0.05,-0.0018L0.075,-0.0044L0.1,-0.0065L0.15,-0.0088L0.1999,-0.011L0.2999,-0.013L0.3999,-0.0135L0.4999,-0.012L0.6,-0.0105L0.7,-0.008L0.8,-0.005L0.9,-0.002L0.95,-0.0003L1,-0"
    />
</svg>
