
<svg 
  class="airfoil-goe370"
  fill="none"
  stroke="black" 
  stroke-width="1"
  style="overflow:visible"
  viewBox="0, -0.0797, 1, 0.0851"
  xmlns="http://www.w3.org/2000/svg">
    <title>GOE 370 AIRFOIL</title>
    <path 
      vector-effect="non-scaling-stroke"
      d="M1,-0L0.9499,-0.0112L0.8999,-0.021L0.7998,-0.0384L0.6997,-0.0543L0.5996,-0.0678L0.4996,-0.0758L0.3996,-0.0797L0.2996,-0.0767L0.1996,-0.0671L0.1497,-0.0588L0.0997,-0.0465L0.0748,-0.0389L0.0498,-0.0298L0.0249,-0.0186L0.0124,-0.0121L0,-0L0.0125,0.0054L0.025,0.0054L0.05,0.0032L0.075,-0.0004L0.1,-0.0046L0.1499,-0.0138L0.1999,-0.0206L0.2998,-0.0306L0.3998,-0.0352L0.4998,-0.0333L0.5998,-0.0278L0.6999,-0.0214L0.7999,-0.0129L0.9,-0.0049L0.95,-0.0022L1,-0"
    />
</svg>
