
<svg 
  class="airfoil-goe330"
  fill="none"
  stroke="black" 
  stroke-width="1"
  style="overflow:visible"
  viewBox="0, -0.1074, 1, 0.1191"
  xmlns="http://www.w3.org/2000/svg">
    <title>GOE 330 (PFALZ 59) AIRFOIL</title>
    <path 
      vector-effect="non-scaling-stroke"
      d="M1,-0.0005L0.9498,-0.0149L0.8997,-0.0283L0.7994,-0.0522L0.6992,-0.0735L0.599,-0.0889L0.4988,-0.1009L0.3988,-0.1066L0.2988,-0.1074L0.1989,-0.0985L0.149,-0.0882L0.0992,-0.0735L0.0743,-0.0624L0.0494,-0.0491L0.0246,-0.0313L0.0123,-0.0206L0,-0L0.0126,0.0106L0.0251,0.0117L0.0501,0.0107L0.0751,0.0076L0.1001,0.0058L0.15,0.0023L0.2,-0.0003L0.2999,-0.0055L0.3999,-0.0086L0.4999,-0.0108L0.5999,-0.0109L0.6999,-0.0091L0.7999,-0.0062L0.9,-0.0003L0.95,0.0001L1,0.0005"
    />
</svg>
