
<svg 
  class="airfoil-goe331"
  fill="none"
  stroke="black" 
  stroke-width="1"
  style="overflow:visible"
  viewBox="0, -0.1216, 1, 0.13250001"
  xmlns="http://www.w3.org/2000/svg">
    <title>GOE 331 (PFALZ 60) AIRFOIL</title>
    <path 
      vector-effect="non-scaling-stroke"
      d="M1,-0.0013L0.9498,-0.0168L0.8997,-0.0322L0.7994,-0.058L0.6992,-0.0816L0.599,-0.1012L0.4989,-0.1145L0.3988,-0.1216L0.2988,-0.1212L0.1989,-0.1137L0.149,-0.1037L0.0992,-0.087L0.0743,-0.0758L0.0494,-0.0613L0.0246,-0.0424L0.0122,-0.0301L0,-0L0.0126,0.0109L0.0251,0.0087L0.05,0.0041L0.075,0.0002L0.1,-0.003L0.1499,-0.0081L0.1999,-0.0114L0.2999,-0.0148L0.3999,-0.0158L0.4999,-0.0152L0.5999,-0.0134L0.6999,-0.0102L0.7999,-0.0069L0.9,-0.003L0.95,-0.0009L1,0.0013"
    />
</svg>
