
<svg 
  class="airfoil-goe318"
  fill="none"
  stroke="black" 
  stroke-width="1"
  style="overflow:visible"
  viewBox="0, -0.0889, 1, 0.1012"
  xmlns="http://www.w3.org/2000/svg">
    <title>GOE 318 (HANSA-BRANDENBURG VI.5) AIRFOIL</title>
    <path 
      vector-effect="non-scaling-stroke"
      d="M1,-0.002L0.9499,-0.0069L0.8999,-0.0125L0.7997,-0.0263L0.6995,-0.0429L0.5994,-0.06L0.4992,-0.0756L0.3991,-0.0855L0.2991,-0.0889L0.1991,-0.084L0.1492,-0.0774L0.0993,-0.0635L0.0744,-0.0545L0.0495,-0.0431L0.0247,-0.0291L0.0123,-0.0195L0,-0L0.0126,0.0109L0.0251,0.0123L0.0501,0.0118L0.0751,0.0112L0.1001,0.0099L0.1501,0.0071L0.2,0.005L0.3,0.0024L0.4,0.0018L0.5,0.0018L0.6,0.0018L0.7,0.0024L0.8,0.003L0.9,0.0025L0.95,0.0025L1,0.002"
    />
</svg>
