
<svg 
  class="airfoil-goe361"
  fill="none"
  stroke="black" 
  stroke-width="1"
  style="overflow:visible"
  viewBox="0, -0.0873, 1, 0.0957"
  xmlns="http://www.w3.org/2000/svg">
    <title>GOE 361 AIRFOIL</title>
    <path 
      vector-effect="non-scaling-stroke"
      d="M1,-0L0.95,-0.0106L0.9,-0.0198L0.8,-0.0375L0.7,-0.0527L0.6,-0.066L0.5,-0.0772L0.4,-0.0845L0.3,-0.0873L0.2,-0.0825L0.15,-0.0756L0.1,-0.0617L0.075,-0.0526L0.05,-0.0409L0.025,-0.0257L0.0125,-0.0171L0,-0L0.0125,0.0084L0.025,0.0073L0.05,0.0041L0.075,0.0004L0.1,-0.0033L0.15,-0.0096L0.2,-0.0145L0.3,-0.0223L0.4,-0.026L0.5,-0.0278L0.6,-0.0265L0.7,-0.0227L0.8,-0.0175L0.9,-0.0088L0.95,-0.0036L1,-0"
    />
</svg>
