
<svg 
  class="airfoil-goe315"
  fill="none"
  stroke="black" 
  stroke-width="1"
  style="overflow:visible"
  viewBox="0, -0.0814, 1, 0.0917"
  xmlns="http://www.w3.org/2000/svg">
    <title>GOE 315 (HANSA-BRANDENBURG III.5) AIRFOIL</title>
    <path 
      vector-effect="non-scaling-stroke"
      d="M1,-0L0.9499,-0.0085L0.8998,-0.0159L0.7997,-0.0298L0.6995,-0.0438L0.5994,-0.0584L0.4993,-0.0697L0.3992,-0.0787L0.2991,-0.0814L0.1992,-0.0766L0.1493,-0.0708L0.0994,-0.0595L0.0745,-0.0514L0.0496,-0.042L0.0247,-0.0288L0.0123,-0.0214L0,-0L0.0126,0.0103L0.0251,0.0103L0.0501,0.008L0.0751,0.0058L0.1,0.0036L0.15,0.001L0.2,-0.0005L0.3,-0.0006L0.4,-0L0.5,-0L0.6,-0.0003L0.7,-0.0005L0.8,0.0005L0.9,0.0006L0.95,0.0005L1,-0"
    />
</svg>
