
<svg 
  class="airfoil-goe371"
  fill="none"
  stroke="black" 
  stroke-width="1"
  style="overflow:visible"
  viewBox="0, -0.0794, 1, 0.0868"
  xmlns="http://www.w3.org/2000/svg">
    <title>GOE 371 AIRFOIL</title>
    <path 
      vector-effect="non-scaling-stroke"
      d="M1,-0L0.9499,-0.0102L0.8999,-0.0199L0.7998,-0.0372L0.6997,-0.0525L0.5996,-0.0659L0.4995,-0.0737L0.3995,-0.0786L0.2995,-0.0794L0.1995,-0.0718L0.1496,-0.065L0.0996,-0.0551L0.0747,-0.048L0.0498,-0.0388L0.0248,-0.0267L0.0124,-0.0176L0,-0L0.0126,0.0074L0.025,0.0073L0.05,0.0062L0.075,0.0045L0.1,0.0023L0.15,-0.0015L0.2,-0.0048L0.2999,-0.0099L0.3999,-0.0136L0.4999,-0.0153L0.5999,-0.0149L0.6999,-0.0126L0.7999,-0.0092L0.9,-0.0044L0.95,-0.0017L1,-0"
    />
</svg>
