
<svg 
  class="airfoil-goe359"
  fill="none"
  stroke="black" 
  stroke-width="1"
  style="overflow:visible"
  viewBox="0, -0.0972, 1, 0.1046"
  xmlns="http://www.w3.org/2000/svg">
    <title>GOE 359 AIRFOIL</title>
    <path 
      vector-effect="non-scaling-stroke"
      d="M1,-0.0015L0.95,-0.0146L0.9,-0.0243L0.8,-0.0425L0.7,-0.0602L0.6,-0.0755L0.5,-0.0878L0.4,-0.0955L0.3,-0.0972L0.2,-0.089L0.15,-0.0811L0.1,-0.0677L0.075,-0.0586L0.05,-0.0459L0.025,-0.0307L0.0125,-0.0176L0,-0L0.0125,0.0074L0.025,0.0073L0.05,0.0041L0.075,0.0024L0.1,-0.0008L0.15,-0.0066L0.2,-0.0115L0.3,-0.0192L0.4,-0.022L0.5,-0.0217L0.6,-0.0205L0.7,-0.0162L0.8,-0.011L0.9,-0.0052L0.95,-0.0026L1,-0"
    />
</svg>
