
<svg 
  class="airfoil-goe382"
  fill="none"
  stroke="black" 
  stroke-width="1"
  style="overflow:visible"
  viewBox="0, -0.1599, 1, 0.2014"
  xmlns="http://www.w3.org/2000/svg">
    <title>GOE 382 AIRFOIL</title>
    <path 
      vector-effect="non-scaling-stroke"
      d="M1,-0.001L0.9489,-0.0169L0.8977,-0.0349L0.7955,-0.0691L0.6935,-0.0991L0.5918,-0.1249L0.4904,-0.1464L0.3896,-0.1585L0.2895,-0.1599L0.1905,-0.1455L0.1415,-0.13L0.093,-0.1077L0.0689,-0.0933L0.0451,-0.0747L0.0219,-0.0477L0.0105,-0.031L0,-0L0.0139,0.0211L0.028,0.0264L0.0521,0.0322L0.0773,0.0348L0.1025,0.0385L0.1527,0.0405L0.2027,0.0415L0.3026,0.0403L0.4024,0.0375L0.5022,0.0336L0.6018,0.0271L0.7013,0.0206L0.8009,0.0141L0.9005,0.0076L0.9503,0.0043L1,0.001"
    />
</svg>
