
<svg 
  class="airfoil-goe395"
  fill="none"
  stroke="black" 
  stroke-width="1"
  style="overflow:visible"
  viewBox="0, -0.095, 1, 0.1059"
  xmlns="http://www.w3.org/2000/svg">
    <title>GOE 395 AIRFOIL</title>
    <path 
      vector-effect="non-scaling-stroke"
      d="M1,-0.0008L0.9499,-0.0114L0.8998,-0.0227L0.7995,-0.0442L0.6993,-0.0649L0.5991,-0.0836L0.499,-0.092L0.399,-0.095L0.299,-0.0924L0.1991,-0.0819L0.1493,-0.0722L0.0994,-0.0593L0.0745,-0.0516L0.0496,-0.0415L0.0247,-0.0285L0.0123,-0.0189L0,-0L0.0126,0.0096L0.0251,0.0109L0.0501,0.0093L0.075,0.0044L0.1,-0.0013L0.1499,-0.0119L0.1998,-0.0209L0.2997,-0.0339L0.3996,-0.0425L0.4995,-0.0475L0.5995,-0.0484L0.6996,-0.0356L0.7998,-0.0232L0.8999,-0.0104L0.9499,-0.0049L1,0.0008"
    />
</svg>
