
<svg 
  class="airfoil-goe369"
  fill="none"
  stroke="black" 
  stroke-width="1"
  style="overflow:visible"
  viewBox="0, -0.0835, 1, 0.0835"
  xmlns="http://www.w3.org/2000/svg">
    <title>GOE 369 AIRFOIL</title>
    <path 
      vector-effect="non-scaling-stroke"
      d="M1,-0L0.95,-0.0095L0.9,-0.018L0.8,-0.033L0.7,-0.048L0.6,-0.0625L0.5,-0.075L0.4,-0.0825L0.3,-0.0835L0.2,-0.078L0.15,-0.0715L0.1,-0.0625L0.075,-0.056L0.05,-0.0476L0.025,-0.035L0.0125,-0.025L0,-0.001L0.0125,-0L0.025,-0.0025L0.05,-0.006L0.075,-0.01L0.1,-0.0135L0.15,-0.0176L0.2,-0.021L0.3,-0.025L0.4,-0.0265L0.5,-0.0245L0.6,-0.0205L0.7,-0.015L0.8,-0.01L0.9,-0.005L0.95,-0.002L1,-0"
    />
</svg>
