
<svg 
  class="airfoil-goe366"
  fill="none"
  stroke="black" 
  stroke-width="1"
  style="overflow:visible"
  viewBox="0, -0.1375, 1, 0.1543"
  xmlns="http://www.w3.org/2000/svg">
    <title>GOE 366 AIRFOIL</title>
    <path 
      vector-effect="non-scaling-stroke"
      d="M1,-0.0015L0.9497,-0.02L0.8994,-0.0362L0.799,-0.067L0.6986,-0.0925L0.5982,-0.1143L0.498,-0.1282L0.3979,-0.1367L0.2979,-0.1375L0.1981,-0.1258L0.1482,-0.1126L0.0985,-0.0933L0.0737,-0.0813L0.049,-0.066L0.0243,-0.0449L0.012,-0.0299L0,-0L0.0128,0.0168L0.0252,0.0155L0.0502,0.0122L0.0751,0.0091L0.1001,0.0063L0.15,0.0022L0.2,-0.002L0.2999,-0.0061L0.3999,-0.0083L0.4999,-0.0088L0.5999,-0.0082L0.6999,-0.0071L0.7999,-0.006L0.9,-0.0027L0.95,-0.0009L1,0.0015"
    />
</svg>
