
<svg 
  class="airfoil-goe377"
  fill="none"
  stroke="black" 
  stroke-width="1"
  style="overflow:visible"
  viewBox="0, -0.0704, 1, 0.0778"
  xmlns="http://www.w3.org/2000/svg">
    <title>GOE 377 AIRFOIL</title>
    <path 
      vector-effect="non-scaling-stroke"
      d="M1,-0L0.95,-0.0097L0.9,-0.0184L0.8,-0.0348L0.7,-0.0482L0.6,-0.0586L0.5,-0.066L0.4,-0.0704L0.3,-0.0703L0.2,-0.0652L0.15,-0.0594L0.1,-0.0496L0.075,-0.043L0.05,-0.0338L0.025,-0.0226L0.0125,-0.0146L0,-0L0.0125,0.0064L0.025,0.0074L0.05,0.0062L0.075,0.0046L0.1,0.0029L0.15,0.0001L0.2,-0.0027L0.3,-0.0058L0.4,-0.0074L0.5,-0.006L0.6,-0.0036L0.7,-0.0022L0.8,-0.0003L0.9,0.0011L0.95,0.0013L1,-0"
    />
</svg>
