
<svg 
  class="airfoil-goe398"
  fill="none"
  stroke="black" 
  stroke-width="1"
  style="overflow:visible"
  viewBox="0, -0.1169, 1, 0.1427"
  xmlns="http://www.w3.org/2000/svg">
    <title>GOE 398 AIRFOIL</title>
    <path 
      vector-effect="non-scaling-stroke"
      d="M1,-0L0.95,-0.0146L0.9,-0.0277L0.8,-0.0519L0.7,-0.0741L0.6,-0.0928L0.5,-0.107L0.4,-0.1147L0.3,-0.1169L0.2,-0.1091L0.15,-0.1002L0.1,-0.0858L0.075,-0.0751L0.05,-0.0619L0.025,-0.0457L0.0125,-0.0344L0,-0L0.0125,0.0121L0.025,0.0168L0.05,0.0216L0.075,0.0239L0.1,0.0252L0.15,0.0258L0.2,0.0244L0.3,0.0216L0.4,0.0177L0.5,0.0135L0.6,0.0097L0.7,0.0069L0.8,0.0051L0.9,0.0033L0.95,0.0029L1,-0"
    />
</svg>
