
<svg 
  class="airfoil-goe391"
  fill="none"
  stroke="black" 
  stroke-width="1"
  style="overflow:visible"
  viewBox="0, -0.0576, 1, 0.0625"
  xmlns="http://www.w3.org/2000/svg">
    <title>GOE 391 AIRFOIL</title>
    <path 
      vector-effect="non-scaling-stroke"
      d="M1,-0L0.95,-0.0098L0.9,-0.0186L0.8,-0.0332L0.7,-0.0443L0.6,-0.0514L0.5,-0.056L0.4,-0.0576L0.3,-0.0552L0.2,-0.0498L0.15,-0.0443L0.1,-0.0374L0.075,-0.0323L0.05,-0.0262L0.025,-0.0181L0.0125,-0.0131L0,-0L0.0125,0.0049L0.025,0.0046L0.05,0.003L0.075,0.0013L0.1,-0.0004L0.15,-0.0026L0.2,-0.0042L0.3,-0.0062L0.4,-0.0066L0.5,-0.006L0.6,-0.0044L0.7,-0.0028L0.8,-0.0012L0.9,0.0002L0.95,0.0002L1,-0"
    />
</svg>
