
<svg 
  class="airfoil-goe364"
  fill="none"
  stroke="black" 
  stroke-width="1"
  style="overflow:visible"
  viewBox="0, -0.1191, 1, 0.127"
  xmlns="http://www.w3.org/2000/svg">
    <title>GOE 364 AIRFOIL</title>
    <path 
      vector-effect="non-scaling-stroke"
      d="M1,-0L0.95,-0.0137L0.9,-0.0273L0.8,-0.0506L0.7,-0.0719L0.6,-0.0912L0.5,-0.1065L0.4,-0.1158L0.3,-0.1191L0.2,-0.1114L0.15,-0.1031L0.1,-0.0887L0.075,-0.0785L0.05,-0.0654L0.025,-0.0462L0.0125,-0.0321L0,-0L0.0125,0.0079L0.025,0.0078L0.05,0.006L0.075,0.004L0.1,0.0013L0.15,-0.003L0.2,-0.0064L0.3,-0.0111L0.4,-0.0128L0.5,-0.0135L0.6,-0.0112L0.7,-0.0089L0.8,-0.0066L0.9,-0.0023L0.95,-0.0007L1,-0"
    />
</svg>
