
<svg 
  class="airfoil-goe346"
  fill="none"
  stroke="black" 
  stroke-width="1"
  style="overflow:visible"
  viewBox="0, -0.0666, 1, 0.0766"
  xmlns="http://www.w3.org/2000/svg">
    <title>GOE 346 (FRIEDRICHSHAFEN-STAAKEN) AIRFOIL</title>
    <path 
      vector-effect="non-scaling-stroke"
      d="M1,-0.0018L0.9499,-0.0103L0.8999,-0.0181L0.7997,-0.0336L0.6996,-0.0463L0.5995,-0.0566L0.4995,-0.0632L0.3994,-0.0666L0.2995,-0.0658L0.1995,-0.0607L0.1495,-0.0556L0.0996,-0.0477L0.0746,-0.0416L0.0497,-0.0339L0.0248,-0.0231L0.0124,-0.0166L0,-0L0.0126,0.01L0.0251,0.0094L0.05,0.0047L0.075,0.0015L0.1,-0.0013L0.1499,-0.0055L0.1999,-0.0076L0.2999,-0.0096L0.3999,-0.0092L0.4999,-0.0074L0.6,-0.0055L0.7,-0.0037L0.8,-0.0019L0.9,-0.0001L0.95,0.0011L1,0.0018"
    />
</svg>
