
<svg 
  class="airfoil-goe409"
  fill="none"
  stroke="black" 
  stroke-width="1"
  style="overflow:visible"
  viewBox="0, -0.0635, 1, 0.127"
  xmlns="http://www.w3.org/2000/svg">
    <title>GOE 409 AIRFOIL</title>
    <path 
      vector-effect="non-scaling-stroke"
      d="M1,-0L0.95,-0.0065L0.9,-0.015L0.8,-0.03L0.7,-0.042L0.6,-0.0515L0.5,-0.0585L0.4,-0.0635L0.3,-0.0635L0.2,-0.0585L0.15,-0.054L0.1,-0.047L0.075,-0.041L0.05,-0.0345L0.022,-0.025L0.0125,-0.0185L0,-0L0.0125,0.0185L0.022,0.025L0.05,0.0345L0.075,0.041L0.1,0.047L0.15,0.054L0.2,0.0585L0.3,0.0635L0.4,0.0635L0.5,0.0585L0.6,0.0515L0.7,0.042L0.8,0.03L0.9,0.015L0.95,0.0065L1,-0"
    />
</svg>
