
<svg 
  class="airfoil-goe482"
  fill="none"
  stroke="black" 
  stroke-width="1"
  style="overflow:visible"
  viewBox="0, -0.1644, 1, 0.1881"
  xmlns="http://www.w3.org/2000/svg">
    <title>GOE 482 AIRFOIL</title>
    <path 
      vector-effect="non-scaling-stroke"
      d="M1,-0L0.9495,-0.0182L0.8991,-0.0365L0.7983,-0.07L0.6974,-0.1029L0.5967,-0.1304L0.4957,-0.1506L0.3959,-0.1634L0.2959,-0.1644L0.1963,-0.1494L0.1467,-0.1332L0.0972,-0.1099L0.0727,-0.0938L0.0482,-0.0732L0.0238,-0.0471L0.0117,-0.0308L0,-0L0.0129,0.0152L0.0255,0.0214L0.0506,0.0237L0.0756,0.0231L0.1006,0.022L0.1504,0.0172L0.2003,0.012L0.3,0.0005L0.3997,-0.013L0.4994,-0.022L0.5993,-0.029L0.6992,-0.031L0.7993,-0.028L0.8996,-0.018L0.9498,-0.0097L1,-0"
    />
</svg>
