
<svg 
  class="airfoil-goe406"
  fill="none"
  stroke="black" 
  stroke-width="1"
  style="overflow:visible"
  viewBox="0, -0.1137, 1, 0.1295"
  xmlns="http://www.w3.org/2000/svg">
    <title>GOE 406 AIRFOIL</title>
    <path 
      vector-effect="non-scaling-stroke"
      d="M1,-0L0.9499,-0.0162L0.8998,-0.0308L0.7997,-0.053L0.6996,-0.0739L0.5995,-0.0926L0.4994,-0.1064L0.3994,-0.1133L0.2994,-0.1137L0.1994,-0.1064L0.1495,-0.096L0.0996,-0.0788L0.0746,-0.068L0.0497,-0.0542L0.0248,-0.0371L0.0124,-0.0265L0,-0L0.0126,0.0147L0.0251,0.0158L0.0501,0.0151L0.0751,0.013L0.1001,0.0112L0.15,0.0079L0.2,0.0058L0.3,0.0032L0.4,0.0026L0.5,0.0026L0.6,0.0035L0.7,0.0047L0.8,0.0063L0.9,0.0089L0.9501,0.0083L1,-0"
    />
</svg>
