
<svg 
  class="airfoil-goe442"
  fill="none"
  stroke="black" 
  stroke-width="1"
  style="overflow:visible"
  viewBox="0, -0.0802, 1, 0.089"
  xmlns="http://www.w3.org/2000/svg">
    <title>GOE 442 AIRFOIL</title>
    <path 
      vector-effect="non-scaling-stroke"
      d="M1,-0L0.9499,-0.011L0.8998,-0.0212L0.7997,-0.0382L0.6995,-0.0518L0.5994,-0.0629L0.4994,-0.071L0.3993,-0.0776L0.2993,-0.0802L0.1993,-0.0758L0.1494,-0.0693L0.0995,-0.0599L0.0745,-0.0537L0.0496,-0.0444L0.0247,-0.0307L0.0123,-0.0211L0,-0L0.0126,0.0069L0.0251,0.0088L0.0501,0.0086L0.0751,0.0073L0.1001,0.0066L0.15,0.0041L0.2,0.0012L0.3,-0.0052L0.3999,-0.0091L0.4999,-0.011L0.5999,-0.0109L0.6999,-0.0088L0.7999,-0.0062L0.9,-0.0023L0.95,-0.001L1,-0"
    />
</svg>
