
<svg 
  class="airfoil-goe483"
  fill="none"
  stroke="black" 
  stroke-width="1"
  style="overflow:visible"
  viewBox="0, -0.0815, 1, 0.0864"
  xmlns="http://www.w3.org/2000/svg">
    <title>GOE 483 AIRFOIL</title>
    <path 
      vector-effect="non-scaling-stroke"
      d="M1,-0L0.95,-0.0093L0.9,-0.0185L0.8,-0.036L0.7,-0.0525L0.6,-0.066L0.5,-0.075L0.4,-0.081L0.3,-0.0815L0.2,-0.0745L0.15,-0.0667L0.1,-0.055L0.075,-0.0469L0.05,-0.0367L0.025,-0.0231L0.0125,-0.0146L0,-0L0.0125,0.0044L0.025,0.0049L0.05,0.0033L0.075,0.0001L0.1,-0.004L0.15,-0.0122L0.2,-0.021L0.3,-0.033L0.4,-0.0355L0.5,-0.033L0.6,-0.027L0.7,-0.0205L0.8,-0.014L0.9,-0.0075L0.95,-0.0037L1,-0"
    />
</svg>
