
<svg 
  class="airfoil-goe438"
  fill="none"
  stroke="black" 
  stroke-width="1"
  style="overflow:visible"
  viewBox="0, -0.0924, 1, 0.1151"
  xmlns="http://www.w3.org/2000/svg">
    <title>GOE 438 AIRFOIL</title>
    <path 
      vector-effect="non-scaling-stroke"
      d="M1,-0L0.9497,-0.0112L0.8995,-0.022L0.799,-0.041L0.6985,-0.0585L0.5982,-0.072L0.4979,-0.0834L0.3977,-0.0904L0.2977,-0.0924L0.1978,-0.0869L0.148,-0.0792L0.0983,-0.0665L0.0736,-0.0578L0.0488,-0.0462L0.0242,-0.0326L0.0119,-0.0223L0,-0L0.0129,0.0147L0.0255,0.0204L0.0506,0.0227L0.0756,0.0226L0.1006,0.0225L0.1505,0.0212L0.2005,0.02L0.3004,0.0175L0.4004,0.015L0.5003,0.0125L0.6003,0.01L0.7002,0.0075L0.8001,0.005L0.9001,0.0025L0.95,0.0012L1,-0"
    />
</svg>
