
<svg 
  class="airfoil-goe437"
  fill="none"
  stroke="black" 
  stroke-width="1"
  style="overflow:visible"
  viewBox="0, -0.0821, 1, 0.0889"
  xmlns="http://www.w3.org/2000/svg">
    <title>GOE 437 AIRFOIL</title>
    <path 
      vector-effect="non-scaling-stroke"
      d="M1,-0L0.95,-0.0106L0.9,-0.0208L0.8,-0.0381L0.7,-0.0529L0.6,-0.0662L0.5,-0.075L0.4,-0.0813L0.3,-0.0821L0.2,-0.0754L0.15,-0.0671L0.1,-0.0547L0.075,-0.0465L0.05,-0.0364L0.025,-0.0228L0.0125,-0.0146L0,-0L0.0125,0.0054L0.025,0.0068L0.05,0.0066L0.075,0.0055L0.1,0.0028L0.15,-0.0021L0.2,-0.0064L0.3,-0.0116L0.4,-0.0148L0.5,-0.0165L0.6,-0.0157L0.7,-0.0134L0.8,-0.0091L0.9,-0.0043L0.95,-0.0022L1,-0"
    />
</svg>
