
<svg 
  class="airfoil-goe430"
  fill="none"
  stroke="black" 
  stroke-width="1"
  style="overflow:visible"
  viewBox="0, -0.1075, 1, 0.1468"
  xmlns="http://www.w3.org/2000/svg">
    <title>GOE 430 AIRFOIL</title>
    <path 
      vector-effect="non-scaling-stroke"
      d="M1,-0.0011L0.9493,-0.0156L0.8945,-0.03L0.7976,-0.0543L0.6967,-0.0753L0.596,-0.0909L0.4955,-0.1022L0.3953,-0.1075L0.2953,-0.1064L0.1959,-0.0934L0.1463,-0.0842L0.0969,-0.0702L0.0724,-0.0605L0.0479,-0.0491L0.0236,-0.0318L0.0116,-0.0205L0,-0L0.0134,0.02L0.0262,0.0276L0.0515,0.034L0.0767,0.0377L0.1017,0.0393L0.1517,0.0383L0.2016,0.0361L0.3012,0.0268L0.4007,0.0166L0.5002,0.0052L0.5998,-0.0046L0.6995,-0.0122L0.7994,-0.0133L0.8996,-0.0091L0.9498,-0.0048L1,0.0011"
    />
</svg>
