
<svg 
  class="airfoil-goe421"
  fill="none"
  stroke="black" 
  stroke-width="1"
  style="overflow:visible"
  viewBox="0, -0.1711, 1, 0.2088"
  xmlns="http://www.w3.org/2000/svg">
    <title>GOE 421 AIRFOIL</title>
    <path 
      vector-effect="non-scaling-stroke"
      d="M1,-0.001L0.9489,-0.0263L0.8978,-0.0508L0.7961,-0.0914L0.6946,-0.1241L0.5936,-0.149L0.4929,-0.1653L0.3926,-0.1711L0.2928,-0.1668L0.1936,-0.1493L0.1444,-0.131L0.0953,-0.1082L0.071,-0.0935L0.0468,-0.0744L0.0229,-0.048L0.0112,-0.0306L0,-0L0.0132,0.0173L0.026,0.0243L0.0514,0.0313L0.0765,0.035L0.1016,0.037L0.1516,0.0377L0.2014,0.033L0.301,0.0224L0.4005,0.0108L0.5001,0.0025L0.5999,-0.0026L0.6998,-0.0048L0.7998,-0.0046L0.8999,-0.0026L0.9499,-0.0011L1,0.001"
    />
</svg>
