
<svg 
  class="airfoil-goe426"
  fill="none"
  stroke="black" 
  stroke-width="1"
  style="overflow:visible"
  viewBox="0, -0.1115, 1, 0.138"
  xmlns="http://www.w3.org/2000/svg">
    <title>GOE 426 AIRFOIL</title>
    <path 
      vector-effect="non-scaling-stroke"
      d="M1,-0L0.95,-0.0108L0.9,-0.0225L0.8,-0.0455L0.7,-0.066L0.6,-0.085L0.5,-0.1L0.4,-0.1105L0.3,-0.1115L0.2,-0.1005L0.15,-0.0887L0.1,-0.072L0.075,-0.0616L0.05,-0.0487L0.025,-0.0324L0.0125,-0.0214L0,-0L0.0125,0.0171L0.025,0.0206L0.05,0.023L0.075,0.0249L0.1,0.0255L0.15,0.0262L0.2,0.0265L0.3,0.0245L0.4,0.0195L0.5,0.014L0.6,0.0075L0.7,0.002L0.8,-0.002L0.9,-0.0025L0.95,-0.0018L1,-0"
    />
</svg>
