
<svg 
  class="airfoil-goe435"
  fill="none"
  stroke="black" 
  stroke-width="1"
  style="overflow:visible"
  viewBox="0.0001, -0.1669, 0.9999, 0.26389998"
  xmlns="http://www.w3.org/2000/svg">
    <title>GOE 435 AIRFOIL</title>
    <path 
      vector-effect="non-scaling-stroke"
      d="M1,-0.0014L0.9476,-0.0183L0.8952,-0.0364L0.7907,-0.0711L0.6864,-0.1037L0.5825,-0.1331L0.4798,-0.1535L0.3781,-0.1668L0.2781,-0.1669L0.1798,-0.154L0.1317,-0.1396L0.0847,-0.1164L0.0619,-0.1001L0.0393,-0.0818L0.0178,-0.0555L0.0076,-0.0382L0.0001,-0L0.0177,0.0392L0.0322,0.0543L0.0592,0.0693L0.0856,0.0809L0.1122,0.0904L0.1627,0.0956L0.2128,0.097L0.3122,0.0919L0.4098,0.0742L0.5073,0.055L0.6047,0.0358L0.7023,0.0176L0.8004,0.0026L0.8997,-0.0024L0.9499,-0.001L1,0.0014"
    />
</svg>
