
<svg 
  class="airfoil-goe457"
  fill="none"
  stroke="black" 
  stroke-width="1"
  style="overflow:visible"
  viewBox="0, -0.0799, 1, 0.0907"
  xmlns="http://www.w3.org/2000/svg">
    <title>GOE 457 AIRFOIL</title>
    <path 
      vector-effect="non-scaling-stroke"
      d="M1,-0L0.9499,-0.0119L0.8997,-0.0218L0.7995,-0.0397L0.6994,-0.0527L0.5993,-0.0629L0.4992,-0.0707L0.3991,-0.0772L0.2991,-0.0799L0.1991,-0.0756L0.1492,-0.0693L0.0993,-0.0587L0.0744,-0.052L0.0495,-0.0433L0.0247,-0.0303L0.0123,-0.0193L0,-0L0.0126,0.0088L0.0251,0.0102L0.0501,0.0108L0.0751,0.0096L0.1001,0.0083L0.1501,0.0059L0.2,0.0027L0.3,-0.0035L0.3999,-0.0072L0.4999,-0.0096L0.5999,-0.0094L0.6999,-0.0083L0.7999,-0.0061L0.9,-0.0034L0.95,-0.0014L1,-0"
    />
</svg>
