
<svg 
  class="airfoil-goe428"
  fill="none"
  stroke="black" 
  stroke-width="1"
  style="overflow:visible"
  viewBox="0, -0.0904, 1, 0.097200006"
  xmlns="http://www.w3.org/2000/svg">
    <title>GOE 428 AIRFOIL</title>
    <path 
      vector-effect="non-scaling-stroke"
      d="M1,-0L0.95,-0.0116L0.9,-0.0222L0.8,-0.0404L0.7,-0.0576L0.6,-0.0718L0.5,-0.083L0.4,-0.0892L0.3,-0.0904L0.2,-0.0836L0.15,-0.0742L0.1,-0.0608L0.075,-0.0516L0.05,-0.0414L0.025,-0.0262L0.0125,-0.0171L0,-0L0.0125,0.0059L0.025,0.0068L0.05,0.0066L0.075,0.0054L0.1,0.0032L0.15,-0.0022L0.2,-0.0056L0.3,-0.0114L0.4,-0.0152L0.5,-0.017L0.6,-0.0168L0.7,-0.0136L0.8,-0.0094L0.9,-0.0052L0.95,-0.0026L1,-0"
    />
</svg>
