
<svg 
  class="airfoil-goe484"
  fill="none"
  stroke="black" 
  stroke-width="1"
  style="overflow:visible"
  viewBox="0, -0.0793, 1, 0.0915"
  xmlns="http://www.w3.org/2000/svg">
    <title>GOE 484 AIRFOIL</title>
    <path 
      vector-effect="non-scaling-stroke"
      d="M1,-0L0.9,-0.0248L0.8,-0.0441L0.7,-0.0598L0.6,-0.0697L0.5,-0.0765L0.4,-0.0793L0.3,-0.0751L0.2,-0.0654L0.15,-0.0578L0.1,-0.0467L0.075,-0.0399L0.05,-0.0321L0.025,-0.0233L0.0125,-0.0171L0,-0L0.0125,0.0115L0.025,0.0122L0.05,0.0115L0.075,0.0096L0.1,0.0068L0.15,0.0002L0.2,-0.0054L0.3,-0.0126L0.4,-0.0188L0.5,-0.0225L0.6,-0.0242L0.7,-0.0219L0.8,-0.0171L0.9,-0.0088L1,-0"
    />
</svg>
