
<svg 
  class="airfoil-goe411"
  fill="none"
  stroke="black" 
  stroke-width="1"
  style="overflow:visible"
  viewBox="0, -0.066, 1, 0.132"
  xmlns="http://www.w3.org/2000/svg">
    <title>GOE 411 AIRFOIL</title>
    <path 
      vector-effect="non-scaling-stroke"
      d="M1,-0L0.9,-0.018L0.8,-0.032L0.7,-0.044L0.6,-0.053L0.5,-0.0605L0.4,-0.0655L0.3,-0.066L0.2,-0.0605L0.15,-0.055L0.1,-0.046L0.075,-0.0388L0.05,-0.0305L0.025,-0.0184L0.0125,-0.0115L0,-0L0.0125,0.0115L0.025,0.0184L0.05,0.0305L0.075,0.0388L0.1,0.046L0.15,0.055L0.2,0.0605L0.3,0.066L0.4,0.0655L0.5,0.0605L0.6,0.053L0.7,0.044L0.8,0.032L0.9,0.018L1,-0"
    />
</svg>
