
<svg 
  class="airfoil-goe446"
  fill="none"
  stroke="black" 
  stroke-width="1"
  style="overflow:visible"
  viewBox="0, -0.1269, 1, 0.1507"
  xmlns="http://www.w3.org/2000/svg">
    <title>GOE 446 AIRFOIL</title>
    <path 
      vector-effect="non-scaling-stroke"
      d="M1,-0.0016L0.9496,-0.019L0.8992,-0.0364L0.7985,-0.0655L0.6979,-0.0897L0.5974,-0.1097L0.4971,-0.1222L0.397,-0.1269L0.2971,-0.1239L0.1975,-0.1083L0.1478,-0.0955L0.0982,-0.0784L0.0734,-0.0677L0.0487,-0.0538L0.0242,-0.0346L0.012,-0.0232L0,-0L0.0129,0.0178L0.0255,0.0212L0.0506,0.0238L0.0755,0.0232L0.1005,0.0211L0.1504,0.0162L0.2003,0.0118L0.3001,0.0047L0.4,0.0002L0.4999,-0.0027L0.5999,-0.005L0.6999,-0.0047L0.7999,-0.0033L0.9,-0.0014L0.95,-0.0004L1,0.0016"
    />
</svg>
