
<svg 
  class="airfoil-goe447"
  fill="none"
  stroke="black" 
  stroke-width="1"
  style="overflow:visible"
  viewBox="0, -0.1418, 1, 0.1616"
  xmlns="http://www.w3.org/2000/svg">
    <title>GOE 447 AIRFOIL</title>
    <path 
      vector-effect="non-scaling-stroke"
      d="M1,-0.0016L0.9496,-0.0213L0.8992,-0.039L0.7986,-0.0709L0.698,-0.1L0.5976,-0.1229L0.4973,-0.1374L0.3972,-0.1418L0.2973,-0.1378L0.1976,-0.1201L0.1479,-0.1061L0.0983,-0.087L0.0736,-0.0733L0.0489,-0.0579L0.0243,-0.0377L0.012,-0.0252L0,-0L0.0128,0.0162L0.0254,0.0192L0.0504,0.0198L0.0753,0.0163L0.1002,0.0129L0.1501,0.0071L0.2,0.0009L0.2998,-0.0112L0.3996,-0.0185L0.4996,-0.0204L0.5996,-0.0182L0.6997,-0.0138L0.7998,-0.0089L0.8999,-0.0033L0.95,-0.0011L1,0.0016"
    />
</svg>
