
<svg 
  class="airfoil-goe445"
  fill="none"
  stroke="black" 
  stroke-width="1"
  style="overflow:visible"
  viewBox="0, -0.032, 1, 0.064"
  xmlns="http://www.w3.org/2000/svg">
    <title>GOE 445 AIRFOIL</title>
    <path 
      vector-effect="non-scaling-stroke"
      d="M1,-0L0.95,-0.0045L0.9,-0.0083L0.8,-0.015L0.7,-0.021L0.6,-0.0255L0.5,-0.0295L0.4,-0.032L0.3,-0.0315L0.2,-0.029L0.15,-0.0265L0.1,-0.022L0.075,-0.019L0.05,-0.0155L0.025,-0.0105L0.0125,-0.007L0,-0L0.0125,0.007L0.025,0.0105L0.05,0.0155L0.075,0.019L0.1,0.022L0.15,0.0265L0.2,0.029L0.3,0.0315L0.4,0.032L0.5,0.0295L0.6,0.0255L0.7,0.021L0.8,0.015L0.9,0.0083L0.95,0.0045L1,-0"
    />
</svg>
