
<svg 
  class="airfoil-goe498"
  fill="none"
  stroke="black" 
  stroke-width="1"
  style="overflow:visible"
  viewBox="0, -0.128, 1, 0.169"
  xmlns="http://www.w3.org/2000/svg">
    <title>GOE 498 AIRFOIL</title>
    <path 
      vector-effect="non-scaling-stroke"
      d="M1,-0L0.9491,-0.0175L0.8984,-0.033L0.7969,-0.0619L0.6958,-0.0854L0.5948,-0.1054L0.4941,-0.12L0.3937,-0.128L0.2937,-0.1275L0.1942,-0.1166L0.1448,-0.1052L0.0955,-0.0902L0.0711,-0.079L0.0467,-0.0658L0.0226,-0.0486L0.0107,-0.0365L0,-0L0.0134,0.0183L0.0263,0.0257L0.0517,0.0334L0.0768,0.0372L0.102,0.0399L0.152,0.041L0.202,0.0395L0.3015,0.0311L0.401,0.0202L0.5005,0.0092L0.6,-0.0007L0.6997,-0.0066L0.7996,-0.0086L0.8997,-0.0065L0.9498,-0.0041L1,-0"
    />
</svg>
