
<svg 
  class="airfoil-goe417"
  fill="none"
  stroke="black" 
  stroke-width="1"
  style="overflow:visible"
  viewBox="0, -0.0884, 1, 0.0943"
  xmlns="http://www.w3.org/2000/svg">
    <title>GOE 417 AIRFOIL</title>
    <path 
      vector-effect="non-scaling-stroke"
      d="M1,-0L0.95,-0.0117L0.9,-0.0234L0.8,-0.0437L0.7,-0.0606L0.6,-0.0729L0.5,-0.0822L0.4,-0.0876L0.3,-0.0884L0.2,-0.0833L0.15,-0.076L0.1,-0.0646L0.075,-0.0565L0.05,-0.0443L0.025,-0.0297L0.0125,-0.0196L0,-0L0.0125,0.0059L0.025,0.0038L0.05,-0.0008L0.075,-0.005L0.1,-0.0092L0.15,-0.0165L0.2,-0.0233L0.3,-0.032L0.4,-0.0351L0.5,-0.0333L0.6,-0.0294L0.7,-0.0231L0.8,-0.0157L0.9,-0.0074L0.95,-0.0037L1,-0"
    />
</svg>
