
<svg 
  class="airfoil-goe415"
  fill="none"
  stroke="black" 
  stroke-width="1"
  style="overflow:visible"
  viewBox="0, -0.0781, 1, 0.0873"
  xmlns="http://www.w3.org/2000/svg">
    <title>GOE 415 AIRFOIL</title>
    <path 
      vector-effect="non-scaling-stroke"
      d="M1,-0.0005L0.9499,-0.0084L0.8998,-0.0156L0.7997,-0.0311L0.6995,-0.0439L0.5994,-0.0554L0.4993,-0.0652L0.3993,-0.0737L0.2992,-0.0781L0.1992,-0.076L0.1493,-0.0706L0.0994,-0.06L0.0745,-0.0528L0.0496,-0.0423L0.0247,-0.027L0.0123,-0.0167L0,-0L0.0125,0.0047L0.025,0.0056L0.0501,0.0071L0.0751,0.0084L0.1001,0.0092L0.1501,0.0092L0.2001,0.0087L0.3,0.0049L0.4,0.0012L0.5,-0.0019L0.6,-0.0024L0.7,-0.0028L0.8,-0.0028L0.9,-0.0005L0.95,0.0006L1,0.0005"
    />
</svg>
