
<svg 
  class="airfoil-goe433"
  fill="none"
  stroke="black" 
  stroke-width="1"
  style="overflow:visible"
  viewBox="0, -0.1275, 1, 0.1823"
  xmlns="http://www.w3.org/2000/svg">
    <title>GOE 433 AIRFOIL</title>
    <path 
      vector-effect="non-scaling-stroke"
      d="M1,-0.0008L0.949,-0.0146L0.8981,-0.029L0.7963,-0.0556L0.6946,-0.081L0.5933,-0.1012L0.4922,-0.1182L0.3916,-0.1271L0.2915,-0.1275L0.1923,-0.1155L0.1431,-0.1036L0.0942,-0.0874L0.0699,-0.0761L0.0459,-0.0611L0.0221,-0.044L0.0106,-0.0292L0,-0L0.0141,0.0244L0.0273,0.0342L0.053,0.0449L0.0783,0.0502L0.1036,0.0533L0.1536,0.0548L0.2036,0.0537L0.303,0.0458L0.4023,0.0346L0.5013,0.0199L0.6005,0.0069L0.6999,-0.0019L0.7995,-0.0074L0.8995,-0.007L0.9498,-0.0034L1,0.0008"
    />
</svg>
