
<svg 
  class="airfoil-goe479"
  fill="none"
  stroke="black" 
  stroke-width="1"
  style="overflow:visible"
  viewBox="0, -0.0969, 1, 0.1219"
  xmlns="http://www.w3.org/2000/svg">
    <title>GOE 479 AIRFOIL</title>
    <path 
      vector-effect="non-scaling-stroke"
      d="M1,-0L0.95,-0.012L0.9,-0.0236L0.8,-0.0446L0.7,-0.0622L0.6,-0.0772L0.5,-0.0892L0.4,-0.0958L0.3,-0.0969L0.2,-0.0889L0.15,-0.0809L0.1,-0.0684L0.075,-0.0597L0.05,-0.0486L0.025,-0.0352L0.0125,-0.0264L0,-0L0.0125,0.0141L0.025,0.0188L0.05,0.0225L0.075,0.0243L0.1,0.025L0.15,0.0246L0.2,0.0231L0.3,0.0192L0.4,0.0157L0.5,0.0122L0.6,0.0088L0.7,0.0058L0.8,0.0034L0.9,0.0019L0.95,0.001L1,-0"
    />
</svg>
