
<svg 
  class="airfoil-goe456"
  fill="none"
  stroke="black" 
  stroke-width="1"
  style="overflow:visible"
  viewBox="0, -0.087, 1, 0.0949"
  xmlns="http://www.w3.org/2000/svg">
    <title>GOE 456 AIRFOIL</title>
    <path 
      vector-effect="non-scaling-stroke"
      d="M1,-0L0.9499,-0.0121L0.8998,-0.0233L0.7997,-0.0435L0.6995,-0.0608L0.5994,-0.0735L0.4994,-0.0828L0.3993,-0.087L0.2994,-0.0838L0.1995,-0.0735L0.1495,-0.0656L0.0996,-0.0538L0.0747,-0.0451L0.0497,-0.0344L0.0248,-0.0207L0.0124,-0.0126L0,-0L0.0125,0.0048L0.025,0.0063L0.0501,0.0076L0.0751,0.0079L0.1001,0.0068L0.15,0.0019L0.2,-0.003L0.2999,-0.0117L0.3999,-0.017L0.4999,-0.0188L0.5999,-0.0185L0.6999,-0.0168L0.7999,-0.0125L0.9,-0.0058L0.95,-0.0031L1,-0"
    />
</svg>
