
<svg 
  class="airfoil-goe493"
  fill="none"
  stroke="black" 
  stroke-width="1"
  style="overflow:visible"
  viewBox="0, -0.1062, 1, 0.1539"
  xmlns="http://www.w3.org/2000/svg">
    <title>GOE 493 AIRFOIL</title>
    <path 
      vector-effect="non-scaling-stroke"
      d="M1,-0L0.9489,-0.0149L0.898,-0.0288L0.7962,-0.0546L0.6946,-0.076L0.5935,-0.0918L0.4928,-0.1022L0.3925,-0.1062L0.2928,-0.1021L0.1937,-0.0896L0.1445,-0.0782L0.0955,-0.0637L0.0712,-0.0545L0.0469,-0.0438L0.0229,-0.0301L0.011,-0.0213L0,-0L0.0136,0.0155L0.0266,0.0226L0.0523,0.0318L0.0777,0.0375L0.1029,0.0412L0.1532,0.0457L0.2034,0.0477L0.3033,0.0471L0.403,0.0421L0.5024,0.0341L0.6018,0.0251L0.7012,0.0166L0.8006,0.0086L0.9002,0.003L0.95,0.0013L1,-0"
    />
</svg>
