
<svg 
  class="airfoil-goe450"
  fill="none"
  stroke="black" 
  stroke-width="1"
  style="overflow:visible"
  viewBox="0, -0.0953, 1, 0.1065"
  xmlns="http://www.w3.org/2000/svg">
    <title>GOE 450 AIRFOIL</title>
    <path 
      vector-effect="non-scaling-stroke"
      d="M1,-0.001L0.9499,-0.0141L0.8997,-0.0267L0.7995,-0.0492L0.6993,-0.0673L0.5992,-0.0812L0.499,-0.0911L0.399,-0.0953L0.299,-0.0932L0.1991,-0.0827L0.1492,-0.0728L0.0994,-0.06L0.0745,-0.0513L0.0496,-0.0414L0.0247,-0.0281L0.0123,-0.02L0,-0L0.0126,0.0104L0.0251,0.0112L0.0501,0.011L0.0751,0.0097L0.1001,0.0078L0.15,0.0047L0.2,0.001L0.3,-0.0042L0.3999,-0.0084L0.4999,-0.0122L0.5999,-0.0105L0.6999,-0.0084L0.7999,-0.0068L0.9,-0.0031L0.95,-0.001L1,0.001"
    />
</svg>
