
<svg 
  class="airfoil-goe431"
  fill="none"
  stroke="black" 
  stroke-width="1"
  style="overflow:visible"
  viewBox="0, -0.1173, 1, 0.1416"
  xmlns="http://www.w3.org/2000/svg">
    <title>GOE 431 AIRFOIL</title>
    <path 
      vector-effect="non-scaling-stroke"
      d="M1,-0L0.95,-0.0187L0.9,-0.0353L0.8,-0.0646L0.7,-0.0899L0.6,-0.1072L0.5,-0.1145L0.4,-0.1173L0.3,-0.1161L0.2,-0.1064L0.15,-0.094L0.1,-0.0777L0.075,-0.067L0.05,-0.0534L0.025,-0.0357L0.0125,-0.0243L0,-0L0.0125,0.0097L0.025,0.0143L0.05,0.0196L0.075,0.023L0.1,0.0243L0.15,0.019L0.2,0.0116L0.3,-0.0041L0.4,-0.0178L0.5,-0.0297L0.6,-0.0372L0.7,-0.0359L0.8,-0.0296L0.9,-0.0153L0.95,-0.0087L1,-0"
    />
</svg>
