
<svg 
  class="airfoil-goe429"
  fill="none"
  stroke="black" 
  stroke-width="1"
  style="overflow:visible"
  viewBox="0, -0.0569, 1, 0.1138"
  xmlns="http://www.w3.org/2000/svg">
    <title>GOE 429 AIRFOIL</title>
    <path 
      vector-effect="non-scaling-stroke"
      d="M1,-0.0016L0.95,-0.0037L0.9,-0.0069L0.8,-0.016L0.7,-0.0261L0.6,-0.0372L0.5,-0.0468L0.4,-0.0532L0.3,-0.0569L0.2,-0.0569L0.15,-0.0547L0.1,-0.0495L0.075,-0.0447L0.05,-0.0367L0.025,-0.0271L0.0125,-0.0202L0,-0L0.0125,0.0165L0.025,0.0245L0.05,0.0346L0.075,0.041L0.1,0.0457L0.15,0.0527L0.2,0.0558L0.3,0.0569L0.4,0.0527L0.5,0.0452L0.6,0.0356L0.7,0.0239L0.8,0.0144L0.9,0.0074L0.95,0.0043L1,0.0016"
    />
</svg>
