
<svg 
  class="airfoil-goe451"
  fill="none"
  stroke="black" 
  stroke-width="1"
  style="overflow:visible"
  viewBox="0, -0.0772, 1, 0.0792"
  xmlns="http://www.w3.org/2000/svg">
    <title>GOE 451 AIRFOIL</title>
    <path 
      vector-effect="non-scaling-stroke"
      d="M1,-0L0.95,-0.0114L0.8999,-0.0212L0.7999,-0.0384L0.6998,-0.0531L0.5998,-0.0658L0.4998,-0.074L0.3998,-0.0772L0.2998,-0.0744L0.1998,-0.0651L0.1498,-0.0569L0.0999,-0.0453L0.0749,-0.0372L0.0499,-0.0291L0.0249,-0L0.0125,-0.012L0,-0L0.0125,0.002L0.025,0.0004L0.05,-0.0032L0.075,-0.0067L0.1,-0.0098L0.1499,-0.0174L0.1999,-0.0226L0.2999,-0.0304L0.3999,-0.0342L0.4999,-0.0335L0.5999,-0.0298L0.6999,-0.0241L0.8,-0.0174L0.9,-0.0087L0.95,-0.0058L1,-0"
    />
</svg>
