
<svg 
  class="airfoil-goe416a"
  fill="none"
  stroke="black" 
  stroke-width="1"
  style="overflow:visible"
  viewBox="0, -0.0669, 1, 0.117"
  xmlns="http://www.w3.org/2000/svg">
    <title>GOE 416A AIRFOIL</title>
    <path 
      vector-effect="non-scaling-stroke"
      d="M1,-0.0014L0.9494,-0.0082L0.8989,-0.015L0.7978,-0.0288L0.6969,-0.0408L0.5961,-0.0509L0.4955,-0.0597L0.3951,-0.0649L0.2949,-0.0669L0.1953,-0.0615L0.1457,-0.0566L0.0964,-0.0474L0.0719,-0.0415L0.0474,-0.0336L0.0232,-0.0232L0.0113,-0.0156L0,-0L0.0131,0.0081L0.026,0.013L0.0516,0.0213L0.0771,0.0278L0.1025,0.0332L0.1532,0.0413L0.2035,0.046L0.3038,0.0501L0.4036,0.0468L0.5027,0.0355L0.6018,0.0237L0.7011,0.0145L0.8006,0.0079L0.9003,0.0036L0.9502,0.0024L1,0.0014"
    />
</svg>
