
<svg 
  class="airfoil-goe499"
  fill="none"
  stroke="black" 
  stroke-width="1"
  style="overflow:visible"
  viewBox="0, -0.087, 1, 0.0989"
  xmlns="http://www.w3.org/2000/svg">
    <title>GOE 499 AIRFOIL</title>
    <path 
      vector-effect="non-scaling-stroke"
      d="M1,-0L0.95,-0.0139L0.9,-0.0268L0.8,-0.0495L0.7,-0.0677L0.6,-0.0795L0.5,-0.0852L0.4,-0.087L0.3,-0.0838L0.2,-0.071L0.15,-0.0614L0.1,-0.0477L0.075,-0.0404L0.05,-0.0311L0.025,-0.0193L0.0125,-0.0122L0,-0L0.0125,0.0103L0.025,0.0117L0.05,0.0119L0.075,0.0111L0.1,0.0088L0.15,0.0031L0.2,-0.0035L0.3,-0.0158L0.4,-0.0245L0.5,-0.0318L0.6,-0.0355L0.7,-0.0342L0.8,-0.0275L0.9,-0.0158L0.95,-0.0084L1,-0"
    />
</svg>
