
<svg 
  class="airfoil-goe402"
  fill="none"
  stroke="black" 
  stroke-width="1"
  style="overflow:visible"
  viewBox="0, -0.0908, 1, 0.0957"
  xmlns="http://www.w3.org/2000/svg">
    <title>GOE 402 AIRFOIL</title>
    <path 
      vector-effect="non-scaling-stroke"
      d="M1,-0L0.95,-0.0107L0.9,-0.0204L0.8,-0.0368L0.7,-0.0522L0.6,-0.0676L0.5,-0.08L0.4,-0.0884L0.3,-0.0908L0.2,-0.0862L0.15,-0.0779L0.1,-0.0646L0.075,-0.0564L0.05,-0.0448L0.025,-0.0302L0.0125,-0.0201L0,-0L0.0125,0.0049L0.025,0.0037L0.05,-0.0013L0.075,-0.0044L0.1,-0.0076L0.15,-0.0129L0.2,-0.0182L0.3,-0.0238L0.4,-0.0254L0.5,-0.023L0.6,-0.0196L0.7,-0.0152L0.8,-0.0108L0.9,-0.0054L0.95,-0.0027L1,-0"
    />
</svg>
