
<svg 
  class="airfoil-goe410"
  fill="none"
  stroke="black" 
  stroke-width="1"
  style="overflow:visible"
  viewBox="0, -0.0805, 1, 0.161"
  xmlns="http://www.w3.org/2000/svg">
    <title>GOE 410 AIRFOIL</title>
    <path 
      vector-effect="non-scaling-stroke"
      d="M1,-0L0.95,-0.0045L0.9,-0.01L0.8,-0.022L0.7,-0.036L0.6,-0.05L0.5,-0.063L0.4,-0.0745L0.3,-0.0805L0.2,-0.078L0.15,-0.0725L0.1,-0.065L0.075,-0.059L0.05,-0.0505L0.025,-0.0365L0.0125,-0.026L0,-0L0.0125,0.026L0.025,0.0365L0.05,0.0505L0.075,0.059L0.1,0.065L0.15,0.0725L0.2,0.078L0.3,0.0805L0.4,0.0745L0.5,0.063L0.6,0.05L0.7,0.036L0.8,0.022L0.9,0.01L0.95,0.0045L1,-0"
    />
</svg>
