
<svg 
  class="airfoil-goe419"
  fill="none"
  stroke="black" 
  stroke-width="1"
  style="overflow:visible"
  viewBox="0, -0.0705, 1, 0.0705"
  xmlns="http://www.w3.org/2000/svg">
    <title>GOE 419 AIRFOIL</title>
    <path 
      vector-effect="non-scaling-stroke"
      d="M1,-0L0.95,-0.012L0.9,-0.02L0.8,-0.035L0.7,-0.049L0.6,-0.059L0.5,-0.067L0.4,-0.0705L0.3,-0.07L0.2,-0.0625L0.15,-0.055L0.1,-0.0445L0.075,-0.038L0.05,-0.0295L0.025,-0.019L0.0125,-0.0135L0,-0.005L0.0125,-0.0005L0.025,-0L0.05,-0.001L0.075,-0.003L0.1,-0.005L0.15,-0.009L0.2,-0.0125L0.3,-0.017L0.4,-0.0175L0.5,-0.0155L0.6,-0.013L0.7,-0.0095L0.8,-0.006L0.9,-0.003L0.95,-0.0015L1,-0"
    />
</svg>
