
<svg 
  class="airfoil-goe441"
  fill="none"
  stroke="black" 
  stroke-width="1"
  style="overflow:visible"
  viewBox="0, -0.1526, 1, 0.1822"
  xmlns="http://www.w3.org/2000/svg">
    <title>GOE 441 AIRFOIL</title>
    <path 
      vector-effect="non-scaling-stroke"
      d="M1,-0.0014L0.9494,-0.0203L0.8988,-0.0382L0.7979,-0.0705L0.697,-0.0984L0.5963,-0.1219L0.4958,-0.1375L0.3954,-0.1499L0.2953,-0.1526L0.1957,-0.139L0.1462,-0.1242L0.0969,-0.1014L0.0724,-0.0863L0.048,-0.0664L0.0237,-0.0433L0.0116,-0.0297L0,-0L0.0131,0.0209L0.0258,0.0258L0.0509,0.0292L0.0759,0.0296L0.1009,0.0277L0.1507,0.0238L0.2005,0.0178L0.3002,0.0067L0.3998,-0.0051L0.4995,-0.0164L0.5993,-0.0236L0.6992,-0.0267L0.7992,-0.0249L0.8996,-0.0144L0.9498,-0.0077L1,0.0014"
    />
</svg>
