
<svg 
  class="airfoil-goe481"
  fill="none"
  stroke="black" 
  stroke-width="1"
  style="overflow:visible"
  viewBox="0, -0.1285, 1, 0.1724"
  xmlns="http://www.w3.org/2000/svg">
    <title>GOE 481 AIRFOIL</title>
    <path 
      vector-effect="non-scaling-stroke"
      d="M1,-0L0.9487,-0.0271L0.8978,-0.0457L0.7965,-0.0739L0.6956,-0.0942L0.5949,-0.1095L0.4943,-0.1212L0.394,-0.1285L0.294,-0.1283L0.1945,-0.1176L0.145,-0.1063L0.0957,-0.0905L0.0713,-0.0789L0.047,-0.0647L0.0229,-0.0441L0.0111,-0.029L0,-0L0.0139,0.0289L0.0267,0.0362L0.052,0.0426L0.0771,0.0439L0.102,0.0432L0.1499,-0.0025L0.1986,-0.0293L0.2979,-0.045L0.3978,-0.0477L0.4978,-0.0459L0.5981,-0.0411L0.6985,-0.0328L0.799,-0.0221L0.8995,-0.0103L0.9498,-0.0041L1,-0"
    />
</svg>
