
<svg 
  class="airfoil-goe404"
  fill="none"
  stroke="black" 
  stroke-width="1"
  style="overflow:visible"
  viewBox="0, -0.1156, 1, 0.1454"
  xmlns="http://www.w3.org/2000/svg">
    <title>GOE 404 AIRFOIL</title>
    <path 
      vector-effect="non-scaling-stroke"
      d="M1,-0.0008L0.9496,-0.0125L0.8992,-0.0243L0.7985,-0.0472L0.6979,-0.0669L0.5974,-0.0851L0.4969,-0.1006L0.3966,-0.1107L0.2964,-0.1156L0.1966,-0.1098L0.1469,-0.1004L0.0973,-0.0871L0.0726,-0.0773L0.048,-0.0637L0.0236,-0.0459L0.0115,-0.0313L0,-0L0.0132,0.0209L0.0258,0.0258L0.0509,0.0298L0.0759,0.0295L0.1009,0.0277L0.1507,0.024L0.2006,0.0204L0.3005,0.0161L0.4004,0.0131L0.5003,0.011L0.6003,0.0089L0.7002,0.0058L0.8001,0.0043L0.9001,0.0034L0.9501,0.0023L1,0.0008"
    />
</svg>
