
<svg 
  class="airfoil-goe481a"
  fill="none"
  stroke="black" 
  stroke-width="1"
  style="overflow:visible"
  viewBox="0, -0.1285, 1, 0.1724"
  xmlns="http://www.w3.org/2000/svg">
    <title>GOE 481A AIRFOIL</title>
    <path 
      vector-effect="non-scaling-stroke"
      d="M1,-0L0.9487,-0.0271L0.8978,-0.0457L0.7965,-0.0739L0.6956,-0.0942L0.5949,-0.1095L0.4943,-0.1212L0.394,-0.1285L0.294,-0.1283L0.1945,-0.1176L0.145,-0.1063L0.0957,-0.0905L0.0713,-0.0789L0.047,-0.0647L0.0229,-0.0441L0.0116,-0.0284L0,-0L0.0139,0.0289L0.0267,0.0372L0.052,0.0426L0.0771,0.0439L0.102,0.0432L0.1518,0.0374L0.2015,0.0325L0.3011,0.0244L0.4008,0.0182L0.5006,0.013L0.6005,0.0098L0.7003,0.0066L0.8002,0.0049L0.9002,0.0032L0.9501,0.0023L1,-0"
    />
</svg>
