
<svg 
  class="airfoil-goe474"
  fill="none"
  stroke="black" 
  stroke-width="1"
  style="overflow:visible"
  viewBox="0, -0.0633, 1, 0.0813"
  xmlns="http://www.w3.org/2000/svg">
    <title>GOE 474 AIRFOIL</title>
    <path 
      vector-effect="non-scaling-stroke"
      d="M1,-0L0.95,-0.009L0.9,-0.017L0.8,-0.0321L0.7,-0.0452L0.6,-0.0552L0.5,-0.0617L0.4,-0.0633L0.3,-0.0619L0.2,-0.0564L0.15,-0.0514L0.1,-0.0444L0.075,-0.0395L0.05,-0.033L0.025,-0.023L0.0125,-0.0157L0,-0L0.0125,0.0093L0.025,0.0125L0.05,0.0165L0.075,0.018L0.1,0.0176L0.15,0.0146L0.2,0.0116L0.3,0.0077L0.4,0.0052L0.5,0.0037L0.6,0.0038L0.7,0.0033L0.8,0.0034L0.9,0.0019L0.95,0.001L1,-0"
    />
</svg>
