
<svg 
  class="airfoil-goe400"
  fill="none"
  stroke="black" 
  stroke-width="1"
  style="overflow:visible"
  viewBox="0, -0.0771, 1, 0.0898"
  xmlns="http://www.w3.org/2000/svg">
    <title>GOE 400 AIRFOIL</title>
    <path 
      vector-effect="non-scaling-stroke"
      d="M1,-0.0008L0.95,-0.0078L0.9,-0.0152L0.8,-0.0293L0.7,-0.0428L0.6,-0.056L0.5,-0.0676L0.4,-0.0751L0.3,-0.0771L0.2,-0.0714L0.15,-0.0645L0.1,-0.0538L0.075,-0.0465L0.05,-0.0382L0.025,-0.0256L0.0125,-0.0172L0,-0L0.0125,0.0108L0.025,0.0127L0.05,0.0123L0.075,0.0099L0.1,0.0047L0.15,-0.0035L0.2,-0.0102L0.3,-0.0191L0.4,-0.0227L0.5,-0.0225L0.6,-0.0194L0.7,-0.0139L0.8,-0.0083L0.9,-0.0037L0.95,-0.0015L1,-0"
    />
</svg>
