
<svg 
  class="airfoil-goe497"
  fill="none"
  stroke="black" 
  stroke-width="1"
  style="overflow:visible"
  viewBox="0, -0.1088, 1, 0.1406"
  xmlns="http://www.w3.org/2000/svg">
    <title>GOE 497 AIRFOIL</title>
    <path 
      vector-effect="non-scaling-stroke"
      d="M1,-0L0.95,-0.0146L0.9,-0.0283L0.8,-0.0536L0.7,-0.0754L0.6,-0.0922L0.5,-0.104L0.4,-0.1088L0.3,-0.1081L0.2,-0.0969L0.15,-0.0875L0.1,-0.0727L0.075,-0.0633L0.05,-0.0518L0.025,-0.0364L0.0125,-0.025L0,-0L0.0125,0.0155L0.025,0.0216L0.05,0.0277L0.075,0.0307L0.1,0.0318L0.15,0.0314L0.2,0.0286L0.3,0.0189L0.4,0.0077L0.5,-0.0025L0.6,-0.0092L0.7,-0.0124L0.8,-0.0126L0.9,-0.0088L0.95,-0.0052L1,-0"
    />
</svg>
