
<svg 
  class="airfoil-goe440"
  fill="none"
  stroke="black" 
  stroke-width="1"
  style="overflow:visible"
  viewBox="0, -0.17, 1, 0.1732"
  xmlns="http://www.w3.org/2000/svg">
    <title>GOE 440 AIRFOIL</title>
    <path 
      vector-effect="non-scaling-stroke"
      d="M1,-0.0013L0.95,-0.0218L0.8999,-0.0407L0.7998,-0.0775L0.6998,-0.1079L0.5997,-0.1335L0.4997,-0.1534L0.3997,-0.1659L0.2997,-0.17L0.1997,-0.1581L0.1497,-0.1422L0.0998,-0.1141L0.0748,-0.0914L0.0499,-0.0549L0.025,-0.0148L0.0125,-0.0052L0,-0L0.0125,0.0032L0.025,0.0032L0.05,0.0026L0.075,0.001L0.1,-0.0012L0.15,-0.0034L0.2,-0.0077L0.3,-0.0175L0.3999,-0.0282L0.4999,-0.0347L0.5999,-0.0396L0.6999,-0.0398L0.7999,-0.0347L0.9,-0.0222L0.95,-0.0123L1,0.0013"
    />
</svg>
