
<svg 
  class="airfoil-goe407"
  fill="none"
  stroke="black" 
  stroke-width="1"
  style="overflow:visible"
  viewBox="0, -0.095, 1, 0.1092"
  xmlns="http://www.w3.org/2000/svg">
    <title>GOE 407 AIRFOIL</title>
    <path 
      vector-effect="non-scaling-stroke"
      d="M1,-0L0.9499,-0.0142L0.8998,-0.0267L0.7997,-0.0453L0.6996,-0.0623L0.5995,-0.0768L0.4994,-0.089L0.3994,-0.0947L0.2994,-0.095L0.1994,-0.088L0.1495,-0.0797L0.0996,-0.0661L0.0746,-0.0579L0.0497,-0.0474L0.0248,-0.0326L0.0124,-0.0219L0,-0L0.0126,0.0132L0.0251,0.0142L0.0501,0.0136L0.0751,0.0112L0.1001,0.0094L0.15,0.0054L0.2,0.0025L0.3,-0.0004L0.4,-0.0009L0.5,-0.0002L0.6,0.0008L0.7,0.0028L0.8,0.0047L0.9,0.0068L0.95,0.0055L1,-0"
    />
</svg>
