
<svg 
  class="airfoil-goe488"
  fill="none"
  stroke="black" 
  stroke-width="1"
  style="overflow:visible"
  viewBox="0, -0.0632, 1, 0.0784"
  xmlns="http://www.w3.org/2000/svg">
    <title>GOE 488 AIRFOIL</title>
    <path 
      vector-effect="non-scaling-stroke"
      d="M1,-0L0.8997,-0.018L0.7995,-0.0334L0.6993,-0.0463L0.5992,-0.0548L0.4991,-0.0607L0.399,-0.0632L0.299,-0.0631L0.1991,-0.0601L0.1491,-0.0548L0.0993,-0.0465L0.0744,-0.0406L0.0495,-0.0323L0.0247,-0.0219L0.0123,-0.0137L0,-0L0.0127,0.0123L0.0252,0.0146L0.0502,0.0152L0.0752,0.0148L0.1002,0.0139L0.1502,0.0112L0.2001,0.0079L0.3,0.0029L0.4,0.0023L0.5,0.0027L0.6,0.0032L0.7001,0.0037L0.8001,0.0041L0.9,0.0021L1,-0"
    />
</svg>
