
<svg 
  class="airfoil-goe460"
  fill="none"
  stroke="black" 
  stroke-width="1"
  style="overflow:visible"
  viewBox="0, -0.1025, 1, 0.205"
  xmlns="http://www.w3.org/2000/svg">
    <title>GOE 460 AIRFOIL</title>
    <path 
      vector-effect="non-scaling-stroke"
      d="M1,-0L0.95,-0.0115L0.9,-0.0235L0.8,-0.045L0.7,-0.0645L0.6,-0.08L0.5,-0.0925L0.4,-0.1005L0.3,-0.1025L0.2,-0.096L0.15,-0.089L0.1,-0.076L0.075,-0.0675L0.05,-0.0555L0.025,-0.0395L0.0125,-0.0275L0,-0L0.0125,0.0275L0.025,0.0395L0.05,0.0555L0.075,0.0675L0.1,0.076L0.15,0.089L0.2,0.096L0.3,0.1025L0.4,0.1005L0.5,0.0925L0.6,0.08L0.7,0.0645L0.8,0.045L0.9,0.0235L0.95,0.0115L1,-0"
    />
</svg>
