
<svg 
  class="airfoil-goe491"
  fill="none"
  stroke="black" 
  stroke-width="1"
  style="overflow:visible"
  viewBox="0, -0.0537, 1, 0.0616"
  xmlns="http://www.w3.org/2000/svg">
    <title>GOE 491 AIRFOIL</title>
    <path 
      vector-effect="non-scaling-stroke"
      d="M1,-0L0.95,-0.0078L0.9,-0.0131L0.8,-0.0237L0.7,-0.0328L0.6,-0.0404L0.5,-0.0465L0.4,-0.0506L0.3,-0.0537L0.2,-0.0513L0.15,-0.0471L0.1,-0.0404L0.075,-0.0353L0.05,-0.0287L0.025,-0.0196L0.0125,-0.0141L0,-0L0.0125,0.006L0.025,0.0079L0.05,0.0073L0.075,0.0052L0.1,0.0031L0.15,-0.0001L0.2,-0.0028L0.3,-0.0052L0.4,-0.0051L0.5,-0.0025L0.6,0.0011L0.7,0.0032L0.8,0.0048L0.9,0.0044L0.95,0.0032L1,-0"
    />
</svg>
