
<svg 
  class="airfoil-goe476"
  fill="none"
  stroke="black" 
  stroke-width="1"
  style="overflow:visible"
  viewBox="0, -0.1224, 1, 0.1594"
  xmlns="http://www.w3.org/2000/svg">
    <title>GOE 476 AIRFOIL</title>
    <path 
      vector-effect="non-scaling-stroke"
      d="M1,-0L0.9494,-0.015L0.8989,-0.0291L0.7979,-0.0546L0.697,-0.0782L0.5962,-0.0983L0.4955,-0.1143L0.3952,-0.1224L0.2953,-0.1215L0.1958,-0.1081L0.1462,-0.0977L0.0968,-0.0823L0.0722,-0.0718L0.0477,-0.0584L0.0234,-0.0414L0.0114,-0.0284L0,-0L0.0134,0.0225L0.0262,0.03L0.0514,0.0355L0.0764,0.037L0.1015,0.037L0.1513,0.0336L0.2012,0.0297L0.3009,0.0228L0.4007,0.0179L0.5005,0.0135L0.6004,0.0111L0.7004,0.0092L0.8003,0.0088L0.9002,0.0059L0.9501,0.0034L1,-0"
    />
</svg>
