
<svg 
  class="airfoil-goe412"
  fill="none"
  stroke="black" 
  stroke-width="1"
  style="overflow:visible"
  viewBox="0, -0.1161, 1, 0.1426"
  xmlns="http://www.w3.org/2000/svg">
    <title>GOE 412 AIRFOIL</title>
    <path 
      vector-effect="non-scaling-stroke"
      d="M1,-0.0016L0.9495,-0.0162L0.8991,-0.0319L0.7984,-0.0579L0.6978,-0.0807L0.5972,-0.0992L0.4969,-0.1114L0.3968,-0.1161L0.2969,-0.1128L0.1972,-0.1005L0.1475,-0.0895L0.0979,-0.0747L0.0732,-0.0634L0.0486,-0.0509L0.0241,-0.0339L0.0119,-0.0222L0,-0L0.013,0.0161L0.0256,0.0201L0.0507,0.0247L0.0757,0.0261L0.1007,0.0265L0.1507,0.0251L0.2007,0.0237L0.3005,0.0183L0.4004,0.0139L0.5003,0.0104L0.6002,0.0074L0.7002,0.0062L0.8001,0.0044L0.9001,0.0039L0.9501,0.003L1,0.0016"
    />
</svg>
