
<svg 
  class="airfoil-goe495"
  fill="none"
  stroke="black" 
  stroke-width="1"
  style="overflow:visible"
  viewBox="0, -0.0806, 1, 0.0915"
  xmlns="http://www.w3.org/2000/svg">
    <title>GOE 495 AIRFOIL</title>
    <path 
      vector-effect="non-scaling-stroke"
      d="M1,-0L0.95,-0.0124L0.9,-0.0234L0.8,-0.0422L0.7,-0.0586L0.6,-0.0704L0.5,-0.0777L0.4,-0.0806L0.3,-0.0774L0.2,-0.0678L0.15,-0.0597L0.1,-0.0496L0.075,-0.0429L0.05,-0.0346L0.025,-0.0238L0.0125,-0.0166L0,-0L0.0125,0.0079L0.025,0.0097L0.05,0.0109L0.075,0.0106L0.1,0.0093L0.15,0.0053L0.2,0.0007L0.3,-0.0084L0.4,-0.0166L0.5,-0.0223L0.6,-0.0249L0.7,-0.024L0.8,-0.0192L0.9,-0.0109L0.95,-0.0059L1,-0"
    />
</svg>
