
<svg 
  class="airfoil-goe423"
  fill="none"
  stroke="black" 
  stroke-width="1"
  style="overflow:visible"
  viewBox="0, -0.1353, 1, 0.1742"
  xmlns="http://www.w3.org/2000/svg">
    <title>GOE 423 AIRFOIL</title>
    <path 
      vector-effect="non-scaling-stroke"
      d="M1,-0.0008L0.9496,-0.0171L0.8992,-0.0336L0.7985,-0.0631L0.6978,-0.0886L0.5974,-0.1085L0.4969,-0.1259L0.3967,-0.1353L0.2968,-0.1307L0.1972,-0.1141L0.1476,-0.1003L0.098,-0.0811L0.0733,-0.0696L0.0487,-0.0553L0.0241,-0.0389L0.0118,-0.0287L0,-0L0.013,0.0205L0.0257,0.0283L0.0508,0.0343L0.0759,0.037L0.1009,0.0386L0.1509,0.0389L0.2009,0.0388L0.3009,0.0364L0.4008,0.034L0.5007,0.0299L0.6006,0.0247L0.7005,0.0201L0.8004,0.0149L0.9002,0.0087L0.9501,0.0053L1,0.0008"
    />
</svg>
