
<svg 
  class="airfoil-goe436"
  fill="none"
  stroke="black" 
  stroke-width="1"
  style="overflow:visible"
  viewBox="0, -0.0925, 1, 0.1153"
  xmlns="http://www.w3.org/2000/svg">
    <title>GOE 436 AIRFOIL</title>
    <path 
      vector-effect="non-scaling-stroke"
      d="M1,-0L0.95,-0.0113L0.9,-0.022L0.8,-0.041L0.7,-0.0585L0.6,-0.072L0.5,-0.083L0.4,-0.0895L0.3,-0.0925L0.2,-0.0875L0.15,-0.0793L0.1,-0.0665L0.075,-0.0579L0.05,-0.0463L0.025,-0.0326L0.0125,-0.0223L0,-0L0.0125,0.0147L0.025,0.0199L0.05,0.0227L0.075,0.0228L0.1,0.0225L0.15,0.0213L0.2,0.02L0.3,0.0175L0.4,0.015L0.5,0.0125L0.6,0.01L0.7,0.0075L0.8,0.005L0.9,0.0025L0.95,0.0012L1,-0"
    />
</svg>
