
<svg 
  class="airfoil-goe490"
  fill="none"
  stroke="black" 
  stroke-width="1"
  style="overflow:visible"
  viewBox="0, -0.0815, 1, 0.1001"
  xmlns="http://www.w3.org/2000/svg">
    <title>GOE 490 AIRFOIL</title>
    <path 
      vector-effect="non-scaling-stroke"
      d="M1,-0L0.9498,-0.0121L0.8996,-0.0216L0.7993,-0.0388L0.699,-0.0534L0.5988,-0.0656L0.4986,-0.0747L0.3986,-0.0799L0.2985,-0.0815L0.1986,-0.0757L0.1487,-0.0693L0.0989,-0.0588L0.0741,-0.0514L0.0492,-0.0404L0.0245,-0.0265L0.0122,-0.0162L0,-0L0.0127,0.0113L0.0253,0.0145L0.0503,0.0176L0.0753,0.0186L0.1003,0.0181L0.1503,0.0152L0.2002,0.0123L0.3001,0.0049L0.4001,0.0032L0.5001,0.0027L0.6,0.0029L0.7001,0.003L0.8001,0.0037L0.9001,0.0033L0.95,0.0019L1,-0"
    />
</svg>
