
<svg 
  class="airfoil-goe414"
  fill="none"
  stroke="black" 
  stroke-width="1"
  style="overflow:visible"
  viewBox="0, -0.1179, 1, 0.1433"
  xmlns="http://www.w3.org/2000/svg">
    <title>GOE 414 AIRFOIL</title>
    <path 
      vector-effect="non-scaling-stroke"
      d="M1,-0.001L0.9495,-0.0162L0.8991,-0.0313L0.7983,-0.0584L0.6977,-0.0811L0.5972,-0.0985L0.4968,-0.1117L0.3967,-0.1179L0.2967,-0.1178L0.1971,-0.1038L0.1474,-0.0917L0.0979,-0.073L0.0733,-0.0619L0.0486,-0.0481L0.0242,-0.0301L0.012,-0.019L0,-0L0.0128,0.0124L0.0255,0.0169L0.0506,0.0226L0.0757,0.0247L0.1007,0.0254L0.1507,0.025L0.2007,0.0236L0.3005,0.0181L0.4004,0.0127L0.5003,0.0093L0.6002,0.007L0.7002,0.0052L0.8001,0.004L0.9001,0.0029L0.9501,0.0025L1,0.001"
    />
</svg>
