
<svg 
  class="airfoil-goe420"
  fill="none"
  stroke="black" 
  stroke-width="1"
  style="overflow:visible"
  viewBox="0, -0.1312, 1, 0.1916"
  xmlns="http://www.w3.org/2000/svg">
    <title>GOE 420 AIRFOIL</title>
    <path 
      vector-effect="non-scaling-stroke"
      d="M1,-0L0.95,-0.0145L0.9,-0.029L0.8,-0.0584L0.7,-0.0853L0.6,-0.1068L0.5,-0.1227L0.4,-0.1307L0.3,-0.1312L0.2,-0.1186L0.15,-0.1066L0.1,-0.0886L0.075,-0.077L0.05,-0.063L0.025,-0.0435L0.0125,-0.028L0,-0L0.0125,0.027L0.025,0.0345L0.05,0.0435L0.075,0.0495L0.1,0.054L0.15,0.0584L0.2,0.0604L0.3,0.0564L0.4,0.0473L0.5,0.0367L0.6,0.0267L0.7,0.0167L0.8,0.0096L0.9,0.0026L0.95,0L1,-0"
    />
</svg>
