
<svg 
  class="airfoil-goe425"
  fill="none"
  stroke="black" 
  stroke-width="1"
  style="overflow:visible"
  viewBox="0, -0.1238, 1, 0.1606"
  xmlns="http://www.w3.org/2000/svg">
    <title>GOE 425 AIRFOIL</title>
    <path 
      vector-effect="non-scaling-stroke"
      d="M1,-0.0005L0.9493,-0.0129L0.8987,-0.0248L0.7974,-0.0481L0.6962,-0.0708L0.595,-0.0935L0.494,-0.1119L0.3934,-0.1238L0.2934,-0.1238L0.1941,-0.11L0.1448,-0.0967L0.0957,-0.0797L0.0713,-0.0686L0.047,-0.0554L0.023,-0.0374L0.0112,-0.0249L0,-0L0.0135,0.0183L0.0262,0.0224L0.0514,0.027L0.0767,0.0311L0.1017,0.0325L0.1519,0.0352L0.202,0.0368L0.302,0.0363L0.4017,0.0326L0.5014,0.0255L0.601,0.0181L0.7006,0.0122L0.8004,0.008L0.9003,0.0048L0.9502,0.0032L1,0.0005"
    />
</svg>
