
<svg 
  class="airfoil-goe464"
  fill="none"
  stroke="black" 
  stroke-width="1"
  style="overflow:visible"
  viewBox="0, -0.1221, 1, 0.1284"
  xmlns="http://www.w3.org/2000/svg">
    <title>GOE 464 AIRFOIL</title>
    <path 
      vector-effect="non-scaling-stroke"
      d="M1,-0L0.9499,-0.0142L0.8998,-0.0268L0.7996,-0.0516L0.6995,-0.0759L0.5993,-0.0937L0.4992,-0.109L0.3992,-0.1188L0.2991,-0.1221L0.1992,-0.1154L0.1493,-0.106L0.0994,-0.0917L0.0744,-0.0815L0.0495,-0.0679L0.0247,-0.0487L0.0123,-0.0336L0,-0L0.0125,0.0061L0.025,0.0063L0.05,0.0052L0.075,-0.0045L0.0998,-0.0227L0.1494,-0.0455L0.1996,-0.0629L0.2995,-0.0761L0.3995,-0.0788L0.4995,-0.0735L0.5996,-0.0637L0.6996,-0.0499L0.7998,-0.0331L0.8999,-0.0148L0.95,-0.0057L1,-0"
    />
</svg>
