
<svg 
  class="airfoil-goe422"
  fill="none"
  stroke="black" 
  stroke-width="1"
  style="overflow:visible"
  viewBox="0, -0.1483, 1, 0.17940001"
  xmlns="http://www.w3.org/2000/svg">
    <title>GOE 422 AIRFOIL</title>
    <path 
      vector-effect="non-scaling-stroke"
      d="M1,-0.001L0.9493,-0.0197L0.8986,-0.0399L0.7975,-0.0722L0.6966,-0.1009L0.5957,-0.1241L0.4952,-0.14L0.3949,-0.1483L0.295,-0.1475L0.1954,-0.1345L0.1459,-0.12L0.0966,-0.0995L0.072,-0.0864L0.0475,-0.0722L0.0233,-0.0505L0.0113,-0.0346L0,-0L0.0132,0.021L0.0259,0.0258L0.051,0.0299L0.0761,0.0311L0.101,0.0307L0.151,0.0301L0.201,0.0284L0.3008,0.0229L0.4006,0.0179L0.5005,0.0134L0.6003,0.0094L0.7002,0.006L0.8001,0.0015L0.9001,0.001L0.95,0.0012L1,0.001"
    />
</svg>
