
<svg 
  class="airfoil-goe403"
  fill="none"
  stroke="black" 
  stroke-width="1"
  style="overflow:visible"
  viewBox="0, -0.0751, 1, 0.085099995"
  xmlns="http://www.w3.org/2000/svg">
    <title>GOE 403 AIRFOIL</title>
    <path 
      vector-effect="non-scaling-stroke"
      d="M1,-0L0.9499,-0.0095L0.8998,-0.018L0.7997,-0.0329L0.6995,-0.0478L0.5994,-0.0598L0.4993,-0.0682L0.3992,-0.0742L0.2992,-0.0751L0.1993,-0.0676L0.1494,-0.0596L0.0995,-0.048L0.0746,-0.0398L0.0497,-0.03L0.0248,-0.0183L0.0124,-0.0106L0,-0L0.0126,0.0079L0.0251,0.0097L0.0501,0.01L0.0751,0.0087L0.1001,0.0065L0.15,0.0019L0.2,-0.0021L0.2999,-0.0087L0.3999,-0.0122L0.4999,-0.0137L0.5999,-0.0128L0.6999,-0.0104L0.7999,-0.0074L0.9,-0.0039L0.95,-0.002L1,-0"
    />
</svg>
