
<svg 
  class="airfoil-goe459"
  fill="none"
  stroke="black" 
  stroke-width="1"
  style="overflow:visible"
  viewBox="0, -0.0635, 1, 0.127"
  xmlns="http://www.w3.org/2000/svg">
    <title>GOE 459 AIRFOIL</title>
    <path 
      vector-effect="non-scaling-stroke"
      d="M1,-0L0.95,-0.009L0.9,-0.016L0.8,-0.029L0.7,-0.0405L0.6,-0.0505L0.5,-0.058L0.4,-0.063L0.3,-0.0635L0.2,-0.06L0.15,-0.0555L0.1,-0.0485L0.075,-0.043L0.05,-0.036L0.025,-0.0265L0.0125,-0.018L0,-0L0.0125,0.018L0.025,0.0265L0.05,0.036L0.075,0.043L0.1,0.0485L0.15,0.0555L0.2,0.06L0.3,0.0635L0.4,0.063L0.5,0.058L0.6,0.0505L0.7,0.0405L0.8,0.029L0.9,0.016L0.95,0.009L1,-0"
    />
</svg>
