
<svg 
  class="airfoil-goe413"
  fill="none"
  stroke="black" 
  stroke-width="1"
  style="overflow:visible"
  viewBox="0, -0.1238, 1, 0.1733"
  xmlns="http://www.w3.org/2000/svg">
    <title>GOE 413 AIRFOIL</title>
    <path 
      vector-effect="non-scaling-stroke"
      d="M1,-0.0016L0.95,-0.0129L0.9,-0.0246L0.8,-0.0492L0.7,-0.0744L0.6,-0.0948L0.5,-0.1119L0.4,-0.1226L0.3,-0.1238L0.2,-0.1138L0.15,-0.1027L0.1,-0.0857L0.075,-0.0742L0.05,-0.0612L0.025,-0.0446L0.0125,-0.0303L0,-0L0.0125,0.0263L0.025,0.0346L0.05,0.0407L0.075,0.0454L0.1,0.0485L0.15,0.0495L0.2,0.0474L0.3,0.0397L0.4,0.0297L0.5,0.02L0.6,0.0103L0.7,0.0038L0.8,-0.0015L0.9,-0.0035L0.95,-0.0029L1,-0"
    />
</svg>
