
<svg 
  class="airfoil-goe448"
  fill="none"
  stroke="black" 
  stroke-width="1"
  style="overflow:visible"
  viewBox="0, -0.1689, 1, 0.184"
  xmlns="http://www.w3.org/2000/svg">
    <title>GOE 448 AIRFOIL</title>
    <path 
      vector-effect="non-scaling-stroke"
      d="M1,-0.0013L0.9496,-0.0239L0.8993,-0.0457L0.7988,-0.0855L0.6983,-0.1194L0.5979,-0.1459L0.4976,-0.1629L0.3975,-0.1689L0.2976,-0.1626L0.1979,-0.1422L0.1482,-0.124L0.0985,-0.1012L0.0738,-0.0856L0.049,-0.0672L0.0244,-0.0426L0.0121,-0.0266L0,-0L0.0127,0.0119L0.0252,0.0151L0.0502,0.0147L0.0751,0.0078L0.1,0.0027L0.1499,-0.008L0.1997,-0.0188L0.2995,-0.0339L0.3994,-0.0415L0.4994,-0.0442L0.5994,-0.0404L0.6995,-0.0323L0.7997,-0.0227L0.8998,-0.0126L0.9499,-0.0054L1,0.0013"
    />
</svg>
