
<svg 
  class="airfoil-goe494"
  fill="none"
  stroke="black" 
  stroke-width="1"
  style="overflow:visible"
  viewBox="0, -0.0713, 1, 0.0787"
  xmlns="http://www.w3.org/2000/svg">
    <title>GOE 494 AIRFOIL</title>
    <path 
      vector-effect="non-scaling-stroke"
      d="M1,-0L0.9499,-0.0116L0.8999,-0.0218L0.7997,-0.0401L0.6996,-0.0539L0.5995,-0.0652L0.4995,-0.0705L0.3995,-0.0713L0.2995,-0.0666L0.1996,-0.0569L0.1496,-0.0501L0.0997,-0.0407L0.0748,-0.0345L0.0498,-0.0264L0.0249,-0.0172L0.0124,-0.0116L0,-0L0.0126,0.0074L0.025,0.0073L0.05,0.0061L0.075,0.0042L0.1,0.0023L0.15,-0.0021L0.1999,-0.0074L0.2999,-0.0181L0.3998,-0.0268L0.4998,-0.0315L0.5998,-0.0327L0.6998,-0.0299L0.7998,-0.0226L0.8999,-0.0128L0.9499,-0.0067L1,-0"
    />
</svg>
