
<svg 
  class="airfoil-goe434"
  fill="none"
  stroke="black" 
  stroke-width="1"
  style="overflow:visible"
  viewBox="0, -0.1556, 1, 0.235"
  xmlns="http://www.w3.org/2000/svg">
    <title>GOE 434 AIRFOIL</title>
    <path 
      vector-effect="non-scaling-stroke"
      d="M1,-0.0008L0.9482,-0.0181L0.8963,-0.0362L0.7931,-0.0685L0.6901,-0.0979L0.5874,-0.1241L0.4853,-0.1454L0.3842,-0.1556L0.2844,-0.1546L0.1857,-0.1409L0.1369,-0.1295L0.0888,-0.1112L0.0651,-0.098L0.0417,-0.0822L0.0191,-0.0584L0.0083,-0.0412L0,-0L0.0162,0.0365L0.0299,0.048L0.0561,0.0604L0.0818,0.0673L0.1074,0.0729L0.1579,0.078L0.2081,0.0794L0.3072,0.071L0.4056,0.0556L0.5039,0.0386L0.6022,0.0217L0.7008,0.0074L0.7997,-0.0031L0.8995,-0.0051L0.9498,-0.0022L1,0.0008"
    />
</svg>
