
<svg 
  class="airfoil-goe427"
  fill="none"
  stroke="black" 
  stroke-width="1"
  style="overflow:visible"
  viewBox="0, -0.0785, 1, 0.0785"
  xmlns="http://www.w3.org/2000/svg">
    <title>GOE 427 AIRFOIL</title>
    <path 
      vector-effect="non-scaling-stroke"
      d="M1,-0L0.95,-0.012L0.9,-0.023L0.8,-0.041L0.7,-0.0555L0.6,-0.067L0.5,-0.074L0.4,-0.0785L0.3,-0.0775L0.2,-0.0695L0.15,-0.0615L0.1,-0.051L0.075,-0.044L0.05,-0.036L0.025,-0.025L0.0125,-0.019L0,-0.0045L0.0125,-0L0.025,-0.0005L0.05,-0.0035L0.075,-0.0065L0.1,-0.0105L0.15,-0.0175L0.2,-0.0235L0.3,-0.032L0.4,-0.0355L0.5,-0.033L0.6,-0.029L0.7,-0.0215L0.8,-0.0145L0.9,-0.007L0.95,-0.0035L1,-0"
    />
</svg>
