
<svg 
  class="airfoil-goe449"
  fill="none"
  stroke="black" 
  stroke-width="1"
  style="overflow:visible"
  viewBox="0, -0.1384, 1, 0.17500001"
  xmlns="http://www.w3.org/2000/svg">
    <title>GOE 449 AIRFOIL</title>
    <path 
      vector-effect="non-scaling-stroke"
      d="M1,-0L0.95,-0.0182L0.9,-0.0354L0.8,-0.0673L0.7,-0.0952L0.6,-0.1171L0.5,-0.131L0.4,-0.1384L0.3,-0.1358L0.2,-0.1217L0.15,-0.1094L0.1,-0.0916L0.075,-0.0802L0.05,-0.0653L0.025,-0.0454L0.0125,-0.0312L0,-0L0.0125,0.0178L0.025,0.0241L0.05,0.0307L0.075,0.0338L0.1,0.0354L0.15,0.0366L0.2,0.0363L0.3,0.0337L0.4,0.0306L0.5,0.026L0.6,0.0224L0.7,0.0168L0.8,0.0112L0.9,0.0046L0.95,0.0013L1,-0"
    />
</svg>
