
<svg 
  class="airfoil-goe417a"
  fill="none"
  stroke="black" 
  stroke-width="1"
  style="overflow:visible"
  viewBox="0, -0.0735, 1, 0.0875"
  xmlns="http://www.w3.org/2000/svg">
    <title>GOE 417A (GEW. PLATTE) AIRFOIL</title>
    <path 
      vector-effect="non-scaling-stroke"
      d="M1,-0L0.9,-0.024L0.8,-0.0425L0.7,-0.0545L0.6,-0.064L0.5,-0.07L0.4,-0.0735L0.3,-0.0715L0.2,-0.063L0.15,-0.057L0.1,-0.0485L0.075,-0.0415L0.05,-0.0325L0.025,-0.022L0.0125,-0.0155L0,-0L0.0125,0.014L0.025,0.01L0.05,-0.001L0.075,-0.0105L0.1,-0.0185L0.15,-0.0275L0.2,-0.034L0.3,-0.0425L0.4,-0.0445L0.5,-0.041L0.6,-0.035L0.7,-0.0255L0.8,-0.0135L0.9,0.0015L1,-0"
    />
</svg>
