
<svg 
  class="airfoil-goe418"
  fill="none"
  stroke="black" 
  stroke-width="1"
  style="overflow:visible"
  viewBox="0, -0.1111, 1, 0.1453"
  xmlns="http://www.w3.org/2000/svg">
    <title>GOE 418 AIRFOIL</title>
    <path 
      vector-effect="non-scaling-stroke"
      d="M1,-0L0.95,-0.0121L0.9,-0.0233L0.8,-0.0456L0.7,-0.0659L0.6,-0.0832L0.5,-0.0985L0.4,-0.1088L0.3,-0.1111L0.2,-0.1044L0.15,-0.0956L0.1,-0.0827L0.075,-0.0748L0.05,-0.0628L0.025,-0.0459L0.0125,-0.0345L0,-0L0.0125,0.0195L0.025,0.0271L0.05,0.0331L0.075,0.0342L0.1,0.0323L0.15,0.0275L0.2,0.0226L0.3,0.0129L0.4,0.0072L0.5,0.0035L0.6,0.0018L0.7,0.0011L0.8,-0.0006L0.9,-0.0003L0.95,-0.0002L1,-0"
    />
</svg>
