
<svg 
  class="airfoil-goe462"
  fill="none"
  stroke="black" 
  stroke-width="1"
  style="overflow:visible"
  viewBox="0, -0.1552, 1, 0.16250001"
  xmlns="http://www.w3.org/2000/svg">
    <title>GOE 462 AIRFOIL</title>
    <path 
      vector-effect="non-scaling-stroke"
      d="M1,-0L0.9499,-0.0171L0.8998,-0.0312L0.7995,-0.0595L0.6993,-0.0868L0.5992,-0.1105L0.499,-0.1307L0.3989,-0.147L0.2988,-0.1552L0.1989,-0.151L0.1489,-0.1396L0.0991,-0.1177L0.0742,-0.1011L0.0494,-0.0789L0.0247,-0.0467L0.0123,-0.0266L0,-0L0.0126,0.0064L0.025,0.0073L0.05,0.0056L0.075,0.0004L0.0999,-0.0082L0.1497,-0.0371L0.1995,-0.072L0.2992,-0.1122L0.3991,-0.116L0.4992,-0.1062L0.5993,-0.0905L0.6995,-0.0707L0.7996,-0.0485L0.8998,-0.0243L0.9499,-0.0126L1,-0"
    />
</svg>
