
<svg 
  class="airfoil-goe408"
  fill="none"
  stroke="black" 
  stroke-width="1"
  style="overflow:visible"
  viewBox="0, -0.0802, 1, 0.0916"
  xmlns="http://www.w3.org/2000/svg">
    <title>GOE 408 AIRFOIL</title>
    <path 
      vector-effect="non-scaling-stroke"
      d="M1,-0L0.9499,-0.0173L0.8999,-0.0266L0.7998,-0.0412L0.6998,-0.0538L0.5997,-0.0654L0.4997,-0.0745L0.3997,-0.0796L0.2997,-0.0802L0.1997,-0.0733L0.1497,-0.0661L0.0998,-0.0559L0.0748,-0.0488L0.0498,-0.0387L0.0249,-0.0266L0.0124,-0.0181L0,-0L0.0125,0.0089L0.025,0.0114L0.05,0.0093L0.075,0.0072L0.1,0.0046L0.15,0.0009L0.2,-0.0013L0.3,-0.0027L0.4,-0.0031L0.5,-0.0025L0.6,-0.0014L0.7,0.0002L0.8,0.0023L0.9,0.0049L0.95,0.0067L1,-0"
    />
</svg>
