
<svg 
  class="airfoil-goe478"
  fill="none"
  stroke="black" 
  stroke-width="1"
  style="overflow:visible"
  viewBox="0, -0.1079, 1, 0.1415"
  xmlns="http://www.w3.org/2000/svg">
    <title>GOE 478 AIRFOIL</title>
    <path 
      vector-effect="non-scaling-stroke"
      d="M1,-0L0.9494,-0.0146L0.899,-0.0271L0.798,-0.0507L0.6972,-0.0718L0.5965,-0.0905L0.4961,-0.1011L0.3959,-0.1077L0.2959,-0.1079L0.1962,-0.0976L0.1466,-0.0881L0.0971,-0.0747L0.0725,-0.0658L0.0479,-0.0543L0.0235,-0.0389L0.0115,-0.0269L0,-0L0.0134,0.0225L0.0261,0.0275L0.0512,0.0315L0.0763,0.0336L0.1013,0.0336L0.1513,0.0327L0.2012,0.0298L0.301,0.0254L0.4008,0.0216L0.5007,0.0177L0.6005,0.0139L0.7004,0.01L0.8003,0.0067L0.9001,0.0033L0.95,0.0014L1,-0"
    />
</svg>
