
<svg 
  class="airfoil-goe492"
  fill="none"
  stroke="black" 
  stroke-width="1"
  style="overflow:visible"
  viewBox="0, -0.0645, 1, 0.0761"
  xmlns="http://www.w3.org/2000/svg">
    <title>GOE 492 AIRFOIL</title>
    <path 
      vector-effect="non-scaling-stroke"
      d="M1,-0L0.9499,-0.0099L0.8998,-0.0188L0.7996,-0.035L0.6994,-0.0477L0.5993,-0.0565L0.4992,-0.0627L0.3992,-0.0645L0.2992,-0.0612L0.1994,-0.0515L0.1495,-0.0439L0.0995,-0.0344L0.0746,-0.0294L0.0497,-0.0226L0.0248,-0.0148L0.0124,-0.0097L0,-0L0.0126,0.0073L0.0251,0.0097L0.0501,0.0109L0.0751,0.0116L0.1001,0.0115L0.1501,0.0109L0.2001,0.0085L0.3,0.0008L0.4,-0.0025L0.4999,-0.0047L0.5999,-0.007L0.6999,-0.0077L0.7999,-0.0075L0.9,-0.0039L0.95,-0.0022L1,-0"
    />
</svg>
