
<svg 
  class="airfoil-goe401"
  fill="none"
  stroke="black" 
  stroke-width="1"
  style="overflow:visible"
  viewBox="0, -0.0841, 1, 0.0963"
  xmlns="http://www.w3.org/2000/svg">
    <title>GOE 401 AIRFOIL</title>
    <path 
      vector-effect="non-scaling-stroke"
      d="M1,-0L0.9499,-0.011L0.8998,-0.019L0.7996,-0.0344L0.6995,-0.0493L0.5993,-0.0628L0.4992,-0.0732L0.3992,-0.0802L0.2991,-0.0841L0.1992,-0.0796L0.1492,-0.0726L0.0994,-0.0605L0.0745,-0.0518L0.0496,-0.041L0.0247,-0.0283L0.0123,-0.0191L0,-0L0.0126,0.0119L0.0251,0.0122L0.0501,0.0105L0.0751,0.0072L0.1,0.0034L0.15,-0.0041L0.1999,-0.0096L0.2999,-0.0132L0.3999,-0.0137L0.4999,-0.0122L0.5999,-0.0093L0.6999,-0.0069L0.8,-0.0039L0.9,-0.001L0.95,0.0005L1,-0"
    />
</svg>
