
<svg 
  class="airfoil-goe444"
  fill="none"
  stroke="black" 
  stroke-width="1"
  style="overflow:visible"
  viewBox="0, -0.028, 1, 0.056"
  xmlns="http://www.w3.org/2000/svg">
    <title>GOE 444 AIRFOIL</title>
    <path 
      vector-effect="non-scaling-stroke"
      d="M1,-0L0.95,-0.0045L0.9,-0.008L0.8,-0.014L0.7,-0.0195L0.6,-0.024L0.5,-0.027L0.4,-0.028L0.3,-0.028L0.2,-0.0255L0.15,-0.023L0.1,-0.019L0.075,-0.016L0.05,-0.013L0.025,-0.009L0.0125,-0.006L0,-0L0.0125,0.006L0.025,0.009L0.05,0.013L0.075,0.016L0.1,0.019L0.15,0.023L0.2,0.0255L0.3,0.028L0.4,0.028L0.5,0.027L0.6,0.024L0.7,0.0195L0.8,0.014L0.9,0.008L0.95,0.0045L1,-0"
    />
</svg>
