
<svg 
  class="airfoil-goe432"
  fill="none"
  stroke="black" 
  stroke-width="1"
  style="overflow:visible"
  viewBox="0, -0.0802, 1, 0.089"
  xmlns="http://www.w3.org/2000/svg">
    <title>GOE 432 AIRFOIL</title>
    <path 
      vector-effect="non-scaling-stroke"
      d="M1,-0L0.95,-0.011L0.9,-0.0216L0.8,-0.0382L0.7,-0.0518L0.6,-0.0629L0.5,-0.071L0.4,-0.0776L0.3,-0.0802L0.2,-0.0758L0.15,-0.0693L0.1,-0.0609L0.075,-0.0537L0.05,-0.0444L0.025,-0.0307L0.0125,-0.0211L0,-0L0.0125,0.0069L0.025,0.0088L0.05,0.0086L0.075,0.0078L0.1,0.0066L0.15,0.0041L0.2,0.0012L0.3,-0.0052L0.4,-0.0091L0.5,-0.011L0.6,-0.0109L0.7,-0.0088L0.8,-0.0062L0.9,-0.0023L0.95,-0.001L1,-0"
    />
</svg>
