
<svg 
  class="airfoil-goe424"
  fill="none"
  stroke="black" 
  stroke-width="1"
  style="overflow:visible"
  viewBox="0, -0.1474, 1, 0.2009"
  xmlns="http://www.w3.org/2000/svg">
    <title>GOE 424 AIRFOIL</title>
    <path 
      vector-effect="non-scaling-stroke"
      d="M1,-0.0008L0.9482,-0.0184L0.8964,-0.0359L0.7934,-0.0663L0.6908,-0.0928L0.5886,-0.1152L0.4866,-0.1348L0.3854,-0.1474L0.2855,-0.1461L0.1871,-0.1304L0.1385,-0.1164L0.0905,-0.0958L0.0669,-0.0823L0.0436,-0.0646L0.0208,-0.0426L0.0098,-0.028L0,-0L0.0143,0.0165L0.0272,0.0221L0.0527,0.0278L0.0784,0.0336L0.1038,0.0383L0.1546,0.0458L0.2049,0.0494L0.3053,0.0535L0.4051,0.0514L0.5046,0.0461L0.6038,0.0385L0.703,0.0298L0.802,0.0204L0.9011,0.0106L0.9506,0.0057L1,0.0008"
    />
</svg>
