
<svg 
  class="airfoil-goe566"
  fill="none"
  stroke="black" 
  stroke-width="1"
  style="overflow:visible"
  viewBox="0, -0.0685, 1, 0.0875"
  xmlns="http://www.w3.org/2000/svg">
    <title>GOE 566 AIRFOIL</title>
    <path 
      vector-effect="non-scaling-stroke"
      d="M1,-0L0.95,-0.008L0.9,-0.016L0.8,-0.032L0.7,-0.046L0.6,-0.057L0.5,-0.065L0.4,-0.0685L0.3,-0.0685L0.2,-0.064L0.15,-0.0595L0.1,-0.0505L0.075,-0.044L0.05,-0.0365L0.025,-0.025L0.0125,-0.0175L0,-0L0.0125,0.0115L0.025,0.0145L0.05,0.017L0.075,0.0185L0.1,0.019L0.15,0.019L0.2,0.0185L0.3,0.018L0.4,0.0175L0.5,0.016L0.6,0.0135L0.7,0.01L0.8,0.0065L0.9,0.0035L0.95,0.002L1,-0"
    />
</svg>
