
<svg 
  class="airfoil-goe511"
  fill="none"
  stroke="black" 
  stroke-width="1"
  style="overflow:visible"
  viewBox="0, -0.1623, 1, 0.1816"
  xmlns="http://www.w3.org/2000/svg">
    <title>GOE 511 AIRFOIL</title>
    <path 
      vector-effect="non-scaling-stroke"
      d="M1,-0L0.9498,-0.0225L0.8996,-0.0435L0.7992,-0.0796L0.699,-0.1056L0.5988,-0.1277L0.4986,-0.1447L0.3985,-0.1578L0.2985,-0.1623L0.1985,-0.1534L0.1487,-0.1399L0.0989,-0.1199L0.074,-0.1057L0.0492,-0.0865L0.0244,-0.0607L0.0121,-0.0426L0,-0L0.0126,0.0124L0.0251,0.0158L0.0502,0.018L0.0752,0.0193L0.1002,0.0191L0.1502,0.0176L0.2001,0.0126L0.3,0.0026L0.4,-0.0008L0.5,0.0033L0.6001,0.0113L0.7001,0.0128L0.8001,0.0124L0.9001,0.0089L0.95,0.0055L1,-0"
    />
</svg>
