
<svg 
  class="airfoil-goe573"
  fill="none"
  stroke="black" 
  stroke-width="1"
  style="overflow:visible"
  viewBox="0, -0.1354, 1, 0.1478"
  xmlns="http://www.w3.org/2000/svg">
    <title>GOE 573 AIRFOIL</title>
    <path 
      vector-effect="non-scaling-stroke"
      d="M1,-0L0.9499,-0.0188L0.8999,-0.0316L0.7997,-0.0556L0.6996,-0.0786L0.5996,-0.0997L0.4995,-0.1182L0.3994,-0.1313L0.2994,-0.1354L0.1995,-0.1224L0.1495,-0.1088L0.0996,-0.0874L0.0747,-0.0738L0.0497,-0.0572L0.0248,-0.0371L0.0124,-0.0246L0,-0L0.0126,0.0104L0.0251,0.0124L0.0501,0.0123L0.075,0.0117L0.1001,0.0105L0.15,0.0083L0.2,0.0076L0.3,0.0057L0.4,0.0042L0.5,0.0047L0.6,0.0058L0.7,0.0069L0.8,0.0079L0.9,0.008L0.95,0.0047L1,-0"
    />
</svg>
