
<svg 
  class="airfoil-goe571"
  fill="none"
  stroke="black" 
  stroke-width="1"
  style="overflow:visible"
  viewBox="0, -0.2231, 1, 0.252"
  xmlns="http://www.w3.org/2000/svg">
    <title>GOE 571 AIRFOIL</title>
    <path 
      vector-effect="non-scaling-stroke"
      d="M1,-0L0.9492,-0.0296L0.8986,-0.0522L0.7974,-0.0929L0.6964,-0.1306L0.5954,-0.1659L0.4946,-0.1966L0.394,-0.2168L0.2939,-0.2231L0.1943,-0.2058L0.1449,-0.186L0.0958,-0.1541L0.0714,-0.131L0.0472,-0.1023L0.0232,-0.0651L0.0114,-0.0403L0,-0L0.0131,0.0226L0.0257,0.0253L0.0508,0.0281L0.0758,0.0289L0.1008,0.0287L0.1508,0.0289L0.2008,0.0285L0.3007,0.0262L0.4007,0.024L0.5006,0.0212L0.6005,0.0185L0.7004,0.0157L0.8003,0.0125L0.9003,0.0092L0.9502,0.0074L1,-0"
    />
</svg>
