
<svg 
  class="airfoil-goe595"
  fill="none"
  stroke="black" 
  stroke-width="1"
  style="overflow:visible"
  viewBox="0, -0.0774, 1, 0.0968"
  xmlns="http://www.w3.org/2000/svg">
    <title>GOE 595 AIRFOIL</title>
    <path 
      vector-effect="non-scaling-stroke"
      d="M1,-0L0.95,-0.0116L0.9,-0.0217L0.8,-0.0404L0.7,-0.0551L0.6,-0.0663L0.5,-0.0735L0.4,-0.0772L0.3,-0.0774L0.2,-0.0701L0.15,-0.0637L0.1,-0.0528L0.075,-0.0451L0.05,-0.0354L0.025,-0.0242L0.0125,-0.0169L0,-0L0.0125,0.0082L0.025,0.0108L0.05,0.0151L0.075,0.0169L0.1,0.0182L0.15,0.0193L0.2,0.0194L0.3,0.0181L0.4,0.0168L0.5,0.014L0.6,0.0112L0.7,0.0084L0.8,0.0056L0.9,0.0028L0.95,0.0014L1,-0"
    />
</svg>
