
<svg 
  class="airfoil-goe530"
  fill="none"
  stroke="black" 
  stroke-width="1"
  style="overflow:visible"
  viewBox="0, -0.1153, 1, 0.1396"
  xmlns="http://www.w3.org/2000/svg">
    <title>GOE 530 AIRFOIL</title>
    <path 
      vector-effect="non-scaling-stroke"
      d="M1,-0L0.9498,-0.0118L0.8997,-0.0236L0.7993,-0.0481L0.699,-0.0701L0.5987,-0.0892L0.4985,-0.1037L0.3984,-0.1123L0.2983,-0.1153L0.1984,-0.1089L0.1485,-0.1006L0.0988,-0.0859L0.0739,-0.0751L0.0491,-0.0627L0.0243,-0.0463L0.012,-0.0342L0,-0L0.0127,0.0163L0.0253,0.0216L0.0503,0.0243L0.0753,0.0234L0.1003,0.0225L0.1503,0.0203L0.2003,0.0176L0.3002,0.0137L0.4002,0.0117L0.5002,0.0103L0.6002,0.0113L0.7002,0.0124L0.8002,0.0134L0.9002,0.0104L0.9501,0.0062L1,-0"
    />
</svg>
