
<svg 
  class="airfoil-goe503"
  fill="none"
  stroke="black" 
  stroke-width="1"
  style="overflow:visible"
  viewBox="0, -0.1453, 1, 0.1704"
  xmlns="http://www.w3.org/2000/svg">
    <title>GOE 503 AIRFOIL</title>
    <path 
      vector-effect="non-scaling-stroke"
      d="M1,-0L0.9495,-0.0198L0.8991,-0.0376L0.7984,-0.0688L0.6978,-0.0949L0.5972,-0.118L0.4968,-0.1352L0.3966,-0.1453L0.2966,-0.145L0.1969,-0.1311L0.1472,-0.1175L0.0977,-0.0973L0.0731,-0.0827L0.0485,-0.0646L0.024,-0.0426L0.0119,-0.0278L0,-0L0.0128,0.0112L0.0254,0.0169L0.0505,0.0223L0.0756,0.0247L0.1006,0.0251L0.1505,0.0235L0.2005,0.0193L0.3003,0.0109L0.4001,0.0056L0.5001,0.0058L0.6002,0.0094L0.7003,0.011L0.8002,0.0087L0.9001,0.0054L0.9501,0.0027L1,-0"
    />
</svg>
