
<svg 
  class="airfoil-goe564"
  fill="none"
  stroke="black" 
  stroke-width="1"
  style="overflow:visible"
  viewBox="0, -0.0672, 1, 0.088"
  xmlns="http://www.w3.org/2000/svg">
    <title>GOE 564 AIRFOIL</title>
    <path 
      vector-effect="non-scaling-stroke"
      d="M1,-0L0.95,-0.0109L0.9,-0.0202L0.8,-0.0359L0.7,-0.0491L0.6,-0.0578L0.5,-0.0645L0.4,-0.0672L0.3,-0.0659L0.2,-0.0601L0.15,-0.0554L0.1,-0.0478L0.075,-0.0417L0.05,-0.0347L0.025,-0.0236L0.0125,-0.0163L0,-0L0.0125,0.0117L0.025,0.0154L0.05,0.0193L0.075,0.0208L0.1,0.0207L0.15,0.0195L0.2,0.0184L0.3,0.0161L0.4,0.0138L0.5,0.0115L0.6,0.0092L0.7,0.0069L0.8,0.0046L0.9,0.0023L0.95,0.0012L1,-0"
    />
</svg>
