
<svg 
  class="airfoil-goe575"
  fill="none"
  stroke="black" 
  stroke-width="1"
  style="overflow:visible"
  viewBox="0, -0.1024, 1, 0.1364"
  xmlns="http://www.w3.org/2000/svg">
    <title>GOE 575 AIRFOIL</title>
    <path 
      vector-effect="non-scaling-stroke"
      d="M1,-0L0.9495,-0.0282L0.8993,-0.0428L0.799,-0.0627L0.6988,-0.076L0.5986,-0.0874L0.4984,-0.0962L0.3983,-0.1016L0.2983,-0.1024L0.1984,-0.0963L0.1485,-0.0884L0.0987,-0.0766L0.0739,-0.0677L0.0491,-0.0563L0.0243,-0.0409L0.012,-0.0282L0,-0L0.0128,0.0168L0.0254,0.0231L0.0505,0.0282L0.0755,0.0322L0.1006,0.0338L0.1506,0.034L0.2005,0.0327L0.3005,0.031L0.4005,0.0294L0.5005,0.0282L0.6005,0.0276L0.7004,0.0259L0.8004,0.0243L0.9003,0.0211L0.9503,0.0153L1,-0"
    />
</svg>
