
<svg 
  class="airfoil-goe531"
  fill="none"
  stroke="black" 
  stroke-width="1"
  style="overflow:visible"
  viewBox="0, -0.2085, 1, 0.2382"
  xmlns="http://www.w3.org/2000/svg">
    <title>GOE 531 AIRFOIL</title>
    <path 
      vector-effect="non-scaling-stroke"
      d="M1,-0L0.9491,-0.0283L0.8982,-0.0567L0.7964,-0.1114L0.6949,-0.1566L0.5938,-0.1918L0.4932,-0.2085L0.3933,-0.2068L0.2939,-0.1881L0.1949,-0.1573L0.1456,-0.1347L0.0965,-0.1076L0.072,-0.0913L0.0476,-0.0725L0.0234,-0.0498L0.0114,-0.0329L0,-0L0.0133,0.0246L0.026,0.0297L0.0509,0.0293L0.0757,0.0225L0.1005,0.0147L0.1499,-0.0024L0.1993,-0.021L0.2982,-0.0552L0.3975,-0.0764L0.4972,-0.0857L0.5974,-0.0794L0.698,-0.0602L0.7988,-0.036L0.8996,-0.0132L0.9498,-0.0064L1,-0"
    />
</svg>
