
<svg 
  class="airfoil-goe593"
  fill="none"
  stroke="black" 
  stroke-width="1"
  style="overflow:visible"
  viewBox="0, -0.099, 1, 0.122"
  xmlns="http://www.w3.org/2000/svg">
    <title>GOE 593 AIRFOIL</title>
    <path 
      vector-effect="non-scaling-stroke"
      d="M1,-0L0.95,-0.015L0.9,-0.027L0.8,-0.049L0.7,-0.0675L0.6,-0.0825L0.5,-0.0935L0.4,-0.099L0.3,-0.099L0.2,-0.092L0.15,-0.084L0.1,-0.0705L0.075,-0.0613L0.05,-0.05L0.025,-0.0358L0.0125,-0.0254L0,-0L0.0125,0.0116L0.025,0.0158L0.05,0.02L0.075,0.0223L0.1,0.023L0.15,0.023L0.2,0.0225L0.3,0.02L0.4,0.018L0.5,0.015L0.6,0.012L0.7,0.009L0.8,0.006L0.9,0.003L0.95,0.0015L1,-0"
    />
</svg>
