
<svg 
  class="airfoil-goe518"
  fill="none"
  stroke="black" 
  stroke-width="1"
  style="overflow:visible"
  viewBox="0, -0.163, 1, 0.18180001"
  xmlns="http://www.w3.org/2000/svg">
    <title>GOE 518 AIRFOIL</title>
    <path 
      vector-effect="non-scaling-stroke"
      d="M1,-0L0.9498,-0.022L0.8996,-0.043L0.7992,-0.0785L0.6989,-0.1075L0.5987,-0.1295L0.4985,-0.147L0.3984,-0.1585L0.2984,-0.163L0.1984,-0.155L0.1486,-0.1415L0.0988,-0.1205L0.0739,-0.1067L0.0491,-0.0885L0.0244,-0.0632L0.0121,-0.0436L0,-0L0.0126,0.0124L0.0251,0.0153L0.0502,0.0175L0.0752,0.0188L0.1002,0.0185L0.1502,0.018L0.2002,0.018L0.3002,0.017L0.4002,0.016L0.5002,0.015L0.6001,0.014L0.7001,0.013L0.8001,0.012L0.9001,0.0075L0.95,0.0045L1,-0"
    />
</svg>
