
<svg 
  class="airfoil-goe505"
  fill="none"
  stroke="black" 
  stroke-width="1"
  style="overflow:visible"
  viewBox="0, -0.1258, 1, 0.15349999"
  xmlns="http://www.w3.org/2000/svg">
    <title>GOE 505 AIRFOIL</title>
    <path 
      vector-effect="non-scaling-stroke"
      d="M1,-0L0.9496,-0.0178L0.8992,-0.0357L0.7985,-0.0654L0.6979,-0.091L0.5975,-0.1087L0.4972,-0.1199L0.3971,-0.1256L0.2971,-0.1258L0.1973,-0.1175L0.1476,-0.1064L0.098,-0.0887L0.0733,-0.0752L0.0487,-0.0586L0.0242,-0.0361L0.012,-0.0218L0,-0L0.0129,0.0162L0.0255,0.0204L0.0506,0.0253L0.0756,0.0273L0.1006,0.0277L0.1506,0.026L0.2005,0.0219L0.3003,0.0136L0.4002,0.0078L0.5002,0.008L0.6003,0.0112L0.7003,0.0129L0.8003,0.0116L0.9002,0.0068L0.9501,0.0041L1,-0"
    />
</svg>
