
<svg 
  class="airfoil-goe587"
  fill="none"
  stroke="black" 
  stroke-width="1"
  style="overflow:visible"
  viewBox="0, -0.0582, 1, 0.0674"
  xmlns="http://www.w3.org/2000/svg">
    <title>GOE 587 AIRFOIL</title>
    <path 
      vector-effect="non-scaling-stroke"
      d="M1,-0L0.95,-0.0077L0.9001,-0.0135L0.8001,-0.0249L0.7002,-0.0354L0.6002,-0.0453L0.5002,-0.0527L0.4003,-0.0582L0.3003,-0.0582L0.2002,-0.0516L0.1502,-0.0448L0.1002,-0.0351L0.0751,-0.0297L0.0501,-0.0228L0.0251,-0.0149L0.0126,-0.0104L0,-0L0.0125,0.0051L0.025,0.0061L0.05,0.0057L0.075,0.0048L0.1,0.0034L0.15,0.0013L0.2,-0.0001L0.3,-0.0012L0.4,-0.0002L0.5,0.0037L0.6,0.0067L0.7,0.0092L0.8,0.0091L0.9,0.0046L0.95,0.0018L1,-0"
    />
</svg>
