
<svg 
  class="airfoil-goe574"
  fill="none"
  stroke="black" 
  stroke-width="1"
  style="overflow:visible"
  viewBox="0, -0.1005, 1, 0.110300004"
  xmlns="http://www.w3.org/2000/svg">
    <title>GOE 574 AIRFOIL</title>
    <path 
      vector-effect="non-scaling-stroke"
      d="M1,-0L0.9499,-0.0198L0.8998,-0.0315L0.7998,-0.049L0.6997,-0.0655L0.5996,-0.08L0.4995,-0.0915L0.3995,-0.099L0.2995,-0.1005L0.1996,-0.0885L0.1496,-0.0777L0.0997,-0.062L0.0747,-0.0509L0.0498,-0.0388L0.0249,-0.0241L0.0124,-0.0151L0,-0L0.0125,0.0079L0.025,0.0089L0.0501,0.0098L0.075,0.0096L0.1001,0.009L0.15,0.0068L0.2,0.005L0.3,0.002L0.4,0.0005L0.5,-0L0.6,0.001L0.7,0.002L0.8,0.0035L0.9,0.0045L0.95,0.0028L1,-0"
    />
</svg>
