
<svg 
  class="airfoil-goe57"
  fill="none"
  stroke="black" 
  stroke-width="1"
  style="overflow:visible"
  viewBox="0, -0.0815, 1, 0.0932"
  xmlns="http://www.w3.org/2000/svg">
    <title>GOE 57 AIRFOIL</title>
    <path 
      vector-effect="non-scaling-stroke"
      d="M1,-0.0009L0.9499,-0.0126L0.8997,-0.022L0.7996,-0.0398L0.6994,-0.0558L0.5993,-0.0676L0.4992,-0.0765L0.3991,-0.0811L0.2991,-0.0815L0.1991,-0.0759L0.1492,-0.0697L0.0993,-0.0601L0.0744,-0.0505L0.0496,-0.0399L0.0247,-0.0254L0.0123,-0.0151L0,-0L0.0126,0.0108L0.0251,0.0117L0.0501,0.008L0.075,0.0038L0.1,-0.0005L0.1499,-0.0074L0.1998,-0.0131L0.2998,-0.0193L0.3998,-0.0213L0.4997,-0.0222L0.5998,-0.0204L0.6998,-0.0161L0.7999,-0.0112L0.8999,-0.005L0.95,-0.0021L1,0.0009"
    />
</svg>
