
<svg 
  class="airfoil-goe592"
  fill="none"
  stroke="black" 
  stroke-width="1"
  style="overflow:visible"
  viewBox="0, -0.1454, 1, 0.1668"
  xmlns="http://www.w3.org/2000/svg">
    <title>GOE 592 AIRFOIL</title>
    <path 
      vector-effect="non-scaling-stroke"
      d="M1,-0L0.9496,-0.0169L0.8992,-0.0357L0.7984,-0.071L0.6977,-0.1002L0.5972,-0.1229L0.4969,-0.1387L0.3967,-0.1454L0.2968,-0.1422L0.1971,-0.1269L0.1474,-0.1138L0.0979,-0.0952L0.0731,-0.0837L0.0484,-0.0701L0.0238,-0.051L0.0117,-0.0368L0,-0L0.0128,0.0142L0.0254,0.0189L0.0505,0.0214L0.0755,0.0198L0.1004,0.0177L0.1502,0.0128L0.2002,0.008L0.3,0.0003L0.3999,-0.0045L0.4998,-0.0072L0.5998,-0.009L0.6998,-0.0088L0.7998,-0.0065L0.8999,-0.0043L0.9499,-0.0024L1,-0"
    />
</svg>
