
<svg 
  class="airfoil-goe596"
  fill="none"
  stroke="black" 
  stroke-width="1"
  style="overflow:visible"
  viewBox="0, -0.0881, 1, 0.1038"
  xmlns="http://www.w3.org/2000/svg">
    <title>GOE 596 AIRFOIL</title>
    <path 
      vector-effect="non-scaling-stroke"
      d="M1,-0L0.95,-0.0102L0.9,-0.0198L0.8,-0.0381L0.7,-0.0549L0.6,-0.0682L0.5,-0.0795L0.4,-0.0873L0.3,-0.0881L0.2,-0.0809L0.15,-0.0725L0.1,-0.0607L0.075,-0.0523L0.05,-0.0419L0.025,-0.0294L0.0125,-0.0212L0,-0L0.0125,0.0128L0.025,0.0151L0.05,0.0157L0.075,0.0157L0.1,0.0153L0.15,0.0144L0.2,0.0126L0.3,0.0094L0.4,0.0067L0.5,0.0045L0.6,0.0033L0.7,0.0026L0.8,0.0019L0.9,0.0007L0.95,0.0003L1,-0"
    />
</svg>
