
<svg 
  class="airfoil-goe510"
  fill="none"
  stroke="black" 
  stroke-width="1"
  style="overflow:visible"
  viewBox="0, -0.125, 1, 0.1538"
  xmlns="http://www.w3.org/2000/svg">
    <title>GOE 510 AIRFOIL</title>
    <path 
      vector-effect="non-scaling-stroke"
      d="M1,-0L0.9496,-0.0189L0.8992,-0.0358L0.7986,-0.0631L0.6981,-0.0854L0.5977,-0.1027L0.4974,-0.1159L0.3973,-0.1232L0.2973,-0.125L0.1975,-0.1153L0.1477,-0.1042L0.0981,-0.0867L0.0734,-0.0746L0.0487,-0.0586L0.0242,-0.035L0.0122,-0.0219L0,-0L0.013,0.021L0.0256,0.0264L0.0506,0.0284L0.0756,0.0288L0.1006,0.0288L0.1506,0.0262L0.2005,0.0216L0.3002,0.0109L0.4001,0.0062L0.5002,0.009L0.6003,0.0133L0.7003,0.0151L0.8003,0.0129L0.9002,0.0077L0.9501,0.0036L1,-0"
    />
</svg>
