
<svg 
  class="airfoil-goe504"
  fill="none"
  stroke="black" 
  stroke-width="1"
  style="overflow:visible"
  viewBox="0, -0.1416, 1, 0.184"
  xmlns="http://www.w3.org/2000/svg">
    <title>GOE 504 AIRFOIL</title>
    <path 
      vector-effect="non-scaling-stroke"
      d="M1,-0L0.9491,-0.0172L0.8981,-0.0344L0.7964,-0.0653L0.6949,-0.0922L0.5937,-0.1151L0.4927,-0.1321L0.3922,-0.1416L0.2922,-0.1411L0.193,-0.1276L0.1437,-0.1139L0.0949,-0.0927L0.0707,-0.0784L0.0467,-0.0601L0.0229,-0.0373L0.0112,-0.0231L0,-0L0.0133,0.0143L0.026,0.0191L0.0515,0.0272L0.0768,0.0323L0.102,0.0359L0.1523,0.0411L0.2023,0.0424L0.3021,0.0384L0.4018,0.0329L0.5015,0.0274L0.6012,0.0219L0.7009,0.0165L0.8006,0.011L0.9003,0.0055L0.9502,0.0027L1,-0"
    />
</svg>
