
<svg 
  class="airfoil-goe529"
  fill="none"
  stroke="black" 
  stroke-width="1"
  style="overflow:visible"
  viewBox="0, -0.1049, 1, 0.1168"
  xmlns="http://www.w3.org/2000/svg">
    <title>GOE 529 AIRFOIL</title>
    <path 
      vector-effect="non-scaling-stroke"
      d="M1,-0L0.9499,-0.0119L0.8997,-0.0234L0.7995,-0.0447L0.6993,-0.0645L0.5991,-0.0814L0.4989,-0.0962L0.3988,-0.1041L0.2988,-0.1049L0.1989,-0.0953L0.149,-0.0852L0.0992,-0.0696L0.0743,-0.0604L0.0494,-0.0476L0.0246,-0.0318L0.0123,-0.0206L0,-0L0.0126,0.0099L0.0251,0.0117L0.0501,0.0119L0.0751,0.0101L0.1001,0.0078L0.15,0.0028L0.2,-0.0018L0.2999,-0.008L0.3999,-0.0116L0.4999,-0.0122L0.5999,-0.0109L0.6999,-0.0091L0.7999,-0.0062L0.9,-0.0033L0.95,-0.0019L1,-0"
    />
</svg>
