
<svg 
  class="airfoil-goe561"
  fill="none"
  stroke="black" 
  stroke-width="1"
  style="overflow:visible"
  viewBox="0, -0.2272, 1, 0.2515"
  xmlns="http://www.w3.org/2000/svg">
    <title>GOE 561 AIRFOIL</title>
    <path 
      vector-effect="non-scaling-stroke"
      d="M1,-0L0.9497,-0.0301L0.8994,-0.052L0.7991,-0.0947L0.6987,-0.1334L0.5985,-0.1699L0.4982,-0.1995L0.398,-0.2216L0.298,-0.2272L0.1981,-0.2118L0.1483,-0.1913L0.0986,-0.1589L0.0737,-0.1392L0.049,-0.111L0.0243,-0.0742L0.0121,-0.0501L0,-0L0.0127,0.0214L0.0252,0.0243L0.0502,0.024L0.0752,0.0238L0.1002,0.0236L0.1502,0.0232L0.2002,0.0232L0.3002,0.0223L0.4002,0.0214L0.5002,0.0205L0.6002,0.0196L0.7002,0.0172L0.8001,0.0148L0.9001,0.0124L0.9501,0.0104L1,-0"
    />
</svg>
