
<svg 
  class="airfoil-goe501"
  fill="none"
  stroke="black" 
  stroke-width="1"
  style="overflow:visible"
  viewBox="0, -0.1203, 1, 0.1469"
  xmlns="http://www.w3.org/2000/svg">
    <title>GOE 501 AIRFOIL</title>
    <path 
      vector-effect="non-scaling-stroke"
      d="M1,-0L0.95,-0.0155L0.9,-0.032L0.8,-0.0606L0.7,-0.0842L0.6,-0.1032L0.5,-0.1142L0.4,-0.1203L0.3,-0.1189L0.2,-0.1054L0.15,-0.0934L0.1,-0.079L0.075,-0.0682L0.05,-0.0555L0.025,-0.0392L0.0125,-0.0274L0,-0L0.0125,0.0146L0.025,0.0203L0.05,0.0245L0.075,0.0257L0.1,0.0266L0.15,0.0241L0.2,0.0201L0.3,0.0092L0.4,-0.0028L0.5,-0.0117L0.6,-0.0187L0.7,-0.0212L0.8,-0.0186L0.9,-0.0115L0.95,-0.0065L1,-0"
    />
</svg>
