
<svg 
  class="airfoil-goe585"
  fill="none"
  stroke="black" 
  stroke-width="1"
  style="overflow:visible"
  viewBox="0, -0.0725, 1, 0.0896"
  xmlns="http://www.w3.org/2000/svg">
    <title>GOE 585 AIRFOIL</title>
    <path 
      vector-effect="non-scaling-stroke"
      d="M1,-0L0.95,-0.0101L0.9,-0.0187L0.8,-0.0348L0.7,-0.0479L0.6,-0.0591L0.5,-0.0672L0.4,-0.0714L0.3,-0.0725L0.2,-0.0692L0.15,-0.0643L0.1,-0.0553L0.075,-0.0484L0.05,-0.0394L0.025,-0.0275L0.0125,-0.0187L0,-0L0.0125,0.0113L0.025,0.014L0.05,0.0166L0.075,0.0171L0.1,0.0167L0.15,0.0147L0.2,0.0128L0.3,0.008L0.4,0.0041L0.5,0.0022L0.6,0.0014L0.7,0.001L0.8,0.0017L0.9,0.0009L0.95,0.0004L1,-0"
    />
</svg>
