
<svg 
  class="airfoil-goe565"
  fill="none"
  stroke="black" 
  stroke-width="1"
  style="overflow:visible"
  viewBox="0, -0.0678, 1, 0.0891"
  xmlns="http://www.w3.org/2000/svg">
    <title>GOE 565 AIRFOIL</title>
    <path 
      vector-effect="non-scaling-stroke"
      d="M1,-0L0.9,-0.0184L0.8,-0.0348L0.7,-0.0476L0.6,-0.058L0.5,-0.0644L0.4,-0.0678L0.3,-0.0672L0.2,-0.0615L0.15,-0.0557L0.1,-0.0479L0.075,-0.0418L0.05,-0.0341L0.025,-0.0235L0.0125,-0.0166L0,-0L0.0125,0.0114L0.025,0.0155L0.05,0.0184L0.075,0.0202L0.1,0.0206L0.15,0.0213L0.2,0.021L0.3,0.0168L0.4,0.0127L0.5,0.0086L0.6,0.0045L0.7,0.0014L0.8,0.0007L0.9,0.0001L1,-0"
    />
</svg>
