
<svg 
  class="airfoil-goe55"
  fill="none"
  stroke="black" 
  stroke-width="1"
  style="overflow:visible"
  viewBox="0, -0.0509, 1, 0.0677"
  xmlns="http://www.w3.org/2000/svg">
    <title>GOE 55 AIRFOIL</title>
    <path 
      vector-effect="non-scaling-stroke"
      d="M1,-0.0037L0.9499,-0.007L0.8999,-0.0102L0.7998,-0.0164L0.6997,-0.0218L0.5996,-0.0278L0.4996,-0.0336L0.3995,-0.0394L0.2994,-0.046L0.1993,-0.0509L0.1493,-0.049L0.0994,-0.0444L0.0744,-0.0406L0.0495,-0.0346L0.0247,-0.0257L0.0122,-0.0198L0,-0L0.0127,0.0133L0.0252,0.016L0.0502,0.0168L0.0752,0.0162L0.1002,0.0144L0.1502,0.0125L0.2001,0.0102L0.3001,0.0069L0.4001,0.0045L0.5,0.0031L0.6,0.0018L0.7,0.001L0.8,0.0008L0.9,0.0017L0.95,0.0027L1,0.0037"
    />
</svg>
