
<svg 
  class="airfoil-goe502"
  fill="none"
  stroke="black" 
  stroke-width="1"
  style="overflow:visible"
  viewBox="0, -0.1329, 1, 0.1762"
  xmlns="http://www.w3.org/2000/svg">
    <title>GOE 502 AIRFOIL</title>
    <path 
      vector-effect="non-scaling-stroke"
      d="M1,-0L0.949,-0.0189L0.8982,-0.0354L0.7967,-0.0662L0.6954,-0.0906L0.5944,-0.1115L0.4937,-0.1254L0.3933,-0.1329L0.2934,-0.1308L0.1941,-0.1163L0.1448,-0.1033L0.0956,-0.0863L0.0712,-0.0751L0.0469,-0.0609L0.0228,-0.0426L0.011,-0.0296L0,-0L0.0137,0.0248L0.0266,0.0317L0.0519,0.0374L0.0771,0.0416L0.1022,0.0433L0.1522,0.0428L0.202,0.0393L0.3014,0.0273L0.4007,0.0143L0.5001,0.0027L0.5998,-0.0048L0.6995,-0.0098L0.7994,-0.0109L0.8996,-0.0079L0.9496,-0.0044L1,-0"
    />
</svg>
