
<svg 
  class="airfoil-goe549"
  fill="none"
  stroke="black" 
  stroke-width="1"
  style="overflow:visible"
  viewBox="0, -0.1143, 1, 0.1414"
  xmlns="http://www.w3.org/2000/svg">
    <title>GOE 549 AIRFOIL</title>
    <path 
      vector-effect="non-scaling-stroke"
      d="M1,-0L0.95,-0.0123L0.9,-0.0236L0.8,-0.0466L0.7,-0.0686L0.6,-0.0867L0.5,-0.1032L0.4,-0.1133L0.3,-0.1143L0.2,-0.1044L0.15,-0.0932L0.1,-0.0759L0.075,-0.0646L0.05,-0.0517L0.025,-0.0344L0.0125,-0.0229L0.008,-0.018L0.006,-0.0151L0.004,-0.0124L0.002,-0.0086L0,-0L0.002,0.0058L0.004,0.0088L0.006,0.0106L0.008,0.012L0.0125,0.0145L0.025,0.0176L0.05,0.0218L0.075,0.0244L0.1,0.0256L0.15,0.0268L0.2,0.0271L0.3,0.0242L0.4,0.0197L0.5,0.0143L0.6,0.0083L0.7,0.0038L0.8,0.0014L0.9,0.0004L0.95,0.0002L1,-0"
    />
</svg>
