
<svg 
  class="airfoil-goe533"
  fill="none"
  stroke="black" 
  stroke-width="1"
  style="overflow:visible"
  viewBox="0, -0.1146, 1, 0.1393"
  xmlns="http://www.w3.org/2000/svg">
    <title>GOE 533 AIRFOIL</title>
    <path 
      vector-effect="non-scaling-stroke"
      d="M1,-0L0.9,-0.0238L0.8,-0.0456L0.7,-0.0654L0.6,-0.0837L0.5,-0.1005L0.4,-0.1113L0.3,-0.1146L0.2,-0.1069L0.15,-0.0968L0.1,-0.0822L0.075,-0.0709L0.05,-0.0576L0.025,-0.041L0.0125,-0.0289L0,-0L0.0125,0.0141L0.025,0.0177L0.05,0.0209L0.075,0.0231L0.1,0.0238L0.15,0.0247L0.2,0.0246L0.3,0.0224L0.4,0.0177L0.5,0.01L0.6,0.0028L0.7,-0.0044L0.8,-0.0071L0.9,-0.0053L1,-0"
    />
</svg>
