
<svg 
  class="airfoil-goe570"
  fill="none"
  stroke="black" 
  stroke-width="1"
  style="overflow:visible"
  viewBox="0, -0.2635, 1, 0.337"
  xmlns="http://www.w3.org/2000/svg">
    <title>GOE 570 AIRFOIL</title>
    <path 
      vector-effect="non-scaling-stroke"
      d="M1,-0L0.95,-0.0375L0.9,-0.067L0.8,-0.123L0.7,-0.172L0.6,-0.214L0.5,-0.2445L0.4,-0.2625L0.3,-0.2635L0.2,-0.2395L0.15,-0.214L0.1,-0.1785L0.075,-0.153L0.05,-0.121L0.025,-0.08L0.0125,-0.052L0,-0L0.0125,0.0225L0.025,0.0365L0.05,0.049L0.075,0.0565L0.1,0.0618L0.15,0.0695L0.2,0.0715L0.3,0.0735L0.4,0.069L0.5,0.0605L0.6,0.051L0.7,0.0415L0.8,0.031L0.9,0.02L0.95,0.0109L1,-0"
    />
</svg>
