
<svg 
  class="airfoil-goe506"
  fill="none"
  stroke="black" 
  stroke-width="1"
  style="overflow:visible"
  viewBox="0, -0.1265, 1, 0.1678"
  xmlns="http://www.w3.org/2000/svg">
    <title>GOE 506 AIRFOIL</title>
    <path 
      vector-effect="non-scaling-stroke"
      d="M1,-0L0.949,-0.0183L0.8981,-0.0351L0.7964,-0.0672L0.6951,-0.0923L0.5941,-0.111L0.4936,-0.1207L0.3933,-0.1263L0.2933,-0.1265L0.1938,-0.1178L0.1444,-0.1051L0.0953,-0.0886L0.071,-0.0748L0.0469,-0.059L0.023,-0.0372L0.0112,-0.0241L0,-0L0.0132,0.0128L0.0259,0.0176L0.0513,0.0253L0.0766,0.0309L0.1019,0.0356L0.1522,0.0409L0.2022,0.0413L0.302,0.038L0.4017,0.0327L0.5015,0.0274L0.6012,0.0221L0.7009,0.0169L0.8006,0.0116L0.9003,0.0063L0.9502,0.0036L1,-0"
    />
</svg>
