
<svg 
  class="airfoil-goe532"
  fill="none"
  stroke="black" 
  stroke-width="1"
  style="overflow:visible"
  viewBox="0, -0.1101, 1, 0.1311"
  xmlns="http://www.w3.org/2000/svg">
    <title>GOE 532 AIRFOIL</title>
    <path 
      vector-effect="non-scaling-stroke"
      d="M1,-0L0.95,-0.0118L0.9,-0.0226L0.8,-0.0433L0.7,-0.063L0.6,-0.0796L0.5,-0.0943L0.4,-0.1054L0.3,-0.1101L0.2,-0.1027L0.15,-0.095L0.1,-0.0834L0.0765,-0.0738L0.05,-0.0622L0.025,-0.0466L0.0125,-0.0343L0,-0L0.0125,0.0127L0.025,0.0159L0.05,0.0183L0.0765,0.0197L0.1,0.0206L0.15,0.021L0.2,0.0198L0.3,0.0149L0.4,0.0086L0.5,0.0022L0.6,-0.0031L0.7,-0.0069L0.8,-0.0078L0.9,-0.0047L0.95,-0.0023L1,-0"
    />
</svg>
