
<svg 
  class="airfoil-goe500"
  fill="none"
  stroke="black" 
  stroke-width="1"
  style="overflow:visible"
  viewBox="0, -0.1042, 1, 0.1232"
  xmlns="http://www.w3.org/2000/svg">
    <title>GOE 500 AIRFOIL</title>
    <path 
      vector-effect="non-scaling-stroke"
      d="M1,-0L0.95,-0.014L0.9,-0.028L0.8,-0.0544L0.7,-0.0749L0.6,-0.0903L0.5,-0.1003L0.4,-0.1042L0.3,-0.1016L0.2,-0.0886L0.15,-0.0781L0.1,-0.0636L0.075,-0.0545L0.05,-0.0435L0.025,-0.03L0.0125,-0.0213L0,-0L0.0125,0.0117L0.025,0.0155L0.05,0.0185L0.075,0.019L0.1,0.0174L0.15,0.0139L0.2,0.0094L0.3,-0.0016L0.4,-0.0117L0.5,-0.0198L0.6,-0.0248L0.7,-0.0254L0.8,-0.0204L0.9,-0.0125L0.95,-0.0065L1,-0"
    />
</svg>
