
<svg 
  class="airfoil-goe591"
  fill="none"
  stroke="black" 
  stroke-width="1"
  style="overflow:visible"
  viewBox="0, -0.1053, 1, 0.1215"
  xmlns="http://www.w3.org/2000/svg">
    <title>GOE 591 AIRFOIL</title>
    <path 
      vector-effect="non-scaling-stroke"
      d="M1,-0L0.95,-0.0131L0.9,-0.0258L0.8,-0.048L0.7,-0.0683L0.6,-0.085L0.5,-0.0972L0.4,-0.1045L0.3,-0.1053L0.2,-0.096L0.15,-0.0866L0.1,-0.0723L0.075,-0.0628L0.05,-0.0499L0.025,-0.0334L0.0125,-0.0217L0,-0L0.0125,0.0108L0.025,0.0136L0.05,0.0161L0.075,0.0162L0.1,0.0158L0.15,0.0139L0.2,0.011L0.3,0.0068L0.4,0.0035L0.5,0.0012L0.6,0.0005L0.7,-0.0003L0.8,-0.0005L0.9,-0.0003L0.95,-0.0006L1,-0"
    />
</svg>
