
<svg 
  class="airfoil-goe522"
  fill="none"
  stroke="black" 
  stroke-width="1"
  style="overflow:visible"
  viewBox="0, -0.1566, 1, 0.2231"
  xmlns="http://www.w3.org/2000/svg">
    <title>GOE 522 AIRFOIL</title>
    <path 
      vector-effect="non-scaling-stroke"
      d="M1,-0L0.9482,-0.02L0.8965,-0.0395L0.7934,-0.0749L0.6909,-0.1045L0.5888,-0.128L0.4873,-0.1446L0.3864,-0.1558L0.2863,-0.1566L0.1875,-0.1429L0.1387,-0.1296L0.0907,-0.1069L0.067,-0.0919L0.0435,-0.0743L0.0206,-0.0503L0.0095,-0.0343L0,-0L0.0152,0.0302L0.0283,0.0375L0.0544,0.0497L0.08,0.0565L0.1053,0.0608L0.1557,0.0649L0.2058,0.0665L0.3053,0.0608L0.4044,0.0506L0.5034,0.0385L0.6023,0.0263L0.7014,0.0156L0.8006,0.0069L0.9001,0.0007L0.95,-0.0001L1,-0"
    />
</svg>
