
<svg 
  class="airfoil-goe512"
  fill="none"
  stroke="black" 
  stroke-width="1"
  style="overflow:visible"
  viewBox="0, -0.1244, 1, 0.1477"
  xmlns="http://www.w3.org/2000/svg">
    <title>GOE 512 AIRFOIL</title>
    <path 
      vector-effect="non-scaling-stroke"
      d="M1,-0L0.9498,-0.0179L0.8996,-0.0344L0.7993,-0.0607L0.6991,-0.082L0.5989,-0.0989L0.4987,-0.1127L0.3986,-0.1211L0.2986,-0.1244L0.1987,-0.1173L0.1488,-0.1087L0.0989,-0.0926L0.0741,-0.0813L0.0492,-0.0661L0.0245,-0.0448L0.0121,-0.0301L0,-0L0.0126,0.0104L0.0252,0.0147L0.0502,0.0189L0.0752,0.0211L0.1003,0.0228L0.1503,0.0233L0.2002,0.0217L0.3001,0.0121L0.4001,0.0109L0.5001,0.0122L0.6002,0.0151L0.7002,0.017L0.8002,0.0153L0.9001,0.0106L0.9501,0.0061L1,-0"
    />
</svg>
