
<svg 
  class="airfoil-goe562"
  fill="none"
  stroke="black" 
  stroke-width="1"
  style="overflow:visible"
  viewBox="0, -0.133, 1, 0.1454"
  xmlns="http://www.w3.org/2000/svg">
    <title>GOE 562 AIRFOIL</title>
    <path 
      vector-effect="non-scaling-stroke"
      d="M1,-0L0.9499,-0.0208L0.8999,-0.0336L0.7998,-0.0568L0.6997,-0.079L0.5997,-0.0991L0.4996,-0.1173L0.3995,-0.1299L0.2995,-0.133L0.1996,-0.1222L0.1496,-0.11L0.0997,-0.0874L0.0747,-0.0733L0.0498,-0.0567L0.0249,-0.0376L0.0124,-0.0245L0,-0L0.0125,0.0105L0.025,0.0124L0.05,0.0123L0.075,0.0122L0.1,0.0121L0.15,0.011L0.2,0.0103L0.3,0.008L0.4,0.0066L0.5,0.0063L0.6,0.0059L0.7,0.006L0.8,0.0067L0.9,0.0074L0.95,0.0062L1,-0"
    />
</svg>
