
<svg 
  class="airfoil-goe590"
  fill="none"
  stroke="black" 
  stroke-width="1"
  style="overflow:visible"
  viewBox="0, -0.0686, 1, 0.0736"
  xmlns="http://www.w3.org/2000/svg">
    <title>GOE 590 AIRFOIL</title>
    <path 
      vector-effect="non-scaling-stroke"
      d="M1,-0L0.95,-0.0065L0.9,-0.0125L0.8,-0.0249L0.7,-0.0369L0.6,-0.0493L0.5,-0.0593L0.4,-0.0672L0.3,-0.0686L0.2,-0.0596L0.15,-0.0511L0.1,-0.04L0.075,-0.033L0.05,-0.0255L0.025,-0.0165L0.0125,-0.011L0,-0L0.0125,0.005L0.025,0.005L0.05,0.0035L0.075,0.001L0.1,-0.0016L0.15,-0.0061L0.2,-0.0091L0.3,-0.0116L0.4,-0.0107L0.5,-0.0052L0.6,-0.0003L0.7,0.0041L0.8,0.0046L0.9,0.0041L0.95,0.0025L1,-0"
    />
</svg>
