
<svg 
  class="airfoil-goe567"
  fill="none"
  stroke="black" 
  stroke-width="1"
  style="overflow:visible"
  viewBox="0, -0.1196, 1, 0.1576"
  xmlns="http://www.w3.org/2000/svg">
    <title>GOE 567 AIRFOIL</title>
    <path 
      vector-effect="non-scaling-stroke"
      d="M1,-0L0.9493,-0.0152L0.8986,-0.0293L0.7975,-0.0547L0.6964,-0.0775L0.5955,-0.0979L0.4948,-0.1123L0.3945,-0.1196L0.2946,-0.1176L0.1952,-0.1035L0.1458,-0.0912L0.0966,-0.0744L0.072,-0.0648L0.0476,-0.0512L0.0234,-0.0356L0.0114,-0.0235L0,-0L0.0133,0.0174L0.0261,0.0248L0.0515,0.0321L0.0766,0.035L0.1017,0.0368L0.1517,0.038L0.2017,0.0367L0.3014,0.0296L0.4008,0.0186L0.5003,0.0065L0.5998,-0.0036L0.6996,-0.0092L0.7995,-0.0098L0.8997,-0.0069L0.9498,-0.0047L1,-0"
    />
</svg>
