
<svg 
  class="airfoil-goe534"
  fill="none"
  stroke="black" 
  stroke-width="1"
  style="overflow:visible"
  viewBox="0, -0.116, 1, 0.14739999"
  xmlns="http://www.w3.org/2000/svg">
    <title>GOE 534 AIRFOIL</title>
    <path 
      vector-effect="non-scaling-stroke"
      d="M1,-0L0.9496,-0.0117L0.8992,-0.0224L0.7985,-0.0424L0.6979,-0.0621L0.5971,-0.0812L0.4966,-0.0966L0.3961,-0.1091L0.2959,-0.116L0.196,-0.1135L0.1462,-0.1072L0.0966,-0.0949L0.072,-0.0856L0.0474,-0.0727L0.0231,-0.0533L0.0112,-0.0374L0,-0L0.0131,0.016L0.0258,0.0221L0.051,0.0292L0.0761,0.0308L0.1011,0.0314L0.1511,0.0306L0.201,0.0274L0.3006,0.0168L0.4002,0.0043L0.4998,-0.0067L0.5996,-0.0128L0.6995,-0.0133L0.7997,-0.0094L0.8999,-0.0039L0.95,-0.0012L1,-0"
    />
</svg>
