
<svg 
  class="airfoil-goe559"
  fill="none"
  stroke="black" 
  stroke-width="1"
  style="overflow:visible"
  viewBox="0, -0.09, 1, 0.1115"
  xmlns="http://www.w3.org/2000/svg">
    <title>GOE 559 AIRFOIL</title>
    <path 
      vector-effect="non-scaling-stroke"
      d="M1,-0L0.95,-0.01L0.9,-0.019L0.8,-0.0365L0.7,-0.0515L0.6,-0.0665L0.5,-0.079L0.4,-0.0885L0.3,-0.09L0.2,-0.076L0.15,-0.0625L0.1,-0.0445L0.075,-0.034L0.05,-0.023L0.025,-0.0115L0.0125,-0.0055L0,-0L0.0125,0.0015L0.025,0.003L0.05,0.006L0.075,0.0085L0.1,0.011L0.15,0.0155L0.2,0.0185L0.3,0.0215L0.4,0.021L0.5,0.0185L0.6,0.0155L0.7,0.012L0.8,0.0085L0.9,0.0045L0.95,0.0025L1,-0"
    />
</svg>
