
<svg 
  class="airfoil-goe563"
  fill="none"
  stroke="black" 
  stroke-width="1"
  style="overflow:visible"
  viewBox="0, -0.0656, 1, 0.0907"
  xmlns="http://www.w3.org/2000/svg">
    <title>GOE 563 AIRFOIL</title>
    <path 
      vector-effect="non-scaling-stroke"
      d="M1,-0L0.9497,-0.0087L0.8994,-0.0174L0.7988,-0.0334L0.6984,-0.0463L0.598,-0.0562L0.4978,-0.0627L0.3977,-0.0656L0.2977,-0.0646L0.1979,-0.0595L0.1481,-0.0543L0.0984,-0.046L0.0736,-0.0406L0.0488,-0.0332L0.0242,-0.0229L0.0119,-0.0159L0,-0L0.013,0.0135L0.0256,0.0176L0.0508,0.0217L0.0759,0.0238L0.1009,0.0244L0.1509,0.0251L0.2009,0.0249L0.3009,0.0243L0.4008,0.0213L0.5006,0.0177L0.6005,0.0142L0.7004,0.0106L0.8002,0.0071L0.9001,0.0036L0.9501,0.0018L1,-0"
    />
</svg>
