
<svg 
  class="airfoil-goe508"
  fill="none"
  stroke="black" 
  stroke-width="1"
  style="overflow:visible"
  viewBox="0, -0.1374, 1, 0.1723"
  xmlns="http://www.w3.org/2000/svg">
    <title>GOE 508 AIRFOIL</title>
    <path 
      vector-effect="non-scaling-stroke"
      d="M1,-0L0.95,-0.0144L0.9,-0.0294L0.8,-0.0583L0.7,-0.0862L0.6,-0.1101L0.5,-0.1275L0.4,-0.1374L0.3,-0.1363L0.2,-0.1242L0.15,-0.1137L0.1,-0.0961L0.075,-0.0841L0.05,-0.068L0.025,-0.0475L0.0125,-0.031L0,-0L0.0125,0.021L0.025,0.027L0.05,0.032L0.075,0.0344L0.1,0.0349L0.15,0.0344L0.2,0.0328L0.3,0.0287L0.4,0.0246L0.5,0.0205L0.6,0.0164L0.7,0.0123L0.8,0.0082L0.9,0.0041L0.95,0.0021L1,-0"
    />
</svg>
