
<svg 
  class="airfoil-goe513"
  fill="none"
  stroke="black" 
  stroke-width="1"
  style="overflow:visible"
  viewBox="0, -0.1352, 1, 0.17459999"
  xmlns="http://www.w3.org/2000/svg">
    <title>GOE 513 AIRFOIL</title>
    <path 
      vector-effect="non-scaling-stroke"
      d="M1,-0L0.9497,-0.0176L0.8994,-0.0357L0.7989,-0.065L0.6985,-0.0877L0.5981,-0.1075L0.4979,-0.1207L0.3977,-0.1315L0.2976,-0.1352L0.1978,-0.128L0.1479,-0.1186L0.0982,-0.1012L0.0735,-0.0883L0.0487,-0.0714L0.0242,-0.0484L0.0119,-0.0322L0,-0L0.0128,0.0173L0.0254,0.0226L0.0505,0.0286L0.0756,0.0332L0.1006,0.0362L0.1507,0.0394L0.2007,0.038L0.3005,0.0307L0.4005,0.027L0.5005,0.0282L0.6005,0.0305L0.7005,0.0297L0.8004,0.0245L0.9003,0.0167L0.9502,0.0104L1,-0"
    />
</svg>
