
<svg 
  class="airfoil-goe514"
  fill="none"
  stroke="black" 
  stroke-width="1"
  style="overflow:visible"
  viewBox="0, -0.1449, 1, 0.17719999"
  xmlns="http://www.w3.org/2000/svg">
    <title>GOE 514 AIRFOIL</title>
    <path 
      vector-effect="non-scaling-stroke"
      d="M1,-0L0.9495,-0.0209L0.8991,-0.0398L0.7984,-0.0737L0.6977,-0.0988L0.5974,-0.1189L0.4971,-0.1337L0.397,-0.142L0.2969,-0.1449L0.1971,-0.1357L0.1473,-0.1232L0.0978,-0.1036L0.073,-0.0906L0.0484,-0.0725L0.024,-0.0485L0.0118,-0.0322L0,-0L0.0127,0.0117L0.0254,0.018L0.0505,0.0254L0.0756,0.0294L0.1007,0.0323L0.1507,0.0323L0.2006,0.0297L0.3004,0.0195L0.4003,0.0129L0.5003,0.0147L0.6004,0.0206L0.7004,0.0204L0.8004,0.0173L0.9002,0.0106L0.9501,0.0061L1,-0"
    />
</svg>
