
<svg 
  class="airfoil-goe515"
  fill="none"
  stroke="black" 
  stroke-width="1"
  style="overflow:visible"
  viewBox="0, -0.0692, 1, 0.0938"
  xmlns="http://www.w3.org/2000/svg">
    <title>GOE 515 AIRFOIL</title>
    <path 
      vector-effect="non-scaling-stroke"
      d="M1,-0L0.95,-0.0087L0.9,-0.0174L0.8,-0.0334L0.7,-0.0479L0.6,-0.0588L0.5,-0.0662L0.4,-0.0692L0.3,-0.0681L0.2,-0.0616L0.15,-0.0548L0.1,-0.0461L0.075,-0.0404L0.05,-0.0328L0.025,-0.0226L0.0125,-0.0153L0,-0L0.0125,0.0132L0.025,0.0179L0.05,0.0227L0.075,0.0246L0.1,0.0245L0.15,0.0232L0.2,0.0209L0.3,0.0163L0.4,0.0133L0.5,0.0108L0.6,0.0097L0.7,0.0082L0.8,0.0071L0.9,0.0046L0.95,0.0028L1,-0"
    />
</svg>
