
<svg 
  class="airfoil-goe535"
  fill="none"
  stroke="black" 
  stroke-width="1"
  style="overflow:visible"
  viewBox="0, -0.1324, 1, 0.16870001"
  xmlns="http://www.w3.org/2000/svg">
    <title>GOE 535 AIRFOIL</title>
    <path 
      vector-effect="non-scaling-stroke"
      d="M1,-0L0.95,-0.0154L0.9,-0.0299L0.8,-0.0557L0.7,-0.0782L0.6,-0.0984L0.5,-0.1152L0.4,-0.1271L0.3,-0.1324L0.2,-0.1258L0.15,-0.1162L0.1,-0.1006L0.075,-0.0891L0.05,-0.0746L0.025,-0.0555L0.0125,-0.041L0,-0L0.0125,0.0195L0.025,0.0265L0.05,0.0329L0.075,0.0349L0.1,0.0358L0.15,0.0363L0.2,0.0347L0.3,0.028L0.4,0.0149L0.5,0.0003L0.6,-0.0119L0.7,-0.016L0.8,-0.0152L0.9,-0.0088L0.95,-0.0029L1,-0"
    />
</svg>
