
<svg 
  class="airfoil-goe572"
  fill="none"
  stroke="black" 
  stroke-width="1"
  style="overflow:visible"
  viewBox="0, -0.1762, 1, 0.19060001"
  xmlns="http://www.w3.org/2000/svg">
    <title>GOE 572 AIRFOIL</title>
    <path 
      vector-effect="non-scaling-stroke"
      d="M1,-0L0.9498,-0.0216L0.8998,-0.038L0.7995,-0.069L0.6993,-0.0982L0.5991,-0.1255L0.4989,-0.1497L0.3987,-0.1685L0.2987,-0.1762L0.1988,-0.166L0.1489,-0.1486L0.0991,-0.1162L0.0743,-0.0981L0.0494,-0.0764L0.0246,-0.0487L0.0123,-0.0311L0,-0L0.0126,0.0094L0.0251,0.0123L0.0501,0.0141L0.0751,0.0144L0.1001,0.0143L0.1501,0.0134L0.2001,0.012L0.3001,0.0098L0.4001,0.0075L0.5001,0.0063L0.6,0.0065L0.7001,0.0077L0.8001,0.009L0.9001,0.0082L0.9501,0.0079L1,-0"
    />
</svg>
