
<svg 
  class="airfoil-goe54"
  fill="none"
  stroke="black" 
  stroke-width="1"
  style="overflow:visible"
  viewBox="0, -0.067, 1, 0.076900005"
  xmlns="http://www.w3.org/2000/svg">
    <title>GOE 54 AIRFOIL</title>
    <path 
      vector-effect="non-scaling-stroke"
      d="M1,-0.0018L0.9499,-0.0055L0.8999,-0.0089L0.7999,-0.0168L0.6998,-0.0237L0.5997,-0.0325L0.4997,-0.0416L0.3996,-0.0518L0.2995,-0.0622L0.1995,-0.067L0.1495,-0.0665L0.0995,-0.0605L0.0746,-0.0551L0.0496,-0.0461L0.0247,-0.0337L0.0123,-0.0246L0,-0L0.0126,0.0099L0.0251,0.0084L0.05,0.0026L0.075,0.001L0.1,-0.0006L0.15,-0.0017L0.2,-0.0026L0.3,-0.003L0.4,-0.0033L0.5,-0.0032L0.6,-0.003L0.7,-0.0028L0.8,-0.0029L0.9,-0.0009L0.95,0.0008L1,0.0018"
    />
</svg>
