
<svg 
  class="airfoil-goe523"
  fill="none"
  stroke="black" 
  stroke-width="1"
  style="overflow:visible"
  viewBox="0, -0.1704, 1, 0.1889"
  xmlns="http://www.w3.org/2000/svg">
    <title>GOE 523 AIRFOIL</title>
    <path 
      vector-effect="non-scaling-stroke"
      d="M1,-0L0.9495,-0.026L0.899,-0.05L0.7982,-0.0905L0.6976,-0.122L0.5971,-0.1449L0.4968,-0.1619L0.3966,-0.1704L0.2966,-0.1694L0.1969,-0.1539L0.1472,-0.1384L0.0977,-0.1139L0.073,-0.098L0.0484,-0.08L0.0239,-0.055L0.0118,-0.0372L0,-0L0.0128,0.0132L0.0253,0.0165L0.0504,0.0185L0.0754,0.0185L0.1003,0.0175L0.1503,0.013L0.2002,0.008L0.2999,-0.005L0.3996,-0.0185L0.4994,-0.0325L0.5991,-0.0455L0.6989,-0.053L0.799,-0.0485L0.8994,-0.0305L0.9497,-0.017L1,-0"
    />
</svg>
