
<svg 
  class="airfoil-goe599"
  fill="none"
  stroke="black" 
  stroke-width="1"
  style="overflow:visible"
  viewBox="0, -0.0636, 1, 0.101"
  xmlns="http://www.w3.org/2000/svg">
    <title>GOE 599 AIRFOIL</title>
    <path 
      vector-effect="non-scaling-stroke"
      d="M1,-0.0018L0.9493,-0.0118L0.8988,-0.0209L0.798,-0.0345L0.6973,-0.0466L0.5968,-0.0558L0.4964,-0.0614L0.3963,-0.0636L0.2964,-0.0623L0.1968,-0.0555L0.1472,-0.0486L0.0976,-0.0407L0.0729,-0.0353L0.0483,-0.0288L0.0238,-0.0214L0.0116,-0.0147L0,-0L0.0132,0.0122L0.026,0.017L0.0514,0.0235L0.0766,0.028L0.1018,0.0306L0.1521,0.0351L0.2022,0.0372L0.3022,0.0374L0.402,0.0351L0.5018,0.0308L0.6015,0.025L0.7011,0.0192L0.8008,0.0133L0.9004,0.0076L0.9503,0.0047L1,0.0018"
    />
</svg>
