
<svg 
  class="airfoil-goe547"
  fill="none"
  stroke="black" 
  stroke-width="1"
  style="overflow:visible"
  viewBox="0, -0.0902, 1, 0.1152"
  xmlns="http://www.w3.org/2000/svg">
    <title>GOE 547 AIRFOIL</title>
    <path 
      vector-effect="non-scaling-stroke"
      d="M1,-0L0.9496,-0.015L0.8992,-0.027L0.7986,-0.0486L0.698,-0.0666L0.5976,-0.0796L0.4974,-0.0882L0.3973,-0.0902L0.2975,-0.0858L0.1978,-0.0753L0.148,-0.0669L0.0984,-0.0544L0.0736,-0.0472L0.0489,-0.0374L0.0243,-0.0252L0.012,-0.0163L0,-0L0.0129,0.0141L0.0255,0.0178L0.0506,0.0215L0.0757,0.0228L0.1007,0.024L0.1507,0.025L0.2007,0.0236L0.3006,0.0191L0.4004,0.0137L0.5002,0.0077L0.6001,0.0028L0.7,-0.0002L0.8,-0.0006L0.9,-0.0005L0.95,-0.0005L1,-0"
    />
</svg>
