
<svg 
  class="airfoil-goe509"
  fill="none"
  stroke="black" 
  stroke-width="1"
  style="overflow:visible"
  viewBox="0, -0.107, 1, 0.1211"
  xmlns="http://www.w3.org/2000/svg">
    <title>GOE 509 AIRFOIL</title>
    <path 
      vector-effect="non-scaling-stroke"
      d="M1,-0L0.9499,-0.0132L0.8999,-0.028L0.7997,-0.0495L0.6997,-0.0685L0.5996,-0.085L0.4995,-0.097L0.3995,-0.1035L0.2995,-0.107L0.1995,-0.0995L0.1496,-0.0908L0.0996,-0.0775L0.0747,-0.0669L0.0497,-0.0542L0.0248,-0.0361L0.0124,-0.0261L0,-0L0.0125,0.0089L0.0251,0.0119L0.0501,0.0137L0.0751,0.0141L0.1001,0.014L0.1501,0.0132L0.2001,0.011L0.3,0.0035L0.4,-0L0.5,0.0025L0.6,0.008L0.7001,0.011L0.8001,0.0105L0.9,0.008L0.95,0.0058L1,-0"
    />
</svg>
