
<svg 
  class="airfoil-goe550"
  fill="none"
  stroke="black" 
  stroke-width="1"
  style="overflow:visible"
  viewBox="0, -0.1006, 1, 0.1423"
  xmlns="http://www.w3.org/2000/svg">
    <title>GOE 550 AIRFOIL</title>
    <path 
      vector-effect="non-scaling-stroke"
      d="M1,-0L0.95,-0.0141L0.9,-0.0261L0.8,-0.0472L0.7,-0.0663L0.6,-0.0824L0.5,-0.094L0.4,-0.1006L0.3,-0.1002L0.2,-0.0913L0.15,-0.0813L0.1,-0.0669L0.075,-0.0582L0.05,-0.047L0.025,-0.0322L0.0125,-0.0221L0,-0L0.0125,0.0179L0.025,0.0253L0.05,0.0336L0.075,0.0383L0.1,0.0406L0.15,0.0417L0.2,0.0382L0.3,0.0268L0.4,0.0174L0.5,0.0085L0.6,0.0031L0.7,-0.0013L0.8,-0.0027L0.9,-0.0021L0.95,-0.0016L1,-0"
    />
</svg>
