
<svg 
  class="airfoil-goe526"
  fill="none"
  stroke="black" 
  stroke-width="1"
  style="overflow:visible"
  viewBox="0, -0.1015, 1, 0.13159999"
  xmlns="http://www.w3.org/2000/svg">
    <title>GOE 526 AIRFOIL</title>
    <path 
      vector-effect="non-scaling-stroke"
      d="M1,-0L0.9497,-0.0121L0.8993,-0.0241L0.7987,-0.0463L0.6981,-0.0664L0.5976,-0.0835L0.4973,-0.0952L0.3971,-0.1008L0.2971,-0.1015L0.1973,-0.0931L0.1476,-0.0839L0.0979,-0.0718L0.0732,-0.0631L0.0485,-0.0524L0.0239,-0.0377L0.0117,-0.0268L0,-0L0.013,0.0176L0.0257,0.0233L0.0508,0.028L0.0759,0.0298L0.1009,0.0301L0.1508,0.0282L0.2007,0.0258L0.3006,0.0214L0.4005,0.0181L0.5004,0.0152L0.6004,0.0129L0.7004,0.0125L0.8003,0.0102L0.9002,0.0058L0.9501,0.0029L1,-0"
    />
</svg>
