
<svg 
  class="airfoil-goe553"
  fill="none"
  stroke="black" 
  stroke-width="1"
  style="overflow:visible"
  viewBox="0, -0.1145, 1, 0.1392"
  xmlns="http://www.w3.org/2000/svg">
    <title>GOE 553 AIRFOIL</title>
    <path 
      vector-effect="non-scaling-stroke"
      d="M1,-0L0.9496,-0.0124L0.8992,-0.0238L0.7985,-0.0455L0.6979,-0.0653L0.5973,-0.0836L0.4968,-0.1004L0.3964,-0.1112L0.2963,-0.1145L0.1966,-0.1068L0.1469,-0.0967L0.0974,-0.0821L0.0727,-0.0708L0.0482,-0.0575L0.0237,-0.0408L0.0116,-0.0289L0,-0L0.013,0.0141L0.0256,0.0177L0.0507,0.0209L0.0757,0.0231L0.1008,0.0238L0.1508,0.0247L0.2008,0.0246L0.3007,0.0224L0.4006,0.0177L0.5003,0.01L0.6001,0.0018L0.6999,-0.0044L0.7998,-0.0071L0.8998,-0.0053L0.9499,-0.0029L1,-0"
    />
</svg>
