
<svg 
  class="airfoil-goe548"
  fill="none"
  stroke="black" 
  stroke-width="1"
  style="overflow:visible"
  viewBox="0, -0.0816, 1, 0.1214"
  xmlns="http://www.w3.org/2000/svg">
    <title>GOE 548 AIRFOIL</title>
    <path 
      vector-effect="non-scaling-stroke"
      d="M1,-0L0.95,-0.0133L0.9,-0.024L0.8,-0.0452L0.7,-0.0595L0.6,-0.0719L0.5,-0.079L0.4,-0.0816L0.3,-0.0787L0.2,-0.0683L0.15,-0.0606L0.1,-0.0504L0.075,-0.0433L0.05,-0.0352L0.025,-0.0221L0.0125,-0.0138L0,-0L0.0125,0.0122L0.025,0.0174L0.05,0.0233L0.075,0.0282L0.1,0.0316L0.15,0.0364L0.2,0.0387L0.3,0.0398L0.4,0.0374L0.5,0.033L0.6,0.0271L0.7,0.0207L0.8,0.0138L0.9,0.0069L0.95,0.0037L1,-0"
    />
</svg>
