
<svg 
  class="airfoil-goe598"
  fill="none"
  stroke="black" 
  stroke-width="1"
  style="overflow:visible"
  viewBox="0, -0.0417, 1, 0.066300005"
  xmlns="http://www.w3.org/2000/svg">
    <title>GOE 598 AIRFOIL</title>
    <path 
      vector-effect="non-scaling-stroke"
      d="M1,-0.001L0.9498,-0.006L0.8996,-0.011L0.7992,-0.0196L0.6989,-0.0277L0.5986,-0.0347L0.4984,-0.0402L0.3984,-0.0417L0.2984,-0.0403L0.1986,-0.0363L0.1487,-0.0324L0.0989,-0.0274L0.0741,-0.0239L0.0492,-0.019L0.0245,-0.013L0.0122,-0.0085L0,-0L0.0129,0.009L0.0255,0.012L0.0507,0.017L0.0758,0.019L0.1008,0.0205L0.1509,0.023L0.2009,0.0241L0.301,0.0246L0.4009,0.0237L0.5008,0.0207L0.6007,0.0168L0.7005,0.0128L0.8004,0.0089L0.9002,0.0049L0.9501,0.003L1,0.001"
    />
</svg>
