
<svg 
  class="airfoil-goe527"
  fill="none"
  stroke="black" 
  stroke-width="1"
  style="overflow:visible"
  viewBox="0, -0.1394, 1, 0.16980001"
  xmlns="http://www.w3.org/2000/svg">
    <title>GOE 527 AIRFOIL</title>
    <path 
      vector-effect="non-scaling-stroke"
      d="M1,-0L0.9494,-0.0156L0.8989,-0.0303L0.7978,-0.0585L0.6969,-0.0848L0.596,-0.1081L0.4953,-0.1263L0.3949,-0.1381L0.2948,-0.1394L0.1953,-0.1282L0.1457,-0.1169L0.0963,-0.0986L0.0718,-0.0867L0.0474,-0.0702L0.0232,-0.0489L0.0113,-0.0339L0,-0L0.0131,0.016L0.0258,0.0215L0.051,0.0271L0.0761,0.0292L0.1011,0.0298L0.1511,0.0304L0.2011,0.0296L0.301,0.0259L0.4008,0.0212L0.5006,0.016L0.6004,0.0113L0.7003,0.0076L0.8002,0.0044L0.9001,0.0022L0.95,0.0003L1,-0"
    />
</svg>
