
<svg 
  class="airfoil-goe546"
  fill="none"
  stroke="black" 
  stroke-width="1"
  style="overflow:visible"
  viewBox="0, -0.0851, 1, 0.1083"
  xmlns="http://www.w3.org/2000/svg">
    <title>GOE 546 AIRFOIL</title>
    <path 
      vector-effect="non-scaling-stroke"
      d="M1,-0L0.95,-0.0126L0.9,-0.0226L0.8,-0.0422L0.7,-0.0593L0.6,-0.0717L0.5,-0.081L0.4,-0.0851L0.3,-0.0837L0.2,-0.0748L0.15,-0.0674L0.1,-0.0559L0.075,-0.0487L0.05,-0.0399L0.025,-0.0282L0.0125,-0.0209L0,-0L0.0125,0.0116L0.025,0.0153L0.05,0.0185L0.075,0.0203L0.1,0.0216L0.15,0.0229L0.2,0.0232L0.3,0.0203L0.4,0.0154L0.5,0.0095L0.6,0.0046L0.7,0.0012L0.8,-0.0007L0.9,-0.0016L0.95,-0.001L1,-0"
    />
</svg>
