
<svg 
  class="airfoil-goe528"
  fill="none"
  stroke="black" 
  stroke-width="1"
  style="overflow:visible"
  viewBox="0, -0.1225, 1, 0.1368"
  xmlns="http://www.w3.org/2000/svg">
    <title>GOE 528 AIRFOIL</title>
    <path 
      vector-effect="non-scaling-stroke"
      d="M1,-0L0.9498,-0.0148L0.8996,-0.0275L0.7992,-0.0525L0.6989,-0.076L0.5986,-0.096L0.4983,-0.111L0.3982,-0.121L0.2982,-0.1225L0.1983,-0.1125L0.1485,-0.1017L0.0987,-0.085L0.0739,-0.0731L0.0491,-0.0597L0.0244,-0.0424L0.0121,-0.0302L0,-0L0.0127,0.0108L0.0252,0.0131L0.0502,0.0143L0.0752,0.0139L0.1002,0.013L0.1502,0.0108L0.2001,0.008L0.3,0.002L0.4,-0.003L0.4999,-0.0065L0.5999,-0.0075L0.6999,-0.0075L0.7999,-0.006L0.9,-0.003L0.95,-0.0018L1,-0"
    />
</svg>
