
<svg 
  class="airfoil-goe626"
  fill="none"
  stroke="black" 
  stroke-width="1"
  style="overflow:visible"
  viewBox="0, -0.1207, 1, 0.1758"
  xmlns="http://www.w3.org/2000/svg">
    <title>GOE 626 AIRFOIL</title>
    <path 
      vector-effect="non-scaling-stroke"
      d="M1,-0L0.9489,-0.0166L0.8979,-0.0311L0.7961,-0.0572L0.6946,-0.0794L0.5935,-0.0961L0.4926,-0.1103L0.392,-0.119L0.2919,-0.1207L0.1925,-0.111L0.1432,-0.1002L0.0942,-0.0854L0.07,-0.0742L0.0459,-0.0606L0.0221,-0.043L0.0106,-0.0277L0,-0L0.014,0.0225L0.027,0.0297L0.0527,0.0404L0.0782,0.0467L0.1035,0.051L0.1537,0.0551L0.2036,0.0538L0.3026,0.0381L0.4015,0.0214L0.5005,0.0077L0.5999,-0.002L0.6995,-0.0077L0.7994,-0.0095L0.8996,-0.0067L0.9497,-0.0041L1,-0"
    />
</svg>
