
<svg 
  class="airfoil-goe679"
  fill="none"
  stroke="black" 
  stroke-width="1"
  style="overflow:visible"
  viewBox="0, -0.1348, 1, 0.1888"
  xmlns="http://www.w3.org/2000/svg">
    <title>GOE 679 AIRFOIL</title>
    <path 
      vector-effect="non-scaling-stroke"
      d="M1,-0L0.9484,-0.0215L0.8974,-0.039L0.7955,-0.0661L0.6939,-0.0892L0.5926,-0.1088L0.4916,-0.1229L0.391,-0.1321L0.2908,-0.1348L0.1914,-0.126L0.1421,-0.1157L0.0933,-0.0983L0.0692,-0.0857L0.0452,-0.0701L0.0218,-0.047L0.0104,-0.0312L0,-0L0.0143,0.026L0.0273,0.0336L0.0529,0.0429L0.0783,0.0487L0.1035,0.052L0.1537,0.054L0.2036,0.0531L0.3032,0.0474L0.4028,0.0406L0.5023,0.0338L0.6018,0.0271L0.7014,0.0203L0.8009,0.0135L0.9005,0.0068L0.9502,0.0034L1,-0"
    />
</svg>
