
<svg 
  class="airfoil-goe632"
  fill="none"
  stroke="black" 
  stroke-width="1"
  style="overflow:visible"
  viewBox="0, -0.1089, 1, 0.14"
  xmlns="http://www.w3.org/2000/svg">
    <title>GOE 632 AIRFOIL</title>
    <path 
      vector-effect="non-scaling-stroke"
      d="M1,-0L0.95,-0.0119L0.9,-0.0232L0.8,-0.0444L0.7,-0.0656L0.6,-0.0838L0.5,-0.099L0.4,-0.1077L0.3,-0.1089L0.2,-0.0991L0.15,-0.0884L0.1,-0.0748L0.075,-0.0652L0.05,-0.0542L0.025,-0.0366L0.0125,-0.024L0,-0L0.0125,0.017L0.025,0.0214L0.05,0.0254L0.075,0.0268L0.1,0.0282L0.15,0.0301L0.2,0.0309L0.3,0.0311L0.4,0.0293L0.5,0.029L0.6,0.0302L0.7,0.0294L0.8,0.0251L0.9,0.0158L0.95,0.0092L1,-0"
    />
</svg>
