
<svg 
  class="airfoil-goe625"
  fill="none"
  stroke="black" 
  stroke-width="1"
  style="overflow:visible"
  viewBox="0, -0.1615, 1, 0.207"
  xmlns="http://www.w3.org/2000/svg">
    <title>GOE 625 AIRFOIL</title>
    <path 
      vector-effect="non-scaling-stroke"
      d="M1,-0.0065L0.95,-0.0247L0.9,-0.042L0.8,-0.075L0.7,-0.1045L0.6,-0.1285L0.5,-0.146L0.4,-0.1575L0.3,-0.1615L0.2,-0.149L0.15,-0.1357L0.1,-0.114L0.075,-0.0986L0.05,-0.0808L0.025,-0.0544L0.0125,-0.0357L0,-0L0.0125,0.0213L0.025,0.0301L0.05,0.0397L0.075,0.0434L0.1,0.0455L0.15,0.0452L0.2,0.043L0.3,0.0385L0.4,0.033L0.5,0.0275L0.6,0.022L0.7,0.0165L0.8,0.011L0.9,0.0055L0.95,0.0027L1,-0"
    />
</svg>
