
<svg 
  class="airfoil-goe630"
  fill="none"
  stroke="black" 
  stroke-width="1"
  style="overflow:visible"
  viewBox="0, -0.1371, 1, 0.1522"
  xmlns="http://www.w3.org/2000/svg">
    <title>GOE 630 AIRFOIL</title>
    <path 
      vector-effect="non-scaling-stroke"
      d="M1,-0L0.9498,-0.0162L0.8995,-0.0314L0.7991,-0.0604L0.6987,-0.0868L0.5983,-0.1098L0.498,-0.1262L0.3979,-0.1357L0.2979,-0.1371L0.1981,-0.1256L0.1483,-0.1118L0.0986,-0.0915L0.0738,-0.0781L0.049,-0.0623L0.0244,-0.0414L0.0121,-0.0282L0,-0L0.0127,0.0128L0.0252,0.0151L0.0502,0.0137L0.0752,0.0113L0.1001,0.0084L0.15,0.0027L0.1999,-0.0031L0.2998,-0.0116L0.3997,-0.0177L0.4997,-0.0198L0.5997,-0.0188L0.6997,-0.0161L0.7998,-0.0124L0.8999,-0.006L0.95,-0.0022L1,-0"
    />
</svg>
