
<svg 
  class="airfoil-goe646"
  fill="none"
  stroke="black" 
  stroke-width="1"
  style="overflow:visible"
  viewBox="0, -0.1304, 1, 0.1909"
  xmlns="http://www.w3.org/2000/svg">
    <title>GOE 646 AIRFOIL</title>
    <path 
      vector-effect="non-scaling-stroke"
      d="M1,-0L0.9485,-0.019L0.8973,-0.0345L0.7951,-0.0635L0.6931,-0.0886L0.5916,-0.1076L0.4905,-0.1223L0.3898,-0.1304L0.29,-0.1286L0.1909,-0.1174L0.1417,-0.106L0.0931,-0.0893L0.069,-0.0774L0.045,-0.0635L0.0215,-0.0447L0.0102,-0.0303L0,-0L0.0144,0.0244L0.0276,0.0333L0.0535,0.0443L0.079,0.0508L0.1043,0.0554L0.1547,0.0599L0.2047,0.0605L0.3042,0.0538L0.4033,0.0425L0.5024,0.0313L0.6015,0.0196L0.7007,0.0088L0.8002,0.0026L0.9,-0.0007L0.9499,-0.0006L1,-0"
    />
</svg>
