
<svg 
  class="airfoil-goe620"
  fill="none"
  stroke="black" 
  stroke-width="1"
  style="overflow:visible"
  viewBox="0, -0.1421, 1, 0.18490002"
  xmlns="http://www.w3.org/2000/svg">
    <title>GOE 620 AIRFOIL</title>
    <path 
      vector-effect="non-scaling-stroke"
      d="M1,-0L0.95,-0.0184L0.9,-0.0358L0.8,-0.0677L0.7,-0.0956L0.6,-0.1189L0.5,-0.1343L0.4,-0.1421L0.3,-0.1409L0.2,-0.1283L0.15,-0.1162L0.1,-0.0971L0.075,-0.0859L0.05,-0.0701L0.025,-0.0483L0.0125,-0.0321L0,-0L0.0125,0.0209L0.025,0.0282L0.05,0.0349L0.075,0.0391L0.1,0.0413L0.15,0.0428L0.2,0.0412L0.3,0.034L0.4,0.0249L0.5,0.0162L0.6,0.0086L0.7,0.0034L0.8,0.0008L0.9,0.0007L0.95,0.0006L1,-0"
    />
</svg>
