
<svg 
  class="airfoil-goe685"
  fill="none"
  stroke="black" 
  stroke-width="1"
  style="overflow:visible"
  viewBox="0, -0.101, 1, 0.1425"
  xmlns="http://www.w3.org/2000/svg">
    <title>GOE 685 AIRFOIL</title>
    <path 
      vector-effect="non-scaling-stroke"
      d="M1,-0L0.9494,-0.0115L0.8979,-0.0234L0.7978,-0.0456L0.6969,-0.0641L0.5961,-0.0802L0.4955,-0.0923L0.3951,-0.0994L0.295,-0.101L0.1955,-0.0916L0.146,-0.0816L0.0967,-0.0682L0.0722,-0.0575L0.0477,-0.0463L0.0234,-0.0322L0.0114,-0.0226L0,-0L0.0135,0.0193L0.0263,0.0257L0.0516,0.0335L0.0769,0.0382L0.102,0.041L0.152,0.0415L0.2019,0.0386L0.3013,0.0267L0.4008,0.0154L0.5004,0.008L0.6001,0.0031L0.7,0.0002L0.7999,-0.0012L0.9,-0.0006L0.95,-0.0005L1,-0"
    />
</svg>
