
<svg 
  class="airfoil-goe675"
  fill="none"
  stroke="black" 
  stroke-width="1"
  style="overflow:visible"
  viewBox="0, -0.1302, 1, 0.1635"
  xmlns="http://www.w3.org/2000/svg">
    <title>GOE 675 AIRFOIL</title>
    <path 
      vector-effect="non-scaling-stroke"
      d="M1,-0.0018L0.9494,-0.0185L0.8988,-0.0347L0.7977,-0.0662L0.6968,-0.0927L0.5961,-0.1122L0.4957,-0.1247L0.3955,-0.1302L0.2955,-0.1298L0.1959,-0.1178L0.1463,-0.1056L0.097,-0.0879L0.0724,-0.076L0.0479,-0.0617L0.0235,-0.0428L0.0114,-0.0314L0,-0L0.0132,0.02L0.0259,0.0261L0.0511,0.0322L0.0762,0.0333L0.1011,0.033L0.1511,0.0302L0.2009,0.027L0.3007,0.0191L0.4004,0.0126L0.5003,0.0076L0.6001,0.0041L0.7001,0.0022L0.8,0.0012L0.9,0.0012L0.95,0.0015L1,0.0018"
    />
</svg>
