
<svg 
  class="airfoil-goe614"
  fill="none"
  stroke="black" 
  stroke-width="1"
  style="overflow:visible"
  viewBox="0, -0.1516, 1, 0.19590001"
  xmlns="http://www.w3.org/2000/svg">
    <title>GOE 614 AIRFOIL</title>
    <path 
      vector-effect="non-scaling-stroke"
      d="M1,-0L0.9489,-0.0203L0.8979,-0.0385L0.7962,-0.0706L0.6947,-0.0987L0.5935,-0.1217L0.4925,-0.1393L0.392,-0.1505L0.2919,-0.1516L0.1926,-0.1378L0.1434,-0.1237L0.0946,-0.1011L0.0703,-0.0883L0.0463,-0.0695L0.0226,-0.0447L0.011,-0.0286L0,-0L0.0136,0.0213L0.0231,0.0253L0.0519,0.0347L0.0771,0.0399L0.1023,0.042L0.1524,0.0443L0.2023,0.0427L0.3019,0.0353L0.4014,0.026L0.5009,0.0167L0.6005,0.0089L0.7002,0.0035L0.8,0.0002L0.9005,0.0007L0.95,-0.0003L1,-0"
    />
</svg>
