
<svg 
  class="airfoil-goe622"
  fill="none"
  stroke="black" 
  stroke-width="1"
  style="overflow:visible"
  viewBox="0, -0.0636, 1, 0.0828"
  xmlns="http://www.w3.org/2000/svg">
    <title>GOE 622 AIRFOIL</title>
    <path 
      vector-effect="non-scaling-stroke"
      d="M1,-0.002L0.95,-0.0103L0.9,-0.0171L0.8,-0.0307L0.7,-0.0428L0.6,-0.0519L0.5,-0.059L0.4,-0.0636L0.3,-0.0632L0.2,-0.0578L0.15,-0.0526L0.1,-0.0444L0.075,-0.0393L0.05,-0.0317L0.025,-0.0216L0.0125,-0.0138L0,-0L0.0125,0.0092L0.025,0.0129L0.05,0.0168L0.075,0.0187L0.1,0.0191L0.15,0.0192L0.2,0.0187L0.3,0.0168L0.4,0.0144L0.5,0.012L0.6,0.0096L0.7,0.0072L0.8,0.0048L0.9,0.0024L0.95,0.0012L1,-0"
    />
</svg>
