
<svg 
  class="airfoil-goe602"
  fill="none"
  stroke="black" 
  stroke-width="1"
  style="overflow:visible"
  viewBox="0, -0.083, 1, 0.103"
  xmlns="http://www.w3.org/2000/svg">
    <title>GOE 602 AIRFOIL</title>
    <path 
      vector-effect="non-scaling-stroke"
      d="M1,-0L0.95,-0.0122L0.9,-0.023L0.8,-0.0425L0.7,-0.058L0.6,-0.07L0.5,-0.0785L0.4,-0.083L0.3,-0.0825L0.2,-0.0745L0.15,-0.0667L0.1,-0.055L0.075,-0.0474L0.05,-0.0382L0.025,-0.0241L0.0125,-0.0158L0,-0L0.0125,0.0099L0.025,0.0129L0.05,0.0162L0.075,0.0181L0.1,0.019L0.15,0.0198L0.2,0.02L0.3,0.017L0.4,0.0135L0.5,0.01L0.6,0.0065L0.7,0.003L0.8,0.001L0.9,-0.0005L0.95,-0.0008L1,-0"
    />
</svg>
