
<svg 
  class="airfoil-goe673"
  fill="none"
  stroke="black" 
  stroke-width="1"
  style="overflow:visible"
  viewBox="0, -0.0806, 1, 0.1105"
  xmlns="http://www.w3.org/2000/svg">
    <title>GOE 673 AIRFOIL</title>
    <path 
      vector-effect="non-scaling-stroke"
      d="M1,-0.002L0.9495,-0.013L0.899,-0.0234L0.7983,-0.0423L0.6977,-0.0578L0.5972,-0.0692L0.4969,-0.0771L0.3967,-0.0806L0.2968,-0.0785L0.1972,-0.069L0.1476,-0.0605L0.0981,-0.048L0.0734,-0.04L0.0487,-0.031L0.0242,-0.02L0.012,-0.013L0,-0L0.0128,0.0085L0.0255,0.0125L0.0507,0.0184L0.0759,0.0224L0.101,0.0254L0.1512,0.0284L0.2012,0.0299L0.3012,0.0293L0.4011,0.0263L0.5009,0.0217L0.6007,0.0172L0.7005,0.0116L0.8003,0.0071L0.9002,0.004L0.9501,0.0025L1,0.002"
    />
</svg>
