
<svg 
  class="airfoil-goe633"
  fill="none"
  stroke="black" 
  stroke-width="1"
  style="overflow:visible"
  viewBox="0, -0.1072, 1, 0.1455"
  xmlns="http://www.w3.org/2000/svg">
    <title>GOE 633 AIRFOIL</title>
    <path 
      vector-effect="non-scaling-stroke"
      d="M1,-0L0.9498,-0.0079L0.8995,-0.0164L0.799,-0.0338L0.6983,-0.0542L0.5977,-0.075L0.4971,-0.0924L0.3968,-0.1038L0.2967,-0.1072L0.1969,-0.1016L0.1471,-0.0926L0.0976,-0.0785L0.0728,-0.0693L0.0483,-0.056L0.0238,-0.0377L0.0117,-0.0249L0,-0L0.0131,0.0201L0.0258,0.0252L0.051,0.0314L0.0761,0.0356L0.1012,0.0374L0.1512,0.0383L0.2011,0.0358L0.3009,0.0292L0.4008,0.0246L0.5007,0.0215L0.6006,0.0199L0.7006,0.0198L0.8006,0.0182L0.9004,0.0116L0.9502,0.006L1,-0"
    />
</svg>
