
<svg 
  class="airfoil-goe619"
  fill="none"
  stroke="black" 
  stroke-width="1"
  style="overflow:visible"
  viewBox="0, -0.1088, 1, 0.147"
  xmlns="http://www.w3.org/2000/svg">
    <title>GOE 619 AIRFOIL</title>
    <path 
      vector-effect="non-scaling-stroke"
      d="M1,-0L0.9493,-0.0147L0.8988,-0.0274L0.7977,-0.0509L0.6968,-0.0719L0.596,-0.0893L0.4954,-0.1023L0.3951,-0.1088L0.2951,-0.1088L0.1954,-0.1013L0.1458,-0.0931L0.0965,-0.0783L0.072,-0.0677L0.0475,-0.0546L0.0233,-0.0375L0.0115,-0.0225L0,-0L0.0134,0.0194L0.0261,0.0253L0.0515,0.0327L0.0766,0.036L0.1017,0.0374L0.1517,0.0382L0.2016,0.0359L0.3012,0.0274L0.4008,0.0185L0.5005,0.011L0.6003,0.007L0.7002,0.0035L0.8001,0.001L0.9,-0L0.95,-0.0003L1,-0"
    />
</svg>
