
<svg 
  class="airfoil-goe604"
  fill="none"
  stroke="black" 
  stroke-width="1"
  style="overflow:visible"
  viewBox="0, -0.1428, 1, 0.1816"
  xmlns="http://www.w3.org/2000/svg">
    <title>GOE 604 AIRFOIL</title>
    <path 
      vector-effect="non-scaling-stroke"
      d="M1,-0L0.9493,-0.0134L0.8986,-0.0274L0.7973,-0.0543L0.696,-0.0786L0.5949,-0.101L0.4939,-0.1214L0.3931,-0.1368L0.2928,-0.1428L0.1932,-0.1348L0.1438,-0.1223L0.0947,-0.1043L0.0704,-0.0906L0.0463,-0.0723L0.0225,-0.0491L0.0108,-0.0331L0,-0L0.0133,0.0154L0.0261,0.0217L0.0515,0.0289L0.0767,0.0336L0.1019,0.0369L0.152,0.0388L0.202,0.0388L0.3018,0.0353L0.4015,0.0302L0.5013,0.0252L0.601,0.0202L0.7008,0.0151L0.8005,0.0101L0.9003,0.005L0.9501,0.0025L1,-0"
    />
</svg>
