
<svg 
  class="airfoil-goe645"
  fill="none"
  stroke="black" 
  stroke-width="1"
  style="overflow:visible"
  viewBox="0, -0.1223, 1, 0.1624"
  xmlns="http://www.w3.org/2000/svg">
    <title>GOE 645 AIRFOIL</title>
    <path 
      vector-effect="non-scaling-stroke"
      d="M1,-0L0.9493,-0.0135L0.8988,-0.0256L0.7977,-0.0482L0.6966,-0.0698L0.5956,-0.0899L0.4949,-0.106L0.3943,-0.1176L0.2941,-0.1223L0.1944,-0.1154L0.1449,-0.106L0.0957,-0.0891L0.0712,-0.079L0.0469,-0.0633L0.0229,-0.0426L0.0111,-0.0285L0,-0L0.0133,0.0164L0.0261,0.0227L0.0515,0.0305L0.0767,0.0358L0.1019,0.0381L0.152,0.0401L0.2019,0.0387L0.3015,0.0299L0.401,0.0205L0.5006,0.0132L0.6004,0.0074L0.7007,0.0044L0.8001,0.0022L0.9,0.0009L0.95,0.0004L1,-0"
    />
</svg>
