
<svg 
  class="airfoil-goe654"
  fill="none"
  stroke="black" 
  stroke-width="1"
  style="overflow:visible"
  viewBox="0, -0.124, 1, 0.1485"
  xmlns="http://www.w3.org/2000/svg">
    <title>GOE 654 AIRFOIL</title>
    <path 
      vector-effect="non-scaling-stroke"
      d="M1,-0L0.95,-0.0135L0.9,-0.0255L0.8,-0.0485L0.7,-0.0705L0.6,-0.0905L0.5,-0.107L0.4,-0.12L0.3,-0.124L0.2,-0.118L0.15,-0.108L0.1,-0.0915L0.075,-0.0798L0.05,-0.0635L0.025,-0.0413L0.0125,-0.0264L0,-0L0.0125,0.0151L0.025,0.0182L0.05,0.0215L0.075,0.0233L0.1,0.024L0.15,0.0245L0.2,0.0235L0.3,0.021L0.4,0.016L0.5,0.011L0.6,0.0065L0.7,0.0035L0.8,0.0015L0.9,0.0005L0.95,-0L1,-0"
    />
</svg>
