
<svg 
  class="airfoil-goe677"
  fill="none"
  stroke="black" 
  stroke-width="1"
  style="overflow:visible"
  viewBox="0, -0.0826, 1, 0.120299995"
  xmlns="http://www.w3.org/2000/svg">
    <title>GOE 677 (= M 6) AIRFOIL</title>
    <path 
      vector-effect="non-scaling-stroke"
      d="M1,-0.004L0.95,-0.0114L0.9,-0.0183L0.8,-0.0331L0.7,-0.0474L0.6,-0.0617L0.5,-0.0745L0.4,-0.0808L0.3,-0.0826L0.2,-0.0754L0.15,-0.0678L0.1,-0.0567L0.075,-0.0492L0.05,-0.0406L0.025,-0.0276L0.0125,-0.018L0,-0L0.0125,0.017L0.025,0.0225L0.05,0.0274L0.075,0.0299L0.1,0.0318L0.15,0.0337L0.2,0.0356L0.3,0.0369L0.4,0.0377L0.5,0.037L0.6,0.0358L0.7,0.0321L0.8,0.0259L0.9,0.0147L0.95,0.0076L1,-0"
    />
</svg>
