
<svg 
  class="airfoil-goe648"
  fill="none"
  stroke="black" 
  stroke-width="1"
  style="overflow:visible"
  viewBox="0, -0.1147, 1, 0.15359999"
  xmlns="http://www.w3.org/2000/svg">
    <title>GOE 648 AIRFOIL</title>
    <path 
      vector-effect="non-scaling-stroke"
      d="M1,-0L0.9492,-0.0147L0.8985,-0.0279L0.7972,-0.0513L0.696,-0.0723L0.5951,-0.0892L0.4943,-0.1027L0.3939,-0.1117L0.2937,-0.1147L0.1939,-0.1112L0.1443,-0.1034L0.0951,-0.0897L0.0706,-0.0794L0.0464,-0.0655L0.0224,-0.0473L0.0107,-0.0331L0.0055,-0.0237L0,-0L0.0134,0.0158L0.0262,0.0221L0.0516,0.0292L0.0768,0.0328L0.1019,0.0354L0.1521,0.0381L0.2021,0.0389L0.302,0.0369L0.4018,0.0329L0.5015,0.0269L0.6011,0.0199L0.7007,0.0135L0.8004,0.007L0.9002,0.003L0.9501,0.0017L1,-0"
    />
</svg>
