
<svg 
  class="airfoil-goe627"
  fill="none"
  stroke="black" 
  stroke-width="1"
  style="overflow:visible"
  viewBox="0, -0.1195, 1, 0.1575"
  xmlns="http://www.w3.org/2000/svg">
    <title>GOE 627 AIRFOIL</title>
    <path 
      vector-effect="non-scaling-stroke"
      d="M1,-0L0.95,-0.016L0.9,-0.0315L0.8,-0.0575L0.7,-0.078L0.6,-0.0945L0.5,-0.1075L0.4,-0.116L0.3,-0.1195L0.2,-0.1155L0.15,-0.1085L0.1,-0.0945L0.075,-0.084L0.05,-0.0705L0.025,-0.05L0.0125,-0.035L0,-0L0.0125,0.0125L0.025,0.017L0.05,0.023L0.075,0.027L0.1,0.0305L0.15,0.0345L0.2,0.037L0.3,0.038L0.4,0.037L0.5,0.0345L0.6,0.0305L0.7,0.025L0.8,0.018L0.9,0.0095L0.95,0.005L1,-0"
    />
</svg>
