
<svg 
  class="airfoil-goe615"
  fill="none"
  stroke="black" 
  stroke-width="1"
  style="overflow:visible"
  viewBox="0, -0.1219, 1, 0.1447"
  xmlns="http://www.w3.org/2000/svg">
    <title>GOE 615 AIRFOIL</title>
    <path 
      vector-effect="non-scaling-stroke"
      d="M1,-0L0.9496,-0.0152L0.8992,-0.0288L0.7986,-0.0547L0.6979,-0.078L0.5974,-0.0973L0.497,-0.1117L0.3968,-0.1215L0.2968,-0.1219L0.197,-0.1137L0.1472,-0.1044L0.0976,-0.0891L0.0729,-0.0779L0.0483,-0.0638L0.0238,-0.0461L0.0117,-0.0298L0,-0L0.0129,0.0147L0.0255,0.0188L0.0506,0.0212L0.0756,0.0225L0.1006,0.0228L0.1506,0.0225L0.2005,0.0202L0.3004,0.0145L0.4002,0.0094L0.5001,0.0052L0.6001,0.0021L0.7,-0L0.8,-0.0002L0.9,-0.0003L0.95,-0.0002L1,-0"
    />
</svg>
