
<svg 
  class="airfoil-goe613"
  fill="none"
  stroke="black" 
  stroke-width="1"
  style="overflow:visible"
  viewBox="0, -0.0922, 1, 0.1065"
  xmlns="http://www.w3.org/2000/svg">
    <title>GOE 613 AIRFOIL</title>
    <path 
      vector-effect="non-scaling-stroke"
      d="M1,-0L0.95,-0.0132L0.9,-0.0245L0.8,-0.0454L0.7,-0.0624L0.6,-0.0763L0.5,-0.0852L0.4,-0.0912L0.3,-0.0922L0.2,-0.0866L0.15,-0.0793L0.1,-0.0666L0.075,-0.0577L0.05,-0.0458L0.025,-0.0294L0.0125,-0.0182L0,-0L0.0125,0.0118L0.025,0.0141L0.05,0.0142L0.075,0.0143L0.1,0.0139L0.15,0.0132L0.2,0.0124L0.3,0.0109L0.4,0.0093L0.5,0.0077L0.6,0.0062L0.7,0.0047L0.8,0.0031L0.9,0.0016L0.95,0.0008L1,-0"
    />
</svg>
