
<svg 
  class="airfoil-goe611"
  fill="none"
  stroke="black" 
  stroke-width="1"
  style="overflow:visible"
  viewBox="0, -0.1224, 1, 0.1303"
  xmlns="http://www.w3.org/2000/svg">
    <title>GOE 611 AIRFOIL</title>
    <path 
      vector-effect="non-scaling-stroke"
      d="M1,-0.0033L0.8998,-0.0333L0.7997,-0.0583L0.6996,-0.0818L0.5995,-0.1009L0.4995,-0.1144L0.3994,-0.1224L0.2994,-0.1224L0.1995,-0.1115L0.1495,-0.1002L0.0996,-0.084L0.0746,-0.0743L0.0497,-0.0597L0.0248,-0.0396L0.0124,-0.0251L0,-0L0.0125,0.0074L0.025,0.0079L0.05,0.0078L0.075,0.0076L0.1,0.0075L0.15,0.0073L0.2,0.0071L0.3,0.0066L0.4,0.0061L0.5,0.0056L0.6,0.0052L0.7,0.0047L0.8,0.0042L0.9,0.0037L1,0.0033"
    />
</svg>
