
<svg 
  class="airfoil-goe692"
  fill="none"
  stroke="black" 
  stroke-width="1"
  style="overflow:visible"
  viewBox="0, -0.1305, 1, 0.17040001"
  xmlns="http://www.w3.org/2000/svg">
    <title>GOE 692 AIRFOIL</title>
    <path 
      vector-effect="non-scaling-stroke"
      d="M1,-0.005L0.95,-0.0226L0.9,-0.0382L0.8,-0.0665L0.7,-0.0918L0.6,-0.111L0.5,-0.1248L0.4,-0.1305L0.3,-0.1277L0.2,-0.1145L0.15,-0.1031L0.1,-0.0868L0.075,-0.0761L0.05,-0.0614L0.025,-0.0417L0.0125,-0.0281L0,-0L0.0125,0.0204L0.025,0.0273L0.05,0.0346L0.075,0.0379L0.1,0.0397L0.15,0.0399L0.2,0.038L0.3,0.0333L0.4,0.0285L0.5,0.0237L0.6,0.019L0.7,0.0143L0.8,0.0095L0.9,0.0047L0.95,0.0024L1,-0"
    />
</svg>
