
<svg 
  class="airfoil-goe650"
  fill="none"
  stroke="black" 
  stroke-width="1"
  style="overflow:visible"
  viewBox="0, -0.1029, 1, 0.1452"
  xmlns="http://www.w3.org/2000/svg">
    <title>GOE 650 AIRFOIL</title>
    <path 
      vector-effect="non-scaling-stroke"
      d="M1,-0L0.9492,-0.0154L0.8985,-0.0289L0.7973,-0.0528L0.6963,-0.0727L0.5955,-0.0886L0.4951,-0.098L0.3948,-0.1029L0.2949,-0.1014L0.1953,-0.0934L0.1457,-0.0854L0.0963,-0.0729L0.0718,-0.0641L0.0474,-0.0524L0.0232,-0.0357L0.0112,-0.0251L0,-0L0.0135,0.0193L0.0263,0.0262L0.0518,0.0349L0.077,0.0396L0.1021,0.0418L0.1521,0.0423L0.202,0.0403L0.3016,0.0318L0.401,0.0203L0.5005,0.0092L0.6,0.0007L0.6998,-0.0043L0.7997,-0.0049L0.8999,-0.0019L0.95,-0.0005L1,-0"
    />
</svg>
