
<svg 
  class="airfoil-goe63"
  fill="none"
  stroke="black" 
  stroke-width="1"
  style="overflow:visible"
  viewBox="0, -0.1062, 1, 0.1205"
  xmlns="http://www.w3.org/2000/svg">
    <title>GOE 63 AIRFOIL</title>
    <path 
      vector-effect="non-scaling-stroke"
      d="M1,-0.0035L0.9498,-0.015L0.8997,-0.0258L0.7995,-0.0456L0.6992,-0.0655L0.599,-0.0834L0.4989,-0.098L0.3988,-0.1057L0.2988,-0.1062L0.1989,-0.0999L0.1489,-0.0918L0.0991,-0.079L0.0742,-0.0699L0.0493,-0.0577L0.0246,-0.0395L0.0122,-0.0266L0,-0L0.0127,0.0143L0.0251,0.0135L0.0501,0.0077L0.075,0.0017L0.1,-0.0037L0.1499,-0.0113L0.1998,-0.0174L0.2997,-0.0244L0.3997,-0.0283L0.4997,-0.0273L0.5997,-0.0241L0.6998,-0.0179L0.7999,-0.0107L0.9,-0.0036L0.95,-0.0008L1,0.0035"
    />
</svg>
