
<svg 
  class="airfoil-goe629"
  fill="none"
  stroke="black" 
  stroke-width="1"
  style="overflow:visible"
  viewBox="0, -0.0937, 1, 0.1415"
  xmlns="http://www.w3.org/2000/svg">
    <title>GOE 629 AIRFOIL</title>
    <path 
      vector-effect="non-scaling-stroke"
      d="M1,-0L0.9492,-0.0125L0.8985,-0.0244L0.7972,-0.0458L0.6962,-0.0638L0.5953,-0.0777L0.4947,-0.0877L0.3944,-0.0937L0.2944,-0.0927L0.1949,-0.0847L0.1454,-0.0762L0.0962,-0.0643L0.0716,-0.0563L0.0472,-0.0463L0.0231,-0.0324L0.0111,-0.0232L0,-0L0.0137,0.0197L0.0267,0.0284L0.0523,0.0384L0.0776,0.0433L0.1028,0.0463L0.1529,0.0478L0.2028,0.0473L0.3026,0.0433L0.4023,0.0379L0.5019,0.0319L0.6016,0.0259L0.7012,0.0199L0.8008,0.0135L0.9004,0.007L0.9502,0.0035L1,-0"
    />
</svg>
