
<svg 
  class="airfoil-goe683"
  fill="none"
  stroke="black" 
  stroke-width="1"
  style="overflow:visible"
  viewBox="0, -0.129, 1, 0.199"
  xmlns="http://www.w3.org/2000/svg">
    <title>GOE 683 AIRFOIL</title>
    <path 
      vector-effect="non-scaling-stroke"
      d="M1,-0L0.95,-0.012L0.9,-0.023L0.8,-0.046L0.7,-0.07L0.6,-0.092L0.5,-0.111L0.4,-0.124L0.3,-0.129L0.2,-0.1205L0.15,-0.109L0.1,-0.091L0.075,-0.08L0.05,-0.065L0.025,-0.045L0.0125,-0.03L0,-0L0.0125,0.025L0.025,0.035L0.05,0.0465L0.075,0.0535L0.1,0.0595L0.15,0.066L0.2,0.069L0.3,0.07L0.4,0.068L0.5,0.0635L0.6,0.0575L0.7,0.05L0.8,0.041L0.9,0.027L0.95,0.016L1,-0"
    />
</svg>
