
<svg 
  class="airfoil-goe610b"
  fill="none"
  stroke="black" 
  stroke-width="1"
  style="overflow:visible"
  viewBox="0, -0.092, 1, 0.1019"
  xmlns="http://www.w3.org/2000/svg">
    <title>GOE 610 B AIRFOIL</title>
    <path 
      vector-effect="non-scaling-stroke"
      d="M1,-0L0.9499,-0.0115L0.8998,-0.022L0.7996,-0.041L0.6994,-0.06L0.5993,-0.0745L0.4992,-0.0855L0.3991,-0.092L0.2991,-0.0888L0.1992,-0.0801L0.1493,-0.0715L0.0994,-0.058L0.0745,-0.0507L0.0496,-0.0405L0.0148,-0.0202L0,-0L0.0151,0.0099L0.0501,0.0085L0.0751,0.0063L0.1,0.0028L0.15,-0.0031L0.1999,-0.007L0.2999,-0.0122L0.3999,-0.014L0.4999,-0.014L0.5999,-0.012L0.6999,-0.009L0.8,-0.0045L0.9,-0L0.95,0.0005L1,-0"
    />
</svg>
