
<svg 
  class="airfoil-goe676"
  fill="none"
  stroke="black" 
  stroke-width="1"
  style="overflow:visible"
  viewBox="0, -0.0799, 1, 0.118999995"
  xmlns="http://www.w3.org/2000/svg">
    <title>GOE 676 (= M 12) AIRFOIL</title>
    <path 
      vector-effect="non-scaling-stroke"
      d="M1,-0.003L0.95,-0.0109L0.9,-0.0193L0.8,-0.0352L0.7,-0.0505L0.6,-0.0629L0.5,-0.0733L0.4,-0.0791L0.3,-0.0799L0.2,-0.0738L0.15,-0.0662L0.1,-0.0551L0.075,-0.0486L0.05,-0.0396L0.025,-0.027L0.0125,-0.0186L0,-0L0.0125,0.016L0.025,0.0215L0.05,0.0269L0.075,0.0299L0.1,0.0323L0.15,0.0348L0.2,0.0367L0.3,0.0391L0.4,0.0389L0.5,0.0367L0.6,0.0336L0.7,0.0284L0.8,0.0213L0.9,0.0111L0.95,0.0056L1,-0"
    />
</svg>
