
<svg 
  class="airfoil-goe655"
  fill="none"
  stroke="black" 
  stroke-width="1"
  style="overflow:visible"
  viewBox="0, -0.1125, 1, 0.1432"
  xmlns="http://www.w3.org/2000/svg">
    <title>GOE 655 AIRFOIL</title>
    <path 
      vector-effect="non-scaling-stroke"
      d="M1,-0L0.95,-0.0131L0.9,-0.0257L0.8,-0.0488L0.7,-0.0684L0.6,-0.0861L0.5,-0.0997L0.4,-0.1089L0.3,-0.1125L0.2,-0.1077L0.15,-0.0988L0.1,-0.0853L0.075,-0.0749L0.05,-0.0604L0.025,-0.0405L0.0125,-0.027L0,-0L0.0125,0.014L0.025,0.019L0.05,0.0241L0.075,0.0271L0.1,0.0291L0.15,0.0307L0.2,0.0303L0.3,0.0265L0.4,0.0211L0.5,0.0158L0.6,0.0114L0.7,0.0076L0.8,0.0042L0.9,0.0019L0.95,0.0009L1,-0"
    />
</svg>
