
<svg 
  class="airfoil-goe621"
  fill="none"
  stroke="black" 
  stroke-width="1"
  style="overflow:visible"
  viewBox="0, -0.1209, 1, 0.1585"
  xmlns="http://www.w3.org/2000/svg">
    <title>GOE 621 AIRFOIL</title>
    <path 
      vector-effect="non-scaling-stroke"
      d="M1,-0L0.9494,-0.0132L0.8987,-0.0284L0.7974,-0.0568L0.6963,-0.0802L0.5954,-0.1001L0.4948,-0.1145L0.3945,-0.1209L0.2946,-0.1199L0.1949,-0.1114L0.1454,-0.1016L0.0961,-0.0864L0.0715,-0.0758L0.0472,-0.0611L0.0232,-0.0406L0.0113,-0.0265L0,-0L0.0134,0.0204L0.0262,0.0263L0.0515,0.0322L0.0766,0.0355L0.1017,0.0369L0.1517,0.0376L0.2016,0.0363L0.3014,0.0298L0.401,0.0213L0.5006,0.0137L0.6004,0.0087L0.7003,0.0056L0.8001,0.0031L0.9001,0.0025L0.9501,0.0013L1,-0"
    />
</svg>
