
<svg 
  class="airfoil-goe623"
  fill="none"
  stroke="black" 
  stroke-width="1"
  style="overflow:visible"
  viewBox="0, -0.0975, 1, 0.12369999"
  xmlns="http://www.w3.org/2000/svg">
    <title>GOE 623 AIRFOIL</title>
    <path 
      vector-effect="non-scaling-stroke"
      d="M1,-0.003L0.95,-0.0144L0.9,-0.0247L0.8,-0.045L0.7,-0.0637L0.6,-0.0785L0.5,-0.0903L0.4,-0.0975L0.3,-0.0972L0.2,-0.0895L0.15,-0.0819L0.1,-0.0698L0.075,-0.0604L0.05,-0.0481L0.025,-0.0328L0.0125,-0.0224L0,-0L0.0125,0.0126L0.025,0.0167L0.05,0.0219L0.075,0.0246L0.1,0.0262L0.15,0.0261L0.2,0.0255L0.3,0.0227L0.4,0.0195L0.5,0.0162L0.6,0.013L0.7,0.0098L0.8,0.0065L0.9,0.0033L0.95,0.0016L1,-0"
    />
</svg>
