
<svg 
  class="airfoil-goe652"
  fill="none"
  stroke="black" 
  stroke-width="1"
  style="overflow:visible"
  viewBox="0, -0.1497, 1, 0.2024"
  xmlns="http://www.w3.org/2000/svg">
    <title>GOE 652 AIRFOIL</title>
    <path 
      vector-effect="non-scaling-stroke"
      d="M1,-0L0.95,-0.0206L0.9,-0.0387L0.8,-0.0719L0.7,-0.1016L0.6,-0.1253L0.5,-0.1415L0.4,-0.1497L0.3,-0.1479L0.2,-0.1361L0.15,-0.1227L0.1,-0.1043L0.075,-0.0913L0.05,-0.0754L0.025,-0.0534L0.0125,-0.0377L0,-0L0.0125,0.0303L0.025,0.0415L0.05,0.0501L0.075,0.0527L0.1,0.0522L0.15,0.0458L0.2,0.0344L0.3,0.0061L0.4,-0.0222L0.5,-0.0435L0.6,-0.0563L0.7,-0.0596L0.8,-0.0514L0.9,-0.0312L0.95,-0.0166L1,-0"
    />
</svg>
