
<svg 
  class="airfoil-goe600"
  fill="none"
  stroke="black" 
  stroke-width="1"
  style="overflow:visible"
  viewBox="0, -0.0825, 1, 0.13190001"
  xmlns="http://www.w3.org/2000/svg">
    <title>GOE 600 AIRFOIL</title>
    <path 
      vector-effect="non-scaling-stroke"
      d="M1,-0.0025L0.9491,-0.0116L0.8984,-0.0206L0.797,-0.0393L0.6957,-0.0554L0.5946,-0.0696L0.4939,-0.0793L0.3936,-0.0825L0.2937,-0.0813L0.1943,-0.0736L0.1449,-0.0662L0.0957,-0.0554L0.0713,-0.048L0.047,-0.0391L0.023,-0.0263L0.0111,-0.0179L0,-0L0.0137,0.0154L0.0267,0.0219L0.0523,0.0299L0.0778,0.036L0.1031,0.0395L0.1534,0.0441L0.2037,0.0477L0.3038,0.0494L0.4036,0.0467L0.5032,0.041L0.6026,0.0333L0.702,0.0256L0.8014,0.0179L0.9008,0.0102L0.9505,0.0063L1,0.0025"
    />
</svg>
