
<svg 
  class="airfoil-goe601"
  fill="none"
  stroke="black" 
  stroke-width="1"
  style="overflow:visible"
  viewBox="0, -0.1025, 1, 0.1629"
  xmlns="http://www.w3.org/2000/svg">
    <title>GOE 601 AIRFOIL</title>
    <path 
      vector-effect="non-scaling-stroke"
      d="M1,-0L0.9486,-0.0139L0.8972,-0.0282L0.7949,-0.0515L0.6927,-0.0728L0.5911,-0.0891L0.4901,-0.099L0.3898,-0.1025L0.2901,-0.0995L0.1909,-0.0911L0.1418,-0.0822L0.0932,-0.0678L0.0692,-0.0579L0.0454,-0.046L0.0219,-0.0312L0.0103,-0.022L0,-0L0.0146,0.021L0.0279,0.0282L0.0538,0.0381L0.0795,0.0446L0.1049,0.0485L0.1556,0.0554L0.206,0.0594L0.3061,0.0604L0.4057,0.0569L0.5049,0.0485L0.604,0.0396L0.703,0.0297L0.802,0.0198L0.901,0.0099L0.9505,0.0049L1,-0"
    />
</svg>
