
<svg 
  class="airfoil-goe628"
  fill="none"
  stroke="black" 
  stroke-width="1"
  style="overflow:visible"
  viewBox="0, -0.1345, 1, 0.1755"
  xmlns="http://www.w3.org/2000/svg">
    <title>GOE 628 AIRFOIL</title>
    <path 
      vector-effect="non-scaling-stroke"
      d="M1,-0L0.9493,-0.015L0.8985,-0.0295L0.7972,-0.057L0.696,-0.0809L0.5949,-0.1029L0.494,-0.1204L0.3935,-0.1315L0.2933,-0.1345L0.1937,-0.1271L0.1443,-0.1161L0.0951,-0.0982L0.0707,-0.086L0.0465,-0.0703L0.0226,-0.0491L0.0108,-0.034L0,-0L0.0133,0.0168L0.0262,0.0247L0.0516,0.0314L0.0768,0.0362L0.1019,0.0389L0.152,0.041L0.202,0.0395L0.3015,0.0301L0.4009,0.0182L0.5004,0.0087L0.6001,0.0028L0.7,-0.0007L0.8,-0.0011L0.9,-0.001L0.95,-0.0005L1,-0"
    />
</svg>
