
<svg 
  class="airfoil-goe617"
  fill="none"
  stroke="black" 
  stroke-width="1"
  style="overflow:visible"
  viewBox="0, -0.091, 1, 0.1385"
  xmlns="http://www.w3.org/2000/svg">
    <title>GOE 617 AIRFOIL</title>
    <path 
      vector-effect="non-scaling-stroke"
      d="M1,-0L0.95,-0.011L0.9,-0.021L0.8,-0.0405L0.7,-0.058L0.6,-0.072L0.5,-0.083L0.4,-0.09L0.3,-0.091L0.2,-0.084L0.15,-0.076L0.1,-0.0655L0.075,-0.058L0.05,-0.0485L0.025,-0.0345L0.0125,-0.0235L0,-0L0.0125,0.0165L0.025,0.023L0.05,0.0305L0.075,0.0345L0.1,0.038L0.15,0.0425L0.2,0.0445L0.3,0.0475L0.4,0.0465L0.5,0.0435L0.6,0.039L0.7,0.033L0.8,0.025L0.9,0.014L0.95,0.0075L1,-0"
    />
</svg>
