
<svg 
  class="airfoil-goe647"
  fill="none"
  stroke="black" 
  stroke-width="1"
  style="overflow:visible"
  viewBox="0, -0.1331, 1, 0.16860001"
  xmlns="http://www.w3.org/2000/svg">
    <title>GOE 647 AIRFOIL</title>
    <path 
      vector-effect="non-scaling-stroke"
      d="M1,-0L0.9494,-0.0148L0.8988,-0.0287L0.7976,-0.0548L0.6966,-0.079L0.5957,-0.0996L0.495,-0.1168L0.3945,-0.1285L0.2943,-0.1331L0.1945,-0.1279L0.1449,-0.1177L0.0957,-0.0991L0.0713,-0.0861L0.047,-0.0695L0.023,-0.047L0.0111,-0.0315L0,-0L0.0132,0.0164L0.0259,0.0219L0.0512,0.0278L0.0763,0.0312L0.1014,0.0331L0.1515,0.0355L0.2015,0.0343L0.3012,0.0286L0.4009,0.0213L0.5006,0.014L0.6004,0.0092L0.7002,0.0054L0.8001,0.0031L0.9001,0.0013L0.95,0.0012L1,-0"
    />
</svg>
