
<svg 
  class="airfoil-goe681"
  fill="none"
  stroke="black" 
  stroke-width="1"
  style="overflow:visible"
  viewBox="0, -0.1258, 1, 0.17469999"
  xmlns="http://www.w3.org/2000/svg">
    <title>GOE 681 AIRFOIL</title>
    <path 
      vector-effect="non-scaling-stroke"
      d="M1,-0L0.9491,-0.0148L0.8982,-0.0286L0.7966,-0.0543L0.6951,-0.0784L0.5938,-0.0991L0.4928,-0.1148L0.3923,-0.124L0.2921,-0.1258L0.1926,-0.119L0.1432,-0.1094L0.0943,-0.0919L0.07,-0.0794L0.046,-0.0639L0.0223,-0.0429L0.0106,-0.0302L0,-0L0.0141,0.0251L0.027,0.0313L0.0525,0.0392L0.0777,0.0436L0.1029,0.0466L0.1531,0.0489L0.203,0.0473L0.3026,0.0421L0.4023,0.0364L0.5019,0.0301L0.6015,0.0244L0.7012,0.0187L0.8008,0.0125L0.9004,0.0062L0.9502,0.0031L1,-0"
    />
</svg>
