
<svg 
  class="airfoil-goe624"
  fill="none"
  stroke="black" 
  stroke-width="1"
  style="overflow:visible"
  viewBox="0, -0.132, 1, 0.1645"
  xmlns="http://www.w3.org/2000/svg">
    <title>GOE 624 AIRFOIL</title>
    <path 
      vector-effect="non-scaling-stroke"
      d="M1,-0.005L0.95,-0.018L0.9,-0.0315L0.8,-0.058L0.7,-0.083L0.6,-0.104L0.5,-0.1205L0.4,-0.13L0.3,-0.132L0.2,-0.121L0.15,-0.1095L0.1,-0.0925L0.075,-0.0805L0.05,-0.066L0.025,-0.046L0.0125,-0.032L0,-0L0.0125,0.017L0.025,0.0225L0.05,0.0285L0.075,0.031L0.1,0.032L0.15,0.0325L0.2,0.0315L0.3,0.028L0.4,0.024L0.5,0.02L0.6,0.016L0.7,0.012L0.8,0.008L0.9,0.004L0.95,0.002L1,-0"
    />
</svg>
