
<svg 
  class="airfoil-goe693"
  fill="none"
  stroke="black" 
  stroke-width="1"
  style="overflow:visible"
  viewBox="0, -0.0963, 1, 0.1268"
  xmlns="http://www.w3.org/2000/svg">
    <title>GOE 693 AIRFOIL</title>
    <path 
      vector-effect="non-scaling-stroke"
      d="M1,-0.005L0.95,-0.0168L0.9,-0.0286L0.8,-0.0491L0.7,-0.0667L0.6,-0.0817L0.5,-0.0922L0.4,-0.0963L0.3,-0.0944L0.2,-0.0855L0.15,-0.0762L0.1,-0.0645L0.075,-0.0556L0.05,-0.0452L0.025,-0.0304L0.0125,-0.0204L0,-0L0.0125,0.0161L0.025,0.0216L0.05,0.0273L0.075,0.0299L0.1,0.0305L0.15,0.0303L0.2,0.0291L0.3,0.0257L0.4,0.0222L0.5,0.0188L0.6,0.0153L0.7,0.0119L0.8,0.0084L0.9,0.0049L0.95,0.0027L1,-0"
    />
</svg>
