
<svg 
  class="airfoil-goe796"
  fill="none"
  stroke="black" 
  stroke-width="1"
  style="overflow:visible"
  viewBox="0, -0.0961, 1, 0.12650001"
  xmlns="http://www.w3.org/2000/svg">
    <title>GOE 796 AIRFOIL</title>
    <path 
      vector-effect="non-scaling-stroke"
      d="M1,-0.004L0.95,-0.0158L0.9,-0.0276L0.8,-0.049L0.7,-0.0666L0.6,-0.0816L0.5,-0.092L0.4,-0.0961L0.3,-0.0942L0.2,-0.0856L0.15,-0.0763L0.1,-0.0642L0.075,-0.0558L0.05,-0.0452L0.025,-0.0309L0.0125,-0.0206L0.008,-0.0161L0.006,-0.0135L0.004,-0.0109L0.002,-0.0076L0,-0L0.002,0.0059L0.004,0.0094L0.006,0.0118L0.008,0.0135L0.0125,0.0161L0.025,0.0216L0.05,0.0271L0.075,0.0299L0.1,0.0304L0.15,0.0303L0.2,0.0292L0.3,0.0258L0.4,0.0224L0.5,0.019L0.6,0.0156L0.7,0.0122L0.8,0.0088L0.9,0.0054L0.95,0.0029L1,-0"
    />
</svg>
