
<svg 
  class="airfoil-goe701"
  fill="none"
  stroke="black" 
  stroke-width="1"
  style="overflow:visible"
  viewBox="0, -0.109, 1, 0.1399"
  xmlns="http://www.w3.org/2000/svg">
    <title>GOE 701 AIRFOIL</title>
    <path 
      vector-effect="non-scaling-stroke"
      d="M1,-0L0.9495,-0.0148L0.899,-0.0291L0.7982,-0.0536L0.6975,-0.0747L0.5969,-0.0918L0.4965,-0.1034L0.3963,-0.109L0.2963,-0.1076L0.1967,-0.0982L0.1469,-0.0897L0.0974,-0.0758L0.0728,-0.066L0.0482,-0.0531L0.0238,-0.0348L0.0117,-0.0239L0,-0L0.0131,0.0166L0.0258,0.0231L0.051,0.0288L0.076,0.0309L0.101,0.0306L0.1509,0.0279L0.2008,0.0237L0.3006,0.0168L0.4004,0.0114L0.5003,0.0085L0.6002,0.0066L0.7002,0.0062L0.8002,0.0053L0.9001,0.0034L0.9501,0.0017L1,-0"
    />
</svg>
