
<svg 
  class="airfoil-goe775"
  fill="none"
  stroke="black" 
  stroke-width="1"
  style="overflow:visible"
  viewBox="0, -0.1057, 1, 0.21000001"
  xmlns="http://www.w3.org/2000/svg">
    <title>GOE 775 AIRFOIL</title>
    <path 
      vector-effect="non-scaling-stroke"
      d="M1,-0.0044L0.95,-0.0163L0.9,-0.0273L0.8,-0.0484L0.7,-0.0657L0.6,-0.0811L0.5,-0.0938L0.4,-0.1024L0.3,-0.1057L0.2,-0.1007L0.15,-0.0938L0.1,-0.082L0.075,-0.0737L0.05,-0.0623L0.025,-0.0459L0.0125,-0.0332L0,-0L0.0125,0.0332L0.025,0.0457L0.05,0.0621L0.075,0.0733L0.1,0.0816L0.15,0.0932L0.2,0.0999L0.3,0.1043L0.4,0.1006L0.5,0.0916L0.6,0.0785L0.7,0.0627L0.8,0.0448L0.9,0.0233L0.95,0.0121L1,-0"
    />
</svg>
