
<svg 
  class="airfoil-goe741"
  fill="none"
  stroke="black" 
  stroke-width="1"
  style="overflow:visible"
  viewBox="0, -0.1248, 1, 0.1595"
  xmlns="http://www.w3.org/2000/svg">
    <title>GOE 741 AIRFOIL</title>
    <path 
      vector-effect="non-scaling-stroke"
      d="M1,-0L0.95,-0.0034L0.9,-0.0092L0.8,-0.0268L0.7,-0.0499L0.6,-0.0751L0.5,-0.0983L0.4,-0.1171L0.3,-0.1248L0.2,-0.118L0.15,-0.1081L0.1,-0.0909L0.075,-0.0794L0.05,-0.0639L0.025,-0.0445L0.0125,-0.0307L0,-0L0.0125,0.0213L0.025,0.0267L0.05,0.0318L0.075,0.0341L0.1,0.0347L0.15,0.0347L0.2,0.0323L0.3,0.0284L0.4,0.0271L0.5,0.0278L0.6,0.0264L0.7,0.0246L0.8,0.0224L0.9,0.0138L0.95,0.0074L1,-0"
    />
</svg>
