
<svg 
  class="airfoil-goe744"
  fill="none"
  stroke="black" 
  stroke-width="1"
  style="overflow:visible"
  viewBox="0, -0.1418, 1, 0.1635"
  xmlns="http://www.w3.org/2000/svg">
    <title>GOE 744 AIRFOIL</title>
    <path 
      vector-effect="non-scaling-stroke"
      d="M1,-0L0.95,-0.0022L0.9,-0.0077L0.8,-0.0263L0.7,-0.052L0.6,-0.0809L0.5,-0.1084L0.4,-0.1313L0.3,-0.1418L0.2,-0.136L0.15,-0.1249L0.1,-0.1053L0.075,-0.0913L0.05,-0.0736L0.025,-0.0508L0.0125,-0.0346L0,-0L0.0125,0.0189L0.025,0.0217L0.05,0.0214L0.075,0.0207L0.1,0.0189L0.15,0.0146L0.2,0.0088L0.3,0.0015L0.4,-0.0011L0.5,0.0018L0.6,0.0074L0.7,0.0118L0.8,0.0132L0.9,0.0106L0.95,0.0066L1,-0"
    />
</svg>
