
<svg 
  class="airfoil-goe723"
  fill="none"
  stroke="black" 
  stroke-width="1"
  style="overflow:visible"
  viewBox="0, -0.0983, 1, 0.12550001"
  xmlns="http://www.w3.org/2000/svg">
    <title>GOE 723 AIRFOIL</title>
    <path 
      vector-effect="non-scaling-stroke"
      d="M1,-0L0.9496,-0.0131L0.8993,-0.0236L0.7987,-0.0438L0.6982,-0.0624L0.5978,-0.079L0.4974,-0.0917L0.3972,-0.0983L0.2972,-0.097L0.1975,-0.0866L0.1478,-0.0762L0.0982,-0.0618L0.0735,-0.0536L0.0488,-0.0434L0.0241,-0.0312L0.0119,-0.0218L0,-0L0.013,0.0171L0.0256,0.0203L0.0507,0.0236L0.0757,0.0258L0.1008,0.0271L0.1508,0.0272L0.2007,0.0253L0.3005,0.0184L0.4003,0.0096L0.5001,0.0018L0.5999,-0.0041L0.6998,-0.0064L0.7998,-0.0058L0.9,-0.0016L0.95,0.0009L1,-0"
    />
</svg>
