
<svg 
  class="airfoil-goe735"
  fill="none"
  stroke="black" 
  stroke-width="1"
  style="overflow:visible"
  viewBox="0, -0.1443, 1, 0.2013"
  xmlns="http://www.w3.org/2000/svg">
    <title>GOE 735 AIRFOIL</title>
    <path 
      vector-effect="non-scaling-stroke"
      d="M1,-0L0.95,-0.0064L0.9,-0.0158L0.8,-0.0388L0.7,-0.0658L0.6,-0.093L0.5,-0.1163L0.4,-0.1345L0.3,-0.1443L0.2,-0.1387L0.15,-0.1271L0.1,-0.1077L0.075,-0.0938L0.05,-0.0764L0.025,-0.0524L0.0125,-0.0357L0,-0L0.0125,0.0213L0.025,0.0306L0.05,0.0419L0.075,0.0482L0.1,0.0518L0.15,0.0554L0.2,0.057L0.3,0.0567L0.4,0.054L0.5,0.0503L0.6,0.0445L0.7,0.0375L0.8,0.0282L0.9,0.0162L0.95,0.0089L1,-0"
    />
</svg>
