
<svg 
  class="airfoil-goe702"
  fill="none"
  stroke="black" 
  stroke-width="1"
  style="overflow:visible"
  viewBox="0, -0.1326, 1, 0.1758"
  xmlns="http://www.w3.org/2000/svg">
    <title>GOE 702 AIRFOIL</title>
    <path 
      vector-effect="non-scaling-stroke"
      d="M1,-0L0.9496,-0.0084L0.8991,-0.0168L0.7979,-0.0406L0.6966,-0.0664L0.5953,-0.0917L0.4942,-0.1129L0.3935,-0.1263L0.2932,-0.1326L0.1936,-0.125L0.1442,-0.1129L0.0952,-0.0939L0.0708,-0.0812L0.0466,-0.0659L0.0226,-0.0457L0.0109,-0.0311L0,-0L0.0137,0.0228L0.0266,0.0306L0.052,0.0383L0.0772,0.042L0.1022,0.0432L0.1522,0.0432L0.2021,0.0411L0.3017,0.0325L0.4012,0.0233L0.5009,0.0167L0.6007,0.0131L0.7005,0.0104L0.8005,0.0088L0.9003,0.0051L0.9501,0.0026L1,-0"
    />
</svg>
