
<svg 
  class="airfoil-goe769"
  fill="none"
  stroke="black" 
  stroke-width="1"
  style="overflow:visible"
  viewBox="0, -0.1154, 1, 0.1458"
  xmlns="http://www.w3.org/2000/svg">
    <title>GOE 769 AIRFOIL</title>
    <path 
      vector-effect="non-scaling-stroke"
      d="M1,-0L0.95,-0.0093L0.9,-0.0185L0.8,-0.0369L0.7,-0.0554L0.6,-0.0741L0.5,-0.0917L0.4,-0.1053L0.3,-0.114L0.25,-0.1154L0.2,-0.1137L0.15,-0.1084L0.1,-0.0968L0.05,-0.0727L0.025,-0.0507L0.0125,-0.0348L0,-0L0.0125,0.0219L0.025,0.0268L0.05,0.0304L0.1,0.0302L0.15,0.0275L0.2,0.0245L0.25,0.0212L0.3,0.0181L0.4,0.0132L0.5,0.0093L0.6,0.0064L0.7,0.0043L0.8,0.0028L0.9,0.0014L0.95,0.0007L1,-0"
    />
</svg>
