
<svg 
  class="airfoil-goe711"
  fill="none"
  stroke="black" 
  stroke-width="1"
  style="overflow:visible"
  viewBox="0, -0.1394, 1, 0.15210001"
  xmlns="http://www.w3.org/2000/svg">
    <title>GOE 711 AIRFOIL</title>
    <path 
      vector-effect="non-scaling-stroke"
      d="M1,-0.014L0.95,-0.0318L0.9,-0.0492L0.8,-0.0779L0.7,-0.1001L0.5,-0.1305L0.4,-0.1382L0.3,-0.1394L0.2,-0.1301L0.15,-0.1179L0.1,-0.0978L0.075,-0.0835L0.05,-0.0627L0.025,-0.0418L0.0125,-0.0272L0,-0L0.0125,0.0108L0.025,0.0127L0.05,0.0124L0.075,0.012L0.1,0.0117L0.15,0.011L0.2,0.0104L0.3,0.0091L0.4,0.0078L0.5,0.0065L0.7,0.0039L0.8,0.0026L0.9,0.0013L0.95,0.0007L1,-0"
    />
</svg>
