
<svg 
  class="airfoil-goe79"
  fill="none"
  stroke="black" 
  stroke-width="1"
  style="overflow:visible"
  viewBox="0, -0.0893, 1, 0.1004"
  xmlns="http://www.w3.org/2000/svg">
    <title>GOE 79 (PFALZ 11) AIRFOIL</title>
    <path 
      vector-effect="non-scaling-stroke"
      d="M1,-0.0028L0.9499,-0.013L0.8998,-0.021L0.7997,-0.0375L0.6995,-0.0535L0.5994,-0.0672L0.4993,-0.0792L0.3993,-0.0874L0.2993,-0.0893L0.1993,-0.0857L0.1493,-0.0796L0.0994,-0.068L0.0745,-0.0594L0.0496,-0.0502L0.0247,-0.0366L0.0123,-0.0264L0,-0L0.0126,0.0111L0.0251,0.0082L0.05,0.0002L0.075,-0.0051L0.0999,-0.0109L0.1498,-0.0181L0.1998,-0.0241L0.2997,-0.0305L0.3997,-0.0314L0.4997,-0.03L0.5998,-0.0252L0.6998,-0.0199L0.7999,-0.0123L0.9,-0.0048L0.95,-0.0007L1,0.0028"
    />
</svg>
