
<svg 
  class="airfoil-goe770"
  fill="none"
  stroke="black" 
  stroke-width="1"
  style="overflow:visible"
  viewBox="0, -0.1454, 1, 0.20989999"
  xmlns="http://www.w3.org/2000/svg">
    <title>GOE 770 AIRFOIL</title>
    <path 
      vector-effect="non-scaling-stroke"
      d="M1,-0.0026L0.95,-0.0146L0.9,-0.0267L0.8,-0.0506L0.7,-0.075L0.6,-0.0991L0.5,-0.1223L0.4,-0.1395L0.3,-0.1454L0.2,-0.1369L0.15,-0.1243L0.1,-0.1056L0.05,-0.077L0.025,-0.0562L0.0125,-0.0427L0,-0L0.0125,0.0175L0.025,0.0256L0.05,0.0356L0.1,0.0474L0.15,0.0558L0.2,0.0614L0.3,0.0645L0.4,0.064L0.5,0.0563L0.6,0.0455L0.7,0.0342L0.8,0.0227L0.9,0.0114L0.95,0.006L1,-0"
    />
</svg>
