
<svg 
  class="airfoil-goe738"
  fill="none"
  stroke="black" 
  stroke-width="1"
  style="overflow:visible"
  viewBox="0, -0.0984, 1, 0.15439999"
  xmlns="http://www.w3.org/2000/svg">
    <title>GOE 738 AIRFOIL</title>
    <path 
      vector-effect="non-scaling-stroke"
      d="M1,-0L0.95,-0.0038L0.9,-0.0092L0.8,-0.0243L0.7,-0.0435L0.6,-0.0636L0.5,-0.0809L0.4,-0.0934L0.3,-0.0984L0.2,-0.0932L0.15,-0.0864L0.1,-0.0738L0.075,-0.0653L0.05,-0.054L0.025,-0.0388L0.0125,-0.0267L0,-0L0.0125,0.0218L0.025,0.0299L0.05,0.0389L0.075,0.0445L0.1,0.0487L0.15,0.0532L0.2,0.0553L0.3,0.056L0.4,0.0536L0.5,0.0488L0.6,0.0419L0.7,0.0333L0.8,0.0233L0.9,0.0128L0.95,0.0072L1,-0"
    />
</svg>
