
<svg 
  class="airfoil-goe766"
  fill="none"
  stroke="black" 
  stroke-width="1"
  style="overflow:visible"
  viewBox="0, -0.0743, 1, 0.1208"
  xmlns="http://www.w3.org/2000/svg">
    <title>GOE 766 AIRFOIL</title>
    <path 
      vector-effect="non-scaling-stroke"
      d="M1,-0L0.95,-0.0061L0.9,-0.0119L0.8,-0.0237L0.7,-0.0346L0.6,-0.0453L0.5,-0.0557L0.4,-0.0654L0.3,-0.0728L0.25,-0.0743L0.2,-0.074L0.15,-0.0709L0.1,-0.0628L0.05,-0.0481L0.025,-0.036L0.0125,-0.0264L0,-0L0.0125,0.017L0.025,0.0233L0.05,0.0303L0.1,0.0383L0.15,0.0419L0.2,0.0443L0.25,0.0458L0.3,0.0465L0.4,0.0452L0.5,0.0421L0.6,0.0364L0.7,0.0289L0.8,0.0205L0.9,0.011L0.95,0.0059L1,-0"
    />
</svg>
