
<svg 
  class="airfoil-goe776"
  fill="none"
  stroke="black" 
  stroke-width="1"
  style="overflow:visible"
  viewBox="0, -0.1258, 1, 0.25"
  xmlns="http://www.w3.org/2000/svg">
    <title>GOE 776 AIRFOIL</title>
    <path 
      vector-effect="non-scaling-stroke"
      d="M1,-0.0052L0.95,-0.0193L0.9,-0.0325L0.8,-0.0568L0.7,-0.0781L0.6,-0.0966L0.5,-0.1116L0.4,-0.1218L0.3,-0.1258L0.2,-0.12L0.15,-0.1117L0.1,-0.0978L0.075,-0.0877L0.05,-0.0741L0.025,-0.0546L0.0125,-0.0395L0,-0L0.0125,0.0395L0.025,0.0544L0.05,0.0739L0.075,0.0873L0.1,0.0972L0.15,0.1109L0.2,0.119L0.3,0.1242L0.4,0.1198L0.5,0.109L0.6,0.0934L0.7,0.0745L0.8,0.0526L0.9,0.0279L0.95,0.0143L1,-0"
    />
</svg>
