
<svg 
  class="airfoil-goe767"
  fill="none"
  stroke="black" 
  stroke-width="1"
  style="overflow:visible"
  viewBox="0, -0.075, 1, 0.12020001"
  xmlns="http://www.w3.org/2000/svg">
    <title>GOE 767 AIRFOIL</title>
    <path 
      vector-effect="non-scaling-stroke"
      d="M1,-0L0.95,-0.005L0.9,-0.0097L0.8,-0.0197L0.7,-0.0294L0.6,-0.039L0.5,-0.0498L0.4,-0.0609L0.3,-0.0705L0.25,-0.0737L0.2,-0.075L0.15,-0.0738L0.1,-0.0672L0.05,-0.0533L0.025,-0.04L0.0125,-0.0299L0,-0L0.0125,0.019L0.025,0.026L0.05,0.0348L0.1,0.042L0.15,0.0444L0.2,0.045L0.25,0.0452L0.3,0.0443L0.4,0.041L0.5,0.0364L0.6,0.0306L0.7,0.0236L0.8,0.0162L0.9,0.0084L0.95,0.0042L1,-0"
    />
</svg>
