
<svg 
  class="airfoil-goe777"
  fill="none"
  stroke="black" 
  stroke-width="1"
  style="overflow:visible"
  viewBox="0, -0.1696, 1, 0.22"
  xmlns="http://www.w3.org/2000/svg">
    <title>GOE 777 AIRFOIL</title>
    <path 
      vector-effect="non-scaling-stroke"
      d="M1,-0.0026L0.95,-0.0167L0.9,-0.031L0.8,-0.0593L0.7,-0.0876L0.6,-0.1161L0.5,-0.1424L0.4,-0.1636L0.3,-0.1696L0.2,-0.1605L0.15,-0.146L0.1,-0.1238L0.075,-0.1089L0.05,-0.0908L0.025,-0.0673L0.0125,-0.0527L0,-0L0.0125,0.0142L0.025,0.0213L0.05,0.0301L0.075,0.0349L0.1,0.0387L0.15,0.0446L0.2,0.0483L0.3,0.0504L0.4,0.0487L0.5,0.0446L0.6,0.0362L0.7,0.0269L0.8,0.018L0.9,0.0091L0.95,0.0051L1,-0"
    />
</svg>
