
<svg 
  class="airfoil-goe704"
  fill="none"
  stroke="black" 
  stroke-width="1"
  style="overflow:visible"
  viewBox="0, -0.0856, 1, 0.13010001"
  xmlns="http://www.w3.org/2000/svg">
    <title>GOE 704 AIRFOIL</title>
    <path 
      vector-effect="non-scaling-stroke"
      d="M1,-0.0027L0.9498,-0.0104L0.8997,-0.0185L0.7994,-0.0353L0.6991,-0.0521L0.5988,-0.0678L0.4986,-0.0791L0.3985,-0.0849L0.2985,-0.0856L0.1986,-0.0804L0.1487,-0.0741L0.0989,-0.0632L0.0741,-0.0548L0.0492,-0.0448L0.0245,-0.0299L0.0122,-0.0197L0,-0L0.0128,0.0158L0.0254,0.0231L0.0505,0.0321L0.0756,0.0377L0.1007,0.0408L0.1507,0.0434L0.2008,0.0445L0.3008,0.0438L0.4007,0.0421L0.5007,0.0404L0.6007,0.0386L0.7006,0.0364L0.8005,0.0307L0.9003,0.019L0.9502,0.0111L1,0.0027"
    />
</svg>
