
<svg 
  class="airfoil-goe703"
  fill="none"
  stroke="black" 
  stroke-width="1"
  style="overflow:visible"
  viewBox="0, -0.12, 1, 0.195"
  xmlns="http://www.w3.org/2000/svg">
    <title>GOE 703 AIRFOIL</title>
    <path 
      vector-effect="non-scaling-stroke"
      d="M1,-0L0.95,-0.0135L0.9,-0.0255L0.8,-0.049L0.7,-0.072L0.6,-0.0915L0.5,-0.108L0.4,-0.1185L0.3,-0.12L0.2,-0.1105L0.15,-0.1L0.1,-0.085L0.075,-0.075L0.05,-0.061L0.025,-0.0435L0.0125,-0.0305L0,-0L0.0125,0.0275L0.025,0.036L0.05,0.0465L0.075,0.054L0.1,0.0595L0.15,0.0665L0.2,0.0705L0.3,0.074L0.4,0.075L0.5,0.073L0.6,0.068L0.7,0.0595L0.8,0.046L0.9,0.026L0.95,0.0135L1,-0"
    />
</svg>
