
<svg 
  class="airfoil-goe765"
  fill="none"
  stroke="black" 
  stroke-width="1"
  style="overflow:visible"
  viewBox="-0, -0.0908, 1, 0.1452"
  xmlns="http://www.w3.org/2000/svg">
    <title>Gottingen 765 Airfoil</title>
    <desc># Recovered. Thick: .144 LE radius: 0.02062 LE slope: 0.17300</desc>
    <path 
      vector-effect="non-scaling-stroke"
      d="M1,0L0.9899,-0.0007L0.9798,-0.0015L0.9698,-0.0023L0.9597,-0.0032L0.9497,-0.0043L0.9398,-0.0053L0.9298,-0.0065L0.9199,-0.0077L0.9099,-0.009L0.9,-0.0103L0.8901,-0.0117L0.8802,-0.0131L0.8703,-0.0145L0.8604,-0.016L0.8506,-0.0176L0.8407,-0.0192L0.8308,-0.0208L0.821,-0.0224L0.8111,-0.0241L0.8013,-0.0258L0.7914,-0.0275L0.7816,-0.0292L0.7717,-0.0309L0.7618,-0.0327L0.752,-0.0344L0.7421,-0.0362L0.7322,-0.0379L0.7224,-0.0397L0.7125,-0.0415L0.7026,-0.0433L0.6927,-0.045L0.6828,-0.0468L0.6729,-0.0485L0.663,-0.0503L0.6531,-0.052L0.6431,-0.0537L0.6332,-0.0554L0.6233,-0.057L0.6133,-0.0587L0.6034,-0.0603L0.5934,-0.0619L0.5834,-0.0635L0.5735,-0.0651L0.5635,-0.0666L0.5535,-0.0681L0.5435,-0.0696L0.5335,-0.071L0.5234,-0.0724L0.5134,-0.0737L0.5034,-0.075L0.4933,-0.0763L0.4832,-0.0776L0.4732,-0.0787L0.4631,-0.0799L0.453,-0.081L0.4429,-0.082L0.4328,-0.083L0.4227,-0.084L0.4125,-0.0849L0.4024,-0.0857L0.3923,-0.0865L0.3821,-0.0872L0.3719,-0.0879L0.3618,-0.0885L0.3516,-0.089L0.3414,-0.0895L0.3312,-0.0899L0.3209,-0.0902L0.3107,-0.0905L0.3005,-0.0907L0.2902,-0.0908L0.2799,-0.0908L0.2697,-0.0907L0.2594,-0.0905L0.2491,-0.0903L0.2388,-0.0899L0.2285,-0.0893L0.2182,-0.0887L0.2078,-0.0879L0.1975,-0.087L0.1872,-0.086L0.1769,-0.0848L0.1665,-0.0834L0.1562,-0.0819L0.1459,-0.0801L0.1356,-0.0782L0.1252,-0.0761L0.115,-0.0737L0.1047,-0.0711L0.0945,-0.0683L0.0843,-0.0652L0.0741,-0.0617L0.064,-0.0579L0.054,-0.0537L0.0441,-0.049L0.0392,-0.0464L0.0343,-0.0437L0.0295,-0.0408L0.0247,-0.0376L0.02,-0.0342L0.0153,-0.0304L0.0108,-0.0261L0.0064,-0.0211L0.0024,-0.0147L-0,-0L0.0076,0.013L0.0136,0.0177L0.0192,0.0212L0.0247,0.0239L0.03,0.0261L0.0353,0.0281L0.0405,0.0299L0.0457,0.0314L0.0508,0.0328L0.0559,0.0341L0.066,0.0363L0.076,0.0383L0.0859,0.04L0.0957,0.0415L0.1055,0.0428L0.1153,0.044L0.125,0.045L0.1347,0.046L0.1444,0.0468L0.1541,0.0476L0.1638,0.0483L0.1735,0.049L0.1831,0.0495L0.1928,0.0501L0.2025,0.0505L0.2122,0.051L0.2218,0.0513L0.2315,0.0517L0.2412,0.052L0.2509,0.0523L0.2606,0.0526L0.2703,0.0528L0.2801,0.053L0.2898,0.0532L0.2995,0.0533L0.3093,0.0535L0.3191,0.0536L0.3288,0.0537L0.3386,0.0539L0.3484,0.054L0.3582,0.0541L0.3681,0.0542L0.3779,0.0542L0.3877,0.0543L0.3976,0.0544L0.4075,0.0544L0.4173,0.0544L0.4272,0.0544L0.4371,0.0544L0.447,0.0544L0.4569,0.0543L0.4668,0.0543L0.4768,0.0542L0.4867,0.0541L0.4966,0.054L0.5066,0.0538L0.5166,0.0537L0.5265,0.0535L0.5365,0.0533L0.5465,0.0531L0.5565,0.0528L0.5665,0.0525L0.5766,0.0522L0.5866,0.0519L0.5966,0.0515L0.6067,0.0512L0.6167,0.0507L0.6268,0.0503L0.6369,0.0498L0.6469,0.0493L0.657,0.0488L0.6671,0.0482L0.6772,0.0476L0.6873,0.047L0.6974,0.0463L0.7075,0.0456L0.7176,0.0448L0.7278,0.044L0.7379,0.0432L0.748,0.0423L0.7582,0.0413L0.7683,0.0404L0.7784,0.0393L0.7886,0.0383L0.7987,0.0371L0.8089,0.0359L0.819,0.0347L0.8292,0.0334L0.8393,0.032L0.8494,0.0306L0.8596,0.0291L0.8697,0.0276L0.8798,0.0259L0.8899,0.0242L0.9,0.0225L0.9101,0.0206L0.9201,0.0187L0.9302,0.0167L0.9402,0.0146L0.9503,0.0124L0.9603,0.0101L0.9702,0.0077L0.9802,0.0052L0.9901,0.0027L1,0"
    />
</svg>
