
<svg 
  class="airfoil-goe780"
  fill="none"
  stroke="black" 
  stroke-width="1"
  style="overflow:visible"
  viewBox="0, -0.07, 1, 0.120000005"
  xmlns="http://www.w3.org/2000/svg">
    <title>GOE 780 AIRFOIL</title>
    <path 
      vector-effect="non-scaling-stroke"
      d="M1,-0L0.95,-0.008L0.9,-0.017L0.8,-0.034L0.7,-0.052L0.6,-0.065L0.5,-0.07L0.4,-0.068L0.3,-0.06L0.2,-0.048L0.15,-0.04L0.1,-0.03L0.075,-0.025L0.05,-0.02L0.025,-0.013L0.0125,-0.008L0,-0L0.0125,0.009L0.025,0.013L0.05,0.018L0.075,0.023L0.1,0.026L0.15,0.032L0.2,0.037L0.3,0.044L0.4,0.048L0.5,0.05L0.6,0.049L0.7,0.044L0.8,0.036L0.9,0.021L0.95,0.012L1,-0"
    />
</svg>
