
<svg 
  class="airfoil-goe798"
  fill="none"
  stroke="black" 
  stroke-width="1"
  style="overflow:visible"
  viewBox="0, -0.1605, 1, 0.21100001"
  xmlns="http://www.w3.org/2000/svg">
    <title>GOE 798 AIRFOIL</title>
    <path 
      vector-effect="non-scaling-stroke"
      d="M1,-0.0075L0.9,-0.0468L0.8,-0.0822L0.7,-0.1115L0.6,-0.1365L0.5,-0.1538L0.4,-0.1605L0.3,-0.1573L0.2,-0.1427L0.15,-0.1274L0.1,-0.1069L0.075,-0.0931L0.05,-0.0754L0.025,-0.0514L0.0125,-0.0345L0,-0L0.0125,0.0268L0.025,0.0361L0.05,0.0451L0.075,0.0497L0.1,0.0505L0.15,0.0504L0.2,0.0485L0.3,0.0428L0.4,0.037L0.5,0.0312L0.6,0.0255L0.7,0.0198L0.8,0.014L0.9,0.0082L1,-0"
    />
</svg>
