
<svg 
  class="airfoil-goe746"
  fill="none"
  stroke="black" 
  stroke-width="1"
  style="overflow:visible"
  viewBox="0, -0.0992, 1, 0.11"
  xmlns="http://www.w3.org/2000/svg">
    <title>GOE 746 AIRFOIL</title>
    <path 
      vector-effect="non-scaling-stroke"
      d="M1,-0L0.95,-0.0021L0.9,-0.0051L0.8,-0.0167L0.7,-0.0353L0.6,-0.0559L0.5,-0.0755L0.4,-0.0921L0.3,-0.0992L0.2,-0.0933L0.15,-0.0848L0.1,-0.0704L0.075,-0.0599L0.05,-0.0474L0.025,-0.03L0.0125,-0.0195L0,-0L0.0125,0.0093L0.025,0.0095L0.05,0.0086L0.075,0.0071L0.1,0.0061L0.15,0.0037L0.2,0.0017L0.3,-0.0017L0.4,-0.0026L0.5,-0.0005L0.6,0.0041L0.7,0.0092L0.8,0.0108L0.9,0.0084L0.95,0.0049L1,-0"
    />
</svg>
