
<svg 
  class="airfoil-goe795sm"
  fill="none"
  stroke="black" 
  stroke-width="1"
  style="overflow:visible"
  viewBox="0, -0.064, 1, 0.0847"
  xmlns="http://www.w3.org/2000/svg">
    <title>GOE 795 smoothed</title>
    <path 
      vector-effect="non-scaling-stroke"
      d="M1,-0L0.9957,-0.001L0.983,-0.0038L0.9619,-0.0079L0.933,-0.0129L0.8967,-0.0186L0.8536,-0.0249L0.8044,-0.0316L0.75,-0.0384L0.6913,-0.0452L0.6294,-0.0515L0.5653,-0.0568L0.5,-0.0608L0.4347,-0.0632L0.3706,-0.064L0.3393,-0.0637L0.3087,-0.0631L0.2789,-0.0621L0.25,-0.0607L0.2222,-0.0588L0.1956,-0.0564L0.1703,-0.0537L0.1464,-0.0505L0.1241,-0.0471L0.1033,-0.0433L0.0843,-0.0393L0.067,-0.0351L0.0516,-0.0307L0.0381,-0.0261L0.0265,-0.0214L0.017,-0.0166L0.0096,-0.012L0.0043,-0.0076L0.0011,-0.0036L0,0.0001L0.0011,0.0035L0.0043,0.0067L0.0096,0.0097L0.017,0.0123L0.0265,0.0145L0.0381,0.0162L0.0516,0.0175L0.067,0.0186L0.0843,0.0194L0.1033,0.0201L0.1241,0.0206L0.1464,0.0207L0.1703,0.0205L0.1956,0.02L0.2222,0.0193L0.25,0.0185L0.2789,0.0178L0.3087,0.0172L0.3393,0.0165L0.3706,0.0158L0.4347,0.0144L0.5,0.013L0.5653,0.0117L0.6294,0.0104L0.6913,0.0091L0.75,0.0079L0.8044,0.0067L0.8536,0.0057L0.8967,0.0047L0.933,0.0038L0.9619,0.0027L0.983,0.0015L0.9957,0.0004L1,-0"
    />
</svg>
