
<svg 
  class="airfoil-goe795"
  fill="none"
  stroke="black" 
  stroke-width="1"
  style="overflow:visible"
  viewBox="0, -0.0639, 1, 0.0845"
  xmlns="http://www.w3.org/2000/svg">
    <title>GOE 795 AIRFOIL</title>
    <path 
      vector-effect="non-scaling-stroke"
      d="M1,-0L0.9989,-0.0003L0.9957,-0.001L0.9904,-0.0022L0.983,-0.0038L0.9735,-0.0057L0.9619,-0.0079L0.9484,-0.0102L0.933,-0.0126L0.9157,-0.0153L0.8967,-0.0183L0.8759,-0.0215L0.8536,-0.0248L0.8297,-0.0281L0.8044,-0.0315L0.7778,-0.0349L0.75,-0.0383L0.7211,-0.0416L0.6913,-0.0449L0.6607,-0.0481L0.6294,-0.0513L0.5975,-0.0542L0.5653,-0.0569L0.5327,-0.0592L0.5,-0.061L0.4673,-0.0624L0.4347,-0.0633L0.4024,-0.0638L0.3706,-0.0639L0.3393,-0.0635L0.3087,-0.0629L0.2789,-0.0619L0.25,-0.0607L0.2222,-0.0589L0.1956,-0.0565L0.1703,-0.0536L0.1464,-0.0504L0.1241,-0.047L0.1033,-0.0434L0.0843,-0.0394L0.067,-0.0352L0.0516,-0.0306L0.0381,-0.0258L0.0265,-0.0216L0.017,-0.0169L0.0096,-0.0119L0.0043,-0.0072L0.0011,-0.0032L0,-0L0.0011,0.003L0.0043,0.0067L0.0096,0.0095L0.017,0.0124L0.0265,0.0147L0.0381,0.0165L0.0516,0.0182L0.067,0.0195L0.0843,0.0201L0.1033,0.0203L0.1241,0.0205L0.1464,0.0206L0.1703,0.0203L0.1956,0.0197L0.2222,0.019L0.25,0.0183L0.2789,0.0178L0.3087,0.0172L0.3393,0.0165L0.3706,0.0158L0.4024,0.0151L0.4347,0.0144L0.4673,0.0137L0.5,0.013L0.5327,0.0123L0.5653,0.0115L0.5975,0.0108L0.6294,0.0101L0.6607,0.0094L0.6913,0.0088L0.7211,0.0081L0.75,0.0075L0.7778,0.0069L0.8044,0.0063L0.8297,0.0057L0.8536,0.0052L0.8759,0.0047L0.8967,0.0043L0.9157,0.0038L0.933,0.0035L0.9484,0.0031L0.9619,0.0027L0.9735,0.0021L0.983,0.0015L0.9904,0.0009L0.9957,0.0004L0.9989,0.0001L1,-0"
    />
</svg>
