
<svg 
  class="airfoil-goe801"
  fill="none"
  stroke="black" 
  stroke-width="1"
  style="overflow:visible"
  viewBox="0, -0.1096, 1, 0.1215"
  xmlns="http://www.w3.org/2000/svg">
    <title>GOE 801 (MVA 301) AIRFOIL</title>
    <path 
      vector-effect="non-scaling-stroke"
      d="M1,-0.004L0.95,-0.0164L0.9,-0.0288L0.8,-0.0526L0.7,-0.0734L0.6,-0.0897L0.5,-0.1015L0.4,-0.1088L0.3,-0.1096L0.2,-0.1014L0.15,-0.0918L0.1,-0.0782L0.075,-0.0689L0.05,-0.0566L0.025,-0.0398L0.0125,-0.0261L0,-0L0.0125,0.0119L0.025,0.0117L0.05,0.0094L0.075,0.0071L0.1,0.0048L0.15,0.0002L0.2,-0.0044L0.3,-0.0116L0.4,-0.0148L0.5,-0.015L0.6,-0.0147L0.7,-0.0124L0.8,-0.0086L0.9,-0.0038L0.95,-0.0019L1,-0"
    />
</svg>
