
<svg 
  class="airfoil-goe804"
  fill="none"
  stroke="black" 
  stroke-width="1"
  style="overflow:visible"
  viewBox="0, -0.0915, 1, 0.0973"
  xmlns="http://www.w3.org/2000/svg">
    <title>GOE 804 (EA 8) AIRFOIL</title>
    <path 
      vector-effect="non-scaling-stroke"
      d="M1,-0L0.95,-0.0206L0.9,-0.0363L0.8,-0.0616L0.7,-0.0779L0.6,-0.0872L0.5,-0.0915L0.4,-0.0898L0.3,-0.0841L0.2,-0.0714L0.15,-0.0631L0.1,-0.0507L0.075,-0.0435L0.05,-0.0344L0.025,-0.0232L0,-0L0.025,0.0058L0.05,0.0037L0.075,0.0005L0.1,-0.0037L0.15,-0.01L0.2,-0.0164L0.3,-0.0241L0.4,-0.0298L0.5,-0.0335L0.6,-0.0342L0.7,-0.0319L0.8,-0.0286L0.9,-0.0223L0.95,-0.0147L1,-0"
    />
</svg>
