
<svg 
  class="airfoil-goe803h"
  fill="none"
  stroke="black" 
  stroke-width="1"
  style="overflow:visible"
  viewBox="0, -0.0922, 1, 0.10470001"
  xmlns="http://www.w3.org/2000/svg">
    <title>GOE 803 (HACKLINGER) AIRFOIL</title>
    <path 
      vector-effect="non-scaling-stroke"
      d="M1,-0.003L0.95,-0.0163L0.9,-0.0257L0.8,-0.0444L0.7,-0.0611L0.6,-0.0758L0.5,-0.0865L0.4,-0.0922L0.3,-0.0919L0.2,-0.0856L0.15,-0.079L0.1,-0.0665L0.075,-0.058L0.05,-0.0466L0.025,-0.0318L0.02,-0.0285L0.015,-0.0243L0.01,-0.0194L0.005,-0.0129L0,-0L0.005,0.0093L0.01,0.0119L0.015,0.0125L0.02,0.0122L0.025,0.0117L0.05,0.0054L0.075,-0.001L0.1,-0.0063L0.15,-0.0159L0.2,-0.0236L0.3,-0.0349L0.4,-0.0412L0.5,-0.0425L0.6,-0.0428L0.7,-0.0381L0.8,-0.0294L0.9,-0.0167L0.95,-0.0083L1,-0"
    />
</svg>
