
<svg 
  class="airfoil-goe802b"
  fill="none"
  stroke="black" 
  stroke-width="1"
  style="overflow:visible"
  viewBox="0, -0.1096, 1, 0.1216"
  xmlns="http://www.w3.org/2000/svg">
    <title>GOE 802 B AIRFOIL</title>
    <path 
      vector-effect="non-scaling-stroke"
      d="M1,-0.004L0.95,-0.0164L0.9,-0.0288L0.8,-0.0526L0.7,-0.0734L0.6,-0.0897L0.5,-0.1015L0.4,-0.1088L0.3,-0.1096L0.2,-0.1014L0.15,-0.0918L0.1,-0.0782L0.075,-0.0689L0.05,-0.0566L0.025,-0.0398L0.0125,-0.0261L0,-0L0.0125,0.0119L0.025,0.012L0.05,0.0094L0.075,0.0027L0.085,-0.003L0.09,-0.0115L0.095,-0.0165L0.1,-0.018L0.105,-0.018L0.11,-0.0165L0.115,-0.013L0.12,-0.01L0.125,-0.006L0.13,-0.003L0.135,-0.001L0.14,-0L0.145,0.0005L0.15,0.0002L0.155,-0.0002L0.2,-0.0044L0.3,-0.0116L0.4,-0.0148L0.5,-0.015L0.6,-0.0147L0.7,-0.0124L0.8,-0.0086L0.9,-0.0038L0.95,-0.0019L1,-0"
    />
</svg>
