
<svg 
  class="airfoil-goe81"
  fill="none"
  stroke="black" 
  stroke-width="1"
  style="overflow:visible"
  viewBox="0, -0.1002, 1, 0.1101"
  xmlns="http://www.w3.org/2000/svg">
    <title>GOE 81 AIRFOIL</title>
    <path 
      vector-effect="non-scaling-stroke"
      d="M1,-0.0014L0.9499,-0.0143L0.8998,-0.0248L0.7996,-0.0464L0.6994,-0.0655L0.5993,-0.0813L0.4992,-0.0938L0.3991,-0.0994L0.2991,-0.1002L0.1992,-0.0918L0.1493,-0.0828L0.0994,-0.0694L0.0745,-0.0611L0.0496,-0.049L0.0247,-0.0342L0.0123,-0.0226L0,-0L0.0126,0.0099L0.0251,0.0082L0.05,0.0031L0.075,-0.0016L0.1,-0.0059L0.1499,-0.0128L0.1998,-0.0191L0.2998,-0.0259L0.3998,-0.0263L0.4998,-0.0244L0.5998,-0.0221L0.6999,-0.0176L0.7999,-0.0119L0.9,-0.0059L0.95,-0.0022L1,0.0014"
    />
</svg>
