
<svg 
  class="airfoil-goe92"
  fill="none"
  stroke="black" 
  stroke-width="1"
  style="overflow:visible"
  viewBox="0, -0.0993, 1, 0.1042"
  xmlns="http://www.w3.org/2000/svg">
    <title>GOE 92 AIRFOIL</title>
    <path 
      vector-effect="non-scaling-stroke"
      d="M1,-0.0008L0.9499,-0.0115L0.8999,-0.0207L0.7998,-0.0411L0.6998,-0.0599L0.5997,-0.0741L0.4997,-0.0861L0.3996,-0.0953L0.2996,-0.0993L0.1996,-0.0959L0.1496,-0.0872L0.0997,-0.0733L0.0747,-0.0639L0.0498,-0.0495L0.0249,-0.0308L0.0124,-0.0187L0,-0L0.0125,0.0049L0.025,0.0032L0.05,0.0002L0.075,-0.002L0.1,-0.0037L0.15,-0.0067L0.2,-0.0086L0.3,-0.0116L0.3999,-0.0117L0.4999,-0.012L0.6,-0.0108L0.7,-0.0079L0.8,-0.005L0.9,-0.0017L0.95,-0.0003L1,0.0008"
    />
</svg>
