
<svg 
  class="airfoil-griffith30symsuction"
  fill="none"
  stroke="black" 
  stroke-width="1"
  style="overflow:visible"
  viewBox="0, -0.1529, 1, 0.3058"
  xmlns="http://www.w3.org/2000/svg">
    <title>Griffith 30% Suction Airfoil</title>
    <path 
      vector-effect="non-scaling-stroke"
      d="M1,-0.001L0.9827,-0.0017L0.9527,-0.0061L0.9217,-0.0113L0.8881,-0.02L0.8607,-0.0296L0.8359,-0.0418L0.8147,-0.0575L0.7905,-0.0813L0.7562,-0.1044L0.7204,-0.1208L0.6836,-0.1317L0.6459,-0.1396L0.6078,-0.1457L0.5694,-0.15L0.531,-0.1524L0.4927,-0.1529L0.4543,-0.1519L0.4164,-0.15L0.3789,-0.1474L0.342,-0.144L0.3061,-0.1393L0.2712,-0.1337L0.2376,-0.1274L0.2055,-0.1208L0.175,-0.1134L0.1465,-0.1051L0.12,-0.0957L0.0958,-0.0854L0.074,-0.0745L0.0547,-0.0634L0.0381,-0.0519L0.0243,-0.0403L0.0134,-0.0291L0.0055,-0.0185L0.001,-0.0087L0,-0L0.001,0.0087L0.0055,0.0185L0.0134,0.0291L0.0243,0.0403L0.0381,0.0519L0.0547,0.0634L0.074,0.0745L0.0958,0.0854L0.12,0.0957L0.1465,0.1051L0.175,0.1134L0.2055,0.1208L0.2376,0.1274L0.2712,0.1337L0.3061,0.1393L0.342,0.144L0.3789,0.1474L0.4164,0.15L0.4543,0.1519L0.4927,0.1529L0.531,0.1524L0.5694,0.15L0.6078,0.1457L0.6459,0.1396L0.6836,0.1317L0.7204,0.1208L0.7562,0.1044L0.7905,0.0813L0.8147,0.0575L0.8359,0.0418L0.8607,0.0296L0.8881,0.02L0.9217,0.0113L0.9527,0.0061L0.9827,0.0017L1,0.001"
    />
</svg>
