
<svg 
  class="airfoil-gs1"
  fill="none"
  stroke="black" 
  stroke-width="1"
  style="overflow:visible"
  viewBox="0, -0.1065, 1, 0.1482"
  xmlns="http://www.w3.org/2000/svg">
    <title>SIKORSKY GS-1 AIRFOIL</title>
    <path 
      vector-effect="non-scaling-stroke"
      d="M1,-0L0.95,-0.0124L0.9,-0.0248L0.8,-0.0476L0.7,-0.0679L0.6,-0.0847L0.5,-0.098L0.4,-0.1059L0.3,-0.1065L0.2,-0.0968L0.15,-0.0867L0.075,-0.0619L0.05,-0.0504L0.025,-0.0358L0.0125,-0.0252L0,-0L0.0125,0.0211L0.025,0.0281L0.05,0.0355L0.075,0.0393L0.15,0.0417L0.2,0.04L0.3,0.0325L0.4,0.0234L0.5,0.0153L0.6,0.0089L0.7,0.0045L0.8,0.0017L0.9,-0.0009L0.95,-0.0011L1,-0"
    />
</svg>
