
<svg 
  class="airfoil-gu255118"
  fill="none"
  stroke="black" 
  stroke-width="1"
  style="overflow:visible"
  viewBox="0, -0.1708, 1, 0.20210001"
  xmlns="http://www.w3.org/2000/svg">
    <title>UNIVERSITY OF GLASGOW GU25-5(11)8 AIRFOIL</title>
    <path 
      vector-effect="non-scaling-stroke"
      d="M1,-0L0.95,-0.0181L0.9,-0.036L0.85,-0.0541L0.8,-0.0728L0.75,-0.0917L0.7,-0.1104L0.65,-0.1282L0.6,-0.1443L0.55,-0.158L0.5,-0.1675L0.45,-0.1708L0.4,-0.17L0.35,-0.1658L0.3,-0.1584L0.25,-0.1479L0.2,-0.1339L0.15,-0.1159L0.1,-0.0929L0.075,-0.0788L0.05,-0.062L0.025,-0.0408L0.005,-0.0155L0,-0L0.005,0.0096L0.025,0.0182L0.05,0.0226L0.075,0.0253L0.1,0.0272L0.15,0.0296L0.2,0.0308L0.25,0.0313L0.3,0.0313L0.35,0.0308L0.4,0.0299L0.45,0.0283L0.5,0.0262L0.55,0.0238L0.6,0.0213L0.65,0.0188L0.7,0.0162L0.75,0.0137L0.8,0.0114L0.85,0.0091L0.9,0.0069L0.95,0.0041L1,-0"
    />
</svg>
