
<svg 
  class="airfoil-hh02"
  fill="none"
  stroke="black" 
  stroke-width="1"
  style="overflow:visible"
  viewBox="0, -0.0675, 1, 0.0959"
  xmlns="http://www.w3.org/2000/svg">
    <title>HUGHES HELICOPTERS HH-02 AIRFOIL</title>
    <path 
      vector-effect="non-scaling-stroke"
      d="M1,-0.0019L0.99,-0.0011L0.975,0.0001L0.95,0.002L0.925,0.0039L0.9,0.0043L0.85,-0.0048L0.8,-0.0144L0.75,-0.024L0.7,-0.0334L0.65,-0.0417L0.6,-0.0489L0.55,-0.055L0.5,-0.0601L0.45,-0.0639L0.4,-0.0664L0.35,-0.0675L0.3,-0.0674L0.25,-0.0661L0.2,-0.0633L0.15,-0.0583L0.125,-0.0547L0.1,-0.0501L0.08,-0.0455L0.065,-0.0414L0.05,-0.0364L0.035,-0.0303L0.025,-0.0253L0.02,-0.0224L0.016,-0.0198L0.0125,-0.0172L0.01,-0.0151L0.008,-0.0133L0.0065,-0.0118L0.005,-0.0101L0.0035,-0.0082L0.002,-0.0059L0.001,-0.0041L0.0005,-0.0028L0,-0L0.0005,0.0028L0.001,0.0039L0.002,0.0053L0.0035,0.0068L0.005,0.008L0.0065,0.0089L0.008,0.0098L0.01,0.0107L0.0125,0.0117L0.016,0.0129L0.02,0.014L0.025,0.0152L0.035,0.0171L0.05,0.0194L0.065,0.0213L0.08,0.0228L0.1,0.0243L0.125,0.0258L0.15,0.0268L0.2,0.0279L0.25,0.0284L0.3,0.0283L0.35,0.0276L0.4,0.026L0.45,0.0238L0.5,0.021L0.55,0.018L0.6,0.0148L0.65,0.0118L0.7,0.0095L0.75,0.0085L0.8,0.0089L0.85,0.0098L0.9,0.0104L0.925,0.0078L0.95,0.0058L0.975,0.0039L0.99,0.0027L1,0.0019"
    />
</svg>
