
<svg 
  class="airfoil-hobie"
  fill="none"
  stroke="black" 
  stroke-width="1"
  style="overflow:visible"
  viewBox="0, -0.0791, 1, 0.0969"
  xmlns="http://www.w3.org/2000/svg">
    <title>HOBIE</title>
    <path 
      vector-effect="non-scaling-stroke"
      d="M1,-0L0.9,-0.0194L0.8,-0.0362L0.7,-0.051L0.6,-0.064L0.5,-0.073L0.45,-0.0761L0.4,-0.0778L0.35,-0.0791L0.3,-0.0784L0.25,-0.0757L0.2,-0.0698L0.15,-0.0635L0.1,-0.0521L0.075,-0.0441L0.05,-0.0349L0.025,-0.0241L0,-0L0.025,0.0146L0.05,0.0165L0.075,0.0171L0.1,0.0178L0.15,0.0165L0.2,0.0136L0.25,0.0093L0.3,0.0063L0.35,0.0023L0.4,-0.0006L0.45,-0.0032L0.5,-0.0051L0.6,-0.0081L0.7,-0.0095L0.8,-0.008L0.9,-0.0048L1,-0"
    />
</svg>
