
<svg 
  class="airfoil-hobiesm"
  fill="none"
  stroke="black" 
  stroke-width="1"
  style="overflow:visible"
  viewBox="0, -0.0793, 1, 0.0974"
  xmlns="http://www.w3.org/2000/svg">
    <title>HOBIESMO1.DAT</title>
    <path 
      vector-effect="non-scaling-stroke"
      d="M1,-0L0.99,-0.0021L0.98,-0.0041L0.96,-0.008L0.94,-0.0117L0.92,-0.0152L0.9,-0.0187L0.85,-0.0272L0.8,-0.0357L0.75,-0.0439L0.7,-0.0515L0.65,-0.0583L0.6,-0.0643L0.55,-0.0694L0.5,-0.0735L0.45,-0.0767L0.4,-0.0787L0.35,-0.0793L0.3,-0.0783L0.25,-0.0755L0.2,-0.0705L0.15,-0.0628L0.1,-0.0514L0.0875,-0.0478L0.075,-0.0438L0.0625,-0.0393L0.05,-0.0343L0.0375,-0.0288L0.025,-0.0228L0.0125,-0.0159L0.0062,-0.0115L0,-0.0025L0.0062,0.0051L0.0125,0.0081L0.025,0.0119L0.0375,0.0144L0.05,0.0162L0.0625,0.0173L0.075,0.0179L0.0875,0.0181L0.1,0.0181L0.15,0.0166L0.2,0.0137L0.25,0.0102L0.3,0.0065L0.35,0.0029L0.4,-0.0003L0.45,-0.003L0.5,-0.0052L0.55,-0.0068L0.6,-0.0081L0.65,-0.0088L0.7,-0.0091L0.75,-0.0088L0.8,-0.008L0.85,-0.0067L0.9,-0.0048L0.92,-0.004L0.94,-0.003L0.96,-0.0021L0.98,-0.001L0.99,-0.0005L1,-0"
    />
</svg>
