
<svg 
  class="airfoil-hor07"
  fill="none"
  stroke="black" 
  stroke-width="1"
  style="overflow:visible"
  viewBox="0, -0.0772, 1, 0.0912"
  xmlns="http://www.w3.org/2000/svg">
    <title>ONERA HOR07 AIRFOIL</title>
    <path 
      vector-effect="non-scaling-stroke"
      d="M1,-0.0049L0.99,-0.0062L0.9698,-0.0088L0.9497,-0.0116L0.9195,-0.0157L0.8994,-0.0185L0.8491,-0.0251L0.7988,-0.0321L0.7484,-0.0389L0.6981,-0.0459L0.6478,-0.053L0.5975,-0.0595L0.5472,-0.0653L0.4968,-0.0702L0.4465,-0.0737L0.3962,-0.0761L0.3458,-0.0772L0.2954,-0.0764L0.2451,-0.0739L0.2246,-0.0716L0.1984,-0.0687L0.188,-0.0667L0.1776,-0.0648L0.1672,-0.0628L0.1569,-0.0619L0.1465,-0.0599L0.1361,-0.0569L0.1258,-0.055L0.1155,-0.053L0.1052,-0.0504L0.095,-0.0476L0.0848,-0.0447L0.0747,-0.0416L0.0666,-0.0391L0.0565,-0.0359L0.0465,-0.0323L0.0416,-0.0305L0.0358,-0.0282L0.0322,-0.0268L0.0266,-0.0242L0.0214,-0.0217L0.0142,-0.0178L0.009,-0.0143L0.0038,-0.0087L0,-0L0.0032,0.0064L0.0081,0.0089L0.013,0.0104L0.018,0.0115L0.0231,0.0122L0.0281,0.0128L0.0331,0.0131L0.0432,0.0137L0.0533,0.0139L0.0653,0.014L0.0744,0.0139L0.0855,0.0134L0.0956,0.0127L0.1056,0.0119L0.1161,0.0112L0.1263,0.0102L0.1365,0.0092L0.1466,0.0082L0.1567,0.0072L0.1668,0.0061L0.1769,0.0051L0.187,0.004L0.1971,0.0029L0.2072,0.0018L0.2322,-0.0008L0.2571,-0.0032L0.2951,-0.0065L0.3152,-0.0082L0.3354,-0.0096L0.3555,-0.0104L0.3757,-0.0113L0.3958,-0.0132L0.426,-0.0141L0.4563,-0.0149L0.4965,-0.0157L0.5268,-0.0166L0.557,-0.0164L0.5973,-0.0162L0.6275,-0.0157L0.6577,-0.015L0.6979,-0.0134L0.7282,-0.0122L0.7584,-0.0106L0.7986,-0.0085L0.8288,-0.0067L0.849,-0.0054L0.8691,-0.0041L0.8993,-0.0022L0.9194,-0.0006L0.9396,0.0007L0.9597,0.0021L0.9798,0.0034L0.9899,0.0041L0.9949,0.0045L1,0.0049"
    />
</svg>
