
<svg 
  class="airfoil-hor04"
  fill="none"
  stroke="black" 
  stroke-width="1"
  style="overflow:visible"
  viewBox="0, -0.035, 1, 0.0425"
  xmlns="http://www.w3.org/2000/svg">
    <title>ONERA HOR04 AIRFOIL</title>
    <path 
      vector-effect="non-scaling-stroke"
      d="M1,-0.0045L0.9799,-0.0055L0.9598,-0.007L0.9398,-0.0084L0.9197,-0.0099L0.8895,-0.0119L0.8594,-0.0139L0.8293,-0.0158L0.7991,-0.0176L0.769,-0.0194L0.7389,-0.0212L0.7087,-0.023L0.6786,-0.0245L0.6485,-0.0261L0.6183,-0.0274L0.5875,-0.0283L0.562,-0.0296L0.5365,-0.0308L0.511,-0.0318L0.4854,-0.0328L0.4598,-0.0335L0.4342,-0.034L0.4088,-0.0344L0.3831,-0.035L0.3573,-0.0348L0.3317,-0.0345L0.3062,-0.0341L0.2806,-0.0336L0.2551,-0.033L0.2295,-0.0322L0.2039,-0.0312L0.1937,-0.0307L0.1835,-0.0301L0.1733,-0.0296L0.163,-0.0289L0.1528,-0.0282L0.1426,-0.0275L0.1324,-0.0267L0.1222,-0.0259L0.1119,-0.025L0.1017,-0.024L0.0915,-0.0229L0.0813,-0.0218L0.0711,-0.0205L0.0609,-0.0192L0.0506,-0.0179L0.0455,-0.0171L0.0404,-0.0163L0.0353,-0.0154L0.0302,-0.0145L0.0251,-0.0134L0.0201,-0.0123L0.0155,-0.011L0.0125,-0.0099L0.0095,-0.0087L0.0075,-0.0078L0.0054,-0.0066L0.0034,-0.0052L0.0014,-0.0033L0,-0L0.0014,0.0032L0.0034,0.0046L0.0054,0.0053L0.0084,0.006L0.0114,0.0064L0.0154,0.0068L0.0205,0.007L0.0255,0.0071L0.0305,0.0072L0.0355,0.0072L0.0406,0.0072L0.0456,0.0072L0.0556,0.0073L0.0757,0.0074L0.0958,0.0075L0.1159,0.0075L0.136,0.0073L0.1561,0.0073L0.1762,0.0072L0.1963,0.0071L0.2164,0.0071L0.2365,0.0071L0.2566,0.007L0.2767,0.007L0.2967,0.0065L0.3269,0.0061L0.357,0.0055L0.3872,0.005L0.4173,0.0044L0.4474,0.0036L0.4776,0.0028L0.5077,0.002L0.5379,0.0012L0.568,0.0006L0.5982,-0L0.6283,-0.0005L0.6584,-0.0009L0.6886,-0.0012L0.7187,-0.0014L0.7488,-0.0014L0.779,-0.0013L0.8091,-0.0011L0.8393,-0.0007L0.8694,-0.0002L0.8995,0.0005L0.9196,0.0012L0.9397,0.002L0.9598,0.0028L0.9799,0.0037L1,0.0045"
    />
</svg>
