
<svg 
  class="airfoil-hor12"
  fill="none"
  stroke="black" 
  stroke-width="1"
  style="overflow:visible"
  viewBox="0, -0.0922, 1.0005, 0.12830001"
  xmlns="http://www.w3.org/2000/svg">
    <title>ONERA HOR12 AIRFOIL</title>
    <path 
      vector-effect="non-scaling-stroke"
      d="M1.0005,-0.0045L0.9803,-0.0079L0.9601,-0.0112L0.9399,-0.0144L0.9197,-0.018L0.8944,-0.0225L0.8692,-0.0269L0.8439,-0.0313L0.8186,-0.0356L0.7933,-0.0398L0.768,-0.0439L0.7427,-0.048L0.7174,-0.052L0.6921,-0.056L0.6667,-0.06L0.6413,-0.0638L0.6159,-0.0675L0.5904,-0.0711L0.5649,-0.0745L0.5392,-0.0777L0.5135,-0.0807L0.4874,-0.0833L0.4618,-0.0857L0.436,-0.0878L0.4101,-0.0895L0.3843,-0.0908L0.3585,-0.0917L0.3325,-0.0922L0.3067,-0.0921L0.2808,-0.0915L0.2548,-0.0903L0.2284,-0.0883L0.2023,-0.0855L0.1919,-0.0842L0.1816,-0.0826L0.1712,-0.081L0.1609,-0.0792L0.1505,-0.0772L0.1402,-0.075L0.1299,-0.0727L0.1196,-0.0701L0.1094,-0.0673L0.0992,-0.0643L0.0891,-0.0611L0.0791,-0.0576L0.0692,-0.0538L0.0595,-0.0498L0.0499,-0.0454L0.0451,-0.043L0.0405,-0.0406L0.0358,-0.038L0.0312,-0.0353L0.0267,-0.0323L0.0221,-0.0293L0.0181,-0.0264L0.014,-0.0232L0.01,-0.0192L0.006,-0.0145L0.004,-0.0116L0.002,-0.0077L0,-0L0.002,0.0068L0.004,0.0105L0.006,0.0128L0.01,0.0164L0.0139,0.0191L0.0208,0.0225L0.0287,0.0251L0.0343,0.027L0.0399,0.0287L0.0454,0.03L0.0509,0.0311L0.0564,0.032L0.0618,0.0328L0.0726,0.0341L0.0831,0.0349L0.0935,0.0355L0.1038,0.0359L0.1141,0.0361L0.1242,0.0361L0.1343,0.036L0.1443,0.0358L0.1543,0.0356L0.1643,0.0352L0.1742,0.0347L0.1842,0.0342L0.1942,0.0336L0.2042,0.033L0.2141,0.0322L0.2387,0.0303L0.2631,0.0283L0.2879,0.0263L0.3128,0.0241L0.3372,0.0216L0.3625,0.0191L0.3875,0.0165L0.4124,0.0139L0.4373,0.0112L0.4622,0.0087L0.4874,0.0063L0.5121,0.0041L0.5371,0.0022L0.5622,0.0006L0.5874,-0.0008L0.6127,-0.002L0.638,-0.0031L0.6634,-0.004L0.6888,-0.0048L0.7142,-0.0054L0.7397,-0.0059L0.7652,-0.0063L0.7906,-0.0065L0.816,-0.0064L0.8415,-0.0059L0.867,-0.0053L0.8924,-0.0044L0.9179,-0.0031L0.9383,-0.0018L0.9587,0.0003L0.9791,0.0024L0.9995,0.0045"
    />
</svg>
