
<svg 
  class="airfoil-hor20"
  fill="none"
  stroke="black" 
  stroke-width="1"
  style="overflow:visible"
  viewBox="0, -0.1259, 1, 0.20899999"
  xmlns="http://www.w3.org/2000/svg">
    <title>ONERA HOR20 AIRFOIL</title>
    <path 
      vector-effect="non-scaling-stroke"
      d="M1,-0.0045L0.98,-0.0089L0.9618,-0.0124L0.9416,-0.0166L0.9214,-0.021L0.8962,-0.0265L0.871,-0.0321L0.8457,-0.0377L0.8204,-0.0432L0.795,-0.0487L0.7697,-0.0542L0.7445,-0.0597L0.7192,-0.0652L0.6939,-0.0707L0.6685,-0.0761L0.6429,-0.0814L0.6174,-0.0866L0.5917,-0.0916L0.5659,-0.0965L0.54,-0.1011L0.5137,-0.1055L0.4875,-0.1095L0.4616,-0.1133L0.4354,-0.1168L0.4092,-0.1197L0.383,-0.1222L0.3568,-0.1241L0.3305,-0.1254L0.3043,-0.1259L0.2781,-0.1256L0.2514,-0.1243L0.2245,-0.1221L0.1978,-0.1187L0.1873,-0.1171L0.1768,-0.1152L0.1663,-0.1131L0.1559,-0.1107L0.1454,-0.1081L0.1349,-0.1052L0.1245,-0.102L0.1142,-0.0986L0.104,-0.0948L0.0938,-0.0907L0.0838,-0.0862L0.0739,-0.0813L0.0643,-0.076L0.0549,-0.0702L0.0413,-0.0604L0.0299,-0.0508L0.025,-0.0461L0.02,-0.0409L0.015,-0.0353L0.01,-0.0283L0.007,-0.0232L0.005,-0.0192L0.002,-0.0107L0,-0L0.002,0.019L0.005,0.0264L0.01,0.0345L0.015,0.0403L0.02,0.0449L0.025,0.0488L0.0301,0.0524L0.0369,0.0564L0.0429,0.0597L0.0488,0.0624L0.0546,0.0647L0.0604,0.0669L0.066,0.0688L0.0772,0.072L0.0882,0.0746L0.0988,0.0767L0.1093,0.0784L0.1196,0.0798L0.1298,0.0809L0.1399,0.0817L0.1499,0.0823L0.1598,0.0827L0.1697,0.083L0.1795,0.0831L0.1894,0.083L0.1992,0.0828L0.2091,0.0824L0.2189,0.0819L0.243,0.0802L0.2669,0.0782L0.291,0.0759L0.3156,0.0731L0.3403,0.0699L0.3647,0.0663L0.3894,0.0625L0.4141,0.0584L0.4387,0.0542L0.4633,0.05L0.4882,0.0459L0.5128,0.0418L0.5374,0.0381L0.5622,0.0347L0.5872,0.0315L0.6124,0.0285L0.6377,0.0257L0.663,0.023L0.6884,0.0205L0.7139,0.0182L0.7394,0.016L0.765,0.0139L0.7905,0.0121L0.816,0.0106L0.8415,0.0094L0.867,0.0086L0.8927,0.0081L0.91,0.0073L0.93,0.0068L0.95,0.0061L0.97,0.0055L1,0.0045"
    />
</svg>
