
<svg 
  class="airfoil-hq010"
  fill="none"
  stroke="black" 
  stroke-width="1"
  style="overflow:visible"
  viewBox="0, -0.05, 1, 0.1"
  xmlns="http://www.w3.org/2000/svg">
    <title>HQ 0/10 AIRFOIL</title>
    <path 
      vector-effect="non-scaling-stroke"
      d="M1,-0L0.9989,-0.0001L0.9957,-0.0003L0.9904,-0.0006L0.983,-0.0011L0.9734,-0.0017L0.9619,-0.0025L0.9484,-0.0035L0.933,-0.0047L0.9158,-0.0063L0.8967,-0.008L0.8759,-0.0098L0.8536,-0.0119L0.8297,-0.0142L0.8043,-0.0169L0.7778,-0.0197L0.75,-0.0227L0.7211,-0.0258L0.6913,-0.029L0.6607,-0.0322L0.6294,-0.0353L0.5976,-0.0383L0.5652,-0.0411L0.5327,-0.0434L0.5,-0.0454L0.4673,-0.0469L0.4348,-0.0481L0.4024,-0.0491L0.3706,-0.0498L0.3393,-0.05L0.3087,-0.0496L0.2789,-0.049L0.25,-0.0481L0.2222,-0.047L0.1957,-0.0457L0.1703,-0.0442L0.1464,-0.0422L0.1241,-0.0396L0.1033,-0.0367L0.0842,-0.0337L0.067,-0.0305L0.0516,-0.0271L0.0381,-0.0235L0.0266,-0.0197L0.017,-0.0157L0.0096,-0.0117L0.0043,-0.0076L0.0011,-0.0033L0,-0L0.0011,0.0033L0.0043,0.0076L0.0096,0.0117L0.017,0.0157L0.0266,0.0197L0.0381,0.0235L0.0516,0.0271L0.067,0.0305L0.0842,0.0337L0.1033,0.0367L0.1241,0.0396L0.1464,0.0422L0.1703,0.0442L0.1957,0.0457L0.2222,0.047L0.25,0.0481L0.2789,0.049L0.3087,0.0496L0.3393,0.05L0.3706,0.0498L0.4024,0.0491L0.4348,0.0481L0.4673,0.0469L0.5,0.0454L0.5327,0.0434L0.5652,0.0411L0.5976,0.0383L0.6294,0.0353L0.6607,0.0322L0.6913,0.029L0.7211,0.0258L0.75,0.0227L0.7778,0.0197L0.8043,0.0169L0.8297,0.0142L0.8536,0.0119L0.8759,0.0098L0.8967,0.008L0.9158,0.0063L0.933,0.0047L0.9484,0.0035L0.9619,0.0025L0.9734,0.0017L0.983,0.0011L0.9904,0.0006L0.9957,0.0003L0.9989,0.0001L1,-0"
    />
</svg>
