
<svg 
  class="airfoil-hq07"
  fill="none"
  stroke="black" 
  stroke-width="1"
  style="overflow:visible"
  viewBox="0, -0.035, 1, 0.07"
  xmlns="http://www.w3.org/2000/svg">
    <title>HQ 0/7 AIRFOIL</title>
    <path 
      vector-effect="non-scaling-stroke"
      d="M1,-0L0.9989,-0L0.9957,-0.0002L0.9904,-0.0004L0.983,-0.0007L0.9734,-0.0012L0.9619,-0.0017L0.9484,-0.0024L0.933,-0.0033L0.9158,-0.0044L0.8967,-0.0056L0.8759,-0.0069L0.8536,-0.0083L0.8297,-0.01L0.8043,-0.0118L0.7778,-0.0138L0.75,-0.0159L0.7211,-0.0181L0.6913,-0.0203L0.6607,-0.0225L0.6294,-0.0247L0.5976,-0.0268L0.5652,-0.0287L0.5327,-0.0304L0.5,-0.0318L0.4673,-0.0328L0.4348,-0.0337L0.4024,-0.0344L0.3706,-0.0349L0.3393,-0.035L0.3087,-0.0347L0.2789,-0.0343L0.25,-0.0337L0.2222,-0.0329L0.1957,-0.032L0.1703,-0.031L0.1464,-0.0295L0.1241,-0.0277L0.1033,-0.0257L0.0842,-0.0236L0.067,-0.0213L0.0516,-0.0189L0.0381,-0.0164L0.0266,-0.0138L0.017,-0.011L0.0096,-0.0082L0.0043,-0.0053L0.0011,-0.0023L0,-0L0.0011,0.0023L0.0043,0.0053L0.0096,0.0082L0.017,0.011L0.0266,0.0138L0.0381,0.0164L0.0516,0.0189L0.067,0.0213L0.0842,0.0236L0.1033,0.0257L0.1241,0.0277L0.1464,0.0295L0.1703,0.031L0.1957,0.032L0.2222,0.0329L0.25,0.0337L0.2789,0.0343L0.3087,0.0347L0.3393,0.035L0.3706,0.0349L0.4024,0.0344L0.4348,0.0337L0.4673,0.0328L0.5,0.0318L0.5327,0.0304L0.5652,0.0287L0.5976,0.0268L0.6294,0.0247L0.6607,0.0225L0.6913,0.0203L0.7211,0.0181L0.75,0.0159L0.7778,0.0138L0.8043,0.0118L0.8297,0.01L0.8536,0.0083L0.8759,0.0069L0.8967,0.0056L0.9158,0.0044L0.933,0.0033L0.9484,0.0024L0.9619,0.0017L0.9734,0.0012L0.983,0.0007L0.9904,0.0004L0.9957,0.0002L0.9989,0L1,-0"
    />
</svg>
