
<svg 
  class="airfoil-hq09"
  fill="none"
  stroke="black" 
  stroke-width="1"
  style="overflow:visible"
  viewBox="0, -0.0406, 1, 0.0812"
  xmlns="http://www.w3.org/2000/svg">
    <title>HQ 0/9 AIRFOIL</title>
    <path 
      vector-effect="non-scaling-stroke"
      d="M1,-0L0.9989,-0L0.9957,-0.0002L0.9904,-0.0005L0.983,-0.0009L0.9734,-0.0014L0.9619,-0.002L0.9484,-0.0028L0.933,-0.0038L0.9158,-0.0051L0.8967,-0.0065L0.8759,-0.008L0.8536,-0.0096L0.8297,-0.0115L0.8043,-0.0137L0.7778,-0.016L0.75,-0.0184L0.7211,-0.0209L0.6913,-0.0235L0.6607,-0.0261L0.6294,-0.0287L0.5976,-0.0311L0.5652,-0.0333L0.5327,-0.0352L0.5,-0.0368L0.4673,-0.0381L0.4348,-0.039L0.4024,-0.0398L0.3706,-0.0404L0.3393,-0.0406L0.3087,-0.0403L0.2789,-0.0398L0.25,-0.0391L0.2222,-0.0381L0.1957,-0.037L0.1703,-0.0359L0.1464,-0.0342L0.1241,-0.0321L0.1033,-0.0298L0.0842,-0.0273L0.067,-0.0247L0.0516,-0.022L0.0381,-0.019L0.0266,-0.016L0.017,-0.0127L0.0096,-0.0095L0.0043,-0.0061L0.0011,-0.0026L0,-0L0.0011,0.0026L0.0043,0.0061L0.0096,0.0095L0.017,0.0127L0.0266,0.016L0.0381,0.019L0.0516,0.022L0.067,0.0247L0.0842,0.0273L0.1033,0.0298L0.1241,0.0321L0.1464,0.0342L0.1703,0.0359L0.1957,0.037L0.2222,0.0381L0.25,0.0391L0.2789,0.0398L0.3087,0.0403L0.3393,0.0406L0.3706,0.0404L0.4024,0.0398L0.4348,0.039L0.4673,0.0381L0.5,0.0368L0.5327,0.0352L0.5652,0.0333L0.5976,0.0311L0.6294,0.0287L0.6607,0.0261L0.6913,0.0235L0.7211,0.0209L0.75,0.0184L0.7778,0.016L0.8043,0.0137L0.8297,0.0115L0.8536,0.0096L0.8759,0.008L0.8967,0.0065L0.9158,0.0051L0.933,0.0038L0.9484,0.0028L0.9619,0.002L0.9734,0.0014L0.983,0.0009L0.9904,0.0005L0.9957,0.0002L0.9989,0L1,-0"
    />
</svg>
