
<svg 
  class="airfoil-hq1012"
  fill="none"
  stroke="black" 
  stroke-width="1"
  style="overflow:visible"
  viewBox="0, -0.0694, 1, 0.1197"
  xmlns="http://www.w3.org/2000/svg">
    <title>HQ 1.0/12 AIRFOIL</title>
    <path 
      vector-effect="non-scaling-stroke"
      d="M1,-0L0.975,-0.003L0.95,-0.0063L0.925,-0.0098L0.9,-0.0132L0.875,-0.0167L0.85,-0.0203L0.825,-0.024L0.8,-0.0277L0.75,-0.0351L0.7,-0.0423L0.65,-0.049L0.6,-0.0551L0.55,-0.0603L0.5,-0.0643L0.45,-0.0671L0.4,-0.0688L0.375,-0.0693L0.35,-0.0694L0.325,-0.0692L0.3,-0.0686L0.275,-0.0677L0.25,-0.0665L0.225,-0.065L0.2,-0.0633L0.175,-0.061L0.15,-0.0581L0.125,-0.0543L0.1,-0.0496L0.075,-0.0436L0.05,-0.0359L0.0375,-0.0311L0.025,-0.0251L0.0188,-0.0215L0.0125,-0.0171L0.0088,-0.0139L0.005,-0.0101L0.0025,-0.0068L0,-0L0.0025,0.0057L0.005,0.0084L0.0088,0.0115L0.0125,0.014L0.0188,0.0175L0.025,0.0202L0.0375,0.0246L0.05,0.0281L0.075,0.0335L0.1,0.0375L0.125,0.0408L0.15,0.0434L0.175,0.0454L0.2,0.0468L0.225,0.048L0.25,0.0488L0.275,0.0495L0.3,0.05L0.325,0.0503L0.35,0.0502L0.375,0.0498L0.4,0.0492L0.45,0.0472L0.5,0.0443L0.55,0.0404L0.6,0.0357L0.65,0.0304L0.7,0.0248L0.75,0.0192L0.8,0.0138L0.825,0.0114L0.85,0.0091L0.875,0.0071L0.9,0.0053L0.925,0.0038L0.95,0.0022L0.975,0.001L1,-0"
    />
</svg>
