
<svg 
  class="airfoil-hq109"
  fill="none"
  stroke="black" 
  stroke-width="1"
  style="overflow:visible"
  viewBox="0, -0.0545, 1, 0.0899"
  xmlns="http://www.w3.org/2000/svg">
    <title>HQ 1.0/9 AIRFOIL</title>
    <path 
      vector-effect="non-scaling-stroke"
      d="M1,-0L0.975,-0.0025L0.95,-0.0053L0.925,-0.0081L0.9,-0.0109L0.875,-0.0137L0.85,-0.0166L0.825,-0.0195L0.8,-0.0225L0.75,-0.0284L0.7,-0.0341L0.65,-0.0392L0.6,-0.0438L0.55,-0.0477L0.5,-0.0507L0.45,-0.0528L0.4,-0.0541L0.375,-0.0544L0.35,-0.0545L0.325,-0.0543L0.3,-0.0538L0.275,-0.053L0.25,-0.0521L0.225,-0.0509L0.2,-0.0495L0.175,-0.0477L0.15,-0.0454L0.125,-0.0424L0.1,-0.0387L0.075,-0.034L0.05,-0.0279L0.0375,-0.0241L0.025,-0.0194L0.0188,-0.0166L0.0125,-0.0132L0.0088,-0.0107L0.005,-0.0078L0.0025,-0.0052L0,-0L0.0025,0.0041L0.005,0.006L0.0088,0.0083L0.0125,0.0101L0.0188,0.0126L0.025,0.0146L0.0375,0.0177L0.05,0.0201L0.075,0.0239L0.1,0.0267L0.125,0.0289L0.15,0.0306L0.175,0.0318L0.2,0.0328L0.225,0.0336L0.25,0.0343L0.275,0.0349L0.3,0.0352L0.325,0.0354L0.35,0.0353L0.375,0.0349L0.4,0.0344L0.45,0.0329L0.5,0.0307L0.55,0.0278L0.6,0.0244L0.65,0.0205L0.7,0.0165L0.75,0.0125L0.8,0.0087L0.825,0.007L0.85,0.0054L0.875,0.0041L0.9,0.003L0.925,0.0021L0.95,0.0012L0.975,0.0004L1,-0"
    />
</svg>
