
<svg 
  class="airfoil-hq108"
  fill="none"
  stroke="black" 
  stroke-width="1"
  style="overflow:visible"
  viewBox="0, -0.0494, 1, 0.0798"
  xmlns="http://www.w3.org/2000/svg">
    <title>HQ 1.0/8 AIRFOIL</title>
    <path 
      vector-effect="non-scaling-stroke"
      d="M1,-0L0.975,-0.0023L0.95,-0.0049L0.925,-0.0076L0.9,-0.0101L0.875,-0.0127L0.85,-0.0154L0.825,-0.0181L0.8,-0.0208L0.75,-0.0262L0.7,-0.0313L0.65,-0.0359L0.6,-0.04L0.55,-0.0435L0.5,-0.0462L0.45,-0.048L0.4,-0.0491L0.375,-0.0494L0.35,-0.0494L0.325,-0.0493L0.3,-0.0489L0.275,-0.0482L0.25,-0.0473L0.225,-0.0462L0.2,-0.0449L0.175,-0.0433L0.15,-0.0412L0.125,-0.0385L0.1,-0.0351L0.075,-0.0308L0.05,-0.0252L0.0375,-0.0218L0.025,-0.0175L0.0188,-0.015L0.0125,-0.0119L0.0088,-0.0097L0.005,-0.007L0.0025,-0.0047L0,-0L0.0025,0.0036L0.005,0.0053L0.0088,0.0072L0.0125,0.0088L0.0188,0.011L0.025,0.0127L0.0375,0.0154L0.05,0.0174L0.075,0.0206L0.1,0.0231L0.125,0.025L0.15,0.0265L0.175,0.0276L0.2,0.0285L0.225,0.0291L0.25,0.0297L0.275,0.03L0.3,0.0303L0.325,0.0304L0.35,0.0303L0.375,0.03L0.4,0.0295L0.45,0.0281L0.5,0.0262L0.55,0.0237L0.6,0.0206L0.65,0.0172L0.7,0.0137L0.75,0.0102L0.8,0.0069L0.825,0.0055L0.85,0.0042L0.875,0.0031L0.9,0.0022L0.925,0.0015L0.95,0.0008L0.975,0.0003L1,-0"
    />
</svg>
