
<svg 
  class="airfoil-hq1010"
  fill="none"
  stroke="black" 
  stroke-width="1"
  style="overflow:visible"
  viewBox="0, -0.0594, 1, 0.099700004"
  xmlns="http://www.w3.org/2000/svg">
    <title>HQ 1.0/10 AIRFOIL</title>
    <path 
      vector-effect="non-scaling-stroke"
      d="M1,-0L0.975,-0.0027L0.95,-0.0057L0.925,-0.0087L0.9,-0.0117L0.875,-0.0147L0.85,-0.0178L0.825,-0.021L0.8,-0.0243L0.75,-0.0307L0.7,-0.0369L0.65,-0.0425L0.6,-0.0476L0.55,-0.0519L0.5,-0.0552L0.45,-0.0576L0.4,-0.059L0.375,-0.0593L0.35,-0.0594L0.325,-0.0592L0.3,-0.0587L0.275,-0.0579L0.25,-0.0569L0.225,-0.0556L0.2,-0.0541L0.175,-0.0522L0.15,-0.0497L0.125,-0.0464L0.1,-0.0423L0.075,-0.0372L0.05,-0.0305L0.0375,-0.0264L0.025,-0.0213L0.0188,-0.0182L0.0125,-0.0144L0.0088,-0.0118L0.005,-0.0086L0.0025,-0.0057L0,-0L0.0025,0.0046L0.005,0.0068L0.0088,0.0094L0.0125,0.0114L0.0188,0.0143L0.025,0.0165L0.0375,0.02L0.05,0.0227L0.075,0.027L0.1,0.0303L0.125,0.0329L0.15,0.0349L0.175,0.0364L0.2,0.0376L0.225,0.0385L0.25,0.0392L0.275,0.0397L0.3,0.0401L0.325,0.0403L0.35,0.0402L0.375,0.0399L0.4,0.0393L0.45,0.0377L0.5,0.0352L0.55,0.032L0.6,0.0282L0.65,0.0238L0.7,0.0193L0.75,0.0147L0.8,0.0104L0.825,0.0084L0.85,0.0067L0.875,0.0052L0.9,0.0038L0.925,0.0027L0.95,0.0016L0.975,0.0007L1,-0"
    />
</svg>
