
<svg 
  class="airfoil-hq1511"
  fill="none"
  stroke="black" 
  stroke-width="1"
  style="overflow:visible"
  viewBox="0, -0.0693, 1, 0.11"
  xmlns="http://www.w3.org/2000/svg">
    <title>HQ 1.5/11 AIRFOIL</title>
    <path 
      vector-effect="non-scaling-stroke"
      d="M1,-0L0.9989,-0.0001L0.9957,-0.0005L0.9904,-0.0012L0.983,-0.0022L0.9735,-0.0035L0.9619,-0.0051L0.9484,-0.007L0.933,-0.0094L0.9157,-0.012L0.8967,-0.0149L0.8759,-0.018L0.8536,-0.0213L0.8297,-0.0249L0.8044,-0.0288L0.7778,-0.0329L0.75,-0.037L0.7211,-0.0411L0.6913,-0.0452L0.6607,-0.0493L0.6294,-0.0531L0.5975,-0.0567L0.5653,-0.06L0.5327,-0.0627L0.5,-0.0649L0.4673,-0.0666L0.4347,-0.0677L0.4024,-0.0687L0.3706,-0.0693L0.3393,-0.0693L0.3087,-0.0686L0.2789,-0.0675L0.25,-0.0662L0.2222,-0.0644L0.1956,-0.0625L0.1703,-0.0603L0.1464,-0.0573L0.1241,-0.0537L0.1033,-0.0496L0.0843,-0.0452L0.067,-0.0406L0.0516,-0.0358L0.0381,-0.0307L0.0265,-0.0255L0.017,-0.0202L0.0096,-0.015L0.0043,-0.01L0.0011,-0.0052L0,-0L0.0011,0.0032L0.0043,0.0066L0.0096,0.0106L0.017,0.0144L0.0265,0.0178L0.0381,0.0209L0.0516,0.0238L0.067,0.0264L0.0843,0.0289L0.1033,0.0312L0.1241,0.0335L0.1464,0.0355L0.1703,0.037L0.1956,0.038L0.2222,0.0389L0.25,0.0397L0.2789,0.0403L0.3087,0.0406L0.3393,0.0407L0.3706,0.0403L0.4024,0.0393L0.4347,0.0381L0.4673,0.0367L0.5,0.0349L0.5327,0.0328L0.5653,0.0304L0.5975,0.0276L0.6294,0.0246L0.6607,0.0215L0.6913,0.0185L0.7211,0.0156L0.75,0.013L0.7778,0.0105L0.8044,0.0083L0.8297,0.0064L0.8536,0.0049L0.8759,0.0036L0.8967,0.0026L0.9157,0.0018L0.933,0.0011L0.9484,0.0006L0.9619,0.0003L0.9735,0.0002L0.983,0.0001L0.9904,0L0.9957,0L0.9989,-0L1,-0"
    />
</svg>
