
<svg 
  class="airfoil-hq159"
  fill="none"
  stroke="black" 
  stroke-width="1"
  style="overflow:visible"
  viewBox="0, -0.0592, 1, 0.0898"
  xmlns="http://www.w3.org/2000/svg">
    <title>HQ 1.5/9 AIRFOIL</title>
    <path 
      vector-effect="non-scaling-stroke"
      d="M1,-0L0.975,-0.003L0.95,-0.0063L0.925,-0.0097L0.9,-0.0129L0.875,-0.0161L0.85,-0.0194L0.825,-0.0227L0.8,-0.026L0.75,-0.0325L0.7,-0.0384L0.65,-0.0439L0.6,-0.0487L0.55,-0.0526L0.5,-0.0556L0.45,-0.0577L0.4,-0.0589L0.375,-0.0592L0.35,-0.0592L0.325,-0.059L0.3,-0.0584L0.275,-0.0575L0.25,-0.0565L0.225,-0.0552L0.2,-0.0536L0.175,-0.0516L0.15,-0.0491L0.125,-0.0458L0.1,-0.0417L0.075,-0.0365L0.05,-0.0299L0.0375,-0.0258L0.025,-0.0209L0.0188,-0.018L0.0125,-0.0144L0.0088,-0.0118L0.005,-0.0086L0.0025,-0.0056L0,-0L0.0025,0.0038L0.005,0.0056L0.0088,0.0077L0.0125,0.0093L0.0188,0.0116L0.025,0.0133L0.0375,0.016L0.05,0.0181L0.075,0.0213L0.1,0.0237L0.125,0.0256L0.15,0.027L0.175,0.0281L0.2,0.0289L0.225,0.0295L0.25,0.03L0.275,0.0304L0.3,0.0306L0.325,0.0306L0.35,0.0305L0.375,0.0301L0.4,0.0295L0.45,0.0279L0.5,0.0257L0.55,0.0228L0.6,0.0195L0.65,0.0158L0.7,0.0121L0.75,0.0085L0.8,0.0052L0.825,0.0038L0.85,0.0026L0.875,0.0018L0.9,0.0011L0.925,0.0007L0.95,0.0003L0.975,0L1,-0"
    />
</svg>
