
<svg 
  class="airfoil-hq1585"
  fill="none"
  stroke="black" 
  stroke-width="1"
  style="overflow:visible"
  viewBox="0, -0.0568, 1, 0.0864"
  xmlns="http://www.w3.org/2000/svg">
    <title>HQ 1.5/8.5 AIRFOIL</title>
    <path 
      vector-effect="non-scaling-stroke"
      d="M1,-0L0.95,-0.0057L0.9,-0.0117L0.85,-0.0181L0.8,-0.0242L0.7,-0.037L0.6,-0.0469L0.5,-0.0536L0.4,-0.0565L0.35,-0.0568L0.3,-0.0561L0.25,-0.0546L0.2,-0.0518L0.15,-0.0475L0.1,-0.0403L0.05,-0.0289L0.025,-0.0201L0.0125,-0.0142L0.005,-0.0083L0,-0L0.005,0.0064L0.0125,0.0101L0.025,0.0138L0.05,0.0184L0.1,0.0243L0.15,0.0275L0.2,0.029L0.25,0.0296L0.3,0.0294L0.35,0.0288L0.4,0.0277L0.5,0.0237L0.6,0.0178L0.7,0.0106L0.8,0.0035L0.85,0.0016L0.9,0.0003L0.95,-0.0003L1,-0"
    />
</svg>
