
<svg 
  class="airfoil-hq1512"
  fill="none"
  stroke="black" 
  stroke-width="1"
  style="overflow:visible"
  viewBox="0, -0.0742, 1, 0.1197"
  xmlns="http://www.w3.org/2000/svg">
    <title>HQ 1.5/12 AIRFOIL</title>
    <path 
      vector-effect="non-scaling-stroke"
      d="M1,-0L0.975,-0.0036L0.95,-0.0074L0.925,-0.0114L0.9,-0.0152L0.875,-0.0191L0.85,-0.0231L0.825,-0.0271L0.8,-0.0312L0.75,-0.0392L0.7,-0.0467L0.65,-0.0537L0.6,-0.06L0.55,-0.0652L0.5,-0.0693L0.45,-0.0721L0.4,-0.0737L0.375,-0.0741L0.35,-0.0742L0.325,-0.0739L0.3,-0.0732L0.275,-0.0722L0.25,-0.0708L0.225,-0.0693L0.2,-0.0674L0.175,-0.065L0.15,-0.0618L0.125,-0.0577L0.1,-0.0526L0.075,-0.0461L0.05,-0.0379L0.0375,-0.0329L0.025,-0.0269L0.0188,-0.0232L0.0125,-0.0188L0.0088,-0.0155L0.005,-0.0112L0.0025,-0.0073L0,-0L0.0025,0.0054L0.005,0.008L0.0088,0.0108L0.0125,0.013L0.0188,0.0161L0.025,0.0186L0.0375,0.0227L0.05,0.0259L0.075,0.0309L0.1,0.0346L0.125,0.0375L0.15,0.0397L0.175,0.0414L0.2,0.0427L0.225,0.0437L0.25,0.0444L0.275,0.045L0.3,0.0454L0.325,0.0455L0.35,0.0454L0.375,0.045L0.4,0.0443L0.45,0.0423L0.5,0.0393L0.55,0.0355L0.6,0.0308L0.65,0.0257L0.7,0.0204L0.75,0.0152L0.8,0.0104L0.825,0.0082L0.85,0.0063L0.875,0.0047L0.9,0.0033L0.925,0.0023L0.95,0.0012L0.975,0.0004L1,-0"
    />
</svg>
