
<svg 
  class="airfoil-hq1510"
  fill="none"
  stroke="black" 
  stroke-width="1"
  style="overflow:visible"
  viewBox="0, -0.0642, 1, 0.0998"
  xmlns="http://www.w3.org/2000/svg">
    <title>HQ 1.5/10 AIRFOIL</title>
    <path 
      vector-effect="non-scaling-stroke"
      d="M1,-0L0.975,-0.0032L0.95,-0.0067L0.925,-0.0102L0.9,-0.0136L0.875,-0.0171L0.85,-0.0206L0.825,-0.0242L0.8,-0.0278L0.75,-0.0347L0.7,-0.0413L0.65,-0.0472L0.6,-0.0525L0.55,-0.0568L0.5,-0.0602L0.45,-0.0625L0.4,-0.0639L0.375,-0.0642L0.35,-0.0642L0.325,-0.064L0.3,-0.0634L0.275,-0.0624L0.25,-0.0613L0.225,-0.0599L0.2,-0.0582L0.175,-0.0561L0.15,-0.0534L0.125,-0.0498L0.1,-0.0453L0.075,-0.0397L0.05,-0.0326L0.0375,-0.0282L0.025,-0.0229L0.0188,-0.0197L0.0125,-0.0158L0.0088,-0.013L0.005,-0.0094L0.0025,-0.0061L0,-0L0.0025,0.0043L0.005,0.0063L0.0088,0.0087L0.0125,0.0107L0.0188,0.0133L0.025,0.0153L0.0375,0.0184L0.05,0.0208L0.075,0.0245L0.1,0.0273L0.125,0.0295L0.15,0.0312L0.175,0.0325L0.2,0.0335L0.225,0.0343L0.25,0.0348L0.275,0.0352L0.3,0.0355L0.325,0.0356L0.35,0.0354L0.375,0.035L0.4,0.0344L0.45,0.0327L0.5,0.0302L0.55,0.0271L0.6,0.0233L0.65,0.0192L0.7,0.0149L0.75,0.0107L0.8,0.0069L0.825,0.0053L0.85,0.0038L0.875,0.0027L0.9,0.0018L0.925,0.0012L0.95,0.0005L0.975,0.0001L1,-0"
    />
</svg>
