
<svg 
  class="airfoil-hq159b"
  fill="none"
  stroke="black" 
  stroke-width="1"
  style="overflow:visible"
  viewBox="0, -0.0593, 1, 0.0899"
  xmlns="http://www.w3.org/2000/svg">
    <title>HQ 1.5/9 B AIRFOIL</title>
    <path 
      vector-effect="non-scaling-stroke"
      d="M1,-0L0.9957,-0.0005L0.983,-0.002L0.9619,-0.0046L0.933,-0.0084L0.8967,-0.0133L0.8536,-0.0189L0.8044,-0.0254L0.75,-0.0324L0.6913,-0.0394L0.6294,-0.046L0.5653,-0.0517L0.5,-0.0558L0.4347,-0.058L0.3706,-0.0593L0.3087,-0.0586L0.25,-0.0565L0.1956,-0.0533L0.1464,-0.0488L0.1033,-0.0422L0.067,-0.0345L0.0381,-0.026L0.017,-0.017L0.0043,-0.0085L0,-0L0.0043,0.005L0.017,0.0112L0.0381,0.0162L0.067,0.0203L0.1033,0.0238L0.1464,0.027L0.1956,0.0288L0.25,0.0301L0.3087,0.0306L0.3706,0.0302L0.4347,0.0284L0.5,0.0258L0.5653,0.0221L0.6294,0.0175L0.6913,0.0127L0.75,0.0084L0.8044,0.0049L0.8536,0.0025L0.8967,0.001L0.933,0.0001L0.9619,-0.0002L0.983,-0.0001L0.9957,-0L1,-0"
    />
</svg>
