
<svg 
  class="airfoil-hq158"
  fill="none"
  stroke="black" 
  stroke-width="1"
  style="overflow:visible"
  viewBox="0, -0.0541, 1, 0.0797"
  xmlns="http://www.w3.org/2000/svg">
    <title>HQ 1.5/8 AIRFOIL</title>
    <path 
      vector-effect="non-scaling-stroke"
      d="M1,-0L0.975,-0.0028L0.95,-0.0059L0.925,-0.0091L0.9,-0.0121L0.875,-0.0151L0.85,-0.0182L0.825,-0.0213L0.8,-0.0243L0.75,-0.0302L0.7,-0.0356L0.65,-0.0406L0.6,-0.0449L0.55,-0.0484L0.5,-0.051L0.45,-0.0528L0.4,-0.0538L0.375,-0.054L0.35,-0.0541L0.325,-0.054L0.3,-0.0525L0.275,-0.0527L0.25,-0.0517L0.225,-0.0505L0.2,-0.049L0.175,-0.0472L0.15,-0.0449L0.125,-0.0419L0.1,-0.0381L0.075,-0.0333L0.05,-0.0272L0.0375,-0.0235L0.025,-0.0189L0.0188,-0.0162L0.0125,-0.0129L0.0088,-0.0106L0.005,-0.0077L0.0025,-0.005L0,-0L0.0025,0.0033L0.005,0.0048L0.0088,0.0066L0.0125,0.0081L0.0188,0.01L0.025,0.0115L0.0375,0.0138L0.05,0.0155L0.075,0.0181L0.1,0.0201L0.125,0.0216L0.15,0.0228L0.175,0.0237L0.2,0.0244L0.225,0.0249L0.25,0.0252L0.275,0.0255L0.3,0.0256L0.325,0.0256L0.35,0.0255L0.375,0.0251L0.4,0.0246L0.45,0.0232L0.5,0.0212L0.55,0.0187L0.6,0.0157L0.65,0.0125L0.7,0.0093L0.75,0.0062L0.8,0.0035L0.825,0.0023L0.85,0.0014L0.875,0.0009L0.9,0.0005L0.925,0.0004L0.95,0.0003L0.975,0.0002L1,-0"
    />
</svg>
