
<svg 
  class="airfoil-hq17"
  fill="none"
  stroke="black" 
  stroke-width="1"
  style="overflow:visible"
  viewBox="0, -0.1212, 1, 0.1522"
  xmlns="http://www.w3.org/2000/svg">
    <title>HORSTMANN AND QUAST HQ-17/14.38 AIRFOIL (MEASURED)</title>
    <path 
      vector-effect="non-scaling-stroke"
      d="M1,-0L0.9831,-0.0047L0.9596,-0.0115L0.9362,-0.0188L0.9127,-0.0257L0.8892,-0.0335L0.8658,-0.0413L0.8423,-0.0485L0.8189,-0.0563L0.7954,-0.0638L0.7719,-0.0713L0.7485,-0.0779L0.725,-0.0845L0.7016,-0.0901L0.6781,-0.0957L0.6546,-0.1004L0.6312,-0.1051L0.6077,-0.1089L0.5842,-0.112L0.5608,-0.1149L0.5373,-0.1173L0.5138,-0.1191L0.4904,-0.1203L0.4669,-0.121L0.4435,-0.1212L0.42,-0.1212L0.3965,-0.1205L0.3731,-0.1192L0.3496,-0.1176L0.3261,-0.1154L0.298,-0.1126L0.2698,-0.1089L0.2417,-0.1043L0.2135,-0.0992L0.1854,-0.0933L0.1572,-0.0862L0.1291,-0.0779L0.1009,-0.0685L0.0821,-0.061L0.0633,-0.0526L0.054,-0.0479L0.0446,-0.0432L0.0352,-0.0375L0.0258,-0.0313L0.0164,-0.0235L0.007,-0.0141L0.0023,-0.0066L0,-0L0.0023,0.0047L0.007,0.0084L0.0164,0.0118L0.0258,0.0141L0.0352,0.0159L0.0446,0.0175L0.054,0.0189L0.0633,0.0202L0.0821,0.0221L0.1009,0.0236L0.1291,0.0252L0.1572,0.0264L0.1854,0.0274L0.2135,0.0282L0.2417,0.029L0.2698,0.0297L0.298,0.0302L0.3261,0.0307L0.3496,0.0309L0.3731,0.0309L0.3965,0.031L0.42,0.031L0.4435,0.031L0.4669,0.0309L0.4904,0.0306L0.5138,0.03L0.5373,0.0293L0.5608,0.0285L0.5842,0.0275L0.6077,0.0264L0.6312,0.025L0.6546,0.0236L0.6781,0.0218L0.7016,0.0198L0.725,0.0175L0.7485,0.0148L0.7719,0.0115L0.7954,0.0084L0.8189,0.0047L0.8423,0.0014L0.8658,-0.0019L0.8892,-0.0037L0.9127,-0.0042L0.9362,-0.0037L0.9596,-0.0025L0.9831,-0.001L1,-0"
    />
</svg>
