
<svg 
  class="airfoil-hq2012"
  fill="none"
  stroke="black" 
  stroke-width="1"
  style="overflow:visible"
  viewBox="0, -0.079, 1, 0.1198"
  xmlns="http://www.w3.org/2000/svg">
    <title>HQ 2.0/12 AIRFOIL</title>
    <path 
      vector-effect="non-scaling-stroke"
      d="M1,-0L0.975,-0.0041L0.95,-0.0084L0.925,-0.0128L0.9,-0.017L0.875,-0.0213L0.85,-0.0256L0.825,-0.0301L0.8,-0.0346L0.75,-0.0432L0.7,-0.0512L0.65,-0.0584L0.6,-0.0649L0.55,-0.0702L0.5,-0.0743L0.45,-0.0771L0.4,-0.0786L0.375,-0.079L0.35,-0.079L0.325,-0.0786L0.3,-0.0779L0.275,-0.0767L0.25,-0.0753L0.225,-0.0736L0.2,-0.0715L0.175,-0.0689L0.15,-0.0655L0.125,-0.0611L0.1,-0.0556L0.075,-0.0487L0.05,-0.0399L0.0375,-0.0345L0.025,-0.0281L0.0188,-0.0242L0.0125,-0.0195L0.0088,-0.016L0.005,-0.0116L0.0025,-0.0075L0,-0L0.0025,0.0051L0.005,0.0075L0.0088,0.0103L0.0125,0.0125L0.0188,0.0155L0.025,0.0178L0.0375,0.0214L0.05,0.0243L0.075,0.0286L0.1,0.0318L0.125,0.0342L0.15,0.036L0.175,0.0375L0.2,0.0385L0.225,0.0394L0.25,0.04L0.275,0.0404L0.3,0.0407L0.325,0.0408L0.35,0.0407L0.375,0.0403L0.4,0.0396L0.45,0.0375L0.5,0.0344L0.55,0.0305L0.6,0.026L0.65,0.021L0.7,0.016L0.75,0.0111L0.8,0.0069L0.825,0.0051L0.85,0.0035L0.875,0.0023L0.9,0.0014L0.925,0.0009L0.95,0.0003L0.975,0L1,-0"
    />
</svg>
