
<svg 
  class="airfoil-hq208"
  fill="none"
  stroke="black" 
  stroke-width="1"
  style="overflow:visible"
  viewBox="0, -0.0591, 1, 0.0801"
  xmlns="http://www.w3.org/2000/svg">
    <title>HQ 2.0/8 AIRFOIL</title>
    <path 
      vector-effect="non-scaling-stroke"
      d="M1,-0L0.975,-0.0034L0.95,-0.007L0.925,-0.0105L0.9,-0.0139L0.875,-0.0174L0.85,-0.0208L0.825,-0.0242L0.8,-0.0277L0.75,-0.0342L0.7,-0.0401L0.65,-0.0452L0.6,-0.0497L0.55,-0.0534L0.5,-0.0561L0.45,-0.058L0.4,-0.0589L0.375,-0.0591L0.35,-0.059L0.325,-0.0587L0.3,-0.0581L0.275,-0.0572L0.25,-0.0561L0.225,-0.0547L0.2,-0.0531L0.175,-0.0512L0.15,-0.0486L0.125,-0.0453L0.1,-0.0411L0.075,-0.0358L0.05,-0.0292L0.0375,-0.0251L0.025,-0.0203L0.0188,-0.0175L0.0125,-0.014L0.0088,-0.0115L0.005,-0.0083L0.0025,-0.0054L0,-0L0.0025,0.003L0.005,0.0044L0.0088,0.006L0.0125,0.0073L0.0188,0.009L0.025,0.0102L0.0375,0.0121L0.05,0.0136L0.075,0.0156L0.1,0.0171L0.125,0.0183L0.15,0.0192L0.175,0.0198L0.2,0.0202L0.225,0.0206L0.25,0.0208L0.275,0.0209L0.3,0.021L0.325,0.0209L0.35,0.0207L0.375,0.0203L0.4,0.0198L0.45,0.0183L0.5,0.0162L0.55,0.0138L0.6,0.0109L0.65,0.0079L0.7,0.0049L0.75,0.0022L0.8,-0L0.825,-0.0008L0.85,-0.0014L0.875,-0.0016L0.9,-0.0017L0.925,-0.0015L0.95,-0.0012L0.975,-0.0008L1,-0"
    />
</svg>
