
<svg 
  class="airfoil-hq2090sm"
  fill="none"
  stroke="black" 
  stroke-width="1"
  style="overflow:visible"
  viewBox="0, -0.0639, 1, 0.09"
  xmlns="http://www.w3.org/2000/svg">
    <title>HQ-2.0/9 9.0% smoothed</title>
    <path 
      vector-effect="non-scaling-stroke"
      d="M1,-0L0.95,-0.0071L0.9,-0.0149L0.85,-0.0223L0.8,-0.0295L0.7,-0.0428L0.6,-0.0536L0.5,-0.0606L0.4,-0.0637L0.35,-0.0639L0.3,-0.063L0.25,-0.0609L0.2,-0.0576L0.15,-0.0524L0.1,-0.0445L0.05,-0.0319L0.025,-0.0224L0.0125,-0.0156L0.005,-0.0095L0,-0L0.005,0.0051L0.0125,0.0087L0.025,0.0122L0.05,0.0163L0.1,0.0207L0.15,0.0232L0.2,0.0248L0.25,0.0257L0.3,0.0261L0.35,0.0258L0.4,0.0248L0.5,0.0208L0.6,0.0149L0.7,0.0076L0.8,0.0017L0.85,-0.0001L0.9,-0.0011L0.95,-0.0011L1,-0"
    />
</svg>
