
<svg 
  class="airfoil-hq2010"
  fill="none"
  stroke="black" 
  stroke-width="1"
  style="overflow:visible"
  viewBox="0, -0.069, 1, 0.0999"
  xmlns="http://www.w3.org/2000/svg">
    <title>HQ 2.0/10 AIRFOIL</title>
    <path 
      vector-effect="non-scaling-stroke"
      d="M1,-0L0.975,-0.0037L0.95,-0.0077L0.925,-0.0116L0.9,-0.0155L0.875,-0.0193L0.85,-0.0232L0.825,-0.0271L0.8,-0.0311L0.75,-0.0387L0.7,-0.0457L0.65,-0.0519L0.6,-0.0573L0.55,-0.0618L0.5,-0.0652L0.45,-0.0677L0.4,-0.0688L0.375,-0.069L0.35,-0.069L0.325,-0.0687L0.3,-0.068L0.275,-0.067L0.25,-0.0657L0.225,-0.0642L0.2,-0.0623L0.175,-0.06L0.15,-0.0571L0.125,-0.0532L0.1,-0.0483L0.075,-0.0422L0.05,-0.0345L0.0375,-0.0298L0.025,-0.0242L0.0188,-0.0208L0.0125,-0.0167L0.0088,-0.0137L0.005,-0.0099L0.0025,-0.0064L0,-0L0.0025,0.004L0.005,0.0059L0.0088,0.0081L0.0125,0.0099L0.0188,0.0122L0.025,0.014L0.0375,0.0168L0.05,0.0189L0.075,0.0221L0.1,0.0245L0.125,0.0263L0.15,0.0277L0.175,0.0287L0.2,0.0294L0.225,0.03L0.25,0.0304L0.275,0.0307L0.3,0.0308L0.325,0.0309L0.35,0.0307L0.375,0.0303L0.4,0.0297L0.45,0.0279L0.5,0.0253L0.55,0.0222L0.6,0.0185L0.65,0.0145L0.7,0.0105L0.75,0.0068L0.8,0.0035L0.825,0.0021L0.85,0.0011L0.875,0.0003L0.9,-0.0002L0.925,-0.0003L0.95,-0.0005L0.975,-0.0004L1,-0"
    />
</svg>
