
<svg 
  class="airfoil-hq209"
  fill="none"
  stroke="black" 
  stroke-width="1"
  style="overflow:visible"
  viewBox="0, -0.064, 1, 0.0899"
  xmlns="http://www.w3.org/2000/svg">
    <title>HQ 2.0/9 AIRFOIL</title>
    <path 
      vector-effect="non-scaling-stroke"
      d="M1,-0L0.975,-0.0036L0.95,-0.0073L0.925,-0.0111L0.9,-0.0147L0.875,-0.0184L0.85,-0.022L0.825,-0.0257L0.8,-0.0294L0.75,-0.0365L0.7,-0.0429L0.65,-0.0485L0.6,-0.0535L0.55,-0.0575L0.5,-0.0606L0.45,-0.0627L0.4,-0.0638L0.375,-0.064L0.35,-0.064L0.325,-0.0637L0.3,-0.0631L0.275,-0.0621L0.25,-0.0609L0.225,-0.0595L0.2,-0.0577L0.175,-0.0556L0.15,-0.0528L0.125,-0.0492L0.1,-0.0447L0.075,-0.039L0.05,-0.0319L0.0375,-0.0275L0.025,-0.0223L0.0188,-0.0192L0.0125,-0.0154L0.0088,-0.0127L0.005,-0.0091L0.0025,-0.0059L0,-0L0.0025,0.0035L0.005,0.0052L0.0088,0.0071L0.0125,0.0086L0.0188,0.0106L0.025,0.0121L0.0375,0.0145L0.05,0.0163L0.075,0.0189L0.1,0.0208L0.125,0.0223L0.15,0.0234L0.175,0.0242L0.2,0.0248L0.225,0.0253L0.25,0.0256L0.275,0.0258L0.3,0.0259L0.325,0.0259L0.35,0.0257L0.375,0.0253L0.4,0.0247L0.45,0.023L0.5,0.0207L0.55,0.0179L0.6,0.0147L0.65,0.0112L0.7,0.0077L0.75,0.0044L0.8,0.0017L0.825,0.0006L0.85,-0.0002L0.875,-0.0007L0.9,-0.0009L0.925,-0.0009L0.95,-0.0009L0.975,-0.0005L1,-0"
    />
</svg>
