
<svg 
  class="airfoil-hq2195"
  fill="none"
  stroke="black" 
  stroke-width="1"
  style="overflow:visible"
  viewBox="0, -0.0668, 1, 0.0953"
  xmlns="http://www.w3.org/2000/svg">
    <title>HQ 2.1/9.5 AIRFOIL</title>
    <path 
      vector-effect="non-scaling-stroke"
      d="M1,-0L0.9944,-0.0009L0.9776,-0.0037L0.95,-0.0081L0.927,-0.0119L0.9,-0.0161L0.85,-0.024L0.8,-0.0317L0.75,-0.0391L0.7,-0.0459L0.65,-0.0523L0.6,-0.0575L0.55,-0.0613L0.5,-0.0638L0.45,-0.0655L0.4,-0.0665L0.35,-0.0668L0.3,-0.0662L0.25,-0.0646L0.2,-0.0613L0.15,-0.0557L0.1,-0.0472L0.05,-0.0346L0.025,-0.0249L0.0125,-0.0178L0.005,-0.0117L0,-0L0.005,0.0069L0.0125,0.0105L0.025,0.014L0.05,0.018L0.1,0.0224L0.15,0.0251L0.2,0.027L0.25,0.0281L0.3,0.0285L0.35,0.0281L0.4,0.027L0.45,0.025L0.5,0.0223L0.55,0.0193L0.6,0.0159L0.65,0.0119L0.7,0.008L0.75,0.0046L0.8,0.0016L0.85,-0.0009L0.9,-0.0023L0.927,-0.0023L0.95,-0.0018L0.9776,-0.0009L0.9944,-0.0002L1,-0"
    />
</svg>
