
<svg 
  class="airfoil-hq2512"
  fill="none"
  stroke="black" 
  stroke-width="1"
  style="overflow:visible"
  viewBox="0, -0.0838, 1, 0.1199"
  xmlns="http://www.w3.org/2000/svg">
    <title>HQ 2.5/12 AIRFOIL</title>
    <path 
      vector-effect="non-scaling-stroke"
      d="M1,-0L0.975,-0.0045L0.95,-0.0094L0.925,-0.0144L0.9,-0.0191L0.875,-0.0239L0.85,-0.0287L0.825,-0.0334L0.8,-0.0381L0.75,-0.0471L0.7,-0.0555L0.65,-0.063L0.6,-0.0697L0.55,-0.0751L0.5,-0.0793L0.45,-0.0821L0.4,-0.0836L0.375,-0.0838L0.35,-0.0838L0.325,-0.0833L0.3,-0.0825L0.275,-0.0813L0.25,-0.0797L0.225,-0.0778L0.2,-0.0754L0.175,-0.0725L0.15,-0.0688L0.125,-0.0641L0.1,-0.0584L0.075,-0.0512L0.05,-0.0418L0.0375,-0.0359L0.025,-0.0286L0.0188,-0.0243L0.0125,-0.019L0.0088,-0.0153L0.005,-0.0109L0.0025,-0.007L0,-0L0.0025,0.0047L0.005,0.007L0.0088,0.0096L0.0125,0.0117L0.0188,0.0145L0.025,0.0166L0.0375,0.0198L0.05,0.0222L0.075,0.0258L0.1,0.0286L0.125,0.0307L0.15,0.0323L0.175,0.0336L0.2,0.0345L0.225,0.0351L0.25,0.0356L0.275,0.0359L0.3,0.0361L0.325,0.0361L0.35,0.0358L0.375,0.0353L0.4,0.0345L0.45,0.0323L0.5,0.0293L0.55,0.0256L0.6,0.0212L0.65,0.0164L0.7,0.0116L0.75,0.0072L0.8,0.0034L0.825,0.0019L0.85,0.0007L0.875,-0.0001L0.9,-0.0006L0.925,-0.0007L0.95,-0.0008L0.975,-0.0006L1,-0"
    />
</svg>
