
<svg 
  class="airfoil-hq258"
  fill="none"
  stroke="black" 
  stroke-width="1"
  style="overflow:visible"
  viewBox="0, -0.064, 1, 0.080400005"
  xmlns="http://www.w3.org/2000/svg">
    <title>HQ 2.5/8 AIRFOIL</title>
    <path 
      vector-effect="non-scaling-stroke"
      d="M1,-0L0.975,-0.0039L0.95,-0.008L0.925,-0.0121L0.9,-0.016L0.875,-0.0199L0.85,-0.0237L0.825,-0.0275L0.8,-0.0312L0.75,-0.0382L0.7,-0.0444L0.65,-0.0499L0.6,-0.0546L0.55,-0.0584L0.5,-0.0611L0.45,-0.063L0.4,-0.0639L0.375,-0.064L0.35,-0.0638L0.325,-0.0635L0.3,-0.0628L0.275,-0.0618L0.25,-0.0605L0.225,-0.059L0.2,-0.0571L0.175,-0.0547L0.15,-0.0518L0.125,-0.0483L0.1,-0.0439L0.075,-0.0384L0.05,-0.0311L0.0375,-0.0266L0.025,-0.0211L0.0188,-0.0178L0.0125,-0.0139L0.0088,-0.0112L0.005,-0.0079L0.0025,-0.005L0,-0L0.0025,0.0027L0.005,0.0039L0.0088,0.0054L0.0125,0.0065L0.0188,0.008L0.025,0.009L0.0375,0.0105L0.05,0.0115L0.075,0.013L0.1,0.0141L0.125,0.0148L0.15,0.0154L0.175,0.0159L0.2,0.0161L0.225,0.0163L0.25,0.0164L0.275,0.0164L0.3,0.0163L0.325,0.0162L0.35,0.0159L0.375,0.0154L0.4,0.0148L0.45,0.0132L0.5,0.0112L0.55,0.0088L0.6,0.006L0.65,0.0032L0.7,0.0005L0.75,-0.0018L0.8,-0.0035L0.825,-0.004L0.85,-0.0042L0.875,-0.004L0.9,-0.0037L0.925,-0.003L0.95,-0.0022L0.975,-0.0012L1,-0"
    />
</svg>
