
<svg 
  class="airfoil-hq2511"
  fill="none"
  stroke="black" 
  stroke-width="1"
  style="overflow:visible"
  viewBox="0, -0.079, 1, 0.1102"
  xmlns="http://www.w3.org/2000/svg">
    <title>HQ 2.5/11 AIRFOIL</title>
    <path 
      vector-effect="non-scaling-stroke"
      d="M1,-0L0.9989,-0.0002L0.9957,-0.0007L0.9904,-0.0016L0.983,-0.0029L0.9735,-0.0045L0.9619,-0.0066L0.9484,-0.0091L0.933,-0.0121L0.9157,-0.0154L0.8967,-0.019L0.8759,-0.0228L0.8536,-0.0268L0.8297,-0.031L0.8044,-0.0356L0.7778,-0.0403L0.75,-0.045L0.7211,-0.0496L0.6913,-0.0542L0.6607,-0.0585L0.6294,-0.0627L0.5975,-0.0664L0.5653,-0.0698L0.5327,-0.0727L0.5,-0.0749L0.4673,-0.0765L0.4347,-0.0777L0.4024,-0.0785L0.3706,-0.079L0.3393,-0.0789L0.3087,-0.078L0.2789,-0.0766L0.25,-0.075L0.2222,-0.073L0.1956,-0.0704L0.1703,-0.0675L0.1464,-0.0639L0.1241,-0.0599L0.1033,-0.0555L0.0843,-0.0508L0.067,-0.0457L0.0516,-0.0401L0.0381,-0.034L0.0265,-0.0276L0.017,-0.0212L0.0096,-0.0153L0.0043,-0.0102L0.0011,-0.0055L0,-0L0.0011,0.0027L0.0043,0.0055L0.0096,0.0091L0.017,0.0124L0.0265,0.0153L0.0381,0.0177L0.0516,0.0199L0.067,0.0217L0.0843,0.0235L0.1033,0.0251L0.1241,0.0267L0.1464,0.0281L0.1703,0.0291L0.1956,0.0298L0.2222,0.0304L0.25,0.031L0.2789,0.0312L0.3087,0.0312L0.3393,0.0311L0.3706,0.0306L0.4024,0.0295L0.4347,0.0282L0.4673,0.0267L0.5,0.0249L0.5327,0.0229L0.5653,0.0205L0.5975,0.0179L0.6294,0.0151L0.6607,0.0123L0.6913,0.0096L0.7211,0.0071L0.75,0.005L0.7778,0.0031L0.8044,0.0016L0.8297,0.0003L0.8536,-0.0007L0.8759,-0.0012L0.8967,-0.0015L0.9157,-0.0017L0.933,-0.0017L0.9484,-0.0016L0.9619,-0.0013L0.9735,-0.001L0.983,-0.0006L0.9904,-0.0004L0.9957,-0.0002L0.9989,-0L1,-0"
    />
</svg>
