
<svg 
  class="airfoil-hq259b"
  fill="none"
  stroke="black" 
  stroke-width="1"
  style="overflow:visible"
  viewBox="0, -0.0684, 1, 0.0907"
  xmlns="http://www.w3.org/2000/svg">
    <title>HQ 2.5/9 B AIRFOIL</title>
    <path 
      vector-effect="non-scaling-stroke"
      d="M1,-0L0.9944,-0.001L0.9776,-0.0041L0.95,-0.009L0.927,-0.0131L0.9,-0.0177L0.85,-0.026L0.8,-0.034L0.75,-0.0415L0.7,-0.0485L0.6501,-0.0548L0.6,-0.06L0.55,-0.0636L0.5,-0.066L0.45,-0.0675L0.4,-0.0683L0.35,-0.0684L0.3,-0.0678L0.25,-0.0661L0.2,-0.0627L0.15,-0.0569L0.1,-0.0481L0.05,-0.035L0.025,-0.0251L0.0125,-0.0179L0.005,-0.0118L0,-0L0.005,0.0059L0.0125,0.0091L0.025,0.0119L0.05,0.015L0.1,0.0182L0.15,0.02L0.2,0.0213L0.25,0.0221L0.3,0.0223L0.35,0.0219L0.4,0.0207L0.45,0.0186L0.5,0.016L0.55,0.0131L0.6,0.0098L0.65,0.0062L0.7,0.0028L0.75,-0L0.8,-0.0023L0.85,-0.004L0.9,-0.0045L0.927,-0.0039L0.95,-0.003L0.9776,-0.0014L0.9944,-0.0004L1,-0"
    />
</svg>
