
<svg 
  class="airfoil-hq2510"
  fill="none"
  stroke="black" 
  stroke-width="1"
  style="overflow:visible"
  viewBox="0, -0.0739, 1, 0.100099996"
  xmlns="http://www.w3.org/2000/svg">
    <title>HQ 2.5/10 AIRFOIL</title>
    <path 
      vector-effect="non-scaling-stroke"
      d="M1,-0L0.975,-0.0043L0.95,-0.0088L0.925,-0.0133L0.9,-0.0176L0.875,-0.022L0.85,-0.0262L0.825,-0.0305L0.8,-0.0347L0.75,-0.0427L0.7,-0.05L0.65,-0.0565L0.6,-0.0621L0.55,-0.0667L0.5,-0.0702L0.45,-0.0725L0.4,-0.0737L0.375,-0.0739L0.35,-0.0738L0.325,-0.0734L0.3,-0.0726L0.275,-0.0715L0.25,-0.0701L0.225,-0.0684L0.2,-0.0663L0.175,-0.0636L0.15,-0.0602L0.125,-0.0562L0.1,-0.0511L0.075,-0.0448L0.05,-0.0365L0.0375,-0.0313L0.025,-0.0249L0.0188,-0.021L0.0125,-0.0164L0.0088,-0.0132L0.005,-0.0093L0.0025,-0.0059L0,-0L0.0025,0.0037L0.005,0.0054L0.0088,0.0075L0.0125,0.0091L0.0188,0.0112L0.025,0.0128L0.0375,0.0152L0.05,0.0169L0.075,0.0195L0.1,0.0213L0.125,0.0228L0.15,0.0239L0.175,0.0247L0.2,0.0253L0.225,0.0257L0.25,0.026L0.275,0.0262L0.3,0.0262L0.325,0.0261L0.35,0.0259L0.375,0.0254L0.4,0.0247L0.45,0.0228L0.5,0.0203L0.55,0.0172L0.6,0.0136L0.65,0.0098L0.7,0.0061L0.75,0.0027L0.8,0L0.825,-0.001L0.85,-0.0017L0.875,-0.002L0.9,-0.0021L0.925,-0.0018L0.95,-0.0015L0.975,-0.0009L1,-0"
    />
</svg>
