
<svg 
  class="airfoil-hq259"
  fill="none"
  stroke="black" 
  stroke-width="1"
  style="overflow:visible"
  viewBox="0, -0.0689, 1, 0.09019999"
  xmlns="http://www.w3.org/2000/svg">
    <title>HQ 2.5/9 AIRFOIL</title>
    <path 
      vector-effect="non-scaling-stroke"
      d="M1,-0L0.975,-0.0041L0.95,-0.0084L0.925,-0.0126L0.9,-0.0168L0.875,-0.0209L0.85,-0.025L0.825,-0.029L0.8,-0.033L0.75,-0.0404L0.7,-0.0472L0.65,-0.0532L0.6,-0.0584L0.55,-0.0625L0.5,-0.0657L0.45,-0.0677L0.4,-0.0688L0.375,-0.0689L0.35,-0.0688L0.325,-0.0684L0.3,-0.0677L0.275,-0.0666L0.25,-0.0653L0.225,-0.0637L0.2,-0.0617L0.175,-0.0591L0.15,-0.056L0.125,-0.0522L0.1,-0.0475L0.075,-0.0416L0.05,-0.0338L0.0375,-0.029L0.025,-0.023L0.0188,-0.0194L0.0125,-0.0151L0.0088,-0.0121L0.005,-0.0085L0.0025,-0.0055L0,-0L0.0025,0.0032L0.005,0.0047L0.0088,0.0064L0.0125,0.0078L0.0188,0.0096L0.025,0.0109L0.0375,0.0128L0.05,0.0142L0.075,0.0162L0.1,0.0177L0.125,0.0188L0.15,0.0196L0.175,0.0203L0.2,0.0207L0.225,0.021L0.25,0.0212L0.275,0.0213L0.3,0.0213L0.325,0.0212L0.35,0.0209L0.375,0.0204L0.4,0.0197L0.45,0.018L0.5,0.0157L0.55,0.0129L0.6,0.0098L0.65,0.0065L0.7,0.0033L0.75,0.0005L0.8,-0.0017L0.825,-0.0025L0.85,-0.003L0.875,-0.0031L0.9,-0.0029L0.925,-0.0024L0.95,-0.0019L0.975,-0.0011L1,-0"
    />
</svg>
