
<svg 
  class="airfoil-hq3014"
  fill="none"
  stroke="black" 
  stroke-width="1"
  style="overflow:visible"
  viewBox="0, -0.0986, 1, 0.14"
  xmlns="http://www.w3.org/2000/svg">
    <title>HQ 3.0/14 AIRFOIL</title>
    <path 
      vector-effect="non-scaling-stroke"
      d="M1,-0L0.975,-0.0054L0.95,-0.0112L0.925,-0.017L0.9,-0.0226L0.875,-0.0283L0.85,-0.0339L0.825,-0.0395L0.8,-0.0451L0.75,-0.0557L0.7,-0.0656L0.65,-0.0744L0.6,-0.0821L0.55,-0.0885L0.5,-0.0933L0.45,-0.0965L0.4,-0.0983L0.375,-0.0986L0.35,-0.0985L0.325,-0.098L0.3,-0.097L0.275,-0.0956L0.25,-0.0938L0.225,-0.0915L0.2,-0.0886L0.175,-0.0849L0.15,-0.0805L0.125,-0.0751L0.1,-0.0684L0.075,-0.0601L0.05,-0.0492L0.0375,-0.0424L0.025,-0.0342L0.0188,-0.0294L0.0125,-0.0236L0.0088,-0.0194L0.005,-0.0141L0.0025,-0.0091L0,-0L0.0025,0.0055L0.005,0.0081L0.0088,0.0111L0.0125,0.0135L0.0188,0.0167L0.025,0.0191L0.0375,0.0228L0.05,0.0256L0.075,0.0297L0.1,0.0328L0.125,0.0352L0.15,0.0371L0.175,0.0386L0.2,0.0396L0.225,0.0403L0.25,0.0408L0.275,0.0411L0.3,0.0413L0.325,0.0414L0.35,0.0413L0.375,0.0408L0.4,0.0399L0.45,0.0373L0.5,0.0336L0.55,0.029L0.6,0.0239L0.65,0.0184L0.7,0.013L0.75,0.0078L0.8,0.0035L0.825,0.0017L0.85,0.0004L0.875,-0.0005L0.9,-0.001L0.925,-0.001L0.95,-0.0011L0.975,-0.0008L1,-0"
    />
</svg>
