
<svg 
  class="airfoil-hq300gd2"
  fill="none"
  stroke="black" 
  stroke-width="1"
  style="overflow:visible"
  viewBox="0, -0.1204, 1, 0.16589999"
  xmlns="http://www.w3.org/2000/svg">
    <title>HORSTMANN AND QUAST HQ-300 GD(MOD 2) AIRFOIL</title>
    <path 
      vector-effect="non-scaling-stroke"
      d="M1,0.0013L0.9963,0.0004L0.9858,-0.0024L0.9696,-0.0066L0.9482,-0.012L0.9215,-0.0188L0.89,-0.0268L0.8542,-0.036L0.8148,-0.0462L0.6771,-0.0804L0.6714,-0.0817L0.6618,-0.0839L0.6478,-0.087L0.618,-0.0934L0.6109,-0.0949L0.6077,-0.0955L0.6054,-0.096L0.5993,-0.0972L0.5909,-0.0988L0.5899,-0.099L0.5678,-0.1031L0.5407,-0.1076L0.479,-0.1155L0.4305,-0.1192L0.4148,-0.1199L0.4122,-0.12L0.4053,-0.1201L0.3993,-0.1203L0.3915,-0.1204L0.3608,-0.1203L0.3492,-0.12L0.3431,-0.1198L0.3249,-0.119L0.2964,-0.117L0.2572,-0.1131L0.2399,-0.1109L0.1981,-0.1039L0.187,-0.1017L0.1769,-0.0995L0.1549,-0.0941L0.1231,-0.0847L0.0952,-0.0745L0.0701,-0.0633L0.0482,-0.0512L0.0299,-0.0387L0.0159,-0.0266L0.0072,-0.0166L0.0013,-0.0063L0,-0L0.0005,0.0033L0.0062,0.0105L0.0176,0.016L0.0485,0.0234L0.0811,0.0285L0.0978,0.0307L0.1442,0.0359L0.1708,0.0383L0.1815,0.0391L0.2183,0.0416L0.2667,0.0438L0.2959,0.0446L0.3204,0.0451L0.3713,0.0455L0.4234,0.0451L0.4762,0.0441L0.529,0.0423L0.5811,0.0395L0.632,0.0355L0.6986,0.0282L0.7128,0.0262L0.7499,0.0206L0.7744,0.0165L0.8194,0.0089L0.8623,0.0023L0.9018,-0.002L0.9363,-0.0032L0.9643,-0.0016L0.9843,0.0014L0.9961,0.0039L1,0.0049"
    />
</svg>
