
<svg 
  class="airfoil-hq309"
  fill="none"
  stroke="black" 
  stroke-width="1"
  style="overflow:visible"
  viewBox="0, -0.0738, 1, 0.0906"
  xmlns="http://www.w3.org/2000/svg">
    <title>HQ 3.0/9 AIRFOIL</title>
    <path 
      vector-effect="non-scaling-stroke"
      d="M1,-0L0.975,-0.0046L0.95,-0.0094L0.925,-0.0142L0.9,-0.0188L0.875,-0.0233L0.85,-0.0278L0.825,-0.0321L0.8,-0.0364L0.75,-0.0444L0.7,-0.0516L0.65,-0.0578L0.6,-0.0632L0.55,-0.0675L0.5,-0.0706L0.45,-0.0727L0.4,-0.0737L0.375,-0.0738L0.35,-0.0736L0.325,-0.0732L0.3,-0.0724L0.275,-0.0712L0.25,-0.0698L0.225,-0.0679L0.2,-0.0657L0.175,-0.0629L0.15,-0.0595L0.125,-0.0555L0.1,-0.0504L0.075,-0.0441L0.05,-0.0358L0.0375,-0.0307L0.025,-0.0246L0.0188,-0.0211L0.0125,-0.0168L0.0088,-0.0138L0.005,-0.01L0.0025,-0.0065L0,-0L0.0025,0.0029L0.005,0.0042L0.0088,0.0058L0.0125,0.0071L0.0188,0.0087L0.025,0.0097L0.0375,0.0112L0.05,0.0123L0.075,0.0137L0.1,0.0147L0.125,0.0154L0.15,0.016L0.175,0.0164L0.2,0.0166L0.225,0.0168L0.25,0.0168L0.275,0.0167L0.3,0.0166L0.325,0.0164L0.35,0.0162L0.375,0.0157L0.4,0.015L0.45,0.0131L0.5,0.0108L0.55,0.008L0.6,0.005L0.65,0.0018L0.7,-0.0011L0.75,-0.0035L0.8,-0.0052L0.825,-0.0057L0.85,-0.0058L0.875,-0.0055L0.9,-0.0049L0.925,-0.0039L0.95,-0.0029L0.975,-0.0016L1,-0"
    />
</svg>
