
<svg 
  class="airfoil-hq3011"
  fill="none"
  stroke="black" 
  stroke-width="1"
  style="overflow:visible"
  viewBox="0, -0.0837, 1, 0.1102"
  xmlns="http://www.w3.org/2000/svg">
    <title>HQ 3.0/11 AIRFOIL</title>
    <path 
      vector-effect="non-scaling-stroke"
      d="M1,-0L0.975,-0.0049L0.95,-0.01L0.925,-0.0151L0.9,-0.02L0.875,-0.025L0.85,-0.0301L0.825,-0.035L0.8,-0.0399L0.75,-0.0489L0.7,-0.0572L0.65,-0.0645L0.6,-0.0708L0.55,-0.0759L0.5,-0.0797L0.45,-0.0822L0.4,-0.0835L0.375,-0.0837L0.35,-0.0836L0.325,-0.0831L0.3,-0.0822L0.275,-0.0809L0.25,-0.0794L0.225,-0.0774L0.2,-0.0749L0.175,-0.0718L0.15,-0.068L0.125,-0.0633L0.1,-0.0576L0.075,-0.0505L0.05,-0.0412L0.0375,-0.0354L0.025,-0.0285L0.0188,-0.0244L0.0125,-0.0195L0.0088,-0.0161L0.005,-0.0116L0.0025,-0.0075L0,-0L0.0025,0.0039L0.005,0.0057L0.0088,0.0079L0.0125,0.0096L0.0188,0.0119L0.025,0.0135L0.0375,0.0159L0.05,0.0176L0.075,0.0201L0.1,0.0219L0.125,0.0233L0.15,0.0244L0.175,0.0252L0.2,0.0258L0.225,0.0261L0.25,0.0264L0.275,0.0265L0.3,0.0265L0.325,0.0264L0.35,0.0263L0.375,0.0258L0.4,0.0251L0.45,0.0229L0.5,0.0199L0.55,0.0162L0.6,0.0123L0.65,0.0087L0.7,0.0055L0.75,0.0029L0.8,0.0004L0.825,-0.001L0.85,-0.0023L0.875,-0.0032L0.9,-0.0033L0.925,-0.0027L0.95,-0.0022L0.975,-0.0013L1,-0"
    />
</svg>
