
<svg 
  class="airfoil-hq3013"
  fill="none"
  stroke="black" 
  stroke-width="1"
  style="overflow:visible"
  viewBox="0, -0.0936, 1, 0.13"
  xmlns="http://www.w3.org/2000/svg">
    <title>HQ 3.0/13 AIRFOIL</title>
    <path 
      vector-effect="non-scaling-stroke"
      d="M1,-0L0.975,-0.0052L0.95,-0.0109L0.925,-0.0166L0.9,-0.0221L0.875,-0.0275L0.85,-0.0328L0.825,-0.0381L0.8,-0.0433L0.75,-0.0533L0.7,-0.0628L0.65,-0.0711L0.6,-0.0784L0.55,-0.0843L0.5,-0.0888L0.45,-0.0918L0.4,-0.0933L0.375,-0.0936L0.35,-0.0935L0.325,-0.0931L0.3,-0.0921L0.275,-0.0907L0.25,-0.089L0.225,-0.0868L0.2,-0.084L0.175,-0.0805L0.15,-0.0763L0.125,-0.0712L0.1,-0.0648L0.075,-0.0569L0.05,-0.0466L0.0375,-0.0401L0.025,-0.0323L0.0188,-0.0277L0.0125,-0.0222L0.0088,-0.0183L0.005,-0.0132L0.0025,-0.0086L0,-0L0.0025,0.005L0.005,0.0073L0.0088,0.01L0.0125,0.0122L0.0188,0.0151L0.025,0.0172L0.0375,0.0205L0.05,0.023L0.075,0.0266L0.1,0.0292L0.125,0.0312L0.15,0.0329L0.175,0.0341L0.2,0.0349L0.225,0.0356L0.25,0.036L0.275,0.0362L0.3,0.0364L0.325,0.0364L0.35,0.0363L0.375,0.0359L0.4,0.0351L0.45,0.0324L0.5,0.0287L0.55,0.0243L0.6,0.0195L0.65,0.0146L0.7,0.0099L0.75,0.0055L0.8,0.0018L0.825,0.0003L0.85,-0.0009L0.875,-0.0015L0.9,-0.0018L0.925,-0.0016L0.95,-0.0015L0.975,-0.001L1,-0"
    />
</svg>
