
<svg 
  class="airfoil-hq3010"
  fill="none"
  stroke="black" 
  stroke-width="1"
  style="overflow:visible"
  viewBox="0, -0.0787, 1, 0.1003"
  xmlns="http://www.w3.org/2000/svg">
    <title>HQ 3.0/10 AIRFOIL</title>
    <path 
      vector-effect="non-scaling-stroke"
      d="M1,-0L0.975,-0.0047L0.95,-0.0096L0.925,-0.0145L0.9,-0.0191L0.875,-0.0239L0.85,-0.0288L0.825,-0.0336L0.8,-0.0382L0.75,-0.0467L0.7,-0.0544L0.65,-0.0611L0.6,-0.067L0.55,-0.0717L0.5,-0.0752L0.45,-0.0775L0.4,-0.0786L0.375,-0.0787L0.35,-0.0786L0.325,-0.0781L0.3,-0.0773L0.275,-0.0761L0.25,-0.0746L0.225,-0.0727L0.2,-0.0703L0.175,-0.0673L0.15,-0.0637L0.125,-0.0594L0.1,-0.054L0.075,-0.0473L0.05,-0.0385L0.0375,-0.0331L0.025,-0.0266L0.0188,-0.0227L0.0125,-0.0182L0.0088,-0.015L0.005,-0.0108L0.0025,-0.007L0,-0L0.0025,0.0034L0.005,0.005L0.0088,0.0068L0.0125,0.0083L0.0188,0.0102L0.025,0.0116L0.0375,0.0135L0.05,0.0149L0.075,0.0169L0.1,0.0183L0.125,0.0194L0.15,0.0202L0.175,0.0208L0.2,0.0212L0.225,0.0215L0.25,0.0216L0.275,0.0216L0.3,0.0216L0.325,0.0215L0.35,0.0213L0.375,0.0208L0.4,0.0201L0.45,0.0181L0.5,0.0154L0.55,0.0123L0.6,0.0088L0.65,0.0051L0.7,0.0017L0.75,-0.0013L0.8,-0.0035L0.825,-0.0042L0.85,-0.0045L0.875,-0.0044L0.9,-0.0041L0.925,-0.0033L0.95,-0.0026L0.975,-0.0014L1,-0"
    />
</svg>
