
<svg 
  class="airfoil-hq3015"
  fill="none"
  stroke="black" 
  stroke-width="1"
  style="overflow:visible"
  viewBox="0, -0.1036, 1, 0.15"
  xmlns="http://www.w3.org/2000/svg">
    <title>HQ 3.0/15 AIRFOIL</title>
    <path 
      vector-effect="non-scaling-stroke"
      d="M1,-0L0.975,-0.0055L0.95,-0.0115L0.925,-0.0176L0.9,-0.0234L0.875,-0.0293L0.85,-0.0351L0.825,-0.041L0.8,-0.0468L0.75,-0.058L0.7,-0.0684L0.65,-0.0777L0.6,-0.0859L0.55,-0.0927L0.5,-0.0978L0.45,-0.1013L0.4,-0.1032L0.375,-0.1036L0.35,-0.1035L0.325,-0.103L0.3,-0.1019L0.275,-0.1005L0.25,-0.0985L0.225,-0.0962L0.2,-0.0931L0.175,-0.0894L0.15,-0.0847L0.125,-0.079L0.1,-0.072L0.075,-0.0633L0.05,-0.0519L0.0375,-0.0448L0.025,-0.0362L0.0188,-0.031L0.0125,-0.0249L0.0088,-0.0205L0.005,-0.0148L0.0025,-0.0096L0,-0L0.0025,0.006L0.005,0.0088L0.0088,0.0122L0.0125,0.0148L0.0188,0.0184L0.025,0.021L0.0375,0.0251L0.05,0.0283L0.075,0.0329L0.1,0.0364L0.125,0.0392L0.15,0.0413L0.175,0.0429L0.2,0.0441L0.225,0.045L0.25,0.0456L0.275,0.0459L0.3,0.0462L0.325,0.0464L0.35,0.0463L0.375,0.0459L0.4,0.0449L0.45,0.0421L0.5,0.0381L0.55,0.0333L0.6,0.0277L0.65,0.0217L0.7,0.0158L0.75,0.0101L0.8,0.0052L0.825,0.0032L0.85,0.0016L0.875,0.0005L0.9,-0.0003L0.925,-0.0005L0.95,-0.0008L0.975,-0.0006L1,-0"
    />
</svg>
