
<svg 
  class="airfoil-hq3012"
  fill="none"
  stroke="black" 
  stroke-width="1"
  style="overflow:visible"
  viewBox="0, -0.0886, 1, 0.120000005"
  xmlns="http://www.w3.org/2000/svg">
    <title>HQ 3.0/12 AIRFOIL</title>
    <path 
      vector-effect="non-scaling-stroke"
      d="M1,-0L0.975,-0.005L0.95,-0.0105L0.925,-0.0159L0.9,-0.0211L0.875,-0.0264L0.85,-0.0315L0.825,-0.0366L0.8,-0.0416L0.75,-0.0511L0.7,-0.0599L0.65,-0.0677L0.6,-0.0745L0.55,-0.0801L0.5,-0.0843L0.45,-0.087L0.4,-0.0884L0.375,-0.0886L0.35,-0.0885L0.325,-0.088L0.3,-0.0871L0.275,-0.0858L0.25,-0.0841L0.225,-0.082L0.2,-0.0794L0.175,-0.0761L0.15,-0.0721L0.125,-0.0672L0.1,-0.0612L0.075,-0.0537L0.05,-0.0439L0.0375,-0.0378L0.025,-0.0304L0.0188,-0.026L0.0125,-0.0209L0.0088,-0.0172L0.005,-0.0125L0.0025,-0.0081L0,-0L0.0025,0.0045L0.005,0.0066L0.0088,0.009L0.0125,0.011L0.0188,0.0135L0.025,0.0154L0.0375,0.0182L0.05,0.0203L0.075,0.0233L0.1,0.0256L0.125,0.0273L0.15,0.0287L0.175,0.0297L0.2,0.0304L0.225,0.0309L0.25,0.0312L0.275,0.0313L0.3,0.0314L0.325,0.0314L0.35,0.0313L0.375,0.0308L0.4,0.03L0.45,0.0277L0.5,0.0245L0.55,0.0207L0.6,0.0163L0.65,0.0117L0.7,0.0072L0.75,0.0032L0.8,-0.0001L0.825,-0.0012L0.85,-0.0021L0.875,-0.0025L0.9,-0.0026L0.925,-0.0022L0.95,-0.0018L0.975,-0.0011L1,-0"
    />
</svg>
