
<svg 
  class="airfoil-hq308"
  fill="none"
  stroke="black" 
  stroke-width="1"
  style="overflow:visible"
  viewBox="0, -0.0688, 1, 0.080800004"
  xmlns="http://www.w3.org/2000/svg">
    <title>HQ 3.0/8 AIRFOIL</title>
    <path 
      vector-effect="non-scaling-stroke"
      d="M1,-0L0.975,-0.0044L0.95,-0.009L0.925,-0.0136L0.9,-0.018L0.875,-0.0223L0.85,-0.0265L0.825,-0.0306L0.8,-0.0347L0.75,-0.0421L0.7,-0.0487L0.65,-0.0545L0.6,-0.0594L0.55,-0.0633L0.5,-0.0661L0.45,-0.068L0.4,-0.0688L0.375,-0.0688L0.35,-0.0686L0.325,-0.0682L0.3,-0.0674L0.275,-0.0663L0.25,-0.0649L0.225,-0.0632L0.2,-0.0611L0.175,-0.0585L0.15,-0.0553L0.125,-0.0515L0.1,-0.0468L0.075,-0.0409L0.05,-0.0332L0.0375,-0.0284L0.025,-0.0228L0.0188,-0.0194L0.0125,-0.0155L0.0088,-0.0128L0.005,-0.0092L0.0025,-0.0059L0,-0L0.0025,0.0024L0.005,0.0035L0.0088,0.0047L0.0125,0.0058L0.0188,0.007L0.025,0.0078L0.0375,0.0089L0.05,0.0096L0.075,0.0105L0.1,0.0111L0.125,0.0115L0.15,0.0118L0.175,0.0119L0.2,0.012L0.225,0.012L0.25,0.012L0.275,0.0119L0.3,0.0117L0.325,0.0115L0.35,0.0112L0.375,0.0107L0.4,0.01L0.45,0.0084L0.5,0.0063L0.55,0.0038L0.6,0.0012L0.65,-0.0015L0.7,-0.0039L0.75,-0.0058L0.8,-0.0069L0.825,-0.0071L0.85,-0.007L0.875,-0.0064L0.9,-0.0056L0.925,-0.0044L0.95,-0.0033L0.975,-0.0017L1,-0"
    />
</svg>
