
<svg 
  class="airfoil-hq3510"
  fill="none"
  stroke="black" 
  stroke-width="1"
  style="overflow:visible"
  viewBox="0, -0.0836, 1, 0.1008"
  xmlns="http://www.w3.org/2000/svg">
    <title>HQ 3.5/10 AIRFOIL</title>
    <path 
      vector-effect="non-scaling-stroke"
      d="M1,-0L0.975,-0.0052L0.95,-0.0108L0.925,-0.0162L0.9,-0.0215L0.875,-0.0267L0.85,-0.0318L0.825,-0.0368L0.8,-0.0416L0.75,-0.0507L0.7,-0.0588L0.65,-0.0658L0.6,-0.0718L0.55,-0.0767L0.5,-0.0802L0.45,-0.0825L0.4,-0.0835L0.375,-0.0836L0.35,-0.0834L0.325,-0.0828L0.3,-0.0819L0.275,-0.0805L0.25,-0.0789L0.225,-0.077L0.2,-0.0746L0.175,-0.0718L0.15,-0.068L0.125,-0.0633L0.1,-0.0573L0.075,-0.0499L0.05,-0.0404L0.0375,-0.0345L0.025,-0.0274L0.0188,-0.0232L0.0125,-0.0183L0.0088,-0.0149L0.005,-0.0108L0.0025,-0.0071L0,-0L0.0025,0.0032L0.005,0.0046L0.0088,0.0063L0.0125,0.0076L0.0188,0.0093L0.025,0.0104L0.0375,0.012L0.05,0.013L0.075,0.0144L0.1,0.0153L0.125,0.016L0.15,0.0165L0.175,0.0169L0.2,0.0171L0.225,0.0172L0.25,0.0172L0.275,0.0171L0.3,0.0169L0.325,0.0167L0.35,0.0163L0.375,0.0157L0.4,0.0148L0.45,0.0128L0.5,0.0103L0.55,0.0072L0.6,0.0039L0.65,0.0005L0.7,-0.0026L0.75,-0.0052L0.8,-0.0069L0.825,-0.0073L0.85,-0.0073L0.875,-0.0068L0.9,-0.0061L0.925,-0.0048L0.95,-0.0036L0.975,-0.0019L1,-0"
    />
</svg>
