
<svg 
  class="airfoil-hq3518"
  fill="none"
  stroke="black" 
  stroke-width="1"
  style="overflow:visible"
  viewBox="0, -0.1236, 1, 0.18"
  xmlns="http://www.w3.org/2000/svg">
    <title>HQ 3.5/18 AIRFOIL</title>
    <path 
      vector-effect="non-scaling-stroke"
      d="M1,-0L0.95,-0.0131L0.9,-0.0278L0.85,-0.0413L0.8,-0.0555L0.7,-0.0811L0.6,-0.1025L0.5,-0.1167L0.4,-0.1226L0.35,-0.1236L0.3,-0.1212L0.25,-0.1173L0.2,-0.1111L0.15,-0.1007L0.1,-0.0859L0.05,-0.0619L0.025,-0.0427L0.0125,-0.0298L0.005,-0.0186L0,-0L0.005,0.0107L0.0125,0.0182L0.025,0.0257L0.05,0.0345L0.1,0.0439L0.15,0.0506L0.2,0.0535L0.25,0.0557L0.3,0.0562L0.35,0.0564L0.4,0.0556L0.5,0.0467L0.6,0.0346L0.7,0.0196L0.8,0.0069L0.85,0.0024L0.9,-0.0002L0.95,-0.0012L1,-0"
    />
</svg>
