
<svg 
  class="airfoil-hq359"
  fill="none"
  stroke="black" 
  stroke-width="1"
  style="overflow:visible"
  viewBox="0, -0.0786, 1, 0.0911"
  xmlns="http://www.w3.org/2000/svg">
    <title>HQ 3.5/9 AIRFOIL</title>
    <path 
      vector-effect="non-scaling-stroke"
      d="M1,-0L0.975,-0.0051L0.95,-0.0104L0.925,-0.0157L0.9,-0.0207L0.875,-0.0257L0.85,-0.0306L0.825,-0.0353L0.8,-0.0399L0.75,-0.0484L0.7,-0.056L0.65,-0.0625L0.6,-0.068L0.55,-0.0724L0.5,-0.0756L0.45,-0.0777L0.4,-0.0786L0.375,-0.0786L0.35,-0.0784L0.325,-0.0779L0.3,-0.077L0.275,-0.0757L0.25,-0.0741L0.225,-0.0723L0.2,-0.0701L0.175,-0.0673L0.15,-0.0638L0.125,-0.0594L0.1,-0.0537L0.075,-0.0467L0.05,-0.0377L0.0375,-0.0322L0.025,-0.0255L0.0188,-0.0216L0.0125,-0.017L0.0088,-0.0138L0.005,-0.01L0.0025,-0.0066L0,-0L0.0025,0.0027L0.005,0.0038L0.0088,0.0052L0.0125,0.0063L0.0188,0.0077L0.025,0.0085L0.0375,0.0096L0.05,0.0103L0.075,0.0111L0.1,0.0116L0.125,0.012L0.15,0.0123L0.175,0.0124L0.2,0.0125L0.225,0.0124L0.25,0.0123L0.275,0.0122L0.3,0.012L0.325,0.0117L0.35,0.0113L0.375,0.0107L0.4,0.0099L0.45,0.008L0.5,0.0057L0.55,0.003L0.6,0.0001L0.65,-0.0029L0.7,-0.0055L0.75,-0.0076L0.8,-0.0087L0.825,-0.0088L0.85,-0.0085L0.875,-0.0078L0.9,-0.0068L0.925,-0.0054L0.95,-0.0039L0.975,-0.0021L1,-0"
    />
</svg>
