
<svg 
  class="airfoil-hq3514"
  fill="none"
  stroke="black" 
  stroke-width="1"
  style="overflow:visible"
  viewBox="0, -0.1036, 1, 0.1401"
  xmlns="http://www.w3.org/2000/svg">
    <title>HQ 3.5/14 AIRFOIL</title>
    <path 
      vector-effect="non-scaling-stroke"
      d="M1,-0L0.95,-0.0118L0.9,-0.0247L0.85,-0.0365L0.8,-0.0485L0.7,-0.0699L0.6,-0.0872L0.5,-0.0986L0.4,-0.1028L0.35,-0.1036L0.3,-0.1015L0.25,-0.0981L0.2,-0.0928L0.15,-0.0839L0.1,-0.0715L0.05,-0.0512L0.025,-0.0351L0.0125,-0.0245L0.005,-0.0154L0,-0L0.005,0.0074L0.0125,0.0128L0.025,0.0181L0.05,0.0238L0.1,0.0295L0.15,0.0338L0.2,0.0352L0.25,0.0365L0.3,0.0365L0.35,0.0364L0.4,0.0358L0.5,0.0286L0.6,0.0193L0.7,0.0084L0.8,-0L0.85,-0.0025L0.9,-0.0033L0.95,-0.0026L1,-0"
    />
</svg>
