
<svg 
  class="airfoil-hq3513"
  fill="none"
  stroke="black" 
  stroke-width="1"
  style="overflow:visible"
  viewBox="0, -0.0987, 1, 0.1307"
  xmlns="http://www.w3.org/2000/svg">
    <title>HQ 3.5/13 AIRFOIL</title>
    <path 
      vector-effect="non-scaling-stroke"
      d="M1,-0L0.975,-0.0058L0.95,-0.0119L0.925,-0.018L0.9,-0.0239L0.875,-0.0298L0.85,-0.0355L0.825,-0.0413L0.8,-0.0469L0.75,-0.0575L0.7,-0.0672L0.65,-0.0758L0.6,-0.0833L0.55,-0.0894L0.5,-0.094L0.45,-0.097L0.4,-0.0985L0.375,-0.0987L0.35,-0.0985L0.325,-0.098L0.3,-0.097L0.275,-0.0954L0.25,-0.0935L0.225,-0.0913L0.2,-0.0887L0.175,-0.0853L0.15,-0.0809L0.125,-0.0754L0.1,-0.0684L0.075,-0.0596L0.05,-0.0484L0.0375,-0.0415L0.025,-0.0331L0.0188,-0.0281L0.0125,-0.0223L0.0088,-0.0181L0.005,-0.0132L0.0025,-0.0087L0,-0L0.0025,0.0049L0.005,0.007L0.0088,0.0095L0.0125,0.0116L0.0188,0.0142L0.025,0.0161L0.0375,0.019L0.05,0.0211L0.075,0.0242L0.1,0.0264L0.125,0.0281L0.15,0.0294L0.175,0.0304L0.2,0.0311L0.225,0.0315L0.25,0.0318L0.275,0.032L0.3,0.032L0.325,0.0318L0.35,0.0314L0.375,0.0308L0.4,0.0298L0.45,0.0274L0.5,0.0241L0.55,0.0201L0.6,0.0155L0.65,0.0105L0.7,0.0058L0.75,0.0016L0.8,-0.0017L0.825,-0.0029L0.85,-0.0036L0.875,-0.0038L0.9,-0.0037L0.925,-0.0031L0.95,-0.0025L0.975,-0.0014L1,-0"
    />
</svg>
