
<svg 
  class="airfoil-hq3512"
  fill="none"
  stroke="black" 
  stroke-width="1"
  style="overflow:visible"
  viewBox="0, -0.0935, 1, 0.120400004"
  xmlns="http://www.w3.org/2000/svg">
    <title>HQ 3.5/12 AIRFOIL</title>
    <path 
      vector-effect="non-scaling-stroke"
      d="M1,-0L0.975,-0.0056L0.95,-0.0115L0.925,-0.0174L0.9,-0.0231L0.875,-0.0287L0.85,-0.0343L0.825,-0.0397L0.8,-0.0451L0.75,-0.0551L0.7,-0.0642L0.65,-0.0723L0.6,-0.0794L0.55,-0.085L0.5,-0.0893L0.45,-0.092L0.4,-0.0933L0.375,-0.0935L0.35,-0.0933L0.325,-0.0928L0.3,-0.0918L0.275,-0.0903L0.25,-0.0885L0.225,-0.0864L0.2,-0.0838L0.175,-0.0807L0.15,-0.0765L0.125,-0.0712L0.1,-0.0646L0.075,-0.0563L0.05,-0.0457L0.0375,-0.0391L0.025,-0.0312L0.0188,-0.0264L0.0125,-0.0209L0.0088,-0.017L0.005,-0.0124L0.0025,-0.0082L0,-0L0.0025,0.0043L0.005,0.0062L0.0088,0.0084L0.0125,0.0102L0.0188,0.0125L0.025,0.0142L0.0375,0.0166L0.05,0.0183L0.075,0.0208L0.1,0.0225L0.125,0.0239L0.15,0.025L0.175,0.0257L0.2,0.0263L0.225,0.0266L0.25,0.0268L0.275,0.0269L0.3,0.0268L0.325,0.0266L0.35,0.0262L0.375,0.0256L0.4,0.0247L0.45,0.0224L0.5,0.0193L0.55,0.0157L0.6,0.0115L0.65,0.0071L0.7,0.0029L0.75,-0.0008L0.8,-0.0035L0.825,-0.0044L0.85,-0.0049L0.875,-0.0049L0.9,-0.0045L0.925,-0.0037L0.95,-0.0029L0.975,-0.0016L1,-0"
    />
</svg>
