
<svg 
  class="airfoil-hq358"
  fill="none"
  stroke="black" 
  stroke-width="1"
  style="overflow:visible"
  viewBox="0, -0.0737, 1, 0.08180001"
  xmlns="http://www.w3.org/2000/svg">
    <title>HQ 3.5/8 AIRFOIL</title>
    <path 
      vector-effect="non-scaling-stroke"
      d="M1,-0L0.975,-0.0049L0.95,-0.0101L0.925,-0.0151L0.9,-0.02L0.875,-0.0247L0.85,-0.0293L0.825,-0.0338L0.8,-0.0382L0.75,-0.0461L0.7,-0.0531L0.65,-0.0592L0.6,-0.0643L0.55,-0.0683L0.5,-0.0711L0.45,-0.0729L0.4,-0.0737L0.375,-0.0737L0.35,-0.0734L0.325,-0.0729L0.3,-0.072L0.275,-0.0708L0.25,-0.0693L0.225,-0.0676L0.2,-0.0655L0.175,-0.0629L0.15,-0.0596L0.125,-0.0553L0.1,-0.05L0.075,-0.0434L0.05,-0.035L0.0375,-0.0298L0.025,-0.0236L0.0188,-0.0199L0.0125,-0.0157L0.0088,-0.0128L0.005,-0.0092L0.0025,-0.006L0,-0L0.0025,0.0022L0.005,0.003L0.0088,0.0041L0.0125,0.005L0.0188,0.006L0.025,0.0066L0.0375,0.0073L0.05,0.0076L0.075,0.0079L0.1,0.008L0.125,0.008L0.15,0.0081L0.175,0.008L0.2,0.0079L0.225,0.0078L0.25,0.0076L0.275,0.0073L0.3,0.007L0.325,0.0067L0.35,0.0063L0.375,0.0057L0.4,0.005L0.45,0.0032L0.5,0.0012L0.55,-0.0012L0.6,-0.0036L0.65,-0.0061L0.7,-0.0082L0.75,-0.0098L0.8,-0.0104L0.825,-0.0102L0.85,-0.0097L0.875,-0.0088L0.9,-0.0076L0.925,-0.0059L0.95,-0.0043L0.975,-0.0022L1,-0"
    />
</svg>
