
<svg 
  class="airfoil-hs1404"
  fill="none"
  stroke="black" 
  stroke-width="1"
  style="overflow:visible"
  viewBox="0, -0.0492, 1, 0.0568"
  xmlns="http://www.w3.org/2000/svg">
    <title>HAM-STD HS1-404 AIRFOIL</title>
    <path 
      vector-effect="non-scaling-stroke"
      d="M1,0.0009L0.99,-0.0007L0.98,-0.0023L0.97,-0.0038L0.96,-0.0054L0.95,-0.0068L0.94,-0.0083L0.93,-0.0097L0.92,-0.0111L0.91,-0.0124L0.9,-0.0138L0.88,-0.0164L0.86,-0.0189L0.84,-0.0214L0.82,-0.0239L0.8,-0.0263L0.78,-0.0287L0.76,-0.031L0.74,-0.0332L0.7,-0.0373L0.68,-0.0391L0.66,-0.0408L0.64,-0.0422L0.6,-0.0446L0.58,-0.0455L0.56,-0.0463L0.54,-0.047L0.5,-0.0482L0.48,-0.0486L0.46,-0.0489L0.44,-0.0491L0.4,-0.0492L0.38,-0.0491L0.36,-0.0488L0.34,-0.0484L0.3,-0.0474L0.28,-0.0468L0.26,-0.046L0.24,-0.045L0.22,-0.0439L0.2,-0.0424L0.18,-0.0408L0.16,-0.0388L0.14,-0.0366L0.12,-0.034L0.1,-0.0311L0.09,-0.0294L0.08,-0.0277L0.07,-0.0258L0.06,-0.0237L0.05,-0.0216L0.04,-0.0192L0.03,-0.0166L0.02,-0.0134L0.01,-0.0092L0.0075,-0.0079L0.005,-0.0063L0.003,-0.0047L0.002,-0.0037L0.001,-0.0025L0.0005,-0.0017L0,-0L0.0005,0.0011L0.001,0.0016L0.002,0.0021L0.003,0.0025L0.005,0.0032L0.0075,0.0039L0.01,0.0046L0.02,0.0062L0.03,0.0071L0.04,0.0075L0.05,0.0076L0.06,0.0076L0.07,0.0072L0.08,0.0069L0.09,0.0064L0.1,0.0058L0.12,0.0045L0.14,0.003L0.16,0.0012L0.18,-0.0005L0.2,-0.0023L0.22,-0.0039L0.24,-0.0054L0.26,-0.0066L0.28,-0.0076L0.3,-0.0084L0.34,-0.0096L0.36,-0.0101L0.38,-0.0104L0.4,-0.0107L0.44,-0.0112L0.46,-0.0113L0.48,-0.0114L0.5,-0.0114L0.54,-0.0113L0.56,-0.0112L0.58,-0.0111L0.6,-0.0109L0.64,-0.0104L0.66,-0.0101L0.68,-0.0099L0.7,-0.0092L0.74,-0.0081L0.76,-0.0074L0.78,-0.0067L0.8,-0.0059L0.82,-0.0051L0.84,-0.0043L0.86,-0.0034L0.88,-0.0025L0.9,-0.0016L0.91,-0.0011L0.92,-0.0005L0.93,-0L0.94,0.0005L0.95,0.0011L0.96,0.0017L0.97,0.0022L0.98,0.0029L0.99,0.0035L1,0.0041"
    />
</svg>
