
<svg 
  class="airfoil-hs1430"
  fill="none"
  stroke="black" 
  stroke-width="1"
  style="overflow:visible"
  viewBox="0, -0.1787, 1, 0.3007"
  xmlns="http://www.w3.org/2000/svg">
    <title>HAM-STD HS1-430 AIRFOIL</title>
    <path 
      vector-effect="non-scaling-stroke"
      d="M1,-0.0197L0.99,-0.0265L0.98,-0.0327L0.97,-0.0385L0.96,-0.044L0.95,-0.0493L0.94,-0.0544L0.93,-0.0594L0.92,-0.0642L0.91,-0.0685L0.9,-0.0733L0.88,-0.0818L0.86,-0.0896L0.84,-0.0967L0.82,-0.1033L0.8,-0.1094L0.78,-0.1152L0.76,-0.1206L0.74,-0.1259L0.7,-0.1358L0.68,-0.1405L0.66,-0.1449L0.64,-0.1492L0.6,-0.1571L0.58,-0.1606L0.56,-0.1639L0.54,-0.1668L0.5,-0.1716L0.48,-0.1734L0.46,-0.175L0.44,-0.1763L0.4,-0.1781L0.38,-0.1786L0.36,-0.1787L0.34,-0.1785L0.3,-0.1771L0.28,-0.1759L0.26,-0.1743L0.24,-0.1724L0.22,-0.1701L0.2,-0.1672L0.18,-0.1652L0.16,-0.159L0.14,-0.1532L0.12,-0.146L0.1,-0.1368L0.09,-0.1314L0.08,-0.1253L0.07,-0.1186L0.06,-0.111L0.05,-0.1023L0.04,-0.0924L0.03,-0.0807L0.02,-0.0663L0.01,-0.0469L0.0075,-0.0406L0.005,-0.033L0.003,-0.0255L0.002,-0.0207L0.001,-0.0146L0.0005,-0.0102L0,-0L0.0005,0.0099L0.001,0.0139L0.002,0.0195L0.003,0.0237L0.005,0.0303L0.0075,0.0367L0.01,0.042L0.02,0.0575L0.03,0.0686L0.04,0.0773L0.05,0.0844L0.06,0.0904L0.07,0.0955L0.08,0.1L0.09,0.1038L0.1,0.1071L0.12,0.1123L0.14,0.116L0.16,0.1186L0.18,0.1206L0.2,0.1211L0.22,0.1216L0.24,0.1219L0.26,0.122L0.28,0.122L0.3,0.122L0.34,0.1214L0.36,0.121L0.38,0.1203L0.4,0.1195L0.44,0.1174L0.46,0.1162L0.48,0.1149L0.5,0.1134L0.54,0.1099L0.56,0.1078L0.58,0.1055L0.6,0.1031L0.64,0.0976L0.66,0.0947L0.68,0.0917L0.7,0.0886L0.74,0.0822L0.76,0.079L0.78,0.0756L0.8,0.0722L0.82,0.0685L0.84,0.0646L0.86,0.0604L0.88,0.0559L0.9,0.0511L0.91,0.0485L0.92,0.0459L0.93,0.0432L0.94,0.0404L0.95,0.0375L0.96,0.0345L0.97,0.0314L0.98,0.0282L0.99,0.0247L1,0.0208"
    />
</svg>
