
<svg 
  class="airfoil-hs1606"
  fill="none"
  stroke="black" 
  stroke-width="1"
  style="overflow:visible"
  viewBox="0, -0.0711, 1, 0.083"
  xmlns="http://www.w3.org/2000/svg">
    <title>HAM-STD HS1-606 AIRFOIL</title>
    <path 
      vector-effect="non-scaling-stroke"
      d="M1,0.0012L0.99,-0.0012L0.98,-0.0035L0.97,-0.0057L0.96,-0.0079L0.95,-0.01L0.94,-0.0121L0.93,-0.0141L0.92,-0.0162L0.91,-0.018L0.9,-0.02L0.88,-0.0237L0.86,-0.0274L0.84,-0.031L0.82,-0.0345L0.8,-0.038L0.78,-0.0414L0.76,-0.0447L0.74,-0.0479L0.7,-0.0538L0.68,-0.0565L0.66,-0.0589L0.64,-0.061L0.6,-0.0644L0.58,-0.0658L0.56,-0.067L0.54,-0.068L0.5,-0.0696L0.48,-0.0702L0.46,-0.0707L0.44,-0.071L0.4,-0.0711L0.38,-0.0709L0.36,-0.0706L0.34,-0.0701L0.3,-0.0686L0.28,-0.0677L0.26,-0.0666L0.24,-0.0652L0.22,-0.0635L0.2,-0.0615L0.18,-0.0591L0.16,-0.0564L0.14,-0.0532L0.12,-0.0495L0.1,-0.0452L0.09,-0.0427L0.08,-0.0401L0.07,-0.0373L0.06,-0.0343L0.05,-0.0311L0.04,-0.0276L0.03,-0.0237L0.02,-0.0193L0.01,-0.0135L0.0075,-0.0116L0.005,-0.0094L0.003,-0.0071L0.002,-0.0056L0.001,-0.0038L0.0005,-0.0026L0,-0.0002L0.0005,0.0016L0.001,0.0022L0.002,0.003L0.003,0.0035L0.005,0.0046L0.0075,0.0056L0.01,0.0066L0.02,0.0093L0.03,0.0108L0.04,0.0116L0.05,0.0119L0.06,0.0119L0.07,0.0116L0.08,0.0112L0.09,0.0106L0.1,0.0099L0.12,0.0081L0.14,0.0059L0.16,0.0035L0.18,0.001L0.2,-0.0014L0.22,-0.0037L0.24,-0.0057L0.26,-0.0073L0.28,-0.0088L0.3,-0.0099L0.34,-0.0117L0.36,-0.0123L0.38,-0.0128L0.4,-0.0133L0.44,-0.0139L0.46,-0.0141L0.48,-0.0142L0.5,-0.0143L0.54,-0.0142L0.56,-0.0141L0.58,-0.0139L0.6,-0.0137L0.64,-0.0131L0.66,-0.0127L0.68,-0.0122L0.7,-0.0116L0.74,-0.0102L0.76,-0.0093L0.78,-0.0083L0.8,-0.0073L0.82,-0.0063L0.84,-0.0052L0.86,-0.0041L0.88,-0.0029L0.9,-0.0016L0.91,-0.0009L0.92,-0.0003L0.93,0.0005L0.94,0.0012L0.95,0.0019L0.96,0.0029L0.97,0.0035L0.98,0.0043L0.99,0.0051L1,0.0059"
    />
</svg>
