
<svg 
  class="airfoil-hs1620"
  fill="none"
  stroke="black" 
  stroke-width="1"
  style="overflow:visible"
  viewBox="0, -0.1402, 1, 0.20480001"
  xmlns="http://www.w3.org/2000/svg">
    <title>HAM-STD HS1-620 AIRFOIL</title>
    <path 
      vector-effect="non-scaling-stroke"
      d="M1,-0.0127L0.99,-0.0183L0.98,-0.0235L0.97,-0.0284L0.96,-0.0329L0.95,-0.0373L0.94,-0.0414L0.93,-0.0454L0.92,-0.0494L0.91,-0.0532L0.9,-0.0569L0.88,-0.0639L0.86,-0.0703L0.84,-0.0762L0.82,-0.0815L0.8,-0.0865L0.78,-0.0912L0.76,-0.0956L0.74,-0.0998L0.7,-0.1077L0.68,-0.1114L0.66,-0.1149L0.64,-0.1182L0.6,-0.1243L0.58,-0.1271L0.56,-0.1296L0.54,-0.1319L0.5,-0.1356L0.48,-0.137L0.46,-0.1381L0.44,-0.139L0.4,-0.1401L0.38,-0.1402L0.36,-0.14L0.34,-0.1396L0.3,-0.1379L0.28,-0.1367L0.26,-0.1352L0.24,-0.1334L0.22,-0.1312L0.2,-0.1284L0.18,-0.125L0.16,-0.1208L0.14,-0.1157L0.12,-0.1094L0.1,-0.1019L0.09,-0.0975L0.08,-0.0927L0.07,-0.0874L0.06,-0.0815L0.05,-0.0748L0.04,-0.0671L0.03,-0.0582L0.02,-0.0474L0.01,-0.0331L0.0075,-0.0284L0.005,-0.023L0.003,-0.0176L0.002,-0.0142L0.001,-0.0099L0.0005,-0.0069L0,-0L0.0005,0.0065L0.001,0.0091L0.002,0.0126L0.003,0.0152L0.005,0.0192L0.0075,0.0231L0.01,0.0262L0.02,0.0352L0.03,0.0414L0.04,0.0461L0.05,0.0498L0.06,0.0529L0.07,0.0554L0.08,0.0575L0.09,0.0593L0.1,0.0607L0.12,0.0628L0.14,0.064L0.16,0.0646L0.18,0.0646L0.2,0.0643L0.22,0.0638L0.24,0.0632L0.26,0.0626L0.28,0.0621L0.3,0.0616L0.34,0.0606L0.36,0.06L0.38,0.0593L0.4,0.0586L0.44,0.0571L0.46,0.0563L0.48,0.0554L0.5,0.0546L0.54,0.0527L0.56,0.0516L0.58,0.0505L0.6,0.0492L0.64,0.0465L0.66,0.045L0.68,0.0435L0.7,0.042L0.74,0.039L0.76,0.0375L0.78,0.0361L0.8,0.0346L0.82,0.0331L0.84,0.0314L0.86,0.0297L0.88,0.0279L0.9,0.026L0.91,0.025L0.92,0.024L0.93,0.023L0.94,0.0219L0.95,0.0208L0.96,0.0196L0.97,0.0184L0.98,0.0172L0.99,0.0158L1,0.0143"
    />
</svg>
