
<svg 
  class="airfoil-hs1708"
  fill="none"
  stroke="black" 
  stroke-width="1"
  style="overflow:visible"
  viewBox="0, -0.087, 1, 0.10349999"
  xmlns="http://www.w3.org/2000/svg">
    <title>HAM-STD HS1-708 AIRFOIL</title>
    <path 
      vector-effect="non-scaling-stroke"
      d="M1,0.0009L0.99,-0.002L0.98,-0.0047L0.97,-0.0074L0.96,-0.01L0.95,-0.0126L0.94,-0.0151L0.93,-0.0176L0.92,-0.02L0.91,-0.0223L0.9,-0.0246L0.88,-0.0292L0.86,-0.0336L0.84,-0.038L0.82,-0.0422L0.8,-0.0465L0.78,-0.0506L0.76,-0.0547L0.74,-0.0585L0.7,-0.0657L0.68,-0.0689L0.66,-0.0718L0.64,-0.0744L0.6,-0.0786L0.58,-0.0803L0.56,-0.0818L0.54,-0.083L0.5,-0.085L0.48,-0.0858L0.46,-0.0864L0.44,-0.0868L0.4,-0.087L0.38,-0.0868L0.36,-0.0864L0.34,-0.0858L0.3,-0.0842L0.28,-0.0831L0.26,-0.0818L0.24,-0.0802L0.22,-0.0782L0.2,-0.0759L0.18,-0.0731L0.16,-0.0698L0.14,-0.0659L0.12,-0.0615L0.1,-0.0563L0.09,-0.0534L0.08,-0.0503L0.07,-0.0469L0.06,-0.0433L0.05,-0.0393L0.04,-0.035L0.03,-0.0302L0.02,-0.0245L0.01,-0.017L0.0075,-0.0146L0.005,-0.0117L0.003,-0.0088L0.002,-0.007L0.001,-0.0048L0.0005,-0.0033L0,-0.0001L0.0005,0.0024L0.001,0.0034L0.002,0.0049L0.003,0.0056L0.005,0.0071L0.0075,0.0087L0.01,0.0099L0.02,0.0132L0.03,0.0151L0.04,0.016L0.05,0.0165L0.06,0.0165L0.07,0.0163L0.08,0.0159L0.09,0.0153L0.1,0.0146L0.12,0.0127L0.14,0.0105L0.16,0.0081L0.18,0.0056L0.2,0.0032L0.22,0.0009L0.24,-0.0011L0.26,-0.0029L0.28,-0.0045L0.3,-0.0058L0.34,-0.0079L0.36,-0.0087L0.38,-0.0093L0.4,-0.0098L0.44,-0.0106L0.46,-0.0109L0.48,-0.0111L0.5,-0.0112L0.54,-0.0113L0.56,-0.0113L0.58,-0.0112L0.6,-0.011L0.64,-0.0106L0.66,-0.0103L0.68,-0.01L0.7,-0.0095L0.74,-0.0082L0.76,-0.0074L0.78,-0.0065L0.8,-0.0056L0.82,-0.0046L0.84,-0.0036L0.86,-0.0025L0.88,-0.0013L0.9,-0.0001L0.91,0.0006L0.92,0.0013L0.93,0.002L0.94,0.0027L0.95,0.0034L0.96,0.0042L0.97,0.0049L0.98,0.0057L0.99,0.0065L1,0.0073"
    />
</svg>
