
<svg 
  class="airfoil-hs1712"
  fill="none"
  stroke="black" 
  stroke-width="1"
  style="overflow:visible"
  viewBox="0, -0.107, 1, 0.13170001"
  xmlns="http://www.w3.org/2000/svg">
    <title>HAM-STD HS1-712 AIRFOIL</title>
    <path 
      vector-effect="non-scaling-stroke"
      d="M1,-0.0072L0.99,-0.0117L0.98,-0.0157L0.97,-0.0197L0.96,-0.0234L0.95,-0.0269L0.94,-0.0303L0.93,-0.0336L0.92,-0.0369L0.91,-0.04L0.9,-0.043L0.88,-0.0486L0.86,-0.0537L0.84,-0.0583L0.82,-0.0626L0.8,-0.0667L0.78,-0.0703L0.76,-0.0748L0.74,-0.0779L0.7,-0.0832L0.68,-0.086L0.66,-0.0887L0.64,-0.0913L0.6,-0.0959L0.58,-0.0979L0.56,-0.0997L0.54,-0.1015L0.5,-0.1042L0.48,-0.1053L0.46,-0.106L0.44,-0.1066L0.4,-0.107L0.38,-0.1069L0.36,-0.1063L0.34,-0.1054L0.3,-0.1042L0.28,-0.1031L0.26,-0.1017L0.24,-0.1L0.22,-0.0979L0.2,-0.0953L0.18,-0.0921L0.16,-0.0884L0.14,-0.084L0.12,-0.0789L0.1,-0.0728L0.09,-0.0694L0.08,-0.0656L0.07,-0.0611L0.06,-0.057L0.05,-0.0519L0.04,-0.0469L0.03,-0.0397L0.02,-0.0319L0.01,-0.0218L0.0075,-0.0186L0.005,-0.0149L0.003,-0.0113L0.002,-0.009L0.001,-0.006L0.0005,-0.0043L0,-0L0.0005,0.0038L0.001,0.0052L0.002,0.0071L0.003,0.0084L0.005,0.0104L0.0075,0.0123L0.01,0.0138L0.02,0.0177L0.03,0.0201L0.04,0.0211L0.05,0.0228L0.06,0.0235L0.07,0.0242L0.08,0.0245L0.09,0.0247L0.1,0.0247L0.12,0.0244L0.14,0.0237L0.16,0.0228L0.18,0.0216L0.2,0.0203L0.22,0.019L0.24,0.0179L0.26,0.0169L0.28,0.0161L0.3,0.0154L0.34,0.0139L0.36,0.0134L0.38,0.0128L0.4,0.0122L0.44,0.011L0.46,0.0106L0.48,0.0102L0.5,0.0099L0.54,0.0092L0.56,0.0089L0.58,0.0086L0.6,0.0082L0.64,0.0076L0.66,0.0072L0.68,0.0069L0.7,0.0066L0.74,0.0062L0.76,0.0061L0.78,0.0061L0.8,0.0061L0.82,0.0061L0.84,0.0062L0.86,0.0063L0.88,0.0065L0.9,0.0068L0.91,0.007L0.92,0.0072L0.93,0.0074L0.94,0.0075L0.95,0.0078L0.96,0.0081L0.97,0.0083L0.98,0.0088L0.99,0.0098L1,0.0107"
    />
</svg>
