
<svg 
  class="airfoil-hsnlf213"
  fill="none"
  stroke="black" 
  stroke-width="1"
  style="overflow:visible"
  viewBox="0, -0.0796, 1, 0.1328"
  xmlns="http://www.w3.org/2000/svg">
    <title>HSNLF(1)-0213 AIRFOIL</title>
    <path 
      vector-effect="non-scaling-stroke"
      d="M1,-0.0007L0.99,-0.0015L0.98,-0.0024L0.975,-0.0029L0.9499,-0.0056L0.9249,-0.0085L0.9199,-0.0092L0.8998,-0.0119L0.8748,-0.0157L0.8497,-0.0199L0.8247,-0.0245L0.8196,-0.0255L0.7996,-0.0294L0.7795,-0.0335L0.7745,-0.0346L0.7494,-0.04L0.7244,-0.0455L0.6993,-0.051L0.6792,-0.0553L0.6742,-0.0563L0.6491,-0.0612L0.6241,-0.0655L0.599,-0.0691L0.574,-0.0721L0.549,-0.0744L0.5239,-0.0762L0.4989,-0.0776L0.4739,-0.0786L0.4489,-0.0792L0.4239,-0.0796L0.3989,-0.0795L0.3739,-0.0792L0.3489,-0.0786L0.3239,-0.0777L0.2989,-0.0764L0.274,-0.0748L0.249,-0.0728L0.224,-0.0705L0.1991,-0.0677L0.1741,-0.0646L0.1492,-0.0609L0.1242,-0.0565L0.0993,-0.0515L0.0893,-0.0493L0.0793,-0.0468L0.0594,-0.0413L0.0495,-0.0381L0.0395,-0.0346L0.0296,-0.0305L0.0196,-0.0255L0.0097,-0.0188L0.0048,-0.0136L0.0024,-0.0097L0.0019,-0.0087L0.0014,-0.0075L0.0009,-0.0061L0.0007,-0.0053L0.0004,-0.0043L0.0002,-0.003L0,-0L0.0003,0.0016L0.0005,0.0023L0.0008,0.0028L0.001,0.0033L0.0016,0.0042L0.0021,0.0049L0.0026,0.0055L0.0051,0.0079L0.0102,0.0111L0.0202,0.0152L0.0303,0.0184L0.0403,0.021L0.0503,0.0232L0.0603,0.0252L0.0804,0.0286L0.0904,0.0302L0.1004,0.0317L0.1255,0.035L0.1505,0.0379L0.1756,0.0404L0.2006,0.0426L0.2256,0.0445L0.2506,0.0462L0.2757,0.0478L0.3007,0.0491L0.3257,0.0503L0.3507,0.0512L0.3757,0.052L0.4007,0.0526L0.4257,0.053L0.4507,0.0532L0.4757,0.0532L0.5007,0.053L0.5257,0.0527L0.5507,0.0522L0.5757,0.0513L0.6007,0.0502L0.6257,0.0488L0.6506,0.0469L0.6756,0.0445L0.6806,0.0439L0.7006,0.0412L0.7255,0.0363L0.7504,0.0306L0.7754,0.026L0.7803,0.0252L0.8003,0.022L0.8203,0.0191L0.8252,0.0184L0.8502,0.0151L0.8752,0.0122L0.9001,0.0094L0.9201,0.0072L0.9251,0.0067L0.9501,0.0043L0.975,0.0023L0.98,0.0019L0.99,0.0013L1,0.0007"
    />
</svg>
