
<svg 
  class="airfoil-ht05"
  fill="none"
  stroke="black" 
  stroke-width="1"
  style="overflow:visible"
  viewBox="0, -0.0241, 1, 0.048100002"
  xmlns="http://www.w3.org/2000/svg">
    <title>HT05</title>
    <path 
      vector-effect="non-scaling-stroke"
      d="M1,-0.0018L0.996,-0.0021L0.9831,-0.0031L0.9702,-0.0041L0.9573,-0.005L0.9444,-0.0058L0.9315,-0.0066L0.9186,-0.0074L0.9057,-0.0081L0.8928,-0.0088L0.8799,-0.0094L0.867,-0.0101L0.8541,-0.0106L0.8412,-0.0112L0.8283,-0.0117L0.8154,-0.0122L0.8025,-0.0126L0.7897,-0.0129L0.7768,-0.0131L0.7639,-0.0133L0.7511,-0.0134L0.7382,-0.0134L0.7253,-0.0133L0.7124,-0.0131L0.6995,-0.0129L0.6866,-0.0126L0.6738,-0.0122L0.6609,-0.0118L0.648,-0.0113L0.6376,-0.0109L0.6326,-0.0107L0.6301,-0.0105L0.6275,-0.0107L0.6222,-0.0111L0.6095,-0.0118L0.5966,-0.0125L0.5837,-0.0132L0.5709,-0.0139L0.558,-0.0145L0.5451,-0.015L0.5322,-0.0156L0.5194,-0.0161L0.5065,-0.0166L0.4937,-0.017L0.4808,-0.0175L0.4679,-0.0179L0.4549,-0.0184L0.442,-0.0188L0.429,-0.0192L0.416,-0.0196L0.403,-0.0199L0.39,-0.0203L0.377,-0.0206L0.3641,-0.0209L0.3512,-0.0213L0.3382,-0.0216L0.3253,-0.0218L0.3124,-0.0221L0.2996,-0.0224L0.2867,-0.0227L0.2738,-0.0229L0.261,-0.0231L0.2481,-0.0233L0.2352,-0.0235L0.2224,-0.0237L0.2095,-0.0239L0.1966,-0.024L0.1838,-0.024L0.1709,-0.0241L0.1581,-0.024L0.1453,-0.0239L0.1325,-0.0238L0.1197,-0.0235L0.107,-0.0231L0.0944,-0.0225L0.082,-0.0218L0.0698,-0.0209L0.0579,-0.0198L0.0462,-0.0184L0.0349,-0.0166L0.0244,-0.0145L0.0156,-0.012L0.0095,-0.0097L0.0058,-0.0077L0.0035,-0.0061L0.002,-0.0047L0.001,-0.0033L0.0003,-0.002L0,-0.0006L0,-0L0,0.0006L0.0003,0.0019L0.001,0.0033L0.002,0.0046L0.0035,0.0061L0.0058,0.0077L0.0095,0.0096L0.0156,0.012L0.0244,0.0144L0.0349,0.0166L0.0462,0.0183L0.0579,0.0198L0.0698,0.0209L0.082,0.0218L0.0944,0.0225L0.107,0.023L0.1197,0.0234L0.1325,0.0237L0.1453,0.0239L0.1581,0.024L0.1709,0.024L0.1838,0.024L0.1966,0.0239L0.2095,0.0238L0.2224,0.0237L0.2352,0.0235L0.2481,0.0233L0.261,0.0231L0.2738,0.0229L0.2867,0.0226L0.2996,0.0224L0.3124,0.0221L0.3253,0.0218L0.3382,0.0215L0.3512,0.0212L0.3641,0.0209L0.377,0.0206L0.39,0.0203L0.403,0.0199L0.416,0.0195L0.429,0.0192L0.442,0.0188L0.4549,0.0183L0.4679,0.0179L0.4808,0.0175L0.4937,0.017L0.5065,0.0166L0.5194,0.0161L0.5322,0.0155L0.5451,0.015L0.558,0.0144L0.5709,0.0138L0.5837,0.0132L0.5966,0.0125L0.6095,0.0118L0.6222,0.011L0.6275,0.0107L0.6301,0.0105L0.6326,0.0106L0.6376,0.0109L0.648,0.0113L0.6609,0.0118L0.6738,0.0122L0.6866,0.0126L0.6995,0.0129L0.7124,0.0131L0.7253,0.0133L0.7382,0.0134L0.7511,0.0134L0.7639,0.0133L0.7768,0.0131L0.7897,0.0129L0.8025,0.0125L0.8154,0.0122L0.8283,0.0117L0.8412,0.0112L0.8541,0.0106L0.867,0.01L0.8799,0.0094L0.8928,0.0088L0.9057,0.0081L0.9186,0.0074L0.9315,0.0066L0.9444,0.0058L0.9573,0.005L0.9702,0.0041L0.9831,0.0031L0.996,0.0021L1,0.0018"
    />
</svg>
