
<svg 
  class="airfoil-ht08"
  fill="none"
  stroke="black" 
  stroke-width="1"
  style="overflow:visible"
  viewBox="0, -0.025, 1, 0.05"
  xmlns="http://www.w3.org/2000/svg">
    <title>HT08</title>
    <path 
      vector-effect="non-scaling-stroke"
      d="M1,-0.0017L0.9943,-0.002L0.983,-0.0025L0.9696,-0.003L0.9555,-0.0036L0.9413,-0.0042L0.9271,-0.0047L0.9128,-0.0053L0.8986,-0.0059L0.8844,-0.0064L0.8701,-0.007L0.8559,-0.0075L0.8416,-0.0081L0.8274,-0.0086L0.8131,-0.0091L0.7989,-0.0096L0.7846,-0.0102L0.7704,-0.0107L0.7562,-0.0112L0.7419,-0.0117L0.7277,-0.0122L0.7134,-0.0127L0.6992,-0.0132L0.6849,-0.0136L0.6707,-0.0141L0.6564,-0.0146L0.6422,-0.0151L0.628,-0.0155L0.6137,-0.016L0.5995,-0.0164L0.5852,-0.0169L0.571,-0.0173L0.5567,-0.0177L0.5425,-0.0181L0.5283,-0.0186L0.514,-0.019L0.4998,-0.0194L0.4855,-0.0198L0.4713,-0.0202L0.457,-0.0205L0.4428,-0.0209L0.4286,-0.0213L0.4143,-0.0216L0.4001,-0.022L0.3859,-0.0223L0.3716,-0.0227L0.3574,-0.023L0.3432,-0.0233L0.329,-0.0236L0.3148,-0.0238L0.3006,-0.0241L0.2864,-0.0243L0.2722,-0.0245L0.2581,-0.0247L0.2439,-0.0248L0.2298,-0.0249L0.2157,-0.025L0.2016,-0.025L0.1876,-0.025L0.1736,-0.0249L0.1596,-0.0247L0.1457,-0.0244L0.1318,-0.024L0.118,-0.0236L0.1043,-0.023L0.0908,-0.0222L0.0774,-0.0213L0.0643,-0.0202L0.0517,-0.0188L0.0399,-0.0171L0.0295,-0.0152L0.0211,-0.0133L0.0149,-0.0115L0.0104,-0.0098L0.007,-0.0082L0.0046,-0.0067L0.0027,-0.0053L0.0013,-0.0038L0.0005,-0.0022L0,-0.0007L0,0.0007L0.0005,0.0022L0.0013,0.0037L0.0027,0.0052L0.0046,0.0067L0.007,0.0082L0.0104,0.0098L0.0149,0.0115L0.0211,0.0133L0.0295,0.0152L0.0399,0.0171L0.0517,0.0187L0.0643,0.0201L0.0774,0.0213L0.0908,0.0222L0.1043,0.023L0.118,0.0236L0.1318,0.024L0.1457,0.0244L0.1596,0.0247L0.1736,0.0248L0.1876,0.0249L0.2016,0.025L0.2157,0.025L0.2298,0.0249L0.2439,0.0248L0.2581,0.0247L0.2722,0.0245L0.2864,0.0243L0.3006,0.0241L0.3148,0.0238L0.329,0.0236L0.3432,0.0233L0.3574,0.023L0.3716,0.0227L0.3859,0.0223L0.4001,0.022L0.4143,0.0216L0.4286,0.0213L0.4428,0.0209L0.457,0.0205L0.4713,0.0201L0.4855,0.0198L0.4998,0.0194L0.514,0.019L0.5283,0.0185L0.5425,0.0181L0.5567,0.0177L0.571,0.0173L0.5852,0.0168L0.5995,0.0164L0.6137,0.016L0.628,0.0155L0.6422,0.015L0.6564,0.0146L0.6707,0.0141L0.6849,0.0136L0.6992,0.0132L0.7134,0.0127L0.7277,0.0122L0.7419,0.0117L0.7562,0.0112L0.7704,0.0107L0.7846,0.0101L0.7989,0.0096L0.8131,0.0091L0.8274,0.0086L0.8416,0.008L0.8559,0.0075L0.8701,0.007L0.8844,0.0064L0.8986,0.0059L0.9128,0.0053L0.9271,0.0047L0.9413,0.0042L0.9555,0.0036L0.9696,0.003L0.983,0.0025L0.9943,0.002L1,0.0017"
    />
</svg>
