
<svg 
  class="airfoil-ht12"
  fill="none"
  stroke="black" 
  stroke-width="1"
  style="overflow:visible"
  viewBox="0, -0.0251, 1, 0.0502"
  xmlns="http://www.w3.org/2000/svg">
    <title>HT12</title>
    <path 
      vector-effect="non-scaling-stroke"
      d="M1,-0.0012L0.9934,-0.0014L0.9802,-0.0018L0.9646,-0.0023L0.9481,-0.0028L0.9316,-0.0033L0.915,-0.0038L0.8984,-0.0043L0.8818,-0.0048L0.8652,-0.0053L0.8486,-0.0058L0.832,-0.0063L0.8153,-0.0068L0.7987,-0.0073L0.7821,-0.0078L0.7655,-0.0083L0.7489,-0.0088L0.7323,-0.0093L0.7157,-0.0098L0.6991,-0.0103L0.6825,-0.0108L0.6659,-0.0113L0.6493,-0.0118L0.6327,-0.0123L0.6161,-0.0128L0.5995,-0.0133L0.5829,-0.0138L0.5663,-0.0143L0.5497,-0.0147L0.5331,-0.0152L0.5165,-0.0157L0.4999,-0.0162L0.4833,-0.0167L0.4667,-0.0172L0.4501,-0.0178L0.4335,-0.0184L0.4169,-0.0189L0.4003,-0.0195L0.3837,-0.0201L0.3671,-0.0207L0.3505,-0.0212L0.3339,-0.0218L0.3173,-0.0223L0.3008,-0.0229L0.2843,-0.0234L0.2678,-0.0238L0.2514,-0.0242L0.235,-0.0246L0.2186,-0.0248L0.2023,-0.025L0.1861,-0.0251L0.1699,-0.0251L0.1538,-0.0249L0.1378,-0.0246L0.1219,-0.0242L0.1061,-0.0236L0.0905,-0.0227L0.0753,-0.0216L0.0606,-0.0202L0.0468,-0.0185L0.0346,-0.0166L0.0248,-0.0145L0.0175,-0.0125L0.0122,-0.0107L0.0083,-0.009L0.0053,-0.0074L0.0032,-0.0058L0.0016,-0.0041L0.0005,-0.0025L0.0001,-0.0008L0,-0L0.0001,0.0008L0.0005,0.0024L0.0016,0.0041L0.0032,0.0057L0.0053,0.0074L0.0083,0.009L0.0122,0.0107L0.0175,0.0125L0.0248,0.0145L0.0346,0.0165L0.0468,0.0185L0.0606,0.0202L0.0753,0.0216L0.0905,0.0227L0.1061,0.0235L0.1219,0.0242L0.1378,0.0246L0.1538,0.0249L0.1699,0.0251L0.1861,0.0251L0.2023,0.025L0.2186,0.0248L0.235,0.0245L0.2514,0.0242L0.2678,0.0238L0.2843,0.0233L0.3008,0.0228L0.3173,0.0223L0.3339,0.0218L0.3505,0.0212L0.3671,0.0206L0.3837,0.0201L0.4003,0.0195L0.4169,0.0189L0.4335,0.0183L0.4501,0.0178L0.4667,0.0172L0.4833,0.0166L0.4999,0.0162L0.5165,0.0157L0.5331,0.0152L0.5497,0.0147L0.5663,0.0142L0.5829,0.0138L0.5995,0.0133L0.6161,0.0128L0.6327,0.0123L0.6493,0.0118L0.6659,0.0113L0.6825,0.0108L0.6991,0.0103L0.7157,0.0098L0.7323,0.0093L0.7489,0.0088L0.7655,0.0083L0.7821,0.0078L0.7987,0.0073L0.8153,0.0068L0.832,0.0063L0.8486,0.0058L0.8652,0.0053L0.8818,0.0048L0.8984,0.0043L0.915,0.0038L0.9316,0.0033L0.9481,0.0028L0.9646,0.0023L0.9802,0.0018L0.9934,0.0014L1,0.0012"
    />
</svg>
