
<svg 
  class="airfoil-ht13"
  fill="none"
  stroke="black" 
  stroke-width="1"
  style="overflow:visible"
  viewBox="0.0001, -0.0325, 0.9999, 0.065"
  xmlns="http://www.w3.org/2000/svg">
    <title>HT 13</title>
    <path 
      vector-effect="non-scaling-stroke"
      d="M1,-0.001L0.9933,-0.0013L0.9813,-0.0018L0.9667,-0.0024L0.9501,-0.0031L0.9321,-0.0039L0.9134,-0.0047L0.8945,-0.0055L0.8753,-0.0063L0.8561,-0.0071L0.8369,-0.0079L0.8177,-0.0087L0.7985,-0.0096L0.7792,-0.0104L0.76,-0.0112L0.7408,-0.012L0.7215,-0.0128L0.7023,-0.0137L0.6831,-0.0145L0.6638,-0.0153L0.6446,-0.0161L0.6254,-0.0169L0.6061,-0.0177L0.5869,-0.0186L0.5677,-0.0194L0.5484,-0.0202L0.5292,-0.021L0.51,-0.0218L0.4908,-0.0226L0.4715,-0.0235L0.4523,-0.0243L0.4332,-0.0251L0.414,-0.026L0.3949,-0.0268L0.3758,-0.0276L0.3568,-0.0283L0.3378,-0.029L0.319,-0.0297L0.3002,-0.0304L0.2815,-0.031L0.2629,-0.0315L0.2444,-0.0319L0.2261,-0.0322L0.2079,-0.0324L0.1899,-0.0325L0.1722,-0.0325L0.1549,-0.0322L0.138,-0.0318L0.1218,-0.0312L0.1064,-0.0304L0.0921,-0.0295L0.0792,-0.0283L0.0678,-0.027L0.0578,-0.0257L0.0491,-0.0242L0.0417,-0.0227L0.0353,-0.0213L0.0298,-0.0198L0.025,-0.0184L0.0208,-0.0169L0.0171,-0.0155L0.0139,-0.0141L0.011,-0.0126L0.0085,-0.0111L0.0063,-0.0096L0.0043,-0.0081L0.0027,-0.0065L0.0014,-0.0048L0.0005,-0.0029L0.0001,-0.001L0.0001,0.0009L0.0005,0.0029L0.0014,0.0047L0.0027,0.0064L0.0043,0.0081L0.0063,0.0096L0.0085,0.0111L0.011,0.0126L0.0139,0.014L0.0171,0.0154L0.0208,0.0169L0.025,0.0183L0.0298,0.0198L0.0353,0.0212L0.0417,0.0227L0.0491,0.0242L0.0578,0.0256L0.0678,0.027L0.0792,0.0283L0.0921,0.0294L0.1064,0.0304L0.1218,0.0312L0.138,0.0318L0.1549,0.0322L0.1722,0.0324L0.1899,0.0325L0.2079,0.0324L0.2261,0.0322L0.2444,0.0319L0.2629,0.0314L0.2815,0.0309L0.3002,0.0303L0.319,0.0297L0.3378,0.029L0.3568,0.0283L0.3758,0.0275L0.3949,0.0267L0.414,0.0259L0.4332,0.0251L0.4523,0.0243L0.4715,0.0234L0.4908,0.0226L0.51,0.0218L0.5292,0.021L0.5484,0.0202L0.5677,0.0194L0.5869,0.0185L0.6061,0.0177L0.6254,0.0169L0.6446,0.0161L0.6638,0.0153L0.6831,0.0145L0.7023,0.0136L0.7215,0.0128L0.7408,0.012L0.76,0.0112L0.7792,0.0104L0.7985,0.0095L0.8177,0.0087L0.8369,0.0079L0.8561,0.0071L0.8753,0.0063L0.8944,0.0055L0.9134,0.0046L0.9321,0.0039L0.9501,0.0031L0.9667,0.0024L0.9813,0.0018L0.9933,0.0013L1,0.001"
    />
</svg>
