
<svg 
  class="airfoil-ht14"
  fill="none"
  stroke="black" 
  stroke-width="1"
  style="overflow:visible"
  viewBox="0, -0.0375, 1, 0.0749"
  xmlns="http://www.w3.org/2000/svg">
    <title>HT 14</title>
    <path 
      vector-effect="non-scaling-stroke"
      d="M1,-0.0009L0.9933,-0.0013L0.9812,-0.0018L0.9667,-0.0026L0.95,-0.0034L0.932,-0.0043L0.9133,-0.0052L0.8943,-0.0062L0.8751,-0.0071L0.8559,-0.0081L0.8366,-0.0091L0.8174,-0.0101L0.7981,-0.0111L0.7788,-0.012L0.7596,-0.013L0.7403,-0.014L0.721,-0.015L0.7018,-0.016L0.6825,-0.0169L0.6632,-0.0179L0.6439,-0.0189L0.6247,-0.0199L0.6054,-0.0209L0.5861,-0.0219L0.5669,-0.0228L0.5476,-0.0238L0.5284,-0.0248L0.5091,-0.0258L0.4898,-0.0268L0.4706,-0.0278L0.4514,-0.0287L0.4321,-0.0297L0.4129,-0.0306L0.3938,-0.0315L0.3746,-0.0324L0.3556,-0.0332L0.3366,-0.034L0.3177,-0.0347L0.2989,-0.0354L0.2801,-0.036L0.2615,-0.0365L0.243,-0.0369L0.2246,-0.0372L0.2064,-0.0374L0.1884,-0.0375L0.1707,-0.0374L0.1533,-0.0371L0.1364,-0.0366L0.1201,-0.0359L0.1047,-0.0349L0.0904,-0.0338L0.0775,-0.0325L0.066,-0.031L0.0561,-0.0293L0.0475,-0.0276L0.0401,-0.0258L0.0337,-0.024L0.0282,-0.0223L0.0235,-0.0205L0.0194,-0.0188L0.0159,-0.0171L0.0127,-0.0154L0.01,-0.0137L0.0076,-0.012L0.0055,-0.0103L0.0037,-0.0086L0.0022,-0.0068L0.001,-0.0049L0.0003,-0.003L0,-0.001L0,0.0009L0.0003,0.0029L0.001,0.0049L0.0022,0.0067L0.0037,0.0085L0.0055,0.0103L0.0076,0.012L0.01,0.0137L0.0127,0.0154L0.0159,0.0171L0.0194,0.0188L0.0235,0.0205L0.0282,0.0222L0.0337,0.024L0.0401,0.0258L0.0475,0.0275L0.0561,0.0293L0.066,0.0309L0.0775,0.0324L0.0904,0.0338L0.1047,0.0349L0.1201,0.0358L0.1364,0.0365L0.1533,0.037L0.1707,0.0373L0.1884,0.0374L0.2064,0.0374L0.2246,0.0372L0.243,0.0369L0.2615,0.0365L0.2801,0.036L0.2989,0.0354L0.3177,0.0347L0.3366,0.034L0.3556,0.0332L0.3746,0.0324L0.3938,0.0315L0.4129,0.0306L0.4321,0.0296L0.4514,0.0287L0.4706,0.0277L0.4898,0.0268L0.5091,0.0258L0.5284,0.0248L0.5476,0.0238L0.5669,0.0228L0.5861,0.0218L0.6054,0.0209L0.6247,0.0199L0.6439,0.0189L0.6632,0.0179L0.6825,0.0169L0.7018,0.0159L0.721,0.015L0.7403,0.014L0.7596,0.013L0.7788,0.012L0.7981,0.011L0.8174,0.0101L0.8366,0.0091L0.8559,0.0081L0.8751,0.0071L0.8943,0.0062L0.9133,0.0052L0.932,0.0043L0.95,0.0034L0.9667,0.0026L0.9812,0.0018L0.9933,0.0013L1,0.0009"
    />
</svg>
