
<svg 
  class="airfoil-ht21"
  fill="none"
  stroke="black" 
  stroke-width="1"
  style="overflow:visible"
  viewBox="0.0001, -0.0255, 0.9999, 0.051"
  xmlns="http://www.w3.org/2000/svg">
    <title>HT21</title>
    <path 
      vector-effect="non-scaling-stroke"
      d="M1,-0.006L0.9935,-0.0062L0.9801,-0.0066L0.9644,-0.007L0.9482,-0.0075L0.9319,-0.008L0.9156,-0.0085L0.8993,-0.009L0.883,-0.0095L0.8667,-0.01L0.8504,-0.0105L0.834,-0.011L0.8177,-0.0115L0.8014,-0.012L0.7851,-0.0125L0.7688,-0.013L0.7525,-0.0135L0.7362,-0.014L0.7199,-0.0144L0.7036,-0.0149L0.6873,-0.0154L0.671,-0.0159L0.6547,-0.0163L0.6384,-0.0168L0.6221,-0.0173L0.6058,-0.0177L0.5895,-0.0181L0.5732,-0.0186L0.5569,-0.019L0.5406,-0.0195L0.5243,-0.0199L0.508,-0.0203L0.4918,-0.0207L0.4755,-0.0211L0.4592,-0.0215L0.4429,-0.0219L0.4266,-0.0222L0.4104,-0.0226L0.3941,-0.0229L0.3778,-0.0232L0.3615,-0.0235L0.3453,-0.0238L0.329,-0.0241L0.3127,-0.0244L0.2965,-0.0246L0.2802,-0.0249L0.264,-0.0251L0.2478,-0.0252L0.2316,-0.0254L0.2154,-0.0255L0.1992,-0.0255L0.1831,-0.0255L0.1671,-0.0254L0.1511,-0.0253L0.1352,-0.025L0.1194,-0.0246L0.1037,-0.024L0.0883,-0.0231L0.0731,-0.0221L0.0584,-0.0206L0.0445,-0.0188L0.0321,-0.0167L0.0221,-0.0143L0.0148,-0.0121L0.0098,-0.01L0.0062,-0.0081L0.0036,-0.0063L0.0018,-0.0045L0.0006,-0.0027L0.0001,-0.0009L0.0001,0.0009L0.0006,0.0027L0.0018,0.0045L0.0036,0.0063L0.0062,0.0081L0.0098,0.01L0.0148,0.0121L0.0221,0.0143L0.0321,0.0167L0.0445,0.0188L0.0584,0.0206L0.0732,0.0221L0.0883,0.0231L0.1037,0.024L0.1194,0.0246L0.1352,0.025L0.1511,0.0253L0.1671,0.0254L0.1831,0.0255L0.1992,0.0255L0.2154,0.0255L0.2316,0.0254L0.2478,0.0252L0.264,0.0251L0.2802,0.0249L0.2965,0.0246L0.3127,0.0244L0.329,0.0241L0.3453,0.0238L0.3615,0.0235L0.3778,0.0232L0.3941,0.0229L0.4104,0.0226L0.4266,0.0222L0.4429,0.0219L0.4592,0.0215L0.4755,0.0211L0.4918,0.0207L0.508,0.0203L0.5243,0.0199L0.5406,0.0195L0.5569,0.019L0.5732,0.0186L0.5895,0.0181L0.6058,0.0177L0.6221,0.0173L0.6384,0.0168L0.6547,0.0163L0.671,0.0159L0.6873,0.0154L0.7036,0.0149L0.7199,0.0144L0.7362,0.014L0.7525,0.0135L0.7688,0.013L0.7851,0.0125L0.8014,0.012L0.8177,0.0115L0.834,0.011L0.8504,0.0105L0.8667,0.01L0.883,0.0095L0.8993,0.009L0.9156,0.0085L0.9319,0.008L0.9482,0.0075L0.9644,0.007L0.9801,0.0066L0.9935,0.0062L1,0.006"
    />
</svg>
