
<svg 
  class="airfoil-ht22"
  fill="none"
  stroke="black" 
  stroke-width="1"
  style="overflow:visible"
  viewBox="0, -0.0361, 1.0001, 0.051"
  xmlns="http://www.w3.org/2000/svg">
    <title>HT22</title>
    <path 
      vector-effect="non-scaling-stroke"
      d="M1.0001,-0.0008L0.9936,-0.0011L0.9817,-0.0017L0.9674,-0.0024L0.951,-0.0032L0.9332,-0.0041L0.9148,-0.005L0.896,-0.0059L0.8771,-0.0068L0.8581,-0.0077L0.8391,-0.0086L0.82,-0.0096L0.801,-0.0105L0.7819,-0.0114L0.7628,-0.0123L0.7438,-0.0133L0.7247,-0.0142L0.7056,-0.0151L0.6866,-0.016L0.6675,-0.017L0.6484,-0.0179L0.6293,-0.0188L0.6101,-0.0198L0.5909,-0.0207L0.5716,-0.0217L0.5523,-0.0226L0.533,-0.0236L0.5136,-0.0245L0.4943,-0.0255L0.475,-0.0264L0.4557,-0.0274L0.4364,-0.0283L0.4173,-0.0292L0.3985,-0.0301L0.3798,-0.031L0.3653,-0.0316L0.3561,-0.032L0.3426,-0.0326L0.3229,-0.0334L0.3027,-0.0342L0.2832,-0.0348L0.2643,-0.0353L0.2458,-0.0357L0.2275,-0.036L0.2093,-0.0361L0.1913,-0.036L0.1737,-0.0358L0.1563,-0.0354L0.1396,-0.0347L0.1236,-0.0339L0.1085,-0.0329L0.0946,-0.0317L0.0819,-0.0303L0.0708,-0.0289L0.0611,-0.0275L0.0527,-0.0261L0.0456,-0.0247L0.0394,-0.0234L0.0341,-0.0221L0.0295,-0.0208L0.0254,-0.0195L0.0217,-0.0183L0.0182,-0.0169L0.0148,-0.0155L0.0115,-0.0138L0.0082,-0.0118L0.0053,-0.0095L0.0029,-0.007L0.001,-0.0041L0.0001,-0.001L0,-0L0.0002,0.0014L0.0009,0.0031L0.0017,0.0042L0.0025,0.0049L0.0035,0.0056L0.005,0.0065L0.0068,0.0073L0.0089,0.008L0.0112,0.0087L0.0139,0.0094L0.0169,0.01L0.0206,0.0106L0.0249,0.0112L0.0299,0.0118L0.0357,0.0123L0.0424,0.0128L0.05,0.0132L0.0587,0.0136L0.0686,0.014L0.0799,0.0143L0.0927,0.0145L0.107,0.0147L0.1223,0.0148L0.1386,0.0149L0.1555,0.0149L0.1728,0.0149L0.1905,0.0148L0.2085,0.0146L0.2267,0.0145L0.245,0.0143L0.2638,0.0141L0.2831,0.0139L0.3032,0.0136L0.3241,0.0133L0.3457,0.013L0.3566,0.0128L0.3701,0.0126L0.3853,0.0123L0.4024,0.012L0.4197,0.0117L0.4373,0.0114L0.4552,0.011L0.4734,0.0107L0.4918,0.0103L0.5102,0.01L0.5287,0.0097L0.5472,0.0093L0.5658,0.009L0.5844,0.0086L0.6031,0.0083L0.622,0.0079L0.641,0.0076L0.6603,0.0072L0.6797,0.0068L0.6992,0.0065L0.7187,0.0061L0.7381,0.0057L0.7576,0.0054L0.7771,0.005L0.7966,0.0046L0.816,0.0043L0.8355,0.0039L0.8549,0.0035L0.8744,0.0032L0.8937,0.0028L0.9129,0.0025L0.9317,0.0021L0.9498,0.0018L0.9665,0.0014L0.9811,0.0012L0.9932,0.0009L0.9999,0.0008"
    />
</svg>
