
<svg 
  class="airfoil-ht23"
  fill="none"
  stroke="black" 
  stroke-width="1"
  style="overflow:visible"
  viewBox="0, -0.0433, 1, 0.0651"
  xmlns="http://www.w3.org/2000/svg">
    <title>HT23</title>
    <path 
      vector-effect="non-scaling-stroke"
      d="M1,-0.001L0.9933,-0.0014L0.9813,-0.0021L0.9668,-0.0029L0.9501,-0.0038L0.9322,-0.0048L0.9136,-0.0058L0.8946,-0.0069L0.8755,-0.0079L0.8564,-0.009L0.8372,-0.0101L0.818,-0.0112L0.7988,-0.0123L0.7796,-0.0134L0.7604,-0.0145L0.7412,-0.0156L0.7221,-0.0167L0.7029,-0.0178L0.6838,-0.0189L0.6647,-0.02L0.6455,-0.0212L0.6265,-0.0223L0.6074,-0.0235L0.5883,-0.0246L0.5692,-0.0258L0.5502,-0.027L0.5311,-0.0282L0.5121,-0.0294L0.4931,-0.0306L0.474,-0.0318L0.4549,-0.0329L0.4359,-0.0341L0.417,-0.0353L0.3982,-0.0364L0.3796,-0.0374L0.3649,-0.0382L0.3558,-0.0387L0.3422,-0.0394L0.3225,-0.0404L0.3024,-0.0412L0.2828,-0.042L0.264,-0.0426L0.2456,-0.043L0.2272,-0.0432L0.209,-0.0433L0.1911,-0.0431L0.1734,-0.0427L0.1561,-0.0421L0.1394,-0.0412L0.1234,-0.04L0.1083,-0.0386L0.0943,-0.037L0.0817,-0.0352L0.0706,-0.0334L0.0609,-0.0315L0.0525,-0.0296L0.0454,-0.0278L0.0392,-0.0261L0.034,-0.0244L0.0293,-0.0229L0.0252,-0.0213L0.0215,-0.0198L0.018,-0.0182L0.0146,-0.0165L0.0113,-0.0146L0.0081,-0.0124L0.0052,-0.0099L0.0028,-0.0072L0.001,-0.0042L0.0001,-0.0011L0,-0L0.0001,0.0014L0.0008,0.0031L0.0016,0.0043L0.0023,0.005L0.0033,0.0058L0.0048,0.0067L0.0066,0.0077L0.0087,0.0085L0.011,0.0094L0.0137,0.0102L0.0168,0.0111L0.0204,0.0119L0.0247,0.0128L0.0297,0.0137L0.0355,0.0147L0.0422,0.0156L0.0498,0.0165L0.0585,0.0173L0.0684,0.0182L0.0797,0.019L0.0925,0.0197L0.1067,0.0204L0.1221,0.0209L0.1384,0.0213L0.1552,0.0216L0.1726,0.0217L0.1903,0.0218L0.2082,0.0218L0.2264,0.0217L0.2447,0.0215L0.2635,0.0213L0.2828,0.0211L0.3028,0.0208L0.3238,0.0204L0.3461,0.02L0.3575,0.0197L0.3714,0.0194L0.387,0.0191L0.4046,0.0187L0.4222,0.0182L0.4401,0.0178L0.4583,0.0173L0.4768,0.0168L0.4953,0.0163L0.514,0.0158L0.5326,0.0152L0.5512,0.0147L0.5698,0.0142L0.5885,0.0136L0.6071,0.0131L0.6259,0.0125L0.6448,0.0119L0.6639,0.0113L0.6832,0.0107L0.7024,0.0101L0.7216,0.0095L0.7408,0.0089L0.7601,0.0083L0.7793,0.0077L0.7985,0.0071L0.8178,0.0066L0.837,0.006L0.8562,0.0054L0.8753,0.0048L0.8945,0.0042L0.9134,0.0036L0.9321,0.003L0.9501,0.0025L0.9667,0.002L0.9812,0.0016L0.9933,0.0012L1,0.001"
    />
</svg>
