
<svg 
  class="airfoil-ht33"
  fill="none"
  stroke="black" 
  stroke-width="1"
  style="overflow:visible"
  viewBox="0, -0.0297, 1, 0.0594"
  xmlns="http://www.w3.org/2000/svg">
    <title>HT33</title>
    <path 
      vector-effect="non-scaling-stroke"
      d="M1,-0.0006L0.9952,-0.0008L0.9881,-0.0011L0.9797,-0.0015L0.9708,-0.0019L0.9615,-0.0023L0.9521,-0.0028L0.9426,-0.0032L0.9331,-0.0036L0.9236,-0.0041L0.9141,-0.0045L0.9046,-0.0049L0.8951,-0.0054L0.8856,-0.0058L0.8761,-0.0062L0.8666,-0.0067L0.8571,-0.0071L0.8476,-0.0075L0.8381,-0.008L0.8286,-0.0084L0.8191,-0.0088L0.8096,-0.0093L0.8001,-0.0097L0.7906,-0.0101L0.7811,-0.0106L0.7716,-0.011L0.7621,-0.0114L0.7526,-0.0118L0.7431,-0.0123L0.7336,-0.0127L0.7241,-0.0131L0.7146,-0.0136L0.7051,-0.014L0.6956,-0.0144L0.6861,-0.0148L0.6766,-0.0152L0.6672,-0.0157L0.6577,-0.0161L0.6482,-0.0165L0.6387,-0.0169L0.6292,-0.0173L0.6197,-0.0177L0.6102,-0.0181L0.6007,-0.0185L0.5912,-0.0189L0.5818,-0.0193L0.5723,-0.0197L0.5628,-0.02L0.5533,-0.0204L0.5438,-0.0208L0.5343,-0.0212L0.5249,-0.0215L0.5154,-0.0219L0.5059,-0.0222L0.4965,-0.0226L0.487,-0.0229L0.4776,-0.0233L0.4682,-0.0236L0.4587,-0.024L0.4493,-0.0244L0.4398,-0.0247L0.4303,-0.025L0.4208,-0.0254L0.4114,-0.0257L0.4019,-0.026L0.3924,-0.0263L0.383,-0.0266L0.3735,-0.0269L0.3641,-0.0272L0.3546,-0.0275L0.3452,-0.0277L0.3357,-0.028L0.3263,-0.0282L0.3168,-0.0285L0.3074,-0.0287L0.298,-0.0289L0.2886,-0.0291L0.2792,-0.0292L0.2698,-0.0294L0.2604,-0.0295L0.251,-0.0296L0.2416,-0.0297L0.2323,-0.0297L0.2229,-0.0297L0.2136,-0.0297L0.2043,-0.0297L0.195,-0.0296L0.1857,-0.0295L0.1764,-0.0293L0.1672,-0.0292L0.1579,-0.0289L0.1487,-0.0286L0.1395,-0.0283L0.1304,-0.0279L0.1212,-0.0274L0.1122,-0.0269L0.1031,-0.0263L0.0942,-0.0256L0.0853,-0.0249L0.0765,-0.024L0.0678,-0.0231L0.0594,-0.022L0.0511,-0.0208L0.0433,-0.0195L0.036,-0.0181L0.0294,-0.0167L0.0237,-0.0152L0.0189,-0.0138L0.0151,-0.0124L0.0119,-0.0112L0.0094,-0.01L0.0073,-0.0089L0.0056,-0.0078L0.0041,-0.0068L0.0029,-0.0058L0.0019,-0.0047L0.0011,-0.0037L0.0006,-0.0026L0.0002,-0.0016L0,-0.0005L0,0.0005L0.0002,0.0015L0.0006,0.0026L0.0011,0.0037L0.0019,0.0047L0.0029,0.0058L0.0041,0.0068L0.0056,0.0078L0.0073,0.0089L0.0094,0.01L0.012,0.0112L0.0151,0.0124L0.0189,0.0138L0.0237,0.0152L0.0294,0.0166L0.036,0.0181L0.0433,0.0195L0.0511,0.0208L0.0594,0.022L0.0678,0.0231L0.0765,0.024L0.0853,0.0249L0.0942,0.0256L0.1032,0.0263L0.1122,0.0269L0.1213,0.0274L0.1304,0.0279L0.1395,0.0283L0.1487,0.0286L0.1579,0.0289L0.1672,0.0291L0.1764,0.0293L0.1857,0.0295L0.195,0.0296L0.2043,0.0297L0.2136,0.0297L0.2229,0.0297L0.2323,0.0297L0.2416,0.0297L0.251,0.0296L0.2604,0.0295L0.2698,0.0294L0.2792,0.0292L0.2886,0.029L0.298,0.0289L0.3074,0.0287L0.3169,0.0285L0.3263,0.0282L0.3357,0.028L0.3452,0.0277L0.3546,0.0275L0.3641,0.0272L0.3735,0.0269L0.383,0.0266L0.3925,0.0263L0.4019,0.026L0.4114,0.0257L0.4209,0.0254L0.4303,0.025L0.4398,0.0247L0.4493,0.0243L0.4587,0.024L0.4682,0.0236L0.4776,0.0233L0.487,0.0229L0.4965,0.0226L0.5059,0.0222L0.5154,0.0219L0.5249,0.0215L0.5343,0.0212L0.5438,0.0208L0.5533,0.0204L0.5628,0.02L0.5723,0.0197L0.5818,0.0193L0.5912,0.0189L0.6007,0.0185L0.6102,0.0181L0.6197,0.0177L0.6292,0.0173L0.6387,0.0169L0.6482,0.0165L0.6577,0.0161L0.6672,0.0156L0.6766,0.0152L0.6861,0.0148L0.6956,0.0144L0.7051,0.014L0.7146,0.0135L0.7241,0.0131L0.7336,0.0127L0.7431,0.0123L0.7526,0.0118L0.7621,0.0114L0.7716,0.011L0.7811,0.0106L0.7906,0.0101L0.8001,0.0097L0.8096,0.0093L0.8191,0.0088L0.8286,0.0084L0.8381,0.008L0.8476,0.0075L0.8571,0.0071L0.8666,0.0067L0.8761,0.0062L0.8856,0.0058L0.8951,0.0054L0.9046,0.0049L0.9141,0.0045L0.9236,0.0041L0.9331,0.0036L0.9426,0.0032L0.9521,0.0028L0.9615,0.0023L0.9708,0.0019L0.9797,0.0015L0.9881,0.0011L0.9952,0.0008L1,0.0006"
    />
</svg>
