
<svg 
  class="airfoil-ht34"
  fill="none"
  stroke="black" 
  stroke-width="1"
  style="overflow:visible"
  viewBox="0, -0.0349, 1, 0.0698"
  xmlns="http://www.w3.org/2000/svg">
    <title>HT34</title>
    <path 
      vector-effect="non-scaling-stroke"
      d="M1,-0.0002L0.9952,-0.0005L0.9881,-0.0009L0.9797,-0.0014L0.9708,-0.0019L0.9615,-0.0024L0.952,-0.003L0.9426,-0.0035L0.9331,-0.0041L0.9236,-0.0047L0.9141,-0.0052L0.9046,-0.0058L0.895,-0.0063L0.8855,-0.0069L0.876,-0.0075L0.8665,-0.008L0.857,-0.0086L0.8475,-0.0091L0.838,-0.0097L0.8285,-0.0102L0.819,-0.0108L0.8095,-0.0113L0.7999,-0.0119L0.7904,-0.0125L0.7809,-0.013L0.7714,-0.0136L0.7619,-0.0141L0.7524,-0.0147L0.7429,-0.0152L0.7334,-0.0158L0.7239,-0.0163L0.7144,-0.0169L0.7049,-0.0174L0.6954,-0.0179L0.6859,-0.0185L0.6764,-0.019L0.6669,-0.0196L0.6574,-0.0201L0.6479,-0.0206L0.6384,-0.0211L0.6289,-0.0216L0.6194,-0.0222L0.6099,-0.0227L0.6004,-0.0232L0.5909,-0.0237L0.5814,-0.0241L0.5719,-0.0246L0.5624,-0.0251L0.5529,-0.0256L0.5434,-0.026L0.5339,-0.0265L0.5244,-0.0269L0.5149,-0.0274L0.5055,-0.0278L0.496,-0.0282L0.4866,-0.0286L0.4771,-0.0291L0.4677,-0.0295L0.4582,-0.0298L0.4487,-0.0302L0.4392,-0.0306L0.4298,-0.031L0.4203,-0.0313L0.4108,-0.0317L0.4013,-0.032L0.3918,-0.0323L0.3823,-0.0326L0.3729,-0.0329L0.3634,-0.0331L0.3539,-0.0334L0.3445,-0.0336L0.335,-0.0339L0.3256,-0.0341L0.3161,-0.0342L0.3067,-0.0344L0.2972,-0.0345L0.2878,-0.0347L0.2784,-0.0347L0.269,-0.0348L0.2596,-0.0349L0.2502,-0.0349L0.2408,-0.0349L0.2314,-0.0348L0.222,-0.0347L0.2127,-0.0346L0.2034,-0.0345L0.194,-0.0343L0.1847,-0.034L0.1755,-0.0338L0.1662,-0.0334L0.157,-0.0331L0.1477,-0.0326L0.1385,-0.0322L0.1294,-0.0316L0.1203,-0.031L0.1112,-0.0303L0.1022,-0.0296L0.0932,-0.0287L0.0843,-0.0278L0.0755,-0.0267L0.0669,-0.0256L0.0584,-0.0243L0.0502,-0.0229L0.0424,-0.0214L0.0351,-0.0197L0.0286,-0.018L0.0229,-0.0164L0.0182,-0.0147L0.0144,-0.0132L0.0114,-0.0118L0.0089,-0.0105L0.0068,-0.0093L0.0052,-0.0082L0.0038,-0.007L0.0026,-0.0059L0.0017,-0.0048L0.001,-0.0037L0.0005,-0.0026L0.0002,-0.0016L0,-0.0005L0,0.0005L0.0002,0.0016L0.0005,0.0026L0.001,0.0037L0.0017,0.0048L0.0026,0.0059L0.0038,0.007L0.0052,0.0082L0.0068,0.0093L0.0089,0.0105L0.0114,0.0118L0.0144,0.0132L0.0182,0.0147L0.0229,0.0164L0.0286,0.018L0.0351,0.0197L0.0424,0.0214L0.0502,0.0229L0.0584,0.0243L0.0669,0.0256L0.0755,0.0267L0.0843,0.0278L0.0932,0.0287L0.1022,0.0296L0.1112,0.0303L0.1203,0.031L0.1294,0.0316L0.1386,0.0322L0.1478,0.0326L0.157,0.0331L0.1662,0.0334L0.1755,0.0338L0.1848,0.034L0.1941,0.0343L0.2034,0.0345L0.2127,0.0346L0.2221,0.0347L0.2314,0.0348L0.2408,0.0349L0.2502,0.0349L0.2596,0.0349L0.269,0.0348L0.2784,0.0347L0.2878,0.0346L0.2972,0.0345L0.3067,0.0344L0.3161,0.0342L0.3256,0.0341L0.335,0.0339L0.3445,0.0336L0.354,0.0334L0.3634,0.0331L0.3729,0.0329L0.3824,0.0326L0.3918,0.0323L0.4013,0.032L0.4108,0.0317L0.4203,0.0313L0.4298,0.031L0.4393,0.0306L0.4488,0.0302L0.4582,0.0298L0.4677,0.0295L0.4771,0.029L0.4866,0.0286L0.496,0.0282L0.5055,0.0278L0.5149,0.0274L0.5244,0.0269L0.5339,0.0265L0.5434,0.026L0.5529,0.0256L0.5624,0.0251L0.5719,0.0246L0.5814,0.0241L0.5909,0.0237L0.6004,0.0232L0.6099,0.0227L0.6194,0.0222L0.6289,0.0216L0.6384,0.0211L0.6479,0.0206L0.6574,0.0201L0.6669,0.0196L0.6764,0.019L0.6859,0.0185L0.6954,0.0179L0.7049,0.0174L0.7144,0.0169L0.7239,0.0163L0.7334,0.0158L0.7429,0.0152L0.7524,0.0147L0.7619,0.0141L0.7714,0.0136L0.7809,0.013L0.7904,0.0125L0.7999,0.0119L0.8095,0.0113L0.819,0.0108L0.8285,0.0102L0.838,0.0097L0.8475,0.0091L0.857,0.0086L0.8665,0.008L0.876,0.0075L0.8855,0.0069L0.895,0.0063L0.9045,0.0058L0.9141,0.0052L0.9236,0.0047L0.9331,0.0041L0.9426,0.0036L0.952,0.003L0.9615,0.0024L0.9708,0.0019L0.9797,0.0014L0.9881,0.0009L0.9952,0.0005L1,0.0002"
    />
</svg>
