
<svg 
  class="airfoil-ht35"
  fill="none"
  stroke="black" 
  stroke-width="1"
  style="overflow:visible"
  viewBox="0, -0.0375, 1, 0.075"
  xmlns="http://www.w3.org/2000/svg">
    <title>HT35</title>
    <path 
      vector-effect="non-scaling-stroke"
      d="M1,0L0.9952,-0.0003L0.9884,-0.0007L0.9804,-0.0013L0.9715,-0.0018L0.9621,-0.0024L0.9525,-0.0031L0.9428,-0.0037L0.933,-0.0043L0.9232,-0.005L0.9134,-0.0056L0.9036,-0.0063L0.8939,-0.0069L0.8841,-0.0075L0.8743,-0.0082L0.8645,-0.0088L0.8547,-0.0094L0.8449,-0.0101L0.8351,-0.0107L0.8253,-0.0113L0.8155,-0.012L0.8057,-0.0126L0.796,-0.0132L0.7862,-0.0139L0.7764,-0.0145L0.7666,-0.0151L0.7568,-0.0158L0.747,-0.0164L0.7372,-0.017L0.7274,-0.0177L0.7177,-0.0183L0.7079,-0.0189L0.6981,-0.0195L0.6883,-0.0201L0.6786,-0.0207L0.6688,-0.0213L0.659,-0.0219L0.6493,-0.0225L0.6395,-0.0231L0.6298,-0.0237L0.62,-0.0243L0.6103,-0.0249L0.6005,-0.0254L0.5908,-0.026L0.581,-0.0266L0.5713,-0.0271L0.5615,-0.0276L0.5518,-0.0282L0.542,-0.0287L0.5323,-0.0292L0.5226,-0.0297L0.5128,-0.0302L0.5031,-0.0307L0.4934,-0.0311L0.4837,-0.0316L0.4739,-0.032L0.4642,-0.0325L0.4545,-0.0329L0.4448,-0.0333L0.4351,-0.0337L0.4254,-0.034L0.4157,-0.0344L0.406,-0.0348L0.3963,-0.0351L0.3866,-0.0354L0.3769,-0.0357L0.3672,-0.036L0.3576,-0.0362L0.3479,-0.0365L0.3382,-0.0367L0.3286,-0.0369L0.3189,-0.037L0.3093,-0.0372L0.2996,-0.0373L0.29,-0.0374L0.2804,-0.0375L0.2708,-0.0375L0.2612,-0.0375L0.2516,-0.0375L0.242,-0.0374L0.2324,-0.0373L0.2229,-0.0372L0.2134,-0.037L0.2038,-0.0368L0.1943,-0.0366L0.1849,-0.0363L0.1754,-0.036L0.166,-0.0356L0.1566,-0.0351L0.1472,-0.0346L0.1379,-0.0341L0.1287,-0.0334L0.1194,-0.0327L0.1103,-0.032L0.1012,-0.0311L0.0922,-0.0302L0.0834,-0.0291L0.0747,-0.028L0.0662,-0.0268L0.058,-0.0254L0.0502,-0.024L0.0429,-0.0225L0.0362,-0.0209L0.0304,-0.0194L0.0253,-0.0178L0.021,-0.0164L0.0174,-0.015L0.0143,-0.0137L0.0118,-0.0125L0.0096,-0.0114L0.0077,-0.0102L0.0061,-0.0091L0.0047,-0.0081L0.0035,-0.007L0.0024,-0.0059L0.0016,-0.0049L0.001,-0.0038L0.0005,-0.0027L0.0002,-0.0016L0,-0.0005L0,0.0005L0.0002,0.0016L0.0005,0.0027L0.001,0.0038L0.0016,0.0049L0.0024,0.0059L0.0035,0.007L0.0047,0.0081L0.0061,0.0091L0.0077,0.0102L0.0096,0.0114L0.0118,0.0125L0.0143,0.0137L0.0174,0.015L0.021,0.0164L0.0253,0.0178L0.0304,0.0194L0.0362,0.0209L0.0429,0.0225L0.0502,0.024L0.058,0.0254L0.0662,0.0268L0.0747,0.028L0.0834,0.0291L0.0922,0.0302L0.1012,0.0311L0.1103,0.032L0.1194,0.0327L0.1287,0.0334L0.1379,0.0341L0.1472,0.0346L0.1566,0.0351L0.166,0.0356L0.1754,0.036L0.1849,0.0363L0.1943,0.0366L0.2038,0.0368L0.2134,0.037L0.2229,0.0372L0.2324,0.0373L0.242,0.0374L0.2516,0.0375L0.2612,0.0375L0.2708,0.0375L0.2804,0.0375L0.29,0.0374L0.2996,0.0373L0.3093,0.0372L0.3189,0.037L0.3286,0.0369L0.3382,0.0367L0.3479,0.0365L0.3576,0.0362L0.3672,0.036L0.3769,0.0357L0.3866,0.0354L0.3963,0.0351L0.406,0.0348L0.4157,0.0344L0.4254,0.034L0.4351,0.0337L0.4448,0.0333L0.4545,0.0329L0.4642,0.0325L0.4739,0.032L0.4837,0.0316L0.4934,0.0311L0.5031,0.0307L0.5128,0.0302L0.5226,0.0297L0.5323,0.0292L0.542,0.0287L0.5518,0.0282L0.5615,0.0276L0.5713,0.0271L0.581,0.0266L0.5908,0.026L0.6005,0.0254L0.6103,0.0249L0.62,0.0243L0.6298,0.0237L0.6395,0.0231L0.6493,0.0225L0.659,0.022L0.6688,0.0213L0.6786,0.0207L0.6883,0.0201L0.6981,0.0195L0.7079,0.0189L0.7177,0.0183L0.7274,0.0177L0.7372,0.017L0.747,0.0164L0.7568,0.0158L0.7666,0.0151L0.7764,0.0145L0.7862,0.0139L0.796,0.0132L0.8057,0.0126L0.8155,0.012L0.8253,0.0113L0.8351,0.0107L0.8449,0.0101L0.8547,0.0094L0.8645,0.0088L0.8743,0.0082L0.8841,0.0075L0.8939,0.0069L0.9036,0.0063L0.9134,0.0056L0.9232,0.005L0.933,0.0043L0.9428,0.0037L0.9525,0.0031L0.9621,0.0025L0.9715,0.0018L0.9804,0.0013L0.9884,0.0007L0.9952,0.0003L1,0"
    />
</svg>
