
<svg 
  class="airfoil-isa571"
  fill="none"
  stroke="black" 
  stroke-width="1"
  style="overflow:visible"
  viewBox="0, -0.0802, 1, 0.0802"
  xmlns="http://www.w3.org/2000/svg">
    <title>I.S.A. 571</title>
    <path 
      vector-effect="non-scaling-stroke"
      d="M1,-0.003L0.95,-0.015L0.9,-0.025L0.8,-0.041L0.7,-0.0532L0.6,-0.0632L0.5,-0.0717L0.4,-0.0772L0.3,-0.0802L0.2,-0.078L0.15,-0.0725L0.1,-0.064L0.075,-0.057L0.05,-0.0487L0.025,-0.0355L0.0125,-0.0267L0,-0.01L0.0125,-0.0024L0.025,-0L0.05,-0L0.075,-0L0.1,-0.002L0.15,-0.004L0.2,-0.0055L0.3,-0.0065L0.4,-0.007L0.5,-0.007L0.6,-0.0062L0.7,-0.0055L0.8,-0.0044L0.9,-0.0025L0.95,-0.0015L1,-0"
    />
</svg>
