
<svg 
  class="airfoil-isa962"
  fill="none"
  stroke="black" 
  stroke-width="1"
  style="overflow:visible"
  viewBox="0, -0.106, 1, 0.106"
  xmlns="http://www.w3.org/2000/svg">
    <title>I.S.A. 962</title>
    <path 
      vector-effect="non-scaling-stroke"
      d="M1,-0.0042L0.95,-0.0166L0.9,-0.0269L0.8,-0.049L0.7,-0.0682L0.6,-0.0842L0.5,-0.0967L0.4,-0.1042L0.3,-0.106L0.2,-0.1025L0.15,-0.096L0.1,-0.087L0.075,-0.08L0.05,-0.0702L0.025,-0.055L0.0125,-0.043L0,-0.02L0.0125,-0.0035L0.025,-0.001L0.05,-0L0.075,-0L0.1,-0.0015L0.15,-0.004L0.2,-0.0067L0.3,-0.0115L0.4,-0.0144L0.5,-0.0137L0.6,-0.0122L0.7,-0.009L0.8,-0.0055L0.9,-0.0022L0.95,-0.0002L1,-0"
    />
</svg>
