
<svg 
  class="airfoil-isa961"
  fill="none"
  stroke="black" 
  stroke-width="1"
  style="overflow:visible"
  viewBox="0, -0.103, 1, 0.103"
  xmlns="http://www.w3.org/2000/svg">
    <title>I.S.A. 961</title>
    <path 
      vector-effect="non-scaling-stroke"
      d="M1,-0.0037L0.95,-0.0168L0.9,-0.0277L0.8,-0.049L0.7,-0.0675L0.6,-0.0825L0.5,-0.0937L0.4,-0.1005L0.3,-0.103L0.2,-0.0987L0.15,-0.0925L0.1,-0.0807L0.075,-0.074L0.05,-0.062L0.025,-0.049L0.0125,-0.0372L0,-0.0162L0.0125,-0.008L0.025,-0.0038L0.05,-0L0.075,-0L0.1,-0L0.15,-0.003L0.2,-0.006L0.3,-0.0105L0.4,-0.0122L0.5,-0.0112L0.6,-0.0097L0.7,-0.0077L0.8,-0.0047L0.9,-0.002L0.95,-0.0001L1,-0"
    />
</svg>
