
<svg 
  class="airfoil-isa960"
  fill="none"
  stroke="black" 
  stroke-width="1"
  style="overflow:visible"
  viewBox="0, -0.1043, 1, 0.1043"
  xmlns="http://www.w3.org/2000/svg">
    <title>I.S.A. 960</title>
    <path 
      vector-effect="non-scaling-stroke"
      d="M1,-0.0042L0.95,-0.017L0.9,-0.0275L0.8,-0.0495L0.7,-0.0677L0.6,-0.0842L0.5,-0.0957L0.4,-0.103L0.3,-0.1043L0.2,-0.099L0.15,-0.0935L0.1,-0.0792L0.075,-0.075L0.05,-0.0637L0.025,-0.049L0.0125,-0.0383L0,-0.018L0.0125,-0.0085L0.025,-0.005L0.05,-0.0005L0.075,-0L0.1,-0L0.15,-0.003L0.2,-0.0055L0.3,-0.0097L0.4,-0.0112L0.5,-0.0115L0.6,-0.0095L0.7,-0.0075L0.8,-0.005L0.9,-0.0025L0.95,-0.001L1,-0"
    />
</svg>
