
<svg 
  class="airfoil-ist-mt1-12"
  fill="none"
  stroke="black" 
  stroke-width="1"
  style="overflow:visible"
  viewBox="0, -0.1111, 1, 0.13780001"
  xmlns="http://www.w3.org/2000/svg">
    <title>IST-MT1-12</title>
    <path 
      vector-effect="non-scaling-stroke"
      d="M1,-0.0001L0.9843,-0.0063L0.9686,-0.012L0.9529,-0.0174L0.9372,-0.0226L0.9215,-0.0277L0.9059,-0.0327L0.8903,-0.0377L0.8747,-0.0426L0.8591,-0.0475L0.8436,-0.0523L0.8281,-0.057L0.8126,-0.0617L0.7972,-0.0661L0.7819,-0.0704L0.7666,-0.0745L0.7513,-0.0784L0.7361,-0.0821L0.721,-0.0856L0.706,-0.0888L0.691,-0.0917L0.6761,-0.0944L0.6613,-0.0969L0.6465,-0.0991L0.6319,-0.1011L0.6173,-0.1029L0.6029,-0.1045L0.5885,-0.1058L0.5742,-0.107L0.5601,-0.108L0.546,-0.1089L0.5321,-0.1096L0.5182,-0.1101L0.5045,-0.1106L0.491,-0.1109L0.4775,-0.111L0.4642,-0.1111L0.451,-0.111L0.4379,-0.1109L0.425,-0.1106L0.4122,-0.1103L0.3996,-0.1098L0.3871,-0.1093L0.3748,-0.1087L0.3626,-0.1079L0.3506,-0.1071L0.3387,-0.1062L0.327,-0.1052L0.3155,-0.1041L0.3041,-0.1029L0.2929,-0.1016L0.2819,-0.1002L0.271,-0.0988L0.2604,-0.0972L0.2499,-0.0956L0.2396,-0.0939L0.2295,-0.0921L0.2196,-0.0902L0.2098,-0.0882L0.2003,-0.0862L0.191,-0.0841L0.1819,-0.082L0.1729,-0.0798L0.1642,-0.0776L0.1557,-0.0753L0.1474,-0.0729L0.1393,-0.0706L0.1314,-0.0682L0.1237,-0.0657L0.1162,-0.0633L0.109,-0.0608L0.102,-0.0584L0.0952,-0.0559L0.0886,-0.0534L0.0822,-0.051L0.0761,-0.0485L0.0702,-0.0461L0.0646,-0.0437L0.0591,-0.0413L0.0539,-0.039L0.0489,-0.0366L0.0442,-0.0344L0.0397,-0.0322L0.0354,-0.03L0.0314,-0.0278L0.0276,-0.0258L0.0241,-0.0237L0.0208,-0.0218L0.0177,-0.0199L0.0149,-0.018L0.0123,-0.0162L0.01,-0.0144L0.0079,-0.0127L0.006,-0.011L0.0044,-0.0093L0.0031,-0.0077L0.002,-0.0062L0.0011,-0.0046L0.0005,-0.0031L0.0001,-0.0015L0,-0L0.0001,0.0014L0.0005,0.0028L0.0011,0.0042L0.002,0.0055L0.0031,0.0069L0.0044,0.0081L0.006,0.0094L0.0079,0.0106L0.01,0.0118L0.0123,0.0129L0.0149,0.0139L0.0177,0.0149L0.0208,0.0158L0.0241,0.0167L0.0276,0.0175L0.0314,0.0183L0.0354,0.019L0.0397,0.0197L0.0442,0.0204L0.0489,0.021L0.0539,0.0216L0.0591,0.0221L0.0646,0.0226L0.0702,0.0231L0.0761,0.0236L0.0822,0.024L0.0886,0.0244L0.0952,0.0248L0.102,0.0252L0.109,0.0255L0.1162,0.0258L0.1237,0.0261L0.1314,0.0263L0.1393,0.0265L0.1474,0.0267L0.1557,0.0267L0.1642,0.0267L0.1729,0.0266L0.1819,0.0265L0.191,0.0263L0.2003,0.0259L0.2098,0.0255L0.2196,0.025L0.2295,0.0243L0.2396,0.0236L0.2499,0.0228L0.2604,0.0218L0.271,0.0208L0.2819,0.0196L0.2929,0.0184L0.3041,0.0171L0.3155,0.0157L0.327,0.0142L0.3387,0.0126L0.3506,0.011L0.3626,0.0094L0.3748,0.0077L0.3871,0.006L0.3996,0.0042L0.4122,0.0024L0.425,0.0007L0.4379,-0.0011L0.451,-0.0029L0.4642,-0.0046L0.4775,-0.0063L0.491,-0.008L0.5045,-0.0096L0.5182,-0.0113L0.5321,-0.0128L0.546,-0.0143L0.5601,-0.0157L0.5742,-0.0171L0.5885,-0.0184L0.6029,-0.0196L0.6173,-0.0208L0.6319,-0.0218L0.6465,-0.0227L0.6613,-0.0236L0.6761,-0.0243L0.691,-0.0249L0.706,-0.0255L0.721,-0.0258L0.7361,-0.0261L0.7513,-0.0262L0.7666,-0.0263L0.7819,-0.0261L0.7972,-0.0259L0.8126,-0.0255L0.8281,-0.025L0.8436,-0.0244L0.8591,-0.0236L0.8747,-0.0226L0.8903,-0.0215L0.9059,-0.02L0.9215,-0.0183L0.9372,-0.0162L0.9529,-0.0134L0.9686,-0.01L0.9843,-0.0056L1,0.0001"
    />
</svg>
