
<svg 
  class="airfoil-ist-mt1-21"
  fill="none"
  stroke="black" 
  stroke-width="1"
  style="overflow:visible"
  viewBox="0, -0.1468, 1, 0.2191"
  xmlns="http://www.w3.org/2000/svg">
    <title>IST-MT1-21</title>
    <path 
      vector-effect="non-scaling-stroke"
      d="M1,-0.0002L0.9843,-0.0087L0.9686,-0.0161L0.9529,-0.0226L0.9372,-0.0283L0.9215,-0.0334L0.9059,-0.038L0.8903,-0.0422L0.8747,-0.0461L0.8591,-0.0497L0.8436,-0.0531L0.8281,-0.0563L0.8126,-0.0595L0.7972,-0.0626L0.7819,-0.0657L0.7666,-0.0687L0.7513,-0.0718L0.7361,-0.075L0.721,-0.0781L0.706,-0.0814L0.691,-0.0847L0.6761,-0.088L0.6613,-0.0914L0.6465,-0.0949L0.6319,-0.0983L0.6173,-0.1019L0.6029,-0.1054L0.5885,-0.1089L0.5742,-0.1123L0.5601,-0.1157L0.546,-0.1191L0.5321,-0.1223L0.5182,-0.1254L0.5045,-0.1283L0.491,-0.1311L0.4775,-0.1337L0.4642,-0.1361L0.451,-0.1383L0.4379,-0.1403L0.425,-0.142L0.4122,-0.1434L0.3996,-0.1446L0.3871,-0.1456L0.3748,-0.1462L0.3626,-0.1466L0.3506,-0.1468L0.3387,-0.1467L0.327,-0.1463L0.3155,-0.1457L0.3041,-0.1449L0.2929,-0.1439L0.2819,-0.1426L0.271,-0.1412L0.2604,-0.1396L0.2499,-0.1378L0.2396,-0.1358L0.2295,-0.1337L0.2196,-0.1314L0.2098,-0.129L0.2003,-0.1265L0.191,-0.1239L0.1819,-0.1212L0.1729,-0.1184L0.1642,-0.1155L0.1557,-0.1126L0.1474,-0.1095L0.1393,-0.1064L0.1314,-0.1032L0.1237,-0.1L0.1162,-0.0967L0.109,-0.0934L0.102,-0.0901L0.0952,-0.0867L0.0886,-0.0832L0.0822,-0.0798L0.0761,-0.0763L0.0702,-0.0729L0.0646,-0.0694L0.0591,-0.0659L0.0539,-0.0625L0.0489,-0.0591L0.0442,-0.0557L0.0397,-0.0523L0.0354,-0.049L0.0314,-0.0457L0.0276,-0.0424L0.0241,-0.0392L0.0208,-0.0361L0.0177,-0.033L0.0149,-0.03L0.0123,-0.0271L0.01,-0.0242L0.0079,-0.0213L0.006,-0.0185L0.0044,-0.0158L0.0031,-0.0131L0.002,-0.0104L0.0011,-0.0078L0.0005,-0.0052L0.0001,-0.0026L0,-0L0.0001,0.0023L0.0005,0.0047L0.0011,0.007L0.002,0.0093L0.0031,0.0117L0.0044,0.0139L0.006,0.0162L0.0079,0.0185L0.01,0.0207L0.0123,0.0229L0.0149,0.0251L0.0177,0.0273L0.0208,0.0294L0.0241,0.0315L0.0276,0.0336L0.0314,0.0357L0.0354,0.0377L0.0397,0.0397L0.0442,0.0417L0.0489,0.0437L0.0539,0.0456L0.0591,0.0475L0.0646,0.0494L0.0702,0.0512L0.0761,0.0531L0.0822,0.0548L0.0886,0.0566L0.0952,0.0583L0.102,0.0599L0.109,0.0615L0.1162,0.063L0.1237,0.0644L0.1314,0.0658L0.1393,0.067L0.1474,0.0681L0.1557,0.0692L0.1642,0.0701L0.1729,0.0708L0.1819,0.0714L0.191,0.0719L0.2003,0.0722L0.2098,0.0723L0.2196,0.0722L0.2295,0.0719L0.2396,0.0714L0.2499,0.0707L0.2604,0.0698L0.271,0.0687L0.2819,0.0674L0.2929,0.0658L0.3041,0.064L0.3155,0.0621L0.327,0.0599L0.3387,0.0575L0.3506,0.0549L0.3626,0.0522L0.3748,0.0493L0.3871,0.0462L0.3996,0.043L0.4122,0.0397L0.425,0.0363L0.4379,0.0328L0.451,0.0293L0.4642,0.0258L0.4775,0.0222L0.491,0.0186L0.5045,0.0151L0.5182,0.0117L0.5321,0.0084L0.546,0.0051L0.5601,0.002L0.5742,-0.0009L0.5885,-0.0037L0.6029,-0.0063L0.6173,-0.0087L0.6319,-0.0109L0.6465,-0.0128L0.6613,-0.0145L0.6761,-0.016L0.691,-0.0173L0.706,-0.0183L0.721,-0.0192L0.7361,-0.0198L0.7513,-0.0203L0.7666,-0.0206L0.7819,-0.0208L0.7972,-0.0208L0.8126,-0.0208L0.8281,-0.0206L0.8436,-0.0204L0.8591,-0.02L0.8747,-0.0196L0.8903,-0.019L0.9059,-0.0182L0.9215,-0.017L0.9372,-0.0154L0.9529,-0.0132L0.9686,-0.0101L0.9843,-0.0057L1,0.0002"
    />
</svg>
