
<svg 
  class="airfoil-ist-mt1-18"
  fill="none"
  stroke="black" 
  stroke-width="1"
  style="overflow:visible"
  viewBox="0, -0.1623, 1, 0.2034"
  xmlns="http://www.w3.org/2000/svg">
    <title>IST-MT1-18</title>
    <path 
      vector-effect="non-scaling-stroke"
      d="M1,-0.0003L0.9843,-0.0089L0.9686,-0.0165L0.9529,-0.0233L0.9372,-0.0294L0.9215,-0.0351L0.9059,-0.0404L0.8903,-0.0454L0.8747,-0.0502L0.8591,-0.0549L0.8436,-0.0595L0.8281,-0.064L0.8126,-0.0685L0.7972,-0.073L0.7819,-0.0775L0.7666,-0.082L0.7513,-0.0865L0.7361,-0.091L0.721,-0.0955L0.706,-0.0999L0.691,-0.1043L0.6761,-0.1086L0.6613,-0.1129L0.6465,-0.1171L0.6319,-0.1212L0.6173,-0.1251L0.6029,-0.1289L0.5885,-0.1326L0.5742,-0.1361L0.5601,-0.1394L0.546,-0.1425L0.5321,-0.1454L0.5182,-0.148L0.5045,-0.1505L0.491,-0.1527L0.4775,-0.1548L0.4642,-0.1565L0.451,-0.1581L0.4379,-0.1593L0.425,-0.1604L0.4122,-0.1612L0.3996,-0.1618L0.3871,-0.1622L0.3748,-0.1623L0.3626,-0.1622L0.3506,-0.1619L0.3387,-0.1614L0.327,-0.1607L0.3155,-0.1598L0.3041,-0.1587L0.2929,-0.1574L0.2819,-0.156L0.271,-0.1543L0.2604,-0.1526L0.2499,-0.1506L0.2396,-0.1486L0.2295,-0.1464L0.2196,-0.144L0.2098,-0.1416L0.2003,-0.139L0.191,-0.1363L0.1819,-0.1335L0.1729,-0.1307L0.1642,-0.1277L0.1557,-0.1246L0.1474,-0.1215L0.1393,-0.1183L0.1314,-0.115L0.1237,-0.1117L0.1162,-0.1083L0.109,-0.1048L0.102,-0.1014L0.0952,-0.0978L0.0886,-0.0943L0.0822,-0.0907L0.0761,-0.0871L0.0702,-0.0835L0.0646,-0.0798L0.0591,-0.0762L0.0539,-0.0725L0.0489,-0.0689L0.0442,-0.0653L0.0397,-0.0616L0.0354,-0.058L0.0314,-0.0544L0.0276,-0.0509L0.0241,-0.0473L0.0208,-0.0438L0.0177,-0.0403L0.0149,-0.0368L0.0123,-0.0334L0.01,-0.03L0.0079,-0.0266L0.006,-0.0232L0.0044,-0.0198L0.0031,-0.0165L0.002,-0.0132L0.0011,-0.0099L0.0005,-0.0066L0.0001,-0.0033L0,-0L0.0001,0.0022L0.0005,0.0044L0.0011,0.0066L0.002,0.0087L0.0031,0.0108L0.0044,0.0129L0.006,0.0149L0.0079,0.0169L0.01,0.0188L0.0123,0.0206L0.0149,0.0224L0.0177,0.0241L0.0208,0.0258L0.0241,0.0273L0.0276,0.0288L0.0314,0.0302L0.0354,0.0315L0.0397,0.0327L0.0442,0.0339L0.0489,0.0349L0.0539,0.0359L0.0591,0.0368L0.0646,0.0376L0.0702,0.0384L0.0761,0.039L0.0822,0.0396L0.0886,0.0401L0.0952,0.0405L0.102,0.0407L0.109,0.041L0.1162,0.0411L0.1237,0.0411L0.1314,0.041L0.1393,0.0408L0.1474,0.0404L0.1557,0.04L0.1642,0.0394L0.1729,0.0388L0.1819,0.038L0.191,0.0371L0.2003,0.036L0.2098,0.0349L0.2196,0.0336L0.2295,0.0322L0.2396,0.0307L0.2499,0.0291L0.2604,0.0274L0.271,0.0256L0.2819,0.0238L0.2929,0.0218L0.3041,0.0198L0.3155,0.0177L0.327,0.0156L0.3387,0.0135L0.3506,0.0113L0.3626,0.0091L0.3748,0.0069L0.3871,0.0047L0.3996,0.0025L0.4122,0.0003L0.425,-0.0019L0.4379,-0.004L0.451,-0.0061L0.4642,-0.0081L0.4775,-0.0101L0.491,-0.0121L0.5045,-0.014L0.5182,-0.0158L0.5321,-0.0176L0.546,-0.0193L0.5601,-0.021L0.5742,-0.0226L0.5885,-0.024L0.6029,-0.0254L0.6173,-0.0267L0.6319,-0.0279L0.6465,-0.029L0.6613,-0.03L0.6761,-0.0308L0.691,-0.0315L0.706,-0.032L0.721,-0.0324L0.7361,-0.0327L0.7513,-0.0327L0.7666,-0.0327L0.7819,-0.0324L0.7972,-0.032L0.8126,-0.0314L0.8281,-0.0307L0.8436,-0.0298L0.8591,-0.0287L0.8747,-0.0274L0.8903,-0.0259L0.9059,-0.0241L0.9215,-0.0219L0.9372,-0.0192L0.9529,-0.0159L0.9686,-0.0117L0.9843,-0.0064L1,0.0003"
    />
</svg>
