
<svg 
  class="airfoil-ist-mt1-24"
  fill="none"
  stroke="black" 
  stroke-width="1"
  style="overflow:visible"
  viewBox="0, -0.1497, 1, 0.2484"
  xmlns="http://www.w3.org/2000/svg">
    <title>IST-MT1-24</title>
    <path 
      vector-effect="non-scaling-stroke"
      d="M1,-0.0003L0.9843,-0.0071L0.9686,-0.0135L0.9529,-0.0195L0.9372,-0.0251L0.9215,-0.0303L0.9059,-0.0351L0.8903,-0.0396L0.8747,-0.0439L0.8591,-0.0478L0.8436,-0.0516L0.8281,-0.0552L0.8126,-0.0587L0.7972,-0.0621L0.7819,-0.0654L0.7666,-0.0687L0.7513,-0.0719L0.7361,-0.0752L0.721,-0.0785L0.706,-0.0819L0.691,-0.0853L0.6761,-0.0887L0.6613,-0.0921L0.6465,-0.0956L0.6319,-0.0991L0.6173,-0.1026L0.6029,-0.1062L0.5885,-0.1096L0.5742,-0.1131L0.5601,-0.1165L0.546,-0.1198L0.5321,-0.123L0.5182,-0.1261L0.5045,-0.129L0.491,-0.1318L0.4775,-0.1345L0.4642,-0.137L0.451,-0.1392L0.4379,-0.1413L0.425,-0.1432L0.4122,-0.1448L0.3996,-0.1462L0.3871,-0.1474L0.3748,-0.1483L0.3626,-0.149L0.3506,-0.1494L0.3387,-0.1497L0.327,-0.1496L0.3155,-0.1494L0.3041,-0.1489L0.2929,-0.1482L0.2819,-0.1472L0.271,-0.1461L0.2604,-0.1447L0.2499,-0.1432L0.2396,-0.1415L0.2295,-0.1396L0.2196,-0.1376L0.2098,-0.1354L0.2003,-0.133L0.191,-0.1306L0.1819,-0.128L0.1729,-0.1253L0.1642,-0.1224L0.1557,-0.1195L0.1474,-0.1165L0.1393,-0.1135L0.1314,-0.1104L0.1237,-0.1072L0.1162,-0.1039L0.109,-0.1006L0.102,-0.0973L0.0952,-0.094L0.0886,-0.0906L0.0822,-0.0872L0.0761,-0.0837L0.0702,-0.0803L0.0646,-0.0769L0.0591,-0.0734L0.0539,-0.07L0.0489,-0.0666L0.0442,-0.0631L0.0397,-0.0597L0.0354,-0.0563L0.0314,-0.0529L0.0276,-0.0495L0.0241,-0.0461L0.0208,-0.0428L0.0177,-0.0394L0.0149,-0.0361L0.0123,-0.0327L0.01,-0.0294L0.0079,-0.0261L0.006,-0.0228L0.0044,-0.0196L0.0031,-0.0163L0.002,-0.013L0.0011,-0.0098L0.0005,-0.0065L0.0001,-0.0032L0,-0L0.0001,0.0033L0.0005,0.0067L0.0011,0.01L0.002,0.0133L0.0031,0.0166L0.0044,0.0199L0.006,0.0231L0.0079,0.0264L0.01,0.0296L0.0123,0.0327L0.0149,0.0359L0.0177,0.039L0.0208,0.042L0.0241,0.045L0.0276,0.048L0.0314,0.051L0.0354,0.0539L0.0397,0.0567L0.0442,0.0595L0.0489,0.0622L0.0539,0.0649L0.0591,0.0676L0.0646,0.0702L0.0702,0.0727L0.0761,0.0751L0.0822,0.0775L0.0886,0.0798L0.0952,0.082L0.102,0.0841L0.109,0.0861L0.1162,0.088L0.1237,0.0898L0.1314,0.0914L0.1393,0.0929L0.1474,0.0943L0.1557,0.0955L0.1642,0.0965L0.1729,0.0973L0.1819,0.098L0.191,0.0984L0.2003,0.0987L0.2098,0.0987L0.2196,0.0985L0.2295,0.098L0.2396,0.0973L0.2499,0.0964L0.2604,0.0953L0.271,0.0939L0.2819,0.0922L0.2929,0.0904L0.3041,0.0883L0.3155,0.0859L0.327,0.0834L0.3387,0.0807L0.3506,0.0777L0.3626,0.0747L0.3748,0.0714L0.3871,0.068L0.3996,0.0645L0.4122,0.0608L0.425,0.0571L0.4379,0.0533L0.451,0.0494L0.4642,0.0456L0.4775,0.0417L0.491,0.0378L0.5045,0.034L0.5182,0.0302L0.5321,0.0265L0.546,0.0228L0.5601,0.0193L0.5742,0.0159L0.5885,0.0126L0.6029,0.0095L0.6173,0.0065L0.6319,0.0036L0.6465,0.001L0.6613,-0.0015L0.6761,-0.0038L0.691,-0.006L0.706,-0.008L0.721,-0.0098L0.7361,-0.0114L0.7513,-0.0129L0.7666,-0.0143L0.7819,-0.0154L0.7972,-0.0164L0.8126,-0.0173L0.8281,-0.018L0.8436,-0.0185L0.8591,-0.0187L0.8747,-0.0188L0.8903,-0.0185L0.9059,-0.0179L0.9215,-0.0168L0.9372,-0.0152L0.9529,-0.0129L0.9686,-0.0097L0.9843,-0.0054L1,0.0003"
    />
</svg>
