
<svg 
  class="airfoil-ist-mt1-15"
  fill="none"
  stroke="black" 
  stroke-width="1"
  style="overflow:visible"
  viewBox="0, -0.1489, 1, 0.1777"
  xmlns="http://www.w3.org/2000/svg">
    <title>IST-MT1-15</title>
    <path 
      vector-effect="non-scaling-stroke"
      d="M1,-0.0003L0.9804,-0.0107L0.9607,-0.0195L0.9411,-0.0273L0.9215,-0.0344L0.902,-0.0411L0.8825,-0.0476L0.863,-0.0539L0.8436,-0.0602L0.8242,-0.0665L0.8049,-0.0728L0.7857,-0.079L0.7666,-0.0852L0.7475,-0.0913L0.7286,-0.0972L0.7097,-0.103L0.691,-0.1085L0.6724,-0.1138L0.6539,-0.1187L0.6355,-0.1233L0.6173,-0.1276L0.5993,-0.1315L0.5813,-0.135L0.5636,-0.1381L0.546,-0.1409L0.5286,-0.1432L0.5114,-0.1451L0.4943,-0.1466L0.4775,-0.1478L0.4609,-0.1485L0.4444,-0.1489L0.4282,-0.1489L0.4122,-0.1486L0.3964,-0.148L0.3809,-0.1471L0.3656,-0.1459L0.3506,-0.1444L0.3357,-0.1427L0.3212,-0.1408L0.3069,-0.1386L0.2929,-0.1363L0.2791,-0.1338L0.2657,-0.1311L0.2525,-0.1283L0.2396,-0.1253L0.227,-0.1222L0.2147,-0.119L0.2027,-0.1157L0.191,-0.1123L0.1796,-0.1089L0.1685,-0.1053L0.1578,-0.1017L0.1474,-0.098L0.1373,-0.0942L0.1275,-0.0904L0.1181,-0.0866L0.109,-0.0827L0.1003,-0.0788L0.0919,-0.0749L0.0838,-0.0709L0.0761,-0.067L0.0688,-0.0631L0.0618,-0.0591L0.0552,-0.0553L0.0489,-0.0514L0.0431,-0.0477L0.0375,-0.044L0.0324,-0.0403L0.0276,-0.0368L0.0232,-0.0333L0.0192,-0.0299L0.0156,-0.0266L0.0123,-0.0234L0.0094,-0.0202L0.0069,-0.0172L0.0048,-0.0142L0.0031,-0.0113L0.0017,-0.0084L0.0008,-0.0056L0.0002,-0.0028L0,-0L0.0002,0.0019L0.0008,0.0037L0.0017,0.0055L0.0031,0.0073L0.0048,0.009L0.0069,0.0107L0.0094,0.0123L0.0123,0.0138L0.0156,0.0152L0.0192,0.0165L0.0232,0.0178L0.0276,0.019L0.0324,0.0201L0.0375,0.0211L0.0431,0.0221L0.0489,0.023L0.0552,0.0238L0.0618,0.0246L0.0688,0.0253L0.0761,0.026L0.0838,0.0266L0.0919,0.0272L0.1003,0.0277L0.109,0.0281L0.1181,0.0285L0.1275,0.0287L0.1373,0.0288L0.1474,0.0288L0.1578,0.0286L0.1685,0.0283L0.1796,0.0278L0.191,0.027L0.2027,0.0261L0.2147,0.025L0.227,0.0236L0.2396,0.022L0.2525,0.0203L0.2657,0.0183L0.2791,0.0161L0.2929,0.0137L0.3069,0.0112L0.3212,0.0085L0.3357,0.0058L0.3506,0.0029L0.3656,-0L0.3809,-0.003L0.3964,-0.006L0.4122,-0.009L0.4282,-0.0119L0.4444,-0.0148L0.4609,-0.0176L0.4775,-0.0203L0.4943,-0.0229L0.5114,-0.0254L0.5286,-0.0277L0.546,-0.0299L0.5636,-0.0319L0.5813,-0.0337L0.5993,-0.0353L0.6173,-0.0366L0.6355,-0.0378L0.6539,-0.0387L0.6724,-0.0393L0.691,-0.0396L0.7097,-0.0396L0.7286,-0.0393L0.7475,-0.0387L0.7666,-0.0377L0.7857,-0.0364L0.8049,-0.0349L0.8242,-0.033L0.8436,-0.0309L0.863,-0.0285L0.8825,-0.0259L0.902,-0.023L0.9215,-0.0198L0.9411,-0.0161L0.9607,-0.0118L0.9804,-0.0065L1,0.0003"
    />
</svg>
