
<svg 
  class="airfoil-j5012"
  fill="none"
  stroke="black" 
  stroke-width="1"
  style="overflow:visible"
  viewBox="0, -0.06, 1, 0.12"
  xmlns="http://www.w3.org/2000/svg">
    <title>J5012 12%</title>
    <path 
      vector-effect="non-scaling-stroke"
      d="M1,-0L0.9973,-0.0004L0.9891,-0.0017L0.9755,-0.0038L0.9568,-0.0066L0.933,-0.0101L0.9045,-0.0142L0.8716,-0.0187L0.8346,-0.0236L0.7939,-0.0286L0.75,-0.0338L0.7034,-0.0388L0.6545,-0.0436L0.604,-0.048L0.5523,-0.0519L0.5,-0.0551L0.4477,-0.0576L0.396,-0.0593L0.3455,-0.06L0.2966,-0.0597L0.25,-0.0585L0.2061,-0.0562L0.1654,-0.0529L0.1284,-0.0487L0.0955,-0.0436L0.067,-0.0377L0.0432,-0.031L0.0245,-0.0238L0.0109,-0.0161L0.0027,-0.0081L0,-0L0.0027,0.0081L0.0109,0.0161L0.0245,0.0238L0.0432,0.031L0.067,0.0377L0.0955,0.0436L0.1284,0.0487L0.1654,0.0529L0.2061,0.0562L0.25,0.0585L0.2966,0.0597L0.3455,0.06L0.396,0.0593L0.4477,0.0576L0.5,0.0551L0.5523,0.0519L0.604,0.048L0.6545,0.0436L0.7034,0.0388L0.75,0.0338L0.7939,0.0286L0.8346,0.0236L0.8716,0.0187L0.9045,0.0142L0.933,0.0101L0.9568,0.0066L0.9755,0.0038L0.9891,0.0017L0.9973,0.0004L1,-0"
    />
</svg>
