
<svg 
  class="airfoil-jn153"
  fill="none"
  stroke="black" 
  stroke-width="1"
  style="overflow:visible"
  viewBox="0, -0.1695, 1, 0.1882"
  xmlns="http://www.w3.org/2000/svg">
    <title>JN-153 AIRFOIL</title>
    <path 
      vector-effect="non-scaling-stroke"
      d="M1,-0L0.9991,-0.0003L0.9965,-0.0012L0.9924,-0.0028L0.987,-0.005L0.9804,-0.0076L0.9726,-0.0104L0.9635,-0.0133L0.953,-0.0164L0.9411,-0.0196L0.9278,-0.0231L0.9131,-0.0269L0.8972,-0.0309L0.8801,-0.0351L0.8619,-0.0397L0.8425,-0.0445L0.8222,-0.0496L0.8009,-0.0549L0.7788,-0.0605L0.7559,-0.0664L0.7323,-0.0726L0.7082,-0.079L0.6837,-0.0856L0.6588,-0.0924L0.6337,-0.0995L0.6085,-0.1066L0.5833,-0.1139L0.5583,-0.1213L0.5335,-0.1287L0.5093,-0.1361L0.4856,-0.1433L0.4622,-0.1502L0.441,-0.1566L0.4205,-0.1619L0.4006,-0.1654L0.3806,-0.1676L0.3605,-0.1689L0.3406,-0.1695L0.3208,-0.1693L0.3013,-0.1684L0.2821,-0.1669L0.2633,-0.1648L0.245,-0.162L0.227,-0.1586L0.2094,-0.1546L0.1924,-0.15L0.1758,-0.145L0.1598,-0.1396L0.1444,-0.1338L0.1297,-0.1276L0.1156,-0.121L0.1023,-0.1142L0.0898,-0.107L0.078,-0.0995L0.067,-0.0918L0.0568,-0.084L0.0473,-0.076L0.0387,-0.0679L0.0309,-0.0598L0.0239,-0.0517L0.0178,-0.0438L0.0126,-0.036L0.0083,-0.0283L0.0049,-0.021L0.0023,-0.014L0,-0L0.0002,0.004L0.0014,0.0086L0.0037,0.0118L0.0078,0.014L0.0139,0.0156L0.0217,0.0168L0.0312,0.0177L0.0422,0.0183L0.0548,0.0187L0.0688,0.0187L0.0841,0.0186L0.1008,0.0183L0.1188,0.0177L0.1379,0.017L0.1582,0.0161L0.1795,0.0151L0.2018,0.0139L0.225,0.0126L0.249,0.0111L0.2738,0.0094L0.2993,0.0074L0.3256,0.0052L0.3527,0.0029L0.3804,0.0005L0.4087,-0.0018L0.4374,-0.004L0.4664,-0.0062L0.4957,-0.0082L0.5251,-0.01L0.5545,-0.0117L0.5838,-0.0132L0.613,-0.0145L0.6418,-0.0156L0.6701,-0.0165L0.698,-0.0171L0.7252,-0.0175L0.7517,-0.0176L0.7773,-0.0175L0.802,-0.0172L0.8256,-0.0166L0.8481,-0.0159L0.8694,-0.0149L0.8893,-0.0138L0.9079,-0.0125L0.9249,-0.0111L0.9404,-0.0096L0.9543,-0.008L0.9664,-0.0064L0.9767,-0.0048L0.9851,-0.0032L0.9917,-0.0019L0.9963,-0.0009L0.9991,-0.0002L1,-0"
    />
</svg>
