
<svg 
  class="airfoil-joukowsk"
  fill="none"
  stroke="black" 
  stroke-width="1"
  style="overflow:visible"
  viewBox="0, -0.059, 1, 0.118"
  xmlns="http://www.w3.org/2000/svg">
    <title>12% JOUKOWSKI AIRFOIL</title>
    <path 
      vector-effect="non-scaling-stroke"
      d="M1,-0L0.9988,-0L0.9951,-0.0001L0.9891,-0.0002L0.9806,-0.0005L0.9698,-0.0009L0.9568,-0.0016L0.9415,-0.0025L0.924,-0.0037L0.9045,-0.0051L0.883,-0.0068L0.8597,-0.0089L0.8346,-0.0112L0.8078,-0.0138L0.7796,-0.0166L0.75,-0.0197L0.7192,-0.0229L0.6873,-0.0263L0.6545,-0.0298L0.621,-0.0334L0.5868,-0.037L0.5523,-0.0404L0.5174,-0.0438L0.4825,-0.047L0.4477,-0.0499L0.4132,-0.0525L0.379,-0.0547L0.3455,-0.0565L0.3127,-0.0579L0.2808,-0.0587L0.25,-0.059L0.2204,-0.0587L0.1922,-0.0578L0.1654,-0.0563L0.1403,-0.0542L0.117,-0.0516L0.0955,-0.0483L0.076,-0.0445L0.0585,-0.0401L0.0432,-0.0353L0.0302,-0.0301L0.0194,-0.0246L0.0109,-0.0187L0.0049,-0.0126L0.0012,-0.0063L0,-0L0.0012,0.0063L0.0049,0.0126L0.0109,0.0187L0.0194,0.0246L0.0302,0.0301L0.0432,0.0353L0.0585,0.0401L0.076,0.0445L0.0955,0.0483L0.117,0.0516L0.1403,0.0542L0.1654,0.0563L0.1922,0.0578L0.2204,0.0587L0.25,0.059L0.2808,0.0587L0.3127,0.0579L0.3455,0.0565L0.379,0.0547L0.4132,0.0525L0.4477,0.0499L0.4825,0.047L0.5174,0.0438L0.5523,0.0404L0.5868,0.037L0.621,0.0334L0.6545,0.0298L0.6873,0.0263L0.7192,0.0229L0.75,0.0197L0.7796,0.0166L0.8078,0.0138L0.8346,0.0112L0.8597,0.0089L0.883,0.0068L0.9045,0.0051L0.924,0.0037L0.9415,0.0025L0.9568,0.0016L0.9698,0.0009L0.9806,0.0005L0.9891,0.0002L0.9951,0.0001L0.9988,0L1,-0"
    />
</svg>
