
<svg 
  class="airfoil-jx-gs-06"
  fill="none"
  stroke="black" 
  stroke-width="1"
  style="overflow:visible"
  viewBox="0, -0.0499, 1, 0.0713"
  xmlns="http://www.w3.org/2000/svg">
    <title>JX-GS-06</title>
    <path 
      vector-effect="non-scaling-stroke"
      d="M1,-0L0.9905,-0.0009L0.9796,-0.0019L0.9688,-0.0029L0.9579,-0.0039L0.947,-0.0049L0.9361,-0.0058L0.9252,-0.0068L0.9143,-0.0078L0.9034,-0.0087L0.8924,-0.0097L0.8815,-0.0106L0.8706,-0.0116L0.8597,-0.0125L0.8488,-0.0134L0.8379,-0.0143L0.827,-0.0153L0.8161,-0.0162L0.8051,-0.0171L0.7942,-0.018L0.7833,-0.0189L0.7724,-0.0198L0.7615,-0.0207L0.7506,-0.0215L0.7397,-0.0224L0.7287,-0.0233L0.7178,-0.0242L0.7069,-0.0251L0.696,-0.0259L0.6851,-0.0268L0.6742,-0.0276L0.6633,-0.0285L0.6524,-0.0294L0.6414,-0.0302L0.6305,-0.0311L0.6196,-0.0319L0.6087,-0.0327L0.5978,-0.0336L0.5869,-0.0344L0.576,-0.0352L0.5651,-0.036L0.5542,-0.0368L0.5434,-0.0376L0.5325,-0.0384L0.5216,-0.0392L0.5107,-0.04L0.4998,-0.0407L0.4889,-0.0414L0.4781,-0.0421L0.4672,-0.0428L0.4563,-0.0435L0.4454,-0.0441L0.4346,-0.0447L0.4237,-0.0453L0.4129,-0.0459L0.402,-0.0464L0.3911,-0.0469L0.3803,-0.0474L0.3695,-0.0478L0.3586,-0.0482L0.3478,-0.0486L0.3369,-0.0489L0.3261,-0.0492L0.3153,-0.0494L0.3045,-0.0496L0.2936,-0.0497L0.2828,-0.0498L0.272,-0.0499L0.2612,-0.0498L0.2504,-0.0498L0.2397,-0.0496L0.2289,-0.0494L0.2182,-0.0492L0.2074,-0.0488L0.1967,-0.0484L0.186,-0.0479L0.1754,-0.0474L0.1647,-0.0467L0.1541,-0.0459L0.1436,-0.045L0.133,-0.044L0.1226,-0.0429L0.1122,-0.0416L0.1018,-0.0402L0.0916,-0.0386L0.0814,-0.0368L0.0714,-0.0348L0.0615,-0.0326L0.0519,-0.0301L0.0426,-0.0273L0.0337,-0.0243L0.0254,-0.021L0.0182,-0.0176L0.0125,-0.0143L0.0082,-0.0113L0.0053,-0.0089L0.0033,-0.0068L0.0019,-0.005L0.0009,-0.0034L0.0004,-0.0019L0.0001,-0.0007L0,-0L0,0.0005L0.0005,0.0017L0.0016,0.0027L0.003,0.0037L0.0049,0.0047L0.0076,0.0058L0.0114,0.0071L0.0169,0.0087L0.0244,0.0103L0.0333,0.0118L0.043,0.0132L0.0531,0.0143L0.0634,0.0154L0.0738,0.0163L0.0843,0.0172L0.0949,0.0179L0.1055,0.0186L0.1162,0.0192L0.1269,0.0197L0.1376,0.0201L0.1483,0.0205L0.1591,0.0208L0.1699,0.021L0.1807,0.0212L0.1915,0.0213L0.2023,0.0214L0.2131,0.0214L0.224,0.0214L0.2348,0.0214L0.2457,0.0213L0.2566,0.0212L0.2675,0.021L0.2784,0.0208L0.2893,0.0206L0.3002,0.0204L0.3111,0.0202L0.322,0.02L0.3329,0.0197L0.3439,0.0194L0.3548,0.0192L0.3657,0.0189L0.3767,0.0186L0.3876,0.0183L0.3986,0.018L0.4095,0.0177L0.4205,0.0174L0.4314,0.017L0.4424,0.0167L0.4533,0.0164L0.4643,0.0161L0.4753,0.0158L0.4862,0.0154L0.4972,0.0151L0.5082,0.0148L0.5191,0.0145L0.5301,0.0141L0.5411,0.0138L0.552,0.0135L0.563,0.0132L0.574,0.0128L0.5849,0.0125L0.5959,0.0122L0.6069,0.0118L0.6178,0.0115L0.6288,0.0112L0.6398,0.0109L0.6507,0.0105L0.6617,0.0102L0.6727,0.0099L0.6836,0.0096L0.6946,0.0093L0.7056,0.0089L0.7165,0.0086L0.7275,0.0083L0.7385,0.008L0.7494,0.0076L0.7604,0.0073L0.7714,0.007L0.7823,0.0067L0.7933,0.0064L0.8043,0.006L0.8152,0.0057L0.8262,0.0054L0.8372,0.0051L0.8481,0.0048L0.8591,0.0044L0.8701,0.0041L0.881,0.0038L0.892,0.0035L0.903,0.0031L0.9139,0.0028L0.9249,0.0025L0.9358,0.0022L0.9468,0.0018L0.9577,0.0015L0.9686,0.0011L0.9796,0.0007L0.9905,0.0003L1,-0"
    />
</svg>
