
<svg 
  class="airfoil-jx-gs-15"
  fill="none"
  stroke="black" 
  stroke-width="1"
  style="overflow:visible"
  viewBox="0, -0.0521, 1, 0.0765"
  xmlns="http://www.w3.org/2000/svg">
    <title>JX-GS-15</title>
    <path 
      vector-effect="non-scaling-stroke"
      d="M1,-0L0.9903,-0.0012L0.9792,-0.0025L0.968,-0.0038L0.9569,-0.0052L0.9458,-0.0065L0.9346,-0.0078L0.9235,-0.009L0.9124,-0.0103L0.9012,-0.0116L0.8901,-0.0128L0.879,-0.0141L0.8678,-0.0153L0.8567,-0.0165L0.8456,-0.0177L0.8344,-0.0189L0.8233,-0.0201L0.8121,-0.0212L0.801,-0.0224L0.7899,-0.0235L0.7787,-0.0246L0.7676,-0.0257L0.7565,-0.0268L0.7453,-0.0279L0.7342,-0.0289L0.7231,-0.03L0.7119,-0.031L0.7008,-0.032L0.6897,-0.033L0.6785,-0.0339L0.6674,-0.0349L0.6562,-0.0358L0.6451,-0.0367L0.634,-0.0376L0.6228,-0.0385L0.6117,-0.0393L0.6006,-0.0401L0.5894,-0.0409L0.5783,-0.0417L0.5671,-0.0425L0.556,-0.0432L0.5449,-0.0439L0.5337,-0.0446L0.5226,-0.0453L0.5115,-0.0459L0.5003,-0.0465L0.4892,-0.0471L0.478,-0.0477L0.4669,-0.0482L0.4558,-0.0487L0.4446,-0.0492L0.4335,-0.0496L0.4224,-0.05L0.4113,-0.0504L0.4001,-0.0507L0.389,-0.051L0.3779,-0.0513L0.3668,-0.0515L0.3557,-0.0517L0.3446,-0.0519L0.3335,-0.052L0.3224,-0.052L0.3113,-0.0521L0.3002,-0.052L0.2891,-0.052L0.2781,-0.0518L0.267,-0.0517L0.256,-0.0514L0.2449,-0.0511L0.2339,-0.0508L0.2229,-0.0504L0.212,-0.0499L0.201,-0.0493L0.1901,-0.0487L0.1793,-0.048L0.1684,-0.0472L0.1576,-0.0463L0.1469,-0.0452L0.1362,-0.0441L0.1255,-0.0429L0.1149,-0.0415L0.1045,-0.04L0.0941,-0.0383L0.0838,-0.0365L0.0738,-0.0345L0.0639,-0.0323L0.0543,-0.0298L0.045,-0.0272L0.0364,-0.0244L0.0284,-0.0214L0.0216,-0.0185L0.016,-0.0157L0.0117,-0.0131L0.0084,-0.0109L0.0059,-0.0089L0.0041,-0.0071L0.0026,-0.0055L0.0016,-0.0041L0.0008,-0.0028L0.0003,-0.0016L0.0001,-0.0005L0,-0L0,0.0003L0.0003,0.0013L0.0011,0.0022L0.0021,0.0031L0.0036,0.004L0.0053,0.0049L0.0076,0.0059L0.0104,0.007L0.0142,0.0082L0.0192,0.0096L0.0258,0.0112L0.0339,0.0128L0.0432,0.0143L0.0532,0.0158L0.0635,0.017L0.074,0.0182L0.0846,0.0192L0.0954,0.0201L0.1062,0.0209L0.117,0.0215L0.1279,0.0221L0.1389,0.0227L0.1498,0.0231L0.1608,0.0235L0.1719,0.0238L0.1829,0.024L0.194,0.0242L0.2051,0.0243L0.2162,0.0244L0.2273,0.0244L0.2384,0.0244L0.2495,0.0244L0.2607,0.0243L0.2718,0.0242L0.283,0.0241L0.2942,0.0239L0.3053,0.0238L0.3165,0.0236L0.3277,0.0233L0.3389,0.0231L0.3501,0.0228L0.3613,0.0225L0.3725,0.0223L0.3837,0.0219L0.3949,0.0216L0.4061,0.0213L0.4173,0.021L0.4286,0.0206L0.4398,0.0203L0.451,0.0199L0.4623,0.0195L0.4735,0.0191L0.4847,0.0188L0.4959,0.0184L0.5072,0.018L0.5184,0.0176L0.5297,0.0172L0.5409,0.0168L0.5521,0.0164L0.5634,0.016L0.5746,0.0156L0.5859,0.0152L0.5971,0.0148L0.6083,0.0144L0.6196,0.014L0.6308,0.0136L0.6421,0.0132L0.6533,0.0128L0.6646,0.0124L0.6758,0.012L0.6871,0.0116L0.6983,0.0112L0.7095,0.0108L0.7208,0.0104L0.732,0.01L0.7433,0.0096L0.7545,0.0091L0.7658,0.0087L0.777,0.0083L0.7882,0.0079L0.7995,0.0075L0.8107,0.0071L0.8219,0.0067L0.8332,0.0063L0.8444,0.0059L0.8556,0.0055L0.8669,0.0051L0.8781,0.0047L0.8893,0.0043L0.9005,0.0039L0.9117,0.0035L0.923,0.0031L0.9342,0.0027L0.9454,0.0022L0.9566,0.0018L0.9678,0.0013L0.979,0.0009L0.9903,0.0004L1,-0"
    />
</svg>
