
<svg 
  class="airfoil-jx-gs-10"
  fill="none"
  stroke="black" 
  stroke-width="1"
  style="overflow:visible"
  viewBox="0, -0.0513, 1, 0.074599996"
  xmlns="http://www.w3.org/2000/svg">
    <title>JX-GS-10</title>
    <path 
      vector-effect="non-scaling-stroke"
      d="M1,0L0.9908,-0.0009L0.9802,-0.002L0.9696,-0.0031L0.959,-0.0041L0.9484,-0.0052L0.9378,-0.0062L0.9272,-0.0072L0.9165,-0.0082L0.9059,-0.0093L0.8953,-0.0103L0.8847,-0.0113L0.8741,-0.0123L0.8635,-0.0133L0.8529,-0.0143L0.8423,-0.0152L0.8317,-0.0162L0.821,-0.0172L0.8104,-0.0182L0.7998,-0.0192L0.7892,-0.0201L0.7786,-0.0211L0.7679,-0.0221L0.7573,-0.023L0.7467,-0.024L0.7361,-0.0249L0.7255,-0.0258L0.7148,-0.0268L0.7042,-0.0277L0.6936,-0.0286L0.683,-0.0296L0.6723,-0.0305L0.6617,-0.0314L0.6511,-0.0323L0.6404,-0.0332L0.6298,-0.034L0.6192,-0.0349L0.6085,-0.0358L0.5979,-0.0366L0.5873,-0.0375L0.5766,-0.0383L0.566,-0.0391L0.5554,-0.0399L0.5447,-0.0407L0.5341,-0.0414L0.5235,-0.0422L0.5128,-0.0429L0.5022,-0.0436L0.4915,-0.0443L0.4809,-0.0449L0.4703,-0.0456L0.4596,-0.0462L0.449,-0.0468L0.4384,-0.0473L0.4277,-0.0478L0.4171,-0.0483L0.4065,-0.0488L0.3958,-0.0492L0.3852,-0.0496L0.3745,-0.05L0.3639,-0.0503L0.3533,-0.0506L0.3427,-0.0508L0.332,-0.051L0.3214,-0.0511L0.3108,-0.0512L0.3002,-0.0513L0.2895,-0.0513L0.2789,-0.0513L0.2683,-0.0512L0.2577,-0.051L0.2471,-0.0508L0.2365,-0.0506L0.226,-0.0503L0.2154,-0.0499L0.2048,-0.0494L0.1943,-0.0488L0.1838,-0.0482L0.1732,-0.0475L0.1627,-0.0467L0.1523,-0.0458L0.1418,-0.0448L0.1314,-0.0437L0.121,-0.0424L0.1107,-0.0411L0.1004,-0.0395L0.0902,-0.0378L0.08,-0.036L0.07,-0.0339L0.06,-0.0316L0.0503,-0.029L0.0407,-0.0262L0.0315,-0.023L0.0228,-0.0194L0.0149,-0.0155L0.0087,-0.0115L0.0046,-0.0081L0.0023,-0.0056L0.001,-0.0035L0.0003,-0.0019L0,-0.0004L0,-0L0.0001,0.0009L0.0009,0.0021L0.0023,0.0032L0.0046,0.0045L0.0085,0.0062L0.015,0.0083L0.0237,0.0105L0.0333,0.0124L0.0433,0.014L0.0535,0.0154L0.0638,0.0167L0.0741,0.0177L0.0846,0.0187L0.095,0.0195L0.1055,0.0202L0.116,0.0208L0.1266,0.0213L0.1371,0.0218L0.1477,0.0222L0.1583,0.0225L0.1688,0.0227L0.1794,0.0229L0.19,0.0231L0.2006,0.0232L0.2113,0.0232L0.2219,0.0233L0.2325,0.0232L0.2432,0.0232L0.2538,0.0231L0.2644,0.023L0.2751,0.0228L0.2857,0.0226L0.2964,0.0225L0.3071,0.0222L0.3177,0.022L0.3284,0.0218L0.339,0.0215L0.3497,0.0212L0.3604,0.021L0.3711,0.0207L0.3817,0.0204L0.3924,0.0201L0.4031,0.0197L0.4137,0.0194L0.4244,0.0191L0.4351,0.0188L0.4458,0.0184L0.4565,0.0181L0.4671,0.0177L0.4778,0.0174L0.4885,0.017L0.4992,0.0167L0.5099,0.0163L0.5206,0.016L0.5313,0.0156L0.5419,0.0153L0.5526,0.0149L0.5633,0.0146L0.574,0.0142L0.5847,0.0139L0.5954,0.0135L0.6061,0.0132L0.6168,0.0128L0.6274,0.0125L0.6381,0.0121L0.6488,0.0118L0.6595,0.0114L0.6702,0.0111L0.6809,0.0107L0.6916,0.0104L0.7023,0.01L0.713,0.0097L0.7236,0.0093L0.7343,0.009L0.745,0.0086L0.7557,0.0083L0.7664,0.0079L0.7771,0.0076L0.7878,0.0072L0.7985,0.0069L0.8092,0.0065L0.8198,0.0062L0.8305,0.0058L0.8412,0.0055L0.8519,0.0051L0.8626,0.0048L0.8733,0.0044L0.884,0.0041L0.8947,0.0037L0.9054,0.0034L0.916,0.003L0.9267,0.0027L0.9374,0.0023L0.9481,0.0019L0.9587,0.0016L0.9694,0.0012L0.9801,0.0008L0.9907,0.0004L1,0"
    />
</svg>
