
<svg 
  class="airfoil-jx-gs-04"
  fill="none"
  stroke="black" 
  stroke-width="1"
  style="overflow:visible"
  viewBox="0, -0.049, 1, 0.0695"
  xmlns="http://www.w3.org/2000/svg">
    <title>JX-GS-04</title>
    <path 
      vector-effect="non-scaling-stroke"
      d="M1,-0L0.9906,-0.0007L0.9797,-0.0016L0.9689,-0.0024L0.9581,-0.0032L0.9472,-0.0041L0.9364,-0.0049L0.9256,-0.0057L0.9147,-0.0066L0.9039,-0.0074L0.893,-0.0082L0.8822,-0.009L0.8713,-0.0099L0.8605,-0.0107L0.8496,-0.0115L0.8388,-0.0123L0.8279,-0.0132L0.817,-0.014L0.8062,-0.0148L0.7953,-0.0157L0.7845,-0.0165L0.7736,-0.0173L0.7628,-0.0181L0.7519,-0.0189L0.741,-0.0198L0.7302,-0.0206L0.7193,-0.0214L0.7084,-0.0222L0.6976,-0.023L0.6867,-0.0238L0.6759,-0.0246L0.665,-0.0254L0.6541,-0.0262L0.6433,-0.027L0.6324,-0.0278L0.6215,-0.0286L0.6107,-0.0295L0.5998,-0.0303L0.589,-0.0311L0.5781,-0.0319L0.5673,-0.0327L0.5564,-0.0335L0.5456,-0.0343L0.5347,-0.0351L0.5239,-0.0359L0.513,-0.0367L0.5022,-0.0375L0.4913,-0.0383L0.4805,-0.039L0.4697,-0.0398L0.4589,-0.0405L0.448,-0.0413L0.4372,-0.042L0.4264,-0.0427L0.4156,-0.0434L0.4048,-0.044L0.394,-0.0446L0.3832,-0.0452L0.3724,-0.0458L0.3616,-0.0463L0.3508,-0.0468L0.34,-0.0472L0.3292,-0.0476L0.3184,-0.048L0.3076,-0.0483L0.2968,-0.0485L0.2861,-0.0487L0.2753,-0.0489L0.2646,-0.0489L0.2538,-0.049L0.2431,-0.0489L0.2323,-0.0488L0.2216,-0.0487L0.2109,-0.0484L0.2002,-0.0481L0.1896,-0.0477L0.1789,-0.0472L0.1683,-0.0466L0.1577,-0.0459L0.1472,-0.0451L0.1366,-0.0442L0.1262,-0.0431L0.1158,-0.042L0.1054,-0.0406L0.0951,-0.0391L0.085,-0.0375L0.0749,-0.0356L0.065,-0.0335L0.0553,-0.0311L0.0459,-0.0285L0.0368,-0.0255L0.0282,-0.0223L0.0204,-0.0188L0.0139,-0.0153L0.009,-0.012L0.0056,-0.0092L0.0034,-0.007L0.0019,-0.005L0.0009,-0.0034L0.0003,-0.0019L0,-0.0006L0,-0L0.0001,0.0008L0.0006,0.0021L0.0017,0.0032L0.0032,0.0042L0.0053,0.0053L0.0083,0.0066L0.0127,0.008L0.0191,0.0096L0.0274,0.0113L0.0369,0.0127L0.047,0.014L0.0573,0.0151L0.0678,0.016L0.0783,0.0168L0.089,0.0176L0.0996,0.0182L0.1103,0.0187L0.1209,0.0192L0.1316,0.0196L0.1423,0.0199L0.1531,0.0201L0.1638,0.0203L0.1745,0.0204L0.1853,0.0204L0.196,0.0205L0.2068,0.0204L0.2176,0.0203L0.2284,0.0202L0.2392,0.0201L0.25,0.0199L0.2609,0.0197L0.2717,0.0195L0.2825,0.0193L0.2934,0.019L0.3043,0.0188L0.3151,0.0185L0.326,0.0183L0.3369,0.018L0.3477,0.0177L0.3586,0.0175L0.3695,0.0172L0.3804,0.0169L0.3913,0.0166L0.4022,0.0163L0.4131,0.0161L0.424,0.0158L0.4348,0.0155L0.4457,0.0152L0.4566,0.015L0.4675,0.0147L0.4784,0.0144L0.4893,0.0141L0.5002,0.0139L0.5111,0.0136L0.522,0.0133L0.5329,0.013L0.5438,0.0128L0.5547,0.0125L0.5656,0.0122L0.5765,0.0119L0.5874,0.0117L0.5983,0.0114L0.6092,0.0111L0.6201,0.0108L0.631,0.0106L0.6419,0.0103L0.6528,0.01L0.6637,0.0097L0.6746,0.0094L0.6855,0.0091L0.6964,0.0089L0.7073,0.0086L0.7182,0.0083L0.7291,0.008L0.74,0.0077L0.7509,0.0074L0.7618,0.0071L0.7727,0.0068L0.7836,0.0065L0.7945,0.0062L0.8054,0.0059L0.8163,0.0056L0.8272,0.0053L0.8381,0.005L0.849,0.0047L0.8599,0.0044L0.8708,0.0041L0.8817,0.0038L0.8926,0.0034L0.9035,0.0031L0.9144,0.0028L0.9253,0.0025L0.9362,0.0021L0.9471,0.0018L0.958,0.0015L0.9688,0.0011L0.9797,0.0007L0.9906,0.0003L1,-0"
    />
</svg>
