
<svg 
  class="airfoil-k1"
  fill="none"
  stroke="black" 
  stroke-width="1"
  style="overflow:visible"
  viewBox="0, -0.0649, 1, 0.118200004"
  xmlns="http://www.w3.org/2000/svg">
    <title>NYU/GRUMMAN K-1 AIRFOIL</title>
    <path 
      vector-effect="non-scaling-stroke"
      d="M1,-0.0007L0.975,-0.0042L0.95,-0.0084L0.9252,-0.0132L0.9004,-0.0183L0.8753,-0.0233L0.8501,-0.0282L0.8252,-0.0327L0.8002,-0.0371L0.7753,-0.0411L0.7502,-0.0449L0.7251,-0.0483L0.7,-0.0512L0.675,-0.0537L0.65,-0.056L0.635,-0.0575L0.62,-0.0589L0.6101,-0.0596L0.6001,-0.0602L0.5902,-0.0607L0.5802,-0.0613L0.5703,-0.0618L0.5603,-0.0623L0.5504,-0.0627L0.5404,-0.0631L0.5304,-0.0634L0.5204,-0.0637L0.5104,-0.064L0.5003,-0.0642L0.4903,-0.0644L0.4802,-0.0646L0.4702,-0.0647L0.4602,-0.0648L0.4502,-0.0649L0.4401,-0.0649L0.4302,-0.0649L0.4202,-0.0649L0.4103,-0.0649L0.4003,-0.0648L0.3902,-0.0647L0.38,-0.0645L0.37,-0.0644L0.36,-0.0642L0.3501,-0.0639L0.3401,-0.0637L0.3302,-0.0634L0.3203,-0.0631L0.3101,-0.0628L0.2999,-0.0624L0.2899,-0.062L0.2799,-0.0615L0.2699,-0.061L0.2599,-0.0605L0.2499,-0.06L0.2399,-0.0594L0.2299,-0.0588L0.2198,-0.0581L0.2099,-0.0574L0.1999,-0.0566L0.1899,-0.0558L0.1798,-0.0549L0.1699,-0.054L0.16,-0.0531L0.15,-0.0521L0.1399,-0.0511L0.13,-0.0499L0.1199,-0.0487L0.1101,-0.0473L0.1001,-0.0459L0.0952,-0.0451L0.0903,-0.0443L0.0852,-0.0434L0.0801,-0.0424L0.0752,-0.0414L0.0702,-0.0404L0.0652,-0.0392L0.0601,-0.0378L0.0551,-0.0364L0.0499,-0.0348L0.0451,-0.0333L0.0401,-0.0315L0.0351,-0.0296L0.0299,-0.0275L0.0275,-0.0265L0.0249,-0.0254L0.0225,-0.0242L0.02,-0.0228L0.0175,-0.0215L0.015,-0.02L0.0125,-0.0186L0.01,-0.0169L0.009,-0.0162L0.008,-0.0154L0.007,-0.0146L0.006,-0.0136L0.0049,-0.0126L0.0038,-0.0114L0.0031,-0.0104L0.002,-0.0087L0.0013,-0.0077L0.0007,-0.0061L0.0003,-0.0045L0.0001,-0.0031L0,-0L0.0001,0.0029L0.0003,0.0039L0.0006,0.0052L0.0009,0.0061L0.0017,0.0079L0.0025,0.0094L0.0031,0.0103L0.0036,0.011L0.0044,0.0119L0.0052,0.0128L0.0059,0.0136L0.0066,0.0143L0.0073,0.0149L0.0079,0.0154L0.0086,0.0159L0.0093,0.0164L0.0099,0.0168L0.0133,0.0188L0.0166,0.0205L0.0198,0.022L0.0233,0.0235L0.0267,0.0248L0.03,0.0261L0.0367,0.0283L0.0434,0.0303L0.0501,0.0321L0.0585,0.0343L0.0669,0.0363L0.0753,0.038L0.0837,0.0396L0.0921,0.041L0.1004,0.0422L0.1172,0.0444L0.1339,0.0464L0.1505,0.0481L0.1671,0.0494L0.1837,0.0506L0.2002,0.0515L0.2169,0.0522L0.2336,0.0527L0.2502,0.053L0.2834,0.0533L0.3166,0.0529L0.3497,0.0519L0.3833,0.0504L0.4168,0.0483L0.4502,0.0456L0.4746,0.0433L0.5144,0.0391L0.5505,0.0347L0.5838,0.0302L0.6171,0.0254L0.6504,0.0204L0.6838,0.0152L0.7171,0.0102L0.7503,0.0056L0.7835,0.0018L0.8166,-0.0012L0.8497,-0.0032L0.8832,-0.0041L0.9166,-0.004L0.95,-0.0032L0.9668,-0.0025L0.9834,-0.0015L1,0.0003"
    />
</svg>
