
<svg 
  class="airfoil-k2"
  fill="none"
  stroke="black" 
  stroke-width="1"
  style="overflow:visible"
  viewBox="0, -0.0537, 1, 0.1043"
  xmlns="http://www.w3.org/2000/svg">
    <title>GRUMMAN K-2 AIRFOIL</title>
    <path 
      vector-effect="non-scaling-stroke"
      d="M1,-0.0137L0.9961,-0.0148L0.9911,-0.016L0.9843,-0.0177L0.9761,-0.0197L0.962,-0.0228L0.9513,-0.025L0.9355,-0.028L0.9139,-0.0315L0.8831,-0.0358L0.8326,-0.0413L0.8207,-0.0424L0.8076,-0.0436L0.7932,-0.0448L0.7772,-0.046L0.7598,-0.0471L0.7408,-0.0481L0.7205,-0.0491L0.6992,-0.05L0.6537,-0.0515L0.6299,-0.0521L0.6069,-0.0526L0.5834,-0.053L0.5595,-0.0533L0.5351,-0.0535L0.5106,-0.0536L0.4859,-0.0537L0.4612,-0.0536L0.4368,-0.0534L0.4126,-0.0532L0.389,-0.0528L0.366,-0.0524L0.3438,-0.0519L0.3226,-0.0511L0.3024,-0.0508L0.2833,-0.0501L0.2656,-0.0494L0.2489,-0.0487L0.2335,-0.048L0.2192,-0.0473L0.2063,-0.0465L0.1946,-0.0458L0.1841,-0.0452L0.1746,-0.0445L0.1662,-0.0439L0.1586,-0.0433L0.1517,-0.0427L0.1454,-0.0422L0.1396,-0.0417L0.1341,-0.0412L0.1288,-0.0406L0.1237,-0.0401L0.1187,-0.0396L0.1135,-0.039L0.1084,-0.0384L0.1034,-0.0378L0.0986,-0.0373L0.0939,-0.0367L0.0895,-0.0361L0.0854,-0.0355L0.0816,-0.035L0.0782,-0.0345L0.0751,-0.034L0.0724,-0.0336L0.07,-0.0332L0.0679,-0.0328L0.0659,-0.0325L0.0643,-0.0322L0.0628,-0.032L0.0614,-0.0317L0.0602,-0.0315L0.059,-0.0313L0.058,-0.031L0.057,-0.0309L0.0561,-0.0307L0.0552,-0.0305L0.0543,-0.0303L0.0535,-0.0301L0.0526,-0.03L0.0518,-0.0298L0.0509,-0.0296L0.0501,-0.0294L0.0492,-0.0292L0.0482,-0.0289L0.0473,-0.0287L0.0464,-0.0285L0.0454,-0.0283L0.0445,-0.028L0.0435,-0.0278L0.0425,-0.0275L0.0415,-0.0272L0.0404,-0.0269L0.0394,-0.0266L0.0383,-0.0263L0.0372,-0.026L0.0362,-0.0257L0.035,-0.0253L0.0277,-0.0229L0.018,-0.0192L0.0138,-0.0173L0.0109,-0.0157L0.0089,-0.0146L0.0073,-0.0136L0.0057,-0.0125L0.0043,-0.0114L0.0032,-0.0104L0.0026,-0.0098L0.0023,-0.0094L0.0019,-0.0088L0.0014,-0.0081L0.0011,-0.0075L0.0008,-0.0067L0.0005,-0.0057L0.0003,-0.0047L0.0002,-0.0035L0.0001,-0.0024L0,-0.0012L0,-0L0,0.0011L0.0001,0.0019L0.0002,0.0027L0.0002,0.0035L0.0004,0.0047L0.0005,0.0055L0.0007,0.0063L0.001,0.0075L0.0013,0.0087L0.0016,0.0098L0.0022,0.0113L0.0025,0.0119L0.0031,0.0129L0.0034,0.0135L0.0039,0.0142L0.0045,0.0149L0.0053,0.0157L0.0062,0.0165L0.0072,0.0173L0.0084,0.0181L0.0098,0.0189L0.0119,0.02L0.0141,0.0211L0.0173,0.0224L0.0207,0.0236L0.025,0.025L0.0303,0.0266L0.0442,0.0299L0.0674,0.0344L0.0984,0.0389L0.1301,0.0425L0.1733,0.046L0.2176,0.0484L0.2347,0.0491L0.2587,0.0498L0.2804,0.0503L0.3057,0.0506L0.4081,0.0497L0.505,0.0457L0.5733,0.0406L0.624,0.0353L0.6561,0.0311L0.6858,0.0265L0.718,0.021L0.7431,0.0161L0.7781,0.0088L0.8078,0.0021L0.8322,-0.0033L0.86,-0.0091L0.8822,-0.013L0.8956,-0.015L0.9129,-0.017L0.9299,-0.0183L0.9447,-0.0187L0.9618,-0.0184L0.9758,-0.0169L0.9863,-0.0155L0.9923,-0.0143L0.9969,-0.0133L1,-0.0127"
    />
</svg>
