
<svg 
  class="airfoil-k3"
  fill="none"
  stroke="black" 
  stroke-width="1"
  style="overflow:visible"
  viewBox="0, -0.0822, 1, 0.1753"
  xmlns="http://www.w3.org/2000/svg">
    <title>GRUMMAN K-3 AIRFOIL</title>
    <path 
      vector-effect="non-scaling-stroke"
      d="M1,0.0132L0.9961,0.0121L0.989,0.0097L0.9729,0.0039L0.9533,-0.0033L0.9377,-0.009L0.9196,-0.0153L0.9023,-0.0208L0.8783,-0.0278L0.8546,-0.0341L0.8326,-0.0395L0.8118,-0.0443L0.7962,-0.0477L0.782,-0.0507L0.7653,-0.054L0.7471,-0.0574L0.7321,-0.0599L0.7177,-0.0623L0.6781,-0.0683L0.6709,-0.0692L0.6638,-0.07L0.6568,-0.0708L0.6498,-0.0716L0.6426,-0.0723L0.6354,-0.073L0.6279,-0.0737L0.6202,-0.0744L0.6122,-0.0751L0.6038,-0.0757L0.5951,-0.0764L0.586,-0.077L0.5764,-0.0776L0.5664,-0.0782L0.556,-0.0788L0.5451,-0.0794L0.5338,-0.0799L0.5222,-0.0803L0.5103,-0.0808L0.498,-0.0811L0.4855,-0.0815L0.4727,-0.0817L0.4598,-0.082L0.4467,-0.0821L0.4335,-0.0822L0.4203,-0.0822L0.4072,-0.0822L0.3941,-0.082L0.3812,-0.0819L0.3684,-0.0816L0.3557,-0.0813L0.3432,-0.0809L0.331,-0.0805L0.3189,-0.08L0.307,-0.0795L0.2954,-0.0789L0.284,-0.0783L0.2729,-0.0777L0.2621,-0.077L0.2515,-0.0762L0.2412,-0.0754L0.2312,-0.0746L0.2214,-0.0738L0.212,-0.0729L0.2028,-0.072L0.194,-0.0711L0.1854,-0.0702L0.1771,-0.0692L0.1691,-0.0683L0.1614,-0.0673L0.1539,-0.0663L0.1462,-0.0653L0.1388,-0.0642L0.1317,-0.0631L0.1249,-0.062L0.1183,-0.0609L0.112,-0.0598L0.106,-0.0587L0.1002,-0.0576L0.0947,-0.0565L0.0894,-0.0554L0.0844,-0.0543L0.0797,-0.0532L0.0752,-0.0521L0.0709,-0.051L0.0669,-0.0499L0.0631,-0.0487L0.0596,-0.0477L0.0563,-0.0466L0.0532,-0.0455L0.0503,-0.0445L0.0475,-0.0435L0.045,-0.0425L0.0426,-0.0415L0.0403,-0.0406L0.0382,-0.0396L0.0251,-0.033L0.0217,-0.0311L0.0184,-0.0289L0.0164,-0.0276L0.014,-0.0258L0.0121,-0.0244L0.01,-0.0226L0.0083,-0.021L0.0069,-0.0196L0.0058,-0.0184L0.0047,-0.017L0.0039,-0.0158L0.0031,-0.0145L0.0026,-0.0134L0.002,-0.012L0.0015,-0.0106L0.0005,-0.0057L0,-0L0.0003,0.0075L0.0011,0.0126L0.0023,0.0175L0.0037,0.0218L0.0056,0.0262L0.008,0.0306L0.011,0.0349L0.0158,0.0403L0.0178,0.0422L0.0198,0.0439L0.023,0.0465L0.0281,0.0501L0.0354,0.0545L0.0452,0.0594L0.0571,0.0644L0.0705,0.0691L0.0742,0.0703L0.0859,0.0736L0.1017,0.0772L0.1137,0.0796L0.1268,0.0819L0.139,0.0837L0.1465,0.0847L0.1522,0.0855L0.1638,0.0868L0.1666,0.087L0.181,0.0885L0.191,0.0893L0.212,0.0907L0.2299,0.0917L0.2427,0.0922L0.2576,0.0927L0.2713,0.093L0.2858,0.0931L0.3011,0.0931L0.3173,0.0929L0.3344,0.0925L0.355,0.0917L0.3713,0.0908L0.3867,0.0897L0.4011,0.0886L0.4115,0.0876L0.4322,0.0855L0.4542,0.0827L0.4777,0.0794L0.5025,0.0755L0.5283,0.0711L0.5532,0.0665L0.5761,0.0621L0.5909,0.0592L0.6102,0.0554L0.6283,0.0519L0.6507,0.0475L0.6725,0.0434L0.6991,0.0385L0.7192,0.035L0.7419,0.0313L0.7756,0.0263L0.7958,0.0236L0.8178,0.0209L0.8381,0.0188L0.8609,0.0167L0.8846,0.0151L0.9128,0.0138L0.9383,0.0134L0.9598,0.0138L0.9793,0.0157L0.9913,0.0181L0.9966,0.0196L1,0.0209"
    />
</svg>
