
<svg 
  class="airfoil-k3311"
  fill="none"
  stroke="black" 
  stroke-width="1"
  style="overflow:visible"
  viewBox="0, -0.087, 1, 0.1119"
  xmlns="http://www.w3.org/2000/svg">
    <title>K3311 (original)</title>
    <path 
      vector-effect="non-scaling-stroke"
      d="M1,-0L0.95,-0.0104L0.9,-0.0201L0.85,-0.0293L0.8,-0.0384L0.75,-0.0467L0.7,-0.0548L0.65,-0.0617L0.6,-0.0689L0.55,-0.0749L0.5,-0.0797L0.45,-0.0835L0.4,-0.0862L0.35,-0.087L0.3,-0.086L0.25,-0.0831L0.2,-0.0778L0.15,-0.0697L0.1,-0.0575L0.08,-0.0513L0.06,-0.0441L0.04,-0.035L0.02,-0.0233L0.01,-0.0156L0,-0L0.01,0.0104L0.02,0.0128L0.04,0.0163L0.06,0.019L0.08,0.0204L0.1,0.0217L0.15,0.0239L0.2,0.0249L0.25,0.0247L0.3,0.024L0.35,0.0226L0.4,0.0211L0.45,0.0188L0.5,0.0161L0.55,0.0133L0.6,0.0105L0.65,0.0081L0.7,0.0059L0.75,0.004L0.8,0.0023L0.85,0.0012L0.9,0.0005L0.95,0.0005L1,-0"
    />
</svg>
