
<svg 
  class="airfoil-k3311sm"
  fill="none"
  stroke="black" 
  stroke-width="1"
  style="overflow:visible"
  viewBox="0, -0.0867, 1, 0.112"
  xmlns="http://www.w3.org/2000/svg">
    <title>K3311 (smoothed)</title>
    <path 
      vector-effect="non-scaling-stroke"
      d="M1,-0L0.9975,-0.0005L0.9907,-0.0021L0.9804,-0.0043L0.967,-0.0071L0.9504,-0.0104L0.9306,-0.0143L0.9078,-0.0187L0.882,-0.0236L0.8537,-0.0288L0.8231,-0.0343L0.7905,-0.04L0.7562,-0.0457L0.7204,-0.0515L0.6836,-0.0571L0.6459,-0.0626L0.6078,-0.0677L0.5694,-0.0725L0.531,-0.0767L0.4927,-0.0803L0.4543,-0.0831L0.4164,-0.0852L0.3789,-0.0865L0.342,-0.0867L0.3061,-0.086L0.2712,-0.0844L0.2376,-0.0817L0.2055,-0.0782L0.175,-0.0738L0.1465,-0.0686L0.12,-0.0627L0.0958,-0.0561L0.074,-0.049L0.0547,-0.0415L0.0381,-0.0337L0.0243,-0.0259L0.0134,-0.0183L0.0055,-0.011L0.001,-0.0043L0,-0L0.001,0.0038L0.0055,0.0082L0.0134,0.0117L0.0243,0.0144L0.0381,0.0167L0.0547,0.0186L0.074,0.0203L0.0958,0.0219L0.12,0.0232L0.1465,0.0242L0.175,0.0249L0.2055,0.0253L0.2376,0.0252L0.2712,0.0249L0.3061,0.0242L0.342,0.0233L0.3789,0.0221L0.4164,0.0206L0.4543,0.0188L0.4927,0.0168L0.531,0.0147L0.5694,0.0125L0.6078,0.0105L0.6459,0.0086L0.6836,0.0069L0.7204,0.0053L0.7562,0.004L0.7905,0.0028L0.8231,0.0019L0.8537,0.0013L0.882,0.0009L0.9078,0.0007L0.9306,0.0007L0.9504,0.0006L0.967,0.0006L0.9804,0.0004L0.9907,0.0003L0.9975,0.0001L1,-0"
    />
</svg>
