
<svg 
  class="airfoil-kc135c"
  fill="none"
  stroke="black" 
  stroke-width="1"
  style="overflow:visible"
  viewBox="0, -0.0683, 1, 0.1061"
  xmlns="http://www.w3.org/2000/svg">
    <title>KC-135 BL200.76 AIRFOIL</title>
    <path 
      vector-effect="non-scaling-stroke"
      d="M1,-0L0.95,-0.0073L0.9,-0.0147L0.85,-0.022L0.8,-0.0293L0.75,-0.0369L0.7,-0.0438L0.65,-0.0505L0.6,-0.0564L0.55,-0.0614L0.5,-0.0651L0.45,-0.0674L0.4,-0.0683L0.35,-0.068L0.3,-0.0667L0.25,-0.0642L0.2,-0.0605L0.15,-0.0553L0.1,-0.047L0.075,-0.0411L0.05,-0.0336L0.025,-0.0235L0.0125,-0.0169L0.0075,-0.0134L0.005,-0.0112L0,-0.0037L0.005,0.0057L0.0075,0.0068L0.0125,0.0084L0.025,0.0105L0.05,0.0131L0.075,0.0154L0.1,0.0179L0.15,0.0226L0.2,0.0273L0.25,0.0312L0.3,0.0342L0.35,0.0364L0.4,0.0376L0.45,0.0378L0.5,0.037L0.55,0.0349L0.6,0.0317L0.65,0.0279L0.7,0.0239L0.75,0.0199L0.8,0.0159L0.85,0.0119L0.9,0.008L0.95,0.004L1,-0"
    />
</svg>
