
<svg 
  class="airfoil-kc135winglet"
  fill="none"
  stroke="black" 
  stroke-width="1"
  style="overflow:visible"
  viewBox="0, -0.0628, 1, 0.0804"
  xmlns="http://www.w3.org/2000/svg">
    <title>KC-135 Winglet (supercritical Whitcomb)</title>
    <path 
      vector-effect="non-scaling-stroke"
      d="M1,0.002L0.975,-0.0038L0.95,-0.0089L0.925,-0.0138L0.9,-0.0184L0.875,-0.0228L0.85,-0.027L0.825,-0.0311L0.8,-0.0349L0.775,-0.0384L0.75,-0.0419L0.725,-0.0451L0.7,-0.0481L0.675,-0.0508L0.65,-0.0533L0.625,-0.0554L0.6,-0.0572L0.575,-0.0587L0.55,-0.0599L0.5,-0.0618L0.45,-0.0627L0.4,-0.0628L0.35,-0.0621L0.3,-0.0605L0.25,-0.0581L0.2,-0.0547L0.175,-0.0525L0.15,-0.0499L0.125,-0.0469L0.1,-0.0433L0.075,-0.0389L0.05,-0.0333L0.0375,-0.0296L0.025,-0.0249L0.0125,-0.0179L0.005,-0.0119L0.002,-0.0077L0,-0L0.002,0.0032L0.005,0.0041L0.0125,0.006L0.025,0.0077L0.0375,0.009L0.05,0.01L0.075,0.0118L0.1,0.0132L0.125,0.0144L0.15,0.0154L0.175,0.0161L0.2,0.0167L0.25,0.0175L0.3,0.0176L0.35,0.0174L0.4,0.0168L0.45,0.0158L0.5,0.0144L0.55,0.0122L0.575,0.0106L0.6,0.009L0.625,0.0071L0.65,0.0052L0.675,0.0033L0.7,0.0015L0.725,-0.0004L0.75,-0.002L0.775,-0.0036L0.8,-0.0049L0.825,-0.006L0.85,-0.0065L0.875,-0.0064L0.9,-0.0059L0.925,-0.0045L0.95,-0.0021L0.975,0.0013L1,0.0067"
    />
</svg>
