
<svg 
  class="airfoil-kc135a"
  fill="none"
  stroke="black" 
  stroke-width="1"
  style="overflow:visible"
  viewBox="0, -0.0922, 1, 0.15490001"
  xmlns="http://www.w3.org/2000/svg">
    <title>KC-135 BL52.44 AIRFOIL</title>
    <path 
      vector-effect="non-scaling-stroke"
      d="M1,-0L0.95,-0.0086L0.9,-0.0172L0.85,-0.0258L0.8,-0.0344L0.75,-0.043L0.7,-0.0517L0.65,-0.0603L0.6,-0.0687L0.55,-0.0762L0.5,-0.0826L0.45,-0.0877L0.4,-0.091L0.35,-0.0922L0.3,-0.0914L0.25,-0.0886L0.2,-0.0838L0.15,-0.0766L0.1,-0.0657L0.075,-0.0581L0.05,-0.0483L0.025,-0.0347L0.0125,-0.0254L0.0075,-0.0205L0.005,-0.0175L0,-0.0074L0.005,0.0087L0.0075,0.0108L0.0125,0.0139L0.025,0.0192L0.05,0.0261L0.075,0.0318L0.1,0.0366L0.15,0.0451L0.2,0.0523L0.25,0.0576L0.3,0.061L0.35,0.0627L0.4,0.0625L0.45,0.0604L0.5,0.0568L0.55,0.0518L0.6,0.0462L0.65,0.0404L0.7,0.0346L0.75,0.0289L0.8,0.0231L0.85,0.0173L0.9,0.0115L0.95,0.0058L1,-0"
    />
</svg>
