
<svg 
  class="airfoil-kc135b"
  fill="none"
  stroke="black" 
  stroke-width="1"
  style="overflow:visible"
  viewBox="0, -0.0792, 1, 0.12990001"
  xmlns="http://www.w3.org/2000/svg">
    <title>KC-135 BL124.32 AIRFOIL</title>
    <path 
      vector-effect="non-scaling-stroke"
      d="M1,-0L0.95,-0.008L0.9,-0.0159L0.85,-0.0239L0.8,-0.0319L0.75,-0.0399L0.7,-0.0478L0.65,-0.0557L0.6,-0.0628L0.55,-0.0689L0.5,-0.0738L0.45,-0.0772L0.4,-0.0791L0.35,-0.0792L0.3,-0.0776L0.25,-0.075L0.2,-0.0707L0.15,-0.0644L0.1,-0.0551L0.075,-0.0485L0.05,-0.04L0.025,-0.0284L0.0125,-0.0206L0.0075,-0.0165L0.005,-0.014L0,-0.0054L0.005,0.0073L0.0075,0.0089L0.0125,0.0112L0.025,0.0148L0.05,0.0192L0.075,0.0229L0.1,0.0265L0.15,0.0332L0.2,0.0393L0.25,0.044L0.3,0.0475L0.35,0.0498L0.4,0.0507L0.45,0.0501L0.5,0.0479L0.55,0.0445L0.6,0.0399L0.65,0.035L0.7,0.03L0.75,0.025L0.8,0.02L0.85,0.015L0.9,0.01L0.95,0.005L1,-0"
    />
</svg>
