
<svg 
  class="airfoil-kc135d"
  fill="none"
  stroke="black" 
  stroke-width="1"
  style="overflow:visible"
  viewBox="0, -0.0645, 1, 0.09019999"
  xmlns="http://www.w3.org/2000/svg">
    <title>KC-135 BL351.6 AIRFOIL</title>
    <path 
      vector-effect="non-scaling-stroke"
      d="M1,-0L0.95,-0.0073L0.9,-0.0145L0.85,-0.0218L0.8,-0.029L0.75,-0.036L0.7,-0.0427L0.65,-0.0488L0.6,-0.0541L0.55,-0.0585L0.5,-0.0618L0.45,-0.0637L0.4,-0.0645L0.35,-0.0643L0.3,-0.0628L0.25,-0.0605L0.2,-0.057L0.15,-0.0521L0.1,-0.0442L0.075,-0.0386L0.05,-0.0313L0.025,-0.0216L0.0125,-0.0152L0.0075,-0.012L0.005,-0.01L0,-0.0031L0.005,0.0047L0.0075,0.0056L0.0125,0.0066L0.025,0.0075L0.05,0.0089L0.075,0.0104L0.1,0.0119L0.15,0.0148L0.2,0.0177L0.25,0.0206L0.3,0.0227L0.35,0.0245L0.4,0.0254L0.45,0.0257L0.5,0.025L0.55,0.0233L0.6,0.0208L0.65,0.0182L0.7,0.0156L0.75,0.013L0.8,0.0104L0.85,0.0077L0.9,0.0052L0.95,0.0026L1,-0"
    />
</svg>
