
<svg 
  class="airfoil-kenmar"
  fill="none"
  stroke="black" 
  stroke-width="1"
  style="overflow:visible"
  viewBox="0, -0.2155, 1, 0.2871"
  xmlns="http://www.w3.org/2000/svg">
    <title>KENNEDY AND MARSDEN AIRFOIL</title>
    <path 
      vector-effect="non-scaling-stroke"
      d="M1,-0L0.9989,-0.0026L0.9959,-0.0061L0.9908,-0.0103L0.9839,-0.0148L0.9749,-0.0198L0.9641,-0.0252L0.9515,-0.031L0.9371,-0.0371L0.9209,-0.0435L0.903,-0.0502L0.8836,-0.0571L0.8626,-0.0643L0.8401,-0.0718L0.8164,-0.0795L0.7913,-0.0875L0.7651,-0.0958L0.7378,-0.1042L0.7096,-0.1129L0.6805,-0.1219L0.6506,-0.1311L0.6202,-0.1405L0.5893,-0.1501L0.5579,-0.1599L0.5264,-0.1698L0.4947,-0.1798L0.463,-0.1898L0.4314,-0.1995L0.4002,-0.2084L0.3693,-0.2139L0.3391,-0.2155L0.3096,-0.2146L0.2809,-0.2111L0.253,-0.2056L0.2262,-0.1986L0.2005,-0.1901L0.176,-0.1803L0.1527,-0.1695L0.1309,-0.1578L0.1104,-0.1454L0.0916,-0.1323L0.0743,-0.1187L0.0588,-0.1047L0.0449,-0.0906L0.0329,-0.0765L0.0226,-0.0624L0.0143,-0.0486L0.0078,-0.0354L0.0033,-0.0227L0.0007,-0.0101L0,-0L0.0014,0.0138L0.0048,0.0283L0.0101,0.0417L0.0172,0.0516L0.0262,0.0582L0.0369,0.0621L0.0495,0.0648L0.0638,0.067L0.0799,0.0688L0.0976,0.0701L0.1168,0.071L0.1376,0.0715L0.1598,0.0716L0.1834,0.0713L0.2082,0.0705L0.2341,0.0694L0.2611,0.0679L0.2891,0.0661L0.3178,0.0641L0.3473,0.0618L0.3774,0.0592L0.408,0.0563L0.4389,0.053L0.4701,0.0493L0.5013,0.045L0.5326,0.0401L0.5637,0.0344L0.5945,0.0281L0.625,0.0212L0.6549,0.0139L0.6843,0.0067L0.7129,-0.0002L0.7407,-0.0065L0.7676,-0.0119L0.7934,-0.0164L0.8181,-0.0199L0.8416,-0.0224L0.8638,-0.024L0.8845,-0.0246L0.9038,-0.0245L0.9215,-0.0236L0.9375,-0.0221L0.9518,-0.0199L0.9644,-0.0173L0.9751,-0.0143L0.984,-0.0111L0.9909,-0.0079L0.9959,-0.0047L0.9989,-0.0022L1,-0"
    />
</svg>
