
<svg 
  class="airfoil-l1003"
  fill="none"
  stroke="black" 
  stroke-width="1"
  style="overflow:visible"
  viewBox="0, -0.1537, 1, 0.20279999"
  xmlns="http://www.w3.org/2000/svg">
    <title>LIEBECK L1003 AIRFOIL</title>
    <path 
      vector-effect="non-scaling-stroke"
      d="M1,-0L0.95,-0.0019L0.9,-0.0056L0.85,-0.012L0.8,-0.0204L0.75,-0.0287L0.7,-0.0407L0.65,-0.0518L0.6,-0.0667L0.55,-0.0806L0.5,-0.0963L0.45,-0.1185L0.4,-0.1352L0.35,-0.1481L0.3,-0.1537L0.25,-0.1481L0.2,-0.137L0.15,-0.1222L0.1,-0.0972L0.075,-0.0833L0.05,-0.063L0.0375,-0.0509L0.025,-0.0398L0.0125,-0.0231L0,-0L0.0125,0.037L0.025,0.0463L0.0375,0.0491L0.05,0.0491L0.075,0.0435L0.1,0.0398L0.15,0.0333L0.2,0.0287L0.25,0.0259L0.3,0.0232L0.35,0.0204L0.4,0.0185L0.45,0.0167L0.5,0.0148L0.55,0.013L0.6,0.0111L0.65,0.0093L0.7,0.0074L0.75,0.0056L0.8,0.0037L0.85,0.0028L0.9,0.0019L0.95,0.0009L1,-0"
    />
</svg>
