
<svg 
  class="airfoil-l188tip"
  fill="none"
  stroke="black" 
  stroke-width="1"
  style="overflow:visible"
  viewBox="0, -0.0858, 1, 0.1211"
  xmlns="http://www.w3.org/2000/svg">
    <title>LOCKHEED L-188 TIP AIRFOIL</title>
    <path 
      vector-effect="non-scaling-stroke"
      d="M1,-0.0012L0.9988,-0.0015L0.9951,-0.0023L0.9891,-0.0037L0.9806,-0.0057L0.9698,-0.0083L0.9568,-0.0114L0.9415,-0.0152L0.924,-0.0194L0.9045,-0.0242L0.883,-0.0294L0.8597,-0.035L0.8346,-0.0407L0.8078,-0.0466L0.7796,-0.0521L0.75,-0.0574L0.7192,-0.0624L0.6873,-0.067L0.6545,-0.0713L0.621,-0.0751L0.5868,-0.0785L0.5523,-0.0812L0.5174,-0.0834L0.4825,-0.0849L0.4477,-0.0857L0.4132,-0.0858L0.379,-0.0851L0.3455,-0.0838L0.3127,-0.0821L0.2808,-0.0798L0.25,-0.0771L0.2204,-0.074L0.1922,-0.0705L0.1654,-0.0667L0.1403,-0.0625L0.117,-0.058L0.0955,-0.0533L0.076,-0.0482L0.0585,-0.0429L0.0432,-0.0373L0.0302,-0.0314L0.0194,-0.0254L0.0109,-0.0192L0.0049,-0.0128L0.0012,-0.0064L0,-0L0.0012,0.0057L0.0049,0.0106L0.0109,0.0149L0.0194,0.0185L0.0302,0.0217L0.0432,0.0244L0.0585,0.0266L0.076,0.0286L0.0955,0.0302L0.117,0.0315L0.1403,0.0326L0.1654,0.0335L0.1922,0.0342L0.2204,0.0347L0.25,0.0351L0.2808,0.0353L0.3127,0.0353L0.3455,0.0351L0.379,0.0348L0.4132,0.0341L0.4477,0.0332L0.4825,0.0318L0.5174,0.0302L0.5523,0.0282L0.5868,0.0261L0.621,0.0237L0.6545,0.0213L0.6873,0.0189L0.7192,0.0165L0.75,0.0142L0.7796,0.0121L0.8078,0.0104L0.8346,0.009L0.8597,0.0079L0.883,0.0069L0.9045,0.006L0.924,0.0052L0.9415,0.0044L0.9568,0.0037L0.9698,0.003L0.9806,0.0024L0.9891,0.0019L0.9951,0.0015L0.9988,0.0013L1,0.0012"
    />
</svg>
