
<svg 
  class="airfoil-l188root"
  fill="none"
  stroke="black" 
  stroke-width="1"
  style="overflow:visible"
  viewBox="0, -0.0893, 1, 0.14039999"
  xmlns="http://www.w3.org/2000/svg">
    <title>LOCKHEED L-188 ROOT AIRFOIL</title>
    <path 
      vector-effect="non-scaling-stroke"
      d="M1,-0.0014L0.9988,-0.0017L0.9951,-0.0024L0.9891,-0.0037L0.9806,-0.0055L0.9698,-0.0079L0.9568,-0.0108L0.9415,-0.0143L0.924,-0.0183L0.9045,-0.0228L0.883,-0.0278L0.8597,-0.0331L0.8346,-0.0388L0.8078,-0.0446L0.7796,-0.0503L0.75,-0.0558L0.7192,-0.0612L0.6873,-0.0664L0.6545,-0.0712L0.621,-0.0757L0.5868,-0.0796L0.5523,-0.083L0.5174,-0.0857L0.4825,-0.0877L0.4477,-0.0889L0.4132,-0.0893L0.379,-0.0888L0.3455,-0.0877L0.3127,-0.086L0.2808,-0.0839L0.25,-0.0812L0.2204,-0.0782L0.1922,-0.0747L0.1654,-0.0709L0.1403,-0.0667L0.117,-0.0622L0.0955,-0.0573L0.076,-0.0521L0.0585,-0.0466L0.0432,-0.0408L0.0302,-0.0346L0.0194,-0.0282L0.0109,-0.0215L0.0049,-0.0145L0.0012,-0.0073L0,-0L0.0012,0.0068L0.0049,0.0128L0.0109,0.0182L0.0194,0.023L0.0302,0.0273L0.0432,0.0311L0.0585,0.0345L0.076,0.0374L0.0955,0.04L0.117,0.0423L0.1403,0.0443L0.1654,0.046L0.1922,0.0475L0.2204,0.0487L0.25,0.0497L0.2808,0.0504L0.3127,0.0509L0.3455,0.0511L0.379,0.051L0.4132,0.0506L0.4477,0.0495L0.4825,0.0479L0.5174,0.0458L0.5523,0.0432L0.5868,0.0403L0.621,0.0371L0.6545,0.0337L0.6873,0.0303L0.7192,0.0268L0.75,0.0234L0.7796,0.0203L0.8078,0.0174L0.8346,0.015L0.8597,0.0129L0.883,0.0109L0.9045,0.0092L0.924,0.0076L0.9415,0.0062L0.9568,0.005L0.9698,0.0039L0.9806,0.003L0.9891,0.0023L0.9951,0.0018L0.9988,0.0015L1,0.0014"
    />
</svg>
