
<svg 
  class="airfoil-l7769"
  fill="none"
  stroke="black" 
  stroke-width="1"
  style="overflow:visible"
  viewBox="0, -0.0992, 1, 0.122200005"
  xmlns="http://www.w3.org/2000/svg">
    <title>LISSAMAN 7769 AIRFOIL</title>
    <path 
      vector-effect="non-scaling-stroke"
      d="M1,-0L0.95,-0.0041L0.9,-0.0084L0.8,-0.0181L0.7,-0.0316L0.6,-0.0486L0.5,-0.0696L0.4,-0.0897L0.3,-0.0992L0.2,-0.0926L0.15,-0.084L0.1,-0.0706L0.075,-0.0615L0.05,-0.0496L0.025,-0.0334L0.0125,-0.0225L0,-0L0.0125,0.0164L0.025,0.0201L0.05,0.023L0.075,0.023L0.1,0.0216L0.15,0.017L0.2,0.0138L0.3,0.0106L0.4,0.0091L0.5,0.0075L0.6,0.006L0.7,0.0045L0.8,0.003L0.9,0.0016L0.95,0.0008L1,-0"
    />
</svg>
