
<svg 
  class="airfoil-la203a"
  fill="none"
  stroke="black" 
  stroke-width="1"
  style="overflow:visible"
  viewBox="0, -0.1321, 1, 0.165"
  xmlns="http://www.w3.org/2000/svg">
    <title>DOUGLAS LA203A AIRFOIL</title>
    <path 
      vector-effect="non-scaling-stroke"
      d="M1,-0L0.9939,-0.003L0.9862,-0.0059L0.9767,-0.009L0.9655,-0.0124L0.9527,-0.0162L0.9384,-0.0203L0.9225,-0.0247L0.9051,-0.0295L0.8864,-0.0346L0.8662,-0.0401L0.8449,-0.0459L0.8223,-0.0521L0.7985,-0.0585L0.7738,-0.0653L0.7481,-0.0723L0.7215,-0.08L0.6942,-0.0868L0.6662,-0.0941L0.6376,-0.1011L0.6086,-0.1076L0.5792,-0.1136L0.5495,-0.1188L0.5197,-0.1232L0.4898,-0.1267L0.4599,-0.1294L0.4302,-0.1312L0.4008,-0.1321L0.3717,-0.1321L0.3431,-0.1312L0.3151,-0.1294L0.2877,-0.1269L0.2611,-0.1234L0.2353,-0.1192L0.2105,-0.1144L0.1868,-0.109L0.1641,-0.103L0.1426,-0.0967L0.1224,-0.09L0.1036,-0.0829L0.0861,-0.0756L0.0702,-0.0682L0.0557,-0.0606L0.0428,-0.053L0.0316,-0.0455L0.022,-0.038L0.0141,-0.0307L0.008,-0.0233L0.0035,-0.0158L0.0009,-0.006L0,-0L0.0009,0.008L0.0035,0.0151L0.008,0.0215L0.0141,0.0265L0.022,0.0296L0.0316,0.0313L0.0428,0.0322L0.0557,0.0327L0.0702,0.0329L0.0861,0.0327L0.1036,0.0327L0.1224,0.0324L0.1426,0.032L0.1641,0.0316L0.1868,0.031L0.2105,0.0304L0.2353,0.0297L0.2611,0.029L0.2877,0.0281L0.3151,0.0272L0.3431,0.0261L0.3717,0.0249L0.4008,0.0235L0.4302,0.0218L0.4599,0.0198L0.4898,0.0175L0.5197,0.0149L0.5495,0.0121L0.5792,0.0091L0.6086,0.0059L0.6376,0.0028L0.6662,-0.0001L0.6942,-0.0029L0.7215,-0.0054L0.7481,-0.0077L0.7738,-0.0096L0.7985,-0.0111L0.8223,-0.0123L0.8449,-0.0131L0.8662,-0.0135L0.8864,-0.0134L0.9051,-0.0131L0.9225,-0.0123L0.9384,-0.0112L0.9527,-0.0098L0.9655,-0.0082L0.9767,-0.0064L0.9862,-0.0044L0.9939,-0.0024L1,-0"
    />
</svg>
