
<svg 
  class="airfoil-la2573a"
  fill="none"
  stroke="black" 
  stroke-width="1"
  style="overflow:visible"
  viewBox="0, -0.1004, 1, 0.1371"
  xmlns="http://www.w3.org/2000/svg">
    <title>LA2573A</title>
    <path 
      vector-effect="non-scaling-stroke"
      d="M1,-0L0.9939,-0.0002L0.9862,-0.0004L0.9767,-0.0007L0.9655,-0.0011L0.9527,-0.0017L0.9384,-0.0025L0.9225,-0.0035L0.9051,-0.0048L0.8864,-0.0064L0.8662,-0.0083L0.8449,-0.0105L0.8223,-0.013L0.7985,-0.0159L0.7738,-0.0191L0.7481,-0.0227L0.7215,-0.0267L0.6942,-0.0309L0.6662,-0.0355L0.6376,-0.0405L0.6086,-0.0457L0.5792,-0.0512L0.5495,-0.0569L0.5197,-0.0628L0.4898,-0.0688L0.4599,-0.0749L0.4302,-0.081L0.4008,-0.0868L0.3717,-0.0921L0.3431,-0.0963L0.3151,-0.099L0.2877,-0.1004L0.2611,-0.1004L0.2353,-0.0993L0.2105,-0.0971L0.1868,-0.094L0.1641,-0.0901L0.1426,-0.0855L0.1224,-0.0803L0.1036,-0.0745L0.0861,-0.0683L0.0702,-0.0619L0.0557,-0.0553L0.0428,-0.0485L0.0316,-0.0418L0.022,-0.0351L0.0141,-0.0284L0.008,-0.0217L0.0035,-0.0146L0.0009,-0.0075L0,-0L0.0009,0.0075L0.0035,0.0143L0.008,0.0203L0.0141,0.025L0.022,0.028L0.0316,0.0299L0.0428,0.0313L0.0557,0.0324L0.0702,0.0333L0.0861,0.034L0.1036,0.0346L0.1224,0.0351L0.1426,0.0354L0.1641,0.0358L0.1868,0.036L0.2105,0.0363L0.2353,0.0364L0.2611,0.0365L0.2877,0.0366L0.3151,0.0367L0.3431,0.0366L0.3717,0.0365L0.4008,0.0364L0.4302,0.0362L0.4599,0.0359L0.4898,0.0355L0.5197,0.035L0.5495,0.0345L0.5792,0.0338L0.6086,0.033L0.6376,0.0321L0.6662,0.031L0.6942,0.0299L0.7215,0.0285L0.7481,0.027L0.7738,0.0252L0.7985,0.0232L0.8223,0.0207L0.8449,0.0181L0.8662,0.0154L0.8864,0.0129L0.9051,0.0105L0.9225,0.0083L0.9384,0.0064L0.9527,0.0047L0.9655,0.0033L0.9767,0.0022L0.9862,0.0013L0.9939,0.0006L1,-0"
    />
</svg>
