
<svg 
  class="airfoil-la5055"
  fill="none"
  stroke="black" 
  stroke-width="1"
  style="overflow:visible"
  viewBox="0, -0.1389, 1, 0.1713"
  xmlns="http://www.w3.org/2000/svg">
    <title>LIEBECK LA5055 AIRFOIL</title>
    <path 
      vector-effect="non-scaling-stroke"
      d="M1,-0L0.95,-0.0065L0.9,-0.0148L0.85,-0.0222L0.8,-0.0324L0.75,-0.0454L0.7,-0.0583L0.65,-0.0704L0.6,-0.087L0.55,-0.1037L0.5,-0.1194L0.45,-0.1315L0.4,-0.137L0.35,-0.1389L0.3,-0.1343L0.25,-0.1287L0.2,-0.1185L0.15,-0.1065L0.1,-0.088L0.075,-0.0769L0.05,-0.0611L0.0375,-0.0528L0.025,-0.0426L0.0125,-0.0306L0,-0L0.0125,0.0259L0.025,0.0315L0.0375,0.0324L0.05,0.0324L0.075,0.0315L0.1,0.0306L0.15,0.0287L0.2,0.0278L0.25,0.025L0.3,0.0231L0.35,0.0204L0.4,0.0185L0.45,0.0148L0.5,0.0139L0.55,0.012L0.6,0.0102L0.65,0.0083L0.7,0.0074L0.75,0.0056L0.8,0.0037L0.85,0.0019L0.9,0.0009L0.95,0.0005L1,-0"
    />
</svg>
