
<svg 
  class="airfoil-lds2"
  fill="none"
  stroke="black" 
  stroke-width="1"
  style="overflow:visible"
  viewBox="0, -0.0803, 1, 0.12020001"
  xmlns="http://www.w3.org/2000/svg">
    <title>LDS-2 AIRFOIL</title>
    <path 
      vector-effect="non-scaling-stroke"
      d="M1,-0L0.9502,-0.0089L0.9005,-0.0176L0.8507,-0.0264L0.8008,-0.0351L0.7505,-0.0436L0.7009,-0.0516L0.6508,-0.059L0.6006,-0.0656L0.5503,-0.0713L0.5,-0.0757L0.4496,-0.0788L0.3992,-0.0802L0.3488,-0.0803L0.3,-0.0788L0.25,-0.076L0.2,-0.0717L0.175,-0.0688L0.15,-0.0654L0.125,-0.0614L0.1,-0.0565L0.075,-0.0505L0.05,-0.0427L0.0375,-0.0378L0.025,-0.0315L0.0125,-0.0227L0.005,-0.0146L0.002,-0.0095L0,-0L0.002,0.0055L0.005,0.0088L0.0125,0.0131L0.025,0.0173L0.0375,0.0203L0.05,0.0227L0.075,0.0266L0.1,0.0297L0.125,0.0323L0.15,0.0344L0.175,0.0361L0.2,0.0374L0.25,0.0394L0.3,0.0399L0.3488,0.0394L0.3992,0.0379L0.4496,0.0356L0.5,0.0326L0.5503,0.0293L0.6006,0.026L0.6508,0.0227L0.7009,0.0194L0.7505,0.0162L0.8008,0.013L0.8507,0.0098L0.9005,0.0065L0.9502,0.0033L1,-0"
    />
</svg>
