
<svg 
  class="airfoil-legionair140_sm"
  fill="none"
  stroke="black" 
  stroke-width="1"
  style="overflow:visible"
  viewBox="0, -0.0765, 1, 0.0874"
  xmlns="http://www.w3.org/2000/svg">
    <title>Legionair 140 (digitized and smoothed by MSelig)</title>
    <path 
      vector-effect="non-scaling-stroke"
      d="M1,-0.0032L0.9997,-0.0033L0.999,-0.0034L0.9977,-0.0036L0.996,-0.0039L0.9937,-0.0043L0.991,-0.0048L0.9877,-0.0054L0.984,-0.006L0.9797,-0.0067L0.975,-0.0074L0.9698,-0.0082L0.9642,-0.009L0.9581,-0.0099L0.9515,-0.0109L0.9444,-0.0118L0.9369,-0.0129L0.929,-0.0139L0.9206,-0.0151L0.9118,-0.0162L0.9026,-0.0174L0.893,-0.0187L0.883,-0.02L0.8726,-0.0214L0.8619,-0.0228L0.8507,-0.0242L0.8393,-0.0257L0.8274,-0.0272L0.8153,-0.0288L0.8028,-0.0304L0.79,-0.032L0.777,-0.0337L0.7636,-0.0354L0.75,-0.0372L0.7361,-0.039L0.722,-0.0408L0.7077,-0.0426L0.6932,-0.0444L0.6784,-0.0462L0.6635,-0.0481L0.6485,-0.0499L0.6332,-0.0517L0.6179,-0.0535L0.6024,-0.0553L0.5868,-0.0571L0.5712,-0.0588L0.5554,-0.0605L0.5396,-0.0622L0.5238,-0.0638L0.5079,-0.0653L0.4921,-0.0668L0.4762,-0.0682L0.4604,-0.0695L0.4446,-0.0708L0.4288,-0.0719L0.4132,-0.073L0.3976,-0.0739L0.3821,-0.0747L0.3668,-0.0753L0.3515,-0.0759L0.3365,-0.0762L0.3216,-0.0765L0.3068,-0.0765L0.2923,-0.0764L0.278,-0.0761L0.2639,-0.0757L0.25,-0.0751L0.2364,-0.0743L0.223,-0.0733L0.21,-0.0721L0.1972,-0.0708L0.1847,-0.0692L0.1726,-0.0676L0.1607,-0.0657L0.1493,-0.0637L0.1381,-0.0616L0.1274,-0.0594L0.117,-0.057L0.107,-0.0545L0.0974,-0.052L0.0882,-0.0493L0.0794,-0.0466L0.071,-0.0439L0.0631,-0.0412L0.0556,-0.0384L0.0485,-0.0356L0.0419,-0.0328L0.0358,-0.0301L0.0302,-0.0274L0.025,-0.0247L0.0203,-0.0221L0.016,-0.0195L0.0123,-0.0171L0.009,-0.0147L0.0063,-0.0125L0.004,-0.0103L0.0023,-0.0083L0.001,-0.0064L0.0003,-0.0046L0,-0.003L0.0003,-0.0014L0.001,0L0.0023,0.0013L0.004,0.0025L0.0063,0.0036L0.009,0.0046L0.0123,0.0055L0.016,0.0063L0.0203,0.0071L0.025,0.0077L0.0302,0.0083L0.0358,0.0088L0.0419,0.0092L0.0485,0.0096L0.0556,0.0099L0.0631,0.0102L0.071,0.0104L0.0794,0.0106L0.0882,0.0107L0.0974,0.0108L0.107,0.0109L0.117,0.0109L0.1274,0.0109L0.1381,0.0109L0.1493,0.0109L0.1607,0.0108L0.1726,0.0107L0.1847,0.0106L0.1972,0.0105L0.21,0.0104L0.223,0.0103L0.2364,0.0102L0.25,0.01L0.2639,0.0099L0.278,0.0097L0.2923,0.0096L0.3068,0.0095L0.3216,0.0093L0.3365,0.0092L0.3515,0.009L0.3668,0.0089L0.3821,0.0087L0.3976,0.0086L0.4132,0.0085L0.4288,0.0083L0.4446,0.0082L0.4604,0.0081L0.4762,0.008L0.4921,0.0078L0.5079,0.0077L0.5238,0.0076L0.5396,0.0075L0.5554,0.0073L0.5712,0.0072L0.5868,0.0071L0.6024,0.0069L0.6179,0.0068L0.6332,0.0067L0.6485,0.0065L0.6635,0.0064L0.6784,0.0062L0.6932,0.0061L0.7077,0.0059L0.722,0.0058L0.7361,0.0056L0.75,0.0055L0.7636,0.0053L0.777,0.0051L0.79,0.005L0.8028,0.0048L0.8153,0.0046L0.8274,0.0045L0.8393,0.0043L0.8507,0.0041L0.8619,0.004L0.8726,0.0038L0.883,0.0037L0.893,0.0036L0.9026,0.0035L0.9118,0.0034L0.9206,0.0033L0.929,0.0032L0.9369,0.0031L0.9444,0.0031L0.9515,0.003L0.9581,0.003L0.9642,0.003L0.9698,0.003L0.975,0.003L0.9797,0.003L0.984,0.003L0.9877,0.0031L0.991,0.0031L0.9937,0.0031L0.996,0.0032L0.9977,0.0032L0.999,0.0032L0.9993,0.0032"
    />
</svg>
