
<svg 
  class="airfoil-lg10sc"
  fill="none"
  stroke="black" 
  stroke-width="1"
  style="overflow:visible"
  viewBox="0, -0.063, 1, 0.1012"
  xmlns="http://www.w3.org/2000/svg">
    <title>LOCKHEED-GEORGIA SUPERCRITICAL AIRFOIL</title>
    <path 
      vector-effect="non-scaling-stroke"
      d="M1,-0.0015L0.975,-0.0052L0.95,-0.0088L0.925,-0.0124L0.9,-0.0158L0.875,-0.0191L0.85,-0.0223L0.825,-0.0255L0.8,-0.0285L0.775,-0.0314L0.75,-0.0342L0.725,-0.0368L0.7,-0.0394L0.675,-0.0418L0.65,-0.0441L0.625,-0.0463L0.6,-0.0484L0.575,-0.0504L0.55,-0.0522L0.525,-0.0539L0.5,-0.0554L0.475,-0.0568L0.45,-0.0581L0.425,-0.0593L0.4,-0.0603L0.375,-0.0611L0.35,-0.0618L0.32,-0.0625L0.2823,-0.0629L0.2515,-0.063L0.2208,-0.0627L0.1902,-0.0619L0.1597,-0.0604L0.1294,-0.0578L0.0993,-0.0537L0.0843,-0.0508L0.0677,-0.0467L0.0521,-0.0416L0.0384,-0.0359L0.0268,-0.0297L0.0172,-0.0235L0.0097,-0.0172L0.0043,-0.0111L0.0011,-0.0053L0,-0L0.0011,0.0041L0.0043,0.0073L0.0097,0.01L0.0172,0.0127L0.0268,0.0153L0.0384,0.0177L0.0521,0.0201L0.0677,0.0224L0.0843,0.0244L0.0993,0.026L0.1294,0.0288L0.1597,0.0311L0.1902,0.0329L0.2208,0.0344L0.2515,0.0357L0.2823,0.0367L0.32,0.0375L0.35,0.038L0.375,0.0382L0.4,0.0382L0.425,0.0381L0.45,0.0379L0.475,0.0375L0.5,0.037L0.525,0.0364L0.55,0.0356L0.575,0.0347L0.6,0.0337L0.625,0.0325L0.65,0.0312L0.675,0.0298L0.7,0.0283L0.725,0.0266L0.75,0.0249L0.775,0.023L0.8,0.021L0.825,0.019L0.85,0.0168L0.875,0.0145L0.9,0.0121L0.925,0.0096L0.95,0.007L0.975,0.0043L1,0.0015"
    />
</svg>
