
<svg 
  class="airfoil-lnv109a"
  fill="none"
  stroke="black" 
  stroke-width="1"
  style="overflow:visible"
  viewBox="0, -0.1228, 1, 0.1543"
  xmlns="http://www.w3.org/2000/svg">
    <title>LNV109A</title>
    <path 
      vector-effect="non-scaling-stroke"
      d="M1,-0L0.9939,-0.0005L0.9862,-0.0011L0.9767,-0.0018L0.9655,-0.0027L0.9527,-0.0037L0.9384,-0.0051L0.9225,-0.0066L0.9051,-0.0085L0.8864,-0.0107L0.8662,-0.0132L0.8449,-0.0161L0.8223,-0.0193L0.7985,-0.0229L0.7738,-0.0269L0.7481,-0.0313L0.7215,-0.0361L0.6942,-0.0413L0.6662,-0.0469L0.6376,-0.0528L0.6086,-0.0592L0.5792,-0.0658L0.5495,-0.0728L0.5197,-0.0799L0.4898,-0.0873L0.4599,-0.0947L0.4302,-0.1021L0.4008,-0.1092L0.3717,-0.1153L0.3431,-0.1195L0.3151,-0.1219L0.2877,-0.1228L0.2611,-0.1222L0.2353,-0.1203L0.2105,-0.1172L0.1868,-0.113L0.1641,-0.1079L0.1426,-0.102L0.1224,-0.0954L0.1036,-0.0883L0.0861,-0.0807L0.0702,-0.0728L0.0557,-0.0647L0.0428,-0.0565L0.0316,-0.0483L0.022,-0.0402L0.0141,-0.0322L0.008,-0.0244L0.0035,-0.0164L0.0009,-0.0081L0,-0L0.0009,0.0081L0.0035,0.0155L0.008,0.0221L0.0141,0.0273L0.022,0.0305L0.0316,0.0315L0.0428,0.0312L0.0557,0.0301L0.0702,0.0286L0.0861,0.0267L0.1036,0.0245L0.1224,0.0222L0.1426,0.0198L0.1641,0.0172L0.1868,0.0147L0.2105,0.0121L0.2353,0.0096L0.2611,0.0072L0.2877,0.0048L0.3151,0.0025L0.3431,0.0004L0.3717,-0.0015L0.4008,-0.0033L0.4302,-0.0048L0.4599,-0.0061L0.4898,-0.007L0.5197,-0.0076L0.5495,-0.0078L0.5792,-0.0078L0.6086,-0.0077L0.6376,-0.0074L0.6662,-0.007L0.6942,-0.0065L0.7215,-0.0059L0.7481,-0.0053L0.7738,-0.0047L0.7985,-0.0041L0.8223,-0.0035L0.8449,-0.003L0.8662,-0.0024L0.8864,-0.002L0.9051,-0.0015L0.9225,-0.0011L0.9384,-0.0008L0.9527,-0.0005L0.9655,-0.0003L0.9767,-0.0001L0.9862,0L0.9939,0.0001L1,-0"
    />
</svg>
