
<svg 
  class="airfoil-lrn1015"
  fill="none"
  stroke="black" 
  stroke-width="1"
  style="overflow:visible"
  viewBox="0, -0.1248, 1, 0.1521"
  xmlns="http://www.w3.org/2000/svg">
    <title>NASA LRN 1015 (NASA TM 102840)</title>
    <path 
      vector-effect="non-scaling-stroke"
      d="M1,-0L0.9984,-0.0006L0.9935,-0.0022L0.9855,-0.0048L0.9743,-0.0081L0.96,-0.0118L0.9427,-0.0158L0.9226,-0.02L0.8997,-0.0248L0.8743,-0.0307L0.8464,-0.0379L0.8162,-0.0461L0.784,-0.0555L0.75,-0.0662L0.7143,-0.0775L0.6773,-0.0885L0.6391,-0.0984L0.6,-0.1069L0.5603,-0.1138L0.5201,-0.1189L0.4799,-0.1224L0.4397,-0.1243L0.4,-0.1248L0.3609,-0.1241L0.3227,-0.1223L0.2857,-0.1195L0.25,-0.1157L0.216,-0.111L0.1838,-0.1054L0.1536,-0.0991L0.1257,-0.092L0.1003,-0.0842L0.0774,-0.0757L0.0573,-0.0667L0.04,-0.0571L0.0257,-0.047L0.0145,-0.0363L0.0065,-0.0262L0.0016,-0.0171L0,-0L0.0016,0.002L0.0065,0.0049L0.0145,0.0075L0.0257,0.01L0.04,0.0125L0.0573,0.015L0.0774,0.0172L0.1003,0.0193L0.1257,0.0212L0.1536,0.0229L0.1838,0.0243L0.216,0.0255L0.25,0.0264L0.2857,0.027L0.3227,0.0273L0.3609,0.0273L0.4,0.0271L0.4397,0.0265L0.4799,0.0257L0.5201,0.0245L0.5603,0.023L0.6,0.0213L0.6391,0.0192L0.6773,0.0169L0.7143,0.0141L0.75,0.0109L0.784,0.0077L0.8162,0.0046L0.8464,0.0021L0.8743,0.0002L0.8997,-0.0011L0.9226,-0.0018L0.9427,-0.002L0.96,-0.0018L0.9743,-0.0014L0.9855,-0.0009L0.9935,-0.0004L0.9984,-0.0001L1,-0"
    />
</svg>
