
<svg 
  class="airfoil-lrn1007"
  fill="none"
  stroke="black" 
  stroke-width="1"
  style="overflow:visible"
  viewBox="0, -0.0953, 1, 0.0953"
  xmlns="http://www.w3.org/2000/svg">
    <title>lrn1007</title>
    <path 
      vector-effect="non-scaling-stroke"
      d="M1,-0L0.9605,-0.0078L0.9205,-0.0162L0.8805,-0.0251L0.8405,-0.0347L0.8005,-0.045L0.7605,-0.0558L0.7205,-0.0668L0.6805,-0.0761L0.6369,-0.0828L0.5897,-0.0884L0.5419,-0.092L0.4938,-0.0943L0.4458,-0.0953L0.3982,-0.0949L0.3515,-0.0933L0.3063,-0.0906L0.2629,-0.0867L0.2218,-0.0817L0.1833,-0.0757L0.1479,-0.0688L0.1157,-0.0611L0.0872,-0.0528L0.0625,-0.044L0.0418,-0.0349L0.0263,-0.0264L0.0129,-0.0169L0.0047,-0.0086L0.0005,-0.0024L0,-0L0.0005,-0L0.0047,-0.001L0.0129,-0.0032L0.0263,-0.0065L0.0418,-0.0092L0.0625,-0.0122L0.0872,-0.015L0.1157,-0.017L0.1479,-0.0186L0.1833,-0.0195L0.2218,-0.0201L0.2629,-0.0205L0.3063,-0.0208L0.3515,-0.0215L0.3982,-0.0222L0.4458,-0.0228L0.4938,-0.0231L0.5419,-0.0235L0.5897,-0.0238L0.637,-0.0235L0.6805,-0.0224L0.7205,-0.0207L0.7605,-0.0184L0.8005,-0.0159L0.8405,-0.0129L0.8805,-0.0097L0.9205,-0.0065L0.9605,-0.0032L1,-0"
    />
</svg>
