
<svg 
  class="airfoil-ls013"
  fill="none"
  stroke="black" 
  stroke-width="1"
  style="overflow:visible"
  viewBox="0, -0.0643, 1, 0.1286"
  xmlns="http://www.w3.org/2000/svg">
    <title>NASA/LANGLEY LS(1)-0013 AIRFOIL</title>
    <path 
      vector-effect="non-scaling-stroke"
      d="M1,-0.003L0.9896,-0.0037L0.9503,-0.0063L0.9002,-0.0117L0.8504,-0.0186L0.8002,-0.0264L0.7502,-0.0343L0.7001,-0.0418L0.6503,-0.0487L0.6004,-0.0545L0.5502,-0.059L0.5002,-0.062L0.4501,-0.0637L0.4,-0.0643L0.3498,-0.0641L0.3006,-0.0631L0.2503,-0.0609L0.1999,-0.0575L0.1501,-0.0525L0.1001,-0.0454L0.0754,-0.0408L0.0626,-0.0379L0.05,-0.0347L0.0374,-0.0308L0.0247,-0.0258L0.0177,-0.0222L0.0126,-0.0189L0.0062,-0.0134L0,-0L0.0062,0.0134L0.0126,0.0189L0.0177,0.0222L0.0247,0.0258L0.0374,0.0308L0.05,0.0347L0.0626,0.0379L0.0754,0.0408L0.1001,0.0454L0.1501,0.0525L0.1999,0.0575L0.2503,0.0609L0.3006,0.0631L0.3498,0.0641L0.4,0.0643L0.4501,0.0637L0.5002,0.062L0.5502,0.059L0.6004,0.0545L0.6503,0.0487L0.7001,0.0418L0.7502,0.0343L0.8002,0.0264L0.8504,0.0186L0.9002,0.0117L0.9503,0.0063L0.9896,0.0037L1,0.003"
    />
</svg>
