
<svg 
  class="airfoil-ls417"
  fill="none"
  stroke="black" 
  stroke-width="1"
  style="overflow:visible"
  viewBox="0, -0.105, 1, 0.17019999"
  xmlns="http://www.w3.org/2000/svg">
    <title>NASA/LANGLEY LS(1)-0417 (GA(W)-1) AIRFOIL</title>
    <path 
      vector-effect="non-scaling-stroke"
      d="M1,0.0007L0.975,-0.006L0.95,-0.0129L0.925,-0.0196L0.9,-0.0264L0.875,-0.0331L0.85,-0.0398L0.825,-0.0464L0.8,-0.0529L0.775,-0.0591L0.75,-0.0652L0.725,-0.071L0.7,-0.0764L0.675,-0.0814L0.65,-0.086L0.625,-0.0901L0.6,-0.0937L0.575,-0.0967L0.55,-0.0992L0.5,-0.1027L0.45,-0.1046L0.4,-0.105L0.35,-0.1041L0.3,-0.1017L0.25,-0.0978L0.2,-0.0921L0.175,-0.0885L0.15,-0.0841L0.125,-0.0791L0.1,-0.0731L0.075,-0.0656L0.05,-0.056L0.0375,-0.0497L0.025,-0.0417L0.0125,-0.0307L0.005,-0.0203L0.002,-0.013L0,-0L0.002,0.0097L0.005,0.0144L0.0125,0.0205L0.025,0.0269L0.0375,0.0319L0.05,0.0357L0.075,0.0421L0.1,0.047L0.125,0.0509L0.15,0.0543L0.175,0.057L0.2,0.0593L0.25,0.0627L0.3,0.0645L0.35,0.0652L0.4,0.0648L0.45,0.0634L0.5,0.0609L0.55,0.0568L0.575,0.054L0.6,0.0506L0.625,0.0468L0.65,0.0426L0.675,0.0383L0.7,0.0338L0.725,0.0293L0.75,0.0246L0.775,0.0203L0.8,0.0159L0.825,0.0119L0.85,0.0085L0.875,0.0057L0.9,0.0035L0.925,0.0025L0.95,0.0026L0.975,0.004L1,0.0078"
    />
</svg>
