
<svg 
  class="airfoil-ls417mod"
  fill="none"
  stroke="black" 
  stroke-width="1"
  style="overflow:visible"
  viewBox="0, -0.1073, 1, 0.171"
  xmlns="http://www.w3.org/2000/svg">
    <title>NASA/LANGLEY LS(1)-0417MOD AIRFOIL</title>
    <path 
      vector-effect="non-scaling-stroke"
      d="M1,-0.0038L0.9759,-0.0103L0.9502,-0.0166L0.9246,-0.0224L0.9024,-0.0274L0.875,-0.0334L0.8502,-0.0387L0.8245,-0.0442L0.803,-0.0487L0.7767,-0.0541L0.7497,-0.0596L0.7262,-0.0642L0.7024,-0.0686L0.6758,-0.0734L0.6496,-0.0777L0.6241,-0.0815L0.6025,-0.0844L0.5741,-0.0879L0.5531,-0.0901L0.5248,-0.0928L0.4998,-0.0949L0.4743,-0.0968L0.4523,-0.0984L0.4261,-0.1001L0.4034,-0.1016L0.3769,-0.1032L0.3502,-0.1047L0.302,-0.1068L0.2746,-0.1073L0.2519,-0.1073L0.2246,-0.1065L0.2014,-0.105L0.1761,-0.1024L0.152,-0.0988L0.1264,-0.0934L0.0999,-0.0859L0.071,-0.0749L0.0508,-0.0646L0.0415,-0.0589L0.0313,-0.0517L0.0209,-0.0427L0.013,-0.0341L0.0074,-0.0264L0.0024,-0.0167L0.0012,-0.0129L0,-0L0.0011,0.0073L0.0025,0.0106L0.0077,0.0168L0.0134,0.021L0.0199,0.0244L0.0318,0.0294L0.0419,0.0329L0.0511,0.0357L0.072,0.041L0.1009,0.0466L0.1253,0.0504L0.1516,0.0537L0.176,0.0563L0.2015,0.0585L0.2249,0.0602L0.2523,0.0617L0.2769,0.0626L0.3018,0.0632L0.3233,0.0636L0.3524,0.0637L0.3743,0.0635L0.4,0.0631L0.4258,0.0624L0.4515,0.0615L0.4732,0.0604L0.5015,0.0587L0.5256,0.0568L0.5522,0.0542L0.5749,0.0516L0.6009,0.0479L0.6239,0.0443L0.6507,0.0398L0.6746,0.0355L0.6991,0.031L0.7242,0.0263L0.7497,0.0215L0.7763,0.0165L0.8012,0.0122L0.8248,0.0084L0.8503,0.0049L0.8744,0.0019L0.9001,-0.0003L0.9242,-0.0015L0.9502,-0.0016L0.9759,-0.0001L1,0.0035"
    />
</svg>
