
<svg 
  class="airfoil-ls413"
  fill="none"
  stroke="black" 
  stroke-width="1"
  style="overflow:visible"
  viewBox="0, -0.0846, 1, 0.1298"
  xmlns="http://www.w3.org/2000/svg">
    <title>NASA/LANGLEY LS(1)-0413 (GA(W)-2) AIRFOIL</title>
    <path 
      vector-effect="non-scaling-stroke"
      d="M1,0.0016L0.975,-0.0048L0.95,-0.011L0.925,-0.0169L0.9,-0.0227L0.875,-0.0284L0.85,-0.034L0.825,-0.0393L0.8,-0.0445L0.775,-0.0495L0.75,-0.0542L0.725,-0.0587L0.7,-0.0629L0.675,-0.0667L0.65,-0.0702L0.625,-0.0733L0.6,-0.0761L0.575,-0.0783L0.55,-0.0802L0.525,-0.0817L0.5,-0.0829L0.475,-0.0838L0.45,-0.0844L0.425,-0.0846L0.4,-0.0846L0.375,-0.0843L0.35,-0.0838L0.325,-0.083L0.3,-0.0818L0.275,-0.0803L0.25,-0.0786L0.225,-0.0765L0.2,-0.074L0.175,-0.071L0.15,-0.0675L0.125,-0.0635L0.1,-0.0586L0.075,-0.0526L0.05,-0.0448L0.0375,-0.0397L0.025,-0.0332L0.0125,-0.0242L0.005,-0.0159L0.002,-0.0104L0,-0L0.002,0.005L0.005,0.0094L0.0125,0.0145L0.025,0.0191L0.0375,0.0223L0.05,0.025L0.075,0.0294L0.1,0.0328L0.125,0.0356L0.15,0.0379L0.175,0.0398L0.2,0.0414L0.225,0.0427L0.25,0.0437L0.275,0.0443L0.3,0.0448L0.325,0.0451L0.35,0.0452L0.375,0.045L0.4,0.0447L0.425,0.0442L0.45,0.0435L0.475,0.0426L0.5,0.0414L0.525,0.0399L0.55,0.0381L0.575,0.0359L0.6,0.0333L0.625,0.0305L0.65,0.0274L0.675,0.0242L0.7,0.021L0.725,0.0177L0.75,0.0144L0.775,0.0113L0.8,0.0083L0.825,0.0057L0.85,0.0035L0.875,0.0018L0.9,0.0008L0.925,0.0006L0.95,0.0013L0.975,0.0034L1,0.0071"
    />
</svg>
