
<svg 
  class="airfoil-ls413mod"
  fill="none"
  stroke="black" 
  stroke-width="1"
  style="overflow:visible"
  viewBox="0, -0.085, 1, 0.1302"
  xmlns="http://www.w3.org/2000/svg">
    <title>NASA/LANGLEY LS(1)-0413MOD AIRFOIL</title>
    <path 
      vector-effect="non-scaling-stroke"
      d="M1,0.0043L0.975,-0.0015L0.95,-0.007L0.925,-0.0123L0.9,-0.0174L0.875,-0.0224L0.85,-0.0273L0.825,-0.0321L0.8,-0.0368L0.775,-0.0414L0.75,-0.0458L0.725,-0.0501L0.7,-0.0542L0.675,-0.0581L0.65,-0.0618L0.625,-0.0653L0.6,-0.0685L0.575,-0.0715L0.55,-0.0742L0.525,-0.0766L0.5,-0.0787L0.475,-0.0805L0.45,-0.082L0.425,-0.0832L0.4,-0.0841L0.375,-0.0847L0.35,-0.085L0.325,-0.0849L0.3,-0.0844L0.275,-0.0835L0.25,-0.0822L0.225,-0.0805L0.2,-0.0783L0.175,-0.0756L0.15,-0.0722L0.125,-0.068L0.1,-0.0629L0.075,-0.0564L0.05,-0.0476L0.0375,-0.0418L0.025,-0.0342L0.0125,-0.0244L0.005,-0.0159L0.002,-0.0104L0,-0L0.002,0.005L0.005,0.0094L0.0125,0.0145L0.025,0.0191L0.0375,0.0228L0.05,0.0255L0.075,0.0299L0.1,0.0333L0.125,0.036L0.15,0.0382L0.175,0.04L0.2,0.0415L0.225,0.0427L0.25,0.0436L0.275,0.0443L0.3,0.0448L0.325,0.0451L0.35,0.0452L0.375,0.045L0.4,0.0447L0.425,0.0442L0.45,0.0435L0.475,0.0426L0.5,0.0415L0.525,0.0401L0.55,0.0385L0.575,0.0366L0.6,0.0344L0.625,0.0319L0.65,0.0291L0.675,0.0262L0.7,0.0232L0.725,0.0202L0.75,0.0172L0.775,0.0142L0.8,0.0112L0.825,0.0084L0.875,0.0039L0.9,0.0026L0.925,0.0021L0.95,0.0028L0.975,0.0051L1,0.0094"
    />
</svg>
