
<svg 
  class="airfoil-ls421mod"
  fill="none"
  stroke="black" 
  stroke-width="1"
  style="overflow:visible"
  viewBox="0, -0.125, 1, 0.20989999"
  xmlns="http://www.w3.org/2000/svg">
    <title>NASA/LANGLEY LS(1)-0421MOD AIRFOIL</title>
    <path 
      vector-effect="non-scaling-stroke"
      d="M1,0.0042L0.975,-0.0025L0.95,-0.0091L0.925,-0.0156L0.9,-0.022L0.875,-0.0284L0.85,-0.0348L0.825,-0.0412L0.8,-0.0476L0.775,-0.0539L0.75,-0.0601L0.725,-0.0662L0.7,-0.0721L0.675,-0.0778L0.65,-0.0833L0.625,-0.0886L0.6,-0.0936L0.575,-0.0983L0.55,-0.1027L0.525,-0.1068L0.5,-0.1106L0.475,-0.114L0.45,-0.117L0.425,-0.1196L0.4,-0.1217L0.375,-0.1233L0.35,-0.1244L0.325,-0.125L0.3,-0.125L0.275,-0.1243L0.25,-0.1229L0.225,-0.1208L0.2,-0.1179L0.175,-0.1141L0.15,-0.1093L0.125,-0.1034L0.1,-0.096L0.075,-0.0865L0.05,-0.0736L0.0375,-0.0651L0.025,-0.054L0.0125,-0.0383L0.005,-0.0243L0.002,-0.0156L0,-0L0.002,0.0107L0.005,0.0177L0.0125,0.0265L0.025,0.0352L0.0375,0.0416L0.05,0.0468L0.075,0.055L0.1,0.0614L0.125,0.0665L0.15,0.0707L0.175,0.0741L0.2,0.077L0.225,0.0794L0.25,0.0813L0.275,0.0828L0.3,0.0839L0.325,0.0846L0.35,0.0849L0.375,0.0849L0.4,0.0846L0.425,0.0839L0.45,0.0828L0.475,0.0813L0.5,0.0794L0.525,0.077L0.55,0.074L0.575,0.0705L0.6,0.0666L0.625,0.0623L0.65,0.0576L0.675,0.0525L0.7,0.0472L0.725,0.0418L0.75,0.0364L0.775,0.031L0.8,0.0256L0.825,0.0206L0.85,0.0159L0.875,0.0118L0.9,0.0086L0.925,0.007L0.95,0.0069L0.975,0.0088L1,0.0132"
    />
</svg>
