
<svg 
  class="airfoil-ls421"
  fill="none"
  stroke="black" 
  stroke-width="1"
  style="overflow:visible"
  viewBox="0, -0.1244, 1, 0.2092"
  xmlns="http://www.w3.org/2000/svg">
    <title>NASA/LANGLEY LS(1)-0421 AIRFOIL</title>
    <path 
      vector-effect="non-scaling-stroke"
      d="M1,-0.0002L0.975,-0.0074L0.95,-0.0148L0.925,-0.0223L0.9,-0.03L0.875,-0.0377L0.85,-0.0455L0.825,-0.0532L0.8,-0.0608L0.775,-0.0681L0.75,-0.0753L0.725,-0.0822L0.7,-0.0887L0.675,-0.0947L0.65,-0.1002L0.625,-0.1053L0.6,-0.1097L0.575,-0.1134L0.55,-0.1166L0.5,-0.1211L0.45,-0.1236L0.4,-0.1244L0.35,-0.1234L0.3,-0.1207L0.25,-0.1162L0.2,-0.1094L0.175,-0.1051L0.15,-0.0999L0.125,-0.0939L0.1,-0.0866L0.075,-0.0777L0.05,-0.0661L0.0375,-0.0585L0.025,-0.0491L0.0125,-0.036L0.005,-0.0238L0.002,-0.0156L0,-0L0.002,0.0107L0.005,0.0178L0.0125,0.0265L0.025,0.0352L0.0375,0.0414L0.05,0.0465L0.075,0.0546L0.1,0.061L0.125,0.0661L0.15,0.0704L0.175,0.0739L0.2,0.0769L0.25,0.0813L0.3,0.0838L0.35,0.0848L0.4,0.0846L0.45,0.0829L0.5,0.0797L0.55,0.0745L0.575,0.071L0.6,0.067L0.625,0.0625L0.65,0.0575L0.675,0.0523L0.7,0.0468L0.725,0.0412L0.75,0.0355L0.775,0.0299L0.8,0.0246L0.825,0.0195L0.85,0.015L0.875,0.0111L0.9,0.0081L0.925,0.006L0.95,0.0052L0.975,0.0059L1,0.0089"
    />
</svg>
