
<svg 
  class="airfoil-lwk79100"
  fill="none"
  stroke="black" 
  stroke-width="1"
  style="overflow:visible"
  viewBox="0, -0.05, 1, 0.1"
  xmlns="http://www.w3.org/2000/svg">
    <title>LWK 79-100</title>
    <path 
      vector-effect="non-scaling-stroke"
      d="M1,-0L0.9989,-0.0001L0.9957,-0.0003L0.9904,-0.0006L0.983,-0.0011L0.9735,-0.0018L0.9619,-0.0025L0.9484,-0.0034L0.933,-0.0044L0.9157,-0.0055L0.8967,-0.0067L0.8759,-0.008L0.8536,-0.0094L0.8297,-0.0109L0.8044,-0.0126L0.7778,-0.0145L0.75,-0.0166L0.7211,-0.0191L0.6913,-0.0217L0.6607,-0.0246L0.6294,-0.0278L0.5975,-0.0311L0.5653,-0.0344L0.5327,-0.0376L0.5,-0.0405L0.4673,-0.0431L0.4347,-0.0452L0.4024,-0.047L0.3706,-0.0483L0.3393,-0.0493L0.3087,-0.0499L0.2789,-0.05L0.25,-0.0496L0.2222,-0.0489L0.1956,-0.0478L0.1703,-0.0463L0.1464,-0.0445L0.1241,-0.0422L0.1033,-0.0397L0.0843,-0.0367L0.067,-0.0335L0.0516,-0.0299L0.0381,-0.0261L0.0265,-0.022L0.017,-0.0178L0.0096,-0.0134L0.0043,-0.0088L0.0011,-0.0043L0,-0L0.0011,0.0043L0.0043,0.0088L0.0096,0.0134L0.017,0.0178L0.0265,0.022L0.0381,0.0261L0.0516,0.0299L0.067,0.0335L0.0843,0.0367L0.1033,0.0397L0.1241,0.0422L0.1464,0.0445L0.1703,0.0463L0.1956,0.0478L0.2222,0.0489L0.25,0.0496L0.2789,0.05L0.3087,0.0499L0.3393,0.0493L0.3706,0.0483L0.4024,0.047L0.4347,0.0452L0.4673,0.0431L0.5,0.0405L0.5327,0.0376L0.5653,0.0344L0.5975,0.0311L0.6294,0.0278L0.6607,0.0246L0.6913,0.0217L0.7211,0.0191L0.75,0.0166L0.7778,0.0145L0.8044,0.0126L0.8297,0.0109L0.8536,0.0094L0.8759,0.008L0.8967,0.0067L0.9157,0.0055L0.933,0.0044L0.9484,0.0034L0.9619,0.0025L0.9735,0.0018L0.983,0.0011L0.9904,0.0006L0.9957,0.0003L0.9989,0.0001L1,-0"
    />
</svg>
