
<svg 
  class="airfoil-lwk80120k25"
  fill="none"
  stroke="black" 
  stroke-width="1"
  style="overflow:visible"
  viewBox="0, -0.0603, 1, 0.1206"
  xmlns="http://www.w3.org/2000/svg">
    <title>LWK 80-120/K25</title>
    <path 
      vector-effect="non-scaling-stroke"
      d="M1,-0L0.9989,-0.0008L0.9957,-0.0011L0.9904,-0.0017L0.983,-0.0024L0.9735,-0.0033L0.9619,-0.0044L0.9484,-0.0057L0.933,-0.0073L0.9157,-0.0093L0.8967,-0.0116L0.8759,-0.0144L0.8536,-0.0176L0.8297,-0.0212L0.8044,-0.0252L0.7778,-0.0296L0.75,-0.0341L0.7211,-0.0386L0.6913,-0.0429L0.6607,-0.0469L0.6294,-0.0504L0.5975,-0.0534L0.5653,-0.0558L0.5327,-0.0576L0.5,-0.0589L0.4673,-0.0598L0.4347,-0.0602L0.4024,-0.0603L0.3706,-0.06L0.3393,-0.0594L0.3087,-0.0585L0.2789,-0.0573L0.25,-0.0557L0.2222,-0.0539L0.1956,-0.0518L0.1703,-0.0494L0.1464,-0.0468L0.1241,-0.044L0.1033,-0.041L0.0843,-0.0377L0.067,-0.0343L0.0516,-0.0306L0.0381,-0.0268L0.0265,-0.0226L0.017,-0.0182L0.0096,-0.0137L0.0043,-0.009L0.0011,-0.0045L0,-0L0.0011,0.0045L0.0043,0.009L0.0096,0.0137L0.017,0.0182L0.0265,0.0226L0.0381,0.0268L0.0516,0.0306L0.067,0.0343L0.0843,0.0377L0.1033,0.041L0.1241,0.044L0.1464,0.0468L0.1703,0.0494L0.1956,0.0518L0.2222,0.0539L0.25,0.0557L0.2789,0.0573L0.3087,0.0585L0.3393,0.0594L0.3706,0.06L0.4024,0.0603L0.4347,0.0602L0.4673,0.0598L0.5,0.0589L0.5327,0.0576L0.5653,0.0558L0.5975,0.0534L0.6294,0.0504L0.6607,0.0469L0.6913,0.0429L0.7211,0.0386L0.75,0.0341L0.7778,0.0296L0.8044,0.0252L0.8297,0.0212L0.8536,0.0176L0.8759,0.0144L0.8967,0.0116L0.9157,0.0093L0.933,0.0073L0.9484,0.0057L0.9619,0.0044L0.9735,0.0033L0.983,0.0024L0.9904,0.0017L0.9957,0.0011L0.9989,0.0008L1,-0"
    />
</svg>
