
<svg 
  class="airfoil-lwk80100"
  fill="none"
  stroke="black" 
  stroke-width="1"
  style="overflow:visible"
  viewBox="0, -0.0503, 1, 0.1006"
  xmlns="http://www.w3.org/2000/svg">
    <title>LWK 80-100</title>
    <path 
      vector-effect="non-scaling-stroke"
      d="M1,-0L0.9989,-0.0008L0.9957,-0.0011L0.9904,-0.0016L0.983,-0.0022L0.9735,-0.003L0.9619,-0.0039L0.9484,-0.005L0.933,-0.0064L0.9157,-0.008L0.8967,-0.01L0.8759,-0.0123L0.8536,-0.0149L0.8297,-0.0179L0.8044,-0.0213L0.7778,-0.0249L0.75,-0.0287L0.7211,-0.0324L0.6913,-0.036L0.6607,-0.0393L0.6294,-0.0422L0.5975,-0.0447L0.5653,-0.0466L0.5327,-0.0481L0.5,-0.0492L0.4673,-0.0499L0.4347,-0.0503L0.4024,-0.0503L0.3706,-0.0501L0.3393,-0.0496L0.3087,-0.0488L0.2789,-0.0477L0.25,-0.0465L0.2222,-0.0449L0.1956,-0.0432L0.1703,-0.0412L0.1464,-0.039L0.1241,-0.0367L0.1033,-0.0342L0.0843,-0.0314L0.067,-0.0286L0.0516,-0.0255L0.0381,-0.0223L0.0265,-0.0188L0.017,-0.0152L0.0096,-0.0114L0.0043,-0.0075L0.0011,-0.0037L0,-0L0.0011,0.0037L0.0043,0.0075L0.0096,0.0114L0.017,0.0152L0.0265,0.0189L0.0381,0.0223L0.0516,0.0255L0.067,0.0286L0.0843,0.0314L0.1033,0.0342L0.1241,0.0367L0.1464,0.039L0.1703,0.0412L0.1956,0.0432L0.2222,0.0449L0.25,0.0465L0.2789,0.0477L0.3087,0.0488L0.3393,0.0496L0.3706,0.0501L0.4024,0.0503L0.4347,0.0503L0.4673,0.0499L0.5,0.0492L0.5327,0.0481L0.5653,0.0466L0.5975,0.0447L0.6294,0.0422L0.6607,0.0393L0.6913,0.036L0.7211,0.0324L0.75,0.0287L0.7778,0.0249L0.8044,0.0213L0.8297,0.0179L0.8536,0.0149L0.8759,0.0123L0.8967,0.01L0.9157,0.008L0.933,0.0064L0.9484,0.005L0.9619,0.0039L0.9735,0.003L0.983,0.0022L0.9904,0.0016L0.9957,0.0011L0.9989,0.0008L1,-0"
    />
</svg>
