
<svg 
  class="airfoil-lwk80080"
  fill="none"
  stroke="black" 
  stroke-width="1"
  style="overflow:visible"
  viewBox="0, -0.0403, 1, 0.0806"
  xmlns="http://www.w3.org/2000/svg">
    <title>LWK 80-080</title>
    <path 
      vector-effect="non-scaling-stroke"
      d="M1,-0L0.9989,-0.0008L0.9957,-0.0011L0.9904,-0.0016L0.983,-0.0021L0.9735,-0.0027L0.9619,-0.0035L0.9484,-0.0044L0.933,-0.0055L0.9157,-0.0069L0.8967,-0.0084L0.8759,-0.0103L0.8536,-0.0124L0.8297,-0.0148L0.8044,-0.0174L0.7778,-0.0203L0.75,-0.0233L0.7211,-0.0262L0.6913,-0.0291L0.6607,-0.0317L0.6294,-0.034L0.5975,-0.0359L0.5653,-0.0375L0.5327,-0.0386L0.5,-0.0395L0.4673,-0.04L0.4347,-0.0403L0.4024,-0.0403L0.3706,-0.0401L0.3393,-0.0397L0.3087,-0.0391L0.2789,-0.0382L0.25,-0.0372L0.2222,-0.0359L0.1956,-0.0345L0.1703,-0.033L0.1464,-0.0312L0.1241,-0.0293L0.1033,-0.0273L0.0843,-0.0251L0.067,-0.0228L0.0516,-0.0204L0.0381,-0.0178L0.0265,-0.0151L0.017,-0.0121L0.0096,-0.0091L0.0043,-0.006L0.0011,-0.003L0,-0L0.0011,0.003L0.0043,0.006L0.0096,0.0091L0.017,0.0121L0.0265,0.0151L0.0381,0.0178L0.0516,0.0204L0.067,0.0228L0.0843,0.0251L0.1033,0.0273L0.1241,0.0293L0.1464,0.0312L0.1703,0.033L0.1956,0.0345L0.2222,0.0359L0.25,0.0372L0.2789,0.0382L0.3087,0.0391L0.3393,0.0397L0.3706,0.0401L0.4024,0.0403L0.4347,0.0403L0.4673,0.04L0.5,0.0395L0.5327,0.0386L0.5653,0.0375L0.5975,0.0359L0.6294,0.034L0.6607,0.0317L0.6913,0.0291L0.7211,0.0262L0.75,0.0233L0.7778,0.0203L0.8044,0.0174L0.8297,0.0148L0.8536,0.0124L0.8759,0.0103L0.8967,0.0084L0.9157,0.0069L0.933,0.0055L0.9484,0.0044L0.9619,0.0035L0.9735,0.0027L0.983,0.0021L0.9904,0.0016L0.9957,0.0011L0.9989,0.0008L1,-0"
    />
</svg>
