
<svg 
  class="airfoil-lwk80150k25"
  fill="none"
  stroke="black" 
  stroke-width="1"
  style="overflow:visible"
  viewBox="0, -0.0752, 1, 0.1504"
  xmlns="http://www.w3.org/2000/svg">
    <title>LWK 80-150/K25</title>
    <path 
      vector-effect="non-scaling-stroke"
      d="M1,-0L0.9989,-0.001L0.9957,-0.0014L0.9904,-0.0018L0.983,-0.0023L0.9735,-0.0032L0.9619,-0.0043L0.9484,-0.0058L0.933,-0.0077L0.9157,-0.0101L0.8967,-0.013L0.8759,-0.0164L0.8536,-0.0205L0.8297,-0.0251L0.8044,-0.0303L0.7778,-0.0358L0.75,-0.0416L0.7211,-0.0473L0.6913,-0.0529L0.6607,-0.058L0.6294,-0.0625L0.5975,-0.0663L0.5653,-0.0694L0.5327,-0.0717L0.5,-0.0734L0.4673,-0.0745L0.4347,-0.0751L0.4024,-0.0752L0.3706,-0.0749L0.3393,-0.0741L0.3087,-0.0729L0.2789,-0.0714L0.25,-0.0694L0.2222,-0.0671L0.1956,-0.0645L0.1703,-0.0616L0.1464,-0.0583L0.1241,-0.0548L0.1033,-0.051L0.0843,-0.047L0.067,-0.0427L0.0516,-0.0381L0.0381,-0.0333L0.0265,-0.0283L0.017,-0.0231L0.0096,-0.0178L0.0043,-0.0122L0.0011,-0.0063L0,-0L0.0011,0.0063L0.0043,0.0122L0.0096,0.0178L0.017,0.0231L0.0265,0.0283L0.0381,0.0333L0.0516,0.0381L0.067,0.0427L0.0843,0.047L0.1033,0.051L0.1241,0.0548L0.1464,0.0583L0.1703,0.0616L0.1956,0.0645L0.2222,0.0671L0.25,0.0694L0.2789,0.0714L0.3087,0.0729L0.3393,0.0741L0.3706,0.0749L0.4024,0.0752L0.4347,0.0751L0.4673,0.0745L0.5,0.0734L0.5327,0.0717L0.5653,0.0694L0.5975,0.0663L0.6294,0.0625L0.6607,0.058L0.6913,0.0529L0.7211,0.0473L0.75,0.0416L0.7778,0.0358L0.8044,0.0303L0.8297,0.0251L0.8536,0.0205L0.8759,0.0164L0.8967,0.013L0.9157,0.0101L0.933,0.0077L0.9484,0.0058L0.9619,0.0043L0.9735,0.0032L0.983,0.0023L0.9904,0.0018L0.9957,0.0014L0.9989,0.001L1,-0"
    />
</svg>
