
<svg 
  class="airfoil-m1"
  fill="none"
  stroke="black" 
  stroke-width="1"
  style="overflow:visible"
  viewBox="0, -0.0308, 1, 0.0616"
  xmlns="http://www.w3.org/2000/svg">
    <title>NACA-M1 AIRFOIL</title>
    <path 
      vector-effect="non-scaling-stroke"
      d="M1,-0.002L0.95,-0.0057L0.9,-0.0091L0.8,-0.0154L0.7,-0.0208L0.6,-0.0253L0.5,-0.0285L0.4,-0.0305L0.3,-0.0308L0.2,-0.0288L0.15,-0.0267L0.1,-0.0234L0.075,-0.021L0.05,-0.018L0.025,-0.0136L0.0125,-0.0103L0,-0L0.0125,0.0103L0.025,0.0136L0.05,0.018L0.075,0.021L0.1,0.0234L0.15,0.0267L0.2,0.0288L0.3,0.0308L0.4,0.0305L0.5,0.0285L0.6,0.0253L0.7,0.0208L0.8,0.0154L0.9,0.0091L0.95,0.0057L1,0.002"
    />
</svg>
