
<svg 
  class="airfoil-m10"
  fill="none"
  stroke="black" 
  stroke-width="1"
  style="overflow:visible"
  viewBox="0, -0.05, 1, 0.0632"
  xmlns="http://www.w3.org/2000/svg">
    <title>NACA M10 AIRFOIL</title>
    <path 
      vector-effect="non-scaling-stroke"
      d="M1,-0.0019L0.95,-0.0069L0.9,-0.0116L0.8,-0.021L0.7,-0.0302L0.6,-0.0386L0.4999,-0.0454L0.3999,-0.0496L0.2999,-0.05L0.1999,-0.0455L0.1499,-0.0408L0.1,-0.0338L0.075,-0.0291L0.05,-0.0235L0.025,-0.0163L0.0125,-0.0115L0,-0L0.0125,0.0093L0.025,0.0115L0.05,0.0129L0.075,0.0132L0.1,0.0132L0.15,0.0128L0.2,0.0124L0.3,0.0119L0.4,0.012L0.5,0.0125L0.6,0.0126L0.7,0.0117L0.8,0.0098L0.9,0.0066L0.95,0.0044L1,0.0019"
    />
</svg>
