
<svg 
  class="airfoil-m11"
  fill="none"
  stroke="black" 
  stroke-width="1"
  style="overflow:visible"
  viewBox="0, -0.0595, 1, 0.0816"
  xmlns="http://www.w3.org/2000/svg">
    <title>NACA M11 AIRFOIL</title>
    <path 
      vector-effect="non-scaling-stroke"
      d="M1,-0L0.95,-0.0059L0.9,-0.0121L0.8,-0.0239L0.7,-0.0352L0.6,-0.0454L0.5,-0.0535L0.4,-0.0587L0.3,-0.0595L0.2,-0.0548L0.15,-0.0494L0.1,-0.0415L0.075,-0.0363L0.05,-0.0298L0.025,-0.021L0.0125,-0.0146L0,-0L0.0125,0.012L0.025,0.0147L0.05,0.0175L0.075,0.0192L0.1,0.0201L0.15,0.0209L0.2,0.0214L0.3,0.022L0.4,0.0221L0.5,0.0219L0.6,0.0208L0.7,0.0185L0.8,0.0147L0.9,0.0093L0.95,0.0063L1,-0"
    />
</svg>
