
<svg 
  class="airfoil-m12"
  fill="none"
  stroke="black" 
  stroke-width="1"
  style="overflow:visible"
  viewBox="0, -0.0801, 1, 0.1193"
  xmlns="http://www.w3.org/2000/svg">
    <title>NACA M12 AIRFOIL</title>
    <path 
      vector-effect="non-scaling-stroke"
      d="M1,-0.004L0.95,-0.0126L0.9,-0.0207L0.8,-0.0366L0.7,-0.0512L0.6,-0.0639L0.5,-0.0735L0.4,-0.0794L0.3,-0.0801L0.2,-0.0734L0.15,-0.0666L0.1,-0.0561L0.075,-0.049L0.05,-0.0403L0.025,-0.0287L0.0125,-0.0203L0,-0L0.0125,0.0165L0.025,0.0214L0.05,0.0271L0.075,0.0305L0.1,0.0329L0.15,0.0357L0.2,0.0376L0.3,0.0392L0.4,0.0388L0.5,0.0372L0.6,0.0338L0.7,0.0286L0.8,0.0215L0.9,0.0119L0.95,0.0062L1,-0"
    />
</svg>
