
<svg 
  class="airfoil-m13"
  fill="none"
  stroke="black" 
  stroke-width="1"
  style="overflow:visible"
  viewBox="0, -0.0701, 1, 0.078200005"
  xmlns="http://www.w3.org/2000/svg">
    <title>NACA M13 AIRFOIL</title>
    <path 
      vector-effect="non-scaling-stroke"
      d="M1,-0.0044L0.95,-0.0106L0.9,-0.0164L0.8,-0.0292L0.7,-0.0419L0.6,-0.0538L0.5,-0.0636L0.4,-0.0694L0.3,-0.0701L0.2,-0.0628L0.15,-0.0554L0.1,-0.0447L0.075,-0.0379L0.05,-0.0296L0.025,-0.0194L0.0125,-0.0128L0,-0L0.0125,0.0081L0.025,0.0081L0.05,0.0079L0.075,0.0044L0.1,0.0022L0.15,-0.0019L0.2,-0.0051L0.3,-0.008L0.4,-0.0077L0.5,-0.0055L0.6,-0.0023L0.7,0.0006L0.8,0.0023L0.9,0.0023L0.95,0.0014L1,-0"
    />
</svg>
