
<svg 
  class="airfoil-m14"
  fill="none"
  stroke="black" 
  stroke-width="1"
  style="overflow:visible"
  viewBox="0, -0.08, 1, 0.092099994"
  xmlns="http://www.w3.org/2000/svg">
    <title>NACA M14 AIRFOIL</title>
    <path 
      vector-effect="non-scaling-stroke"
      d="M1,-0.0042L0.95,-0.012L0.9,-0.0195L0.8,-0.0346L0.7,-0.0491L0.6,-0.0625L0.5,-0.0732L0.4,-0.0797L0.3,-0.08L0.2,-0.0721L0.15,-0.0636L0.1,-0.0518L0.075,-0.0442L0.05,-0.0347L0.025,-0.023L0.0125,-0.0153L0,-0L0.0125,0.0111L0.025,0.0121L0.05,0.012L0.075,0.0108L0.1,0.0094L0.15,0.0063L0.2,0.0036L0.3,0.0006L0.4,0.0009L0.5,0.0025L0.6,0.0044L0.7,0.0059L0.8,0.0055L0.9,0.0042L0.95,0.0025L1,-0"
    />
</svg>
