
<svg 
  class="airfoil-m15"
  fill="none"
  stroke="black" 
  stroke-width="1"
  style="overflow:visible"
  viewBox="0, -0.0983, 1, 0.1221"
  xmlns="http://www.w3.org/2000/svg">
    <title>NACA M15 AIRFOIL</title>
    <path 
      vector-effect="non-scaling-stroke"
      d="M1,-0.0022L0.95,-0.0117L0.9,-0.0214L0.7999,-0.0408L0.6999,-0.0592L0.5998,-0.076L0.4998,-0.0899L0.3998,-0.0972L0.2998,-0.0983L0.1998,-0.0892L0.1498,-0.0796L0.0998,-0.0658L0.0749,-0.0565L0.0499,-0.0449L0.0249,-0.0304L0.0125,-0.0206L0,-0L0.0125,0.0163L0.025,0.0198L0.0501,0.0227L0.0751,0.0237L0.1001,0.0238L0.1501,0.0234L0.2001,0.0227L0.3,0.0217L0.4001,0.022L0.5001,0.0226L0.6001,0.0226L0.7,0.021L0.8,0.018L0.9,0.0117L0.95,0.0074L1,0.0022"
    />
</svg>
