
<svg 
  class="airfoil-m16"
  fill="none"
  stroke="black" 
  stroke-width="1"
  style="overflow:visible"
  viewBox="0, -0.0719, 1, 0.08050001"
  xmlns="http://www.w3.org/2000/svg">
    <title>NACA M16 AIRFOIL</title>
    <path 
      vector-effect="non-scaling-stroke"
      d="M1,-0.0028L0.95,-0.0061L0.9,-0.0109L0.8,-0.0227L0.7,-0.0362L0.6,-0.0497L0.5,-0.062L0.4,-0.07L0.3,-0.0719L0.2,-0.065L0.15,-0.0572L0.1,-0.0459L0.075,-0.0386L0.05,-0.0298L0.025,-0.0188L0.0125,-0.0121L0,-0L0.0125,0.0081L0.025,0.0082L0.05,0.0058L0.075,0.0032L0.1,0.0005L0.15,-0.004L0.2,-0.0075L0.3,-0.0104L0.4,-0.0086L0.5,-0.0044L0.6,0.0014L0.7,0.006L0.8,0.0086L0.9,0.0074L0.95,0.0053L1,0.0028"
    />
</svg>
