
<svg 
  class="airfoil-m17"
  fill="none"
  stroke="black" 
  stroke-width="1"
  style="overflow:visible"
  viewBox="0, -0.0815, 1, 0.094500005"
  xmlns="http://www.w3.org/2000/svg">
    <title>NACA M17 AIRFOIL</title>
    <path 
      vector-effect="non-scaling-stroke"
      d="M1,-0.0021L0.95,-0.0071L0.9,-0.013L0.8001,-0.0269L0.7001,-0.0425L0.6001,-0.0577L0.5002,-0.0711L0.4002,-0.0799L0.3002,-0.0815L0.2001,-0.0732L0.1501,-0.0651L0.1001,-0.0536L0.0751,-0.0457L0.0501,-0.0358L0.025,-0.0235L0.0125,-0.0156L0,-0L0.0125,0.0104L0.025,0.0115L0.05,0.011L0.075,0.0094L0.1,0.0075L0.15,0.0041L0.2,0.0014L0.3,-0.0008L0.4,0.0009L0.5,0.0046L0.6,0.0096L0.7,0.0123L0.8,0.013L0.9,0.0101L0.95,0.0068L1,0.0021"
    />
</svg>
