
<svg 
  class="airfoil-m18"
  fill="none"
  stroke="black" 
  stroke-width="1"
  style="overflow:visible"
  viewBox="0, -0.1019, 1, 0.1256"
  xmlns="http://www.w3.org/2000/svg">
    <title>NACA M18 AIRFOIL</title>
    <path 
      vector-effect="non-scaling-stroke"
      d="M1,-0.0044L0.95,-0.0117L0.9,-0.0197L0.8,-0.0378L0.7,-0.0567L0.6,-0.0743L0.5,-0.0897L0.4,-0.0994L0.3,-0.1019L0.2,-0.0922L0.15,-0.0822L0.1,-0.0671L0.075,-0.0577L0.05,-0.0456L0.025,-0.0304L0.0125,-0.0205L0,-0L0.0125,0.0164L0.025,0.0196L0.05,0.0218L0.075,0.0222L0.1,0.022L0.15,0.0208L0.2,0.0195L0.3,0.0183L0.4,0.0191L0.5,0.0216L0.6,0.0236L0.7,0.0237L0.8,0.0205L0.9,0.0131L0.95,0.0074L1,-0"
    />
</svg>
