
<svg 
  class="airfoil-m19"
  fill="none"
  stroke="black" 
  stroke-width="1"
  style="overflow:visible"
  viewBox="0, -0.0912, 1, 0.098400004"
  xmlns="http://www.w3.org/2000/svg">
    <title>NACA M19 AIRFOIL</title>
    <path 
      vector-effect="non-scaling-stroke"
      d="M1,-0.0019L0.95,-0.0071L0.9,-0.0133L0.7999,-0.028L0.6999,-0.0457L0.5998,-0.0633L0.4998,-0.0786L0.3998,-0.0888L0.2998,-0.0912L0.1998,-0.0818L0.1498,-0.0709L0.0999,-0.0566L0.0749,-0.0466L0.0499,-0.0356L0.0249,-0.0214L0.0125,-0.0129L0,-0L0.0125,0.0072L0.025,0.0054L0.05,0.0006L0.075,-0.0048L0.1,-0.0098L0.15,-0.0182L0.1999,-0.0242L0.2999,-0.0295L0.3999,-0.0277L0.4999,-0.0211L0.6,-0.0123L0.7,-0.0037L0.8,0.0027L0.9,0.0052L0.95,0.0043L1,0.0019"
    />
</svg>
