
<svg 
  class="airfoil-m2"
  fill="none"
  stroke="black" 
  stroke-width="1"
  style="overflow:visible"
  viewBox="0, -0.04, 1, 0.08"
  xmlns="http://www.w3.org/2000/svg">
    <title>NACA M2 AIRFOIL</title>
    <path 
      vector-effect="non-scaling-stroke"
      d="M1,-0.002L0.95,-0.006L0.9,-0.0115L0.8,-0.0199L0.7,-0.0271L0.6,-0.033L0.5,-0.0374L0.4,-0.04L0.3,-0.04L0.25,-0.0378L0.2,-0.0349L0.15,-0.0318L0.1,-0.0284L0.05,-0.0233L0.025,-0.0174L0.0125,-0.013L0,-0L0.0125,0.013L0.025,0.0174L0.05,0.0233L0.1,0.0284L0.15,0.0318L0.2,0.0349L0.25,0.0378L0.3,0.04L0.4,0.04L0.5,0.0374L0.6,0.033L0.7,0.0271L0.8,0.0199L0.9,0.0115L0.95,0.006L1,0.002"
    />
</svg>
