
<svg 
  class="airfoil-m20"
  fill="none"
  stroke="black" 
  stroke-width="1"
  style="overflow:visible"
  viewBox="0, -0.1021, 1, 0.1119"
  xmlns="http://www.w3.org/2000/svg">
    <title>NACA M20 AIRFOIL</title>
    <path 
      vector-effect="non-scaling-stroke"
      d="M1,-0.0047L0.95,-0.0106L0.9,-0.0178L0.8,-0.035L0.7,-0.054L0.6,-0.073L0.5,-0.0892L0.4,-0.0999L0.3,-0.1021L0.2,-0.0914L0.15,-0.0803L0.1,-0.0647L0.075,-0.0537L0.05,-0.0417L0.025,-0.026L0.0125,-0.017L0,-0L0.0125,0.0098L0.025,0.0094L0.05,0.0057L0.075,0.0013L0.1,-0.0031L0.15,-0.0103L0.2,-0.0156L0.3,-0.0206L0.4,-0.019L0.5,-0.0133L0.6,-0.0058L0.7,0.0012L0.8,0.0055L0.9,0.0056L0.95,0.0036L1,-0"
    />
</svg>
