
<svg 
  class="airfoil-m21"
  fill="none"
  stroke="black" 
  stroke-width="1"
  style="overflow:visible"
  viewBox="0, -0.1202, 1, 0.1388"
  xmlns="http://www.w3.org/2000/svg">
    <title>NACA M21 AIRFOIL</title>
    <path 
      vector-effect="non-scaling-stroke"
      d="M1,-0.0024L0.95,-0.0105L0.9,-0.0202L0.8,-0.0421L0.7,-0.0649L0.6,-0.0868L0.5,-0.1055L0.4,-0.1178L0.3,-0.1202L0.2,-0.109L0.15,-0.0965L0.1,-0.0782L0.075,-0.0662L0.05,-0.0518L0.025,-0.0336L0.0125,-0.0221L0,-0L0.0125,0.0151L0.025,0.0186L0.05,0.0185L0.075,0.015L0.1,0.0113L0.15,0.0065L0.2,0.0026L0.3,-0.0007L0.4,0.0011L0.5,0.0057L0.6,0.0114L0.7,0.0156L0.8,0.0165L0.9,0.0127L0.95,0.0087L1,0.0024"
    />
</svg>
