
<svg 
  class="airfoil-m22"
  fill="none"
  stroke="black" 
  stroke-width="1"
  style="overflow:visible"
  viewBox="0, -0.0943, 1, 0.1039"
  xmlns="http://www.w3.org/2000/svg">
    <title>NACA M22 AIRFOIL</title>
    <path 
      vector-effect="non-scaling-stroke"
      d="M1,-0.0026L0.95,-0.0049L0.9,-0.0095L0.8001,-0.0237L0.7001,-0.0419L0.6002,-0.0614L0.5003,-0.0786L0.4003,-0.0909L0.3003,-0.0943L0.2003,-0.0852L0.1503,-0.0745L0.1002,-0.0591L0.0752,-0.0485L0.0501,-0.0371L0.0251,-0.0225L0.0126,-0.0139L0,-0L0.0125,0.007L0.025,0.0051L0.05,-0.0005L0.075,-0.0063L0.1,-0.0117L0.1501,-0.0207L0.2001,-0.0269L0.3001,-0.0318L0.4001,-0.0288L0.5001,-0.0199L0.6,-0.0093L0.7,0.0011L0.8,0.0083L0.9,0.0096L0.95,0.0071L1,0.0026"
    />
</svg>
