
<svg 
  class="airfoil-m23"
  fill="none"
  stroke="black" 
  stroke-width="1"
  style="overflow:visible"
  viewBox="0, -0.1045, 1, 0.117000006"
  xmlns="http://www.w3.org/2000/svg">
    <title>NACA M23 AIRFOIL</title>
    <path 
      vector-effect="non-scaling-stroke"
      d="M1,-0.0027L0.95,-0.0062L0.9001,-0.0119L0.8001,-0.028L0.7003,-0.0485L0.6004,-0.0696L0.5005,-0.0882L0.4005,-0.1011L0.3005,-0.1045L0.2005,-0.0947L0.1504,-0.0833L0.1003,-0.0668L0.0753,-0.056L0.0502,-0.0433L0.0251,-0.0275L0.0126,-0.0172L0,-0L0.0125,0.0087L0.025,0.0076L0.05,0.0036L0.075,-0.001L0.1,-0.0057L0.1501,-0.0135L0.2001,-0.0189L0.3001,-0.0231L0.4001,-0.0198L0.5001,-0.0117L0.6,-0.0022L0.7,0.007L0.7999,0.0125L0.8999,0.0117L0.95,0.0082L1,0.0027"
    />
</svg>
