
<svg 
  class="airfoil-m24"
  fill="none"
  stroke="black" 
  stroke-width="1"
  style="overflow:visible"
  viewBox="0, -0.1232, 1, 0.1447"
  xmlns="http://www.w3.org/2000/svg">
    <title>NACA M24 AIRFOIL</title>
    <path 
      vector-effect="non-scaling-stroke"
      d="M1,-0.0023L0.9501,-0.0077L0.9001,-0.0157L0.8003,-0.0363L0.7005,-0.06L0.6007,-0.0837L0.5009,-0.1047L0.401,-0.1191L0.3011,-0.1232L0.201,-0.1126L0.1509,-0.0996L0.1007,-0.0807L0.0756,-0.0681L0.0505,-0.0538L0.0253,-0.0348L0.0127,-0.0229L0,-0L0.0124,0.0139L0.0249,0.0151L0.0499,0.0141L0.0749,0.0116L0.0999,0.0087L0.15,0.0032L0.2,-0.001L0.3,-0.0037L0.4,-0.0007L0.4999,0.006L0.5999,0.0138L0.6998,0.0198L0.7998,0.0215L0.8999,0.0165L0.9499,0.0106L1,0.0023"
    />
</svg>
