
<svg 
  class="airfoil-m25"
  fill="none"
  stroke="black" 
  stroke-width="1"
  style="overflow:visible"
  viewBox="0, -0.1137, 1, 0.1207"
  xmlns="http://www.w3.org/2000/svg">
    <title>NACA M25 AIRFOIL</title>
    <path 
      vector-effect="non-scaling-stroke"
      d="M1,-0.0022L0.95,-0.0061L0.9,-0.012L0.8,-0.0296L0.7,-0.0516L0.6,-0.0747L0.5,-0.0953L0.4,-0.11L0.3,-0.1137L0.2,-0.1021L0.15,-0.0884L0.1,-0.0693L0.075,-0.0572L0.05,-0.0437L0.025,-0.0257L0.0125,-0.0161L0,-0L0.0125,0.0058L0.025,0.0022L0.05,-0.0061L0.075,-0.0148L0.1,-0.0224L0.15,-0.0347L0.2,-0.0436L0.3,-0.051L0.4,-0.0476L0.5,-0.0367L0.6,-0.0227L0.7,-0.0084L0.8,0.0023L0.9,0.007L0.95,0.0059L1,0.0022"
    />
</svg>
