
<svg 
  class="airfoil-m26"
  fill="none"
  stroke="black" 
  stroke-width="1"
  style="overflow:visible"
  viewBox="0, -0.1233, 1, 0.1326"
  xmlns="http://www.w3.org/2000/svg">
    <title>NACA M26 AIRFOIL</title>
    <path 
      vector-effect="non-scaling-stroke"
      d="M1,-0.0024L0.95,-0.0071L0.9,-0.014L0.8001,-0.0339L0.7001,-0.0576L0.6001,-0.0821L0.5002,-0.1043L0.4002,-0.1214L0.3002,-0.1233L0.2002,-0.1102L0.1501,-0.0963L0.1001,-0.0758L0.0751,-0.0628L0.0501,-0.0483L0.025,-0.0289L0.0125,-0.0178L0,-0L0.0125,0.008L0.025,0.0057L0.05,-0.0011L0.075,-0.0085L0.1,-0.0156L0.15,-0.027L0.2,-0.035L0.3001,-0.0418L0.4001,-0.0384L0.5,-0.0284L0.6,-0.0154L0.7,-0.0027L0.8,0.0064L0.9,0.0093L0.95,0.0069L1,0.0024"
    />
</svg>
