
<svg 
  class="airfoil-m27"
  fill="none"
  stroke="black" 
  stroke-width="1"
  style="overflow:visible"
  viewBox="0, -0.1434, 1, 0.1585"
  xmlns="http://www.w3.org/2000/svg">
    <title>NACA M27 AIRFOIL</title>
    <path 
      vector-effect="non-scaling-stroke"
      d="M1,-0.0026L0.95,-0.0101L0.9001,-0.0195L0.8002,-0.0437L0.7003,-0.0713L0.6004,-0.0988L0.5005,-0.1229L0.4006,-0.1394L0.3006,-0.1434L0.2006,-0.1297L0.1505,-0.1143L0.1004,-0.0921L0.0753,-0.0775L0.0503,-0.0599L0.0252,-0.0383L0.0126,-0.0245L0,-0L0.0125,0.0119L0.0249,0.0118L0.05,0.008L0.075,0.0025L0.1,-0.0029L0.15,-0.0119L0.2001,-0.0186L0.3001,-0.0239L0.4001,-0.0206L0.5001,-0.0115L0.6,-0.0005L0.7,0.0093L0.7999,0.0151L0.8999,0.0138L0.95,0.0095L1,0.0026"
    />
</svg>
