
<svg 
  class="airfoil-m3"
  fill="none"
  stroke="black" 
  stroke-width="1"
  style="overflow:visible"
  viewBox="0, -0.0595, 1, 0.119"
  xmlns="http://www.w3.org/2000/svg">
    <title>NACA M3 AIRFOIL</title>
    <path 
      vector-effect="non-scaling-stroke"
      d="M1,-0.002L0.95,-0.0093L0.9,-0.0162L0.8,-0.0288L0.7,-0.0396L0.6,-0.0485L0.5,-0.055L0.4,-0.0589L0.3,-0.0595L0.2,-0.0557L0.15,-0.0514L0.1,-0.0447L0.075,-0.04L0.05,-0.0339L0.025,-0.0251L0.0125,-0.0186L0,-0L0.0125,0.0186L0.025,0.0251L0.05,0.0339L0.075,0.04L0.1,0.0447L0.15,0.0514L0.2,0.0557L0.3,0.0595L0.4,0.0589L0.5,0.055L0.6,0.0485L0.7,0.0396L0.8,0.0288L0.9,0.0162L0.95,0.0093L1,0.002"
    />
</svg>
