
<svg 
  class="airfoil-m4"
  fill="none"
  stroke="black" 
  stroke-width="1"
  style="overflow:visible"
  viewBox="0, -0.0535, 1, 0.0696"
  xmlns="http://www.w3.org/2000/svg">
    <title>NACA M4 AIRFOIL</title>
    <path 
      vector-effect="non-scaling-stroke"
      d="M1,-0.0025L0.95,-0.0048L0.9001,-0.0082L0.8001,-0.0169L0.7002,-0.0268L0.6003,-0.0369L0.5003,-0.0458L0.4004,-0.0516L0.3004,-0.0535L0.2004,-0.0491L0.1503,-0.044L0.1003,-0.0366L0.0752,-0.0315L0.0502,-0.0253L0.0251,-0.0174L0.0126,-0.0121L0,-0L0.0124,0.009L0.0249,0.0106L0.0499,0.0113L0.0749,0.0114L0.0999,0.011L0.1499,0.0101L0.1999,0.0092L0.2999,0.0093L0.3999,0.0107L0.4999,0.0129L0.5999,0.015L0.6999,0.0161L0.7999,0.0149L0.8999,0.0106L0.9499,0.0072L1,0.0025"
    />
</svg>
