
<svg 
  class="airfoil-m5"
  fill="none"
  stroke="black" 
  stroke-width="1"
  style="overflow:visible"
  viewBox="0, -0.0617, 1, 0.086"
  xmlns="http://www.w3.org/2000/svg">
    <title>NACA M5 AIRFOIL</title>
    <path 
      vector-effect="non-scaling-stroke"
      d="M1,-0.0032L0.9501,-0.0061L0.9001,-0.0106L0.8002,-0.021L0.7003,-0.0323L0.6004,-0.0435L0.5005,-0.0534L0.4006,-0.06L0.3006,-0.0617L0.2005,-0.0569L0.1505,-0.0511L0.1004,-0.0425L0.0753,-0.0367L0.0503,-0.0293L0.0252,-0.0202L0.0126,-0.0138L0,-0L0.0124,0.0125L0.0248,0.0161L0.0498,0.0185L0.0748,0.0194L0.0998,0.0198L0.1498,0.0199L0.1998,0.0201L0.2998,0.0204L0.3998,0.0219L0.4998,0.0233L0.5998,0.0243L0.6998,0.0237L0.7998,0.0204L0.8999,0.0139L0.9499,0.0088L1,0.0032"
    />
</svg>
