
<svg 
  class="airfoil-m6"
  fill="none"
  stroke="black" 
  stroke-width="1"
  style="overflow:visible"
  viewBox="0, -0.0822, 1, 0.1216"
  xmlns="http://www.w3.org/2000/svg">
    <title>NACA M6 AIRFOIL</title>
    <path 
      vector-effect="non-scaling-stroke"
      d="M1,-0.0026L0.95,-0.0088L0.9,-0.0155L0.8,-0.0306L0.7,-0.0458L0.6,-0.0603L0.5,-0.0726L0.4,-0.0805L0.3,-0.0822L0.2,-0.0755L0.15,-0.0682L0.1,-0.0571L0.075,-0.0494L0.05,-0.0403L0.025,-0.0281L0.0125,-0.0197L0,-0L0.0125,0.0176L0.025,0.022L0.05,0.0273L0.075,0.0303L0.1,0.0324L0.15,0.0347L0.2,0.0362L0.3,0.0379L0.4,0.039L0.5,0.0394L0.6,0.0382L0.7,0.0348L0.8,0.0283L0.9,0.0177L0.95,0.0108L1,0.0026"
    />
</svg>
