
<svg 
  class="airfoil-m665"
  fill="none"
  stroke="black" 
  stroke-width="1"
  style="overflow:visible"
  viewBox="0.002, -0.0534, 0.948, 0.078999996"
  xmlns="http://www.w3.org/2000/svg">
    <title>M6 (65%)</title>
    <path 
      vector-effect="non-scaling-stroke"
      d="M0.95,-0.0052L0.9,-0.0101L0.8,-0.0199L0.7,-0.0298L0.6,-0.0392L0.5,-0.0472L0.4,-0.0523L0.3,-0.0534L0.25,-0.0521L0.2,-0.0491L0.15,-0.0443L0.1,-0.0371L0.075,-0.0321L0.05,-0.0262L0.025,-0.0183L0.0125,-0.0128L0.01,-0.0114L0.006,-0.0089L0.004,-0.0073L0.002,-0.0049L0.0025,0.0062L0.005,0.008L0.0075,0.0096L0.01,0.0105L0.0125,0.0114L0.025,0.0143L0.05,0.0177L0.075,0.0197L0.1,0.0211L0.15,0.0226L0.2,0.0235L0.25,0.0241L0.3,0.0246L0.4,0.0254L0.5,0.0256L0.6,0.0248L0.7,0.0226L0.8,0.0184L0.9,0.0115L0.95,0.007"
    />
</svg>
