
<svg 
  class="airfoil-m685"
  fill="none"
  stroke="black" 
  stroke-width="1"
  style="overflow:visible"
  viewBox="0.002, -0.0699, 0.948, 0.1034"
  xmlns="http://www.w3.org/2000/svg">
    <title>M6 (85%)</title>
    <path 
      vector-effect="non-scaling-stroke"
      d="M0.95,-0.0068L0.9,-0.0132L0.8,-0.026L0.7,-0.0389L0.6,-0.0513L0.5,-0.0617L0.4,-0.0684L0.3,-0.0699L0.25,-0.0681L0.2,-0.0642L0.15,-0.058L0.1,-0.0485L0.075,-0.042L0.05,-0.0343L0.025,-0.0239L0.0125,-0.0167L0.01,-0.015L0.006,-0.0116L0.004,-0.0096L0.002,-0.0064L0.0025,0.0081L0.005,0.0105L0.0075,0.0126L0.01,0.0138L0.0125,0.015L0.025,0.0187L0.05,0.0232L0.075,0.0258L0.1,0.0275L0.15,0.0295L0.2,0.0308L0.25,0.0315L0.3,0.0322L0.4,0.0331L0.5,0.0335L0.6,0.0325L0.7,0.0296L0.8,0.0241L0.9,0.015L0.95,0.0092"
    />
</svg>
