
<svg 
  class="airfoil-m7"
  fill="none"
  stroke="black" 
  stroke-width="1"
  style="overflow:visible"
  viewBox="0, -0.0809, 1, 0.0915"
  xmlns="http://www.w3.org/2000/svg">
    <title>NACA M7 AIRFOIL</title>
    <path 
      vector-effect="non-scaling-stroke"
      d="M1,-0.0047L0.9,-0.0094L0.8,-0.0207L0.7,-0.0359L0.6,-0.052L0.5,-0.0666L0.4,-0.0772L0.3,-0.0809L0.2,-0.0748L0.15,-0.0669L0.1,-0.0555L0.075,-0.0477L0.05,-0.0385L0.025,-0.0274L0.0125,-0.0203L0,-0L0.0125,0.0002L0.025,-0.0001L0.05,-0.0025L0.075,-0.0055L0.1,-0.0076L0.15,-0.0138L0.2,-0.0172L0.3,-0.0191L0.4,-0.0153L0.5,-0.0087L0.6,-0.0006L0.7,0.0065L0.8,0.0106L0.9,0.0089L1,-0"
    />
</svg>
