
<svg 
  class="airfoil-m8"
  fill="none"
  stroke="black" 
  stroke-width="1"
  style="overflow:visible"
  viewBox="0, -0.125, 1, 0.1387"
  xmlns="http://www.w3.org/2000/svg">
    <title>NACA M8 AIRFOIL</title>
    <path 
      vector-effect="non-scaling-stroke"
      d="M1,-0L0.9,-0.0133L0.8,-0.0331L0.7,-0.0544L0.6,-0.0782L0.5,-0.0989L0.4,-0.1157L0.3,-0.1241L0.25,-0.125L0.2,-0.1212L0.15,-0.1139L0.1,-0.0995L0.075,-0.0875L0.05,-0.0718L0.025,-0.0506L0.0125,-0.035L0,-0L0.0125,0.01L0.025,0.0129L0.05,0.0137L0.075,0.012L0.1,0.0098L0.15,0.0033L0.2,-0.0174L0.25,-0.0298L0.3,-0.0368L0.4,-0.0443L0.5,-0.0388L0.6,-0.0311L0.7,-0.0194L0.8,-0.0083L0.9,-0L1,-0"
    />
</svg>
