
<svg 
  class="airfoil-m9"
  fill="none"
  stroke="black" 
  stroke-width="1"
  style="overflow:visible"
  viewBox="0, -0.1111, 1, 0.1233"
  xmlns="http://www.w3.org/2000/svg">
    <title>NACA M9 AIRFOIL</title>
    <path 
      vector-effect="non-scaling-stroke"
      d="M1,-0L0.9,-0.0122L0.8,-0.0294L0.7,-0.0484L0.6,-0.0695L0.5,-0.0878L0.4,-0.1024L0.3,-0.111L0.25,-0.1111L0.2,-0.1075L0.15,-0.1011L0.1,-0.0885L0.075,-0.0779L0.05,-0.0639L0.025,-0.0459L0.0125,-0.0312L0,-0L0.0125,0.0083L0.025,0.0112L0.05,0.0122L0.075,0.0107L0.1,0.0079L0.15,0.0029L0.2,-0.0053L0.25,-0.0226L0.3,-0.0326L0.4,-0.0391L0.5,-0.0346L0.6,-0.0278L0.7,-0.0172L0.8,-0.0073L0.9,-0L1,-0"
    />
</svg>
