
<svg 
  class="airfoil-ma409sm"
  fill="none"
  stroke="black" 
  stroke-width="1"
  style="overflow:visible"
  viewBox="0, -0.0629, 1, 0.0788"
  xmlns="http://www.w3.org/2000/svg">
    <title>MA409 (smoothed)</title>
    <path 
      vector-effect="non-scaling-stroke"
      d="M1,-0.0003L0.9975,-0.0009L0.9907,-0.0026L0.9804,-0.005L0.967,-0.0079L0.9504,-0.0114L0.9306,-0.0152L0.9078,-0.0194L0.882,-0.0237L0.8537,-0.0282L0.8231,-0.0326L0.7905,-0.0369L0.7562,-0.0411L0.7204,-0.045L0.6836,-0.0487L0.6459,-0.052L0.6078,-0.0549L0.5694,-0.0573L0.531,-0.0593L0.4927,-0.0609L0.4543,-0.062L0.4164,-0.0627L0.3789,-0.0629L0.342,-0.0626L0.3061,-0.0617L0.2712,-0.0602L0.2376,-0.0582L0.2055,-0.0556L0.175,-0.0523L0.1465,-0.0486L0.12,-0.0443L0.0958,-0.0396L0.074,-0.0345L0.0547,-0.0291L0.0381,-0.0237L0.0243,-0.0183L0.0134,-0.0131L0.0055,-0.008L0.001,-0.0032L0,0L0.001,0.003L0.0055,0.0066L0.0134,0.0097L0.0243,0.0121L0.0381,0.014L0.0547,0.0153L0.074,0.0159L0.0958,0.0159L0.12,0.0153L0.1465,0.0142L0.175,0.0126L0.2055,0.0108L0.2376,0.0088L0.2712,0.0065L0.3061,0.0042L0.342,0.0019L0.3789,-0.0004L0.4164,-0.0025L0.4543,-0.0042L0.4927,-0.0057L0.531,-0.0067L0.5694,-0.0075L0.6078,-0.0081L0.6459,-0.0084L0.6836,-0.0084L0.7204,-0.0083L0.7562,-0.008L0.7905,-0.0075L0.8231,-0.0069L0.8537,-0.0061L0.882,-0.0053L0.9078,-0.0044L0.9306,-0.0035L0.9504,-0.0026L0.967,-0.0017L0.9804,-0.0009L0.9907,-0.0003L0.9975,0.0002L1,0.0004"
    />
</svg>
