
<svg 
  class="airfoil-ma409"
  fill="none"
  stroke="black" 
  stroke-width="1"
  style="overflow:visible"
  viewBox="0, -0.0743, 1, 0.0743"
  xmlns="http://www.w3.org/2000/svg">
    <title>MA409 (original)</title>
    <path 
      vector-effect="non-scaling-stroke"
      d="M1,-0.0007L0.95,-0.0125L0.9,-0.0231L0.8,-0.0402L0.7,-0.0524L0.65,-0.0615L0.55,-0.0654L0.5,-0.0694L0.45,-0.0719L0.4,-0.0739L0.35,-0.0743L0.3,-0.074L0.25,-0.073L0.2,-0.0693L0.15,-0.0642L0.1,-0.0567L0.075,-0.0513L0.05,-0.0448L0.025,-0.035L0.0125,-0.0283L0,-0.0175L0.0125,-0.0088L0.025,-0.0044L0.05,-0.0008L0.075,-0.0002L0.1,-0L0.15,-0.0012L0.2,-0.0028L0.25,-0.0051L0.3,-0.0079L0.35,-0.0103L0.4,-0.0123L0.45,-0.0142L0.5,-0.015L0.55,-0.0153L0.6,-0.0154L0.7,-0.0138L0.8,-0.0111L0.9,-0.007L0.95,-0.0036L1,-0"
    />
</svg>
