
<svg 
  class="airfoil-marsden"
  fill="none"
  stroke="black" 
  stroke-width="1"
  style="overflow:visible"
  viewBox="0, -0.2348, 1, 0.2822"
  xmlns="http://www.w3.org/2000/svg">
    <title>Marsden</title>
    <path 
      vector-effect="non-scaling-stroke"
      d="M1,-0L0.999,-0.0026L0.9961,-0.0063L0.9911,-0.0106L0.9843,-0.0152L0.9755,-0.0205L0.9649,-0.0263L0.9524,-0.0324L0.9381,-0.0389L0.9222,-0.0458L0.9045,-0.053L0.8853,-0.0605L0.8645,-0.0683L0.8423,-0.0765L0.8187,-0.0849L0.7939,-0.0936L0.7679,-0.1026L0.7409,-0.1119L0.7129,-0.1214L0.6841,-0.1312L0.6545,-0.1412L0.6243,-0.1515L0.5937,-0.162L0.5627,-0.1727L0.5314,-0.1835L0.5,-0.1945L0.4686,-0.2054L0.4373,-0.216L0.4063,-0.2258L0.3756,-0.2322L0.3455,-0.2348L0.3159,-0.2347L0.2871,-0.232L0.2591,-0.2274L0.2321,-0.2211L0.2061,-0.2134L0.1813,-0.2043L0.1577,-0.1943L0.1355,-0.1832L0.1147,-0.1713L0.0955,-0.1588L0.0778,-0.1457L0.0619,-0.1322L0.0476,-0.1185L0.0351,-0.1047L0.0245,-0.091L0.0157,-0.0774L0.0089,-0.0644L0.0039,-0.0518L0.001,-0.0393L0,-0.0292L0.001,-0.0154L0.0039,-0.0008L0.0089,0.0127L0.0157,0.0228L0.0245,0.0297L0.0351,0.0339L0.0476,0.037L0.0619,0.0396L0.0778,0.0418L0.0955,0.0437L0.1147,0.0452L0.1355,0.0463L0.1577,0.047L0.1813,0.0474L0.2061,0.0473L0.2321,0.047L0.2591,0.0463L0.2871,0.0453L0.3159,0.0441L0.3455,0.0426L0.3756,0.041L0.4063,0.039L0.4373,0.0366L0.4686,0.0338L0.5,0.0304L0.5314,0.0264L0.5627,0.0217L0.5937,0.0162L0.6243,0.0102L0.6545,0.0038L0.6841,-0.0026L0.7129,-0.0086L0.7409,-0.0141L0.7679,-0.0187L0.7939,-0.0224L0.8187,-0.0252L0.8423,-0.027L0.8645,-0.0279L0.8853,-0.028L0.9045,-0.0273L0.9222,-0.0259L0.9381,-0.0239L0.9524,-0.0213L0.9649,-0.0183L0.9755,-0.015L0.9843,-0.0115L0.9911,-0.0082L0.9961,-0.0049L0.999,-0.0022L1,-0"
    />
</svg>
