
<svg 
  class="airfoil-marske4"
  fill="none"
  stroke="black" 
  stroke-width="1"
  style="overflow:visible"
  viewBox="0, -0.0777, 1, 0.11129999"
  xmlns="http://www.w3.org/2000/svg">
    <title>MARSKE PIONEER IID TIP AIRFOIL</title>
    <desc># NACA 431012A*.833 HYBRID</desc>
    <path 
      vector-effect="non-scaling-stroke"
      d="M1,-0L0.9,-0.0104L0.8,-0.0203L0.7,-0.0308L0.6,-0.0433L0.5,-0.0547L0.4,-0.0642L0.3,-0.0714L0.25,-0.0746L0.2,-0.0773L0.15,-0.0777L0.1,-0.0731L0.075,-0.0669L0.05,-0.0577L0.025,-0.0428L0.0125,-0.0324L0,-0L0.0125,0.0069L0.025,0.0095L0.05,0.0128L0.075,0.0154L0.1,0.0176L0.15,0.0214L0.2,0.0246L0.25,0.0272L0.3,0.0292L0.4,0.0327L0.5,0.0336L0.6,0.0327L0.7,0.03L0.8,0.0228L0.9,0.0125L1,-0"
    />
</svg>
