
<svg 
  class="airfoil-marske7"
  fill="none"
  stroke="black" 
  stroke-width="1"
  style="overflow:visible"
  viewBox="0, -0.0882, 1, 0.1207"
  xmlns="http://www.w3.org/2000/svg">
    <title>RONCZ LOW DRAG FLYING WING AIRFOIL</title>
    <path 
      vector-effect="non-scaling-stroke"
      d="M1,-0.002L0.9924,-0.002L0.9834,-0.002L0.9717,-0.0022L0.9548,-0.0029L0.928,-0.0047L0.8925,-0.0085L0.856,-0.0136L0.8201,-0.0199L0.7841,-0.0274L0.748,-0.0358L0.7112,-0.0452L0.6742,-0.0548L0.6383,-0.0639L0.6033,-0.0717L0.5688,-0.0779L0.5342,-0.0825L0.4992,-0.0857L0.4637,-0.0875L0.4277,-0.0882L0.3914,-0.0881L0.355,-0.0871L0.3186,-0.0853L0.2824,-0.0826L0.2464,-0.079L0.2105,-0.0745L0.1751,-0.069L0.1404,-0.0626L0.1069,-0.0551L0.0756,-0.0463L0.0484,-0.0367L0.0268,-0.0267L0.0129,-0.0178L0.0049,-0.0105L0.0013,-0.0052L0,-0L0.0003,0.0024L0.0023,0.0056L0.0065,0.0086L0.0146,0.0117L0.03,0.0151L0.0548,0.0186L0.0866,0.0217L0.1219,0.0242L0.1587,0.0261L0.1959,0.0277L0.2334,0.0289L0.2711,0.0299L0.3088,0.0307L0.3466,0.0314L0.3844,0.0319L0.4223,0.0323L0.4601,0.0325L0.4978,0.0325L0.5355,0.0325L0.573,0.0322L0.6105,0.0319L0.6478,0.0313L0.6849,0.0306L0.7218,0.0296L0.7584,0.0282L0.7947,0.0265L0.8308,0.0242L0.8665,0.0212L0.9015,0.0175L0.9327,0.0132L0.9565,0.0093L0.9722,0.0065L0.9835,0.0045L0.9924,0.003L1,0.002"
    />
</svg>
