
<svg 
  class="airfoil-marske5"
  fill="none"
  stroke="black" 
  stroke-width="1"
  style="overflow:visible"
  viewBox="0, -0.0933, 1, 0.1336"
  xmlns="http://www.w3.org/2000/svg">
    <title>MARSKE MONARCH AIRFOIL</title>
    <desc># NACA 43012A</desc>
    <path 
      vector-effect="non-scaling-stroke"
      d="M1,-0L0.9,-0.0125L0.8,-0.0244L0.7,-0.037L0.6,-0.052L0.5,-0.0656L0.4,-0.077L0.3,-0.0857L0.25,-0.0895L0.2,-0.0927L0.15,-0.0933L0.1,-0.0877L0.075,-0.0803L0.05,-0.0692L0.025,-0.0514L0.0125,-0.0389L0,-0L0.0125,0.0083L0.025,0.0114L0.05,0.0154L0.075,0.0185L0.1,0.0211L0.15,0.0257L0.2,0.0295L0.25,0.0327L0.3,0.035L0.4,0.0392L0.5,0.0403L0.6,0.0392L0.7,0.036L0.8,0.0274L0.9,0.015L1,-0"
    />
</svg>
