
<svg 
  class="airfoil-marske1"
  fill="none"
  stroke="black" 
  stroke-width="1"
  style="overflow:visible"
  viewBox="0, -0.1003, 1, 0.1432"
  xmlns="http://www.w3.org/2000/svg">
    <title>MARSKE XM-1D AIRFOIL (F14-3.0)</title>
    <path 
      vector-effect="non-scaling-stroke"
      d="M1,-0L0.9001,-0.0074L0.8002,-0.0165L0.7004,-0.0294L0.6006,-0.046L0.5009,-0.0677L0.4011,-0.0854L0.3013,-0.0977L0.2513,-0.1003L0.2013,-0.0992L0.1512,-0.0932L0.1011,-0.0811L0.0759,-0.0725L0.0508,-0.061L0.0256,-0.0449L0.0129,-0.0331L0,-0L0.0123,0.0173L0.0247,0.0216L0.0497,0.0247L0.0746,0.0304L0.0996,0.0329L0.1495,0.037L0.1995,0.039L0.2495,0.0397L0.2995,0.0403L0.3995,0.0416L0.4994,0.0429L0.5995,0.0403L0.6996,0.0342L0.7997,0.0253L0.8998,0.0137L1,-0"
    />
</svg>
