
<svg 
  class="airfoil-mb253515sm"
  fill="none"
  stroke="black" 
  stroke-width="1"
  style="overflow:visible"
  viewBox="0, -0.099, 1, 0.1495"
  xmlns="http://www.w3.org/2000/svg">
    <title>MB253515 15.0% smoothed</title>
    <path 
      vector-effect="non-scaling-stroke"
      d="M1,-0L0.95,-0.0103L0.9,-0.0203L0.85,-0.0305L0.8,-0.0408L0.75,-0.0509L0.7,-0.0608L0.65,-0.0701L0.6,-0.0785L0.55,-0.0858L0.5,-0.0917L0.45,-0.096L0.425,-0.0975L0.4,-0.0985L0.375,-0.099L0.35,-0.099L0.325,-0.0987L0.3,-0.0979L0.275,-0.0966L0.25,-0.0947L0.225,-0.0921L0.2,-0.0886L0.175,-0.0841L0.15,-0.0784L0.125,-0.0715L0.1,-0.063L0.0875,-0.0581L0.075,-0.0527L0.0625,-0.047L0.05,-0.0407L0.0375,-0.0339L0.025,-0.0264L0.01,-0.0152L0,0.0004L0.01,0.0122L0.025,0.0181L0.0375,0.0216L0.05,0.0246L0.0625,0.0274L0.075,0.03L0.0875,0.0325L0.1,0.0347L0.125,0.0386L0.15,0.0417L0.175,0.0443L0.2,0.0462L0.225,0.0478L0.25,0.0489L0.275,0.0497L0.3,0.0503L0.325,0.0505L0.35,0.0505L0.375,0.0503L0.4,0.05L0.425,0.0494L0.45,0.0487L0.5,0.0466L0.55,0.0438L0.6,0.0404L0.65,0.0363L0.7,0.0317L0.75,0.0267L0.8,0.0214L0.85,0.0161L0.9,0.0107L0.95,0.0054L1,-0"
    />
</svg>
