
<svg 
  class="airfoil-mh102"
  fill="none"
  stroke="black" 
  stroke-width="1"
  style="overflow:visible"
  viewBox="0, -0.1132, 1, 0.1723"
  xmlns="http://www.w3.org/2000/svg">
    <title>MH 102 16.99%</title>
    <path 
      vector-effect="non-scaling-stroke"
      d="M1,-0L0.9961,-0.0006L0.9852,-0.0028L0.9683,-0.0066L0.946,-0.0115L0.9184,-0.0171L0.8857,-0.0236L0.8486,-0.0311L0.8077,-0.0394L0.7638,-0.0484L0.7173,-0.0578L0.6691,-0.0673L0.6196,-0.0766L0.5695,-0.0854L0.5194,-0.0935L0.4697,-0.1005L0.421,-0.1062L0.3737,-0.1104L0.3282,-0.1128L0.2849,-0.1132L0.2438,-0.1113L0.2051,-0.1075L0.169,-0.1018L0.1359,-0.0945L0.1061,-0.0856L0.0796,-0.0754L0.0568,-0.064L0.0376,-0.0518L0.0223,-0.0391L0.0109,-0.0262L0.0034,-0.0137L0.0008,-0.0062L0.0002,-0.0029L0,0.0002L0.0001,0.0021L0.0005,0.0039L0.0012,0.0057L0.0022,0.0074L0.0043,0.0101L0.0068,0.0128L0.0105,0.0161L0.024,0.0253L0.042,0.0341L0.0642,0.0421L0.0902,0.049L0.12,0.0543L0.1535,0.0577L0.1909,0.0591L0.2322,0.0588L0.2771,0.057L0.3251,0.0541L0.3757,0.0502L0.4284,0.0458L0.4824,0.041L0.5371,0.036L0.5916,0.031L0.6454,0.026L0.6977,0.0213L0.7479,0.0168L0.7952,0.0128L0.839,0.0093L0.8787,0.0063L0.9137,0.004L0.9435,0.0022L0.9675,0.001L0.9852,0.0003L0.9962,0.0001L1,-0"
    />
</svg>
