
<svg 
  class="airfoil-mh108"
  fill="none"
  stroke="black" 
  stroke-width="1"
  style="overflow:visible"
  viewBox="0, -0.0709, 1, 0.1201"
  xmlns="http://www.w3.org/2000/svg">
    <title>MH 108 11.98%</title>
    <path 
      vector-effect="non-scaling-stroke"
      d="M1,-0L0.9964,-0.0001L0.986,-0.0007L0.9695,-0.0019L0.9472,-0.0037L0.9194,-0.0058L0.8862,-0.0085L0.8484,-0.0119L0.8064,-0.016L0.7609,-0.0208L0.7126,-0.0262L0.6622,-0.032L0.6103,-0.0382L0.5578,-0.0444L0.5052,-0.0505L0.4532,-0.0562L0.4023,-0.0613L0.3532,-0.0656L0.3063,-0.0687L0.262,-0.0706L0.2208,-0.0709L0.1828,-0.0693L0.148,-0.0658L0.1164,-0.0608L0.0882,-0.0544L0.0637,-0.0468L0.043,-0.0384L0.0262,-0.0292L0.0134,-0.0199L0.0047,-0.0107L0.0021,-0.0067L0.001,-0.0042L0.0002,-0.0019L0,-0.0005L0.0001,0.0009L0.0004,0.0021L0.0011,0.0035L0.0026,0.0055L0.0046,0.0077L0.0092,0.0116L0.0214,0.0189L0.0381,0.0258L0.0594,0.0319L0.0851,0.0372L0.1151,0.0416L0.1492,0.0449L0.1871,0.0473L0.2285,0.0487L0.273,0.0492L0.3201,0.0488L0.3694,0.0477L0.4204,0.0459L0.4725,0.0436L0.5251,0.0408L0.5775,0.0377L0.6292,0.0343L0.6797,0.0307L0.7282,0.0269L0.7743,0.0231L0.8174,0.0194L0.857,0.0157L0.8925,0.0123L0.9236,0.0091L0.9498,0.0063L0.9709,0.0037L0.9866,0.0016L0.9966,0.0004L1,-0"
    />
</svg>
