
<svg 
  class="airfoil-mh104"
  fill="none"
  stroke="black" 
  stroke-width="1"
  style="overflow:visible"
  viewBox="0, -0.0963, 1, 0.1527"
  xmlns="http://www.w3.org/2000/svg">
    <title>MH 104 15.28%</title>
    <path 
      vector-effect="non-scaling-stroke"
      d="M1,-0L0.9962,-0.0002L0.9852,-0.001L0.9676,-0.0029L0.9442,-0.0056L0.9151,-0.0091L0.8807,-0.0136L0.8418,-0.0192L0.7989,-0.0258L0.753,-0.0333L0.7046,-0.0416L0.6546,-0.0503L0.6037,-0.0591L0.5524,-0.0677L0.5015,-0.0757L0.4514,-0.0829L0.4028,-0.0888L0.3559,-0.0933L0.3113,-0.0959L0.2692,-0.0963L0.2293,-0.0942L0.1917,-0.0902L0.1567,-0.0845L0.1247,-0.0773L0.0959,-0.0688L0.0705,-0.0592L0.0487,-0.0488L0.0308,-0.0379L0.0168,-0.0268L0.0069,-0.0159L0.0014,-0.0065L0.0005,-0.0037L0.0001,-0.0011L0,0.0005L0.0002,0.0019L0.0008,0.0033L0.0017,0.0047L0.0035,0.0069L0.0059,0.0091L0.0181,0.0172L0.0347,0.0249L0.0559,0.0323L0.0813,0.0391L0.1107,0.045L0.1439,0.0499L0.1807,0.0534L0.2209,0.0555L0.2643,0.0564L0.3106,0.0561L0.3593,0.0547L0.41,0.0525L0.462,0.0497L0.5148,0.0464L0.5677,0.0426L0.62,0.0386L0.6711,0.0343L0.7205,0.03L0.7676,0.0256L0.8117,0.0213L0.8523,0.0173L0.8888,0.0134L0.9209,0.0099L0.948,0.0068L0.9698,0.004L0.9861,0.0018L0.9964,0.0004L1,-0"
    />
</svg>
