
<svg 
  class="airfoil-mh106"
  fill="none"
  stroke="black" 
  stroke-width="1"
  style="overflow:visible"
  viewBox="0, -0.0753, 1, 0.1306"
  xmlns="http://www.w3.org/2000/svg">
    <title>MH 106 13.07%</title>
    <path 
      vector-effect="non-scaling-stroke"
      d="M1,-0L0.9963,-0.0001L0.9857,-0.0008L0.9689,-0.0023L0.9464,-0.0044L0.9184,-0.0069L0.885,-0.01L0.847,-0.0138L0.8049,-0.0185L0.7593,-0.0238L0.7111,-0.0298L0.6608,-0.0362L0.6092,-0.0429L0.5571,-0.0496L0.5049,-0.0561L0.4535,-0.0621L0.4034,-0.0673L0.355,-0.0715L0.3091,-0.0744L0.2658,-0.0753L0.2251,-0.0742L0.1868,-0.0712L0.1514,-0.0668L0.119,-0.061L0.0901,-0.0542L0.0649,-0.0464L0.0437,-0.0379L0.0265,-0.0289L0.0135,-0.0197L0.0047,-0.0106L0.0019,-0.0062L0.0008,-0.0038L0.0002,-0.0015L0,-0.0001L0.0001,0.0011L0.0006,0.0023L0.0013,0.0036L0.003,0.0056L0.0051,0.0076L0.0096,0.0111L0.0226,0.0183L0.0402,0.0256L0.0623,0.0326L0.0885,0.0391L0.1186,0.0447L0.1523,0.0493L0.1895,0.0526L0.23,0.0546L0.2736,0.0553L0.3199,0.055L0.3685,0.0537L0.419,0.0516L0.4706,0.0488L0.5229,0.0456L0.5752,0.042L0.6268,0.038L0.6772,0.0338L0.7259,0.0295L0.7722,0.0252L0.8155,0.0209L0.8554,0.0169L0.8913,0.0131L0.9227,0.0096L0.9493,0.0065L0.9706,0.0038L0.9865,0.0017L0.9965,0.0004L1,-0"
    />
</svg>
