
<svg 
  class="airfoil-mh115"
  fill="none"
  stroke="black" 
  stroke-width="1"
  style="overflow:visible"
  viewBox="0, -0.1081, 1, 0.1242"
  xmlns="http://www.w3.org/2000/svg">
    <title>MH 115 11.06%</title>
    <path 
      vector-effect="non-scaling-stroke"
      d="M1,-0L0.9967,-0.001L0.9875,-0.0042L0.9731,-0.0092L0.9541,-0.0153L0.9303,-0.0222L0.902,-0.0299L0.8697,-0.0383L0.8339,-0.0471L0.7949,-0.0561L0.7533,-0.065L0.7095,-0.0737L0.6641,-0.0819L0.6174,-0.0893L0.5701,-0.0958L0.5224,-0.101L0.4747,-0.1049L0.4275,-0.1072L0.3811,-0.1081L0.3358,-0.1074L0.2921,-0.1053L0.2504,-0.1017L0.2111,-0.0967L0.1744,-0.0904L0.1407,-0.0829L0.1102,-0.0744L0.0831,-0.0649L0.0596,-0.0547L0.0399,-0.0441L0.0242,-0.0333L0.0124,-0.0225L0.0044,-0.0123L0.0007,-0.0044L0.0002,-0.002L0,0.0002L0.0001,0.0015L0.0005,0.0026L0.0011,0.0036L0.0021,0.0045L0.0041,0.0059L0.0066,0.0073L0.0077,0.0078L0.0202,0.0116L0.038,0.0142L0.0611,0.0157L0.0893,0.0161L0.1225,0.0155L0.1603,0.0139L0.2023,0.0115L0.2483,0.0086L0.2976,0.0052L0.3498,0.0016L0.4042,-0.0021L0.4601,-0.0057L0.5169,-0.009L0.5739,-0.0119L0.6303,-0.0142L0.6853,-0.0158L0.7382,-0.0167L0.7882,-0.0166L0.8345,-0.0157L0.8763,-0.0141L0.9131,-0.0117L0.944,-0.0088L0.9685,-0.0057L0.9861,-0.0028L0.9965,-0.0007L1,-0"
    />
</svg>
