
<svg 
  class="airfoil-mh110"
  fill="none"
  stroke="black" 
  stroke-width="1"
  style="overflow:visible"
  viewBox="0, -0.0605, 1, 0.1017"
  xmlns="http://www.w3.org/2000/svg">
    <title>MH 110 10.01%</title>
    <path 
      vector-effect="non-scaling-stroke"
      d="M1,-0L0.9965,0L0.9864,-0.0002L0.9702,-0.0009L0.9482,-0.0019L0.9206,-0.0031L0.8877,-0.0048L0.8501,-0.0071L0.8081,-0.01L0.7626,-0.0136L0.7141,-0.0178L0.6633,-0.0226L0.6111,-0.0278L0.558,-0.0333L0.5048,-0.0388L0.4522,-0.0442L0.4008,-0.0492L0.3511,-0.0535L0.3037,-0.057L0.259,-0.0594L0.2175,-0.0605L0.1794,-0.0601L0.145,-0.0579L0.1143,-0.0538L0.087,-0.0479L0.0629,-0.0407L0.0423,-0.0328L0.0256,-0.0245L0.0128,-0.0162L0.0043,-0.0084L0.0021,-0.0055L0.001,-0.0034L0.0002,-0.0015L0,-0.0003L0.0001,0.0007L0.0005,0.0017L0.0012,0.0027L0.0027,0.0043L0.0047,0.0059L0.0102,0.0093L0.0233,0.015L0.0412,0.0204L0.0638,0.0253L0.0909,0.0296L0.1224,0.0333L0.1578,0.0362L0.197,0.0385L0.2394,0.0401L0.2848,0.041L0.3325,0.0412L0.3822,0.0409L0.4332,0.04L0.4851,0.0385L0.5373,0.0367L0.5891,0.0344L0.64,0.0318L0.6895,0.0289L0.737,0.0258L0.7819,0.0225L0.8238,0.0192L0.8622,0.0159L0.8966,0.0126L0.9266,0.0096L0.9518,0.0067L0.972,0.004L0.9871,0.0018L0.9967,0.0004L1,-0"
    />
</svg>
