
<svg 
  class="airfoil-mh117"
  fill="none"
  stroke="black" 
  stroke-width="1"
  style="overflow:visible"
  viewBox="0, -0.0744, 1, 0.1023"
  xmlns="http://www.w3.org/2000/svg">
    <title>MH 117 9.8%</title>
    <path 
      vector-effect="non-scaling-stroke"
      d="M1,-0L0.9967,-0.0005L0.9871,-0.0021L0.9718,-0.0048L0.9512,-0.0083L0.9255,-0.0124L0.8951,-0.0172L0.8604,-0.0227L0.8219,-0.0286L0.7802,-0.035L0.7359,-0.0415L0.6895,-0.048L0.6416,-0.0543L0.5927,-0.0601L0.5433,-0.0652L0.4939,-0.0693L0.4449,-0.0723L0.3967,-0.074L0.3495,-0.0744L0.3038,-0.0737L0.26,-0.0718L0.2185,-0.0688L0.1798,-0.0649L0.1442,-0.0599L0.1121,-0.0541L0.0836,-0.0474L0.0591,-0.0401L0.0387,-0.0323L0.0226,-0.0242L0.0108,-0.0159L0.0033,-0.0079L0.0018,-0.0055L0.0008,-0.0034L0.0002,-0.0014L0,-0.0002L0.0001,0.0009L0.0005,0.002L0.0012,0.003L0.0028,0.0047L0.0048,0.0063L0.0111,0.0102L0.0242,0.0156L0.042,0.0201L0.0646,0.0235L0.0919,0.026L0.1237,0.0274L0.1598,0.0279L0.2,0.0276L0.2438,0.0265L0.2909,0.0248L0.3406,0.0227L0.3924,0.0202L0.4458,0.0176L0.5,0.0149L0.5544,0.0122L0.6084,0.0096L0.6613,0.0071L0.7125,0.005L0.7612,0.0031L0.8069,0.0015L0.8489,0.0003L0.8868,-0.0005L0.92,-0.0009L0.9479,-0.0011L0.9703,-0.0009L0.9866,-0.0006L0.9966,-0.0002L1,-0"
    />
</svg>
