
<svg 
  class="airfoil-mh112"
  fill="none"
  stroke="black" 
  stroke-width="1"
  style="overflow:visible"
  viewBox="0, -0.1507, 1, 0.1787"
  xmlns="http://www.w3.org/2000/svg">
    <title>MH 112 16.2%</title>
    <path 
      vector-effect="non-scaling-stroke"
      d="M1,-0L0.9965,-0.0014L0.9866,-0.0055L0.9714,-0.012L0.9514,-0.0202L0.9267,-0.0296L0.8975,-0.0403L0.8645,-0.0521L0.8282,-0.0645L0.7891,-0.0774L0.7477,-0.0902L0.7046,-0.1026L0.6602,-0.1141L0.6147,-0.1244L0.5686,-0.1333L0.5222,-0.1404L0.4757,-0.1458L0.4297,-0.1493L0.3844,-0.1507L0.3403,-0.1501L0.2976,-0.1474L0.2565,-0.1428L0.2176,-0.1366L0.1812,-0.1286L0.1476,-0.119L0.117,-0.1079L0.0896,-0.0956L0.0656,-0.0823L0.0453,-0.0683L0.0286,-0.0539L0.0157,-0.0394L0.0067,-0.0251L0.0015,-0.0114L0,0.001L0.0002,0.0041L0.0008,0.0072L0.0017,0.01L0.0026,0.0117L0.0036,0.0132L0.0049,0.0145L0.0066,0.0156L0.0097,0.0173L0.0133,0.0189L0.0242,0.0221L0.044,0.0255L0.0693,0.0274L0.0997,0.028L0.135,0.0272L0.1748,0.0252L0.2189,0.0222L0.2668,0.0183L0.3179,0.0137L0.3718,0.0087L0.4278,0.0034L0.4853,-0.002L0.5437,-0.0071L0.6024,-0.0115L0.6603,-0.015L0.7165,-0.0172L0.7699,-0.0182L0.8198,-0.0179L0.865,-0.0164L0.9049,-0.0139L0.9386,-0.0107L0.9655,-0.007L0.9847,-0.0035L0.9962,-0.0009L1,-0"
    />
</svg>
