
<svg 
  class="airfoil-mh114"
  fill="none"
  stroke="black" 
  stroke-width="1"
  style="overflow:visible"
  viewBox="0, -0.1275, 1, 0.1453"
  xmlns="http://www.w3.org/2000/svg">
    <title>MH 114 13.02%</title>
    <path 
      vector-effect="non-scaling-stroke"
      d="M1,-0L0.9967,-0.0013L0.9873,-0.0051L0.9729,-0.011L0.9539,-0.0183L0.9303,-0.0265L0.9022,-0.0356L0.8701,-0.0456L0.8346,-0.0561L0.7961,-0.0669L0.7552,-0.0776L0.7122,-0.0879L0.6677,-0.0975L0.622,-0.1061L0.5756,-0.1134L0.5286,-0.1193L0.4816,-0.1237L0.4349,-0.1264L0.3889,-0.1275L0.344,-0.1269L0.3006,-0.1247L0.2591,-0.1207L0.2198,-0.1152L0.1831,-0.108L0.1491,-0.0995L0.1182,-0.0897L0.0905,-0.079L0.0663,-0.0674L0.0457,-0.0552L0.0288,-0.0428L0.0158,-0.0305L0.0067,-0.0186L0.0014,-0.0078L0.0002,-0.0029L0,-0.0002L0.0002,0.0022L0.0005,0.0036L0.001,0.0048L0.0019,0.0059L0.0031,0.0069L0.0054,0.0083L0.0082,0.0097L0.014,0.0117L0.03,0.0149L0.0515,0.0169L0.0782,0.0178L0.11,0.0175L0.1465,0.0162L0.1875,0.014L0.2326,0.011L0.2812,0.0074L0.3328,0.0034L0.387,-0.0008L0.443,-0.0051L0.5002,-0.0092L0.5579,-0.0129L0.6154,-0.016L0.6718,-0.0183L0.7264,-0.0196L0.7782,-0.0198L0.8264,-0.019L0.8701,-0.0171L0.9087,-0.0144L0.9412,-0.011L0.9671,-0.0071L0.9855,-0.0035L0.9964,-0.0009L1,-0"
    />
</svg>
