
<svg 
  class="airfoil-mh116"
  fill="none"
  stroke="black" 
  stroke-width="1"
  style="overflow:visible"
  viewBox="0, -0.0878, 1, 0.1074"
  xmlns="http://www.w3.org/2000/svg">
    <title>MH 116 9.84%</title>
    <path 
      vector-effect="non-scaling-stroke"
      d="M1,-0L0.9967,-0.0007L0.9872,-0.0031L0.9723,-0.0069L0.9524,-0.0117L0.9277,-0.0173L0.8984,-0.0237L0.865,-0.0307L0.8281,-0.0382L0.7881,-0.046L0.7456,-0.0537L0.7011,-0.0612L0.655,-0.0682L0.6078,-0.0744L0.5599,-0.0796L0.5117,-0.0837L0.4637,-0.0864L0.4161,-0.0878L0.3693,-0.0878L0.3236,-0.0864L0.2797,-0.0839L0.2378,-0.0802L0.1983,-0.0754L0.1617,-0.0696L0.1282,-0.0629L0.0982,-0.0554L0.0719,-0.0473L0.0495,-0.0388L0.0312,-0.0299L0.0171,-0.021L0.0071,-0.0124L0.0016,-0.0051L0.0007,-0.003L0.0001,-0.0011L0,-0L0.0001,0.001L0.0006,0.0019L0.0014,0.0028L0.003,0.0042L0.0051,0.0056L0.0165,0.0104L0.0324,0.0142L0.0532,0.017L0.0789,0.0188L0.1094,0.0196L0.1445,0.0194L0.1839,0.0185L0.2272,0.0168L0.2741,0.0146L0.3239,0.0121L0.3761,0.0093L0.4301,0.0065L0.4852,0.0038L0.5407,0.0013L0.5959,-0.001L0.6502,-0.0029L0.7027,-0.0044L0.7529,-0.0055L0.8001,-0.0061L0.8436,-0.0063L0.8829,-0.0059L0.9173,-0.0052L0.9463,-0.0042L0.9695,-0.0028L0.9863,-0.0015L0.9966,-0.0004L1,-0"
    />
</svg>
