
<svg 
  class="airfoil-mh113"
  fill="none"
  stroke="black" 
  stroke-width="1"
  style="overflow:visible"
  viewBox="0.0001, -0.1381, 0.9999, 0.1613"
  xmlns="http://www.w3.org/2000/svg">
    <title>MH 113 14.62%</title>
    <path 
      vector-effect="non-scaling-stroke"
      d="M1,-0L0.9966,-0.0013L0.9869,-0.0052L0.9721,-0.0114L0.9526,-0.019L0.9283,-0.0277L0.8996,-0.0375L0.8669,-0.0483L0.8309,-0.0597L0.792,-0.0714L0.7507,-0.083L0.7075,-0.0943L0.6629,-0.1048L0.6172,-0.1142L0.5708,-0.1223L0.524,-0.1288L0.4771,-0.1336L0.4306,-0.1368L0.3848,-0.1381L0.3402,-0.1377L0.2972,-0.1354L0.256,-0.1313L0.2171,-0.1255L0.1808,-0.118L0.1472,-0.1089L0.1166,-0.0985L0.0892,-0.0869L0.0653,-0.0744L0.0449,-0.0613L0.0283,-0.0478L0.0155,-0.0343L0.0065,-0.0212L0.0014,-0.0089L0.0001,0.002L0.0033,0.0099L0.0123,0.0152L0.0275,0.0191L0.0482,0.0218L0.0743,0.0232L0.1054,0.0232L0.1414,0.0221L0.1819,0.02L0.2266,0.0169L0.2749,0.0131L0.3263,0.0088L0.3804,0.0042L0.4365,-0.0006L0.4939,-0.0052L0.552,-0.0095L0.6099,-0.0132L0.667,-0.016L0.7222,-0.0178L0.7747,-0.0185L0.8235,-0.0179L0.8679,-0.0164L0.907,-0.0139L0.9401,-0.0106L0.9663,-0.0069L0.9852,-0.0034L0.9963,-0.0009L1,-0"
    />
</svg>
