
<svg 
  class="airfoil-mh121"
  fill="none"
  stroke="black" 
  stroke-width="1"
  style="overflow:visible"
  viewBox="0, -0.0684, 1, 0.0926"
  xmlns="http://www.w3.org/2000/svg">
    <title>MH 121 8.76%</title>
    <path 
      vector-effect="non-scaling-stroke"
      d="M1,-0L0.9967,-0.0009L0.9875,-0.0035L0.9734,-0.0077L0.9547,-0.0126L0.9313,-0.0179L0.9034,-0.0237L0.8713,-0.0299L0.8357,-0.0365L0.797,-0.0432L0.756,-0.0497L0.713,-0.0556L0.6683,-0.0604L0.6219,-0.064L0.5743,-0.0665L0.5257,-0.068L0.4766,-0.0684L0.4276,-0.068L0.3792,-0.0667L0.3319,-0.0645L0.2862,-0.0616L0.2425,-0.0579L0.2012,-0.0535L0.1629,-0.0486L0.128,-0.0432L0.0966,-0.0374L0.0693,-0.0313L0.0463,-0.025L0.0278,-0.0187L0.0139,-0.0125L0.0048,-0.0066L0.0024,-0.0043L0.0012,-0.0027L0.0003,-0.0013L0.0001,-0.0004L0,0.0003L0.0003,0.001L0.001,0.0017L0.0024,0.0028L0.0042,0.0039L0.0093,0.0062L0.0221,0.01L0.04,0.0133L0.0629,0.0162L0.0906,0.0187L0.1227,0.0208L0.1587,0.0225L0.1983,0.0236L0.241,0.0242L0.2862,0.0241L0.3336,0.0229L0.383,0.0207L0.4342,0.0175L0.4868,0.0137L0.5403,0.0096L0.5942,0.0055L0.6476,0.0017L0.6998,-0.0015L0.7501,-0.004L0.7976,-0.0058L0.8417,-0.0067L0.8815,-0.0068L0.9164,-0.0062L0.9459,-0.005L0.9693,-0.0034L0.9863,-0.0018L0.9966,-0.0005L1,-0"
    />
</svg>
