
<svg 
  class="airfoil-mh120"
  fill="none"
  stroke="black" 
  stroke-width="1"
  style="overflow:visible"
  viewBox="0, -0.0615, 1, 0.0853"
  xmlns="http://www.w3.org/2000/svg">
    <title>MH 120 8.0%</title>
    <path 
      vector-effect="non-scaling-stroke"
      d="M1,-0L0.9968,-0.0008L0.9878,-0.0034L0.974,-0.0074L0.9556,-0.012L0.9326,-0.0167L0.9049,-0.0218L0.873,-0.0272L0.8373,-0.033L0.7986,-0.0388L0.7572,-0.0445L0.7138,-0.0497L0.6685,-0.054L0.6216,-0.0574L0.5734,-0.0597L0.5244,-0.061L0.4749,-0.0615L0.4256,-0.0611L0.3768,-0.06L0.3292,-0.0581L0.2833,-0.0555L0.2394,-0.0522L0.1982,-0.0483L0.1599,-0.0438L0.1249,-0.0389L0.0938,-0.0337L0.0667,-0.0281L0.0439,-0.0225L0.0257,-0.0168L0.0123,-0.0111L0.0038,-0.0056L0,-0.0008L0.0018,0.0032L0.0097,0.0069L0.0228,0.0105L0.0409,0.0136L0.064,0.0164L0.0919,0.0187L0.1241,0.0207L0.1602,0.0223L0.1999,0.0233L0.2426,0.0238L0.2879,0.0235L0.3353,0.0222L0.3847,0.02L0.4359,0.0167L0.4884,0.0128L0.5419,0.0087L0.5956,0.0046L0.6489,0.0008L0.701,-0.0024L0.7512,-0.0049L0.7986,-0.0066L0.8425,-0.0074L0.8822,-0.0075L0.9171,-0.0067L0.9464,-0.0054L0.9698,-0.0037L0.9866,-0.0019L0.9966,-0.0005L1,-0"
    />
</svg>
