
<svg 
  class="airfoil-mh126"
  fill="none"
  stroke="black" 
  stroke-width="1"
  style="overflow:visible"
  viewBox="0.0003, -0.2011, 0.9997, 0.257"
  xmlns="http://www.w3.org/2000/svg">
    <title>MH 126 25.0%</title>
    <path 
      vector-effect="non-scaling-stroke"
      d="M1,-0L0.9956,-0.0011L0.983,-0.0047L0.9631,-0.0115L0.9372,-0.0218L0.9064,-0.0352L0.872,-0.0513L0.8349,-0.0693L0.7958,-0.0885L0.7552,-0.1079L0.7136,-0.1268L0.6713,-0.1445L0.6284,-0.1603L0.585,-0.1739L0.5414,-0.1849L0.4976,-0.1931L0.4538,-0.1985L0.4102,-0.2011L0.3672,-0.2009L0.325,-0.1981L0.284,-0.1928L0.2446,-0.1853L0.2073,-0.1755L0.1722,-0.1637L0.1398,-0.1501L0.1102,-0.1349L0.0838,-0.1184L0.0607,-0.1009L0.0412,-0.0827L0.0253,-0.0642L0.0133,-0.0456L0.0051,-0.0274L0.0008,-0.0101L0.0003,0.0057L0.0038,0.0187L0.0132,0.0287L0.0291,0.0367L0.0507,0.0434L0.0776,0.0486L0.1095,0.0524L0.146,0.0548L0.1868,0.0559L0.2314,0.0557L0.2794,0.0543L0.3302,0.0519L0.3833,0.0486L0.4382,0.0445L0.494,0.0398L0.5503,0.0347L0.6063,0.0294L0.6612,0.024L0.7145,0.0186L0.7654,0.0133L0.8135,0.0085L0.8579,0.0044L0.8979,0.0013L0.9326,-0.0007L0.9611,-0.0014L0.9823,-0.0012L0.9955,-0.0004L1,-0"
    />
</svg>
