
<svg 
  class="airfoil-mh122"
  fill="none"
  stroke="black" 
  stroke-width="1"
  style="overflow:visible"
  viewBox="0, -0.0763, 1, 0.09900001"
  xmlns="http://www.w3.org/2000/svg">
    <title>MH 122 9.32%</title>
    <path 
      vector-effect="non-scaling-stroke"
      d="M1,-0L0.9967,-0.0009L0.9875,-0.0039L0.9733,-0.0085L0.9547,-0.0138L0.9313,-0.0196L0.9034,-0.026L0.8714,-0.0329L0.836,-0.0402L0.7976,-0.0477L0.7569,-0.0549L0.7143,-0.0614L0.6699,-0.0668L0.624,-0.0709L0.5767,-0.0738L0.5284,-0.0756L0.4796,-0.0763L0.4309,-0.076L0.3827,-0.0747L0.3355,-0.0726L0.2899,-0.0695L0.2462,-0.0657L0.205,-0.0611L0.1666,-0.0558L0.1315,-0.05L0.1,-0.0438L0.0724,-0.0372L0.0491,-0.0303L0.0303,-0.0233L0.016,-0.0162L0.0062,-0.0093L0.0019,-0.0045L0.0008,-0.0028L0.0002,-0.0012L0,-0.0002L0.0001,0.0006L0.0005,0.0014L0.0012,0.0021L0.0027,0.0033L0.0047,0.0044L0.0069,0.0054L0.0186,0.0092L0.0355,0.0125L0.0577,0.0153L0.0847,0.0177L0.1163,0.0197L0.1519,0.0212L0.1912,0.0222L0.2337,0.0227L0.2789,0.0224L0.3264,0.021L0.3759,0.0187L0.4274,0.0154L0.4803,0.0115L0.5343,0.0073L0.5887,0.0033L0.6427,-0.0004L0.6955,-0.0036L0.7464,-0.006L0.7946,-0.0075L0.8392,-0.0082L0.8797,-0.0081L0.9151,-0.0072L0.9451,-0.0057L0.9689,-0.0039L0.9861,-0.002L0.9965,-0.0006L1,-0"
    />
</svg>
