
<svg 
  class="airfoil-mh150"
  fill="none"
  stroke="black" 
  stroke-width="1"
  style="overflow:visible"
  viewBox="0.0001, -0.1676, 0.9999, 0.2437"
  xmlns="http://www.w3.org/2000/svg">
    <title>MH 150 23.89%</title>
    <path 
      vector-effect="non-scaling-stroke"
      d="M1,-0L0.9964,-0.001L0.986,-0.0041L0.9692,-0.0094L0.9467,-0.0169L0.9192,-0.0262L0.887,-0.0371L0.8509,-0.0494L0.8114,-0.0628L0.7693,-0.0768L0.7251,-0.0911L0.6793,-0.1053L0.6326,-0.1188L0.5853,-0.1313L0.5379,-0.1424L0.4908,-0.1518L0.4443,-0.1592L0.399,-0.1645L0.355,-0.1673L0.3127,-0.1676L0.2724,-0.1653L0.2342,-0.1602L0.1981,-0.1526L0.1644,-0.1426L0.1332,-0.1306L0.1048,-0.1169L0.0795,-0.1017L0.0574,-0.0855L0.0385,-0.0685L0.0232,-0.0512L0.0116,-0.0342L0.0038,-0.0179L0.0001,-0.0029L0.0016,0.0096L0.0092,0.0208L0.0225,0.0319L0.0404,0.0425L0.0626,0.0521L0.0888,0.0605L0.1188,0.0673L0.1523,0.0723L0.189,0.0754L0.2287,0.0761L0.2715,0.0743L0.3173,0.0703L0.3657,0.0646L0.4164,0.0572L0.4688,0.0485L0.5226,0.0386L0.5772,0.028L0.6322,0.0171L0.6871,0.0064L0.7414,-0.0036L0.7945,-0.0121L0.8456,-0.018L0.8934,-0.0197L0.9343,-0.0162L0.9649,-0.01L0.9851,-0.0044L0.9964,-0.0011L1,-0"
    />
</svg>
