
<svg 
  class="airfoil-mh18"
  fill="none"
  stroke="black" 
  stroke-width="1"
  style="overflow:visible"
  viewBox="0, -0.0838, 1, 0.112"
  xmlns="http://www.w3.org/2000/svg">
    <title>MH 18 11.16%</title>
    <path 
      vector-effect="non-scaling-stroke"
      d="M1,-0L0.9964,0L0.9857,-0.0002L0.968,-0.0012L0.9439,-0.0037L0.9143,-0.0079L0.8802,-0.0136L0.8423,-0.0207L0.8012,-0.0287L0.7576,-0.0373L0.7121,-0.0461L0.6653,-0.0548L0.6177,-0.063L0.5699,-0.0704L0.5221,-0.0763L0.4745,-0.0803L0.427,-0.0828L0.38,-0.0838L0.3342,-0.0835L0.2899,-0.082L0.2477,-0.0791L0.2079,-0.075L0.1708,-0.0697L0.1366,-0.0633L0.1058,-0.056L0.0785,-0.0479L0.055,-0.0393L0.0355,-0.0305L0.02,-0.0216L0.0088,-0.0131L0.0021,-0.0054L0.0009,-0.0033L0.0002,-0.0014L0,-0.0003L0.0001,0.0007L0.0005,0.0016L0.0012,0.0026L0.0028,0.0041L0.0049,0.0056L0.0151,0.0106L0.0305,0.0152L0.051,0.0191L0.0763,0.0222L0.1065,0.0247L0.1411,0.0264L0.18,0.0275L0.2227,0.0281L0.2686,0.0282L0.3174,0.028L0.3682,0.0276L0.4207,0.0269L0.474,0.0259L0.5276,0.0248L0.581,0.0234L0.6334,0.0219L0.6842,0.0202L0.733,0.0185L0.779,0.0166L0.8218,0.0147L0.8609,0.0127L0.8958,0.0107L0.926,0.0086L0.9513,0.0064L0.9715,0.004L0.9867,0.0018L0.9966,0.0004L1,-0"
    />
</svg>
