
<svg 
  class="airfoil-mh20"
  fill="none"
  stroke="black" 
  stroke-width="1"
  style="overflow:visible"
  viewBox="0, -0.0653, 1, 0.090500005"
  xmlns="http://www.w3.org/2000/svg">
    <title>MH 20 9.01%</title>
    <path 
      vector-effect="non-scaling-stroke"
      d="M1,-0L0.9966,0L0.9866,-0.0002L0.9702,-0.0008L0.9476,-0.0023L0.9195,-0.0048L0.8865,-0.0083L0.8491,-0.0128L0.8081,-0.0182L0.764,-0.0243L0.7176,-0.0309L0.6696,-0.0378L0.6205,-0.0446L0.5712,-0.0511L0.522,-0.0565L0.473,-0.0606L0.4244,-0.0633L0.3765,-0.0648L0.3299,-0.0653L0.2851,-0.0647L0.2425,-0.0629L0.2024,-0.06L0.1653,-0.056L0.1313,-0.051L0.1007,-0.0452L0.0738,-0.0386L0.0509,-0.0315L0.032,-0.0241L0.0173,-0.0166L0.007,-0.0095L0.0023,-0.0048L0.0011,-0.003L0.0003,-0.0014L0,-0.0004L0,0.0004L0.0004,0.0012L0.001,0.002L0.0025,0.0033L0.0044,0.0047L0.0066,0.006L0.0177,0.0105L0.0338,0.0146L0.0548,0.0181L0.0806,0.0208L0.1111,0.0228L0.146,0.0242L0.185,0.0249L0.2278,0.0252L0.2738,0.0251L0.3225,0.0248L0.3732,0.0242L0.4254,0.0233L0.4785,0.0223L0.5319,0.0211L0.5849,0.0198L0.637,0.0183L0.6875,0.0168L0.7359,0.0151L0.7816,0.0135L0.824,0.0118L0.8628,0.0101L0.8973,0.0084L0.9273,0.0067L0.9524,0.0049L0.9723,0.003L0.9872,0.0013L0.9967,0.0003L1,-0"
    />
</svg>
