
<svg 
  class="airfoil-mh200"
  fill="none"
  stroke="black" 
  stroke-width="1"
  style="overflow:visible"
  viewBox="0, -0.0854, 1, 0.13"
  xmlns="http://www.w3.org/2000/svg">
    <title>MH 200 12.97%</title>
    <path 
      vector-effect="non-scaling-stroke"
      d="M1,-0L0.9965,-0.0007L0.9865,-0.0029L0.9708,-0.0067L0.9499,-0.0114L0.924,-0.0168L0.8934,-0.0231L0.8585,-0.0302L0.8201,-0.0379L0.7788,-0.046L0.7352,-0.0543L0.6899,-0.0624L0.6437,-0.0697L0.5967,-0.0757L0.5487,-0.08L0.5002,-0.0831L0.4515,-0.0849L0.4032,-0.0854L0.3557,-0.0848L0.3096,-0.0831L0.2653,-0.0803L0.2233,-0.0764L0.184,-0.0715L0.1478,-0.0657L0.1151,-0.0591L0.0861,-0.0516L0.0611,-0.0434L0.0402,-0.0348L0.0235,-0.0259L0.0112,-0.017L0.0034,-0.0086L0.0015,-0.0054L0.0006,-0.0031L0.0001,-0.001L0,0.0003L0.0002,0.0014L0.0007,0.0024L0.0016,0.0035L0.0034,0.0052L0.0057,0.0068L0.0119,0.0103L0.0263,0.0162L0.0457,0.0218L0.0698,0.027L0.0983,0.0317L0.1311,0.0357L0.1678,0.0389L0.208,0.0415L0.2514,0.0432L0.2974,0.0443L0.3456,0.0446L0.3953,0.0442L0.4462,0.043L0.4976,0.041L0.5489,0.0383L0.5996,0.0347L0.6494,0.03L0.698,0.0244L0.7456,0.0181L0.7916,0.0121L0.8352,0.0069L0.8754,0.0028L0.9114,-0L0.9424,-0.0015L0.9673,-0.0017L0.9854,-0.0011L0.9964,-0.0003L1,-0"
    />
</svg>
