
<svg 
  class="airfoil-mh201"
  fill="none"
  stroke="black" 
  stroke-width="1"
  style="overflow:visible"
  viewBox="0, -0.0907, 1, 0.1311"
  xmlns="http://www.w3.org/2000/svg">
    <title>MH 201 13.08%</title>
    <path 
      vector-effect="non-scaling-stroke"
      d="M1,-0L0.9966,-0.001L0.9869,-0.0039L0.972,-0.0085L0.9523,-0.014L0.9277,-0.0201L0.8984,-0.0267L0.8649,-0.0339L0.8276,-0.0416L0.7872,-0.0495L0.7442,-0.0574L0.6992,-0.0651L0.6528,-0.0722L0.6053,-0.0783L0.5569,-0.0831L0.5079,-0.0868L0.4589,-0.0893L0.4103,-0.0906L0.3626,-0.0907L0.3163,-0.0896L0.2718,-0.0873L0.2296,-0.0839L0.1901,-0.0793L0.1536,-0.0736L0.1206,-0.067L0.0912,-0.0594L0.0657,-0.051L0.0442,-0.0419L0.027,-0.0324L0.014,-0.0227L0.0052,-0.0131L0.0009,-0.0048L0.0002,-0.0024L0,-0.0001L0.0001,0.0013L0.0004,0.0025L0.0011,0.0036L0.0021,0.0047L0.0041,0.0064L0.0067,0.0081L0.02,0.0143L0.0377,0.0198L0.0603,0.0248L0.0875,0.0292L0.1192,0.0329L0.1549,0.0358L0.1944,0.0381L0.2373,0.0395L0.283,0.0403L0.3309,0.0404L0.3807,0.0398L0.4317,0.0384L0.4834,0.0363L0.5352,0.0334L0.5865,0.0297L0.637,0.0249L0.6865,0.0191L0.7352,0.0126L0.7826,0.0064L0.8279,0.0013L0.8699,-0.0025L0.9077,-0.0046L0.9403,-0.0051L0.9664,-0.004L0.9852,-0.0022L0.9963,-0.0006L1,-0"
    />
</svg>
