
<svg 
  class="airfoil-mh22"
  fill="none"
  stroke="black" 
  stroke-width="1"
  style="overflow:visible"
  viewBox="0, -0.0537, 1, 0.0731"
  xmlns="http://www.w3.org/2000/svg">
    <title>MH 22 7.2%</title>
    <path 
      vector-effect="non-scaling-stroke"
      d="M1,-0L0.9968,-0.0001L0.9873,-0.0007L0.972,-0.0017L0.9511,-0.0033L0.9249,-0.0053L0.8937,-0.0079L0.8579,-0.011L0.8182,-0.0147L0.775,-0.0189L0.729,-0.0235L0.6808,-0.0285L0.6311,-0.0338L0.5807,-0.0391L0.5304,-0.044L0.4804,-0.0479L0.4307,-0.0507L0.3819,-0.0526L0.3345,-0.0536L0.2889,-0.0537L0.2456,-0.0528L0.205,-0.0508L0.1673,-0.0478L0.1329,-0.0438L0.102,-0.039L0.0748,-0.0335L0.0516,-0.0275L0.0325,-0.0211L0.0176,-0.0146L0.0072,-0.0084L0.0024,-0.0043L0.0012,-0.0027L0.0004,-0.0013L0.0001,-0.0004L0,0.0003L0.0003,0.001L0.0009,0.0017L0.0023,0.0028L0.0041,0.004L0.0062,0.0051L0.0169,0.009L0.0325,0.0124L0.053,0.0152L0.0784,0.0172L0.1085,0.0185L0.1431,0.0192L0.1819,0.0194L0.2245,0.0191L0.2704,0.0186L0.319,0.0178L0.3698,0.0169L0.4221,0.0158L0.4754,0.0147L0.5289,0.0135L0.5822,0.0123L0.6345,0.0111L0.6854,0.0099L0.7341,0.0087L0.7801,0.0075L0.8229,0.0064L0.8619,0.0054L0.8968,0.0044L0.9271,0.0035L0.9524,0.0025L0.9726,0.0015L0.9875,0.0006L0.9968,0.0001L1,-0"
    />
</svg>
