
<svg 
  class="airfoil-mh23"
  fill="none"
  stroke="black" 
  stroke-width="1"
  style="overflow:visible"
  viewBox="0, -0.0527, 1, 0.079900004"
  xmlns="http://www.w3.org/2000/svg">
    <title>MH 23 8%</title>
    <path 
      vector-effect="non-scaling-stroke"
      d="M1,-0L0.9965,-0.0002L0.9864,-0.0011L0.97,-0.003L0.948,-0.0061L0.9212,-0.0105L0.8903,-0.0158L0.8561,-0.0215L0.8188,-0.0269L0.7783,-0.0316L0.7348,-0.0359L0.6888,-0.0399L0.6408,-0.0433L0.5913,-0.0463L0.5409,-0.0488L0.4901,-0.0507L0.4395,-0.052L0.3895,-0.0527L0.3409,-0.0527L0.2939,-0.0519L0.2492,-0.0504L0.2072,-0.0482L0.1683,-0.0453L0.1328,-0.0416L0.1011,-0.0372L0.0734,-0.0322L0.05,-0.0267L0.0309,-0.0207L0.0163,-0.0146L0.0063,-0.0085L0.0019,-0.0042L0.0008,-0.0026L0.0002,-0.0011L0,-0.0002L0.0001,0.0006L0.0005,0.0013L0.0012,0.002L0.0027,0.0031L0.0047,0.0043L0.0067,0.0053L0.0182,0.0093L0.0348,0.013L0.0563,0.0163L0.0826,0.0192L0.1137,0.0215L0.149,0.0234L0.1883,0.0249L0.231,0.0261L0.2767,0.0269L0.3249,0.0272L0.3751,0.0272L0.4268,0.0268L0.4793,0.0261L0.5321,0.0252L0.5845,0.0241L0.6359,0.0227L0.6859,0.0211L0.7337,0.0193L0.7788,0.0174L0.8209,0.0152L0.8593,0.0128L0.8939,0.0103L0.9241,0.0078L0.9497,0.0052L0.9707,0.0028L0.9865,0.001L0.9965,0.0002L1,-0"
    />
</svg>
