
<svg 
  class="airfoil-mh24"
  fill="none"
  stroke="black" 
  stroke-width="1"
  style="overflow:visible"
  viewBox="0, -0.0581, 1, 0.09"
  xmlns="http://www.w3.org/2000/svg">
    <title>MH 24 9.01%</title>
    <path 
      vector-effect="non-scaling-stroke"
      d="M1,-0L0.9965,-0.0004L0.9863,-0.0016L0.97,-0.0041L0.9481,-0.0078L0.9215,-0.0128L0.8909,-0.0188L0.8571,-0.0251L0.8202,-0.0309L0.78,-0.0361L0.7369,-0.0408L0.6912,-0.045L0.6434,-0.0487L0.5942,-0.0518L0.544,-0.0544L0.4934,-0.0563L0.4428,-0.0576L0.393,-0.0581L0.3443,-0.0579L0.2974,-0.057L0.2526,-0.0552L0.2104,-0.0527L0.1713,-0.0493L0.1356,-0.0452L0.1036,-0.0404L0.0756,-0.035L0.0518,-0.029L0.0323,-0.0226L0.0174,-0.016L0.007,-0.0095L0.0019,-0.0045L0.0008,-0.0027L0.0002,-0.0012L0,-0.0002L0.0001,0.0006L0.0005,0.0014L0.0012,0.0022L0.0027,0.0034L0.0048,0.0047L0.0062,0.0054L0.0174,0.0098L0.0337,0.0139L0.055,0.0176L0.0812,0.0209L0.1121,0.0237L0.1473,0.026L0.1864,0.028L0.229,0.0296L0.2745,0.0308L0.3226,0.0315L0.3726,0.0319L0.4241,0.0318L0.4763,0.0315L0.5289,0.0307L0.581,0.0297L0.6322,0.0283L0.6818,0.0266L0.7292,0.0245L0.7741,0.0221L0.8157,0.0192L0.8541,0.0157L0.8891,0.0119L0.9203,0.0082L0.9471,0.005L0.9691,0.0024L0.9859,0.0008L0.9964,0.0001L1,-0"
    />
</svg>
