
<svg 
  class="airfoil-mh25"
  fill="none"
  stroke="black" 
  stroke-width="1"
  style="overflow:visible"
  viewBox="0, -0.0646, 1, 0.0999"
  xmlns="http://www.w3.org/2000/svg">
    <title>MH 25 9.98%</title>
    <path 
      vector-effect="non-scaling-stroke"
      d="M1,-0L0.9964,-0.0004L0.9857,-0.002L0.9689,-0.0052L0.9469,-0.0099L0.9204,-0.016L0.8901,-0.0228L0.8567,-0.0299L0.8202,-0.0363L0.7805,-0.0419L0.7377,-0.047L0.6924,-0.0515L0.645,-0.0553L0.5961,-0.0586L0.5461,-0.0612L0.4957,-0.0631L0.4454,-0.0642L0.3957,-0.0646L0.3471,-0.0641L0.3002,-0.0628L0.2554,-0.0607L0.2131,-0.0577L0.1739,-0.0539L0.138,-0.0493L0.1058,-0.044L0.0775,-0.038L0.0534,-0.0316L0.0336,-0.0247L0.0183,-0.0176L0.0076,-0.0106L0.0019,-0.0047L0.0008,-0.0029L0.0002,-0.0012L0,-0.0002L0.0001,0.0007L0.0005,0.0015L0.0012,0.0024L0.0028,0.0037L0.0049,0.0051L0.0167,0.0101L0.0328,0.0146L0.054,0.0186L0.0801,0.0222L0.1109,0.0253L0.146,0.028L0.185,0.0303L0.2275,0.0321L0.2731,0.0336L0.3211,0.0346L0.3711,0.0351L0.4225,0.0353L0.4747,0.035L0.5272,0.0344L0.5793,0.0333L0.6305,0.0319L0.6801,0.0302L0.7276,0.028L0.7724,0.0254L0.814,0.0223L0.8523,0.0183L0.8874,0.014L0.9187,0.0098L0.9458,0.006L0.9682,0.0029L0.9854,0.0009L0.9962,0.0001L1,-0"
    />
</svg>
