
<svg 
  class="airfoil-mh26"
  fill="none"
  stroke="black" 
  stroke-width="1"
  style="overflow:visible"
  viewBox="0, -0.0701, 1, 0.1099"
  xmlns="http://www.w3.org/2000/svg">
    <title>MH 26 10.99%</title>
    <path 
      vector-effect="non-scaling-stroke"
      d="M1,-0L0.996,-0.0005L0.9847,-0.0025L0.9674,-0.0065L0.9452,-0.0123L0.9187,-0.0193L0.8887,-0.0269L0.8556,-0.0346L0.8194,-0.0415L0.78,-0.0475L0.7375,-0.0528L0.6924,-0.0574L0.6452,-0.0614L0.5965,-0.0647L0.5467,-0.0672L0.4964,-0.069L0.4462,-0.0699L0.3966,-0.0701L0.348,-0.0693L0.3011,-0.0677L0.2563,-0.0652L0.214,-0.0618L0.1747,-0.0576L0.1388,-0.0525L0.1064,-0.0468L0.0781,-0.0403L0.0538,-0.0334L0.034,-0.0261L0.0185,-0.0186L0.0077,-0.0112L0.0019,-0.0049L0.0008,-0.003L0.0002,-0.0012L0,-0.0002L0.0001,0.0008L0.0005,0.0016L0.0013,0.0025L0.0029,0.004L0.005,0.0054L0.0169,0.0108L0.0332,0.0157L0.0545,0.0201L0.0807,0.0242L0.1116,0.0277L0.1468,0.0308L0.1859,0.0336L0.2284,0.0358L0.2739,0.0376L0.3218,0.0388L0.3717,0.0396L0.4231,0.0398L0.4752,0.0396L0.5277,0.0389L0.5797,0.0378L0.6308,0.0363L0.6804,0.0344L0.7278,0.032L0.7726,0.0291L0.8142,0.0257L0.8524,0.0215L0.8873,0.0169L0.9184,0.0124L0.9452,0.0079L0.9676,0.0041L0.985,0.0015L0.9961,0.0002L1,-0"
    />
</svg>
