
<svg 
  class="airfoil-mh27"
  fill="none"
  stroke="black" 
  stroke-width="1"
  style="overflow:visible"
  viewBox="0, -0.0749, 1, 0.1198"
  xmlns="http://www.w3.org/2000/svg">
    <title>MH 27 11.99%</title>
    <path 
      vector-effect="non-scaling-stroke"
      d="M1,-0L0.9957,-0.0006L0.984,-0.0032L0.9664,-0.0081L0.9442,-0.0146L0.918,-0.0223L0.8882,-0.0305L0.8553,-0.0386L0.8193,-0.0459L0.7801,-0.0522L0.7377,-0.0577L0.6928,-0.0625L0.6457,-0.0666L0.5971,-0.0699L0.5474,-0.0724L0.4972,-0.0741L0.447,-0.0749L0.3974,-0.0749L0.3489,-0.0739L0.3019,-0.0719L0.2571,-0.0691L0.2148,-0.0654L0.1754,-0.0608L0.1394,-0.0554L0.1069,-0.0492L0.0785,-0.0424L0.0541,-0.035L0.0342,-0.0273L0.0186,-0.0194L0.0077,-0.0116L0.0019,-0.0052L0.0008,-0.0032L0.0002,-0.0013L0,-0.0002L0.0001,0.0008L0.0005,0.0018L0.0013,0.0027L0.0029,0.0042L0.0051,0.0058L0.0059,0.0064L0.0172,0.0117L0.0337,0.017L0.0552,0.0219L0.0815,0.0264L0.1125,0.0304L0.1478,0.034L0.187,0.0371L0.2295,0.0398L0.275,0.0419L0.3229,0.0435L0.3728,0.0445L0.4241,0.0449L0.4762,0.0449L0.5285,0.0443L0.5804,0.0432L0.6313,0.0416L0.6807,0.0396L0.728,0.037L0.7725,0.0339L0.8139,0.0301L0.852,0.0255L0.8866,0.0204L0.9175,0.0152L0.9442,0.01L0.9667,0.0053L0.9844,0.0019L0.9959,0.0003L1,-0"
    />
</svg>
