
<svg 
  class="airfoil-mh30"
  fill="none"
  stroke="black" 
  stroke-width="1"
  style="overflow:visible"
  viewBox="0, -0.0558, 1, 0.0796"
  xmlns="http://www.w3.org/2000/svg">
    <title>MH 30 7.84%</title>
    <path 
      vector-effect="non-scaling-stroke"
      d="M1,-0L0.9968,-0.0003L0.9872,-0.0012L0.9717,-0.003L0.9507,-0.0056L0.9246,-0.0091L0.8941,-0.0132L0.8594,-0.0179L0.8212,-0.023L0.7799,-0.0281L0.736,-0.0332L0.6898,-0.0379L0.6418,-0.0422L0.5924,-0.046L0.5421,-0.0493L0.4916,-0.052L0.4413,-0.054L0.3917,-0.0553L0.3434,-0.0558L0.2969,-0.0555L0.2525,-0.0543L0.2107,-0.0523L0.172,-0.0494L0.1366,-0.0457L0.1049,-0.0412L0.0771,-0.0359L0.0534,-0.03L0.0339,-0.0236L0.0188,-0.017L0.008,-0.0103L0.002,-0.0046L0.0009,-0.0029L0.0002,-0.0013L0,-0.0003L0,0.0005L0.0004,0.0013L0.0011,0.0021L0.0025,0.0033L0.0044,0.0046L0.015,0.0091L0.0302,0.0131L0.0502,0.0165L0.075,0.0193L0.1044,0.0214L0.1381,0.0228L0.176,0.0236L0.2175,0.0238L0.2623,0.0235L0.3099,0.0227L0.3598,0.0215L0.4114,0.02L0.4642,0.0183L0.5175,0.0163L0.5709,0.0142L0.6235,0.0121L0.6749,0.0101L0.7244,0.0081L0.7715,0.0062L0.8156,0.0046L0.856,0.0032L0.8923,0.0021L0.924,0.0013L0.9506,0.0007L0.9718,0.0004L0.9872,0.0001L0.9967,0L1,-0"
    />
</svg>
