
<svg 
  class="airfoil-mh32"
  fill="none"
  stroke="black" 
  stroke-width="1"
  style="overflow:visible"
  viewBox="0, -0.0666, 1, 0.0888"
  xmlns="http://www.w3.org/2000/svg">
    <title>MH 32 8.7%</title>
    <path 
      vector-effect="non-scaling-stroke"
      d="M1,-0L0.9967,-0.0003L0.9871,-0.0015L0.9715,-0.0036L0.9504,-0.0068L0.9242,-0.0109L0.8936,-0.0158L0.859,-0.0213L0.8209,-0.0272L0.7798,-0.0333L0.7361,-0.0392L0.6902,-0.0448L0.6426,-0.0499L0.5936,-0.0545L0.5438,-0.0585L0.4938,-0.0619L0.4441,-0.0644L0.3951,-0.066L0.3474,-0.0666L0.3014,-0.0662L0.2575,-0.0648L0.216,-0.0623L0.1775,-0.0589L0.1422,-0.0544L0.1103,-0.0491L0.0822,-0.0429L0.0581,-0.0361L0.038,-0.0288L0.0221,-0.0212L0.0104,-0.0136L0.003,-0.0065L0.0018,-0.0048L0.0008,-0.0029L0.0002,-0.0012L0,-0.0002L0.0001,0.0007L0.0005,0.0015L0.0012,0.0024L0.0027,0.0037L0.0048,0.0049L0.0119,0.0081L0.026,0.012L0.0452,0.0153L0.0693,0.018L0.098,0.0201L0.1312,0.0214L0.1686,0.0221L0.2099,0.0222L0.2545,0.0217L0.302,0.0207L0.352,0.0194L0.4038,0.0178L0.4569,0.0159L0.5106,0.0139L0.5644,0.0118L0.6176,0.0097L0.6696,0.0077L0.7198,0.0058L0.7675,0.0042L0.8122,0.0027L0.8533,0.0016L0.8903,0.0007L0.9225,0.0002L0.9497,-0.0001L0.9713,-0.0002L0.987,-0.0001L0.9967,-0L1,-0"
    />
</svg>
