
<svg 
  class="airfoil-mh33"
  fill="none"
  stroke="black" 
  stroke-width="1"
  style="overflow:visible"
  viewBox="0, -0.0468, 1, 0.0729"
  xmlns="http://www.w3.org/2000/svg">
    <title>MH 33</title>
    <path 
      vector-effect="non-scaling-stroke"
      d="M1,-0L0.9968,-0.0003L0.9873,-0.0012L0.9719,-0.003L0.9513,-0.0056L0.9257,-0.0088L0.8956,-0.0125L0.8615,-0.0163L0.8236,-0.0203L0.7823,-0.0242L0.738,-0.028L0.6913,-0.0316L0.6426,-0.035L0.5925,-0.0382L0.5415,-0.0409L0.4902,-0.0432L0.4391,-0.045L0.3889,-0.0462L0.3399,-0.0468L0.2928,-0.0468L0.248,-0.046L0.206,-0.0445L0.1671,-0.0422L0.1317,-0.0392L0.1001,-0.0354L0.0726,-0.0309L0.0493,-0.0258L0.0305,-0.0203L0.0161,-0.0143L0.0062,-0.0084L0.0009,-0.0028L0.0003,-0.0016L0,-0.0005L0,0.0005L0.0005,0.0015L0.0015,0.0025L0.0065,0.0057L0.0176,0.01L0.0336,0.0141L0.0544,0.0176L0.0799,0.0205L0.11,0.0228L0.1443,0.0245L0.1826,0.0256L0.2244,0.0261L0.2694,0.0261L0.3171,0.0257L0.3669,0.0248L0.4184,0.0237L0.4709,0.0222L0.5239,0.0206L0.5767,0.0188L0.6288,0.0168L0.6794,0.0149L0.7281,0.0129L0.7743,0.011L0.8173,0.0091L0.8567,0.0072L0.8921,0.0053L0.9232,0.0034L0.9497,0.0019L0.9711,0.0007L0.9869,0.0001L0.9967,0L1,-0"
    />
</svg>
