
<svg 
  class="airfoil-mh38"
  fill="none"
  stroke="black" 
  stroke-width="1"
  style="overflow:visible"
  viewBox="0, -0.0857, 1, 0.1055"
  xmlns="http://www.w3.org/2000/svg">
    <title>MH 38 9.68%</title>
    <path 
      vector-effect="non-scaling-stroke"
      d="M1,-0L0.9968,-0.0005L0.9874,-0.0021L0.9722,-0.0046L0.9514,-0.0082L0.9255,-0.0128L0.8949,-0.0184L0.8602,-0.0248L0.8218,-0.0319L0.7804,-0.0396L0.7366,-0.0475L0.691,-0.0555L0.6442,-0.0631L0.5966,-0.0701L0.5488,-0.0761L0.5009,-0.0807L0.4534,-0.0839L0.4064,-0.0856L0.3604,-0.0857L0.3156,-0.0845L0.2726,-0.0819L0.2316,-0.078L0.193,-0.0729L0.1571,-0.0668L0.1244,-0.0597L0.095,-0.0519L0.0692,-0.0435L0.0472,-0.0348L0.0292,-0.026L0.0153,-0.0175L0.0058,-0.0095L0.0024,-0.0054L0.0011,-0.0034L0.0003,-0.0016L0,-0.0005L0,0.0005L0.0004,0.0014L0.001,0.0023L0.0024,0.0038L0.0042,0.0052L0.0077,0.0073L0.0193,0.0118L0.0358,0.0154L0.0572,0.018L0.0835,0.0194L0.1147,0.0198L0.1505,0.0193L0.1907,0.0181L0.2346,0.0163L0.282,0.0141L0.3323,0.0116L0.3847,0.009L0.4389,0.0063L0.494,0.0037L0.5495,0.0014L0.6045,-0.0006L0.6584,-0.0023L0.7104,-0.0035L0.76,-0.0042L0.8063,-0.0046L0.8488,-0.0045L0.887,-0.0042L0.9203,-0.0035L0.9483,-0.0027L0.9705,-0.0019L0.9868,-0.001L0.9967,-0.0003L1,-0"
    />
</svg>
