
<svg 
  class="airfoil-mh42"
  fill="none"
  stroke="black" 
  stroke-width="1"
  style="overflow:visible"
  viewBox="0, -0.0632, 1, 0.0901"
  xmlns="http://www.w3.org/2000/svg">
    <title>MH 42 8.94%</title>
    <path 
      vector-effect="non-scaling-stroke"
      d="M1,-0L0.9967,-0.0002L0.987,-0.0008L0.9712,-0.0021L0.9496,-0.0041L0.9227,-0.0069L0.891,-0.0106L0.8549,-0.0149L0.8151,-0.0198L0.7721,-0.0253L0.7265,-0.031L0.6788,-0.0368L0.6297,-0.0426L0.5798,-0.0481L0.5296,-0.053L0.4796,-0.0571L0.4301,-0.0603L0.3816,-0.0623L0.3345,-0.0632L0.2892,-0.063L0.2461,-0.0616L0.2055,-0.0591L0.1677,-0.0556L0.1333,-0.0511L0.1023,-0.0457L0.0751,-0.0396L0.0519,-0.0329L0.0328,-0.0258L0.018,-0.0184L0.0076,-0.0111L0.0019,-0.0049L0.0008,-0.003L0.0002,-0.0013L0,-0.0002L0.0001,0.0007L0.0005,0.0015L0.0012,0.0024L0.0026,0.0038L0.0046,0.0053L0.0158,0.0104L0.0313,0.0147L0.0516,0.0186L0.0766,0.0218L0.1061,0.0242L0.14,0.0257L0.178,0.0266L0.2198,0.0269L0.2648,0.0267L0.3126,0.026L0.3626,0.025L0.4143,0.0235L0.4671,0.0218L0.5204,0.0199L0.5736,0.0179L0.6261,0.0157L0.6772,0.0135L0.7264,0.0112L0.7732,0.0091L0.817,0.0072L0.8571,0.0054L0.8932,0.004L0.9246,0.0028L0.951,0.0018L0.972,0.0011L0.9873,0.0005L0.9968,0.0001L1,-0"
    />
</svg>
