
<svg 
  class="airfoil-mh43"
  fill="none"
  stroke="black" 
  stroke-width="1"
  style="overflow:visible"
  viewBox="0, -0.0598, 1, 0.0859"
  xmlns="http://www.w3.org/2000/svg">
    <title>MH 43 8.5%</title>
    <path 
      vector-effect="non-scaling-stroke"
      d="M1,-0L0.9968,-0.0001L0.9872,-0.0007L0.9716,-0.0017L0.9502,-0.0034L0.9235,-0.0058L0.8917,-0.009L0.8556,-0.0129L0.8155,-0.0175L0.7723,-0.0228L0.7265,-0.0285L0.6788,-0.0344L0.6298,-0.0401L0.58,-0.0455L0.53,-0.0503L0.48,-0.0542L0.4306,-0.0572L0.3821,-0.0591L0.335,-0.0598L0.2896,-0.0595L0.2462,-0.058L0.2055,-0.0556L0.1676,-0.0522L0.133,-0.0479L0.1019,-0.0428L0.0746,-0.037L0.0513,-0.0307L0.0323,-0.0239L0.0176,-0.0169L0.0072,-0.01L0.0021,-0.0048L0.001,-0.003L0.0002,-0.0013L0,-0.0004L0,0.0005L0.0004,0.0013L0.0011,0.0022L0.0025,0.0035L0.0044,0.0049L0.0058,0.0058L0.0165,0.0103L0.0321,0.0145L0.0525,0.0183L0.0776,0.0213L0.1072,0.0236L0.1412,0.0251L0.1792,0.0259L0.221,0.0261L0.2661,0.0258L0.3139,0.0251L0.3638,0.024L0.4155,0.0226L0.4682,0.0208L0.5215,0.0189L0.5746,0.0169L0.627,0.0147L0.678,0.0125L0.7272,0.0103L0.7739,0.0083L0.8175,0.0064L0.8576,0.0047L0.8936,0.0033L0.9249,0.0022L0.9513,0.0014L0.9722,0.0008L0.9874,0.0003L0.9968,0.0001L1,-0"
    />
</svg>
