
<svg 
  class="airfoil-mh44"
  fill="none"
  stroke="black" 
  stroke-width="1"
  style="overflow:visible"
  viewBox="0, -0.0633, 1, 0.0968"
  xmlns="http://www.w3.org/2000/svg">
    <title>MH 44 9.66%</title>
    <path 
      vector-effect="non-scaling-stroke"
      d="M1,-0L0.9965,-0.0001L0.9863,-0.0005L0.9697,-0.0015L0.9473,-0.0033L0.9193,-0.0061L0.8864,-0.0098L0.8493,-0.0144L0.8085,-0.0199L0.765,-0.0259L0.7193,-0.032L0.6716,-0.0378L0.6223,-0.0433L0.5721,-0.0484L0.5214,-0.053L0.4708,-0.0568L0.4208,-0.0599L0.3719,-0.0621L0.3245,-0.0632L0.2792,-0.0633L0.2363,-0.0622L0.1961,-0.06L0.159,-0.0567L0.1253,-0.0523L0.0953,-0.047L0.0691,-0.0408L0.047,-0.0338L0.029,-0.0264L0.0153,-0.0186L0.0059,-0.0108L0.0014,-0.0049L0.0006,-0.0028L0.0001,-0.001L0,0.0002L0.0002,0.0012L0.0007,0.0022L0.0015,0.0031L0.0032,0.0046L0.0054,0.0061L0.0069,0.0071L0.0185,0.0122L0.0352,0.0172L0.0565,0.0219L0.0823,0.026L0.1123,0.0292L0.1465,0.0315L0.1845,0.0329L0.2262,0.0335L0.2712,0.0334L0.319,0.0326L0.3689,0.0314L0.4206,0.0297L0.4735,0.0277L0.5268,0.0255L0.58,0.0232L0.6325,0.0208L0.6835,0.0185L0.7325,0.0162L0.7788,0.014L0.8219,0.0119L0.8613,0.0099L0.8965,0.0081L0.9271,0.0063L0.9526,0.0048L0.9728,0.0033L0.9874,0.0018L0.9967,0.0005L1,-0"
    />
</svg>
