
<svg 
  class="airfoil-mh45"
  fill="none"
  stroke="black" 
  stroke-width="1"
  style="overflow:visible"
  viewBox="0, -0.066, 1, 0.099"
  xmlns="http://www.w3.org/2000/svg">
    <title>MH 45 9.85%</title>
    <path 
      vector-effect="non-scaling-stroke"
      d="M1,-0L0.9967,0.0001L0.9867,0.0002L0.9701,-0.0002L0.9475,-0.0014L0.9192,-0.0034L0.8858,-0.0064L0.8478,-0.0104L0.806,-0.0156L0.7611,-0.0216L0.7141,-0.0283L0.6656,-0.0352L0.616,-0.0419L0.5658,-0.0481L0.5155,-0.0536L0.4653,-0.0581L0.4158,-0.0617L0.3674,-0.0642L0.3206,-0.0657L0.2758,-0.066L0.2334,-0.065L0.1937,-0.0628L0.1571,-0.0595L0.1238,-0.055L0.0941,-0.0495L0.0683,-0.0431L0.0465,-0.036L0.0289,-0.0282L0.0154,-0.0201L0.0061,-0.0119L0.0013,-0.0049L0.0005,-0.0028L0.0001,-0.0008L0,0.0004L0.0002,0.0015L0.0007,0.0024L0.0016,0.0034L0.0033,0.005L0.0056,0.0065L0.0177,0.0122L0.0341,0.0173L0.0552,0.0219L0.0808,0.0259L0.1106,0.0291L0.1445,0.0313L0.1824,0.0325L0.224,0.033L0.2688,0.0326L0.3165,0.0317L0.3664,0.0302L0.4181,0.0282L0.471,0.026L0.5244,0.0236L0.5778,0.021L0.6304,0.0185L0.6817,0.0161L0.7309,0.0138L0.7775,0.0116L0.8209,0.0095L0.8606,0.0077L0.896,0.006L0.9268,0.0046L0.9526,0.0033L0.9729,0.0022L0.9877,0.0011L0.9968,0.0003L1,-0"
    />
</svg>
