
<svg 
  class="airfoil-mh46"
  fill="none"
  stroke="black" 
  stroke-width="1"
  style="overflow:visible"
  viewBox="0, -0.0751, 1, 0.114099994"
  xmlns="http://www.w3.org/2000/svg">
    <title>MH 46 11.39%</title>
    <path 
      vector-effect="non-scaling-stroke"
      d="M1,-0L0.9967,0.0003L0.9867,0.001L0.9698,0.0016L0.9463,0.0016L0.9168,0.001L0.8814,-0.0006L0.8408,-0.0036L0.7958,-0.0084L0.7476,-0.0152L0.6974,-0.0236L0.6464,-0.0332L0.5955,-0.0434L0.5456,-0.0532L0.4969,-0.0613L0.4489,-0.0674L0.4016,-0.0716L0.3553,-0.0742L0.3103,-0.0751L0.267,-0.0746L0.2259,-0.0727L0.1874,-0.0694L0.1517,-0.065L0.1193,-0.0595L0.0903,-0.0529L0.0651,-0.0454L0.0439,-0.0372L0.0266,-0.0286L0.0136,-0.0196L0.0046,-0.0108L0,-0.0027L0.0007,0.004L0.0072,0.01L0.019,0.0159L0.0357,0.0216L0.0572,0.0267L0.083,0.0311L0.1131,0.0346L0.1473,0.037L0.1854,0.0385L0.2272,0.039L0.2721,0.0388L0.3198,0.0378L0.3697,0.0362L0.4214,0.0342L0.4742,0.0317L0.5275,0.029L0.5807,0.0262L0.6331,0.0233L0.6842,0.0204L0.7331,0.0177L0.7795,0.015L0.8226,0.0124L0.862,0.01L0.8973,0.0079L0.9278,0.006L0.9533,0.0043L0.9734,0.0028L0.9879,0.0015L0.9969,0.0004L1,-0"
    />
</svg>
