
<svg 
  class="airfoil-mh49"
  fill="none"
  stroke="black" 
  stroke-width="1"
  style="overflow:visible"
  viewBox="0, -0.0595, 1, 0.105000004"
  xmlns="http://www.w3.org/2000/svg">
    <title>MH 49</title>
    <path 
      vector-effect="non-scaling-stroke"
      d="M1,-0L0.9966,0.0003L0.9865,0.0012L0.9697,0.0022L0.9464,0.0029L0.9169,0.0032L0.8815,0.0027L0.8408,0.0011L0.7954,-0.0023L0.7468,-0.0076L0.696,-0.0145L0.6442,-0.0226L0.5924,-0.0315L0.5416,-0.0402L0.492,-0.0475L0.4433,-0.0529L0.3952,-0.0565L0.3481,-0.0587L0.3025,-0.0595L0.2588,-0.0591L0.2173,-0.0575L0.1786,-0.0547L0.1429,-0.051L0.1107,-0.0463L0.0821,-0.0407L0.0576,-0.0344L0.0372,-0.0275L0.0212,-0.0202L0.0095,-0.0128L0.0023,-0.0055L0,0.0006L0.0036,0.0063L0.0129,0.0126L0.0269,0.019L0.0455,0.0251L0.0685,0.0306L0.0957,0.0354L0.127,0.0393L0.1622,0.0422L0.201,0.0442L0.2433,0.0452L0.2884,0.0455L0.3361,0.045L0.3857,0.0438L0.4369,0.042L0.4889,0.0398L0.5413,0.0371L0.5934,0.0343L0.6446,0.0312L0.6943,0.028L0.7419,0.0247L0.7869,0.0214L0.8287,0.0182L0.8669,0.0151L0.901,0.0121L0.9304,0.0094L0.955,0.0069L0.9743,0.0046L0.9882,0.0024L0.9969,0.0007L1,-0"
    />
</svg>
