
<svg 
  class="airfoil-mh60"
  fill="none"
  stroke="black" 
  stroke-width="1"
  style="overflow:visible"
  viewBox="0, -0.0682, 1, 0.1012"
  xmlns="http://www.w3.org/2000/svg">
    <title>MH 60 10.08%</title>
    <path 
      vector-effect="non-scaling-stroke"
      d="M1,-0L0.9967,0.0001L0.9866,0.0002L0.9699,-0.0002L0.9469,-0.0014L0.9183,-0.0036L0.8846,-0.007L0.8465,-0.0116L0.8048,-0.0173L0.7602,-0.0237L0.7134,-0.0307L0.6651,-0.0378L0.6158,-0.0447L0.5659,-0.051L0.5159,-0.0564L0.4659,-0.0609L0.4166,-0.0643L0.3683,-0.0667L0.3216,-0.068L0.2769,-0.0682L0.2345,-0.0671L0.1949,-0.0648L0.1583,-0.0613L0.1251,-0.0566L0.0955,-0.0509L0.0696,-0.0442L0.0478,-0.0367L0.0299,-0.0286L0.0161,-0.0202L0.0065,-0.0119L0.0016,-0.0052L0.0006,-0.0031L0.0001,-0.0011L0,0.0001L0.0001,0.0011L0.0006,0.0021L0.0014,0.0031L0.0031,0.0047L0.0052,0.0062L0.0063,0.0069L0.0176,0.0122L0.0338,0.0172L0.0549,0.0218L0.0804,0.0257L0.1103,0.0289L0.1444,0.0311L0.1823,0.0325L0.2239,0.033L0.2688,0.0328L0.3164,0.0319L0.3663,0.0304L0.418,0.0286L0.4709,0.0264L0.5243,0.024L0.5777,0.0215L0.6303,0.019L0.6816,0.0166L0.7308,0.0142L0.7774,0.012L0.8208,0.0099L0.8605,0.008L0.896,0.0063L0.9268,0.0048L0.9525,0.0035L0.9729,0.0023L0.9877,0.0012L0.9968,0.0003L1,-0"
    />
</svg>
