
<svg 
  class="airfoil-mh61"
  fill="none"
  stroke="black" 
  stroke-width="1"
  style="overflow:visible"
  viewBox="0, -0.0661, 1, 0.103"
  xmlns="http://www.w3.org/2000/svg">
    <title>MH 61 10.26%</title>
    <path 
      vector-effect="non-scaling-stroke"
      d="M1,-0L0.9966,0.0002L0.9863,0.0006L0.9692,0.0005L0.9459,-0.0006L0.9167,-0.0027L0.8825,-0.0061L0.844,-0.0108L0.802,-0.0166L0.7572,-0.0232L0.7103,-0.0304L0.6622,-0.0378L0.6131,-0.0447L0.5636,-0.051L0.514,-0.0563L0.4646,-0.0605L0.4158,-0.0635L0.3681,-0.0654L0.3218,-0.0661L0.2773,-0.0655L0.2351,-0.0637L0.1956,-0.0607L0.1589,-0.0565L0.1255,-0.0513L0.0955,-0.0452L0.0692,-0.0385L0.0468,-0.0312L0.0287,-0.0236L0.0148,-0.016L0.0054,-0.0087L0.0022,-0.0051L0.001,-0.0032L0.0003,-0.0015L0,-0.0004L0,0.0005L0.0004,0.0014L0.0011,0.0024L0.0026,0.0038L0.0046,0.0053L0.0087,0.0078L0.0211,0.0131L0.0384,0.0183L0.0603,0.0232L0.0866,0.0275L0.1172,0.0311L0.1517,0.0338L0.1899,0.0357L0.2316,0.0367L0.2763,0.0369L0.3236,0.0362L0.3732,0.035L0.4245,0.0332L0.477,0.031L0.5299,0.0285L0.5828,0.0259L0.6348,0.0232L0.6855,0.0204L0.7342,0.0178L0.7803,0.0152L0.8231,0.0127L0.8624,0.0104L0.8974,0.0083L0.9278,0.0064L0.9531,0.0046L0.9732,0.0031L0.9878,0.0016L0.9968,0.0004L1,-0"
    />
</svg>
