
<svg 
  class="airfoil-mh62"
  fill="none"
  stroke="black" 
  stroke-width="1"
  style="overflow:visible"
  viewBox="0, -0.0624, 1, 0.093499996"
  xmlns="http://www.w3.org/2000/svg">
    <title>MH 62 9.3%</title>
    <path 
      vector-effect="non-scaling-stroke"
      d="M1,-0L0.9967,0.0001L0.9869,0L0.9705,-0.0004L0.9482,-0.0017L0.9202,-0.0038L0.8871,-0.0069L0.8496,-0.0111L0.8085,-0.0162L0.7644,-0.022L0.7179,-0.0282L0.6698,-0.0346L0.6205,-0.0408L0.5705,-0.0465L0.5202,-0.0514L0.47,-0.0555L0.4204,-0.0587L0.3717,-0.061L0.3246,-0.0622L0.2794,-0.0624L0.2366,-0.0614L0.1966,-0.0594L0.1597,-0.0562L0.1261,-0.0519L0.0961,-0.0466L0.07,-0.0405L0.0479,-0.0336L0.0299,-0.0261L0.016,-0.0184L0.0064,-0.0107L0.0018,-0.0051L0.0008,-0.0031L0.0002,-0.0012L0,-0.0001L0.0001,0.0008L0.0005,0.0017L0.0013,0.0027L0.0028,0.0041L0.0049,0.0056L0.0066,0.0067L0.018,0.0117L0.0343,0.0165L0.0553,0.0208L0.0808,0.0245L0.1107,0.0275L0.1447,0.0295L0.1826,0.0307L0.2242,0.0311L0.269,0.0307L0.3166,0.0297L0.3665,0.0282L0.4181,0.0263L0.471,0.0241L0.5244,0.0218L0.5777,0.0194L0.6304,0.017L0.6816,0.0146L0.7308,0.0124L0.7774,0.0103L0.8208,0.0084L0.8605,0.0068L0.896,0.0053L0.9268,0.004L0.9526,0.0029L0.9729,0.0019L0.9877,0.001L0.9968,0.0003L1,-0"
    />
</svg>
