
<svg 
  class="airfoil-mh64"
  fill="none"
  stroke="black" 
  stroke-width="1"
  style="overflow:visible"
  viewBox="0, -0.0572, 1, 0.0866"
  xmlns="http://www.w3.org/2000/svg">
    <title>MH 64 8.59%</title>
    <path 
      vector-effect="non-scaling-stroke"
      d="M1,-0L0.9968,0L0.9871,-0.0001L0.9711,-0.0006L0.9492,-0.0018L0.9217,-0.0038L0.8892,-0.0067L0.8523,-0.0105L0.8117,-0.0151L0.7679,-0.0203L0.7218,-0.026L0.6738,-0.0317L0.6245,-0.0373L0.5744,-0.0425L0.524,-0.047L0.4735,-0.0507L0.4236,-0.0537L0.3746,-0.0558L0.3271,-0.0569L0.2816,-0.0572L0.2384,-0.0564L0.198,-0.0545L0.1607,-0.0516L0.1268,-0.0477L0.0966,-0.0429L0.0702,-0.0372L0.0479,-0.0308L0.0298,-0.0239L0.0159,-0.0167L0.0062,-0.0096L0.002,-0.0049L0.0009,-0.003L0.0002,-0.0013L0,-0.0003L0.0001,0.0006L0.0004,0.0014L0.0011,0.0023L0.0026,0.0037L0.0046,0.0051L0.0069,0.0065L0.0183,0.0113L0.0347,0.0158L0.0557,0.0199L0.0812,0.0234L0.1111,0.0262L0.1451,0.0281L0.183,0.0291L0.2245,0.0294L0.2692,0.0289L0.3168,0.0278L0.3667,0.0263L0.4183,0.0243L0.4711,0.0221L0.5245,0.0198L0.5779,0.0174L0.6304,0.0151L0.6817,0.0129L0.7309,0.0108L0.7775,0.0088L0.8209,0.0071L0.8606,0.0056L0.8961,0.0043L0.9269,0.0032L0.9526,0.0023L0.973,0.0015L0.9878,0.0008L0.9969,0.0002L1,-0"
    />
</svg>
