
<svg 
  class="airfoil-mh70"
  fill="none"
  stroke="black" 
  stroke-width="1"
  style="overflow:visible"
  viewBox="0, -0.0853, 1, 0.1123"
  xmlns="http://www.w3.org/2000/svg">
    <title>MH 70 11.08%</title>
    <path 
      vector-effect="non-scaling-stroke"
      d="M1,-0L0.9966,-0.0004L0.9868,-0.0016L0.9709,-0.0037L0.9492,-0.0066L0.922,-0.0106L0.8899,-0.0156L0.8535,-0.0216L0.8135,-0.0284L0.7705,-0.0359L0.7251,-0.0438L0.6779,-0.0518L0.6296,-0.0594L0.5805,-0.0664L0.5312,-0.0725L0.4818,-0.0775L0.4329,-0.0813L0.3849,-0.084L0.3382,-0.0853L0.2933,-0.0853L0.2505,-0.084L0.2102,-0.0814L0.1728,-0.0774L0.1386,-0.0722L0.1078,-0.0658L0.0808,-0.0583L0.0575,-0.0499L0.0381,-0.0406L0.0226,-0.0309L0.0112,-0.021L0.0037,-0.0114L0.0005,-0.0038L0.0001,-0.0014L0,0.0008L0.0002,0.0021L0.0006,0.0033L0.0014,0.0043L0.0024,0.0054L0.0045,0.0069L0.0071,0.0084L0.0085,0.0091L0.0217,0.0137L0.0401,0.0178L0.0635,0.0213L0.0917,0.024L0.1243,0.0258L0.1611,0.0268L0.2019,0.027L0.2462,0.0265L0.2937,0.0254L0.3437,0.0238L0.3958,0.0219L0.4493,0.0197L0.5036,0.0174L0.558,0.0151L0.6118,0.0128L0.6644,0.0106L0.7151,0.0085L0.7634,0.0066L0.8086,0.0049L0.8501,0.0034L0.8875,0.0021L0.9203,0.0011L0.9481,0.0004L0.9703,-0L0.9866,-0.0001L0.9966,-0.0001L1,-0"
    />
</svg>
