
<svg 
  class="airfoil-mh78"
  fill="none"
  stroke="black" 
  stroke-width="1"
  style="overflow:visible"
  viewBox="0, -0.0985, 1, 0.14649999"
  xmlns="http://www.w3.org/2000/svg">
    <title>MH 78 14.47%</title>
    <path 
      vector-effect="non-scaling-stroke"
      d="M1,-0L0.9965,0.0001L0.9859,0.0001L0.9686,-0.0003L0.9447,-0.0013L0.9147,-0.0033L0.8792,-0.0062L0.8388,-0.0104L0.7942,-0.0157L0.7461,-0.0222L0.6955,-0.0296L0.643,-0.0379L0.5896,-0.0468L0.5358,-0.0559L0.4825,-0.065L0.4303,-0.0736L0.3798,-0.0814L0.3314,-0.0881L0.2857,-0.0934L0.243,-0.0969L0.2037,-0.0985L0.1679,-0.0979L0.1358,-0.0948L0.1071,-0.0893L0.0819,-0.0814L0.0599,-0.0716L0.0412,-0.0603L0.0258,-0.048L0.0141,-0.0351L0.0059,-0.022L0.0012,-0.0092L0,0.0016L0.0004,0.0047L0.0011,0.0076L0.0017,0.0094L0.0026,0.0109L0.0038,0.0123L0.0054,0.0137L0.0083,0.0157L0.0117,0.0176L0.0281,0.0242L0.049,0.0299L0.0749,0.0349L0.1053,0.0392L0.14,0.0425L0.1787,0.045L0.2212,0.0466L0.2669,0.0476L0.3152,0.048L0.3656,0.0478L0.4174,0.0471L0.4702,0.0458L0.5232,0.0441L0.5759,0.0419L0.6277,0.0393L0.6779,0.0363L0.7259,0.0329L0.7713,0.029L0.8136,0.0246L0.8527,0.0198L0.8884,0.0149L0.9201,0.0103L0.9474,0.0063L0.9696,0.0032L0.9862,0.0012L0.9965,0.0003L1,-0"
    />
</svg>
