
<svg 
  class="airfoil-mh80"
  fill="none"
  stroke="black" 
  stroke-width="1"
  style="overflow:visible"
  viewBox="0, -0.0935, 1, 0.1275"
  xmlns="http://www.w3.org/2000/svg">
    <title>MH 80 12.72%</title>
    <path 
      vector-effect="non-scaling-stroke"
      d="M1,-0L0.9966,-0L0.9865,-0.0002L0.9697,-0.0008L0.9466,-0.0021L0.9176,-0.0042L0.8832,-0.0075L0.844,-0.0119L0.8008,-0.0173L0.7543,-0.0239L0.7051,-0.0313L0.6542,-0.0394L0.6022,-0.0479L0.5498,-0.0565L0.4977,-0.0649L0.4464,-0.0728L0.3966,-0.0797L0.3486,-0.0856L0.303,-0.09L0.2601,-0.0927L0.2202,-0.0935L0.1835,-0.0923L0.1501,-0.0889L0.1199,-0.0832L0.093,-0.0756L0.0693,-0.0664L0.0488,-0.0559L0.0318,-0.0447L0.0183,-0.033L0.0085,-0.0213L0.0023,-0.0103L0.0002,-0.0031L0,-0.0003L0.0001,0.0021L0.0004,0.0036L0.001,0.0049L0.0019,0.006L0.0031,0.0072L0.0055,0.0088L0.0084,0.0104L0.0115,0.0119L0.0265,0.0171L0.0467,0.0217L0.0718,0.0257L0.1016,0.0287L0.136,0.031L0.1746,0.0325L0.2171,0.0335L0.2628,0.0339L0.3113,0.034L0.3619,0.0335L0.4141,0.0328L0.4672,0.0316L0.5207,0.0302L0.5739,0.0285L0.6262,0.0265L0.677,0.0243L0.7257,0.0219L0.7717,0.0191L0.8146,0.0161L0.8542,0.0128L0.89,0.0095L0.9217,0.0064L0.9487,0.0038L0.9706,0.0019L0.9867,0.0007L0.9966,0.0001L1,-0"
    />
</svg>
