
<svg 
  class="airfoil-mh81"
  fill="none"
  stroke="black" 
  stroke-width="1"
  style="overflow:visible"
  viewBox="0, -0.1001, 1, 0.12990001"
  xmlns="http://www.w3.org/2000/svg">
    <title>MH 81 13%</title>
    <path 
      vector-effect="non-scaling-stroke"
      d="M1,-0L0.9966,-0.0001L0.9865,-0.0004L0.9697,-0.0012L0.9467,-0.0029L0.9178,-0.0055L0.8835,-0.0093L0.8445,-0.0142L0.8016,-0.0204L0.7553,-0.0275L0.7066,-0.0356L0.6561,-0.0442L0.6045,-0.0533L0.5525,-0.0623L0.5009,-0.0711L0.45,-0.0792L0.4006,-0.0864L0.3529,-0.0923L0.3076,-0.0967L0.2648,-0.0994L0.2249,-0.1001L0.1882,-0.0987L0.1547,-0.095L0.1244,-0.0891L0.0971,-0.0812L0.073,-0.0716L0.0522,-0.0607L0.0346,-0.049L0.0206,-0.0369L0.0101,-0.0247L0.0033,-0.0131L0.0002,-0.0028L0,0.0002L0.0002,0.0027L0.0006,0.0042L0.0012,0.0054L0.0021,0.0066L0.0034,0.0077L0.0058,0.0093L0.0089,0.0109L0.0224,0.0157L0.0415,0.0201L0.0657,0.0237L0.0947,0.0264L0.1285,0.0282L0.1667,0.0293L0.2089,0.0298L0.2545,0.0298L0.303,0.0295L0.3538,0.0287L0.4063,0.0277L0.4599,0.0264L0.514,0.0249L0.5678,0.0231L0.6209,0.0213L0.6724,0.0192L0.7219,0.0171L0.7687,0.0148L0.8125,0.0122L0.8528,0.0096L0.8892,0.007L0.9213,0.0046L0.9485,0.0027L0.9705,0.0013L0.9867,0.0004L0.9966,0.0001L1,-0"
    />
</svg>
