
<svg 
  class="airfoil-mh82"
  fill="none"
  stroke="black" 
  stroke-width="1"
  style="overflow:visible"
  viewBox="0, -0.1066, 1, 0.1332"
  xmlns="http://www.w3.org/2000/svg">
    <title>MH 82 13.31%</title>
    <path 
      vector-effect="non-scaling-stroke"
      d="M1,-0L0.9966,-0.0001L0.9865,-0.0006L0.9698,-0.0017L0.9467,-0.0037L0.9179,-0.0068L0.8837,-0.0111L0.8449,-0.0166L0.8022,-0.0233L0.7562,-0.0311L0.7078,-0.0398L0.6577,-0.049L0.6066,-0.0586L0.5551,-0.0681L0.5038,-0.0772L0.4534,-0.0856L0.4043,-0.093L0.357,-0.099L0.3119,-0.1034L0.2692,-0.106L0.2294,-0.1066L0.1928,-0.1051L0.1592,-0.1011L0.1287,-0.0949L0.1011,-0.0866L0.0767,-0.0767L0.0554,-0.0654L0.0374,-0.0533L0.0229,-0.0407L0.0118,-0.0281L0.0043,-0.0159L0.0005,-0.0048L0.0001,-0.0018L0,0.001L0.0003,0.0035L0.0008,0.005L0.0014,0.0063L0.0024,0.0074L0.0038,0.0085L0.0063,0.0101L0.0095,0.0116L0.0187,0.0148L0.0367,0.019L0.0599,0.0223L0.0881,0.0246L0.1212,0.026L0.159,0.0266L0.2008,0.0266L0.2463,0.0262L0.2948,0.0255L0.3458,0.0244L0.3987,0.023L0.4527,0.0215L0.5073,0.0199L0.5618,0.0181L0.6155,0.0163L0.6679,0.0144L0.7182,0.0125L0.7658,0.0106L0.8104,0.0085L0.8513,0.0065L0.8883,0.0046L0.9208,0.0029L0.9484,0.0015L0.9705,0.0006L0.9867,0.0002L0.9967,0L1,-0"
    />
</svg>
