
<svg 
  class="airfoil-mh83"
  fill="none"
  stroke="black" 
  stroke-width="1"
  style="overflow:visible"
  viewBox="0, -0.1164, 1, 0.1382"
  xmlns="http://www.w3.org/2000/svg">
    <title>MH 83 13.29%</title>
    <path 
      vector-effect="non-scaling-stroke"
      d="M1,-0L0.9967,-0.0002L0.9869,-0.0011L0.9707,-0.0027L0.9483,-0.0054L0.9202,-0.0093L0.8869,-0.0145L0.8492,-0.021L0.8076,-0.0287L0.7628,-0.0374L0.7157,-0.0469L0.6668,-0.0569L0.6169,-0.067L0.5664,-0.077L0.5161,-0.0864L0.4664,-0.095L0.4177,-0.1025L0.3707,-0.1086L0.3256,-0.1131L0.2828,-0.1157L0.2427,-0.1164L0.2056,-0.1148L0.1715,-0.1108L0.1403,-0.1044L0.1119,-0.0959L0.0865,-0.0856L0.0641,-0.074L0.0449,-0.0614L0.029,-0.0483L0.0164,-0.035L0.0074,-0.0219L0.0019,-0.0098L0,0.0007L0.0025,0.0082L0.011,0.0131L0.0258,0.017L0.046,0.0199L0.0713,0.0215L0.1018,0.0218L0.1372,0.0212L0.177,0.0197L0.2209,0.0173L0.2686,0.0144L0.3195,0.0111L0.373,0.0078L0.4282,0.0045L0.4846,0.0015L0.5414,-0.0012L0.5979,-0.0035L0.6532,-0.0053L0.7068,-0.0065L0.7578,-0.0071L0.8054,-0.0071L0.8489,-0.0064L0.8877,-0.0054L0.9213,-0.0041L0.9493,-0.0028L0.9713,-0.0017L0.9872,-0.0008L0.9968,-0.0002L1,-0"
    />
</svg>
