
<svg 
  class="airfoil-mh84"
  fill="none"
  stroke="black" 
  stroke-width="1"
  style="overflow:visible"
  viewBox="0, -0.1134, 1, 0.1427"
  xmlns="http://www.w3.org/2000/svg">
    <title>MH 84 13.69%</title>
    <path 
      vector-effect="non-scaling-stroke"
      d="M1,-0L0.9967,-0.0003L0.9869,-0.0012L0.9706,-0.0029L0.9482,-0.0058L0.9201,-0.0098L0.8869,-0.0152L0.8493,-0.0218L0.8078,-0.0296L0.7632,-0.0383L0.7162,-0.0477L0.6675,-0.0574L0.6176,-0.0673L0.5671,-0.0768L0.5166,-0.0858L0.4667,-0.0939L0.4177,-0.1009L0.3701,-0.1065L0.3243,-0.1106L0.2807,-0.1129L0.2396,-0.1134L0.2013,-0.1119L0.1661,-0.1086L0.1342,-0.1033L0.1057,-0.096L0.0807,-0.0868L0.0591,-0.076L0.041,-0.0636L0.026,-0.0503L0.0144,-0.0366L0.0061,-0.023L0.0013,-0.01L0,0.0015L0.0004,0.0052L0.0012,0.0079L0.0018,0.0096L0.0027,0.011L0.0039,0.0123L0.0055,0.0135L0.0083,0.0153L0.0117,0.0169L0.0255,0.0216L0.0453,0.0255L0.0699,0.0281L0.0993,0.0293L0.1334,0.029L0.1719,0.0273L0.2149,0.0243L0.2619,0.0206L0.3123,0.0164L0.3655,0.0121L0.4209,0.0079L0.4775,0.0039L0.5347,0.0003L0.5917,-0.0029L0.6478,-0.0054L0.7022,-0.0072L0.7541,-0.0081L0.8026,-0.0082L0.847,-0.0075L0.8865,-0.0063L0.9206,-0.0048L0.9489,-0.0033L0.9711,-0.0019L0.9871,-0.0009L0.9968,-0.0002L1,-0"
    />
</svg>
