
<svg 
  class="airfoil-mh91"
  fill="none"
  stroke="black" 
  stroke-width="1"
  style="overflow:visible"
  viewBox="0, -0.09, 1, 0.1514"
  xmlns="http://www.w3.org/2000/svg">
    <title>MH 91 14.98%</title>
    <path 
      vector-effect="non-scaling-stroke"
      d="M1,-0L0.9964,-0L0.9856,-0.0003L0.968,-0.0013L0.9439,-0.0033L0.914,-0.0064L0.879,-0.0107L0.8395,-0.0162L0.7963,-0.0227L0.75,-0.0301L0.7015,-0.0381L0.6513,-0.0464L0.6,-0.0546L0.5484,-0.0625L0.4969,-0.0699L0.446,-0.0763L0.3963,-0.0818L0.3481,-0.086L0.302,-0.0887L0.2583,-0.09L0.2175,-0.0896L0.1798,-0.0873L0.1454,-0.0833L0.1144,-0.0774L0.087,-0.0698L0.0631,-0.0608L0.0429,-0.0507L0.0265,-0.0397L0.014,-0.0282L0.0054,-0.0168L0.0008,-0.0059L0.0002,-0.0032L0,-0.0003L0.0002,0.0025L0.0005,0.0042L0.0011,0.0057L0.002,0.0072L0.0033,0.0086L0.0056,0.0108L0.0086,0.013L0.0179,0.0183L0.0351,0.0256L0.0572,0.0326L0.0838,0.0391L0.1146,0.0451L0.1492,0.0503L0.1874,0.0546L0.2287,0.0579L0.2727,0.0601L0.3193,0.0612L0.3678,0.0614L0.4178,0.0605L0.4688,0.0588L0.5202,0.0561L0.5715,0.0527L0.6222,0.0486L0.6716,0.0439L0.7193,0.0386L0.765,0.0328L0.8081,0.0268L0.8483,0.0208L0.8851,0.0152L0.9178,0.0102L0.9459,0.0061L0.9688,0.0031L0.9859,0.0012L0.9964,0.0002L1,-0"
    />
</svg>
