
<svg 
  class="airfoil-mh92"
  fill="none"
  stroke="black" 
  stroke-width="1"
  style="overflow:visible"
  viewBox="0, -0.0923, 1, 0.1567"
  xmlns="http://www.w3.org/2000/svg">
    <title>MH 92 15.49%</title>
    <path 
      vector-effect="non-scaling-stroke"
      d="M1,-0L0.9963,-0L0.9855,-0.0003L0.9676,-0.0012L0.9433,-0.0032L0.9132,-0.0063L0.8778,-0.0107L0.8379,-0.0163L0.7944,-0.0231L0.7478,-0.0307L0.699,-0.0389L0.6486,-0.0475L0.5973,-0.056L0.5456,-0.0642L0.4941,-0.0718L0.4434,-0.0785L0.3938,-0.0841L0.3458,-0.0883L0.3,-0.0911L0.2565,-0.0923L0.216,-0.0917L0.1785,-0.0893L0.1443,-0.085L0.1135,-0.0789L0.0862,-0.071L0.0624,-0.0617L0.0423,-0.0513L0.0261,-0.0401L0.0137,-0.0284L0.0052,-0.0167L0.0007,-0.0057L0.0002,-0.0032L0,-0.0002L0.0002,0.0026L0.0005,0.0043L0.0011,0.0059L0.002,0.0074L0.0033,0.0089L0.0057,0.0111L0.0086,0.0134L0.0185,0.0192L0.0359,0.0267L0.0581,0.0339L0.0849,0.0407L0.1158,0.047L0.1505,0.0524L0.1887,0.0569L0.2301,0.0605L0.2741,0.0629L0.3206,0.0642L0.3691,0.0644L0.419,0.0637L0.4698,0.062L0.5211,0.0593L0.5723,0.0559L0.6227,0.0518L0.6719,0.0469L0.7194,0.0414L0.7648,0.0353L0.8078,0.0289L0.8479,0.0225L0.8846,0.0165L0.9173,0.0111L0.9455,0.0067L0.9686,0.0034L0.9857,0.0013L0.9964,0.0003L1,-0"
    />
</svg>
