
<svg 
  class="airfoil-mh93"
  fill="none"
  stroke="black" 
  stroke-width="1"
  style="overflow:visible"
  viewBox="0, -0.0944, 1, 0.162"
  xmlns="http://www.w3.org/2000/svg">
    <title>MH 93 15.98%</title>
    <path 
      vector-effect="non-scaling-stroke"
      d="M1,-0L0.9963,0L0.9853,-0.0002L0.9673,-0.0011L0.9427,-0.0031L0.9122,-0.0062L0.8765,-0.0107L0.8363,-0.0165L0.7924,-0.0234L0.7456,-0.0313L0.6966,-0.0398L0.646,-0.0486L0.5946,-0.0574L0.5429,-0.0658L0.4914,-0.0736L0.4408,-0.0805L0.3914,-0.0862L0.3436,-0.0905L0.2979,-0.0933L0.2547,-0.0944L0.2144,-0.0937L0.1771,-0.0911L0.1431,-0.0865L0.1125,-0.0802L0.0854,-0.072L0.0617,-0.0624L0.0418,-0.0518L0.0256,-0.0404L0.0133,-0.0284L0.0049,-0.0165L0.0006,-0.0053L0.0002,-0.0033L0,-0.0002L0.0002,0.0027L0.0005,0.0045L0.0011,0.0061L0.0021,0.0076L0.0033,0.0091L0.0057,0.0115L0.0087,0.0138L0.0191,0.0201L0.0367,0.0278L0.0592,0.0354L0.0861,0.0425L0.1172,0.049L0.152,0.0546L0.1903,0.0594L0.2317,0.0632L0.2757,0.0658L0.3222,0.0672L0.3706,0.0676L0.4204,0.067L0.4711,0.0654L0.5222,0.0627L0.5732,0.0593L0.6234,0.0551L0.6723,0.0501L0.7196,0.0443L0.7647,0.0379L0.8075,0.0311L0.8475,0.0244L0.8841,0.0179L0.9169,0.0121L0.9452,0.0073L0.9683,0.0037L0.9856,0.0014L0.9963,0.0003L1,-0"
    />
</svg>
