
<svg 
  class="airfoil-mh94"
  fill="none"
  stroke="black" 
  stroke-width="1"
  style="overflow:visible"
  viewBox="0, -0.0909, 1, 0.16029999"
  xmlns="http://www.w3.org/2000/svg">
    <title>MH 94 16.03%</title>
    <path 
      vector-effect="non-scaling-stroke"
      d="M1,-0L0.9961,-0.0008L0.9852,-0.0033L0.9683,-0.0079L0.9465,-0.014L0.9203,-0.021L0.8897,-0.0282L0.8551,-0.0356L0.8167,-0.0431L0.7751,-0.0506L0.7306,-0.0577L0.6838,-0.0645L0.6352,-0.0708L0.5852,-0.0764L0.5346,-0.0813L0.4837,-0.0853L0.4331,-0.0882L0.3833,-0.0901L0.3348,-0.0909L0.2882,-0.0905L0.2438,-0.089L0.2021,-0.0862L0.1636,-0.0823L0.1287,-0.0772L0.0976,-0.0709L0.0706,-0.0636L0.0482,-0.0554L0.0306,-0.0458L0.0172,-0.0347L0.0076,-0.0228L0.0019,-0.0109L0.0001,-0.0022L0,0.001L0.0003,0.004L0.0008,0.0058L0.0014,0.0076L0.0024,0.0092L0.0038,0.0108L0.0063,0.0132L0.0093,0.0157L0.0121,0.0177L0.0271,0.0259L0.047,0.0339L0.0714,0.0416L0.1,0.0487L0.1325,0.0551L0.1685,0.0604L0.2077,0.0645L0.2498,0.0675L0.2943,0.0691L0.3408,0.0694L0.3891,0.0682L0.4387,0.0656L0.4893,0.0616L0.5403,0.0565L0.5915,0.0504L0.6423,0.0436L0.6922,0.0364L0.7408,0.029L0.7873,0.0218L0.8312,0.0153L0.8718,0.0097L0.9081,0.0053L0.9396,0.0021L0.9652,0.0004L0.9843,-0.0003L0.996,-0.0002L1,-0"
    />
</svg>
