
<svg 
  class="airfoil-mh95"
  fill="none"
  stroke="black" 
  stroke-width="1"
  style="overflow:visible"
  viewBox="0, -0.0934, 1, 0.1586"
  xmlns="http://www.w3.org/2000/svg">
    <title>MH 95 15.86%</title>
    <path 
      vector-effect="non-scaling-stroke"
      d="M1,-0L0.9961,-0.0009L0.9853,-0.0037L0.9685,-0.0083L0.9466,-0.0143L0.92,-0.0214L0.8892,-0.029L0.8546,-0.0369L0.8163,-0.0448L0.7748,-0.0525L0.7305,-0.0599L0.6839,-0.0668L0.6354,-0.0733L0.5857,-0.079L0.5353,-0.0839L0.4846,-0.0879L0.4342,-0.0909L0.3846,-0.0927L0.3363,-0.0934L0.2899,-0.0929L0.2456,-0.0912L0.2042,-0.0882L0.1659,-0.084L0.1311,-0.0785L0.1001,-0.0718L0.0729,-0.064L0.0502,-0.0552L0.0321,-0.0452L0.0182,-0.034L0.0082,-0.0223L0.0021,-0.0105L0,0.0006L0.0026,0.0097L0.0113,0.0173L0.026,0.0248L0.0459,0.0321L0.0706,0.039L0.0997,0.0455L0.1328,0.0512L0.1696,0.0559L0.2099,0.0597L0.2531,0.0626L0.299,0.0644L0.347,0.0652L0.3965,0.0651L0.4471,0.064L0.4981,0.0619L0.549,0.0587L0.5993,0.0544L0.6487,0.0489L0.697,0.0424L0.7439,0.0352L0.7888,0.0278L0.8314,0.0205L0.8709,0.0138L0.9068,0.0081L0.9382,0.0038L0.9642,0.0011L0.9837,-0.0001L0.9959,-0.0001L1,-0"
    />
</svg>
