
<svg 
  class="airfoil-mi-strut1"
  fill="none"
  stroke="black" 
  stroke-width="1"
  style="overflow:visible"
  viewBox="0.0001, -0.1648, 0.9999, 0.3296"
  xmlns="http://www.w3.org/2000/svg">
    <title>MI-STRUT1</title>
    <path 
      vector-effect="non-scaling-stroke"
      d="M1,-0.0037L0.9999,-0.0037L0.9998,-0.0038L0.9994,-0.0039L0.999,-0.004L0.9984,-0.0043L0.9978,-0.0045L0.9969,-0.0048L0.996,-0.0052L0.995,-0.0055L0.9938,-0.006L0.9925,-0.0065L0.9911,-0.007L0.9895,-0.0076L0.9878,-0.0082L0.9861,-0.0088L0.9841,-0.0095L0.9821,-0.0103L0.98,-0.0111L0.9777,-0.0119L0.9753,-0.0128L0.9728,-0.0137L0.9701,-0.0146L0.9674,-0.0156L0.9645,-0.0166L0.9616,-0.0177L0.9585,-0.0188L0.9553,-0.0199L0.9519,-0.0211L0.9485,-0.0223L0.945,-0.0236L0.9413,-0.0248L0.9375,-0.0261L0.9337,-0.0275L0.9297,-0.0289L0.9256,-0.0303L0.9214,-0.0317L0.9171,-0.0332L0.9127,-0.0347L0.9082,-0.0362L0.9036,-0.0377L0.8989,-0.0393L0.8941,-0.0409L0.8892,-0.0425L0.8842,-0.0442L0.8791,-0.0458L0.8738,-0.0475L0.8686,-0.0492L0.8632,-0.051L0.8577,-0.0527L0.8522,-0.0545L0.8465,-0.0563L0.8408,-0.0581L0.835,-0.0599L0.8291,-0.0617L0.8231,-0.0636L0.817,-0.0654L0.8109,-0.0673L0.8046,-0.0692L0.7983,-0.0711L0.792,-0.073L0.7855,-0.0749L0.779,-0.0768L0.7724,-0.0787L0.7658,-0.0806L0.7591,-0.0826L0.7523,-0.0845L0.7454,-0.0865L0.7385,-0.0884L0.7316,-0.0903L0.7245,-0.0923L0.7175,-0.0942L0.7103,-0.0962L0.7031,-0.0981L0.6959,-0.1L0.6886,-0.102L0.6813,-0.1039L0.6739,-0.1058L0.6665,-0.1077L0.659,-0.1096L0.6515,-0.1115L0.644,-0.1134L0.6364,-0.1152L0.6288,-0.1171L0.6211,-0.1189L0.6135,-0.1207L0.6058,-0.1225L0.598,-0.1243L0.5903,-0.126L0.5825,-0.1278L0.5747,-0.1295L0.5669,-0.1312L0.5591,-0.1328L0.5512,-0.1345L0.5434,-0.1361L0.5355,-0.1376L0.5276,-0.1392L0.5197,-0.1407L0.5118,-0.1422L0.5039,-0.1436L0.4961,-0.145L0.4882,-0.1464L0.4803,-0.1478L0.4724,-0.149L0.4645,-0.1503L0.4566,-0.1515L0.4488,-0.1527L0.4409,-0.1538L0.4331,-0.1549L0.4253,-0.1559L0.4175,-0.1569L0.4097,-0.1578L0.402,-0.1587L0.3942,-0.1595L0.3865,-0.1603L0.3789,-0.161L0.3712,-0.1617L0.3636,-0.1623L0.356,-0.1628L0.3485,-0.1633L0.341,-0.1637L0.3335,-0.164L0.3261,-0.1643L0.3187,-0.1645L0.3114,-0.1647L0.3041,-0.1648L0.2969,-0.1648L0.2897,-0.1647L0.2826,-0.1646L0.2755,-0.1644L0.2684,-0.1642L0.2615,-0.1638L0.2546,-0.1635L0.2477,-0.163L0.2409,-0.1624L0.2342,-0.1618L0.2276,-0.1611L0.221,-0.1604L0.2145,-0.1596L0.208,-0.1587L0.2017,-0.1577L0.1954,-0.1567L0.1891,-0.1556L0.183,-0.1544L0.1769,-0.1531L0.1709,-0.1518L0.165,-0.1504L0.1592,-0.149L0.1535,-0.1475L0.1479,-0.1459L0.1423,-0.1442L0.1368,-0.1425L0.1314,-0.1407L0.1261,-0.1388L0.1209,-0.1369L0.1159,-0.1349L0.1108,-0.1329L0.1059,-0.1308L0.1011,-0.1286L0.0964,-0.1264L0.0918,-0.1241L0.0873,-0.1217L0.0829,-0.1193L0.0786,-0.1168L0.0744,-0.1143L0.0703,-0.1117L0.0663,-0.1091L0.0625,-0.1064L0.0587,-0.1037L0.055,-0.1009L0.0515,-0.0981L0.0481,-0.0952L0.0447,-0.0923L0.0415,-0.0893L0.0384,-0.0863L0.0355,-0.0832L0.0326,-0.0801L0.0299,-0.077L0.0272,-0.0738L0.0247,-0.0706L0.0223,-0.0674L0.0201,-0.0641L0.0179,-0.0607L0.0159,-0.0574L0.0139,-0.054L0.0122,-0.0506L0.0105,-0.0471L0.0089,-0.0437L0.0075,-0.0402L0.0062,-0.0366L0.005,-0.0331L0.004,-0.0295L0.003,-0.0259L0.0022,-0.0222L0.0016,-0.0185L0.001,-0.0148L0.0006,-0.011L0.0003,-0.0073L0.0001,-0.0036L0.0001,0.0036L0.0003,0.0073L0.0006,0.011L0.001,0.0148L0.0016,0.0185L0.0022,0.0222L0.003,0.0259L0.004,0.0295L0.005,0.0331L0.0062,0.0366L0.0075,0.0402L0.0089,0.0437L0.0105,0.0471L0.0122,0.0506L0.0139,0.054L0.0159,0.0574L0.0179,0.0607L0.0201,0.0641L0.0223,0.0674L0.0247,0.0706L0.0272,0.0738L0.0299,0.077L0.0326,0.0801L0.0355,0.0832L0.0384,0.0863L0.0415,0.0893L0.0447,0.0923L0.0481,0.0952L0.0515,0.0981L0.055,0.1009L0.0587,0.1037L0.0625,0.1064L0.0663,0.1091L0.0703,0.1117L0.0744,0.1143L0.0786,0.1168L0.0829,0.1193L0.0873,0.1217L0.0918,0.1241L0.0964,0.1264L0.1011,0.1286L0.1059,0.1308L0.1108,0.1329L0.1159,0.1349L0.1209,0.1369L0.1261,0.1388L0.1314,0.1407L0.1368,0.1425L0.1423,0.1442L0.1479,0.1459L0.1535,0.1475L0.1592,0.149L0.165,0.1504L0.1709,0.1518L0.1769,0.1531L0.183,0.1544L0.1891,0.1556L0.1954,0.1567L0.2017,0.1577L0.208,0.1587L0.2145,0.1596L0.221,0.1604L0.2276,0.1611L0.2342,0.1618L0.2409,0.1624L0.2477,0.163L0.2546,0.1635L0.2615,0.1638L0.2684,0.1642L0.2755,0.1644L0.2826,0.1646L0.2897,0.1647L0.2969,0.1648L0.3041,0.1648L0.3114,0.1647L0.3187,0.1645L0.3261,0.1643L0.3335,0.164L0.341,0.1637L0.3485,0.1633L0.356,0.1628L0.3636,0.1623L0.3712,0.1617L0.3789,0.161L0.3865,0.1603L0.3942,0.1595L0.402,0.1587L0.4097,0.1578L0.4175,0.1569L0.4253,0.1559L0.4331,0.1549L0.4409,0.1538L0.4488,0.1527L0.4566,0.1515L0.4645,0.1503L0.4724,0.149L0.4803,0.1478L0.4882,0.1464L0.4961,0.145L0.5039,0.1436L0.5118,0.1422L0.5197,0.1407L0.5276,0.1392L0.5355,0.1376L0.5434,0.1361L0.5512,0.1345L0.5591,0.1328L0.5669,0.1312L0.5747,0.1295L0.5825,0.1278L0.5903,0.126L0.598,0.1243L0.6058,0.1225L0.6135,0.1207L0.6211,0.1189L0.6288,0.1171L0.6364,0.1152L0.644,0.1134L0.6515,0.1115L0.659,0.1096L0.6665,0.1077L0.6739,0.1058L0.6813,0.1039L0.6886,0.102L0.6959,0.1L0.7031,0.0981L0.7103,0.0962L0.7175,0.0942L0.7245,0.0923L0.7316,0.0903L0.7385,0.0884L0.7454,0.0865L0.7523,0.0845L0.7591,0.0826L0.7658,0.0806L0.7724,0.0787L0.779,0.0768L0.7855,0.0749L0.792,0.073L0.7983,0.0711L0.8046,0.0692L0.8109,0.0673L0.817,0.0654L0.8231,0.0636L0.8291,0.0617L0.835,0.0599L0.8408,0.0581L0.8465,0.0563L0.8522,0.0545L0.8577,0.0527L0.8632,0.051L0.8686,0.0492L0.8738,0.0475L0.8791,0.0458L0.8842,0.0442L0.8892,0.0425L0.8941,0.0409L0.8989,0.0393L0.9036,0.0377L0.9082,0.0362L0.9127,0.0347L0.9171,0.0332L0.9214,0.0317L0.9256,0.0303L0.9297,0.0289L0.9337,0.0275L0.9375,0.0261L0.9413,0.0248L0.945,0.0236L0.9485,0.0223L0.9519,0.0211L0.9553,0.0199L0.9585,0.0188L0.9616,0.0177L0.9645,0.0166L0.9674,0.0156L0.9701,0.0146L0.9728,0.0137L0.9753,0.0128L0.9777,0.0119L0.98,0.0111L0.9821,0.0103L0.9841,0.0095L0.9861,0.0088L0.9878,0.0082L0.9895,0.0076L0.9911,0.007L0.9925,0.0065L0.9938,0.006L0.995,0.0055L0.996,0.0052L0.9969,0.0048L0.9978,0.0045L0.9984,0.0043L0.999,0.004L0.9994,0.0039L0.9998,0.0038L0.9999,0.0037L1,0.0037"
    />
</svg>
