
<svg 
  class="airfoil-mi-vawt1"
  fill="none"
  stroke="black" 
  stroke-width="1"
  style="overflow:visible"
  viewBox="0, -0.1089, 1, 0.21000001"
  xmlns="http://www.w3.org/2000/svg">
    <title>MI-VAWT1</title>
    <path 
      vector-effect="non-scaling-stroke"
      d="M1,-0.0096L0.996,-0.0098L0.9897,-0.0102L0.9831,-0.0107L0.976,-0.0113L0.9686,-0.0121L0.9607,-0.013L0.9524,-0.0141L0.9435,-0.0152L0.9342,-0.0166L0.9242,-0.018L0.9137,-0.0196L0.9028,-0.0213L0.8914,-0.0232L0.8795,-0.0253L0.867,-0.0276L0.8539,-0.03L0.84,-0.0327L0.8255,-0.0356L0.8105,-0.0386L0.7951,-0.0417L0.7795,-0.045L0.7637,-0.0484L0.7476,-0.0518L0.7317,-0.0552L0.716,-0.0585L0.7006,-0.0618L0.6855,-0.065L0.6704,-0.0682L0.6552,-0.0713L0.6398,-0.0743L0.6245,-0.0773L0.6095,-0.0802L0.5947,-0.0829L0.5803,-0.0855L0.5661,-0.0879L0.5523,-0.0902L0.5387,-0.0923L0.5255,-0.0943L0.5125,-0.0961L0.4997,-0.0977L0.487,-0.0992L0.4744,-0.1006L0.4618,-0.1018L0.4491,-0.103L0.4363,-0.104L0.4235,-0.1049L0.4105,-0.1058L0.3975,-0.1065L0.3845,-0.1071L0.3715,-0.1077L0.3585,-0.1081L0.3457,-0.1084L0.333,-0.1087L0.3206,-0.1088L0.3084,-0.1089L0.2965,-0.1089L0.2849,-0.1087L0.2738,-0.1085L0.2629,-0.1082L0.2525,-0.1078L0.2424,-0.1074L0.2327,-0.1069L0.2233,-0.1063L0.2144,-0.1056L0.2058,-0.1049L0.1975,-0.1041L0.1896,-0.1032L0.182,-0.1023L0.1746,-0.1014L0.1675,-0.1004L0.1607,-0.0993L0.1541,-0.0982L0.1477,-0.0971L0.1416,-0.0959L0.1357,-0.0948L0.1301,-0.0936L0.1246,-0.0923L0.1194,-0.0911L0.1143,-0.0898L0.1094,-0.0885L0.1046,-0.0872L0.1,-0.0858L0.0956,-0.0845L0.0913,-0.0831L0.0872,-0.0818L0.0832,-0.0805L0.0794,-0.0791L0.0758,-0.0777L0.0722,-0.0763L0.0688,-0.0749L0.0654,-0.0734L0.0622,-0.0719L0.0591,-0.0704L0.0561,-0.0689L0.0531,-0.0673L0.0503,-0.0658L0.0475,-0.0642L0.0448,-0.0627L0.0423,-0.0611L0.0398,-0.0595L0.0374,-0.0579L0.0351,-0.0562L0.0328,-0.0546L0.0306,-0.0529L0.0285,-0.0512L0.0264,-0.0495L0.0244,-0.0478L0.0224,-0.0461L0.0205,-0.0443L0.0187,-0.0426L0.017,-0.0409L0.0153,-0.0391L0.0138,-0.0373L0.0123,-0.0355L0.011,-0.0336L0.0097,-0.0316L0.0084,-0.0296L0.0073,-0.0275L0.0061,-0.0254L0.005,-0.0232L0.004,-0.0211L0.003,-0.0189L0.0022,-0.0167L0.0014,-0.0144L0.0009,-0.0121L0.0005,-0.0095L0.0002,-0.0068L0,-0.004L0,0.0002L0,0.0021L0.0002,0.0061L0.0004,0.0087L0.0008,0.0118L0.0014,0.0144L0.0021,0.0168L0.003,0.019L0.004,0.0212L0.0051,0.0233L0.0062,0.0254L0.0074,0.0274L0.0086,0.0294L0.0098,0.0312L0.0111,0.0331L0.0125,0.0348L0.014,0.0365L0.0156,0.0381L0.0173,0.0396L0.019,0.0411L0.0209,0.0426L0.0228,0.0441L0.0248,0.0456L0.0269,0.047L0.029,0.0485L0.0312,0.0499L0.0334,0.0513L0.0357,0.0527L0.038,0.0541L0.0405,0.0554L0.043,0.0567L0.0457,0.058L0.0484,0.0593L0.0512,0.0606L0.0541,0.0618L0.0571,0.0631L0.0602,0.0644L0.0633,0.0657L0.0666,0.067L0.07,0.0683L0.0735,0.0696L0.0771,0.0709L0.0808,0.0722L0.0847,0.0735L0.0887,0.0748L0.0929,0.0761L0.0973,0.0773L0.1018,0.0786L0.1065,0.0799L0.1114,0.0812L0.1164,0.0825L0.1216,0.0838L0.1269,0.085L0.1325,0.0862L0.1382,0.0874L0.1443,0.0885L0.1505,0.0896L0.157,0.0907L0.1637,0.0918L0.1707,0.0928L0.1779,0.0938L0.1854,0.0948L0.1932,0.0957L0.2013,0.0965L0.2098,0.0972L0.2185,0.0979L0.2277,0.0986L0.2372,0.0992L0.2472,0.0997L0.2574,0.1001L0.2681,0.1005L0.2792,0.1008L0.2905,0.101L0.3023,0.1011L0.3144,0.1011L0.3267,0.101L0.3393,0.1009L0.3521,0.1006L0.365,0.1003L0.378,0.0999L0.3911,0.0994L0.4041,0.0987L0.4171,0.098L0.4301,0.0972L0.4429,0.0963L0.4557,0.0953L0.4684,0.0941L0.4811,0.0929L0.4938,0.0915L0.5065,0.09L0.5195,0.0883L0.5326,0.0865L0.5461,0.0846L0.5599,0.0825L0.574,0.0802L0.5884,0.0777L0.6032,0.0752L0.6182,0.0725L0.6335,0.0696L0.6491,0.0667L0.6646,0.0637L0.6799,0.0606L0.6953,0.0575L0.7109,0.0543L0.7268,0.0512L0.7428,0.0479L0.7589,0.0446L0.7747,0.0414L0.7901,0.0383L0.8051,0.0354L0.8197,0.0326L0.8338,0.03L0.8472,0.0275L0.8599,0.0253L0.872,0.0233L0.8834,0.0214L0.8942,0.0198L0.9046,0.0183L0.9145,0.017L0.9239,0.0158L0.9329,0.0148L0.9415,0.0138L0.9496,0.013L0.9572,0.0122L0.9644,0.0116L0.9712,0.0111L0.9777,0.0108L0.9839,0.0105L0.99,0.0103L0.996,0.0102L1,0.0102"
    />
</svg>
