
<svg 
  class="airfoil-miley"
  fill="none"
  stroke="black" 
  stroke-width="1"
  style="overflow:visible"
  viewBox="0, -0.1162, 1, 0.1297"
  xmlns="http://www.w3.org/2000/svg">
    <title>MILEY M06-13-128</title>
    <path 
      vector-effect="non-scaling-stroke"
      d="M1,-0L0.999,-0.0002L0.9915,-0.0009L0.9776,-0.002L0.9572,-0.0037L0.9307,-0.0063L0.8985,-0.01L0.8611,-0.015L0.8192,-0.0214L0.7735,-0.0293L0.7249,-0.0388L0.6743,-0.0498L0.6229,-0.0622L0.5718,-0.0758L0.5227,-0.09L0.4776,-0.1031L0.4351,-0.1109L0.3926,-0.1149L0.3503,-0.1162L0.3087,-0.1153L0.2684,-0.1126L0.2298,-0.1081L0.1933,-0.1022L0.1594,-0.0949L0.1286,-0.086L0.1006,-0.0758L0.0756,-0.0646L0.0538,-0.0531L0.0355,-0.0412L0.0208,-0.0296L0.0099,-0.0186L0.003,-0.0088L0.001,-0.0045L0,-0.0009L0.0003,0.0018L0.0023,0.0037L0.012,0.0067L0.028,0.009L0.0499,0.0108L0.0772,0.012L0.1096,0.0129L0.1467,0.0133L0.188,0.0135L0.233,0.0134L0.2811,0.0131L0.3318,0.0126L0.3846,0.012L0.4386,0.0113L0.4934,0.0105L0.5482,0.0097L0.6024,0.0089L0.6554,0.0081L0.7065,0.0073L0.7552,0.0065L0.8007,0.0058L0.8427,0.0051L0.8805,0.0044L0.9138,0.0037L0.942,0.003L0.965,0.0023L0.9823,0.0015L0.9939,0.0007L0.9994,0.0001L1,-0"
    />
</svg>
