
<svg 
  class="airfoil-mrc-16"
  fill="none"
  stroke="black" 
  stroke-width="1"
  style="overflow:visible"
  viewBox="0, -0.1006, 1, 0.13929999"
  xmlns="http://www.w3.org/2000/svg">
    <title>MRC-16</title>
    <path 
      vector-effect="non-scaling-stroke"
      d="M1,-0.0001L0.9913,-0.0022L0.9784,-0.0054L0.9615,-0.0095L0.9427,-0.014L0.9235,-0.0187L0.9041,-0.0233L0.8848,-0.0278L0.8654,-0.0323L0.8461,-0.0368L0.8269,-0.0411L0.8076,-0.0453L0.7884,-0.0494L0.7692,-0.0534L0.7499,-0.0573L0.7307,-0.0611L0.7114,-0.0647L0.6922,-0.0681L0.6729,-0.0715L0.6536,-0.0747L0.6343,-0.0777L0.615,-0.0806L0.5958,-0.0833L0.5765,-0.0858L0.5572,-0.0882L0.5379,-0.0904L0.5186,-0.0924L0.4993,-0.0942L0.4801,-0.0958L0.4608,-0.0971L0.4416,-0.0983L0.4224,-0.0993L0.4032,-0.1L0.384,-0.1004L0.3649,-0.1006L0.3458,-0.1006L0.3268,-0.1002L0.3078,-0.0996L0.2889,-0.0987L0.2701,-0.0974L0.2513,-0.0958L0.2327,-0.0939L0.2142,-0.0916L0.1958,-0.089L0.1777,-0.0859L0.1597,-0.0824L0.142,-0.0785L0.1247,-0.0741L0.1077,-0.0692L0.0913,-0.0638L0.0754,-0.0579L0.0604,-0.0514L0.0465,-0.0445L0.0341,-0.0374L0.0238,-0.0304L0.0159,-0.024L0.01,-0.0184L0.0059,-0.0136L0.0031,-0.0094L0.0012,-0.0057L0.0002,-0.0024L0,0.0007L0.0006,0.0037L0.0022,0.0068L0.0049,0.0096L0.0087,0.0123L0.0138,0.015L0.0207,0.0177L0.0301,0.0205L0.0425,0.0234L0.0577,0.0261L0.0748,0.0285L0.0929,0.0306L0.1115,0.0323L0.1305,0.0338L0.1496,0.035L0.1689,0.036L0.1883,0.0368L0.2078,0.0374L0.2274,0.038L0.247,0.0383L0.2666,0.0386L0.2863,0.0387L0.306,0.0387L0.3257,0.0387L0.3454,0.0385L0.3652,0.0382L0.385,0.0379L0.4048,0.0375L0.4246,0.037L0.4444,0.0364L0.4642,0.0358L0.4841,0.0351L0.5039,0.0344L0.5237,0.0336L0.5436,0.0327L0.5634,0.0318L0.5832,0.0308L0.6031,0.0298L0.6229,0.0287L0.6427,0.0275L0.6626,0.0263L0.6824,0.0251L0.7023,0.0237L0.7221,0.0224L0.742,0.021L0.7619,0.0195L0.7818,0.0181L0.8017,0.0166L0.8216,0.015L0.8415,0.0135L0.8614,0.0119L0.8814,0.0103L0.9013,0.0086L0.9212,0.007L0.9411,0.0054L0.9604,0.0039L0.9778,0.0025L0.991,0.0014L1,0.0007"
    />
</svg>
