
<svg 
  class="airfoil-mrc-20"
  fill="none"
  stroke="black" 
  stroke-width="1"
  style="overflow:visible"
  viewBox="0.0001, -0.1071, 0.9999, 0.1558"
  xmlns="http://www.w3.org/2000/svg">
    <title>MRC-20</title>
    <path 
      vector-effect="non-scaling-stroke"
      d="M1,-0L0.991,-0.0026L0.9781,-0.0064L0.9619,-0.0116L0.9434,-0.0177L0.9244,-0.0239L0.9056,-0.0299L0.8869,-0.0356L0.8683,-0.041L0.8495,-0.0462L0.8307,-0.0511L0.8117,-0.0557L0.7926,-0.0602L0.7734,-0.0645L0.7542,-0.0685L0.7349,-0.0723L0.7155,-0.0759L0.6961,-0.0794L0.6766,-0.0826L0.657,-0.0856L0.6374,-0.0885L0.6178,-0.0911L0.5981,-0.0936L0.5785,-0.0959L0.5588,-0.098L0.5391,-0.0998L0.5194,-0.1015L0.4998,-0.103L0.4801,-0.1042L0.4605,-0.1053L0.4409,-0.1061L0.4213,-0.1067L0.4017,-0.107L0.3822,-0.1071L0.3627,-0.107L0.3433,-0.1066L0.3239,-0.1059L0.3047,-0.105L0.2856,-0.1037L0.2666,-0.1021L0.2477,-0.1003L0.229,-0.098L0.2105,-0.0954L0.1922,-0.0925L0.1741,-0.0891L0.1563,-0.0853L0.1388,-0.0811L0.1217,-0.0765L0.1051,-0.0714L0.0891,-0.0658L0.0738,-0.0598L0.0595,-0.0535L0.0464,-0.0468L0.0348,-0.04L0.0251,-0.0334L0.0174,-0.0273L0.0116,-0.0218L0.0073,-0.017L0.0042,-0.0127L0.002,-0.0088L0.0007,-0.0051L0.0001,-0.0017L0.0001,0.0015L0.0007,0.0045L0.0021,0.0073L0.0047,0.0096L0.0081,0.0114L0.0126,0.0131L0.0186,0.0148L0.0269,0.0167L0.0384,0.019L0.0535,0.0214L0.0713,0.0238L0.0904,0.0262L0.1103,0.0285L0.1305,0.0308L0.1509,0.033L0.1713,0.0351L0.1917,0.0373L0.212,0.0393L0.2322,0.0413L0.2521,0.0431L0.2718,0.0447L0.2913,0.046L0.3107,0.0471L0.33,0.048L0.3493,0.0485L0.3687,0.0487L0.3882,0.0487L0.4078,0.0485L0.4274,0.048L0.4472,0.0473L0.467,0.0464L0.4869,0.0453L0.5069,0.0441L0.5271,0.0427L0.5473,0.0412L0.5675,0.0396L0.5879,0.0379L0.6084,0.0362L0.6289,0.0344L0.6495,0.0326L0.6701,0.0307L0.6907,0.0289L0.7113,0.027L0.7319,0.0251L0.7525,0.0232L0.7731,0.0213L0.7938,0.0194L0.8144,0.0175L0.8351,0.0156L0.8557,0.0137L0.8763,0.0118L0.897,0.0099L0.9176,0.008L0.9381,0.0062L0.9582,0.0044L0.9764,0.0027L0.9905,0.0014L1,0.0005"
    />
</svg>
