
<svg 
  class="airfoil-ms313"
  fill="none"
  stroke="black" 
  stroke-width="1"
  style="overflow:visible"
  viewBox="0, -0.0803, 1, 0.1314"
  xmlns="http://www.w3.org/2000/svg">
    <title>NASA/LANGLEY MS(1)-0313 AIRFOIL</title>
    <path 
      vector-effect="non-scaling-stroke"
      d="M1,0.0005L0.975,-0.0047L0.95,-0.0098L0.925,-0.0149L0.9,-0.0201L0.875,-0.0252L0.85,-0.0303L0.825,-0.0353L0.8,-0.0402L0.775,-0.0449L0.75,-0.0494L0.725,-0.0537L0.7,-0.0577L0.675,-0.0615L0.65,-0.0649L0.625,-0.068L0.6,-0.0706L0.575,-0.0729L0.55,-0.0749L0.525,-0.0765L0.5,-0.0778L0.475,-0.0788L0.45,-0.0795L0.425,-0.08L0.4,-0.0803L0.375,-0.0803L0.35,-0.0801L0.325,-0.0797L0.3,-0.079L0.275,-0.078L0.25,-0.0768L0.225,-0.0752L0.2,-0.0733L0.175,-0.071L0.15,-0.0682L0.125,-0.0648L0.1,-0.0606L0.075,-0.0552L0.05,-0.0474L0.0375,-0.0419L0.025,-0.0344L0.0125,-0.0243L0.005,-0.0151L0.002,-0.0095L0,-0.001L0.002,0.0063L0.005,0.01L0.0125,0.0152L0.025,0.0206L0.0375,0.0244L0.05,0.0275L0.075,0.0323L0.1,0.0361L0.125,0.0392L0.15,0.0418L0.175,0.044L0.2,0.0458L0.225,0.0473L0.25,0.0485L0.275,0.0494L0.3,0.0501L0.325,0.0506L0.35,0.051L0.375,0.0511L0.4,0.0509L0.425,0.0505L0.45,0.0498L0.475,0.0488L0.5,0.0475L0.525,0.0459L0.55,0.044L0.575,0.0418L0.6,0.0393L0.625,0.0364L0.65,0.0333L0.675,0.03L0.7,0.0266L0.725,0.0231L0.75,0.0196L0.775,0.0161L0.8,0.0129L0.825,0.0099L0.85,0.0073L0.875,0.0051L0.9,0.0035L0.925,0.0026L0.95,0.0025L0.975,0.0035L1,0.0061"
    />
</svg>
