
<svg 
  class="airfoil-ms317"
  fill="none"
  stroke="black" 
  stroke-width="1"
  style="overflow:visible"
  viewBox="0, -0.0997, 1, 0.1701"
  xmlns="http://www.w3.org/2000/svg">
    <title>NASA/LANGLEY MS(1)-0317 AIRFOIL</title>
    <path 
      vector-effect="non-scaling-stroke"
      d="M1,-0.0012L0.975,-0.0072L0.95,-0.013L0.925,-0.0187L0.9,-0.0244L0.875,-0.0301L0.85,-0.0358L0.825,-0.0413L0.8,-0.0469L0.775,-0.0523L0.75,-0.0575L0.725,-0.0627L0.7,-0.0676L0.675,-0.0723L0.65,-0.0767L0.625,-0.0808L0.6,-0.0845L0.575,-0.0878L0.55,-0.0907L0.525,-0.0932L0.5,-0.0953L0.475,-0.097L0.45,-0.0983L0.425,-0.0991L0.4,-0.0996L0.375,-0.0997L0.35,-0.0995L0.325,-0.099L0.3,-0.0981L0.275,-0.0969L0.25,-0.0954L0.225,-0.0934L0.2,-0.091L0.175,-0.0881L0.15,-0.0845L0.125,-0.0803L0.1,-0.0751L0.075,-0.0684L0.05,-0.0589L0.0375,-0.0521L0.025,-0.0432L0.0125,-0.031L0.005,-0.0195L0.002,-0.0125L0,-0.001L0.002,0.0086L0.005,0.0137L0.0125,0.0211L0.025,0.0287L0.0375,0.0342L0.05,0.0386L0.075,0.0454L0.1,0.0506L0.125,0.0548L0.15,0.0582L0.175,0.061L0.2,0.0633L0.225,0.0653L0.25,0.0668L0.275,0.0681L0.3,0.0691L0.325,0.0698L0.35,0.0702L0.375,0.0704L0.4,0.0702L0.425,0.0697L0.45,0.0688L0.475,0.0676L0.5,0.0659L0.525,0.0639L0.55,0.0614L0.575,0.0584L0.6,0.055L0.625,0.0511L0.65,0.0467L0.675,0.0421L0.7,0.0373L0.725,0.0325L0.75,0.0278L0.775,0.0231L0.8,0.0186L0.825,0.0143L0.85,0.0105L0.875,0.0072L0.9,0.0046L0.925,0.0029L0.95,0.0023L0.975,0.0032L1,0.006"
    />
</svg>
