
<svg 
  class="airfoil-mue139"
  fill="none"
  stroke="black" 
  stroke-width="1"
  style="overflow:visible"
  viewBox="0, -0.115, 1, 0.1471"
  xmlns="http://www.w3.org/2000/svg">
    <title>MUE 139</title>
    <path 
      vector-effect="non-scaling-stroke"
      d="M1,-0L0.9989,-0.0003L0.9957,-0.001L0.9904,-0.0023L0.983,-0.004L0.9735,-0.006L0.9619,-0.0084L0.9484,-0.011L0.933,-0.0139L0.9157,-0.0171L0.8967,-0.0206L0.8759,-0.0245L0.8536,-0.0286L0.8297,-0.033L0.8044,-0.0376L0.7778,-0.0424L0.75,-0.0474L0.7211,-0.0527L0.6913,-0.0582L0.6607,-0.064L0.6294,-0.0698L0.5975,-0.0757L0.5653,-0.0815L0.5327,-0.0869L0.5,-0.0919L0.4673,-0.0966L0.4347,-0.1008L0.4024,-0.1046L0.3706,-0.1081L0.3393,-0.1111L0.3087,-0.1133L0.2789,-0.1146L0.25,-0.115L0.2222,-0.1144L0.1956,-0.1128L0.1703,-0.1099L0.1464,-0.1057L0.1241,-0.1002L0.1033,-0.094L0.0843,-0.0869L0.067,-0.079L0.0516,-0.0702L0.0381,-0.0607L0.0265,-0.0504L0.017,-0.0395L0.0096,-0.0282L0.0043,-0.017L0.0011,-0.0075L0,-0L0.0011,0.0062L0.0043,0.0122L0.0096,0.0184L0.017,0.0238L0.0265,0.0277L0.0381,0.0303L0.0516,0.0317L0.067,0.0321L0.0843,0.0317L0.1033,0.0308L0.1241,0.0296L0.1464,0.0284L0.1703,0.0273L0.1956,0.0259L0.2222,0.0246L0.25,0.0229L0.2789,0.0208L0.3087,0.0186L0.3393,0.0167L0.3706,0.0151L0.4024,0.0139L0.4347,0.0126L0.4673,0.0114L0.5,0.0103L0.5327,0.0092L0.5653,0.0084L0.5975,0.0078L0.6294,0.0073L0.6607,0.0069L0.6913,0.0065L0.7211,0.0061L0.75,0.0057L0.7778,0.0053L0.8044,0.0048L0.8297,0.0044L0.8536,0.0039L0.8759,0.0034L0.8967,0.0031L0.9157,0.0027L0.933,0.0025L0.9484,0.0022L0.9619,0.0019L0.9735,0.0015L0.983,0.0011L0.9904,0.0006L0.9957,0.0003L0.9989,0.0001L1,-0"
    />
</svg>
