
<svg 
  class="airfoil-n0009sm"
  fill="none"
  stroke="black" 
  stroke-width="1"
  style="overflow:visible"
  viewBox="0, -0.0451, 1, 0.0902"
  xmlns="http://www.w3.org/2000/svg">
    <title>NACA-0009 9.0% smoothed</title>
    <path 
      vector-effect="non-scaling-stroke"
      d="M1,-0L0.9957,-0.0006L0.983,-0.0022L0.9619,-0.0046L0.933,-0.0077L0.8967,-0.0113L0.8536,-0.0152L0.8044,-0.0194L0.75,-0.0238L0.6913,-0.0282L0.6294,-0.0325L0.5653,-0.0364L0.5,-0.0398L0.4347,-0.0425L0.3706,-0.0443L0.3393,-0.0448L0.3087,-0.0451L0.2789,-0.045L0.25,-0.0447L0.2222,-0.044L0.1956,-0.043L0.1703,-0.0416L0.1464,-0.0399L0.1241,-0.038L0.1033,-0.0356L0.0843,-0.0331L0.067,-0.0302L0.0516,-0.0272L0.0381,-0.0239L0.0265,-0.0204L0.017,-0.0165L0.0096,-0.0121L0.0043,-0.0077L0.0011,-0.0035L0,-0L0.0011,0.0035L0.0043,0.0077L0.0096,0.0121L0.017,0.0165L0.0265,0.0204L0.0381,0.0239L0.0516,0.0272L0.067,0.0302L0.0843,0.0331L0.1033,0.0356L0.1241,0.038L0.1464,0.0399L0.1703,0.0416L0.1956,0.043L0.2222,0.044L0.25,0.0447L0.2789,0.045L0.3087,0.0451L0.3393,0.0448L0.3706,0.0443L0.4347,0.0425L0.5,0.0398L0.5653,0.0364L0.6294,0.0325L0.6913,0.0282L0.75,0.0238L0.8044,0.0194L0.8536,0.0152L0.8967,0.0113L0.933,0.0077L0.9619,0.0046L0.983,0.0022L0.9957,0.0006L1,-0"
    />
</svg>
