
<svg 
  class="airfoil-n0011sc"
  fill="none"
  stroke="black" 
  stroke-width="1"
  style="overflow:visible"
  viewBox="0, -0.0548, 1, 0.1096"
  xmlns="http://www.w3.org/2000/svg">
    <title>NACA/LANGLEY SYMMETRICAL, SUPERCRITICAL AIRFOIL</title>
    <path 
      vector-effect="non-scaling-stroke"
      d="M1,-0L0.975,-0.0064L0.95,-0.012L0.925,-0.0171L0.9,-0.0216L0.875,-0.0257L0.85,-0.0293L0.825,-0.0326L0.8,-0.0355L0.775,-0.0381L0.75,-0.0405L0.725,-0.0426L0.7,-0.0446L0.675,-0.0463L0.65,-0.0478L0.625,-0.0492L0.6,-0.0504L0.55,-0.0524L0.5,-0.0538L0.45,-0.0546L0.4,-0.0548L0.35,-0.0545L0.3,-0.0536L0.25,-0.0521L0.2,-0.0499L0.175,-0.0484L0.15,-0.0466L0.125,-0.0444L0.1,-0.0416L0.075,-0.0381L0.05,-0.0334L0.0375,-0.0302L0.025,-0.0262L0.0125,-0.0203L0.0065,-0.0158L0.002,-0.0092L0,-0L0.002,0.0092L0.0065,0.0158L0.0125,0.0203L0.025,0.0262L0.0375,0.0302L0.05,0.0334L0.075,0.0381L0.1,0.0416L0.125,0.0444L0.15,0.0466L0.175,0.0484L0.2,0.0499L0.25,0.0521L0.3,0.0536L0.35,0.0545L0.4,0.0548L0.45,0.0546L0.5,0.0538L0.55,0.0524L0.6,0.0504L0.625,0.0492L0.65,0.0478L0.675,0.0463L0.7,0.0446L0.725,0.0426L0.75,0.0405L0.775,0.0381L0.8,0.0355L0.825,0.0326L0.85,0.0293L0.875,0.0257L0.9,0.0216L0.925,0.0171L0.95,0.012L0.975,0.0064L1,-0"
    />
</svg>
