
<svg 
  class="airfoil-n0012"
  fill="none"
  stroke="black" 
  stroke-width="1"
  style="overflow:visible"
  viewBox="0, -0.06, 1, 0.12"
  xmlns="http://www.w3.org/2000/svg">
    <title>NACA 0012 AIRFOILS</title>
    <path 
      vector-effect="non-scaling-stroke"
      d="M1,-0.0013L0.9994,-0.0013L0.9977,-0.0016L0.9948,-0.002L0.9907,-0.0026L0.9855,-0.0033L0.9791,-0.0042L0.9717,-0.0052L0.9631,-0.0063L0.9534,-0.0076L0.9427,-0.009L0.931,-0.0105L0.9182,-0.0122L0.9045,-0.0139L0.8898,-0.0157L0.8743,-0.0176L0.8578,-0.0196L0.8405,-0.0216L0.8224,-0.0237L0.8036,-0.0258L0.784,-0.028L0.7638,-0.0302L0.743,-0.0323L0.7216,-0.0345L0.6997,-0.0367L0.6773,-0.0388L0.6545,-0.0409L0.6314,-0.043L0.6079,-0.045L0.5842,-0.0469L0.5603,-0.0488L0.5362,-0.0505L0.5121,-0.0522L0.4879,-0.0537L0.4638,-0.0551L0.4397,-0.0563L0.4158,-0.0574L0.3921,-0.0583L0.3686,-0.059L0.3455,-0.0596L0.3227,-0.0599L0.3003,-0.06L0.2784,-0.0599L0.257,-0.0596L0.2362,-0.059L0.216,-0.0582L0.1964,-0.0572L0.1776,-0.0559L0.1595,-0.0544L0.1422,-0.0526L0.1257,-0.0507L0.1102,-0.0485L0.0955,-0.046L0.0818,-0.0434L0.069,-0.0406L0.0573,-0.0376L0.0466,-0.0345L0.0369,-0.0312L0.0283,-0.0277L0.0209,-0.0241L0.0145,-0.0203L0.0093,-0.0165L0.0052,-0.0125L0.0023,-0.0084L0.0006,-0.0043L0,-0L0.0006,0.0043L0.0023,0.0084L0.0052,0.0125L0.0093,0.0165L0.0145,0.0203L0.0209,0.0241L0.0283,0.0277L0.0369,0.0312L0.0466,0.0345L0.0573,0.0376L0.069,0.0406L0.0818,0.0434L0.0955,0.046L0.1102,0.0485L0.1257,0.0507L0.1422,0.0526L0.1595,0.0544L0.1776,0.0559L0.1964,0.0572L0.216,0.0582L0.2362,0.059L0.257,0.0596L0.2784,0.0599L0.3003,0.06L0.3227,0.0599L0.3455,0.0596L0.3686,0.059L0.3921,0.0583L0.4158,0.0574L0.4397,0.0563L0.4638,0.0551L0.4879,0.0537L0.5121,0.0522L0.5362,0.0505L0.5603,0.0488L0.5842,0.0469L0.6079,0.045L0.6314,0.043L0.6545,0.0409L0.6773,0.0388L0.6997,0.0367L0.7216,0.0345L0.743,0.0323L0.7638,0.0302L0.784,0.028L0.8036,0.0258L0.8224,0.0237L0.8405,0.0216L0.8578,0.0196L0.8743,0.0176L0.8898,0.0157L0.9045,0.0139L0.9182,0.0122L0.931,0.0105L0.9427,0.009L0.9534,0.0076L0.9631,0.0063L0.9717,0.0052L0.9791,0.0042L0.9855,0.0033L0.9907,0.0026L0.9948,0.002L0.9977,0.0016L0.9994,0.0013L1,0.0013"
    />
</svg>
