
<svg 
  class="airfoil-n10"
  fill="none"
  stroke="black" 
  stroke-width="1"
  style="overflow:visible"
  viewBox="0, -0.1124, 1, 0.1124"
  xmlns="http://www.w3.org/2000/svg">
    <title>N-10</title>
    <path 
      vector-effect="non-scaling-stroke"
      d="M1,-0.0034L0.95,-0.0174L0.9,-0.0296L0.8,-0.051L0.7,-0.0712L0.6,-0.0874L0.5,-0.101L0.4,-0.1088L0.3,-0.1124L0.2,-0.1096L0.15,-0.1022L0.1,-0.0914L0.075,-0.0842L0.05,-0.0738L0.025,-0.0594L0.0125,-0.0492L0,-0.03L0.0125,-0.0158L0.025,-0.0114L0.05,-0.0068L0.075,-0.0042L0.1,-0.0026L0.15,-0L0.2,-0L0.3,-0.0002L0.4,-0.0006L0.5,-0.0012L0.6,-0.0014L0.7,-0.001L0.8,-0.0008L0.9,-0.0004L0.95,-0.0002L1,-0"
    />
</svg>
