
<svg 
  class="airfoil-n11"
  fill="none"
  stroke="black" 
  stroke-width="1"
  style="overflow:visible"
  viewBox="0, -0.1128, 1, 0.1128"
  xmlns="http://www.w3.org/2000/svg">
    <title>N-11</title>
    <path 
      vector-effect="non-scaling-stroke"
      d="M1,-0.002L0.95,-0.0165L0.9,-0.03L0.8,-0.0524L0.7,-0.0732L0.6,-0.0898L0.5,-0.1026L0.4,-0.1108L0.3,-0.1128L0.2,-0.1082L0.15,-0.1008L0.1,-0.089L0.075,-0.08L0.05,-0.0694L0.025,-0.054L0.0125,-0.043L0,-0.023L0.0125,-0.0094L0.025,-0.006L0.05,-0.0022L0.075,-0.0006L0.1,-0L0.15,-0.0002L0.2,-0.0014L0.3,-0.0034L0.4,-0.0048L0.5,-0.0056L0.6,-0.006L0.7,-0.005L0.8,-0.0034L0.9,-0.0016L0.95,-0.0008L1,-0"
    />
</svg>
