
<svg 
  class="airfoil-n11h9"
  fill="none"
  stroke="black" 
  stroke-width="1"
  style="overflow:visible"
  viewBox="0, -0.0889, 1, 0.1016"
  xmlns="http://www.w3.org/2000/svg">
    <title>NACA 11-H-09 AIRFOIL</title>
    <path 
      vector-effect="non-scaling-stroke"
      d="M1,-0L0.9499,-0.0027L0.9002,-0.0017L0.8015,-0.0184L0.7029,-0.0391L0.6039,-0.0597L0.5039,-0.0772L0.4022,-0.0883L0.2996,-0.0889L0.2484,-0.0857L0.1973,-0.0799L0.1461,-0.0711L0.0952,-0.0585L0.0699,-0.0502L0.0447,-0.04L0.02,-0.0266L0.0078,-0.0174L0.0034,-0.0127L0,-0L0.0116,0.0031L0.0171,0.0031L0.03,0.0024L0.0552,0.0009L0.0801,0.0004L0.1048,-0.0013L0.1538,-0.0025L0.2027,-0.0028L0.2516,-0.0023L0.3004,-0.0014L0.3978,0.0014L0.4961,0.0051L0.5961,0.0089L0.697,0.0117L0.7985,0.0127L0.8998,0.0105L0.9501,0.0071L1,-0"
    />
</svg>
