
<svg 
  class="airfoil-n12"
  fill="none"
  stroke="black" 
  stroke-width="1"
  style="overflow:visible"
  viewBox="0, -0.0528, 1, 0.1046"
  xmlns="http://www.w3.org/2000/svg">
    <title>N-12</title>
    <path 
      vector-effect="non-scaling-stroke"
      d="M1,-0L0.95,-0.0086L0.9,-0.0138L0.8,-0.0242L0.7,-0.034L0.6,-0.0418L0.5,-0.048L0.4,-0.052L0.3,-0.0528L0.2,-0.0508L0.15,-0.0472L0.1,-0.0392L0.075,-0.0352L0.05,-0.0292L0.025,-0.021L0.0125,-0.0154L0,-0L0.0125,0.0152L0.025,0.02L0.05,0.028L0.075,0.0348L0.1,0.0386L0.15,0.044L0.2,0.048L0.3,0.0518L0.4,0.05L0.5,0.047L0.6,0.0418L0.7,0.034L0.8,0.0246L0.9,0.0134L0.95,0.008L1,-0"
    />
</svg>
