
<svg 
  class="airfoil-n13"
  fill="none"
  stroke="black" 
  stroke-width="1"
  style="overflow:visible"
  viewBox="0, -0.0584, 1, 0.118"
  xmlns="http://www.w3.org/2000/svg">
    <title>N-13</title>
    <path 
      vector-effect="non-scaling-stroke"
      d="M1,-0L0.95,-0.0102L0.9,-0.016L0.8,-0.0302L0.7,-0.04L0.6,-0.0486L0.5,-0.0552L0.4,-0.058L0.3,-0.0584L0.2,-0.0546L0.15,-0.0504L0.1,-0.0438L0.075,-0.039L0.05,-0.0328L0.025,-0.0238L0.0125,-0.0166L0,-0L0.0125,0.0154L0.025,0.0228L0.05,0.0318L0.075,0.0392L0.1,0.0434L0.15,0.0504L0.2,0.0548L0.3,0.0596L0.4,0.059L0.5,0.0552L0.6,0.0482L0.7,0.0388L0.8,0.0286L0.9,0.016L0.95,0.008L1,-0"
    />
</svg>
