
<svg 
  class="airfoil-n14"
  fill="none"
  stroke="black" 
  stroke-width="1"
  style="overflow:visible"
  viewBox="0, -0.0578, 1, 0.1148"
  xmlns="http://www.w3.org/2000/svg">
    <title>N-14</title>
    <path 
      vector-effect="non-scaling-stroke"
      d="M1,-0L0.95,-0.0086L0.9,-0.0158L0.8,-0.0286L0.7,-0.0404L0.6,-0.049L0.5,-0.0548L0.4,-0.0576L0.3,-0.0578L0.2,-0.055L0.15,-0.0506L0.1,-0.044L0.075,-0.0394L0.05,-0.0326L0.025,-0.024L0.0125,-0.017L0,-0L0.0125,0.018L0.025,0.0246L0.05,0.0334L0.075,0.04L0.1,0.0436L0.15,0.05L0.2,0.054L0.3,0.057L0.4,0.0568L0.5,0.054L0.6,0.0484L0.7,0.04L0.8,0.0287L0.9,0.0156L0.95,0.0084L1,-0"
    />
</svg>
