
<svg 
  class="airfoil-n1h15"
  fill="none"
  stroke="black" 
  stroke-width="1"
  style="overflow:visible"
  viewBox="0, -0.1286, 1, 0.1481"
  xmlns="http://www.w3.org/2000/svg">
    <title>NACA 1-H-15 AIRFOIL</title>
    <path 
      vector-effect="non-scaling-stroke"
      d="M1,-0L0.95,-0.0023L0.9,-0.0048L0.8,-0.0388L0.7,-0.0812L0.6,-0.1125L0.5,-0.1276L0.4,-0.1286L0.3,-0.1186L0.25,-0.1098L0.2,-0.0986L0.15,-0.0848L0.1,-0.0682L0.075,-0.0584L0.05,-0.047L0.025,-0.0332L0.0125,-0.0244L0,-0L0.0125,0.0137L0.025,0.0161L0.05,0.0178L0.075,0.0182L0.1,0.0185L0.15,0.0185L0.2,0.0185L0.25,0.0182L0.3,0.0183L0.4,0.0186L0.5,0.0192L0.6,0.0195L0.7,0.0191L0.8,0.0171L0.9,0.0125L0.95,0.0082L1,-0"
    />
</svg>
