
<svg 
  class="airfoil-n22"
  fill="none"
  stroke="black" 
  stroke-width="1"
  style="overflow:visible"
  viewBox="0, -0.1242, 1, 0.1242"
  xmlns="http://www.w3.org/2000/svg">
    <title>N-22</title>
    <path 
      vector-effect="non-scaling-stroke"
      d="M1,-0.004L0.95,-0.0173L0.9,-0.0306L0.8,-0.0551L0.7,-0.0768L0.6,-0.0957L0.5,-0.1104L0.4,-0.1201L0.3,-0.1242L0.2,-0.1201L0.15,-0.1128L0.1,-0.1013L0.075,-0.0933L0.05,-0.0825L0.025,-0.0666L0.0125,-0.0558L0,-0.0337L0.0125,-0.017L0.025,-0.0115L0.05,-0.0062L0.075,-0.0032L0.1,-0.0016L0.15,-0.0003L0.2,-0L0.3,-0.0005L0.4,-0.0015L0.5,-0.0024L0.6,-0.003L0.7,-0.0032L0.8,-0.0024L0.9,-0.0012L0.95,-0.0005L1,-0"
    />
</svg>
