
<svg 
  class="airfoil-n24"
  fill="none"
  stroke="black" 
  stroke-width="1"
  style="overflow:visible"
  viewBox="0, -0.1712, 1, 0.1712"
  xmlns="http://www.w3.org/2000/svg">
    <title>N-24</title>
    <path 
      vector-effect="non-scaling-stroke"
      d="M1,-0.013L0.95,-0.023L0.9,-0.0396L0.8,-0.0732L0.7,-0.1039L0.6,-0.1302L0.5,-0.1512L0.4,-0.166L0.3,-0.1712L0.2,-0.166L0.15,-0.1564L0.1,-0.1404L0.075,-0.1294L0.05,-0.1142L0.025,-0.0928L0.0125,-0.0764L0,-0.046L0.0125,-0.024L0.025,-0.0176L0.05,-0.009L0.075,-0.0054L0.1,-0.0026L0.15,-0.0004L0.2,-0L0.3,-0.001L0.4,-0.0026L0.5,-0.0038L0.6,-0.0044L0.7,-0.0046L0.8,-0.003L0.9,-0.0008L0.95,-0.0006L1,-0.003"
    />
</svg>
