
<svg 
  class="airfoil-n2414"
  fill="none"
  stroke="black" 
  stroke-width="1"
  style="overflow:visible"
  viewBox="0, -0.0891, 1, 0.1412"
  xmlns="http://www.w3.org/2000/svg">
    <title>NACA 2414</title>
    <path 
      vector-effect="non-scaling-stroke"
      d="M1,-0.0015L0.9974,-0.0021L0.9893,-0.004L0.9759,-0.007L0.9573,-0.0111L0.9337,-0.0162L0.9054,-0.0221L0.8727,-0.0286L0.8358,-0.0355L0.7953,-0.0427L0.7514,-0.05L0.7048,-0.0572L0.6559,-0.0641L0.6051,-0.0705L0.5532,-0.0763L0.5007,-0.0812L0.4481,-0.0851L0.396,-0.0879L0.3445,-0.0891L0.2948,-0.0887L0.2474,-0.0865L0.2028,-0.0825L0.1617,-0.0771L0.1244,-0.0701L0.0914,-0.062L0.0631,-0.0528L0.0398,-0.0429L0.0216,-0.0325L0.0089,-0.0217L0.0017,-0.0109L0,-0L0.0038,0.0103L0.0129,0.0196L0.0273,0.0277L0.0467,0.0347L0.0709,0.0405L0.0996,0.0452L0.1325,0.0486L0.1692,0.0508L0.2094,0.052L0.2526,0.0521L0.2984,0.0513L0.3464,0.0499L0.3961,0.0479L0.4474,0.0454L0.4993,0.0423L0.5513,0.0389L0.6028,0.0352L0.6532,0.0313L0.7019,0.0275L0.7486,0.0236L0.7925,0.02L0.8333,0.0165L0.8705,0.0133L0.9036,0.0104L0.9323,0.0078L0.9563,0.0056L0.9752,0.0038L0.9889,0.0025L0.9971,0.0017L1,0.0015"
    />
</svg>
