
<svg 
  class="airfoil-n2415"
  fill="none"
  stroke="black" 
  stroke-width="1"
  style="overflow:visible"
  viewBox="0, -0.0941, 1, 0.1511"
  xmlns="http://www.w3.org/2000/svg">
    <title>NACA 2415</title>
    <path 
      vector-effect="non-scaling-stroke"
      d="M1,-0.0016L0.9974,-0.0022L0.9893,-0.0042L0.9759,-0.0074L0.9573,-0.0117L0.9338,-0.017L0.9055,-0.0232L0.8727,-0.0301L0.8359,-0.0374L0.7954,-0.045L0.7515,-0.0527L0.7049,-0.0602L0.656,-0.0675L0.6052,-0.0743L0.5533,-0.0804L0.5007,-0.0856L0.4481,-0.0898L0.396,-0.0927L0.3445,-0.0941L0.2947,-0.0937L0.2472,-0.0914L0.2026,-0.0874L0.1614,-0.0816L0.1241,-0.0744L0.0911,-0.0658L0.0628,-0.0562L0.0395,-0.0457L0.0214,-0.0346L0.0088,-0.0232L0.0016,-0.0116L0,-0L0.0039,0.0111L0.0131,0.021L0.0275,0.0299L0.0469,0.0375L0.0711,0.0439L0.0999,0.049L0.1328,0.0528L0.1694,0.0554L0.2096,0.0568L0.2528,0.057L0.2986,0.0563L0.3465,0.0548L0.3961,0.0527L0.4474,0.05L0.4993,0.0467L0.5512,0.043L0.6027,0.0389L0.6531,0.0347L0.7018,0.0305L0.7485,0.0263L0.7924,0.0222L0.8332,0.0184L0.8704,0.0148L0.9035,0.0115L0.9323,0.0086L0.9562,0.0062L0.9752,0.0042L0.9888,0.0027L0.9971,0.0019L1,0.0016"
    />
</svg>
