
<svg 
  class="airfoil-n2h15"
  fill="none"
  stroke="black" 
  stroke-width="1"
  style="overflow:visible"
  viewBox="0, -0.1186, 1, 0.1506"
  xmlns="http://www.w3.org/2000/svg">
    <title>NACA 2-H-15 AIRFOIL</title>
    <path 
      vector-effect="non-scaling-stroke"
      d="M1,-0L0.95,-0.0016L0.9,-0.0069L0.8,-0.0305L0.7,-0.0681L0.6,-0.1L0.5,-0.1164L0.4,-0.1186L0.3,-0.1098L0.25,-0.1017L0.2,-0.0913L0.15,-0.078L0.1,-0.0619L0.075,-0.0524L0.05,-0.0413L0.025,-0.0278L0.0125,-0.0192L0,-0L0.0125,0.0199L0.025,0.0222L0.05,0.0234L0.075,0.0241L0.1,0.0247L0.15,0.0254L0.2,0.026L0.25,0.0264L0.3,0.027L0.4,0.0286L0.5,0.0304L0.6,0.032L0.7,0.0318L0.8,0.0276L0.9,0.0255L0.95,0.0244L1,-0"
    />
</svg>
