
<svg 
  class="airfoil-n5h10"
  fill="none"
  stroke="black" 
  stroke-width="1"
  style="overflow:visible"
  viewBox="0, -0.072, 1, 0.100999996"
  xmlns="http://www.w3.org/2000/svg">
    <title>NACA 5-H-10 AIRFOIL</title>
    <path 
      vector-effect="non-scaling-stroke"
      d="M1,-0L0.96,-0.0027L0.9,-0.0067L0.8,-0.02L0.7,-0.039L0.6,-0.055L0.5,-0.067L0.4,-0.072L0.3,-0.069L0.25,-0.066L0.2,-0.061L0.15,-0.053L0.1,-0.0437L0.075,-0.038L0.05,-0.031L0.025,-0.021L0.0125,-0.015L0,-0L0.0125,0.0093L0.025,0.012L0.05,0.015L0.075,0.0168L0.1,0.0185L0.15,0.021L0.2,0.023L0.25,0.024L0.3,0.025L0.4,0.027L0.5,0.028L0.6,0.029L0.7,0.029L0.8,0.024L0.9,0.011L0.96,0.0047L1,-0"
    />
</svg>
