
<svg 
  class="airfoil-n5h15"
  fill="none"
  stroke="black" 
  stroke-width="1"
  style="overflow:visible"
  viewBox="0, -0.1056, 1, 0.1552"
  xmlns="http://www.w3.org/2000/svg">
    <title>NACA 5-H-15 AIRFOIL</title>
    <path 
      vector-effect="non-scaling-stroke"
      d="M1,-0L0.95,-0.0041L0.9,-0.0099L0.8,-0.0294L0.7,-0.0557L0.6,-0.0801L0.5,-0.0979L0.4,-0.1056L0.3,-0.1044L0.25,-0.0974L0.2,-0.0884L0.15,-0.077L0.1,-0.0617L0.075,-0.052L0.05,-0.0405L0.025,-0.0261L0.0125,-0.0161L0,-0L0.0125,0.0178L0.025,0.0224L0.05,0.0268L0.075,0.0301L0.1,0.0333L0.15,0.0377L0.2,0.0418L0.25,0.0441L0.3,0.0461L0.4,0.0486L0.5,0.0496L0.6,0.049L0.7,0.0448L0.8,0.0357L0.9,0.0188L0.95,0.0094L1,-0"
    />
</svg>
