
<svg 
  class="airfoil-n5h20"
  fill="none"
  stroke="black" 
  stroke-width="1"
  style="overflow:visible"
  viewBox="0, -0.144, 1, 0.203"
  xmlns="http://www.w3.org/2000/svg">
    <title>NACA 5-H-20 AIRFOIL</title>
    <path 
      vector-effect="non-scaling-stroke"
      d="M1,-0L0.95,-0.0053L0.9,-0.013L0.8,-0.041L0.7,-0.079L0.6,-0.111L0.5,-0.135L0.4,-0.144L0.3,-0.137L0.25,-0.131L0.2,-0.121L0.15,-0.107L0.1,-0.087L0.075,-0.076L0.05,-0.061L0.025,-0.043L0.0125,-0.031L0,-0L0.0125,0.019L0.025,0.024L0.05,0.029L0.075,0.0325L0.1,0.036L0.15,0.041L0.2,0.045L0.25,0.048L0.3,0.0507L0.4,0.055L0.5,0.057L0.6,0.059L0.7,0.059L0.8,0.048L0.9,0.021L0.95,0.0093L1,-0"
    />
</svg>
