
<svg 
  class="airfoil-n63015a"
  fill="none"
  stroke="black" 
  stroke-width="1"
  style="overflow:visible"
  viewBox="0, -0.075, 1, 0.15"
  xmlns="http://www.w3.org/2000/svg">
    <title>NACA 63-015A AIRFOIL</title>
    <path 
      vector-effect="non-scaling-stroke"
      d="M1,-0.0003L0.95,-0.0077L0.9,-0.0151L0.85,-0.0225L0.8,-0.0299L0.75,-0.0373L0.7,-0.0447L0.65,-0.0517L0.6,-0.0582L0.55,-0.0639L0.5,-0.0686L0.45,-0.0721L0.4,-0.0743L0.35,-0.075L0.3,-0.0738L0.25,-0.0709L0.2,-0.0662L0.15,-0.0594L0.1,-0.05L0.075,-0.0438L0.05,-0.0362L0.025,-0.0258L0.0125,-0.0184L0.0075,-0.0145L0.005,-0.012L0,-0L0.005,0.012L0.0075,0.0145L0.0125,0.0184L0.025,0.0258L0.05,0.0362L0.075,0.0438L0.1,0.05L0.15,0.0594L0.2,0.0662L0.25,0.0709L0.3,0.0738L0.35,0.075L0.4,0.0743L0.45,0.0721L0.5,0.0686L0.55,0.0639L0.6,0.0582L0.65,0.0517L0.7,0.0447L0.75,0.0373L0.8,0.0299L0.85,0.0225L0.9,0.0151L0.95,0.0077L1,0.0003"
    />
</svg>
