
<svg 
  class="airfoil-n63010a"
  fill="none"
  stroke="black" 
  stroke-width="1"
  style="overflow:visible"
  viewBox="0, -0.0499, 1, 0.0998"
  xmlns="http://www.w3.org/2000/svg">
    <title>NACA 63A010 AIRFOIL</title>
    <path 
      vector-effect="non-scaling-stroke"
      d="M1,-0.0002L0.95,-0.0052L0.9,-0.0103L0.85,-0.0154L0.8,-0.0204L0.75,-0.0255L0.7,-0.0304L0.65,-0.0352L0.6,-0.0394L0.55,-0.0431L0.5,-0.0461L0.45,-0.0484L0.4,-0.0497L0.35,-0.0499L0.3,-0.0491L0.25,-0.0471L0.2,-0.044L0.15,-0.0395L0.1,-0.0332L0.075,-0.0292L0.05,-0.0241L0.025,-0.0174L0.0125,-0.0125L0.0075,-0.0098L0.005,-0.0082L0,-0L0.005,0.0082L0.0075,0.0098L0.0125,0.0125L0.025,0.0174L0.05,0.0241L0.075,0.0292L0.1,0.0332L0.15,0.0395L0.2,0.044L0.25,0.0471L0.3,0.0491L0.35,0.0499L0.4,0.0497L0.45,0.0484L0.5,0.0461L0.55,0.0431L0.6,0.0394L0.65,0.0352L0.7,0.0304L0.75,0.0255L0.8,0.0204L0.85,0.0154L0.9,0.0103L0.95,0.0052L1,0.0002"
    />
</svg>
