
<svg 
  class="airfoil-n63012a"
  fill="none"
  stroke="black" 
  stroke-width="1"
  style="overflow:visible"
  viewBox="0, -0.06, 1, 0.12"
  xmlns="http://www.w3.org/2000/svg">
    <title>NACA 63012A AIRFOIL</title>
    <path 
      vector-effect="non-scaling-stroke"
      d="M1,-0.0003L0.95,-0.0063L0.9,-0.0122L0.85,-0.0183L0.8,-0.0243L0.75,-0.0303L0.7,-0.0362L0.65,-0.0419L0.6,-0.047L0.55,-0.0515L0.5,-0.0552L0.45,-0.0579L0.4,-0.0596L0.35,-0.06L0.3,-0.059L0.25,-0.0566L0.2,-0.0529L0.15,-0.0475L0.1,-0.0399L0.075,-0.035L0.05,-0.029L0.025,-0.0208L0.0125,-0.0149L0.0075,-0.0117L0.005,-0.0097L0,-0L0.005,0.0097L0.0075,0.0117L0.0125,0.0149L0.025,0.0208L0.05,0.029L0.075,0.035L0.1,0.0399L0.15,0.0475L0.2,0.0529L0.25,0.0566L0.3,0.059L0.35,0.06L0.4,0.0596L0.45,0.0579L0.5,0.0552L0.55,0.0515L0.6,0.047L0.65,0.0419L0.7,0.0362L0.75,0.0303L0.8,0.0243L0.85,0.0183L0.9,0.0122L0.95,0.0063L1,0.0003"
    />
</svg>
