
<svg 
  class="airfoil-n63215b"
  fill="none"
  stroke="black" 
  stroke-width="1"
  style="overflow:visible"
  viewBox="0, -0.086, 1, 0.1508"
  xmlns="http://www.w3.org/2000/svg">
    <title>NACA 63(2)-215 MOD B</title>
    <path 
      vector-effect="non-scaling-stroke"
      d="M1,-0L0.995,-0.0006L0.99,-0.0012L0.98,-0.0023L0.97,-0.0036L0.96,-0.0048L0.95,-0.0062L0.925,-0.0098L0.9,-0.0137L0.875,-0.0179L0.85,-0.0222L0.825,-0.0266L0.8,-0.0311L0.775,-0.0357L0.75,-0.0402L0.725,-0.0447L0.7,-0.0491L0.675,-0.0534L0.65,-0.0576L0.625,-0.0615L0.6,-0.0653L0.575,-0.0688L0.55,-0.072L0.525,-0.075L0.5,-0.0777L0.475,-0.08L0.45,-0.0819L0.425,-0.0835L0.4,-0.0845L0.375,-0.0852L0.35,-0.0853L0.325,-0.0856L0.3,-0.0859L0.275,-0.086L0.25,-0.0859L0.225,-0.0855L0.2,-0.0847L0.175,-0.0835L0.15,-0.0816L0.125,-0.0788L0.1,-0.0748L0.09,-0.0727L0.08,-0.0702L0.07,-0.0673L0.06,-0.064L0.05,-0.0599L0.04,-0.055L0.03,-0.0489L0.02,-0.0408L0.01,-0.0293L0.005,-0.0205L0.004,-0.0182L0.003,-0.0156L0.002,-0.0125L0.001,-0.0085L0.0008,-0.0075L0.0006,-0.0064L0.0004,-0.0051L0.0002,-0.0034L0,-0L0.0002,0.0011L0.0004,0.0022L0.0006,0.0031L0.0008,0.0037L0.001,0.0042L0.002,0.0063L0.003,0.0079L0.004,0.0093L0.005,0.0104L0.01,0.015L0.02,0.0211L0.03,0.0256L0.04,0.0294L0.05,0.0328L0.06,0.0357L0.07,0.0384L0.08,0.0408L0.09,0.043L0.1,0.045L0.125,0.0494L0.15,0.0531L0.175,0.0562L0.2,0.0588L0.225,0.0609L0.25,0.0625L0.275,0.0637L0.3,0.0645L0.325,0.0648L0.35,0.0647L0.375,0.0641L0.4,0.0632L0.425,0.0618L0.45,0.0601L0.475,0.058L0.5,0.0556L0.525,0.053L0.55,0.0501L0.575,0.047L0.6,0.0438L0.625,0.0404L0.65,0.0368L0.675,0.0332L0.7,0.0295L0.725,0.0258L0.75,0.0221L0.775,0.0185L0.8,0.015L0.825,0.0117L0.85,0.0086L0.875,0.0058L0.9,0.0033L0.925,0.0013L0.95,-0.0001L0.96,-0.0005L0.97,-0.0007L0.98,-0.0008L0.99,-0.0006L0.995,-0.0003L1,-0"
    />
</svg>
