
<svg 
  class="airfoil-n63215"
  fill="none"
  stroke="black" 
  stroke-width="1"
  style="overflow:visible"
  viewBox="0, -0.0853, 1, 0.15"
  xmlns="http://www.w3.org/2000/svg">
    <title>NACA 63-215 AIRFOIL</title>
    <path 
      vector-effect="non-scaling-stroke"
      d="M1,-0L0.9501,-0.0062L0.9003,-0.0137L0.8504,-0.0221L0.8005,-0.0311L0.7505,-0.0401L0.7005,-0.0491L0.6505,-0.0575L0.6004,-0.0652L0.5502,-0.072L0.5,-0.0777L0.4498,-0.0819L0.3995,-0.0846L0.3493,-0.0853L0.299,-0.0839L0.2488,-0.0805L0.1985,-0.0749L0.1483,-0.0668L0.0982,-0.0557L0.0732,-0.0485L0.0483,-0.0396L0.0235,-0.0279L0.0112,-0.0198L0.0064,-0.0153L0.004,-0.0125L0,-0L0.006,0.0115L0.0086,0.0139L0.0138,0.0177L0.0265,0.0242L0.0517,0.0333L0.0768,0.04L0.1018,0.0454L0.1517,0.0534L0.2015,0.0589L0.2512,0.0626L0.301,0.0645L0.3507,0.0647L0.4005,0.0632L0.4502,0.06L0.5,0.0556L0.5498,0.0501L0.5997,0.0438L0.6495,0.0369L0.6995,0.0296L0.7495,0.0222L0.7995,0.0151L0.8496,0.0087L0.8997,0.0033L0.9499,-0.0002L1,-0"
    />
</svg>
