
<svg 
  class="airfoil-n63212"
  fill="none"
  stroke="black" 
  stroke-width="1"
  style="overflow:visible"
  viewBox="0, -0.0703, 1, 0.12"
  xmlns="http://www.w3.org/2000/svg">
    <title>NACA 63-212 AIRFOIL</title>
    <path 
      vector-effect="non-scaling-stroke"
      d="M1,-0L0.9501,-0.0057L0.9003,-0.0122L0.8504,-0.0195L0.8004,-0.027L0.7505,-0.0345L0.7004,-0.0418L0.6504,-0.0487L0.6003,-0.0549L0.5502,-0.0603L0.5,-0.0647L0.4498,-0.068L0.3996,-0.0699L0.3494,-0.0703L0.2992,-0.069L0.249,-0.0661L0.1988,-0.0614L0.1487,-0.0547L0.0986,-0.0455L0.0736,-0.0396L0.0486,-0.0324L0.0238,-0.0228L0.0115,-0.0162L0.0066,-0.0126L0.0042,-0.0103L0,-0L0.0054,0.0093L0.0084,0.0112L0.0136,0.0141L0.0262,0.0191L0.0514,0.0261L0.0764,0.0312L0.1014,0.0352L0.1513,0.0412L0.2012,0.0454L0.251,0.0482L0.3008,0.0496L0.3506,0.0497L0.4004,0.0485L0.4502,0.0461L0.5,0.0427L0.5485,0.0384L0.5997,0.0335L0.6496,0.0281L0.6996,0.0224L0.7495,0.0166L0.7996,0.0111L0.8497,0.006L0.8997,0.0019L0.9499,-0.0007L1,-0"
    />
</svg>
