
<svg 
  class="airfoil-n63210"
  fill="none"
  stroke="black" 
  stroke-width="1"
  style="overflow:visible"
  viewBox="0, -0.0603, 1, 0.1"
  xmlns="http://www.w3.org/2000/svg">
    <title>NACA 63-210 AIRFOIL</title>
    <path 
      vector-effect="non-scaling-stroke"
      d="M1,-0L0.9501,-0.0053L0.9002,-0.0121L0.8503,-0.0176L0.8004,-0.0241L0.7504,-0.0306L0.7004,-0.0368L0.6503,-0.0426L0.6002,-0.0479L0.5501,-0.0523L0.5,-0.056L0.4498,-0.0586L0.3997,-0.0601L0.3495,-0.0603L0.2993,-0.0591L0.2492,-0.0565L0.199,-0.0524L0.1489,-0.0466L0.0988,-0.0388L0.0738,-0.0337L0.0489,-0.0275L0.024,-0.0194L0.0116,-0.0138L0.0067,-0.0111L0.0043,-0.0088L0,-0L0.0057,0.0078L0.0083,0.0097L0.0134,0.0116L0.026,0.0157L0.0511,0.0212L0.0762,0.0252L0.1012,0.0284L0.1511,0.0332L0.201,0.0365L0.2508,0.0386L0.3007,0.0397L0.3505,0.0397L0.4003,0.0387L0.4502,0.0367L0.5,0.0339L0.5499,0.0304L0.5898,0.0264L0.6497,0.022L0.6996,0.0174L0.7496,0.0127L0.7996,0.0082L0.8497,0.0041L0.8998,0.0009L0.9499,-0.0012L1,-0"
    />
</svg>
