
<svg 
  class="airfoil-n63415"
  fill="none"
  stroke="black" 
  stroke-width="1"
  style="overflow:visible"
  viewBox="0, -0.0956, 1, 0.1503"
  xmlns="http://www.w3.org/2000/svg">
    <title>NACA 63-415 AIRFOIL</title>
    <path 
      vector-effect="non-scaling-stroke"
      d="M1,-0L0.9503,-0.0093L0.9006,-0.0188L0.8508,-0.0289L0.801,-0.039L0.7511,-0.0491L0.7011,-0.0588L0.6509,-0.0678L0.6007,-0.0759L0.5504,-0.083L0.5,-0.0887L0.4496,-0.0929L0.399,-0.0953L0.3485,-0.0956L0.298,-0.0936L0.2475,-0.0894L0.1971,-0.0828L0.1467,-0.0735L0.0965,-0.0608L0.0715,-0.0526L0.0466,-0.0426L0.022,-0.0296L0.0099,-0.0207L0.0052,-0.0159L0.003,-0.0129L0,-0L0.007,0.0109L0.0098,0.0131L0.0151,0.0165L0.028,0.0222L0.0534,0.03L0.0785,0.0356L0.1035,0.0401L0.1533,0.0466L0.203,0.0509L0.2525,0.0536L0.302,0.0547L0.3515,0.0544L0.401,0.0524L0.4505,0.0491L0.5,0.0446L0.5496,0.0392L0.5993,0.0331L0.6491,0.0266L0.6989,0.0199L0.7489,0.0133L0.7999,0.0072L0.8492,0.0019L0.8994,-0.0018L0.9497,-0.0033L1,-0"
    />
</svg>
