
<svg 
  class="airfoil-n63412"
  fill="none"
  stroke="black" 
  stroke-width="1"
  style="overflow:visible"
  viewBox="0, -0.0806, 1, 0.1204"
  xmlns="http://www.w3.org/2000/svg">
    <title>NACA 63-412 AIRFOIL</title>
    <path 
      vector-effect="non-scaling-stroke"
      d="M1,-0L0.9502,-0.0088L0.9005,-0.0174L0.8507,-0.0262L0.8008,-0.0349L0.7509,-0.0434L0.7009,-0.0515L0.6508,-0.059L0.6006,-0.0656L0.5503,-0.0712L0.5,-0.0757L0.4496,-0.0789L0.3992,-0.0806L0.3488,-0.0806L0.2984,-0.0787L0.248,-0.075L0.1977,-0.0693L0.1473,-0.0614L0.0972,-0.0506L0.0722,-0.0438L0.0473,-0.0354L0.0226,-0.0246L0.0104,-0.0172L0.0057,-0.0132L0.0034,-0.0107L0,-0L0.0066,0.0087L0.0093,0.0104L0.0146,0.0129L0.0274,0.0172L0.0527,0.0228L0.0778,0.0269L0.1028,0.03L0.1526,0.0345L0.2024,0.0375L0.252,0.0392L0.3016,0.0398L0.3511,0.0394L0.4008,0.0378L0.4503,0.0351L0.5,0.0316L0.5497,0.0275L0.5994,0.0228L0.6492,0.018L0.6991,0.0126L0.7491,0.0076L0.7992,0.0031L0.8493,-0.0007L0.8995,-0.0033L0.9498,-0.0033L1,-0"
    />
</svg>
