
<svg 
  class="airfoil-n64012a"
  fill="none"
  stroke="black" 
  stroke-width="1"
  style="overflow:visible"
  viewBox="0, -0.0599, 1, 0.1198"
  xmlns="http://www.w3.org/2000/svg">
    <title>NACA 64-012A AIRFOIL</title>
    <path 
      vector-effect="non-scaling-stroke"
      d="M1,-0.0003L0.95,-0.0064L0.9,-0.0126L0.85,-0.0188L0.8,-0.025L0.75,-0.0312L0.7,-0.0372L0.65,-0.0429L0.6,-0.048L0.55,-0.0524L0.5,-0.056L0.45,-0.0586L0.4,-0.0599L0.35,-0.0597L0.3,-0.0581L0.25,-0.0553L0.2,-0.0513L0.15,-0.0458L0.1,-0.0384L0.075,-0.0336L0.05,-0.0279L0.025,-0.0202L0.0125,-0.0146L0.0075,-0.0116L0.005,-0.0096L0,-0L0.005,0.0096L0.0075,0.0116L0.0125,0.0146L0.025,0.0202L0.05,0.0279L0.075,0.0336L0.1,0.0384L0.15,0.0458L0.2,0.0513L0.25,0.0553L0.3,0.0581L0.35,0.0597L0.4,0.0599L0.45,0.0586L0.5,0.056L0.55,0.0524L0.6,0.048L0.65,0.0429L0.7,0.0372L0.75,0.0312L0.8,0.025L0.85,0.0188L0.9,0.0126L0.95,0.0064L1,0.0003"
    />
</svg>
