
<svg 
  class="airfoil-n6409"
  fill="none"
  stroke="black" 
  stroke-width="1"
  style="overflow:visible"
  viewBox="0, -0.1036, 1, 0.1155"
  xmlns="http://www.w3.org/2000/svg">
    <title>NACA6409 9%</title>
    <path 
      vector-effect="non-scaling-stroke"
      d="M1,-0L0.9973,-0.0008L0.9893,-0.0033L0.976,-0.0074L0.9576,-0.0128L0.9342,-0.0195L0.9061,-0.0272L0.8736,-0.0357L0.8369,-0.0446L0.7965,-0.0538L0.7527,-0.0628L0.7061,-0.0715L0.6571,-0.0796L0.6063,-0.0868L0.5541,-0.093L0.5013,-0.098L0.4484,-0.1015L0.3959,-0.1036L0.3437,-0.1035L0.2932,-0.1009L0.245,-0.0958L0.1999,-0.0887L0.1583,-0.0799L0.1208,-0.0698L0.0878,-0.0589L0.0597,-0.0476L0.0368,-0.0365L0.0192,-0.0258L0.0072,-0.016L0.0008,-0.0074L0,-0L0.0047,0.0057L0.0147,0.0096L0.0297,0.0116L0.0497,0.0119L0.0743,0.0108L0.1032,0.0084L0.1361,0.0051L0.1726,0.0012L0.2123,-0.0031L0.255,-0.0073L0.3001,-0.0111L0.3473,-0.0143L0.3962,-0.0164L0.4471,-0.0177L0.4987,-0.0187L0.5504,-0.0192L0.6017,-0.0193L0.6519,-0.0188L0.7006,-0.0178L0.7473,-0.0163L0.7913,-0.0145L0.8322,-0.0124L0.8696,-0.0102L0.9029,-0.0079L0.9318,-0.0058L0.9559,-0.0038L0.975,-0.0022L0.9888,-0.001L0.9972,-0.0003L1,-0"
    />
</svg>
