
<svg 
  class="airfoil-n64015a"
  fill="none"
  stroke="black" 
  stroke-width="1"
  style="overflow:visible"
  viewBox="0, -0.0749, 1, 0.1498"
  xmlns="http://www.w3.org/2000/svg">
    <title>NACA 642-015A AIRFOIL</title>
    <path 
      vector-effect="non-scaling-stroke"
      d="M1,-0.0003L0.95,-0.008L0.9,-0.0156L0.85,-0.0232L0.8,-0.0308L0.75,-0.0385L0.7,-0.046L0.65,-0.0531L0.6,-0.0596L0.55,-0.0652L0.5,-0.0698L0.45,-0.0731L0.4,-0.0749L0.35,-0.0746L0.3,-0.0727L0.25,-0.0693L0.2,-0.0642L0.15,-0.0573L0.1,-0.048L0.075,-0.042L0.05,-0.0348L0.025,-0.0251L0.0125,-0.0181L0.0075,-0.0144L0.005,-0.0119L0,-0L0.005,0.0119L0.0075,0.0144L0.0125,0.0181L0.025,0.0251L0.05,0.0348L0.075,0.042L0.1,0.048L0.15,0.0573L0.2,0.0642L0.25,0.0693L0.3,0.0727L0.35,0.0746L0.4,0.0749L0.45,0.0731L0.5,0.0698L0.55,0.0652L0.6,0.0596L0.65,0.0531L0.7,0.046L0.75,0.0385L0.8,0.0308L0.85,0.0232L0.9,0.0156L0.95,0.008L1,0.0003"
    />
</svg>
