
<svg 
  class="airfoil-n64008a"
  fill="none"
  stroke="black" 
  stroke-width="1"
  style="overflow:visible"
  viewBox="0, -0.04, 1, 0.08"
  xmlns="http://www.w3.org/2000/svg">
    <title>NACA 64-008A AIRFOIL</title>
    <path 
      vector-effect="non-scaling-stroke"
      d="M1,-0.0002L0.95,-0.0044L0.9,-0.0086L0.85,-0.0128L0.8,-0.017L0.75,-0.0212L0.7,-0.0252L0.65,-0.029L0.6,-0.0323L0.55,-0.0352L0.5,-0.0376L0.45,-0.0392L0.4,-0.04L0.35,-0.0397L0.3,-0.0387L0.25,-0.0368L0.2,-0.0341L0.15,-0.0305L0.1,-0.0256L0.075,-0.0225L0.05,-0.0186L0.025,-0.0135L0.0125,-0.0098L0.0075,-0.0078L0.005,-0.0065L0,-0L0.005,0.0065L0.0075,0.0078L0.0125,0.0098L0.025,0.0135L0.05,0.0186L0.075,0.0225L0.1,0.0256L0.15,0.0305L0.2,0.0341L0.25,0.0368L0.3,0.0387L0.35,0.0397L0.4,0.04L0.45,0.0392L0.5,0.0376L0.55,0.0352L0.6,0.0323L0.65,0.029L0.7,0.0252L0.75,0.0212L0.8,0.017L0.85,0.0128L0.9,0.0086L0.95,0.0044L1,0.0002"
    />
</svg>
