
<svg 
  class="airfoil-n64015"
  fill="none"
  stroke="black" 
  stroke-width="1"
  style="overflow:visible"
  viewBox="0, -0.0748, 1, 0.1496"
  xmlns="http://www.w3.org/2000/svg">
    <title>NACA 642-015 AIRFOIL</title>
    <path 
      vector-effect="non-scaling-stroke"
      d="M1,-0L0.95,-0.0035L0.9,-0.0095L0.85,-0.0168L0.8,-0.0247L0.75,-0.033L0.7,-0.0411L0.65,-0.049L0.6,-0.0562L0.55,-0.0627L0.5,-0.0681L0.45,-0.0722L0.4,-0.0747L0.35,-0.0748L0.3,-0.0732L0.25,-0.0698L0.2,-0.0648L0.15,-0.0578L0.1,-0.0484L0.075,-0.0424L0.05,-0.035L0.025,-0.0253L0.0125,-0.0184L0.0075,-0.0146L0.005,-0.0121L0,-0L0.005,0.0121L0.0075,0.0146L0.0125,0.0184L0.025,0.0253L0.05,0.035L0.075,0.0424L0.1,0.0484L0.15,0.0578L0.2,0.0648L0.25,0.0698L0.3,0.0732L0.35,0.0748L0.4,0.0747L0.45,0.0722L0.5,0.0681L0.55,0.0627L0.6,0.0562L0.65,0.049L0.7,0.0411L0.75,0.033L0.8,0.0247L0.85,0.0168L0.9,0.0095L0.95,0.0035L1,-0"
    />
</svg>
