
<svg 
  class="airfoil-n64012"
  fill="none"
  stroke="black" 
  stroke-width="1"
  style="overflow:visible"
  viewBox="0, -0.0598, 1, 0.1196"
  xmlns="http://www.w3.org/2000/svg">
    <title>NASA/LANGLEY 64-012 AIRFOIL</title>
    <path 
      vector-effect="non-scaling-stroke"
      d="M1,-0L0.95,-0.0029L0.9,-0.0079L0.85,-0.0138L0.8,-0.0203L0.75,-0.0269L0.7,-0.0335L0.65,-0.0397L0.6,-0.0455L0.55,-0.0506L0.5,-0.0548L0.45,-0.058L0.4,-0.0598L0.35,-0.0598L0.3,-0.0584L0.25,-0.0558L0.2,-0.0517L0.15,-0.0462L0.1,-0.0387L0.075,-0.0339L0.05,-0.0281L0.025,-0.0203L0.0125,-0.0149L0.0075,-0.0118L0.005,-0.0098L0,-0L0.005,0.0098L0.0075,0.0118L0.0125,0.0149L0.025,0.0203L0.05,0.0281L0.075,0.0339L0.1,0.0387L0.15,0.0462L0.2,0.0517L0.25,0.0558L0.3,0.0584L0.35,0.0598L0.4,0.0598L0.45,0.058L0.5,0.0548L0.55,0.0506L0.6,0.0455L0.65,0.0397L0.7,0.0335L0.75,0.0269L0.8,0.0203L0.85,0.0138L0.9,0.0079L0.95,0.0029L1,-0"
    />
</svg>
