
<svg 
  class="airfoil-n64110"
  fill="none"
  stroke="black" 
  stroke-width="1"
  style="overflow:visible"
  viewBox="0, -0.0552, 1, 0.0998"
  xmlns="http://www.w3.org/2000/svg">
    <title>NACA 64-110 AIRFOIL</title>
    <path 
      vector-effect="non-scaling-stroke"
      d="M1,-0L0.9501,-0.0041L0.9001,-0.0093L0.8502,-0.0151L0.8002,-0.0212L0.7502,-0.0273L0.7002,-0.0331L0.6502,-0.0386L0.6001,-0.0436L0.5501,-0.0479L0.5,-0.0514L0.4499,-0.0539L0.3998,-0.0552L0.3498,-0.0549L0.2997,-0.0535L0.2496,-0.0509L0.1995,-0.047L0.1495,-0.0418L0.0994,-0.0348L0.0744,-0.0304L0.0494,-0.025L0.0245,-0.0179L0.0121,-0.013L0.0071,-0.0102L0.0047,-0.0084L0,-0L0.0054,0.0079L0.0079,0.0095L0.0129,0.012L0.0255,0.0161L0.0505,0.0218L0.0756,0.0261L0.1006,0.0296L0.1505,0.0351L0.2005,0.039L0.2504,0.0419L0.3003,0.0438L0.3503,0.0446L0.4002,0.0445L0.4501,0.043L0.5,0.0403L0.5499,0.0369L0.5999,0.0328L0.6498,0.0283L0.6998,0.0234L0.7498,0.0183L0.7998,0.0132L0.8498,0.0084L0.8999,0.0041L0.9499,0.0009L1,-0"
    />
</svg>
