
<svg 
  class="airfoil-n64108"
  fill="none"
  stroke="black" 
  stroke-width="1"
  style="overflow:visible"
  viewBox="0, -0.0453, 1, 0.0799"
  xmlns="http://www.w3.org/2000/svg">
    <title>NACA 64-108 AIRFOIL</title>
    <path 
      vector-effect="non-scaling-stroke"
      d="M1,-0L0.95,-0.0036L0.9001,-0.0081L0.8501,-0.013L0.8001,-0.018L0.7502,-0.023L0.7002,-0.0278L0.6501,-0.0322L0.6001,-0.0362L0.5501,-0.0396L0.5,-0.0424L0.4499,-0.0443L0.3999,-0.0453L0.3498,-0.0449L0.2997,-0.0437L0.2497,-0.0415L0.1996,-0.0384L0.1496,-0.034L0.0996,-0.0283L0.0746,-0.0247L0.0496,-0.0203L0.0246,-0.0146L0.0121,-0.0106L0.0072,-0.0083L0.0047,-0.0068L0,-0L0.0053,0.0063L0.0078,0.0076L0.0128,0.0095L0.0254,0.0127L0.0504,0.0172L0.0755,0.0205L0.1005,0.0232L0.1504,0.0273L0.2004,0.0304L0.2503,0.0326L0.3003,0.034L0.3502,0.0346L0.4001,0.0346L0.4501,0.0333L0.5,0.0313L0.55,0.0286L0.5999,0.0255L0.6499,0.0219L0.6999,0.0181L0.7498,0.0141L0.7998,0.0101L0.8499,0.0063L0.8999,0.0029L0.9499,0.0005L1,-0"
    />
</svg>
