
<svg 
  class="airfoil-n64212"
  fill="none"
  stroke="black" 
  stroke-width="1"
  style="overflow:visible"
  viewBox="0, -0.0705, 1, 0.120000005"
  xmlns="http://www.w3.org/2000/svg">
    <title>NACA 64(1)-212</title>
    <path 
      vector-effect="non-scaling-stroke"
      d="M1,-0L0.9501,-0.006L0.9003,-0.013L0.8504,-0.0205L0.8005,-0.0282L0.7505,-0.0359L0.7005,-0.0432L0.6504,-0.05L0.6003,-0.0562L0.5502,-0.0615L0.5,-0.0658L0.4498,-0.0689L0.3996,-0.0705L0.3494,-0.0701L0.2992,-0.0681L0.249,-0.0647L0.1989,-0.0597L0.1487,-0.0529L0.0987,-0.0439L0.0736,-0.0382L0.0487,-0.0312L0.0238,-0.0222L0.0115,-0.0159L0.0066,-0.0125L0.0042,-0.0103L0,-0L0.0058,0.0093L0.0084,0.011L0.0135,0.0138L0.0262,0.0185L0.0513,0.0249L0.0764,0.0297L0.1014,0.0335L0.1513,0.0395L0.2011,0.0438L0.251,0.0468L0.3008,0.0487L0.3506,0.0495L0.4004,0.0491L0.4502,0.047L0.5,0.0438L0.5498,0.0396L0.5997,0.0348L0.6496,0.0294L0.6995,0.0238L0.7495,0.018L0.7995,0.0123L0.8496,0.0071L0.8997,0.0027L0.9499,-0.0003L1,-0"
    />
</svg>
