
<svg 
  class="airfoil-n64212ma"
  fill="none"
  stroke="black" 
  stroke-width="1"
  style="overflow:visible"
  viewBox="0, -0.0828, 1, 0.12010001"
  xmlns="http://www.w3.org/2000/svg">
    <title>NACA 64(1)-212 MOD A</title>
    <path 
      vector-effect="non-scaling-stroke"
      d="M1,-0L0.9512,-0.007L0.9024,-0.015L0.8536,-0.0235L0.8047,-0.0322L0.7558,-0.0408L0.7069,-0.0491L0.6579,-0.0569L0.6088,-0.064L0.5597,-0.0703L0.5106,-0.0756L0.4614,-0.0797L0.4122,-0.0823L0.3629,-0.0828L0.3136,-0.0827L0.2643,-0.0811L0.215,-0.0788L0.1657,-0.0755L0.1164,-0.0697L0.0918,-0.0647L0.0617,-0.0582L0.0486,-0.0515L0.0387,-0.0473L0.0288,-0.0414L0.0189,-0.0352L0.0139,-0.0315L0.0089,-0.0263L0.0048,-0.0209L0.0018,-0.014L0,-0L0.0013,0.0068L0.0042,0.0112L0.0081,0.0147L0.0129,0.0173L0.0227,0.0195L0.0325,0.0205L0.057,0.0217L0.0962,0.0237L0.1355,0.0257L0.1747,0.0276L0.2139,0.0297L0.2532,0.0319L0.3128,0.035L0.3617,0.0367L0.4105,0.0373L0.4594,0.0362L0.5084,0.0339L0.5574,0.0308L0.6064,0.0269L0.6555,0.0226L0.7047,0.0179L0.7538,0.0131L0.803,0.0084L0.8523,0.0041L0.9015,0.0007L0.9508,-0.0013L1,-0"
    />
</svg>
