
<svg 
  class="airfoil-n66021"
  fill="none"
  stroke="black" 
  stroke-width="1"
  style="overflow:visible"
  viewBox="0, -0.105, 1, 0.21"
  xmlns="http://www.w3.org/2000/svg">
    <title>NACA 66-021 AIRFOIL</title>
    <path 
      vector-effect="non-scaling-stroke"
      d="M1,-0L0.95,-0.0072L0.9,-0.0192L0.85,-0.0332L0.8,-0.048L0.75,-0.0625L0.7,-0.0761L0.65,-0.0879L0.6,-0.0969L0.55,-0.1019L0.5,-0.1043L0.45,-0.105L0.4,-0.1041L0.35,-0.1015L0.3,-0.0974L0.25,-0.0915L0.2,-0.0838L0.15,-0.0737L0.1,-0.0605L0.075,-0.0523L0.05,-0.0427L0.025,-0.0304L0.0125,-0.0224L0.0075,-0.018L0.005,-0.0153L0,-0L0.005,0.0153L0.0075,0.018L0.0125,0.0224L0.025,0.0304L0.05,0.0427L0.075,0.0523L0.1,0.0605L0.15,0.0737L0.2,0.0838L0.25,0.0915L0.3,0.0974L0.35,0.1015L0.4,0.1041L0.45,0.105L0.5,0.1043L0.55,0.1019L0.6,0.0969L0.65,0.0879L0.7,0.0761L0.75,0.0625L0.8,0.048L0.85,0.0332L0.9,0.0192L0.95,0.0072L1,-0"
    />
</svg>
