
<svg 
  class="airfoil-n6h15"
  fill="none"
  stroke="black" 
  stroke-width="1"
  style="overflow:visible"
  viewBox="0, -0.123, 1, 0.1636"
  xmlns="http://www.w3.org/2000/svg">
    <title>NACA 6-H-15 AIRFOIL</title>
    <path 
      vector-effect="non-scaling-stroke"
      d="M1,-0L0.95,-0.0033L0.9,-0.0109L0.8,-0.0317L0.7,-0.0589L0.6,-0.0881L0.5,-0.1118L0.4,-0.123L0.3,-0.1184L0.25,-0.1126L0.2,-0.1019L0.15,-0.0892L0.1,-0.0725L0.075,-0.062L0.05,-0.0506L0.025,-0.0367L0.0125,-0.0258L0,-0L0.0125,0.0101L0.025,0.0132L0.05,0.0166L0.075,0.0187L0.1,0.0198L0.15,0.0218L0.2,0.0241L0.25,0.0269L0.3,0.0295L0.4,0.0328L0.5,0.0362L0.6,0.0396L0.7,0.0406L0.8,0.0356L0.9,0.0182L0.95,0.009L1,-0"
    />
</svg>
