
<svg 
  class="airfoil-n6h10"
  fill="none"
  stroke="black" 
  stroke-width="1"
  style="overflow:visible"
  viewBox="0, -0.0952, 1, 0.1188"
  xmlns="http://www.w3.org/2000/svg">
    <title>NACA 6-H-10 AIRFOIL</title>
    <path 
      vector-effect="non-scaling-stroke"
      d="M1,-0L0.95,-0.0011L0.9,-0.0057L0.8,-0.0197L0.7,-0.0411L0.6,-0.0653L0.5,-0.0854L0.4,-0.0952L0.3,-0.092L0.25,-0.0877L0.2,-0.0794L0.15,-0.0694L0.1,-0.056L0.075,-0.0476L0.05,-0.0386L0.025,-0.0276L0.0125,-0.0192L0,0.0011L0.0125,0.0039L0.025,0.0045L0.05,0.0046L0.075,0.0043L0.1,0.0033L0.15,0.002L0.2,0.0016L0.25,0.002L0.3,0.0031L0.4,0.005L0.5,0.0098L0.6,0.0168L0.7,0.0228L0.8,0.0236L0.9,0.013L0.95,0.0068L1,-0"
    />
</svg>
