
<svg 
  class="airfoil-n6h20"
  fill="none"
  stroke="black" 
  stroke-width="1"
  style="overflow:visible"
  viewBox="0, -0.161, 1, 0.218"
  xmlns="http://www.w3.org/2000/svg">
    <title>NACA 6-H-20 AIRFOIL</title>
    <path 
      vector-effect="non-scaling-stroke"
      d="M1,-0L0.95,-0.0053L0.9,-0.012L0.8,-0.041L0.7,-0.08L0.6,-0.121L0.5,-0.151L0.4,-0.161L0.3,-0.155L0.25,-0.147L0.2,-0.135L0.15,-0.1196L0.1,-0.096L0.075,-0.083L0.05,-0.067L0.025,-0.047L0.0125,-0.033L0,-0L0.0125,0.015L0.025,0.019L0.05,0.023L0.075,0.0254L0.1,0.0275L0.15,0.0305L0.2,0.032L0.25,0.0334L0.3,0.0356L0.4,0.0385L0.5,0.043L0.6,0.051L0.7,0.057L0.8,0.051L0.9,0.023L0.95,0.011L1,-0"
    />
</svg>
