
<svg 
  class="airfoil-n8h12"
  fill="none"
  stroke="black" 
  stroke-width="1"
  style="overflow:visible"
  viewBox="0, -0.0953, 1, 0.12019999"
  xmlns="http://www.w3.org/2000/svg">
    <title>NACA 8-H-12 AIRFOIL</title>
    <path 
      vector-effect="non-scaling-stroke"
      d="M1,-0L0.9499,-0.0012L0.9002,-0.0034L0.8011,-0.0189L0.7025,-0.0384L0.6036,-0.0585L0.5039,-0.0767L0.4029,-0.0903L0.2997,-0.0953L0.2475,-0.0924L0.1961,-0.086L0.145,-0.0763L0.0943,-0.0626L0.0691,-0.0538L0.0442,-0.0431L0.0198,-0.0294L0.008,-0.0201L0.0036,-0.0152L0,-0L0.0114,0.0095L0.0169,0.0112L0.0302,0.0141L0.0558,0.0174L0.0809,0.0192L0.1057,0.0206L0.155,0.0224L0.2039,0.0235L0.2525,0.0242L0.3003,0.0245L0.3971,0.0249L0.4961,0.0244L0.5964,0.0229L0.7988,0.0164L0.8998,0.0105L0.95,0.0063L1,-0"
    />
</svg>
