
<svg 
  class="airfoil-n9"
  fill="none"
  stroke="black" 
  stroke-width="1"
  style="overflow:visible"
  viewBox="0, -0.0846, 1, 0.0846"
  xmlns="http://www.w3.org/2000/svg">
    <title>N-9</title>
    <path 
      vector-effect="non-scaling-stroke"
      d="M1,-0.0028L0.95,-0.0135L0.9,-0.0212L0.8,-0.0386L0.7,-0.0524L0.6,-0.0652L0.5,-0.076L0.4,-0.0822L0.3,-0.0846L0.2,-0.0826L0.15,-0.0776L0.1,-0.0692L0.075,-0.0644L0.05,-0.058L0.025,-0.0478L0.0125,-0.0398L0,-0.0225L0.0125,-0.0124L0.025,-0.0088L0.05,-0.0048L0.075,-0.003L0.1,-0.0022L0.15,-0L0.2,-0L0.3,-0L0.4,-0.0002L0.5,-0.0008L0.6,-0.0012L0.7,-0.0012L0.8,-0.0008L0.9,-0.0002L0.95,-0.0001L1,-0"
    />
</svg>
