
<svg 
  class="airfoil-naca16009"
  fill="none"
  stroke="black" 
  stroke-width="1"
  style="overflow:visible"
  viewBox="0, -0.045, 1, 0.09"
  xmlns="http://www.w3.org/2000/svg">
    <title>NACA 16009</title>
    <path 
      vector-effect="non-scaling-stroke"
      d="M1,-0.0009L0.9989,-0.0011L0.9957,-0.0018L0.9904,-0.0028L0.983,-0.0043L0.9735,-0.0062L0.9619,-0.0084L0.9484,-0.0109L0.933,-0.0136L0.9157,-0.0164L0.8967,-0.0194L0.8759,-0.0224L0.8536,-0.0253L0.8297,-0.0282L0.8044,-0.031L0.7778,-0.0336L0.75,-0.036L0.7211,-0.0382L0.6913,-0.04L0.6607,-0.0416L0.6294,-0.0429L0.5975,-0.0438L0.5653,-0.0445L0.5327,-0.0449L0.5,-0.045L0.4673,-0.0449L0.4347,-0.0445L0.4024,-0.044L0.3706,-0.0432L0.3393,-0.0422L0.3087,-0.041L0.2789,-0.0397L0.25,-0.0381L0.2222,-0.0365L0.1956,-0.0347L0.1703,-0.0327L0.1464,-0.0307L0.1241,-0.0286L0.1033,-0.0263L0.0843,-0.024L0.067,-0.0216L0.0516,-0.0191L0.0381,-0.0165L0.0265,-0.0137L0.017,-0.011L0.0096,-0.0081L0.0043,-0.0053L0.0011,-0.0027L0,-0L0.0011,0.0027L0.0043,0.0053L0.0096,0.0081L0.017,0.011L0.0265,0.0137L0.0381,0.0165L0.0516,0.0191L0.067,0.0216L0.0843,0.024L0.1033,0.0263L0.1241,0.0286L0.1464,0.0307L0.1703,0.0327L0.1956,0.0347L0.2222,0.0365L0.25,0.0381L0.2789,0.0397L0.3087,0.041L0.3393,0.0422L0.3706,0.0432L0.4024,0.044L0.4347,0.0445L0.4673,0.0449L0.5,0.045L0.5327,0.0449L0.5653,0.0445L0.5975,0.0438L0.6294,0.0429L0.6607,0.0416L0.6913,0.04L0.7211,0.0382L0.75,0.036L0.7778,0.0336L0.8044,0.031L0.8297,0.0282L0.8536,0.0253L0.8759,0.0224L0.8967,0.0194L0.9157,0.0164L0.933,0.0136L0.9484,0.0109L0.9619,0.0084L0.9735,0.0062L0.983,0.0043L0.9904,0.0028L0.9957,0.0018L0.9989,0.0011L1,0.0009"
    />
</svg>
