
<svg 
  class="airfoil-naca001065"
  fill="none"
  stroke="black" 
  stroke-width="1"
  style="overflow:visible"
  viewBox="0, -0.05, 1, 0.1"
  xmlns="http://www.w3.org/2000/svg">
    <title>NACA 0010-65</title>
    <path 
      vector-effect="non-scaling-stroke"
      d="M1,-0.001L0.95,-0.0118L0.9,-0.021L0.8,-0.035L0.7,-0.0439L0.6,-0.0487L0.5,-0.05L0.4,-0.0489L0.3,-0.0458L0.2,-0.0409L0.15,-0.0376L0.1,-0.033L0.075,-0.0299L0.05,-0.0259L0.025,-0.0197L0.0125,-0.0147L0,-0L0.0125,0.0147L0.025,0.0197L0.05,0.0259L0.075,0.0299L0.1,0.033L0.15,0.0376L0.2,0.0409L0.3,0.0458L0.4,0.0489L0.5,0.05L0.6,0.0487L0.7,0.0439L0.8,0.035L0.9,0.021L0.95,0.0118L1,0.001"
    />
</svg>
