
<svg 
  class="airfoil-naca633618"
  fill="none"
  stroke="black" 
  stroke-width="1"
  style="overflow:visible"
  viewBox="0, -0.1209, 1, 0.18079999"
  xmlns="http://www.w3.org/2000/svg">
    <title>NACA 63(3)-618</title>
    <path 
      vector-effect="non-scaling-stroke"
      d="M1,-0L0.9505,-0.0129L0.901,-0.0253L0.8515,-0.038L0.8018,-0.0507L0.7519,-0.0633L0.7019,-0.0753L0.6516,-0.0865L0.6012,-0.0967L0.5507,-0.1054L0.5,-0.1125L0.4492,-0.1177L0.3983,-0.1206L0.3473,-0.1209L0.2964,-0.1182L0.2455,-0.1127L0.1947,-0.1042L0.144,-0.0922L0.0937,-0.0759L0.0687,-0.0654L0.0439,-0.0527L0.0196,-0.0362L0.008,-0.0249L0.0036,-0.0188L0.0016,-0.0151L0,-0L0.0084,0.0121L0.0114,0.0146L0.017,0.0185L0.0303,0.025L0.0561,0.0337L0.0813,0.04L0.1063,0.0448L0.156,0.0518L0.2053,0.0564L0.2545,0.059L0.3036,0.0599L0.3527,0.0591L0.4017,0.0563L0.4508,0.052L0.5,0.0463L0.5493,0.0397L0.5987,0.0324L0.6484,0.0247L0.6981,0.017L0.7481,0.0096L0.7982,0.003L0.8485,-0.0024L0.899,-0.0057L0.9495,-0.006L1,-0"
    />
</svg>
