
<svg 
  class="airfoil-naca66-018"
  fill="none"
  stroke="black" 
  stroke-width="1"
  style="overflow:visible"
  viewBox="0, -0.09, 1, 0.18"
  xmlns="http://www.w3.org/2000/svg">
    <title>NACA 66-018</title>
    <path 
      vector-effect="non-scaling-stroke"
      d="M1,-0L0.9944,-0.0006L0.9775,-0.0025L0.95,-0.0065L0.9269,-0.011L0.9,-0.0171L0.85,-0.0293L0.8,-0.0421L0.75,-0.0545L0.7,-0.066L0.65,-0.0758L0.6,-0.0832L0.55,-0.0873L0.5,-0.0894L0.45,-0.09L0.4,-0.0892L0.35,-0.087L0.3,-0.0835L0.25,-0.0785L0.2,-0.0719L0.15,-0.0633L0.1,-0.0521L0.075,-0.0451L0.05,-0.0369L0.025,-0.0265L0.0125,-0.0195L0.0075,-0.0157L0.005,-0.0132L0.0013,-0.0071L0,-0L0.0013,0.0071L0.005,0.0132L0.0075,0.0157L0.0125,0.0195L0.025,0.0265L0.05,0.0369L0.075,0.0451L0.1,0.0521L0.15,0.0633L0.2,0.0719L0.25,0.0785L0.3,0.0835L0.35,0.087L0.4,0.0892L0.45,0.09L0.5,0.0894L0.55,0.0873L0.6,0.0832L0.65,0.0758L0.7,0.066L0.75,0.0545L0.8,0.0421L0.85,0.0293L0.8761,0.0229L0.9,0.0171L0.95,0.0065L0.9775,0.0025L0.9944,0.0006L1,-0"
    />
</svg>
