
<svg 
  class="airfoil-naca652415"
  fill="none"
  stroke="black" 
  stroke-width="1"
  style="overflow:visible"
  viewBox="0, -0.0964, 1, 0.15"
  xmlns="http://www.w3.org/2000/svg">
    <title>NACA 65(2)-415</title>
    <path 
      vector-effect="non-scaling-stroke"
      d="M1,-0L0.9504,-0.0106L0.9008,-0.0217L0.8511,-0.0332L0.8013,-0.0445L0.7513,-0.0553L0.7012,-0.0654L0.6511,-0.0746L0.6008,-0.0826L0.5504,-0.0891L0.5,-0.0937L0.4495,-0.0962L0.399,-0.0964L0.3485,-0.0945L0.2981,-0.0909L0.2476,-0.0855L0.1973,-0.0781L0.147,-0.0684L0.0968,-0.0558L0.0718,-0.0479L0.047,-0.0386L0.0223,-0.0268L0.0102,-0.019L0.0054,-0.0148L0.0031,-0.0121L0,-0L0.0069,0.0101L0.0096,0.012L0.0148,0.0147L0.0277,0.0194L0.053,0.026L0.0782,0.031L0.1032,0.0351L0.153,0.0415L0.2027,0.0463L0.2524,0.0497L0.3019,0.052L0.3515,0.0534L0.401,0.0536L0.4505,0.0524L0.5,0.0496L0.5496,0.0453L0.5992,0.0398L0.6489,0.0334L0.6988,0.0265L0.7487,0.0195L0.7987,0.0126L0.8489,0.0063L0.8992,0.0011L0.9496,-0.0021L1,-0"
    />
</svg>
