
<svg 
  class="airfoil-naca001264a08cli0.2"
  fill="none"
  stroke="black" 
  stroke-width="1"
  style="overflow:visible"
  viewBox="0, -0.0728, 1, 0.11"
  xmlns="http://www.w3.org/2000/svg">
    <title>NACA 0012-64 a=0.8 c(li)=0.2</title>
    <path 
      vector-effect="non-scaling-stroke"
      d="M1,-0.0012L0.9505,-0.0127L0.9009,-0.0236L0.8012,-0.0425L0.7008,-0.0566L0.6004,-0.0666L0.4999,-0.0716L0.3995,-0.0728L0.299,-0.0697L0.1986,-0.0622L0.1484,-0.0564L0.0983,-0.0483L0.0732,-0.043L0.0482,-0.0362L0.0234,-0.0266L0.0111,-0.0193L0,-0L0.0139,0.0063L0.0266,0.0082L0.0518,0.0119L0.0768,0.0171L0.1018,0.0212L0.1516,0.0245L0.2014,0.0296L0.301,0.0331L0.4005,0.0368L0.5001,0.0372L0.5996,0.0353L0.6992,0.0313L0.7988,0.0255L0.8991,0.0183L0.9495,0.0106L1,0.001"
    />
</svg>
