
<svg 
  class="airfoil-naca2421"
  fill="none"
  stroke="black" 
  stroke-width="1"
  style="overflow:visible"
  viewBox="0, -0.1238, 1, 0.2105"
  xmlns="http://www.w3.org/2000/svg">
    <title>NACA 2421</title>
    <path 
      vector-effect="non-scaling-stroke"
      d="M1,-0.0022L0.95,-0.0176L0.9,-0.0318L0.8,-0.0574L0.7,-0.0794L0.6,-0.0979L0.5,-0.1122L0.4,-0.1216L0.3,-0.1238L0.25,-0.1215L0.2,-0.1159L0.15,-0.107L0.1,-0.0928L0.075,-0.0829L0.05,-0.07L0.025,-0.0521L0.0125,-0.0387L0,-0L0.0125,0.0282L0.025,0.0402L0.05,0.0551L0.075,0.0648L0.1,0.0718L0.15,0.0805L0.2,0.0852L0.25,0.0867L0.3,0.0862L0.4,0.0816L0.5,0.0731L0.6,0.0617L0.7,0.0487L0.8,0.0344L0.9,0.0188L0.95,0.0106L1,0.0022"
    />
</svg>
