
<svg 
  class="airfoil-naca1410"
  fill="none"
  stroke="black" 
  stroke-width="1"
  style="overflow:visible"
  viewBox="0, -0.0594, 1, 0.1003"
  xmlns="http://www.w3.org/2000/svg">
    <title>NACA 1410</title>
    <path 
      vector-effect="non-scaling-stroke"
      d="M1,-0.001L0.9502,-0.0083L0.9003,-0.0151L0.8005,-0.0274L0.7005,-0.038L0.6004,-0.0469L0.5002,-0.0538L0.4,-0.0584L0.2994,-0.0594L0.2491,-0.0581L0.1988,-0.0553L0.1486,-0.0506L0.0985,-0.0434L0.0736,-0.0384L0.0487,-0.0319L0.024,-0.023L0.0117,-0.0164L0,-0L0.0133,0.0152L0.026,0.0205L0.0513,0.0273L0.0764,0.0316L0.1015,0.0346L0.1514,0.0384L0.2012,0.0403L0.2509,0.0409L0.3006,0.0406L0.4,0.0394L0.4997,0.0344L0.5996,0.0291L0.6995,0.023L0.7995,0.0163L0.8997,0.009L0.9498,0.0051L1,0.001"
    />
</svg>
