
<svg 
  class="airfoil-naca654421a05"
  fill="none"
  stroke="black" 
  stroke-width="1"
  style="overflow:visible"
  viewBox="0, -0.1347, 1, 0.21000001"
  xmlns="http://www.w3.org/2000/svg">
    <title>NACA 65(4)-421 a=0.5</title>
    <path 
      vector-effect="non-scaling-stroke"
      d="M1,-0L0.9503,-0.0083L0.901,-0.021L0.8518,-0.0355L0.8026,-0.051L0.7534,-0.0666L0.704,-0.0819L0.6543,-0.0964L0.6042,-0.1094L0.5536,-0.1206L0.5021,-0.1289L0.4503,-0.1336L0.3988,-0.1347L0.3475,-0.1326L0.2964,-0.1276L0.2454,-0.12L0.1945,-0.1095L0.144,-0.0957L0.0937,-0.0777L0.0688,-0.0665L0.0441,-0.0531L0.0199,-0.0363L0.0081,-0.0255L0.0036,-0.0199L0.0016,-0.0162L0,-0L0.0084,0.0134L0.0114,0.016L0.0169,0.0196L0.0301,0.0259L0.0559,0.0355L0.0812,0.0428L0.1063,0.0487L0.156,0.0578L0.2054,0.0645L0.2546,0.0695L0.3036,0.0729L0.3525,0.0749L0.4012,0.0753L0.4497,0.0737L0.4979,0.0701L0.5464,0.0648L0.5958,0.0582L0.6457,0.0506L0.696,0.0423L0.7466,0.0336L0.7974,0.0248L0.8482,0.0163L0.899,0.0087L0.9497,0.0026L1,-0"
    />
</svg>
