
<svg 
  class="airfoil-naca747a415"
  fill="none"
  stroke="black" 
  stroke-width="1"
  style="overflow:visible"
  viewBox="0, -0.105, 1, 0.14989999"
  xmlns="http://www.w3.org/2000/svg">
    <title>NACA 747A415</title>
    <path 
      vector-effect="non-scaling-stroke"
      d="M1,-0L0.9502,-0.0064L0.9004,-0.0155L0.8507,-0.0259L0.8011,-0.0369L0.7516,-0.0478L0.7027,-0.0584L0.6539,-0.0688L0.6045,-0.0786L0.5547,-0.0875L0.5045,-0.0952L0.4536,-0.1012L0.4018,-0.105L0.3496,-0.105L0.2982,-0.1022L0.247,-0.0969L0.196,-0.089L0.1452,-0.0783L0.0948,-0.0639L0.0697,-0.0549L0.0449,-0.0441L0.0204,-0.0302L0.0085,-0.0211L0.004,-0.0162L0.0018,-0.0132L0,-0L0.0082,0.0099L0.011,0.0116L0.0165,0.0141L0.0296,0.0182L0.0551,0.0235L0.0803,0.0273L0.1052,0.0304L0.1548,0.035L0.204,0.0384L0.253,0.041L0.3018,0.0429L0.3504,0.0441L0.3982,0.0448L0.4464,0.0449L0.4955,0.0446L0.5453,0.0438L0.5955,0.0424L0.6461,0.0399L0.6973,0.0362L0.7484,0.0305L0.7989,0.0234L0.8493,0.0158L0.8996,0.0084L0.9499,0.0025L1,-0"
    />
</svg>
