
<svg 
  class="airfoil-naca23018"
  fill="none"
  stroke="black" 
  stroke-width="1"
  style="overflow:visible"
  viewBox="0, -0.1056, 1, 0.1803"
  xmlns="http://www.w3.org/2000/svg">
    <title>NACA 23018</title>
    <path 
      vector-effect="non-scaling-stroke"
      d="M1,-0.0019L0.95,-0.0132L0.9,-0.0239L0.8,-0.044L0.7,-0.0618L0.6,-0.0775L0.5,-0.0905L0.4,-0.1004L0.3,-0.1055L0.25,-0.1056L0.2,-0.1036L0.15,-0.0986L0.1,-0.0883L0.075,-0.0801L0.05,-0.0692L0.025,-0.0529L0.0125,-0.0409L0,-0L0.0125,0.0183L0.025,0.0271L0.05,0.038L0.075,0.046L0.1,0.0522L0.15,0.0618L0.2,0.0686L0.25,0.0727L0.3,0.0747L0.4,0.0737L0.5,0.0681L0.6,0.0594L0.7,0.0482L0.8,0.0348L0.9,0.0194L0.95,0.0109L1,0.0019"
    />
</svg>
