
<svg 
  class="airfoil-naca2412"
  fill="none"
  stroke="black" 
  stroke-width="1"
  style="overflow:visible"
  viewBox="0, -0.0788, 1, 0.1211"
  xmlns="http://www.w3.org/2000/svg">
    <title>NACA 2412</title>
    <path 
      vector-effect="non-scaling-stroke"
      d="M1,-0.0013L0.95,-0.0114L0.9,-0.0208L0.8,-0.0375L0.7,-0.0518L0.6,-0.0636L0.5,-0.0724L0.4,-0.078L0.3,-0.0788L0.25,-0.0767L0.2,-0.0726L0.15,-0.0661L0.1,-0.0563L0.075,-0.0496L0.05,-0.0413L0.025,-0.0299L0.0125,-0.0215L0,-0L0.0125,0.0165L0.025,0.0227L0.05,0.0301L0.075,0.0346L0.1,0.0375L0.15,0.041L0.2,0.0423L0.25,0.0422L0.3,0.0412L0.4,0.038L0.5,0.0334L0.6,0.0276L0.7,0.0214L0.8,0.015L0.9,0.0082L0.95,0.0048L1,0.0013"
    />
</svg>
