
<svg 
  class="airfoil-naca663418"
  fill="none"
  stroke="black" 
  stroke-width="1"
  style="overflow:visible"
  viewBox="0, -0.1119, 1, 0.18"
  xmlns="http://www.w3.org/2000/svg">
    <title>NACA 66(3)-418</title>
    <path 
      vector-effect="non-scaling-stroke"
      d="M1,-0L0.9506,-0.0127L0.9012,-0.0274L0.8516,-0.0428L0.8019,-0.0579L0.7519,-0.0724L0.7018,-0.0854L0.6515,-0.0964L0.6011,-0.1046L0.5506,-0.1092L0.5,-0.1115L0.4494,-0.1119L0.3988,-0.1106L0.3483,-0.1076L0.2977,-0.1029L0.2473,-0.0963L0.1968,-0.0877L0.1465,-0.0767L0.0964,-0.0623L0.0714,-0.0535L0.0466,-0.0431L0.0219,-0.03L0.0098,-0.0215L0.0051,-0.0169L0.0028,-0.0141L0,-0L0.0072,0.0121L0.0099,0.0141L0.0152,0.0172L0.0281,0.0226L0.0534,0.0304L0.0786,0.0365L0.1036,0.0416L0.1535,0.0498L0.2032,0.0559L0.2527,0.0605L0.3022,0.064L0.3517,0.0664L0.4011,0.0677L0.4506,0.0681L0.5,0.0674L0.5494,0.0654L0.5989,0.0618L0.6485,0.0552L0.6982,0.0465L0.7481,0.0366L0.7982,0.0261L0.8484,0.0158L0.8988,0.0068L0.9494,0.0001L1,-0"
    />
</svg>
