
<svg 
  class="airfoil-naca23012"
  fill="none"
  stroke="black" 
  stroke-width="1"
  style="overflow:visible"
  viewBox="0, -0.076, 1, 0.12109999"
  xmlns="http://www.w3.org/2000/svg">
    <title>NACA 23012 12%</title>
    <path 
      vector-effect="non-scaling-stroke"
      d="M1,-0.0013L0.9973,-0.0017L0.9891,-0.003L0.9756,-0.0052L0.9569,-0.0081L0.9332,-0.0118L0.9048,-0.016L0.872,-0.0208L0.8351,-0.026L0.7945,-0.0314L0.7507,-0.0371L0.7042,-0.0428L0.6554,-0.0485L0.605,-0.054L0.5533,-0.0592L0.5012,-0.064L0.449,-0.0681L0.3973,-0.0715L0.3468,-0.074L0.298,-0.0755L0.2513,-0.076L0.2074,-0.0752L0.166,-0.0732L0.1273,-0.0692L0.0923,-0.0627L0.062,-0.0538L0.0373,-0.0432L0.0187,-0.0318L0.0063,-0.0203L0.0002,-0.0096L0,-0L0.0053,0.0079L0.0156,0.014L0.0303,0.0187L0.0492,0.0225L0.072,0.0259L0.0987,0.0292L0.1295,0.0328L0.1648,0.0366L0.2048,0.0402L0.2487,0.0428L0.2953,0.0445L0.3442,0.0451L0.3948,0.0448L0.4465,0.0437L0.4988,0.0419L0.5512,0.0395L0.603,0.0366L0.6536,0.0333L0.7026,0.0298L0.7493,0.0261L0.7933,0.0224L0.8341,0.0187L0.8712,0.0151L0.9042,0.0118L0.9328,0.0088L0.9566,0.0062L0.9754,0.0041L0.989,0.0025L0.9972,0.0016L1,0.0013"
    />
</svg>
