
<svg 
  class="airfoil-naca63206"
  fill="none"
  stroke="black" 
  stroke-width="1"
  style="overflow:visible"
  viewBox="0, -0.0404, 1, 0.0602"
  xmlns="http://www.w3.org/2000/svg">
    <title>NACA 63-206</title>
    <path 
      vector-effect="non-scaling-stroke"
      d="M1,-0L0.9501,-0.0045L0.9001,-0.009L0.8505,-0.0136L0.8002,-0.018L0.7502,-0.0224L0.7002,-0.0264L0.6002,-0.0301L0.6001,-0.0334L0.5501,-0.0361L0.5,-0.0383L0.4499,-0.0397L0.3998,-0.0404L0.3497,-0.0403L0.2996,-0.0393L0.2495,-0.0374L0.1994,-0.0345L0.1493,-0.0306L0.0993,-0.0253L0.0743,-0.0219L0.0493,-0.0178L0.0244,-0.0124L0.012,-0.0088L0.007,-0.0068L0.0046,-0.0055L0,-0L0.0054,0.0045L0.008,0.0054L0.013,0.0066L0.0256,0.0087L0.0507,0.0114L0.0757,0.0134L0.1007,0.0149L0.1507,0.0171L0.2006,0.0186L0.2505,0.0195L0.3004,0.0198L0.3503,0.0197L0.4002,0.019L0.4501,0.0178L0.5,0.0162L0.5499,0.0142L0.5998,0.012L0.6498,0.0095L0.6998,0.007L0.7493,0.0045L0.7998,0.0021L0.8498,0.0001L0.8999,-0.0013L0.9499,-0.0018L1,-0"
    />
</svg>
