
<svg 
  class="airfoil-naca4412"
  fill="none"
  stroke="black" 
  stroke-width="1"
  style="overflow:visible"
  viewBox="0, -0.098, 1, 0.1268"
  xmlns="http://www.w3.org/2000/svg">
    <title>NACA 4412</title>
    <path 
      vector-effect="non-scaling-stroke"
      d="M1,-0.0013L0.95,-0.0147L0.9,-0.0271L0.8,-0.0489L0.7,-0.0669L0.6,-0.0814L0.5,-0.0919L0.4,-0.098L0.3,-0.0976L0.25,-0.0941L0.2,-0.088L0.15,-0.0789L0.1,-0.0659L0.075,-0.0576L0.05,-0.0473L0.025,-0.0339L0.0125,-0.0244L0,-0L0.0125,0.0143L0.025,0.0195L0.05,0.0249L0.075,0.0274L0.1,0.0286L0.15,0.0288L0.2,0.0274L0.25,0.025L0.3,0.0226L0.4,0.018L0.5,0.014L0.6,0.01L0.7,0.0065L0.8,0.0039L0.9,0.0022L0.95,0.0016L1,0.0013"
    />
</svg>
