
<svg 
  class="airfoil-naca632615"
  fill="none"
  stroke="black" 
  stroke-width="1"
  style="overflow:visible"
  viewBox="0, -0.106, 1, 0.151"
  xmlns="http://www.w3.org/2000/svg">
    <title>NACA 63(2)-615</title>
    <path 
      vector-effect="non-scaling-stroke"
      d="M1,-0L0.9504,-0.0125L0.9009,-0.024L0.8513,-0.0355L0.8015,-0.0469L0.7516,-0.058L0.7016,-0.0685L0.6514,-0.0781L0.6011,-0.0866L0.5506,-0.0939L0.5,-0.0997L0.4493,-0.1038L0.3986,-0.106L0.3478,-0.1059L0.297,-0.1033L0.2463,-0.0983L0.1956,-0.0907L0.145,-0.0801L0.0947,-0.0658L0.0697,-0.0567L0.0449,-0.0456L0.0205,-0.0313L0.0087,-0.0216L0.0042,-0.0163L0.0021,-0.0132L0,-0L0.008,0.0102L0.0108,0.0121L0.0163,0.0152L0.0295,0.0201L0.0551,0.0266L0.0803,0.0312L0.1053,0.0348L0.155,0.0397L0.2044,0.0429L0.2537,0.0446L0.303,0.045L0.3522,0.0441L0.4014,0.0417L0.4507,0.0381L0.5,0.0336L0.5494,0.0282L0.599,0.0224L0.6486,0.0163L0.6984,0.0102L0.7484,0.0043L0.7985,-0.0008L0.8487,-0.0048L0.8991,-0.007L0.9496,-0.0065L1,-0"
    />
</svg>
