
<svg 
  class="airfoil-naca0024"
  fill="none"
  stroke="black" 
  stroke-width="1"
  style="overflow:visible"
  viewBox="0, -0.12, 1, 0.24"
  xmlns="http://www.w3.org/2000/svg">
    <title>NACA 0024</title>
    <path 
      vector-effect="non-scaling-stroke"
      d="M1,-0.0025L0.95,-0.0161L0.9,-0.029L0.8,-0.0525L0.7,-0.0733L0.6,-0.0913L0.5,-0.1059L0.4,-0.1161L0.3,-0.12L0.25,-0.1188L0.2,-0.1147L0.15,-0.1069L0.1,-0.0936L0.075,-0.084L0.05,-0.0711L0.025,-0.0523L0.0125,-0.0379L0,-0L0.0125,0.0379L0.025,0.0523L0.05,0.0711L0.075,0.084L0.1,0.0936L0.15,0.1069L0.2,0.1147L0.25,0.1188L0.3,0.12L0.4,0.1161L0.5,0.1059L0.6,0.0913L0.7,0.0733L0.8,0.0525L0.9,0.029L0.95,0.0161L1,0.0025"
    />
</svg>
