
<svg 
  class="airfoil-naca633218"
  fill="none"
  stroke="black" 
  stroke-width="1"
  style="overflow:visible"
  viewBox="0, -0.1003, 1, 0.18"
  xmlns="http://www.w3.org/2000/svg">
    <title>NACA 63(3)-218</title>
    <path 
      vector-effect="non-scaling-stroke"
      d="M1,-0L0.9502,-0.0066L0.9003,-0.015L0.8505,-0.0246L0.8006,-0.0349L0.7506,-0.0454L0.7006,-0.0559L0.6506,-0.066L0.6004,-0.0753L0.5502,-0.0835L0.5,-0.0904L0.4497,-0.0958L0.3994,-0.0992L0.3491,-0.1003L0.2988,-0.0988L0.2485,-0.0995L0.1982,-0.0884L0.148,-0.079L0.0979,-0.0658L0.0729,-0.0573L0.048,-0.0467L0.0232,-0.0329L0.011,-0.0232L0.0062,-0.0178L0.0038,-0.0145L0,-0L0.0062,0.0135L0.0088,0.0164L0.014,0.0211L0.0268,0.0291L0.052,0.0404L0.0771,0.0488L0.1021,0.0555L0.152,0.0655L0.2018,0.0725L0.2515,0.077L0.3012,0.0794L0.3509,0.0797L0.4006,0.0777L0.4503,0.0739L0.5,0.0684L0.5498,0.0616L0.5996,0.0538L0.6495,0.0454L0.6994,0.0365L0.7494,0.0275L0.7994,0.0189L0.8495,0.0111L0.8997,0.0047L0.9498,0.0003L1,-0"
    />
</svg>
