
<svg 
  class="airfoil-naca632a015"
  fill="none"
  stroke="black" 
  stroke-width="1"
  style="overflow:visible"
  viewBox="0, -0.0883, 1, 0.1504"
  xmlns="http://www.w3.org/2000/svg">
    <title>NACA 63(2)A-015</title>
    <path 
      vector-effect="non-scaling-stroke"
      d="M1,-0L0.9989,-0.0002L0.9957,-0.0008L0.9904,-0.0018L0.983,-0.0031L0.9735,-0.0048L0.9619,-0.0069L0.9484,-0.0092L0.933,-0.0118L0.9157,-0.0147L0.8967,-0.0179L0.8759,-0.0214L0.8536,-0.0252L0.8297,-0.0292L0.8044,-0.0334L0.7778,-0.0379L0.75,-0.0425L0.7211,-0.0474L0.6913,-0.0525L0.6607,-0.0574L0.6294,-0.0622L0.5975,-0.0669L0.5653,-0.0713L0.5327,-0.0754L0.5,-0.0789L0.4673,-0.082L0.4347,-0.0846L0.4024,-0.0865L0.3706,-0.0878L0.3393,-0.0883L0.3087,-0.0881L0.2789,-0.0873L0.25,-0.086L0.2222,-0.0842L0.1956,-0.0819L0.1703,-0.0791L0.1464,-0.0758L0.1241,-0.0718L0.1033,-0.067L0.0843,-0.0615L0.067,-0.0556L0.0516,-0.0492L0.0381,-0.0425L0.0265,-0.0358L0.017,-0.0287L0.0096,-0.0217L0.0043,-0.0145L0.0011,-0.0073L0,-0L0.0011,0.0046L0.0043,0.0086L0.0096,0.0122L0.017,0.0159L0.0265,0.019L0.0381,0.022L0.0516,0.0249L0.067,0.028L0.0843,0.0312L0.1033,0.0345L0.1241,0.0381L0.1464,0.0419L0.1703,0.0458L0.1956,0.0496L0.2222,0.0529L0.25,0.0558L0.2789,0.0583L0.3087,0.0602L0.3393,0.0615L0.3706,0.0621L0.4024,0.0621L0.4347,0.0614L0.4673,0.0601L0.5,0.0583L0.5327,0.0559L0.5653,0.0532L0.5975,0.0502L0.6294,0.0468L0.6607,0.0431L0.6913,0.0394L0.7211,0.0356L0.75,0.032L0.7778,0.0284L0.8044,0.025L0.8297,0.0218L0.8536,0.0188L0.8759,0.0159L0.8967,0.0133L0.9157,0.0109L0.933,0.0087L0.9484,0.0067L0.9619,0.005L0.9735,0.0035L0.983,0.0022L0.9904,0.0013L0.9957,0.0006L0.9989,0.0001L1,-0"
    />
</svg>
