
<svg 
  class="airfoil-naca653218"
  fill="none"
  stroke="black" 
  stroke-width="1"
  style="overflow:visible"
  viewBox="0, -0.1007, 1, 0.18"
  xmlns="http://www.w3.org/2000/svg">
    <title>NACA 65(3)-218</title>
    <path 
      vector-effect="non-scaling-stroke"
      d="M1,-0L0.9502,-0.0081L0.9005,-0.0183L0.8506,-0.0297L0.8007,-0.0413L0.7508,-0.0529L0.7007,-0.064L0.6507,-0.0742L0.6005,-0.0834L0.5503,-0.091L0.5,-0.0967L0.4497,-0.1L0.3994,-0.1007L0.3491,-0.0992L0.2988,-0.0957L0.2486,-0.0902L0.1983,-0.0827L0.1482,-0.0728L0.0981,-0.0597L0.0731,-0.0515L0.0482,-0.0418L0.0234,-0.0293L0.0111,-0.0212L0.0063,-0.0167L0.0039,-0.0138L0,-0L0.0061,0.0128L0.0088,0.0153L0.0139,0.019L0.0266,0.0256L0.0518,0.0355L0.0769,0.043L0.1019,0.0494L0.1518,0.0593L0.2016,0.0668L0.2514,0.0723L0.3012,0.0762L0.3509,0.0786L0.4006,0.0793L0.4503,0.0781L0.5,0.0746L0.5497,0.0691L0.5995,0.062L0.6494,0.0536L0.6993,0.0445L0.7492,0.035L0.7993,0.0254L0.8494,0.0162L0.8995,0.008L0.9498,0.0017L1,-0"
    />
</svg>
