
<svg 
  class="airfoil-naca2411"
  fill="none"
  stroke="black" 
  stroke-width="1"
  style="overflow:visible"
  viewBox="0, -0.0791, 1, 0.1129"
  xmlns="http://www.w3.org/2000/svg">
    <title>NACA 2.5411</title>
    <path 
      vector-effect="non-scaling-stroke"
      d="M1,-0L0.9973,-0.0006L0.9892,-0.0023L0.9758,-0.0052L0.9572,-0.0091L0.9337,-0.0138L0.9054,-0.0193L0.8726,-0.0253L0.8358,-0.0318L0.7952,-0.0384L0.7514,-0.0451L0.7048,-0.0516L0.6558,-0.0578L0.6051,-0.0635L0.5532,-0.0685L0.5007,-0.0728L0.4481,-0.0761L0.396,-0.0783L0.3446,-0.0791L0.2948,-0.0783L0.2474,-0.0759L0.2029,-0.0719L0.1618,-0.0666L0.1245,-0.0601L0.0915,-0.0525L0.0632,-0.0443L0.0399,-0.0355L0.0217,-0.0265L0.009,-0.0175L0.0017,-0.0086L0,-0L0.0037,0.0079L0.0129,0.0148L0.0272,0.0206L0.0466,0.0253L0.0708,0.0289L0.0995,0.0315L0.1324,0.0331L0.1691,0.0338L0.2093,0.0337L0.2526,0.0329L0.2984,0.0316L0.3464,0.0301L0.3961,0.0283L0.4474,0.0264L0.4993,0.0242L0.5513,0.0217L0.6028,0.0192L0.6532,0.0168L0.702,0.0144L0.7486,0.0121L0.7926,0.0099L0.8334,0.008L0.8705,0.0062L0.9037,0.0046L0.9324,0.0033L0.9563,0.0021L0.9753,0.0012L0.989,0.0005L0.9972,0.0001L1,-0"
    />
</svg>
