
<svg 
  class="airfoil-naca0008"
  fill="none"
  stroke="black" 
  stroke-width="1"
  style="overflow:visible"
  viewBox="0, -0.04, 1, 0.08"
  xmlns="http://www.w3.org/2000/svg">
    <title>NACA 0008</title>
    <path 
      vector-effect="non-scaling-stroke"
      d="M1,-0.0008L0.95,-0.0054L0.9,-0.0097L0.8,-0.0175L0.7,-0.0244L0.6,-0.0304L0.5,-0.0353L0.4,-0.0387L0.3,-0.04L0.25,-0.0396L0.2,-0.0382L0.15,-0.0356L0.1,-0.0312L0.075,-0.028L0.05,-0.0237L0.025,-0.0174L0.0125,-0.0126L0,-0L0.0125,0.0126L0.025,0.0174L0.05,0.0237L0.075,0.028L0.1,0.0312L0.15,0.0356L0.2,0.0382L0.25,0.0396L0.3,0.04L0.4,0.0387L0.5,0.0353L0.6,0.0304L0.7,0.0244L0.8,0.0175L0.9,0.0097L0.95,0.0054L1,0.0008"
    />
</svg>
