
<svg 
  class="airfoil-naca651212"
  fill="none"
  stroke="black" 
  stroke-width="1"
  style="overflow:visible"
  viewBox="0, -0.0707, 1, 0.12"
  xmlns="http://www.w3.org/2000/svg">
    <title>NACA 65(1)-212</title>
    <path 
      vector-effect="non-scaling-stroke"
      d="M1,-0L0.9502,-0.0067L0.9003,-0.0146L0.8504,-0.023L0.8005,-0.0314L0.7505,-0.0395L0.7005,-0.0472L0.6504,-0.0541L0.6003,-0.0601L0.5502,-0.0651L0.5,-0.0686L0.4498,-0.0704L0.3996,-0.0707L0.3494,-0.0694L0.2992,-0.0669L0.2491,-0.063L0.1989,-0.0577L0.1488,-0.0507L0.0987,-0.0416L0.0737,-0.0359L0.0488,-0.0292L0.0239,-0.0206L0.0115,-0.0149L0.0066,-0.0118L0.0042,-0.0097L0,-0L0.0058,0.0087L0.0084,0.0104L0.0135,0.0128L0.0261,0.0169L0.0512,0.0229L0.0763,0.0275L0.1013,0.0313L0.1512,0.0373L0.2011,0.0418L0.2509,0.0451L0.3008,0.0474L0.3506,0.0488L0.4004,0.0493L0.4502,0.0485L0.5,0.0465L0.5498,0.0432L0.5997,0.0387L0.6496,0.0335L0.6995,0.0277L0.7495,0.0216L0.7995,0.0155L0.8496,0.0096L0.8997,0.0043L0.9498,0.0004L1,-0"
    />
</svg>
