
<svg 
  class="airfoil-naca662415"
  fill="none"
  stroke="black" 
  stroke-width="1"
  style="overflow:visible"
  viewBox="0, -0.0969, 1, 0.15"
  xmlns="http://www.w3.org/2000/svg">
    <title>NACA 66(2)-415</title>
    <path 
      vector-effect="non-scaling-stroke"
      d="M1,-0L0.9505,-0.012L0.901,-0.0252L0.8514,-0.0387L0.8016,-0.0519L0.7516,-0.0642L0.7015,-0.0752L0.6513,-0.0843L0.6009,-0.091L0.5505,-0.0947L0.5,-0.0966L0.4495,-0.0969L0.399,-0.0957L0.3486,-0.0931L0.2981,-0.089L0.2477,-0.0833L0.1974,-0.0758L0.1471,-0.0662L0.097,-0.0538L0.072,-0.0462L0.0471,-0.0372L0.0224,-0.0259L0.0102,-0.0187L0.0054,-0.0147L0.0031,-0.0121L0,-0L0.0069,0.0101L0.0096,0.0119L0.0148,0.0144L0.0276,0.0185L0.0529,0.0245L0.078,0.0292L0.103,0.0331L0.1529,0.0393L0.2026,0.044L0.2523,0.0475L0.3019,0.0501L0.3514,0.0519L0.401,0.0529L0.4505,0.0531L0.5,0.0524L0.5495,0.0509L0.5991,0.0482L0.6487,0.0431L0.6985,0.0363L0.7484,0.0284L0.7984,0.02L0.8486,0.0118L0.899,0.0045L0.9495,-0.0007L1,-0"
    />
</svg>
