
<svg 
  class="airfoil-naca654421"
  fill="none"
  stroke="black" 
  stroke-width="1"
  style="overflow:visible"
  viewBox="0, -0.1264, 1, 0.21"
  xmlns="http://www.w3.org/2000/svg">
    <title>NACA 65(4)-421</title>
    <path 
      vector-effect="non-scaling-stroke"
      d="M1,-0L0.9505,-0.0118L0.901,-0.0251L0.8514,-0.0394L0.8017,-0.0539L0.7518,-0.0681L0.7017,-0.0817L0.6514,-0.0942L0.6011,-0.1053L0.5506,-0.1147L0.5,-0.1216L0.4493,-0.1256L0.3986,-0.1264L0.348,-0.1243L0.2973,-0.1198L0.2467,-0.1127L0.1962,-0.103L0.1458,-0.0903L0.0956,-0.0737L0.0706,-0.0633L0.0458,-0.0509L0.0214,-0.0351L0.0093,-0.0249L0.0047,-0.0196L0.0025,-0.016L0,-0L0.0075,0.014L0.0103,0.0168L0.0157,0.0206L0.0287,0.0276L0.0542,0.0382L0.0794,0.0463L0.1044,0.053L0.1542,0.0634L0.2038,0.0712L0.2533,0.0769L0.3027,0.0809L0.352,0.0831L0.4013,0.0836L0.4507,0.0818L0.5,0.0775L0.5494,0.0709L0.5989,0.0625L0.6485,0.053L0.6983,0.0428L0.7482,0.0323L0.7983,0.022L0.8486,0.0125L0.899,0.0045L0.9495,-0.0009L1,-0"
    />
</svg>
