
<svg 
  class="airfoil-naca16015"
  fill="none"
  stroke="black" 
  stroke-width="1"
  style="overflow:visible"
  viewBox="0, -0.075, 1, 0.15"
  xmlns="http://www.w3.org/2000/svg">
    <title>NACA 16-015</title>
    <path 
      vector-effect="non-scaling-stroke"
      d="M1,-0.0015L0.95,-0.0177L0.9,-0.0315L0.8,-0.0525L0.7,-0.0659L0.6,-0.0729L0.5,-0.075L0.4,-0.0732L0.3,-0.0677L0.2,-0.0583L0.15,-0.0517L0.1,-0.0432L0.075,-0.0379L0.05,-0.0314L0.025,-0.0226L0.0125,-0.0161L0,-0L0.0125,0.0161L0.025,0.0226L0.05,0.0314L0.075,0.0379L0.1,0.0432L0.15,0.0517L0.2,0.0583L0.3,0.0677L0.4,0.0732L0.5,0.075L0.6,0.0729L0.7,0.0659L0.8,0.0525L0.9,0.0315L0.95,0.0177L1,0.0015"
    />
</svg>
