
<svg 
  class="airfoil-naca16021"
  fill="none"
  stroke="black" 
  stroke-width="1"
  style="overflow:visible"
  viewBox="0, -0.105, 1, 0.21"
  xmlns="http://www.w3.org/2000/svg">
    <title>NACA 16-021</title>
    <path 
      vector-effect="non-scaling-stroke"
      d="M1,-0.0021L0.95,-0.0248L0.9,-0.0441L0.8,-0.0735L0.7,-0.0922L0.6,-0.1021L0.5,-0.105L0.4,-0.1025L0.3,-0.0948L0.2,-0.0816L0.15,-0.0724L0.1,-0.0605L0.075,-0.0531L0.05,-0.0439L0.025,-0.0316L0.0125,-0.0226L0,-0L0.0125,0.0226L0.025,0.0316L0.05,0.0439L0.075,0.0531L0.1,0.0605L0.15,0.0724L0.2,0.0816L0.3,0.0948L0.4,0.1025L0.5,0.105L0.6,0.1021L0.7,0.0922L0.8,0.0735L0.9,0.0441L0.95,0.0248L1,0.0021"
    />
</svg>
