
<svg 
  class="airfoil-naca64a410"
  fill="none"
  stroke="black" 
  stroke-width="1"
  style="overflow:visible"
  viewBox="0, -0.0755, 1, 0.100899994"
  xmlns="http://www.w3.org/2000/svg">
    <title>NACA 64A410</title>
    <path 
      vector-effect="non-scaling-stroke"
      d="M1,-0.0002L0.9505,-0.0103L0.901,-0.0204L0.8515,-0.0302L0.8015,-0.0397L0.7513,-0.0478L0.7011,-0.0548L0.6508,-0.0611L0.6006,-0.0662L0.5502,-0.0704L0.4999,-0.0734L0.4495,-0.0752L0.3991,-0.0755L0.3487,-0.0741L0.2983,-0.0713L0.248,-0.0671L0.1977,-0.0613L0.1475,-0.0537L0.0974,-0.0438L0.0723,-0.0386L0.0475,-0.0303L0.0228,-0.021L0.0106,-0.0145L0.0058,-0.0111L0.0035,-0.009L0,-0L0.0065,0.0068L0.0092,0.008L0.0144,0.0097L0.0272,0.0125L0.0525,0.0159L0.0777,0.0192L0.1026,0.02L0.1525,0.0224L0.2023,0.0241L0.252,0.025L0.3017,0.0254L0.3513,0.0252L0.4009,0.0244L0.4505,0.0227L0.5001,0.0202L0.5497,0.0174L0.5994,0.0142L0.6492,0.0109L0.6989,0.0076L0.7487,0.0046L0.7985,0.0023L0.8485,0.0013L0.899,0.0008L0.9495,0.0005L1,0.0002"
    />
</svg>
