
<svg 
  class="airfoil-naca633018"
  fill="none"
  stroke="black" 
  stroke-width="1"
  style="overflow:visible"
  viewBox="0, -0.0901, 1, 0.1802"
  xmlns="http://www.w3.org/2000/svg">
    <title>NACA 63(3)-018</title>
    <path 
      vector-effect="non-scaling-stroke"
      d="M1,-0L0.9989,-0.0001L0.9957,-0.0002L0.9904,-0.0005L0.983,-0.001L0.9735,-0.0016L0.9619,-0.0024L0.9484,-0.0037L0.933,-0.0054L0.9157,-0.0076L0.8967,-0.0104L0.8759,-0.0136L0.8536,-0.0173L0.8297,-0.0215L0.8044,-0.0261L0.7778,-0.0312L0.75,-0.0366L0.7211,-0.0422L0.6913,-0.0479L0.6607,-0.0537L0.6294,-0.0595L0.5975,-0.065L0.5653,-0.0703L0.5327,-0.0751L0.5,-0.0795L0.4673,-0.0832L0.4347,-0.0862L0.4024,-0.0884L0.3706,-0.0897L0.3393,-0.0901L0.3087,-0.0896L0.2789,-0.0882L0.25,-0.0861L0.2222,-0.0834L0.1956,-0.08L0.1703,-0.0761L0.1464,-0.0717L0.1241,-0.0669L0.1033,-0.0617L0.0843,-0.0562L0.067,-0.0504L0.0516,-0.0444L0.0381,-0.0383L0.0265,-0.0321L0.017,-0.0256L0.0096,-0.0186L0.0043,-0.0116L0.0011,-0.0054L0,-0L0.0011,0.0054L0.0043,0.0116L0.0096,0.0186L0.017,0.0256L0.0265,0.0321L0.0381,0.0383L0.0516,0.0444L0.067,0.0504L0.0843,0.0562L0.1033,0.0617L0.1241,0.0669L0.1464,0.0717L0.1703,0.0761L0.1956,0.08L0.2222,0.0834L0.25,0.0861L0.2789,0.0882L0.3087,0.0896L0.3393,0.0901L0.3706,0.0897L0.4024,0.0884L0.4347,0.0862L0.4673,0.0832L0.5,0.0795L0.5327,0.0751L0.5653,0.0703L0.5975,0.065L0.6294,0.0595L0.6607,0.0537L0.6913,0.0479L0.7211,0.0422L0.75,0.0366L0.7778,0.0312L0.8044,0.0261L0.8297,0.0215L0.8536,0.0173L0.8759,0.0136L0.8967,0.0104L0.9157,0.0076L0.933,0.0054L0.9484,0.0037L0.9619,0.0024L0.9735,0.0016L0.983,0.001L0.9904,0.0005L0.9957,0.0002L0.9989,0.0001L1,-0"
    />
</svg>
