
<svg 
  class="airfoil-naca643418"
  fill="none"
  stroke="black" 
  stroke-width="1"
  style="overflow:visible"
  viewBox="0, -0.1109, 1, 0.1801"
  xmlns="http://www.w3.org/2000/svg">
    <title>NACA 64(3)-418</title>
    <path 
      vector-effect="non-scaling-stroke"
      d="M1,-0L0.9504,-0.0103L0.9008,-0.0213L0.8511,-0.0329L0.8013,-0.0448L0.7513,-0.0565L0.7013,-0.0678L0.6511,-0.0784L0.6009,-0.088L0.5505,-0.0963L0.5,-0.1032L0.4494,-0.1082L0.3988,-0.1109L0.3482,-0.1104L0.2976,-0.1073L0.2471,-0.1018L0.1966,-0.0937L0.1462,-0.0828L0.0959,-0.0682L0.071,-0.0591L0.0461,-0.048L0.0215,-0.0336L0.0095,-0.0237L0.0049,-0.0184L0.0026,-0.0151L0,-0L0.0074,0.0131L0.0101,0.0156L0.0155,0.0194L0.0285,0.0261L0.0539,0.0354L0.079,0.0421L0.1041,0.0476L0.1538,0.0558L0.2034,0.0618L0.2529,0.066L0.3024,0.0684L0.3518,0.0692L0.4011,0.0681L0.4505,0.0644L0.5,0.0591L0.5495,0.0525L0.5991,0.0452L0.6489,0.0372L0.6987,0.029L0.7487,0.0207L0.7987,0.0129L0.8489,0.006L0.9496,-0.0023L1,-0"
    />
</svg>
