
<svg 
  class="airfoil-naca652215"
  fill="none"
  stroke="black" 
  stroke-width="1"
  style="overflow:visible"
  viewBox="0, -0.0857, 1, 0.15"
  xmlns="http://www.w3.org/2000/svg">
    <title>NACA 65(2)-215</title>
    <path 
      vector-effect="non-scaling-stroke"
      d="M1,-0L0.9502,-0.0074L0.9004,-0.0166L0.8505,-0.0265L0.8006,-0.0365L0.7506,-0.0464L0.7006,-0.0557L0.6505,-0.0643L0.6007,-0.0719L0.5502,-0.0781L0.5,-0.0827L0.4498,-0.0852L0.3995,-0.0857L0.3493,-0.0843L0.299,-0.0812L0.2488,-0.0766L0.1986,-0.0702L0.1485,-0.0617L0.0984,-0.0507L0.0734,-0.0438L0.0485,-0.0356L0.0236,-0.0251L0.0113,-0.0181L0.0065,-0.0142L0.0041,-0.0117L0,-0L0.0059,0.0107L0.0086,0.0128L0.0137,0.0159L0.0264,0.0213L0.0515,0.0292L0.0766,0.0353L0.1016,0.0404L0.1515,0.0483L0.2014,0.0543L0.2512,0.0587L0.301,0.0618L0.3507,0.0637L0.4005,0.0643L0.4502,0.0633L0.5,0.0606L0.5498,0.0562L0.5996,0.0505L0.6495,0.0437L0.6994,0.0363L0.7494,0.0285L0.7994,0.0206L0.8494,0.013L0.8996,0.0063L0.9498,0.0011L1,-0"
    />
</svg>
