
<svg 
  class="airfoil-naca65206"
  fill="none"
  stroke="black" 
  stroke-width="1"
  style="overflow:visible"
  viewBox="0, -0.0408, 1, 0.060100004"
  xmlns="http://www.w3.org/2000/svg">
    <title>NACA 65-206</title>
    <path 
      vector-effect="non-scaling-stroke"
      d="M1,-0L0.9501,-0.0051L0.9002,-0.0103L0.8502,-0.0154L0.8003,-0.0203L0.7503,-0.0249L0.7003,-0.0291L0.6502,-0.0328L0.6002,-0.0359L0.5501,-0.0384L0.5,-0.04L0.4499,-0.0408L0.3998,-0.0407L0.3497,-0.0398L0.2996,-0.0382L0.2495,-0.0359L0.1995,-0.0328L0.1494,-0.0287L0.0994,-0.0234L0.0744,-0.0201L0.0494,-0.0162L0.0244,-0.0114L0.012,-0.0082L0.0071,-0.0064L0.0046,-0.0052L0,-0L0.0054,0.0042L0.0079,0.005L0.013,0.0061L0.0256,0.0077L0.0506,0.0099L0.0756,0.0116L0.1006,0.0131L0.1506,0.0152L0.2006,0.0169L0.2505,0.018L0.3004,0.0188L0.3503,0.0192L0.4002,0.0193L0.4501,0.0189L0.5,0.018L0.5499,0.0165L0.5998,0.0145L0.6498,0.0122L0.6997,0.0096L0.7497,0.007L0.7997,0.0044L0.8498,0.0019L0.8998,-0.0001L0.9499,-0.0012L1,-0"
    />
</svg>
