
<svg 
  class="airfoil-naca64a010"
  fill="none"
  stroke="black" 
  stroke-width="1"
  style="overflow:visible"
  viewBox="0, -0.05, 1, 0.1"
  xmlns="http://www.w3.org/2000/svg">
    <title>NACA 64A-010 10.0%</title>
    <path 
      vector-effect="non-scaling-stroke"
      d="M1,-0L0.95,-0.0054L0.9,-0.0106L0.85,-0.0158L0.8,-0.021L0.75,-0.0262L0.7,-0.0312L0.65,-0.036L0.6,-0.0402L0.55,-0.0439L0.5,-0.0468L0.45,-0.0489L0.4,-0.05L0.35,-0.0497L0.3,-0.0484L0.25,-0.0461L0.2,-0.0427L0.18,-0.0411L0.16,-0.0392L0.14,-0.0371L0.12,-0.0347L0.1,-0.032L0.09,-0.0305L0.08,-0.0289L0.07,-0.0272L0.06,-0.0253L0.05,-0.0233L0.04,-0.021L0.03,-0.0184L0.02,-0.0153L0.01,-0.0112L0.0095,-0.0109L0.009,-0.0106L0.0085,-0.0104L0.008,-0.0101L0.0075,-0.0098L0.007,-0.0095L0.0065,-0.0092L0.006,-0.0089L0.0055,-0.0085L0.005,-0.0081L0.0045,-0.0078L0.004,-0.0073L0.0035,-0.0069L0.003,-0.0064L0.0025,-0.0059L0.0022,-0.0056L0.002,-0.0053L0.0018,-0.005L0.0015,-0.0046L0.0012,-0.0042L0.001,-0.0038L0.0008,-0.0033L0.0005,-0.0027L0.0003,-0.0019L0,-0L0.0003,0.0019L0.0005,0.0027L0.0008,0.0033L0.001,0.0038L0.0012,0.0042L0.0015,0.0046L0.0018,0.005L0.002,0.0053L0.0022,0.0056L0.0025,0.0059L0.003,0.0064L0.0035,0.0069L0.004,0.0073L0.0045,0.0078L0.005,0.0081L0.0055,0.0085L0.006,0.0089L0.0065,0.0092L0.007,0.0095L0.0075,0.0098L0.008,0.0101L0.0085,0.0104L0.009,0.0106L0.0095,0.0109L0.01,0.0112L0.02,0.0153L0.03,0.0184L0.04,0.021L0.05,0.0233L0.06,0.0253L0.07,0.0272L0.08,0.0289L0.09,0.0305L0.1,0.032L0.12,0.0347L0.14,0.0371L0.16,0.0392L0.18,0.0411L0.2,0.0427L0.25,0.0461L0.3,0.0484L0.35,0.0497L0.4,0.05L0.45,0.0489L0.5,0.0468L0.55,0.0439L0.6,0.0402L0.65,0.036L0.7,0.0312L0.75,0.0262L0.8,0.021L0.85,0.0158L0.9,0.0106L0.95,0.0054L1,-0"
    />
</svg>
