
<svg 
  class="airfoil-naca642415"
  fill="none"
  stroke="black" 
  stroke-width="1"
  style="overflow:visible"
  viewBox="0, -0.0961, 1, 0.1503"
  xmlns="http://www.w3.org/2000/svg">
    <title>NACA 64(2)-415</title>
    <path 
      vector-effect="non-scaling-stroke"
      d="M1,-0L0.9503,-0.0098L0.9007,-0.0198L0.8509,-0.0302L0.8011,-0.0406L0.7512,-0.0508L0.7011,-0.0606L0.651,-0.0695L0.6009,-0.0776L0.5504,-0.0846L0.5,-0.0902L0.4495,-0.0941L0.399,-0.0961L0.3485,-0.0954L0.298,-0.0926L0.2476,-0.0877L0.1971,-0.0807L0.1468,-0.0712L0.0966,-0.0586L0.0716,-0.0507L0.0467,-0.0412L0.0221,-0.0288L0.01,-0.0204L0.0053,-0.0158L0.003,-0.0129L0,-0L0.007,0.0109L0.0097,0.013L0.015,0.0161L0.0279,0.0214L0.0533,0.0286L0.0784,0.0338L0.1034,0.038L0.1532,0.0443L0.2029,0.0488L0.2524,0.0519L0.302,0.0537L0.3515,0.0542L0.401,0.0533L0.4505,0.0503L0.5,0.046L0.5496,0.0408L0.5993,0.0348L0.649,0.0283L0.6989,0.0217L0.7488,0.015L0.799,0.0088L0.8491,0.0033L0.8993,-0.0009L0.9497,-0.0029L1,-0"
    />
</svg>
