
<svg 
  class="airfoil-naca651212a06"
  fill="none"
  stroke="black" 
  stroke-width="1"
  style="overflow:visible"
  viewBox="0, -0.0744, 1, 0.1199"
  xmlns="http://www.w3.org/2000/svg">
    <title>NACA 65(1)-212 a=0.6</title>
    <path 
      vector-effect="non-scaling-stroke"
      d="M1,-0L0.9501,-0.0052L0.9004,-0.013L0.8506,-0.0217L0.8009,-0.0308L0.7511,-0.0398L0.7012,-0.0484L0.6512,-0.0563L0.6009,-0.0632L0.5505,-0.0686L0.5002,-0.0723L0.4498,-0.0742L0.3995,-0.0744L0.3492,-0.073L0.2989,-0.0703L0.2487,-0.0661L0.1985,-0.0604L0.1483,-0.053L0.0983,-0.0433L0.0733,-0.0373L0.0484,-0.0302L0.0236,-0.0211L0.0112,-0.0152L0.0064,-0.0119L0.004,-0.0098L0,-0L0.006,0.0085L0.0086,0.0101L0.0138,0.0124L0.0264,0.0162L0.0516,0.0218L0.0767,0.0261L0.1017,0.0296L0.1517,0.035L0.2015,0.039L0.2513,0.042L0.3011,0.044L0.3508,0.0452L0.4005,0.0455L0.4502,0.0448L0.4998,0.0428L0.5495,0.0397L0.5991,0.0357L0.6488,0.0312L0.6988,0.0264L0.7489,0.0213L0.7991,0.016L0.8494,0.0109L0.8996,0.006L0.9499,0.0019L1,-0"
    />
</svg>
