
<svg 
  class="airfoil-nacam12"
  fill="none"
  stroke="black" 
  stroke-width="1"
  style="overflow:visible"
  viewBox="0, -0.0795, 1, 0.11929999"
  xmlns="http://www.w3.org/2000/svg">
    <title>NACA M12</title>
    <path 
      vector-effect="non-scaling-stroke"
      d="M1,-0.002L0.95,-0.0107L0.9,-0.0189L0.8,-0.035L0.7,-0.0498L0.6,-0.0627L0.5,-0.0725L0.4,-0.0786L0.3,-0.0795L0.2,-0.073L0.15,-0.0661L0.1,-0.0559L0.075,-0.0489L0.05,-0.0401L0.025,-0.0286L0.0125,-0.0203L0,-0L0.0125,0.0165L0.025,0.0214L0.05,0.0272L0.075,0.0307L0.1,0.0331L0.15,0.03L0.2,0.038L0.3,0.0398L0.4,0.0396L0.5,0.0382L0.6,0.035L0.7,0.03L0.8,0.0231L0.9,0.0137L0.95,0.0081L1,0.002"
    />
</svg>
