
<svg 
  class="airfoil-naca65209"
  fill="none"
  stroke="black" 
  stroke-width="1"
  style="overflow:visible"
  viewBox="0, -0.0557, 1, 0.0899"
  xmlns="http://www.w3.org/2000/svg">
    <title>NACA 65-209</title>
    <path 
      vector-effect="non-scaling-stroke"
      d="M1,-0L0.9501,-0.006L0.9003,-0.0126L0.8504,-0.0193L0.8004,-0.026L0.7504,-0.0324L0.7004,-0.0383L0.6503,-0.0436L0.6002,-0.0481L0.5501,-0.0518L0.5,-0.0544L0.4499,-0.0556L0.3997,-0.0557L0.3496,-0.0546L0.2994,-0.0525L0.2493,-0.0494L0.1992,-0.0452L0.1491,-0.0397L0.099,-0.0325L0.0741,-0.028L0.0491,-0.0227L0.0242,-0.016L0.0118,-0.0116L0.0068,-0.0091L0.0044,-0.0075L0,-0L0.0056,0.0065L0.0082,0.0077L0.0132,0.0095L0.0258,0.0123L0.0509,0.0164L0.0759,0.0196L0.101,0.0222L0.1509,0.0262L0.2008,0.0293L0.2507,0.0315L0.3006,0.0331L0.3504,0.034L0.4003,0.0342L0.4501,0.0337L0.5,0.0323L0.5499,0.0299L0.5998,0.0267L0.6497,0.023L0.6996,0.0188L0.7496,0.0145L0.7996,0.0101L0.8497,0.0059L0.8997,0.0022L0.9499,-0.0004L1,-0"
    />
</svg>
