
<svg 
  class="airfoil-naca4415"
  fill="none"
  stroke="black" 
  stroke-width="1"
  style="overflow:visible"
  viewBox="0, -0.1136, 1, 0.15540001"
  xmlns="http://www.w3.org/2000/svg">
    <title>NACA 4415</title>
    <path 
      vector-effect="non-scaling-stroke"
      d="M1,-0L0.9989,-0.0004L0.9957,-0.0016L0.9904,-0.0035L0.983,-0.0061L0.9735,-0.0093L0.9619,-0.013L0.9484,-0.0172L0.933,-0.0217L0.9157,-0.0265L0.8967,-0.0317L0.8759,-0.0372L0.8536,-0.0428L0.8297,-0.0486L0.8044,-0.0545L0.7778,-0.0605L0.75,-0.0664L0.7211,-0.0723L0.6913,-0.078L0.6607,-0.0834L0.6294,-0.0886L0.5975,-0.0934L0.5653,-0.0979L0.5327,-0.1019L0.5,-0.1054L0.4673,-0.1084L0.4347,-0.1108L0.4024,-0.1125L0.3706,-0.1134L0.3393,-0.1136L0.3087,-0.1129L0.2789,-0.1114L0.25,-0.109L0.2222,-0.1058L0.1956,-0.1019L0.1703,-0.0973L0.1464,-0.0919L0.1241,-0.0861L0.1033,-0.0797L0.0843,-0.0728L0.067,-0.0654L0.0516,-0.0575L0.0381,-0.0494L0.0265,-0.0412L0.017,-0.033L0.0096,-0.0249L0.0043,-0.0165L0.0011,-0.0082L0,-0.0008L0.0011,0.0057L0.0043,0.011L0.0096,0.0159L0.017,0.0206L0.0265,0.025L0.0381,0.0291L0.0516,0.0328L0.067,0.0358L0.0843,0.0382L0.1033,0.0399L0.1241,0.0411L0.1464,0.0417L0.1703,0.0418L0.1956,0.0415L0.2222,0.0408L0.25,0.0397L0.2789,0.0384L0.3087,0.037L0.3393,0.0355L0.3706,0.0339L0.4024,0.0323L0.4347,0.0306L0.4673,0.0289L0.5,0.0271L0.5327,0.0253L0.5653,0.0234L0.5975,0.0215L0.6294,0.0196L0.6607,0.0177L0.6913,0.016L0.7211,0.0143L0.75,0.0128L0.7778,0.0114L0.8044,0.0101L0.8297,0.0089L0.8536,0.0077L0.8759,0.0067L0.8967,0.0058L0.9157,0.005L0.933,0.0043L0.9484,0.0036L0.9619,0.003L0.9735,0.0023L0.983,0.0016L0.9904,0.0009L0.9957,0.0004L0.9989,0.0001L1,-0"
    />
</svg>
