
<svg 
  class="airfoil-naca1"
  fill="none"
  stroke="black" 
  stroke-width="1"
  style="overflow:visible"
  viewBox="0, -1, 1, 1"
  xmlns="http://www.w3.org/2000/svg">
    <title>NACA-1 COWL</title>
    <path 
      vector-effect="non-scaling-stroke"
      d="M1,-1L0.98,-0.9998L0.96,-0.9993L0.94,-0.9985L0.92,-0.9965L0.9,-0.994L0.88,-0.9909L0.86,-0.9874L0.84,-0.9833L0.82,-0.9787L0.8,-0.9735L0.78,-0.9679L0.76,-0.9616L0.74,-0.9548L0.72,-0.9475L0.7,-0.9395L0.68,-0.9311L0.66,-0.922L0.64,-0.9123L0.62,-0.902L0.6,-0.8911L0.58,-0.8795L0.56,-0.8673L0.54,-0.8545L0.52,-0.841L0.5,-0.8269L0.49,-0.8199L0.48,-0.8125L0.47,-0.805L0.46,-0.7974L0.45,-0.7895L0.44,-0.7815L0.43,-0.7732L0.42,-0.7648L0.41,-0.7563L0.4,-0.7475L0.39,-0.7385L0.38,-0.7294L0.37,-0.72L0.36,-0.7105L0.35,-0.7008L0.34,-0.6908L0.33,-0.6807L0.32,-0.6703L0.31,-0.6597L0.3,-0.6489L0.29,-0.6379L0.28,-0.6267L0.27,-0.6152L0.26,-0.6035L0.25,-0.5915L0.24,-0.5792L0.23,-0.5666L0.22,-0.5537L0.21,-0.5405L0.2,-0.527L0.19,-0.5131L0.18,-0.4988L0.17,-0.484L0.16,-0.4688L0.15,-0.453L0.14,-0.4366L0.13,-0.4194L0.12,-0.4009L0.11,-0.3815L0.1,-0.3613L0.09,-0.3403L0.08,-0.3181L0.07,-0.2947L0.06,-0.2701L0.05,-0.2436L0.045,-0.2296L0.04,-0.2148L0.035,-0.1994L0.03,-0.1831L0.025,-0.1657L0.02,-0.1472L0.015,-0.1272L0.01,-0.1038L0.008,-0.0933L0.006,-0.0812L0.004,-0.0663L0.002,-0.048L0,-0"
    />
</svg>
