
<svg 
  class="airfoil-naca0010"
  fill="none"
  stroke="black" 
  stroke-width="1"
  style="overflow:visible"
  viewBox="0, -0.05, 1, 0.1"
  xmlns="http://www.w3.org/2000/svg">
    <title>NACA 0010</title>
    <path 
      vector-effect="non-scaling-stroke"
      d="M1,-0.001L0.95,-0.0067L0.9,-0.0121L0.8,-0.0219L0.7,-0.0305L0.6,-0.038L0.5,-0.0441L0.4,-0.0484L0.3,-0.05L0.25,-0.0495L0.2,-0.0478L0.15,-0.0446L0.1,-0.039L0.075,-0.035L0.05,-0.0296L0.025,-0.0218L0.0125,-0.0158L0,-0L0.0125,0.0158L0.025,0.0218L0.05,0.0296L0.075,0.035L0.1,0.039L0.15,0.0446L0.2,0.0478L0.25,0.0495L0.3,0.05L0.4,0.0484L0.5,0.0441L0.6,0.038L0.7,0.0305L0.8,0.0219L0.9,0.0121L0.95,0.0067L1,0.001"
    />
</svg>
