
<svg 
  class="airfoil-naca0006"
  fill="none"
  stroke="black" 
  stroke-width="1"
  style="overflow:visible"
  viewBox="0, -0.03, 1, 0.06"
  xmlns="http://www.w3.org/2000/svg">
    <title>NACA 0006</title>
    <path 
      vector-effect="non-scaling-stroke"
      d="M1,-0.0006L0.95,-0.004L0.9,-0.0072L0.8,-0.0131L0.7,-0.0183L0.6,-0.0228L0.5,-0.0265L0.4,-0.029L0.3,-0.03L0.25,-0.0297L0.2,-0.0287L0.15,-0.0267L0.1,-0.0234L0.075,-0.021L0.05,-0.0178L0.025,-0.0131L0.0125,-0.0095L0,-0L0.0125,0.0095L0.025,0.0131L0.05,0.0178L0.075,0.021L0.1,0.0234L0.15,0.0267L0.2,0.0287L0.25,0.0297L0.3,0.03L0.4,0.029L0.5,0.0265L0.6,0.0228L0.7,0.0183L0.8,0.0131L0.9,0.0072L0.95,0.004L1,0.0006"
    />
</svg>
