
<svg 
  class="airfoil-naca66209"
  fill="none"
  stroke="black" 
  stroke-width="1"
  style="overflow:visible"
  viewBox="0, -0.0559, 1, 0.0899"
  xmlns="http://www.w3.org/2000/svg">
    <title>NACA 66-209</title>
    <path 
      vector-effect="non-scaling-stroke"
      d="M1,-0L0.9502,-0.0069L0.9003,-0.0148L0.8504,-0.0228L0.8005,-0.0306L0.7505,-0.0377L0.7005,-0.044L0.6504,-0.0491L0.6003,-0.0527L0.5501,-0.0548L0.5,-0.0558L0.4499,-0.0559L0.3997,-0.0553L0.3496,-0.0538L0.2994,-0.0514L0.2493,-0.0482L0.1992,-0.044L0.1491,-0.0385L0.0991,-0.0314L0.0741,-0.027L0.0491,-0.0219L0.0242,-0.0155L0.0118,-0.0114L0.0069,-0.0089L0.0044,-0.0074L0,-0L0.0056,0.0063L0.0081,0.0075L0.0132,0.0092L0.0258,0.0118L0.0509,0.0156L0.0759,0.0186L0.1009,0.0211L0.1509,0.025L0.2008,0.028L0.2507,0.0303L0.3006,0.032L0.3504,0.0332L0.4003,0.0339L0.4501,0.034L0.5,0.0337L0.5499,0.0329L0.5997,0.0313L0.6496,0.0285L0.6995,0.0246L0.7495,0.0198L0.7998,0.0147L0.8496,0.0094L0.8996,0.0044L0.9498,0.0006L1,-0"
    />
</svg>
