
<svg 
  class="airfoil-naca671215"
  fill="none"
  stroke="black" 
  stroke-width="1"
  style="overflow:visible"
  viewBox="0, -0.086, 1, 0.1499"
  xmlns="http://www.w3.org/2000/svg">
    <title>NACA 67,1-215</title>
    <path 
      vector-effect="non-scaling-stroke"
      d="M1,-0L0.9504,-0.011L0.9007,-0.0254L0.8509,-0.04L0.801,-0.0534L0.751,-0.0652L0.7009,-0.0737L0.6507,-0.0794L0.6005,-0.083L0.5502,-0.0852L0.5,-0.086L0.4498,-0.0857L0.3995,-0.0843L0.3493,-0.0818L0.2991,-0.0782L0.2489,-0.0735L0.1987,-0.0674L0.1485,-0.0595L0.0984,-0.0495L0.0734,-0.0432L0.0485,-0.0356L0.0236,-0.0258L0.0113,-0.0187L0.0064,-0.0146L0.004,-0.0121L0,-0L0.006,0.0111L0.0086,0.0132L0.0137,0.0165L0.0264,0.0221L0.0515,0.0292L0.0766,0.0347L0.1015,0.0391L0.1515,0.0461L0.2013,0.0514L0.2511,0.0556L0.3009,0.0588L0.3507,0.0613L0.4005,0.0629L0.4502,0.0638L0.5,0.0639L0.5498,0.0633L0.5995,0.0616L0.6493,0.0587L0.6991,0.0543L0.749,0.0472L0.799,0.0374L0.8491,0.0265L0.8993,0.015L0.9496,0.0047L1,-0"
    />
</svg>
