
<svg 
  class="airfoil-naca65210"
  fill="none"
  stroke="black" 
  stroke-width="1"
  style="overflow:visible"
  viewBox="0, -0.0607, 1, 0.099999994"
  xmlns="http://www.w3.org/2000/svg">
    <title>NACA 65-210</title>
    <path 
      vector-effect="non-scaling-stroke"
      d="M1,-0L0.9501,-0.0062L0.9003,-0.0133L0.8504,-0.0206L0.8004,-0.0278L0.7505,-0.0348L0.7004,-0.0413L0.6504,-0.0471L0.6003,-0.0522L0.5501,-0.0562L0.5,-0.0591L0.4498,-0.0606L0.3997,-0.0607L0.3495,-0.0595L0.2994,-0.0573L0.2492,-0.054L0.1991,-0.0494L0.149,-0.0434L0.0989,-0.0355L0.0739,-0.0307L0.049,-0.0249L0.0241,-0.0176L0.0117,-0.0127L0.0068,-0.01L0.0044,-0.0082L0,-0L0.0057,0.0072L0.0082,0.0086L0.0133,0.0106L0.0259,0.0138L0.051,0.0186L0.0761,0.0222L0.1011,0.0252L0.151,0.0299L0.2009,0.0335L0.2508,0.0361L0.3006,0.0379L0.3505,0.0389L0.4003,0.0393L0.4502,0.0387L0.5,0.0371L0.5499,0.0344L0.5997,0.0308L0.6496,0.0265L0.6996,0.0218L0.7495,0.0169L0.7996,0.0119L0.8496,0.0071L0.8997,0.0029L0.9499,-0.0001L1,-0"
    />
</svg>
