
<svg 
  class="airfoil-naca654221"
  fill="none"
  stroke="black" 
  stroke-width="1"
  style="overflow:visible"
  viewBox="0, -0.1157, 1, 0.21000001"
  xmlns="http://www.w3.org/2000/svg">
    <title>NACA 65(4)-221</title>
    <path 
      vector-effect="non-scaling-stroke"
      d="M1,-0L0.9503,-0.0086L0.9005,-0.02L0.8507,-0.0327L0.8008,-0.0459L0.7509,-0.0592L0.7008,-0.072L0.6507,-0.0839L0.6005,-0.0946L0.5503,-0.1037L0.5,-0.1106L0.4497,-0.1146L0.3993,-0.1157L0.349,-0.114L0.2986,-0.1101L0.2483,-0.1038L0.1981,-0.0951L0.1479,-0.0837L0.0978,-0.0686L0.0728,-0.0592L0.0479,-0.0478L0.0231,-0.0333L0.0109,-0.024L0.0061,-0.019L0.0037,-0.0157L0,-0L0.0063,0.0147L0.0089,0.0176L0.0141,0.0219L0.0268,0.0296L0.0521,0.0415L0.0772,0.0507L0.1022,0.0583L0.1521,0.0702L0.2019,0.0792L0.2517,0.0859L0.3013,0.0906L0.351,0.0934L0.4007,0.0943L0.4503,0.0927L0.5,0.0885L0.5497,0.0818L0.5995,0.0732L0.6493,0.0633L0.6992,0.0525L0.7491,0.0413L0.7992,0.03L0.8493,0.0192L0.8995,0.0097L0.9497,0.0023L1,-0"
    />
</svg>
