
<svg 
  class="airfoil-naca2418"
  fill="none"
  stroke="black" 
  stroke-width="1"
  style="overflow:visible"
  viewBox="0, -0.1088, 1, 0.1806"
  xmlns="http://www.w3.org/2000/svg">
    <title>NACA 2418</title>
    <path 
      vector-effect="non-scaling-stroke"
      d="M1,-0.0019L0.95,-0.0155L0.9,-0.0281L0.8,-0.0508L0.7,-0.0702L0.6,-0.0865L0.5,-0.0989L0.4,-0.1071L0.3,-0.1088L0.25,-0.1065L0.2,-0.1015L0.15,-0.0934L0.1,-0.0805L0.075,-0.0717L0.05,-0.0603L0.025,-0.0445L0.0125,-0.0328L0,-0L0.0125,0.0245L0.025,0.0344L0.05,0.0468L0.075,0.0548L0.1,0.0603L0.15,0.0674L0.2,0.0709L0.25,0.0718L0.3,0.0712L0.4,0.0671L0.5,0.0599L0.6,0.0504L0.7,0.0397L0.8,0.028L0.9,0.0153L0.95,0.0087L1,0.0019"
    />
</svg>
