
<svg 
  class="airfoil-naca001066"
  fill="none"
  stroke="black" 
  stroke-width="1"
  style="overflow:visible"
  viewBox="0, -0.05, 1, 0.1"
  xmlns="http://www.w3.org/2000/svg">
    <title>NACA 0010-66</title>
    <path 
      vector-effect="non-scaling-stroke"
      d="M1,-0.001L0.95,-0.0166L0.9,-0.0283L0.8,-0.043L0.7,-0.0489L0.6,-0.05L0.5,-0.0496L0.4,-0.0482L0.3,-0.0458L0.2,-0.0418L0.15,-0.0386L0.1,-0.034L0.075,-0.0309L0.05,-0.0266L0.025,-0.0201L0.0125,-0.0149L0,-0L0.0125,0.0149L0.025,0.0201L0.05,0.0266L0.075,0.0309L0.1,0.034L0.15,0.0386L0.2,0.0418L0.3,0.0458L0.4,0.0482L0.5,0.0496L0.6,0.05L0.7,0.0489L0.8,0.043L0.9,0.0283L0.95,0.0166L1,0.001"
    />
</svg>
