
<svg 
  class="airfoil-naca4421"
  fill="none"
  stroke="black" 
  stroke-width="1"
  style="overflow:visible"
  viewBox="0, -0.1427, 1, 0.2125"
  xmlns="http://www.w3.org/2000/svg">
    <title>NACA 4421</title>
    <path 
      vector-effect="non-scaling-stroke"
      d="M1,-0.0022L0.95,-0.0211L0.9,-0.0385L0.8,-0.0691L0.7,-0.095L0.6,-0.116L0.5,-0.1318L0.4,-0.1416L0.3,-0.1427L0.25,-0.1388L0.2,-0.1317L0.15,-0.1204L0.1,-0.1035L0.075,-0.0924L0.05,-0.0782L0.025,-0.0584L0.0125,-0.0445L0,-0L0.0125,0.0242L0.025,0.0348L0.05,0.0478L0.075,0.0562L0.1,0.0615L0.15,0.0675L0.2,0.0698L0.25,0.0692L0.3,0.0676L0.4,0.0616L0.5,0.0534L0.6,0.044L0.7,0.0335L0.8,0.0231L0.9,0.0127L0.95,0.0074L1,0.0022"
    />
</svg>
