
<svg 
  class="airfoil-naca644421"
  fill="none"
  stroke="black" 
  stroke-width="1"
  style="overflow:visible"
  viewBox="0, -0.1257, 1, 0.20989999"
  xmlns="http://www.w3.org/2000/svg">
    <title>NACA 64(4)-421</title>
    <path 
      vector-effect="non-scaling-stroke"
      d="M1,-0L0.9504,-0.0108L0.9009,-0.0228L0.8512,-0.0356L0.8015,-0.0488L0.7515,-0.062L0.7015,-0.0749L0.6513,-0.0871L0.601,-0.0982L0.5505,-0.108L0.5,-0.1161L0.4494,-0.1222L0.3986,-0.1257L0.3479,-0.1254L0.2972,-0.1221L0.2466,-0.1159L0.196,-0.1068L0.1455,-0.0944L0.0953,-0.0779L0.0703,-0.0674L0.0454,-0.0548L0.021,-0.0383L0.009,-0.0271L0.0044,-0.021L0.0023,-0.0172L0,-0L0.0077,0.0152L0.0105,0.0182L0.016,0.0228L0.029,0.0309L0.0545,0.0422L0.0797,0.0505L0.1047,0.0572L0.1545,0.0675L0.204,0.0749L0.2534,0.0801L0.3028,0.0832L0.3521,0.0842L0.4013,0.0829L0.4506,0.0784L0.5,0.072L0.5494,0.0642L0.599,0.0553L0.6487,0.0459L0.6985,0.036L0.7485,0.0262L0.7986,0.0169L0.8488,0.0086L0.8991,0.0021L0.9496,-0.0019L1,-0"
    />
</svg>
