
<svg 
  class="airfoil-naca0021"
  fill="none"
  stroke="black" 
  stroke-width="1"
  style="overflow:visible"
  viewBox="0, -0.105, 1, 0.21"
  xmlns="http://www.w3.org/2000/svg">
    <title>NACA 0021</title>
    <path 
      vector-effect="non-scaling-stroke"
      d="M1,-0.0022L0.95,-0.0141L0.9,-0.0253L0.8,-0.0459L0.7,-0.0641L0.6,-0.0799L0.5,-0.0926L0.4,-0.1016L0.3,-0.105L0.25,-0.104L0.2,-0.1004L0.15,-0.0935L0.1,-0.082L0.075,-0.0735L0.05,-0.0622L0.025,-0.0458L0.0125,-0.0331L0,-0L0.0125,0.0331L0.025,0.0458L0.05,0.0622L0.075,0.0735L0.1,0.082L0.15,0.0935L0.2,0.1004L0.25,0.104L0.3,0.105L0.4,0.1016L0.5,0.0926L0.6,0.0799L0.7,0.0641L0.8,0.0459L0.9,0.0253L0.95,0.0141L1,0.0022"
    />
</svg>
