
<svg 
  class="airfoil-naca001264"
  fill="none"
  stroke="black" 
  stroke-width="1"
  style="overflow:visible"
  viewBox="0, -0.06, 1, 0.12"
  xmlns="http://www.w3.org/2000/svg">
    <title>NACA 0012-64</title>
    <path 
      vector-effect="non-scaling-stroke"
      d="M1,-0.0012L0.95,-0.0103L0.9,-0.0187L0.8,-0.0332L0.7,-0.0448L0.6,-0.0532L0.5,-0.0583L0.4,-0.06L0.3,-0.0583L0.2,-0.0529L0.15,-0.0487L0.1,-0.0424L0.075,-0.0381L0.05,-0.0327L0.025,-0.0245L0.0125,-0.0181L0,-0L0.0125,0.0181L0.025,0.0245L0.05,0.0327L0.075,0.0381L0.1,0.0424L0.15,0.0487L0.2,0.0529L0.3,0.0583L0.4,0.06L0.5,0.0583L0.6,0.0532L0.7,0.0448L0.8,0.0332L0.9,0.0187L0.95,0.0103L1,0.0012"
    />
</svg>
