
<svg 
  class="airfoil-naca65410"
  fill="none"
  stroke="black" 
  stroke-width="1"
  style="overflow:visible"
  viewBox="0, -0.0715, 1, 0.1001"
  xmlns="http://www.w3.org/2000/svg">
    <title>NACA 65-410</title>
    <path 
      vector-effect="non-scaling-stroke"
      d="M1,-0L0.9503,-0.0094L0.9006,-0.0184L0.8508,-0.0273L0.8009,-0.0358L0.7509,-0.0437L0.7009,-0.051L0.6507,-0.0574L0.6005,-0.0629L0.5503,-0.0672L0.5,-0.0702L0.4497,-0.0715L0.3994,-0.0714L0.349,-0.0698L0.2987,-0.067L0.2484,-0.0629L0.1982,-0.0573L0.148,-0.0501L0.0979,-0.0407L0.0729,-0.0349L0.048,-0.028L0.0232,-0.0193L0.0109,-0.0137L0.0061,-0.0106L0.0037,-0.0086L0,-0L0.0063,0.0066L0.0089,0.0078L0.0141,0.0094L0.0268,0.0119L0.052,0.0154L0.0771,0.0179L0.1021,0.02L0.152,0.0231L0.2018,0.0255L0.2516,0.0271L0.3013,0.0281L0.351,0.0286L0.4006,0.0285L0.4503,0.0277L0.5,0.0261L0.5497,0.0234L0.5995,0.02L0.6493,0.0162L0.6992,0.0121L0.7491,0.0079L0.7991,0.0039L0.8492,0.0004L0.8994,-0.0023L0.9497,-0.0033L1,-0"
    />
</svg>
