
<svg 
  class="airfoil-naca642215"
  fill="none"
  stroke="black" 
  stroke-width="1"
  style="overflow:visible"
  viewBox="0, -0.0854, 1, 0.14989999"
  xmlns="http://www.w3.org/2000/svg">
    <title>NACA 64(2)-215</title>
    <path 
      vector-effect="non-scaling-stroke"
      d="M1,-0L0.9502,-0.0066L0.9003,-0.0147L0.8505,-0.0235L0.8005,-0.0327L0.7506,-0.0419L0.7006,-0.0509L0.6505,-0.0593L0.6004,-0.0669L0.5502,-0.0736L0.5,-0.0791L0.4498,-0.0832L0.3995,-0.0854L0.3493,-0.0851L0.299,-0.0829L0.2488,-0.0788L0.1986,-0.0727L0.1484,-0.0646L0.0983,-0.0536L0.0733,-0.0466L0.0484,-0.0382L0.0235,-0.0271L0.0112,-0.0194L0.0064,-0.0152L0.004,-0.0125L0,-0L0.006,0.0115L0.0086,0.0138L0.0138,0.0173L0.0265,0.0234L0.0516,0.0318L0.0767,0.0381L0.1017,0.0432L0.1516,0.0511L0.2014,0.0568L0.2512,0.0609L0.301,0.0635L0.3507,0.0645L0.4005,0.064L0.4502,0.0613L0.5,0.0571L0.5498,0.0517L0.5996,0.0455L0.6495,0.0386L0.6995,0.0314L0.7494,0.024L0.7994,0.0168L0.8495,0.01L0.8997,0.0043L0.9498,0.0003L1,-0"
    />
</svg>
