
<svg 
  class="airfoil-naca64209"
  fill="none"
  stroke="black" 
  stroke-width="1"
  style="overflow:visible"
  viewBox="0, -0.0556, 1, 0.0901"
  xmlns="http://www.w3.org/2000/svg">
    <title>NACA 64-209</title>
    <path 
      vector-effect="non-scaling-stroke"
      d="M1,-0L0.9501,-0.0054L0.9002,-0.0113L0.8503,-0.0174L0.8004,-0.0236L0.7504,-0.0296L0.7003,-0.0353L0.6503,-0.0406L0.6002,-0.0452L0.5501,-0.0492L0.5,-0.0524L0.4499,-0.0546L0.3997,-0.0556L0.3496,-0.0551L0.2994,-0.0534L0.2493,-0.0506L0.1991,-0.0466L0.149,-0.0413L0.099,-0.0341L0.074,-0.0297L0.049,-0.0242L0.0241,-0.0172L0.0117,-0.0123L0.0068,-0.0096L0.0044,-0.0079L0,-0L0.0056,0.0069L0.0082,0.0082L0.0133,0.0111L0.0259,0.0133L0.051,0.0179L0.076,0.0212L0.101,0.0238L0.1509,0.0278L0.2008,0.0307L0.2507,0.0327L0.3006,0.034L0.3504,0.0345L0.4003,0.0342L0.4501,0.0327L0.5,0.0303L0.5499,0.0273L0.5998,0.0238L0.6497,0.02L0.6996,0.0159L0.7496,0.0117L0.7997,0.0077L0.8497,0.004L0.8998,0.0009L0.9499,-0.0009L1,-0"
    />
</svg>
