
<svg 
  class="airfoil-naca001034a08cli0.2"
  fill="none"
  stroke="black" 
  stroke-width="1"
  style="overflow:visible"
  viewBox="0, -0.0628, 1, 0.099999994"
  xmlns="http://www.w3.org/2000/svg">
    <title>NACA 0010-34 a=0.8 c(li)=0.2</title>
    <path 
      vector-effect="non-scaling-stroke"
      d="M1,-0.001L0.9504,-0.011L0.9008,-0.0204L0.801,-0.037L0.7006,-0.0492L0.6003,-0.0573L0.4999,-0.0619L0.3995,-0.0628L0.2992,-0.0598L0.1989,-0.0517L0.1488,-0.0452L0.0988,-0.0364L0.0738,-0.0309L0.0489,-0.0244L0.0241,-0.0161L0.0118,-0.0106L0.0069,-0.0079L0,-0L0.0081,0.0063L0.0132,0.0082L0.0259,0.0119L0.0511,0.0171L0.0762,0.0212L0.1013,0.0245L0.1512,0.0296L0.2011,0.0331L0.3008,0.0368L0.4004,0.0372L0.5001,0.0353L0.5997,0.0313L0.6994,0.0255L0.799,0.0183L0.8992,0.0106L0.9496,0.0061L1,0.001"
    />
</svg>
