
<svg 
  class="airfoil-naca643618"
  fill="none"
  stroke="black" 
  stroke-width="1"
  style="overflow:visible"
  viewBox="0, -0.1216, 1, 0.1805"
  xmlns="http://www.w3.org/2000/svg">
    <title>NACA 64(3)-618</title>
    <path 
      vector-effect="non-scaling-stroke"
      d="M1,-0L0.9506,-0.0134L0.9011,-0.0265L0.8516,-0.0396L0.8019,-0.0527L0.752,-0.0654L0.702,-0.0775L0.6517,-0.0887L0.6013,-0.0987L0.5507,-0.1073L0.5,-0.1142L0.4492,-0.1191L0.3983,-0.1216L0.3474,-0.1207L0.2964,-0.117L0.2456,-0.1107L0.1949,-0.1015L0.1443,-0.0894L0.094,-0.0732L0.0689,-0.0631L0.0442,-0.0509L0.0198,-0.0352L0.0081,-0.0245L0.0036,-0.0189L0.0015,-0.0153L0,-0L0.0085,0.0123L0.0114,0.0147L0.017,0.0181L0.0302,0.024L0.0558,0.032L0.0811,0.0377L0.106,0.0422L0.1557,0.049L0.2051,0.0538L0.2544,0.0569L0.3036,0.0587L0.3526,0.0589L0.4017,0.0574L0.4508,0.0534L0.5,0.0481L0.5493,0.0416L0.5987,0.0344L0.6483,0.0269L0.698,0.0192L0.748,0.0117L0.7981,0.0049L0.8484,-0.0008L0.8989,-0.0046L0.9494,-0.0055L1,-0"
    />
</svg>
