
<svg 
  class="airfoil-naca663218"
  fill="none"
  stroke="black" 
  stroke-width="1"
  style="overflow:visible"
  viewBox="0, -0.1009, 1, 0.1799"
  xmlns="http://www.w3.org/2000/svg">
    <title>NACA 66(3)-218</title>
    <path 
      vector-effect="non-scaling-stroke"
      d="M1,-0L0.9503,-0.0096L0.9006,-0.0223L0.8508,-0.0361L0.8009,-0.05L0.7509,-0.0635L0.7009,-0.0757L0.6507,-0.0861L0.6005,-0.0939L0.5503,-0.0983L0.5,-0.1005L0.4497,-0.1009L0.3994,-0.0999L0.3491,-0.0973L0.2989,-0.0932L0.2486,-0.0874L0.1984,-0.0798L0.1482,-0.07L0.0982,-0.0572L0.0732,-0.0493L0.0483,-0.04L0.0235,-0.0283L0.0111,-0.0205L0.0063,-0.0164L0.0039,-0.0137L0,-0L0.0061,0.0127L0.0087,0.015L0.0138,0.0184L0.0265,0.0246L0.0517,0.0337L0.0768,0.0408L0.1018,0.0469L0.1517,0.0566L0.2016,0.0639L0.2514,0.0695L0.3011,0.0737L0.3509,0.0767L0.4006,0.0785L0.4503,0.079L0.5,0.0784L0.5497,0.0764L0.5995,0.0725L0.6492,0.0655L0.6991,0.0562L0.7491,0.0455L0.7991,0.0341L0.8492,0.0226L0.8994,0.012L0.9497,0.0033L1,-0"
    />
</svg>
