
<svg 
  class="airfoil-naca66210"
  fill="none"
  stroke="black" 
  stroke-width="1"
  style="overflow:visible"
  viewBox="0, -0.0609, 1, 0.099999994"
  xmlns="http://www.w3.org/2000/svg">
    <title>NACA 66-210</title>
    <path 
      vector-effect="non-scaling-stroke"
      d="M1,-0L0.9502,-0.0072L0.9004,-0.0157L0.8505,-0.0245L0.8005,-0.0329L0.7506,-0.0407L0.7005,-0.0476L0.6504,-0.0533L0.6003,-0.0574L0.5502,-0.0596L0.5,-0.0607L0.4498,-0.0609L0.3997,-0.0602L0.3495,-0.0586L0.2994,-0.0561L0.2492,-0.0526L0.1991,-0.048L0.149,-0.042L0.099,-0.0343L0.074,-0.0296L0.049,-0.024L0.0241,-0.017L0.0117,-0.0125L0.0068,-0.0098L0.0044,-0.0081L0,-0L0.0056,0.0071L0.0082,0.0084L0.0133,0.0103L0.0259,0.0133L0.051,0.0177L0.076,0.0211L0.101,0.0239L0.151,0.0286L0.2009,0.032L0.2508,0.0347L0.3006,0.0366L0.3505,0.038L0.4003,0.0388L0.4502,0.0391L0.5,0.0387L0.5498,0.0377L0.5997,0.0359L0.6496,0.0327L0.6995,0.0281L0.7494,0.0228L0.7994,0.017L0.8495,0.011L0.8996,0.0054L0.9498,0.0009L1,-0"
    />
</svg>
