
<svg 
  class="airfoil-naca661212"
  fill="none"
  stroke="black" 
  stroke-width="1"
  style="overflow:visible"
  viewBox="0, -0.071, 1, 0.120000005"
  xmlns="http://www.w3.org/2000/svg">
    <title>NACA 66(1)-212</title>
    <path 
      vector-effect="non-scaling-stroke"
      d="M1,-0L0.9502,-0.0079L0.9004,-0.0175L0.8506,-0.0276L0.8007,-0.0374L0.7507,-0.0466L0.7006,-0.0549L0.6505,-0.0617L0.6004,-0.0666L0.5502,-0.0693L0.5,-0.0707L0.4498,-0.071L0.3996,-0.0702L0.3494,-0.0683L0.2993,-0.0654L0.2491,-0.0613L0.1989,-0.056L0.1488,-0.049L0.0988,-0.0401L0.0738,-0.0346L0.0488,-0.0281L0.0239,-0.0199L0.0116,-0.0146L0.0067,-0.0115L0.0042,-0.0095L0,-0L0.0058,0.0085L0.0083,0.0101L0.0134,0.0125L0.026,0.0162L0.0512,0.0218L0.0762,0.0261L0.1012,0.0298L0.1512,0.0356L0.2011,0.04L0.2509,0.0434L0.3007,0.0459L0.3506,0.0477L0.4004,0.0488L0.4502,0.049L0.5,0.0486L0.5498,0.0474L0.5996,0.0452L0.6495,0.0411L0.6994,0.0354L0.7493,0.0287L0.7994,0.0215L0.8494,0.0141L0.8996,0.0072L0.9498,0.0016L1,-0"
    />
</svg>
