
<svg 
  class="airfoil-naca16018"
  fill="none"
  stroke="black" 
  stroke-width="1"
  style="overflow:visible"
  viewBox="0, -0.09, 1, 0.18"
  xmlns="http://www.w3.org/2000/svg">
    <title>NACA 16-018</title>
    <path 
      vector-effect="non-scaling-stroke"
      d="M1,-0.0018L0.95,-0.0212L0.9,-0.0378L0.8,-0.063L0.7,-0.079L0.6,-0.0875L0.5,-0.09L0.4,-0.0878L0.3,-0.0813L0.2,-0.07L0.15,-0.062L0.1,-0.0519L0.075,-0.0455L0.05,-0.0376L0.025,-0.0271L0.0125,-0.0194L0,-0L0.0125,0.0194L0.025,0.0271L0.05,0.0376L0.075,0.0455L0.1,0.0519L0.15,0.062L0.2,0.07L0.3,0.0813L0.4,0.0878L0.5,0.09L0.6,0.0875L0.7,0.079L0.8,0.063L0.9,0.0378L0.95,0.0212L1,0.0018"
    />
</svg>
