
<svg 
  class="airfoil-naca66206"
  fill="none"
  stroke="black" 
  stroke-width="1"
  style="overflow:visible"
  viewBox="0, -0.041, 1, 0.0601"
  xmlns="http://www.w3.org/2000/svg">
    <title>NACA 66-206</title>
    <path 
      vector-effect="non-scaling-stroke"
      d="M1,-0L0.9501,-0.0058L0.9002,-0.0118L0.8503,-0.0178L0.8003,-0.0234L0.7503,-0.0285L0.7003,-0.0329L0.6503,-0.0364L0.6002,-0.0389L0.5501,-0.0402L0.5,-0.0409L0.4499,-0.041L0.3998,-0.0404L0.3497,-0.0393L0.2996,-0.0375L0.2495,-0.0351L0.1995,-0.032L0.1494,-0.0279L0.0994,-0.0227L0.0744,-0.0195L0.0494,-0.0157L0.0245,-0.011L0.012,-0.008L0.0071,-0.0062L0.0046,-0.0051L0,-0L0.0054,0.0041L0.0079,0.0048L0.013,0.0058L0.0255,0.0073L0.0506,0.0094L0.0756,0.011L0.1006,0.0123L0.1506,0.0144L0.2005,0.016L0.2505,0.0172L0.3004,0.0181L0.3503,0.0187L0.4002,0.019L0.4501,0.0191L0.5,0.0188L0.5499,0.0183L0.5998,0.0174L0.6497,0.0158L0.6997,0.0134L0.7497,0.0106L0.7997,0.0075L0.8497,0.0043L0.8998,0.0015L0.9499,-0.0005L1,-0"
    />
</svg>
