
<svg 
  class="airfoil-naca747a315"
  fill="none"
  stroke="black" 
  stroke-width="1"
  style="overflow:visible"
  viewBox="0, -0.0998, 1, 0.1502"
  xmlns="http://www.w3.org/2000/svg">
    <title>NACA 747A315</title>
    <path 
      vector-effect="non-scaling-stroke"
      d="M1,-0L0.95,-0.0048L0.9002,-0.0129L0.8504,-0.0226L0.8007,-0.0329L0.7513,-0.0434L0.7024,-0.0535L0.6537,-0.0636L0.6043,-0.0732L0.5546,-0.0821L0.5045,-0.0896L0.4538,-0.0957L0.402,-0.0996L0.35,-0.0998L0.2987,-0.0973L0.2476,-0.0924L0.1967,-0.085L0.146,-0.075L0.0956,-0.0614L0.0705,-0.0529L0.0456,-0.0426L0.0211,-0.0293L0.0091,-0.0206L0.0045,-0.016L0.0023,-0.0131L0,-0L0.0077,0.0103L0.0105,0.0121L0.0159,0.0147L0.0289,0.0193L0.0544,0.0252L0.0795,0.0295L0.1044,0.033L0.154,0.0384L0.2033,0.0425L0.2524,0.0455L0.3013,0.0477L0.35,0.0493L0.398,0.0502L0.4462,0.0504L0.4955,0.0501L0.5454,0.0493L0.5957,0.0477L0.6463,0.0451L0.6976,0.0411L0.7487,0.035L0.7993,0.0274L0.8496,0.0192L0.8998,0.011L0.95,0.0041L1,-0"
    />
</svg>
