
<svg 
  class="airfoil-naca643218"
  fill="none"
  stroke="black" 
  stroke-width="1"
  style="overflow:visible"
  viewBox="0, -0.1002, 1, 0.17969999"
  xmlns="http://www.w3.org/2000/svg">
    <title>NACA 64(3)-218</title>
    <path 
      vector-effect="non-scaling-stroke"
      d="M1,-0L0.9502,-0.0072L0.9004,-0.0162L0.8505,-0.0262L0.8006,-0.0368L0.7507,-0.0476L0.7006,-0.0581L0.6506,-0.0681L0.6004,-0.0773L0.5502,-0.0854L0.5,-0.0922L0.4497,-0.0972L0.3994,-0.1002L0.3491,-0.1001L0.2988,-0.0976L0.2485,-0.0928L0.1983,-0.0858L0.1481,-0.0761L0.098,-0.0632L0.073,-0.055L0.048,-0.045L0.0233,-0.0319L0.011,-0.0228L0.0062,-0.0179L0.0038,-0.0147L0,-0L0.0062,0.0137L0.0088,0.0165L0.014,0.0206L0.0268,0.0281L0.052,0.0386L0.077,0.0465L0.102,0.0528L0.1519,0.0627L0.2017,0.0698L0.2515,0.075L0.3012,0.0782L0.3509,0.0795L0.4006,0.0788L0.4503,0.0754L0.5,0.0701L0.5498,0.0635L0.5996,0.0559L0.6494,0.0475L0.6993,0.0387L0.7494,0.0297L0.7994,0.0209L0.8495,0.0128L0.8996,0.0058L0.9498,0.0008L1,-0"
    />
</svg>
