
<svg 
  class="airfoil-naca001234"
  fill="none"
  stroke="black" 
  stroke-width="1"
  style="overflow:visible"
  viewBox="0, -0.06, 1, 0.12"
  xmlns="http://www.w3.org/2000/svg">
    <title>NACA 0012-34</title>
    <path 
      vector-effect="non-scaling-stroke"
      d="M1,-0.0012L0.95,-0.0103L0.9,-0.0187L0.8,-0.0332L0.7,-0.0448L0.6,-0.0532L0.5,-0.0583L0.4,-0.06L0.3,-0.058L0.2,-0.0509L0.15,-0.0449L0.1,-0.0365L0.075,-0.0313L0.05,-0.0249L0.025,-0.0168L0.0125,-0.0113L0,-0L0.0125,0.0113L0.025,0.0168L0.05,0.0249L0.075,0.0313L0.1,0.0365L0.15,0.0449L0.2,0.0509L0.3,0.058L0.4,0.06L0.5,0.0583L0.6,0.0532L0.7,0.0448L0.8,0.0332L0.9,0.0187L0.95,0.0103L1,0.0012"
    />
</svg>
