
<svg 
  class="airfoil-nacacyh"
  fill="none"
  stroke="black" 
  stroke-width="1"
  style="overflow:visible"
  viewBox="0, -0.117, 1, 0.117"
  xmlns="http://www.w3.org/2000/svg">
    <title>NACA CYH</title>
    <path 
      vector-effect="non-scaling-stroke"
      d="M1,-0.0205L0.95,-0.0293L0.9,-0.0384L0.8,-0.0562L0.7,-0.0741L0.6,-0.0915L0.5,-0.1052L0.4,-0.114L0.3,-0.117L0.2,-0.1136L0.15,-0.1068L0.1,-0.096L0.075,-0.0885L0.05,-0.079L0.025,-0.065L0.0125,-0.0545L0,-0.035L0.0125,-0.0193L0.025,-0.0147L0.05,-0.0093L0.075,-0.0063L0.1,-0.0042L0.15,-0.0015L0.2,-0.0003L0.3,-0L0.4,-0L0.5,-0L0.6,-0L0.7,-0.0006L0.8,-0.0038L0.9,-0.0102L0.95,-0.014L1,-0.0185"
    />
</svg>
