
<svg 
  class="airfoil-naca23015"
  fill="none"
  stroke="black" 
  stroke-width="1"
  style="overflow:visible"
  viewBox="0, -0.0908, 1, 0.1504"
  xmlns="http://www.w3.org/2000/svg">
    <title>NACA 23015</title>
    <path 
      vector-effect="non-scaling-stroke"
      d="M1,-0.0016L0.95,-0.0112L0.9,-0.0204L0.8,-0.0373L0.7,-0.0525L0.6,-0.0661L0.5,-0.0774L0.4,-0.0859L0.3,-0.0905L0.25,-0.0908L0.2,-0.0892L0.15,-0.0852L0.1,-0.0764L0.075,-0.069L0.05,-0.0589L0.025,-0.0444L0.0125,-0.0334L0,-0L0.0125,0.0154L0.025,0.0225L0.05,0.0304L0.075,0.0361L0.1,0.0409L0.15,0.0484L0.2,0.0541L0.25,0.0578L0.3,0.0596L0.4,0.0592L0.5,0.055L0.6,0.0481L0.7,0.0391L0.8,0.0283L0.9,0.0159L0.95,0.009L1,0.0016"
    />
</svg>
