
<svg 
  class="airfoil-naca2415"
  fill="none"
  stroke="black" 
  stroke-width="1"
  style="overflow:visible"
  viewBox="0, -0.0938, 1, 0.1508"
  xmlns="http://www.w3.org/2000/svg">
    <title>NACA 2415</title>
    <path 
      vector-effect="non-scaling-stroke"
      d="M1,-0.0016L0.95,-0.0134L0.9,-0.0245L0.8,-0.0441L0.7,-0.061L0.6,-0.075L0.5,-0.0857L0.4,-0.0925L0.3,-0.0938L0.25,-0.0917L0.2,-0.087L0.15,-0.0797L0.1,-0.0683L0.075,-0.0606L0.05,-0.0507L0.025,-0.0371L0.0125,-0.0271L0,-0L0.0125,0.0206L0.025,0.0286L0.05,0.0384L0.075,0.0447L0.1,0.049L0.15,0.0542L0.2,0.0566L0.25,0.057L0.3,0.0562L0.4,0.0525L0.5,0.0467L0.6,0.039L0.7,0.0305L0.8,0.0215L0.9,0.0117L0.95,0.0068L1,0.0016"
    />
</svg>
