
<svg 
  class="airfoil-naca641112"
  fill="none"
  stroke="black" 
  stroke-width="1"
  style="overflow:visible"
  viewBox="0, -0.0652, 1, 0.1198"
  xmlns="http://www.w3.org/2000/svg">
    <title>NACA 64(1)-112</title>
    <path 
      vector-effect="non-scaling-stroke"
      d="M1,-0L0.9501,-0.0045L0.9001,-0.0104L0.8502,-0.0172L0.8002,-0.0243L0.7502,-0.0314L0.7002,-0.0384L0.6502,-0.0449L0.6001,-0.0508L0.5501,-0.056L0.5,-0.0603L0.4499,-0.0635L0.3998,-0.0652L0.3497,-0.0649L0.2996,-0.0633L0.2495,-0.0602L0.1994,-0.0557L0.1494,-0.0496L0.0993,-0.0413L0.0743,-0.036L0.0493,-0.0297L0.0244,-0.0213L0.012,-0.0154L0.007,-0.0121L0.0046,-0.01L0,-0L0.0054,0.0095L0.008,0.0114L0.013,0.0143L0.0256,0.0194L0.0507,0.0265L0.0757,0.0318L0.1007,0.0361L0.1506,0.0428L0.2006,0.0477L0.2505,0.0513L0.3004,0.0536L0.3503,0.0546L0.4002,0.0545L0.4501,0.0525L0.5,0.0493L0.5499,0.0451L0.5998,0.0401L0.6498,0.0346L0.6998,0.0286L0.7498,0.0225L0.7998,0.0163L0.8498,0.0105L0.8999,0.0053L0.9499,0.0013L1,-0"
    />
</svg>
