
<svg 
  class="airfoil-naca16006"
  fill="none"
  stroke="black" 
  stroke-width="1"
  style="overflow:visible"
  viewBox="0, -0.03, 1, 0.06"
  xmlns="http://www.w3.org/2000/svg">
    <title>NACA 16-006</title>
    <path 
      vector-effect="non-scaling-stroke"
      d="M1,-0.0006L0.95,-0.0071L0.9,-0.0126L0.8,-0.021L0.7,-0.0264L0.6,-0.0292L0.5,-0.03L0.4,-0.0293L0.3,-0.0271L0.2,-0.0233L0.15,-0.0207L0.1,-0.0173L0.075,-0.0152L0.05,-0.0126L0.025,-0.009L0.0125,-0.0065L0,-0L0.0125,0.0065L0.025,0.009L0.05,0.0126L0.075,0.0152L0.1,0.0173L0.15,0.0207L0.2,0.0233L0.3,0.0271L0.4,0.0293L0.5,0.03L0.6,0.0292L0.7,0.0264L0.8,0.021L0.9,0.0126L0.95,0.0071L1,0.0006"
    />
</svg>
