
<svg 
  class="airfoil-naca64208"
  fill="none"
  stroke="black" 
  stroke-width="1"
  style="overflow:visible"
  viewBox="0, -0.0506, 1, 0.0801"
  xmlns="http://www.w3.org/2000/svg">
    <title>NACA 64-208</title>
    <path 
      vector-effect="non-scaling-stroke"
      d="M1,-0L0.9501,-0.0052L0.9002,-0.0107L0.8503,-0.0163L0.8003,-0.022L0.7503,-0.0275L0.7003,-0.0326L0.6503,-0.0373L0.6002,-0.0415L0.5501,-0.0451L0.5,-0.0479L0.4499,-0.0498L0.3997,-0.0506L0.3496,-0.0501L0.2995,-0.0486L0.2493,-0.046L0.1992,-0.0423L0.1491,-0.0374L0.0991,-0.0309L0.0741,-0.0268L0.0491,-0.0219L0.0242,-0.0155L0.0118,-0.0111L0.0069,-0.0086L0.0044,-0.0071L0,-0L0.0055,0.0061L0.0081,0.0072L0.0132,0.009L0.0258,0.0118L0.0509,0.0156L0.0759,0.0183L0.1009,0.0205L0.1508,0.0239L0.2008,0.0264L0.2506,0.0281L0.3005,0.0291L0.3504,0.0295L0.4003,0.0292L0.4501,0.0279L0.5,0.0258L0.5499,0.0232L0.5998,0.0201L0.6497,0.0167L0.6997,0.0132L0.7497,0.0096L0.7997,0.0061L0.8497,0.0029L0.8998,0.0003L0.9499,-0.0011L1,-0"
    />
</svg>
