
<svg 
  class="airfoil-naca001035"
  fill="none"
  stroke="black" 
  stroke-width="1"
  style="overflow:visible"
  viewBox="0, -0.05, 1, 0.1"
  xmlns="http://www.w3.org/2000/svg">
    <title>NACA 0010-35</title>
    <path 
      vector-effect="non-scaling-stroke"
      d="M1,-0.001L0.95,-0.0118L0.9,-0.021L0.8,-0.035L0.7,-0.0439L0.6,-0.0487L0.5,-0.05L0.4,-0.0488L0.3,-0.0448L0.2,-0.0379L0.15,-0.0329L0.1,-0.0267L0.075,-0.0229L0.05,-0.0184L0.025,-0.0127L0.0125,-0.0088L0,-0L0.0125,0.0088L0.025,0.0127L0.05,0.0184L0.075,0.0229L0.1,0.0267L0.15,0.0329L0.2,0.0379L0.3,0.0448L0.4,0.0488L0.5,0.05L0.6,0.0487L0.7,0.0439L0.8,0.035L0.9,0.021L0.95,0.0118L1,0.001"
    />
</svg>
