
<svg 
  class="airfoil-naca644221"
  fill="none"
  stroke="black" 
  stroke-width="1"
  style="overflow:visible"
  viewBox="0, -0.1151, 1, 0.2096"
  xmlns="http://www.w3.org/2000/svg">
    <title>NACA 64(4)-221</title>
    <path 
      vector-effect="non-scaling-stroke"
      d="M1,-0L0.9502,-0.0077L0.9004,-0.0176L0.8506,-0.0289L0.8007,-0.0408L0.7508,-0.0531L0.7007,-0.0652L0.6507,-0.0768L0.6005,-0.0875L0.5503,-0.097L0.5,-0.1051L0.4497,-0.1112L0.3993,-0.115L0.349,-0.1151L0.2986,-0.1124L0.2483,-0.107L0.198,-0.0989L0.1478,-0.0878L0.0976,-0.0728L0.0726,-0.0633L0.0477,-0.0518L0.023,-0.0366L0.0108,-0.0262L0.006,-0.0205L0.0036,-0.0169L0,-0L0.0064,0.0159L0.009,0.0191L0.0143,0.024L0.027,0.0329L0.0523,0.0455L0.0774,0.0549L0.1024,0.0625L0.1522,0.0743L0.202,0.083L0.2517,0.0891L0.3014,0.093L0.351,0.0945L0.4007,0.0936L0.4503,0.0894L0.5,0.083L0.5497,0.0751L0.5995,0.0661L0.6493,0.0562L0.6992,0.0458L0.7492,0.0352L0.7993,0.0249L0.8494,0.0154L0.8996,0.0073L0.9498,0.0013L1,-0"
    />
</svg>
