
<svg 
  class="airfoil-naca2424"
  fill="none"
  stroke="black" 
  stroke-width="1"
  style="overflow:visible"
  viewBox="0, -0.1387, 1, 0.24019998"
  xmlns="http://www.w3.org/2000/svg">
    <title>NACA 2424</title>
    <path 
      vector-effect="non-scaling-stroke"
      d="M1,-0L0.951,-0.0193L0.9016,-0.035L0.8023,-0.0635L0.7024,-0.0882L0.602,-0.109L0.5012,-0.1253L0.4,-0.1361L0.297,-0.1387L0.2456,-0.1359L0.1943,-0.1296L0.1433,-0.1189L0.093,-0.1022L0.0682,-0.0905L0.0438,-0.0755L0.0201,-0.0545L0.0086,-0.0389L0,-0L0.0161,0.0365L0.0299,0.0496L0.0562,0.0661L0.0818,0.0769L0.107,0.0847L0.1567,0.0945L0.2057,0.0996L0.2544,0.1015L0.303,0.1012L0.4,0.0961L0.4988,0.0864L0.598,0.0735L0.6976,0.0582L0.7977,0.0413L0.8984,0.0228L0.949,0.0129L1,-0"
    />
</svg>
