
<svg 
  class="airfoil-naca2408"
  fill="none"
  stroke="black" 
  stroke-width="1"
  style="overflow:visible"
  viewBox="0, -0.0587, 1, 0.0821"
  xmlns="http://www.w3.org/2000/svg">
    <title>NACA 2408</title>
    <path 
      vector-effect="non-scaling-stroke"
      d="M1,-0.0008L0.9503,-0.0086L0.9005,-0.0158L0.8008,-0.0286L0.7008,-0.0394L0.6007,-0.0482L0.5004,-0.0547L0.4,-0.0587L0.299,-0.0587L0.2485,-0.0568L0.1981,-0.0532L0.1478,-0.0478L0.0977,-0.0399L0.0727,-0.0347L0.0479,-0.0283L0.0234,-0.0194L0.0113,-0.0138L0,-0L0.0137,0.0113L0.0266,0.0149L0.0521,0.0189L0.0773,0.0211L0.1023,0.0224L0.1522,0.0234L0.2019,0.0232L0.2515,0.0224L0.301,0.0213L0.4,0.0187L0.4996,0.0159L0.5993,0.0126L0.6992,0.0094L0.7992,0.0064L0.8995,0.0035L0.9497,0.0022L1,0.0008"
    />
</svg>
