
<svg 
  class="airfoil-naca634421"
  fill="none"
  stroke="black" 
  stroke-width="1"
  style="overflow:visible"
  viewBox="0, -0.1256, 1, 0.2102"
  xmlns="http://www.w3.org/2000/svg">
    <title>NACA 63(4)-421</title>
    <path 
      vector-effect="non-scaling-stroke"
      d="M1,-0L0.9504,-0.0102L0.9008,-0.0214L0.8511,-0.0336L0.8013,-0.0464L0.7515,-0.0595L0.7014,-0.0723L0.6513,-0.0846L0.601,-0.0958L0.5505,-0.1058L0.5,-0.1141L0.4494,-0.1204L0.3957,-0.1244L0.3479,-0.1256L0.2972,-0.1235L0.2465,-0.1184L0.1958,-0.1099L0.1453,-0.0977L0.0951,-0.081L0.0701,-0.0701L0.0453,-0.0567L0.0209,-0.0393L0.009,-0.0272L0.0045,-0.0205L0.0024,-0.0166L0,-0L0.0076,0.0146L0.0105,0.0177L0.016,0.0229L0.0291,0.0318L0.0547,0.0441L0.0799,0.0531L0.1049,0.0603L0.1547,0.0708L0.2042,0.0781L0.2535,0.0826L0.3028,0.0846L0.3521,0.0844L0.4013,0.0816L0.4506,0.0766L0.5,0.07L0.5495,0.062L0.599,0.053L0.6487,0.0433L0.6986,0.0334L0.7485,0.0237L0.7987,0.0146L0.8489,0.0067L0.8992,0.0008L0.9496,-0.0024L1,-0"
    />
</svg>
