
<svg 
  class="airfoil-naca16012"
  fill="none"
  stroke="black" 
  stroke-width="1"
  style="overflow:visible"
  viewBox="0, -0.06, 1, 0.12"
  xmlns="http://www.w3.org/2000/svg">
    <title>NACA 16-012</title>
    <path 
      vector-effect="non-scaling-stroke"
      d="M1,-0.0012L0.95,-0.0142L0.9,-0.0252L0.8,-0.042L0.7,-0.0527L0.6,-0.0584L0.5,-0.06L0.4,-0.0586L0.3,-0.0542L0.2,-0.0466L0.15,-0.0413L0.1,-0.0346L0.075,-0.0303L0.05,-0.0251L0.025,-0.0181L0.0125,-0.0129L0,-0L0.0125,0.0129L0.025,0.0181L0.05,0.0251L0.075,0.0303L0.1,0.0346L0.15,0.0413L0.2,0.0466L0.3,0.0542L0.4,0.0586L0.5,0.06L0.6,0.0584L0.7,0.0527L0.8,0.042L0.9,0.0252L0.95,0.0142L1,0.0012"
    />
</svg>
