
<svg 
  class="airfoil-naca664221"
  fill="none"
  stroke="black" 
  stroke-width="1"
  style="overflow:visible"
  viewBox="0, -0.116, 1, 0.21"
  xmlns="http://www.w3.org/2000/svg">
    <title>NACA 66(4)-221</title>
    <path 
      vector-effect="non-scaling-stroke"
      d="M1,-0L0.9503,-0.0103L0.9007,-0.0244L0.8509,-0.04L0.8011,-0.0559L0.7511,-0.0715L0.701,-0.0858L0.6509,-0.0982L0.6006,-0.1076L0.5503,-0.1128L0.5,-0.1154L0.4497,-0.116L0.3993,-0.1148L0.349,-0.1118L0.2987,-0.1071L0.2484,-0.1005L0.1981,-0.0917L0.148,-0.0804L0.0979,-0.0657L0.0729,-0.0565L0.048,-0.0458L0.0232,-0.0323L0.011,-0.0234L0.0061,-0.0187L0.0037,-0.0157L0,-0L0.0063,0.0147L0.0089,0.0173L0.0141,0.0213L0.0268,0.0285L0.052,0.0395L0.0771,0.0481L0.1021,0.0553L0.152,0.0669L0.2018,0.0758L0.2516,0.0826L0.3013,0.0877L0.351,0.0912L0.4007,0.0934L0.4503,0.094L0.5,0.0933L0.5497,0.0909L0.5994,0.0862L0.6491,0.0776L0.699,0.0664L0.7489,0.0536L0.7989,0.04L0.8491,0.0265L0.8993,0.0141L0.9497,0.004L1,-0"
    />
</svg>
