
<svg 
  class="airfoil-nacam2"
  fill="none"
  stroke="black" 
  stroke-width="1"
  style="overflow:visible"
  viewBox="0, -0.0403, 1, 0.0806"
  xmlns="http://www.w3.org/2000/svg">
    <title>NACA M2</title>
    <path 
      vector-effect="non-scaling-stroke"
      d="M1,-0.002L0.95,-0.0069L0.9,-0.0115L0.8,-0.0199L0.7,-0.0271L0.6,-0.033L0.5,-0.0374L0.4,-0.04L0.3,-0.0403L0.2,-0.0378L0.15,-0.0349L0.1,-0.0305L0.075,-0.0274L0.05,-0.0233L0.025,-0.0174L0.0125,-0.013L0,-0L0.0125,0.013L0.025,0.0174L0.05,0.0233L0.075,0.0274L0.1,0.0305L0.15,0.0349L0.2,0.0378L0.3,0.0403L0.4,0.04L0.5,0.0374L0.6,0.033L0.7,0.0271L0.8,0.0199L0.9,0.0115L0.95,0.0069L1,0.002"
    />
</svg>
