
<svg 
  class="airfoil-naca4424"
  fill="none"
  stroke="black" 
  stroke-width="1"
  style="overflow:visible"
  viewBox="0, -0.1574, 1, 0.2416"
  xmlns="http://www.w3.org/2000/svg">
    <title>NACA 4424</title>
    <path 
      vector-effect="non-scaling-stroke"
      d="M1,-0L0.952,-0.0224L0.9032,-0.041L0.8046,-0.0745L0.7049,-0.1031L0.604,-0.1267L0.5023,-0.1447L0.4,-0.1561L0.294,-0.1574L0.2411,-0.1529L0.1886,-0.1442L0.1367,-0.1304L0.0861,-0.1101L0.0615,-0.0965L0.0377,-0.0794L0.0154,-0.0562L0.0053,-0.0396L0,-0L0.0197,0.0347L0.0346,0.0466L0.0622,0.0607L0.0885,0.0693L0.1139,0.0751L0.1633,0.0817L0.2114,0.0842L0.2589,0.0841L0.306,0.0824L0.4,0.0761L0.4976,0.067L0.596,0.0556L0.6951,0.0431L0.7954,0.03L0.8968,0.0166L0.948,0.0096L1,-0"
    />
</svg>
