
<svg 
  class="airfoil-naca64210"
  fill="none"
  stroke="black" 
  stroke-width="1"
  style="overflow:visible"
  viewBox="0, -0.0606, 1, 0.1001"
  xmlns="http://www.w3.org/2000/svg">
    <title>NACA 64-210</title>
    <path 
      vector-effect="non-scaling-stroke"
      d="M1,-0L0.9501,-0.0056L0.9002,-0.0119L0.8503,-0.0185L0.8004,-0.0252L0.7504,-0.0318L0.7004,-0.038L0.6503,-0.0437L0.6003,-0.0489L0.5501,-0.0533L0.5,-0.0569L0.4498,-0.0594L0.3997,-0.0606L0.3495,-0.0601L0.2993,-0.0584L0.2492,-0.0553L0.199,-0.051L0.1489,-0.0451L0.0989,-0.0374L0.0739,-0.0325L0.0489,-0.0266L0.024,-0.0188L0.0116,-0.0135L0.0067,-0.0106L0.0043,-0.0087L0,-0L0.0057,0.0077L0.0083,0.0092L0.0134,0.0114L0.026,0.0151L0.0511,0.0202L0.0761,0.024L0.1011,0.027L0.1511,0.0317L0.2009,0.0351L0.2508,0.0374L0.3007,0.0389L0.3505,0.0395L0.4003,0.0392L0.4502,0.0375L0.5,0.0348L0.5499,0.0314L0.5997,0.0275L0.6497,0.0232L0.6996,0.0185L0.7496,0.0139L0.7996,0.0093L0.8497,0.005L0.8998,0.0015L0.9499,-0.0007L1,-0"
    />
</svg>
