
<svg 
  class="airfoil-naca653618"
  fill="none"
  stroke="black" 
  stroke-width="1"
  style="overflow:visible"
  viewBox="0, -0.1221, 1, 0.18"
  xmlns="http://www.w3.org/2000/svg">
    <title>NACA 65(3)-618</title>
    <path 
      vector-effect="non-scaling-stroke"
      d="M1,-0L0.9507,-0.0143L0.9014,-0.0286L0.8519,-0.0431L0.8022,-0.0572L0.7523,-0.0707L0.7022,-0.0834L0.6519,-0.0948L0.6014,-0.1048L0.5508,-0.1129L0.5,-0.1188L0.4491,-0.1219L0.3983,-0.1221L0.3474,-0.1197L0.2965,-0.115L0.2457,-0.108L0.1951,-0.0985L0.1445,-0.086L0.0943,-0.0698L0.0694,-0.0597L0.0446,-0.0478L0.0203,-0.0327L0.0084,-0.0229L0.0038,-0.0178L0.0017,-0.0145L0,-0L0.0083,0.0115L0.0111,0.0136L0.0166,0.0165L0.0297,0.0215L0.0554,0.0288L0.0806,0.0343L0.1057,0.0388L0.1555,0.0456L0.2049,0.0507L0.2543,0.0543L0.3035,0.0567L0.3526,0.0579L0.4017,0.0578L0.4509,0.0562L0.5,0.0526L0.5492,0.0472L0.5986,0.0405L0.6481,0.033L0.6978,0.0251L0.7477,0.017L0.7978,0.0094L0.8481,0.0027L0.8986,-0.0024L0.9493,-0.0046L1,-0"
    />
</svg>
