
<svg 
  class="airfoil-naca1408"
  fill="none"
  stroke="black" 
  stroke-width="1"
  style="overflow:visible"
  viewBox="0, -0.0494, 1, 0.080400005"
  xmlns="http://www.w3.org/2000/svg">
    <title>NACA 1408</title>
    <path 
      vector-effect="non-scaling-stroke"
      d="M1,-0.0008L0.9502,-0.007L0.9003,-0.0127L0.8004,-0.0231L0.7004,-0.0319L0.6003,-0.0393L0.5002,-0.045L0.4,-0.0487L0.2995,-0.0494L0.2493,-0.0482L0.199,-0.0457L0.1489,-0.0417L0.0988,-0.0356L0.0739,-0.0314L0.049,-0.026L0.0242,-0.0186L0.0119,-0.0132L0,-0L0.0131,0.012L0.0258,0.0162L0.051,0.0213L0.0761,0.0246L0.1012,0.0268L0.1511,0.0295L0.201,0.0307L0.2507,0.031L0.3005,0.0306L0.4,0.0287L0.4998,0.0256L0.5997,0.0215L0.6996,0.0169L0.7996,0.0119L0.8997,0.0066L0.9498,0.0038L1,0.0008"
    />
</svg>
