
<svg 
  class="airfoil-naca4418"
  fill="none"
  stroke="black" 
  stroke-width="1"
  style="overflow:visible"
  viewBox="0, -0.1276, 1, 0.1832"
  xmlns="http://www.w3.org/2000/svg">
    <title>NACA 4418</title>
    <path 
      vector-effect="non-scaling-stroke"
      d="M1,-0.0019L0.95,-0.0189L0.9,-0.0346L0.8,-0.0622L0.7,-0.0855L0.6,-0.1044L0.5,-0.1185L0.4,-0.127L0.3,-0.1276L0.25,-0.124L0.2,-0.1172L0.15,-0.1066L0.1,-0.0911L0.075,-0.0806L0.05,-0.0675L0.025,-0.05L0.0125,-0.0376L0,-0L0.0125,0.0211L0.025,0.0299L0.05,0.0406L0.075,0.0467L0.1,0.0506L0.15,0.0549L0.2,0.0556L0.25,0.0549L0.3,0.0526L0.4,0.047L0.5,0.0402L0.6,0.0324L0.7,0.0245L0.8,0.0167L0.9,0.0093L0.95,0.0055L1,0.0019"
    />
</svg>
