
<svg 
  class="airfoil-naca63a210"
  fill="none"
  stroke="black" 
  stroke-width="1"
  style="overflow:visible"
  viewBox="0, -0.0625, 1, 0.1002"
  xmlns="http://www.w3.org/2000/svg">
    <title>NACA 63A210</title>
    <path 
      vector-effect="non-scaling-stroke"
      d="M1,-0.0002L0.9503,-0.0077L0.9005,-0.0152L0.8507,-0.0225L0.8007,-0.0297L0.7506,-0.0362L0.7005,-0.0423L0.6504,-0.0477L0.6003,-0.0525L0.5501,-0.0564L0.5001,-0.0564L0.4999,-0.0594L0.4498,-0.0615L0.3995,-0.0625L0.3494,-0.0622L0.2992,-0.0606L0.249,-0.0576L0.1988,-0.0533L0.1487,-0.0473L0.0986,-0.0392L0.0736,-0.034L0.0487,-0.0277L0.0238,-0.0194L0.0115,-0.0137L0.0066,-0.0106L0.0042,-0.0087L0,-0L0.0058,0.0076L0.0084,0.009L0.0135,0.0113L0.0262,0.0152L0.0513,0.0205L0.0764,0.0243L0.1014,0.0272L0.1513,0.0317L0.2012,0.0347L0.251,0.0366L0.3008,0.0376L0.3507,0.0377L0.4004,0.0369L0.4502,0.0352L0.5001,0.0328L0.5499,0.0299L0.5997,0.0264L0.6496,0.0226L0.6995,0.0186L0.7494,0.0146L0.7993,0.011L0.8493,0.0081L0.8995,0.0054L0.9497,0.0028L1,0.0002"
    />
</svg>
