
<svg 
  class="airfoil-naca634221"
  fill="none"
  stroke="black" 
  stroke-width="1"
  style="overflow:visible"
  viewBox="0, -0.1153, 1, 0.21000001"
  xmlns="http://www.w3.org/2000/svg">
    <title>NACA 63(4)-221</title>
    <path 
      vector-effect="non-scaling-stroke"
      d="M1,-0L0.9502,-0.0071L0.9004,-0.0163L0.8506,-0.0269L0.8007,-0.0385L0.7507,-0.0505L0.7007,-0.0626L0.6506,-0.0743L0.6005,-0.0851L0.5503,-0.0949L0.5,-0.1031L0.4497,-0.1095L0.3993,-0.1137L0.349,-0.1153L0.2986,-0.1138L0.2482,-0.1095L0.1979,-0.102L0.1477,-0.0911L0.0975,-0.0759L0.0725,-0.066L0.0476,-0.0538L0.0229,-0.0376L0.0108,-0.0263L0.006,-0.02L0.0037,-0.0163L0,-0L0.0063,0.0153L0.009,0.0186L0.0143,0.0241L0.0271,0.0338L0.0524,0.0474L0.0775,0.0575L0.1025,0.0656L0.1523,0.0777L0.2021,0.0861L0.2518,0.0916L0.3014,0.0944L0.351,0.0947L0.4007,0.0923L0.4503,0.0876L0.5,0.081L0.5497,0.0729L0.5995,0.0637L0.6494,0.0537L0.6993,0.0432L0.7493,0.0326L0.7993,0.0226L0.8494,0.0135L0.8996,0.006L0.9498,0.0008L1,-0"
    />
</svg>
