
<svg 
  class="airfoil-naca662215"
  fill="none"
  stroke="black" 
  stroke-width="1"
  style="overflow:visible"
  viewBox="0, -0.0859, 1, 0.1499"
  xmlns="http://www.w3.org/2000/svg">
    <title>NACA 66(2)-215</title>
    <path 
      vector-effect="non-scaling-stroke"
      d="M1,-0L0.9503,-0.0088L0.9005,-0.0201L0.8507,-0.032L0.8008,-0.0439L0.7508,-0.0553L0.7007,-0.0655L0.6506,-0.074L0.6004,-0.0803L0.5502,-0.0838L0.5,-0.0855L0.4498,-0.0859L0.3995,-0.085L0.3495,-0.0828L0.2991,-0.0793L0.2489,-0.0744L0.1987,-0.0679L0.1485,-0.0596L0.0985,-0.0487L0.0735,-0.042L0.0485,-0.0341L0.0237,-0.0242L0.0113,-0.0178L0.0065,-0.0141L0.0041,-0.0117L0,-0L0.0059,0.0107L0.0085,0.0127L0.0137,0.0156L0.0263,0.0204L0.0514,0.0278L0.0765,0.0335L0.1015,0.0384L0.1515,0.0461L0.2013,0.052L0.2511,0.0565L0.3009,0.0598L0.3507,0.0622L0.4005,0.0636L0.4502,0.064L0.5,0.0635L0.5498,0.0619L0.5996,0.0589L0.6494,0.0534L0.6992,0.046L0.7492,0.0374L0.7992,0.028L0.8493,0.0186L0.8995,0.0097L0.9497,0.0025L1,-0"
    />
</svg>
