
<svg 
  class="airfoil-naca63209"
  fill="none"
  stroke="black" 
  stroke-width="1"
  style="overflow:visible"
  viewBox="0, -0.0553, 1, 0.09"
  xmlns="http://www.w3.org/2000/svg">
    <title>NACA 63-209</title>
    <path 
      vector-effect="non-scaling-stroke"
      d="M1,-0L0.9501,-0.0051L0.9002,-0.0107L0.8503,-0.0166L0.8003,-0.0227L0.7503,-0.0286L0.7003,-0.0343L0.6503,-0.0396L0.6002,-0.0443L0.5501,-0.0483L0.5,-0.0516L0.4499,-0.0539L0.3997,-0.0552L0.3496,-0.0553L0.2994,-0.0541L0.2492,-0.0517L0.1991,-0.0479L0.149,-0.0426L0.0989,-0.0354L0.0739,-0.0308L0.049,-0.0251L0.0241,-0.0177L0.0117,-0.0126L0.0068,-0.0097L0.0044,-0.008L0,-0L0.0056,0.007L0.0082,0.0083L0.0133,0.0104L0.0259,0.0139L0.051,0.0188L0.0761,0.0223L0.1011,0.025L0.151,0.0292L0.2009,0.032L0.2508,0.0338L0.3006,0.0347L0.3504,0.0347L0.4003,0.0338L0.4501,0.032L0.5,0.0295L0.5499,0.0264L0.5998,0.0229L0.6497,0.019L0.6997,0.0149L0.7497,0.0107L0.7997,0.0068L0.8497,0.0032L0.8998,0.0003L0.9499,-0.0012L1,-0"
    />
</svg>
