
<svg 
  class="airfoil-naca633418"
  fill="none"
  stroke="black" 
  stroke-width="1"
  style="overflow:visible"
  viewBox="0, -0.1106, 1, 0.1803"
  xmlns="http://www.w3.org/2000/svg">
    <title>NACA 63,3-418</title>
    <path 
      vector-effect="non-scaling-stroke"
      d="M1,-0L0.9989,-0.0001L0.9957,-0.0008L0.9904,-0.0019L0.983,-0.0033L0.9735,-0.0053L0.9619,-0.0076L0.9484,-0.0103L0.933,-0.0135L0.9157,-0.0171L0.8967,-0.0212L0.8759,-0.0257L0.8536,-0.0307L0.8297,-0.0362L0.8044,-0.0421L0.7778,-0.0483L0.75,-0.0547L0.7211,-0.0613L0.6913,-0.0679L0.6607,-0.0744L0.6294,-0.0806L0.5975,-0.0866L0.5653,-0.0921L0.5327,-0.0971L0.5,-0.1015L0.4673,-0.1051L0.4347,-0.1079L0.4024,-0.1097L0.3706,-0.1106L0.3393,-0.1104L0.3087,-0.1092L0.2789,-0.1071L0.25,-0.1042L0.2222,-0.1005L0.1956,-0.0962L0.1703,-0.0912L0.1464,-0.0857L0.1241,-0.0798L0.1033,-0.0734L0.0843,-0.0667L0.067,-0.0598L0.0516,-0.0527L0.0381,-0.0456L0.0265,-0.0384L0.017,-0.0313L0.0096,-0.0244L0.0043,-0.0176L0.0011,-0.0112L0,-0L0.0011,0.0033L0.0043,0.0091L0.0096,0.0149L0.017,0.0206L0.0265,0.026L0.0381,0.0312L0.0516,0.0363L0.067,0.0411L0.0843,0.0457L0.1033,0.0499L0.1241,0.0539L0.1464,0.0576L0.1703,0.0608L0.1956,0.0637L0.2222,0.066L0.25,0.0678L0.2789,0.0691L0.3087,0.0697L0.3393,0.0696L0.3706,0.0687L0.4024,0.0669L0.4347,0.0644L0.4673,0.0612L0.5,0.0574L0.5327,0.0531L0.5653,0.0484L0.5975,0.0434L0.6294,0.0382L0.6607,0.0329L0.6913,0.0278L0.7211,0.0228L0.75,0.0181L0.7778,0.0138L0.8044,0.01L0.8297,0.0067L0.8536,0.0039L0.8759,0.0016L0.8967,-0.0003L0.9157,-0.0017L0.933,-0.0026L0.9484,-0.0029L0.9619,-0.0026L0.9735,-0.002L0.983,-0.0014L0.9904,-0.0008L0.9957,-0.0004L0.9989,-0.0001L1,-0"
    />
</svg>
