
<svg 
  class="airfoil-naca23021"
  fill="none"
  stroke="black" 
  stroke-width="1"
  style="overflow:visible"
  viewBox="0, -0.1206, 1, 0.2101"
  xmlns="http://www.w3.org/2000/svg">
    <title>NACA 23021</title>
    <path 
      vector-effect="non-scaling-stroke"
      d="M1,-0.0022L0.95,-0.0153L0.9,-0.0276L0.8,-0.0505L0.7,-0.0709L0.6,-0.089L0.5,-0.104L0.4,-0.1149L0.3,-0.1206L0.25,-0.1205L0.2,-0.118L0.15,-0.1119L0.1,-0.1003L0.075,-0.0913L0.05,-0.0793L0.025,-0.0641L0.0125,-0.0487L0,-0L0.0125,0.0208L0.025,0.0314L0.05,0.0452L0.075,0.0555L0.1,0.0632L0.15,0.0751L0.2,0.083L0.25,0.0876L0.3,0.0895L0.4,0.0883L0.5,0.0814L0.6,0.0707L0.7,0.0572L0.8,0.0413L0.9,0.023L0.95,0.013L1,0.0022"
    />
</svg>
