
<svg 
  class="airfoil-naca651412"
  fill="none"
  stroke="black" 
  stroke-width="1"
  style="overflow:visible"
  viewBox="0, -0.0814, 1, 0.120000005"
  xmlns="http://www.w3.org/2000/svg">
    <title>NACA 65(1)-412</title>
    <path 
      vector-effect="non-scaling-stroke"
      d="M1,-0L0.9503,-0.0099L0.9007,-0.0198L0.8509,-0.0297L0.801,-0.0393L0.7511,-0.0485L0.701,-0.0569L0.6509,-0.0644L0.6006,-0.0708L0.5504,-0.076L0.5,-0.0796L0.4496,-0.0814L0.3992,-0.0814L0.3488,-0.0797L0.2985,-0.0766L0.2488,-0.0719L0.1978,-0.0656L0.1476,-0.0574L0.0975,-0.0467L0.0725,-0.0401L0.0476,-0.0323L0.0228,-0.0223L0.0106,-0.0159L0.0058,-0.0124L0.0035,-0.0101L0,-0L0.0065,0.0081L0.0092,0.0096L0.0144,0.0116L0.0272,0.0149L0.0524,0.0196L0.0775,0.0231L0.1025,0.026L0.1524,0.0305L0.2022,0.0338L0.2519,0.0361L0.3015,0.0377L0.3512,0.0385L0.4008,0.0386L0.4504,0.0376L0.5,0.0355L0.5497,0.0322L0.5994,0.028L0.6491,0.0232L0.699,0.018L0.7489,0.0127L0.799,0.0075L0.8491,0.0028L0.8993,-0.0009L0.9497,-0.0028L1,-0"
    />
</svg>
