
<svg 
  class="airfoil-naca6412"
  fill="none"
  stroke="black" 
  stroke-width="1"
  style="overflow:visible"
  viewBox="0, -0.1184, 1.0002, 0.1389"
  xmlns="http://www.w3.org/2000/svg">
    <title>NACA 6412</title>
    <path 
      vector-effect="non-scaling-stroke"
      d="M1.0002,-0.0012L0.9976,-0.0022L0.9896,-0.0049L0.9764,-0.0093L0.9581,-0.0154L0.9348,-0.0228L0.9068,-0.0313L0.8744,-0.0407L0.8378,-0.0506L0.7974,-0.0608L0.7537,-0.071L0.707,-0.0808L0.658,-0.09L0.607,-0.0983L0.5548,-0.1054L0.5018,-0.1112L0.4486,-0.1155L0.3959,-0.1182L0.3431,-0.1184L0.292,-0.1158L0.2434,-0.1106L0.1978,-0.103L0.1559,-0.0934L0.1182,-0.0823L0.0852,-0.0701L0.0573,-0.0574L0.0346,-0.0445L0.0174,-0.032L0.006,-0.0203L0.0001,-0.0095L0,-0L0.0053,0.0079L0.0159,0.0138L0.0315,0.0178L0.0519,0.02L0.0767,0.0205L0.1057,0.0197L0.1386,0.0176L0.175,0.0147L0.2144,0.0112L0.2566,0.0075L0.3013,0.0038L0.3479,0.0006L0.3962,-0.0018L0.4469,-0.0037L0.4982,-0.0054L0.5498,-0.0068L0.6009,-0.0079L0.651,-0.0084L0.6997,-0.0085L0.7463,-0.0082L0.7904,-0.0075L0.8314,-0.0064L0.8688,-0.0052L0.9022,-0.0039L0.9312,-0.0025L0.9555,-0.0013L0.9747,-0.0002L0.9885,0.0006L0.9969,0.0011L0.9998,0.0012L1,-0"
    />
</svg>
