
<svg 
  class="airfoil-naca23024"
  fill="none"
  stroke="black" 
  stroke-width="1"
  style="overflow:visible"
  viewBox="0, -0.1355, 1, 0.24000001"
  xmlns="http://www.w3.org/2000/svg">
    <title>NACA 23024</title>
    <path 
      vector-effect="non-scaling-stroke"
      d="M1,-0L0.9504,-0.0172L0.9006,-0.0312L0.8012,-0.0569L0.7016,-0.0799L0.602,-0.1001L0.5023,-0.1169L0.4026,-0.1293L0.3027,-0.1355L0.2526,-0.1354L0.2025,-0.1324L0.15,-0.1253L0.0942,-0.1105L0.066,-0.0984L0.0385,-0.0817L0.0133,-0.0576L0.0028,-0.0402L0,-0L0.0222,0.033L0.0367,0.0443L0.0615,0.0586L0.084,0.0686L0.1058,0.0765L0.15,0.0885L0.1975,0.097L0.2474,0.1022L0.2973,0.1045L0.3974,0.1028L0.4977,0.0948L0.598,0.0824L0.6984,0.0666L0.7988,0.048L0.8994,0.0267L0.9496,0.015L1,-0"
    />
</svg>
