
<svg 
  class="airfoil-naca000834"
  fill="none"
  stroke="black" 
  stroke-width="1"
  style="overflow:visible"
  viewBox="0, -0.04, 1, 0.08"
  xmlns="http://www.w3.org/2000/svg">
    <title>NACA 0008-34</title>
    <path 
      vector-effect="non-scaling-stroke"
      d="M1,-0.0008L0.95,-0.0068L0.9,-0.0124L0.8,-0.0221L0.7,-0.0299L0.6,-0.0355L0.5,-0.0388L0.4,-0.04L0.3,-0.0387L0.2,-0.034L0.15,-0.03L0.1,-0.0244L0.075,-0.0209L0.05,-0.0166L0.025,-0.0112L0.0125,-0.0076L0,-0L0.0125,0.0076L0.025,0.0112L0.05,0.0166L0.075,0.0209L0.1,0.0244L0.15,0.03L0.2,0.034L0.3,0.0387L0.4,0.04L0.5,0.0388L0.6,0.0355L0.7,0.0299L0.8,0.0221L0.9,0.0124L0.95,0.0068L1,0.0008"
    />
</svg>
