
<svg 
  class="airfoil-naca001064"
  fill="none"
  stroke="black" 
  stroke-width="1"
  style="overflow:visible"
  viewBox="0, -0.05, 1, 0.1"
  xmlns="http://www.w3.org/2000/svg">
    <title>NACA 0010-64</title>
    <path 
      vector-effect="non-scaling-stroke"
      d="M1,-0.001L0.95,-0.0086L0.9,-0.0156L0.8,-0.0277L0.7,-0.0373L0.6,-0.0443L0.5,-0.0486L0.4,-0.05L0.3,-0.0486L0.2,-0.0441L0.15,-0.0406L0.1,-0.0353L0.075,-0.0318L0.05,-0.0272L0.025,-0.0204L0.0125,-0.0151L0,-0L0.0125,0.0151L0.025,0.0204L0.05,0.0272L0.075,0.0318L0.1,0.0353L0.15,0.0406L0.2,0.0441L0.3,0.0486L0.4,0.05L0.5,0.0486L0.6,0.0443L0.7,0.0373L0.8,0.0277L0.9,0.0156L0.95,0.0086L1,0.001"
    />
</svg>
