
<svg 
  class="airfoil-naca0018"
  fill="none"
  stroke="black" 
  stroke-width="1"
  style="overflow:visible"
  viewBox="0, -0.09, 1, 0.18"
  xmlns="http://www.w3.org/2000/svg">
    <title>NACA 0018</title>
    <path 
      vector-effect="non-scaling-stroke"
      d="M1,-0.0019L0.95,-0.0121L0.9,-0.0217L0.8,-0.0393L0.7,-0.055L0.6,-0.0684L0.5,-0.0794L0.4,-0.087L0.3,-0.09L0.25,-0.0891L0.2,-0.0861L0.15,-0.0802L0.1,-0.0702L0.075,-0.063L0.05,-0.0533L0.025,-0.0392L0.0125,-0.0284L0,-0L0.0125,0.0284L0.025,0.0392L0.05,0.0533L0.075,0.063L0.1,0.0702L0.15,0.0802L0.2,0.0861L0.25,0.0891L0.3,0.09L0.4,0.087L0.5,0.0794L0.6,0.0684L0.7,0.055L0.8,0.0393L0.9,0.0217L0.95,0.0121L1,0.0019"
    />
</svg>
