
<svg 
  class="airfoil-naca652415a05"
  fill="none"
  stroke="black" 
  stroke-width="1"
  style="overflow:visible"
  viewBox="0, -0.1047, 1, 0.15"
  xmlns="http://www.w3.org/2000/svg">
    <title>NACA 65(2)-415 a=0.5</title>
    <path 
      vector-effect="non-scaling-stroke"
      d="M1,-0L0.9503,-0.0071L0.9008,-0.0176L0.8514,-0.0293L0.802,-0.0416L0.7525,-0.0539L0.7029,-0.0657L0.6531,-0.0768L0.6031,-0.0867L0.5526,-0.095L0.5015,-0.1011L0.4502,-0.1042L0.3992,-0.1047L0.3483,-0.1028L0.2974,-0.0988L0.2467,-0.0928L0.1961,-0.0846L0.1457,-0.0739L0.0955,-0.0598L0.0705,-0.0512L0.0457,-0.041L0.0213,-0.0281L0.0093,-0.0196L0.0046,-0.0152L0.0025,-0.0123L0,-0L0.0076,0.0096L0.0104,0.0113L0.0157,0.0138L0.0287,0.0178L0.0543,0.0234L0.0795,0.0275L0.1045,0.0308L0.1543,0.0359L0.2039,0.0396L0.2533,0.0423L0.3026,0.0441L0.3517,0.0451L0.4008,0.0453L0.4498,0.0443L0.4985,0.0423L0.5474,0.0393L0.5969,0.0355L0.6469,0.031L0.6971,0.0261L0.7475,0.0208L0.798,0.0154L0.8486,0.0101L0.8992,0.0053L0.9497,0.0014L1,-0"
    />
</svg>
