
<svg 
  class="airfoil-nacam18"
  fill="none"
  stroke="black" 
  stroke-width="1"
  style="overflow:visible"
  viewBox="0, -0.1242, 1, 0.1242"
  xmlns="http://www.w3.org/2000/svg">
    <title>NACA M18</title>
    <path 
      vector-effect="non-scaling-stroke"
      d="M1,-0.0295L0.95,-0.0366L0.9,-0.0445L0.8,-0.0623L0.7,-0.0809L0.6,-0.0982L0.5,-0.1133L0.4,-0.1226L0.3,-0.1242L0.2,-0.1148L0.15,-0.1047L0.1,-0.0894L0.075,-0.0799L0.05,-0.0678L0.025,-0.0525L0.0125,-0.0425L0,-0.022L0.0125,-0.0056L0.025,-0.0025L0.05,-0.0003L0.075,-0L0.1,-0.0003L0.15,-0.0017L0.2,-0.0031L0.3,-0.0046L0.4,-0.0041L0.5,-0.0019L0.6,-0.0003L0.7,-0.0005L0.8,-0.004L0.9,-0.0117L0.95,-0.0175L1,-0.0251"
    />
</svg>
