
<svg 
  class="airfoil-naca64206"
  fill="none"
  stroke="black" 
  stroke-width="1"
  style="overflow:visible"
  viewBox="0, -0.0407, 1, 0.0602"
  xmlns="http://www.w3.org/2000/svg">
    <title>NACA 64-206</title>
    <path 
      vector-effect="non-scaling-stroke"
      d="M1,-0L0.9501,-0.0047L0.9002,-0.0094L0.8502,-0.0141L0.8002,-0.0187L0.7502,-0.0231L0.7002,-0.0271L0.6502,-0.0308L0.6001,-0.034L0.5501,-0.0367L0.5,-0.0388L0.4499,-0.0401L0.3998,-0.0407L0.3497,-0.0401L0.2996,-0.0388L0.2495,-0.0367L0.1994,-0.0337L0.1494,-0.0297L0.0993,-0.0244L0.0743,-0.0212L0.0493,-0.0172L0.0244,-0.0121L0.012,-0.0086L0.007,-0.0066L0.0046,-0.0054L0,-0L0.0054,0.0044L0.008,0.0052L0.013,0.0065L0.0256,0.0084L0.0507,0.0109L0.0757,0.0127L0.1007,0.0141L0.1506,0.0162L0.2006,0.0178L0.2505,0.0188L0.3004,0.0193L0.3503,0.0195L0.4002,0.0192L0.4501,0.0182L0.5,0.0167L0.5499,0.0148L0.5998,0.0126L0.6498,0.0102L0.6998,0.0077L0.7498,0.0052L0.7998,0.0028L0.8498,0.0006L0.8999,-0.0009L0.9499,-0.0016L1,-0"
    />
</svg>
