
<svg 
  class="airfoil-naca2410"
  fill="none"
  stroke="black" 
  stroke-width="1"
  style="overflow:visible"
  viewBox="0, -0.0688, 1, 0.101600006"
  xmlns="http://www.w3.org/2000/svg">
    <title>NACA 2410</title>
    <path 
      vector-effect="non-scaling-stroke"
      d="M1,-0.001L0.9504,-0.0099L0.9007,-0.0182L0.801,-0.033L0.701,-0.0455L0.6008,-0.0558L0.5005,-0.0636L0.4,-0.0684L0.2988,-0.0688L0.2481,-0.0667L0.1976,-0.0628L0.1472,-0.0567L0.0971,-0.0477L0.0722,-0.0417L0.0474,-0.0342L0.023,-0.0241L0.011,-0.0169L0,-0L0.014,0.0145L0.027,0.0193L0.0526,0.0248L0.0778,0.0281L0.1029,0.0302L0.1528,0.0323L0.2024,0.0328L0.2519,0.0323L0.3013,0.0312L0.4,0.0284L0.4995,0.0247L0.5992,0.0202L0.699,0.0155L0.799,0.0107L0.8993,0.0059L0.9496,0.0035L1,0.001"
    />
</svg>
