
<svg 
  class="airfoil-naca64a210"
  fill="none"
  stroke="black" 
  stroke-width="1"
  style="overflow:visible"
  viewBox="0, -0.0627, 1, 0.1001"
  xmlns="http://www.w3.org/2000/svg">
    <title>NACA 64A210</title>
    <path 
      vector-effect="non-scaling-stroke"
      d="M1,-0.0002L0.9503,-0.0078L0.9005,-0.0155L0.8507,-0.023L0.8008,-0.0304L0.7506,-0.037L0.7005,-0.0431L0.6504,-0.0485L0.6003,-0.0532L0.5501,-0.0571L0.4999,-0.0601L0.4498,-0.0621L0.3995,-0.0627L0.3494,-0.0619L0.2992,-0.0598L0.249,-0.0566L0.1989,-0.052L0.1487,-0.0459L0.0987,-0.0379L0.0737,-0.0329L0.0487,-0.0269L0.0239,-0.019L0.0115,-0.0134L0.0066,-0.0104L0.0042,-0.0086L0,-0L0.0058,0.0074L0.0083,0.0089L0.0135,0.011L0.0261,0.0147L0.0513,0.0196L0.0763,0.0232L0.1013,0.026L0.1513,0.0303L0.2012,0.0334L0.251,0.0355L0.3008,0.0369L0.3507,0.0374L0.4004,0.0372L0.4502,0.0358L0.5001,0.0335L0.5499,0.0306L0.5997,0.0272L0.6496,0.0234L0.6995,0.0194L0.7494,0.0154L0.7992,0.0117L0.8493,0.0086L0.8995,0.0057L0.9497,0.003L1,0.0002"
    />
</svg>
