
<svg 
  class="airfoil-naca0015"
  fill="none"
  stroke="black" 
  stroke-width="1"
  style="overflow:visible"
  viewBox="0, -0.075, 1, 0.15"
  xmlns="http://www.w3.org/2000/svg">
    <title>NACA 0015</title>
    <path 
      vector-effect="non-scaling-stroke"
      d="M1,-0.0016L0.95,-0.0101L0.9,-0.0181L0.8,-0.0328L0.7,-0.0458L0.6,-0.057L0.5,-0.0662L0.4,-0.0725L0.3,-0.075L0.25,-0.0743L0.2,-0.0717L0.15,-0.0668L0.1,-0.0585L0.075,-0.0525L0.05,-0.0444L0.025,-0.0327L0.0125,-0.0237L0,-0L0.0125,0.0237L0.025,0.0327L0.05,0.0444L0.075,0.0525L0.1,0.0585L0.15,0.0668L0.2,0.0717L0.25,0.0743L0.3,0.075L0.4,0.0725L0.5,0.0662L0.6,0.057L0.7,0.0458L0.8,0.0328L0.9,0.0181L0.95,0.0101L1,0.0016"
    />
</svg>
