
<svg 
  class="airfoil-naca1412"
  fill="none"
  stroke="black" 
  stroke-width="1"
  style="overflow:visible"
  viewBox="0, -0.0694, 1, 0.12019999"
  xmlns="http://www.w3.org/2000/svg">
    <title>NACA 1412</title>
    <path 
      vector-effect="non-scaling-stroke"
      d="M1,-0.0013L0.9503,-0.0097L0.9004,-0.0175L0.8006,-0.0318L0.7006,-0.0441L0.6005,-0.0545L0.5003,-0.0627L0.4,-0.068L0.2993,-0.0694L0.2489,-0.068L0.1986,-0.0649L0.1483,-0.0595L0.0982,-0.0512L0.0733,-0.0454L0.0485,-0.0379L0.0238,-0.0273L0.0116,-0.0195L0,-0L0.0134,0.0183L0.0262,0.0249L0.0516,0.0332L0.0767,0.0386L0.1018,0.0424L0.1517,0.0473L0.2014,0.0499L0.2511,0.0508L0.3007,0.0506L0.4,0.048L0.4997,0.0432L0.5995,0.0367L0.6994,0.0291L0.7994,0.0207L0.8996,0.0114L0.9498,0.0065L1,0.0013"
    />
</svg>
