
<svg 
  class="airfoil-nasasc2-0714"
  fill="none"
  stroke="black" 
  stroke-width="1"
  style="overflow:visible"
  viewBox="0, -0.0698, 1, 0.1394"
  xmlns="http://www.w3.org/2000/svg">
    <title>SC(2)-0714</title>
    <desc># Supercritical airfoil (coordinates from Raymer w/ one correction). These coordinates are actual model coordinates, not coordinates as designed. Ref: NASA TP-2890</desc>
    <path 
      vector-effect="non-scaling-stroke"
      d="M1,0.0104L0.99,0.0071L0.98,0.0039L0.97,0.0009L0.95,-0.0049L0.92,-0.0131L0.9,-0.0181L0.87,-0.0251L0.85,-0.0294L0.82,-0.0353L0.8,-0.0389L0.77,-0.0439L0.75,-0.0469L0.72,-0.0509L0.7,-0.0533L0.68,-0.0555L0.65,-0.0585L0.62,-0.061L0.6,-0.0625L0.57,-0.0645L0.55,-0.0656L0.53,-0.0666L0.5,-0.0678L0.48,-0.0684L0.45,-0.0692L0.43,-0.0695L0.4,-0.0697L0.38,-0.0698L0.35,-0.0696L0.33,-0.0692L0.3,-0.0685L0.27,-0.0673L0.25,-0.0664L0.22,-0.0646L0.2,-0.0632L0.17,-0.0606L0.15,-0.0585L0.12,-0.0548L0.1,-0.0518L0.07,-0.0462L0.05,-0.0411L0.04,-0.0381L0.03,-0.0343L0.02,-0.0293L0.01,-0.0219L0.005,-0.0158L0.002,-0.0095L0,-0L0.002,0.0093L0.005,0.016L0.01,0.0221L0.02,0.0295L0.03,0.0344L0.04,0.0381L0.05,0.0412L0.07,0.0462L0.1,0.0517L0.12,0.0547L0.15,0.0585L0.17,0.0606L0.2,0.0633L0.22,0.0647L0.25,0.0666L0.28,0.068L0.3,0.0687L0.32,0.0692L0.35,0.0696L0.37,0.0696L0.4,0.0692L0.42,0.0688L0.45,0.0676L0.48,0.0657L0.5,0.0644L0.53,0.0614L0.55,0.0588L0.58,0.0543L0.6,0.0509L0.63,0.0451L0.65,0.041L0.68,0.0346L0.7,0.0302L0.73,0.0235L0.75,0.0192L0.77,0.015L0.8,0.0093L0.83,0.0048L0.85,0.0024L0.87,0.0013L0.89,0.0008L0.92,0.0016L0.94,0.0035L0.95,0.0049L0.96,0.0066L0.97,0.0085L0.98,0.0109L0.99,0.0137L1,0.0163"
    />
</svg>
