
<svg 
  class="airfoil-ncambre"
  fill="none"
  stroke="black" 
  stroke-width="1"
  style="overflow:visible"
  viewBox="0, -0.0694, 1, 0.11579999"
  xmlns="http://www.w3.org/2000/svg">
    <title>ONERA NACA CAMBRE AIRFOIL</title>
    <path 
      vector-effect="non-scaling-stroke"
      d="M1,-0.0012L0.9751,-0.0049L0.9631,-0.0067L0.9392,-0.0103L0.9152,-0.0138L0.8783,-0.0189L0.8544,-0.0222L0.8175,-0.0269L0.7686,-0.033L0.7326,-0.0373L0.6837,-0.0428L0.6468,-0.0467L0.6109,-0.0504L0.5739,-0.0538L0.538,-0.057L0.501,-0.0599L0.4511,-0.0634L0.4161,-0.0656L0.3671,-0.0678L0.3312,-0.0688L0.3122,-0.0692L0.2882,-0.0694L0.2572,-0.0692L0.2272,-0.0685L0.1961,-0.067L0.1781,-0.0658L0.1591,-0.0642L0.1411,-0.0622L0.1205,-0.0594L0.1009,-0.056L0.0863,-0.0528L0.0715,-0.0491L0.0605,-0.0458L0.0507,-0.0423L0.0408,-0.0382L0.0298,-0.0325L0.0199,-0.0263L0.0107,-0.0191L0.0057,-0.014L0,-0L0.0053,0.0108L0.0102,0.014L0.0192,0.0172L0.029,0.0196L0.0398,0.0217L0.0496,0.0234L0.0593,0.0249L0.0702,0.0268L0.0849,0.0285L0.0995,0.0304L0.1189,0.0326L0.1394,0.0348L0.1574,0.0365L0.1764,0.0382L0.1943,0.0399L0.2253,0.0423L0.2553,0.044L0.2862,0.0453L0.3102,0.0459L0.3292,0.0462L0.3652,0.0464L0.4142,0.0458L0.4492,0.0448L0.4993,0.043L0.5363,0.0414L0.5723,0.0394L0.6094,0.0372L0.6454,0.0347L0.6825,0.032L0.7315,0.0283L0.7676,0.0252L0.8167,0.0207L0.8537,0.0172L0.8778,0.0147L0.9148,0.011L0.9389,0.0083L0.9629,0.0055L0.9749,0.0041L1,0.0012"
    />
</svg>
