
<svg 
  class="airfoil-nl722362"
  fill="none"
  stroke="black" 
  stroke-width="1"
  style="overflow:visible"
  viewBox="0, -0.0552, 1, 0.0864"
  xmlns="http://www.w3.org/2000/svg">
    <title>NLR-7223-62 AIRFOIL</title>
    <path 
      vector-effect="non-scaling-stroke"
      d="M1,-0L0.9867,-0.0016L0.974,-0.0034L0.9406,-0.0082L0.9095,-0.0126L0.877,-0.0177L0.8518,-0.022L0.8262,-0.0261L0.7986,-0.0305L0.7697,-0.0351L0.7397,-0.0391L0.7109,-0.0419L0.6776,-0.0444L0.6625,-0.0454L0.6474,-0.0463L0.6296,-0.0474L0.6126,-0.0483L0.596,-0.0492L0.5809,-0.0499L0.5663,-0.0505L0.5475,-0.0513L0.5324,-0.0519L0.5135,-0.0525L0.4949,-0.0531L0.4798,-0.0535L0.4614,-0.0539L0.4463,-0.0542L0.4293,-0.0545L0.4123,-0.0548L0.3953,-0.055L0.3802,-0.0551L0.3651,-0.0551L0.3481,-0.0552L0.3342,-0.0551L0.3172,-0.055L0.3021,-0.0549L0.287,-0.0547L0.2718,-0.0544L0.2567,-0.054L0.2416,-0.0536L0.2274,-0.0532L0.216,-0.0527L0.2009,-0.0521L0.1872,-0.0515L0.174,-0.0507L0.1627,-0.05L0.1494,-0.0492L0.1362,-0.0481L0.1263,-0.0473L0.1187,-0.0466L0.1149,-0.0462L0.109,-0.0456L0.1052,-0.0452L0.1015,-0.0448L0.0996,-0.0445L0.0977,-0.0443L0.0958,-0.044L0.0946,-0.0438L0.0934,-0.0437L0.0922,-0.0435L0.0898,-0.0431L0.0862,-0.0424L0.0767,-0.0406L0.0673,-0.0384L0.0597,-0.0365L0.0522,-0.0344L0.045,-0.0321L0.0396,-0.0302L0.0273,-0.0251L0.0175,-0.0201L0.0098,-0.0151L0.0042,-0.0102L0.0012,-0.0062L0,-0L0.0005,0.0025L0.0012,0.0036L0.0026,0.0052L0.0045,0.0064L0.0073,0.0077L0.0099,0.0086L0.0133,0.0096L0.0175,0.0107L0.0218,0.0117L0.0277,0.0129L0.035,0.0141L0.0394,0.0148L0.0464,0.0157L0.0527,0.0165L0.0615,0.0175L0.0698,0.0184L0.0773,0.0191L0.0878,0.0201L0.0953,0.0207L0.1066,0.0216L0.1164,0.0223L0.1278,0.0231L0.1391,0.0239L0.1504,0.0246L0.1617,0.0252L0.1749,0.0259L0.1886,0.0266L0.2018,0.0271L0.215,0.0277L0.2282,0.0282L0.2414,0.0286L0.2566,0.0291L0.2717,0.0295L0.2868,0.0299L0.317,0.0304L0.349,0.0308L0.381,0.0311L0.4131,0.0312L0.4473,0.0311L0.4812,0.0308L0.5139,0.0303L0.5472,0.0296L0.5807,0.0286L0.6149,0.0275L0.6477,0.0264L0.6781,0.0251L0.7094,0.0237L0.7411,0.0224L0.7694,0.021L0.7994,0.0195L0.8251,0.0181L0.853,0.0165L0.8765,0.015L0.909,0.0125L0.9407,0.0088L0.9735,0.0035L0.9868,0.0014L1,-0"
    />
</svg>
