
<svg 
  class="airfoil-nl722343"
  fill="none"
  stroke="black" 
  stroke-width="1"
  style="overflow:visible"
  viewBox="0, -0.0544, 1, 0.0863"
  xmlns="http://www.w3.org/2000/svg">
    <title>NLR-7223-43 AIRFOIL</title>
    <path 
      vector-effect="non-scaling-stroke"
      d="M1,-0L0.9867,-0.0024L0.974,-0.0048L0.9406,-0.0104L0.9096,-0.0149L0.8771,-0.0195L0.8518,-0.0232L0.8262,-0.0267L0.7987,-0.0302L0.7698,-0.0338L0.7398,-0.0372L0.711,-0.0403L0.6777,-0.043L0.6626,-0.044L0.6475,-0.045L0.6297,-0.0461L0.6127,-0.0471L0.5961,-0.048L0.581,-0.0487L0.5665,-0.0494L0.5476,-0.0502L0.5325,-0.0508L0.5137,-0.0515L0.495,-0.0521L0.4799,-0.0525L0.4615,-0.053L0.4464,-0.0533L0.4294,-0.0537L0.4124,-0.0539L0.3954,-0.0542L0.3804,-0.0543L0.3652,-0.0544L0.3483,-0.0544L0.3343,-0.0544L0.3173,-0.0544L0.3022,-0.0542L0.2871,-0.0541L0.272,-0.0538L0.2569,-0.0535L0.2417,-0.0531L0.2275,-0.0527L0.2162,-0.0523L0.201,-0.0517L0.1873,-0.0511L0.1741,-0.0504L0.1628,-0.0497L0.1495,-0.0488L0.1363,-0.0479L0.1264,-0.047L0.1188,-0.0464L0.115,-0.046L0.1091,-0.0454L0.1053,-0.045L0.1015,-0.0446L0.0997,-0.0443L0.0978,-0.0441L0.0959,-0.0438L0.0947,-0.0436L0.0935,-0.0435L0.0923,-0.0433L0.0899,-0.0429L0.0863,-0.0422L0.0768,-0.0404L0.0674,-0.0383L0.0598,-0.0364L0.0523,-0.0342L0.045,-0.032L0.0396,-0.0301L0.0273,-0.0251L0.0175,-0.02L0.0098,-0.0151L0.0042,-0.0102L0.0013,-0.0062L0,-0L0.0005,0.0025L0.0012,0.0036L0.0026,0.0052L0.0045,0.0064L0.0073,0.0077L0.0099,0.0086L0.0133,0.0097L0.0175,0.0108L0.0218,0.0117L0.0277,0.0129L0.035,0.0142L0.0393,0.0148L0.0463,0.0158L0.0527,0.0166L0.0615,0.0177L0.0698,0.0185L0.0773,0.0193L0.0877,0.0203L0.0953,0.0209L0.1066,0.0218L0.1164,0.0226L0.1277,0.0234L0.139,0.0242L0.1503,0.0249L0.1617,0.0255L0.1749,0.0262L0.1886,0.0269L0.2018,0.0276L0.215,0.0281L0.2282,0.0286L0.2414,0.0291L0.2565,0.0296L0.2716,0.0301L0.2867,0.0304L0.3037,0.0308L0.3169,0.0311L0.332,0.0313L0.349,0.0316L0.3658,0.0317L0.3809,0.0318L0.396,0.0319L0.413,0.0319L0.4472,0.0317L0.4812,0.0312L0.5138,0.0306L0.5471,0.0297L0.5806,0.0283L0.6148,0.0258L0.6476,0.0218L0.678,0.0176L0.7093,0.0137L0.7409,0.0102L0.7693,0.0076L0.7992,0.0054L0.825,0.0039L0.8529,0.0026L0.8764,0.0019L0.9089,0.001L0.9406,0.0004L0.9735,0L0.9868,-0L1,-0"
    />
</svg>
