
<svg 
  class="airfoil-nlf0115"
  fill="none"
  stroke="black" 
  stroke-width="1"
  style="overflow:visible"
  viewBox="0, -0.0927, 1, 0.15"
  xmlns="http://www.w3.org/2000/svg">
    <title>NASA NLF(1)-0115</title>
    <path 
      vector-effect="non-scaling-stroke"
      d="M1,-0L0.9961,-0.0006L0.9851,-0.0028L0.9679,-0.007L0.9458,-0.0129L0.9193,-0.0198L0.8887,-0.0269L0.8538,-0.0341L0.8149,-0.0417L0.7729,-0.0496L0.7282,-0.0577L0.6816,-0.0658L0.6338,-0.0735L0.5854,-0.0806L0.5371,-0.0865L0.4891,-0.0905L0.441,-0.0924L0.3931,-0.0927L0.3458,-0.0917L0.2997,-0.0896L0.2554,-0.0864L0.2133,-0.0824L0.1742,-0.0775L0.1384,-0.0718L0.1064,-0.0652L0.0786,-0.0577L0.0549,-0.0493L0.0356,-0.0399L0.0205,-0.0299L0.0095,-0.0196L0.0027,-0.0094L0,-0.0001L0.0025,0.0071L0.0113,0.013L0.026,0.0186L0.0463,0.0238L0.0719,0.0289L0.1023,0.0338L0.137,0.0384L0.1755,0.0428L0.2172,0.0468L0.2617,0.0504L0.3083,0.0533L0.3566,0.0556L0.4058,0.057L0.4554,0.0573L0.5048,0.0564L0.5534,0.0537L0.6015,0.0484L0.6501,0.041L0.6991,0.033L0.7474,0.0253L0.7939,0.0185L0.8376,0.0128L0.8776,0.0083L0.913,0.005L0.9431,0.0027L0.9672,0.0013L0.985,0.0004L0.9961,0L1,-0"
    />
</svg>
