
<svg 
  class="airfoil-nlf0215f"
  fill="none"
  stroke="black" 
  stroke-width="1"
  style="overflow:visible"
  viewBox="0, -0.1143, 1, 0.1498"
  xmlns="http://www.w3.org/2000/svg">
    <title>NASA NLF(1)-0215F</title>
    <path 
      vector-effect="non-scaling-stroke"
      d="M1,-0L0.9966,-0.0013L0.9871,-0.0051L0.9729,-0.0108L0.9541,-0.0174L0.9304,-0.0243L0.9019,-0.0318L0.869,-0.0398L0.8322,-0.0484L0.7921,-0.0575L0.7491,-0.0667L0.7041,-0.076L0.6575,-0.0851L0.6101,-0.0937L0.5625,-0.1015L0.5152,-0.1078L0.4686,-0.1122L0.4225,-0.1143L0.377,-0.1143L0.3324,-0.1124L0.2889,-0.1089L0.2472,-0.1039L0.2076,-0.0976L0.1705,-0.0902L0.1364,-0.0817L0.1055,-0.0725L0.0782,-0.0625L0.0547,-0.052L0.0353,-0.0412L0.02,-0.0303L0.0091,-0.0195L0.0024,-0.0092L0,0.0001L0.0025,0.007L0.011,0.0121L0.0259,0.0166L0.0465,0.0205L0.0724,0.024L0.1032,0.027L0.1385,0.0295L0.1779,0.0317L0.2207,0.0333L0.2665,0.0346L0.3147,0.0353L0.3647,0.0355L0.4158,0.0352L0.4673,0.0342L0.5187,0.0322L0.5692,0.0292L0.6183,0.0244L0.6666,0.0166L0.7161,0.0071L0.7664,-0.0017L0.8156,-0.008L0.862,-0.0115L0.9036,-0.012L0.9386,-0.0099L0.9659,-0.0066L0.985,-0.0032L0.9963,-0.0009L1,-0"
    />
</svg>
