
<svg 
  class="airfoil-nlf1015"
  fill="none"
  stroke="black" 
  stroke-width="1"
  style="overflow:visible"
  viewBox="0.0001, -0.1195, 0.9999, 0.15349999"
  xmlns="http://www.w3.org/2000/svg">
    <title>NASA NLF(1)-1015</title>
    <path 
      vector-effect="non-scaling-stroke"
      d="M1,-0L0.9966,-0.0015L0.9871,-0.0058L0.973,-0.0125L0.9545,-0.0202L0.9312,-0.0287L0.9035,-0.0379L0.8718,-0.0479L0.8366,-0.0584L0.7985,-0.0692L0.7581,-0.0798L0.7159,-0.09L0.6724,-0.0993L0.628,-0.1073L0.583,-0.1134L0.5373,-0.1173L0.4909,-0.1192L0.4442,-0.1195L0.3977,-0.1182L0.352,-0.1154L0.3074,-0.1111L0.2645,-0.1056L0.2236,-0.0989L0.1853,-0.0911L0.1497,-0.0823L0.1174,-0.0727L0.0886,-0.0625L0.0634,-0.0518L0.0423,-0.0408L0.0252,-0.03L0.0124,-0.0194L0.004,-0.0096L0.0001,-0.0012L0.0021,0.0054L0.0105,0.0109L0.0246,0.0161L0.0439,0.0207L0.0683,0.0247L0.0975,0.0279L0.1312,0.0305L0.169,0.0323L0.2106,0.0335L0.2553,0.034L0.3027,0.0338L0.3522,0.0331L0.4032,0.0316L0.455,0.0294L0.507,0.0262L0.559,0.0215L0.6112,0.0155L0.6635,0.0089L0.7153,0.0026L0.7658,-0.0031L0.8141,-0.0076L0.8591,-0.0104L0.8999,-0.0113L0.9351,-0.0103L0.9636,-0.0077L0.9842,-0.0042L0.9962,-0.0011L1,-0"
    />
</svg>
