
<svg 
  class="airfoil-nlf415"
  fill="none"
  stroke="black" 
  stroke-width="1"
  style="overflow:visible"
  viewBox="0, -0.091, 1, 0.15259999"
  xmlns="http://www.w3.org/2000/svg">
    <title>NASA/DLR NLF(2)-0415</title>
    <path 
      vector-effect="non-scaling-stroke"
      d="M1,-0L0.9942,-0.0017L0.988,-0.0038L0.9781,-0.0074L0.9663,-0.0116L0.9541,-0.0157L0.94,-0.0201L0.9249,-0.0247L0.8955,-0.0335L0.8505,-0.0467L0.8191,-0.0558L0.7964,-0.0621L0.7802,-0.0664L0.7672,-0.0697L0.7542,-0.0728L0.7409,-0.0757L0.7276,-0.0783L0.7141,-0.0806L0.7012,-0.0825L0.6884,-0.084L0.6757,-0.0854L0.6616,-0.0866L0.6448,-0.0879L0.628,-0.0889L0.6091,-0.0898L0.5891,-0.0905L0.5678,-0.0909L0.5438,-0.091L0.5197,-0.0909L0.4954,-0.0904L0.471,-0.0897L0.4465,-0.0887L0.4204,-0.0873L0.3911,-0.0854L0.3622,-0.0832L0.3335,-0.0807L0.3055,-0.078L0.2779,-0.075L0.2511,-0.0718L0.2253,-0.0684L0.1999,-0.0648L0.1763,-0.0611L0.1546,-0.0575L0.1367,-0.0542L0.1194,-0.0509L0.1034,-0.0476L0.0889,-0.0443L0.0771,-0.0414L0.0653,-0.0382L0.0567,-0.0357L0.0482,-0.0329L0.0405,-0.0302L0.0344,-0.0279L0.0285,-0.0253L0.0233,-0.0229L0.0197,-0.021L0.0161,-0.0189L0.0127,-0.0166L0.0098,-0.0144L0.0072,-0.0122L0.0049,-0.0098L0.003,-0.0076L0.0021,-0.0063L0.0012,-0.0049L0.0006,-0.0035L0.0002,-0.0019L0,-0.0002L0.0002,0.0014L0.0007,0.0029L0.0015,0.0043L0.0025,0.0057L0.0039,0.0069L0.0054,0.008L0.007,0.0088L0.0087,0.0096L0.0104,0.0103L0.0165,0.0126L0.0227,0.0149L0.0292,0.0169L0.0358,0.0188L0.0425,0.0205L0.0546,0.0233L0.0696,0.0265L0.0843,0.0294L0.0991,0.0321L0.1192,0.0355L0.1401,0.0387L0.1625,0.042L0.1861,0.0451L0.2103,0.048L0.2359,0.0509L0.262,0.0535L0.2889,0.0558L0.3132,0.0576L0.3363,0.059L0.3574,0.0601L0.3775,0.0609L0.3968,0.0613L0.4145,0.0616L0.4322,0.0616L0.4475,0.0613L0.4615,0.0609L0.4755,0.0602L0.4896,0.0592L0.5036,0.0578L0.5177,0.0561L0.5317,0.0542L0.5478,0.0517L0.5639,0.0489L0.58,0.0459L0.6175,0.0388L0.6503,0.0326L0.6808,0.0271L0.706,0.0227L0.7312,0.0185L0.7556,0.0147L0.7801,0.0112L0.8032,0.0082L0.8264,0.0055L0.8477,0.0033L0.869,0.0014L0.8879,0L0.9069,-0.0011L0.9231,-0.0017L0.9393,-0.0021L0.9523,-0.0022L0.9653,-0.002L0.9767,-0.0017L0.9867,-0.0012L0.9937,-0.0007L1,-0"
    />
</svg>
