
<svg 
  class="airfoil-nlf414f"
  fill="none"
  stroke="black" 
  stroke-width="1"
  style="overflow:visible"
  viewBox="0, -0.0948, 1, 0.142"
  xmlns="http://www.w3.org/2000/svg">
    <title>NASA NLF(1)-0414F</title>
    <path 
      vector-effect="non-scaling-stroke"
      d="M1,-0.0002L0.9979,-0.0004L0.992,-0.0011L0.9823,-0.0023L0.9689,-0.0043L0.952,-0.007L0.9317,-0.0107L0.9082,-0.0155L0.8822,-0.0216L0.8539,-0.0291L0.8241,-0.038L0.7937,-0.0479L0.7633,-0.0581L0.7336,-0.0675L0.7038,-0.0751L0.6727,-0.0809L0.6403,-0.0854L0.6068,-0.089L0.5722,-0.0916L0.5371,-0.0935L0.5016,-0.0945L0.4659,-0.0948L0.4301,-0.0944L0.3945,-0.0933L0.3594,-0.0916L0.325,-0.0892L0.2913,-0.0863L0.2588,-0.0829L0.2275,-0.079L0.1976,-0.0746L0.1693,-0.0698L0.1427,-0.0648L0.1179,-0.0596L0.0951,-0.0542L0.0744,-0.0485L0.056,-0.0426L0.04,-0.0366L0.0265,-0.0305L0.0156,-0.0242L0.0075,-0.0178L0.0024,-0.0107L0.0002,-0.0033L0,-0L0.0002,0.0021L0.0023,0.0069L0.0074,0.0108L0.0159,0.0144L0.0279,0.018L0.043,0.0215L0.061,0.0248L0.0816,0.028L0.1049,0.0311L0.1306,0.0339L0.1585,0.0366L0.1884,0.039L0.2202,0.0411L0.2536,0.043L0.2883,0.0445L0.3242,0.0458L0.3609,0.0467L0.3984,0.0472L0.4363,0.0472L0.4745,0.0468L0.5127,0.046L0.5506,0.0448L0.588,0.0429L0.6245,0.0405L0.6599,0.0372L0.6941,0.0329L0.7272,0.0262L0.7621,0.018L0.7975,0.0117L0.8316,0.007L0.8636,0.0036L0.8928,0.0015L0.9191,0.0004L0.9417,-0L0.9607,-0.0002L0.976,-0.0002L0.9876,-0.0001L0.9955,0L1,0.0002"
    />
</svg>
