
<svg 
  class="airfoil-nlf416"
  fill="none"
  stroke="black" 
  stroke-width="1"
  style="overflow:visible"
  viewBox="0.0005, -0.1042, 0.9995, 0.1595"
  xmlns="http://www.w3.org/2000/svg">
    <title>NASA NLF(1)-0416</title>
    <path 
      vector-effect="non-scaling-stroke"
      d="M1,-0L0.9966,-0.001L0.9869,-0.004L0.972,-0.0086L0.9522,-0.014L0.9275,-0.0197L0.8978,-0.0259L0.8636,-0.0327L0.8253,-0.0398L0.7835,-0.0472L0.7387,-0.0549L0.6916,-0.0627L0.6426,-0.0705L0.5926,-0.078L0.542,-0.0852L0.4917,-0.0917L0.4423,-0.0973L0.3944,-0.1016L0.3484,-0.1041L0.3042,-0.1042L0.2619,-0.1025L0.2217,-0.0989L0.184,-0.0937L0.1493,-0.0871L0.1176,-0.079L0.0894,-0.0698L0.0647,-0.0596L0.0438,-0.0487L0.0269,-0.0373L0.0139,-0.0257L0.0051,-0.0145L0.0005,-0.004L0.0007,0.0044L0.0071,0.0115L0.0196,0.0188L0.0371,0.0259L0.0593,0.0325L0.0861,0.0385L0.1171,0.0436L0.152,0.0479L0.1905,0.0512L0.2322,0.0536L0.2766,0.0549L0.3233,0.0553L0.3717,0.0546L0.4213,0.0529L0.4715,0.0501L0.5217,0.0461L0.5712,0.0406L0.6202,0.0325L0.6701,0.0223L0.7211,0.0122L0.7716,0.0036L0.8201,-0.0028L0.8654,-0.0067L0.9058,-0.0079L0.9398,-0.007L0.9664,-0.0048L0.9852,-0.0024L0.9963,-0.0007L1,-0"
    />
</svg>
