
<svg 
  class="airfoil-nlr1t"
  fill="none"
  stroke="black" 
  stroke-width="1"
  style="overflow:visible"
  viewBox="0, -0.0556, 1, 0.0871"
  xmlns="http://www.w3.org/2000/svg">
    <title>NLR-1T AIRFOIL</title>
    <path 
      vector-effect="non-scaling-stroke"
      d="M1,-0.001L0.962,-0.0065L0.9359,-0.0102L0.9085,-0.0142L0.8785,-0.019L0.8406,-0.0253L0.8026,-0.0314L0.7695,-0.0364L0.739,-0.0402L0.7108,-0.0429L0.6773,-0.0452L0.6373,-0.0477L0.596,-0.0499L0.5538,-0.0518L0.5116,-0.0532L0.4685,-0.0544L0.4253,-0.0552L0.3827,-0.0556L0.3406,-0.0556L0.2998,-0.0553L0.2605,-0.0546L0.2231,-0.0534L0.1877,-0.0519L0.1541,-0.0499L0.1234,-0.0474L0.0984,-0.0447L0.0775,-0.041L0.0567,-0.0359L0.038,-0.0297L0.0218,-0.023L0.0097,-0.0152L0.0026,-0.007L0,-0L0.0026,0.0051L0.0097,0.0087L0.0218,0.0118L0.038,0.0147L0.0567,0.0171L0.0775,0.0193L0.0984,0.0211L0.1234,0.023L0.1541,0.0249L0.1877,0.0267L0.2231,0.0282L0.2605,0.0294L0.2998,0.0304L0.3406,0.031L0.3827,0.0314L0.4253,0.0315L0.4685,0.0313L0.5116,0.0308L0.5538,0.0299L0.596,0.0287L0.6373,0.0273L0.6773,0.0258L0.7108,0.0243L0.739,0.0231L0.7695,0.0216L0.8026,0.02L0.8406,0.0179L0.8785,0.0157L0.9085,0.0136L0.9359,0.0109L0.962,0.0071L1,0.001"
    />
</svg>
