
<svg 
  class="airfoil-nlr7301"
  fill="none"
  stroke="black" 
  stroke-width="1"
  style="overflow:visible"
  viewBox="0, -0.0876, 1, 0.1652"
  xmlns="http://www.w3.org/2000/svg">
    <title>NLR-7301 AIRFOIL</title>
    <path 
      vector-effect="non-scaling-stroke"
      d="M1,-0.0005L0.99,-0.0026L0.975,-0.0058L0.95,-0.0113L0.925,-0.017L0.9,-0.0227L0.85,-0.0342L0.8,-0.0452L0.75,-0.0555L0.7,-0.0646L0.65,-0.0721L0.6,-0.0779L0.55,-0.0821L0.5,-0.085L0.45,-0.0868L0.4,-0.0876L0.35,-0.0875L0.3,-0.0865L0.25,-0.0844L0.2,-0.0812L0.15,-0.0765L0.125,-0.0735L0.1,-0.0698L0.08,-0.0664L0.065,-0.0632L0.05,-0.0592L0.035,-0.0537L0.025,-0.0487L0.02,-0.0451L0.016,-0.0414L0.0125,-0.0373L0.01,-0.0338L0.008,-0.0304L0.0065,-0.0276L0.005,-0.0242L0.0035,-0.0203L0.002,-0.0152L0.001,-0.0105L0.0005,-0.0073L0,-0L0.0005,0.0075L0.001,0.0102L0.002,0.0137L0.0035,0.0173L0.005,0.0202L0.0065,0.0225L0.008,0.0246L0.01,0.0269L0.0125,0.0293L0.016,0.0322L0.02,0.035L0.025,0.0379L0.035,0.0426L0.05,0.0481L0.065,0.0523L0.08,0.0558L0.1,0.0596L0.125,0.0636L0.15,0.0669L0.2,0.0719L0.25,0.0753L0.3,0.0771L0.35,0.0776L0.4,0.0767L0.45,0.0741L0.5,0.0693L0.55,0.0624L0.6,0.0539L0.65,0.044L0.7,0.0332L0.75,0.0223L0.8,0.0122L0.85,0.0041L0.9,-0.0011L0.925,-0.0023L0.95,-0.0025L0.975,-0.0015L0.99,-0.0004L1,0.0005"
    />
</svg>
