
<svg 
  class="airfoil-nn7mk20"
  fill="none"
  stroke="black" 
  stroke-width="1"
  style="overflow:visible"
  viewBox="0, -0.1135, 1, 0.169"
  xmlns="http://www.w3.org/2000/svg">
    <title>NN7 MK20</title>
    <path 
      vector-effect="non-scaling-stroke"
      d="M1,-0L0.9989,-0.0003L0.9957,-0.0012L0.9904,-0.0026L0.983,-0.0046L0.9735,-0.007L0.9619,-0.0099L0.9484,-0.0132L0.933,-0.0169L0.9157,-0.0211L0.8967,-0.0257L0.8759,-0.0309L0.8536,-0.0365L0.8297,-0.0424L0.8044,-0.0485L0.7778,-0.0549L0.75,-0.0616L0.7211,-0.0685L0.6913,-0.0753L0.6607,-0.082L0.6294,-0.0883L0.5975,-0.0943L0.5653,-0.0996L0.5327,-0.1042L0.5,-0.1079L0.4673,-0.1107L0.4347,-0.1125L0.4024,-0.1134L0.3706,-0.1135L0.3393,-0.1126L0.3087,-0.1108L0.2789,-0.1081L0.25,-0.1046L0.2222,-0.1003L0.1956,-0.0955L0.1703,-0.0901L0.1464,-0.0842L0.1241,-0.0778L0.1033,-0.071L0.0843,-0.0639L0.067,-0.0564L0.0516,-0.0489L0.0381,-0.0413L0.0265,-0.0337L0.017,-0.026L0.0096,-0.0183L0.0043,-0.011L0.0011,-0.0049L0,-0L0.0011,0.004L0.0043,0.0079L0.0096,0.012L0.017,0.0159L0.0265,0.0198L0.0381,0.0237L0.0516,0.0275L0.067,0.0312L0.0843,0.0347L0.1033,0.0379L0.1241,0.0411L0.1464,0.0443L0.1703,0.0472L0.1956,0.0496L0.2222,0.0515L0.25,0.0531L0.2789,0.0544L0.3087,0.0552L0.3393,0.0555L0.3706,0.0551L0.4024,0.0543L0.4347,0.0529L0.4673,0.0508L0.5,0.0479L0.5327,0.0439L0.5653,0.0391L0.5975,0.0336L0.6294,0.0277L0.6607,0.0216L0.6913,0.0156L0.7211,0.01L0.75,0.0052L0.7778,0.0014L0.8044,-0.0011L0.8297,-0.0026L0.8536,-0.0034L0.8759,-0.0036L0.8967,-0.0033L0.9157,-0.0028L0.933,-0.0023L0.9484,-0.0019L0.9619,-0.0015L0.9735,-0.0011L0.983,-0.0007L0.9904,-0.0004L0.9957,-0.0002L0.9989,-0L1,-0"
    />
</svg>
