
<svg 
  class="airfoil-npl9615"
  fill="none"
  stroke="black" 
  stroke-width="1"
  style="overflow:visible"
  viewBox="0, -0.0657, 1, 0.1134"
  xmlns="http://www.w3.org/2000/svg">
    <title>NPL 9615 AIRFOIL</title>
    <path 
      vector-effect="non-scaling-stroke"
      d="M1,-0.0001L0.9766,-0.0048L0.953,-0.0082L0.9061,-0.0149L0.8591,-0.0212L0.8181,-0.0272L0.765,-0.0329L0.7181,-0.0384L0.671,-0.0434L0.6241,-0.0481L0.577,-0.0524L0.53,-0.0562L0.4829,-0.0596L0.436,-0.0623L0.4124,-0.0634L0.3651,-0.0651L0.3418,-0.0655L0.3184,-0.0657L0.2842,-0.0654L0.2654,-0.065L0.2518,-0.0645L0.2379,-0.0638L0.2244,-0.0632L0.2108,-0.0624L0.1982,-0.0615L0.1863,-0.0606L0.1751,-0.0597L0.1646,-0.0587L0.1548,-0.0576L0.146,-0.0566L0.1376,-0.0556L0.13,-0.0546L0.1231,-0.0536L0.1169,-0.0527L0.1115,-0.0518L0.1064,-0.051L0.1017,-0.0501L0.0972,-0.0493L0.0931,-0.0485L0.0892,-0.0477L0.0856,-0.0473L0.0822,-0.0462L0.0789,-0.0456L0.0729,-0.044L0.0674,-0.0425L0.0624,-0.0411L0.0578,-0.0397L0.0535,-0.0384L0.0496,-0.0371L0.0426,-0.0345L0.0365,-0.032L0.0311,-0.0296L0.0263,-0.0272L0.0221,-0.025L0.0176,-0.0224L0.0139,-0.02L0.0088,-0.0162L0.006,-0.0136L0.0046,-0.012L0,-0L0.0002,0.0023L0.0007,0.0045L0.0018,0.0072L0.0032,0.0094L0.0054,0.0118L0.0087,0.0138L0.0128,0.0166L0.0181,0.019L0.0233,0.0208L0.0287,0.0221L0.035,0.0233L0.043,0.0247L0.0495,0.0257L0.0586,0.027L0.0719,0.0288L0.0899,0.031L0.1001,0.0322L0.1105,0.0333L0.1313,0.0355L0.1522,0.0375L0.173,0.0394L0.1939,0.041L0.2147,0.0425L0.2356,0.0438L0.2565,0.0449L0.2774,0.0458L0.2984,0.0466L0.3193,0.0471L0.3403,0.0475L0.3635,0.0477L0.4109,0.0474L0.4345,0.0469L0.4815,0.0454L0.5286,0.0434L0.5757,0.0408L0.6229,0.0379L0.6699,0.0344L0.7172,0.0306L0.7642,0.0265L0.8174,0.0222L0.8586,0.0174L0.9057,0.0123L0.9528,0.007L0.9764,0.0042L1,0.0001"
    />
</svg>
