
<svg 
  class="airfoil-npl9626"
  fill="none"
  stroke="black" 
  stroke-width="1"
  style="overflow:visible"
  viewBox="0, -0.0676, 1, 0.1207"
  xmlns="http://www.w3.org/2000/svg">
    <title>NPL 9626 AIRFOIL</title>
    <path 
      vector-effect="non-scaling-stroke"
      d="M1,-0.0013L0.9976,-0.0016L0.9904,-0.0027L0.9785,-0.0045L0.962,-0.0069L0.9411,-0.0099L0.9159,-0.0134L0.8867,-0.0174L0.8538,-0.0217L0.8175,-0.0263L0.7781,-0.0311L0.7361,-0.036L0.6918,-0.0409L0.6456,-0.0457L0.5981,-0.0503L0.5496,-0.0546L0.5006,-0.0584L0.4517,-0.0618L0.4032,-0.0645L0.3556,-0.0665L0.3094,-0.0676L0.265,-0.067L0.2229,-0.065L0.1835,-0.0617L0.1471,-0.0571L0.1141,-0.0518L0.0848,-0.0458L0.0595,-0.0395L0.0384,-0.0329L0.0218,-0.0265L0.0153,-0.0229L0.0098,-0.0191L0.0082,-0.0176L0.0067,-0.0161L0.0052,-0.0145L0.0036,-0.0126L0.0025,-0.0104L0.0017,-0.0086L0.0011,-0.0068L0.0006,-0.0049L0.0002,-0.0031L0,-0L0.0002,0.0024L0.0005,0.0038L0.0009,0.0054L0.0015,0.0067L0.0023,0.0081L0.0034,0.0095L0.0049,0.011L0.0064,0.0124L0.0078,0.0137L0.0094,0.0147L0.0148,0.0179L0.0213,0.0208L0.0378,0.0264L0.0587,0.0316L0.0839,0.0366L0.113,0.0413L0.1459,0.0455L0.1823,0.0489L0.2216,0.0512L0.2637,0.0526L0.3081,0.0531L0.3543,0.0526L0.4019,0.0514L0.4504,0.0497L0.4995,0.0474L0.5485,0.0446L0.5971,0.0414L0.6447,0.0379L0.691,0.0341L0.7354,0.0302L0.7775,0.0262L0.817,0.0223L0.8533,0.0185L0.8863,0.0149L0.9156,0.0116L0.9409,0.0086L0.9619,0.0061L0.9784,0.004L0.9904,0.0025L0.9976,0.0016L1,0.0013"
    />
</svg>
