
<svg 
  class="airfoil-npl9510"
  fill="none"
  stroke="black" 
  stroke-width="1"
  style="overflow:visible"
  viewBox="0, -0.0491, 1, 0.114199996"
  xmlns="http://www.w3.org/2000/svg">
    <title>NPL 9510 AIRFOIL</title>
    <path 
      vector-effect="non-scaling-stroke"
      d="M1,-0.0024L0.98,-0.0065L0.96,-0.0104L0.94,-0.0142L0.92,-0.0178L0.9,-0.0212L0.8801,-0.0243L0.8601,-0.0272L0.8401,-0.03L0.8201,-0.0326L0.8001,-0.0349L0.7801,-0.0371L0.7601,-0.0391L0.7401,-0.0408L0.7201,-0.0424L0.7001,-0.0437L0.6801,-0.0449L0.6601,-0.0458L0.6401,-0.0466L0.6201,-0.0473L0.6001,-0.0478L0.5801,-0.0483L0.5601,-0.0486L0.5401,-0.0488L0.5201,-0.049L0.5001,-0.0491L0.4801,-0.0491L0.4601,-0.049L0.4401,-0.0488L0.4201,-0.0486L0.4001,-0.0482L0.3801,-0.0477L0.3601,-0.0472L0.3401,-0.0466L0.3201,-0.0459L0.3001,-0.0452L0.2801,-0.0444L0.2601,-0.0435L0.2401,-0.0426L0.2201,-0.0415L0.2001,-0.0404L0.1801,-0.0393L0.1601,-0.038L0.1401,-0.0366L0.1201,-0.035L0.1001,-0.0332L0.0901,-0.0322L0.0801,-0.0311L0.0701,-0.0299L0.0601,-0.0286L0.0501,-0.0271L0.0401,-0.0255L0.0301,-0.0235L0.0251,-0.0223L0.0201,-0.021L0.015,-0.0192L0.01,-0.0167L0.005,-0.0128L0.0025,-0.0094L0.0016,-0.0076L0.0004,-0.0039L0,-0L0.0004,0.004L0.0016,0.0079L0.0025,0.0097L0.005,0.0135L0.01,0.0185L0.0149,0.022L0.0199,0.025L0.0249,0.0276L0.0299,0.0299L0.0399,0.034L0.0499,0.0375L0.0599,0.0406L0.0699,0.0433L0.0799,0.0456L0.0899,0.0477L0.0999,0.0496L0.1199,0.0529L0.1599,0.058L0.1998,0.0616L0.2398,0.064L0.2798,0.0651L0.3198,0.0649L0.3605,0.0633L0.3998,0.0606L0.4399,0.0566L0.4799,0.0515L0.5199,0.0455L0.5599,0.039L0.5999,0.0321L0.6399,0.0253L0.6799,0.0187L0.7199,0.0124L0.76,0.0069L0.8,0.0024L0.84,-0.0009L0.88,-0.0026L0.92,-0.0026L0.96,-0.0009L1,0.0024"
    />
</svg>
