
<svg 
  class="airfoil-npl9627"
  fill="none"
  stroke="black" 
  stroke-width="1"
  style="overflow:visible"
  viewBox="0, -0.0695, 1, 0.121700004"
  xmlns="http://www.w3.org/2000/svg">
    <title>NPL 9627 AIRFOIL</title>
    <path 
      vector-effect="non-scaling-stroke"
      d="M1,-0.0013L0.9976,-0.0016L0.9904,-0.0028L0.9785,-0.0046L0.9621,-0.0071L0.9411,-0.0102L0.916,-0.0138L0.8868,-0.018L0.8539,-0.0225L0.8176,-0.0272L0.7783,-0.0322L0.7363,-0.0373L0.692,-0.0424L0.6459,-0.0474L0.5984,-0.0523L0.5499,-0.0568L0.501,-0.0609L0.452,-0.0645L0.4035,-0.0672L0.356,-0.069L0.3098,-0.0695L0.2654,-0.0691L0.2233,-0.0675L0.1838,-0.0648L0.1474,-0.0609L0.1144,-0.056L0.0851,-0.0501L0.0597,-0.0438L0.0387,-0.0372L0.022,-0.029L0.0154,-0.0247L0.0099,-0.02L0.0083,-0.0183L0.0068,-0.0165L0.0052,-0.0146L0.0037,-0.0121L0.0026,-0.0101L0.0017,-0.0083L0.0011,-0.0066L0.0006,-0.0047L0.0002,-0.003L0,-0L0.0002,0.0024L0.0004,0.0038L0.0009,0.0054L0.0015,0.0067L0.0023,0.0082L0.0033,0.0095L0.0048,0.011L0.0063,0.0125L0.0078,0.0137L0.0094,0.0147L0.0147,0.018L0.0212,0.0209L0.0376,0.0266L0.0585,0.0326L0.0837,0.0381L0.1128,0.0429L0.1457,0.0467L0.182,0.0495L0.2214,0.0514L0.2635,0.0522L0.3078,0.0521L0.354,0.051L0.4017,0.0492L0.4502,0.0472L0.4993,0.0449L0.5483,0.0424L0.5969,0.0394L0.6446,0.0361L0.6908,0.0325L0.7352,0.0288L0.7774,0.0251L0.8169,0.0214L0.8533,0.0178L0.8863,0.0143L0.9156,0.0112L0.9408,0.0083L0.9618,0.0059L0.9784,0.0039L0.9904,0.0024L0.9976,0.0016L1,0.0013"
    />
</svg>
