
<svg 
  class="airfoil-nplx"
  fill="none"
  stroke="black" 
  stroke-width="1"
  style="overflow:visible"
  viewBox="0, -0.0492, 1, 0.1072"
  xmlns="http://www.w3.org/2000/svg">
    <title>NPL AIRFOIL FROM ARC CP 1372</title>
    <path 
      vector-effect="non-scaling-stroke"
      d="M1,-0L0.9685,-0.0062L0.937,-0.0111L0.9119,-0.0146L0.9,-0.0162L0.8871,-0.0179L0.8543,-0.0221L0.8181,-0.0262L0.7789,-0.0305L0.737,-0.0349L0.6929,-0.0391L0.6469,-0.0428L0.5996,-0.0455L0.5512,-0.0474L0.5025,-0.0487L0.4537,-0.0492L0.4054,-0.0491L0.3581,-0.0487L0.3121,-0.0476L0.268,-0.0462L0.2261,-0.0442L0.1869,-0.0414L0.1507,-0.0379L0.1179,-0.034L0.0888,-0.0298L0.0637,-0.0257L0.0428,-0.0215L0.0264,-0.0169L0.0145,-0.012L0.0074,-0.0068L0.005,-0.0041L0.003,-0.0012L0.001,0.0043L0,0.0102L0.001,0.0151L0.003,0.0184L0.005,0.0201L0.0074,0.0219L0.0145,0.0258L0.0264,0.03L0.0428,0.0339L0.0637,0.0376L0.0888,0.0408L0.1179,0.0441L0.1507,0.0471L0.1869,0.0499L0.2261,0.0529L0.268,0.0557L0.3121,0.0573L0.3581,0.058L0.4054,0.057L0.4537,0.054L0.5025,0.0493L0.5512,0.0436L0.5996,0.0373L0.6469,0.0309L0.6929,0.0246L0.737,0.0187L0.7789,0.0137L0.8181,0.0093L0.8543,0.0059L0.8871,0.0033L0.9,0.0025L0.9119,0.0016L0.937,0.0004L0.9685,-0.0003L1,-0"
    />
</svg>
