
<svg 
  class="airfoil-oa206"
  fill="none"
  stroke="black" 
  stroke-width="1"
  style="overflow:visible"
  viewBox="0, -0.0379, 1, 0.0615"
  xmlns="http://www.w3.org/2000/svg">
    <title>ONERA OA206 AIRFOIL</title>
    <path 
      vector-effect="non-scaling-stroke"
      d="M1,-0.0018L0.9778,-0.0014L0.9511,-0.0021L0.9387,-0.0028L0.9191,-0.0042L0.8996,-0.0058L0.88,-0.0076L0.8702,-0.0085L0.8507,-0.0103L0.8311,-0.012L0.8067,-0.0141L0.7822,-0.0161L0.7578,-0.018L0.7334,-0.0198L0.7089,-0.0216L0.6845,-0.0232L0.66,-0.0248L0.6356,-0.0263L0.6111,-0.0277L0.5867,-0.0291L0.5622,-0.0303L0.5378,-0.0314L0.5134,-0.0325L0.4889,-0.0334L0.4645,-0.0342L0.44,-0.0349L0.4156,-0.0355L0.3911,-0.036L0.3667,-0.0365L0.3422,-0.0369L0.3178,-0.0373L0.2934,-0.0376L0.2689,-0.0378L0.2445,-0.0379L0.22,-0.0377L0.1956,-0.0371L0.1711,-0.0363L0.1467,-0.035L0.1222,-0.0333L0.0929,-0.0304L0.0831,-0.0291L0.0733,-0.0277L0.0636,-0.0261L0.0538,-0.0242L0.045,-0.0222L0.0391,-0.0207L0.0352,-0.0196L0.0293,-0.0179L0.0225,-0.0156L0.0156,-0.0129L0.0098,-0.0101L0.007,-0.0086L0.0049,-0.0071L0.0018,-0.0043L0.0008,-0.0029L0.0003,-0.0018L0,-0L0.0003,0.0018L0.0008,0.0029L0.0018,0.0043L0.0049,0.0067L0.007,0.0076L0.0098,0.0086L0.0156,0.0099L0.0225,0.011L0.0293,0.0118L0.0352,0.0124L0.0391,0.0127L0.045,0.0132L0.0538,0.0138L0.0636,0.0144L0.0733,0.015L0.0831,0.0155L0.0929,0.0161L0.1222,0.0175L0.1467,0.0185L0.1711,0.0195L0.1956,0.0202L0.22,0.0209L0.2445,0.0215L0.2689,0.022L0.2933,0.0224L0.3178,0.0228L0.3422,0.023L0.3667,0.0233L0.3911,0.0234L0.4156,0.0236L0.44,0.0236L0.4645,0.0236L0.4889,0.0235L0.5134,0.0233L0.5378,0.023L0.5622,0.0226L0.5867,0.0221L0.6111,0.0215L0.6356,0.0209L0.66,0.0201L0.6845,0.0192L0.7089,0.0182L0.7334,0.0171L0.7578,0.0159L0.7822,0.0146L0.8067,0.0131L0.8311,0.0115L0.8507,0.01L0.8702,0.0085L0.88,0.0077L0.8996,0.0061L0.9191,0.0045L0.9387,0.0031L0.9511,0.0024L0.9778,0.0015L1,0.0016"
    />
</svg>
