
<svg 
  class="airfoil-oa209"
  fill="none"
  stroke="black" 
  stroke-width="1"
  style="overflow:visible"
  viewBox="0, -0.0591, 1, 0.0925"
  xmlns="http://www.w3.org/2000/svg">
    <title>ONERA OA209 AIRFOIL</title>
    <path 
      vector-effect="non-scaling-stroke"
      d="M1,-0.0025L0.9778,-0.002L0.9511,-0.0036L0.9387,-0.0049L0.9191,-0.0075L0.8996,-0.0104L0.88,-0.0134L0.8702,-0.0148L0.8507,-0.0177L0.8311,-0.0204L0.8067,-0.0237L0.7822,-0.0267L0.7578,-0.0296L0.7333,-0.0324L0.7089,-0.035L0.6845,-0.0375L0.66,-0.0399L0.6356,-0.0421L0.6111,-0.0441L0.5867,-0.046L0.5622,-0.0478L0.5378,-0.0494L0.5133,-0.0509L0.4889,-0.0523L0.4644,-0.0534L0.44,-0.0545L0.4156,-0.0553L0.3911,-0.0561L0.3667,-0.0568L0.3422,-0.0574L0.3178,-0.058L0.2933,-0.0585L0.2689,-0.0589L0.2444,-0.0591L0.22,-0.0589L0.1955,-0.0584L0.1711,-0.0574L0.1467,-0.0557L0.1222,-0.0532L0.0929,-0.0488L0.0831,-0.0469L0.0733,-0.0447L0.0635,-0.0421L0.0538,-0.0392L0.045,-0.0361L0.0391,-0.0338L0.0352,-0.0322L0.0293,-0.0294L0.0225,-0.0258L0.0156,-0.0216L0.0098,-0.0172L0.007,-0.0146L0.0049,-0.0122L0.0018,-0.0072L0.0008,-0.0047L0.0003,-0.0029L0,-0L0.0003,0.0026L0.0008,0.0041L0.0018,0.0058L0.0049,0.0086L0.007,0.0098L0.0098,0.0109L0.0156,0.0126L0.0225,0.014L0.0293,0.0151L0.0352,0.0159L0.0391,0.0163L0.045,0.017L0.0538,0.0178L0.0636,0.0186L0.0733,0.0194L0.0831,0.0202L0.0929,0.0209L0.1222,0.023L0.1467,0.0247L0.1711,0.0263L0.1956,0.0277L0.22,0.029L0.2445,0.0301L0.2689,0.0309L0.2933,0.0316L0.3178,0.0321L0.3422,0.0325L0.3667,0.0328L0.3911,0.0331L0.4156,0.0333L0.44,0.0334L0.4645,0.0334L0.4889,0.0332L0.5134,0.0328L0.5378,0.0323L0.5622,0.0316L0.5867,0.0308L0.6111,0.0299L0.6356,0.0288L0.66,0.0276L0.6845,0.0262L0.7089,0.0247L0.7334,0.023L0.7578,0.0212L0.7822,0.0193L0.8067,0.0172L0.8311,0.0149L0.8507,0.0129L0.8702,0.0108L0.88,0.0097L0.8996,0.0075L0.9191,0.0056L0.9387,0.0039L0.9511,0.0032L0.9778,0.0024L1,0.0025"
    />
</svg>
