
<svg 
  class="airfoil-oa212"
  fill="none"
  stroke="black" 
  stroke-width="1"
  style="overflow:visible"
  viewBox="0, -0.083, 1, 0.1204"
  xmlns="http://www.w3.org/2000/svg">
    <title>ONERA OA212 AIRFOIL</title>
    <path 
      vector-effect="non-scaling-stroke"
      d="M1,-0.0033L0.9778,-0.0018L0.9511,-0.0027L0.9387,-0.004L0.9191,-0.0068L0.8996,-0.0104L0.88,-0.0143L0.8703,-0.0164L0.8507,-0.0205L0.8311,-0.0247L0.8067,-0.0297L0.7823,-0.0345L0.7578,-0.0392L0.7334,-0.0438L0.7089,-0.0481L0.6845,-0.0523L0.66,-0.0562L0.6356,-0.0599L0.6111,-0.0634L0.5867,-0.0666L0.5623,-0.0695L0.5378,-0.0721L0.5134,-0.0745L0.4889,-0.0765L0.4645,-0.0782L0.44,-0.0797L0.4156,-0.0808L0.3911,-0.0817L0.3667,-0.0823L0.3423,-0.0828L0.3178,-0.083L0.2934,-0.0829L0.2689,-0.0825L0.2445,-0.0816L0.22,-0.0801L0.1956,-0.078L0.1711,-0.0751L0.1467,-0.0712L0.1222,-0.0662L0.0929,-0.0586L0.0831,-0.0555L0.0734,-0.0522L0.0636,-0.0486L0.0538,-0.0447L0.045,-0.0408L0.0391,-0.0379L0.0352,-0.0359L0.0293,-0.0327L0.0225,-0.0285L0.0157,-0.0238L0.0098,-0.0189L0.007,-0.0161L0.0049,-0.0136L0.0018,-0.0084L0.0008,-0.0057L0.0003,-0.0035L0,-0L0.0003,0.0036L0.0008,0.006L0.0018,0.0088L0.0049,0.014L0.007,0.0162L0.0098,0.0184L0.0156,0.0218L0.0225,0.0246L0.0293,0.0266L0.0352,0.0281L0.0391,0.0289L0.045,0.0299L0.0538,0.0312L0.0636,0.0323L0.0733,0.0331L0.0831,0.0338L0.0929,0.0343L0.1222,0.0353L0.1467,0.0359L0.1711,0.0363L0.1956,0.0367L0.22,0.0369L0.2444,0.0371L0.2689,0.0372L0.2933,0.0372L0.3178,0.0371L0.3422,0.0371L0.3667,0.0372L0.3911,0.0372L0.4156,0.0373L0.44,0.0374L0.4645,0.0373L0.4889,0.0372L0.5133,0.037L0.5378,0.0367L0.5622,0.0363L0.5867,0.0358L0.6111,0.0352L0.6356,0.0344L0.66,0.0336L0.6845,0.0326L0.7089,0.0314L0.7334,0.03L0.7578,0.0285L0.7822,0.0267L0.8067,0.0247L0.8311,0.0222L0.8507,0.02L0.8702,0.0175L0.88,0.0161L0.8996,0.0133L0.9191,0.0105L0.9387,0.0079L0.9511,0.0064L0.9778,0.0041L1,0.0034"
    />
</svg>
