
<svg 
  class="airfoil-oa213"
  fill="none"
  stroke="black" 
  stroke-width="1"
  style="overflow:visible"
  viewBox="0, -0.0957, 1, 0.1268"
  xmlns="http://www.w3.org/2000/svg">
    <title>ONERA OA213 AIRFOIL</title>
    <path 
      vector-effect="non-scaling-stroke"
      d="M1,-0.0021L0.99,-0.0012L0.98,-0.0007L0.96,-0.0009L0.94,-0.0024L0.92,-0.0049L0.9,-0.0082L0.8899,-0.0101L0.8699,-0.0142L0.8499,-0.0186L0.8249,-0.0243L0.7998,-0.0301L0.7748,-0.0359L0.7498,-0.0416L0.7248,-0.0472L0.6997,-0.0524L0.6747,-0.0574L0.6497,-0.0621L0.6247,-0.0665L0.5996,-0.0707L0.5746,-0.0745L0.5496,-0.078L0.5246,-0.0813L0.4996,-0.0843L0.4746,-0.0869L0.4496,-0.0893L0.4245,-0.0912L0.3995,-0.0929L0.3745,-0.0941L0.3495,-0.095L0.3245,-0.0955L0.2995,-0.0957L0.2745,-0.0955L0.2495,-0.095L0.2245,-0.0939L0.1995,-0.0924L0.1745,-0.0902L0.1496,-0.0871L0.1246,-0.0828L0.0946,-0.0754L0.0846,-0.0721L0.0747,-0.0682L0.0647,-0.0637L0.0547,-0.0583L0.0457,-0.0525L0.0398,-0.0482L0.0358,-0.0451L0.0298,-0.0401L0.0228,-0.0339L0.0159,-0.0272L0.0099,-0.0208L0.0074,-0.0178L0.0049,-0.0144L0.0018,-0.0083L0.0008,-0.0053L0.0003,-0.0032L0,-0L0.0003,0.0027L0.0008,0.0041L0.0018,0.0057L0.005,0.0085L0.0075,0.0099L0.0101,0.011L0.0161,0.0131L0.0231,0.0149L0.0301,0.0163L0.0361,0.0173L0.0401,0.0179L0.0461,0.0187L0.0551,0.0197L0.0651,0.0206L0.0751,0.0214L0.0851,0.0221L0.0951,0.0227L0.1251,0.0243L0.1501,0.0254L0.1751,0.0263L0.2001,0.0272L0.2251,0.0279L0.2501,0.0286L0.2751,0.0292L0.3001,0.0297L0.3251,0.0301L0.3501,0.0305L0.3752,0.0308L0.4002,0.0309L0.4252,0.0311L0.4502,0.0311L0.4752,0.0311L0.5002,0.0311L0.5252,0.031L0.5501,0.0307L0.5751,0.0304L0.6001,0.0299L0.6251,0.0292L0.6501,0.0283L0.6751,0.0272L0.7001,0.0258L0.7251,0.0243L0.7501,0.0225L0.7751,0.0206L0.8001,0.0185L0.8251,0.0163L0.8501,0.014L0.8701,0.0122L0.89,0.0103L0.9,0.0094L0.92,0.0077L0.94,0.006L0.96,0.0045L0.98,0.0032L0.99,0.0026L1,0.0021"
    />
</svg>
