
<svg 
  class="airfoil-oaf095"
  fill="none"
  stroke="black" 
  stroke-width="1"
  style="overflow:visible"
  viewBox="0, -0.0775, 1, 0.1079"
  xmlns="http://www.w3.org/2000/svg">
    <title>OAF095 AIRFOIL</title>
    <path 
      vector-effect="non-scaling-stroke"
      d="M1,-0.0002L0.999,-0.0003L0.9961,-0.0008L0.9911,-0.0015L0.9843,-0.0026L0.9755,-0.004L0.9649,-0.0059L0.9524,-0.0081L0.9382,-0.0107L0.9222,-0.0137L0.9045,-0.017L0.8853,-0.0207L0.8645,-0.0247L0.8423,-0.0288L0.8187,-0.0331L0.7939,-0.0375L0.7679,-0.0419L0.7409,-0.0463L0.7129,-0.0506L0.6841,-0.0547L0.6545,-0.0587L0.6243,-0.0624L0.5937,-0.0658L0.5627,-0.0689L0.5314,-0.0716L0.5,-0.0738L0.4686,-0.0755L0.4373,-0.0767L0.4063,-0.0775L0.3757,-0.0775L0.3455,-0.077L0.3159,-0.076L0.2871,-0.0745L0.2591,-0.0725L0.2321,-0.0701L0.2061,-0.0674L0.1813,-0.0642L0.1577,-0.0608L0.1355,-0.0571L0.1147,-0.053L0.0955,-0.0488L0.0778,-0.0443L0.0618,-0.0397L0.0476,-0.0349L0.0351,-0.0301L0.0245,-0.0251L0.0157,-0.0202L0.0089,-0.0152L0.0039,-0.0101L0.001,-0.0051L0,-0L0.001,0.0044L0.0039,0.0087L0.0089,0.0128L0.0157,0.0166L0.0245,0.02L0.0351,0.0229L0.0476,0.0255L0.0618,0.0275L0.0778,0.029L0.0955,0.03L0.1147,0.0304L0.1355,0.0303L0.1577,0.0295L0.1813,0.0283L0.2061,0.0267L0.2321,0.0246L0.2591,0.0222L0.2871,0.0195L0.3159,0.0165L0.3455,0.0134L0.3757,0.0102L0.4063,0.007L0.4373,0.0038L0.4686,0.0009L0.5,-0.0018L0.5314,-0.0042L0.5627,-0.0063L0.5937,-0.0081L0.6243,-0.0095L0.6545,-0.0105L0.6841,-0.0112L0.7129,-0.0117L0.7409,-0.0118L0.7679,-0.0117L0.7939,-0.0113L0.8187,-0.0107L0.8423,-0.0099L0.8645,-0.0089L0.8853,-0.0077L0.9045,-0.0064L0.9222,-0.0049L0.9382,-0.0034L0.9524,-0.0018L0.9649,-0.0003L0.9755,0.0011L0.9843,0.0024L0.9911,0.0035L0.9961,0.0043L0.999,0.0048L1,0.005"
    />
</svg>
