
<svg 
  class="airfoil-oaf128"
  fill="none"
  stroke="black" 
  stroke-width="1"
  style="overflow:visible"
  viewBox="0, -0.0723, 1, 0.12830001"
  xmlns="http://www.w3.org/2000/svg">
    <title>OAF128 AIRFOIL</title>
    <path 
      vector-effect="non-scaling-stroke"
      d="M1,-0.0048L0.999,-0.0049L0.9961,-0.005L0.9911,-0.0052L0.9843,-0.0055L0.9755,-0.0059L0.9649,-0.0065L0.9524,-0.0073L0.9382,-0.0084L0.9222,-0.0097L0.9045,-0.0112L0.8853,-0.0131L0.8645,-0.0152L0.8423,-0.0176L0.8187,-0.0203L0.7939,-0.0231L0.7679,-0.0261L0.7409,-0.0293L0.7129,-0.0326L0.6841,-0.036L0.6545,-0.0395L0.6243,-0.043L0.5937,-0.0465L0.5627,-0.05L0.5314,-0.0534L0.5,-0.0567L0.4686,-0.0599L0.4373,-0.0628L0.4063,-0.0655L0.3757,-0.0678L0.3455,-0.0697L0.3159,-0.0711L0.2871,-0.072L0.2591,-0.0723L0.2321,-0.0719L0.2061,-0.0709L0.1813,-0.0694L0.1577,-0.0674L0.1355,-0.0647L0.1147,-0.0613L0.0955,-0.0575L0.0778,-0.0533L0.0618,-0.0488L0.0476,-0.0439L0.0351,-0.0385L0.0245,-0.0327L0.0157,-0.0264L0.0089,-0.0197L0.0039,-0.013L0.001,-0.0064L0,-0L0.001,0.0074L0.0039,0.0136L0.0089,0.0191L0.0157,0.024L0.0245,0.0287L0.0351,0.0333L0.0476,0.0378L0.0618,0.0419L0.0778,0.0454L0.0955,0.0485L0.1147,0.051L0.1355,0.0531L0.1577,0.0547L0.1813,0.0555L0.2061,0.0559L0.2321,0.056L0.2591,0.0554L0.2871,0.0543L0.3159,0.0527L0.3455,0.0507L0.3757,0.0484L0.4063,0.0458L0.4373,0.043L0.4686,0.0401L0.5,0.0372L0.5314,0.0342L0.5627,0.0313L0.5937,0.0285L0.6243,0.0257L0.6545,0.023L0.6841,0.0205L0.7129,0.0181L0.7409,0.0158L0.7679,0.0137L0.7939,0.0118L0.8187,0.0101L0.8423,0.0086L0.8645,0.0073L0.8853,0.0063L0.9045,0.0055L0.9222,0.005L0.9382,0.0047L0.9524,0.0047L0.9649,0.0047L0.9755,0.0049L0.9843,0.0052L0.9911,0.0054L0.9961,0.0056L0.999,0.0058L1,0.0058"
    />
</svg>
