
<svg 
  class="airfoil-oaf102"
  fill="none"
  stroke="black" 
  stroke-width="1"
  style="overflow:visible"
  viewBox="0, -0.0801, 1, 0.113000005"
  xmlns="http://www.w3.org/2000/svg">
    <title>OAF102 AIRFOIL</title>
    <path 
      vector-effect="non-scaling-stroke"
      d="M1,-0.0049L0.999,-0.0051L0.9961,-0.0054L0.9911,-0.0061L0.9843,-0.007L0.9755,-0.0083L0.9649,-0.0099L0.9524,-0.0118L0.9382,-0.0142L0.9222,-0.0169L0.9045,-0.02L0.8853,-0.0234L0.8645,-0.027L0.8423,-0.0309L0.8187,-0.0349L0.7939,-0.0391L0.7679,-0.0434L0.7409,-0.0477L0.7129,-0.052L0.6841,-0.0563L0.6545,-0.0605L0.6243,-0.0645L0.5937,-0.0682L0.5627,-0.0715L0.5314,-0.0744L0.5,-0.0767L0.4686,-0.0784L0.4373,-0.0795L0.4063,-0.0801L0.3757,-0.08L0.3455,-0.0793L0.3159,-0.078L0.2871,-0.0761L0.2591,-0.0736L0.2321,-0.0707L0.2061,-0.0674L0.1813,-0.0637L0.1577,-0.0597L0.1355,-0.0555L0.1147,-0.0511L0.0955,-0.0465L0.0778,-0.0418L0.0618,-0.0371L0.0476,-0.0324L0.0351,-0.0277L0.0245,-0.023L0.0157,-0.0184L0.0089,-0.0138L0.0039,-0.0092L0.001,-0.0046L0,-0L0.001,0.0041L0.0039,0.0082L0.0089,0.0121L0.0157,0.0158L0.0245,0.0192L0.0351,0.0223L0.0476,0.0252L0.0618,0.0276L0.0778,0.0297L0.0955,0.0312L0.1147,0.0323L0.1355,0.0328L0.1577,0.0329L0.1813,0.0323L0.2061,0.0312L0.2321,0.0298L0.2591,0.0279L0.2871,0.0256L0.3159,0.023L0.3455,0.0201L0.3757,0.0169L0.4063,0.0137L0.4373,0.0105L0.4686,0.0074L0.5,0.0045L0.5314,0.0018L0.5627,-0.0005L0.5937,-0.0025L0.6243,-0.0042L0.6545,-0.0055L0.6841,-0.0065L0.7129,-0.0072L0.7409,-0.0076L0.7679,-0.0078L0.7939,-0.0077L0.8187,-0.0075L0.8423,-0.0071L0.8645,-0.0065L0.8853,-0.0057L0.9045,-0.0047L0.9222,-0.0036L0.9382,-0.0024L0.9524,-0.0011L0.9649,0.0002L0.9755,0.0015L0.9843,0.0027L0.9911,0.0037L0.9961,0.0044L0.999,0.0049L1,0.0051"
    />
</svg>
