
<svg 
  class="airfoil-oaf117"
  fill="none"
  stroke="black" 
  stroke-width="1"
  style="overflow:visible"
  viewBox="0, -0.0742, 1, 0.11669999"
  xmlns="http://www.w3.org/2000/svg">
    <title>OAF117 AIRFOIL</title>
    <path 
      vector-effect="non-scaling-stroke"
      d="M1,-0.0049L0.999,-0.005L0.9961,-0.0052L0.9911,-0.0056L0.9843,-0.0061L0.9755,-0.0068L0.9649,-0.0078L0.9524,-0.0089L0.9382,-0.0103L0.9222,-0.0119L0.9045,-0.0138L0.8853,-0.016L0.8645,-0.0184L0.8423,-0.021L0.8187,-0.0239L0.7939,-0.0269L0.7679,-0.0301L0.7409,-0.0335L0.7129,-0.0369L0.6841,-0.0405L0.6545,-0.044L0.6243,-0.0476L0.5937,-0.0512L0.5627,-0.0547L0.5314,-0.0581L0.5,-0.0613L0.4686,-0.0643L0.4373,-0.067L0.4063,-0.0694L0.3757,-0.0713L0.3455,-0.0728L0.3159,-0.0738L0.2871,-0.0742L0.2591,-0.0739L0.2321,-0.0733L0.2061,-0.0719L0.1813,-0.0699L0.1577,-0.0673L0.1355,-0.0642L0.1147,-0.0606L0.0955,-0.0565L0.0778,-0.0519L0.0618,-0.047L0.0476,-0.0417L0.0351,-0.0362L0.0245,-0.0305L0.0157,-0.0248L0.0089,-0.019L0.0039,-0.0129L0.001,-0.0066L0,-0L0.001,0.0052L0.0039,0.0104L0.0089,0.0154L0.0157,0.0201L0.0245,0.0243L0.0351,0.0281L0.0476,0.0315L0.0618,0.0345L0.0778,0.0372L0.0955,0.0393L0.1147,0.0408L0.1355,0.0419L0.1577,0.0425L0.1813,0.0425L0.2061,0.0422L0.2321,0.0414L0.2591,0.0402L0.2871,0.0385L0.3159,0.0366L0.3455,0.0343L0.3757,0.0318L0.4063,0.0292L0.4373,0.0265L0.4686,0.0238L0.5,0.0211L0.5314,0.0185L0.5627,0.0161L0.5937,0.0138L0.6243,0.0117L0.6545,0.0097L0.6841,0.008L0.7129,0.0065L0.7409,0.0052L0.7679,0.0041L0.7939,0.0032L0.8187,0.0025L0.8423,0.002L0.8645,0.0017L0.8853,0.0016L0.9045,0.0017L0.9222,0.0019L0.9382,0.0022L0.9524,0.0026L0.9649,0.0031L0.9755,0.0036L0.9843,0.0041L0.9911,0.0045L0.9961,0.0048L0.999,0.005L1,0.005"
    />
</svg>
