
<svg 
  class="airfoil-oaf139"
  fill="none"
  stroke="black" 
  stroke-width="1"
  style="overflow:visible"
  viewBox="0, -0.059, 1, 0.1376"
  xmlns="http://www.w3.org/2000/svg">
    <title>OAF139 AIRFOIL</title>
    <path 
      vector-effect="non-scaling-stroke"
      d="M1,-0.0049L0.999,-0.0049L0.9961,-0.0048L0.9911,-0.0046L0.9843,-0.0044L0.9755,-0.0042L0.9649,-0.004L0.9524,-0.0039L0.9382,-0.0039L0.9222,-0.0041L0.9045,-0.0045L0.8853,-0.0051L0.8645,-0.0059L0.8423,-0.007L0.8187,-0.0083L0.7939,-0.0098L0.7679,-0.0116L0.7409,-0.0136L0.7129,-0.0158L0.6841,-0.0182L0.6545,-0.0208L0.6243,-0.0236L0.5937,-0.0265L0.5627,-0.0297L0.5314,-0.0329L0.5,-0.0362L0.4686,-0.0395L0.4373,-0.0429L0.4063,-0.0461L0.3757,-0.0491L0.3455,-0.0518L0.3159,-0.0542L0.2871,-0.0562L0.2591,-0.0577L0.2321,-0.0586L0.2061,-0.059L0.1813,-0.0588L0.1577,-0.0581L0.1355,-0.0567L0.1147,-0.0547L0.0955,-0.0521L0.0778,-0.049L0.0618,-0.0453L0.0476,-0.041L0.0351,-0.0362L0.0245,-0.031L0.0157,-0.0255L0.0089,-0.0197L0.0039,-0.0135L0.001,-0.007L0,-0L0.001,0.0063L0.0039,0.0129L0.0089,0.0198L0.0157,0.0267L0.0245,0.0335L0.0351,0.0399L0.0476,0.046L0.0618,0.0516L0.0778,0.0569L0.0955,0.0617L0.1147,0.066L0.1355,0.0697L0.1577,0.0728L0.1813,0.0752L0.2061,0.0769L0.2321,0.0781L0.2591,0.0786L0.2871,0.0783L0.3159,0.0774L0.3455,0.076L0.3757,0.074L0.4063,0.0716L0.4373,0.0688L0.4686,0.0656L0.5,0.0622L0.5314,0.0586L0.5627,0.0548L0.5937,0.051L0.6243,0.0472L0.6545,0.0435L0.6841,0.0397L0.7129,0.0361L0.7409,0.0326L0.7679,0.0292L0.7939,0.026L0.8187,0.023L0.8423,0.0202L0.8645,0.0176L0.8853,0.0152L0.9045,0.0131L0.9222,0.0113L0.9382,0.0097L0.9524,0.0084L0.9649,0.0074L0.9755,0.0065L0.9843,0.0059L0.9911,0.0054L0.9961,0.0051L0.999,0.0049L1,0.0048"
    />
</svg>
