
<svg 
  class="airfoil-p51dtip"
  fill="none"
  stroke="black" 
  stroke-width="1"
  style="overflow:visible"
  viewBox="0, -0.0701, 1, 0.1142"
  xmlns="http://www.w3.org/2000/svg">
    <title>P-51D TIP (BL215) AIRFOIL</title>
    <path 
      vector-effect="non-scaling-stroke"
      d="M1,-0L0.9778,-0.002L0.9505,-0.0048L0.9131,-0.0095L0.8665,-0.0162L0.8117,-0.0251L0.75,-0.0371L0.6827,-0.0505L0.6113,-0.062L0.5374,-0.0689L0.4626,-0.0701L0.3887,-0.0676L0.3173,-0.0639L0.25,-0.0586L0.1883,-0.0519L0.1335,-0.0443L0.0869,-0.0358L0.0495,-0.0266L0.0222,-0.0172L0.0056,-0.0081L0,-0L0.0056,0.0072L0.0222,0.0142L0.0495,0.0199L0.0869,0.0253L0.1335,0.0305L0.1883,0.035L0.25,0.0385L0.3173,0.0414L0.3887,0.0429L0.4626,0.0441L0.5374,0.0435L0.6113,0.039L0.6827,0.0302L0.75,0.0206L0.8117,0.0123L0.8665,0.0063L0.9131,0.003L0.9505,0.0014L0.9778,0.0006L1,-0"
    />
</svg>
