
<svg 
  class="airfoil-p51droot"
  fill="none"
  stroke="black" 
  stroke-width="1"
  style="overflow:visible"
  viewBox="0, -0.0947, 1, 0.16510001"
  xmlns="http://www.w3.org/2000/svg">
    <title>P-51D ROOT (BL17.5) AIRFOIL</title>
    <path 
      vector-effect="non-scaling-stroke"
      d="M1,-0L0.9778,-0.0028L0.9505,-0.0067L0.9131,-0.0137L0.8665,-0.0246L0.8117,-0.0381L0.75,-0.0508L0.6827,-0.0616L0.6113,-0.0717L0.5374,-0.0815L0.4626,-0.09L0.3887,-0.0947L0.3173,-0.0932L0.25,-0.0873L0.1883,-0.0799L0.1335,-0.0698L0.0869,-0.0584L0.0495,-0.0448L0.0222,-0.0303L0.0056,-0.0153L0,-0L0.0056,0.0133L0.0222,0.0264L0.0495,0.037L0.0869,0.0467L0.1335,0.0547L0.1883,0.0614L0.25,0.0672L0.3173,0.0701L0.3887,0.0704L0.4626,0.0674L0.5374,0.0595L0.6113,0.0479L0.6827,0.0363L0.75,0.0265L0.8117,0.0181L0.8665,0.0106L0.9131,0.0054L0.9505,0.0025L0.9778,0.001L1,-0"
    />
</svg>
