
<svg 
  class="airfoil-p51hroot"
  fill="none"
  stroke="black" 
  stroke-width="1"
  style="overflow:visible"
  viewBox="0, -0.0908, 1, 0.155"
  xmlns="http://www.w3.org/2000/svg">
    <title>NACA 66,2-(1.8)15.5 A=.6 P-51 ROOT AIRFOIL</title>
    <path 
      vector-effect="non-scaling-stroke"
      d="M1,-0L0.99,-0.0008L0.985,-0.0014L0.9751,-0.0028L0.9502,-0.0073L0.9253,-0.0126L0.9005,-0.0184L0.8757,-0.0245L0.8509,-0.0308L0.8261,-0.0372L0.8013,-0.0436L0.7764,-0.0499L0.7516,-0.056L0.7267,-0.0618L0.7017,-0.0673L0.6767,-0.0725L0.6517,-0.0772L0.6265,-0.0812L0.6012,-0.0843L0.5759,-0.0866L0.5506,-0.0883L0.5254,-0.0895L0.5002,-0.0903L0.475,-0.0907L0.4498,-0.0908L0.4246,-0.0905L0.3994,-0.0898L0.3743,-0.0888L0.3491,-0.0875L0.3239,-0.0858L0.2988,-0.0837L0.2737,-0.0813L0.2485,-0.0785L0.2234,-0.0752L0.1983,-0.0716L0.1732,-0.0674L0.1481,-0.0627L0.1231,-0.0573L0.0981,-0.0511L0.0731,-0.0441L0.0482,-0.0357L0.0234,-0.0252L0.0185,-0.0227L0.0119,-0.0184L0.0087,-0.0166L0.0062,-0.0146L0.0039,-0.012L0.0017,-0.0086L0,-0L0.0033,0.008L0.0061,0.0109L0.0088,0.0129L0.0113,0.0145L0.0139,0.0159L0.0215,0.019L0.0266,0.0208L0.0518,0.0282L0.0769,0.034L0.1019,0.0388L0.1269,0.043L0.1519,0.0465L0.1768,0.0496L0.2017,0.0523L0.2266,0.0547L0.2515,0.0568L0.2763,0.0586L0.3012,0.0601L0.3261,0.0613L0.3509,0.0624L0.3757,0.0632L0.4006,0.0638L0.4254,0.0641L0.4502,0.0642L0.475,0.0641L0.4998,0.0638L0.5246,0.0632L0.5494,0.0623L0.5741,0.0612L0.5988,0.0595L0.6235,0.0574L0.6483,0.0546L0.6733,0.0512L0.6983,0.0475L0.7233,0.0435L0.7484,0.0394L0.7736,0.0349L0.7987,0.0303L0.8239,0.0256L0.8491,0.021L0.8743,0.0165L0.8995,0.0121L0.9247,0.008L0.9498,0.0043L0.9749,0.0014L0.985,0.0006L0.99,0.0003L1,-0"
    />
</svg>
