
<svg 
  class="airfoil-p51htip"
  fill="none"
  stroke="black" 
  stroke-width="1"
  style="overflow:visible"
  viewBox="0, -0.0733, 1, 0.12"
  xmlns="http://www.w3.org/2000/svg">
    <title>NACA 66,2-(1.8)12 A=.6 P-51 TIP AIRFOIL</title>
    <path 
      vector-effect="non-scaling-stroke"
      d="M1,-0L0.99,-0.0007L0.985,-0.0012L0.9751,-0.0024L0.9502,-0.0062L0.9253,-0.0107L0.9004,-0.0155L0.8756,-0.0205L0.8507,-0.0257L0.8259,-0.0309L0.801,-0.0361L0.7761,-0.0411L0.7512,-0.046L0.7263,-0.0506L0.7013,-0.055L0.6763,-0.0591L0.6513,-0.0628L0.6262,-0.0658L0.601,-0.0682L0.5757,-0.07L0.5505,-0.0713L0.5253,-0.0723L0.5002,-0.0729L0.475,-0.0732L0.4498,-0.0733L0.4247,-0.073L0.3996,-0.0725L0.3744,-0.0716L0.3493,-0.0705L0.3242,-0.0691L0.2991,-0.0675L0.274,-0.0655L0.2489,-0.0632L0.2238,-0.0606L0.1987,-0.0576L0.1736,-0.0542L0.1486,-0.0504L0.1235,-0.0461L0.0985,-0.0411L0.0735,-0.0354L0.0486,-0.0286L0.0237,-0.0202L0.0188,-0.0182L0.0114,-0.0147L0.0089,-0.0133L0.0065,-0.0116L0.0041,-0.0096L0.0019,-0.0068L0,-0L0.0031,0.0062L0.0059,0.0084L0.0085,0.01L0.0111,0.0112L0.0136,0.0122L0.0212,0.0146L0.0263,0.0158L0.0514,0.0212L0.0765,0.0253L0.1015,0.0287L0.1265,0.0317L0.1514,0.0342L0.1764,0.0364L0.2013,0.0384L0.2262,0.04L0.2511,0.0415L0.276,0.0428L0.3009,0.0438L0.3258,0.0447L0.3507,0.0455L0.3756,0.046L0.4004,0.0464L0.4253,0.0467L0.4502,0.0467L0.475,0.0466L0.4998,0.0464L0.5247,0.046L0.5495,0.0454L0.5743,0.0445L0.599,0.0435L0.6238,0.0421L0.6487,0.0402L0.6737,0.0378L0.6987,0.0352L0.7237,0.0324L0.7488,0.0293L0.7739,0.0261L0.799,0.0228L0.8241,0.0193L0.8493,0.0159L0.8744,0.0125L0.8996,0.0092L0.9247,0.0061L0.9498,0.0033L0.9749,0.001L0.985,0.0004L0.99,0.0002L1,-0"
    />
</svg>
