
<svg 
  class="airfoil-pfcm"
  fill="none"
  stroke="black" 
  stroke-width="1"
  style="overflow:visible"
  viewBox="0, -0.0538, 1, 0.0823"
  xmlns="http://www.w3.org/2000/svg">
    <title>PROPFAN CRUISE MISSILE WING AIRFOIL</title>
    <path 
      vector-effect="non-scaling-stroke"
      d="M1,-0.0013L0.95,-0.0078L0.9,-0.0144L0.85,-0.0207L0.8,-0.0269L0.75,-0.0324L0.7,-0.0375L0.65,-0.0421L0.6,-0.046L0.55,-0.0492L0.5,-0.0517L0.45,-0.0533L0.4,-0.0538L0.35,-0.053L0.3,-0.0512L0.25,-0.0483L0.2,-0.0444L0.15,-0.0392L0.1,-0.0323L0.075,-0.028L0.05,-0.0229L0.025,-0.0162L0.0125,-0.0116L0.0075,-0.0091L0.005,-0.0076L0,-0L0.005,0.0057L0.0075,0.0068L0.0125,0.0086L0.025,0.0115L0.05,0.0153L0.075,0.018L0.1,0.0202L0.15,0.0234L0.2,0.0257L0.25,0.0272L0.3,0.0282L0.35,0.0285L0.4,0.0282L0.45,0.027L0.5,0.0251L0.55,0.0227L0.6,0.0199L0.65,0.0169L0.7,0.0138L0.75,0.0108L0.8,0.0081L0.85,0.0062L0.9,0.0045L0.95,0.0029L1,0.0013"
    />
</svg>
