
<svg 
  class="airfoil-pmc19sm"
  fill="none"
  stroke="black" 
  stroke-width="1"
  style="overflow:visible"
  viewBox="0, -0.0631, 1, 0.0994"
  xmlns="http://www.w3.org/2000/svg">
    <title>PMC19 Smoothed</title>
    <path 
      vector-effect="non-scaling-stroke"
      d="M1,-0.001L0.9975,-0.0012L0.9907,-0.0019L0.9804,-0.0026L0.967,-0.0033L0.9504,-0.004L0.9306,-0.005L0.9078,-0.0063L0.882,-0.008L0.8537,-0.0101L0.8231,-0.0126L0.7905,-0.0156L0.7562,-0.0189L0.7204,-0.0226L0.6836,-0.0265L0.6459,-0.0306L0.6078,-0.0348L0.5694,-0.0389L0.531,-0.043L0.4927,-0.0469L0.4543,-0.0507L0.4164,-0.0541L0.3789,-0.0571L0.342,-0.0596L0.3061,-0.0615L0.2712,-0.0627L0.2376,-0.0631L0.2055,-0.0624L0.175,-0.0605L0.1465,-0.0573L0.12,-0.0529L0.0958,-0.0474L0.074,-0.041L0.0547,-0.0341L0.0381,-0.0272L0.0243,-0.0207L0.0134,-0.0148L0.0055,-0.0091L0.001,-0.0036L0,0.0001L0.001,0.0034L0.0055,0.0071L0.0134,0.0096L0.0243,0.0109L0.0381,0.0115L0.0547,0.012L0.074,0.0125L0.0958,0.0132L0.12,0.0142L0.1465,0.0158L0.175,0.018L0.2055,0.0207L0.2376,0.0237L0.2712,0.0268L0.3061,0.0298L0.342,0.0323L0.3789,0.0344L0.4164,0.0358L0.4543,0.0363L0.4927,0.0361L0.531,0.0351L0.5694,0.0336L0.6078,0.0314L0.6459,0.0287L0.6836,0.0257L0.7204,0.0224L0.7562,0.019L0.7905,0.0157L0.8231,0.0125L0.8537,0.0097L0.882,0.0073L0.9078,0.0054L0.9306,0.0039L0.9504,0.003L0.967,0.0026L0.9804,0.0023L0.9907,0.0019L0.9975,0.0013L1,0.001"
    />
</svg>
