
<svg 
  class="airfoil-prandtl-d-centerline"
  fill="none"
  stroke="black" 
  stroke-width="1"
  style="overflow:visible"
  viewBox="0, -0.1, 0.9984, 0.1265"
  xmlns="http://www.w3.org/2000/svg">
    <title>Prandtl-D Centerline NASA TP-2016-219072</title>
    <path 
      vector-effect="non-scaling-stroke"
      d="M0.9984,-0.0159L0.9866,-0.0158L0.9521,-0.0171L0.897,-0.0236L0.8239,-0.0369L0.8044,-0.0407L0.7778,-0.0459L0.75,-0.0512L0.7211,-0.0567L0.6913,-0.0622L0.6607,-0.0677L0.6294,-0.0731L0.5975,-0.0784L0.5653,-0.0834L0.5327,-0.088L0.5,-0.092L0.4673,-0.0953L0.4347,-0.0978L0.4024,-0.0994L0.3706,-0.1L0.3393,-0.0997L0.3087,-0.0985L0.2789,-0.0963L0.25,-0.0934L0.2222,-0.0898L0.1956,-0.0855L0.1703,-0.0807L0.1464,-0.0754L0.1241,-0.0696L0.1033,-0.0635L0.0843,-0.0569L0.067,-0.0502L0.0516,-0.0432L0.0381,-0.0358L0.0265,-0.029L0.017,-0.022L0.0096,-0.0142L0.0043,-0.0078L0.0011,-0.0035L0,-0L0.0011,0.0052L0.0043,0.0088L0.0096,0.0121L0.017,0.015L0.0265,0.018L0.0381,0.0206L0.0516,0.0224L0.067,0.0241L0.0843,0.0252L0.1033,0.026L0.1241,0.0264L0.1464,0.0265L0.1703,0.0263L0.1956,0.0258L0.2222,0.0251L0.25,0.0242L0.2789,0.0231L0.3087,0.0218L0.3393,0.0205L0.3706,0.019L0.4024,0.0175L0.4347,0.016L0.4673,0.0145L0.5,0.013L0.5327,0.0116L0.5653,0.0102L0.5975,0.0088L0.6294,0.0076L0.6607,0.0065L0.6913,0.0054L0.7211,0.0045L0.75,0.0036L0.7778,0.0029L0.8044,0.0023L0.8201,0.0019L0.8955,-0.0026L0.9518,-0.0091L0.9866,-0.0141L0.9984,-0.0159"
    />
</svg>
