
<svg 
  class="airfoil-prandtl-d-wingtip"
  fill="none"
  stroke="black" 
  stroke-width="1"
  style="overflow:visible"
  viewBox="0, -0.0482, 1, 0.0964"
  xmlns="http://www.w3.org/2000/svg">
    <title>Prandtl-D Wingtip NASA TP-2016-219072</title>
    <path 
      vector-effect="non-scaling-stroke"
      d="M1,-0.0007L0.9609,-0.0043L0.9483,-0.0054L0.9357,-0.0065L0.9231,-0.0077L0.8978,-0.01L0.8852,-0.0111L0.8473,-0.0146L0.8221,-0.0168L0.8094,-0.0179L0.7968,-0.019L0.7842,-0.0201L0.7716,-0.0211L0.7337,-0.0243L0.7211,-0.0253L0.6959,-0.0273L0.6833,-0.0283L0.6706,-0.0293L0.658,-0.0303L0.6202,-0.0331L0.6076,-0.0341L0.595,-0.035L0.5698,-0.0367L0.5572,-0.0375L0.5446,-0.0384L0.5068,-0.0407L0.4942,-0.0414L0.4816,-0.0421L0.469,-0.0427L0.4313,-0.0445L0.4062,-0.0456L0.3811,-0.0464L0.3685,-0.0468L0.356,-0.0472L0.3435,-0.0474L0.3309,-0.0477L0.2934,-0.0481L0.2685,-0.0482L0.256,-0.0481L0.2436,-0.0479L0.2312,-0.0477L0.2189,-0.0474L0.2065,-0.047L0.1576,-0.0443L0.1455,-0.0434L0.1336,-0.0423L0.1217,-0.041L0.0983,-0.038L0.0756,-0.0342L0.0646,-0.0319L0.0345,-0.0235L0.0262,-0.0203L0.0192,-0.0172L0.0138,-0.0143L0.0068,-0.0096L0.0046,-0.0076L0.0017,-0.0044L0.0003,-0.0016L0,-0.0004L0,-0L0,0.0004L0.0003,0.0016L0.0017,0.0044L0.0046,0.0076L0.0068,0.0096L0.0138,0.0143L0.0192,0.0172L0.0262,0.0203L0.0345,0.0235L0.0646,0.0319L0.0756,0.0342L0.0983,0.038L0.1217,0.041L0.1336,0.0423L0.1455,0.0434L0.1576,0.0443L0.2065,0.047L0.2189,0.0474L0.2312,0.0477L0.2436,0.0479L0.256,0.0481L0.2685,0.0482L0.2934,0.0481L0.3309,0.0477L0.3435,0.0474L0.356,0.0472L0.3685,0.0468L0.3811,0.0464L0.4062,0.0456L0.4313,0.0445L0.469,0.0427L0.4816,0.0421L0.4942,0.0414L0.5068,0.0407L0.5446,0.0384L0.5572,0.0375L0.5698,0.0367L0.595,0.035L0.6076,0.0341L0.6202,0.0331L0.658,0.0303L0.6706,0.0293L0.6833,0.0283L0.6959,0.0273L0.7211,0.0253L0.7337,0.0243L0.7716,0.0211L0.7842,0.0201L0.7968,0.019L0.8094,0.0179L0.8221,0.0168L0.8473,0.0146L0.8852,0.0111L0.8978,0.01L0.9231,0.0077L0.9357,0.0065L0.9483,0.0054L0.9609,0.0043L1,-0.0007"
    />
</svg>
