
<svg 
  class="airfoil-psu-90-125wl"
  fill="none"
  stroke="black" 
  stroke-width="1"
  style="overflow:visible"
  viewBox="0, -0.0859, 1, 0.1263"
  xmlns="http://www.w3.org/2000/svg">
    <title>PSU-90-125WL</title>
    <path 
      vector-effect="non-scaling-stroke"
      d="M1,-0L0.9965,-0.0006L0.9863,-0.0027L0.9703,-0.0063L0.9493,-0.011L0.9234,-0.0163L0.8927,-0.0224L0.8577,-0.0291L0.8191,-0.0365L0.7774,-0.0442L0.7333,-0.0522L0.6875,-0.06L0.6405,-0.0672L0.5926,-0.0734L0.5441,-0.0783L0.4951,-0.0819L0.4462,-0.0845L0.3979,-0.0858L0.3506,-0.0859L0.3049,-0.0848L0.2612,-0.0825L0.2199,-0.0789L0.1813,-0.0742L0.1458,-0.0684L0.1137,-0.0615L0.0852,-0.0537L0.0606,-0.0452L0.04,-0.0362L0.0236,-0.0268L0.0113,-0.0174L0.0034,-0.0085L0,-0.0006L0.0024,0.0059L0.0109,0.0119L0.0246,0.0178L0.0432,0.0232L0.0666,0.028L0.0946,0.0321L0.1269,0.0354L0.1633,0.0379L0.2033,0.0395L0.2466,0.0403L0.2927,0.0404L0.3412,0.0397L0.3914,0.0382L0.443,0.0361L0.4952,0.0333L0.5477,0.0298L0.6,0.0255L0.6519,0.0208L0.7028,0.0162L0.7518,0.0119L0.7983,0.0081L0.8415,0.005L0.8807,0.0026L0.9153,0.0009L0.9447,-0.0001L0.9683,-0.0005L0.9857,-0.0005L0.9964,-0.0002L1,-0"
    />
</svg>
