
<svg 
  class="airfoil-psu94097"
  fill="none"
  stroke="black" 
  stroke-width="1"
  style="overflow:visible"
  viewBox="0, -0.0882, 1, 0.10340001"
  xmlns="http://www.w3.org/2000/svg">
    <title>PSU 94-097 (AIAA 2001-2478)</title>
    <path 
      vector-effect="non-scaling-stroke"
      d="M1,-0.0033L0.9971,-0.0038L0.9884,-0.0055L0.974,-0.0083L0.9541,-0.0122L0.9289,-0.0172L0.8987,-0.0232L0.8652,-0.03L0.828,-0.0374L0.7877,-0.0451L0.7449,-0.053L0.7001,-0.0607L0.6539,-0.0681L0.6068,-0.0747L0.5592,-0.0801L0.5112,-0.0842L0.4632,-0.0869L0.4156,-0.0882L0.3688,-0.0882L0.323,-0.087L0.279,-0.0846L0.237,-0.0811L0.1976,-0.0766L0.161,-0.071L0.1278,-0.0646L0.098,-0.0572L0.072,-0.0491L0.0498,-0.0405L0.0316,-0.0314L0.0175,-0.0224L0.0075,-0.0136L0.0016,-0.0057L0.0001,-0.001L0,0.0004L0.0003,0.0016L0.0011,0.0026L0.0024,0.0036L0.0045,0.0048L0.015,0.0084L0.031,0.0113L0.0522,0.0134L0.0786,0.0147L0.1099,0.0152L0.1458,0.0151L0.1859,0.0144L0.2299,0.0132L0.2772,0.0117L0.3273,0.0099L0.3795,0.008L0.4333,0.006L0.4879,0.0039L0.5427,0.0017L0.5974,-0.0004L0.6511,-0.0024L0.7033,-0.0041L0.7533,-0.0054L0.8004,-0.0061L0.8439,-0.0063L0.8832,-0.006L0.9176,-0.0052L0.9466,-0.0041L0.9696,-0.0027L0.9863,-0.0014L0.9966,-0.0004L1,-0"
    />
</svg>
