
<svg 
  class="airfoil-pt40"
  fill="none"
  stroke="black" 
  stroke-width="1"
  style="overflow:visible"
  viewBox="0, -0.0853, 1, 0.1264"
  xmlns="http://www.w3.org/2000/svg">
    <title>PT40</title>
    <path 
      vector-effect="non-scaling-stroke"
      d="M1,-0.0014L0.9975,-0.002L0.9907,-0.0037L0.9804,-0.0062L0.967,-0.0093L0.9504,-0.0129L0.9306,-0.017L0.9078,-0.0214L0.882,-0.0262L0.8537,-0.0312L0.8231,-0.0363L0.7905,-0.0416L0.7562,-0.047L0.7204,-0.0524L0.6836,-0.0577L0.6459,-0.0629L0.6078,-0.0676L0.5694,-0.0719L0.531,-0.0756L0.4927,-0.0788L0.4543,-0.0814L0.4164,-0.0834L0.3789,-0.0847L0.342,-0.0853L0.3061,-0.085L0.2712,-0.084L0.2376,-0.0825L0.2055,-0.0804L0.175,-0.0778L0.1465,-0.0746L0.12,-0.0707L0.0958,-0.0659L0.074,-0.0601L0.0547,-0.0534L0.0381,-0.0461L0.0243,-0.0387L0.0134,-0.0307L0.0055,-0.0206L0.001,-0.0085L0,0.0007L0.001,0.0098L0.0055,0.0213L0.0134,0.0308L0.0243,0.0375L0.0381,0.0407L0.0547,0.0411L0.074,0.0403L0.0958,0.0391L0.12,0.038L0.1465,0.0369L0.175,0.0358L0.2055,0.0346L0.2376,0.0333L0.2712,0.0319L0.3061,0.0305L0.342,0.029L0.3789,0.0274L0.4164,0.0258L0.4543,0.0243L0.4927,0.0227L0.531,0.021L0.5694,0.0194L0.6078,0.0178L0.6459,0.0162L0.6836,0.0146L0.7204,0.013L0.7562,0.0115L0.7905,0.01L0.8231,0.0087L0.8537,0.0074L0.882,0.0062L0.9078,0.0052L0.9306,0.0042L0.9504,0.0034L0.967,0.0028L0.9804,0.0022L0.9907,0.0017L0.9975,0.0015L1,0.0013"
    />
</svg>
