
<svg 
  class="airfoil-r1046"
  fill="none"
  stroke="black" 
  stroke-width="1"
  style="overflow:visible"
  viewBox="0, -0.1567, 1, 0.1846"
  xmlns="http://www.w3.org/2000/svg">
    <title>RONCZ 1046 VOYAGER CANARD AIRFOIL</title>
    <path 
      vector-effect="non-scaling-stroke"
      d="M1,-0L0.99,-0.0023L0.98,-0.0051L0.96,-0.0114L0.94,-0.018L0.92,-0.0245L0.9,-0.0308L0.88,-0.0369L0.86,-0.0429L0.84,-0.049L0.82,-0.0551L0.8,-0.0612L0.78,-0.0674L0.76,-0.0736L0.74,-0.0798L0.72,-0.086L0.7,-0.0922L0.68,-0.0983L0.66,-0.1044L0.64,-0.1103L0.62,-0.1162L0.6,-0.1219L0.58,-0.1274L0.56,-0.1326L0.54,-0.1376L0.52,-0.1422L0.5,-0.1464L0.48,-0.1499L0.46,-0.1527L0.44,-0.1547L0.42,-0.1561L0.4,-0.1567L0.38,-0.1566L0.36,-0.1559L0.34,-0.1546L0.32,-0.1526L0.3,-0.1502L0.28,-0.147L0.26,-0.1434L0.24,-0.1392L0.22,-0.1345L0.2,-0.1291L0.18,-0.1231L0.16,-0.1165L0.14,-0.109L0.12,-0.1007L0.1,-0.0915L0.08,-0.081L0.06,-0.069L0.05,-0.0622L0.04,-0.0548L0.03,-0.0465L0.02,-0.0368L0.012,-0.0274L0.008,-0.0216L0.004,-0.0144L0.002,-0.0098L0.001,-0.0067L0.0005,-0.0046L0,-0L0.0005,0.0041L0.001,0.0054L0.002,0.007L0.004,0.0091L0.008,0.0116L0.012,0.0135L0.02,0.0162L0.03,0.0186L0.04,0.0204L0.05,0.0218L0.06,0.023L0.08,0.0247L0.1,0.0259L0.12,0.0267L0.14,0.0273L0.16,0.0277L0.18,0.0279L0.2,0.0279L0.22,0.0278L0.24,0.0276L0.26,0.0273L0.28,0.027L0.3,0.0266L0.32,0.0261L0.34,0.0255L0.36,0.025L0.38,0.0243L0.4,0.0236L0.42,0.0229L0.44,0.0221L0.46,0.0212L0.48,0.0203L0.5,0.0193L0.52,0.0183L0.54,0.0173L0.56,0.0163L0.58,0.0153L0.6,0.0143L0.62,0.0133L0.64,0.0123L0.66,0.0113L0.68,0.0104L0.7,0.0095L0.72,0.0086L0.74,0.0078L0.76,0.007L0.78,0.0062L0.8,0.0055L0.82,0.0048L0.84,0.0041L0.86,0.0035L0.88,0.0029L0.9,0.0022L0.92,0.0015L0.94,0.0008L0.96,0.0001L0.98,-0.0004L0.99,-0.0004L1,-0"
    />
</svg>
