
<svg 
  class="airfoil-r1082"
  fill="none"
  stroke="black" 
  stroke-width="1"
  style="overflow:visible"
  viewBox="0, -0.1238, 1, 0.18"
  xmlns="http://www.w3.org/2000/svg">
    <title>RONCZ 1082 VOYAGER ROOT OUTER AFT WING AIRFOIL</title>
    <path 
      vector-effect="non-scaling-stroke"
      d="M1,-0L0.99,-0.0031L0.98,-0.0062L0.96,-0.0118L0.94,-0.0168L0.92,-0.0216L0.9,-0.0265L0.88,-0.0314L0.86,-0.0363L0.84,-0.0412L0.82,-0.0461L0.8,-0.051L0.78,-0.0559L0.76,-0.0608L0.74,-0.0657L0.72,-0.0706L0.7,-0.0754L0.68,-0.0802L0.66,-0.0849L0.64,-0.0895L0.62,-0.094L0.5999,-0.0983L0.5799,-0.1025L0.5599,-0.1065L0.5399,-0.1102L0.5199,-0.1136L0.4999,-0.1167L0.4799,-0.1193L0.4599,-0.1213L0.4399,-0.1227L0.4199,-0.1235L0.3999,-0.1238L0.3799,-0.1236L0.3599,-0.123L0.3399,-0.122L0.3199,-0.1206L0.2999,-0.1188L0.2799,-0.1166L0.2599,-0.114L0.2399,-0.1109L0.2199,-0.1074L0.1999,-0.1034L0.1799,-0.0989L0.1599,-0.0939L0.1399,-0.0882L0.1199,-0.0819L0.0999,-0.0747L0.0799,-0.0665L0.0599,-0.057L0.0499,-0.0515L0.0399,-0.0455L0.0299,-0.0387L0.0199,-0.0307L0.0119,-0.0228L0.0079,-0.018L0.0039,-0.0121L0.002,-0.0082L0.001,-0.0057L0.0005,-0.0039L0,-0L0.0005,0.0038L0.001,0.0053L0.002,0.0073L0.004,0.0098L0.008,0.013L0.012,0.0155L0.02,0.0196L0.03,0.0236L0.04,0.0269L0.05,0.0297L0.06,0.032L0.08,0.036L0.1,0.0393L0.12,0.042L0.14,0.0443L0.16,0.0463L0.18,0.0481L0.2,0.0496L0.22,0.0509L0.24,0.0521L0.26,0.0531L0.28,0.0539L0.3,0.0546L0.32,0.0552L0.34,0.0556L0.36,0.0559L0.38,0.0561L0.4,0.0562L0.42,0.0561L0.44,0.056L0.46,0.0557L0.48,0.0552L0.5,0.0547L0.52,0.054L0.54,0.0532L0.56,0.0522L0.58,0.0511L0.6,0.0498L0.62,0.0483L0.64,0.0465L0.66,0.0445L0.68,0.042L0.7,0.0393L0.72,0.0362L0.74,0.0328L0.76,0.0294L0.78,0.0258L0.8,0.0223L0.82,0.0188L0.84,0.0155L0.86,0.0123L0.88,0.0093L0.9,0.0066L0.92,0.0042L0.94,0.0022L0.96,0.0006L0.98,-0.0003L0.99,-0.0004L1,-0"
    />
</svg>
