
<svg 
  class="airfoil-r1082t"
  fill="none"
  stroke="black" 
  stroke-width="1"
  style="overflow:visible"
  viewBox="0, -0.1099, 1, 0.1599"
  xmlns="http://www.w3.org/2000/svg">
    <title>RONCZ 1082T VOYAGER TIP OUTER AFT WING AIRFOIL</title>
    <path 
      vector-effect="non-scaling-stroke"
      d="M1,-0L0.99,-0.0027L0.98,-0.0055L0.96,-0.0105L0.94,-0.0149L0.92,-0.0192L0.9,-0.0235L0.88,-0.0279L0.86,-0.0322L0.84,-0.0365L0.82,-0.0409L0.8,-0.0453L0.78,-0.0497L0.76,-0.054L0.74,-0.0584L0.72,-0.0627L0.7,-0.067L0.68,-0.0712L0.6599,-0.0754L0.6399,-0.0795L0.6199,-0.0835L0.5999,-0.0873L0.5799,-0.091L0.5599,-0.0946L0.5399,-0.0979L0.5199,-0.1009L0.4999,-0.1036L0.4799,-0.1059L0.4599,-0.1077L0.4399,-0.109L0.4199,-0.1097L0.3999,-0.1099L0.3799,-0.1098L0.3599,-0.1093L0.3399,-0.1084L0.3199,-0.1071L0.2999,-0.1055L0.2799,-0.1035L0.2599,-0.1012L0.2399,-0.0985L0.2199,-0.0954L0.1999,-0.0918L0.1799,-0.0878L0.1599,-0.0833L0.1399,-0.0783L0.1199,-0.0727L0.0999,-0.0663L0.0799,-0.059L0.0599,-0.0505L0.0499,-0.0457L0.0399,-0.0403L0.0299,-0.0343L0.0199,-0.0272L0.0119,-0.0202L0.0079,-0.0159L0.0039,-0.0106L0.0019,-0.0072L0.0009,-0.005L0.0004,-0.0034L0,-0L0.0004,0.0033L0.0009,0.0048L0.0019,0.0067L0.0039,0.0089L0.0079,0.0117L0.0119,0.0138L0.0199,0.0175L0.03,0.0211L0.04,0.024L0.05,0.0265L0.06,0.0286L0.08,0.0321L0.1,0.035L0.12,0.0374L0.14,0.0395L0.16,0.0413L0.18,0.0428L0.2,0.0442L0.22,0.0454L0.24,0.0464L0.26,0.0473L0.28,0.048L0.3,0.0486L0.32,0.0491L0.34,0.0495L0.36,0.0498L0.38,0.05L0.4,0.05L0.42,0.05L0.44,0.0498L0.46,0.0495L0.48,0.0491L0.5,0.0486L0.52,0.048L0.54,0.0473L0.56,0.0464L0.58,0.0454L0.6,0.0443L0.62,0.0429L0.64,0.0414L0.66,0.0395L0.68,0.0374L0.7,0.0349L0.72,0.0322L0.74,0.0292L0.76,0.0261L0.78,0.023L0.8,0.0198L0.82,0.0168L0.84,0.0138L0.86,0.011L0.88,0.0083L0.9,0.0059L0.92,0.0038L0.94,0.002L0.96,0.0005L0.98,-0.0003L0.99,-0.0004L1,-0"
    />
</svg>
