
<svg 
  class="airfoil-r1080"
  fill="none"
  stroke="black" 
  stroke-width="1"
  style="overflow:visible"
  viewBox="0, -0.123, 1, 0.18"
  xmlns="http://www.w3.org/2000/svg">
    <title>RONCZ 1080 VOYAGER INNER AFT WING AIRFOIL</title>
    <path 
      vector-effect="non-scaling-stroke"
      d="M1,-0L0.99,-0.0026L0.98,-0.0053L0.96,-0.0104L0.94,-0.0151L0.92,-0.0197L0.9,-0.0244L0.88,-0.0292L0.86,-0.0341L0.84,-0.039L0.82,-0.044L0.8,-0.049L0.78,-0.0541L0.76,-0.0593L0.74,-0.0644L0.72,-0.0696L0.7,-0.0747L0.68,-0.0798L0.66,-0.0848L0.64,-0.0898L0.62,-0.0947L0.6,-0.0993L0.58,-0.1038L0.56,-0.1081L0.54,-0.1119L0.52,-0.1152L0.5,-0.118L0.48,-0.12L0.46,-0.1215L0.44,-0.1224L0.42,-0.1229L0.4,-0.123L0.38,-0.1227L0.36,-0.122L0.34,-0.1209L0.32,-0.1195L0.3,-0.1177L0.28,-0.1156L0.26,-0.113L0.24,-0.11L0.22,-0.1067L0.2,-0.1028L0.18,-0.0985L0.16,-0.0937L0.14,-0.0883L0.12,-0.0822L0.1,-0.0752L0.08,-0.0673L0.06,-0.058L0.05,-0.0526L0.04,-0.0467L0.03,-0.04L0.02,-0.032L0.012,-0.024L0.008,-0.019L0.004,-0.0129L0.002,-0.0089L0.001,-0.0061L0.0005,-0.0042L0,-0L0.0005,0.0038L0.001,0.0053L0.002,0.0071L0.004,0.0094L0.008,0.0126L0.012,0.015L0.02,0.019L0.03,0.023L0.04,0.0262L0.05,0.029L0.06,0.0314L0.08,0.0355L0.1,0.0388L0.12,0.0416L0.14,0.044L0.16,0.0461L0.18,0.0479L0.2,0.0495L0.22,0.051L0.24,0.0522L0.26,0.0533L0.28,0.0542L0.3,0.055L0.32,0.0556L0.34,0.0562L0.36,0.0565L0.38,0.0568L0.4,0.057L0.42,0.057L0.44,0.0569L0.46,0.0567L0.48,0.0563L0.5,0.0559L0.52,0.0552L0.54,0.0545L0.56,0.0535L0.58,0.0524L0.6,0.0511L0.62,0.0496L0.64,0.0479L0.66,0.0457L0.68,0.0433L0.7,0.0404L0.72,0.0373L0.74,0.0339L0.76,0.0304L0.78,0.0269L0.8,0.0234L0.82,0.0199L0.84,0.0166L0.86,0.0135L0.88,0.0105L0.9,0.0077L0.92,0.0053L0.94,0.0031L0.96,0.0013L0.98,0.0001L0.99,-0.0002L1,-0"
    />
</svg>
