
<svg 
  class="airfoil-r1145msf"
  fill="none"
  stroke="black" 
  stroke-width="1"
  style="overflow:visible"
  viewBox="0.6442, -0.0804, 0.35579997, 0.1084"
  xmlns="http://www.w3.org/2000/svg">
    <title>RONCZ R1145MS FLAP ELEMENT (LONG EZ PIVOT X=0.6874131, Z=-.0138996)</title>
    <path 
      vector-effect="non-scaling-stroke"
      d="M1,-0.0031L0.982,-0.0064L0.9642,-0.0104L0.9467,-0.0156L0.9385,-0.0185L0.9311,-0.0211L0.9202,-0.0251L0.9112,-0.0286L0.9004,-0.0327L0.8917,-0.0364L0.8827,-0.0396L0.8718,-0.0435L0.8628,-0.0467L0.8556,-0.0492L0.8465,-0.0522L0.8385,-0.0554L0.8312,-0.0577L0.824,-0.06L0.8168,-0.0622L0.8096,-0.0643L0.7987,-0.0674L0.7915,-0.0694L0.7841,-0.0719L0.7769,-0.0735L0.7697,-0.0749L0.7607,-0.0766L0.7527,-0.0779L0.7455,-0.0788L0.7381,-0.0797L0.7309,-0.0801L0.7242,-0.0804L0.717,-0.0801L0.7122,-0.0797L0.7067,-0.0792L0.7012,-0.0783L0.6958,-0.0771L0.69,-0.0754L0.6847,-0.0737L0.6793,-0.0712L0.6731,-0.0676L0.667,-0.0631L0.6607,-0.0571L0.656,-0.0516L0.6524,-0.0469L0.65,-0.0417L0.6473,-0.0338L0.6454,-0.0269L0.6449,-0.024L0.6445,-0.0211L0.6443,-0.0181L0.6442,-0.0151L0.6443,-0.0126L0.6445,-0.01L0.6449,-0.0075L0.6454,-0.005L0.6462,-0.0021L0.6495,0.0056L0.6513,0.0086L0.6531,0.0111L0.6554,0.0139L0.659,0.0175L0.6634,0.0208L0.667,0.0229L0.6724,0.0254L0.6771,0.0268L0.6825,0.0278L0.6879,0.028L0.706,0.0256L0.7132,0.025L0.7204,0.0245L0.7312,0.0236L0.7421,0.0228L0.7529,0.0219L0.7637,0.021L0.7746,0.0201L0.7854,0.0192L0.7962,0.0183L0.8071,0.0173L0.8197,0.0163L0.8324,0.0152L0.845,0.014L0.8576,0.0129L0.8703,0.0118L0.8829,0.0106L0.8956,0.0094L0.9082,0.0083L0.9208,0.0071L0.9335,0.0059L0.9461,0.0046L0.9587,0.0034L0.9714,0.0022L0.9822,0.0011L0.9876,0.0005L0.9931,-0L1,-0"
    />
</svg>
