
<svg 
  class="airfoil-r1145msm"
  fill="none"
  stroke="black" 
  stroke-width="1"
  style="overflow:visible"
  viewBox="0, -0.1369, 0.7198, 0.1899"
  xmlns="http://www.w3.org/2000/svg">
    <title>RONCZ R1145MS MAIN ELEMENT</title>
    <path 
      vector-effect="non-scaling-stroke"
      d="M0.7198,-0.0938L0.7075,-0.097L0.6951,-0.1003L0.6704,-0.1064L0.6455,-0.1119L0.6207,-0.1169L0.5958,-0.1214L0.571,-0.1252L0.5462,-0.1284L0.5214,-0.1311L0.4965,-0.1332L0.4717,-0.1348L0.4469,-0.136L0.4221,-0.1367L0.3972,-0.1369L0.3724,-0.1368L0.3476,-0.1362L0.3227,-0.1351L0.2979,-0.1336L0.2731,-0.1315L0.2483,-0.129L0.2234,-0.1258L0.1986,-0.122L0.1737,-0.1173L0.149,-0.1117L0.124,-0.1048L0.0993,-0.0967L0.0737,-0.0864L0.0497,-0.0731L0.0366,-0.0635L0.0248,-0.0524L0.0183,-0.0447L0.0124,-0.0363L0.0098,-0.032L0.0074,-0.0276L0.0062,-0.0249L0.005,-0.0222L0.0027,-0.0158L0.001,-0.0093L0.0005,-0.0066L0.0002,-0.0039L0.0001,-0.002L0,-0L0.0001,0.0031L0.0003,0.0052L0.0006,0.0072L0.0013,0.0102L0.0022,0.0131L0.0033,0.0158L0.0051,0.0178L0.0105,0.0229L0.0143,0.0257L0.0179,0.0278L0.0215,0.0295L0.0251,0.0308L0.0297,0.0323L0.0351,0.0341L0.0387,0.0351L0.0442,0.0365L0.0491,0.0376L0.0545,0.0388L0.0581,0.0395L0.0618,0.0402L0.0672,0.0411L0.0726,0.042L0.0776,0.0427L0.0848,0.0438L0.0902,0.0445L0.0956,0.0451L0.101,0.0457L0.1064,0.0463L0.111,0.0468L0.1164,0.0473L0.1218,0.0478L0.1272,0.0482L0.1326,0.0487L0.138,0.0491L0.1453,0.0496L0.1525,0.05L0.1615,0.0506L0.1706,0.051L0.1796,0.0514L0.189,0.0518L0.1981,0.0521L0.2071,0.0523L0.2161,0.0525L0.2252,0.0527L0.2346,0.0528L0.2454,0.0529L0.2545,0.053L0.2635,0.053L0.2725,0.0529L0.2815,0.0529L0.2905,0.0528L0.2995,0.0527L0.3085,0.0526L0.3176,0.0525L0.3273,0.0523L0.3381,0.052L0.349,0.0518L0.358,0.0515L0.3706,0.0511L0.3805,0.0508L0.3895,0.0505L0.3986,0.0501L0.4076,0.0497L0.4166,0.0493L0.4256,0.0489L0.435,0.0484L0.4441,0.0479L0.4531,0.0474L0.4639,0.0467L0.473,0.0461L0.4814,0.0456L0.4922,0.0448L0.5031,0.044L0.5121,0.0434L0.5229,0.0425L0.5338,0.0416L0.5445,0.0407L0.5553,0.0395L0.5662,0.0382L0.573,0.0371L0.5805,0.0343L0.5877,0.0299L0.5951,0.0241L0.6019,0.0164L0.6095,0.0053L0.6172,-0.0089L0.6245,-0.0283L0.631,-0.0447L0.6378,-0.0592L0.6452,-0.0713L0.651,-0.0794L0.6564,-0.0833L0.6625,-0.0878L0.6677,-0.0903L0.6735,-0.0921L0.6789,-0.093L0.6844,-0.093L0.6894,-0.0929L0.693,-0.0923L0.6985,-0.0919L0.7039,-0.0913L0.7111,-0.0904L0.7165,-0.0896L0.7198,-0.0891"
    />
</svg>
