
<svg 
  class="airfoil-r140"
  fill="none"
  stroke="black" 
  stroke-width="1"
  style="overflow:visible"
  viewBox="0, -0.0646, 1, 0.120299995"
  xmlns="http://www.w3.org/2000/svg">
    <title>R140 (original)</title>
    <path 
      vector-effect="non-scaling-stroke"
      d="M1,-0L0.9724,-0.0041L0.9448,-0.0076L0.9183,-0.0118L0.8896,-0.0157L0.8621,-0.0202L0.8345,-0.0242L0.8069,-0.0271L0.7793,-0.0314L0.7517,-0.0349L0.7241,-0.038L0.697,-0.0413L0.6696,-0.0443L0.6417,-0.0476L0.6139,-0.0507L0.5878,-0.0531L0.5617,-0.0556L0.533,-0.0583L0.5044,-0.0607L0.4791,-0.0617L0.4522,-0.0631L0.4226,-0.0646L0.393,-0.0643L0.367,-0.0645L0.3409,-0.0638L0.3104,-0.0627L0.2828,-0.0607L0.2552,-0.0588L0.2276,-0.0566L0.2,-0.0533L0.1778,-0.0509L0.1609,-0.0487L0.1444,-0.0461L0.131,-0.0433L0.1172,-0.0407L0.1035,-0.0383L0.0896,-0.0351L0.0759,-0.0322L0.0621,-0.029L0.0483,-0.0251L0.0345,-0.021L0.0276,-0.0183L0.0207,-0.0155L0.0138,-0.0121L0.0069,-0.0076L0.0035,-0.0041L0,-0L0.0035,0.0041L0.0069,0.0076L0.0138,0.0116L0.0207,0.0149L0.0276,0.0175L0.0345,0.0193L0.0483,0.0228L0.0626,0.0261L0.0765,0.0296L0.0904,0.0313L0.1035,0.0339L0.1174,0.0356L0.133,0.0383L0.147,0.04L0.1617,0.0417L0.177,0.043L0.2,0.0457L0.2276,0.0485L0.2552,0.0511L0.2852,0.053L0.3104,0.054L0.3379,0.055L0.3655,0.0553L0.3931,0.0557L0.4207,0.0553L0.4483,0.0547L0.4759,0.0538L0.5034,0.0525L0.5304,0.0513L0.5586,0.0494L0.5862,0.047L0.6138,0.0445L0.6413,0.0417L0.6691,0.0391L0.6966,0.0367L0.7243,0.0345L0.7517,0.0313L0.7793,0.0283L0.8087,0.0244L0.8345,0.0214L0.8621,0.0178L0.8887,0.0147L0.9172,0.0113L0.9448,0.0076L0.9724,0.0041L1,-0"
    />
</svg>
