
<svg 
  class="airfoil-r140sm"
  fill="none"
  stroke="black" 
  stroke-width="1"
  style="overflow:visible"
  viewBox="0, -0.0646, 1, 0.1204"
  xmlns="http://www.w3.org/2000/svg">
    <title>R140 12.04% (smoothed)</title>
    <path 
      vector-effect="non-scaling-stroke"
      d="M1,-0L0.9724,-0.004L0.9448,-0.0079L0.9183,-0.0116L0.8896,-0.0158L0.8621,-0.0198L0.8345,-0.0238L0.8069,-0.0276L0.7793,-0.0312L0.7517,-0.0347L0.7241,-0.038L0.697,-0.0413L0.6696,-0.0444L0.6417,-0.0475L0.6139,-0.0505L0.5878,-0.0532L0.5617,-0.0557L0.533,-0.0582L0.5044,-0.0603L0.4791,-0.0619L0.4522,-0.0632L0.4226,-0.0642L0.393,-0.0646L0.367,-0.0644L0.3409,-0.0638L0.3104,-0.0625L0.2828,-0.0608L0.2552,-0.0587L0.2276,-0.0563L0.2,-0.0534L0.1778,-0.0507L0.1609,-0.0484L0.1444,-0.0458L0.131,-0.0435L0.1172,-0.0409L0.1035,-0.0381L0.0896,-0.0352L0.0759,-0.0322L0.0621,-0.0289L0.0483,-0.0251L0.0345,-0.0207L0.0276,-0.0182L0.0207,-0.0152L0.0138,-0.0119L0.0069,-0.008L0.0035,-0.0055L0,-0L0.0035,0.0055L0.0069,0.0079L0.0138,0.0115L0.0207,0.0144L0.0276,0.017L0.0345,0.0191L0.0483,0.0228L0.0626,0.0261L0.0765,0.029L0.0904,0.0316L0.1035,0.0338L0.1174,0.036L0.133,0.0382L0.147,0.0399L0.1617,0.0417L0.177,0.0435L0.2,0.046L0.2276,0.0487L0.2552,0.051L0.2852,0.053L0.3104,0.0542L0.3379,0.0552L0.3655,0.0557L0.3931,0.0558L0.4207,0.0556L0.4483,0.0549L0.4759,0.054L0.5034,0.0528L0.5304,0.0513L0.5586,0.0493L0.5862,0.047L0.6138,0.0446L0.6413,0.042L0.6691,0.0395L0.6966,0.0369L0.7243,0.0342L0.7517,0.0314L0.7793,0.0282L0.8087,0.0247L0.8345,0.0215L0.8621,0.0181L0.8887,0.0148L0.9172,0.0113L0.9448,0.0078L0.9724,0.0041L1,-0"
    />
</svg>
