
<svg 
  class="airfoil-rae101"
  fill="none"
  stroke="black" 
  stroke-width="1"
  style="overflow:visible"
  viewBox="0, -0.05, 1, 0.1"
  xmlns="http://www.w3.org/2000/svg">
    <title>RAE 101 AIRFOIL</title>
    <path 
      vector-effect="non-scaling-stroke"
      d="M1,-0L0.9875,-0.0011L0.98,-0.0018L0.975,-0.0022L0.96,-0.0036L0.95,-0.0045L0.94,-0.0054L0.925,-0.0067L0.92,-0.0072L0.9,-0.0089L0.88,-0.0107L0.86,-0.0125L0.85,-0.0134L0.84,-0.0143L0.82,-0.0161L0.8,-0.0179L0.78,-0.0197L0.76,-0.0215L0.75,-0.0224L0.74,-0.0233L0.72,-0.025L0.7,-0.0268L0.68,-0.0286L0.66,-0.0303L0.65,-0.0312L0.64,-0.032L0.62,-0.0337L0.6,-0.0353L0.58,-0.0369L0.56,-0.0384L0.55,-0.0392L0.54,-0.0399L0.52,-0.0413L0.5,-0.0427L0.48,-0.0439L0.46,-0.0451L0.45,-0.0457L0.44,-0.0462L0.42,-0.0472L0.4,-0.048L0.38,-0.0487L0.36,-0.0493L0.35,-0.0495L0.34,-0.0497L0.32,-0.05L0.3,-0.05L0.28,-0.0497L0.26,-0.0492L0.25,-0.0489L0.24,-0.0485L0.22,-0.0475L0.2,-0.0463L0.18,-0.0449L0.16,-0.0432L0.15,-0.0422L0.14,-0.0412L0.12,-0.0388L0.1,-0.0361L0.09,-0.0345L0.08,-0.0328L0.075,-0.0319L0.07,-0.031L0.06,-0.0289L0.05,-0.0266L0.04,-0.024L0.035,-0.0225L0.03,-0.0209L0.025,-0.0192L0.02,-0.0172L0.018,-0.0164L0.016,-0.0154L0.014,-0.0145L0.0125,-0.0137L0.012,-0.0134L0.01,-0.0123L0.009,-0.0116L0.008,-0.011L0.0075,-0.0106L0.007,-0.0103L0.006,-0.0095L0.005,-0.0087L0.004,-0.0078L0.003,-0.0068L0.002,-0.0055L0.001,-0.0039L0,-0L0.001,0.0039L0.002,0.0055L0.003,0.0068L0.004,0.0078L0.005,0.0087L0.006,0.0095L0.007,0.0103L0.0075,0.0106L0.008,0.011L0.009,0.0116L0.01,0.0123L0.012,0.0134L0.0125,0.0137L0.014,0.0145L0.016,0.0154L0.018,0.0164L0.02,0.0172L0.025,0.0192L0.03,0.0209L0.035,0.0225L0.04,0.024L0.05,0.0266L0.06,0.0289L0.07,0.031L0.075,0.0319L0.08,0.0328L0.09,0.0345L0.1,0.0361L0.12,0.0388L0.14,0.0412L0.15,0.0422L0.16,0.0432L0.18,0.0449L0.2,0.0463L0.22,0.0475L0.24,0.0485L0.25,0.0489L0.26,0.0492L0.28,0.0497L0.3,0.05L0.32,0.05L0.34,0.0497L0.35,0.0495L0.36,0.0493L0.38,0.0487L0.4,0.048L0.42,0.0472L0.44,0.0462L0.45,0.0457L0.46,0.0451L0.48,0.0439L0.5,0.0427L0.52,0.0413L0.54,0.0399L0.55,0.0392L0.56,0.0384L0.58,0.0369L0.6,0.0353L0.62,0.0337L0.64,0.032L0.65,0.0312L0.66,0.0303L0.68,0.0286L0.7,0.0268L0.72,0.025L0.74,0.0233L0.75,0.0224L0.76,0.0215L0.78,0.0197L0.8,0.0179L0.82,0.0161L0.84,0.0143L0.85,0.0134L0.86,0.0125L0.88,0.0107L0.9,0.0089L0.92,0.0072L0.925,0.0067L0.94,0.0054L0.95,0.0045L0.96,0.0036L0.975,0.0022L0.98,0.0018L0.9875,0.0011L1,-0"
    />
</svg>
