
<svg 
  class="airfoil-rae102"
  fill="none"
  stroke="black" 
  stroke-width="1"
  style="overflow:visible"
  viewBox="0, -0.05, 1, 0.1"
  xmlns="http://www.w3.org/2000/svg">
    <title>RAE 102 AIRFOIL</title>
    <path 
      vector-effect="non-scaling-stroke"
      d="M1,-0L0.9875,-0.0012L0.98,-0.0019L0.975,-0.0024L0.96,-0.0038L0.95,-0.0048L0.94,-0.0057L0.925,-0.0072L0.92,-0.0076L0.9,-0.0096L0.88,-0.0115L0.86,-0.0134L0.85,-0.0143L0.84,-0.0153L0.82,-0.0172L0.8,-0.0191L0.78,-0.021L0.76,-0.0229L0.75,-0.0239L0.74,-0.0248L0.72,-0.0267L0.7,-0.0286L0.68,-0.0305L0.66,-0.0323L0.65,-0.0332L0.64,-0.0341L0.62,-0.0358L0.6,-0.0375L0.58,-0.0391L0.56,-0.0407L0.55,-0.0415L0.54,-0.0422L0.52,-0.0436L0.5,-0.0449L0.48,-0.0461L0.46,-0.0472L0.45,-0.0477L0.44,-0.0482L0.42,-0.0489L0.4,-0.0495L0.38,-0.0499L0.36,-0.05L0.35,-0.05L0.34,-0.0499L0.32,-0.0497L0.3,-0.0493L0.28,-0.0488L0.26,-0.048L0.25,-0.0476L0.24,-0.0471L0.22,-0.046L0.2,-0.0447L0.18,-0.0432L0.16,-0.0415L0.15,-0.0405L0.14,-0.0395L0.12,-0.0371L0.1,-0.0344L0.09,-0.0329L0.08,-0.0313L0.075,-0.0304L0.07,-0.0295L0.06,-0.0275L0.05,-0.0253L0.04,-0.0228L0.035,-0.0214L0.03,-0.0199L0.025,-0.0182L0.02,-0.0163L0.018,-0.0155L0.016,-0.0147L0.014,-0.0137L0.0125,-0.013L0.012,-0.0127L0.01,-0.0116L0.009,-0.011L0.008,-0.0104L0.0075,-0.0101L0.007,-0.0098L0.006,-0.009L0.005,-0.0083L0.004,-0.0074L0.003,-0.0064L0.002,-0.0052L0.001,-0.0037L0,-0L0.001,0.0037L0.002,0.0052L0.003,0.0064L0.004,0.0074L0.005,0.0083L0.006,0.009L0.007,0.0098L0.0075,0.0101L0.008,0.0104L0.009,0.011L0.01,0.0116L0.012,0.0127L0.0125,0.013L0.014,0.0137L0.016,0.0147L0.018,0.0155L0.02,0.0163L0.025,0.0182L0.03,0.0199L0.035,0.0214L0.04,0.0228L0.05,0.0253L0.06,0.0275L0.07,0.0295L0.075,0.0304L0.08,0.0313L0.09,0.0329L0.1,0.0344L0.12,0.0371L0.14,0.0395L0.15,0.0405L0.16,0.0415L0.18,0.0432L0.2,0.0447L0.22,0.046L0.24,0.0471L0.25,0.0476L0.26,0.048L0.28,0.0488L0.3,0.0493L0.32,0.0497L0.34,0.0499L0.35,0.05L0.36,0.05L0.38,0.0499L0.4,0.0495L0.42,0.0489L0.44,0.0482L0.45,0.0477L0.46,0.0472L0.48,0.0461L0.5,0.0449L0.52,0.0436L0.54,0.0422L0.55,0.0415L0.56,0.0407L0.58,0.0391L0.6,0.0375L0.62,0.0358L0.64,0.0341L0.65,0.0332L0.66,0.0323L0.68,0.0305L0.7,0.0286L0.72,0.0267L0.74,0.0248L0.75,0.0239L0.76,0.0229L0.78,0.021L0.8,0.0191L0.82,0.0172L0.84,0.0153L0.85,0.0143L0.86,0.0134L0.88,0.0115L0.9,0.0096L0.92,0.0076L0.925,0.0072L0.94,0.0057L0.95,0.0048L0.96,0.0038L0.975,0.0024L0.98,0.0019L0.9875,0.0012L1,-0"
    />
</svg>
