
<svg 
  class="airfoil-rae100"
  fill="none"
  stroke="black" 
  stroke-width="1"
  style="overflow:visible"
  viewBox="0, -0.05, 1, 0.1"
  xmlns="http://www.w3.org/2000/svg">
    <title>RAE 100 AIRFOIL</title>
    <path 
      vector-effect="non-scaling-stroke"
      d="M1,-0L0.9875,-0.0011L0.98,-0.0017L0.975,-0.0021L0.96,-0.0034L0.95,-0.0043L0.94,-0.0051L0.925,-0.0064L0.92,-0.0068L0.9,-0.0086L0.88,-0.0103L0.86,-0.012L0.85,-0.0128L0.84,-0.0137L0.82,-0.0154L0.8,-0.0171L0.78,-0.0188L0.76,-0.0205L0.75,-0.0214L0.74,-0.0222L0.72,-0.024L0.7,-0.0257L0.68,-0.0273L0.66,-0.029L0.65,-0.0298L0.64,-0.0307L0.62,-0.0323L0.6,-0.0339L0.58,-0.0354L0.56,-0.0369L0.55,-0.0377L0.54,-0.0384L0.52,-0.0398L0.5,-0.0412L0.48,-0.0424L0.46,-0.0437L0.45,-0.0442L0.44,-0.0448L0.42,-0.0458L0.4,-0.0468L0.38,-0.0476L0.36,-0.0484L0.35,-0.0487L0.34,-0.049L0.32,-0.0495L0.3,-0.0498L0.28,-0.05L0.26,-0.05L0.25,-0.0499L0.24,-0.0498L0.22,-0.0494L0.2,-0.0487L0.18,-0.0478L0.16,-0.0466L0.15,-0.0459L0.14,-0.045L0.12,-0.043L0.1,-0.0405L0.09,-0.039L0.08,-0.0373L0.075,-0.0364L0.07,-0.0355L0.06,-0.0333L0.05,-0.0309L0.04,-0.028L0.035,-0.0264L0.03,-0.0246L0.025,-0.0226L0.02,-0.0204L0.018,-0.0194L0.016,-0.0183L0.014,-0.0172L0.0125,-0.0163L0.012,-0.016L0.01,-0.0146L0.009,-0.0139L0.008,-0.0131L0.0075,-0.0127L0.007,-0.0123L0.006,-0.0114L0.005,-0.0104L0.004,-0.0093L0.003,-0.0081L0.002,-0.0066L0.001,-0.0047L0,-0L0.001,0.0047L0.002,0.0066L0.003,0.0081L0.004,0.0093L0.005,0.0104L0.006,0.0114L0.007,0.0123L0.0075,0.0127L0.008,0.0131L0.009,0.0139L0.01,0.0146L0.012,0.016L0.0125,0.0163L0.014,0.0172L0.016,0.0183L0.018,0.0194L0.02,0.0204L0.025,0.0226L0.03,0.0246L0.035,0.0264L0.04,0.028L0.05,0.0309L0.06,0.0333L0.07,0.0355L0.075,0.0364L0.08,0.0373L0.09,0.039L0.1,0.0405L0.12,0.043L0.14,0.045L0.15,0.0459L0.16,0.0466L0.18,0.0478L0.2,0.0487L0.22,0.0494L0.24,0.0498L0.25,0.0499L0.26,0.05L0.28,0.05L0.3,0.0498L0.32,0.0495L0.34,0.049L0.35,0.0487L0.36,0.0484L0.38,0.0476L0.4,0.0468L0.42,0.0458L0.44,0.0448L0.45,0.0442L0.46,0.0437L0.48,0.0424L0.5,0.0412L0.52,0.0398L0.54,0.0384L0.55,0.0377L0.56,0.0369L0.58,0.0354L0.6,0.0339L0.62,0.0323L0.64,0.0307L0.65,0.0298L0.66,0.029L0.68,0.0273L0.7,0.0257L0.72,0.024L0.74,0.0222L0.75,0.0214L0.76,0.0205L0.78,0.0188L0.8,0.0171L0.82,0.0154L0.84,0.0137L0.85,0.0128L0.86,0.012L0.88,0.0103L0.9,0.0086L0.92,0.0068L0.925,0.0064L0.94,0.0051L0.95,0.0043L0.96,0.0034L0.975,0.0021L0.98,0.0017L0.9875,0.0011L1,-0"
    />
</svg>
