
<svg 
  class="airfoil-rae103"
  fill="none"
  stroke="black" 
  stroke-width="1"
  style="overflow:visible"
  viewBox="0, -0.05, 1, 0.1"
  xmlns="http://www.w3.org/2000/svg">
    <title>RAE 103 AIRFOIL</title>
    <path 
      vector-effect="non-scaling-stroke"
      d="M1,-0L0.9875,-0.0013L0.98,-0.0021L0.975,-0.0026L0.96,-0.0042L0.95,-0.0052L0.94,-0.0063L0.925,-0.0079L0.92,-0.0084L0.9,-0.0105L0.88,-0.0126L0.86,-0.0147L0.85,-0.0157L0.84,-0.0168L0.82,-0.0189L0.8,-0.021L0.78,-0.0231L0.76,-0.0252L0.75,-0.0262L0.74,-0.0273L0.72,-0.0293L0.7,-0.0314L0.68,-0.0334L0.66,-0.0353L0.65,-0.0363L0.64,-0.0372L0.62,-0.039L0.6,-0.0408L0.58,-0.0424L0.56,-0.044L0.55,-0.0447L0.54,-0.0454L0.52,-0.0466L0.5,-0.0477L0.48,-0.0485L0.46,-0.0491L0.45,-0.0494L0.44,-0.0496L0.42,-0.0498L0.4,-0.05L0.38,-0.05L0.36,-0.0498L0.35,-0.0497L0.34,-0.0496L0.32,-0.0492L0.3,-0.0486L0.28,-0.0479L0.26,-0.0471L0.25,-0.0466L0.24,-0.0461L0.22,-0.0449L0.2,-0.0435L0.18,-0.042L0.16,-0.0402L0.15,-0.0393L0.14,-0.0382L0.12,-0.0359L0.1,-0.0333L0.09,-0.0318L0.08,-0.0302L0.075,-0.0293L0.07,-0.0284L0.06,-0.0265L0.05,-0.0244L0.04,-0.0219L0.035,-0.0206L0.03,-0.0191L0.025,-0.0175L0.02,-0.0157L0.018,-0.0149L0.016,-0.0141L0.014,-0.0132L0.0125,-0.0125L0.012,-0.0122L0.01,-0.0112L0.009,-0.0106L0.008,-0.01L0.0075,-0.0097L0.007,-0.0094L0.006,-0.0087L0.005,-0.0079L0.004,-0.0071L0.003,-0.0062L0.002,-0.005L0.001,-0.0036L0,-0L0.001,0.0036L0.002,0.005L0.003,0.0062L0.004,0.0071L0.005,0.0079L0.006,0.0087L0.007,0.0094L0.0075,0.0097L0.008,0.01L0.009,0.0106L0.01,0.0112L0.012,0.0122L0.0125,0.0125L0.014,0.0132L0.016,0.0141L0.018,0.0149L0.02,0.0157L0.025,0.0175L0.03,0.0191L0.035,0.0206L0.04,0.0219L0.05,0.0244L0.06,0.0265L0.07,0.0284L0.075,0.0293L0.08,0.0302L0.09,0.0318L0.1,0.0333L0.12,0.0359L0.14,0.0382L0.15,0.0393L0.16,0.0402L0.18,0.042L0.2,0.0435L0.22,0.0449L0.24,0.0461L0.25,0.0466L0.26,0.0471L0.28,0.0479L0.3,0.0486L0.32,0.0492L0.34,0.0496L0.35,0.0497L0.36,0.0498L0.38,0.05L0.4,0.05L0.42,0.0498L0.44,0.0496L0.45,0.0494L0.46,0.0491L0.48,0.0485L0.5,0.0477L0.52,0.0466L0.54,0.0454L0.55,0.0447L0.56,0.044L0.58,0.0424L0.6,0.0408L0.62,0.039L0.64,0.0372L0.65,0.0363L0.66,0.0353L0.68,0.0334L0.7,0.0314L0.72,0.0293L0.74,0.0273L0.75,0.0262L0.76,0.0252L0.78,0.0231L0.8,0.021L0.82,0.0189L0.84,0.0168L0.85,0.0157L0.86,0.0147L0.88,0.0126L0.9,0.0105L0.92,0.0084L0.925,0.0079L0.94,0.0063L0.95,0.0052L0.96,0.0042L0.975,0.0026L0.98,0.0021L0.9875,0.0013L1,-0"
    />
</svg>
