
<svg 
  class="airfoil-rae104"
  fill="none"
  stroke="black" 
  stroke-width="1"
  style="overflow:visible"
  viewBox="0, -0.05, 1, 0.1"
  xmlns="http://www.w3.org/2000/svg">
    <title>RAE 104 AIRFOIL</title>
    <path 
      vector-effect="non-scaling-stroke"
      d="M1,-0L0.9875,-0.0015L0.98,-0.0024L0.975,-0.003L0.96,-0.0048L0.95,-0.006L0.94,-0.0071L0.925,-0.0089L0.92,-0.0095L0.9,-0.0119L0.88,-0.0143L0.86,-0.0167L0.85,-0.0179L0.84,-0.0191L0.82,-0.0214L0.8,-0.0238L0.78,-0.0262L0.76,-0.0285L0.75,-0.0297L0.74,-0.0309L0.72,-0.0331L0.7,-0.0353L0.68,-0.0375L0.66,-0.0395L0.65,-0.0404L0.64,-0.0414L0.62,-0.0431L0.6,-0.0446L0.58,-0.0459L0.56,-0.0469L0.55,-0.0474L0.54,-0.0478L0.52,-0.0485L0.5,-0.049L0.48,-0.0495L0.46,-0.0498L0.45,-0.0499L0.44,-0.0499L0.42,-0.05L0.4,-0.0499L0.38,-0.0498L0.36,-0.0495L0.35,-0.0493L0.34,-0.0491L0.32,-0.0486L0.3,-0.0479L0.28,-0.0471L0.26,-0.0462L0.25,-0.0457L0.24,-0.0451L0.22,-0.0439L0.2,-0.0426L0.18,-0.041L0.16,-0.0392L0.15,-0.0383L0.14,-0.0372L0.12,-0.0349L0.1,-0.0323L0.09,-0.0309L0.08,-0.0293L0.075,-0.0285L0.07,-0.0276L0.06,-0.0257L0.05,-0.0236L0.04,-0.0213L0.035,-0.02L0.03,-0.0185L0.025,-0.017L0.02,-0.0152L0.018,-0.0145L0.016,-0.0136L0.014,-0.0128L0.0125,-0.0121L0.012,-0.0118L0.01,-0.0108L0.009,-0.0103L0.008,-0.0097L0.0075,-0.0094L0.007,-0.0091L0.006,-0.0084L0.005,-0.0077L0.004,-0.0069L0.003,-0.006L0.002,-0.0049L0.001,-0.0034L0,-0L0.001,0.0034L0.002,0.0049L0.003,0.006L0.004,0.0069L0.005,0.0077L0.006,0.0084L0.007,0.0091L0.0075,0.0094L0.008,0.0097L0.009,0.0103L0.01,0.0108L0.012,0.0118L0.0125,0.0121L0.014,0.0128L0.016,0.0136L0.018,0.0145L0.02,0.0152L0.025,0.017L0.03,0.0185L0.035,0.02L0.04,0.0213L0.05,0.0236L0.06,0.0257L0.07,0.0276L0.075,0.0285L0.08,0.0293L0.09,0.0309L0.1,0.0323L0.12,0.0349L0.14,0.0372L0.15,0.0383L0.16,0.0392L0.18,0.041L0.2,0.0426L0.22,0.0439L0.24,0.0451L0.25,0.0457L0.26,0.0462L0.28,0.0471L0.3,0.0479L0.32,0.0486L0.34,0.0491L0.35,0.0493L0.36,0.0495L0.38,0.0498L0.4,0.0499L0.42,0.05L0.44,0.0499L0.45,0.0499L0.46,0.0498L0.48,0.0495L0.5,0.049L0.52,0.0485L0.54,0.0478L0.55,0.0474L0.56,0.0469L0.58,0.0459L0.6,0.0446L0.62,0.0431L0.64,0.0414L0.65,0.0404L0.66,0.0395L0.68,0.0375L0.7,0.0353L0.72,0.0331L0.74,0.0309L0.75,0.0297L0.76,0.0285L0.78,0.0262L0.8,0.0238L0.82,0.0214L0.84,0.0191L0.85,0.0179L0.86,0.0167L0.88,0.0143L0.9,0.0119L0.92,0.0095L0.925,0.0089L0.94,0.0071L0.95,0.006L0.96,0.0048L0.975,0.003L0.98,0.0024L0.9875,0.0015L1,-0"
    />
</svg>
