
<svg 
  class="airfoil-rae5212"
  fill="none"
  stroke="black" 
  stroke-width="1"
  style="overflow:visible"
  viewBox="0, -0.0726, 1, 0.1198"
  xmlns="http://www.w3.org/2000/svg">
    <title>RAE(NPL) 5212 AIRFOIL</title>
    <path 
      vector-effect="non-scaling-stroke"
      d="M1,-0L0.9976,-0.0005L0.9904,-0.002L0.9785,-0.0047L0.9619,-0.0086L0.941,-0.0134L0.9157,-0.0186L0.8865,-0.024L0.8536,-0.0298L0.8172,-0.0358L0.7778,-0.042L0.7357,-0.0481L0.6913,-0.054L0.6451,-0.0595L0.5975,-0.0642L0.549,-0.0679L0.5,-0.0705L0.451,-0.0721L0.4024,-0.0726L0.3549,-0.0723L0.3087,-0.0711L0.2643,-0.0692L0.2222,-0.0665L0.1828,-0.0631L0.1464,-0.059L0.1135,-0.0543L0.0843,-0.049L0.059,-0.0432L0.0381,-0.0369L0.03,-0.0334L0.0215,-0.0288L0.015,-0.0241L0.0096,-0.0191L0.008,-0.0174L0.0065,-0.0157L0.005,-0.0137L0.0035,-0.0114L0.0024,-0.0094L0.0016,-0.0077L0.001,-0.006L0.0005,-0.0042L0,-0L0.0005,0.0035L0.001,0.0048L0.0016,0.006L0.0024,0.0072L0.0035,0.0086L0.005,0.01L0.0065,0.0112L0.008,0.0122L0.0096,0.0132L0.015,0.0159L0.0215,0.0183L0.03,0.0209L0.0381,0.0229L0.059,0.0272L0.0843,0.0313L0.1135,0.0351L0.1464,0.0384L0.1828,0.0414L0.2222,0.0439L0.2643,0.0458L0.3087,0.047L0.3549,0.0472L0.4024,0.0462L0.451,0.044L0.5,0.0405L0.549,0.0354L0.5975,0.0295L0.6451,0.0232L0.6913,0.0174L0.7357,0.0125L0.7778,0.0084L0.8172,0.0054L0.8536,0.0031L0.8865,0.0015L0.9157,0.0005L0.941,0.0001L0.9619,-0.0001L0.9785,-0.0001L0.9904,-0L0.9976,-0L1,-0"
    />
</svg>
