
<svg 
  class="airfoil-rae5214"
  fill="none"
  stroke="black" 
  stroke-width="1"
  style="overflow:visible"
  viewBox="0, -0.0578, 1, 0.0969"
  xmlns="http://www.w3.org/2000/svg">
    <title>RAE 5214 AIRFOIL</title>
    <path 
      vector-effect="non-scaling-stroke"
      d="M1,-0L0.9976,-0.0003L0.9904,-0.0013L0.9785,-0.003L0.9619,-0.0056L0.941,-0.0087L0.9157,-0.0124L0.8865,-0.0164L0.8536,-0.0209L0.8172,-0.0258L0.7778,-0.0308L0.7357,-0.0359L0.6913,-0.0407L0.6451,-0.0452L0.5975,-0.0492L0.549,-0.0523L0.5,-0.0548L0.451,-0.0564L0.4024,-0.0574L0.3549,-0.0578L0.3087,-0.0574L0.2643,-0.0564L0.2222,-0.0548L0.1828,-0.0528L0.1464,-0.0505L0.1135,-0.0478L0.0843,-0.0443L0.059,-0.0403L0.0381,-0.035L0.03,-0.0322L0.0215,-0.0284L0.015,-0.0248L0.0096,-0.0209L0.008,-0.0194L0.0065,-0.0178L0.005,-0.0158L0.0035,-0.0134L0.0024,-0.0113L0.0016,-0.0093L0.001,-0.0073L0.0005,-0.0052L0,-0L0.0005,0.0041L0.001,0.0055L0.0016,0.0066L0.0024,0.0078L0.0035,0.009L0.005,0.0103L0.0065,0.0114L0.008,0.0123L0.0096,0.0132L0.015,0.0153L0.0215,0.0173L0.03,0.0195L0.0381,0.0212L0.059,0.0246L0.0843,0.0279L0.1135,0.0307L0.1464,0.0333L0.1828,0.0356L0.2222,0.0373L0.2643,0.0386L0.3087,0.0391L0.3549,0.0389L0.4024,0.0377L0.451,0.0356L0.5,0.0323L0.549,0.0279L0.5975,0.0227L0.6451,0.0172L0.6913,0.012L0.7357,0.0077L0.7778,0.0042L0.8172,0.0018L0.8536,0.0001L0.8865,-0.0009L0.9157,-0.0013L0.941,-0.0013L0.9619,-0.001L0.9785,-0.0006L0.9904,-0.0003L0.9976,-0.0001L1,-0"
    />
</svg>
