
<svg 
  class="airfoil-rae69ck"
  fill="none"
  stroke="black" 
  stroke-width="1"
  style="overflow:visible"
  viewBox="0, -0.0628, 1, 0.121999994"
  xmlns="http://www.w3.org/2000/svg">
    <title>RAE6-9CK AIRFOIL</title>
    <path 
      vector-effect="non-scaling-stroke"
      d="M1,-0L0.9994,-0.0001L0.9976,-0.0005L0.9946,-0.0011L0.9904,-0.002L0.985,-0.0031L0.9785,-0.0044L0.9708,-0.0059L0.9619,-0.0076L0.952,-0.0095L0.941,-0.0116L0.9289,-0.0138L0.9157,-0.0161L0.9016,-0.0186L0.8865,-0.0212L0.8705,-0.0238L0.8536,-0.0266L0.8358,-0.0293L0.8172,-0.0322L0.7979,-0.035L0.7778,-0.0378L0.7571,-0.0406L0.7357,-0.0434L0.7138,-0.046L0.6913,-0.0486L0.6684,-0.051L0.6451,-0.0533L0.6215,-0.0553L0.5975,-0.0572L0.5734,-0.0588L0.549,-0.0602L0.5245,-0.0613L0.5,-0.062L0.4755,-0.0625L0.451,-0.0628L0.4266,-0.0628L0.4025,-0.0626L0.3785,-0.0621L0.3549,-0.0615L0.3316,-0.0607L0.3087,-0.0596L0.2862,-0.0584L0.2643,-0.057L0.2429,-0.0555L0.2222,-0.0538L0.2022,-0.0519L0.1828,-0.0499L0.1642,-0.0477L0.1464,-0.0455L0.1295,-0.0431L0.1135,-0.0406L0.0984,-0.038L0.0843,-0.0354L0.0711,-0.0326L0.059,-0.0299L0.048,-0.0271L0.0381,-0.0242L0.0292,-0.0213L0.0215,-0.0184L0.015,-0.0155L0.0096,-0.0125L0.0054,-0.0094L0.0024,-0.0063L0.0006,-0.0032L0,-0L0.0006,0.0032L0.0024,0.0063L0.0054,0.0094L0.0096,0.0126L0.015,0.0156L0.0215,0.0187L0.0292,0.0217L0.0381,0.0247L0.048,0.0276L0.059,0.0304L0.0711,0.0332L0.0843,0.0358L0.0984,0.0384L0.1135,0.0409L0.1295,0.0433L0.1464,0.0456L0.1642,0.0478L0.1828,0.0498L0.2022,0.0517L0.2222,0.0534L0.2429,0.055L0.2643,0.0564L0.2862,0.0575L0.3087,0.0585L0.3316,0.059L0.3549,0.0592L0.3785,0.059L0.4025,0.0582L0.4266,0.057L0.451,0.0553L0.4755,0.0531L0.5,0.0506L0.5245,0.0477L0.549,0.0446L0.5734,0.0414L0.5975,0.038L0.6215,0.0346L0.6451,0.0312L0.6684,0.0278L0.6913,0.0245L0.7138,0.0213L0.7357,0.0182L0.7571,0.0154L0.7778,0.0127L0.7979,0.0102L0.8172,0.008L0.8358,0.006L0.8536,0.0043L0.8705,0.0028L0.8865,0.0016L0.9016,0.0006L0.9157,-0.0002L0.9289,-0.0007L0.941,-0.001L0.952,-0.0012L0.9619,-0.0012L0.9708,-0.0011L0.9785,-0.0009L0.985,-0.0007L0.9904,-0.0005L0.9946,-0.0003L0.9976,-0.0001L0.9994,-0L1,-0"
    />
</svg>
