
<svg 
  class="airfoil-raf15"
  fill="none"
  stroke="black" 
  stroke-width="1"
  style="overflow:visible"
  viewBox="0, -0.0557, 1, 0.0705"
  xmlns="http://www.w3.org/2000/svg">
    <title>RAF 15 AIRFOIL</title>
    <path 
      vector-effect="non-scaling-stroke"
      d="M1,-0L0.95,-0.012L0.9,-0.0181L0.8,-0.0285L0.7,-0.0366L0.6,-0.0433L0.5,-0.0488L0.4,-0.0532L0.3,-0.0557L0.2,-0.0552L0.15,-0.052L0.1,-0.0459L0.05,-0.0347L0.025,-0.0256L0.0125,-0.0186L0,-0L0.0125,0.0079L0.025,0.0104L0.05,0.0135L0.1,0.0148L0.15,0.0129L0.2,0.0091L0.3,0.0035L0.4,0.0029L0.5,0.0054L0.6,0.0086L0.7,0.0107L0.8,0.0097L0.9,0.0079L0.95,0.0065L1,-0"
    />
</svg>
