
<svg 
  class="airfoil-raf19"
  fill="none"
  stroke="black" 
  stroke-width="1"
  style="overflow:visible"
  viewBox="0, -0.1418, 1, 0.1537"
  xmlns="http://www.w3.org/2000/svg">
    <title>RAF 19 AIRFOIL</title>
    <path 
      vector-effect="non-scaling-stroke"
      d="M1,-0L0.95,-0.0197L0.9,-0.0364L0.8,-0.0638L0.7,-0.0872L0.6,-0.1086L0.5,-0.125L0.4,-0.1374L0.3,-0.1418L0.2,-0.1362L0.15,-0.1259L0.1,-0.1066L0.075,-0.0925L0.05,-0.0733L0.025,-0.0461L0.0125,-0.0271L0,-0L0.0125,0.008L0.025,0.0119L0.05,0.0107L0.075,0.0055L0.1,-0.0026L0.15,-0.0209L0.2,-0.0382L0.3,-0.0588L0.4,-0.0654L0.5,-0.063L0.6,-0.0536L0.7,-0.0422L0.8,-0.0268L0.9,-0.0104L0.95,-0.0017L1,-0"
    />
</svg>
