
<svg 
  class="airfoil-raf28"
  fill="none"
  stroke="black" 
  stroke-width="1"
  style="overflow:visible"
  viewBox="0, -0.0672, 1, 0.099199995"
  xmlns="http://www.w3.org/2000/svg">
    <title>RAF 28 AIRFOIL</title>
    <path 
      vector-effect="non-scaling-stroke"
      d="M1,-0L0.95,-0.0089L0.9,-0.0163L0.8,-0.0293L0.7,-0.0432L0.6,-0.054L0.5,-0.0625L0.4,-0.0672L0.3,-0.067L0.2,-0.06L0.15,-0.0536L0.1,-0.0446L0.075,-0.039L0.05,-0.0313L0.025,-0.021L0.0125,-0.0145L0,-0L0.0125,0.0125L0.025,0.0165L0.05,0.022L0.075,0.0253L0.1,0.0275L0.15,0.0305L0.2,0.032L0.3,0.0312L0.4,0.0286L0.5,0.025L0.6,0.021L0.7,0.016L0.8,0.011L0.9,0.0063L0.95,0.0034L1,-0"
    />
</svg>
