
<svg 
  class="airfoil-raf25"
  fill="none"
  stroke="black" 
  stroke-width="1"
  style="overflow:visible"
  viewBox="0, -0.0416, 1, 0.0656"
  xmlns="http://www.w3.org/2000/svg">
    <title>RAF 25 AIRFOIL</title>
    <path 
      vector-effect="non-scaling-stroke"
      d="M1,-0L0.9498,-0.0062L0.8996,-0.0108L0.7993,-0.0197L0.699,-0.0281L0.5988,-0.0348L0.4986,-0.0393L0.3986,-0.0416L0.2985,-0.041L0.1987,-0.0369L0.1489,-0.0328L0.0991,-0.0274L0.0742,-0.024L0.0493,-0.0191L0.0245,-0.0138L0.0122,-0.0096L0,-0L0.0128,0.0092L0.0254,0.0123L0.0506,0.0162L0.0756,0.0188L0.1007,0.0207L0.1508,0.0228L0.2008,0.024L0.3008,0.0238L0.4008,0.0219L0.5006,0.0184L0.6005,0.0146L0.7004,0.0107L0.8002,0.0072L0.9001,0.004L0.9501,0.0024L1,-0"
    />
</svg>
