
<svg 
  class="airfoil-raf27"
  fill="none"
  stroke="black" 
  stroke-width="1"
  style="overflow:visible"
  viewBox="0, -0.0488, 1, 0.0976"
  xmlns="http://www.w3.org/2000/svg">
    <title>RAF 27 AIRFOIL</title>
    <path 
      vector-effect="non-scaling-stroke"
      d="M1,-0L0.95,-0.0061L0.9,-0.0112L0.8,-0.0208L0.7,-0.0296L0.6,-0.0377L0.5,-0.0437L0.4,-0.0478L0.3,-0.0488L0.2,-0.046L0.15,-0.0424L0.1,-0.0362L0.075,-0.032L0.05,-0.0267L0.025,-0.019L0.0125,-0.0134L0,-0L0.0125,0.0134L0.025,0.019L0.05,0.0267L0.075,0.032L0.1,0.0362L0.15,0.0424L0.2,0.046L0.3,0.0488L0.4,0.0478L0.5,0.0437L0.6,0.0377L0.7,0.0296L0.8,0.0208L0.9,0.0112L0.95,0.0061L1,-0"
    />
</svg>
