
<svg 
  class="airfoil-raf26"
  fill="none"
  stroke="black" 
  stroke-width="1"
  style="overflow:visible"
  viewBox="0, -0.0518, 1, 0.0692"
  xmlns="http://www.w3.org/2000/svg">
    <title>RAF 26 AIRFOIL</title>
    <path 
      vector-effect="non-scaling-stroke"
      d="M1,-0L0.9498,-0.0105L0.8997,-0.0166L0.7994,-0.0283L0.6992,-0.0383L0.5991,-0.0459L0.499,-0.051L0.399,-0.0518L0.299,-0.0507L0.1991,-0.0441L0.1492,-0.0392L0.0993,-0.0324L0.0744,-0.0275L0.0495,-0.0231L0.0247,-0.0162L0.0123,-0.0108L0,-0L0.0126,0.0075L0.0252,0.0105L0.0503,0.0138L0.0753,0.0155L0.1003,0.0164L0.1504,0.0174L0.2004,0.0173L0.3003,0.0154L0.4002,0.0118L0.5002,0.0082L0.6001,0.0051L0.7,0.0026L0.8,0.001L0.9,0.0007L0.95,0.0012L1,-0"
    />
</svg>
