
<svg 
  class="airfoil-raf34"
  fill="none"
  stroke="black" 
  stroke-width="1"
  style="overflow:visible"
  viewBox="0, -0.0832, 1, 0.1264"
  xmlns="http://www.w3.org/2000/svg">
    <title>RAF 34 AIRFOIL</title>
    <path 
      vector-effect="non-scaling-stroke"
      d="M1,-0L0.95,-0.0064L0.9,-0.0126L0.8,-0.027L0.7,-0.0431L0.6,-0.0587L0.5,-0.0721L0.4,-0.0808L0.3,-0.0832L0.2,-0.0772L0.15,-0.0697L0.1,-0.0583L0.075,-0.0512L0.05,-0.0411L0.025,-0.0282L0.0125,-0.0196L0,-0L0.0125,0.0162L0.025,0.0214L0.05,0.0281L0.075,0.0325L0.1,0.0353L0.15,0.0391L0.2,0.0416L0.3,0.0432L0.4,0.0432L0.5,0.0411L0.6,0.0369L0.7,0.0309L0.8,0.023L0.9,0.0134L0.95,0.0076L1,-0"
    />
</svg>
