
<svg 
  class="airfoil-raf31"
  fill="none"
  stroke="black" 
  stroke-width="1"
  style="overflow:visible"
  viewBox="0, -0.0812, 1, 0.1284"
  xmlns="http://www.w3.org/2000/svg">
    <title>RAF 31 AIRFOIL</title>
    <path 
      vector-effect="non-scaling-stroke"
      d="M1,-0L0.95,-0.0114L0.9,-0.02L0.8,-0.0387L0.7,-0.055L0.6,-0.0686L0.5,-0.0777L0.4,-0.0812L0.3,-0.0808L0.25,-0.0768L0.2,-0.0723L0.15,-0.0645L0.1,-0.0537L0.075,-0.047L0.05,-0.0387L0.025,-0.027L0.0125,-0.0179L0,-0L0.0125,0.0173L0.025,0.0228L0.05,0.0309L0.075,0.0355L0.1,0.0389L0.15,0.044L0.2,0.0463L0.25,0.0472L0.3,0.0466L0.4,0.0424L0.5,0.0363L0.6,0.0284L0.7,0.0202L0.8,0.0121L0.9,0.0059L0.95,0.0033L1,-0"
    />
</svg>
