
<svg 
  class="airfoil-raf33"
  fill="none"
  stroke="black" 
  stroke-width="1"
  style="overflow:visible"
  viewBox="0, -0.1101, 1, 0.1328"
  xmlns="http://www.w3.org/2000/svg">
    <title>RAF 33 AIRFOIL</title>
    <path 
      vector-effect="non-scaling-stroke"
      d="M1,-0L0.95,-0.0059L0.9,-0.0114L0.8001,-0.0297L0.7001,-0.0519L0.6002,-0.0742L0.5002,-0.094L0.4003,-0.107L0.3003,-0.1101L0.2002,-0.1011L0.1502,-0.091L0.1002,-0.0746L0.0751,-0.0629L0.0501,-0.0503L0.0251,-0.0339L0.0126,-0.0228L0,-0L0.0125,0.015L0.025,0.0187L0.0499,0.0207L0.075,0.0212L0.1,0.0208L0.1499,0.0198L0.2,0.0185L0.3,0.0163L0.4,0.0174L0.4999,0.02L0.6,0.022L0.6999,0.0227L0.8,0.0209L0.9,0.014L0.95,0.0089L1,-0"
    />
</svg>
