
<svg 
  class="airfoil-raf48"
  fill="none"
  stroke="black" 
  stroke-width="1"
  style="overflow:visible"
  viewBox="0, -0.104, 1, 0.1498"
  xmlns="http://www.w3.org/2000/svg">
    <title>RAF-48 AIRFOIL</title>
    <path 
      vector-effect="non-scaling-stroke"
      d="M1,-0L0.95,-0.01L0.9,-0.0195L0.8,-0.0402L0.7,-0.0605L0.6,-0.0794L0.5,-0.0938L0.4,-0.102L0.3,-0.104L0.2,-0.0953L0.15,-0.0863L0.1,-0.073L0.075,-0.0639L0.05,-0.052L0.025,-0.0365L0.0125,-0.026L0,-0L0.0125,0.0165L0.025,0.0234L0.05,0.0316L0.075,0.0369L0.1,0.0403L0.15,0.0441L0.2,0.0458L0.3,0.0456L0.4,0.0433L0.5,0.039L0.6,0.0336L0.7,0.0265L0.8,0.0183L0.9,0.01L0.95,0.0064L1,-0"
    />
</svg>
