
<svg 
  class="airfoil-raf6prop_sm"
  fill="none"
  stroke="black" 
  stroke-width="1"
  style="overflow:visible"
  viewBox="0.0001, -0.12, 0.9999, 0.12"
  xmlns="http://www.w3.org/2000/svg">
    <title>RAF 6 AIRFOIL</title>
    <desc># 12%, LE rad. 0.012, TE rad. 0.0092, NACA TR259 smoothed</desc>
    <path 
      vector-effect="non-scaling-stroke"
      d="M1,-0.0163L0.9054,-0.0411L0.8424,-0.057L0.7919,-0.0691L0.7539,-0.0776L0.7158,-0.0855L0.6775,-0.0926L0.6519,-0.0969L0.6262,-0.1007L0.5876,-0.1057L0.5489,-0.1099L0.5101,-0.1133L0.4713,-0.116L0.4324,-0.118L0.3935,-0.1193L0.3545,-0.12L0.3156,-0.1199L0.2896,-0.1194L0.2637,-0.1185L0.2378,-0.1171L0.2119,-0.1152L0.186,-0.1126L0.1732,-0.111L0.1603,-0.1092L0.1475,-0.107L0.1348,-0.1044L0.1222,-0.1014L0.1097,-0.098L0.0973,-0.094L0.0852,-0.0894L0.0733,-0.0842L0.0675,-0.0813L0.0618,-0.0782L0.0562,-0.0748L0.0508,-0.0713L0.0456,-0.0675L0.0405,-0.0635L0.0355,-0.0593L0.0307,-0.0549L0.026,-0.0503L0.0215,-0.0456L0.013,-0.0358L0.0089,-0.0308L0.0051,-0.0254L0.0032,-0.0226L0.0017,-0.0198L0.001,-0.0183L0.0006,-0.0168L0.0002,-0.0153L0.0001,-0.0146L0.0001,-0.0138L0.0001,-0.013L0.0002,-0.0123L0.0003,-0.0115L0.0004,-0.0108L0.0009,-0.0093L0.0015,-0.0079L0.0023,-0.0065L0.0032,-0.0053L0.0043,-0.0042L0.0049,-0.0037L0.0055,-0.0033L0.0061,-0.0028L0.0068,-0.0025L0.0081,-0.0018L0.0096,-0.0013L0.0111,-0.001L0.0143,-0.0005L0.0175,-0.0002L0.0305,-0L0.0495,-0L0.0956,-0L0.1957,-0L0.5627,-0L1,-0"
    />
</svg>
