
<svg 
  class="airfoil-rc08b3"
  fill="none"
  stroke="black" 
  stroke-width="1"
  style="overflow:visible"
  viewBox="0, -0.0509, 1, 0.0803"
  xmlns="http://www.w3.org/2000/svg">
    <title>NASA/LANGLEY RC-08(B)3 AIRFOIL</title>
    <path 
      vector-effect="non-scaling-stroke"
      d="M1,-0.0013L0.9678,-0.0049L0.9354,-0.0086L0.9028,-0.0127L0.8693,-0.0169L0.8346,-0.0211L0.7984,-0.0253L0.7606,-0.0294L0.7215,-0.0334L0.6824,-0.037L0.6437,-0.0402L0.6055,-0.043L0.5677,-0.0453L0.5298,-0.0472L0.492,-0.0488L0.454,-0.0499L0.4161,-0.0506L0.3784,-0.0509L0.3412,-0.0507L0.3048,-0.0502L0.2696,-0.0493L0.2356,-0.0479L0.203,-0.0461L0.1719,-0.0438L0.1424,-0.041L0.1147,-0.0377L0.0889,-0.0339L0.0651,-0.0295L0.0437,-0.0246L0.0253,-0.019L0.0117,-0.0131L0.0031,-0.0067L0,-0L0.0031,0.0066L0.0117,0.011L0.0253,0.0144L0.0437,0.0173L0.0651,0.0195L0.0889,0.0213L0.1147,0.0228L0.1424,0.024L0.1719,0.0251L0.203,0.0261L0.2356,0.0269L0.2696,0.0279L0.3048,0.0285L0.3412,0.0288L0.3784,0.0291L0.4161,0.0293L0.454,0.0294L0.492,0.0293L0.5298,0.029L0.5677,0.0286L0.6055,0.028L0.6437,0.0271L0.6824,0.026L0.7215,0.0247L0.7606,0.023L0.7984,0.021L0.8346,0.0187L0.8693,0.016L0.9028,0.0129L0.9354,0.0094L0.9678,0.0051L1,0.0005"
    />
</svg>
