
<svg 
  class="airfoil-rc0864c"
  fill="none"
  stroke="black" 
  stroke-width="1"
  style="overflow:visible"
  viewBox="0, -0.0499, 1, 0.0801"
  xmlns="http://www.w3.org/2000/svg">
    <title>NASA/LANGLEY RC08-64C AIRFOIL</title>
    <path 
      vector-effect="non-scaling-stroke"
      d="M1,-0.0008L0.961,-0.0063L0.9501,-0.0078L0.9219,-0.0115L0.9002,-0.0143L0.8433,-0.0212L0.8004,-0.0259L0.7652,-0.0295L0.7005,-0.0354L0.6494,-0.0395L0.6006,-0.0428L0.5737,-0.0444L0.5005,-0.0478L0.4638,-0.0489L0.4,-0.0499L0.35,-0.0497L0.3235,-0.0493L0.2998,-0.0487L0.2894,-0.0484L0.2495,-0.0468L0.2229,-0.0454L0.1993,-0.0439L0.149,-0.0397L0.1321,-0.0379L0.0989,-0.0338L0.0801,-0.031L0.0739,-0.0299L0.0574,-0.0269L0.0489,-0.0251L0.0381,-0.0225L0.0239,-0.0183L0.0115,-0.0131L0.0102,-0.0125L0.0003,-0.007L0,-0L0.0003,0.0058L0.0102,0.0098L0.0135,0.0109L0.0261,0.0142L0.0381,0.0167L0.0511,0.0184L0.0574,0.0191L0.0761,0.0209L0.0801,0.0212L0.1011,0.0226L0.1321,0.0242L0.151,0.0251L0.2007,0.0267L0.2229,0.0273L0.2505,0.028L0.2894,0.0288L0.3002,0.029L0.3235,0.0294L0.35,0.0297L0.3998,0.0301L0.4638,0.0302L0.4995,0.0299L0.5366,0.0295L0.5994,0.0281L0.6494,0.0264L0.6995,0.0243L0.7652,0.0206L0.7996,0.0184L0.8433,0.0152L0.8998,0.0106L0.9219,0.0086L0.9499,0.006L0.961,0.0049L1,0.0008"
    />
</svg>
