
<svg 
  class="airfoil-rc08n1"
  fill="none"
  stroke="black" 
  stroke-width="1"
  style="overflow:visible"
  viewBox="0, -0.055, 1, 0.0808"
  xmlns="http://www.w3.org/2000/svg">
    <title>NASA/LANGLEY RC-08(N)1 AIRFOIL</title>
    <path 
      vector-effect="non-scaling-stroke"
      d="M1,-0.0006L0.9749,-0.0019L0.9499,-0.0034L0.925,-0.0051L0.9,-0.007L0.875,-0.0092L0.8502,-0.0114L0.8253,-0.0139L0.8005,-0.0166L0.7758,-0.0195L0.751,-0.0225L0.726,-0.0258L0.7011,-0.029L0.6762,-0.0322L0.6511,-0.0353L0.6261,-0.0383L0.6011,-0.0411L0.576,-0.0436L0.551,-0.0459L0.526,-0.048L0.5009,-0.0499L0.4759,-0.0515L0.4508,-0.0528L0.4257,-0.0538L0.4006,-0.0545L0.3755,-0.0549L0.3504,-0.055L0.3001,-0.0545L0.2498,-0.0527L0.2246,-0.0513L0.1994,-0.0495L0.1741,-0.0473L0.1489,-0.0446L0.1237,-0.0414L0.0986,-0.0376L0.0735,-0.0329L0.048,-0.0269L0.0232,-0.0185L0.0097,-0.0115L0.0034,-0.0064L0.0008,-0.003L0,-0L0.0042,0.0048L0.0066,0.0057L0.0153,0.0065L0.0267,0.0086L0.0519,0.0105L0.0764,0.0122L0.1013,0.0138L0.1262,0.0154L0.151,0.0169L0.1758,0.0182L0.2005,0.0194L0.2252,0.0205L0.25,0.0216L0.2997,0.0234L0.3495,0.0248L0.3743,0.0252L0.3993,0.0256L0.4242,0.0258L0.4491,0.0258L0.474,0.0257L0.4989,0.0254L0.5239,0.0249L0.5489,0.0242L0.5739,0.0235L0.5988,0.0226L0.6238,0.0217L0.6488,0.0208L0.6737,0.0199L0.6988,0.019L0.7239,0.0183L0.749,0.0175L0.7741,0.0168L0.7994,0.0158L0.8246,0.0147L0.8498,0.0132L0.8749,0.0115L0.9,0.0097L0.925,0.0078L0.95,0.0058L0.975,0.0036L1,0.0006"
    />
</svg>
