
<svg 
  class="airfoil-rc10n1"
  fill="none"
  stroke="black" 
  stroke-width="1"
  style="overflow:visible"
  viewBox="0, -0.0644, 1, 0.100600004"
  xmlns="http://www.w3.org/2000/svg">
    <title>NASA/LANGLEY RC-10(N)1 AIRFOIL</title>
    <path 
      vector-effect="non-scaling-stroke"
      d="M1,-0.0008L0.9749,-0.0025L0.9499,-0.0045L0.925,-0.0067L0.9,-0.0091L0.875,-0.0116L0.8502,-0.0144L0.8254,-0.0173L0.8007,-0.0204L0.776,-0.0238L0.7512,-0.0273L0.7262,-0.031L0.7014,-0.0347L0.6762,-0.0384L0.6514,-0.042L0.6263,-0.0454L0.6013,-0.0486L0.5763,-0.0516L0.5512,-0.0542L0.5262,-0.0567L0.5011,-0.0588L0.4761,-0.0606L0.451,-0.0621L0.4258,-0.0632L0.4007,-0.0639L0.3756,-0.0643L0.3504,-0.0644L0.3001,-0.0635L0.2497,-0.0613L0.2245,-0.0596L0.1992,-0.0574L0.1738,-0.0547L0.1486,-0.0515L0.1233,-0.0476L0.0982,-0.0431L0.0731,-0.0377L0.0475,-0.0306L0.0228,-0.0211L0.009,-0.013L0.0029,-0.0071L0.0004,-0.0025L0,-0L0.0046,0.0067L0.0071,0.0079L0.016,0.0106L0.0272,0.0127L0.0524,0.016L0.0768,0.0186L0.1017,0.021L0.1265,0.0232L0.1513,0.0252L0.176,0.027L0.2006,0.0286L0.2253,0.0301L0.2501,0.0315L0.2997,0.0337L0.3494,0.0353L0.3742,0.0358L0.3991,0.0361L0.424,0.0362L0.4489,0.0361L0.4738,0.0357L0.4987,0.0351L0.5237,0.0343L0.5486,0.0333L0.5736,0.0322L0.5986,0.0309L0.6235,0.0295L0.6485,0.028L0.6735,0.0266L0.6985,0.0252L0.7237,0.0239L0.7487,0.0227L0.7739,0.0214L0.7993,0.02L0.8246,0.0183L0.8498,0.0164L0.8749,0.0142L0.9,0.0118L0.925,0.0094L0.95,0.007L0.975,0.0043L1,0.0008"
    />
</svg>
