
<svg 
  class="airfoil-rc10b3"
  fill="none"
  stroke="black" 
  stroke-width="1"
  style="overflow:visible"
  viewBox="0, -0.0667, 1, 0.1003"
  xmlns="http://www.w3.org/2000/svg">
    <title>NASA/LANGLEY RC-10(B)3 AIRFOIL</title>
    <path 
      vector-effect="non-scaling-stroke"
      d="M1,-0.0018L0.9683,-0.006L0.9363,-0.0105L0.9041,-0.0156L0.8708,-0.021L0.8362,-0.0264L0.8,-0.032L0.7618,-0.0376L0.7223,-0.043L0.6828,-0.0479L0.6438,-0.0522L0.6055,-0.0559L0.5675,-0.0591L0.5295,-0.0617L0.4915,-0.0638L0.4534,-0.0653L0.4152,-0.0663L0.3773,-0.0667L0.3399,-0.0666L0.3034,-0.066L0.2681,-0.0647L0.234,-0.0629L0.2014,-0.0605L0.1702,-0.0575L0.1408,-0.0538L0.113,-0.0494L0.0872,-0.0443L0.0635,-0.0385L0.0421,-0.0319L0.024,-0.0246L0.0109,-0.017L0.0031,-0.0091L0,-0L0.0031,0.0077L0.0109,0.0123L0.024,0.0162L0.0421,0.0195L0.0635,0.022L0.0872,0.024L0.113,0.0256L0.1408,0.027L0.1702,0.0282L0.2014,0.0292L0.234,0.0302L0.2681,0.0311L0.3034,0.0318L0.3399,0.0325L0.3773,0.033L0.4152,0.0334L0.4534,0.0336L0.4915,0.0336L0.5295,0.0335L0.5675,0.0331L0.6055,0.0326L0.6438,0.0318L0.6828,0.0308L0.7223,0.0294L0.7618,0.0276L0.8,0.0254L0.8362,0.0227L0.8708,0.0196L0.9041,0.0159L0.9363,0.0117L0.9683,0.0063L1,0.0002"
    />
</svg>
