
<svg 
  class="airfoil-rc1064c"
  fill="none"
  stroke="black" 
  stroke-width="1"
  style="overflow:visible"
  viewBox="0, -0.0599, 1, 0.1"
  xmlns="http://www.w3.org/2000/svg">
    <title>NASA/LANGLEY RC10-64C AIRFOIL</title>
    <path 
      vector-effect="non-scaling-stroke"
      d="M1,-0.001L0.9501,-0.0095L0.922,-0.0104L0.9003,-0.0174L0.8443,-0.0256L0.8005,-0.0314L0.767,-0.0356L0.7007,-0.0429L0.6521,-0.0474L0.6007,-0.0516L0.5396,-0.0555L0.5006,-0.0575L0.4667,-0.0586L0.4002,-0.0599L0.35,-0.0596L0.3254,-0.0591L0.2997,-0.0584L0.2494,-0.0561L0.2238,-0.0545L0.1991,-0.0527L0.1611,-0.0491L0.1488,-0.0478L0.1323,-0.0457L0.0986,-0.0409L0.0802,-0.0376L0.0736,-0.0363L0.0577,-0.0328L0.0486,-0.0305L0.0384,-0.0275L0.0236,-0.0224L0.0113,-0.0161L0.0036,-0.0091L0,-0L0.0036,0.0074L0.0137,0.0139L0.0264,0.0183L0.0384,0.0213L0.0514,0.0238L0.0577,0.0248L0.0764,0.0273L0.0802,0.0277L0.1014,0.0297L0.1323,0.032L0.1512,0.0332L0.1611,0.0337L0.2009,0.0336L0.2238,0.0365L0.2506,0.0374L0.3003,0.0387L0.3254,0.0393L0.35,0.0396L0.3998,0.0401L0.4667,0.04L0.4994,0.0397L0.5396,0.0388L0.5993,0.0369L0.6521,0.0345L0.6993,0.0317L0.767,0.0268L0.7995,0.024L0.8443,0.0197L0.8997,0.0137L0.922,0.0111L0.9499,0.0077L1,0.001"
    />
</svg>
