
<svg 
  class="airfoil-rc12b3"
  fill="none"
  stroke="black" 
  stroke-width="1"
  style="overflow:visible"
  viewBox="0, -0.0819, 1, 0.120900005"
  xmlns="http://www.w3.org/2000/svg">
    <title>NASA/LANGLEY RC-12(B)3 AIRFOIL</title>
    <path 
      vector-effect="non-scaling-stroke"
      d="M1,-0.0012L0.9675,-0.0062L0.9362,-0.0114L0.9056,-0.017L0.8744,-0.0231L0.8415,-0.0296L0.8053,-0.0367L0.7671,-0.0437L0.7272,-0.0507L0.6871,-0.057L0.6475,-0.0627L0.6088,-0.0676L0.5703,-0.0717L0.5321,-0.0752L0.4939,-0.0779L0.4558,-0.08L0.4177,-0.0813L0.3801,-0.0819L0.3429,-0.0819L0.3066,-0.081L0.2713,-0.0795L0.2372,-0.0771L0.2044,-0.074L0.173,-0.0701L0.1433,-0.0653L0.1153,-0.0598L0.0892,-0.0533L0.0652,-0.0459L0.0438,-0.0376L0.026,-0.0286L0.0125,-0.0194L0.0037,-0.01L0,-0L0.0037,0.009L0.0125,0.0157L0.026,0.0208L0.0438,0.0249L0.0652,0.0278L0.0892,0.0298L0.1153,0.0313L0.1433,0.0325L0.173,0.0335L0.2044,0.0344L0.2372,0.0352L0.2713,0.036L0.3066,0.0368L0.3429,0.0374L0.3801,0.038L0.4177,0.0385L0.4558,0.0388L0.4939,0.039L0.5321,0.039L0.5703,0.0389L0.6088,0.0385L0.6475,0.0379L0.6871,0.0369L0.7272,0.0355L0.7671,0.0336L0.8053,0.0312L0.8415,0.0282L0.8744,0.0249L0.9056,0.0207L0.9362,0.0154L0.9675,0.0089L1,0.0012"
    />
</svg>
