
<svg 
  class="airfoil-rc1264c"
  fill="none"
  stroke="black" 
  stroke-width="1"
  style="overflow:visible"
  viewBox="0, -0.0699, 1, 0.12"
  xmlns="http://www.w3.org/2000/svg">
    <title>NASA/LANGLEY RC12-64C AIRFOIL</title>
    <path 
      vector-effect="non-scaling-stroke"
      d="M1,-0.0012L0.9502,-0.0112L0.9003,-0.0205L0.8452,-0.03L0.8006,-0.037L0.7682,-0.0417L0.7008,-0.0503L0.6539,-0.0556L0.6009,-0.0605L0.5414,-0.0649L0.5007,-0.0672L0.4682,-0.0685L0.4003,-0.0699L0.35,-0.0696L0.2996,-0.0681L0.2493,-0.0655L0.1989,-0.0615L0.1486,-0.0559L0.0983,-0.048L0.0733,-0.0427L0.0569,-0.0386L0.0484,-0.036L0.0378,-0.0327L0.0234,-0.0267L0.011,-0.0191L0.0034,-0.0112L0,-0L0.0034,0.0049L0.014,0.0169L0.0266,0.0224L0.0378,0.0259L0.0516,0.0292L0.0569,0.0302L0.0767,0.0336L0.1017,0.0368L0.1514,0.0413L0.2011,0.0444L0.2507,0.0467L0.3004,0.0484L0.35,0.0496L0.3997,0.0501L0.4682,0.0499L0.4993,0.0494L0.5414,0.0482L0.5991,0.0458L0.6538,0.0426L0.6992,0.0392L0.7682,0.0329L0.7994,0.0295L0.8452,0.0241L0.8997,0.0168L0.9498,0.0094L1,0.0012"
    />
</svg>
