
<svg 
  class="airfoil-rc12n1"
  fill="none"
  stroke="black" 
  stroke-width="1"
  style="overflow:visible"
  viewBox="0, -0.0733, 1, 0.1204"
  xmlns="http://www.w3.org/2000/svg">
    <title>NASA/LANGLEY RC-12(N)1 AIRFOIL</title>
    <path 
      vector-effect="non-scaling-stroke"
      d="M1,-0.001L0.9749,-0.0032L0.9499,-0.0056L0.9249,-0.0082L0.9,-0.011L0.875,-0.014L0.8502,-0.0173L0.8254,-0.0206L0.8008,-0.0242L0.7762,-0.028L0.7514,-0.0319L0.7264,-0.0361L0.7016,-0.0403L0.6767,-0.0444L0.6516,-0.0485L0.6265,-0.0524L0.6015,-0.056L0.5764,-0.0593L0.5514,-0.0623L0.5263,-0.0651L0.5013,-0.0674L0.4762,-0.0694L0.4511,-0.071L0.4259,-0.0722L0.4008,-0.073L0.3756,-0.0733L0.3504,-0.0733L0.3,-0.0722L0.2496,-0.0694L0.2243,-0.0673L0.199,-0.0648L0.1735,-0.0616L0.1482,-0.0578L0.123,-0.0533L0.0978,-0.048L0.0727,-0.0417L0.047,-0.0337L0.0223,-0.0231L0.0083,-0.0139L0.0025,-0.0075L0,-0L0,0.0006L0.0051,0.0089L0.0075,0.0105L0.0167,0.0144L0.0277,0.0174L0.053,0.0222L0.0773,0.0257L0.1021,0.0289L0.1269,0.0317L0.1516,0.0343L0.1763,0.0365L0.2009,0.0385L0.2255,0.0404L0.2502,0.042L0.2998,0.0446L0.3494,0.0463L0.3742,0.0468L0.3991,0.0471L0.4239,0.0471L0.4487,0.0469L0.4736,0.0463L0.4986,0.0454L0.5235,0.0442L0.5484,0.0429L0.5734,0.0413L0.5984,0.0395L0.6233,0.0376L0.6483,0.0356L0.6732,0.0337L0.6983,0.0318L0.7235,0.0299L0.7485,0.0282L0.7737,0.0264L0.7992,0.0244L0.8245,0.0222L0.8498,0.0197L0.8749,0.017L0.9,0.0141L0.925,0.0112L0.95,0.0082L0.9751,0.005L1,0.0009"
    />
</svg>
