
<svg 
  class="airfoil-rc410"
  fill="none"
  stroke="black" 
  stroke-width="1"
  style="overflow:visible"
  viewBox="0, -0.0707, 1, 0.100499995"
  xmlns="http://www.w3.org/2000/svg">
    <title>NASA RC(4)-10 AIRFOIL</title>
    <path 
      vector-effect="non-scaling-stroke"
      d="M1,-0.0008L0.9751,-0.0028L0.9502,-0.0051L0.9254,-0.0075L0.9006,-0.0102L0.8758,-0.0131L0.8511,-0.0161L0.8264,-0.0193L0.8019,-0.0227L0.7774,-0.0263L0.7527,-0.0301L0.7279,-0.0341L0.7032,-0.0381L0.6784,-0.0421L0.6536,-0.046L0.6287,-0.0496L0.6038,-0.0531L0.5789,-0.0563L0.554,-0.0593L0.5291,-0.062L0.5042,-0.0645L0.4793,-0.0665L0.4541,-0.0682L0.4289,-0.0694L0.4038,-0.0702L0.3786,-0.0706L0.3536,-0.0707L0.3036,-0.0703L0.2534,-0.0692L0.2282,-0.0684L0.203,-0.0674L0.1777,-0.0661L0.1523,-0.0645L0.1266,-0.0622L0.1006,-0.0587L0.074,-0.0532L0.0473,-0.0443L0.0238,-0.0315L0.0092,-0.0188L0.0029,-0.01L0,-0L0.0046,0.0102L0.0142,0.0162L0.0163,0.0171L0.025,0.0201L0.0354,0.0227L0.0617,0.0263L0.0848,0.0272L0.1081,0.027L0.1319,0.0264L0.1559,0.0259L0.1803,0.0258L0.2048,0.0259L0.2293,0.0262L0.2539,0.0267L0.3032,0.0277L0.3527,0.0287L0.3775,0.0292L0.4021,0.0295L0.4268,0.0297L0.4513,0.0298L0.4758,0.0296L0.5007,0.0293L0.5255,0.0288L0.5504,0.0281L0.5753,0.0272L0.6001,0.0262L0.625,0.0252L0.6498,0.0242L0.6747,0.0231L0.6996,0.0221L0.7247,0.021L0.7497,0.0199L0.7747,0.0188L0.8,0.0175L0.8252,0.016L0.8503,0.0144L0.8753,0.0126L0.9003,0.0106L0.9252,0.0086L0.9502,0.0064L0.9751,0.004L1,0.0008"
    />
</svg>
