
<svg 
  class="airfoil-rc510"
  fill="none"
  stroke="black" 
  stroke-width="1"
  style="overflow:visible"
  viewBox="0, -0.0713, 1, 0.1004"
  xmlns="http://www.w3.org/2000/svg">
    <title>NASA RC(5)-10 AIRFOIL</title>
    <path 
      vector-effect="non-scaling-stroke"
      d="M1,-0.0008L0.975,-0.0029L0.9502,-0.0051L0.9253,-0.0076L0.9005,-0.0103L0.8757,-0.0132L0.8509,-0.0162L0.8263,-0.0195L0.8017,-0.0229L0.7771,-0.0265L0.7524,-0.0304L0.7276,-0.0344L0.7029,-0.0384L0.6781,-0.0424L0.6532,-0.0463L0.6283,-0.05L0.6034,-0.0535L0.5784,-0.0568L0.5535,-0.0598L0.5286,-0.0625L0.5037,-0.065L0.4788,-0.067L0.4536,-0.0687L0.4282,-0.07L0.4031,-0.0708L0.3779,-0.0712L0.3529,-0.0713L0.3029,-0.0706L0.2526,-0.069L0.2274,-0.0679L0.2022,-0.0665L0.1768,-0.0647L0.1514,-0.0624L0.1258,-0.0593L0.0999,-0.0551L0.0736,-0.049L0.0473,-0.0401L0.0236,-0.0279L0.0094,-0.0167L0.0029,-0.0086L0,-0L0.0034,0.0076L0.0119,0.0124L0.014,0.0132L0.0226,0.0155L0.0333,0.0174L0.0595,0.02L0.083,0.021L0.1066,0.0214L0.1306,0.0216L0.1548,0.022L0.1793,0.0226L0.2038,0.0233L0.2284,0.0241L0.253,0.0249L0.3024,0.0265L0.3519,0.0278L0.3767,0.0284L0.4014,0.0288L0.4261,0.029L0.4506,0.0291L0.4752,0.029L0.5001,0.0287L0.5249,0.0281L0.5498,0.0274L0.5747,0.0266L0.5996,0.0257L0.6245,0.0247L0.6494,0.0237L0.6743,0.0227L0.6993,0.0217L0.7244,0.0207L0.7494,0.0196L0.7745,0.0185L0.7997,0.0173L0.825,0.0159L0.8501,0.0144L0.8752,0.0126L0.9002,0.0105L0.9252,0.0085L0.9501,0.0063L0.9751,0.004L1,0.0008"
    />
</svg>
