
<svg 
  class="airfoil-rcsc2"
  fill="none"
  stroke="black" 
  stroke-width="1"
  style="overflow:visible"
  viewBox="0, -0.055, 1, 0.1"
  xmlns="http://www.w3.org/2000/svg">
    <title>NASA/LANGLEY RC-SC2 AIRFOIL</title>
    <path 
      vector-effect="non-scaling-stroke"
      d="M1,-0.0021L0.975,-0.0067L0.95,-0.0113L0.925,-0.0162L0.9,-0.0206L0.875,-0.0245L0.85,-0.0281L0.825,-0.0314L0.8,-0.0344L0.775,-0.0371L0.75,-0.0396L0.725,-0.0418L0.7,-0.0439L0.675,-0.0457L0.65,-0.0473L0.625,-0.0488L0.6,-0.0501L0.55,-0.0523L0.5,-0.0538L0.45,-0.0547L0.4,-0.055L0.35,-0.0546L0.3,-0.0537L0.25,-0.0522L0.2,-0.05L0.175,-0.0484L0.15,-0.0466L0.125,-0.0443L0.1,-0.0414L0.075,-0.0377L0.05,-0.0328L0.037,-0.0295L0.025,-0.0254L0.012,-0.0194L0.007,-0.0158L0.002,-0.0082L0,-0L0.007,0.0157L0.012,0.0189L0.025,0.0238L0.037,0.0271L0.05,0.0297L0.075,0.0334L0.1,0.0362L0.125,0.0383L0.15,0.0399L0.175,0.0412L0.2,0.0423L0.25,0.0437L0.3,0.0446L0.35,0.045L0.4,0.0447L0.45,0.0439L0.5,0.0426L0.55,0.0407L0.6,0.0383L0.625,0.0369L0.65,0.0354L0.675,0.0338L0.7,0.032L0.725,0.03L0.75,0.028L0.775,0.0258L0.8,0.0234L0.825,0.021L0.85,0.0184L0.875,0.0156L0.9,0.0128L0.925,0.0098L0.95,0.0067L0.975,0.0034L1,-0"
    />
</svg>
