
<svg 
  class="airfoil-rg12a189"
  fill="none"
  stroke="black" 
  stroke-width="1"
  style="overflow:visible"
  viewBox="0, -0.0629, 1, 0.09"
  xmlns="http://www.w3.org/2000/svg">
    <title>RG 12A-1.8/9.0 AIRFOIL</title>
    <path 
      vector-effect="non-scaling-stroke"
      d="M1,-0L0.9966,-0.0006L0.987,-0.0025L0.9719,-0.0055L0.9518,-0.0092L0.9267,-0.0132L0.8968,-0.0177L0.8626,-0.0224L0.8245,-0.0273L0.7831,-0.0323L0.7388,-0.0373L0.6921,-0.0421L0.6437,-0.0467L0.5939,-0.051L0.5434,-0.0549L0.4927,-0.0581L0.4422,-0.0606L0.3925,-0.0622L0.3441,-0.0629L0.2975,-0.0627L0.2531,-0.0614L0.2113,-0.0591L0.1725,-0.0557L0.137,-0.0514L0.1051,-0.0463L0.077,-0.0403L0.0531,-0.0337L0.0334,-0.0267L0.0181,-0.0194L0.0074,-0.0123L0.001,-0.0053L0,-0L0.0035,0.0039L0.0095,0.007L0.022,0.0114L0.0376,0.0148L0.0576,0.0179L0.0814,0.0205L0.1092,0.0227L0.1406,0.0243L0.1755,0.0256L0.2136,0.0265L0.2546,0.027L0.2983,0.0271L0.3442,0.0269L0.392,0.0265L0.4412,0.0257L0.4913,0.0246L0.5419,0.0232L0.5925,0.0214L0.6426,0.0189L0.6915,0.0156L0.7382,0.0118L0.7823,0.0083L0.8237,0.0052L0.8617,0.0027L0.8959,0.0008L0.9259,-0.0003L0.9511,-0.0009L0.9715,-0.0009L0.9868,-0.0006L0.9966,-0.0002L1,-0"
    />
</svg>
