
<svg 
  class="airfoil-rg12"
  fill="none"
  stroke="black" 
  stroke-width="1"
  style="overflow:visible"
  viewBox="0, -0.0601, 1, 0.0928"
  xmlns="http://www.w3.org/2000/svg">
    <title>RG-12</title>
    <path 
      vector-effect="non-scaling-stroke"
      d="M1,-0L0.9966,-0.0005L0.987,-0.0022L0.9719,-0.005L0.9517,-0.0084L0.9266,-0.0121L0.8967,-0.0163L0.8625,-0.0208L0.8245,-0.0256L0.783,-0.0305L0.7387,-0.0354L0.6921,-0.0402L0.6436,-0.0447L0.5938,-0.0489L0.5433,-0.0526L0.4926,-0.0556L0.4421,-0.058L0.3925,-0.0595L0.3442,-0.0601L0.2977,-0.0598L0.2533,-0.0586L0.2116,-0.0563L0.1728,-0.0531L0.1374,-0.0489L0.1055,-0.0439L0.0775,-0.0382L0.0536,-0.0318L0.0339,-0.0249L0.0186,-0.0178L0.0077,-0.0107L0.0014,-0.0039L0,-0L0.0003,0.0016L0.0049,0.0065L0.0148,0.0115L0.0299,0.0162L0.0498,0.0203L0.0746,0.0238L0.104,0.0267L0.1378,0.029L0.1756,0.0307L0.217,0.0319L0.2615,0.0325L0.3088,0.0327L0.3581,0.0323L0.4091,0.0316L0.461,0.0305L0.5133,0.0289L0.5653,0.0269L0.6165,0.0245L0.6663,0.0213L0.7148,0.0173L0.7616,0.0132L0.8062,0.0093L0.8477,0.006L0.8855,0.0034L0.9188,0.0016L0.947,0.0004L0.9697,-0.0002L0.9863,-0.0003L0.9965,-0.0001L1,-0"
    />
</svg>
