
<svg 
  class="airfoil-rg14a147"
  fill="none"
  stroke="black" 
  stroke-width="1"
  style="overflow:visible"
  viewBox="0, -0.0488, 1, 0.070099995"
  xmlns="http://www.w3.org/2000/svg">
    <title>RG 14A-1.4/7.0 AIRFOIL</title>
    <path 
      vector-effect="non-scaling-stroke"
      d="M1,-0L0.9967,-0.0004L0.987,-0.0016L0.9719,-0.0037L0.9516,-0.0064L0.9264,-0.0093L0.8964,-0.0126L0.8621,-0.0162L0.8239,-0.0201L0.7824,-0.024L0.728,-0.0286L0.6912,-0.032L0.6427,-0.0357L0.5929,-0.0392L0.5423,-0.0422L0.4916,-0.0448L0.4412,-0.0468L0.3916,-0.0482L0.3434,-0.0488L0.297,-0.0487L0.2528,-0.0478L0.2112,-0.0461L0.1726,-0.0436L0.1373,-0.0404L0.1056,-0.0364L0.0777,-0.0319L0.0539,-0.0268L0.0343,-0.0213L0.0191,-0.0155L0.008,-0.0098L0.0016,-0.0043L0,-0L0.0031,0.0033L0.0095,0.0062L0.0216,0.0096L0.037,0.0124L0.0568,0.0149L0.0805,0.0169L0.1082,0.0185L0.1396,0.0198L0.1745,0.0206L0.2127,0.0211L0.2538,0.0213L0.2975,0.0212L0.3435,0.0209L0.3914,0.0203L0.4406,0.0195L0.4908,0.0186L0.5414,0.0174L0.5918,0.0161L0.6416,0.0147L0.6903,0.013L0.7373,0.011L0.7818,0.0087L0.8234,0.0063L0.8615,0.0043L0.8959,0.0026L0.926,0.0014L0.9513,0.0006L0.9717,0.0001L0.9869,-0.0001L0.9966,-0.0001L1,-0"
    />
</svg>
