
<svg 
  class="airfoil-rg14"
  fill="none"
  stroke="black" 
  stroke-width="1"
  style="overflow:visible"
  viewBox="0, -0.058, 1, 0.085"
  xmlns="http://www.w3.org/2000/svg">
    <title>RG 14 AIRFOIL</title>
    <path 
      vector-effect="non-scaling-stroke"
      d="M1,-0L0.9967,-0.0004L0.9871,-0.0019L0.9719,-0.0045L0.9517,-0.0076L0.9265,-0.0111L0.8965,-0.0151L0.8622,-0.0194L0.8241,-0.0239L0.7825,-0.0287L0.7382,-0.0334L0.6914,-0.0381L0.6429,-0.0426L0.5931,-0.0467L0.5425,-0.0503L0.4918,-0.0533L0.4413,-0.0557L0.3917,-0.0573L0.3434,-0.058L0.2969,-0.0578L0.2526,-0.0567L0.211,-0.0546L0.1723,-0.0515L0.1369,-0.0476L0.1051,-0.0428L0.0772,-0.0372L0.0534,-0.031L0.0339,-0.0244L0.0187,-0.0174L0.0079,-0.0105L0.0015,-0.0039L0,-0L0.0002,0.0014L0.0047,0.006L0.0145,0.0105L0.0294,0.0147L0.0493,0.0182L0.0741,0.0212L0.1036,0.0235L0.1376,0.0251L0.1756,0.0263L0.2173,0.0269L0.2623,0.027L0.31,0.0268L0.3599,0.0262L0.4114,0.0253L0.464,0.0241L0.517,0.0227L0.5698,0.0211L0.6217,0.0192L0.6723,0.0172L0.7207,0.0148L0.7669,0.0119L0.8106,0.0089L0.8512,0.0061L0.8881,0.0038L0.9206,0.0021L0.9482,0.0009L0.9703,0.0002L0.9865,-0.0001L0.9966,-0.0001L1,-0"
    />
</svg>
