
<svg 
  class="airfoil-rg1495"
  fill="none"
  stroke="black" 
  stroke-width="1"
  style="overflow:visible"
  viewBox="0, -0.0631, 1, 0.0952"
  xmlns="http://www.w3.org/2000/svg">
    <title>RG 14 9.5% AIRFOIL</title>
    <path 
      vector-effect="non-scaling-stroke"
      d="M1,-0L0.9966,-0.0005L0.9865,-0.0022L0.9703,-0.005L0.9482,-0.0087L0.9206,-0.0127L0.8881,-0.0173L0.8512,-0.0223L0.8106,-0.0276L0.7669,-0.0329L0.7207,-0.0382L0.6723,-0.0434L0.6217,-0.0482L0.5698,-0.0526L0.517,-0.0564L0.464,-0.0595L0.4114,-0.0617L0.3599,-0.0629L0.31,-0.0631L0.2623,-0.0621L0.2173,-0.0599L0.1756,-0.0565L0.1376,-0.052L0.1036,-0.0471L0.0741,-0.041L0.0493,-0.0341L0.0294,-0.0266L0.0145,-0.0186L0.0047,-0.0103L0,-0L0.0047,0.0068L0.0145,0.0122L0.0294,0.017L0.0493,0.0212L0.0741,0.0247L0.1036,0.0275L0.1376,0.0296L0.1756,0.031L0.2173,0.0318L0.2623,0.0321L0.31,0.0319L0.3599,0.0313L0.4114,0.0302L0.464,0.0289L0.517,0.0272L0.5698,0.0253L0.6217,0.0231L0.6723,0.0206L0.7207,0.0178L0.7669,0.0145L0.8106,0.011L0.8512,0.0077L0.8881,0.005L0.9206,0.0029L0.9482,0.0014L0.9703,0.0005L0.9865,-0L0.9966,-0.0001L1,-0"
    />
</svg>
