
<svg 
  class="airfoil-rg1410"
  fill="none"
  stroke="black" 
  stroke-width="1"
  style="overflow:visible"
  viewBox="0, -0.0656, 1, 0.1002"
  xmlns="http://www.w3.org/2000/svg">
    <title>RG 14 10% AIRFOIL</title>
    <path 
      vector-effect="non-scaling-stroke"
      d="M1,-0L0.9966,-0.0005L0.9865,-0.0022L0.9703,-0.0052L0.9482,-0.0089L0.9206,-0.0132L0.8881,-0.0179L0.8512,-0.0231L0.8106,-0.0286L0.7669,-0.0342L0.7207,-0.0397L0.6723,-0.045L0.6217,-0.0501L0.5698,-0.0547L0.517,-0.0586L0.464,-0.0618L0.4114,-0.0641L0.3599,-0.0654L0.31,-0.0656L0.2623,-0.0646L0.2173,-0.0623L0.1756,-0.0589L0.1376,-0.0542L0.1036,-0.049L0.0741,-0.0427L0.0493,-0.0356L0.0294,-0.0278L0.0145,-0.0194L0.0047,-0.0107L0,-0L0.0047,0.0073L0.0145,0.013L0.0294,0.0182L0.0493,0.0227L0.0741,0.0264L0.1036,0.0294L0.1376,0.0317L0.1756,0.0333L0.2173,0.0342L0.2623,0.0346L0.31,0.0344L0.3599,0.0338L0.4114,0.0327L0.464,0.0312L0.517,0.0294L0.5698,0.0273L0.6217,0.0249L0.6723,0.0223L0.7207,0.0193L0.7669,0.0158L0.8106,0.012L0.8512,0.0085L0.8881,0.0056L0.9206,0.0033L0.9482,0.0017L0.9703,0.0006L0.9865,0.0001L0.9966,-0L1,-0"
    />
</svg>
