
<svg 
  class="airfoil-rg149"
  fill="none"
  stroke="black" 
  stroke-width="1"
  style="overflow:visible"
  viewBox="0, -0.0606, 1, 0.0903"
  xmlns="http://www.w3.org/2000/svg">
    <title>RG 14 9% AIRFOIL</title>
    <path 
      vector-effect="non-scaling-stroke"
      d="M1,-0L0.9966,-0.0005L0.9865,-0.0021L0.9703,-0.0049L0.9482,-0.0084L0.9206,-0.0123L0.8881,-0.0168L0.8512,-0.0215L0.8106,-0.0266L0.7669,-0.0317L0.7207,-0.0368L0.6723,-0.0417L0.6217,-0.0463L0.5698,-0.0505L0.517,-0.0542L0.464,-0.0572L0.4114,-0.0593L0.3599,-0.0604L0.31,-0.0606L0.2623,-0.0596L0.2173,-0.0575L0.1756,-0.0542L0.1376,-0.0499L0.1036,-0.0451L0.0741,-0.0393L0.0493,-0.0327L0.0294,-0.0255L0.0145,-0.0178L0.0047,-0.0098L0,-0L0.0047,0.0064L0.0145,0.0114L0.0294,0.0159L0.0493,0.0198L0.0741,0.023L0.1036,0.0255L0.1376,0.0274L0.1756,0.0287L0.2173,0.0294L0.2623,0.0297L0.31,0.0294L0.3599,0.0288L0.4114,0.0278L0.464,0.0265L0.517,0.025L0.5698,0.0232L0.6217,0.0212L0.6723,0.019L0.7207,0.0163L0.7669,0.0132L0.8106,0.01L0.8512,0.0069L0.8881,0.0044L0.9206,0.0025L0.9482,0.0012L0.9703,0.0003L0.9865,-0.0001L0.9966,-0.0001L1,-0"
    />
</svg>
