
<svg 
  class="airfoil-rg15"
  fill="none"
  stroke="black" 
  stroke-width="1"
  style="overflow:visible"
  viewBox="0, -0.0619, 1, 0.0898"
  xmlns="http://www.w3.org/2000/svg">
    <title>RG-15 8.9%</title>
    <path 
      vector-effect="non-scaling-stroke"
      d="M1,-0L0.9967,-0.0005L0.9873,-0.0023L0.9724,-0.0051L0.9525,-0.0087L0.9276,-0.0125L0.8981,-0.0169L0.8643,-0.0215L0.8266,-0.0264L0.7856,-0.0315L0.7416,-0.0365L0.6954,-0.0415L0.6472,-0.0461L0.5978,-0.0504L0.5475,-0.0541L0.497,-0.0573L0.4468,-0.0597L0.3973,-0.0612L0.349,-0.0619L0.3025,-0.0616L0.2581,-0.0604L0.2162,-0.0581L0.1773,-0.0549L0.1416,-0.0507L0.1094,-0.0456L0.0811,-0.0399L0.0567,-0.0334L0.0366,-0.0265L0.0208,-0.0193L0.0093,-0.0121L0.0023,-0.0053L0,-0L0,0.0005L0.0034,0.0053L0.0125,0.0101L0.0267,0.0144L0.046,0.0181L0.0701,0.0212L0.099,0.0237L0.1322,0.0256L0.1696,0.0269L0.2107,0.0276L0.2551,0.0279L0.3022,0.0276L0.3516,0.027L0.4026,0.0259L0.4546,0.0245L0.5071,0.0226L0.5594,0.0203L0.6113,0.0172L0.6624,0.0137L0.7124,0.0102L0.7604,0.0069L0.8058,0.0041L0.8478,0.0019L0.8858,0.0003L0.9193,-0.0006L0.9475,-0.001L0.97,-0.001L0.9865,-0.0006L0.9966,-0.0002L1,-0"
    />
</svg>
