
<svg 
  class="airfoil-rg15a111"
  fill="none"
  stroke="black" 
  stroke-width="1"
  style="overflow:visible"
  viewBox="0, -0.0726, 1, 0.1102"
  xmlns="http://www.w3.org/2000/svg">
    <title>RG 15A-1.8/11.0 AIRFOIL</title>
    <path 
      vector-effect="non-scaling-stroke"
      d="M1,-0L0.9967,-0.0006L0.9873,-0.0025L0.9724,-0.0057L0.9525,-0.0096L0.9277,-0.0139L0.8982,-0.0189L0.8644,-0.0242L0.8267,-0.03L0.7857,-0.0359L0.7418,-0.0419L0.6955,-0.0478L0.6473,-0.0534L0.5979,-0.0586L0.5476,-0.0631L0.4971,-0.0669L0.4468,-0.0698L0.3973,-0.0717L0.349,-0.0726L0.3024,-0.0724L0.2579,-0.0711L0.2159,-0.0685L0.1769,-0.0649L0.1412,-0.0601L0.1089,-0.0543L0.0806,-0.0477L0.0562,-0.0402L0.036,-0.0322L0.0203,-0.0238L0.0089,-0.0153L0.0021,-0.0071L0,-0L0.004,0.0064L0.0132,0.0122L0.025,0.0171L0.0416,0.0218L0.0618,0.0259L0.0861,0.0294L0.1141,0.0323L0.1458,0.0345L0.1808,0.0362L0.219,0.0372L0.2601,0.0376L0.3038,0.0375L0.3496,0.0369L0.3972,0.0358L0.4463,0.0342L0.4962,0.032L0.5467,0.0293L0.5971,0.0258L0.6465,0.0216L0.6944,0.0173L0.7405,0.0132L0.7844,0.0095L0.8254,0.0063L0.8631,0.0038L0.8971,0.0019L0.9268,0.0006L0.9518,-0.0002L0.9719,-0.0005L0.987,-0.0004L0.9967,-0.0002L1,-0"
    />
</svg>
