
<svg 
  class="airfoil-rg15a213"
  fill="none"
  stroke="black" 
  stroke-width="1"
  style="overflow:visible"
  viewBox="0, -0.0896, 1, 0.1306"
  xmlns="http://www.w3.org/2000/svg">
    <title>RG 15A 2.5/13.0 AIRFOIL</title>
    <path 
      vector-effect="non-scaling-stroke"
      d="M1,-0L0.9967,-0.0008L0.9873,-0.0032L0.9726,-0.0073L0.9528,-0.0123L0.928,-0.0179L0.8986,-0.024L0.8648,-0.0308L0.8272,-0.0379L0.7861,-0.0452L0.7422,-0.0525L0.6958,-0.0597L0.6476,-0.0664L0.5981,-0.0727L0.548,-0.0781L0.4974,-0.0827L0.4471,-0.0862L0.3973,-0.0885L0.3488,-0.0896L0.3019,-0.0892L0.2572,-0.0875L0.215,-0.0843L0.1757,-0.0796L0.1397,-0.0737L0.1073,-0.0665L0.0788,-0.0581L0.0544,-0.0489L0.0343,-0.039L0.0188,-0.0287L0.0075,-0.0183L0.0016,-0.0084L0,-0L0.0045,0.0074L0.0146,0.0139L0.0265,0.0193L0.0433,0.0246L0.0636,0.029L0.0887,0.0327L0.1158,0.0357L0.1472,0.0381L0.1821,0.0397L0.22,0.0406L0.2608,0.041L0.3042,0.0407L0.3498,0.0399L0.3972,0.0385L0.4461,0.0366L0.4959,0.0342L0.5464,0.0311L0.5968,0.027L0.6462,0.0222L0.6941,0.0173L0.7402,0.0127L0.7839,0.0085L0.8249,0.005L0.8627,0.0023L0.8967,0.0004L0.9265,-0.0008L0.9515,-0.0012L0.9717,-0.0012L0.987,-0.0008L0.9967,-0.0003L1,-0"
    />
</svg>
