
<svg 
  class="airfoil-rg8"
  fill="none"
  stroke="black" 
  stroke-width="1"
  style="overflow:visible"
  viewBox="0, -0.0736, 1, 0.109"
  xmlns="http://www.w3.org/2000/svg">
    <title>RG 8 AIRFOIL</title>
    <path 
      vector-effect="non-scaling-stroke"
      d="M1,-0L0.9966,-0.0008L0.9871,-0.0034L0.9725,-0.0074L0.9532,-0.0121L0.9291,-0.0171L0.9003,-0.0225L0.8672,-0.0282L0.8303,-0.0341L0.7901,-0.04L0.7469,-0.0459L0.7013,-0.0515L0.6538,-0.0567L0.6049,-0.0615L0.5552,-0.0656L0.505,-0.0689L0.4551,-0.0715L0.4058,-0.073L0.3576,-0.0736L0.311,-0.0731L0.2665,-0.0715L0.2244,-0.0688L0.1851,-0.065L0.149,-0.0601L0.1163,-0.0543L0.0872,-0.0476L0.0621,-0.0402L0.041,-0.0323L0.0242,-0.024L0.0117,-0.0158L0.0036,-0.0078L0,-0L0.0022,0.0052L0.0102,0.011L0.0233,0.0165L0.0412,0.0214L0.064,0.0256L0.0914,0.029L0.1232,0.0317L0.1591,0.0336L0.1988,0.0348L0.2419,0.0354L0.2877,0.0353L0.3358,0.0345L0.3856,0.033L0.4365,0.0307L0.4882,0.0273L0.5407,0.0229L0.5936,0.018L0.6463,0.0132L0.6979,0.0086L0.7478,0.0046L0.7952,0.0014L0.8393,-0.001L0.8794,-0.0025L0.9147,-0.0032L0.9446,-0.003L0.9685,-0.0023L0.9859,-0.0013L0.9964,-0.0004L1,-0"
    />
</svg>
