
<svg 
  class="airfoil-rhodesg32"
  fill="none"
  stroke="black" 
  stroke-width="1"
  style="overflow:visible"
  viewBox="0, -0.119, 1, 0.119"
  xmlns="http://www.w3.org/2000/svg">
    <title>Rhode St. Genese 32</title>
    <path 
      vector-effect="non-scaling-stroke"
      d="M1,-0L0.95,-0.0128L0.9,-0.0248L0.8,-0.0495L0.7,-0.0715L0.6,-0.0898L0.5,-0.1045L0.4,-0.1137L0.3,-0.119L0.2,-0.1178L0.15,-0.1085L0.1,-0.0962L0.075,-0.088L0.05,-0.0762L0.025,-0.0623L0.0125,-0.0525L0,-0.0293L0.0125,-0.013L0.025,-0.0072L0.05,-0.0037L0.075,-0.0019L0.1,-0L0.15,-0L0.2,-0L0.3,-0L0.4,-0L0.5,-0L0.6,-0L0.7,-0L0.8,-0L0.9,-0L0.95,-0L1,-0"
    />
</svg>
