
<svg 
  class="airfoil-rhodesg36"
  fill="none"
  stroke="black" 
  stroke-width="1"
  style="overflow:visible"
  viewBox="0, -0.1623, 1, 0.1623"
  xmlns="http://www.w3.org/2000/svg">
    <title>Rhode St. Genese 36</title>
    <path 
      vector-effect="non-scaling-stroke"
      d="M1,-0L0.95,-0.0126L0.9,-0.0338L0.8,-0.0675L0.7,-0.0975L0.6,-0.1224L0.5,-0.1429L0.4,-0.155L0.3,-0.1623L0.2,-0.1599L0.15,-0.1495L0.1,-0.1313L0.075,-0.1195L0.05,-0.1037L0.025,-0.085L0.0125,-0.071L0,-0.04L0.0125,-0.0165L0.025,-0.0099L0.05,-0.005L0.075,-0.0026L0.1,-0L0.15,-0L0.2,-0L0.3,-0L0.4,-0L0.5,-0L0.6,-0L0.7,-0L0.8,-0L0.9,-0L0.95,-0L1,-0"
    />
</svg>
