
<svg 
  class="airfoil-s1014"
  fill="none"
  stroke="black" 
  stroke-width="1"
  style="overflow:visible"
  viewBox="0, -0.0825, 1, 0.165"
  xmlns="http://www.w3.org/2000/svg">
    <title>S1014</title>
    <path 
      vector-effect="non-scaling-stroke"
      d="M1,-0L0.9961,-0.0002L0.9847,-0.0012L0.9662,-0.0034L0.9415,-0.0071L0.9112,-0.0124L0.876,-0.0194L0.8371,-0.028L0.7953,-0.0381L0.752,-0.049L0.7083,-0.0595L0.6641,-0.068L0.6184,-0.0738L0.5706,-0.0778L0.5217,-0.0806L0.472,-0.0821L0.4222,-0.0825L0.3729,-0.082L0.3247,-0.0804L0.2781,-0.0779L0.2337,-0.0746L0.192,-0.0704L0.1535,-0.0654L0.1186,-0.0597L0.0879,-0.0531L0.0615,-0.0458L0.0398,-0.0377L0.0227,-0.0287L0.0103,-0.0192L0.0026,-0.0094L0,-0L0.0026,0.0094L0.0103,0.0192L0.0227,0.0287L0.0398,0.0377L0.0615,0.0458L0.0879,0.0531L0.1186,0.0597L0.1535,0.0654L0.192,0.0704L0.2337,0.0746L0.2781,0.0779L0.3247,0.0804L0.3729,0.082L0.4222,0.0825L0.472,0.0821L0.5217,0.0806L0.5706,0.0778L0.6184,0.0738L0.6641,0.068L0.7083,0.0595L0.752,0.049L0.7953,0.0381L0.8371,0.028L0.876,0.0194L0.9112,0.0124L0.9415,0.0071L0.9662,0.0034L0.9847,0.0012L0.9961,0.0002L1,-0"
    />
</svg>
