
<svg 
  class="airfoil-s1016"
  fill="none"
  stroke="black" 
  stroke-width="1"
  style="overflow:visible"
  viewBox="0, -0.0874, 1, 0.1748"
  xmlns="http://www.w3.org/2000/svg">
    <title>S1016</title>
    <path 
      vector-effect="non-scaling-stroke"
      d="M1,-0L0.996,-0.0002L0.9842,-0.0013L0.9653,-0.0038L0.94,-0.008L0.9091,-0.0141L0.8736,-0.022L0.8346,-0.0318L0.7934,-0.043L0.7513,-0.0544L0.7085,-0.064L0.6639,-0.0713L0.6169,-0.0769L0.5684,-0.0812L0.5187,-0.0844L0.4685,-0.0864L0.4185,-0.0874L0.3691,-0.0874L0.3209,-0.0863L0.2745,-0.0842L0.2305,-0.081L0.1893,-0.0769L0.1513,-0.0718L0.1171,-0.0657L0.0869,-0.0585L0.0611,-0.0504L0.0397,-0.0413L0.0227,-0.0314L0.0104,-0.0209L0.0027,-0.0103L0,-0L0.0027,0.0103L0.0104,0.0209L0.0227,0.0314L0.0397,0.0413L0.0611,0.0504L0.0869,0.0585L0.1171,0.0657L0.1513,0.0718L0.1893,0.0769L0.2305,0.081L0.2745,0.0842L0.3209,0.0863L0.3691,0.0874L0.4185,0.0874L0.4685,0.0864L0.5187,0.0844L0.5684,0.0812L0.6169,0.0769L0.6639,0.0713L0.7085,0.064L0.7513,0.0544L0.7934,0.043L0.8346,0.0318L0.8736,0.022L0.9091,0.0141L0.94,0.008L0.9653,0.0038L0.9842,0.0013L0.996,0.0002L1,-0"
    />
</svg>
