
<svg 
  class="airfoil-s1010"
  fill="none"
  stroke="black" 
  stroke-width="1"
  style="overflow:visible"
  viewBox="0, -0.0301, 1, 0.0602"
  xmlns="http://www.w3.org/2000/svg">
    <title>S1010 HPV airfoil</title>
    <path 
      vector-effect="non-scaling-stroke"
      d="M1,-0L0.9968,-0.0001L0.9874,-0.0006L0.9722,-0.0015L0.9515,-0.0029L0.9257,-0.0047L0.8951,-0.0067L0.86,-0.0092L0.8211,-0.0119L0.7789,-0.0148L0.734,-0.0176L0.6867,-0.0201L0.6374,-0.0222L0.5864,-0.0239L0.5343,-0.0255L0.4817,-0.0268L0.4293,-0.0279L0.3776,-0.0288L0.3273,-0.0295L0.279,-0.03L0.2332,-0.0301L0.1905,-0.0299L0.1515,-0.0293L0.1165,-0.0282L0.0859,-0.0263L0.06,-0.0236L0.0387,-0.02L0.0221,-0.0156L0.0101,-0.0104L0.0026,-0.005L0,-0L0.0026,0.005L0.0101,0.0104L0.0221,0.0156L0.0387,0.02L0.06,0.0236L0.0859,0.0263L0.1165,0.0282L0.1515,0.0293L0.1905,0.0299L0.2332,0.0301L0.279,0.03L0.3273,0.0295L0.3776,0.0288L0.4293,0.0279L0.4817,0.0268L0.5343,0.0255L0.5864,0.0239L0.6374,0.0222L0.6867,0.0201L0.734,0.0176L0.7789,0.0148L0.8211,0.0119L0.86,0.0092L0.8951,0.0067L0.9257,0.0047L0.9515,0.0029L0.9722,0.0015L0.9874,0.0006L0.9968,0.0001L1,-0"
    />
</svg>
