
<svg 
  class="airfoil-s1012"
  fill="none"
  stroke="black" 
  stroke-width="1"
  style="overflow:visible"
  viewBox="0, -0.0601, 1, 0.1202"
  xmlns="http://www.w3.org/2000/svg">
    <title>S1012</title>
    <path 
      vector-effect="non-scaling-stroke"
      d="M1,-0L0.9964,-0.0002L0.9858,-0.0009L0.9687,-0.0026L0.9457,-0.0054L0.9173,-0.0091L0.884,-0.014L0.8466,-0.0199L0.806,-0.0268L0.763,-0.0342L0.7185,-0.0414L0.6727,-0.0474L0.6251,-0.0518L0.5759,-0.0551L0.5255,-0.0575L0.4745,-0.0591L0.4236,-0.0599L0.3732,-0.0601L0.3241,-0.0596L0.2768,-0.0585L0.2318,-0.0567L0.1897,-0.0542L0.1511,-0.0512L0.1162,-0.0475L0.0857,-0.043L0.0597,-0.0377L0.0384,-0.0314L0.0218,-0.0243L0.0098,-0.0164L0.0025,-0.0081L0,-0L0.0025,0.0081L0.0098,0.0164L0.0218,0.0243L0.0384,0.0314L0.0597,0.0377L0.0857,0.043L0.1162,0.0475L0.1511,0.0512L0.1897,0.0542L0.2318,0.0567L0.2768,0.0585L0.3241,0.0596L0.3732,0.0601L0.4236,0.0599L0.4745,0.0591L0.5255,0.0575L0.5759,0.0551L0.6251,0.0518L0.6727,0.0474L0.7185,0.0414L0.763,0.0342L0.806,0.0268L0.8466,0.0199L0.884,0.014L0.9173,0.0091L0.9457,0.0054L0.9687,0.0026L0.9858,0.0009L0.9964,0.0002L1,-0"
    />
</svg>
