
<svg 
  class="airfoil-s102b"
  fill="none"
  stroke="black" 
  stroke-width="1"
  style="overflow:visible"
  viewBox="0, -0.0922, 1, 0.15"
  xmlns="http://www.w3.org/2000/svg">
    <title>SOMERS S102 AIRFOIL (BLUNT)</title>
    <path 
      vector-effect="non-scaling-stroke"
      d="M1,-0.002L0.9969,-0.0027L0.9876,-0.0047L0.9722,-0.0081L0.951,-0.0128L0.9241,-0.0186L0.8919,-0.0255L0.8573,-0.0327L0.8188,-0.0404L0.7771,-0.0484L0.7329,-0.0567L0.6868,-0.065L0.6395,-0.073L0.5916,-0.0803L0.5438,-0.0862L0.4961,-0.0901L0.4483,-0.0919L0.4004,-0.0922L0.353,-0.0911L0.3066,-0.0889L0.2619,-0.0858L0.2194,-0.0818L0.1795,-0.077L0.143,-0.0716L0.1102,-0.0656L0.0818,-0.0589L0.058,-0.0509L0.0384,-0.0417L0.0228,-0.0316L0.0112,-0.0213L0.0036,-0.0112L0.0002,-0.0022L0,-0.0004L0.0001,0.0015L0.0005,0.0031L0.0015,0.0045L0.003,0.006L0.0102,0.0106L0.0245,0.0166L0.0442,0.0224L0.069,0.0281L0.0983,0.0336L0.1318,0.0388L0.169,0.0436L0.2094,0.0479L0.2525,0.0517L0.2977,0.0547L0.3444,0.0568L0.3921,0.0578L0.4401,0.0574L0.4879,0.0549L0.5357,0.0496L0.5849,0.0415L0.6354,0.0325L0.6865,0.0237L0.7368,0.0157L0.7855,0.009L0.8314,0.0038L0.8734,0.0002L0.9107,-0.0018L0.9423,-0.0024L0.9673,-0.002L0.9854,-0.0012L0.9964,-0.0003L1,-0"
    />
</svg>
