
<svg 
  class="airfoil-s1020"
  fill="none"
  stroke="black" 
  stroke-width="1"
  style="overflow:visible"
  viewBox="0.0001, -0.1223, 0.9999, 0.156"
  xmlns="http://www.w3.org/2000/svg">
    <title>S1020 Ornithopter Airfoil</title>
    <path 
      vector-effect="non-scaling-stroke"
      d="M1,-0L0.9964,-0.0013L0.9863,-0.0054L0.9714,-0.012L0.9522,-0.0199L0.9286,-0.0282L0.9004,-0.0372L0.868,-0.0467L0.8321,-0.0567L0.793,-0.0669L0.7515,-0.0771L0.708,-0.0869L0.663,-0.096L0.6169,-0.104L0.57,-0.1108L0.5228,-0.1161L0.4757,-0.1199L0.4289,-0.122L0.3831,-0.1223L0.3384,-0.1208L0.2952,-0.1175L0.2538,-0.1124L0.2145,-0.1058L0.1776,-0.0979L0.1435,-0.0887L0.1125,-0.0785L0.0848,-0.0675L0.0607,-0.056L0.0404,-0.0441L0.024,-0.0323L0.0117,-0.0209L0.0037,-0.0103L0.0001,-0.0011L0.0021,0.006L0.0105,0.0118L0.0245,0.0172L0.0439,0.0219L0.0682,0.026L0.0973,0.0292L0.1308,0.0316L0.1683,0.0331L0.2094,0.0337L0.2538,0.0333L0.3009,0.032L0.3502,0.0296L0.4016,0.026L0.4548,0.0214L0.5094,0.0164L0.5647,0.0113L0.6199,0.0063L0.6744,0.0018L0.7273,-0.002L0.7778,-0.0049L0.8252,-0.0068L0.8684,-0.0076L0.9066,-0.0073L0.9392,-0.0062L0.9653,-0.0044L0.9844,-0.0024L0.9961,-0.0007L1,-0"
    />
</svg>
