
<svg 
  class="airfoil-s1046"
  fill="none"
  stroke="black" 
  stroke-width="1"
  style="overflow:visible"
  viewBox="0, -0.085, 1, 0.17"
  xmlns="http://www.w3.org/2000/svg">
    <title>S1046 17% (Danny Howell)</title>
    <path 
      vector-effect="non-scaling-stroke"
      d="M1,-0L0.9962,-0.0002L0.9851,-0.0013L0.9678,-0.0035L0.9445,-0.0063L0.9156,-0.01L0.8815,-0.0146L0.8428,-0.0201L0.8003,-0.0264L0.7546,-0.0334L0.7064,-0.041L0.6566,-0.0488L0.6057,-0.0567L0.5545,-0.064L0.5032,-0.0704L0.4525,-0.076L0.4028,-0.0803L0.3545,-0.0834L0.3081,-0.085L0.264,-0.0849L0.2225,-0.0832L0.1839,-0.0798L0.1483,-0.0748L0.1161,-0.0681L0.0874,-0.0602L0.0625,-0.0511L0.0414,-0.0411L0.0243,-0.0305L0.0115,-0.0197L0.0031,-0.0093L0,-0L0.0031,0.0093L0.0115,0.0197L0.0243,0.0305L0.0414,0.0411L0.0625,0.0511L0.0874,0.0602L0.1161,0.0681L0.1483,0.0748L0.1839,0.0798L0.2225,0.0832L0.264,0.0849L0.3081,0.085L0.3545,0.0834L0.4028,0.0803L0.4525,0.076L0.5032,0.0704L0.5545,0.064L0.6057,0.0567L0.6566,0.0488L0.7064,0.041L0.7546,0.0334L0.8003,0.0264L0.8428,0.0201L0.8815,0.0146L0.9156,0.01L0.9445,0.0063L0.9678,0.0035L0.9851,0.0013L0.9962,0.0002L1,-0"
    />
</svg>
