
<svg 
  class="airfoil-s1048"
  fill="none"
  stroke="black" 
  stroke-width="1"
  style="overflow:visible"
  viewBox="0, -0.0698, 1, 0.1396"
  xmlns="http://www.w3.org/2000/svg">
    <title>S1048 14% (Danny Howell)</title>
    <path 
      vector-effect="non-scaling-stroke"
      d="M1,-0L0.9963,-0.0002L0.9858,-0.0012L0.9692,-0.003L0.9469,-0.0054L0.919,-0.0084L0.886,-0.012L0.8485,-0.0164L0.807,-0.0214L0.7623,-0.027L0.7148,-0.033L0.6654,-0.0393L0.6147,-0.0456L0.5633,-0.0516L0.5118,-0.0571L0.4607,-0.0618L0.4105,-0.0657L0.3616,-0.0684L0.3147,-0.0698L0.2699,-0.0698L0.2276,-0.0684L0.1882,-0.0656L0.1518,-0.0614L0.1188,-0.0559L0.0894,-0.0492L0.0637,-0.0417L0.0421,-0.0334L0.0247,-0.0247L0.0116,-0.0159L0.0031,-0.0073L0,-0L0.0031,0.0073L0.0116,0.0159L0.0247,0.0247L0.0421,0.0334L0.0637,0.0417L0.0894,0.0492L0.1188,0.0559L0.1518,0.0614L0.1882,0.0656L0.2276,0.0684L0.2699,0.0698L0.3147,0.0698L0.3616,0.0684L0.4105,0.0657L0.4607,0.0618L0.5118,0.0571L0.5633,0.0516L0.6147,0.0456L0.6654,0.0393L0.7148,0.033L0.7623,0.027L0.807,0.0214L0.8485,0.0164L0.886,0.012L0.919,0.0084L0.9469,0.0054L0.9692,0.003L0.9858,0.0012L0.9963,0.0002L1,-0"
    />
</svg>
