
<svg 
  class="airfoil-s1091"
  fill="none"
  stroke="black" 
  stroke-width="1"
  style="overflow:visible"
  viewBox="0, -0.0781, 1, 0.0833"
  xmlns="http://www.w3.org/2000/svg">
    <title>S1091</title>
    <path 
      vector-effect="non-scaling-stroke"
      d="M1,-0L0.9982,-0.0005L0.9931,-0.002L0.9851,-0.0044L0.9743,-0.0075L0.9611,-0.0111L0.9454,-0.0151L0.9272,-0.0192L0.9066,-0.0232L0.8836,-0.0274L0.8582,-0.0316L0.8308,-0.036L0.8014,-0.0404L0.7703,-0.0449L0.7378,-0.0493L0.7039,-0.0537L0.669,-0.0579L0.6334,-0.062L0.5971,-0.0659L0.5606,-0.0694L0.524,-0.0724L0.4875,-0.0748L0.4511,-0.0765L0.415,-0.0776L0.3793,-0.0781L0.3444,-0.078L0.3103,-0.0774L0.2773,-0.0763L0.2456,-0.0746L0.2153,-0.0723L0.1866,-0.0694L0.1595,-0.066L0.1343,-0.0621L0.1111,-0.0578L0.0899,-0.053L0.0708,-0.0479L0.054,-0.0426L0.0395,-0.037L0.0275,-0.0312L0.018,-0.0251L0.0106,-0.0187L0.0051,-0.0123L0.0016,-0.0063L0,-0.0011L0.0003,0.0028L0.0035,0.0047L0.0105,0.0052L0.0208,0.0049L0.0342,0.0038L0.0508,0.0018L0.0705,-0.0012L0.0936,-0.0049L0.1199,-0.0092L0.1493,-0.0139L0.1817,-0.0189L0.2168,-0.0239L0.2545,-0.0288L0.2945,-0.0334L0.3365,-0.0376L0.3803,-0.0411L0.4255,-0.0439L0.4717,-0.0455L0.5185,-0.0459L0.5655,-0.0445L0.6115,-0.041L0.6548,-0.0364L0.6949,-0.0318L0.7332,-0.0279L0.7696,-0.0242L0.8039,-0.0209L0.836,-0.0177L0.8657,-0.0147L0.8929,-0.012L0.9173,-0.0094L0.9388,-0.007L0.9572,-0.0048L0.9724,-0.003L0.9842,-0.0016L0.9928,-0.0007L0.9982,-0.0002L1,-0"
    />
</svg>
