
<svg 
  class="airfoil-s1210"
  fill="none"
  stroke="black" 
  stroke-width="1"
  style="overflow:visible"
  viewBox="0.0002, -0.1209, 0.9998, 0.1392"
  xmlns="http://www.w3.org/2000/svg">
    <title>S1210 12%</title>
    <path 
      vector-effect="non-scaling-stroke"
      d="M1,-0L0.9984,-0.001L0.994,-0.004L0.9875,-0.0083L0.9791,-0.0132L0.9681,-0.0181L0.9544,-0.0233L0.938,-0.0287L0.919,-0.0344L0.8975,-0.0403L0.8738,-0.0464L0.8478,-0.0525L0.8198,-0.0588L0.79,-0.0651L0.7585,-0.0713L0.7256,-0.0775L0.6915,-0.0835L0.6564,-0.0893L0.6206,-0.0949L0.5842,-0.1002L0.5476,-0.105L0.511,-0.1095L0.4747,-0.1133L0.4389,-0.1165L0.4038,-0.1189L0.3695,-0.1205L0.3365,-0.1209L0.3046,-0.12L0.2735,-0.1178L0.2434,-0.1146L0.2145,-0.1105L0.1868,-0.1056L0.1607,-0.0999L0.1362,-0.0936L0.1135,-0.0867L0.0927,-0.0793L0.0739,-0.0715L0.0572,-0.0633L0.0428,-0.0548L0.0307,-0.0459L0.0205,-0.0367L0.0124,-0.0276L0.0063,-0.0187L0.0022,-0.0103L0.0002,-0.0028L0.0002,0.0034L0.0034,0.0077L0.0103,0.0107L0.0207,0.0132L0.0342,0.0153L0.0505,0.0169L0.0696,0.0179L0.0912,0.0183L0.1151,0.0181L0.1412,0.0171L0.1691,0.0152L0.1991,0.0118L0.2316,0.007L0.2667,0.0012L0.3043,-0.005L0.344,-0.0116L0.3857,-0.0181L0.4291,-0.0245L0.4737,-0.0303L0.5192,-0.0355L0.5652,-0.0399L0.6111,-0.0432L0.6567,-0.0454L0.7013,-0.0465L0.7445,-0.0463L0.7857,-0.0448L0.8246,-0.0421L0.8607,-0.0384L0.8935,-0.0336L0.9226,-0.0281L0.9475,-0.0219L0.9679,-0.0153L0.983,-0.0089L0.9928,-0.0039L0.9983,-0.001L1,-0"
    />
</svg>
