
<svg 
  class="airfoil-s1223rtl"
  fill="none"
  stroke="black" 
  stroke-width="1"
  style="overflow:visible"
  viewBox="-0, -0.1386, 1, 0.15400001"
  xmlns="http://www.w3.org/2000/svg">
    <title>S1223 RTL</title>
    <path 
      vector-effect="non-scaling-stroke"
      d="M1,-0L0.9936,-0.0052L0.9842,-0.0127L0.9735,-0.02L0.9606,-0.0267L0.9452,-0.0334L0.9266,-0.0404L0.9049,-0.0477L0.8802,-0.0552L0.8532,-0.0628L0.8246,-0.0702L0.7951,-0.0773L0.7652,-0.084L0.7352,-0.0903L0.7051,-0.0961L0.6751,-0.1014L0.6449,-0.1062L0.6145,-0.1104L0.5837,-0.1142L0.5523,-0.1177L0.5203,-0.1208L0.4877,-0.1238L0.4546,-0.1266L0.4213,-0.1293L0.3883,-0.1319L0.3561,-0.1343L0.3251,-0.1363L0.2959,-0.1378L0.2688,-0.1386L0.2438,-0.1384L0.2205,-0.1372L0.1985,-0.1348L0.1777,-0.1314L0.1578,-0.1268L0.1388,-0.1211L0.1207,-0.1144L0.1035,-0.1067L0.0873,-0.0981L0.0725,-0.089L0.0591,-0.0796L0.0474,-0.0704L0.0375,-0.0617L0.0293,-0.0537L0.0225,-0.0463L0.0171,-0.0395L0.0127,-0.0333L0.0092,-0.0275L0.0063,-0.0222L0.0041,-0.0173L0.0024,-0.0127L0.0011,-0.0084L0.0003,-0.0044L-0,-0.0006L0.0001,0.003L0.001,0.0065L0.0031,0.0096L0.0063,0.0118L0.0102,0.0132L0.0147,0.0141L0.0198,0.0147L0.0257,0.0151L0.0326,0.0153L0.0408,0.0154L0.0507,0.0152L0.0632,0.0146L0.0789,0.0137L0.0987,0.0123L0.1224,0.0101L0.149,0.0072L0.1776,0.0034L0.2079,-0.0011L0.2397,-0.0063L0.2725,-0.0117L0.3058,-0.0172L0.3389,-0.0227L0.3717,-0.028L0.404,-0.0331L0.4358,-0.0378L0.4672,-0.0421L0.498,-0.0459L0.5285,-0.0492L0.5586,-0.0519L0.5884,-0.054L0.618,-0.0555L0.6474,-0.0563L0.6766,-0.0565L0.7057,-0.056L0.7346,-0.0548L0.7634,-0.053L0.792,-0.0504L0.8203,-0.0472L0.8481,-0.0434L0.8748,-0.0389L0.9,-0.0341L0.9229,-0.0289L0.9431,-0.0235L0.9604,-0.018L0.975,-0.0124L0.9873,-0.0068L1,-0"
    />
</svg>
