
<svg 
  class="airfoil-s1223"
  fill="none"
  stroke="black" 
  stroke-width="1"
  style="overflow:visible"
  viewBox="0, -0.1353, 1, 0.1511"
  xmlns="http://www.w3.org/2000/svg">
    <title>S1223</title>
    <path 
      vector-effect="non-scaling-stroke"
      d="M1,-0L0.9984,-0.0013L0.9942,-0.0049L0.9883,-0.0104L0.9808,-0.0165L0.9711,-0.0225L0.9588,-0.0285L0.9439,-0.0348L0.9264,-0.0412L0.9064,-0.0477L0.8841,-0.0543L0.8595,-0.0609L0.8328,-0.0675L0.8041,-0.074L0.7737,-0.0804L0.7417,-0.0867L0.7082,-0.0928L0.6736,-0.0986L0.638,-0.1041L0.6016,-0.1094L0.5646,-0.1142L0.5274,-0.1188L0.4902,-0.123L0.4534,-0.1268L0.4172,-0.1301L0.3819,-0.1327L0.3478,-0.1345L0.3149,-0.1353L0.2835,-0.135L0.2537,-0.1335L0.2254,-0.1304L0.1985,-0.1259L0.1729,-0.1203L0.1486,-0.1135L0.1259,-0.106L0.1048,-0.0977L0.0855,-0.0888L0.0679,-0.0794L0.0522,-0.0697L0.0386,-0.0597L0.0269,-0.0497L0.0176,-0.0396L0.0103,-0.0295L0.0049,-0.0197L0.0016,-0.0103L0,-0.0018L0.0004,0.0056L0.0026,0.0112L0.0079,0.0143L0.0172,0.0155L0.0301,0.0158L0.0463,0.0153L0.0656,0.014L0.0879,0.012L0.1128,0.0093L0.1402,0.0056L0.1701,0.0008L0.2028,-0.0054L0.2384,-0.0121L0.2767,-0.0193L0.3175,-0.0265L0.3604,-0.0336L0.4052,-0.0402L0.4514,-0.0462L0.4986,-0.0513L0.5464,-0.0553L0.5943,-0.0582L0.6418,-0.0598L0.6883,-0.0599L0.7334,-0.0587L0.7766,-0.0561L0.8173,-0.0522L0.855,-0.0471L0.8893,-0.0409L0.9197,-0.0339L0.9457,-0.0262L0.9669,-0.0182L0.9826,-0.0106L0.9927,-0.0047L0.9983,-0.0012L1,-0"
    />
</svg>
