
<svg 
  class="airfoil-s1221"
  fill="none"
  stroke="black" 
  stroke-width="1"
  style="overflow:visible"
  viewBox="0.0004, -0.1047, 1.0014, 0.1277"
  xmlns="http://www.w3.org/2000/svg">
    <title>S1221 w/o flap</title>
    <path 
      vector-effect="non-scaling-stroke"
      d="M1.0018,-0.0105L1.0001,-0.0113L0.9954,-0.0135L0.9883,-0.0168L0.9791,-0.0203L0.9672,-0.0238L0.9525,-0.0273L0.9474,-0.0284L0.8737,-0.042L0.7995,-0.0529L0.7251,-0.0622L0.6507,-0.0715L0.6418,-0.0726L0.6046,-0.0772L0.5668,-0.0816L0.5286,-0.0858L0.4905,-0.0897L0.4526,-0.0935L0.4154,-0.0969L0.379,-0.0999L0.3438,-0.1023L0.3101,-0.104L0.2778,-0.1047L0.2472,-0.1045L0.2184,-0.103L0.1912,-0.1001L0.1657,-0.096L0.1417,-0.0908L0.1192,-0.0846L0.0984,-0.0777L0.0794,-0.0702L0.0622,-0.0622L0.047,-0.0539L0.0339,-0.0453L0.0228,-0.0366L0.0139,-0.0281L0.0073,-0.0197L0.003,-0.0115L0.0007,-0.0038L0.0004,0.0029L0.0027,0.0077L0.0086,0.0112L0.0181,0.0142L0.0307,0.0169L0.0462,0.0191L0.0644,0.0209L0.0852,0.0222L0.1084,0.0229L0.1338,0.023L0.1612,0.0225L0.1903,0.021L0.2212,0.0181L0.2546,0.0139L0.2903,0.0089L0.3281,0.0035L0.3679,-0.0023L0.4093,-0.008L0.452,-0.0136L0.4957,-0.0188L0.5401,-0.0235L0.5846,-0.0274L0.6289,-0.0306L0.6513,-0.0318L0.7263,-0.0353L0.8012,-0.0366L0.8761,-0.0338L0.9508,-0.0247L0.9697,-0.0208L0.9845,-0.0167L0.9944,-0.0133L1,-0.0112L1.0018,-0.0105"
    />
</svg>
