
<svg 
  class="airfoil-s1221-4deg-flap"
  fill="none"
  stroke="black" 
  stroke-width="1"
  style="overflow:visible"
  viewBox="0.0004, -0.1047, 0.9989, 0.1277"
  xmlns="http://www.w3.org/2000/svg">
    <title>S1221 w/ 4 deg flap</title>
    <path 
      vector-effect="non-scaling-stroke"
      d="M0.9993,0.0034L0.9976,0.0025L0.9931,-0L0.9863,-0.0038L0.9773,-0.008L0.9657,-0.0123L0.9513,-0.0168L0.9463,-0.0182L0.8736,-0.037L0.837,-0.0452L0.8222,-0.0483L0.8074,-0.0511L0.7925,-0.0536L0.7775,-0.0557L0.7251,-0.0622L0.6507,-0.0715L0.6418,-0.0726L0.6046,-0.0772L0.5668,-0.0816L0.5286,-0.0858L0.4905,-0.0897L0.4526,-0.0935L0.4154,-0.0969L0.379,-0.0999L0.3438,-0.1023L0.3101,-0.104L0.2778,-0.1047L0.2472,-0.1045L0.2184,-0.103L0.1912,-0.1001L0.1657,-0.096L0.1417,-0.0908L0.1192,-0.0846L0.0984,-0.0777L0.0794,-0.0702L0.0622,-0.0622L0.047,-0.0539L0.0339,-0.0453L0.0228,-0.0366L0.0139,-0.0281L0.0073,-0.0197L0.003,-0.0115L0.0007,-0.0038L0.0004,0.0029L0.0027,0.0077L0.0086,0.0112L0.0181,0.0142L0.0307,0.0169L0.0462,0.0191L0.0644,0.0209L0.0852,0.0222L0.1084,0.0229L0.1338,0.023L0.1612,0.0225L0.1903,0.021L0.2212,0.0181L0.2546,0.0139L0.2903,0.0089L0.3281,0.0035L0.3679,-0.0023L0.4093,-0.008L0.452,-0.0136L0.4957,-0.0188L0.5401,-0.0235L0.5846,-0.0274L0.6289,-0.0306L0.6513,-0.0318L0.7263,-0.0353L0.7713,-0.0365L0.7863,-0.0365L0.8013,-0.0361L0.8163,-0.0353L0.8313,-0.034L0.8755,-0.0286L0.9494,-0.0143L0.9679,-0.0092L0.9824,-0.004L0.9921,0.0001L0.9975,0.0026L0.9992,0.0034"
    />
</svg>
