
<svg 
  class="airfoil-s2027"
  fill="none"
  stroke="black" 
  stroke-width="1"
  style="overflow:visible"
  viewBox="0, -0.0998, 1, 0.1455"
  xmlns="http://www.w3.org/2000/svg">
    <title>S2027</title>
    <path 
      vector-effect="non-scaling-stroke"
      d="M1,-0L0.9965,-0.0004L0.986,-0.0016L0.9692,-0.0041L0.9463,-0.008L0.9183,-0.0132L0.8855,-0.0197L0.8487,-0.0272L0.8085,-0.0356L0.7655,-0.0444L0.7203,-0.0535L0.6733,-0.0624L0.6252,-0.0708L0.5763,-0.0786L0.5272,-0.0855L0.4783,-0.0913L0.4302,-0.0957L0.3831,-0.0986L0.3375,-0.0998L0.2936,-0.0993L0.2519,-0.0971L0.2125,-0.0932L0.1759,-0.0877L0.1422,-0.0806L0.1115,-0.0722L0.0842,-0.0627L0.0603,-0.0524L0.0401,-0.0416L0.0238,-0.0306L0.0116,-0.0199L0.0036,-0.0098L0,-0.0009L0,-0L0.0023,0.0063L0.0108,0.0126L0.0248,0.0189L0.0438,0.0249L0.0675,0.0303L0.0958,0.035L0.1283,0.0389L0.1647,0.042L0.2047,0.0442L0.2477,0.0455L0.2935,0.0457L0.3415,0.045L0.3914,0.0434L0.4426,0.0408L0.4947,0.0372L0.5472,0.0329L0.5999,0.0279L0.6522,0.0228L0.7034,0.0179L0.7527,0.0134L0.7993,0.0095L0.8426,0.0062L0.8818,0.0036L0.9162,0.0017L0.9455,0.0005L0.9688,-0L0.986,-0.0002L0.9965,-0.0001L1,-0"
    />
</svg>
