
<svg 
  class="airfoil-s2046"
  fill="none"
  stroke="black" 
  stroke-width="1"
  style="overflow:visible"
  viewBox="0, -0.0673, 1, 0.0927"
  xmlns="http://www.w3.org/2000/svg">
    <title>S2046</title>
    <path 
      vector-effect="non-scaling-stroke"
      d="M1,-0L0.9968,-0.0005L0.9876,-0.002L0.9726,-0.0046L0.9525,-0.0081L0.9274,-0.0123L0.8966,-0.0172L0.8638,-0.0226L0.8262,-0.0283L0.7855,-0.0343L0.7421,-0.0403L0.6965,-0.046L0.6492,-0.0514L0.6005,-0.0561L0.5511,-0.06L0.5012,-0.0632L0.4514,-0.0654L0.402,-0.0668L0.3537,-0.0673L0.307,-0.067L0.2624,-0.0658L0.2204,-0.0636L0.1813,-0.0603L0.1454,-0.056L0.1129,-0.0507L0.0841,-0.0446L0.0591,-0.038L0.0384,-0.0309L0.0221,-0.0235L0.0104,-0.0159L0.0031,-0.0081L0,-0.0008L0,-0L0.0019,0.0054L0.0092,0.0106L0.0215,0.0154L0.0388,0.0192L0.0609,0.022L0.0881,0.0238L0.12,0.0249L0.1563,0.0254L0.1965,0.0254L0.24,0.0248L0.2864,0.0237L0.3351,0.0221L0.3857,0.0197L0.4377,0.0166L0.4908,0.0128L0.5447,0.0088L0.5986,0.0046L0.6521,0.0007L0.7045,-0.0028L0.7549,-0.0055L0.8027,-0.0072L0.8469,-0.0077L0.8865,-0.0071L0.9207,-0.0058L0.9491,-0.0041L0.9713,-0.0025L0.9872,-0.0012L0.9968,-0.0003L1,-0"
    />
</svg>
