
<svg 
  class="airfoil-s2048"
  fill="none"
  stroke="black" 
  stroke-width="1"
  style="overflow:visible"
  viewBox="0, -0.0609, 1, 0.086899996"
  xmlns="http://www.w3.org/2000/svg">
    <title>S2048</title>
    <path 
      vector-effect="non-scaling-stroke"
      d="M1,-0L0.9967,-0.0004L0.9871,-0.002L0.9717,-0.0047L0.9513,-0.0086L0.9262,-0.0132L0.8968,-0.0182L0.8634,-0.0235L0.8262,-0.0288L0.7857,-0.0342L0.7424,-0.0395L0.6969,-0.0447L0.6497,-0.0493L0.6011,-0.0533L0.5517,-0.0565L0.5018,-0.0588L0.4517,-0.0602L0.4021,-0.0609L0.3535,-0.0609L0.3064,-0.06L0.2613,-0.0585L0.2188,-0.0562L0.1793,-0.0532L0.1432,-0.0494L0.1109,-0.0446L0.0823,-0.0389L0.0576,-0.0326L0.0371,-0.0259L0.0211,-0.0191L0.0095,-0.0122L0.0025,-0.0055L0,0.0003L0.0031,0.0051L0.012,0.0094L0.026,0.0134L0.0452,0.0167L0.0694,0.0193L0.0985,0.0215L0.1321,0.0233L0.1697,0.0246L0.211,0.0255L0.2553,0.026L0.3022,0.026L0.3513,0.0255L0.4019,0.0243L0.4536,0.0226L0.506,0.0203L0.5585,0.0174L0.6108,0.0139L0.6626,0.0105L0.713,0.0072L0.7614,0.0044L0.807,0.0021L0.8491,0.0004L0.8871,-0.0007L0.9204,-0.0012L0.9483,-0.0013L0.9706,-0.001L0.9868,-0.0006L0.9967,-0.0002L1,0"
    />
</svg>
