
<svg 
  class="airfoil-s2050"
  fill="none"
  stroke="black" 
  stroke-width="1"
  style="overflow:visible"
  viewBox="0.0003, -0.0567, 0.9997, 0.0896"
  xmlns="http://www.w3.org/2000/svg">
    <title>S2050 8.93%</title>
    <path 
      vector-effect="non-scaling-stroke"
      d="M1,-0L0.9967,-0.0005L0.9873,-0.0021L0.9725,-0.0048L0.9528,-0.0082L0.9283,-0.0118L0.8989,-0.0156L0.8652,-0.0196L0.8274,-0.0237L0.7861,-0.0281L0.7418,-0.0325L0.6949,-0.0369L0.6462,-0.0413L0.5963,-0.0453L0.5455,-0.0489L0.4945,-0.0519L0.4438,-0.0543L0.3939,-0.0559L0.3453,-0.0567L0.2985,-0.0567L0.2539,-0.0557L0.2119,-0.0538L0.1729,-0.0509L0.1373,-0.0472L0.1053,-0.0426L0.0773,-0.0372L0.0533,-0.0311L0.0336,-0.0245L0.0183,-0.0176L0.0076,-0.0107L0.0014,-0.0039L0.0003,0.0019L0.0048,0.0073L0.0144,0.0129L0.0288,0.0179L0.0479,0.0223L0.0718,0.0258L0.1004,0.0285L0.1334,0.0305L0.1705,0.0319L0.2113,0.0327L0.2554,0.0329L0.3022,0.0326L0.3511,0.0318L0.4017,0.0306L0.4533,0.0288L0.5053,0.0266L0.5572,0.0238L0.6086,0.0201L0.6595,0.0157L0.7094,0.0113L0.7576,0.0072L0.8034,0.0038L0.8459,0.0011L0.8845,-0.0008L0.9185,-0.0019L0.9473,-0.0022L0.9702,-0.0017L0.9867,-0.001L0.9967,-0.0003L1,-0"
    />
</svg>
