
<svg 
  class="airfoil-s2055"
  fill="none"
  stroke="black" 
  stroke-width="1"
  style="overflow:visible"
  viewBox="0.0001, -0.0562, 0.9999, 0.0801"
  xmlns="http://www.w3.org/2000/svg">
    <title>S2055</title>
    <path 
      vector-effect="non-scaling-stroke"
      d="M1,-0L0.9967,-0.0004L0.987,-0.0016L0.9715,-0.004L0.9507,-0.0074L0.9253,-0.0115L0.8955,-0.0161L0.8616,-0.0208L0.8238,-0.0257L0.7828,-0.0307L0.739,-0.0358L0.693,-0.0406L0.6453,-0.045L0.5963,-0.0488L0.5465,-0.0519L0.4963,-0.0541L0.446,-0.0555L0.3963,-0.0562L0.3476,-0.0562L0.3004,-0.0556L0.2555,-0.0542L0.2131,-0.0521L0.1738,-0.0494L0.1382,-0.0459L0.1063,-0.0413L0.0783,-0.0359L0.0542,-0.0299L0.0343,-0.0236L0.0189,-0.017L0.008,-0.0105L0.0017,-0.0042L0.0001,0.001L0.004,0.0054L0.0137,0.0095L0.0286,0.0132L0.0485,0.0162L0.0735,0.0185L0.1034,0.0204L0.1378,0.0219L0.1762,0.0229L0.2183,0.0236L0.2637,0.0239L0.3116,0.0239L0.3617,0.0235L0.4133,0.0229L0.4659,0.0221L0.5189,0.0209L0.5715,0.0195L0.6234,0.0179L0.6738,0.016L0.7222,0.0138L0.7684,0.0113L0.8119,0.0087L0.8521,0.0062L0.8886,0.0039L0.9209,0.0021L0.9483,0.0008L0.9705,0L0.9867,-0.0002L0.9967,-0.0001L1,0"
    />
</svg>
