
<svg 
  class="airfoil-s2062"
  fill="none"
  stroke="black" 
  stroke-width="1"
  style="overflow:visible"
  viewBox="0.0003, -0.056, 0.9997, 0.0818"
  xmlns="http://www.w3.org/2000/svg">
    <title>S2062 8%</title>
    <path 
      vector-effect="non-scaling-stroke"
      d="M1,-0L0.9968,-0.0004L0.9873,-0.0017L0.9722,-0.0039L0.9518,-0.007L0.9265,-0.0106L0.8966,-0.0147L0.8625,-0.0193L0.8247,-0.0242L0.7837,-0.0292L0.7399,-0.0341L0.6939,-0.0388L0.646,-0.043L0.5968,-0.0468L0.5466,-0.0501L0.4962,-0.0527L0.4459,-0.0545L0.3963,-0.0557L0.3478,-0.056L0.301,-0.0555L0.2564,-0.0542L0.2143,-0.052L0.1752,-0.0489L0.1393,-0.0451L0.1071,-0.0404L0.0788,-0.0351L0.0546,-0.0292L0.0346,-0.0229L0.019,-0.0163L0.0079,-0.0098L0.0014,-0.0037L0.0003,0.0015L0.0047,0.0062L0.0143,0.0111L0.0287,0.0154L0.0479,0.0191L0.0719,0.0219L0.1006,0.0239L0.1338,0.0252L0.1711,0.0258L0.2123,0.0258L0.2568,0.0253L0.3043,0.0243L0.3541,0.0229L0.4057,0.0213L0.4585,0.0195L0.5119,0.0175L0.5652,0.0154L0.6177,0.0132L0.669,0.0109L0.7185,0.0084L0.7659,0.006L0.8105,0.0037L0.8517,0.0019L0.8889,0.0006L0.9215,-0.0003L0.949,-0.0007L0.971,-0.0007L0.987,-0.0004L0.9967,-0.0001L1,-0"
    />
</svg>
