
<svg 
  class="airfoil-s2060"
  fill="none"
  stroke="black" 
  stroke-width="1"
  style="overflow:visible"
  viewBox="0.0002, -0.0568, 0.9998, 0.0822"
  xmlns="http://www.w3.org/2000/svg">
    <title>S2060 8%</title>
    <path 
      vector-effect="non-scaling-stroke"
      d="M1,-0L0.9968,-0.0004L0.9873,-0.0017L0.9722,-0.004L0.9519,-0.0071L0.9267,-0.0109L0.8968,-0.0151L0.8628,-0.0197L0.8251,-0.0247L0.7841,-0.0297L0.7405,-0.0347L0.6945,-0.0394L0.6467,-0.0437L0.5975,-0.0476L0.5474,-0.0508L0.497,-0.0534L0.4467,-0.0554L0.3971,-0.0565L0.3487,-0.0568L0.3019,-0.0563L0.2572,-0.0549L0.215,-0.0527L0.1759,-0.0497L0.14,-0.0458L0.1077,-0.0411L0.0793,-0.0358L0.055,-0.0298L0.0349,-0.0234L0.0192,-0.0168L0.008,-0.0102L0.0014,-0.0039L0.0002,0.0015L0.0045,0.0066L0.0135,0.0117L0.0273,0.016L0.0462,0.0194L0.0699,0.022L0.0985,0.0238L0.1317,0.0249L0.169,0.0254L0.2102,0.0252L0.2548,0.0247L0.3022,0.0237L0.3521,0.0223L0.4036,0.0207L0.4564,0.0188L0.5097,0.0168L0.5629,0.0145L0.6156,0.0119L0.6672,0.0092L0.7173,0.0067L0.7652,0.0044L0.8101,0.0025L0.8515,0.0009L0.8889,-0.0001L0.9215,-0.0007L0.9491,-0.001L0.971,-0.0008L0.987,-0.0005L0.9967,-0.0002L1,-0"
    />
</svg>
