
<svg 
  class="airfoil-s2091"
  fill="none"
  stroke="black" 
  stroke-width="1"
  style="overflow:visible"
  viewBox="0.0006, -0.088, 0.9994, 0.1074"
  xmlns="http://www.w3.org/2000/svg">
    <title>S2091-101-83</title>
    <path 
      vector-effect="non-scaling-stroke"
      d="M1,-0L0.9967,-0.0003L0.9871,-0.0015L0.9713,-0.0037L0.9497,-0.007L0.9229,-0.0115L0.8915,-0.0171L0.8559,-0.0237L0.8169,-0.0311L0.775,-0.0389L0.7307,-0.0469L0.6845,-0.0548L0.637,-0.0623L0.5886,-0.0692L0.5397,-0.0752L0.4907,-0.0803L0.4422,-0.0842L0.3945,-0.0868L0.348,-0.088L0.3032,-0.0879L0.2604,-0.0864L0.22,-0.0835L0.1823,-0.0793L0.1477,-0.0738L0.1162,-0.0671L0.0882,-0.0593L0.0638,-0.0506L0.0432,-0.0413L0.0265,-0.0317L0.0137,-0.022L0.0052,-0.0127L0.0008,-0.004L0.0006,0.0031L0.0058,0.0086L0.0166,0.0132L0.0326,0.0165L0.054,0.0184L0.0806,0.0193L0.1124,0.0194L0.1488,0.0187L0.1896,0.0175L0.2342,0.0158L0.2821,0.0137L0.3327,0.0114L0.3856,0.0089L0.44,0.0064L0.4953,0.004L0.5509,0.0017L0.6061,-0.0003L0.6601,-0.0018L0.7122,-0.003L0.7617,-0.0037L0.808,-0.004L0.8504,-0.0039L0.8884,-0.0035L0.9214,-0.003L0.9491,-0.0022L0.9711,-0.0014L0.9871,-0.0007L0.9967,-0.0002L1,-0"
    />
</svg>
