
<svg 
  class="airfoil-s3"
  fill="none"
  stroke="black" 
  stroke-width="1"
  style="overflow:visible"
  viewBox="0, -0.0711, 1, 0.111099996"
  xmlns="http://www.w3.org/2000/svg">
    <title>REPUBLIC S-3 AIRFOIL</title>
    <path 
      vector-effect="non-scaling-stroke"
      d="M1,-0L0.9,-0.0105L0.8,-0.023L0.7,-0.0354L0.6,-0.0485L0.5,-0.0589L0.45,-0.0627L0.4,-0.0656L0.35,-0.0685L0.3,-0.0705L0.25,-0.0711L0.2,-0.0706L0.15,-0.0674L0.1,-0.0604L0.075,-0.0535L0.05,-0.0444L0.025,-0.031L0.0125,-0.0192L0,-0L0.0125,0.0093L0.025,0.0134L0.05,0.0184L0.075,0.0221L0.1,0.0253L0.15,0.0308L0.2,0.0354L0.25,0.0381L0.3,0.0395L0.35,0.04L0.4,0.0395L0.45,0.0378L0.5,0.0356L0.6,0.0296L0.7,0.0221L0.8,0.0136L0.9,0.006L1,-0"
    />
</svg>
