
<svg 
  class="airfoil-s3002"
  fill="none"
  stroke="black" 
  stroke-width="1"
  style="overflow:visible"
  viewBox="0.0005, -0.0791, 0.9995, 0.1007"
  xmlns="http://www.w3.org/2000/svg">
    <title>SELIG 3002-099-83</title>
    <path 
      vector-effect="non-scaling-stroke"
      d="M1,-0L0.9968,-0.0005L0.9872,-0.0021L0.9719,-0.0048L0.9513,-0.0087L0.9258,-0.0133L0.8955,-0.0186L0.861,-0.0246L0.8229,-0.0312L0.7816,-0.0382L0.7379,-0.0454L0.6921,-0.0523L0.6448,-0.0587L0.5963,-0.0644L0.5471,-0.0693L0.4976,-0.0733L0.4482,-0.0763L0.3994,-0.0782L0.3518,-0.0791L0.3057,-0.079L0.2617,-0.0778L0.2203,-0.0754L0.1816,-0.0718L0.1462,-0.0671L0.1142,-0.0613L0.0858,-0.0546L0.0613,-0.047L0.0409,-0.0387L0.0245,-0.03L0.0123,-0.0211L0.0044,-0.0121L0.0005,-0.0036L0.0005,0.0033L0.006,0.0083L0.0178,0.0122L0.0351,0.0154L0.0576,0.018L0.0852,0.0198L0.1176,0.0209L0.1545,0.0214L0.1954,0.0216L0.2398,0.0214L0.2871,0.0208L0.3368,0.0199L0.3884,0.0187L0.441,0.0172L0.4942,0.0153L0.5475,0.0129L0.6003,0.0102L0.652,0.007L0.7025,0.0031L0.7519,-0.0008L0.7993,-0.0038L0.8437,-0.0055L0.8837,-0.0059L0.9186,-0.0053L0.9477,-0.004L0.9705,-0.0026L0.9869,-0.0012L0.9967,-0.0003L1,-0"
    />
</svg>
