
<svg 
  class="airfoil-s3016"
  fill="none"
  stroke="black" 
  stroke-width="1"
  style="overflow:visible"
  viewBox="0.0001, -0.0678, 0.9999, 0.096200004"
  xmlns="http://www.w3.org/2000/svg">
    <title>S3016-095-87</title>
    <path 
      vector-effect="non-scaling-stroke"
      d="M1,-0L0.9966,-0.0002L0.9867,-0.0009L0.9705,-0.0023L0.9484,-0.0048L0.9211,-0.0082L0.889,-0.0127L0.8527,-0.018L0.813,-0.024L0.7703,-0.0305L0.7254,-0.0371L0.6787,-0.0434L0.6304,-0.0492L0.5811,-0.0544L0.5311,-0.0589L0.4811,-0.0625L0.4314,-0.0653L0.3826,-0.0671L0.3352,-0.0678L0.2895,-0.0676L0.2459,-0.0662L0.205,-0.064L0.1673,-0.0607L0.1329,-0.0563L0.1022,-0.0509L0.0753,-0.0446L0.0524,-0.0374L0.0336,-0.0296L0.0189,-0.0215L0.0084,-0.0132L0.002,-0.0054L0.0001,0.001L0.0039,0.0061L0.0139,0.0109L0.0289,0.0154L0.0489,0.0194L0.0736,0.0227L0.103,0.0253L0.1367,0.027L0.1744,0.0281L0.216,0.0284L0.2609,0.0281L0.3086,0.0273L0.3586,0.026L0.4104,0.0244L0.4635,0.0225L0.5171,0.0204L0.5706,0.0182L0.6235,0.0159L0.6751,0.0136L0.7248,0.0115L0.772,0.0095L0.8161,0.0076L0.8565,0.006L0.8926,0.0046L0.9241,0.0034L0.9506,0.0024L0.9715,0.0015L0.987,0.0006L0.9967,0.0001L1,-0"
    />
</svg>
