
<svg 
  class="airfoil-s3010"
  fill="none"
  stroke="black" 
  stroke-width="1"
  style="overflow:visible"
  viewBox="0, -0.079, 1, 0.10520001"
  xmlns="http://www.w3.org/2000/svg">
    <title>S3010-103-84</title>
    <path 
      vector-effect="non-scaling-stroke"
      d="M1,-0L0.9967,-0.0003L0.9871,-0.0012L0.9712,-0.0029L0.9496,-0.0056L0.9226,-0.0094L0.8909,-0.0141L0.8549,-0.0196L0.8153,-0.0258L0.7726,-0.0326L0.7274,-0.0396L0.6802,-0.0466L0.6316,-0.0534L0.582,-0.0597L0.532,-0.0654L0.4821,-0.0703L0.4327,-0.0742L0.3844,-0.0771L0.3375,-0.0787L0.2925,-0.079L0.2497,-0.078L0.2094,-0.0756L0.1721,-0.0718L0.1379,-0.0669L0.1071,-0.0608L0.0799,-0.0536L0.0565,-0.0456L0.0371,-0.0368L0.0217,-0.0277L0.0104,-0.0183L0.0032,-0.0093L0,-0.001L0.0018,0.0054L0.0093,0.0105L0.0224,0.0151L0.0406,0.0189L0.0638,0.022L0.0918,0.0243L0.1243,0.0257L0.1612,0.0262L0.202,0.0261L0.2464,0.0253L0.2938,0.024L0.3437,0.0222L0.3956,0.0201L0.449,0.0177L0.5031,0.0151L0.5574,0.0125L0.6113,0.0099L0.664,0.0075L0.715,0.0053L0.7635,0.0033L0.809,0.0017L0.8509,0.0005L0.8885,-0.0003L0.9214,-0.0008L0.9491,-0.0009L0.971,-0.0007L0.987,-0.0004L0.9967,-0.0001L1,-0"
    />
</svg>
