
<svg 
  class="airfoil-s3014"
  fill="none"
  stroke="black" 
  stroke-width="1"
  style="overflow:visible"
  viewBox="-0, -0.0724, 1, 0.096300006"
  xmlns="http://www.w3.org/2000/svg">
    <title>S3014-095-85</title>
    <path 
      vector-effect="non-scaling-stroke"
      d="M1,-0L0.9966,-0.0002L0.9867,-0.001L0.9704,-0.0026L0.9484,-0.0053L0.9211,-0.0091L0.8891,-0.0139L0.853,-0.0197L0.8134,-0.0262L0.771,-0.0331L0.7264,-0.0401L0.68,-0.0468L0.6321,-0.053L0.5832,-0.0585L0.5337,-0.0632L0.4841,-0.067L0.4348,-0.0699L0.3863,-0.0717L0.3391,-0.0724L0.2935,-0.0719L0.2501,-0.0704L0.2092,-0.0679L0.1714,-0.0643L0.1368,-0.0597L0.1059,-0.054L0.0786,-0.0474L0.0553,-0.04L0.0361,-0.0319L0.0209,-0.0234L0.0098,-0.0149L0.0028,-0.0068L-0,0L0.0028,0.0053L0.0118,0.0097L0.0261,0.0138L0.0454,0.0173L0.0697,0.0201L0.0988,0.022L0.1324,0.0233L0.1702,0.0239L0.212,0.0238L0.2571,0.0234L0.3052,0.0224L0.3556,0.0212L0.4079,0.0197L0.4613,0.018L0.5153,0.0162L0.5692,0.0143L0.6224,0.0125L0.6743,0.0106L0.7242,0.0089L0.7716,0.0074L0.8158,0.006L0.8562,0.0047L0.8925,0.0037L0.924,0.0028L0.9505,0.002L0.9715,0.0012L0.987,0.0005L0.9967,0.0001L1,0"
    />
</svg>
