
<svg 
  class="airfoil-s3024"
  fill="none"
  stroke="black" 
  stroke-width="1"
  style="overflow:visible"
  viewBox="0.0003, -0.0835, 0.9997, 0.1029"
  xmlns="http://www.w3.org/2000/svg">
    <title>S3024 9.84%</title>
    <path 
      vector-effect="non-scaling-stroke"
      d="M1,-0L0.9966,-0.0004L0.9866,-0.0016L0.9704,-0.0041L0.9486,-0.0079L0.9217,-0.013L0.8904,-0.0193L0.8553,-0.0265L0.8169,-0.0343L0.7759,-0.0423L0.7326,-0.0502L0.6874,-0.0577L0.6408,-0.0645L0.5932,-0.0704L0.5447,-0.0752L0.496,-0.079L0.4474,-0.0817L0.3995,-0.0832L0.3526,-0.0835L0.3072,-0.0826L0.2637,-0.0805L0.2226,-0.0772L0.1842,-0.0728L0.1488,-0.0673L0.1168,-0.0608L0.0883,-0.0533L0.0636,-0.0452L0.0428,-0.0365L0.026,-0.0275L0.0133,-0.0185L0.0048,-0.0098L0.0003,-0.0022L0.0011,0.0035L0.0078,0.0079L0.0201,0.0118L0.0377,0.0149L0.0605,0.0171L0.0883,0.0186L0.1209,0.0193L0.158,0.0194L0.1992,0.0188L0.2441,0.0177L0.2921,0.0164L0.3428,0.0148L0.3956,0.013L0.4496,0.0113L0.5044,0.0095L0.5592,0.0079L0.6133,0.0064L0.6662,0.005L0.717,0.0038L0.7653,0.0029L0.8104,0.002L0.8518,0.0013L0.8889,0.0008L0.9212,0.0004L0.9485,0L0.9705,-0.0002L0.9867,-0.0003L0.9966,-0.0001L1,-0"
    />
</svg>
