
<svg 
  class="airfoil-s3025"
  fill="none"
  stroke="black" 
  stroke-width="1"
  style="overflow:visible"
  viewBox="0.0005, -0.082, 0.9995, 0.0988"
  xmlns="http://www.w3.org/2000/svg">
    <title>S3025 9.38%</title>
    <path 
      vector-effect="non-scaling-stroke"
      d="M1,-0L0.9966,-0.0005L0.9869,-0.0022L0.9714,-0.0053L0.9508,-0.0095L0.9255,-0.0144L0.8956,-0.0199L0.8615,-0.0257L0.8235,-0.032L0.7822,-0.0386L0.7382,-0.0454L0.692,-0.0523L0.6443,-0.059L0.5956,-0.0653L0.5465,-0.0708L0.4974,-0.0755L0.4487,-0.0789L0.4008,-0.0811L0.3541,-0.082L0.3089,-0.0815L0.2656,-0.0797L0.2246,-0.0767L0.1862,-0.0725L0.1508,-0.0672L0.1188,-0.0608L0.0902,-0.0535L0.0653,-0.0455L0.0443,-0.0369L0.0272,-0.028L0.0143,-0.019L0.0054,-0.0104L0.0005,-0.0028L0.0007,0.0027L0.0068,0.0068L0.0187,0.0103L0.0359,0.0131L0.0584,0.0151L0.0859,0.0163L0.1182,0.0168L0.1551,0.0165L0.1962,0.0158L0.2409,0.0145L0.289,0.013L0.3397,0.0113L0.3925,0.0095L0.4467,0.0077L0.5016,0.006L0.5566,0.0045L0.611,0.0031L0.664,0.0019L0.7152,0.001L0.7637,0.0003L0.8091,-0.0003L0.8507,-0.0006L0.888,-0.0008L0.9206,-0.0008L0.9481,-0.0009L0.9702,-0.0008L0.9865,-0.0006L0.9966,-0.0002L1,-0"
    />
</svg>
