
<svg 
  class="airfoil-s3021"
  fill="none"
  stroke="black" 
  stroke-width="1"
  style="overflow:visible"
  viewBox="0.0001, -0.0763, 0.9999, 0.097200006"
  xmlns="http://www.w3.org/2000/svg">
    <title>S3021-095-84</title>
    <path 
      vector-effect="non-scaling-stroke"
      d="M1,-0L0.9966,-0.0004L0.9868,-0.0017L0.971,-0.0042L0.95,-0.0077L0.924,-0.0119L0.8934,-0.0167L0.8584,-0.022L0.8196,-0.0278L0.7775,-0.0339L0.7327,-0.0404L0.6857,-0.0469L0.6373,-0.0534L0.588,-0.0595L0.5384,-0.065L0.4889,-0.0696L0.44,-0.0731L0.3919,-0.0754L0.3451,-0.0763L0.3,-0.076L0.2569,-0.0743L0.2161,-0.0715L0.1782,-0.0675L0.1433,-0.0624L0.1118,-0.0563L0.0839,-0.0493L0.0598,-0.0416L0.0397,-0.0333L0.0236,-0.0247L0.0116,-0.0161L0.0037,-0.008L0.0001,-0.001L0.0019,0.0043L0.0098,0.0085L0.0232,0.0123L0.0418,0.0155L0.0654,0.0179L0.094,0.0196L0.1271,0.0205L0.1646,0.0209L0.2061,0.0206L0.2512,0.0199L0.2993,0.0188L0.3499,0.0174L0.4024,0.0159L0.4561,0.0143L0.5105,0.0127L0.5648,0.0111L0.6183,0.0096L0.6706,0.0082L0.7208,0.0069L0.7684,0.0057L0.8128,0.0046L0.8536,0.0037L0.89,0.0028L0.9219,0.0019L0.9488,0.0011L0.9705,0.0003L0.9866,-0L0.9966,-0.0001L1,0"
    />
</svg>
