
<svg 
  class="airfoil-s4022"
  fill="none"
  stroke="black" 
  stroke-width="1"
  style="overflow:visible"
  viewBox="0, -0.0963, 1, 0.1178"
  xmlns="http://www.w3.org/2000/svg">
    <title>S4022</title>
    <path 
      vector-effect="non-scaling-stroke"
      d="M1,-0L0.9968,-0.0013L0.988,-0.005L0.9746,-0.0104L0.9566,-0.0164L0.9338,-0.0229L0.9065,-0.0301L0.8751,-0.0377L0.84,-0.0456L0.8016,-0.0536L0.7604,-0.0615L0.717,-0.0691L0.6719,-0.0762L0.6253,-0.0824L0.5778,-0.0876L0.5297,-0.0917L0.4816,-0.0945L0.4337,-0.0961L0.3866,-0.0963L0.3406,-0.0951L0.2962,-0.0926L0.2537,-0.0887L0.2135,-0.0836L0.1759,-0.0774L0.1412,-0.0702L0.1098,-0.0622L0.082,-0.0536L0.0579,-0.0445L0.0379,-0.0351L0.0221,-0.0258L0.0105,-0.0165L0.0031,-0.0078L0,-0.0004L0,-0L0.0025,0.005L0.0112,0.0092L0.0255,0.0129L0.0452,0.0159L0.07,0.0183L0.0996,0.0201L0.1337,0.0211L0.1719,0.0215L0.2138,0.0213L0.2589,0.0204L0.3067,0.019L0.3567,0.0169L0.4084,0.0141L0.4612,0.0106L0.5149,0.0063L0.5693,0.0015L0.6239,-0.0032L0.678,-0.0075L0.7307,-0.0108L0.7811,-0.0131L0.8283,-0.0142L0.8714,-0.0139L0.9096,-0.0124L0.9419,-0.0098L0.9675,-0.0065L0.9857,-0.0032L0.9965,-0.0009L1,-0"
    />
</svg>
