
<svg 
  class="airfoil-s4053"
  fill="none"
  stroke="black" 
  stroke-width="1"
  style="overflow:visible"
  viewBox="0, -0.0738, 1, 0.092199996"
  xmlns="http://www.w3.org/2000/svg">
    <title>S4053</title>
    <path 
      vector-effect="non-scaling-stroke"
      d="M1,-0L0.9966,-0.0005L0.9869,-0.0023L0.9715,-0.0054L0.9512,-0.0093L0.926,-0.0138L0.8961,-0.0188L0.8619,-0.0242L0.8239,-0.0301L0.7827,-0.0363L0.7387,-0.0427L0.6926,-0.0491L0.645,-0.0553L0.5965,-0.061L0.5475,-0.0659L0.4985,-0.0697L0.4498,-0.0723L0.4016,-0.0737L0.3544,-0.0738L0.3087,-0.0728L0.2648,-0.0707L0.2231,-0.0675L0.1841,-0.0633L0.1481,-0.0583L0.1155,-0.0524L0.0865,-0.0459L0.0615,-0.0388L0.0405,-0.0313L0.0239,-0.0236L0.0116,-0.0158L0.0038,-0.0082L0.0001,-0.0013L0,-0L0.0015,0.0039L0.0088,0.0078L0.0226,0.0112L0.0399,0.0139L0.0633,0.0159L0.0918,0.0173L0.1249,0.0181L0.1625,0.0184L0.2039,0.0183L0.2488,0.0177L0.2966,0.0167L0.347,0.0154L0.3993,0.0139L0.4529,0.0123L0.5071,0.0106L0.5614,0.009L0.6151,0.0073L0.6675,0.0058L0.7181,0.0044L0.7661,0.0033L0.811,0.0024L0.8523,0.0016L0.8892,0.0011L0.9215,0.0008L0.9485,0.0004L0.9703,0L0.9865,-0.0002L0.9966,-0.0001L1,-0"
    />
</svg>
