
<svg 
  class="airfoil-s4062"
  fill="none"
  stroke="black" 
  stroke-width="1"
  style="overflow:visible"
  viewBox="0.0006, -0.0872, 0.9994, 0.105900005"
  xmlns="http://www.w3.org/2000/svg">
    <title>S4062-095-87</title>
    <path 
      vector-effect="non-scaling-stroke"
      d="M1,-0L0.9967,-0.0004L0.987,-0.0018L0.9711,-0.0044L0.9495,-0.0084L0.923,-0.0137L0.892,-0.0204L0.8573,-0.028L0.8194,-0.0363L0.7788,-0.0449L0.7361,-0.0534L0.6916,-0.0615L0.6459,-0.0688L0.5991,-0.0751L0.5517,-0.0802L0.504,-0.084L0.4563,-0.0863L0.4089,-0.0872L0.3622,-0.0867L0.3166,-0.0851L0.2727,-0.0824L0.2309,-0.0786L0.1917,-0.0739L0.1555,-0.0683L0.1226,-0.0617L0.0933,-0.0543L0.0677,-0.0463L0.046,-0.0377L0.0284,-0.0288L0.015,-0.0199L0.0058,-0.0112L0.0008,-0.0034L0.0006,0.0026L0.0061,0.0072L0.0172,0.0115L0.0334,0.0148L0.0547,0.0172L0.081,0.0184L0.1121,0.0187L0.1479,0.018L0.1881,0.0166L0.2323,0.0146L0.2799,0.0122L0.3305,0.0097L0.3834,0.007L0.4379,0.0044L0.4934,0.002L0.5491,-0.0002L0.6044,-0.002L0.6585,-0.0034L0.7107,-0.0044L0.7603,-0.0049L0.8067,-0.0051L0.8493,-0.0049L0.8875,-0.0044L0.9208,-0.0036L0.9487,-0.0027L0.9709,-0.0018L0.9869,-0.0009L0.9967,-0.0003L1,-0"
    />
</svg>
