
<svg 
  class="airfoil-s4061"
  fill="none"
  stroke="black" 
  stroke-width="1"
  style="overflow:visible"
  viewBox="0.0005, -0.0854, 0.9995, 0.1047"
  xmlns="http://www.w3.org/2000/svg">
    <title>S4061-096-84</title>
    <path 
      vector-effect="non-scaling-stroke"
      d="M1,-0L0.9967,-0.0003L0.9871,-0.0015L0.9713,-0.0036L0.9498,-0.007L0.923,-0.0116L0.8917,-0.0173L0.8564,-0.024L0.8177,-0.0315L0.7761,-0.0395L0.7323,-0.0475L0.6866,-0.0554L0.6397,-0.0628L0.5919,-0.0695L0.5436,-0.0752L0.4952,-0.0797L0.4472,-0.083L0.3998,-0.0849L0.3535,-0.0854L0.3086,-0.0845L0.2655,-0.0823L0.2246,-0.0788L0.1862,-0.0741L0.1507,-0.0685L0.1186,-0.0619L0.0899,-0.0544L0.0649,-0.0462L0.0439,-0.0374L0.0268,-0.0284L0.0138,-0.0194L0.005,-0.0107L0.0005,-0.0028L0.0008,0.0032L0.0068,0.0079L0.0183,0.0121L0.035,0.0154L0.0567,0.0178L0.0833,0.0191L0.1147,0.0193L0.1509,0.0186L0.1913,0.0172L0.2357,0.0153L0.2835,0.0129L0.3341,0.0103L0.3871,0.0077L0.4416,0.0052L0.497,0.0028L0.5527,0.0007L0.6078,-0.0011L0.6616,-0.0025L0.7136,-0.0034L0.7629,-0.004L0.809,-0.0042L0.8511,-0.0041L0.8889,-0.0036L0.9218,-0.003L0.9494,-0.0022L0.9713,-0.0015L0.9871,-0.0007L0.9968,-0.0002L1,0"
    />
</svg>
