
<svg 
  class="airfoil-s4083"
  fill="none"
  stroke="black" 
  stroke-width="1"
  style="overflow:visible"
  viewBox="0, -0.0732, 1, 0.0858"
  xmlns="http://www.w3.org/2000/svg">
    <title>S4083 (8%)</title>
    <path 
      vector-effect="non-scaling-stroke"
      d="M1,-0L0.9981,-0.0005L0.9931,-0.0022L0.9853,-0.0044L0.9747,-0.0069L0.9611,-0.0095L0.9447,-0.0123L0.9255,-0.0153L0.9037,-0.0185L0.8794,-0.0219L0.8528,-0.0254L0.824,-0.0291L0.7933,-0.0328L0.7608,-0.0365L0.7268,-0.0403L0.6914,-0.0441L0.6549,-0.0479L0.6176,-0.0516L0.5798,-0.0552L0.5416,-0.0587L0.5034,-0.062L0.4654,-0.065L0.4279,-0.0677L0.3912,-0.0699L0.3554,-0.0717L0.3208,-0.0728L0.2876,-0.0732L0.2558,-0.0728L0.2254,-0.0715L0.1966,-0.0694L0.1696,-0.0664L0.1442,-0.0627L0.1206,-0.0584L0.0989,-0.0534L0.0793,-0.0479L0.0617,-0.0421L0.0462,-0.0359L0.0329,-0.0295L0.0218,-0.0231L0.0129,-0.0167L0.0063,-0.0106L0.002,-0.0049L0,-0.0002L0.001,0.0035L0.0054,0.0062L0.0131,0.0084L0.0238,0.0102L0.0377,0.0115L0.0545,0.0123L0.0742,0.0126L0.0967,0.0126L0.1219,0.0122L0.1497,0.0114L0.1798,0.0104L0.2122,0.0091L0.2466,0.0076L0.2828,0.0059L0.3205,0.0042L0.3596,0.0024L0.3998,0.0007L0.4408,-0.001L0.4822,-0.0026L0.5239,-0.0041L0.5655,-0.0055L0.6068,-0.0067L0.6477,-0.0077L0.6878,-0.0082L0.7266,-0.0083L0.7636,-0.0079L0.7986,-0.0072L0.8314,-0.0064L0.8617,-0.0055L0.8895,-0.0045L0.9144,-0.0036L0.9363,-0.0026L0.9552,-0.0018L0.9708,-0.0012L0.9833,-0.0007L0.9924,-0.0003L0.998,-0.0001L1,-0"
    />
</svg>
