
<svg 
  class="airfoil-s4095"
  fill="none"
  stroke="black" 
  stroke-width="1"
  style="overflow:visible"
  viewBox="0, -0.0726, 1.0007, 0.0978"
  xmlns="http://www.w3.org/2000/svg">
    <title>S4095</title>
    <desc># designed for the E-flite UMX ASK-21 scale RC sailplane</desc>
    <path 
      vector-effect="non-scaling-stroke"
      d="M1.0007,-0.0194L0.9974,-0.0195L0.9878,-0.02L0.9727,-0.0214L0.9522,-0.0232L0.9264,-0.0255L0.8958,-0.0283L0.8607,-0.0316L0.8216,-0.0354L0.779,-0.0395L0.7336,-0.0439L0.6858,-0.0486L0.6363,-0.0533L0.5858,-0.0579L0.5347,-0.0622L0.4839,-0.0661L0.4337,-0.0692L0.3846,-0.0714L0.337,-0.0725L0.2913,-0.0726L0.248,-0.0715L0.2073,-0.0693L0.1697,-0.0658L0.1355,-0.0612L0.1047,-0.0555L0.0778,-0.0488L0.0547,-0.0413L0.0356,-0.033L0.0206,-0.0243L0.0097,-0.0155L0.0028,-0.0069L0,0.0006L0.0025,0.0065L0.0109,0.0114L0.0246,0.0157L0.0434,0.0191L0.0673,0.0217L0.0961,0.0235L0.1297,0.0247L0.1676,0.0252L0.2095,0.0252L0.2549,0.0248L0.3034,0.0242L0.3542,0.0234L0.4069,0.0226L0.4608,0.0217L0.5151,0.0209L0.5693,0.0201L0.6227,0.0194L0.6746,0.0188L0.7245,0.0184L0.7718,0.018L0.8158,0.0178L0.8561,0.0177L0.8922,0.0177L0.9236,0.0179L0.95,0.0181L0.9709,0.0183L0.9863,0.0185L0.996,0.019L0.9993,0.0193"
    />
</svg>
