
<svg 
  class="airfoil-s4096"
  fill="none"
  stroke="black" 
  stroke-width="1"
  style="overflow:visible"
  viewBox="0.0001, -0.0841, 1.0009999, 0.1248"
  xmlns="http://www.w3.org/2000/svg">
    <title>S4096</title>
    <path 
      vector-effect="non-scaling-stroke"
      d="M1.0011,-0.0313L0.9977,-0.0314L0.9879,-0.0323L0.9726,-0.0341L0.952,-0.0365L0.9262,-0.0393L0.8956,-0.0426L0.8606,-0.0464L0.8217,-0.0505L0.7794,-0.055L0.7343,-0.0596L0.6868,-0.0643L0.6377,-0.0689L0.5876,-0.0733L0.5369,-0.0772L0.4865,-0.0805L0.4366,-0.0828L0.3877,-0.084L0.3401,-0.0841L0.2944,-0.083L0.2509,-0.0808L0.21,-0.0773L0.172,-0.0727L0.1373,-0.067L0.1062,-0.0603L0.0788,-0.0526L0.0553,-0.0441L0.0359,-0.035L0.0206,-0.0256L0.0095,-0.0161L0.0026,-0.007L0.0001,0.0011L0.0031,0.0075L0.0124,0.0133L0.027,0.0187L0.0467,0.0237L0.0713,0.0281L0.1005,0.0319L0.1342,0.0351L0.1718,0.0376L0.2131,0.0394L0.2576,0.0404L0.3052,0.0407L0.3552,0.0406L0.4071,0.0402L0.4602,0.0396L0.5139,0.0388L0.5676,0.0378L0.6205,0.0369L0.6722,0.0358L0.7219,0.0349L0.769,0.0339L0.8131,0.0331L0.8535,0.0323L0.8898,0.0317L0.9215,0.0312L0.9482,0.0308L0.9696,0.0305L0.9855,0.0304L0.9955,0.0307L0.9989,0.031"
    />
</svg>
