
<svg 
  class="airfoil-s4094"
  fill="none"
  stroke="black" 
  stroke-width="1"
  style="overflow:visible"
  viewBox="0, -0.0733, 1.0004, 0.099999994"
  xmlns="http://www.w3.org/2000/svg">
    <title>S4094</title>
    <desc># root airfoil designed for and used on the E-flite UMX ASK-21 scale RC sailplane</desc>
    <path 
      vector-effect="non-scaling-stroke"
      d="M1.0004,-0.0124L0.9971,-0.0125L0.9874,-0.0133L0.9721,-0.015L0.9514,-0.0171L0.9254,-0.0198L0.8945,-0.023L0.8591,-0.0268L0.8197,-0.0311L0.777,-0.0359L0.7314,-0.0409L0.6835,-0.0462L0.634,-0.0516L0.5835,-0.0568L0.5327,-0.0618L0.4821,-0.0661L0.4323,-0.0696L0.3835,-0.0719L0.3361,-0.0732L0.2907,-0.0733L0.2475,-0.0723L0.2071,-0.07L0.1696,-0.0665L0.1354,-0.0618L0.1047,-0.056L0.0778,-0.0491L0.0547,-0.0415L0.0356,-0.0331L0.0206,-0.0243L0.0096,-0.0154L0.0028,-0.0069L0,0.0007L0.0026,0.0066L0.0112,0.0116L0.0249,0.016L0.0438,0.0197L0.0677,0.0225L0.0965,0.0246L0.1299,0.0259L0.1676,0.0266L0.2092,0.0267L0.2542,0.0263L0.3022,0.0255L0.3527,0.0243L0.4051,0.023L0.4588,0.0216L0.513,0.0201L0.5672,0.0187L0.6207,0.0174L0.6727,0.0162L0.7228,0.0151L0.7703,0.0142L0.8146,0.0135L0.8552,0.0129L0.8915,0.0125L0.9232,0.0123L0.9497,0.0122L0.9709,0.0121L0.9864,0.012L0.9962,0.0122L0.9996,0.0124"
    />
</svg>
