
<svg 
  class="airfoil-s4110"
  fill="none"
  stroke="black" 
  stroke-width="1"
  style="overflow:visible"
  viewBox="0, -0.071, 1, 0.09020001"
  xmlns="http://www.w3.org/2000/svg">
    <title>S4110</title>
    <path 
      vector-effect="non-scaling-stroke"
      d="M1,-0L0.9968,-0.0005L0.9874,-0.0023L0.9724,-0.0052L0.9524,-0.0091L0.9275,-0.0136L0.8979,-0.0187L0.8642,-0.0243L0.8268,-0.0303L0.7863,-0.0366L0.7431,-0.0428L0.6977,-0.0488L0.6506,-0.0544L0.6022,-0.0593L0.5531,-0.0635L0.5035,-0.0668L0.454,-0.0692L0.4051,-0.0706L0.3571,-0.071L0.3107,-0.0704L0.2661,-0.0689L0.2239,-0.0663L0.1845,-0.0628L0.1483,-0.0585L0.1155,-0.0533L0.0866,-0.0473L0.0617,-0.0406L0.0409,-0.0332L0.0244,-0.0254L0.012,-0.0173L0.004,-0.0093L0.0002,-0.0019L0,-0L0.0012,0.0041L0.0076,0.0089L0.0191,0.0132L0.0355,0.0163L0.0572,0.0182L0.0841,0.0191L0.116,0.0192L0.1525,0.0187L0.1931,0.0176L0.2375,0.016L0.2851,0.0142L0.3354,0.012L0.3877,0.0097L0.4416,0.0073L0.4964,0.0049L0.5515,0.0026L0.6061,0.0005L0.6596,-0.0012L0.7113,-0.0026L0.7605,-0.0036L0.8066,-0.0042L0.8491,-0.0044L0.8872,-0.0042L0.9205,-0.0036L0.9484,-0.0029L0.9707,-0.0019L0.9869,-0.001L0.9967,-0.0003L1,-0"
    />
</svg>
