
<svg 
  class="airfoil-s4158"
  fill="none"
  stroke="black" 
  stroke-width="1"
  style="overflow:visible"
  viewBox="0, -0.0906, 1, 0.1122"
  xmlns="http://www.w3.org/2000/svg">
    <title>S4158</title>
    <path 
      vector-effect="non-scaling-stroke"
      d="M1,-0L0.9965,-0.0002L0.9862,-0.0011L0.9692,-0.0031L0.946,-0.0065L0.9174,-0.0118L0.8843,-0.0189L0.8475,-0.0276L0.808,-0.0375L0.7667,-0.048L0.7242,-0.0583L0.6808,-0.0672L0.6359,-0.0744L0.5896,-0.0803L0.5423,-0.0848L0.4946,-0.0881L0.4469,-0.09L0.3996,-0.0906L0.3531,-0.0899L0.3081,-0.088L0.2648,-0.0849L0.2237,-0.0804L0.1851,-0.075L0.1494,-0.0686L0.1169,-0.0614L0.0881,-0.0534L0.063,-0.0448L0.0418,-0.0359L0.0247,-0.027L0.0121,-0.0181L0.0039,-0.0097L0.0002,-0.0019L0,-0L0.0013,0.0043L0.008,0.0089L0.0205,0.0129L0.0384,0.0161L0.0617,0.0185L0.09,0.0201L0.1232,0.0211L0.1608,0.0216L0.2023,0.0216L0.2473,0.0211L0.2953,0.0202L0.3459,0.0189L0.3984,0.0173L0.4522,0.0157L0.5067,0.0138L0.5612,0.012L0.6151,0.0102L0.6678,0.0085L0.7185,0.007L0.7667,0.0056L0.8117,0.0044L0.853,0.0034L0.89,0.0026L0.9222,0.0019L0.9493,0.0014L0.9708,0.0009L0.9867,0.0003L0.9966,0L1,-0"
    />
</svg>
