
<svg 
  class="airfoil-s4180"
  fill="none"
  stroke="black" 
  stroke-width="1"
  style="overflow:visible"
  viewBox="0.0002, -0.0912, 0.9998, 0.108"
  xmlns="http://www.w3.org/2000/svg">
    <title>S4180-098-84</title>
    <path 
      vector-effect="non-scaling-stroke"
      d="M1,-0L0.9968,-0.0004L0.9875,-0.0016L0.9721,-0.0038L0.9511,-0.007L0.9248,-0.0113L0.8938,-0.0166L0.8586,-0.0228L0.8197,-0.0297L0.7777,-0.0372L0.7331,-0.045L0.6866,-0.0528L0.6386,-0.0604L0.5896,-0.0676L0.5402,-0.0742L0.4908,-0.08L0.442,-0.0847L0.3943,-0.0883L0.348,-0.0905L0.3035,-0.0912L0.2612,-0.0902L0.2213,-0.0875L0.1838,-0.0833L0.1491,-0.0777L0.1176,-0.071L0.0893,-0.0632L0.0648,-0.0547L0.044,-0.0455L0.0272,-0.036L0.0147,-0.026L0.0061,-0.0161L0.0013,-0.0064L0.0002,0.002L0.0038,0.0081L0.0131,0.0123L0.0278,0.0152L0.0479,0.0167L0.0735,0.0168L0.1045,0.0158L0.1407,0.0142L0.1814,0.012L0.2262,0.0096L0.2746,0.007L0.3259,0.0043L0.3794,0.0018L0.4345,-0.0006L0.4904,-0.0027L0.5466,-0.0046L0.6022,-0.006L0.6566,-0.0071L0.7091,-0.0077L0.759,-0.008L0.8056,-0.0079L0.8485,-0.0074L0.8869,-0.0065L0.9205,-0.0054L0.9486,-0.0041L0.9709,-0.0026L0.987,-0.0013L0.9968,-0.0003L1,0"
    />
</svg>
