
<svg 
  class="airfoil-s4233"
  fill="none"
  stroke="black" 
  stroke-width="1"
  style="overflow:visible"
  viewBox="0.0002, -0.1, 0.9998, 0.13780001"
  xmlns="http://www.w3.org/2000/svg">
    <title>S4233-136-84</title>
    <path 
      vector-effect="non-scaling-stroke"
      d="M1,-0L0.9965,-0.0004L0.9862,-0.0019L0.9695,-0.0046L0.947,-0.0088L0.9193,-0.0144L0.887,-0.0214L0.8509,-0.0294L0.8115,-0.0382L0.7693,-0.0474L0.725,-0.0567L0.6791,-0.0658L0.632,-0.0744L0.5841,-0.0822L0.5361,-0.0888L0.4882,-0.094L0.4408,-0.0977L0.3941,-0.0997L0.3486,-0.1L0.3045,-0.0987L0.2623,-0.0957L0.2222,-0.0912L0.1846,-0.0852L0.1497,-0.078L0.1179,-0.0696L0.0893,-0.0604L0.0644,-0.0505L0.0432,-0.0403L0.026,-0.03L0.013,-0.0199L0.0043,-0.0103L0.0002,-0.0018L0.0016,0.0049L0.0092,0.0106L0.0224,0.0162L0.0407,0.0214L0.0639,0.0261L0.0917,0.03L0.1239,0.0332L0.1602,0.0356L0.2001,0.0371L0.2434,0.0378L0.2895,0.0377L0.338,0.0367L0.3885,0.035L0.4403,0.0325L0.4931,0.0293L0.5463,0.0256L0.5994,0.0214L0.652,0.017L0.7034,0.0129L0.7529,0.0091L0.7997,0.0059L0.843,0.0034L0.8822,0.0015L0.9166,0.0003L0.9458,-0.0004L0.969,-0.0006L0.9861,-0.0004L0.9965,-0.0001L1,0"
    />
</svg>
