
<svg 
  class="airfoil-s4310"
  fill="none"
  stroke="black" 
  stroke-width="1"
  style="overflow:visible"
  viewBox="0, -0.095, 1, 0.1137"
  xmlns="http://www.w3.org/2000/svg">
    <title>S4310</title>
    <path 
      vector-effect="non-scaling-stroke"
      d="M1,-0L0.9966,-0.0004L0.9868,-0.0018L0.9707,-0.0044L0.9489,-0.0083L0.922,-0.0135L0.8905,-0.0198L0.8551,-0.0271L0.8162,-0.0352L0.7744,-0.0437L0.7303,-0.0523L0.6844,-0.0608L0.6372,-0.069L0.5892,-0.0764L0.5409,-0.0829L0.4927,-0.0881L0.4448,-0.0919L0.3976,-0.0942L0.3515,-0.095L0.3069,-0.0944L0.2642,-0.0923L0.2236,-0.0889L0.1857,-0.0842L0.1507,-0.0782L0.119,-0.0711L0.0907,-0.063L0.0661,-0.0541L0.0453,-0.0444L0.0284,-0.0344L0.0155,-0.0242L0.0064,-0.0142L0.0013,-0.0051L0,-0L0.0003,0.0021L0.005,0.0072L0.016,0.0112L0.0326,0.0143L0.0545,0.0166L0.0816,0.0181L0.1135,0.0187L0.1501,0.0186L0.191,0.0178L0.2356,0.0166L0.2836,0.015L0.3344,0.0132L0.3873,0.0113L0.4416,0.0094L0.4968,0.0076L0.552,0.0058L0.6067,0.0043L0.6601,0.0029L0.7116,0.0018L0.7605,0.0008L0.8063,-0L0.8483,-0.0007L0.8862,-0.0011L0.9195,-0.0014L0.9476,-0.0014L0.9701,-0.0011L0.9865,-0.0007L0.9966,-0.0002L1,-0"
    />
</svg>
