
<svg 
  class="airfoil-s4320"
  fill="none"
  stroke="black" 
  stroke-width="1"
  style="overflow:visible"
  viewBox="0, -0.0902, 1, 0.1037"
  xmlns="http://www.w3.org/2000/svg">
    <title>S4320</title>
    <path 
      vector-effect="non-scaling-stroke"
      d="M1,-0L0.9968,-0.0004L0.9874,-0.0018L0.972,-0.0043L0.9511,-0.0078L0.925,-0.0124L0.8943,-0.018L0.8594,-0.0245L0.8209,-0.0318L0.7793,-0.0395L0.7353,-0.0475L0.6893,-0.0555L0.642,-0.0633L0.5938,-0.0706L0.5454,-0.0771L0.497,-0.0824L0.449,-0.0864L0.4017,-0.089L0.3555,-0.0902L0.3108,-0.0899L0.2678,-0.0883L0.2271,-0.0853L0.189,-0.0811L0.1539,-0.0756L0.1219,-0.0691L0.0934,-0.0615L0.0685,-0.053L0.0474,-0.0439L0.0302,-0.0342L0.0169,-0.0245L0.0074,-0.0148L0.0018,-0.006L0,-0L0.0001,0.0012L0.0038,0.006L0.0137,0.0093L0.0293,0.0117L0.0502,0.0131L0.0765,0.0135L0.1078,0.013L0.1439,0.0119L0.1845,0.0101L0.229,0.0079L0.2771,0.0054L0.3281,0.0028L0.3814,0.0003L0.4363,-0.0021L0.4921,-0.0042L0.5482,-0.006L0.6037,-0.0074L0.6581,-0.0084L0.7106,-0.0089L0.7605,-0.0091L0.8072,-0.0087L0.85,-0.0079L0.8883,-0.0067L0.9216,-0.0053L0.9494,-0.0037L0.9713,-0.0023L0.9872,-0.0011L0.9968,-0.0003L1,-0"
    />
</svg>
