
<svg 
  class="airfoil-s5010"
  fill="none"
  stroke="black" 
  stroke-width="1"
  style="overflow:visible"
  viewBox="0.0002, -0.0711, 0.9998, 0.09819999"
  xmlns="http://www.w3.org/2000/svg">
    <title>S5010</title>
    <path 
      vector-effect="non-scaling-stroke"
      d="M1,-0L0.9968,-0L0.9871,-0.0001L0.971,-0.0004L0.9487,-0.0011L0.9204,-0.0026L0.8867,-0.0052L0.8483,-0.009L0.8061,-0.0141L0.7608,-0.0201L0.7131,-0.0269L0.6638,-0.0342L0.6136,-0.0416L0.563,-0.0488L0.5125,-0.0553L0.4625,-0.0609L0.4135,-0.0655L0.3658,-0.0687L0.3197,-0.0706L0.2756,-0.0711L0.2338,-0.0702L0.1947,-0.068L0.1586,-0.0645L0.1257,-0.0597L0.0964,-0.0538L0.0707,-0.0469L0.0489,-0.0391L0.031,-0.0308L0.0172,-0.0221L0.0074,-0.0135L0.0017,-0.0053L0.0002,0.0014L0.0042,0.0065L0.0146,0.0108L0.0303,0.0147L0.0512,0.018L0.0772,0.0208L0.1079,0.0231L0.1429,0.0248L0.1819,0.0261L0.2245,0.0269L0.2701,0.0271L0.3183,0.0269L0.3686,0.0262L0.4205,0.0252L0.4735,0.0238L0.5268,0.0222L0.5798,0.0204L0.6321,0.0185L0.6829,0.0165L0.7317,0.0144L0.7779,0.0124L0.8209,0.0105L0.8603,0.0087L0.8955,0.0069L0.926,0.0053L0.9516,0.0037L0.9721,0.0021L0.9873,0.0009L0.9968,0.0002L1,-0"
    />
</svg>
