
<svg 
  class="airfoil-s5020"
  fill="none"
  stroke="black" 
  stroke-width="1"
  style="overflow:visible"
  viewBox="0, -0.0682, 1, 0.084"
  xmlns="http://www.w3.org/2000/svg">
    <title>S5020</title>
    <path 
      vector-effect="non-scaling-stroke"
      d="M1,-0L0.9968,0L0.9874,-0L0.9716,-0.0002L0.9496,-0.0007L0.9217,-0.0019L0.8883,-0.0041L0.8503,-0.0077L0.8084,-0.0123L0.7634,-0.018L0.7159,-0.0243L0.6667,-0.0312L0.6164,-0.0383L0.5658,-0.0452L0.5152,-0.0517L0.4652,-0.0574L0.4161,-0.062L0.3683,-0.0654L0.3222,-0.0675L0.278,-0.0682L0.2362,-0.0676L0.197,-0.0657L0.1608,-0.0624L0.1278,-0.058L0.0984,-0.0525L0.0726,-0.046L0.0506,-0.0386L0.0325,-0.0306L0.0184,-0.0223L0.0083,-0.014L0.0022,-0.0061L0,0.0005L0.0031,0.0051L0.0123,0.0082L0.0273,0.0104L0.0481,0.0119L0.0743,0.0131L0.1056,0.014L0.1415,0.0148L0.1814,0.0153L0.2249,0.0157L0.2715,0.0158L0.3206,0.0158L0.3718,0.0155L0.4244,0.0151L0.4778,0.0145L0.5314,0.0138L0.5846,0.013L0.6369,0.0121L0.6875,0.0111L0.736,0.01L0.7818,0.009L0.8243,0.0078L0.8631,0.0067L0.8977,0.0056L0.9277,0.0044L0.9528,0.0032L0.9728,0.0019L0.9876,0.0008L0.9969,0.0002L1,-0"
    />
</svg>
