
<svg 
  class="airfoil-s6063"
  fill="none"
  stroke="black" 
  stroke-width="1"
  style="overflow:visible"
  viewBox="0.0006, -0.0484, 0.9994, 0.0706"
  xmlns="http://www.w3.org/2000/svg">
    <title>S6063 7.05%</title>
    <path 
      vector-effect="non-scaling-stroke"
      d="M1,-0L0.9969,-0.0002L0.9876,-0.0008L0.9724,-0.002L0.9516,-0.0038L0.9257,-0.0064L0.895,-0.0096L0.8601,-0.0133L0.8215,-0.0174L0.7797,-0.0217L0.7351,-0.0262L0.6884,-0.0305L0.6398,-0.0346L0.5901,-0.0383L0.5395,-0.0415L0.4888,-0.0442L0.4384,-0.0463L0.3888,-0.0477L0.3405,-0.0484L0.294,-0.0482L0.2497,-0.0472L0.208,-0.0454L0.1694,-0.0428L0.1341,-0.0394L0.1025,-0.0352L0.0748,-0.0304L0.0512,-0.0251L0.0319,-0.0194L0.0171,-0.0136L0.0067,-0.0077L0.0009,-0.0024L0.0006,0.0019L0.006,0.0059L0.0166,0.0098L0.0322,0.0133L0.0526,0.0163L0.0779,0.0187L0.1077,0.0204L0.1419,0.0216L0.1801,0.0222L0.222,0.0222L0.2671,0.0218L0.3149,0.0211L0.3649,0.02L0.4165,0.0187L0.4692,0.0171L0.5223,0.0153L0.5753,0.0134L0.6276,0.0115L0.6785,0.0095L0.7276,0.0076L0.7742,0.0058L0.8177,0.0042L0.8577,0.0028L0.8936,0.0016L0.925,0.0008L0.9513,0.0003L0.9723,-0L0.9876,-0.0001L0.9969,-0L1,-0"
    />
</svg>
