
<svg 
  class="airfoil-s6062"
  fill="none"
  stroke="black" 
  stroke-width="1"
  style="overflow:visible"
  viewBox="0.0004, -0.0552, 0.9996, 0.0803"
  xmlns="http://www.w3.org/2000/svg">
    <title>S6062 8%</title>
    <path 
      vector-effect="non-scaling-stroke"
      d="M1,-0L0.9968,-0.0002L0.9873,-0.0009L0.9718,-0.0022L0.9507,-0.0044L0.9244,-0.0073L0.8934,-0.011L0.8582,-0.0152L0.8193,-0.0199L0.7773,-0.025L0.7327,-0.0301L0.6859,-0.0351L0.6375,-0.0398L0.5879,-0.0441L0.5377,-0.0478L0.4873,-0.0509L0.4374,-0.0532L0.3882,-0.0547L0.3404,-0.0552L0.2942,-0.0548L0.2503,-0.0534L0.2088,-0.0512L0.1703,-0.048L0.1351,-0.0441L0.1035,-0.0394L0.0758,-0.034L0.0522,-0.0281L0.0328,-0.0218L0.0177,-0.0153L0.0071,-0.0088L0.0011,-0.003L0.0004,0.0018L0.0056,0.0061L0.016,0.0103L0.0314,0.0142L0.0518,0.0175L0.077,0.0202L0.1067,0.0223L0.1408,0.0238L0.179,0.0247L0.2208,0.0251L0.2657,0.0249L0.3135,0.0244L0.3634,0.0235L0.4149,0.0223L0.4674,0.0207L0.5204,0.019L0.5733,0.0171L0.6254,0.015L0.6762,0.0127L0.7251,0.0104L0.7717,0.0082L0.8154,0.006L0.8557,0.0041L0.8919,0.0025L0.9237,0.0014L0.9505,0.0006L0.9718,0.0001L0.9873,-0L0.9968,-0L1,-0"
    />
</svg>
