
<svg 
  class="airfoil-s6061"
  fill="none"
  stroke="black" 
  stroke-width="1"
  style="overflow:visible"
  viewBox="0.0003, -0.0623, 0.9997, 0.0907"
  xmlns="http://www.w3.org/2000/svg">
    <title>S6061 9%</title>
    <path 
      vector-effect="non-scaling-stroke"
      d="M1,-0L0.9967,-0.0002L0.9871,-0.001L0.9713,-0.0026L0.9499,-0.005L0.9232,-0.0083L0.8919,-0.0124L0.8564,-0.0173L0.8173,-0.0226L0.7751,-0.0283L0.7303,-0.0341L0.6835,-0.0398L0.6352,-0.0451L0.5858,-0.05L0.5358,-0.0543L0.4858,-0.0578L0.4362,-0.0603L0.3875,-0.0619L0.34,-0.0623L0.2942,-0.0617L0.2505,-0.0602L0.2093,-0.0576L0.1711,-0.0541L0.1361,-0.0496L0.1046,-0.0443L0.077,-0.0383L0.0533,-0.0316L0.0338,-0.0246L0.0186,-0.0173L0.0077,-0.0102L0.0014,-0.0036L0.0003,0.0016L0.0051,0.0062L0.0153,0.0108L0.0305,0.0151L0.0507,0.0188L0.0757,0.0219L0.1053,0.0244L0.1393,0.0263L0.1773,0.0275L0.2189,0.0282L0.2637,0.0284L0.3113,0.028L0.361,0.0273L0.4123,0.0261L0.4647,0.0247L0.5175,0.0228L0.5701,0.0207L0.6221,0.0183L0.6729,0.0156L0.7219,0.0128L0.7688,0.01L0.8128,0.0074L0.8535,0.0051L0.8902,0.0032L0.9224,0.0017L0.9495,0.0008L0.9712,0.0002L0.9871,-0L0.9967,-0L1,-0"
    />
</svg>
