
<svg 
  class="airfoil-s7012"
  fill="none"
  stroke="black" 
  stroke-width="1"
  style="overflow:visible"
  viewBox="0.0001, -0.0636, 0.9999, 0.088300005"
  xmlns="http://www.w3.org/2000/svg">
    <title>S7012 8.75%</title>
    <path 
      vector-effect="non-scaling-stroke"
      d="M1,-0L0.9982,-0.0002L0.9929,-0.001L0.9845,-0.0023L0.973,-0.0039L0.9583,-0.0059L0.9408,-0.0082L0.9204,-0.0108L0.8975,-0.0137L0.8721,-0.0169L0.8444,-0.0203L0.8147,-0.0239L0.7832,-0.0276L0.75,-0.0314L0.7154,-0.0352L0.6797,-0.0391L0.643,-0.0429L0.6056,-0.0465L0.5678,-0.05L0.5299,-0.0532L0.4919,-0.0562L0.4543,-0.0587L0.4171,-0.0608L0.3807,-0.0624L0.3452,-0.0633L0.3107,-0.0636L0.2774,-0.0632L0.2454,-0.0621L0.2149,-0.0603L0.1859,-0.058L0.1586,-0.055L0.1333,-0.0514L0.1098,-0.0474L0.0885,-0.0429L0.0693,-0.038L0.0523,-0.0327L0.0376,-0.0273L0.0253,-0.0217L0.0153,-0.016L0.0077,-0.0106L0.0027,-0.0054L0.0001,-0.0009L0.0007,0.0028L0.0049,0.006L0.0121,0.0092L0.0222,0.0122L0.0352,0.0149L0.051,0.0174L0.0695,0.0195L0.0906,0.0213L0.1143,0.0226L0.1403,0.0237L0.1686,0.0244L0.199,0.0247L0.2313,0.0247L0.2654,0.0245L0.3009,0.024L0.3378,0.0232L0.3757,0.0222L0.4145,0.021L0.4538,0.0196L0.4935,0.0181L0.5332,0.0164L0.5726,0.0145L0.6117,0.0123L0.6504,0.0098L0.6886,0.0073L0.7258,0.005L0.7618,0.003L0.7963,0.0013L0.8289,-0.0001L0.8594,-0.0011L0.8874,-0.0018L0.9128,-0.0021L0.9353,-0.0021L0.9547,-0.0019L0.9708,-0.0015L0.9835,-0.001L0.9927,-0.0005L0.9982,-0.0002L1,-0"
    />
</svg>
