
<svg 
  class="airfoil-s7055"
  fill="none"
  stroke="black" 
  stroke-width="1"
  style="overflow:visible"
  viewBox="0.0001, -0.0875, 0.9999, 0.107599996"
  xmlns="http://www.w3.org/2000/svg">
    <title>S7055 (10.5%) Flat-Bottomed</title>
    <path 
      vector-effect="non-scaling-stroke"
      d="M1,-0L0.9981,-0.0002L0.9924,-0.001L0.9833,-0.0025L0.9708,-0.0046L0.9553,-0.0074L0.9367,-0.0107L0.9154,-0.0147L0.8916,-0.0192L0.8654,-0.0243L0.8373,-0.0298L0.8074,-0.0356L0.776,-0.0417L0.7434,-0.0477L0.7096,-0.0535L0.6748,-0.0592L0.6393,-0.0645L0.6033,-0.0695L0.5669,-0.074L0.5303,-0.0779L0.4937,-0.0812L0.4574,-0.0839L0.4214,-0.0858L0.386,-0.0871L0.3513,-0.0875L0.3175,-0.0871L0.2848,-0.086L0.2533,-0.084L0.2231,-0.0813L0.1944,-0.0779L0.1673,-0.0737L0.1419,-0.0689L0.1183,-0.0635L0.0967,-0.0576L0.0771,-0.0512L0.0595,-0.0446L0.0441,-0.0376L0.031,-0.0305L0.0201,-0.0235L0.0115,-0.0166L0.0052,-0.01L0.0014,-0.004L0.0001,0.0009L0.0021,0.0049L0.0076,0.0087L0.0159,0.0119L0.0272,0.0144L0.0417,0.0162L0.0594,0.0176L0.0799,0.0187L0.1033,0.0194L0.1294,0.0199L0.1578,0.0201L0.1886,0.0201L0.2213,0.0198L0.2559,0.0193L0.2922,0.0185L0.3299,0.0176L0.3689,0.0166L0.4088,0.0155L0.4493,0.0144L0.4902,0.0134L0.5312,0.0123L0.5719,0.0112L0.6121,0.0102L0.6516,0.0091L0.6901,0.0081L0.7273,0.0072L0.763,0.0062L0.7968,0.0053L0.8284,0.0045L0.8579,0.0037L0.8854,0.003L0.9106,0.0023L0.9332,0.0018L0.9529,0.0012L0.9695,0.0008L0.9827,0.0005L0.9922,0.0002L0.998,0L1,-0"
    />
</svg>
