
<svg 
  class="airfoil-s7075"
  fill="none"
  stroke="black" 
  stroke-width="1"
  style="overflow:visible"
  viewBox="0.0001, -0.0738, 0.9999, 0.0943"
  xmlns="http://www.w3.org/2000/svg">
    <title>S7075 (9%)</title>
    <path 
      vector-effect="non-scaling-stroke"
      d="M1,-0L0.9981,-0.0003L0.9926,-0.0013L0.9838,-0.003L0.9719,-0.0053L0.9569,-0.0082L0.9391,-0.0118L0.9186,-0.016L0.8959,-0.0206L0.8711,-0.0257L0.8443,-0.0308L0.8159,-0.036L0.7858,-0.0411L0.7544,-0.046L0.7215,-0.0504L0.6874,-0.0545L0.6521,-0.0583L0.6161,-0.0618L0.5794,-0.0649L0.5423,-0.0676L0.505,-0.0699L0.4678,-0.0716L0.4309,-0.0729L0.3944,-0.0736L0.3585,-0.0738L0.3235,-0.0733L0.2896,-0.0723L0.2569,-0.0707L0.2256,-0.0685L0.1958,-0.0658L0.1677,-0.0625L0.1414,-0.0587L0.1171,-0.0544L0.0949,-0.0496L0.0749,-0.0445L0.057,-0.0391L0.0415,-0.0334L0.0285,-0.0275L0.0178,-0.0216L0.0097,-0.0157L0.0043,-0.0098L0.0011,-0.004L0.0001,0.0013L0.0021,0.0053L0.0074,0.0086L0.0159,0.0115L0.0274,0.014L0.0418,0.0162L0.0591,0.0179L0.0793,0.0191L0.1021,0.02L0.1275,0.0204L0.1553,0.0205L0.1854,0.0202L0.2176,0.0196L0.2517,0.0188L0.2875,0.0177L0.3248,0.0165L0.3633,0.0151L0.4028,0.0136L0.4431,0.0121L0.4837,0.0105L0.5246,0.0089L0.5653,0.0073L0.6057,0.0058L0.6453,0.0044L0.684,0.0029L0.7215,0.0014L0.7577,-0.0001L0.7923,-0.0016L0.8254,-0.003L0.8568,-0.004L0.8858,-0.0042L0.9119,-0.0038L0.9348,-0.0031L0.9543,-0.0024L0.9705,-0.0016L0.9832,-0.001L0.9924,-0.0005L0.9981,-0.0002L1,-0"
    />
</svg>
