
<svg 
  class="airfoil-s8021"
  fill="none"
  stroke="black" 
  stroke-width="1"
  style="overflow:visible"
  viewBox="0, -0.038, 1, 0.076"
  xmlns="http://www.w3.org/2000/svg">
    <title>S8021 (7.6%)</title>
    <path 
      vector-effect="non-scaling-stroke"
      d="M1,-0.0003L0.9968,-0.0004L0.9873,-0.001L0.9721,-0.0021L0.9514,-0.0034L0.9253,-0.0051L0.8943,-0.0071L0.8589,-0.0095L0.8194,-0.0122L0.7764,-0.0152L0.7306,-0.0184L0.6823,-0.0215L0.6323,-0.0247L0.5809,-0.0276L0.5288,-0.0304L0.4766,-0.0328L0.4249,-0.0349L0.3741,-0.0365L0.3249,-0.0375L0.2777,-0.038L0.2331,-0.0378L0.1914,-0.0369L0.1532,-0.0352L0.1186,-0.0329L0.0881,-0.0298L0.0619,-0.0259L0.0402,-0.0215L0.0232,-0.0164L0.0107,-0.0108L0.0028,-0.005L0,-0L0.0028,0.005L0.0107,0.0108L0.0232,0.0164L0.0402,0.0215L0.0619,0.0259L0.0881,0.0298L0.1186,0.0329L0.1532,0.0352L0.1914,0.0369L0.2331,0.0378L0.2777,0.038L0.3249,0.0375L0.3741,0.0365L0.4249,0.0349L0.4766,0.0328L0.5288,0.0304L0.5809,0.0276L0.6323,0.0247L0.6823,0.0215L0.7306,0.0184L0.7764,0.0152L0.8194,0.0122L0.8589,0.0095L0.8943,0.0071L0.9253,0.0051L0.9514,0.0034L0.9721,0.0021L0.9873,0.001L0.9968,0.0004L1,0.0003"
    />
</svg>
