
<svg 
  class="airfoil-s8025"
  fill="none"
  stroke="black" 
  stroke-width="1"
  style="overflow:visible"
  viewBox="0.0002, -0.0445, 0.9998, 0.0798"
  xmlns="http://www.w3.org/2000/svg">
    <title>S8025 (8%)</title>
    <path 
      vector-effect="non-scaling-stroke"
      d="M1,-0L0.9992,-0L0.9968,-0.0001L0.9928,-0.0003L0.9875,-0.0007L0.9806,-0.001L0.9724,-0.0015L0.9627,-0.002L0.9517,-0.0025L0.9392,-0.0032L0.9256,-0.0039L0.9106,-0.0047L0.8945,-0.0056L0.8771,-0.0066L0.8587,-0.0077L0.8393,-0.0088L0.8188,-0.0101L0.7975,-0.0114L0.7753,-0.0128L0.7523,-0.0143L0.7286,-0.0159L0.7043,-0.0175L0.6794,-0.0192L0.654,-0.021L0.6284,-0.0228L0.6023,-0.0247L0.5762,-0.0266L0.5498,-0.0284L0.5234,-0.0303L0.497,-0.0321L0.4707,-0.0339L0.4446,-0.0355L0.4187,-0.0371L0.3932,-0.0386L0.368,-0.04L0.3433,-0.0412L0.3191,-0.0422L0.2954,-0.0431L0.2724,-0.0438L0.2501,-0.0443L0.2286,-0.0445L0.2078,-0.0445L0.1879,-0.0443L0.1688,-0.0438L0.1507,-0.043L0.1335,-0.042L0.1173,-0.0407L0.102,-0.0391L0.0878,-0.0373L0.0746,-0.0352L0.0625,-0.0328L0.0514,-0.0302L0.0414,-0.0274L0.0324,-0.0245L0.0246,-0.0213L0.0178,-0.0181L0.0121,-0.0147L0.0075,-0.0114L0.0041,-0.008L0.0016,-0.0046L0.0003,-0.0014L0.0002,0.0013L0.0018,0.0038L0.0048,0.0065L0.0091,0.0093L0.0145,0.0122L0.0211,0.015L0.0288,0.0176L0.0376,0.0201L0.0476,0.0224L0.0588,0.0246L0.0711,0.0266L0.0845,0.0284L0.099,0.0299L0.1145,0.0313L0.1311,0.0325L0.1486,0.0334L0.1672,0.0342L0.1866,0.0347L0.2069,0.0351L0.2281,0.0353L0.25,0.0353L0.2727,0.0351L0.296,0.0348L0.3199,0.0344L0.3443,0.0337L0.3692,0.033L0.3945,0.0321L0.4202,0.0311L0.4461,0.03L0.4723,0.0288L0.4985,0.0275L0.5248,0.0261L0.5511,0.0247L0.5774,0.0232L0.6035,0.0217L0.6294,0.0202L0.6549,0.0186L0.6801,0.0171L0.7049,0.0156L0.729,0.0142L0.7526,0.0128L0.7755,0.0115L0.7976,0.0102L0.8189,0.009L0.8393,0.0079L0.8587,0.0068L0.8771,0.0058L0.8944,0.0049L0.9106,0.0041L0.9255,0.0034L0.9392,0.0028L0.9516,0.0022L0.9627,0.0017L0.9724,0.0013L0.9806,0.0009L0.9875,0.0006L0.9928,0.0003L0.9968,0.0001L0.9992,0L1,-0"
    />
</svg>
