
<svg 
  class="airfoil-s8023"
  fill="none"
  stroke="black" 
  stroke-width="1"
  style="overflow:visible"
  viewBox="0, -0.038, 1, 0.076"
  xmlns="http://www.w3.org/2000/svg">
    <title>S8023 (7.6%)</title>
    <path 
      vector-effect="non-scaling-stroke"
      d="M1,-0.0003L0.9969,-0.0004L0.9877,-0.0009L0.9728,-0.0017L0.9524,-0.0026L0.9268,-0.0037L0.896,-0.0048L0.8607,-0.0062L0.821,-0.0077L0.7775,-0.0095L0.7307,-0.0115L0.6812,-0.0139L0.6296,-0.0166L0.5768,-0.0195L0.5232,-0.0225L0.4696,-0.0255L0.4166,-0.0285L0.3648,-0.0312L0.3148,-0.0337L0.2672,-0.0358L0.2226,-0.0373L0.1814,-0.038L0.144,-0.0378L0.1107,-0.0365L0.0817,-0.0342L0.0571,-0.0307L0.037,-0.026L0.0213,-0.0202L0.0099,-0.0134L0.0026,-0.0064L0,-0L0.0026,0.0064L0.0099,0.0134L0.0213,0.0202L0.037,0.026L0.0571,0.0307L0.0817,0.0342L0.1107,0.0365L0.144,0.0378L0.1814,0.038L0.2226,0.0373L0.2672,0.0358L0.3148,0.0337L0.3648,0.0312L0.4166,0.0285L0.4696,0.0255L0.5232,0.0225L0.5768,0.0195L0.6296,0.0166L0.6812,0.0139L0.7307,0.0115L0.7775,0.0095L0.821,0.0077L0.8607,0.0062L0.896,0.0048L0.9268,0.0037L0.9524,0.0026L0.9728,0.0017L0.9877,0.0009L0.9969,0.0004L1,0.0003"
    />
</svg>
