
<svg 
  class="airfoil-s8035"
  fill="none"
  stroke="black" 
  stroke-width="1"
  style="overflow:visible"
  viewBox="0, -0.07, 1, 0.14"
  xmlns="http://www.w3.org/2000/svg">
    <title>S8035</title>
    <desc># for RC aerobatic 14% thick</desc>
    <path 
      vector-effect="non-scaling-stroke"
      d="M1,-0L0.999,-0L0.996,-0.0003L0.9913,-0.001L0.9851,-0.002L0.9775,-0.0033L0.9685,-0.0048L0.9582,-0.0063L0.9465,-0.0079L0.9334,-0.0095L0.9189,-0.0114L0.9032,-0.0133L0.8863,-0.0154L0.8682,-0.0177L0.849,-0.0202L0.8289,-0.0228L0.8079,-0.0255L0.7861,-0.0283L0.7636,-0.0312L0.7404,-0.0342L0.7166,-0.0372L0.6924,-0.0402L0.6676,-0.0431L0.6425,-0.046L0.6171,-0.0489L0.5915,-0.0516L0.5658,-0.0542L0.5399,-0.0567L0.514,-0.0591L0.4882,-0.0612L0.4625,-0.0632L0.4369,-0.0649L0.4117,-0.0664L0.3867,-0.0677L0.3621,-0.0687L0.3379,-0.0694L0.3142,-0.0698L0.2911,-0.07L0.2686,-0.0699L0.2467,-0.0694L0.2255,-0.0686L0.205,-0.0676L0.1854,-0.0662L0.1665,-0.0645L0.1486,-0.0624L0.1315,-0.0601L0.1154,-0.0575L0.1002,-0.0546L0.086,-0.0514L0.0728,-0.0479L0.0607,-0.0442L0.0496,-0.0403L0.0396,-0.0362L0.0307,-0.0319L0.0229,-0.0274L0.0162,-0.0228L0.0106,-0.0181L0.0061,-0.0135L0.0029,-0.0089L0.0008,-0.0043L0,-0L0.0008,0.0043L0.0029,0.0089L0.0061,0.0135L0.0106,0.0181L0.0162,0.0228L0.0229,0.0274L0.0307,0.0319L0.0396,0.0362L0.0496,0.0403L0.0607,0.0442L0.0728,0.0479L0.086,0.0514L0.1002,0.0546L0.1154,0.0575L0.1315,0.0601L0.1486,0.0624L0.1665,0.0645L0.1854,0.0662L0.205,0.0676L0.2255,0.0686L0.2467,0.0694L0.2686,0.0699L0.2911,0.07L0.3142,0.0698L0.3379,0.0694L0.3621,0.0687L0.3867,0.0677L0.4117,0.0664L0.4369,0.0649L0.4625,0.0632L0.4882,0.0612L0.514,0.0591L0.5399,0.0567L0.5658,0.0542L0.5915,0.0516L0.6171,0.0489L0.6425,0.046L0.6676,0.0431L0.6924,0.0402L0.7166,0.0372L0.7404,0.0342L0.7636,0.0312L0.7861,0.0283L0.8079,0.0255L0.8289,0.0228L0.849,0.0202L0.8682,0.0177L0.8863,0.0154L0.9032,0.0133L0.9189,0.0114L0.9334,0.0095L0.9465,0.0079L0.9582,0.0063L0.9685,0.0048L0.9775,0.0033L0.9851,0.002L0.9913,0.001L0.996,0.0003L0.999,0L1,-0"
    />
</svg>
