
<svg 
  class="airfoil-s8037"
  fill="none"
  stroke="black" 
  stroke-width="1"
  style="overflow:visible"
  viewBox="0.0002, -0.1062, 0.9998, 0.16"
  xmlns="http://www.w3.org/2000/svg">
    <title>S8037 (16%)</title>
    <path 
      vector-effect="non-scaling-stroke"
      d="M1,-0L0.9976,-0.0004L0.9909,-0.0021L0.9808,-0.0048L0.9678,-0.0081L0.9517,-0.0118L0.9324,-0.0158L0.9102,-0.0203L0.8852,-0.0254L0.8578,-0.0311L0.8281,-0.0372L0.7966,-0.0437L0.7635,-0.0506L0.7291,-0.0577L0.6938,-0.065L0.6578,-0.0722L0.6214,-0.0791L0.5849,-0.0855L0.5483,-0.0912L0.5117,-0.0961L0.4754,-0.1001L0.4394,-0.1031L0.4039,-0.1051L0.369,-0.1062L0.3347,-0.1062L0.3014,-0.1053L0.2691,-0.1035L0.2379,-0.1008L0.2082,-0.0973L0.18,-0.093L0.1534,-0.0879L0.1287,-0.0821L0.1059,-0.0757L0.0852,-0.0688L0.0666,-0.0612L0.0502,-0.0533L0.036,-0.045L0.0242,-0.0364L0.0147,-0.0279L0.0076,-0.0193L0.0028,-0.0109L0.0002,-0.0031L0.0003,0.0034L0.0038,0.0089L0.0111,0.0143L0.0216,0.0194L0.0349,0.0243L0.0512,0.0289L0.0702,0.0332L0.0918,0.0371L0.116,0.0406L0.1425,0.0438L0.1711,0.0466L0.2017,0.049L0.234,0.0509L0.2679,0.0524L0.3032,0.0533L0.3396,0.0538L0.3769,0.0537L0.415,0.053L0.4536,0.0518L0.4926,0.05L0.5317,0.0476L0.5708,0.0448L0.6098,0.0415L0.6485,0.0381L0.6864,0.0345L0.7234,0.0309L0.7591,0.0273L0.7934,0.0239L0.8258,0.0206L0.8561,0.0176L0.8841,0.0148L0.9094,0.0122L0.9319,0.0099L0.9513,0.0077L0.9675,0.0055L0.9806,0.0033L0.9908,0.0013L0.9976,0.0002L1,-0"
    />
</svg>
