
<svg 
  class="airfoil-s8038"
  fill="none"
  stroke="black" 
  stroke-width="1"
  style="overflow:visible"
  viewBox="0.0001, -0.0739, 0.9999, 0.13"
  xmlns="http://www.w3.org/2000/svg">
    <title>S8038 (13%)</title>
    <path 
      vector-effect="non-scaling-stroke"
      d="M1,-0L0.9978,-0.0003L0.9918,-0.0016L0.9824,-0.0037L0.9701,-0.0062L0.9548,-0.0088L0.9364,-0.0117L0.9151,-0.0148L0.891,-0.0183L0.8644,-0.0221L0.8356,-0.0261L0.8047,-0.0304L0.7719,-0.0348L0.7376,-0.0394L0.7021,-0.0441L0.6655,-0.0487L0.6281,-0.0532L0.5903,-0.0576L0.5522,-0.0615L0.5141,-0.0651L0.4761,-0.0681L0.4384,-0.0706L0.4013,-0.0724L0.3648,-0.0735L0.3292,-0.0739L0.2946,-0.0737L0.2612,-0.0727L0.2291,-0.0712L0.1986,-0.069L0.1698,-0.0662L0.1428,-0.0628L0.1179,-0.059L0.0952,-0.0546L0.0748,-0.0498L0.0568,-0.0444L0.0413,-0.0387L0.0284,-0.0324L0.018,-0.0257L0.01,-0.0188L0.0044,-0.0117L0.0011,-0.0047L0.0001,0.0016L0.0025,0.007L0.0084,0.0123L0.0173,0.0176L0.029,0.0228L0.0433,0.0279L0.0603,0.0327L0.0797,0.0372L0.1016,0.0412L0.1257,0.0448L0.1521,0.048L0.1804,0.0507L0.2106,0.0528L0.2425,0.0544L0.2759,0.0555L0.3107,0.0561L0.3466,0.0561L0.3834,0.0555L0.4209,0.0545L0.4588,0.0528L0.4972,0.0506L0.5356,0.0477L0.574,0.0443L0.6124,0.0405L0.6505,0.0364L0.688,0.0323L0.7246,0.0282L0.7601,0.0242L0.7942,0.0204L0.8265,0.0169L0.8568,0.0138L0.8848,0.011L0.9102,0.0086L0.9328,0.0065L0.9523,0.0048L0.9686,0.0033L0.9817,0.0019L0.9915,0.0007L0.9978,0.0001L1,-0"
    />
</svg>
