
<svg 
  class="airfoil-s8036"
  fill="none"
  stroke="black" 
  stroke-width="1"
  style="overflow:visible"
  viewBox="0, -0.0985, 1, 0.16"
  xmlns="http://www.w3.org/2000/svg">
    <title>S8036 (16%)</title>
    <path 
      vector-effect="non-scaling-stroke"
      d="M1,-0L0.9976,-0.0005L0.9909,-0.0022L0.9811,-0.005L0.9683,-0.0084L0.9525,-0.012L0.9335,-0.0159L0.9116,-0.0203L0.887,-0.025L0.8598,-0.0303L0.8305,-0.0359L0.7992,-0.0419L0.7662,-0.0482L0.7318,-0.0546L0.6964,-0.0612L0.6602,-0.0677L0.6236,-0.074L0.5867,-0.0799L0.5497,-0.0851L0.5128,-0.0896L0.4761,-0.0933L0.4397,-0.096L0.4038,-0.0978L0.3685,-0.0985L0.3338,-0.0984L0.3,-0.0974L0.2672,-0.0955L0.2356,-0.0928L0.2054,-0.0894L0.1768,-0.0853L0.1499,-0.0805L0.1248,-0.0752L0.1018,-0.0693L0.081,-0.063L0.0625,-0.0561L0.0464,-0.0488L0.0327,-0.0411L0.0214,-0.0331L0.0126,-0.0248L0.0061,-0.0165L0.0019,-0.0082L0,-0.0005L0.001,0.0059L0.0055,0.0115L0.0134,0.0172L0.0243,0.0227L0.0381,0.028L0.0547,0.033L0.074,0.0377L0.0958,0.0421L0.12,0.0461L0.1465,0.0496L0.175,0.0528L0.2055,0.0556L0.2376,0.0579L0.2712,0.0596L0.3061,0.0608L0.342,0.0615L0.3789,0.0615L0.4164,0.0609L0.4543,0.0596L0.4927,0.0576L0.531,0.055L0.5694,0.0516L0.6078,0.0477L0.6459,0.0435L0.6836,0.0391L0.7204,0.0346L0.7562,0.0303L0.7905,0.0261L0.8231,0.0222L0.8537,0.0185L0.882,0.0152L0.9078,0.0123L0.9306,0.0097L0.9504,0.0074L0.967,0.0052L0.9804,0.003L0.9907,0.0012L0.9975,0.0002L1,-0"
    />
</svg>
