
<svg 
  class="airfoil-s8055"
  fill="none"
  stroke="black" 
  stroke-width="1"
  style="overflow:visible"
  viewBox="0, -0.0803, 1, 0.1203"
  xmlns="http://www.w3.org/2000/svg">
    <title>S8055 (12%)</title>
    <path 
      vector-effect="non-scaling-stroke"
      d="M1,-0L0.998,-0.0002L0.992,-0.0008L0.9823,-0.0021L0.9692,-0.0041L0.9529,-0.0067L0.9335,-0.0099L0.9113,-0.0138L0.8866,-0.0184L0.8596,-0.0236L0.8307,-0.0292L0.8001,-0.0353L0.7682,-0.0415L0.7353,-0.0478L0.7016,-0.0537L0.667,-0.059L0.6315,-0.0637L0.5954,-0.0678L0.5587,-0.0714L0.5216,-0.0744L0.4845,-0.0768L0.4475,-0.0786L0.4108,-0.0797L0.3746,-0.0803L0.3391,-0.0802L0.3045,-0.0794L0.2709,-0.0781L0.2387,-0.0762L0.208,-0.0737L0.1789,-0.0707L0.1517,-0.0671L0.1264,-0.063L0.1033,-0.0584L0.0825,-0.0532L0.0639,-0.0474L0.0476,-0.0413L0.0336,-0.0348L0.0221,-0.028L0.0131,-0.0212L0.0065,-0.0142L0.0022,-0.0072L0,-0.0009L0.0008,0.0043L0.005,0.0086L0.0126,0.0129L0.0232,0.017L0.0367,0.0209L0.053,0.0245L0.072,0.0278L0.0936,0.0307L0.1177,0.0332L0.1441,0.0353L0.1727,0.037L0.2034,0.0383L0.2359,0.0392L0.2701,0.0398L0.3057,0.04L0.3426,0.0398L0.3804,0.0394L0.4191,0.0386L0.4582,0.0375L0.4976,0.0362L0.5369,0.0346L0.576,0.0327L0.6146,0.0304L0.6525,0.0278L0.6897,0.0248L0.7259,0.0216L0.761,0.0183L0.7947,0.0151L0.8269,0.0121L0.8572,0.0094L0.8851,0.0071L0.9106,0.0052L0.9332,0.0036L0.9528,0.0024L0.9692,0.0014L0.9822,0.0007L0.9919,0.0001L0.998,-0L1,-0"
    />
</svg>
