
<svg 
  class="airfoil-s8052"
  fill="none"
  stroke="black" 
  stroke-width="1"
  style="overflow:visible"
  viewBox="0, -0.0751, 1, 0.119"
  xmlns="http://www.w3.org/2000/svg">
    <title>S8052 (11.88%)</title>
    <path 
      vector-effect="non-scaling-stroke"
      d="M1,-0L0.998,-0.0002L0.9923,-0.0008L0.983,-0.0018L0.9702,-0.0033L0.9541,-0.0053L0.9349,-0.0079L0.9128,-0.011L0.888,-0.0147L0.8609,-0.0189L0.8316,-0.0236L0.8004,-0.0286L0.7676,-0.034L0.7335,-0.0396L0.6984,-0.0452L0.6626,-0.0508L0.6263,-0.0562L0.5898,-0.0609L0.553,-0.0648L0.5159,-0.0681L0.4787,-0.0708L0.4417,-0.0728L0.405,-0.0742L0.3689,-0.075L0.3334,-0.0751L0.299,-0.0746L0.2656,-0.0735L0.2336,-0.0718L0.203,-0.0696L0.1742,-0.0668L0.1473,-0.0634L0.1223,-0.0595L0.0996,-0.0551L0.0791,-0.0501L0.0608,-0.0446L0.0449,-0.0386L0.0314,-0.0323L0.0203,-0.0258L0.0116,-0.0192L0.0055,-0.0124L0.0016,-0.0057L0,0.0004L0.0015,0.0054L0.0065,0.0099L0.0147,0.0143L0.0258,0.0186L0.0398,0.0227L0.0564,0.0265L0.0757,0.03L0.0975,0.0332L0.1217,0.0359L0.1482,0.0382L0.1768,0.0402L0.2074,0.0417L0.2397,0.0428L0.2736,0.0435L0.309,0.0439L0.3455,0.0438L0.3829,0.0433L0.421,0.0425L0.4596,0.0413L0.4983,0.0397L0.537,0.0376L0.5756,0.0349L0.6139,0.0318L0.6518,0.0284L0.6892,0.0248L0.7257,0.0212L0.7611,0.0176L0.7952,0.0143L0.8275,0.0114L0.8578,0.0088L0.8858,0.0066L0.9112,0.0047L0.9338,0.0033L0.9532,0.0022L0.9695,0.0013L0.9825,0.0006L0.992,0.0001L0.998,-0L1,-0"
    />
</svg>
