
<svg 
  class="airfoil-s8066"
  fill="none"
  stroke="black" 
  stroke-width="1"
  style="overflow:visible"
  viewBox="0.0004, -0.0586, 0.9996, 0.1002"
  xmlns="http://www.w3.org/2000/svg">
    <title>S8066</title>
    <desc># 10% version of S8065 w/ lower surface aerodynamically similar</desc>
    <path 
      vector-effect="non-scaling-stroke"
      d="M1,-0L0.9981,-0.0002L0.9924,-0.0007L0.9832,-0.0017L0.9706,-0.0032L0.9548,-0.0051L0.936,-0.0077L0.9144,-0.0108L0.8903,-0.0145L0.864,-0.0186L0.8357,-0.0231L0.8059,-0.0278L0.7747,-0.0323L0.7421,-0.0366L0.7081,-0.0406L0.6731,-0.0443L0.6371,-0.0476L0.6004,-0.0506L0.5632,-0.0532L0.5258,-0.0553L0.4882,-0.057L0.4508,-0.0581L0.4136,-0.0586L0.3769,-0.0586L0.3409,-0.0581L0.3057,-0.0571L0.2716,-0.0557L0.2388,-0.0538L0.2074,-0.0515L0.1777,-0.0488L0.1499,-0.0457L0.124,-0.0423L0.1002,-0.0386L0.0788,-0.0346L0.0597,-0.0304L0.0432,-0.026L0.0293,-0.0214L0.0181,-0.0167L0.0096,-0.0118L0.0038,-0.0069L0.0005,-0.0022L0.0004,0.0019L0.0037,0.0058L0.01,0.01L0.019,0.0141L0.0308,0.0181L0.0454,0.0218L0.0626,0.0252L0.0824,0.0283L0.1047,0.0311L0.1294,0.0336L0.1564,0.0358L0.1854,0.0376L0.2162,0.0391L0.2488,0.0403L0.2828,0.0411L0.3181,0.0416L0.3544,0.0416L0.3916,0.0412L0.4295,0.0403L0.4679,0.0391L0.5066,0.0374L0.5453,0.0355L0.5839,0.0333L0.622,0.0308L0.6593,0.0281L0.6959,0.0249L0.7316,0.0215L0.7662,0.0181L0.7995,0.0149L0.8311,0.012L0.8607,0.0093L0.8881,0.0071L0.913,0.0052L0.9351,0.0037L0.9542,0.0024L0.9701,0.0015L0.9828,0.0007L0.9922,0.0002L0.998,-0L1,-0"
    />
</svg>
