
<svg 
  class="airfoil-s8064"
  fill="none"
  stroke="black" 
  stroke-width="1"
  style="overflow:visible"
  viewBox="0.0003, -0.0728, 0.9997, 0.12370001"
  xmlns="http://www.w3.org/2000/svg">
    <title>S8064</title>
    <path 
      vector-effect="non-scaling-stroke"
      d="M1,-0L0.9979,-0.0001L0.9918,-0.0007L0.9819,-0.0018L0.9684,-0.0036L0.9516,-0.0062L0.9317,-0.0097L0.9092,-0.014L0.8843,-0.0192L0.8575,-0.025L0.8291,-0.0312L0.7994,-0.0376L0.7688,-0.0438L0.7371,-0.0492L0.7039,-0.0539L0.6696,-0.0582L0.6343,-0.062L0.5983,-0.0652L0.5617,-0.0679L0.5248,-0.0701L0.4878,-0.0716L0.4508,-0.0725L0.4141,-0.0728L0.3778,-0.0724L0.3421,-0.0714L0.3072,-0.0698L0.2734,-0.0677L0.2407,-0.0651L0.2095,-0.0621L0.1799,-0.0585L0.1521,-0.0546L0.1261,-0.0503L0.1023,-0.0457L0.0807,-0.0408L0.0615,-0.0356L0.0447,-0.0303L0.0306,-0.0249L0.0191,-0.0193L0.0103,-0.0137L0.0041,-0.008L0.0006,-0.0027L0.0003,0.0019L0.0036,0.0063L0.0099,0.0111L0.0189,0.0158L0.0308,0.0204L0.0454,0.0248L0.0627,0.0289L0.0826,0.0327L0.1049,0.0361L0.1296,0.0393L0.1565,0.0421L0.1855,0.0446L0.2163,0.0467L0.2487,0.0484L0.2826,0.0497L0.3178,0.0505L0.354,0.0509L0.391,0.0508L0.4287,0.0502L0.4668,0.0491L0.5052,0.0475L0.5436,0.0455L0.5818,0.0431L0.6196,0.0404L0.6565,0.0373L0.6927,0.0335L0.7281,0.0293L0.7627,0.0251L0.796,0.0209L0.8278,0.0171L0.8577,0.0136L0.8855,0.0106L0.9107,0.0079L0.9332,0.0058L0.9527,0.004L0.969,0.0025L0.9821,0.0013L0.9918,0.0004L0.9979,0L1,-0"
    />
</svg>
