
<svg 
  class="airfoil-s8065"
  fill="none"
  stroke="black" 
  stroke-width="1"
  style="overflow:visible"
  viewBox="0.0003, -0.066, 0.9997, 0.110300004"
  xmlns="http://www.w3.org/2000/svg">
    <title>S8065 (11% version of S8064)</title>
    <path 
      vector-effect="non-scaling-stroke"
      d="M1,-0L0.998,-0.0001L0.9921,-0.0006L0.9826,-0.0016L0.9695,-0.0032L0.9531,-0.0055L0.9337,-0.0086L0.9116,-0.0123L0.887,-0.0167L0.8604,-0.0217L0.8321,-0.0271L0.8023,-0.0327L0.7715,-0.0382L0.7394,-0.0431L0.7059,-0.0475L0.6712,-0.0515L0.6357,-0.0551L0.5994,-0.0582L0.5625,-0.0609L0.5254,-0.063L0.4882,-0.0646L0.451,-0.0656L0.4141,-0.066L0.3777,-0.0658L0.3419,-0.0651L0.3069,-0.0638L0.2729,-0.062L0.2402,-0.0597L0.209,-0.057L0.1793,-0.0539L0.1515,-0.0503L0.1255,-0.0465L0.1017,-0.0423L0.0802,-0.0378L0.061,-0.0331L0.0443,-0.0283L0.0303,-0.0232L0.0189,-0.0181L0.0102,-0.0128L0.0041,-0.0076L0.0006,-0.0025L0.0003,0.0018L0.0035,0.0058L0.0097,0.0102L0.0186,0.0146L0.0304,0.0187L0.0449,0.0226L0.0621,0.0263L0.0819,0.0296L0.1042,0.0326L0.1289,0.0353L0.1558,0.0377L0.1848,0.0397L0.2157,0.0414L0.2482,0.0427L0.2823,0.0437L0.3176,0.0442L0.3539,0.0443L0.3912,0.044L0.4291,0.0433L0.4675,0.0421L0.5061,0.0405L0.5449,0.0385L0.5834,0.0363L0.6215,0.0337L0.6588,0.0309L0.6953,0.0277L0.731,0.0241L0.7656,0.0206L0.7989,0.0172L0.8305,0.014L0.8602,0.0112L0.8876,0.0087L0.9125,0.0065L0.9347,0.0048L0.9538,0.0033L0.9698,0.0021L0.9825,0.001L0.992,0.0003L0.998,0L1,0"
    />
</svg>
