
<svg 
  class="airfoil-s9000"
  fill="none"
  stroke="black" 
  stroke-width="1"
  style="overflow:visible"
  viewBox="0.0001, -0.0679, 0.9999, 0.0917"
  xmlns="http://www.w3.org/2000/svg">
    <title>S9000 (9%)</title>
    <path 
      vector-effect="non-scaling-stroke"
      d="M1,-0L0.9992,-0.0001L0.9967,-0.0005L0.9927,-0.0012L0.9872,-0.0022L0.9804,-0.0036L0.9723,-0.0052L0.9629,-0.0071L0.9524,-0.009L0.9406,-0.011L0.9277,-0.0131L0.9135,-0.0154L0.8982,-0.0177L0.8818,-0.0201L0.8644,-0.0226L0.8461,-0.0252L0.8268,-0.0279L0.8066,-0.0306L0.7857,-0.0333L0.7641,-0.0361L0.7419,-0.0388L0.719,-0.0416L0.6957,-0.0443L0.6719,-0.0469L0.6477,-0.0495L0.6231,-0.0519L0.5984,-0.0542L0.5734,-0.0564L0.5483,-0.0584L0.5231,-0.0603L0.498,-0.062L0.4729,-0.0635L0.4479,-0.0648L0.4231,-0.0659L0.3986,-0.0667L0.3744,-0.0674L0.3505,-0.0677L0.3271,-0.0679L0.3041,-0.0677L0.2817,-0.0673L0.2599,-0.0667L0.2387,-0.0657L0.2182,-0.0645L0.1984,-0.0631L0.1794,-0.0614L0.1612,-0.0594L0.1439,-0.0572L0.1274,-0.0547L0.1118,-0.052L0.0972,-0.0491L0.0835,-0.046L0.0709,-0.0426L0.0592,-0.0392L0.0486,-0.0355L0.039,-0.0317L0.0304,-0.0279L0.0229,-0.0239L0.0164,-0.02L0.0111,-0.016L0.0068,-0.012L0.0034,-0.0082L0.0012,-0.0046L0.0001,-0.0014L0.0002,0.0014L0.002,0.0037L0.0054,0.006L0.0101,0.0083L0.0161,0.0104L0.0234,0.0124L0.0319,0.0143L0.0418,0.016L0.0528,0.0176L0.0651,0.019L0.0786,0.0202L0.0932,0.0212L0.109,0.0221L0.1258,0.0228L0.1437,0.0233L0.1626,0.0236L0.1825,0.0238L0.2033,0.0238L0.2249,0.0237L0.2474,0.0234L0.2706,0.023L0.2945,0.0225L0.319,0.0219L0.344,0.0212L0.3696,0.0204L0.3955,0.0195L0.4218,0.0186L0.4484,0.0176L0.4751,0.0166L0.5019,0.0155L0.5288,0.0144L0.5555,0.0133L0.5821,0.0122L0.6085,0.011L0.6346,0.0098L0.6603,0.0084L0.6857,0.0071L0.7106,0.0057L0.7351,0.0044L0.7589,0.0031L0.7821,0.002L0.8046,0.0009L0.8262,-0L0.8469,-0.0008L0.8666,-0.0014L0.8852,-0.0019L0.9026,-0.0022L0.9189,-0.0024L0.9338,-0.0025L0.9474,-0.0023L0.9595,-0.0021L0.9701,-0.0018L0.9792,-0.0014L0.9866,-0.001L0.9925,-0.0007L0.9966,-0.0003L0.9992,-0.0001L1,-0"
    />
</svg>
