
<svg 
  class="airfoil-s9027"
  fill="none"
  stroke="black" 
  stroke-width="1"
  style="overflow:visible"
  viewBox="0, -0.04, 1, 0.08"
  xmlns="http://www.w3.org/2000/svg">
    <title>S9027 (8%)</title>
    <path 
      vector-effect="non-scaling-stroke"
      d="M1,-0L0.9992,-0L0.9967,-0.0001L0.9927,-0.0003L0.9871,-0.0006L0.9801,-0.0011L0.9716,-0.0018L0.9619,-0.0025L0.9508,-0.0033L0.9384,-0.0042L0.9247,-0.0051L0.9098,-0.006L0.8938,-0.0071L0.8765,-0.0082L0.8582,-0.0095L0.8389,-0.0107L0.8186,-0.0121L0.7974,-0.0135L0.7754,-0.015L0.7526,-0.0165L0.7292,-0.0181L0.7052,-0.0196L0.6806,-0.0212L0.6555,-0.0228L0.6301,-0.0244L0.6043,-0.026L0.5783,-0.0275L0.5521,-0.029L0.5258,-0.0304L0.4995,-0.0318L0.4732,-0.0331L0.4471,-0.0344L0.4211,-0.0355L0.3954,-0.0366L0.3701,-0.0375L0.3451,-0.0383L0.3207,-0.0389L0.2968,-0.0395L0.2734,-0.0398L0.2508,-0.04L0.2289,-0.04L0.2077,-0.0398L0.1874,-0.0395L0.1679,-0.0389L0.1494,-0.0381L0.1318,-0.0372L0.1153,-0.036L0.0997,-0.0345L0.0852,-0.0329L0.0719,-0.0311L0.0596,-0.029L0.0485,-0.0267L0.0384,-0.0243L0.0296,-0.0216L0.0219,-0.0188L0.0153,-0.0158L0.0099,-0.0127L0.0057,-0.0095L0.0027,-0.0063L0.0007,-0.003L0,-0L0.0007,0.003L0.0027,0.0063L0.0057,0.0095L0.0099,0.0127L0.0153,0.0158L0.0219,0.0188L0.0296,0.0216L0.0384,0.0243L0.0485,0.0267L0.0596,0.029L0.0719,0.0311L0.0852,0.0329L0.0997,0.0345L0.1153,0.036L0.1318,0.0372L0.1494,0.0381L0.1679,0.0389L0.1874,0.0395L0.2077,0.0398L0.2289,0.04L0.2508,0.04L0.2734,0.0398L0.2968,0.0395L0.3207,0.0389L0.3451,0.0383L0.3701,0.0375L0.3954,0.0366L0.4211,0.0355L0.4471,0.0344L0.4732,0.0331L0.4995,0.0318L0.5258,0.0304L0.5521,0.029L0.5783,0.0275L0.6043,0.026L0.6301,0.0244L0.6555,0.0228L0.6806,0.0212L0.7052,0.0196L0.7292,0.0181L0.7526,0.0165L0.7754,0.015L0.7974,0.0135L0.8186,0.0121L0.8389,0.0107L0.8582,0.0095L0.8765,0.0082L0.8938,0.0071L0.9098,0.006L0.9247,0.0051L0.9384,0.0042L0.9508,0.0033L0.9619,0.0025L0.9716,0.0018L0.9801,0.0011L0.9871,0.0006L0.9927,0.0003L0.9967,0.0001L0.9992,0L1,-0"
    />
</svg>
