
<svg 
  class="airfoil-s9026"
  fill="none"
  stroke="black" 
  stroke-width="1"
  style="overflow:visible"
  viewBox="0, -0.0475, 1, 0.095"
  xmlns="http://www.w3.org/2000/svg">
    <title>S9026 (9.5%)</title>
    <path 
      vector-effect="non-scaling-stroke"
      d="M1,-0L0.9991,-0L0.9966,-0.0001L0.9924,-0.0003L0.9867,-0.0007L0.9795,-0.0013L0.9708,-0.0021L0.9608,-0.0029L0.9495,-0.0039L0.9369,-0.005L0.9229,-0.0061L0.9078,-0.0074L0.8914,-0.0088L0.8739,-0.0102L0.8553,-0.0118L0.8358,-0.0134L0.8153,-0.0152L0.7939,-0.017L0.7717,-0.0189L0.7489,-0.0209L0.7254,-0.0229L0.7013,-0.0249L0.6768,-0.0269L0.6517,-0.0289L0.6264,-0.0308L0.6007,-0.0327L0.5748,-0.0346L0.5488,-0.0363L0.5227,-0.038L0.4966,-0.0396L0.4705,-0.0411L0.4446,-0.0424L0.4189,-0.0437L0.3935,-0.0447L0.3684,-0.0456L0.3437,-0.0464L0.3195,-0.047L0.2958,-0.0473L0.2727,-0.0475L0.2503,-0.0475L0.2286,-0.0472L0.2076,-0.0468L0.1875,-0.0461L0.1682,-0.0452L0.1498,-0.044L0.1323,-0.0427L0.1158,-0.0411L0.1003,-0.0392L0.0859,-0.0372L0.0725,-0.0349L0.0602,-0.0324L0.049,-0.0297L0.0389,-0.0269L0.0301,-0.0238L0.0223,-0.0206L0.0156,-0.0172L0.0101,-0.0138L0.0058,-0.0104L0.0027,-0.0068L0.0007,-0.0033L0,-0L0.0007,0.0033L0.0027,0.0068L0.0058,0.0104L0.0101,0.0138L0.0156,0.0172L0.0223,0.0206L0.0301,0.0238L0.0389,0.0269L0.049,0.0297L0.0602,0.0324L0.0725,0.0349L0.0859,0.0372L0.1003,0.0392L0.1158,0.0411L0.1323,0.0427L0.1498,0.044L0.1682,0.0452L0.1875,0.0461L0.2076,0.0468L0.2286,0.0472L0.2503,0.0475L0.2727,0.0475L0.2958,0.0473L0.3195,0.047L0.3437,0.0464L0.3684,0.0456L0.3935,0.0447L0.4189,0.0437L0.4446,0.0424L0.4705,0.0411L0.4966,0.0396L0.5227,0.038L0.5488,0.0363L0.5748,0.0346L0.6007,0.0327L0.6264,0.0308L0.6517,0.0289L0.6768,0.0269L0.7013,0.0249L0.7254,0.0229L0.7489,0.0209L0.7717,0.0189L0.7939,0.017L0.8153,0.0152L0.8358,0.0134L0.8553,0.0118L0.8739,0.0102L0.8914,0.0088L0.9078,0.0074L0.9229,0.0061L0.9369,0.005L0.9495,0.0039L0.9608,0.0029L0.9708,0.0021L0.9795,0.0013L0.9867,0.0007L0.9924,0.0003L0.9966,0.0001L0.9991,0L1,-0"
    />
</svg>
