
<svg 
  class="airfoil-s9037"
  fill="none"
  stroke="black" 
  stroke-width="1"
  style="overflow:visible"
  viewBox="0, -0.0787, 1, 0.095"
  xmlns="http://www.w3.org/2000/svg">
    <title>S9037 (9%)</title>
    <path 
      vector-effect="non-scaling-stroke"
      d="M1,-0L0.9992,-0.0001L0.9967,-0.0004L0.9926,-0.001L0.987,-0.0019L0.98,-0.003L0.9715,-0.0045L0.9617,-0.0062L0.9506,-0.0082L0.9383,-0.0104L0.9248,-0.0129L0.9102,-0.0155L0.8944,-0.0184L0.8777,-0.0214L0.86,-0.0247L0.8415,-0.028L0.8221,-0.0313L0.802,-0.0348L0.7812,-0.0382L0.7597,-0.0417L0.7377,-0.0451L0.7151,-0.0484L0.692,-0.0517L0.6685,-0.0549L0.6447,-0.058L0.6206,-0.0609L0.5962,-0.0637L0.5717,-0.0662L0.5471,-0.0686L0.5224,-0.0707L0.4978,-0.0727L0.4732,-0.0744L0.4487,-0.0758L0.4244,-0.0769L0.4003,-0.0778L0.3765,-0.0784L0.3531,-0.0787L0.3301,-0.0787L0.3075,-0.0785L0.2855,-0.0779L0.264,-0.077L0.2431,-0.0758L0.2228,-0.0743L0.2033,-0.0725L0.1844,-0.0705L0.1663,-0.0681L0.149,-0.0655L0.1326,-0.0626L0.117,-0.0595L0.1024,-0.0561L0.0886,-0.0525L0.0758,-0.0488L0.0639,-0.0448L0.0531,-0.0408L0.0432,-0.0365L0.0343,-0.0322L0.0265,-0.0279L0.0196,-0.0235L0.0137,-0.0191L0.009,-0.0148L0.0052,-0.0107L0.0025,-0.0066L0.0007,-0.0029L0,0.0003L0.0007,0.0028L0.003,0.0049L0.0068,0.0068L0.0121,0.0086L0.0187,0.0103L0.0267,0.0117L0.036,0.013L0.0466,0.014L0.0584,0.0149L0.0716,0.0155L0.086,0.0159L0.1015,0.0162L0.1183,0.0163L0.1362,0.0162L0.1552,0.0159L0.1752,0.0155L0.1962,0.015L0.2182,0.0144L0.241,0.0137L0.2647,0.0128L0.2891,0.012L0.3141,0.0111L0.3398,0.0102L0.366,0.0092L0.3926,0.0083L0.4196,0.0073L0.4468,0.0064L0.4742,0.0055L0.5018,0.0047L0.5293,0.0038L0.5568,0.0031L0.5841,0.0023L0.6112,0.0017L0.6379,0.0011L0.6643,0.0005L0.6901,-0L0.7154,-0.0004L0.7401,-0.0008L0.764,-0.0011L0.7871,-0.0014L0.8094,-0.0016L0.8307,-0.0018L0.851,-0.0019L0.8703,-0.0019L0.8885,-0.0019L0.9054,-0.0019L0.9211,-0.0018L0.9355,-0.0017L0.9486,-0.0016L0.9603,-0.0014L0.9707,-0.0012L0.9795,-0.001L0.9868,-0.0007L0.9925,-0.0005L0.9967,-0.0002L0.9992,-0.0001L1,-0"
    />
</svg>
