
<svg 
  class="airfoil-s9033"
  fill="none"
  stroke="black" 
  stroke-width="1"
  style="overflow:visible"
  viewBox="0, -0.0375, 1, 0.075"
  xmlns="http://www.w3.org/2000/svg">
    <title>S9033 (7.5%)</title>
    <path 
      vector-effect="non-scaling-stroke"
      d="M1,-0L0.9992,-0L0.9968,-0.0001L0.9928,-0.0003L0.9873,-0.0005L0.9804,-0.0009L0.9721,-0.0015L0.9624,-0.0021L0.9514,-0.0028L0.9391,-0.0035L0.9256,-0.0043L0.9108,-0.0051L0.8947,-0.006L0.8776,-0.0069L0.8593,-0.008L0.8401,-0.009L0.8198,-0.0102L0.7986,-0.0114L0.7766,-0.0126L0.7538,-0.0139L0.7303,-0.0153L0.7062,-0.0167L0.6815,-0.0181L0.6563,-0.0196L0.6308,-0.0211L0.6049,-0.0226L0.5788,-0.0241L0.5525,-0.0256L0.5261,-0.027L0.4997,-0.0284L0.4733,-0.0298L0.4471,-0.0311L0.4211,-0.0322L0.3953,-0.0333L0.3699,-0.0343L0.3449,-0.0352L0.3204,-0.036L0.2965,-0.0366L0.2731,-0.0371L0.2504,-0.0373L0.2285,-0.0375L0.2073,-0.0375L0.187,-0.0372L0.1675,-0.0368L0.149,-0.0362L0.1314,-0.0354L0.1149,-0.0343L0.0994,-0.033L0.0849,-0.0315L0.0716,-0.0298L0.0594,-0.0279L0.0482,-0.0258L0.0382,-0.0234L0.0294,-0.0209L0.0218,-0.0182L0.0153,-0.0153L0.0099,-0.0124L0.0057,-0.0093L0.0027,-0.0062L0.0008,-0.003L0,-0L0.0008,0.003L0.0027,0.0062L0.0057,0.0093L0.0099,0.0124L0.0153,0.0153L0.0218,0.0182L0.0294,0.0209L0.0382,0.0234L0.0482,0.0258L0.0594,0.0279L0.0716,0.0298L0.0849,0.0315L0.0994,0.033L0.1149,0.0343L0.1314,0.0354L0.149,0.0362L0.1675,0.0368L0.187,0.0372L0.2073,0.0375L0.2285,0.0375L0.2504,0.0373L0.2731,0.0371L0.2965,0.0366L0.3204,0.036L0.3449,0.0352L0.3699,0.0343L0.3953,0.0333L0.4211,0.0322L0.4471,0.0311L0.4733,0.0298L0.4997,0.0284L0.5261,0.027L0.5525,0.0256L0.5788,0.0241L0.6049,0.0226L0.6308,0.0211L0.6563,0.0196L0.6815,0.0181L0.7062,0.0167L0.7303,0.0153L0.7538,0.0139L0.7766,0.0126L0.7986,0.0114L0.8198,0.0102L0.8401,0.009L0.8593,0.008L0.8776,0.0069L0.8947,0.006L0.9108,0.0051L0.9256,0.0043L0.9391,0.0035L0.9514,0.0028L0.9624,0.0021L0.9721,0.0015L0.9804,0.0009L0.9873,0.0005L0.9928,0.0003L0.9968,0.0001L0.9992,0L1,-0"
    />
</svg>
