
<svg 
  class="airfoil-s9032"
  fill="none"
  stroke="black" 
  stroke-width="1"
  style="overflow:visible"
  viewBox="0, -0.045, 1, 0.09"
  xmlns="http://www.w3.org/2000/svg">
    <title>S9032 (9%)</title>
    <path 
      vector-effect="non-scaling-stroke"
      d="M1,-0L0.9992,-0L0.9966,-0.0001L0.9925,-0.0003L0.9869,-0.0007L0.9797,-0.0012L0.9712,-0.0019L0.9613,-0.0028L0.9501,-0.0037L0.9376,-0.0047L0.9238,-0.0057L0.9087,-0.0068L0.8925,-0.008L0.8751,-0.0093L0.8566,-0.0106L0.8371,-0.0121L0.8167,-0.0136L0.7954,-0.0152L0.7732,-0.0169L0.7503,-0.0186L0.7268,-0.0204L0.7026,-0.0222L0.6779,-0.0241L0.6528,-0.0259L0.6273,-0.0278L0.6015,-0.0297L0.5755,-0.0314L0.5494,-0.0332L0.5232,-0.0349L0.497,-0.0365L0.4708,-0.038L0.4448,-0.0393L0.419,-0.0406L0.3935,-0.0417L0.3684,-0.0427L0.3436,-0.0435L0.3194,-0.0442L0.2957,-0.0446L0.2725,-0.0449L0.2501,-0.045L0.2283,-0.0449L0.2074,-0.0446L0.1872,-0.044L0.1679,-0.0432L0.1495,-0.0422L0.132,-0.041L0.1155,-0.0395L0.1001,-0.0378L0.0856,-0.0359L0.0723,-0.0338L0.06,-0.0314L0.0489,-0.0288L0.0388,-0.0261L0.0299,-0.0232L0.0222,-0.0201L0.0156,-0.0168L0.0101,-0.0135L0.0058,-0.0102L0.0028,-0.0067L0.0008,-0.0033L0,-0L0.0008,0.0033L0.0028,0.0067L0.0058,0.0102L0.0101,0.0135L0.0156,0.0168L0.0222,0.0201L0.0299,0.0232L0.0388,0.0261L0.0489,0.0288L0.06,0.0314L0.0723,0.0338L0.0856,0.0359L0.1001,0.0378L0.1155,0.0395L0.132,0.041L0.1495,0.0422L0.1679,0.0432L0.1872,0.044L0.2074,0.0446L0.2283,0.0449L0.2501,0.045L0.2725,0.0449L0.2957,0.0446L0.3194,0.0442L0.3436,0.0435L0.3684,0.0427L0.3935,0.0417L0.419,0.0406L0.4448,0.0393L0.4708,0.038L0.497,0.0365L0.5232,0.0349L0.5494,0.0332L0.5755,0.0314L0.6015,0.0297L0.6273,0.0278L0.6528,0.0259L0.6779,0.0241L0.7026,0.0222L0.7268,0.0204L0.7503,0.0186L0.7732,0.0169L0.7954,0.0152L0.8167,0.0136L0.8371,0.0121L0.8566,0.0106L0.8751,0.0093L0.8925,0.008L0.9087,0.0068L0.9238,0.0057L0.9376,0.0047L0.9501,0.0037L0.9613,0.0028L0.9712,0.0019L0.9797,0.0012L0.9869,0.0007L0.9925,0.0003L0.9966,0.0001L0.9992,0L1,-0"
    />
</svg>
