
<svg 
  class="airfoil-s9104bte"
  fill="none"
  stroke="black" 
  stroke-width="1"
  style="overflow:visible"
  viewBox="0, -0.1861, 1, 0.2089"
  xmlns="http://www.w3.org/2000/svg">
    <title>S9104BTE</title>
    <desc># Airfoil by Michael Selig / CC BY 4.0</desc>
    <path 
      vector-effect="non-scaling-stroke"
      d="M1,-0.03L0.9331,-0.0644L0.9146,-0.0733L0.8939,-0.0823L0.871,-0.0912L0.846,-0.1001L0.8192,-0.1089L0.7905,-0.1174L0.7603,-0.1257L0.7286,-0.1336L0.6956,-0.1412L0.6616,-0.1483L0.6266,-0.1551L0.5911,-0.1613L0.5552,-0.1671L0.5192,-0.1724L0.4836,-0.177L0.4484,-0.1808L0.414,-0.1837L0.3805,-0.1854L0.3481,-0.1861L0.3171,-0.1852L0.2872,-0.1825L0.2584,-0.1783L0.2305,-0.1727L0.2037,-0.1658L0.1782,-0.1579L0.154,-0.149L0.1313,-0.1392L0.1101,-0.1287L0.0906,-0.1176L0.0729,-0.106L0.0571,-0.094L0.0434,-0.0818L0.0317,-0.0692L0.0218,-0.0565L0.0138,-0.044L0.0076,-0.0317L0.0033,-0.0199L0.0008,-0.0089L0,0.0011L0.001,0.0098L0.0035,0.0169L0.0073,0.0218L0.0133,0.0228L0.0232,0.0201L0.0374,0.0153L0.0557,0.0086L0.0779,0.0005L0.1038,-0.0089L0.1328,-0.0195L0.1653,-0.0318L0.202,-0.0455L0.2428,-0.0597L0.2875,-0.0738L0.3358,-0.0872L0.3873,-0.0993L0.4413,-0.1096L0.4973,-0.1176L0.5545,-0.1229L0.612,-0.1252L0.669,-0.1242L0.7244,-0.1199L0.7774,-0.1123L0.8269,-0.1015L0.872,-0.0879L0.9116,-0.072L0.9449,-0.0542L0.9703,-0.0353L0.9863,-0.0182L0.9947,-0.0062L0.9988,0.0001L1,0.0021"
    />
</svg>
