
<svg 
  class="airfoil-sa7024"
  fill="none"
  stroke="black" 
  stroke-width="1"
  style="overflow:visible"
  viewBox="0, -0.0654, 1, 0.0773"
  xmlns="http://www.w3.org/2000/svg">
    <title>SA7024</title>
    <path 
      vector-effect="non-scaling-stroke"
      d="M1,-0L0.9982,-0.0003L0.993,-0.0013L0.9846,-0.003L0.9733,-0.0053L0.9593,-0.008L0.9426,-0.011L0.9232,-0.0141L0.9012,-0.0175L0.8768,-0.0212L0.8502,-0.025L0.8217,-0.0289L0.7913,-0.0329L0.7592,-0.0369L0.7258,-0.0408L0.6912,-0.0446L0.6555,-0.0482L0.6191,-0.0517L0.5821,-0.0548L0.5448,-0.0576L0.5073,-0.0601L0.47,-0.0621L0.4329,-0.0637L0.3963,-0.0648L0.3604,-0.0654L0.3255,-0.0654L0.2916,-0.0649L0.2589,-0.0638L0.2277,-0.0621L0.1981,-0.0599L0.1701,-0.0571L0.144,-0.0538L0.1198,-0.0499L0.0977,-0.0456L0.0777,-0.0409L0.0599,-0.0359L0.0443,-0.0305L0.031,-0.025L0.0201,-0.0194L0.0116,-0.0139L0.0054,-0.0085L0.0016,-0.0035L0,-0L0.0017,0.0036L0.0069,0.0059L0.0152,0.008L0.0265,0.0096L0.0406,0.0108L0.0578,0.0116L0.0778,0.0119L0.1006,0.0118L0.126,0.0114L0.1539,0.0106L0.1841,0.0095L0.2166,0.0082L0.251,0.0067L0.2872,0.005L0.3249,0.0033L0.364,0.0015L0.4041,-0.0003L0.445,-0.002L0.4864,-0.0035L0.5281,-0.0048L0.5697,-0.0059L0.6108,-0.0067L0.6511,-0.0072L0.6904,-0.0075L0.7283,-0.0076L0.7647,-0.0075L0.7993,-0.0073L0.8317,-0.0068L0.8619,-0.0062L0.8895,-0.0055L0.9144,-0.0048L0.9364,-0.004L0.9554,-0.0031L0.9712,-0.0023L0.9837,-0.0015L0.9927,-0.0007L0.9982,-0.0002L1,-0"
    />
</svg>
