
<svg 
  class="airfoil-sa7036"
  fill="none"
  stroke="black" 
  stroke-width="1"
  style="overflow:visible"
  viewBox="0.0003, -0.0728, 0.9997, 0.0941"
  xmlns="http://www.w3.org/2000/svg">
    <title>SA7036</title>
    <path 
      vector-effect="non-scaling-stroke"
      d="M1,-0L0.9981,-0.0002L0.9927,-0.0009L0.9837,-0.0021L0.9714,-0.004L0.9561,-0.0065L0.9379,-0.0096L0.9171,-0.0133L0.8939,-0.0174L0.8685,-0.0218L0.841,-0.0264L0.8117,-0.0312L0.7807,-0.0359L0.7483,-0.0405L0.7144,-0.0451L0.6794,-0.0494L0.6435,-0.0536L0.6069,-0.0575L0.5697,-0.061L0.5324,-0.0642L0.4949,-0.067L0.4577,-0.0693L0.4208,-0.071L0.3845,-0.0722L0.349,-0.0728L0.3144,-0.0728L0.281,-0.0722L0.2489,-0.0709L0.2183,-0.069L0.1892,-0.0664L0.1619,-0.0633L0.1365,-0.0595L0.113,-0.0551L0.0916,-0.0502L0.0723,-0.0448L0.0552,-0.0391L0.0404,-0.0331L0.0278,-0.0268L0.0176,-0.0205L0.0097,-0.0143L0.0041,-0.0084L0.001,-0.0029L0.0003,0.0015L0.003,0.005L0.0094,0.0081L0.0187,0.0111L0.031,0.0137L0.0461,0.016L0.0641,0.0178L0.0848,0.0192L0.1081,0.0203L0.1339,0.021L0.1621,0.0213L0.1925,0.0213L0.2249,0.0209L0.2591,0.0203L0.295,0.0194L0.3322,0.0184L0.3707,0.0171L0.4101,0.0157L0.4501,0.0142L0.4906,0.0126L0.5311,0.0109L0.5716,0.0092L0.6118,0.0075L0.6514,0.0059L0.69,0.0044L0.7275,0.0031L0.7636,0.0019L0.798,0.0009L0.8303,0.0002L0.8605,-0.0004L0.8882,-0.0008L0.9132,-0.0011L0.9354,-0.0012L0.9546,-0.0012L0.9707,-0.001L0.9834,-0.0008L0.9926,-0.0004L0.9981,-0.0001L1,-0"
    />
</svg>
