
<svg 
  class="airfoil-sa7026"
  fill="none"
  stroke="black" 
  stroke-width="1"
  style="overflow:visible"
  viewBox="0, -0.0818, 1, 0.0969"
  xmlns="http://www.w3.org/2000/svg">
    <title>SA7026</title>
    <path 
      vector-effect="non-scaling-stroke"
      d="M1,-0L0.9981,-0.0003L0.9926,-0.0011L0.9836,-0.0027L0.9713,-0.005L0.956,-0.0081L0.9379,-0.0119L0.9172,-0.0164L0.8942,-0.0214L0.8692,-0.0269L0.8424,-0.0326L0.8137,-0.0383L0.7836,-0.0441L0.7522,-0.0497L0.7194,-0.0551L0.6857,-0.0601L0.651,-0.0648L0.6157,-0.0689L0.5798,-0.0725L0.5435,-0.0756L0.5071,-0.0781L0.4706,-0.0799L0.4344,-0.0812L0.3986,-0.0818L0.3634,-0.0818L0.329,-0.0811L0.2956,-0.0797L0.2632,-0.0777L0.2323,-0.0751L0.2028,-0.0719L0.1748,-0.068L0.1486,-0.0636L0.1243,-0.0587L0.1019,-0.0533L0.0816,-0.0476L0.0634,-0.0415L0.0474,-0.0352L0.0336,-0.0288L0.0221,-0.0223L0.0131,-0.016L0.0063,-0.01L0.002,-0.0045L0,-0L0.0013,0.0036L0.0063,0.0062L0.0144,0.0088L0.0256,0.0109L0.0397,0.0126L0.0567,0.0139L0.0766,0.0147L0.0993,0.0151L0.1246,0.0151L0.1523,0.0148L0.1825,0.0142L0.2148,0.0132L0.2491,0.0121L0.2851,0.0107L0.3227,0.0092L0.3616,0.0076L0.4015,0.0059L0.4422,0.0042L0.4835,0.0026L0.5249,0.0011L0.5663,-0.0002L0.6074,-0.0014L0.6478,-0.0024L0.6872,-0.0032L0.7254,-0.0038L0.7621,-0.0042L0.7969,-0.0043L0.8298,-0.0043L0.8602,-0.0041L0.8882,-0.0037L0.9135,-0.0032L0.9358,-0.0026L0.9549,-0.002L0.9708,-0.0013L0.9834,-0.0008L0.9925,-0.0004L0.9981,-0.0001L1,-0"
    />
</svg>
