
<svg 
  class="airfoil-sa7035"
  fill="none"
  stroke="black" 
  stroke-width="1"
  style="overflow:visible"
  viewBox="0.0005, -0.0707, 0.9995, 0.093499996"
  xmlns="http://www.w3.org/2000/svg">
    <title>SA7035</title>
    <path 
      vector-effect="non-scaling-stroke"
      d="M1,-0L0.9981,-0.0002L0.9926,-0.0008L0.9837,-0.002L0.9714,-0.0037L0.956,-0.0061L0.9378,-0.0091L0.9169,-0.0126L0.8936,-0.0166L0.8681,-0.0208L0.8405,-0.0253L0.8111,-0.0298L0.7799,-0.0344L0.7473,-0.0389L0.7133,-0.0433L0.6781,-0.0476L0.642,-0.0517L0.6053,-0.0555L0.568,-0.059L0.5305,-0.0621L0.493,-0.0649L0.4557,-0.0671L0.4187,-0.0689L0.3824,-0.0701L0.3468,-0.0707L0.3122,-0.0707L0.2788,-0.0701L0.2467,-0.0689L0.2161,-0.067L0.1871,-0.0645L0.1599,-0.0613L0.1346,-0.0576L0.1112,-0.0533L0.0899,-0.0485L0.0707,-0.0432L0.0538,-0.0376L0.0391,-0.0316L0.0267,-0.0255L0.0166,-0.0194L0.0089,-0.0133L0.0037,-0.0075L0.0008,-0.0022L0.0005,0.0018L0.0037,0.005L0.0105,0.0082L0.0203,0.0113L0.0329,0.0141L0.0483,0.0164L0.0666,0.0184L0.0875,0.02L0.111,0.0213L0.137,0.0221L0.1653,0.0226L0.1957,0.0228L0.2282,0.0226L0.2624,0.0222L0.2982,0.0214L0.3354,0.0205L0.3737,0.0193L0.4129,0.018L0.4527,0.0166L0.493,0.015L0.5333,0.0133L0.5736,0.0115L0.6135,0.0097L0.6529,0.008L0.6913,0.0063L0.7286,0.0049L0.7645,0.0035L0.7987,0.0024L0.8309,0.0014L0.8609,0.0006L0.8885,0L0.9134,-0.0004L0.9355,-0.0007L0.9547,-0.0008L0.9707,-0.0008L0.9834,-0.0006L0.9926,-0.0004L0.9981,-0.0001L1,-0"
    />
</svg>
