
<svg 
  class="airfoil-sa7025"
  fill="none"
  stroke="black" 
  stroke-width="1"
  style="overflow:visible"
  viewBox="0, -0.0742, 1, 0.0874"
  xmlns="http://www.w3.org/2000/svg">
    <title>SA7025</title>
    <path 
      vector-effect="non-scaling-stroke"
      d="M1,-0L0.9982,-0.0002L0.9928,-0.001L0.984,-0.0024L0.9719,-0.0045L0.9568,-0.0073L0.939,-0.0107L0.9186,-0.0147L0.8959,-0.0192L0.8711,-0.024L0.8443,-0.029L0.8157,-0.034L0.7855,-0.0391L0.7539,-0.0439L0.721,-0.0485L0.6868,-0.0529L0.6517,-0.0569L0.6158,-0.0607L0.5793,-0.064L0.5424,-0.067L0.5054,-0.0695L0.4685,-0.0715L0.4319,-0.073L0.3957,-0.0739L0.3602,-0.0742L0.3256,-0.0739L0.2921,-0.073L0.2597,-0.0715L0.2287,-0.0694L0.1993,-0.0666L0.1715,-0.0633L0.1454,-0.0594L0.1213,-0.055L0.0992,-0.0501L0.0792,-0.0447L0.0613,-0.0391L0.0456,-0.0332L0.0322,-0.0271L0.021,-0.021L0.0122,-0.015L0.0058,-0.0092L0.0017,-0.004L0,-0L0.0015,0.0036L0.0066,0.0061L0.0149,0.0084L0.0261,0.0102L0.0403,0.0116L0.0575,0.0126L0.0775,0.0131L0.1003,0.0132L0.1257,0.0129L0.1537,0.0123L0.184,0.0114L0.2164,0.0102L0.2509,0.0088L0.2871,0.0072L0.3249,0.0056L0.364,0.0039L0.4041,0.0021L0.4451,0.0005L0.4866,-0.001L0.5283,-0.0024L0.5699,-0.0034L0.611,-0.0042L0.6513,-0.0048L0.6906,-0.0052L0.7285,-0.0054L0.7649,-0.0054L0.7994,-0.0053L0.8318,-0.005L0.8619,-0.0046L0.8895,-0.0041L0.9143,-0.0035L0.9363,-0.003L0.9553,-0.0024L0.9712,-0.0017L0.9837,-0.0011L0.9927,-0.0006L0.9982,-0.0002L1,0"
    />
</svg>
