
<svg 
  class="airfoil-sa7038"
  fill="none"
  stroke="black" 
  stroke-width="1"
  style="overflow:visible"
  viewBox="0.0001, -0.077, 0.9999, 0.0959"
  xmlns="http://www.w3.org/2000/svg">
    <title>SA7038</title>
    <path 
      vector-effect="non-scaling-stroke"
      d="M1,-0L0.9981,-0.0002L0.9927,-0.001L0.9837,-0.0023L0.9715,-0.0044L0.9562,-0.0072L0.9381,-0.0106L0.9174,-0.0146L0.8944,-0.019L0.8692,-0.0237L0.842,-0.0287L0.813,-0.0337L0.7823,-0.0387L0.7501,-0.0437L0.7165,-0.0484L0.6819,-0.053L0.6462,-0.0573L0.6099,-0.0613L0.573,-0.065L0.5358,-0.0683L0.4986,-0.0711L0.4615,-0.0734L0.4248,-0.0752L0.3886,-0.0764L0.3531,-0.077L0.3186,-0.077L0.2851,-0.0763L0.253,-0.0749L0.2223,-0.0729L0.1931,-0.0702L0.1657,-0.0669L0.1401,-0.063L0.1164,-0.0585L0.0948,-0.0534L0.0752,-0.0479L0.0579,-0.042L0.0427,-0.0357L0.0299,-0.0292L0.0192,-0.0227L0.011,-0.0162L0.005,-0.0099L0.0014,-0.0041L0.0001,0.001L0.0019,0.0047L0.0074,0.0077L0.016,0.0106L0.0275,0.0131L0.042,0.015L0.0594,0.0166L0.0796,0.0178L0.1025,0.0185L0.128,0.0189L0.156,0.0188L0.1862,0.0185L0.2185,0.0178L0.2527,0.0169L0.2886,0.0157L0.326,0.0143L0.3647,0.0128L0.4044,0.0113L0.4448,0.0096L0.4856,0.008L0.5267,0.0063L0.5677,0.0047L0.6083,0.0032L0.6483,0.0018L0.6874,0.0006L0.7253,-0.0004L0.7618,-0.0013L0.7965,-0.0019L0.8292,-0.0024L0.8596,-0.0026L0.8876,-0.0026L0.9128,-0.0025L0.9352,-0.0023L0.9545,-0.002L0.9707,-0.0015L0.9834,-0.001L0.9926,-0.0005L0.9981,-0.0002L1,-0"
    />
</svg>
