
<svg 
  class="airfoil-sc1095"
  fill="none"
  stroke="black" 
  stroke-width="1"
  style="overflow:visible"
  viewBox="0, -0.0555, 1, 0.0949"
  xmlns="http://www.w3.org/2000/svg">
    <title>SIKORSKY SC1095 AIRFOIL</title>
    <path 
      vector-effect="non-scaling-stroke"
      d="M1,-0.0017L0.9964,-0.002L0.9863,-0.0028L0.9761,-0.0036L0.9659,-0.0044L0.9558,-0.0057L0.9456,-0.0069L0.9354,-0.0082L0.9253,-0.0094L0.9151,-0.0106L0.8948,-0.013L0.8744,-0.0153L0.8541,-0.0176L0.8338,-0.0199L0.8134,-0.0222L0.7931,-0.0244L0.7728,-0.0265L0.7524,-0.0287L0.7321,-0.0307L0.7117,-0.0327L0.6914,-0.0346L0.6711,-0.0364L0.6507,-0.0381L0.6304,-0.0398L0.6101,-0.0414L0.5897,-0.0429L0.5694,-0.0443L0.5491,-0.0457L0.5287,-0.0469L0.5084,-0.0481L0.4881,-0.0492L0.4677,-0.0502L0.4474,-0.0512L0.427,-0.052L0.4067,-0.0528L0.3864,-0.0535L0.366,-0.0541L0.3457,-0.0546L0.3254,-0.055L0.305,-0.0553L0.2847,-0.0555L0.2694,-0.0555L0.2542,-0.0555L0.2389,-0.0554L0.2237,-0.0552L0.2084,-0.0548L0.1932,-0.0543L0.1779,-0.0535L0.1627,-0.0526L0.1474,-0.0516L0.1322,-0.0503L0.1169,-0.0489L0.1017,-0.047L0.0915,-0.0456L0.0813,-0.044L0.0712,-0.0421L0.061,-0.0398L0.0508,-0.0371L0.0427,-0.0344L0.0366,-0.0321L0.0305,-0.0293L0.0244,-0.0261L0.0183,-0.0222L0.0122,-0.0175L0.0092,-0.0147L0.0066,-0.0121L0.0041,-0.0091L0.002,-0.0063L0.0008,-0.004L0.0001,-0.0015L0,-0L0.0001,0.0011L0.0008,0.0032L0.002,0.0051L0.0041,0.0076L0.0066,0.0102L0.0092,0.0124L0.0122,0.0145L0.0183,0.018L0.0244,0.0207L0.0305,0.0229L0.0366,0.0249L0.0427,0.0267L0.0508,0.0286L0.061,0.0305L0.0712,0.0319L0.0813,0.033L0.0915,0.034L0.1017,0.0348L0.1169,0.0358L0.1322,0.0367L0.1474,0.0374L0.1627,0.0379L0.1779,0.0384L0.1932,0.0388L0.2084,0.039L0.2237,0.0392L0.2389,0.0393L0.2542,0.0394L0.2694,0.0394L0.2847,0.0394L0.305,0.0392L0.3254,0.039L0.3457,0.0387L0.366,0.0384L0.3864,0.038L0.4067,0.0375L0.427,0.037L0.4474,0.0364L0.4677,0.0357L0.4881,0.035L0.5084,0.0342L0.5287,0.0333L0.5491,0.0324L0.5694,0.0315L0.5897,0.0305L0.6101,0.0294L0.6304,0.0282L0.6507,0.027L0.6711,0.0258L0.6914,0.0245L0.7117,0.0231L0.7321,0.0217L0.7524,0.0202L0.7728,0.0187L0.7931,0.0171L0.8134,0.0156L0.8338,0.014L0.8541,0.0124L0.8744,0.0107L0.8948,0.0091L0.9151,0.0074L0.9253,0.0066L0.9354,0.0057L0.9456,0.0049L0.9558,0.004L0.9659,0.0031L0.9761,0.0027L0.9863,0.0023L0.9964,0.0019L1,0.0017"
    />
</svg>
