
<svg 
  class="airfoil-sc1012r8"
  fill="none"
  stroke="black" 
  stroke-width="1"
  style="overflow:visible"
  viewBox="0, -0.0868, 1, 0.1214"
  xmlns="http://www.w3.org/2000/svg">
    <title>SIKORSKY SC1012R8 AIRFOIL</title>
    <path 
      vector-effect="non-scaling-stroke"
      d="M1,-0.0022L0.9965,-0.0026L0.9865,-0.0038L0.9765,-0.0051L0.9664,-0.0064L0.9564,-0.0082L0.9464,-0.01L0.9363,-0.0118L0.9263,-0.0135L0.9163,-0.0153L0.8962,-0.0187L0.8761,-0.0221L0.8561,-0.0255L0.836,-0.0288L0.816,-0.0321L0.7959,-0.0354L0.7758,-0.0385L0.7558,-0.0416L0.7357,-0.0447L0.7156,-0.0476L0.6955,-0.0505L0.6755,-0.0532L0.6554,-0.0559L0.6353,-0.0584L0.6152,-0.0609L0.5951,-0.0632L0.5751,-0.0655L0.555,-0.0676L0.5349,-0.0697L0.5148,-0.0716L0.4947,-0.0734L0.4746,-0.0752L0.4545,-0.0768L0.4344,-0.0783L0.4143,-0.0798L0.3942,-0.0811L0.3741,-0.0823L0.3539,-0.0833L0.3338,-0.0843L0.3137,-0.0851L0.2936,-0.0858L0.2785,-0.0862L0.2634,-0.0866L0.2483,-0.0868L0.2332,-0.0868L0.2181,-0.0866L0.203,-0.0863L0.1879,-0.0857L0.1728,-0.0849L0.1576,-0.0839L0.1425,-0.0827L0.1274,-0.0811L0.1122,-0.0792L0.1021,-0.0776L0.092,-0.0758L0.0819,-0.0736L0.0718,-0.0709L0.0616,-0.0677L0.0535,-0.0645L0.0474,-0.0617L0.0413,-0.0584L0.0351,-0.0544L0.029,-0.0496L0.0228,-0.0439L0.019,-0.0399L0.0128,-0.0323L0.0097,-0.0277L0.0071,-0.0233L0.0044,-0.0178L0.0023,-0.0121L0.001,-0.0071L0.0002,-0.0024L0,-0L0,0.0023L0.0007,0.0064L0.0018,0.0099L0.0037,0.0134L0.0062,0.0163L0.0087,0.0181L0.0116,0.0197L0.0176,0.0217L0.0213,0.0226L0.0274,0.0239L0.0334,0.0249L0.0394,0.0257L0.0454,0.0264L0.0515,0.027L0.0595,0.0276L0.0696,0.0283L0.0796,0.0288L0.0897,0.0293L0.0997,0.0296L0.1098,0.03L0.1249,0.0304L0.14,0.0307L0.1551,0.031L0.1702,0.0314L0.1853,0.0317L0.2004,0.032L0.2155,0.0324L0.2305,0.0327L0.2456,0.0331L0.2607,0.0334L0.2758,0.0337L0.2909,0.034L0.3111,0.0343L0.3312,0.0345L0.3513,0.0346L0.3715,0.0346L0.3916,0.0345L0.4117,0.0343L0.4319,0.0341L0.452,0.0338L0.4722,0.0334L0.4923,0.0329L0.5125,0.0324L0.5326,0.0318L0.5528,0.0311L0.5729,0.0303L0.5931,0.0295L0.6132,0.0285L0.6334,0.0275L0.6536,0.0265L0.6737,0.0253L0.6939,0.0241L0.7141,0.0228L0.7342,0.0215L0.7544,0.0201L0.7746,0.0186L0.7947,0.0171L0.8149,0.0156L0.8351,0.014L0.8552,0.0124L0.8754,0.0108L0.8956,0.0092L0.9158,0.0075L0.9258,0.0067L0.9359,0.0058L0.946,0.005L0.9561,0.0041L0.9662,0.0032L0.9763,0.0029L0.9863,0.0026L0.9964,0.0023L1,0.0022"
    />
</svg>
