
<svg 
  class="airfoil-sc1095r8"
  fill="none"
  stroke="black" 
  stroke-width="1"
  style="overflow:visible"
  viewBox="-0.0097, -0.0546, 0.9932, 0.0934"
  xmlns="http://www.w3.org/2000/svg">
    <title>SIKORSKY SC1095R8 AIRFOIL</title>
    <path 
      vector-effect="non-scaling-stroke"
      d="M0.9835,-0.0017L0.98,-0.002L0.97,-0.0028L0.96,-0.0035L0.95,-0.0044L0.94,-0.0056L0.93,-0.0068L0.92,-0.008L0.91,-0.0092L0.9,-0.0104L0.88,-0.0128L0.86,-0.0151L0.84,-0.0174L0.82,-0.0196L0.8,-0.0218L0.78,-0.024L0.76,-0.0261L0.74,-0.0282L0.72,-0.0302L0.7,-0.0321L0.68,-0.034L0.66,-0.0358L0.64,-0.0375L0.62,-0.0392L0.6,-0.0407L0.58,-0.0422L0.56,-0.0436L0.54,-0.0449L0.52,-0.0462L0.5,-0.0473L0.48,-0.0484L0.46,-0.0494L0.44,-0.0503L0.42,-0.0512L0.4,-0.0519L0.38,-0.0526L0.36,-0.0532L0.34,-0.0537L0.32,-0.0541L0.3,-0.0544L0.28,-0.0546L0.265,-0.0546L0.25,-0.0546L0.235,-0.0545L0.22,-0.0543L0.205,-0.0539L0.19,-0.0534L0.175,-0.0527L0.16,-0.0518L0.145,-0.0507L0.13,-0.0495L0.115,-0.048L0.1,-0.0463L0.09,-0.0449L0.08,-0.0433L0.07,-0.0414L0.06,-0.0391L0.05,-0.0365L0.042,-0.0339L0.036,-0.0316L0.03,-0.0289L0.024,-0.0257L0.018,-0.0218L0.012,-0.0173L0.0083,-0.0141L0.0023,-0.0081L-0.0007,-0.0045L-0.0032,-0.001L-0.0057,0.0033L-0.0077,0.0079L-0.0089,0.0117L-0.0096,0.0154L-0.0097,0.0173L-0.0096,0.0191L-0.0089,0.0222L-0.0077,0.0249L-0.0057,0.0277L-0.0032,0.0299L-0.0007,0.0312L0.0023,0.0324L0.0083,0.0339L0.012,0.0345L0.018,0.0354L0.024,0.0361L0.03,0.0366L0.036,0.0371L0.042,0.0374L0.05,0.0378L0.06,0.0381L0.07,0.0383L0.08,0.0385L0.09,0.0386L0.1,0.0387L0.115,0.0387L0.13,0.0388L0.145,0.0388L0.16,0.0388L0.175,0.0388L0.19,0.0388L0.205,0.0388L0.22,0.0388L0.235,0.0388L0.25,0.0388L0.265,0.0388L0.28,0.0387L0.3,0.0386L0.32,0.0384L0.34,0.0381L0.36,0.0378L0.38,0.0373L0.4,0.0369L0.42,0.0363L0.44,0.0358L0.46,0.0351L0.48,0.0344L0.5,0.0336L0.52,0.0328L0.54,0.0319L0.56,0.031L0.58,0.03L0.6,0.0289L0.62,0.0278L0.64,0.0266L0.66,0.0253L0.68,0.024L0.7,0.0227L0.72,0.0213L0.74,0.0199L0.76,0.0184L0.78,0.0169L0.8,0.0153L0.82,0.0137L0.84,0.0122L0.86,0.0105L0.88,0.0089L0.9,0.0073L0.91,0.0065L0.92,0.0057L0.93,0.0048L0.94,0.004L0.95,0.0031L0.96,0.0027L0.97,0.0023L0.98,0.0018L0.9835,0.0017"
    />
</svg>
