
<svg 
  class="airfoil-sc1094r8"
  fill="none"
  stroke="black" 
  stroke-width="1"
  style="overflow:visible"
  viewBox="0, -0.068, 1, 0.0951"
  xmlns="http://www.w3.org/2000/svg">
    <title>SIKORSKY SC1094 R8 AIRFOIL</title>
    <path 
      vector-effect="non-scaling-stroke"
      d="M1,-0.0017L0.9965,-0.002L0.9865,-0.003L0.9764,-0.004L0.9664,-0.005L0.9563,-0.0064L0.9463,-0.0078L0.9362,-0.0092L0.9262,-0.0106L0.9161,-0.012L0.896,-0.0147L0.876,-0.0173L0.8559,-0.02L0.8358,-0.0226L0.8157,-0.0252L0.7956,-0.0277L0.7755,-0.0302L0.7554,-0.0326L0.7353,-0.035L0.7152,-0.0373L0.6951,-0.0396L0.675,-0.0417L0.6549,-0.0438L0.6348,-0.0458L0.6147,-0.0477L0.5946,-0.0496L0.5745,-0.0513L0.5544,-0.053L0.5343,-0.0546L0.5142,-0.0561L0.4941,-0.0576L0.4739,-0.0589L0.4538,-0.0602L0.4337,-0.0614L0.4136,-0.0625L0.3935,-0.0635L0.3734,-0.0645L0.3532,-0.0653L0.3331,-0.0661L0.313,-0.0667L0.2929,-0.0672L0.2778,-0.0676L0.2627,-0.0678L0.2476,-0.068L0.2325,-0.068L0.2174,-0.0679L0.2022,-0.0676L0.1871,-0.0672L0.172,-0.0666L0.1569,-0.0658L0.1418,-0.0648L0.1267,-0.0636L0.1115,-0.0621L0.1014,-0.0608L0.0914,-0.0594L0.0813,-0.0576L0.0711,-0.0556L0.061,-0.0531L0.0529,-0.0506L0.0469,-0.0484L0.0408,-0.0458L0.0347,-0.0426L0.0286,-0.0389L0.0225,-0.0344L0.0187,-0.0313L0.0125,-0.0253L0.0094,-0.0217L0.0069,-0.0182L0.0043,-0.014L0.0022,-0.0095L0.0009,-0.0056L0.0001,-0.0019L0,-0L0.0001,0.0018L0.0007,0.005L0.0019,0.0077L0.0038,0.0105L0.0063,0.0128L0.0088,0.0142L0.0118,0.0154L0.0178,0.017L0.0215,0.0177L0.0276,0.0187L0.0336,0.0195L0.0396,0.0202L0.0457,0.0207L0.0517,0.0212L0.0597,0.0217L0.0698,0.0222L0.0799,0.0226L0.0899,0.0229L0.1,0.0232L0.11,0.0235L0.1251,0.0238L0.1402,0.0241L0.1553,0.0243L0.1704,0.0246L0.1855,0.0249L0.2006,0.0251L0.2157,0.0254L0.2308,0.0256L0.2459,0.0259L0.261,0.0262L0.2761,0.0264L0.2912,0.0267L0.3114,0.0269L0.3315,0.027L0.3516,0.0271L0.3718,0.0271L0.3919,0.027L0.412,0.0269L0.4322,0.0267L0.4523,0.0265L0.4725,0.0262L0.4926,0.0258L0.5128,0.0254L0.5329,0.0249L0.553,0.0244L0.5732,0.0238L0.5933,0.0231L0.6135,0.0224L0.6336,0.0216L0.6538,0.0207L0.6739,0.0198L0.6941,0.0189L0.7142,0.0179L0.7344,0.0168L0.7546,0.0157L0.7747,0.0146L0.7949,0.0134L0.815,0.0122L0.8352,0.011L0.8553,0.0097L0.8755,0.0085L0.8957,0.0072L0.9158,0.0059L0.9259,0.0052L0.936,0.0046L0.9461,0.0039L0.9561,0.0032L0.9662,0.0025L0.9763,0.0023L0.9864,0.002L0.9964,0.0018L1,0.0017"
    />
</svg>
