
<svg 
  class="airfoil-sc20010"
  fill="none"
  stroke="black" 
  stroke-width="1"
  style="overflow:visible"
  viewBox="0, -0.05, 1, 0.1"
  xmlns="http://www.w3.org/2000/svg">
    <title>NASA SC(2)-0010 AIRFOIL</title>
    <path 
      vector-effect="non-scaling-stroke"
      d="M1,-0.0025L0.99,-0.0036L0.98,-0.0046L0.97,-0.0057L0.96,-0.0067L0.95,-0.0077L0.94,-0.0088L0.93,-0.0099L0.92,-0.0109L0.91,-0.012L0.9,-0.013L0.89,-0.0141L0.88,-0.0151L0.87,-0.0161L0.86,-0.0172L0.85,-0.0182L0.84,-0.0193L0.83,-0.0203L0.82,-0.0214L0.81,-0.0225L0.8,-0.0235L0.79,-0.0246L0.78,-0.0256L0.77,-0.0267L0.76,-0.0277L0.75,-0.0288L0.74,-0.0298L0.73,-0.0309L0.72,-0.0319L0.71,-0.0329L0.7,-0.034L0.69,-0.0351L0.68,-0.0361L0.67,-0.0371L0.66,-0.0382L0.65,-0.0392L0.64,-0.0402L0.63,-0.0411L0.62,-0.042L0.61,-0.0428L0.6,-0.0436L0.59,-0.0443L0.58,-0.0449L0.57,-0.0455L0.56,-0.046L0.55,-0.0465L0.54,-0.047L0.53,-0.0474L0.52,-0.0478L0.51,-0.0481L0.5,-0.0484L0.49,-0.0487L0.48,-0.049L0.47,-0.0492L0.46,-0.0494L0.45,-0.0496L0.44,-0.0497L0.43,-0.0498L0.42,-0.0499L0.41,-0.05L0.4,-0.05L0.39,-0.05L0.38,-0.05L0.37,-0.05L0.36,-0.0499L0.35,-0.0498L0.34,-0.0497L0.33,-0.0496L0.32,-0.0494L0.31,-0.0492L0.3,-0.049L0.29,-0.0487L0.28,-0.0484L0.27,-0.0481L0.26,-0.0478L0.25,-0.0474L0.24,-0.047L0.23,-0.0466L0.22,-0.0461L0.21,-0.0456L0.2,-0.0451L0.19,-0.0445L0.18,-0.0439L0.17,-0.0432L0.16,-0.0425L0.15,-0.0417L0.14,-0.0409L0.13,-0.04L0.12,-0.039L0.11,-0.038L0.1,-0.0369L0.09,-0.0357L0.08,-0.0343L0.07,-0.0328L0.06,-0.0311L0.05,-0.0292L0.04,-0.027L0.03,-0.0243L0.02,-0.0207L0.01,-0.0155L0.005,-0.0116L0.002,-0.0076L0,-0L0.002,0.0076L0.005,0.0116L0.01,0.0155L0.02,0.0207L0.03,0.0243L0.04,0.027L0.05,0.0292L0.06,0.0311L0.07,0.0328L0.08,0.0343L0.09,0.0357L0.1,0.0369L0.11,0.038L0.12,0.039L0.13,0.04L0.14,0.0409L0.15,0.0417L0.16,0.0425L0.17,0.0432L0.18,0.0439L0.19,0.0445L0.2,0.0451L0.21,0.0456L0.22,0.0461L0.23,0.0466L0.24,0.047L0.25,0.0474L0.26,0.0478L0.27,0.0481L0.28,0.0484L0.29,0.0487L0.3,0.049L0.31,0.0492L0.32,0.0494L0.33,0.0496L0.34,0.0497L0.35,0.0498L0.36,0.0499L0.37,0.05L0.38,0.05L0.39,0.05L0.4,0.05L0.41,0.05L0.42,0.0499L0.43,0.0498L0.44,0.0497L0.45,0.0496L0.46,0.0494L0.47,0.0492L0.48,0.049L0.49,0.0487L0.5,0.0484L0.51,0.0481L0.52,0.0478L0.53,0.0474L0.54,0.047L0.55,0.0465L0.56,0.046L0.57,0.0455L0.58,0.0449L0.59,0.0443L0.6,0.0436L0.61,0.0428L0.62,0.042L0.63,0.0411L0.64,0.0402L0.65,0.0392L0.66,0.0382L0.67,0.0371L0.68,0.0361L0.69,0.0351L0.7,0.034L0.71,0.0329L0.72,0.0319L0.73,0.0309L0.74,0.0298L0.75,0.0288L0.76,0.0277L0.77,0.0267L0.78,0.0256L0.79,0.0246L0.8,0.0235L0.81,0.0225L0.82,0.0214L0.83,0.0203L0.84,0.0193L0.85,0.0182L0.86,0.0172L0.87,0.0161L0.88,0.0151L0.89,0.0141L0.9,0.013L0.91,0.012L0.92,0.0109L0.93,0.0099L0.94,0.0088L0.95,0.0077L0.96,0.0067L0.97,0.0057L0.98,0.0046L0.99,0.0036L1,0.0025"
    />
</svg>
