
<svg 
  class="airfoil-sc20712"
  fill="none"
  stroke="black" 
  stroke-width="1"
  style="overflow:visible"
  viewBox="0, -0.0601, 1, 0.1199"
  xmlns="http://www.w3.org/2000/svg">
    <title>NASA SC(2)-0712 AIRFOIL</title>
    <path 
      vector-effect="non-scaling-stroke"
      d="M1,0.0117L0.99,0.0088L0.98,0.006L0.97,0.0033L0.96,0.0007L0.95,-0.0018L0.94,-0.0042L0.93,-0.0065L0.92,-0.0088L0.91,-0.011L0.9,-0.0131L0.89,-0.0152L0.88,-0.0172L0.87,-0.0192L0.86,-0.0211L0.85,-0.023L0.84,-0.0248L0.83,-0.0266L0.82,-0.0283L0.81,-0.03L0.8,-0.0316L0.79,-0.0332L0.78,-0.0347L0.77,-0.0362L0.76,-0.0376L0.75,-0.039L0.74,-0.0403L0.73,-0.0416L0.72,-0.0428L0.71,-0.044L0.7,-0.0451L0.69,-0.0462L0.68,-0.0472L0.67,-0.0482L0.66,-0.0491L0.65,-0.05L0.64,-0.0508L0.63,-0.0516L0.62,-0.0523L0.61,-0.053L0.6,-0.0537L0.59,-0.0543L0.58,-0.0549L0.57,-0.0554L0.56,-0.0559L0.55,-0.0564L0.54,-0.0569L0.53,-0.0573L0.52,-0.0577L0.51,-0.0581L0.5,-0.0584L0.49,-0.0587L0.48,-0.059L0.47,-0.0592L0.46,-0.0594L0.45,-0.0596L0.44,-0.0598L0.43,-0.0599L0.42,-0.06L0.41,-0.0601L0.4,-0.0601L0.39,-0.0601L0.38,-0.0601L0.37,-0.0601L0.36,-0.06L0.35,-0.0599L0.34,-0.0598L0.33,-0.0596L0.32,-0.0594L0.31,-0.0592L0.3,-0.059L0.29,-0.0587L0.28,-0.0584L0.27,-0.058L0.26,-0.0576L0.25,-0.0572L0.24,-0.0567L0.23,-0.0562L0.22,-0.0557L0.21,-0.0551L0.2,-0.0544L0.19,-0.0537L0.18,-0.053L0.17,-0.0522L0.16,-0.0513L0.15,-0.0504L0.14,-0.0494L0.13,-0.0483L0.12,-0.0471L0.11,-0.0459L0.1,-0.0446L0.09,-0.0431L0.08,-0.0415L0.07,-0.0397L0.06,-0.0377L0.05,-0.0354L0.04,-0.0327L0.03,-0.0294L0.02,-0.0252L0.01,-0.019L0.005,-0.0141L0.002,-0.0092L0,-0L0.002,0.0092L0.005,0.0141L0.01,0.019L0.02,0.0252L0.03,0.0294L0.04,0.0327L0.05,0.0353L0.06,0.0376L0.07,0.0396L0.08,0.0414L0.09,0.043L0.1,0.0445L0.11,0.0459L0.12,0.0472L0.13,0.0484L0.14,0.0495L0.15,0.0505L0.16,0.0514L0.17,0.0523L0.18,0.0531L0.19,0.0539L0.2,0.0546L0.21,0.0553L0.22,0.0559L0.23,0.0564L0.24,0.0569L0.25,0.0574L0.26,0.0578L0.27,0.0582L0.28,0.0585L0.29,0.0588L0.3,0.0591L0.31,0.0593L0.32,0.0595L0.33,0.0596L0.34,0.0597L0.35,0.0598L0.36,0.0598L0.37,0.0598L0.38,0.0598L0.39,0.0597L0.4,0.0596L0.41,0.0594L0.42,0.0592L0.43,0.0589L0.44,0.0586L0.45,0.0582L0.46,0.0578L0.47,0.0573L0.48,0.0567L0.49,0.0561L0.5,0.0554L0.51,0.0546L0.52,0.0537L0.53,0.0528L0.54,0.0518L0.55,0.0508L0.56,0.0496L0.57,0.0484L0.58,0.0471L0.59,0.0457L0.6,0.0443L0.61,0.0429L0.62,0.0414L0.63,0.0398L0.64,0.0382L0.65,0.0366L0.66,0.0349L0.67,0.0332L0.68,0.0315L0.69,0.0298L0.7,0.028L0.71,0.0262L0.72,0.0244L0.73,0.0226L0.74,0.0208L0.75,0.0191L0.76,0.0174L0.77,0.0157L0.78,0.0141L0.79,0.0125L0.8,0.011L0.81,0.0095L0.82,0.0082L0.83,0.007L0.84,0.0059L0.85,0.005L0.86,0.0043L0.87,0.0038L0.88,0.0035L0.89,0.0033L0.9,0.0034L0.91,0.0036L0.92,0.0041L0.93,0.0049L0.94,0.0059L0.95,0.0072L0.96,0.0087L0.97,0.0105L0.98,0.0126L0.99,0.015L1,0.0177"
    />
</svg>
