
<svg 
  class="airfoil-sc20614"
  fill="none"
  stroke="black" 
  stroke-width="1"
  style="overflow:visible"
  viewBox="0, -0.0701, 1, 0.14"
  xmlns="http://www.w3.org/2000/svg">
    <title>NASA SC(2)-0614 AIRFOIL</title>
    <path 
      vector-effect="non-scaling-stroke"
      d="M1,0.0066L0.99,0.0039L0.98,0.0013L0.97,-0.0013L0.96,-0.0038L0.95,-0.0062L0.94,-0.0086L0.93,-0.0109L0.92,-0.0132L0.91,-0.0154L0.9,-0.0176L0.89,-0.0197L0.88,-0.0218L0.87,-0.0238L0.86,-0.0258L0.85,-0.0278L0.84,-0.0297L0.83,-0.0316L0.82,-0.0334L0.81,-0.0352L0.8,-0.037L0.79,-0.0387L0.78,-0.0404L0.77,-0.042L0.76,-0.0436L0.75,-0.0451L0.74,-0.0466L0.73,-0.0481L0.72,-0.0495L0.71,-0.0509L0.7,-0.0522L0.69,-0.0535L0.68,-0.0547L0.67,-0.0559L0.66,-0.057L0.65,-0.0581L0.64,-0.0591L0.63,-0.0601L0.62,-0.061L0.61,-0.0618L0.6,-0.0626L0.59,-0.0633L0.58,-0.064L0.57,-0.0647L0.56,-0.0653L0.55,-0.0659L0.54,-0.0664L0.53,-0.0669L0.52,-0.0673L0.51,-0.0677L0.5,-0.0681L0.49,-0.0684L0.48,-0.0687L0.47,-0.069L0.46,-0.0692L0.45,-0.0694L0.44,-0.0696L0.43,-0.0698L0.42,-0.0699L0.41,-0.07L0.4,-0.0701L0.39,-0.0701L0.38,-0.0701L0.37,-0.0701L0.36,-0.07L0.35,-0.0699L0.34,-0.0698L0.33,-0.0696L0.32,-0.0694L0.31,-0.0692L0.3,-0.0689L0.29,-0.0686L0.28,-0.0682L0.27,-0.0678L0.26,-0.0673L0.25,-0.0668L0.24,-0.0663L0.23,-0.0657L0.22,-0.0651L0.21,-0.0644L0.2,-0.0637L0.19,-0.0629L0.18,-0.0621L0.17,-0.0612L0.16,-0.0602L0.15,-0.0591L0.14,-0.058L0.13,-0.0568L0.12,-0.0555L0.11,-0.0541L0.1,-0.0525L0.09,-0.0508L0.08,-0.0489L0.07,-0.0468L0.06,-0.0445L0.05,-0.0418L0.04,-0.0387L0.03,-0.0349L0.02,-0.0298L0.01,-0.0225L0.005,-0.0166L0.002,-0.0108L0,-0L0.002,0.0108L0.005,0.0166L0.01,0.0225L0.02,0.0298L0.03,0.0349L0.04,0.0388L0.05,0.0419L0.06,0.0446L0.07,0.0469L0.08,0.049L0.09,0.0509L0.1,0.0526L0.11,0.0542L0.12,0.0557L0.13,0.057L0.14,0.0582L0.15,0.0594L0.16,0.0605L0.17,0.0615L0.18,0.0624L0.19,0.0633L0.2,0.0641L0.21,0.0648L0.22,0.0655L0.23,0.0661L0.24,0.0667L0.25,0.0672L0.26,0.0677L0.27,0.0681L0.28,0.0685L0.29,0.0688L0.3,0.0691L0.31,0.0693L0.32,0.0695L0.33,0.0697L0.34,0.0698L0.35,0.0699L0.36,0.0699L0.37,0.0698L0.38,0.0697L0.39,0.0696L0.4,0.0694L0.41,0.0692L0.42,0.0689L0.43,0.0686L0.44,0.0682L0.45,0.0677L0.46,0.0672L0.47,0.0666L0.48,0.0659L0.49,0.0651L0.5,0.0642L0.51,0.0632L0.52,0.0622L0.53,0.0611L0.54,0.0599L0.55,0.0586L0.56,0.0572L0.57,0.0557L0.58,0.0541L0.59,0.0525L0.6,0.0508L0.61,0.0491L0.62,0.0473L0.63,0.0455L0.64,0.0436L0.65,0.0417L0.66,0.0397L0.67,0.0377L0.68,0.0356L0.69,0.0336L0.7,0.0315L0.71,0.0294L0.72,0.0274L0.73,0.0253L0.74,0.0233L0.75,0.0213L0.76,0.0193L0.77,0.0174L0.78,0.0155L0.79,0.0137L0.8,0.0119L0.81,0.0102L0.82,0.0086L0.83,0.0072L0.84,0.0059L0.85,0.0047L0.86,0.0037L0.87,0.0029L0.88,0.0023L0.89,0.0019L0.9,0.0017L0.91,0.0017L0.92,0.0019L0.93,0.0024L0.94,0.0031L0.95,0.0041L0.96,0.0054L0.97,0.0069L0.98,0.0087L0.99,0.0108L1,0.0132"
    />
</svg>
