
<svg 
  class="airfoil-sc20503"
  fill="none"
  stroke="black" 
  stroke-width="1"
  style="overflow:visible"
  viewBox="0, -0.015, 1, 0.0301"
  xmlns="http://www.w3.org/2000/svg">
    <title>NASA SC(2)-0503 AIRFOIL</title>
    <path 
      vector-effect="non-scaling-stroke"
      d="M1,0.0059L0.99,0.0047L0.98,0.0036L0.97,0.0025L0.96,0.0015L0.95,0.0005L0.94,-0.0004L0.93,-0.0012L0.92,-0.002L0.91,-0.0027L0.9,-0.0034L0.89,-0.004L0.88,-0.0046L0.87,-0.0051L0.86,-0.0056L0.85,-0.0061L0.84,-0.0065L0.83,-0.0069L0.82,-0.0073L0.81,-0.0077L0.8,-0.0081L0.79,-0.0084L0.78,-0.0087L0.77,-0.009L0.76,-0.0093L0.75,-0.0096L0.74,-0.0099L0.73,-0.0102L0.72,-0.0104L0.71,-0.0106L0.7,-0.0109L0.69,-0.0111L0.68,-0.0114L0.67,-0.0116L0.66,-0.0118L0.65,-0.012L0.64,-0.0122L0.63,-0.0124L0.62,-0.0126L0.61,-0.0128L0.6,-0.013L0.59,-0.0132L0.58,-0.0133L0.57,-0.0135L0.56,-0.0136L0.55,-0.0137L0.54,-0.0139L0.53,-0.014L0.52,-0.0141L0.51,-0.0142L0.5,-0.0143L0.49,-0.0144L0.48,-0.0145L0.47,-0.0146L0.46,-0.0147L0.45,-0.0147L0.44,-0.0148L0.43,-0.0148L0.42,-0.0148L0.41,-0.0149L0.4,-0.0149L0.39,-0.015L0.38,-0.015L0.37,-0.015L0.36,-0.015L0.35,-0.015L0.34,-0.015L0.33,-0.015L0.32,-0.015L0.31,-0.0149L0.3,-0.0149L0.29,-0.0148L0.28,-0.0148L0.27,-0.0147L0.26,-0.0146L0.25,-0.0145L0.24,-0.0143L0.23,-0.0142L0.22,-0.0141L0.21,-0.0139L0.2,-0.0137L0.19,-0.0135L0.18,-0.0133L0.17,-0.0131L0.16,-0.0128L0.15,-0.0126L0.14,-0.0123L0.13,-0.012L0.12,-0.0117L0.11,-0.0113L0.1,-0.0109L0.09,-0.0105L0.08,-0.01L0.07,-0.0095L0.06,-0.0089L0.05,-0.0083L0.04,-0.0076L0.03,-0.0068L0.02,-0.0057L0.01,-0.0043L0.005,-0.0032L0.002,-0.0021L0,-0L0.002,0.0021L0.005,0.0032L0.01,0.0043L0.02,0.0057L0.03,0.0068L0.04,0.0076L0.05,0.0083L0.06,0.0089L0.07,0.0095L0.08,0.01L0.09,0.0105L0.1,0.0109L0.11,0.0113L0.12,0.0117L0.13,0.012L0.14,0.0123L0.15,0.0126L0.16,0.0129L0.17,0.0131L0.18,0.0133L0.19,0.0135L0.2,0.0137L0.21,0.0139L0.22,0.0141L0.23,0.0143L0.24,0.0144L0.25,0.0145L0.26,0.0146L0.27,0.0147L0.28,0.0148L0.29,0.0149L0.3,0.015L0.31,0.0151L0.32,0.0151L0.33,0.0151L0.34,0.0151L0.35,0.0151L0.36,0.0151L0.37,0.0151L0.38,0.0151L0.39,0.0151L0.4,0.0151L0.41,0.015L0.42,0.0149L0.43,0.0148L0.44,0.0147L0.45,0.0146L0.46,0.0145L0.47,0.0144L0.48,0.0142L0.49,0.014L0.5,0.0138L0.51,0.0136L0.52,0.0134L0.53,0.0132L0.54,0.013L0.55,0.0127L0.56,0.0124L0.57,0.0121L0.58,0.0118L0.59,0.0115L0.6,0.0112L0.61,0.0109L0.62,0.0106L0.63,0.0103L0.64,0.0099L0.65,0.0095L0.66,0.0091L0.67,0.0087L0.68,0.0083L0.69,0.0079L0.7,0.0075L0.71,0.0071L0.72,0.0067L0.73,0.0063L0.74,0.0059L0.75,0.0055L0.76,0.0051L0.77,0.0048L0.78,0.0045L0.79,0.0042L0.8,0.0039L0.81,0.0036L0.82,0.0033L0.83,0.0031L0.84,0.0029L0.85,0.0027L0.86,0.0026L0.87,0.0025L0.88,0.0025L0.89,0.0025L0.9,0.0026L0.91,0.0028L0.92,0.003L0.93,0.0033L0.94,0.0037L0.95,0.0042L0.96,0.0048L0.97,0.0055L0.98,0.0063L0.99,0.0072L1,0.0083"
    />
</svg>
