
<svg 
  class="airfoil-sc20710"
  fill="none"
  stroke="black" 
  stroke-width="1"
  style="overflow:visible"
  viewBox="0, -0.05, 1, 0.099800006"
  xmlns="http://www.w3.org/2000/svg">
    <title>NASA SC(2)-0710 AIRFOIL</title>
    <path 
      vector-effect="non-scaling-stroke"
      d="M1,0.0119L0.99,0.009L0.98,0.0062L0.97,0.0036L0.96,0.0012L0.95,-0.0011L0.94,-0.0033L0.93,-0.0054L0.92,-0.0075L0.91,-0.0095L0.9,-0.0114L0.89,-0.0133L0.88,-0.0151L0.87,-0.0169L0.86,-0.0186L0.85,-0.0203L0.84,-0.0219L0.83,-0.0235L0.82,-0.025L0.81,-0.0265L0.8,-0.0279L0.79,-0.0292L0.78,-0.0305L0.77,-0.0317L0.76,-0.0328L0.75,-0.0339L0.74,-0.0349L0.73,-0.0359L0.72,-0.0368L0.71,-0.0377L0.7,-0.0385L0.69,-0.0393L0.68,-0.04L0.67,-0.0407L0.66,-0.0414L0.65,-0.0421L0.64,-0.0427L0.63,-0.0433L0.62,-0.0439L0.61,-0.0444L0.6,-0.0449L0.59,-0.0454L0.58,-0.0459L0.57,-0.0463L0.56,-0.0467L0.55,-0.0471L0.54,-0.0475L0.53,-0.0478L0.52,-0.0481L0.51,-0.0484L0.5,-0.0487L0.49,-0.0489L0.48,-0.0491L0.47,-0.0493L0.46,-0.0495L0.45,-0.0496L0.44,-0.0497L0.43,-0.0498L0.42,-0.0499L0.41,-0.05L0.4,-0.05L0.39,-0.05L0.38,-0.05L0.37,-0.05L0.36,-0.0499L0.35,-0.0498L0.34,-0.0497L0.33,-0.0496L0.32,-0.0494L0.31,-0.0492L0.3,-0.049L0.29,-0.0488L0.28,-0.0485L0.27,-0.0482L0.26,-0.0479L0.25,-0.0475L0.24,-0.0471L0.23,-0.0467L0.22,-0.0462L0.21,-0.0457L0.2,-0.0451L0.19,-0.0445L0.18,-0.0439L0.17,-0.0432L0.16,-0.0425L0.15,-0.0417L0.14,-0.0408L0.13,-0.0399L0.12,-0.0389L0.11,-0.0378L0.1,-0.0366L0.09,-0.0354L0.08,-0.034L0.07,-0.0325L0.06,-0.0308L0.05,-0.0289L0.04,-0.0267L0.03,-0.024L0.02,-0.0206L0.01,-0.0155L0.005,-0.0116L0.002,-0.0076L0,-0L0.002,0.0076L0.005,0.0116L0.01,0.0155L0.02,0.0206L0.03,0.024L0.04,0.0267L0.05,0.0289L0.06,0.0308L0.07,0.0325L0.08,0.034L0.09,0.0354L0.1,0.0366L0.11,0.0378L0.12,0.0389L0.13,0.0399L0.14,0.0408L0.15,0.0417L0.16,0.0425L0.17,0.0432L0.18,0.0439L0.19,0.0446L0.2,0.0452L0.21,0.0458L0.22,0.0463L0.23,0.0468L0.24,0.0472L0.25,0.0476L0.26,0.048L0.27,0.0483L0.28,0.0486L0.29,0.0489L0.3,0.0491L0.31,0.0493L0.32,0.0495L0.33,0.0496L0.34,0.0497L0.35,0.0498L0.36,0.0498L0.37,0.0498L0.38,0.0498L0.39,0.0497L0.4,0.0496L0.41,0.0495L0.42,0.0493L0.43,0.0491L0.44,0.0489L0.45,0.0486L0.46,0.0483L0.47,0.0479L0.48,0.0475L0.49,0.047L0.5,0.0465L0.51,0.0459L0.52,0.0453L0.53,0.0446L0.54,0.0438L0.55,0.043L0.56,0.0421L0.57,0.0411L0.58,0.0401L0.59,0.039L0.6,0.0379L0.61,0.0367L0.62,0.0355L0.63,0.0342L0.64,0.0329L0.65,0.0315L0.66,0.0301L0.67,0.0287L0.68,0.0272L0.69,0.0257L0.7,0.0242L0.71,0.0226L0.72,0.021L0.73,0.0194L0.74,0.0178L0.75,0.0162L0.76,0.0147L0.77,0.0132L0.78,0.0117L0.79,0.0103L0.8,0.0089L0.81,0.0076L0.82,0.0064L0.83,0.0053L0.84,0.0044L0.85,0.0036L0.86,0.003L0.87,0.0026L0.88,0.0023L0.89,0.0022L0.9,0.0023L0.91,0.0026L0.92,0.0032L0.93,0.004L0.94,0.005L0.95,0.0063L0.96,0.0078L0.97,0.0096L0.98,0.0117L0.99,0.0141L1,0.0168"
    />
</svg>
