
<svg 
  class="airfoil-sc20706"
  fill="none"
  stroke="black" 
  stroke-width="1"
  style="overflow:visible"
  viewBox="0, -0.03, 1, 0.06"
  xmlns="http://www.w3.org/2000/svg">
    <title>NASA SC(2)-0706 AIRFOIL</title>
    <path 
      vector-effect="non-scaling-stroke"
      d="M1,0.0138L0.99,0.0112L0.98,0.0089L0.97,0.0068L0.96,0.0048L0.95,0.0029L0.94,0.0011L0.93,-0.0006L0.92,-0.0022L0.91,-0.0037L0.9,-0.0051L0.89,-0.0064L0.88,-0.0077L0.87,-0.0089L0.86,-0.01L0.85,-0.011L0.84,-0.012L0.83,-0.0129L0.82,-0.0138L0.81,-0.0146L0.8,-0.0154L0.79,-0.0161L0.78,-0.0168L0.77,-0.0175L0.76,-0.0182L0.75,-0.0188L0.74,-0.0194L0.73,-0.02L0.72,-0.0206L0.71,-0.0211L0.7,-0.0216L0.69,-0.0221L0.68,-0.0226L0.67,-0.0231L0.66,-0.0236L0.65,-0.024L0.64,-0.0244L0.63,-0.0248L0.62,-0.0252L0.61,-0.0256L0.6,-0.026L0.59,-0.0263L0.58,-0.0266L0.57,-0.0269L0.56,-0.0272L0.55,-0.0275L0.54,-0.0278L0.53,-0.0281L0.52,-0.0283L0.51,-0.0285L0.5,-0.0287L0.49,-0.0289L0.48,-0.0291L0.47,-0.0293L0.46,-0.0294L0.45,-0.0295L0.44,-0.0296L0.43,-0.0297L0.42,-0.0298L0.41,-0.0299L0.4,-0.03L0.39,-0.03L0.38,-0.03L0.37,-0.03L0.36,-0.03L0.35,-0.03L0.34,-0.03L0.33,-0.0299L0.32,-0.0298L0.31,-0.0297L0.3,-0.0296L0.29,-0.0295L0.28,-0.0294L0.27,-0.0292L0.26,-0.029L0.25,-0.0288L0.24,-0.0286L0.23,-0.0283L0.22,-0.028L0.21,-0.0277L0.2,-0.0274L0.19,-0.027L0.18,-0.0266L0.17,-0.0262L0.16,-0.0257L0.15,-0.0252L0.14,-0.0246L0.13,-0.024L0.12,-0.0234L0.11,-0.0227L0.1,-0.0219L0.09,-0.0211L0.08,-0.0202L0.07,-0.0192L0.06,-0.0181L0.05,-0.0169L0.04,-0.0155L0.03,-0.0138L0.02,-0.0117L0.01,-0.0088L0.005,-0.0065L0.002,-0.0043L0,-0L0.002,0.0043L0.005,0.0065L0.01,0.0088L0.02,0.0117L0.03,0.0138L0.04,0.0155L0.05,0.0169L0.06,0.0181L0.07,0.0192L0.08,0.0202L0.09,0.0211L0.1,0.0219L0.11,0.0227L0.12,0.0234L0.13,0.024L0.14,0.0246L0.15,0.0251L0.16,0.0256L0.17,0.0261L0.18,0.0265L0.19,0.0269L0.2,0.0273L0.21,0.0277L0.22,0.028L0.23,0.0283L0.24,0.0286L0.25,0.0288L0.26,0.029L0.27,0.0292L0.28,0.0294L0.29,0.0296L0.3,0.0297L0.31,0.0298L0.32,0.0299L0.33,0.03L0.34,0.03L0.35,0.03L0.36,0.03L0.37,0.03L0.38,0.0299L0.39,0.0298L0.4,0.0297L0.41,0.0296L0.42,0.0294L0.43,0.0292L0.44,0.029L0.45,0.0287L0.46,0.0284L0.47,0.0281L0.48,0.0278L0.49,0.0274L0.5,0.027L0.51,0.0266L0.52,0.0261L0.53,0.0256L0.54,0.0251L0.55,0.0246L0.56,0.024L0.57,0.0234L0.58,0.0228L0.59,0.0222L0.6,0.0216L0.61,0.021L0.62,0.0204L0.63,0.0197L0.64,0.019L0.65,0.0183L0.66,0.0176L0.67,0.0169L0.68,0.0162L0.69,0.0155L0.7,0.0148L0.71,0.0141L0.72,0.0134L0.73,0.0127L0.74,0.012L0.75,0.0113L0.76,0.0106L0.77,0.0099L0.78,0.0093L0.79,0.0087L0.8,0.0081L0.81,0.0075L0.82,0.007L0.83,0.0065L0.84,0.0061L0.85,0.0057L0.86,0.0054L0.87,0.0052L0.88,0.0051L0.89,0.0051L0.9,0.0052L0.91,0.0054L0.92,0.0058L0.93,0.0064L0.94,0.0072L0.95,0.0082L0.96,0.0095L0.97,0.0111L0.98,0.013L0.99,0.0152L1,0.0177"
    />
</svg>
