
<svg 
  class="airfoil-sc20412"
  fill="none"
  stroke="black" 
  stroke-width="1"
  style="overflow:visible"
  viewBox="0, -0.0601, 1, 0.1201"
  xmlns="http://www.w3.org/2000/svg">
    <title>NASA SC(2)-0412 AIRFOIL</title>
    <path 
      vector-effect="non-scaling-stroke"
      d="M1,-0.0033L0.99,-0.0053L0.98,-0.0072L0.97,-0.009L0.96,-0.0108L0.95,-0.0125L0.94,-0.0142L0.93,-0.0158L0.92,-0.0174L0.91,-0.019L0.9,-0.0205L0.89,-0.022L0.88,-0.0235L0.87,-0.025L0.86,-0.0264L0.85,-0.0278L0.84,-0.0292L0.83,-0.0306L0.82,-0.0319L0.81,-0.0332L0.8,-0.0345L0.79,-0.0358L0.78,-0.037L0.77,-0.0382L0.76,-0.0394L0.75,-0.0406L0.74,-0.0417L0.73,-0.0428L0.72,-0.0439L0.71,-0.0449L0.7,-0.0459L0.69,-0.0469L0.68,-0.0479L0.67,-0.0488L0.66,-0.0497L0.65,-0.0506L0.64,-0.0514L0.63,-0.0522L0.62,-0.0529L0.61,-0.0536L0.6,-0.0543L0.59,-0.0549L0.58,-0.0555L0.57,-0.056L0.56,-0.0565L0.55,-0.057L0.54,-0.0574L0.53,-0.0578L0.52,-0.0582L0.51,-0.0585L0.5,-0.0588L0.49,-0.0591L0.48,-0.0593L0.47,-0.0595L0.46,-0.0597L0.45,-0.0598L0.44,-0.0599L0.43,-0.06L0.42,-0.0601L0.41,-0.0601L0.4,-0.0601L0.39,-0.0601L0.38,-0.0601L0.37,-0.06L0.36,-0.0599L0.35,-0.0598L0.34,-0.0597L0.33,-0.0595L0.32,-0.0593L0.31,-0.0591L0.3,-0.0589L0.29,-0.0586L0.28,-0.0583L0.27,-0.0579L0.26,-0.0575L0.25,-0.0571L0.24,-0.0567L0.23,-0.0562L0.22,-0.0556L0.21,-0.055L0.2,-0.0544L0.19,-0.0537L0.18,-0.053L0.17,-0.0522L0.16,-0.0513L0.15,-0.0504L0.14,-0.0494L0.13,-0.0484L0.12,-0.0473L0.11,-0.0461L0.1,-0.0448L0.09,-0.0434L0.08,-0.0418L0.07,-0.04L0.06,-0.038L0.05,-0.0357L0.04,-0.033L0.03,-0.0297L0.02,-0.0253L0.01,-0.019L0.005,-0.0141L0.002,-0.0092L0,-0L0.002,0.0092L0.005,0.0141L0.01,0.019L0.02,0.0253L0.03,0.0296L0.04,0.0329L0.05,0.0356L0.06,0.0379L0.07,0.04L0.08,0.0418L0.09,0.0434L0.1,0.0449L0.11,0.0463L0.12,0.0476L0.13,0.0488L0.14,0.0499L0.15,0.0509L0.16,0.0518L0.17,0.0527L0.18,0.0535L0.19,0.0542L0.2,0.0549L0.21,0.0555L0.22,0.0561L0.23,0.0567L0.24,0.0572L0.25,0.0577L0.26,0.0581L0.27,0.0585L0.28,0.0588L0.29,0.0591L0.3,0.0593L0.31,0.0595L0.32,0.0597L0.33,0.0598L0.34,0.0599L0.35,0.06L0.36,0.06L0.37,0.06L0.38,0.0599L0.39,0.0598L0.4,0.0596L0.41,0.0594L0.42,0.0592L0.43,0.0589L0.44,0.0586L0.45,0.0582L0.46,0.0578L0.47,0.0573L0.48,0.0568L0.49,0.0562L0.5,0.0555L0.51,0.0547L0.52,0.0539L0.53,0.053L0.54,0.052L0.55,0.0509L0.56,0.0498L0.57,0.0486L0.58,0.0473L0.59,0.0459L0.6,0.0444L0.61,0.0429L0.62,0.0413L0.63,0.0397L0.64,0.038L0.65,0.0362L0.66,0.0344L0.67,0.0326L0.68,0.0307L0.69,0.0288L0.7,0.0269L0.71,0.025L0.72,0.0231L0.73,0.0212L0.74,0.0193L0.75,0.0174L0.76,0.0155L0.77,0.0137L0.78,0.0119L0.79,0.0102L0.8,0.0085L0.81,0.0068L0.82,0.0052L0.83,0.0037L0.84,0.0023L0.85,0.0009L0.86,-0.0003L0.87,-0.0014L0.88,-0.0024L0.89,-0.0032L0.9,-0.0038L0.91,-0.0043L0.92,-0.0045L0.93,-0.0045L0.94,-0.0042L0.95,-0.0038L0.96,-0.0031L0.97,-0.0022L0.98,-0.001L0.99,0.0005L1,0.0022"
    />
</svg>
