
<svg 
  class="airfoil-sc20610"
  fill="none"
  stroke="black" 
  stroke-width="1"
  style="overflow:visible"
  viewBox="0, -0.05, 1, 0.099800006"
  xmlns="http://www.w3.org/2000/svg">
    <title>NASA SC(2)-0610 AIRFOIL</title>
    <path 
      vector-effect="non-scaling-stroke"
      d="M1,0.0067L0.99,0.0042L0.98,0.0018L0.97,-0.0004L0.96,-0.0025L0.95,-0.0045L0.94,-0.0064L0.93,-0.0083L0.92,-0.0101L0.91,-0.0119L0.9,-0.0136L0.89,-0.0153L0.88,-0.0169L0.87,-0.0185L0.86,-0.0201L0.85,-0.0216L0.84,-0.0231L0.83,-0.0245L0.82,-0.0259L0.81,-0.0272L0.8,-0.0285L0.79,-0.0297L0.78,-0.0309L0.77,-0.0321L0.76,-0.0332L0.75,-0.0343L0.74,-0.0353L0.73,-0.0363L0.72,-0.0372L0.71,-0.0381L0.7,-0.0389L0.69,-0.0397L0.68,-0.0405L0.67,-0.0412L0.66,-0.0419L0.65,-0.0426L0.64,-0.0432L0.63,-0.0438L0.62,-0.0443L0.61,-0.0448L0.6,-0.0453L0.59,-0.0458L0.58,-0.0462L0.57,-0.0466L0.56,-0.047L0.55,-0.0474L0.54,-0.0477L0.53,-0.048L0.52,-0.0483L0.51,-0.0486L0.5,-0.0488L0.49,-0.049L0.48,-0.0492L0.47,-0.0494L0.46,-0.0496L0.45,-0.0497L0.44,-0.0498L0.43,-0.0499L0.42,-0.05L0.41,-0.05L0.4,-0.05L0.39,-0.05L0.38,-0.05L0.37,-0.0499L0.36,-0.0498L0.35,-0.0497L0.34,-0.0496L0.33,-0.0495L0.32,-0.0493L0.31,-0.0491L0.3,-0.0489L0.29,-0.0487L0.28,-0.0484L0.27,-0.0481L0.26,-0.0478L0.25,-0.0474L0.24,-0.047L0.23,-0.0466L0.22,-0.0461L0.21,-0.0456L0.2,-0.0451L0.19,-0.0445L0.18,-0.0439L0.17,-0.0432L0.16,-0.0425L0.15,-0.0417L0.14,-0.0408L0.13,-0.0399L0.12,-0.0389L0.11,-0.0378L0.1,-0.0367L0.09,-0.0355L0.08,-0.0341L0.07,-0.0326L0.06,-0.0309L0.05,-0.029L0.04,-0.0268L0.03,-0.0241L0.02,-0.0206L0.01,-0.0155L0.005,-0.0116L0.002,-0.0076L0,-0L0.002,0.0076L0.005,0.0116L0.01,0.0155L0.02,0.0206L0.03,0.0241L0.04,0.0268L0.05,0.029L0.06,0.0309L0.07,0.0326L0.08,0.0341L0.09,0.0355L0.1,0.0367L0.11,0.0379L0.12,0.039L0.13,0.04L0.14,0.0409L0.15,0.0418L0.16,0.0426L0.17,0.0433L0.18,0.044L0.19,0.0446L0.2,0.0452L0.21,0.0458L0.22,0.0463L0.23,0.0468L0.24,0.0472L0.25,0.0476L0.26,0.048L0.27,0.0483L0.28,0.0486L0.29,0.0489L0.3,0.0491L0.31,0.0493L0.32,0.0495L0.33,0.0496L0.34,0.0497L0.35,0.0498L0.36,0.0498L0.37,0.0498L0.38,0.0498L0.39,0.0497L0.4,0.0496L0.41,0.0495L0.42,0.0493L0.43,0.0491L0.44,0.0489L0.45,0.0486L0.46,0.0483L0.47,0.0479L0.48,0.0475L0.49,0.047L0.5,0.0465L0.51,0.0459L0.52,0.0453L0.53,0.0446L0.54,0.0439L0.55,0.0431L0.56,0.0422L0.57,0.0412L0.58,0.0401L0.59,0.039L0.6,0.0378L0.61,0.0366L0.62,0.0353L0.63,0.034L0.64,0.0327L0.65,0.0313L0.66,0.0299L0.67,0.0284L0.68,0.0269L0.69,0.0254L0.7,0.0238L0.71,0.0222L0.72,0.0206L0.73,0.019L0.74,0.0174L0.75,0.0158L0.76,0.0142L0.77,0.0126L0.78,0.0111L0.79,0.0096L0.8,0.0081L0.81,0.0068L0.82,0.0056L0.83,0.0045L0.84,0.0035L0.85,0.0026L0.86,0.0018L0.87,0.0012L0.88,0.0007L0.89,0.0004L0.9,0.0003L0.91,0.0004L0.92,0.0007L0.93,0.0012L0.94,0.002L0.95,0.003L0.96,0.0042L0.97,0.0056L0.98,0.0073L0.99,0.0093L1,0.0116"
    />
</svg>
