
<svg 
  class="airfoil-sc20012"
  fill="none"
  stroke="black" 
  stroke-width="1"
  style="overflow:visible"
  viewBox="0, -0.06, 1, 0.12"
  xmlns="http://www.w3.org/2000/svg">
    <title>NASA SC(2)-0012 AIRFOIL</title>
    <path 
      vector-effect="non-scaling-stroke"
      d="M1,-0.003L0.99,-0.0043L0.98,-0.0055L0.97,-0.0068L0.96,-0.008L0.95,-0.0093L0.94,-0.0106L0.93,-0.0118L0.92,-0.0131L0.91,-0.0143L0.9,-0.0156L0.89,-0.0169L0.88,-0.0181L0.87,-0.0194L0.86,-0.0206L0.85,-0.0219L0.84,-0.0232L0.83,-0.0244L0.82,-0.0257L0.81,-0.0269L0.8,-0.0282L0.79,-0.0295L0.78,-0.0307L0.77,-0.032L0.76,-0.0332L0.75,-0.0345L0.74,-0.0358L0.73,-0.037L0.72,-0.0383L0.71,-0.0395L0.7,-0.0408L0.69,-0.0421L0.68,-0.0433L0.67,-0.0446L0.66,-0.0458L0.65,-0.047L0.64,-0.0482L0.63,-0.0493L0.62,-0.0504L0.61,-0.0514L0.6,-0.0523L0.59,-0.0532L0.58,-0.0539L0.57,-0.0546L0.56,-0.0552L0.55,-0.0558L0.54,-0.0564L0.53,-0.0569L0.52,-0.0574L0.51,-0.0577L0.5,-0.0581L0.49,-0.0584L0.48,-0.0588L0.47,-0.059L0.46,-0.0593L0.45,-0.0595L0.44,-0.0596L0.43,-0.0598L0.42,-0.0599L0.41,-0.06L0.4,-0.06L0.39,-0.06L0.38,-0.06L0.37,-0.06L0.36,-0.0599L0.35,-0.0598L0.34,-0.0596L0.33,-0.0595L0.32,-0.0593L0.31,-0.059L0.3,-0.0588L0.29,-0.0584L0.28,-0.0581L0.27,-0.0577L0.26,-0.0574L0.25,-0.0569L0.24,-0.0564L0.23,-0.0559L0.22,-0.0553L0.21,-0.0547L0.2,-0.0541L0.19,-0.0534L0.18,-0.0527L0.17,-0.0518L0.16,-0.051L0.15,-0.05L0.14,-0.0491L0.13,-0.048L0.12,-0.0468L0.11,-0.0456L0.1,-0.0443L0.09,-0.0428L0.08,-0.0412L0.07,-0.0394L0.06,-0.0373L0.05,-0.035L0.04,-0.0324L0.03,-0.0292L0.02,-0.0248L0.01,-0.0186L0.005,-0.0139L0.002,-0.0091L0,-0L0.002,0.0091L0.005,0.0139L0.01,0.0186L0.02,0.0248L0.03,0.0292L0.04,0.0324L0.05,0.035L0.06,0.0373L0.07,0.0394L0.08,0.0412L0.09,0.0428L0.1,0.0443L0.11,0.0456L0.12,0.0468L0.13,0.048L0.14,0.0491L0.15,0.05L0.16,0.051L0.17,0.0518L0.18,0.0527L0.19,0.0534L0.2,0.0541L0.21,0.0547L0.22,0.0553L0.23,0.0559L0.24,0.0564L0.25,0.0569L0.26,0.0574L0.27,0.0577L0.28,0.0581L0.29,0.0584L0.3,0.0588L0.31,0.059L0.32,0.0593L0.33,0.0595L0.34,0.0596L0.35,0.0598L0.36,0.0599L0.37,0.06L0.38,0.06L0.39,0.06L0.4,0.06L0.41,0.06L0.42,0.0599L0.43,0.0598L0.44,0.0596L0.45,0.0595L0.46,0.0593L0.47,0.059L0.48,0.0588L0.49,0.0584L0.5,0.0581L0.51,0.0577L0.52,0.0574L0.53,0.0569L0.54,0.0564L0.55,0.0558L0.56,0.0552L0.57,0.0546L0.58,0.0539L0.59,0.0532L0.6,0.0523L0.61,0.0514L0.62,0.0504L0.63,0.0493L0.64,0.0482L0.65,0.047L0.66,0.0458L0.67,0.0446L0.68,0.0433L0.69,0.0421L0.7,0.0408L0.71,0.0395L0.72,0.0383L0.73,0.037L0.74,0.0358L0.75,0.0345L0.76,0.0332L0.77,0.032L0.78,0.0307L0.79,0.0295L0.8,0.0282L0.81,0.0269L0.82,0.0257L0.83,0.0244L0.84,0.0232L0.85,0.0219L0.86,0.0206L0.87,0.0194L0.88,0.0181L0.89,0.0169L0.9,0.0156L0.91,0.0143L0.92,0.0131L0.93,0.0118L0.94,0.0106L0.95,0.0093L0.96,0.008L0.97,0.0068L0.98,0.0055L0.99,0.0043L1,0.003"
    />
</svg>
