
<svg 
  class="airfoil-sc20404"
  fill="none"
  stroke="black" 
  stroke-width="1"
  style="overflow:visible"
  viewBox="0, -0.0201, 1, 0.0401"
  xmlns="http://www.w3.org/2000/svg">
    <title>NASA SC(2)-0404 AIRFOIL</title>
    <path 
      vector-effect="non-scaling-stroke"
      d="M1,0.0015L0.99,0.0005L0.98,-0.0004L0.97,-0.0014L0.96,-0.0022L0.95,-0.0031L0.94,-0.0039L0.93,-0.0047L0.92,-0.0055L0.91,-0.0063L0.9,-0.0069L0.89,-0.0077L0.88,-0.0083L0.87,-0.0089L0.86,-0.0095L0.85,-0.0102L0.84,-0.0107L0.83,-0.0113L0.82,-0.0117L0.81,-0.0122L0.8,-0.0127L0.79,-0.0132L0.78,-0.0136L0.77,-0.0139L0.76,-0.0143L0.75,-0.0147L0.74,-0.015L0.73,-0.0154L0.72,-0.0157L0.71,-0.016L0.7,-0.0163L0.69,-0.0166L0.68,-0.0168L0.67,-0.017L0.66,-0.0173L0.65,-0.0175L0.64,-0.0177L0.63,-0.0179L0.62,-0.0181L0.61,-0.0183L0.6,-0.0184L0.59,-0.0186L0.58,-0.0188L0.57,-0.0189L0.56,-0.0191L0.55,-0.0192L0.54,-0.0193L0.53,-0.0194L0.52,-0.0195L0.51,-0.0196L0.5,-0.0197L0.49,-0.0198L0.48,-0.0199L0.47,-0.0199L0.46,-0.02L0.45,-0.02L0.44,-0.0201L0.43,-0.0201L0.42,-0.0201L0.41,-0.0201L0.4,-0.0201L0.39,-0.0201L0.38,-0.0201L0.37,-0.0201L0.36,-0.0201L0.35,-0.02L0.34,-0.02L0.33,-0.0199L0.32,-0.0199L0.31,-0.0198L0.3,-0.0196L0.29,-0.0195L0.28,-0.0194L0.27,-0.0193L0.26,-0.0192L0.25,-0.019L0.24,-0.0189L0.23,-0.0187L0.22,-0.0184L0.21,-0.0182L0.2,-0.0181L0.19,-0.0178L0.18,-0.0176L0.17,-0.0173L0.16,-0.017L0.15,-0.0167L0.14,-0.0163L0.13,-0.016L0.12,-0.0156L0.11,-0.0152L0.1,-0.0148L0.09,-0.0143L0.08,-0.0137L0.07,-0.0131L0.06,-0.0124L0.05,-0.0115L0.04,-0.0106L0.03,-0.0095L0.02,-0.008L0.01,-0.0059L0.005,-0.0043L0.002,-0.0028L0,-0L0.002,0.0028L0.005,0.0043L0.01,0.0059L0.02,0.008L0.03,0.0095L0.04,0.0106L0.05,0.0115L0.06,0.0124L0.07,0.0131L0.08,0.0137L0.09,0.0143L0.1,0.0148L0.11,0.0153L0.12,0.0157L0.13,0.0161L0.14,0.0165L0.15,0.0169L0.16,0.0172L0.17,0.0175L0.18,0.0178L0.19,0.0181L0.2,0.0184L0.21,0.0186L0.22,0.0188L0.23,0.019L0.24,0.0192L0.25,0.0194L0.26,0.0195L0.27,0.0196L0.28,0.0197L0.29,0.0198L0.3,0.0199L0.31,0.02L0.32,0.02L0.33,0.02L0.34,0.02L0.35,0.02L0.36,0.02L0.37,0.02L0.38,0.02L0.39,0.0199L0.4,0.0198L0.41,0.0197L0.42,0.0196L0.43,0.0195L0.44,0.0193L0.45,0.0191L0.46,0.0189L0.47,0.0187L0.48,0.0185L0.49,0.0182L0.5,0.0179L0.51,0.0176L0.52,0.0173L0.53,0.017L0.54,0.0166L0.55,0.0161L0.56,0.0158L0.57,0.0153L0.58,0.0148L0.59,0.0144L0.6,0.0139L0.61,0.0134L0.62,0.0129L0.63,0.0124L0.64,0.0119L0.65,0.0113L0.66,0.0108L0.67,0.0102L0.68,0.0097L0.69,0.0091L0.7,0.0086L0.71,0.008L0.72,0.0074L0.73,0.0069L0.74,0.0063L0.75,0.0058L0.76,0.0052L0.77,0.0047L0.78,0.0042L0.79,0.0037L0.8,0.0033L0.81,0.0028L0.82,0.0024L0.83,0.002L0.84,0.0016L0.85,0.0014L0.86,0.0011L0.87,0.0009L0.88,0.0007L0.89,0.0005L0.9,0.0004L0.91,0.0004L0.92,0.0004L0.93,0.0005L0.94,0.0008L0.95,0.001L0.96,0.0014L0.97,0.002L0.98,0.0026L0.99,0.0034L1,0.0044"
    />
</svg>
