
<svg 
  class="airfoil-sc20402"
  fill="none"
  stroke="black" 
  stroke-width="1"
  style="overflow:visible"
  viewBox="0, -0.01, 1, 0.0199"
  xmlns="http://www.w3.org/2000/svg">
    <title>NASA SC(2)-0402 AIRFOIL</title>
    <path 
      vector-effect="non-scaling-stroke"
      d="M1,0.0036L0.99,0.0026L0.98,0.0018L0.97,0.0011L0.96,0.0004L0.95,-0.0002L0.94,-0.0007L0.93,-0.0012L0.92,-0.0017L0.91,-0.0022L0.9,-0.0026L0.89,-0.003L0.88,-0.0033L0.87,-0.0037L0.86,-0.0039L0.85,-0.0043L0.84,-0.0046L0.83,-0.0048L0.82,-0.005L0.81,-0.0053L0.8,-0.0055L0.79,-0.0058L0.78,-0.006L0.77,-0.0062L0.76,-0.0064L0.75,-0.0066L0.74,-0.0068L0.73,-0.007L0.72,-0.0072L0.71,-0.0074L0.7,-0.0076L0.69,-0.0077L0.68,-0.0078L0.67,-0.008L0.66,-0.0082L0.65,-0.0083L0.64,-0.0084L0.63,-0.0086L0.62,-0.0087L0.61,-0.0088L0.6,-0.0089L0.59,-0.009L0.58,-0.0091L0.57,-0.0092L0.56,-0.0093L0.55,-0.0094L0.54,-0.0095L0.53,-0.0095L0.52,-0.0096L0.51,-0.0097L0.5,-0.0097L0.49,-0.0098L0.48,-0.0098L0.47,-0.0099L0.46,-0.0099L0.45,-0.0099L0.44,-0.01L0.43,-0.01L0.42,-0.01L0.41,-0.01L0.4,-0.01L0.39,-0.01L0.38,-0.01L0.37,-0.01L0.36,-0.01L0.35,-0.01L0.34,-0.01L0.33,-0.0099L0.32,-0.0099L0.31,-0.0099L0.3,-0.0098L0.29,-0.0098L0.28,-0.0097L0.27,-0.0097L0.26,-0.0096L0.25,-0.0095L0.24,-0.0094L0.23,-0.0093L0.22,-0.0092L0.21,-0.0091L0.2,-0.009L0.19,-0.0089L0.18,-0.0088L0.17,-0.0086L0.16,-0.0084L0.15,-0.0083L0.14,-0.0081L0.13,-0.0079L0.12,-0.0077L0.11,-0.0074L0.1,-0.0072L0.09,-0.0069L0.08,-0.0066L0.07,-0.0063L0.06,-0.0059L0.05,-0.0055L0.04,-0.005L0.03,-0.0044L0.02,-0.0037L0.01,-0.0028L0.005,-0.0021L0.002,-0.0014L0,-0L0.002,0.0014L0.005,0.0021L0.01,0.0028L0.02,0.0037L0.03,0.0044L0.04,0.005L0.05,0.0055L0.06,0.0059L0.07,0.0063L0.08,0.0066L0.09,0.0069L0.1,0.0072L0.11,0.0074L0.12,0.0077L0.13,0.0079L0.14,0.0081L0.15,0.0083L0.16,0.0084L0.17,0.0086L0.18,0.0088L0.19,0.0089L0.2,0.009L0.21,0.0091L0.22,0.0092L0.23,0.0093L0.24,0.0094L0.25,0.0095L0.26,0.0096L0.27,0.0097L0.28,0.0097L0.29,0.0098L0.3,0.0098L0.31,0.0099L0.32,0.0099L0.33,0.0099L0.34,0.0099L0.35,0.0099L0.36,0.0099L0.37,0.0099L0.38,0.0099L0.39,0.0099L0.4,0.0099L0.41,0.0099L0.42,0.0099L0.43,0.0098L0.44,0.0098L0.45,0.0097L0.46,0.0095L0.47,0.0094L0.48,0.0093L0.49,0.0093L0.5,0.0092L0.51,0.009L0.52,0.0088L0.53,0.0087L0.54,0.0086L0.55,0.0084L0.56,0.0082L0.57,0.008L0.58,0.0078L0.59,0.0076L0.6,0.0074L0.61,0.0071L0.62,0.0069L0.63,0.0066L0.64,0.0063L0.65,0.0061L0.66,0.0058L0.67,0.0056L0.68,0.0054L0.69,0.0051L0.7,0.0049L0.71,0.0046L0.72,0.0044L0.73,0.0041L0.74,0.0038L0.75,0.0036L0.76,0.0033L0.77,0.0031L0.78,0.0029L0.79,0.0026L0.8,0.0024L0.81,0.0022L0.82,0.002L0.83,0.0018L0.84,0.0016L0.85,0.0016L0.86,0.0014L0.87,0.0014L0.88,0.0014L0.89,0.0014L0.9,0.0015L0.91,0.0016L0.92,0.0018L0.93,0.0019L0.94,0.0022L0.95,0.0025L0.96,0.0029L0.97,0.0034L0.98,0.004L0.99,0.0047L1,0.0055"
    />
</svg>
