
<svg 
  class="airfoil-sc20714"
  fill="none"
  stroke="black" 
  stroke-width="1"
  style="overflow:visible"
  viewBox="0, -0.0699, 1, 0.13960001"
  xmlns="http://www.w3.org/2000/svg">
    <title>NASA SC(2)-0714 AIRFOIL</title>
    <path 
      vector-effect="non-scaling-stroke"
      d="M1,0.0095L0.99,0.0063L0.98,0.0032L0.97,0.0002L0.96,-0.0027L0.95,-0.0056L0.94,-0.0084L0.93,-0.0111L0.92,-0.0137L0.91,-0.0162L0.9,-0.0187L0.89,-0.0211L0.88,-0.0234L0.87,-0.0256L0.86,-0.0278L0.85,-0.0299L0.84,-0.0319L0.83,-0.0339L0.82,-0.0358L0.81,-0.0376L0.8,-0.0394L0.79,-0.0411L0.78,-0.0427L0.77,-0.0443L0.76,-0.0458L0.75,-0.0473L0.74,-0.0487L0.73,-0.05L0.72,-0.0513L0.71,-0.0525L0.7,-0.0537L0.69,-0.0548L0.68,-0.0559L0.67,-0.0569L0.66,-0.0579L0.65,-0.0588L0.64,-0.0597L0.63,-0.0605L0.62,-0.0613L0.61,-0.0621L0.6,-0.0628L0.59,-0.0635L0.58,-0.0641L0.57,-0.0647L0.56,-0.0653L0.55,-0.0658L0.54,-0.0663L0.53,-0.0668L0.52,-0.0672L0.51,-0.0676L0.5,-0.068L0.49,-0.0683L0.48,-0.0686L0.47,-0.0689L0.46,-0.0691L0.45,-0.0693L0.44,-0.0695L0.43,-0.0696L0.42,-0.0697L0.41,-0.0698L0.4,-0.0699L0.39,-0.0699L0.38,-0.0699L0.37,-0.0699L0.36,-0.0698L0.35,-0.0697L0.34,-0.0696L0.33,-0.0694L0.32,-0.0692L0.31,-0.0689L0.3,-0.0686L0.29,-0.0683L0.28,-0.0679L0.27,-0.0675L0.26,-0.067L0.25,-0.0665L0.24,-0.066L0.23,-0.0654L0.22,-0.0648L0.21,-0.0641L0.2,-0.0633L0.19,-0.0625L0.18,-0.0616L0.17,-0.0607L0.16,-0.0597L0.15,-0.0586L0.14,-0.0574L0.13,-0.0562L0.12,-0.0549L0.11,-0.0535L0.1,-0.0519L0.09,-0.0502L0.08,-0.0484L0.07,-0.0463L0.06,-0.044L0.05,-0.0414L0.04,-0.0383L0.03,-0.0346L0.02,-0.0296L0.01,-0.0224L0.005,-0.0166L0.002,-0.0108L0,-0L0.002,0.0108L0.005,0.0166L0.01,0.0224L0.02,0.0296L0.03,0.0345L0.04,0.0382L0.05,0.0413L0.06,0.0439L0.07,0.0462L0.08,0.0483L0.09,0.0501L0.1,0.0518L0.11,0.0534L0.12,0.0549L0.13,0.0562L0.14,0.0574L0.15,0.0586L0.16,0.0597L0.17,0.0607L0.18,0.0616L0.19,0.0625L0.2,0.0633L0.21,0.0641L0.22,0.0648L0.23,0.0655L0.24,0.0661L0.25,0.0667L0.26,0.0672L0.27,0.0677L0.28,0.0681L0.29,0.0685L0.3,0.0688L0.31,0.0691L0.32,0.0693L0.33,0.0695L0.34,0.0696L0.35,0.0697L0.36,0.0697L0.37,0.0697L0.38,0.0696L0.39,0.0695L0.4,0.0693L0.41,0.0691L0.42,0.0688L0.43,0.0685L0.44,0.0681L0.45,0.0677L0.46,0.0672L0.47,0.0667L0.48,0.0661L0.49,0.0654L0.5,0.0646L0.51,0.0637L0.52,0.0627L0.53,0.0616L0.54,0.0604L0.55,0.0591L0.56,0.0577L0.57,0.0562L0.58,0.0546L0.59,0.0529L0.6,0.0511L0.61,0.0492L0.62,0.0473L0.63,0.0453L0.64,0.0433L0.65,0.0412L0.66,0.0391L0.67,0.037L0.68,0.0348L0.69,0.0326L0.7,0.0304L0.71,0.0282L0.72,0.026L0.73,0.0238L0.74,0.0216L0.75,0.0194L0.76,0.0173L0.77,0.0152L0.78,0.0132L0.79,0.0113L0.8,0.0095L0.81,0.0079L0.82,0.0064L0.83,0.005L0.84,0.0038L0.85,0.0028L0.86,0.002L0.87,0.0014L0.88,0.001L0.89,0.0008L0.9,0.0009L0.91,0.0012L0.92,0.0017L0.93,0.0025L0.94,0.0036L0.95,0.005L0.96,0.0067L0.97,0.0087L0.98,0.011L0.99,0.0136L1,0.0165"
    />
</svg>
