
<svg 
  class="airfoil-sc20606"
  fill="none"
  stroke="black" 
  stroke-width="1"
  style="overflow:visible"
  viewBox="0, -0.03, 1, 0.06"
  xmlns="http://www.w3.org/2000/svg">
    <title>NASA SC(2)-0606 AIRFOIL</title>
    <path 
      vector-effect="non-scaling-stroke"
      d="M1,0.0098L0.99,0.0078L0.98,0.0059L0.97,0.0041L0.96,0.0025L0.95,0.001L0.94,-0.0004L0.93,-0.0018L0.92,-0.0031L0.91,-0.0044L0.9,-0.0056L0.89,-0.0068L0.88,-0.0079L0.87,-0.009L0.86,-0.01L0.85,-0.011L0.84,-0.0119L0.83,-0.0128L0.82,-0.0137L0.81,-0.0145L0.8,-0.0153L0.79,-0.0161L0.78,-0.0168L0.77,-0.0175L0.76,-0.0182L0.75,-0.0189L0.74,-0.0195L0.73,-0.0201L0.72,-0.0207L0.71,-0.0213L0.7,-0.0219L0.69,-0.0224L0.68,-0.0229L0.67,-0.0234L0.66,-0.0239L0.65,-0.0243L0.64,-0.0247L0.63,-0.0251L0.62,-0.0255L0.61,-0.0259L0.6,-0.0262L0.59,-0.0265L0.58,-0.0268L0.57,-0.0271L0.56,-0.0274L0.55,-0.0277L0.54,-0.028L0.53,-0.0282L0.52,-0.0284L0.51,-0.0286L0.5,-0.0288L0.49,-0.029L0.48,-0.0292L0.47,-0.0294L0.46,-0.0295L0.45,-0.0296L0.44,-0.0297L0.43,-0.0298L0.42,-0.0299L0.41,-0.03L0.4,-0.03L0.39,-0.03L0.38,-0.03L0.37,-0.03L0.36,-0.03L0.35,-0.03L0.34,-0.03L0.33,-0.0299L0.32,-0.0298L0.31,-0.0297L0.3,-0.0296L0.29,-0.0295L0.28,-0.0294L0.27,-0.0292L0.26,-0.029L0.25,-0.0288L0.24,-0.0286L0.23,-0.0283L0.22,-0.028L0.21,-0.0277L0.2,-0.0274L0.19,-0.027L0.18,-0.0266L0.17,-0.0262L0.16,-0.0257L0.15,-0.0252L0.14,-0.0247L0.13,-0.0241L0.12,-0.0235L0.11,-0.0228L0.1,-0.0221L0.09,-0.0213L0.08,-0.0204L0.07,-0.0194L0.06,-0.0183L0.05,-0.0171L0.04,-0.0157L0.03,-0.014L0.02,-0.0119L0.01,-0.0088L0.005,-0.0065L0.002,-0.0043L0,-0L0.002,0.0043L0.005,0.0065L0.01,0.0088L0.02,0.0119L0.03,0.014L0.04,0.0157L0.05,0.0171L0.06,0.0183L0.07,0.0194L0.08,0.0204L0.09,0.0213L0.1,0.0221L0.11,0.0229L0.12,0.0236L0.13,0.0242L0.14,0.0248L0.15,0.0253L0.16,0.0258L0.17,0.0263L0.18,0.0267L0.19,0.0271L0.2,0.0275L0.21,0.0278L0.22,0.0281L0.23,0.0284L0.24,0.0287L0.25,0.0289L0.26,0.0291L0.27,0.0293L0.28,0.0295L0.29,0.0296L0.3,0.0297L0.31,0.0298L0.32,0.0299L0.33,0.03L0.34,0.03L0.35,0.03L0.36,0.03L0.37,0.03L0.38,0.0299L0.39,0.0298L0.4,0.0297L0.41,0.0296L0.42,0.0294L0.43,0.0292L0.44,0.029L0.45,0.0287L0.46,0.0284L0.47,0.0281L0.48,0.0278L0.49,0.0274L0.5,0.027L0.51,0.0266L0.52,0.0262L0.53,0.0257L0.54,0.0252L0.55,0.0247L0.56,0.0241L0.57,0.0235L0.58,0.0229L0.59,0.0223L0.6,0.0217L0.61,0.0211L0.62,0.0205L0.63,0.0199L0.64,0.0192L0.65,0.0185L0.66,0.0178L0.67,0.0171L0.68,0.0164L0.69,0.0157L0.7,0.015L0.71,0.0143L0.72,0.0136L0.73,0.0129L0.74,0.0122L0.75,0.0115L0.76,0.0108L0.77,0.0101L0.78,0.0094L0.79,0.0088L0.8,0.0082L0.81,0.0076L0.82,0.0071L0.83,0.0066L0.84,0.0061L0.85,0.0057L0.86,0.0053L0.87,0.005L0.88,0.0048L0.89,0.0047L0.9,0.0047L0.91,0.0048L0.92,0.005L0.93,0.0054L0.94,0.0059L0.95,0.0066L0.96,0.0076L0.97,0.0088L0.98,0.0103L0.99,0.012L1,0.0139"
    />
</svg>
