
<svg 
  class="airfoil-sc20403"
  fill="none"
  stroke="black" 
  stroke-width="1"
  style="overflow:visible"
  viewBox="0, -0.015, 1, 0.03"
  xmlns="http://www.w3.org/2000/svg">
    <title>NASA SC(2)-0403 AIRFOIL</title>
    <path 
      vector-effect="non-scaling-stroke"
      d="M1,0.0013L0.99,0.0003L0.98,-0.0006L0.97,-0.0015L0.96,-0.0023L0.95,-0.0031L0.94,-0.0038L0.93,-0.0045L0.92,-0.0051L0.91,-0.0057L0.9,-0.0062L0.89,-0.0067L0.88,-0.0071L0.87,-0.0075L0.86,-0.0079L0.85,-0.0083L0.84,-0.0086L0.83,-0.0089L0.82,-0.0092L0.81,-0.0095L0.8,-0.0098L0.79,-0.01L0.78,-0.0103L0.77,-0.0105L0.76,-0.0108L0.75,-0.011L0.74,-0.0112L0.73,-0.0114L0.72,-0.0116L0.71,-0.0118L0.7,-0.012L0.69,-0.0122L0.68,-0.0124L0.67,-0.0126L0.66,-0.0127L0.65,-0.0129L0.64,-0.0131L0.63,-0.0132L0.62,-0.0133L0.61,-0.0135L0.6,-0.0137L0.59,-0.0138L0.58,-0.0139L0.57,-0.014L0.56,-0.0141L0.55,-0.0142L0.54,-0.0143L0.53,-0.0144L0.52,-0.0145L0.51,-0.0146L0.5,-0.0147L0.49,-0.0147L0.48,-0.0148L0.47,-0.0148L0.46,-0.0148L0.45,-0.0149L0.44,-0.0149L0.43,-0.015L0.42,-0.015L0.41,-0.015L0.4,-0.015L0.39,-0.015L0.38,-0.015L0.37,-0.015L0.36,-0.015L0.35,-0.0149L0.34,-0.0149L0.33,-0.0148L0.32,-0.0148L0.31,-0.0148L0.3,-0.0147L0.29,-0.0146L0.28,-0.0145L0.27,-0.0144L0.26,-0.0143L0.25,-0.0142L0.24,-0.0141L0.23,-0.0139L0.22,-0.0138L0.21,-0.0137L0.2,-0.0135L0.19,-0.0133L0.18,-0.0131L0.17,-0.0129L0.16,-0.0127L0.15,-0.0125L0.14,-0.0122L0.13,-0.0119L0.12,-0.0116L0.11,-0.0113L0.1,-0.0109L0.09,-0.0105L0.08,-0.0101L0.07,-0.0096L0.06,-0.0091L0.05,-0.0085L0.04,-0.0078L0.03,-0.007L0.02,-0.0059L0.01,-0.0044L0.005,-0.0032L0.002,-0.0021L0,-0L0.002,0.0021L0.005,0.0032L0.01,0.0044L0.02,0.0059L0.03,0.007L0.04,0.0078L0.05,0.0085L0.06,0.0091L0.07,0.0096L0.08,0.0101L0.09,0.0105L0.1,0.0109L0.11,0.0113L0.12,0.0117L0.13,0.012L0.14,0.0123L0.15,0.0126L0.16,0.0129L0.17,0.0131L0.18,0.0133L0.19,0.0135L0.2,0.0137L0.21,0.0139L0.22,0.0141L0.23,0.0143L0.24,0.0144L0.25,0.0145L0.26,0.0146L0.27,0.0147L0.28,0.0148L0.29,0.0149L0.3,0.015L0.31,0.015L0.32,0.015L0.33,0.015L0.34,0.015L0.35,0.015L0.36,0.015L0.37,0.015L0.38,0.015L0.39,0.0149L0.4,0.0148L0.41,0.0147L0.42,0.0146L0.43,0.0145L0.44,0.0144L0.45,0.0143L0.46,0.0141L0.47,0.0139L0.48,0.0137L0.49,0.0135L0.5,0.0133L0.51,0.0131L0.52,0.0128L0.53,0.0125L0.54,0.0122L0.55,0.0119L0.56,0.0116L0.57,0.0113L0.58,0.011L0.59,0.0106L0.6,0.0102L0.61,0.0098L0.62,0.0094L0.63,0.009L0.64,0.0086L0.65,0.0082L0.66,0.0078L0.67,0.0074L0.68,0.007L0.69,0.0066L0.7,0.0062L0.71,0.0058L0.72,0.0054L0.73,0.005L0.74,0.0046L0.75,0.0042L0.76,0.0038L0.77,0.0034L0.78,0.003L0.79,0.0026L0.8,0.0022L0.81,0.0018L0.82,0.0015L0.83,0.0012L0.84,0.0009L0.85,0.0006L0.86,0.0004L0.87,0.0002L0.88,-0L0.89,-0.0001L0.9,-0.0002L0.91,-0.0002L0.92,-0.0001L0.93,-0L0.94,0.0002L0.95,0.0005L0.96,0.0009L0.97,0.0014L0.98,0.002L0.99,0.0028L1,0.0037"
    />
</svg>
