
<svg 
  class="airfoil-sc20410"
  fill="none"
  stroke="black" 
  stroke-width="1"
  style="overflow:visible"
  viewBox="0, -0.05, 1, 0.099700004"
  xmlns="http://www.w3.org/2000/svg">
    <title>NASA SC(2)-0410 AIRFOIL</title>
    <path 
      vector-effect="non-scaling-stroke"
      d="M1,-0.0032L0.99,-0.005L0.98,-0.0067L0.97,-0.0083L0.96,-0.0098L0.95,-0.0113L0.94,-0.0127L0.93,-0.0141L0.92,-0.0154L0.91,-0.0167L0.9,-0.018L0.89,-0.0193L0.88,-0.0205L0.87,-0.0217L0.86,-0.0229L0.85,-0.0241L0.84,-0.0252L0.83,-0.0263L0.82,-0.0274L0.81,-0.0285L0.8,-0.0296L0.79,-0.0306L0.78,-0.0316L0.77,-0.0326L0.76,-0.0336L0.75,-0.0345L0.74,-0.0354L0.73,-0.0363L0.72,-0.0372L0.71,-0.038L0.7,-0.0388L0.69,-0.0396L0.68,-0.0404L0.67,-0.0411L0.66,-0.0418L0.65,-0.0425L0.64,-0.0431L0.63,-0.0437L0.62,-0.0443L0.61,-0.0449L0.6,-0.0454L0.59,-0.0459L0.58,-0.0464L0.57,-0.0468L0.56,-0.0472L0.55,-0.0476L0.54,-0.0479L0.53,-0.0482L0.52,-0.0485L0.51,-0.0488L0.5,-0.049L0.49,-0.0492L0.48,-0.0494L0.47,-0.0496L0.46,-0.0497L0.45,-0.0498L0.44,-0.0499L0.43,-0.05L0.42,-0.05L0.41,-0.05L0.4,-0.05L0.39,-0.05L0.38,-0.05L0.37,-0.0499L0.36,-0.0498L0.35,-0.0497L0.34,-0.0496L0.33,-0.0495L0.32,-0.0493L0.31,-0.0491L0.3,-0.0489L0.29,-0.0487L0.28,-0.0484L0.27,-0.0481L0.26,-0.0478L0.25,-0.0474L0.24,-0.047L0.23,-0.0466L0.22,-0.0461L0.21,-0.0456L0.2,-0.045L0.19,-0.0444L0.18,-0.0438L0.17,-0.0431L0.16,-0.0424L0.15,-0.0416L0.14,-0.0408L0.13,-0.0399L0.12,-0.0389L0.11,-0.0379L0.1,-0.0368L0.09,-0.0356L0.08,-0.0342L0.07,-0.0327L0.06,-0.031L0.05,-0.0291L0.04,-0.0269L0.03,-0.0242L0.02,-0.0207L0.01,-0.0155L0.005,-0.0116L0.002,-0.0076L0,-0L0.002,0.0076L0.005,0.0116L0.01,0.0155L0.02,0.0207L0.03,0.0242L0.04,0.0269L0.05,0.0291L0.06,0.031L0.07,0.0327L0.08,0.0342L0.09,0.0356L0.1,0.0369L0.11,0.0381L0.12,0.0392L0.13,0.0402L0.14,0.0411L0.15,0.042L0.16,0.0428L0.17,0.0435L0.18,0.0442L0.19,0.0449L0.2,0.0455L0.21,0.046L0.22,0.0465L0.23,0.047L0.24,0.0474L0.25,0.0478L0.26,0.0481L0.27,0.0484L0.28,0.0487L0.29,0.0489L0.3,0.0491L0.31,0.0493L0.32,0.0494L0.33,0.0495L0.34,0.0496L0.35,0.0497L0.36,0.0497L0.37,0.0497L0.38,0.0497L0.39,0.0496L0.4,0.0495L0.41,0.0494L0.42,0.0492L0.43,0.049L0.44,0.0488L0.45,0.0485L0.46,0.0482L0.47,0.0478L0.48,0.0474L0.49,0.047L0.5,0.0465L0.51,0.046L0.52,0.0454L0.53,0.0447L0.54,0.044L0.55,0.0432L0.56,0.0423L0.57,0.0413L0.58,0.0402L0.59,0.039L0.6,0.0378L0.61,0.0365L0.62,0.0352L0.63,0.0338L0.64,0.0324L0.65,0.0309L0.66,0.0294L0.67,0.0278L0.68,0.0262L0.69,0.0246L0.7,0.023L0.71,0.0214L0.72,0.0198L0.73,0.0182L0.74,0.0166L0.75,0.015L0.76,0.0134L0.77,0.0118L0.78,0.0102L0.79,0.0087L0.8,0.0072L0.81,0.0058L0.82,0.0044L0.83,0.0031L0.84,0.0018L0.85,0.0006L0.86,-0.0005L0.87,-0.0015L0.88,-0.0024L0.89,-0.0031L0.9,-0.0037L0.91,-0.0041L0.92,-0.0043L0.93,-0.0043L0.94,-0.0041L0.95,-0.0037L0.96,-0.0031L0.97,-0.0023L0.98,-0.0012L0.99,0.0001L1,0.0017"
    />
</svg>
