
<svg 
  class="airfoil-sc20406"
  fill="none"
  stroke="black" 
  stroke-width="1"
  style="overflow:visible"
  viewBox="0, -0.0301, 1, 0.0602"
  xmlns="http://www.w3.org/2000/svg">
    <title>NASA SC(2)-0406 AIRFOIL</title>
    <path 
      vector-effect="non-scaling-stroke"
      d="M1,0.0016L0.99,0.0006L0.98,-0.0004L0.97,-0.0014L0.96,-0.0023L0.95,-0.0032L0.94,-0.0041L0.93,-0.005L0.92,-0.0059L0.91,-0.0068L0.9,-0.0076L0.89,-0.0084L0.88,-0.0092L0.87,-0.01L0.86,-0.0108L0.85,-0.0116L0.84,-0.0124L0.83,-0.0132L0.82,-0.0139L0.81,-0.0146L0.8,-0.0153L0.79,-0.016L0.78,-0.0167L0.77,-0.0174L0.76,-0.0181L0.75,-0.0187L0.74,-0.0193L0.73,-0.0199L0.72,-0.0205L0.71,-0.0211L0.7,-0.0217L0.69,-0.0222L0.68,-0.0227L0.67,-0.0232L0.66,-0.0237L0.65,-0.0242L0.64,-0.0247L0.63,-0.0251L0.62,-0.0255L0.61,-0.0259L0.6,-0.0263L0.59,-0.0267L0.58,-0.027L0.57,-0.0273L0.56,-0.0276L0.55,-0.0279L0.54,-0.0282L0.53,-0.0284L0.52,-0.0286L0.51,-0.0288L0.5,-0.029L0.49,-0.0292L0.48,-0.0294L0.47,-0.0295L0.46,-0.0296L0.45,-0.0297L0.44,-0.0298L0.43,-0.0299L0.42,-0.03L0.41,-0.0301L0.4,-0.0301L0.39,-0.0301L0.38,-0.0301L0.37,-0.0301L0.36,-0.0301L0.35,-0.0301L0.34,-0.03L0.33,-0.0299L0.32,-0.0298L0.31,-0.0297L0.3,-0.0296L0.29,-0.0295L0.28,-0.0293L0.27,-0.0291L0.26,-0.0289L0.25,-0.0287L0.24,-0.0285L0.23,-0.0282L0.22,-0.0279L0.21,-0.0276L0.2,-0.0273L0.19,-0.027L0.18,-0.0266L0.17,-0.0262L0.16,-0.0258L0.15,-0.0253L0.14,-0.0248L0.13,-0.0242L0.12,-0.0236L0.11,-0.023L0.1,-0.0223L0.09,-0.0215L0.08,-0.0207L0.07,-0.0198L0.06,-0.0187L0.05,-0.0175L0.04,-0.0161L0.03,-0.0144L0.02,-0.0122L0.01,-0.0089L0.005,-0.0064L0.002,-0.0043L0,-0L0.002,0.0043L0.005,0.0064L0.01,0.0089L0.02,0.0122L0.03,0.0144L0.04,0.0161L0.05,0.0175L0.06,0.0187L0.07,0.0197L0.08,0.0206L0.09,0.0215L0.1,0.0223L0.11,0.023L0.12,0.0237L0.13,0.0243L0.14,0.0249L0.15,0.0254L0.16,0.0259L0.17,0.0264L0.18,0.0268L0.19,0.0272L0.2,0.0276L0.21,0.0279L0.22,0.0282L0.23,0.0285L0.24,0.0288L0.25,0.029L0.26,0.0292L0.27,0.0294L0.28,0.0296L0.29,0.0297L0.3,0.0298L0.31,0.0299L0.32,0.03L0.33,0.0301L0.34,0.0301L0.35,0.0301L0.36,0.0301L0.37,0.0301L0.38,0.03L0.39,0.0299L0.4,0.0298L0.41,0.0297L0.42,0.0295L0.43,0.0293L0.44,0.0291L0.45,0.0288L0.46,0.0285L0.47,0.0282L0.48,0.0279L0.49,0.0275L0.5,0.0271L0.51,0.0267L0.52,0.0263L0.53,0.0258L0.54,0.0253L0.55,0.0248L0.56,0.0243L0.57,0.0237L0.58,0.0231L0.59,0.0225L0.6,0.0219L0.61,0.0213L0.62,0.0207L0.63,0.0201L0.64,0.0195L0.65,0.0188L0.66,0.0181L0.67,0.0174L0.68,0.0167L0.69,0.016L0.7,0.0153L0.71,0.0146L0.72,0.0139L0.73,0.0132L0.74,0.0125L0.75,0.0118L0.76,0.0111L0.77,0.0104L0.78,0.0097L0.79,0.009L0.8,0.0084L0.81,0.0078L0.82,0.0072L0.83,0.0066L0.84,0.006L0.85,0.0055L0.86,0.005L0.87,0.0045L0.88,0.0041L0.89,0.0037L0.9,0.0034L0.91,0.0031L0.92,0.0029L0.93,0.0028L0.94,0.0028L0.95,0.0029L0.96,0.0031L0.97,0.0034L0.98,0.0039L0.99,0.0046L1,0.0055"
    />
</svg>
