
<svg 
  class="airfoil-sc20612"
  fill="none"
  stroke="black" 
  stroke-width="1"
  style="overflow:visible"
  viewBox="0, -0.0602, 1, 0.12"
  xmlns="http://www.w3.org/2000/svg">
    <title>NASA SC(2)-0612 AIRFOIL</title>
    <path 
      vector-effect="non-scaling-stroke"
      d="M1,0.0067L0.99,0.0041L0.98,0.0016L0.97,-0.0008L0.96,-0.0031L0.95,-0.0053L0.94,-0.0075L0.93,-0.0096L0.92,-0.0117L0.91,-0.0137L0.9,-0.0157L0.89,-0.0176L0.88,-0.0195L0.87,-0.0213L0.86,-0.0231L0.85,-0.0248L0.84,-0.0265L0.83,-0.0281L0.82,-0.0297L0.81,-0.0313L0.8,-0.0328L0.79,-0.0343L0.78,-0.0357L0.77,-0.0371L0.76,-0.0384L0.75,-0.0397L0.74,-0.041L0.73,-0.0422L0.72,-0.0434L0.71,-0.0445L0.7,-0.0456L0.69,-0.0466L0.68,-0.0476L0.67,-0.0486L0.66,-0.0495L0.65,-0.0504L0.64,-0.0512L0.63,-0.052L0.62,-0.0527L0.61,-0.0534L0.6,-0.0541L0.59,-0.0547L0.58,-0.0553L0.57,-0.0558L0.56,-0.0563L0.55,-0.0568L0.54,-0.0572L0.53,-0.0576L0.52,-0.058L0.51,-0.0583L0.5,-0.0586L0.49,-0.0589L0.48,-0.0592L0.47,-0.0594L0.46,-0.0596L0.45,-0.0598L0.44,-0.0599L0.43,-0.06L0.42,-0.0601L0.41,-0.0602L0.4,-0.0602L0.39,-0.0602L0.38,-0.0602L0.37,-0.0602L0.36,-0.0601L0.35,-0.06L0.34,-0.0599L0.33,-0.0597L0.32,-0.0595L0.31,-0.0593L0.3,-0.0591L0.29,-0.0588L0.28,-0.0585L0.27,-0.0581L0.26,-0.0577L0.25,-0.0573L0.24,-0.0568L0.23,-0.0563L0.22,-0.0557L0.21,-0.0551L0.2,-0.0545L0.19,-0.0538L0.18,-0.0531L0.17,-0.0523L0.16,-0.0514L0.15,-0.0505L0.14,-0.0495L0.13,-0.0484L0.12,-0.0472L0.11,-0.046L0.1,-0.0447L0.09,-0.0432L0.08,-0.0416L0.07,-0.0398L0.06,-0.0378L0.05,-0.0355L0.04,-0.0329L0.03,-0.0296L0.02,-0.0252L0.01,-0.019L0.005,-0.0141L0.002,-0.0092L0,-0L0.002,0.0092L0.005,0.0141L0.01,0.019L0.02,0.0252L0.03,0.0296L0.04,0.0329L0.05,0.0355L0.06,0.0378L0.07,0.0398L0.08,0.0416L0.09,0.0432L0.1,0.0447L0.11,0.046L0.12,0.0473L0.13,0.0485L0.14,0.0496L0.15,0.0506L0.16,0.0515L0.17,0.0524L0.18,0.0532L0.19,0.054L0.2,0.0547L0.21,0.0554L0.22,0.056L0.23,0.0565L0.24,0.057L0.25,0.0575L0.26,0.0579L0.27,0.0583L0.28,0.0586L0.29,0.0589L0.3,0.0592L0.31,0.0594L0.32,0.0595L0.33,0.0596L0.34,0.0597L0.35,0.0598L0.36,0.0598L0.37,0.0598L0.38,0.0598L0.39,0.0597L0.4,0.0596L0.41,0.0594L0.42,0.0592L0.43,0.0589L0.44,0.0586L0.45,0.0582L0.46,0.0578L0.47,0.0573L0.48,0.0567L0.49,0.0561L0.5,0.0554L0.51,0.0546L0.52,0.0538L0.53,0.0529L0.54,0.0519L0.55,0.0509L0.56,0.0497L0.57,0.0485L0.58,0.0472L0.59,0.0458L0.6,0.0444L0.61,0.0429L0.62,0.0414L0.63,0.0398L0.64,0.0382L0.65,0.0365L0.66,0.0348L0.67,0.033L0.68,0.0312L0.69,0.0294L0.7,0.0276L0.71,0.0258L0.72,0.024L0.73,0.0222L0.74,0.0204L0.75,0.0186L0.76,0.0168L0.77,0.015L0.78,0.0133L0.79,0.0117L0.8,0.0102L0.81,0.0087L0.82,0.0073L0.83,0.006L0.84,0.0048L0.85,0.0037L0.86,0.0028L0.87,0.0021L0.88,0.0016L0.89,0.0012L0.9,0.001L0.91,0.001L0.92,0.0013L0.93,0.0018L0.94,0.0025L0.95,0.0035L0.96,0.0048L0.97,0.0063L0.98,0.0081L0.99,0.0102L1,0.0125"
    />
</svg>
