
<svg 
  class="airfoil-sc20518"
  fill="none"
  stroke="black" 
  stroke-width="1"
  style="overflow:visible"
  viewBox="0, -0.0903, 1, 0.18"
  xmlns="http://www.w3.org/2000/svg">
    <title>NASA SC(2)-0518 AIRFOIL</title>
    <path 
      vector-effect="non-scaling-stroke"
      d="M1,0.0014L0.99,-0.0014L0.98,-0.0041L0.97,-0.0068L0.96,-0.0094L0.95,-0.012L0.94,-0.0145L0.93,-0.0169L0.92,-0.0193L0.91,-0.0216L0.9,-0.0239L0.89,-0.0262L0.88,-0.0284L0.87,-0.0306L0.86,-0.0328L0.85,-0.035L0.84,-0.0371L0.83,-0.0392L0.82,-0.0413L0.81,-0.0433L0.8,-0.0453L0.79,-0.0473L0.78,-0.0492L0.77,-0.0511L0.76,-0.053L0.75,-0.0548L0.74,-0.0566L0.73,-0.0584L0.72,-0.0601L0.71,-0.0618L0.7,-0.0634L0.69,-0.065L0.68,-0.0666L0.67,-0.0681L0.66,-0.0696L0.65,-0.071L0.64,-0.0724L0.63,-0.0737L0.62,-0.075L0.61,-0.0763L0.6,-0.0775L0.59,-0.0787L0.58,-0.0798L0.57,-0.0809L0.56,-0.0819L0.55,-0.0828L0.54,-0.0837L0.53,-0.0845L0.52,-0.0853L0.51,-0.086L0.5,-0.0867L0.49,-0.0873L0.48,-0.0878L0.47,-0.0883L0.46,-0.0887L0.45,-0.0891L0.44,-0.0894L0.43,-0.0897L0.42,-0.0899L0.41,-0.0901L0.4,-0.0902L0.39,-0.0903L0.38,-0.0903L0.37,-0.0903L0.36,-0.0902L0.35,-0.0901L0.34,-0.09L0.33,-0.0898L0.32,-0.0896L0.31,-0.0893L0.3,-0.089L0.29,-0.0886L0.28,-0.0882L0.27,-0.0877L0.26,-0.0872L0.25,-0.0866L0.24,-0.086L0.23,-0.0853L0.22,-0.0845L0.21,-0.0837L0.2,-0.0828L0.19,-0.0818L0.18,-0.0807L0.17,-0.0796L0.16,-0.0784L0.15,-0.0771L0.14,-0.0757L0.13,-0.0742L0.12,-0.0725L0.11,-0.0707L0.1,-0.0687L0.09,-0.0666L0.08,-0.0642L0.07,-0.0615L0.06,-0.0585L0.05,-0.055L0.04,-0.0508L0.03,-0.0456L0.02,-0.0389L0.01,-0.0291L0.005,-0.0213L0.002,-0.0139L0,-0L0.002,0.0139L0.005,0.0213L0.01,0.0291L0.02,0.0389L0.03,0.0457L0.04,0.0509L0.05,0.055L0.06,0.0585L0.07,0.0615L0.08,0.0642L0.09,0.0666L0.1,0.0687L0.11,0.0707L0.12,0.0725L0.13,0.0742L0.14,0.0758L0.15,0.0773L0.16,0.0787L0.17,0.0799L0.18,0.0811L0.19,0.0822L0.2,0.0832L0.21,0.0841L0.22,0.0849L0.23,0.0857L0.24,0.0864L0.25,0.087L0.26,0.0875L0.27,0.088L0.28,0.0884L0.29,0.0888L0.3,0.0891L0.31,0.0893L0.32,0.0895L0.33,0.0896L0.34,0.0897L0.35,0.0897L0.36,0.0896L0.37,0.0895L0.38,0.0893L0.39,0.089L0.4,0.0887L0.41,0.0883L0.42,0.0878L0.43,0.0872L0.44,0.0865L0.45,0.0858L0.46,0.085L0.47,0.0841L0.48,0.0831L0.49,0.0819L0.5,0.0806L0.51,0.0792L0.52,0.0777L0.53,0.0761L0.54,0.0744L0.55,0.0726L0.56,0.0707L0.57,0.0688L0.58,0.0668L0.59,0.0647L0.6,0.0626L0.61,0.0604L0.62,0.0582L0.63,0.056L0.64,0.0537L0.65,0.0514L0.66,0.0491L0.67,0.0468L0.68,0.0444L0.69,0.042L0.7,0.0396L0.71,0.0372L0.72,0.0348L0.73,0.0324L0.74,0.03L0.75,0.0276L0.76,0.0252L0.77,0.0229L0.78,0.0206L0.79,0.0183L0.8,0.0161L0.81,0.0139L0.82,0.0118L0.83,0.0098L0.84,0.0079L0.85,0.0061L0.86,0.0044L0.87,0.0029L0.88,0.0016L0.89,0.0005L0.9,-0.0003L0.91,-0.0009L0.92,-0.0012L0.93,-0.0012L0.94,-0.0009L0.95,-0.0003L0.96,0.0007L0.97,0.002L0.98,0.0037L0.99,0.0058L1,0.0083"
    />
</svg>
