
<svg 
  class="airfoil-sc20414"
  fill="none"
  stroke="black" 
  stroke-width="1"
  style="overflow:visible"
  viewBox="0, -0.0702, 1, 0.1402"
  xmlns="http://www.w3.org/2000/svg">
    <title>NASA SC(2)-0414 AIRFOIL</title>
    <path 
      vector-effect="non-scaling-stroke"
      d="M1,-0.0033L0.99,-0.0055L0.98,-0.0076L0.97,-0.0097L0.96,-0.0117L0.95,-0.0137L0.94,-0.0156L0.93,-0.0175L0.92,-0.0193L0.91,-0.0211L0.9,-0.0229L0.89,-0.0247L0.88,-0.0264L0.87,-0.0281L0.86,-0.0298L0.85,-0.0314L0.84,-0.033L0.83,-0.0346L0.82,-0.0362L0.81,-0.0377L0.8,-0.0392L0.79,-0.0407L0.78,-0.0422L0.77,-0.0436L0.76,-0.045L0.75,-0.0464L0.74,-0.0477L0.73,-0.049L0.72,-0.0503L0.71,-0.0516L0.7,-0.0528L0.69,-0.054L0.68,-0.0551L0.67,-0.0562L0.66,-0.0573L0.65,-0.0583L0.64,-0.0593L0.63,-0.0602L0.62,-0.0611L0.61,-0.062L0.6,-0.0628L0.59,-0.0636L0.58,-0.0643L0.57,-0.065L0.56,-0.0656L0.55,-0.0662L0.54,-0.0667L0.53,-0.0672L0.52,-0.0676L0.51,-0.068L0.5,-0.0684L0.49,-0.0687L0.48,-0.069L0.47,-0.0693L0.46,-0.0695L0.45,-0.0697L0.44,-0.0699L0.43,-0.07L0.42,-0.0701L0.41,-0.0702L0.4,-0.0702L0.39,-0.0702L0.38,-0.0702L0.37,-0.0701L0.36,-0.07L0.35,-0.0699L0.34,-0.0697L0.33,-0.0695L0.32,-0.0693L0.31,-0.0691L0.3,-0.0688L0.29,-0.0685L0.28,-0.0681L0.27,-0.0677L0.26,-0.0673L0.25,-0.0668L0.24,-0.0663L0.23,-0.0657L0.22,-0.0651L0.21,-0.0644L0.2,-0.0637L0.19,-0.0629L0.18,-0.0621L0.17,-0.0612L0.16,-0.0602L0.15,-0.0592L0.14,-0.0581L0.13,-0.0569L0.12,-0.0556L0.11,-0.0542L0.1,-0.0527L0.09,-0.051L0.08,-0.0491L0.07,-0.0471L0.06,-0.0448L0.05,-0.0421L0.04,-0.0389L0.03,-0.035L0.02,-0.0299L0.01,-0.0225L0.005,-0.0166L0.002,-0.0108L0,-0L0.002,0.0108L0.005,0.0166L0.01,0.0225L0.02,0.0299L0.03,0.035L0.04,0.0389L0.05,0.0421L0.06,0.0448L0.07,0.0472L0.08,0.0493L0.09,0.0512L0.1,0.0529L0.11,0.0545L0.12,0.056L0.13,0.0573L0.14,0.0585L0.15,0.0597L0.16,0.0608L0.17,0.0618L0.18,0.0627L0.19,0.0636L0.2,0.0644L0.21,0.0651L0.22,0.0658L0.23,0.0664L0.24,0.067L0.25,0.0675L0.26,0.068L0.27,0.0684L0.28,0.0688L0.29,0.0691L0.3,0.0694L0.31,0.0696L0.32,0.0698L0.33,0.0699L0.34,0.07L0.35,0.07L0.36,0.07L0.37,0.0699L0.38,0.0698L0.39,0.0697L0.4,0.0695L0.41,0.0693L0.42,0.069L0.43,0.0686L0.44,0.0682L0.45,0.0677L0.46,0.0672L0.47,0.0666L0.48,0.0659L0.49,0.0651L0.5,0.0642L0.51,0.0633L0.52,0.0623L0.53,0.0612L0.54,0.06L0.55,0.0587L0.56,0.0573L0.57,0.0558L0.58,0.0543L0.59,0.0527L0.6,0.051L0.61,0.0492L0.62,0.0474L0.63,0.0455L0.64,0.0435L0.65,0.0415L0.66,0.0394L0.67,0.0373L0.68,0.0352L0.69,0.033L0.7,0.0308L0.71,0.0286L0.72,0.0264L0.73,0.0242L0.74,0.022L0.75,0.0198L0.76,0.0177L0.77,0.0156L0.78,0.0136L0.79,0.0116L0.8,0.0097L0.81,0.0078L0.82,0.006L0.83,0.0043L0.84,0.0027L0.85,0.0012L0.86,-0.0001L0.87,-0.0013L0.88,-0.0023L0.89,-0.0032L0.9,-0.0039L0.91,-0.0044L0.92,-0.0046L0.93,-0.0046L0.94,-0.0043L0.95,-0.0038L0.96,-0.0031L0.97,-0.0021L0.98,-0.0008L0.99,0.0008L1,0.0027"
    />
</svg>
