
<svg 
  class="airfoil-sc2110"
  fill="none"
  stroke="black" 
  stroke-width="1"
  style="overflow:visible"
  viewBox="0, -0.0667, 1, 0.1006"
  xmlns="http://www.w3.org/2000/svg">
    <title>SIKORSKY SC2110 AIRFOIL</title>
    <path 
      vector-effect="non-scaling-stroke"
      d="M1,-0.0027L0.995,-0.0024L0.9851,-0.0022L0.9751,-0.0026L0.9552,-0.0044L0.9353,-0.0071L0.8954,-0.0137L0.8755,-0.0172L0.8556,-0.0207L0.8357,-0.0242L0.7959,-0.0309L0.776,-0.0341L0.756,-0.0372L0.7361,-0.0401L0.6963,-0.0455L0.6764,-0.0479L0.6564,-0.0501L0.6365,-0.0521L0.5967,-0.0557L0.5767,-0.0572L0.5568,-0.0586L0.5369,-0.0599L0.497,-0.0621L0.4771,-0.0631L0.4572,-0.0638L0.4372,-0.0645L0.4173,-0.0651L0.3774,-0.0659L0.3375,-0.0664L0.2992,-0.0667L0.249,-0.0667L0.1989,-0.0658L0.1487,-0.0633L0.0986,-0.0577L0.0736,-0.0527L0.0487,-0.0449L0.0238,-0.0321L0.0115,-0.0217L0.0066,-0.0158L0.0042,-0.0122L0,-0L0.0022,0.0061L0.0048,0.0081L0.0105,0.0104L0.0226,0.0131L0.0347,0.0149L0.0408,0.0158L0.0528,0.0172L0.0789,0.0197L0.099,0.0211L0.129,0.023L0.1573,0.0245L0.1723,0.0253L0.2022,0.0269L0.2321,0.0284L0.247,0.0291L0.2769,0.0304L0.3068,0.0316L0.3367,0.0325L0.3766,0.0334L0.4165,0.0338L0.4364,0.0339L0.4564,0.0338L0.4763,0.0336L0.4962,0.0333L0.5361,0.0324L0.5561,0.0317L0.576,0.0309L0.596,0.0301L0.6359,0.028L0.6558,0.0268L0.6758,0.0256L0.6957,0.0242L0.7356,0.0213L0.7556,0.0197L0.7755,0.0181L0.7955,0.0164L0.8354,0.013L0.8554,0.0112L0.8753,0.0094L0.8953,0.0076L0.9352,0.004L0.9551,0.0025L0.9751,0.0013L0.985,0.0009L0.995,0.0008L1,0.0009"
    />
</svg>
