
<svg 
  class="airfoil-sc21006"
  fill="none"
  stroke="black" 
  stroke-width="1"
  style="overflow:visible"
  viewBox="0, -0.03, 1, 0.0782"
  xmlns="http://www.w3.org/2000/svg">
    <title>NASA SC(2)-1006 AIRFOIL</title>
    <path 
      vector-effect="non-scaling-stroke"
      d="M1,0.0443L0.99,0.0412L0.98,0.0383L0.97,0.0355L0.96,0.0328L0.95,0.0302L0.94,0.0277L0.93,0.0253L0.92,0.0229L0.91,0.0206L0.9,0.0184L0.89,0.0162L0.88,0.0141L0.87,0.012L0.86,0.01L0.85,0.0081L0.84,0.0063L0.83,0.0046L0.82,0.003L0.81,0.0014L0.8,-0.0001L0.79,-0.0015L0.78,-0.0028L0.77,-0.0041L0.76,-0.0053L0.75,-0.0065L0.74,-0.0076L0.73,-0.0087L0.72,-0.0097L0.71,-0.0107L0.7,-0.0117L0.69,-0.0126L0.68,-0.0135L0.67,-0.0144L0.66,-0.0153L0.65,-0.0161L0.64,-0.0169L0.63,-0.0177L0.62,-0.0184L0.61,-0.0191L0.6,-0.0198L0.59,-0.0205L0.58,-0.0211L0.57,-0.0217L0.56,-0.0223L0.55,-0.0229L0.54,-0.0234L0.53,-0.0239L0.52,-0.0244L0.51,-0.0249L0.5,-0.0254L0.49,-0.0258L0.48,-0.0262L0.47,-0.0266L0.46,-0.027L0.45,-0.0274L0.44,-0.0277L0.43,-0.028L0.42,-0.0283L0.41,-0.0286L0.4,-0.0288L0.39,-0.029L0.38,-0.0292L0.37,-0.0294L0.36,-0.0296L0.35,-0.0297L0.34,-0.0298L0.33,-0.0299L0.32,-0.03L0.31,-0.03L0.3,-0.03L0.29,-0.03L0.28,-0.03L0.27,-0.0299L0.26,-0.0298L0.25,-0.0297L0.24,-0.0295L0.23,-0.0293L0.22,-0.0291L0.21,-0.0288L0.2,-0.0285L0.19,-0.0282L0.18,-0.0278L0.17,-0.0274L0.16,-0.0269L0.15,-0.0264L0.14,-0.0258L0.13,-0.0252L0.12,-0.0245L0.11,-0.0238L0.1,-0.023L0.09,-0.0221L0.08,-0.0211L0.07,-0.02L0.06,-0.0188L0.05,-0.0174L0.04,-0.0158L0.03,-0.014L0.02,-0.0117L0.01,-0.0087L0.005,-0.0064L0.002,-0.0042L0,-0L0.002,0.0042L0.005,0.0064L0.01,0.0087L0.02,0.0117L0.03,0.014L0.04,0.0158L0.05,0.0174L0.06,0.0187L0.07,0.0199L0.08,0.0209L0.09,0.0218L0.1,0.0226L0.11,0.0234L0.12,0.0241L0.13,0.0247L0.14,0.0253L0.15,0.0259L0.16,0.0264L0.17,0.0269L0.18,0.0273L0.19,0.0277L0.2,0.0281L0.21,0.0284L0.22,0.0287L0.23,0.029L0.24,0.0292L0.25,0.0294L0.26,0.0296L0.27,0.0297L0.28,0.0298L0.29,0.0299L0.3,0.03L0.31,0.03L0.32,0.03L0.33,0.03L0.34,0.03L0.35,0.03L0.36,0.0299L0.37,0.0298L0.38,0.0297L0.39,0.0296L0.4,0.0295L0.41,0.0294L0.42,0.0293L0.43,0.0292L0.44,0.0291L0.45,0.029L0.46,0.0289L0.47,0.0287L0.48,0.0285L0.49,0.0282L0.5,0.0281L0.51,0.0279L0.52,0.0277L0.53,0.0275L0.54,0.0273L0.55,0.0271L0.56,0.0269L0.57,0.0267L0.58,0.0265L0.59,0.0263L0.6,0.0261L0.61,0.0259L0.62,0.0257L0.63,0.0255L0.64,0.0253L0.65,0.0251L0.66,0.0249L0.67,0.0247L0.68,0.0245L0.69,0.0243L0.7,0.0241L0.71,0.0239L0.72,0.0237L0.73,0.0236L0.74,0.0235L0.75,0.0234L0.76,0.0233L0.77,0.0233L0.78,0.0233L0.79,0.0233L0.8,0.0234L0.81,0.0235L0.82,0.0237L0.83,0.0239L0.84,0.0242L0.85,0.0246L0.86,0.0251L0.87,0.0257L0.88,0.0264L0.89,0.0272L0.9,0.0281L0.91,0.0292L0.92,0.0305L0.93,0.032L0.94,0.0337L0.95,0.0356L0.96,0.0377L0.97,0.04L0.98,0.0425L0.99,0.0452L1,0.0482"
    />
</svg>
