
<svg 
  class="airfoil-sc21010"
  fill="none"
  stroke="black" 
  stroke-width="1"
  style="overflow:visible"
  viewBox="0, -0.05, 1, 0.1"
  xmlns="http://www.w3.org/2000/svg">
    <title>NASA SC(2)-1010 AIRFOIL</title>
    <path 
      vector-effect="non-scaling-stroke"
      d="M1,0.042L0.99,0.0388L0.98,0.0357L0.97,0.0327L0.96,0.0298L0.95,0.0269L0.94,0.0241L0.93,0.0214L0.92,0.0187L0.91,0.0161L0.9,0.0136L0.89,0.0111L0.88,0.0087L0.87,0.0063L0.86,0.004L0.85,0.0017L0.84,-0.0005L0.83,-0.0027L0.82,-0.0048L0.81,-0.0069L0.8,-0.0089L0.79,-0.0109L0.78,-0.0128L0.77,-0.0147L0.76,-0.0165L0.75,-0.0183L0.74,-0.02L0.73,-0.0217L0.72,-0.0233L0.71,-0.0249L0.7,-0.0264L0.69,-0.0278L0.68,-0.0292L0.67,-0.0305L0.66,-0.0318L0.65,-0.033L0.64,-0.0342L0.63,-0.0353L0.62,-0.0363L0.61,-0.0373L0.6,-0.0382L0.59,-0.0391L0.58,-0.04L0.57,-0.0408L0.56,-0.0416L0.55,-0.0423L0.54,-0.043L0.53,-0.0437L0.52,-0.0443L0.51,-0.0449L0.5,-0.0455L0.49,-0.046L0.48,-0.0465L0.47,-0.047L0.46,-0.0474L0.45,-0.0478L0.44,-0.0482L0.43,-0.0485L0.42,-0.0488L0.41,-0.0491L0.4,-0.0493L0.39,-0.0495L0.38,-0.0497L0.37,-0.0498L0.36,-0.0499L0.35,-0.05L0.34,-0.05L0.33,-0.05L0.32,-0.05L0.31,-0.0499L0.3,-0.0498L0.29,-0.0497L0.28,-0.0495L0.27,-0.0493L0.26,-0.049L0.25,-0.0487L0.24,-0.0484L0.23,-0.048L0.22,-0.0476L0.21,-0.0471L0.2,-0.0466L0.19,-0.046L0.18,-0.0454L0.17,-0.0447L0.16,-0.0439L0.15,-0.0431L0.14,-0.0422L0.13,-0.0412L0.12,-0.0401L0.11,-0.039L0.1,-0.0378L0.09,-0.0364L0.08,-0.0349L0.07,-0.0333L0.06,-0.0315L0.05,-0.0294L0.04,-0.027L0.03,-0.0242L0.02,-0.0207L0.01,-0.0156L0.005,-0.0116L0.002,-0.0076L0,-0L0.002,0.0076L0.005,0.0116L0.01,0.0156L0.02,0.0207L0.03,0.0242L0.04,0.027L0.05,0.0294L0.06,0.0314L0.07,0.0332L0.08,0.0348L0.09,0.0362L0.1,0.0375L0.11,0.0387L0.12,0.0398L0.13,0.0408L0.14,0.0418L0.15,0.0427L0.16,0.0435L0.17,0.0443L0.18,0.045L0.19,0.0457L0.2,0.0463L0.21,0.0468L0.22,0.0473L0.23,0.0478L0.24,0.0482L0.25,0.0486L0.26,0.0489L0.27,0.0492L0.28,0.0494L0.29,0.0496L0.3,0.0498L0.31,0.0499L0.32,0.05L0.33,0.05L0.34,0.05L0.35,0.05L0.36,0.0499L0.37,0.0498L0.38,0.0496L0.39,0.0494L0.4,0.0492L0.41,0.0489L0.42,0.0486L0.43,0.0483L0.44,0.048L0.45,0.0476L0.46,0.0472L0.47,0.0468L0.48,0.0464L0.49,0.0459L0.5,0.0454L0.51,0.0449L0.52,0.0444L0.53,0.0439L0.54,0.0434L0.55,0.0428L0.56,0.0422L0.57,0.0416L0.58,0.041L0.59,0.0404L0.6,0.0398L0.61,0.0392L0.62,0.0386L0.63,0.038L0.64,0.0374L0.65,0.0367L0.66,0.036L0.67,0.0353L0.68,0.0346L0.69,0.0339L0.7,0.0332L0.71,0.0325L0.72,0.0319L0.73,0.0313L0.74,0.0307L0.75,0.0301L0.76,0.0295L0.77,0.029L0.78,0.0285L0.79,0.028L0.8,0.0276L0.81,0.0272L0.82,0.0269L0.83,0.0266L0.84,0.0264L0.85,0.0263L0.86,0.0264L0.87,0.0267L0.88,0.0271L0.89,0.0277L0.9,0.0285L0.91,0.0295L0.92,0.0307L0.93,0.0321L0.94,0.0337L0.95,0.0355L0.96,0.0375L0.97,0.0398L0.98,0.0423L0.99,0.0451L1,0.0481"
    />
</svg>
