
<svg 
  class="airfoil-sd2083"
  fill="none"
  stroke="black" 
  stroke-width="1"
  style="overflow:visible"
  viewBox="0, -0.0725, 1, 0.0923"
  xmlns="http://www.w3.org/2000/svg">
    <title>SD2083 (9.0%)</title>
    <path 
      vector-effect="non-scaling-stroke"
      d="M1,-0L0.9967,-0.0003L0.9869,-0.0015L0.9709,-0.0037L0.9493,-0.0072L0.9226,-0.0118L0.8916,-0.0174L0.8567,-0.0238L0.8185,-0.0308L0.7775,-0.0379L0.7341,-0.0449L0.6889,-0.0515L0.6421,-0.0574L0.5942,-0.0624L0.5455,-0.0666L0.4965,-0.0696L0.4475,-0.0716L0.3991,-0.0725L0.3517,-0.0724L0.3057,-0.0712L0.2616,-0.0691L0.2199,-0.066L0.181,-0.062L0.1453,-0.0572L0.1131,-0.0514L0.0846,-0.0449L0.06,-0.0377L0.0395,-0.0301L0.0232,-0.0222L0.0111,-0.0144L0.0034,-0.007L0,-0.0006L0.0022,0.0044L0.0103,0.0085L0.0237,0.0121L0.0423,0.0149L0.0662,0.017L0.0952,0.0184L0.1287,0.0194L0.1665,0.0198L0.2082,0.0197L0.2533,0.0192L0.3014,0.0184L0.3518,0.0172L0.4041,0.0159L0.4575,0.0144L0.5116,0.0127L0.5656,0.011L0.6191,0.0094L0.6712,0.0078L0.7214,0.0064L0.769,0.0051L0.8135,0.004L0.8543,0.003L0.8908,0.0023L0.9227,0.0016L0.9495,0.0009L0.9711,0.0004L0.9869,0.0002L0.9967,0L1,0"
    />
</svg>
