
<svg 
  class="airfoil-sd2030"
  fill="none"
  stroke="black" 
  stroke-width="1"
  style="overflow:visible"
  viewBox="0, -0.0648, 1, 0.0869"
  xmlns="http://www.w3.org/2000/svg">
    <title>SD2030-086-88</title>
    <path 
      vector-effect="non-scaling-stroke"
      d="M1,-0L0.9966,-0.0005L0.9869,-0.0021L0.9713,-0.0051L0.9506,-0.0093L0.9254,-0.0144L0.8959,-0.0199L0.8625,-0.0256L0.8254,-0.0315L0.7851,-0.0374L0.7422,-0.0432L0.6971,-0.0486L0.6502,-0.0533L0.6019,-0.0572L0.5526,-0.0604L0.5027,-0.0627L0.4528,-0.0641L0.4034,-0.0648L0.3549,-0.0646L0.3079,-0.0636L0.2629,-0.0618L0.2203,-0.0592L0.1807,-0.0558L0.1443,-0.0516L0.1116,-0.0466L0.0827,-0.041L0.058,-0.0347L0.0375,-0.028L0.0215,-0.021L0.0099,-0.0137L0.0028,-0.0066L0,-0.0002L0.0025,0.005L0.0107,0.0093L0.0242,0.0131L0.043,0.016L0.0669,0.0183L0.0958,0.02L0.1294,0.0211L0.1673,0.0218L0.209,0.0221L0.254,0.0221L0.3019,0.0217L0.3521,0.0211L0.404,0.0202L0.4569,0.0191L0.5104,0.0178L0.5637,0.0163L0.6162,0.0147L0.6674,0.0129L0.7167,0.0108L0.7637,0.0085L0.808,0.0062L0.8491,0.004L0.8863,0.0021L0.9193,0.0007L0.9473,-0.0002L0.9699,-0.0006L0.9864,-0.0005L0.9966,-0.0002L1,-0"
    />
</svg>
