
<svg 
  class="airfoil-sd5060"
  fill="none"
  stroke="black" 
  stroke-width="1"
  style="overflow:visible"
  viewBox="0, -0.0682, 1, 0.0979"
  xmlns="http://www.w3.org/2000/svg">
    <title>SD5060 (9.5%)</title>
    <path 
      vector-effect="non-scaling-stroke"
      d="M1,-0L0.9968,-0.0002L0.9872,-0.001L0.9715,-0.0026L0.95,-0.005L0.9233,-0.0084L0.8917,-0.0127L0.856,-0.0178L0.8166,-0.0235L0.7742,-0.0297L0.7293,-0.036L0.6824,-0.0423L0.634,-0.0482L0.5846,-0.0537L0.5347,-0.0585L0.4847,-0.0624L0.4351,-0.0654L0.3863,-0.0673L0.3388,-0.0682L0.293,-0.0679L0.2493,-0.0666L0.2081,-0.0643L0.1699,-0.0611L0.135,-0.0568L0.1038,-0.0517L0.0766,-0.0457L0.0534,-0.0388L0.0344,-0.031L0.0195,-0.0228L0.0088,-0.0144L0.0022,-0.0064L0,0.0007L0.0033,0.0066L0.0124,0.0121L0.0264,0.0173L0.0451,0.0218L0.0684,0.0254L0.0961,0.028L0.1283,0.0294L0.1647,0.0297L0.2052,0.0292L0.2493,0.028L0.2966,0.0261L0.3465,0.0238L0.3984,0.0213L0.4518,0.0185L0.506,0.0157L0.5603,0.0129L0.6142,0.0102L0.6668,0.0077L0.7176,0.0055L0.7659,0.0036L0.8111,0.0021L0.8526,0.0009L0.8899,0.0001L0.9224,-0.0004L0.9497,-0.0006L0.9714,-0.0005L0.9872,-0.0003L0.9968,-0.0001L1,0"
    />
</svg>
