
<svg 
  class="airfoil-sd6080"
  fill="none"
  stroke="black" 
  stroke-width="1"
  style="overflow:visible"
  viewBox="0.0004, -0.0823, 0.9996, 0.0982"
  xmlns="http://www.w3.org/2000/svg">
    <title>SD6080 (9.2%)</title>
    <path 
      vector-effect="non-scaling-stroke"
      d="M1,-0L0.9968,-0.0004L0.9872,-0.0016L0.9715,-0.0038L0.9503,-0.0072L0.924,-0.0116L0.893,-0.017L0.858,-0.0233L0.8195,-0.0302L0.7779,-0.0376L0.734,-0.0451L0.6881,-0.0525L0.6408,-0.0596L0.5926,-0.0661L0.544,-0.0719L0.4955,-0.0765L0.4473,-0.0798L0.3999,-0.0818L0.3535,-0.0823L0.3086,-0.0815L0.2655,-0.0794L0.2245,-0.0761L0.1862,-0.0716L0.1507,-0.0661L0.1185,-0.0597L0.0898,-0.0524L0.0649,-0.0444L0.0439,-0.036L0.0268,-0.0272L0.0139,-0.0184L0.0051,-0.01L0.0004,-0.0026L0.0008,0.003L0.0069,0.0071L0.0186,0.0106L0.0356,0.0132L0.058,0.0149L0.0854,0.0158L0.1177,0.0159L0.1546,0.0154L0.1957,0.0143L0.2406,0.0128L0.2887,0.0111L0.3395,0.0092L0.3923,0.0072L0.4466,0.0052L0.5017,0.0033L0.5568,0.0017L0.6114,0.0002L0.6646,-0.001L0.716,-0.0019L0.7647,-0.0025L0.8102,-0.0028L0.852,-0.0029L0.8894,-0.0027L0.9221,-0.0023L0.9494,-0.0018L0.9712,-0.0012L0.9871,-0.0006L0.9967,-0.0002L1,-0"
    />
</svg>
