
<svg 
  class="airfoil-sd6060"
  fill="none"
  stroke="black" 
  stroke-width="1"
  style="overflow:visible"
  viewBox="0.0003, -0.0702, 0.9997, 0.103700005"
  xmlns="http://www.w3.org/2000/svg">
    <title>SD6060-104-88</title>
    <path 
      vector-effect="non-scaling-stroke"
      d="M1,-0L0.9966,-0.0002L0.9866,-0.0011L0.9703,-0.0028L0.9483,-0.0056L0.921,-0.0094L0.8891,-0.0142L0.853,-0.0198L0.8135,-0.0259L0.771,-0.0325L0.726,-0.0391L0.6792,-0.0456L0.6309,-0.0518L0.5817,-0.0574L0.5322,-0.0622L0.4828,-0.0661L0.4339,-0.0687L0.3857,-0.07L0.3386,-0.0702L0.2932,-0.0692L0.2498,-0.0671L0.2088,-0.064L0.1708,-0.0599L0.1359,-0.0548L0.1046,-0.0489L0.077,-0.0422L0.0534,-0.0349L0.034,-0.0271L0.0188,-0.0191L0.0079,-0.0113L0.0015,-0.0041L0.0003,0.0016L0.0049,0.0065L0.0153,0.0115L0.0307,0.0161L0.0511,0.0203L0.0765,0.0238L0.1064,0.0268L0.1408,0.0292L0.1791,0.0311L0.221,0.0324L0.2659,0.0332L0.3135,0.0335L0.3631,0.0334L0.4141,0.0327L0.4661,0.0316L0.5185,0.03L0.5707,0.0278L0.6222,0.0253L0.6725,0.0223L0.7212,0.0191L0.7676,0.0157L0.8113,0.0124L0.8518,0.0092L0.8884,0.0064L0.9207,0.004L0.9482,0.0021L0.9703,0.0009L0.9866,0.0002L0.9966,0L1,0"
    />
</svg>
