
<svg 
  class="airfoil-sd7062"
  fill="none"
  stroke="black" 
  stroke-width="1"
  style="overflow:visible"
  viewBox="0.0003, -0.1085, 0.9997, 0.1422"
  xmlns="http://www.w3.org/2000/svg">
    <title>SD7062 (14%)</title>
    <path 
      vector-effect="non-scaling-stroke"
      d="M1,-0L0.9965,-0.0006L0.9863,-0.0024L0.97,-0.0057L0.9482,-0.0104L0.9213,-0.0161L0.8897,-0.0229L0.8538,-0.0305L0.8143,-0.0388L0.7717,-0.0478L0.7266,-0.057L0.6797,-0.0663L0.6315,-0.0752L0.5825,-0.0835L0.5332,-0.0909L0.484,-0.0972L0.4354,-0.1023L0.3878,-0.1059L0.3416,-0.108L0.2972,-0.1085L0.255,-0.1072L0.2152,-0.1043L0.1782,-0.0997L0.1443,-0.0934L0.1136,-0.0856L0.0864,-0.0765L0.0627,-0.0662L0.0427,-0.0549L0.0265,-0.043L0.0141,-0.0308L0.0056,-0.0187L0.001,-0.0071L0.0003,0.0033L0.0043,0.0111L0.0141,0.017L0.0299,0.0221L0.051,0.0262L0.0771,0.0295L0.108,0.0318L0.1433,0.0332L0.1826,0.0337L0.2257,0.0333L0.272,0.0321L0.321,0.0301L0.3724,0.0275L0.4255,0.0243L0.4798,0.0206L0.5348,0.0168L0.5897,0.013L0.644,0.0093L0.6969,0.0059L0.7477,0.0031L0.7956,0.0008L0.8399,-0.0009L0.88,-0.0019L0.9152,-0.0023L0.9449,-0.0022L0.9686,-0.0016L0.9859,-0.0009L0.9965,-0.0003L1,-0"
    />
</svg>
