
<svg 
  class="airfoil-sd7080"
  fill="none"
  stroke="black" 
  stroke-width="1"
  style="overflow:visible"
  viewBox="0, -0.0697, 1, 0.093100004"
  xmlns="http://www.w3.org/2000/svg">
    <title>SD7080 (9.2%)</title>
    <path 
      vector-effect="non-scaling-stroke"
      d="M1,-0L0.9967,-0.0004L0.987,-0.0016L0.9713,-0.0039L0.9502,-0.0074L0.9241,-0.012L0.8937,-0.0173L0.8594,-0.0231L0.8217,-0.0292L0.7808,-0.0352L0.7372,-0.041L0.6912,-0.0465L0.6433,-0.0516L0.594,-0.0564L0.544,-0.0605L0.4937,-0.064L0.4437,-0.0668L0.3945,-0.0687L0.3466,-0.0697L0.3004,-0.0697L0.2564,-0.0686L0.2151,-0.0664L0.1767,-0.0631L0.1416,-0.0587L0.11,-0.0533L0.0821,-0.047L0.0581,-0.0398L0.0382,-0.032L0.0224,-0.0238L0.0107,-0.0156L0.0032,-0.0076L0,-0.0006L0.0022,0.0049L0.0102,0.0095L0.0235,0.0135L0.042,0.0169L0.0655,0.0196L0.0938,0.0216L0.1268,0.0228L0.164,0.0234L0.2051,0.0234L0.2496,0.0229L0.2971,0.0219L0.347,0.0206L0.3988,0.0189L0.4518,0.017L0.5056,0.0148L0.5594,0.0125L0.6128,0.0102L0.6651,0.0078L0.7156,0.0056L0.7638,0.0037L0.809,0.002L0.8507,0.0007L0.8882,-0.0002L0.921,-0.0007L0.9487,-0.0009L0.9708,-0.0008L0.9869,-0.0005L0.9967,-0.0002L1,0"
    />
</svg>
