
<svg 
  class="airfoil-sd7037"
  fill="none"
  stroke="black" 
  stroke-width="1"
  style="overflow:visible"
  viewBox="0.0002, -0.075, 0.9998, 0.095300004"
  xmlns="http://www.w3.org/2000/svg">
    <title>SD7037-092-88</title>
    <path 
      vector-effect="non-scaling-stroke"
      d="M1,-0L0.9967,-0.0004L0.9871,-0.0018L0.9715,-0.0044L0.9504,-0.0081L0.9245,-0.013L0.8942,-0.0187L0.8601,-0.0249L0.8226,-0.0314L0.782,-0.0379L0.7387,-0.0441L0.6929,-0.0501L0.6454,-0.0557L0.5965,-0.0608L0.5469,-0.0654L0.4971,-0.0692L0.4475,-0.0721L0.3986,-0.0741L0.351,-0.075L0.3051,-0.0749L0.2612,-0.0736L0.2199,-0.0711L0.1814,-0.0675L0.146,-0.0629L0.1141,-0.0571L0.0859,-0.0505L0.0615,-0.043L0.041,-0.0349L0.0246,-0.0263L0.0123,-0.0177L0.0042,-0.0094L0.0002,-0.0019L0.0013,0.0039L0.0081,0.0084L0.0204,0.0123L0.038,0.0154L0.0607,0.0178L0.0884,0.0193L0.1208,0.0202L0.1576,0.0203L0.1985,0.0199L0.243,0.0189L0.2905,0.0175L0.3407,0.0159L0.3929,0.014L0.4464,0.0119L0.5007,0.0098L0.5552,0.0076L0.6091,0.0055L0.662,0.0035L0.7131,0.0017L0.7618,0.0001L0.8075,-0.001L0.8496,-0.0018L0.8876,-0.0022L0.9207,-0.0022L0.9486,-0.0019L0.9708,-0.0013L0.9869,-0.0007L0.9967,-0.0002L1,-0"
    />
</svg>
