
<svg 
  class="airfoil-sd7043"
  fill="none"
  stroke="black" 
  stroke-width="1"
  style="overflow:visible"
  viewBox="0.0005, -0.0785, 0.9995, 0.097100005"
  xmlns="http://www.w3.org/2000/svg">
    <title>SD7043 (9.1%)</title>
    <path 
      vector-effect="non-scaling-stroke"
      d="M1,-0L0.9968,-0.0005L0.9874,-0.0019L0.972,-0.0045L0.9512,-0.0083L0.9254,-0.0132L0.8952,-0.019L0.8611,-0.0255L0.8235,-0.0326L0.783,-0.0398L0.74,-0.0469L0.695,-0.0536L0.6482,-0.0597L0.6002,-0.0652L0.5513,-0.0698L0.502,-0.0735L0.4528,-0.0762L0.4042,-0.0779L0.3566,-0.0785L0.3106,-0.078L0.2664,-0.0764L0.2246,-0.0738L0.1855,-0.0702L0.1495,-0.0655L0.117,-0.0599L0.0882,-0.0534L0.0633,-0.0461L0.0425,-0.0382L0.0258,-0.0298L0.0133,-0.0211L0.0051,-0.0124L0.0008,-0.004L0.0005,0.0028L0.0055,0.0077L0.0167,0.0115L0.0332,0.0145L0.055,0.0167L0.0818,0.018L0.1134,0.0186L0.1496,0.0184L0.1898,0.0176L0.2337,0.0162L0.2809,0.0143L0.3309,0.012L0.383,0.0095L0.4368,0.0068L0.4915,0.0041L0.5466,0.0015L0.6015,-0.001L0.6553,-0.0031L0.7075,-0.0049L0.7574,-0.0061L0.8043,-0.0069L0.8475,-0.007L0.8865,-0.0065L0.9205,-0.0055L0.9488,-0.004L0.9711,-0.0025L0.9871,-0.0012L0.9968,-0.0003L1,0"
    />
</svg>
