
<svg 
  class="airfoil-sd7003"
  fill="none"
  stroke="black" 
  stroke-width="1"
  style="overflow:visible"
  viewBox="0.0003, -0.0566, 0.9997, 0.0856"
  xmlns="http://www.w3.org/2000/svg">
    <title>SD7003-085-88</title>
    <path 
      vector-effect="non-scaling-stroke"
      d="M1,-0L0.9968,-0.0003L0.9875,-0.0013L0.9724,-0.0031L0.9519,-0.0055L0.9264,-0.0082L0.896,-0.0114L0.8611,-0.0149L0.8222,-0.0188L0.7799,-0.023L0.7345,-0.0274L0.6867,-0.032L0.6372,-0.0365L0.5864,-0.0409L0.535,-0.0449L0.4835,-0.0486L0.4325,-0.0517L0.3825,-0.0542L0.334,-0.0558L0.2876,-0.0566L0.2436,-0.0564L0.2024,-0.0552L0.1644,-0.0529L0.1299,-0.0496L0.0992,-0.0453L0.0724,-0.0399L0.0498,-0.0337L0.0313,-0.0268L0.017,-0.0193L0.007,-0.0117L0.0013,-0.0044L0.0003,0.0019L0.0046,0.0074L0.0141,0.0128L0.0284,0.0176L0.0476,0.0214L0.0718,0.0244L0.1007,0.0266L0.1341,0.0281L0.1715,0.0289L0.2127,0.029L0.2572,0.0285L0.3046,0.0275L0.3543,0.0261L0.4057,0.0243L0.4584,0.0222L0.5116,0.0198L0.5648,0.0172L0.6175,0.0145L0.669,0.0117L0.7188,0.0089L0.7664,0.0063L0.8112,0.004L0.8524,0.0022L0.8896,0.0008L0.9221,-0.0001L0.9495,-0.0005L0.9713,-0.0006L0.9872,-0.0004L0.9968,-0.0001L1,0"
    />
</svg>
