
<svg 
  class="airfoil-sd7032"
  fill="none"
  stroke="black" 
  stroke-width="1"
  style="overflow:visible"
  viewBox="0.0004, -0.085, 0.9996, 0.1037"
  xmlns="http://www.w3.org/2000/svg">
    <title>SD7032-099-88</title>
    <path 
      vector-effect="non-scaling-stroke"
      d="M1,-0L0.9967,-0.0005L0.9871,-0.002L0.9715,-0.0049L0.9505,-0.0089L0.9246,-0.0142L0.8944,-0.0204L0.8602,-0.0273L0.8226,-0.0346L0.7821,-0.042L0.7389,-0.0492L0.6936,-0.0562L0.6465,-0.0627L0.5981,-0.0686L0.549,-0.0738L0.4997,-0.0782L0.4506,-0.0815L0.4022,-0.0838L0.3551,-0.085L0.3095,-0.0849L0.266,-0.0836L0.225,-0.081L0.1867,-0.077L0.1515,-0.0718L0.1195,-0.0655L0.091,-0.0581L0.0663,-0.0498L0.0452,-0.0408L0.0281,-0.0314L0.015,-0.0221L0.0061,-0.0129L0.0012,-0.0045L0.0004,0.0022L0.0053,0.007L0.0165,0.0109L0.0331,0.014L0.0549,0.0163L0.0818,0.0179L0.1135,0.0186L0.1497,0.0187L0.1901,0.0181L0.2342,0.017L0.2815,0.0155L0.3315,0.0136L0.3836,0.0115L0.4372,0.0092L0.4918,0.0068L0.5466,0.0043L0.6011,0.0019L0.6547,-0.0003L0.7066,-0.0022L0.7563,-0.0038L0.8031,-0.0049L0.8464,-0.0054L0.8853,-0.0053L0.9194,-0.0046L0.948,-0.0035L0.9705,-0.0023L0.9868,-0.0011L0.9967,-0.0003L1,0"
    />
</svg>
