
<svg 
  class="airfoil-sd7090"
  fill="none"
  stroke="black" 
  stroke-width="1"
  style="overflow:visible"
  viewBox="0, -0.0681, 1, 0.1005"
  xmlns="http://www.w3.org/2000/svg">
    <title>SD7090 (10%)</title>
    <path 
      vector-effect="non-scaling-stroke"
      d="M1,-0L0.9966,-0.0005L0.9866,-0.0022L0.9711,-0.0051L0.9506,-0.0088L0.9252,-0.0128L0.895,-0.0172L0.8604,-0.0219L0.8218,-0.0269L0.7797,-0.0322L0.7348,-0.0376L0.6875,-0.043L0.6386,-0.0483L0.5885,-0.0533L0.5378,-0.0577L0.4869,-0.0615L0.4365,-0.0646L0.387,-0.0667L0.3389,-0.068L0.2927,-0.0681L0.2488,-0.0672L0.2076,-0.0652L0.1694,-0.0621L0.1347,-0.0578L0.1035,-0.0525L0.0762,-0.0462L0.053,-0.0391L0.0338,-0.0312L0.0189,-0.023L0.0083,-0.0146L0.002,-0.0064L0,0.001L0.0034,0.0073L0.0124,0.0132L0.0262,0.0183L0.0451,0.0226L0.069,0.026L0.0977,0.0287L0.1309,0.0307L0.1682,0.0319L0.2093,0.0324L0.2537,0.0323L0.3011,0.0316L0.3508,0.0305L0.4023,0.0289L0.455,0.027L0.5083,0.0247L0.5617,0.0222L0.6144,0.0195L0.6661,0.0166L0.7161,0.0136L0.7638,0.0108L0.8087,0.0083L0.8501,0.0061L0.8874,0.0043L0.92,0.0028L0.9476,0.0016L0.9697,0.0007L0.9862,0.0001L0.9965,-0L1,-0"
    />
</svg>
