
<svg 
  class="airfoil-sd7084"
  fill="none"
  stroke="black" 
  stroke-width="1"
  style="overflow:visible"
  viewBox="0, -0.0707, 1, 0.0968"
  xmlns="http://www.w3.org/2000/svg">
    <title>SD7084 (9.6%)</title>
    <path 
      vector-effect="non-scaling-stroke"
      d="M1,-0L0.9966,-0.0003L0.9865,-0.0014L0.9703,-0.0036L0.9485,-0.0071L0.9217,-0.0116L0.8906,-0.0171L0.8558,-0.0231L0.8175,-0.0294L0.7762,-0.0356L0.7322,-0.0415L0.6858,-0.0472L0.6377,-0.0525L0.5883,-0.0573L0.5382,-0.0615L0.4878,-0.0651L0.4378,-0.0679L0.3887,-0.0698L0.341,-0.0707L0.295,-0.0707L0.2514,-0.0696L0.2104,-0.0673L0.1725,-0.064L0.138,-0.0595L0.1071,-0.0537L0.0799,-0.047L0.0564,-0.0393L0.0369,-0.0311L0.0213,-0.0226L0.0099,-0.0141L0.0026,-0.0063L0,0.0002L0.0029,0.0055L0.0117,0.0103L0.0258,0.0144L0.0451,0.0179L0.0696,0.0207L0.0988,0.0229L0.1324,0.0246L0.1703,0.0256L0.2119,0.0261L0.2568,0.026L0.3045,0.0255L0.3546,0.0245L0.4063,0.0231L0.4593,0.0214L0.5129,0.0195L0.5665,0.0174L0.6194,0.0152L0.6712,0.013L0.7211,0.0108L0.7685,0.0087L0.813,0.0069L0.8538,0.0052L0.8905,0.0038L0.9225,0.0027L0.9494,0.0018L0.9709,0.001L0.9867,0.0004L0.9966,0.0001L1,0"
    />
</svg>
