
<svg 
  class="airfoil-sd7034"
  fill="none"
  stroke="black" 
  stroke-width="1"
  style="overflow:visible"
  viewBox="0.0006, -0.0901, 0.9994, 0.1108"
  xmlns="http://www.w3.org/2000/svg">
    <title>SD7034</title>
    <path 
      vector-effect="non-scaling-stroke"
      d="M1,-0L0.9967,-0.0003L0.987,-0.0015L0.971,-0.0037L0.9493,-0.0072L0.9223,-0.0118L0.8907,-0.0176L0.8551,-0.0244L0.8159,-0.032L0.7739,-0.04L0.7296,-0.0483L0.6834,-0.0564L0.6359,-0.0641L0.5876,-0.0711L0.5388,-0.0773L0.4899,-0.0824L0.4415,-0.0863L0.3939,-0.0889L0.3476,-0.0901L0.3029,-0.0899L0.2601,-0.0883L0.2198,-0.0852L0.1822,-0.0808L0.1475,-0.0752L0.1161,-0.0682L0.0881,-0.0602L0.0638,-0.0514L0.0431,-0.0419L0.0264,-0.0321L0.0137,-0.0223L0.0051,-0.0128L0.0007,-0.004L0.0006,0.0033L0.0059,0.0089L0.0169,0.0136L0.033,0.0171L0.0544,0.0193L0.0812,0.0204L0.113,0.0207L0.1495,0.0203L0.1902,0.0193L0.2347,0.0178L0.2825,0.0159L0.3331,0.0138L0.3858,0.0114L0.44,0.009L0.4951,0.0065L0.5505,0.0042L0.6055,0.0021L0.6593,0.0003L0.7113,-0.0011L0.7608,-0.0021L0.807,-0.0027L0.8495,-0.003L0.8876,-0.0029L0.9208,-0.0025L0.9487,-0.002L0.9708,-0.0013L0.9869,-0.0007L0.9967,-0.0002L1,-0"
    />
</svg>
