
<svg 
  class="airfoil-sd8000"
  fill="none"
  stroke="black" 
  stroke-width="1"
  style="overflow:visible"
  viewBox="0.0002, -0.06, 0.9998, 0.0902"
  xmlns="http://www.w3.org/2000/svg">
    <title>SD8000-089-88</title>
    <path 
      vector-effect="non-scaling-stroke"
      d="M1,-0L0.9967,-0.0003L0.9871,-0.0013L0.9715,-0.0032L0.9503,-0.0061L0.9241,-0.0098L0.8934,-0.0143L0.8587,-0.0194L0.8204,-0.0247L0.779,-0.03L0.7348,-0.0352L0.6883,-0.0402L0.64,-0.0448L0.5903,-0.0489L0.5399,-0.0526L0.4892,-0.0555L0.4387,-0.0578L0.3891,-0.0593L0.3406,-0.06L0.2939,-0.0598L0.2495,-0.0587L0.2077,-0.0567L0.1691,-0.0539L0.1338,-0.0501L0.1023,-0.0455L0.0748,-0.04L0.0514,-0.0338L0.0324,-0.0269L0.0177,-0.0195L0.0073,-0.0119L0.0014,-0.0046L0.0002,0.0018L0.0044,0.0075L0.0137,0.0132L0.0278,0.0181L0.0468,0.0223L0.0706,0.0254L0.0991,0.0278L0.1322,0.0293L0.1694,0.0301L0.2104,0.0302L0.2548,0.0297L0.302,0.0286L0.3516,0.0271L0.4031,0.0251L0.4558,0.0228L0.5091,0.0202L0.5626,0.0174L0.6157,0.0146L0.6676,0.0118L0.7177,0.0091L0.7656,0.0066L0.8105,0.0044L0.8518,0.0027L0.8891,0.0013L0.9217,0.0004L0.9492,-0.0001L0.9711,-0.0003L0.987,-0.0003L0.9967,-0.0001L1,-0"
    />
</svg>
