
<svg 
  class="airfoil-sd8040"
  fill="none"
  stroke="black" 
  stroke-width="1"
  style="overflow:visible"
  viewBox="0, -0.0755, 1, 0.1016"
  xmlns="http://www.w3.org/2000/svg">
    <title>SD8040 (10%)</title>
    <path 
      vector-effect="non-scaling-stroke"
      d="M1,-0L0.9967,-0.0004L0.9868,-0.0016L0.9709,-0.004L0.9495,-0.0075L0.923,-0.0121L0.8921,-0.0176L0.8572,-0.0237L0.8188,-0.0302L0.7774,-0.0367L0.7333,-0.0432L0.687,-0.0494L0.6389,-0.0553L0.5897,-0.0606L0.5397,-0.0653L0.4895,-0.0693L0.4397,-0.0723L0.3907,-0.0744L0.343,-0.0755L0.2971,-0.0755L0.2533,-0.0743L0.2122,-0.072L0.174,-0.0685L0.139,-0.0639L0.1076,-0.0581L0.0799,-0.0514L0.0562,-0.0439L0.0365,-0.0356L0.021,-0.0269L0.0097,-0.0181L0.0027,-0.0094L0,-0.001L0.0016,0.0058L0.0084,0.011L0.0212,0.0154L0.0393,0.0191L0.0624,0.022L0.0905,0.0241L0.1232,0.0255L0.1602,0.0261L0.2013,0.0261L0.2458,0.0256L0.2933,0.0246L0.3432,0.0231L0.3951,0.0213L0.4484,0.0192L0.5023,0.0169L0.5564,0.0144L0.61,0.0119L0.6625,0.0094L0.7133,0.007L0.7617,0.0049L0.8073,0.003L0.8492,0.0015L0.887,0.0004L0.9201,-0.0003L0.948,-0.0006L0.9704,-0.0006L0.9867,-0.0004L0.9966,-0.0001L1,-0"
    />
</svg>
