
<svg 
  class="airfoil-sd8020"
  fill="none"
  stroke="black" 
  stroke-width="1"
  style="overflow:visible"
  viewBox="0, -0.0505, 1, 0.101"
  xmlns="http://www.w3.org/2000/svg">
    <title>SD8020-010-88</title>
    <path 
      vector-effect="non-scaling-stroke"
      d="M1,-0L0.9965,-0.0003L0.9862,-0.0013L0.9702,-0.0033L0.9488,-0.0059L0.9225,-0.0088L0.8912,-0.0119L0.8554,-0.0153L0.8156,-0.0191L0.7724,-0.0231L0.7263,-0.0272L0.6779,-0.0314L0.6278,-0.0353L0.5765,-0.0391L0.5246,-0.0425L0.4726,-0.0454L0.4212,-0.0477L0.3708,-0.0494L0.322,-0.0503L0.2752,-0.0505L0.2311,-0.0498L0.1899,-0.0482L0.152,-0.0457L0.1179,-0.0423L0.0877,-0.038L0.0618,-0.0329L0.0402,-0.027L0.0232,-0.0204L0.0106,-0.0135L0.0028,-0.0065L0,-0L0.0028,0.0065L0.0107,0.0135L0.0232,0.0204L0.0402,0.027L0.0618,0.0329L0.0877,0.038L0.1179,0.0423L0.152,0.0457L0.1899,0.0482L0.2311,0.0498L0.2752,0.0505L0.322,0.0503L0.3708,0.0494L0.4212,0.0477L0.4726,0.0454L0.5246,0.0425L0.5765,0.0391L0.6278,0.0353L0.6779,0.0314L0.7263,0.0272L0.7724,0.0231L0.8156,0.0191L0.8554,0.0153L0.8912,0.0119L0.9225,0.0088L0.9489,0.0059L0.9702,0.0033L0.9863,0.0013L0.9965,0.0003L1,-0"
    />
</svg>
