
<svg 
  class="airfoil-sg6043"
  fill="none"
  stroke="black" 
  stroke-width="1"
  style="overflow:visible"
  viewBox="0, -0.1027, 1, 0.117300004"
  xmlns="http://www.w3.org/2000/svg">
    <title>SG6043</title>
    <path 
      vector-effect="non-scaling-stroke"
      d="M1,-0L0.9981,-0.0007L0.9927,-0.0027L0.9844,-0.0061L0.9734,-0.0105L0.9601,-0.0155L0.9443,-0.0209L0.926,-0.0265L0.9052,-0.0325L0.8821,-0.0387L0.8569,-0.0451L0.8298,-0.0516L0.801,-0.0582L0.7707,-0.0648L0.7392,-0.0711L0.7067,-0.0772L0.6732,-0.0827L0.6389,-0.0876L0.604,-0.0919L0.5685,-0.0955L0.5328,-0.0984L0.4968,-0.1006L0.461,-0.102L0.4253,-0.1027L0.39,-0.1026L0.3553,-0.1018L0.3213,-0.1002L0.2883,-0.0979L0.2563,-0.0949L0.2257,-0.0913L0.1964,-0.087L0.1688,-0.0822L0.1429,-0.0768L0.1189,-0.071L0.0969,-0.0647L0.0769,-0.0581L0.0592,-0.0512L0.0438,-0.044L0.0306,-0.0366L0.0198,-0.0292L0.0114,-0.0217L0.0053,-0.0144L0.0015,-0.0074L0,-0.0009L0.0006,0.0047L0.0039,0.0086L0.0108,0.0112L0.0209,0.0132L0.0341,0.0143L0.0505,0.0146L0.0701,0.0142L0.0929,0.0133L0.1186,0.012L0.1471,0.0103L0.1781,0.0085L0.2115,0.0064L0.2469,0.0043L0.2842,0.0021L0.323,-0.0001L0.363,-0.0023L0.404,-0.0045L0.4457,-0.0067L0.4878,-0.0089L0.5303,-0.0112L0.5729,-0.0133L0.6153,-0.015L0.657,-0.0164L0.6978,-0.0172L0.7373,-0.0176L0.7752,-0.0175L0.8111,-0.0169L0.8447,-0.0159L0.8757,-0.0145L0.9038,-0.0127L0.9287,-0.0106L0.9502,-0.0083L0.9681,-0.0059L0.9821,-0.0036L0.9921,-0.0017L0.998,-0.0005L1,-0"
    />
</svg>
