
<svg 
  class="airfoil-sg6041"
  fill="none"
  stroke="black" 
  stroke-width="1"
  style="overflow:visible"
  viewBox="0.0002, -0.0699, 0.9998, 0.099999994"
  xmlns="http://www.w3.org/2000/svg">
    <title>SG6041</title>
    <path 
      vector-effect="non-scaling-stroke"
      d="M1,-0L0.998,-0.0003L0.9923,-0.0013L0.9831,-0.0031L0.9708,-0.0056L0.9557,-0.0087L0.9378,-0.0122L0.9172,-0.016L0.8941,-0.0202L0.8687,-0.0247L0.8413,-0.0295L0.812,-0.0344L0.7812,-0.0393L0.749,-0.0441L0.7155,-0.0485L0.6809,-0.0526L0.6453,-0.0563L0.6088,-0.0597L0.5719,-0.0626L0.5345,-0.065L0.4969,-0.067L0.4594,-0.0685L0.4221,-0.0694L0.3853,-0.0699L0.3492,-0.0699L0.3139,-0.0693L0.2797,-0.0682L0.2468,-0.0667L0.2154,-0.0646L0.1856,-0.062L0.1577,-0.059L0.1317,-0.0555L0.1078,-0.0515L0.0862,-0.0471L0.0669,-0.0423L0.05,-0.0371L0.0355,-0.0316L0.0236,-0.0258L0.0141,-0.0197L0.007,-0.0137L0.0024,-0.0077L0.0002,-0.0019L0.0003,0.0027L0.0038,0.0064L0.0108,0.0101L0.0207,0.0135L0.0336,0.0164L0.0495,0.0189L0.0683,0.021L0.0899,0.0229L0.1141,0.0246L0.1408,0.0261L0.1698,0.0273L0.2008,0.0283L0.2336,0.0291L0.2681,0.0296L0.304,0.03L0.3411,0.0301L0.3791,0.03L0.4177,0.0296L0.4568,0.0289L0.496,0.028L0.5352,0.0266L0.5742,0.0249L0.6128,0.0228L0.6509,0.0204L0.6883,0.0176L0.7249,0.0148L0.7604,0.0121L0.7945,0.0096L0.8268,0.0073L0.8572,0.0053L0.8852,0.0037L0.9107,0.0024L0.9334,0.0015L0.953,0.0008L0.9694,0.0004L0.9824,0L0.992,-0.0001L0.998,-0.0001L1,-0"
    />
</svg>
