
<svg 
  class="airfoil-sg6050"
  fill="none"
  stroke="black" 
  stroke-width="1"
  style="overflow:visible"
  viewBox="0.0005, -0.1094, 0.9995, 0.16319999"
  xmlns="http://www.w3.org/2000/svg">
    <title>SG6050</title>
    <path 
      vector-effect="non-scaling-stroke"
      d="M1,-0.005L0.9978,-0.0054L0.9914,-0.0068L0.9815,-0.0093L0.9686,-0.0126L0.9527,-0.0165L0.9338,-0.0209L0.912,-0.0259L0.8877,-0.0314L0.8611,-0.0375L0.8324,-0.0441L0.8019,-0.0509L0.7699,-0.0581L0.7367,-0.0654L0.7025,-0.0726L0.6678,-0.0796L0.6325,-0.0861L0.5968,-0.0919L0.5609,-0.097L0.5248,-0.1012L0.4888,-0.1046L0.4529,-0.1072L0.4173,-0.1088L0.3823,-0.1094L0.348,-0.1092L0.3145,-0.108L0.2821,-0.1059L0.2508,-0.1028L0.2208,-0.0989L0.1922,-0.0941L0.1652,-0.0886L0.1398,-0.0823L0.1161,-0.0754L0.0944,-0.068L0.0748,-0.0602L0.0572,-0.052L0.0418,-0.0437L0.0287,-0.0352L0.018,-0.0267L0.0096,-0.0184L0.0038,-0.0105L0.0005,-0.0032L0.0005,0.0031L0.0041,0.0091L0.0107,0.0154L0.0198,0.0216L0.0314,0.0274L0.0457,0.0323L0.0629,0.0366L0.0829,0.0405L0.1054,0.044L0.1303,0.0471L0.1573,0.0497L0.1862,0.0518L0.2167,0.0532L0.2489,0.0538L0.2826,0.0534L0.3177,0.052L0.3545,0.0496L0.3932,0.0466L0.4332,0.0436L0.4739,0.0409L0.5149,0.0382L0.5558,0.0354L0.5964,0.0326L0.6366,0.0299L0.6759,0.0271L0.7141,0.0245L0.7508,0.0221L0.7858,0.0198L0.8187,0.0174L0.8495,0.0149L0.8783,0.0125L0.9048,0.0104L0.9285,0.0087L0.9491,0.0074L0.9664,0.0064L0.9804,0.0055L0.991,0.0049L0.9977,0.0049L1,0.005"
    />
</svg>
