
<svg 
  class="airfoil-sg6051"
  fill="none"
  stroke="black" 
  stroke-width="1"
  style="overflow:visible"
  viewBox="0.0004, -0.0909, 0.9996, 0.1227"
  xmlns="http://www.w3.org/2000/svg">
    <title>SG6051</title>
    <path 
      vector-effect="non-scaling-stroke"
      d="M1,-0.005L0.9979,-0.0053L0.9919,-0.0063L0.9823,-0.0083L0.9697,-0.011L0.954,-0.0143L0.9354,-0.0181L0.9141,-0.0226L0.8903,-0.0276L0.8643,-0.0331L0.8364,-0.0391L0.8067,-0.0453L0.7757,-0.0517L0.7436,-0.058L0.7104,-0.064L0.6763,-0.0696L0.6416,-0.0748L0.6063,-0.0793L0.5706,-0.0832L0.5347,-0.0863L0.4987,-0.0887L0.4627,-0.0902L0.427,-0.0909L0.3916,-0.0908L0.3568,-0.0899L0.3226,-0.0883L0.2893,-0.086L0.2571,-0.083L0.2261,-0.0793L0.1965,-0.0752L0.1686,-0.0705L0.1423,-0.0653L0.118,-0.0597L0.0956,-0.0537L0.0754,-0.0474L0.0574,-0.041L0.0417,-0.0344L0.0284,-0.0277L0.0176,-0.0211L0.0093,-0.0147L0.0037,-0.0085L0.0006,-0.0026L0.0004,0.0022L0.0037,0.0065L0.0099,0.011L0.0187,0.0149L0.0306,0.0181L0.0457,0.0208L0.0637,0.0232L0.0845,0.0253L0.1079,0.0271L0.1339,0.0286L0.1622,0.0298L0.1926,0.0308L0.2249,0.0314L0.2588,0.0318L0.2941,0.0318L0.3305,0.0311L0.3683,0.0297L0.4075,0.028L0.4478,0.0263L0.4885,0.0247L0.5292,0.0232L0.5699,0.0216L0.6101,0.0201L0.6497,0.0185L0.6883,0.017L0.7257,0.0156L0.7616,0.0142L0.7958,0.0129L0.828,0.0116L0.858,0.0104L0.8858,0.0092L0.911,0.0082L0.9334,0.0074L0.9527,0.0068L0.9689,0.0061L0.9819,0.0055L0.9917,0.005L0.9979,0.0049L1,0.005"
    />
</svg>
