
<svg 
  class="airfoil-sg6040"
  fill="none"
  stroke="black" 
  stroke-width="1"
  style="overflow:visible"
  viewBox="0.0003, -0.1039, 0.9997, 0.1602"
  xmlns="http://www.w3.org/2000/svg">
    <title>SG6040</title>
    <path 
      vector-effect="non-scaling-stroke"
      d="M1,-0L0.9979,-0.0005L0.9918,-0.0021L0.9823,-0.0048L0.9698,-0.0084L0.9544,-0.0128L0.9364,-0.0177L0.9156,-0.0228L0.8922,-0.0284L0.8665,-0.0345L0.8386,-0.0408L0.8089,-0.0474L0.7775,-0.0542L0.7448,-0.0609L0.711,-0.0676L0.6763,-0.0739L0.6408,-0.0799L0.6048,-0.0854L0.5684,-0.0903L0.5318,-0.0946L0.4953,-0.0981L0.4589,-0.1009L0.423,-0.1028L0.3876,-0.1038L0.3529,-0.1039L0.319,-0.103L0.2862,-0.1012L0.2545,-0.0984L0.2241,-0.0948L0.195,-0.0903L0.1673,-0.0851L0.1414,-0.0792L0.1172,-0.0728L0.095,-0.066L0.0748,-0.0587L0.0569,-0.0512L0.0412,-0.0435L0.028,-0.0356L0.0172,-0.0277L0.0091,-0.0199L0.0036,-0.0121L0.0007,-0.0045L0.0003,0.0027L0.0029,0.0088L0.0091,0.0145L0.0183,0.0202L0.0303,0.0258L0.0448,0.031L0.062,0.0357L0.0819,0.0397L0.1045,0.0434L0.1294,0.0466L0.1566,0.0494L0.1857,0.0517L0.2168,0.0536L0.2494,0.055L0.2835,0.0559L0.3187,0.0563L0.3549,0.0561L0.3918,0.0553L0.4292,0.0537L0.4669,0.0513L0.5048,0.048L0.543,0.0437L0.5816,0.0386L0.6205,0.0332L0.6593,0.0277L0.6976,0.0223L0.7353,0.0172L0.7718,0.0125L0.8069,0.0084L0.8402,0.005L0.8712,0.0023L0.8996,0.0003L0.9251,-0.0009L0.9473,-0.0015L0.9659,-0.0015L0.9806,-0.0012L0.9913,-0.0007L0.9978,-0.0002L1,-0"
    />
</svg>
