
<svg 
  class="airfoil-sg6042"
  fill="none"
  stroke="black" 
  stroke-width="1"
  style="overflow:visible"
  viewBox="0.0001, -0.0865, 0.9999, 0.1048"
  xmlns="http://www.w3.org/2000/svg">
    <title>SG6042</title>
    <path 
      vector-effect="non-scaling-stroke"
      d="M1,-0L0.9981,-0.0005L0.9925,-0.002L0.9837,-0.0046L0.9721,-0.0081L0.9578,-0.0122L0.941,-0.0167L0.9216,-0.0215L0.8997,-0.0266L0.8755,-0.032L0.8492,-0.0376L0.821,-0.0433L0.7912,-0.0491L0.7599,-0.0549L0.7276,-0.0604L0.6941,-0.0654L0.6596,-0.0701L0.6244,-0.0742L0.5884,-0.0777L0.5521,-0.0807L0.5155,-0.0831L0.4788,-0.0849L0.4422,-0.086L0.406,-0.0865L0.3702,-0.0863L0.3352,-0.0856L0.3011,-0.0842L0.2681,-0.0821L0.2363,-0.0796L0.206,-0.0764L0.1773,-0.0727L0.1504,-0.0685L0.1254,-0.0638L0.1025,-0.0587L0.0817,-0.0531L0.0632,-0.0473L0.047,-0.041L0.0331,-0.0346L0.0218,-0.028L0.0128,-0.0212L0.0062,-0.0145L0.002,-0.008L0.0001,-0.0018L0.0003,0.0034L0.0037,0.0073L0.0107,0.0104L0.0207,0.0131L0.0337,0.0152L0.0498,0.0166L0.069,0.0175L0.0912,0.0181L0.1161,0.0183L0.1436,0.0182L0.1736,0.0179L0.2057,0.0174L0.2398,0.0168L0.2756,0.016L0.3129,0.0151L0.3514,0.014L0.3908,0.0129L0.4309,0.0116L0.4714,0.0102L0.5121,0.0085L0.5528,0.0067L0.5933,0.0047L0.6334,0.0027L0.673,0.0008L0.7116,-0.001L0.749,-0.0026L0.7849,-0.0038L0.819,-0.0046L0.8509,-0.0051L0.8804,-0.0052L0.9072,-0.005L0.931,-0.0044L0.9515,-0.0036L0.9687,-0.0027L0.9822,-0.0018L0.992,-0.0009L0.998,-0.0003L1,-0"
    />
</svg>
