
<svg 
  class="airfoil-sm701"
  fill="none"
  stroke="black" 
  stroke-width="1"
  style="overflow:visible"
  viewBox="0.0002, -0.1106, 0.9998, 0.16"
  xmlns="http://www.w3.org/2000/svg">
    <title>SM701</title>
    <path 
      vector-effect="non-scaling-stroke"
      d="M1,-0L0.9964,-0.001L0.9861,-0.0041L0.97,-0.0095L0.9492,-0.0167L0.9243,-0.0249L0.8953,-0.0335L0.8621,-0.0422L0.825,-0.0512L0.7847,-0.0606L0.7417,-0.0699L0.6968,-0.079L0.6504,-0.0876L0.6032,-0.0952L0.5555,-0.1012L0.5071,-0.1056L0.4585,-0.1085L0.4102,-0.1102L0.3627,-0.1106L0.3165,-0.1096L0.2723,-0.1075L0.2304,-0.104L0.1913,-0.0991L0.1554,-0.093L0.123,-0.0854L0.0942,-0.0766L0.0692,-0.0665L0.0479,-0.0553L0.0305,-0.0434L0.017,-0.0312L0.0074,-0.0191L0.0017,-0.0077L0.0002,0.0021L0.0044,0.0098L0.015,0.0163L0.0313,0.0224L0.0528,0.028L0.0792,0.0329L0.1104,0.0373L0.1458,0.041L0.1849,0.0442L0.2272,0.0467L0.2722,0.0485L0.3193,0.0494L0.3678,0.0494L0.4173,0.048L0.4673,0.0449L0.5181,0.0398L0.5698,0.0334L0.6219,0.0262L0.6739,0.0189L0.725,0.0118L0.7745,0.0055L0.8214,0.0004L0.865,-0.0032L0.9041,-0.0053L0.9377,-0.0057L0.9649,-0.0046L0.9846,-0.0026L0.9962,-0.0007L1,-0"
    />
</svg>
