
<svg 
  class="airfoil-sokolov"
  fill="none"
  stroke="black" 
  stroke-width="1"
  style="overflow:visible"
  viewBox="0, -0.0956, 1, 0.1044"
  xmlns="http://www.w3.org/2000/svg">
    <title>SOKOLOV AIRFOIL</title>
    <path 
      vector-effect="non-scaling-stroke"
      d="M1,-0.007L0.95,-0.0185L0.9,-0.0301L0.8,-0.0492L0.7,-0.0663L0.6,-0.0804L0.5,-0.0905L0.4,-0.0956L0.3,-0.0922L0.25,-0.0882L0.2,-0.0818L0.15,-0.0708L0.1,-0.0584L0.075,-0.0497L0.05,-0.0389L0.025,-0.0252L0.0125,-0.0161L0,-0L0.0125,0.0079L0.025,0.0088L0.05,0.0071L0.075,0.0053L0.1,0.0011L0.15,-0.0054L0.2,-0.0113L0.25,-0.0172L0.3,-0.0227L0.4,-0.0326L0.5,-0.0385L0.6,-0.0384L0.7,-0.0343L0.8,-0.0252L0.9,-0.0141L0.95,-0.0071L1,-0"
    />
</svg>
