
<svg 
  class="airfoil-sp4621hp"
  fill="none"
  stroke="black" 
  stroke-width="1"
  style="overflow:visible"
  viewBox="0, -0.1362, 1, 0.2107"
  xmlns="http://www.w3.org/2000/svg">
    <title>SP4621HP</title>
    <path 
      vector-effect="non-scaling-stroke"
      d="M1,-0.0023L0.9949,-0.0044L0.9867,-0.0077L0.9775,-0.0113L0.967,-0.0152L0.9552,-0.0195L0.9418,-0.0241L0.9271,-0.0289L0.9115,-0.0338L0.8952,-0.0386L0.8785,-0.0434L0.8614,-0.0482L0.8439,-0.0529L0.826,-0.0575L0.8078,-0.0621L0.7895,-0.0666L0.7709,-0.0711L0.7522,-0.0757L0.7334,-0.0803L0.7146,-0.0848L0.6959,-0.0893L0.6774,-0.0938L0.6589,-0.0981L0.6407,-0.1024L0.6226,-0.1064L0.6047,-0.1103L0.587,-0.1139L0.5694,-0.1173L0.552,-0.1205L0.5346,-0.1234L0.5174,-0.126L0.5002,-0.1283L0.4831,-0.1303L0.466,-0.1321L0.449,-0.1335L0.4321,-0.1347L0.4151,-0.1355L0.3983,-0.136L0.3815,-0.1362L0.3648,-0.1361L0.3482,-0.1356L0.3317,-0.1348L0.3153,-0.1336L0.2989,-0.132L0.2825,-0.1301L0.2662,-0.1279L0.2499,-0.1252L0.2335,-0.1223L0.2173,-0.119L0.201,-0.1154L0.1848,-0.1114L0.1689,-0.1072L0.1532,-0.1028L0.138,-0.0982L0.1233,-0.0934L0.1093,-0.0885L0.0962,-0.0835L0.0841,-0.0785L0.0731,-0.0737L0.0632,-0.0689L0.0545,-0.0643L0.0469,-0.0598L0.0402,-0.0555L0.0344,-0.0513L0.0293,-0.0473L0.0248,-0.0433L0.0209,-0.0395L0.0175,-0.0359L0.0145,-0.0324L0.012,-0.029L0.0097,-0.0258L0.0078,-0.0227L0.0062,-0.0198L0.0048,-0.0169L0.0036,-0.0142L0.0026,-0.0116L0.0018,-0.009L0.0011,-0.0066L0.0006,-0.0043L0.0002,-0.0021L0,0L0,0.0021L0.0004,0.0042L0.001,0.0063L0.002,0.0084L0.0033,0.0105L0.0048,0.0125L0.0066,0.0146L0.0087,0.0166L0.0111,0.0185L0.0137,0.0205L0.0167,0.0225L0.0201,0.0245L0.0238,0.0265L0.028,0.0286L0.0328,0.0307L0.0381,0.0329L0.0442,0.0351L0.0512,0.0373L0.0591,0.0397L0.0682,0.0421L0.0785,0.0445L0.0903,0.047L0.1034,0.0495L0.1178,0.0519L0.1334,0.0544L0.1498,0.0568L0.1669,0.059L0.1845,0.0612L0.2023,0.0632L0.2204,0.0651L0.2386,0.0669L0.2568,0.0685L0.2749,0.07L0.293,0.0714L0.3108,0.0725L0.3283,0.0735L0.3452,0.0742L0.3615,0.0745L0.3773,0.0745L0.3925,0.074L0.4075,0.0729L0.4225,0.0712L0.4376,0.0689L0.4533,0.066L0.4696,0.0626L0.4866,0.0588L0.5042,0.0547L0.5223,0.0504L0.5407,0.0459L0.5594,0.0413L0.5781,0.0368L0.5967,0.0323L0.6153,0.0278L0.6338,0.0235L0.6522,0.0192L0.6705,0.0151L0.6887,0.0111L0.7067,0.0072L0.7246,0.0036L0.7423,0.0001L0.7596,-0.0031L0.7767,-0.006L0.7933,-0.0085L0.8096,-0.0106L0.8256,-0.0124L0.8413,-0.0137L0.8567,-0.0145L0.8718,-0.0149L0.8865,-0.0149L0.9009,-0.0144L0.915,-0.0134L0.9287,-0.012L0.9419,-0.0103L0.9543,-0.0082L0.9657,-0.006L0.976,-0.0037L0.9854,-0.0014L0.9939,0.0009L0.9991,0.0023"
    />
</svg>
