
<svg 
  class="airfoil-sp4721bs"
  fill="none"
  stroke="black" 
  stroke-width="1"
  style="overflow:visible"
  viewBox="0, -0.138, 1, 0.2143"
  xmlns="http://www.w3.org/2000/svg">
    <title>SP4721BS</title>
    <path 
      vector-effect="non-scaling-stroke"
      d="M1,-0.0029L0.9922,-0.0055L0.9789,-0.0108L0.9631,-0.0178L0.9451,-0.0257L0.9262,-0.0336L0.9066,-0.041L0.8862,-0.048L0.865,-0.0547L0.8432,-0.0611L0.821,-0.0674L0.7987,-0.0734L0.7762,-0.0793L0.7536,-0.0848L0.7309,-0.0902L0.7082,-0.0953L0.6855,-0.1002L0.6627,-0.1048L0.6399,-0.1092L0.6171,-0.1133L0.5943,-0.1171L0.5713,-0.1206L0.5484,-0.1238L0.5254,-0.1268L0.5025,-0.1296L0.4796,-0.132L0.457,-0.134L0.4344,-0.1357L0.4119,-0.1369L0.3896,-0.1377L0.3677,-0.138L0.346,-0.1377L0.3246,-0.1367L0.3032,-0.1351L0.2818,-0.1327L0.2603,-0.1297L0.2388,-0.126L0.2173,-0.1218L0.1959,-0.1171L0.1748,-0.112L0.1542,-0.1063L0.1341,-0.1002L0.1149,-0.0935L0.0968,-0.0865L0.0801,-0.0791L0.0651,-0.0715L0.0521,-0.064L0.0411,-0.0567L0.0322,-0.0499L0.0249,-0.0435L0.0191,-0.0377L0.0145,-0.0324L0.0109,-0.0275L0.008,-0.0231L0.0056,-0.019L0.0038,-0.0153L0.0024,-0.0118L0.0012,-0.0086L0.0005,-0.0055L0.0002,-0.0027L0,-0L0.0002,0.0026L0.0004,0.0053L0.0016,0.0077L0.0035,0.0102L0.0054,0.0128L0.008,0.0154L0.0111,0.018L0.0147,0.0206L0.0191,0.0233L0.0244,0.026L0.0307,0.0288L0.0384,0.0316L0.048,0.0345L0.0597,0.0376L0.0742,0.0409L0.0914,0.0444L0.1109,0.0479L0.1322,0.0514L0.1545,0.0547L0.1775,0.0579L0.2007,0.061L0.2242,0.0641L0.2476,0.0673L0.2705,0.0703L0.2927,0.073L0.314,0.0749L0.335,0.076L0.3557,0.0763L0.3764,0.0756L0.3973,0.0741L0.4183,0.0719L0.4395,0.0689L0.4609,0.0653L0.4823,0.061L0.5041,0.0561L0.5261,0.0506L0.5485,0.0448L0.5713,0.0387L0.594,0.0328L0.6167,0.0271L0.6393,0.0216L0.6618,0.0165L0.6842,0.0117L0.7066,0.0073L0.7289,0.0033L0.7511,-0.0003L0.7733,-0.0035L0.7954,-0.0061L0.8173,-0.0083L0.8389,-0.0099L0.8603,-0.0108L0.8814,-0.011L0.9021,-0.0105L0.9223,-0.0093L0.9417,-0.0074L0.9599,-0.0049L0.9763,-0.002L0.9904,0.001L0.9984,0.0029"
    />
</svg>
