
<svg 
  class="airfoil-sp4721la"
  fill="none"
  stroke="black" 
  stroke-width="1"
  style="overflow:visible"
  viewBox="0, -0.136, 1, 0.21400002"
  xmlns="http://www.w3.org/2000/svg">
    <title>SP4721LA</title>
    <path 
      vector-effect="non-scaling-stroke"
      d="M1,-0L0.9904,-0.0033L0.9745,-0.0099L0.9566,-0.0178L0.9375,-0.0261L0.918,-0.034L0.898,-0.0413L0.8773,-0.0482L0.8558,-0.0547L0.8337,-0.0612L0.8114,-0.0674L0.7889,-0.0734L0.7663,-0.0792L0.7435,-0.0847L0.7208,-0.09L0.698,-0.0951L0.6751,-0.0999L0.6522,-0.1045L0.6294,-0.1088L0.6065,-0.1127L0.5835,-0.1164L0.5605,-0.1199L0.5375,-0.123L0.5144,-0.126L0.4915,-0.1286L0.4686,-0.1309L0.446,-0.1328L0.4235,-0.1343L0.4011,-0.1353L0.3791,-0.1359L0.3574,-0.136L0.336,-0.1354L0.3148,-0.1341L0.2935,-0.1321L0.2723,-0.1295L0.2509,-0.1262L0.2295,-0.1224L0.2081,-0.118L0.1869,-0.1132L0.1661,-0.1079L0.1458,-0.1021L0.1262,-0.0958L0.1076,-0.0891L0.0902,-0.082L0.0743,-0.0746L0.0602,-0.0671L0.048,-0.0598L0.0378,-0.0527L0.0295,-0.046L0.0228,-0.0399L0.0175,-0.0342L0.0132,-0.0291L0.0098,-0.0244L0.0071,-0.0201L0.0049,-0.0161L0.0034,-0.0125L0.002,-0.0091L0.0009,-0.006L0.0005,-0.003L0.0002,-0.0002L0,0.0024L0.0003,0.005L0.0006,0.0076L0.0021,0.0098L0.0038,0.0121L0.0057,0.0146L0.008,0.017L0.0109,0.0194L0.0143,0.0219L0.0183,0.0244L0.0231,0.027L0.0289,0.0296L0.0359,0.0323L0.0446,0.0351L0.0553,0.0381L0.0686,0.0413L0.0848,0.0447L0.1036,0.0482L0.1244,0.0517L0.1466,0.0552L0.1695,0.0585L0.1929,0.0616L0.2165,0.0647L0.2401,0.0679L0.2632,0.071L0.2856,0.0738L0.307,0.076L0.3279,0.0774L0.3484,0.078L0.3688,0.0777L0.3893,0.0765L0.4101,0.0746L0.431,0.0719L0.4522,0.0686L0.4735,0.0646L0.495,0.0599L0.5169,0.0547L0.5393,0.049L0.562,0.043L0.585,0.037L0.6078,0.0311L0.6306,0.0256L0.6532,0.0203L0.6757,0.0154L0.6981,0.0108L0.7204,0.0066L0.7427,0.0029L0.7649,-0.0005L0.7869,-0.0033L0.8088,-0.0057L0.8305,-0.0074L0.8519,-0.0086L0.873,-0.0091L0.8938,-0.009L0.9142,-0.008L0.9342,-0.0063L0.9535,-0.0039L0.9719,-0.001L0.9887,0.0024L0.9987,0.0048"
    />
</svg>
