
<svg 
  class="airfoil-spicasm"
  fill="none"
  stroke="black" 
  stroke-width="1"
  style="overflow:visible"
  viewBox="0, -0.1058, 1, 0.1221"
  xmlns="http://www.w3.org/2000/svg">
    <title>SPICA 11.73% smoothed</title>
    <path 
      vector-effect="non-scaling-stroke"
      d="M1,-0L0.95,-0.012L0.9,-0.0227L0.85,-0.0327L0.8,-0.0426L0.75,-0.0524L0.7,-0.0619L0.65,-0.0711L0.6,-0.0797L0.55,-0.0877L0.5,-0.0949L0.45,-0.1005L0.4,-0.1041L0.35,-0.1058L0.3,-0.1053L0.25,-0.1024L0.2,-0.0969L0.15,-0.0881L0.1,-0.074L0.08,-0.0663L0.06,-0.057L0.04,-0.0456L0.02,-0.0304L0.01,-0.0205L0,-0L0.01,0.0128L0.02,0.0151L0.04,0.0163L0.06,0.0159L0.08,0.0156L0.1,0.0153L0.15,0.0144L0.2,0.0136L0.25,0.0127L0.3,0.0119L0.35,0.011L0.4,0.0102L0.45,0.0093L0.5,0.0085L0.55,0.0077L0.6,0.0068L0.65,0.006L0.7,0.0051L0.75,0.0043L0.8,0.0034L0.85,0.0026L0.9,0.0017L0.95,0.0009L1,-0"
    />
</svg>
