
<svg 
  class="airfoil-ssca09"
  fill="none"
  stroke="black" 
  stroke-width="1"
  style="overflow:visible"
  viewBox="0, -0.0556, 1, 0.0902"
  xmlns="http://www.w3.org/2000/svg">
    <title>SIKORSKY SSC-A09 AIRFOIL</title>
    <path 
      vector-effect="non-scaling-stroke"
      d="M1,-0.0024L0.995,-0.0021L0.9851,-0.002L0.9751,-0.0023L0.9551,-0.0038L0.9352,-0.0062L0.9153,-0.009L0.8953,-0.0121L0.8754,-0.0151L0.8554,-0.0181L0.8355,-0.021L0.8156,-0.0239L0.7956,-0.0267L0.7757,-0.0294L0.7557,-0.0321L0.7358,-0.0347L0.7159,-0.0371L0.6959,-0.0394L0.676,-0.0414L0.656,-0.0432L0.6361,-0.0449L0.6162,-0.0464L0.5962,-0.0478L0.5763,-0.049L0.5563,-0.0501L0.5364,-0.0512L0.5165,-0.0521L0.4965,-0.0529L0.4766,-0.0536L0.4566,-0.0542L0.4367,-0.0547L0.4168,-0.055L0.3769,-0.0555L0.337,-0.0556L0.3071,-0.0554L0.2772,-0.055L0.2473,-0.0543L0.2323,-0.0539L0.2174,-0.0534L0.2024,-0.0529L0.1874,-0.0522L0.1725,-0.0514L0.1575,-0.0504L0.1426,-0.0493L0.1276,-0.0481L0.1127,-0.0465L0.0977,-0.0446L0.0877,-0.043L0.0778,-0.0411L0.0678,-0.0389L0.0578,-0.0362L0.0518,-0.0344L0.0459,-0.0325L0.0399,-0.0304L0.0339,-0.028L0.0279,-0.0254L0.0219,-0.0225L0.016,-0.0191L0.01,-0.0149L0.007,-0.0124L0.0045,-0.0099L0.003,-0.008L0.002,-0.0065L0.0008,-0.0039L0.0002,-0.002L0,-0L0.0002,0.0015L0.0008,0.0029L0.002,0.0046L0.003,0.0054L0.0045,0.0064L0.007,0.0077L0.01,0.0089L0.016,0.0107L0.0219,0.0122L0.0279,0.0134L0.0339,0.0146L0.0399,0.0156L0.0459,0.0166L0.0518,0.0175L0.0578,0.0183L0.0678,0.0196L0.0778,0.0207L0.0877,0.0217L0.0977,0.0226L0.1127,0.0239L0.1276,0.0251L0.1426,0.0261L0.1575,0.0271L0.1725,0.028L0.1874,0.0289L0.2024,0.0296L0.2174,0.0303L0.2323,0.031L0.2473,0.0316L0.2772,0.0326L0.3071,0.0334L0.337,0.034L0.3769,0.0345L0.4168,0.0346L0.4367,0.0346L0.4566,0.0344L0.4766,0.0341L0.4965,0.0337L0.5165,0.0332L0.5364,0.0325L0.5563,0.0318L0.5763,0.0309L0.5962,0.03L0.6162,0.029L0.6361,0.0279L0.656,0.0267L0.676,0.0254L0.6959,0.0241L0.7159,0.0226L0.7358,0.0211L0.7557,0.0195L0.7757,0.0179L0.7956,0.0163L0.8156,0.0146L0.8355,0.013L0.8554,0.0113L0.8754,0.0096L0.8953,0.0079L0.9153,0.0061L0.9352,0.0043L0.9551,0.0026L0.9751,0.0013L0.9851,0.001L0.995,0.0009L1,0.0008"
    />
</svg>
