
<svg 
  class="airfoil-ssca07"
  fill="none"
  stroke="black" 
  stroke-width="1"
  style="overflow:visible"
  viewBox="0, -0.0432, 1, 0.0701"
  xmlns="http://www.w3.org/2000/svg">
    <title>SIKORSKY SSC-A07 AIRFOIL</title>
    <path 
      vector-effect="non-scaling-stroke"
      d="M1,-0.0019L0.995,-0.0017L0.9851,-0.0015L0.9751,-0.0018L0.9551,-0.003L0.9352,-0.0048L0.9153,-0.007L0.8953,-0.0094L0.8754,-0.0117L0.8554,-0.0141L0.8355,-0.0163L0.8156,-0.0186L0.7956,-0.0208L0.7757,-0.0229L0.7557,-0.025L0.7358,-0.027L0.7159,-0.0289L0.6959,-0.0306L0.676,-0.0322L0.656,-0.0336L0.6361,-0.0349L0.6162,-0.0361L0.5962,-0.0371L0.5763,-0.0381L0.5563,-0.039L0.5364,-0.0398L0.5165,-0.0405L0.4965,-0.0411L0.4766,-0.0417L0.4566,-0.0421L0.4367,-0.0425L0.4168,-0.0428L0.3769,-0.0432L0.337,-0.0432L0.3071,-0.0431L0.2772,-0.0427L0.2473,-0.0423L0.2323,-0.0419L0.2174,-0.0416L0.2024,-0.0411L0.1874,-0.0406L0.1725,-0.04L0.1575,-0.0392L0.1426,-0.0384L0.1276,-0.0374L0.1127,-0.0362L0.0977,-0.0347L0.0877,-0.0335L0.0778,-0.032L0.0678,-0.0303L0.0578,-0.0282L0.0518,-0.0268L0.0459,-0.0253L0.0399,-0.0236L0.0339,-0.0218L0.0279,-0.0198L0.0219,-0.0175L0.016,-0.0148L0.01,-0.0116L0.007,-0.0096L0.0045,-0.0077L0.003,-0.0062L0.002,-0.005L0.0008,-0.0031L0.0002,-0.0016L0,-0L0.0002,0.0011L0.0008,0.0022L0.002,0.0036L0.003,0.0042L0.0045,0.005L0.007,0.006L0.01,0.0069L0.016,0.0083L0.0219,0.0095L0.0279,0.0105L0.0339,0.0113L0.0399,0.0122L0.0459,0.0129L0.0518,0.0136L0.0578,0.0142L0.0678,0.0152L0.0778,0.0161L0.0877,0.0169L0.0977,0.0176L0.1127,0.0186L0.1276,0.0195L0.1426,0.0203L0.1575,0.0211L0.1725,0.0218L0.1874,0.0224L0.2024,0.023L0.2174,0.0236L0.2323,0.0241L0.2473,0.0246L0.2772,0.0254L0.3071,0.026L0.337,0.0265L0.3769,0.0268L0.4168,0.0269L0.4367,0.0269L0.4566,0.0267L0.4766,0.0265L0.4965,0.0262L0.5165,0.0258L0.5364,0.0253L0.5563,0.0247L0.5763,0.0241L0.5962,0.0233L0.6162,0.0226L0.6361,0.0217L0.656,0.0208L0.676,0.0198L0.6959,0.0187L0.7159,0.0176L0.7358,0.0164L0.7557,0.0152L0.7757,0.0139L0.7956,0.0127L0.8156,0.0114L0.8355,0.0101L0.8554,0.0088L0.8754,0.0075L0.8953,0.0061L0.9153,0.0047L0.9352,0.0033L0.9551,0.002L0.9751,0.001L0.9851,0.0008L0.995,0.0007L1,0.0006"
    />
</svg>
