
<svg 
  class="airfoil-stcyr171"
  fill="none"
  stroke="black" 
  stroke-width="1"
  style="overflow:visible"
  viewBox="0, -0.0554, 1, 0.1108"
  xmlns="http://www.w3.org/2000/svg">
    <title>St. CYR 171 (Royer)</title>
    <path 
      vector-effect="non-scaling-stroke"
      d="M1,-0L0.95,-0.0071L0.9,-0.0127L0.8,-0.0226L0.7,-0.0316L0.6,-0.041L0.5,-0.048L0.4,-0.0538L0.3,-0.0554L0.2,-0.0542L0.15,-0.0523L0.1,-0.048L0.075,-0.0438L0.05,-0.037L0.025,-0.0265L0.0125,-0.0195L0,-0L0.0125,0.0195L0.025,0.0263L0.05,0.037L0.075,0.0438L0.1,0.048L0.15,0.0523L0.2,0.0542L0.3,0.0554L0.4,0.0538L0.5,0.048L0.6,0.041L0.7,0.0316L0.8,0.0226L0.9,0.0127L0.95,0.0071L1,-0"
    />
</svg>
