
<svg 
  class="airfoil-stcyr24"
  fill="none"
  stroke="black" 
  stroke-width="1"
  style="overflow:visible"
  viewBox="0, -0.1355, 1, 0.1355"
  xmlns="http://www.w3.org/2000/svg">
    <title>St. CYR 24 (Bartel 35-IIIC)</title>
    <path 
      vector-effect="non-scaling-stroke"
      d="M1,-0L0.95,-0.017L0.9,-0.033L0.8,-0.0635L0.7,-0.0915L0.6,-0.1125L0.5,-0.126L0.4,-0.134L0.3,-0.1355L0.2,-0.1285L0.15,-0.121L0.1,-0.109L0.075,-0.099L0.05,-0.0865L0.025,-0.069L0.0125,-0.057L0,-0.0256L0.0125,-0.008L0.025,-0.0035L0.05,-0.001L0.075,-0.001L0.1,-0.002L0.15,-0.0035L0.2,-0.007L0.3,-0.012L0.4,-0.014L0.5,-0.0145L0.6,-0.014L0.7,-0.013L0.8,-0.01L0.9,-0.005L0.95,-0.003L1,-0"
    />
</svg>
