
<svg 
  class="airfoil-stcyr234"
  fill="none"
  stroke="black" 
  stroke-width="1"
  style="overflow:visible"
  viewBox="0, -0.1655, 1, 0.1655"
  xmlns="http://www.w3.org/2000/svg">
    <title>St. CYR 234 (Bartel 17-IC)</title>
    <path 
      vector-effect="non-scaling-stroke"
      d="M1,-0L0.95,-0.02L0.9,-0.04L0.8,-0.0775L0.7,-0.108L0.6,-0.133L0.5,-0.152L0.4,-0.161L0.3,-0.1655L0.2,-0.162L0.15,-0.157L0.1,-0.146L0.075,-0.138L0.05,-0.127L0.025,-0.11L0.0125,-0.0955L0,-0.0642L0.0125,-0.0375L0.025,-0.027L0.05,-0.014L0.075,-0.0085L0.1,-0.005L0.15,-0.0025L0.2,-0.002L0.3,-0.0065L0.4,-0.011L0.5,-0.0135L0.6,-0.019L0.7,-0.0135L0.8,-0.0105L0.9,-0.005L0.95,-0.0025L1,-0"
    />
</svg>
