
<svg 
  class="airfoil-stcyr172"
  fill="none"
  stroke="black" 
  stroke-width="1"
  style="overflow:visible"
  viewBox="0, -0.0678, 1, 0.1356"
  xmlns="http://www.w3.org/2000/svg">
    <title>St. CYR 172 (Royer)</title>
    <path 
      vector-effect="non-scaling-stroke"
      d="M1,-0L0.95,-0.0082L0.9,-0.0141L0.8,-0.0274L0.7,-0.0381L0.6,-0.048L0.5,-0.0562L0.4,-0.0627L0.3,-0.0678L0.2,-0.0672L0.15,-0.0635L0.1,-0.0565L0.075,-0.0503L0.05,-0.0418L0.025,-0.0311L0.0125,-0.0226L0,-0L0.0125,0.0226L0.025,0.0311L0.05,0.0418L0.075,0.0503L0.1,0.0565L0.15,0.0635L0.2,0.0672L0.3,0.0678L0.4,0.0627L0.5,0.0562L0.6,0.048L0.7,0.0381L0.8,0.0274L0.9,0.0141L0.95,0.0082L1,-0"
    />
</svg>
