
<svg 
  class="airfoil-ste87391"
  fill="none"
  stroke="black" 
  stroke-width="1"
  style="overflow:visible"
  viewBox="0, -0.1148, 1, 0.1506"
  xmlns="http://www.w3.org/2000/svg">
    <title>EPPLER STE 87(-3)-914 AIRFOIL</title>
    <path 
      vector-effect="non-scaling-stroke"
      d="M1,-0L0.9963,-0.0012L0.986,-0.0052L0.9701,-0.012L0.9498,-0.0212L0.926,-0.0318L0.8987,-0.0432L0.8682,-0.0549L0.8351,-0.0664L0.7997,-0.0767L0.7613,-0.0853L0.7198,-0.0928L0.6759,-0.0993L0.63,-0.1046L0.5826,-0.1089L0.5343,-0.112L0.4854,-0.114L0.4367,-0.1148L0.3884,-0.1145L0.3413,-0.1129L0.2958,-0.1102L0.2524,-0.1063L0.2115,-0.1013L0.1737,-0.0952L0.1394,-0.0879L0.1088,-0.0793L0.0817,-0.0693L0.0582,-0.0583L0.0383,-0.047L0.0224,-0.0356L0.0105,-0.0245L0.0029,-0.0144L0,-0.0059L0.0033,0.0011L0.0132,0.0077L0.0283,0.0144L0.0483,0.0207L0.0726,0.0264L0.101,0.0311L0.1333,0.0343L0.1699,0.0357L0.2108,0.0358L0.2556,0.0352L0.3034,0.034L0.3539,0.0322L0.4061,0.0301L0.4595,0.0277L0.5133,0.0249L0.5668,0.0218L0.6194,0.0183L0.6702,0.0139L0.7194,0.0081L0.768,0.0013L0.8155,-0.0045L0.8605,-0.0083L0.9014,-0.0099L0.9367,-0.0089L0.9647,-0.0063L0.9845,-0.0032L0.9962,-0.0009"
    />
</svg>
