
<svg 
  class="airfoil-ste87151"
  fill="none"
  stroke="black" 
  stroke-width="1"
  style="overflow:visible"
  viewBox="0.0005, -0.0956, 0.9995, 0.1394"
  xmlns="http://www.w3.org/2000/svg">
    <title>EPPLER STE 871-514 AIRFOIL</title>
    <path 
      vector-effect="non-scaling-stroke"
      d="M1,-0L0.9963,-0.001L0.9856,-0.0041L0.9693,-0.0097L0.9481,-0.0172L0.9228,-0.0259L0.8934,-0.0358L0.8609,-0.0467L0.8261,-0.0578L0.7901,-0.0676L0.7512,-0.0752L0.7093,-0.0814L0.6649,-0.0865L0.6185,-0.0901L0.5707,-0.0933L0.5218,-0.095L0.4726,-0.0956L0.4234,-0.0952L0.3749,-0.0936L0.3274,-0.0911L0.2815,-0.0876L0.2378,-0.0832L0.1966,-0.078L0.1584,-0.072L0.1236,-0.0653L0.0926,-0.0581L0.0657,-0.0505L0.0432,-0.0426L0.0256,-0.0344L0.013,-0.0256L0.0047,-0.0163L0.0005,-0.0074L0.0006,-0.0004L0.0068,0.005L0.0197,0.01L0.0383,0.0148L0.0621,0.0195L0.0907,0.0239L0.1239,0.028L0.1611,0.0317L0.202,0.0351L0.246,0.0379L0.2926,0.0403L0.3413,0.0421L0.3914,0.0432L0.4424,0.0438L0.4938,0.0436L0.5448,0.0426L0.5949,0.0407L0.6435,0.0377L0.6899,0.033L0.7349,0.0256L0.78,0.0168L0.8245,0.0088L0.8668,0.0029L0.9051,-0.0009L0.9382,-0.0026L0.9649,-0.0026L0.9844,-0.0016L0.9961,-0.0005"
    />
</svg>
