
<svg 
  class="airfoil-stf86361"
  fill="none"
  stroke="black" 
  stroke-width="1"
  style="overflow:visible"
  viewBox="0.0003, -0.1119, 0.9997, 0.1476"
  xmlns="http://www.w3.org/2000/svg">
    <title>EPPLER STF 863-615 AIRFOIL</title>
    <path 
      vector-effect="non-scaling-stroke"
      d="M1,-0L0.9964,-0.0012L0.9862,-0.005L0.9705,-0.0117L0.9506,-0.0205L0.9269,-0.0307L0.8996,-0.0415L0.8687,-0.0527L0.8349,-0.0645L0.7993,-0.0762L0.7623,-0.0863L0.7228,-0.0942L0.6809,-0.1003L0.6364,-0.1051L0.5904,-0.1086L0.5433,-0.1107L0.4955,-0.1119L0.4474,-0.1111L0.3997,-0.1094L0.3528,-0.1068L0.3071,-0.1025L0.2631,-0.0974L0.2213,-0.0914L0.1821,-0.0845L0.1459,-0.0769L0.113,-0.0687L0.0837,-0.06L0.0585,-0.0512L0.0374,-0.0423L0.0207,-0.0336L0.0087,-0.0255L0.0016,-0.0184L0.0003,-0.013L0.0037,-0.0085L0.0173,-0.0038L0.0344,0.0016L0.0566,0.0067L0.0836,0.0117L0.115,0.0165L0.1505,0.0209L0.1896,0.0249L0.2317,0.0285L0.2765,0.0314L0.3234,0.0337L0.3717,0.0351L0.421,0.0357L0.4707,0.0351L0.52,0.0332L0.5684,0.0291L0.6168,0.0217L0.6672,0.0122L0.7189,0.0034L0.7701,-0.0034L0.819,-0.0079L0.8642,-0.0102L0.9045,-0.0103L0.9386,-0.0087L0.9656,-0.0059L0.9848,-0.003L0.9962,-0.0008"
    />
</svg>
