
<svg 
  class="airfoil-strand"
  fill="none"
  stroke="black" 
  stroke-width="1"
  style="overflow:visible"
  viewBox="0, -0.1167, 1, 0.1566"
  xmlns="http://www.w3.org/2000/svg">
    <title>STRAND AIRFOIL</title>
    <path 
      vector-effect="non-scaling-stroke"
      d="M1,-0L0.954,-0.0031L0.8949,-0.0082L0.7901,-0.0203L0.6978,-0.0341L0.5981,-0.0524L0.5186,-0.069L0.4395,-0.0868L0.41,-0.0943L0.3805,-0.1018L0.3214,-0.116L0.2607,-0.1167L0.2003,-0.1093L0.1607,-0.1005L0.103,-0.0815L0.0488,-0.0541L0.0198,-0.032L0.0114,-0.0232L0.0044,-0.0133L0,-0L0.0048,0.0152L0.0106,0.0208L0.024,0.0237L0.0459,0.0273L0.1069,0.0366L0.1652,0.0399L0.209,0.0397L0.2632,0.0377L0.3193,0.0344L0.3972,0.0281L0.4171,0.0263L0.4374,0.0243L0.52,0.0164L0.6044,0.0089L0.6914,0.0027L0.78,-0.0023L0.8917,-0.0042L0.9579,-0.0026L1,-0"
    />
</svg>
