
<svg 
  class="airfoil-supermarine371ii"
  fill="none"
  stroke="black" 
  stroke-width="1"
  style="overflow:visible"
  viewBox="0, -0.0511, 1, 0.0836"
  xmlns="http://www.w3.org/2000/svg">
    <title>Supermarine 371-II (tip)</title>
    <path 
      vector-effect="non-scaling-stroke"
      d="M1,-0L0.95,-0.0044L0.9,-0.0101L0.85,-0.0168L0.8,-0.0236L0.75,-0.0305L0.7,-0.0372L0.65,-0.043L0.6,-0.0476L0.55,-0.0501L0.5,-0.0511L0.45,-0.051L0.4,-0.05L0.35,-0.0482L0.3,-0.0456L0.25,-0.0424L0.2,-0.0382L0.15,-0.0331L0.1,-0.0269L0.075,-0.023L0.05,-0.0185L0.025,-0.0127L0.01,-0.0079L0.005,-0.0055L0,-0L0.005,0.0046L0.01,0.0064L0.025,0.0098L0.05,0.0134L0.075,0.016L0.1,0.0183L0.15,0.0218L0.2,0.0248L0.25,0.0271L0.3,0.0291L0.35,0.0306L0.4,0.0318L0.45,0.0324L0.5,0.0325L0.55,0.0319L0.6,0.0304L0.65,0.0273L0.7,0.0232L0.75,0.0196L0.8,0.0142L0.85,0.0099L0.9,0.0058L0.95,0.0024L1,-0"
    />
</svg>
