
<svg 
  class="airfoil-supermarine371i"
  fill="none"
  stroke="black" 
  stroke-width="1"
  style="overflow:visible"
  viewBox="0, -0.0741, 1, 0.13"
  xmlns="http://www.w3.org/2000/svg">
    <title>Supermarine 371-I (root)</title>
    <path 
      vector-effect="non-scaling-stroke"
      d="M1,-0L0.95,-0.0064L0.9,-0.0142L0.85,-0.023L0.8,-0.0323L0.75,-0.0417L0.7,-0.0507L0.65,-0.0589L0.6,-0.0657L0.55,-0.0703L0.5,-0.0728L0.45,-0.074L0.4,-0.0741L0.35,-0.073L0.3,-0.0708L0.25,-0.0674L0.2,-0.0625L0.15,-0.0559L0.1,-0.0468L0.075,-0.041L0.05,-0.0337L0.025,-0.0238L0.01,-0.0149L0.005,-0.0105L0,-0L0.005,0.0097L0.01,0.0135L0.025,0.0207L0.05,0.0284L0.075,0.0349L0.1,0.038L0.15,0.0444L0.2,0.049L0.25,0.0522L0.3,0.0543L0.35,0.0556L0.4,0.0559L0.45,0.0555L0.5,0.0542L0.55,0.0519L0.6,0.0489L0.65,0.0431L0.7,0.0368L0.75,0.0299L0.8,0.0229L0.85,0.0161L0.9,0.0098L0.95,0.0044L1,-0"
    />
</svg>
