
<svg 
  class="airfoil-t16"
  fill="none"
  stroke="black" 
  stroke-width="1"
  style="overflow:visible"
  viewBox="0, -0.1052, 1.0029, 0.121700004"
  xmlns="http://www.w3.org/2000/svg">
    <title>Drela T16</title>
    <path 
      vector-effect="non-scaling-stroke"
      d="M1.0029,-0.0125L0.9942,-0.0146L0.9813,-0.0176L0.9643,-0.0215L0.9455,-0.0258L0.9262,-0.0302L0.9068,-0.0345L0.8874,-0.0388L0.868,-0.0431L0.8486,-0.0473L0.8293,-0.0514L0.81,-0.0554L0.7907,-0.0592L0.7714,-0.063L0.7521,-0.0666L0.7328,-0.0701L0.7135,-0.0735L0.6942,-0.0768L0.6749,-0.0798L0.6555,-0.0828L0.6362,-0.0856L0.6169,-0.0882L0.5975,-0.0907L0.5782,-0.093L0.5588,-0.0951L0.5395,-0.0971L0.5201,-0.0988L0.5008,-0.1004L0.4815,-0.1017L0.4622,-0.1029L0.4429,-0.1038L0.4236,-0.1045L0.4044,-0.105L0.3851,-0.1052L0.366,-0.1052L0.3468,-0.1049L0.3277,-0.1043L0.3087,-0.1034L0.2897,-0.1022L0.2708,-0.1008L0.2521,-0.099L0.2334,-0.0968L0.2148,-0.0943L0.1964,-0.0914L0.1782,-0.0881L0.1602,-0.0844L0.1425,-0.0803L0.1251,-0.0757L0.1081,-0.0706L0.0915,-0.0649L0.0756,-0.0588L0.0606,-0.0522L0.0466,-0.0451L0.0342,-0.0378L0.0239,-0.0307L0.0159,-0.0242L0.0101,-0.0185L0.006,-0.0137L0.0031,-0.0095L0.0012,-0.0058L0.0002,-0.0024L0,-0L0.0002,0.0024L0.0018,0.0055L0.0049,0.0073L0.0106,0.0073L0.0177,0.006L0.0251,0.0042L0.0338,0.002L0.0446,-0.0008L0.0578,-0.0043L0.0725,-0.0081L0.0883,-0.0122L0.1048,-0.0164L0.1217,-0.0206L0.1388,-0.0248L0.1559,-0.0289L0.1732,-0.0329L0.1906,-0.0368L0.2081,-0.0404L0.2257,-0.0439L0.2434,-0.0472L0.2612,-0.0503L0.2792,-0.0532L0.2974,-0.0559L0.3157,-0.0584L0.3341,-0.0607L0.3526,-0.0627L0.3713,-0.0644L0.39,-0.0658L0.4089,-0.067L0.4277,-0.0678L0.4466,-0.0682L0.4656,-0.0684L0.4846,-0.0681L0.5035,-0.0675L0.5225,-0.0666L0.5415,-0.0653L0.5605,-0.0638L0.5795,-0.062L0.5984,-0.0599L0.6174,-0.0576L0.6363,-0.0552L0.6552,-0.0525L0.6741,-0.0496L0.693,-0.0466L0.7118,-0.0434L0.7307,-0.0401L0.7496,-0.0367L0.7684,-0.0331L0.7873,-0.0294L0.8063,-0.0256L0.8253,-0.0217L0.8443,-0.0177L0.8634,-0.0136L0.8825,-0.0095L0.9016,-0.0053L0.9395,0.0033L0.9578,0.0075L0.9744,0.0114L0.9873,0.0145L0.9961,0.0165"
    />
</svg>
