
<svg 
  class="airfoil-tempest3"
  fill="none"
  stroke="black" 
  stroke-width="1"
  style="overflow:visible"
  viewBox="0, -0.0603, 1, 0.1"
  xmlns="http://www.w3.org/2000/svg">
    <title>HAWKER TEMPEST 96.77% SEMISPAN AIRFOIL</title>
    <path 
      vector-effect="non-scaling-stroke"
      d="M1,-0L0.9957,-0.0007L0.9846,-0.0025L0.9696,-0.005L0.9513,-0.0079L0.9313,-0.0111L0.9107,-0.0143L0.89,-0.0175L0.8691,-0.0205L0.8481,-0.0235L0.8272,-0.0264L0.8061,-0.0292L0.7851,-0.0319L0.7641,-0.0345L0.7431,-0.037L0.722,-0.0394L0.7011,-0.0417L0.6801,-0.0439L0.6591,-0.0459L0.6381,-0.0478L0.617,-0.0496L0.596,-0.0513L0.5749,-0.0529L0.5538,-0.0543L0.5327,-0.0556L0.5117,-0.0568L0.4907,-0.0578L0.4698,-0.0587L0.449,-0.0594L0.4282,-0.0599L0.4074,-0.0602L0.3866,-0.0603L0.3658,-0.0603L0.3451,-0.06L0.3243,-0.0596L0.3036,-0.0589L0.2829,-0.0581L0.2623,-0.0571L0.2418,-0.0558L0.2214,-0.0544L0.2012,-0.0527L0.1813,-0.0508L0.1615,-0.0486L0.1421,-0.046L0.123,-0.0432L0.1044,-0.0401L0.0867,-0.0367L0.0703,-0.0331L0.0555,-0.0294L0.0428,-0.0256L0.0324,-0.0221L0.0243,-0.0189L0.018,-0.0161L0.0132,-0.0136L0.0093,-0.0114L0.0063,-0.0093L0.004,-0.0074L0.0022,-0.0055L0.0009,-0.0037L0.0002,-0.002L0,-0.0004L0.0003,0.0012L0.0012,0.0029L0.0026,0.0046L0.0046,0.0062L0.0073,0.0079L0.0106,0.0097L0.0147,0.0115L0.02,0.0135L0.0267,0.0158L0.0353,0.0182L0.0461,0.0208L0.0594,0.0234L0.0748,0.0258L0.0919,0.028L0.1104,0.0299L0.1299,0.0316L0.1498,0.033L0.1701,0.0344L0.1907,0.0355L0.2113,0.0365L0.2321,0.0373L0.2531,0.038L0.2741,0.0385L0.2951,0.039L0.3162,0.0393L0.3373,0.0396L0.3585,0.0397L0.3796,0.0397L0.4007,0.0396L0.4219,0.0394L0.4431,0.039L0.4642,0.0386L0.4854,0.0381L0.5067,0.0375L0.528,0.0367L0.5493,0.0359L0.5706,0.0351L0.592,0.0341L0.6133,0.0331L0.6346,0.032L0.6559,0.0308L0.6772,0.0296L0.6985,0.0282L0.7197,0.0268L0.7409,0.0253L0.7621,0.0237L0.7833,0.022L0.8045,0.0203L0.8256,0.0184L0.8468,0.0165L0.8679,0.0145L0.889,0.0124L0.91,0.0102L0.9307,0.008L0.9509,0.0057L0.9693,0.0036L0.9844,0.0018L0.9957,0.0005L1,-0"
    />
</svg>
