
<svg 
  class="airfoil-tempest1"
  fill="none"
  stroke="black" 
  stroke-width="1"
  style="overflow:visible"
  viewBox="0, -0.0828, 1, 0.145"
  xmlns="http://www.w3.org/2000/svg">
    <title>HAWKER TEMPEST 37.5% SEMISPAN AIRFOIL</title>
    <path 
      vector-effect="non-scaling-stroke"
      d="M1,-0L0.9958,-0.001L0.9849,-0.0034L0.9701,-0.0068L0.9519,-0.0109L0.9318,-0.0153L0.9111,-0.0198L0.8901,-0.0241L0.8691,-0.0284L0.848,-0.0325L0.8269,-0.0365L0.8057,-0.0403L0.7845,-0.0441L0.7633,-0.0477L0.7422,-0.0511L0.721,-0.0544L0.6999,-0.0576L0.6787,-0.0605L0.6576,-0.0633L0.6364,-0.066L0.6153,-0.0684L0.594,-0.0707L0.5728,-0.0728L0.5516,-0.0748L0.5304,-0.0765L0.5092,-0.0781L0.4881,-0.0795L0.467,-0.0807L0.4461,-0.0816L0.4251,-0.0823L0.4042,-0.0827L0.3833,-0.0828L0.3624,-0.0827L0.3415,-0.0824L0.3206,-0.0817L0.2998,-0.0808L0.279,-0.0797L0.2583,-0.0782L0.2377,-0.0765L0.2172,-0.0745L0.197,-0.0721L0.177,-0.0695L0.1572,-0.0664L0.1377,-0.0629L0.1187,-0.059L0.1003,-0.0547L0.0829,-0.0501L0.0668,-0.0451L0.0525,-0.0399L0.0405,-0.0349L0.0308,-0.0301L0.0232,-0.0259L0.0173,-0.0221L0.0127,-0.0188L0.0091,-0.0157L0.0061,-0.0129L0.0039,-0.0102L0.0021,-0.0076L0.0009,-0.0051L0.0002,-0.0027L0,-0.0003L0.0003,0.002L0.0011,0.0044L0.0025,0.0068L0.0045,0.0093L0.007,0.0117L0.0102,0.0143L0.0142,0.017L0.0191,0.02L0.0254,0.0232L0.0334,0.0268L0.0436,0.0306L0.0561,0.0345L0.0709,0.0384L0.0876,0.0419L0.1058,0.0451L0.1251,0.048L0.145,0.0505L0.1654,0.0528L0.186,0.0547L0.2067,0.0564L0.2276,0.0578L0.2487,0.059L0.2698,0.06L0.291,0.0608L0.3122,0.0614L0.3335,0.0619L0.3548,0.0621L0.376,0.0622L0.3973,0.0621L0.4186,0.0618L0.4399,0.0613L0.4613,0.0606L0.4826,0.0598L0.504,0.0589L0.5254,0.0577L0.5469,0.0565L0.5684,0.0551L0.5899,0.0535L0.6114,0.0519L0.6329,0.0502L0.6544,0.0483L0.6758,0.0463L0.6972,0.0442L0.7186,0.0419L0.7399,0.0395L0.7613,0.037L0.7826,0.0343L0.804,0.0315L0.8254,0.0286L0.8467,0.0256L0.868,0.0224L0.8892,0.0191L0.9103,0.0157L0.9312,0.0122L0.9515,0.0087L0.9698,0.0054L0.9847,0.0028L0.9957,0.0008L1,-0"
    />
</svg>
