
<svg 
  class="airfoil-tempest2"
  fill="none"
  stroke="black" 
  stroke-width="1"
  style="overflow:visible"
  viewBox="0, -0.0693, 1, 0.120000005"
  xmlns="http://www.w3.org/2000/svg">
    <title>HAWKER TEMPEST 61% SEMISPAN AIRFOIL</title>
    <path 
      vector-effect="non-scaling-stroke"
      d="M1,-0L0.996,-0.0008L0.9847,-0.0029L0.9687,-0.0059L0.9498,-0.0095L0.9301,-0.0131L0.9103,-0.0167L0.8905,-0.0201L0.8706,-0.0235L0.8508,-0.0267L0.8309,-0.0299L0.8109,-0.0329L0.791,-0.0359L0.7711,-0.0388L0.7511,-0.0415L0.7312,-0.0442L0.7113,-0.0467L0.6914,-0.0492L0.6715,-0.0515L0.6516,-0.0536L0.6316,-0.0557L0.6117,-0.0576L0.5917,-0.0594L0.5717,-0.061L0.5518,-0.0626L0.5318,-0.064L0.5118,-0.0652L0.4919,-0.0663L0.472,-0.0673L0.4522,-0.0681L0.4323,-0.0687L0.4125,-0.0691L0.3927,-0.0693L0.3729,-0.0693L0.3531,-0.0691L0.3333,-0.0687L0.3135,-0.0682L0.2938,-0.0674L0.274,-0.0664L0.2543,-0.0652L0.2347,-0.0638L0.2152,-0.0621L0.1958,-0.0602L0.1765,-0.058L0.1574,-0.0555L0.1384,-0.0527L0.1197,-0.0495L0.1013,-0.0459L0.0834,-0.042L0.0664,-0.0375L0.0505,-0.0327L0.0366,-0.0276L0.0255,-0.0227L0.0174,-0.0185L0.0117,-0.015L0.0076,-0.012L0.0046,-0.0094L0.0025,-0.0069L0.001,-0.0046L0.0002,-0.0023L0,-0.0002L0.0005,0.002L0.0016,0.0043L0.0034,0.0065L0.006,0.0088L0.0095,0.0112L0.0142,0.0139L0.0208,0.0171L0.0301,0.0208L0.0425,0.0247L0.0575,0.0286L0.0741,0.032L0.092,0.035L0.1106,0.0375L0.1296,0.0397L0.149,0.0416L0.1686,0.0433L0.1883,0.0448L0.2081,0.0461L0.2279,0.0472L0.2478,0.0481L0.2677,0.0489L0.2877,0.0495L0.3077,0.05L0.3277,0.0504L0.3478,0.0506L0.3678,0.0507L0.3878,0.0506L0.4079,0.0505L0.4279,0.0502L0.448,0.0498L0.468,0.0492L0.4881,0.0486L0.5082,0.0478L0.5283,0.0469L0.5484,0.0459L0.5686,0.0449L0.5887,0.0437L0.6089,0.0425L0.629,0.0412L0.6492,0.0398L0.6693,0.0383L0.6893,0.0367L0.7094,0.035L0.7295,0.0332L0.7495,0.0313L0.7696,0.0294L0.7896,0.0273L0.8097,0.0251L0.8297,0.0229L0.8497,0.0205L0.8698,0.0181L0.8897,0.0156L0.9097,0.0129L0.9296,0.0102L0.9494,0.0074L0.9685,0.0046L0.9846,0.0023L0.996,0.0006L1,-0"
    />
</svg>
