
<svg 
  class="airfoil-th25816"
  fill="none"
  stroke="black" 
  stroke-width="1"
  style="overflow:visible"
  viewBox="0, -0.1684, 1, 0.2575"
  xmlns="http://www.w3.org/2000/svg">
    <title>TH 25816 HALE AIRFOIL</title>
    <path 
      vector-effect="non-scaling-stroke"
      d="M1,-0L0.9951,-0.0019L0.9819,-0.0083L0.9631,-0.0195L0.9409,-0.0342L0.9164,-0.0504L0.8893,-0.0665L0.859,-0.0816L0.8249,-0.0959L0.7875,-0.1098L0.7476,-0.1231L0.7059,-0.1356L0.6629,-0.1466L0.6189,-0.1556L0.5741,-0.1623L0.5287,-0.1666L0.4829,-0.1684L0.4369,-0.1676L0.391,-0.1647L0.3456,-0.1598L0.3014,-0.1531L0.2587,-0.1447L0.2179,-0.1348L0.1796,-0.1235L0.1442,-0.1111L0.1119,-0.0979L0.0832,-0.0839L0.0584,-0.0695L0.0378,-0.0549L0.0217,-0.0402L0.0101,-0.0255L0.0027,-0.0116L0,0.0007L0.0036,0.0108L0.0142,0.0197L0.031,0.0288L0.0533,0.0377L0.0804,0.0465L0.1121,0.0547L0.1479,0.0624L0.1873,0.0694L0.2298,0.0755L0.2749,0.0806L0.322,0.0847L0.3706,0.0876L0.4201,0.0891L0.4699,0.0891L0.5194,0.0871L0.5686,0.0831L0.6172,0.0771L0.6652,0.0693L0.7121,0.0601L0.7572,0.0499L0.8003,0.0386L0.8417,0.0265L0.8815,0.0147L0.9192,0.005L0.9527,-0.0005L0.9787,-0.0017L0.9947,-0.0007L1,-0"
    />
</svg>
