
<svg 
  class="airfoil-trainer60"
  fill="none"
  stroke="black" 
  stroke-width="1"
  style="overflow:visible"
  viewBox="0, -0.093, 1, 0.183"
  xmlns="http://www.w3.org/2000/svg">
    <title>TRAINER60</title>
    <path 
      vector-effect="non-scaling-stroke"
      d="M1,-0.0032L0.9975,-0.0057L0.9907,-0.01L0.9804,-0.0115L0.967,-0.0104L0.9504,-0.0103L0.9306,-0.0107L0.9078,-0.0125L0.882,-0.0166L0.8537,-0.0218L0.8231,-0.0271L0.7905,-0.0323L0.7562,-0.0376L0.7204,-0.043L0.6836,-0.0486L0.6459,-0.0545L0.6078,-0.0605L0.5694,-0.0666L0.531,-0.0722L0.4927,-0.0773L0.4543,-0.0818L0.4164,-0.0857L0.3789,-0.089L0.342,-0.0914L0.3061,-0.0928L0.2712,-0.093L0.2376,-0.092L0.2055,-0.0899L0.175,-0.087L0.1465,-0.0832L0.12,-0.0784L0.0958,-0.0724L0.074,-0.065L0.0547,-0.0569L0.0381,-0.0484L0.0243,-0.0399L0.0134,-0.031L0.0055,-0.0212L0.001,-0.0098L0,-0.0012L0.001,0.0071L0.0055,0.0174L0.0134,0.0267L0.0243,0.0356L0.0381,0.0443L0.0547,0.0528L0.074,0.0609L0.0958,0.0684L0.12,0.0748L0.1465,0.0798L0.175,0.0837L0.2055,0.0867L0.2376,0.0889L0.2712,0.09L0.3061,0.09L0.342,0.0888L0.3789,0.0867L0.4164,0.0837L0.4543,0.08L0.4927,0.0755L0.531,0.0703L0.5694,0.0646L0.6078,0.0589L0.6459,0.0534L0.6836,0.048L0.7204,0.0425L0.7562,0.037L0.7905,0.0319L0.8231,0.027L0.8537,0.0222L0.882,0.0175L0.9078,0.0132L0.9306,0.0106L0.9504,0.0111L0.967,0.0136L0.9804,0.0148L0.9907,0.0122L0.9975,0.0066L1,0.0035"
    />
</svg>
