
<svg 
  class="airfoil-tsagi12"
  fill="none"
  stroke="black" 
  stroke-width="1"
  style="overflow:visible"
  viewBox="0, -0.0794, 1, 0.12010001"
  xmlns="http://www.w3.org/2000/svg">
    <title>TsAGI 12% AIRFOIL</title>
    <path 
      vector-effect="non-scaling-stroke"
      d="M1,-0L0.95,-0.0073L0.9,-0.0147L0.8,-0.0294L0.7,-0.0443L0.6,-0.0581L0.5,-0.0698L0.4,-0.077L0.3,-0.0794L0.2,-0.0728L0.15,-0.0652L0.1,-0.0538L0.075,-0.0462L0.05,-0.0371L0.025,-0.0248L0.0125,-0.0167L0,-0L0.0125,0.0127L0.025,0.0178L0.05,0.0242L0.075,0.0277L0.1,0.0308L0.15,0.0347L0.2,0.037L0.3,0.0396L0.4,0.0407L0.5,0.0402L0.6,0.0384L0.7,0.0342L0.8,0.0275L0.9,0.0168L0.95,0.0097L1,-0"
    />
</svg>
