
<svg 
  class="airfoil-tsagi8"
  fill="none"
  stroke="black" 
  stroke-width="1"
  style="overflow:visible"
  viewBox="0, -0.0531, 1, 0.0803"
  xmlns="http://www.w3.org/2000/svg">
    <title>TsAGI 8% AIRFOIL</title>
    <path 
      vector-effect="non-scaling-stroke"
      d="M1,-0L0.95,-0.0049L0.9,-0.0098L0.8,-0.0196L0.7,-0.0295L0.6,-0.0388L0.5,-0.0467L0.4,-0.0518L0.3,-0.0531L0.2,-0.0486L0.15,-0.0435L0.1,-0.0359L0.075,-0.0308L0.05,-0.0247L0.025,-0.0166L0.0125,-0.0111L0,-0L0.0125,0.0085L0.025,0.0119L0.05,0.0161L0.075,0.0187L0.1,0.0205L0.15,0.0231L0.2,0.0247L0.3,0.0264L0.4,0.0272L0.5,0.0268L0.6,0.0256L0.7,0.0228L0.8,0.0183L0.9,0.0112L0.95,0.0065L1,-0"
    />
</svg>
