
<svg 
  class="airfoil-tsagi_r3a"
  fill="none"
  stroke="black" 
  stroke-width="1"
  style="overflow:visible"
  viewBox="0.0004, -0.0952, 0.9996, 0.120900005"
  xmlns="http://www.w3.org/2000/svg">
    <title>TsAGI R-3a (12%)</title>
    <path 
      vector-effect="non-scaling-stroke"
      d="M1,-0.002L0.9952,-0.0026L0.9874,-0.0037L0.9789,-0.0048L0.9698,-0.006L0.96,-0.0073L0.9499,-0.0086L0.9393,-0.01L0.9284,-0.0115L0.9174,-0.013L0.9062,-0.0145L0.8949,-0.016L0.8835,-0.0175L0.872,-0.0191L0.8606,-0.0206L0.8491,-0.0222L0.8376,-0.0237L0.8261,-0.0253L0.8146,-0.0269L0.803,-0.0285L0.7915,-0.03L0.78,-0.0316L0.7684,-0.0332L0.7569,-0.0348L0.7454,-0.0363L0.7338,-0.0379L0.7223,-0.0395L0.7108,-0.0411L0.6993,-0.0426L0.6877,-0.0442L0.6762,-0.0458L0.6647,-0.0474L0.6532,-0.0489L0.6416,-0.0505L0.6301,-0.0521L0.6186,-0.0536L0.607,-0.0552L0.5955,-0.0567L0.584,-0.0583L0.5725,-0.0598L0.561,-0.0614L0.5495,-0.0629L0.538,-0.0645L0.5266,-0.066L0.5152,-0.0675L0.5038,-0.069L0.4925,-0.0705L0.4812,-0.072L0.4701,-0.0735L0.4591,-0.075L0.448,-0.0763L0.4369,-0.0777L0.4257,-0.0791L0.4146,-0.0804L0.4036,-0.0818L0.3926,-0.0832L0.3817,-0.0846L0.3709,-0.086L0.3603,-0.0874L0.3499,-0.0886L0.3397,-0.0898L0.3296,-0.0909L0.3197,-0.0918L0.3099,-0.0927L0.3003,-0.0934L0.2906,-0.0939L0.2809,-0.0943L0.2711,-0.0946L0.2611,-0.0948L0.2511,-0.095L0.2411,-0.0951L0.2313,-0.0952L0.2215,-0.0951L0.212,-0.095L0.2026,-0.0948L0.1934,-0.0945L0.1846,-0.0942L0.1761,-0.0937L0.1678,-0.093L0.1597,-0.0922L0.1519,-0.0913L0.1442,-0.0901L0.1366,-0.0889L0.1291,-0.0874L0.1218,-0.0859L0.1147,-0.0843L0.1077,-0.0826L0.1011,-0.0808L0.0947,-0.0789L0.0885,-0.077L0.0827,-0.0751L0.0772,-0.073L0.0719,-0.0709L0.0669,-0.0687L0.0622,-0.0665L0.0577,-0.0643L0.0535,-0.062L0.0495,-0.0597L0.0457,-0.0574L0.0422,-0.0551L0.0388,-0.0528L0.0357,-0.0505L0.0327,-0.0483L0.03,-0.0462L0.0274,-0.0441L0.025,-0.0421L0.0228,-0.0401L0.0207,-0.0382L0.0188,-0.0363L0.017,-0.0344L0.0154,-0.0325L0.0139,-0.0307L0.0125,-0.0289L0.0112,-0.0272L0.01,-0.0255L0.0089,-0.0238L0.0078,-0.0222L0.0067,-0.0207L0.0058,-0.0192L0.0048,-0.0177L0.004,-0.0163L0.0033,-0.0149L0.0026,-0.0136L0.002,-0.0122L0.0016,-0.0109L0.0012,-0.0096L0.0008,-0.0083L0.0006,-0.007L0.0005,-0.0057L0.0004,-0.0044L0.0004,-0.0031L0.0004,-0.0019L0.0006,-0.0006L0.0008,0.0006L0.0011,0.0019L0.0015,0.0031L0.002,0.0043L0.0026,0.0054L0.0033,0.0065L0.0042,0.0075L0.0051,0.0084L0.0062,0.0093L0.0075,0.01L0.0088,0.0108L0.0103,0.0114L0.0119,0.0121L0.0136,0.0128L0.0153,0.0134L0.017,0.0141L0.0189,0.0147L0.0209,0.0153L0.0229,0.0159L0.0251,0.0164L0.0275,0.0169L0.03,0.0173L0.0328,0.0178L0.0357,0.0183L0.0388,0.0188L0.0422,0.0193L0.0458,0.0198L0.0497,0.0204L0.054,0.0209L0.0585,0.0214L0.0635,0.0219L0.0689,0.0224L0.0748,0.0229L0.0811,0.0233L0.0881,0.0236L0.0955,0.0239L0.1036,0.0242L0.1123,0.0245L0.1215,0.0247L0.1311,0.0249L0.1412,0.0251L0.1516,0.0252L0.1622,0.0253L0.1731,0.0254L0.1842,0.0255L0.1954,0.0256L0.2066,0.0256L0.2179,0.0257L0.2291,0.0257L0.2404,0.0257L0.2516,0.0257L0.2628,0.0256L0.2741,0.0255L0.2855,0.0254L0.297,0.0252L0.3085,0.0251L0.32,0.025L0.3315,0.0248L0.3431,0.0247L0.3546,0.0245L0.366,0.0244L0.3775,0.0242L0.3889,0.024L0.4003,0.0238L0.4117,0.0236L0.4231,0.0233L0.4345,0.023L0.4459,0.0228L0.4573,0.0225L0.4688,0.0221L0.4803,0.0218L0.4918,0.0215L0.5033,0.0211L0.5148,0.0207L0.5263,0.0204L0.5378,0.02L0.5494,0.0196L0.5609,0.0192L0.5724,0.0188L0.584,0.0184L0.5955,0.018L0.6071,0.0175L0.6186,0.0171L0.6301,0.0167L0.6417,0.0162L0.6533,0.0157L0.6648,0.0153L0.6764,0.0148L0.6879,0.0143L0.6995,0.0138L0.7111,0.0133L0.7227,0.0128L0.7342,0.0123L0.7458,0.0118L0.7574,0.0113L0.769,0.0108L0.7806,0.0103L0.7922,0.0098L0.8038,0.0092L0.8154,0.0087L0.827,0.0082L0.8386,0.0076L0.8502,0.0071L0.8618,0.0065L0.8733,0.006L0.8848,0.0054L0.8962,0.0049L0.9076,0.0044L0.9188,0.0038L0.9297,0.0033L0.9404,0.0028L0.9507,0.0023L0.9606,0.0019L0.9698,0.0014L0.9784,0.001L0.9862,0.0006L0.9911,0.0004"
    />
</svg>
