
<svg 
  class="airfoil-ua2-180sm"
  fill="none"
  stroke="black" 
  stroke-width="1"
  style="overflow:visible"
  viewBox="0.0007, -0.1604, 0.9993, 0.1837"
  xmlns="http://www.w3.org/2000/svg">
    <title>UA(2)-180 Smoothed</title>
    <desc># original ycoord oscillate +-0.0003</desc>
    <path 
      vector-effect="non-scaling-stroke"
      d="M1,-0L0.9927,-0.0019L0.9811,-0.005L0.9638,-0.0099L0.9411,-0.0162L0.9132,-0.0241L0.8805,-0.0336L0.8433,-0.0443L0.8021,-0.0561L0.7574,-0.0691L0.7096,-0.0832L0.6594,-0.0973L0.6073,-0.1111L0.5537,-0.125L0.5,-0.1389L0.4465,-0.1514L0.3932,-0.1588L0.341,-0.1604L0.2909,-0.1578L0.2431,-0.1519L0.1984,-0.143L0.1572,-0.1311L0.1199,-0.1162L0.0872,-0.0988L0.0593,-0.0799L0.0366,-0.0604L0.0192,-0.0412L0.0074,-0.0231L0.001,-0.007L0.0007,0.0052L0.0065,0.0119L0.0201,0.0154L0.0374,0.0178L0.0602,0.02L0.088,0.0215L0.1206,0.0227L0.1577,0.0232L0.1987,0.0233L0.2434,0.023L0.291,0.0223L0.3411,0.0213L0.393,0.0201L0.4462,0.0188L0.5,0.0173L0.5538,0.0157L0.6073,0.014L0.6594,0.0124L0.7096,0.0108L0.7574,0.0092L0.8021,0.0077L0.8433,0.0063L0.8805,0.0049L0.9132,0.0037L0.9411,0.0026L0.9638,0.0017L0.9811,0.0009L0.9927,0.0003L1,-0"
    />
</svg>
