
<svg 
  class="airfoil-ua2-180"
  fill="none"
  stroke="black" 
  stroke-width="1"
  style="overflow:visible"
  viewBox="0, -0.1604, 1, 0.1837"
  xmlns="http://www.w3.org/2000/svg">
    <title>UA(2)-180</title>
    <desc># University of Alberta/Marsden</desc>
    <path 
      vector-effect="non-scaling-stroke"
      d="M1,-0L0.9971,-0.0008L0.9883,-0.003L0.9738,-0.007L0.9538,-0.0129L0.9284,-0.0196L0.8981,-0.0286L0.863,-0.0386L0.8237,-0.0499L0.7806,-0.0623L0.7342,-0.0758L0.6851,-0.0906L0.6338,-0.104L0.5809,-0.1182L0.5271,-0.1316L0.4729,-0.1458L0.4191,-0.1559L0.3662,-0.1604L0.3149,-0.1593L0.2658,-0.1554L0.2194,-0.1473L0.1763,-0.1373L0.137,-0.1234L0.1019,-0.1074L0.0716,-0.0884L0.0462,-0.0694L0.0262,-0.0492L0.0117,-0.0309L0.0029,-0.0127L0,-0L0.0029,0.0098L0.0262,0.0164L0.0462,0.0187L0.0716,0.0207L0.1019,0.022L0.137,0.0231L0.1763,0.0232L0.2194,0.0233L0.2658,0.0226L0.3149,0.022L0.3662,0.0206L0.4191,0.0196L0.4729,0.0179L0.5271,0.0166L0.5809,0.0147L0.6338,0.0133L0.6851,0.0115L0.7342,0.0101L0.7806,0.0083L0.8237,0.0071L0.863,0.0054L0.8981,0.0044L0.9284,0.003L0.9538,0.0022L0.9738,0.0011L0.9883,0.0006L0.9971,-0L1,-0"
    />
</svg>
