
<svg 
  class="airfoil-ua79sff"
  fill="none"
  stroke="black" 
  stroke-width="1"
  style="overflow:visible"
  viewBox="0.65, -0.0644, 0.35000002, 0.0985"
  xmlns="http://www.w3.org/2000/svg">
    <title>UA 79-SF-187 AIRFOIL MAIN ELEMENT</title>
    <desc># UNIVERSITY OF ALBERTA</desc>
    <path 
      vector-effect="non-scaling-stroke"
      d="M1,-0L0.9969,-0.001L0.9875,-0.0037L0.9719,-0.0085L0.9505,-0.015L0.9234,-0.023L0.8909,-0.0333L0.8535,-0.045L0.8117,-0.0584L0.7958,-0.0618L0.7808,-0.0636L0.766,-0.0644L0.7476,-0.0634L0.7307,-0.0611L0.7169,-0.0578L0.6972,-0.0508L0.6823,-0.0424L0.6651,-0.0264L0.6548,-0.0072L0.65,0.0184L0.6548,0.0298L0.6651,0.0341L0.6823,0.0329L0.6972,0.0311L0.7169,0.0281L0.7307,0.0257L0.7476,0.0234L0.766,0.0208L0.7808,0.0183L0.7958,0.0165L0.8117,0.0137L0.8535,0.0079L0.8909,0.0033L0.9234,0.0003L0.9505,-0.0006L0.9719,-0.0009L0.9875,-0.0007L0.9969,-0.0003L1,-0"
    />
</svg>
