
<svg 
  class="airfoil-ua79sfm"
  fill="none"
  stroke="black" 
  stroke-width="1"
  style="overflow:visible"
  viewBox="0, -0.1299, 0.8117, 0.1883"
  xmlns="http://www.w3.org/2000/svg">
    <title>UA 79-SF-187 AIRFOIL MAIN ELEMENT</title>
    <desc># UNIVERSITY OF ALBERTA</desc>
    <path 
      vector-effect="non-scaling-stroke"
      d="M0.8117,-0.0603L0.8094,-0.0612L0.8023,-0.0639L0.7905,-0.0685L0.7742,-0.075L0.7536,-0.0829L0.729,-0.0924L0.7005,-0.1016L0.6686,-0.1105L0.6336,-0.1171L0.596,-0.1229L0.5561,-0.1265L0.5145,-0.1289L0.4715,-0.1299L0.4278,-0.1293L0.3839,-0.1274L0.3402,-0.1239L0.2973,-0.1191L0.2556,-0.1129L0.2158,-0.1055L0.1781,-0.0967L0.1431,-0.0868L0.1112,-0.076L0.0828,-0.0644L0.0581,-0.0524L0.0375,-0.04L0.0212,-0.0279L0.0095,-0.0158L0.0024,-0.0056L0,-0L0.0024,0.0034L0.0095,0.0089L0.0212,0.0147L0.0375,0.0205L0.0581,0.0263L0.0828,0.0318L0.1112,0.0371L0.1431,0.0419L0.1781,0.0462L0.2158,0.0499L0.2556,0.053L0.2973,0.0553L0.3402,0.0571L0.3839,0.0581L0.4278,0.0584L0.4715,0.0577L0.5145,0.0561L0.5561,0.0534L0.596,0.0495L0.6336,0.0424"
    />
</svg>
