
<svg 
  class="airfoil-uag8814320"
  fill="none"
  stroke="black" 
  stroke-width="1"
  style="overflow:visible"
  viewBox="0, -0.1334, 1, 0.1486"
  xmlns="http://www.w3.org/2000/svg">
    <title>UAG 88-143/20</title>
    <path 
      vector-effect="non-scaling-stroke"
      d="M1,-0L0.9989,-0.0005L0.9957,-0.002L0.9904,-0.004L0.983,-0.0066L0.9735,-0.0097L0.9619,-0.0133L0.9484,-0.0174L0.933,-0.0222L0.9157,-0.0276L0.8967,-0.0336L0.8759,-0.0404L0.8536,-0.0479L0.8297,-0.0565L0.8044,-0.0663L0.7778,-0.0768L0.75,-0.0872L0.7211,-0.0966L0.6913,-0.1048L0.6607,-0.1119L0.6294,-0.118L0.5975,-0.123L0.5653,-0.1271L0.5327,-0.1301L0.5,-0.1321L0.4673,-0.1332L0.4347,-0.1334L0.4024,-0.1327L0.3706,-0.1312L0.3393,-0.1289L0.3087,-0.1258L0.2789,-0.122L0.25,-0.1175L0.2222,-0.1123L0.1956,-0.1064L0.1703,-0.1L0.1464,-0.093L0.1241,-0.0856L0.1033,-0.0777L0.0843,-0.0696L0.067,-0.0613L0.0516,-0.0529L0.0381,-0.0445L0.0265,-0.0363L0.017,-0.0283L0.0096,-0.0205L0.0043,-0.0134L0.0011,-0.0079L0,-0L0.0011,0.0009L0.0043,0.004L0.0096,0.0069L0.017,0.0096L0.0265,0.0117L0.0381,0.0131L0.0516,0.0141L0.067,0.0147L0.0843,0.015L0.1033,0.0152L0.1241,0.0152L0.1464,0.0149L0.1703,0.0146L0.1956,0.0141L0.2222,0.0135L0.25,0.0129L0.2789,0.0124L0.3087,0.0119L0.3393,0.0113L0.3706,0.0108L0.4024,0.0102L0.4347,0.0097L0.4673,0.0091L0.5,0.0086L0.5327,0.008L0.5653,0.0074L0.5975,0.0068L0.6294,0.0063L0.6607,0.0057L0.6913,0.0052L0.7211,0.0047L0.75,0.0041L0.7778,0.0037L0.8044,0.0032L0.8297,0.0027L0.8536,0.0023L0.8759,0.0019L0.8967,0.0016L0.9157,0.0012L0.933,0.0009L0.9484,0.0007L0.9619,0.0004L0.9735,0.0002L0.983,0L0.9904,-0.0001L0.9957,-0.0001L0.9989,-0.0001L1,-0"
    />
</svg>
