
<svg 
  class="airfoil-ui1720"
  fill="none"
  stroke="black" 
  stroke-width="1"
  style="overflow:visible"
  viewBox="0, -0.1149, 1, 0.1436"
  xmlns="http://www.w3.org/2000/svg">
    <title>UI-1720 AIRFOIL</title>
    <desc>#  UNIVERSITY OF ILLINOIS</desc>
    <path 
      vector-effect="non-scaling-stroke"
      d="M1,-0.001L0.9967,-0.0027L0.9912,-0.0046L0.9833,-0.0068L0.973,-0.0088L0.9604,-0.0113L0.9455,-0.0139L0.9284,-0.0167L0.9091,-0.0198L0.8878,-0.0229L0.8645,-0.0263L0.8393,-0.0299L0.8125,-0.0337L0.784,-0.0377L0.7542,-0.0419L0.7231,-0.0463L0.6909,-0.0508L0.6578,-0.0554L0.624,-0.0601L0.5897,-0.0649L0.5551,-0.0697L0.5203,-0.0746L0.4856,-0.0796L0.4512,-0.0845L0.4174,-0.0893L0.3842,-0.0939L0.3519,-0.0984L0.3207,-0.1026L0.2909,-0.1064L0.2627,-0.1098L0.2363,-0.1125L0.212,-0.1144L0.1901,-0.1149L0.1698,-0.113L0.1502,-0.1091L0.1315,-0.1043L0.1137,-0.0985L0.097,-0.0918L0.0814,-0.0843L0.067,-0.0764L0.0539,-0.068L0.042,-0.0595L0.0315,-0.0507L0.0225,-0.0416L0.0149,-0.0327L0.0088,-0.0244L0.0043,-0.0163L0.0013,-0.0088L0,-0L0.0006,0.0048L0.0037,0.0101L0.0093,0.0151L0.0169,0.0196L0.0262,0.0234L0.0371,0.0263L0.0503,0.028L0.0661,0.0287L0.0843,0.0287L0.1048,0.0282L0.1274,0.0273L0.1521,0.0259L0.1788,0.0241L0.2074,0.022L0.2376,0.0196L0.2693,0.017L0.3025,0.0143L0.3369,0.0116L0.3723,0.0088L0.4086,0.0061L0.4455,0.0035L0.4828,0.0011L0.5203,-0.0011L0.5578,-0.0031L0.5952,-0.0048L0.632,-0.0063L0.6682,-0.0074L0.7035,-0.0082L0.7376,-0.0087L0.7705,-0.0087L0.8018,-0.0086L0.8314,-0.0082L0.8591,-0.0076L0.8847,-0.0068L0.908,-0.0058L0.929,-0.0047L0.9474,-0.0036L0.9632,-0.0025L0.9763,-0.0016L0.9865,-0.001L0.9941,-0.0006L0.9992,-0.0003"
    />
</svg>
