
<svg 
  class="airfoil-ultimate"
  fill="none"
  stroke="black" 
  stroke-width="1"
  style="overflow:visible"
  viewBox="0, -0.0637, 1, 0.1285"
  xmlns="http://www.w3.org/2000/svg">
    <title>ULTIMATE</title>
    <path 
      vector-effect="non-scaling-stroke"
      d="M1,-0.0029L0.9975,-0.0029L0.9907,-0.0031L0.9804,-0.004L0.967,-0.0058L0.9504,-0.0083L0.9306,-0.0111L0.9078,-0.014L0.882,-0.017L0.8537,-0.0204L0.8231,-0.0246L0.7905,-0.029L0.7562,-0.0334L0.7204,-0.0376L0.6836,-0.0415L0.6459,-0.0452L0.6078,-0.0488L0.5694,-0.0522L0.531,-0.0552L0.4927,-0.0579L0.4543,-0.0601L0.4164,-0.0619L0.3789,-0.0632L0.342,-0.0637L0.3061,-0.0635L0.2712,-0.0624L0.2376,-0.0606L0.2055,-0.0581L0.175,-0.055L0.1465,-0.0515L0.12,-0.0474L0.0958,-0.0428L0.074,-0.0377L0.0547,-0.0323L0.0381,-0.0269L0.0243,-0.0215L0.0134,-0.0162L0.0055,-0.0107L0.001,-0.0049L0,-0.0005L0.001,0.0039L0.0055,0.0099L0.0134,0.0158L0.0243,0.0215L0.0381,0.0273L0.0547,0.033L0.074,0.0386L0.0958,0.0438L0.12,0.0486L0.1465,0.0528L0.175,0.0565L0.2055,0.0596L0.2376,0.062L0.2712,0.0637L0.3061,0.0646L0.342,0.0648L0.3789,0.0642L0.4164,0.0632L0.4543,0.0619L0.4927,0.0601L0.531,0.058L0.5694,0.0553L0.6078,0.0522L0.6459,0.0487L0.6836,0.0449L0.7204,0.0409L0.7562,0.037L0.7905,0.0331L0.8231,0.0293L0.8537,0.0255L0.882,0.022L0.9078,0.019L0.9306,0.0166L0.9504,0.0147L0.967,0.0127L0.9804,0.0102L0.9907,0.0071L0.9975,0.0042L1,0.0029"
    />
</svg>
