
<svg 
  class="airfoil-us1000root"
  fill="none"
  stroke="black" 
  stroke-width="1"
  style="overflow:visible"
  viewBox="0, -0.0928, 1, 0.1856"
  xmlns="http://www.w3.org/2000/svg">
    <title>US1000ROOT</title>
    <path 
      vector-effect="non-scaling-stroke"
      d="M1,-0L0.9975,-0.0009L0.9907,-0.0031L0.9804,-0.0057L0.967,-0.0082L0.9504,-0.0106L0.9306,-0.0129L0.9078,-0.0156L0.882,-0.019L0.8537,-0.0232L0.8231,-0.0282L0.7905,-0.0339L0.7562,-0.0399L0.7204,-0.0461L0.6836,-0.052L0.6459,-0.0579L0.6078,-0.0635L0.5694,-0.0687L0.531,-0.0736L0.4927,-0.0781L0.4543,-0.0822L0.4164,-0.0857L0.3789,-0.0887L0.342,-0.091L0.3061,-0.0924L0.2712,-0.0928L0.2376,-0.0922L0.2055,-0.0904L0.175,-0.0871L0.1465,-0.0822L0.12,-0.0759L0.0958,-0.0684L0.074,-0.0599L0.0547,-0.0501L0.0381,-0.0392L0.0243,-0.0287L0.0134,-0.0195L0.0055,-0.0109L0.001,-0.0034L0,-0.0013L0.001,0.0034L0.0055,0.0109L0.0134,0.0195L0.0243,0.0287L0.0381,0.0392L0.0547,0.0501L0.074,0.0599L0.0958,0.0684L0.12,0.0759L0.1465,0.0822L0.175,0.0871L0.2055,0.0904L0.2376,0.0922L0.2712,0.0928L0.3061,0.0924L0.342,0.091L0.3789,0.0887L0.4164,0.0857L0.4543,0.0822L0.4927,0.0781L0.531,0.0736L0.5694,0.0687L0.6078,0.0635L0.6459,0.0579L0.6836,0.052L0.7204,0.0461L0.7562,0.0399L0.7905,0.0339L0.8231,0.0282L0.8537,0.0232L0.882,0.019L0.9078,0.0156L0.9306,0.0129L0.9504,0.0106L0.967,0.0082L0.9804,0.0057L0.9907,0.0031L0.9975,0.0009L1,0"
    />
</svg>
