
<svg 
  class="airfoil-usa22"
  fill="none"
  stroke="black" 
  stroke-width="1"
  style="overflow:visible"
  viewBox="0, -0.0873, 1, 0.1009"
  xmlns="http://www.w3.org/2000/svg">
    <title>USA 22 AIRFOIL</title>
    <path 
      vector-effect="non-scaling-stroke"
      d="M1,-0.0005L0.9499,-0.0098L0.8997,-0.0181L0.7995,-0.0346L0.6993,-0.0491L0.5991,-0.0627L0.4989,-0.0742L0.3988,-0.0828L0.2987,-0.0873L0.1988,-0.0829L0.1489,-0.0762L0.0991,-0.0644L0.0742,-0.0553L0.0494,-0.0437L0.0246,-0.0274L0.0122,-0.0172L0,-0L0.0126,0.0083L0.0252,0.0111L0.0502,0.0128L0.0752,0.0134L0.1002,0.0136L0.1502,0.0113L0.2001,0.0081L0.3,-0.0009L0.3999,-0.0058L0.4999,-0.0052L0.5999,-0.0047L0.6999,-0.0041L0.8,-0.0026L0.9,-0.001L0.95,0L1,0.0005"
    />
</svg>
