
<svg 
  class="airfoil-usa28"
  fill="none"
  stroke="black" 
  stroke-width="1"
  style="overflow:visible"
  viewBox="0, -0.096, 1, 0.1376"
  xmlns="http://www.w3.org/2000/svg">
    <title>USA 28 AIRFOIL</title>
    <path 
      vector-effect="non-scaling-stroke"
      d="M1,-0L0.9498,-0.0175L0.8997,-0.029L0.7995,-0.049L0.6993,-0.0676L0.5992,-0.0816L0.4991,-0.0926L0.3991,-0.096L0.2991,-0.0954L0.1992,-0.0844L0.1493,-0.0744L0.0994,-0.0605L0.0745,-0.0514L0.0496,-0.0405L0.0247,-0.0263L0.0123,-0.0173L0,-0L0.0127,0.0172L0.0252,0.0234L0.0503,0.0306L0.0754,0.0356L0.1004,0.0394L0.1504,0.0416L0.2004,0.0416L0.3004,0.0362L0.4002,0.025L0.5002,0.0175L0.6001,0.0144L0.7001,0.0118L0.8001,0.0095L0.9001,0.0085L0.95,0.0055L1,-0"
    />
</svg>
