
<svg 
  class="airfoil-usa26"
  fill="none"
  stroke="black" 
  stroke-width="1"
  style="overflow:visible"
  viewBox="0, -0.0914, 1, 0.107999995"
  xmlns="http://www.w3.org/2000/svg">
    <title>USA 26 AIRFOIL</title>
    <path 
      vector-effect="non-scaling-stroke"
      d="M1,-0L0.9499,-0.0132L0.8997,-0.0252L0.7995,-0.0444L0.6993,-0.06L0.5992,-0.0722L0.4991,-0.0811L0.399,-0.0884L0.299,-0.0914L0.199,-0.0862L0.1491,-0.0774L0.0993,-0.0651L0.0744,-0.0564L0.0495,-0.0445L0.0247,-0.0291L0.0123,-0.0181L0,-0L0.0126,0.0126L0.0252,0.0151L0.0502,0.0159L0.0752,0.016L0.1002,0.0166L0.1502,0.015L0.2001,0.012L0.3,0.0049L0.4,0.0016L0.5001,0.0042L0.6001,0.0086L0.7001,0.009L0.8001,0.0084L0.9001,0.0063L0.95,0.0033L1,-0"
    />
</svg>
