
<svg 
  class="airfoil-usa27"
  fill="none"
  stroke="black" 
  stroke-width="1"
  style="overflow:visible"
  viewBox="0, -0.1057, 1, 0.1221"
  xmlns="http://www.w3.org/2000/svg">
    <title>USA 27 AIRFOIL</title>
    <path 
      vector-effect="non-scaling-stroke"
      d="M1,-0.0002L0.95,-0.0159L0.9,-0.0294L0.8,-0.0523L0.7,-0.0711L0.6,-0.085L0.5,-0.0969L0.4,-0.1038L0.3,-0.1057L0.2,-0.0985L0.15,-0.089L0.1,-0.0754L0.075,-0.0651L0.05,-0.0519L0.025,-0.0326L0.0125,-0.0204L0,-0L0.0125,0.0126L0.025,0.0138L0.05,0.0152L0.075,0.0159L0.1,0.0164L0.15,0.015L0.2,0.0119L0.3,0.005L0.4,0.0018L0.5,0.0046L0.6,0.0082L0.7,0.0093L0.8,0.0086L0.9,0.0064L0.95,0.0038L1,-0"
    />
</svg>
