
<svg 
  class="airfoil-usa25"
  fill="none"
  stroke="black" 
  stroke-width="1"
  style="overflow:visible"
  viewBox="0, -0.0934, 1, 0.1087"
  xmlns="http://www.w3.org/2000/svg">
    <title>USA 25 AIRFOIL</title>
    <path 
      vector-effect="non-scaling-stroke"
      d="M1,-0L0.9499,-0.0138L0.8997,-0.0259L0.7995,-0.0447L0.6994,-0.0603L0.5992,-0.0724L0.4991,-0.0815L0.3991,-0.0887L0.299,-0.0934L0.1991,-0.0863L0.1492,-0.0778L0.0993,-0.0653L0.0744,-0.0559L0.0495,-0.0445L0.0247,-0.0293L0.0123,-0.0178L0,-0L0.0126,0.0122L0.0251,0.0138L0.0502,0.0153L0.0751,0.0135L0.1001,0.0105L0.15,0.0032L0.2,-0.0036L0.2999,-0.0114L0.3999,-0.0097L0.5,-0.0042L0.6,0.0026L0.7001,0.0071L0.8001,0.0073L0.9,0.0043L0.95,0.0019L1,-0"
    />
</svg>
