
<svg 
  class="airfoil-usa29"
  fill="none"
  stroke="black" 
  stroke-width="1"
  style="overflow:visible"
  viewBox="0, -0.1152, 1, 0.1457"
  xmlns="http://www.w3.org/2000/svg">
    <title>USA 29 AIRFOIL</title>
    <path 
      vector-effect="non-scaling-stroke"
      d="M1,-0L0.9496,-0.0142L0.8992,-0.0286L0.7985,-0.0544L0.6979,-0.0768L0.5974,-0.0938L0.497,-0.1075L0.3968,-0.1152L0.2968,-0.1141L0.1972,-0.1003L0.1476,-0.0875L0.0981,-0.0695L0.0734,-0.058L0.0488,-0.0441L0.0242,-0.0275L0.012,-0.0178L0,-0L0.013,0.0166L0.0256,0.0225L0.0507,0.0269L0.0758,0.0299L0.1008,0.0305L0.1508,0.0303L0.2008,0.0274L0.3005,0.0175L0.4001,0.0042L0.5001,0.0026L0.6001,0.0049L0.7003,0.0097L0.8003,0.0116L0.9003,0.0091L0.9502,0.0063L1,-0"
    />
</svg>
