
<svg 
  class="airfoil-usa27m2"
  fill="none"
  stroke="black" 
  stroke-width="1"
  style="overflow:visible"
  viewBox="0, -0.1168, 1, 0.1424"
  xmlns="http://www.w3.org/2000/svg">
    <title>USA 27 mod. AIRFOIL</title>
    <path 
      vector-effect="non-scaling-stroke"
      d="M1,-0.0002L0.95,-0.0179L0.9,-0.033L0.8,-0.0584L0.7,-0.0792L0.6,-0.0944L0.5,-0.1071L0.4,-0.1144L0.3,-0.1168L0.2,-0.1096L0.15,-0.0994L0.1,-0.0846L0.075,-0.0733L0.05,-0.0586L0.025,-0.0372L0.0125,-0.0237L0,-0.0008L0.0125,0.0159L0.025,0.0185L0.05,0.022L0.075,0.024L0.1,0.0256L0.15,0.0254L0.2,0.0229L0.3,0.0161L0.4,0.0124L0.5,0.0148L0.6,0.0175L0.7,0.0173L0.8,0.0147L0.9,0.01L0.95,0.0057L1,0"
    />
</svg>
