
<svg 
  class="airfoil-usa33"
  fill="none"
  stroke="black" 
  stroke-width="1"
  style="overflow:visible"
  viewBox="0, -0.1196, 1, 0.1557"
  xmlns="http://www.w3.org/2000/svg">
    <title>USA 33 AIRFOIL</title>
    <path 
      vector-effect="non-scaling-stroke"
      d="M1,-0L0.9498,-0.0124L0.8997,-0.0238L0.7995,-0.0446L0.6992,-0.0664L0.599,-0.0862L0.4988,-0.103L0.3986,-0.1158L0.2986,-0.1196L0.1986,-0.1144L0.1487,-0.1058L0.0989,-0.0922L0.074,-0.0814L0.0492,-0.0676L0.0244,-0.0513L0.0121,-0.0361L0,-0L0.0128,0.0238L0.0254,0.0307L0.0504,0.0344L0.0754,0.0361L0.1004,0.0358L0.1504,0.0312L0.2003,0.0256L0.3003,0.0224L0.4003,0.0242L0.5003,0.027L0.6004,0.0288L0.7003,0.0276L0.8003,0.0214L0.9002,0.0122L0.9501,0.0066L1,-0"
    />
</svg>
