
<svg 
  class="airfoil-usa35b"
  fill="none"
  stroke="black" 
  stroke-width="1"
  style="overflow:visible"
  viewBox="0, -0.09, 1, 0.1176"
  xmlns="http://www.w3.org/2000/svg">
    <title>USA-35B AIRFOIL</title>
    <path 
      vector-effect="non-scaling-stroke"
      d="M1,0.0251L0.95,0.0126L0.9,0.0004L0.8,-0.0226L0.7,-0.0432L0.6,-0.0605L0.5,-0.0757L0.4,-0.0866L0.3,-0.09L0.2,-0.0852L0.15,-0.078L0.1,-0.0669L0.075,-0.0589L0.05,-0.0476L0.025,-0.0335L0.0125,-0.0239L0,-0L0.0125,0.0173L0.025,0.0213L0.05,0.0248L0.075,0.0262L0.1,0.0269L0.15,0.0276L0.2,0.027L0.3,0.0261L0.4,0.025L0.5,0.0237L0.6,0.0231L0.7,0.0234L0.8,0.0241L0.9,0.0256L0.95,0.0264L1,0.0276"
    />
</svg>
