
<svg 
  class="airfoil-usa34"
  fill="none"
  stroke="black" 
  stroke-width="1"
  style="overflow:visible"
  viewBox="0, -0.1637, 1, 0.19749999"
  xmlns="http://www.w3.org/2000/svg">
    <title>USA 34 AIRFOIL</title>
    <path 
      vector-effect="non-scaling-stroke"
      d="M1,-0L0.9492,-0.0244L0.8986,-0.0438L0.7975,-0.0785L0.6964,-0.1103L0.5956,-0.1371L0.495,-0.1539L0.3947,-0.1637L0.2947,-0.1625L0.1952,-0.1463L0.1457,-0.1317L0.0963,-0.1121L0.0718,-0.0983L0.0472,-0.0825L0.023,-0.0597L0.011,-0.0433L0,-0L0.0129,0.0146L0.0256,0.0212L0.0509,0.0304L0.0759,0.0331L0.101,0.0338L0.1509,0.0312L0.2008,0.0276L0.3005,0.0174L0.4002,0.0092L0.5001,0.005L0.6,0.0028L0.7,0.0026L0.8001,0.0034L0.9001,0.0042L0.9501,0.0046L1,-0"
    />
</svg>
