
<svg 
  class="airfoil-usa35a"
  fill="none"
  stroke="black" 
  stroke-width="1"
  style="overflow:visible"
  viewBox="0, -0.1531, 1, 0.1911"
  xmlns="http://www.w3.org/2000/svg">
    <title>USA 35 A AIRFOIL</title>
    <path 
      vector-effect="non-scaling-stroke"
      d="M1,-0.0022L0.9492,-0.0197L0.8985,-0.037L0.7972,-0.0683L0.696,-0.0965L0.595,-0.1203L0.4943,-0.1386L0.3938,-0.1515L0.2937,-0.1531L0.1942,-0.1419L0.1447,-0.1286L0.0955,-0.1094L0.0711,-0.0954L0.0468,-0.0769L0.0228,-0.0534L0.0109,-0.038L0,-0L0.0136,0.0265L0.0263,0.0326L0.0515,0.037L0.0766,0.038L0.1016,0.038L0.1515,0.0371L0.2014,0.0342L0.3012,0.0284L0.4009,0.0224L0.5007,0.0162L0.6005,0.0121L0.7003,0.008L0.8002,0.0045L0.9001,0.0031L0.9501,0.0023L1,0.0022"
    />
</svg>
