
<svg 
  class="airfoil-usa32"
  fill="none"
  stroke="black" 
  stroke-width="1"
  style="overflow:visible"
  viewBox="0, -0.1594, 1, 0.1736"
  xmlns="http://www.w3.org/2000/svg">
    <title>USA 32 AIRFOIL</title>
    <path 
      vector-effect="non-scaling-stroke"
      d="M1,-0L0.9497,-0.0255L0.8995,-0.0469L0.7991,-0.0848L0.6987,-0.1147L0.5985,-0.1346L0.4983,-0.1515L0.3983,-0.1594L0.2983,-0.1583L0.1984,-0.1442L0.1486,-0.1296L0.0988,-0.1101L0.0739,-0.0968L0.0491,-0.0805L0.0244,-0.0573L0.0121,-0.0391L0,-0L0.0126,0.0099L0.0251,0.0117L0.0501,0.0135L0.0752,0.0142L0.1001,0.0139L0.1501,0.0104L0.2,0.0028L0.2998,-0.0143L0.3997,-0.0274L0.4997,-0.0245L0.5998,-0.0176L0.6999,-0.0057L0.8,0.0032L0.9001,0.0051L0.95,0.0036L1,-0"
    />
</svg>
