
<svg 
  class="airfoil-usa31"
  fill="none"
  stroke="black" 
  stroke-width="1"
  style="overflow:visible"
  viewBox="0, -0.1562, 1, 0.17490001"
  xmlns="http://www.w3.org/2000/svg">
    <title>USA 31 AIRFOIL</title>
    <path 
      vector-effect="non-scaling-stroke"
      d="M1,-0L0.9496,-0.0211L0.8992,-0.0452L0.7985,-0.0834L0.698,-0.1126L0.5976,-0.1338L0.4973,-0.149L0.3971,-0.1562L0.2972,-0.1544L0.1974,-0.1396L0.1477,-0.1257L0.098,-0.1058L0.0733,-0.0923L0.0486,-0.0759L0.024,-0.0514L0.0118,-0.0342L0,-0L0.0127,0.0148L0.0252,0.0166L0.0503,0.0181L0.0753,0.0187L0.1002,0.0182L0.1501,0.0144L0.2006,0.0085L0.2999,-0.0123L0.3994,-0.0312L0.4994,-0.03L0.5995,-0.0248L0.6997,-0.0176L0.7998,-0.0094L0.9,-0.0022L0.95,0.0009L1,-0"
    />
</svg>
