
<svg 
  class="airfoil-usa41"
  fill="none"
  stroke="black" 
  stroke-width="1"
  style="overflow:visible"
  viewBox="0, -0.0765, 1, 0.085999995"
  xmlns="http://www.w3.org/2000/svg">
    <title>USA 41 AIRFOIL</title>
    <path 
      vector-effect="non-scaling-stroke"
      d="M1,-0L0.95,-0.0101L0.9,-0.0186L0.8001,-0.0353L0.7001,-0.0495L0.6001,-0.0609L0.5001,-0.0695L0.4001,-0.0754L0.3001,-0.0765L0.2001,-0.0704L0.1501,-0.0631L0.1001,-0.0518L0.0751,-0.0442L0.0501,-0.0352L0.025,-0.0233L0.0125,-0.0156L0,-0L0.0125,0.0083L0.025,0.009L0.05,0.0095L0.075,0.0088L0.1,0.0072L0.15,0.0019L0.2,-0.0047L0.3,-0.0105L0.4,-0.0144L0.5,-0.0171L0.6,-0.0186L0.7,-0.0168L0.8,-0.0123L0.9,-0.0056L0.95,-0.0018L1,-0"
    />
</svg>
