
<svg 
  class="airfoil-usa48"
  fill="none"
  stroke="black" 
  stroke-width="1"
  style="overflow:visible"
  viewBox="0, -0.1015, 1, 0.1495"
  xmlns="http://www.w3.org/2000/svg">
    <title>USA 48 AIRFOIL</title>
    <path 
      vector-effect="non-scaling-stroke"
      d="M1,-0L0.95,-0.016L0.9,-0.0287L0.8,-0.0507L0.7,-0.0683L0.6,-0.0836L0.5,-0.0948L0.4,-0.1015L0.3,-0.101L0.2,-0.0922L0.15,-0.0828L0.1,-0.069L0.075,-0.061L0.05,-0.048L0.025,-0.032L0.0125,-0.022L0,-0L0.0125,0.014L0.025,0.02L0.05,0.027L0.075,0.0343L0.1,0.0383L0.15,0.0453L0.2,0.048L0.3,0.048L0.4,0.044L0.5,0.039L0.6,0.032L0.7,0.0197L0.8,0.011L0.9,0.0057L0.95,0.0027L1,-0"
    />
</svg>
