
<svg 
  class="airfoil-usa49"
  fill="none"
  stroke="black" 
  stroke-width="1"
  style="overflow:visible"
  viewBox="0, -0.0535, 1, 0.0725"
  xmlns="http://www.w3.org/2000/svg">
    <title>USA 49 AIRFOIL</title>
    <path 
      vector-effect="non-scaling-stroke"
      d="M1,-0.0035L0.95,-0.009L0.9,-0.015L0.8,-0.026L0.7,-0.035L0.6,-0.0424L0.5,-0.0483L0.4,-0.0527L0.3,-0.0535L0.2,-0.05L0.15,-0.0457L0.1,-0.0386L0.075,-0.033L0.05,-0.0267L0.025,-0.02L0.0125,-0.014L0,-0L0.0125,0.0065L0.025,0.0097L0.05,0.014L0.075,0.0163L0.1,0.0173L0.15,0.0183L0.2,0.019L0.3,0.019L0.4,0.018L0.5,0.0167L0.6,0.0143L0.7,0.011L0.8,0.0077L0.9,0.003L0.95,0.001L1,-0.0012"
    />
</svg>
