
<svg 
  class="airfoil-usa40b"
  fill="none"
  stroke="black" 
  stroke-width="1"
  style="overflow:visible"
  viewBox="0, -0.1058, 1, 0.1385"
  xmlns="http://www.w3.org/2000/svg">
    <title>USA 40 B AIRFOIL</title>
    <path 
      vector-effect="non-scaling-stroke"
      d="M1,-0L0.95,-0.0126L0.9,-0.0234L0.8,-0.0434L0.7,-0.0605L0.6,-0.0769L0.5001,-0.0904L0.4001,-0.0999L0.3001,-0.1058L0.2001,-0.1055L0.1501,-0.1001L0.1001,-0.0872L0.075,-0.0765L0.05,-0.0633L0.025,-0.044L0.0125,-0.0307L0,-0L0.0125,0.019L0.025,0.024L0.05,0.0287L0.075,0.0308L0.1,0.0321L0.15,0.0327L0.2,0.0308L0.3,0.0262L0.4,0.0199L0.5,0.0133L0.6,0.0061L0.7,-0.0015L0.8,-0.0071L0.9,-0.0061L0.95,-0.0026L1,-0"
    />
</svg>
