
<svg 
  class="airfoil-usa46"
  fill="none"
  stroke="black" 
  stroke-width="1"
  style="overflow:visible"
  viewBox="0, -0.0524, 1, 0.0723"
  xmlns="http://www.w3.org/2000/svg">
    <title>USA 46 AIRFOIL</title>
    <path 
      vector-effect="non-scaling-stroke"
      d="M1,-0L0.95,-0.0069L0.9,-0.0126L0.8,-0.0234L0.6999,-0.0333L0.5999,-0.0414L0.4999,-0.0477L0.3999,-0.0522L0.2999,-0.0524L0.1999,-0.0493L0.1499,-0.0448L0.1,-0.037L0.075,-0.0321L0.05,-0.0254L0.025,-0.017L0.0125,-0.011L0,-0L0.0125,0.01L0.025,0.014L0.05,0.0176L0.075,0.0193L0.1,0.0199L0.15,0.0182L0.2,0.0161L0.3,0.0126L0.4,0.0088L0.5,0.005L0.6,0.0012L0.7,-0.0026L0.8,-0.0057L0.9,-0.0036L0.95,-0.0013L1,-0"
    />
</svg>
