
<svg 
  class="airfoil-usa45m"
  fill="none"
  stroke="black" 
  stroke-width="1"
  style="overflow:visible"
  viewBox="0, -0.0914, 1, 0.11669999"
  xmlns="http://www.w3.org/2000/svg">
    <title>USA 45 M AIRFOIL</title>
    <path 
      vector-effect="non-scaling-stroke"
      d="M1,-0L0.95,-0.0086L0.9,-0.017L0.8,-0.0332L0.7,-0.0484L0.6,-0.0623L0.5,-0.0745L0.4,-0.0845L0.3,-0.0914L0.2,-0.0894L0.15,-0.0825L0.1,-0.07L0.075,-0.0607L0.05,-0.0474L0.025,-0.0297L0.0125,-0.0192L0,-0L0.0125,0.0146L0.025,0.0177L0.05,0.0193L0.075,0.0205L0.1,0.022L0.15,0.024L0.2,0.0253L0.3,0.0249L0.4,0.0238L0.5,0.0223L0.6,0.0195L0.7,0.0159L0.8,0.0113L0.9,0.0061L0.95,0.003L1,-0"
    />
</svg>
