
<svg 
  class="airfoil-usa40"
  fill="none"
  stroke="black" 
  stroke-width="1"
  style="overflow:visible"
  viewBox="0, -0.1071, 1, 0.1397"
  xmlns="http://www.w3.org/2000/svg">
    <title>USA 40 AIRFOIL</title>
    <path 
      vector-effect="non-scaling-stroke"
      d="M1,-0.0005L0.95,-0.0135L0.9,-0.0251L0.8,-0.0465L0.7,-0.0656L0.6,-0.0816L0.5,-0.0949L0.4,-0.1035L0.3,-0.1071L0.2,-0.102L0.15,-0.0936L0.1,-0.079L0.075,-0.0687L0.05,-0.0563L0.025,-0.036L0.0125,-0.0263L0,-0L0.0125,0.019L0.025,0.024L0.05,0.0287L0.075,0.0307L0.1,0.032L0.15,0.0326L0.2,0.0307L0.3,0.0261L0.4,0.0197L0.5,0.0131L0.6,0.0058L0.7,-0.0019L0.8,-0.0075L0.9,-0.0065L0.95,-0.0031L1,0.0005"
    />
</svg>
