
<svg 
  class="airfoil-usa45"
  fill="none"
  stroke="black" 
  stroke-width="1"
  style="overflow:visible"
  viewBox="0, -0.1142, 1, 0.1454"
  xmlns="http://www.w3.org/2000/svg">
    <title>USA 45 AIRFOIL</title>
    <path 
      vector-effect="non-scaling-stroke"
      d="M1,-0L0.9498,-0.0107L0.8996,-0.0213L0.7993,-0.0415L0.699,-0.0605L0.5987,-0.0779L0.4985,-0.0931L0.3983,-0.1056L0.2981,-0.1142L0.1982,-0.1118L0.1483,-0.103L0.0986,-0.0873L0.0738,-0.0758L0.049,-0.0594L0.0244,-0.0372L0.0121,-0.0239L0,-0L0.0127,0.0136L0.0253,0.0179L0.0504,0.0229L0.0754,0.0257L0.1005,0.0277L0.1505,0.0302L0.2005,0.0309L0.3005,0.0312L0.4005,0.0298L0.5005,0.0277L0.6004,0.0244L0.7003,0.0199L0.8002,0.0142L0.9002,0.0073L0.9501,0.0038L1,-0"
    />
</svg>
