
<svg 
  class="airfoil-usa5"
  fill="none"
  stroke="black" 
  stroke-width="1"
  style="overflow:visible"
  viewBox="0, -0.0772, 1, 0.0841"
  xmlns="http://www.w3.org/2000/svg">
    <title>USA 5 AIRFOIL</title>
    <path 
      vector-effect="non-scaling-stroke"
      d="M1,-0L0.95,-0.0099L0.9,-0.0196L0.8,-0.0365L0.7,-0.0505L0.6,-0.0617L0.5,-0.0705L0.4,-0.0753L0.3,-0.0772L0.2,-0.0726L0.15,-0.065L0.1,-0.0551L0.075,-0.047L0.05,-0.037L0.025,-0.0232L0.0125,-0.0137L0,-0L0.0125,0.0056L0.025,0.0069L0.05,0.0069L0.075,0.0046L0.1,0.0011L0.15,-0.0045L0.2,-0.0091L0.3,-0.0134L0.4,-0.0153L0.5,-0.0132L0.6,-0.0103L0.7,-0.0059L0.8,-0.0022L0.9,0.0012L0.95,0.0031L1,-0"
    />
</svg>
