
<svg 
  class="airfoil-usa50"
  fill="none"
  stroke="black" 
  stroke-width="1"
  style="overflow:visible"
  viewBox="0, -0.054, 1, 0.070700005"
  xmlns="http://www.w3.org/2000/svg">
    <title>USA 50 AIRFOIL</title>
    <path 
      vector-effect="non-scaling-stroke"
      d="M1,-0L0.95,-0.01L0.9,-0.0167L0.8,-0.028L0.7,-0.0367L0.6,-0.044L0.5,-0.0494L0.4,-0.054L0.3,-0.0537L0.2,-0.049L0.15,-0.044L0.1,-0.036L0.075,-0.0307L0.05,-0.0247L0.025,-0.0163L0.0125,-0.01L0,-0L0.0125,0.0067L0.025,0.0097L0.05,0.0123L0.075,0.0133L0.1,0.0143L0.15,0.0157L0.2,0.0167L0.3,0.0167L0.4,0.015L0.5,0.013L0.6,0.0107L0.7,0.0083L0.8,0.0063L0.9,0.004L0.95,0.0027L1,-0"
    />
</svg>
