
<svg 
  class="airfoil-usa51"
  fill="none"
  stroke="black" 
  stroke-width="1"
  style="overflow:visible"
  viewBox="0, -0.0723, 1, 0.0933"
  xmlns="http://www.w3.org/2000/svg">
    <title>USA 51 AIRFOIL</title>
    <path 
      vector-effect="non-scaling-stroke"
      d="M1,-0L0.95,-0.009L0.9,-0.0178L0.8,-0.0317L0.7,-0.0437L0.6,-0.0547L0.5,-0.063L0.4,-0.0687L0.3,-0.0723L0.2,-0.0687L0.15,-0.0626L0.1,-0.0536L0.075,-0.048L0.05,-0.039L0.025,-0.024L0.0125,-0.0157L0,-0L0.0125,0.0087L0.025,0.0117L0.05,0.0157L0.075,0.018L0.1,0.0193L0.15,0.0207L0.2,0.021L0.3,0.021L0.4,0.02L0.5,0.0183L0.6,0.016L0.7,0.0123L0.8,0.0083L0.9,0.0043L0.95,0.0025L1,-0"
    />
</svg>
