
<svg 
  class="airfoil-usnps4"
  fill="none"
  stroke="black" 
  stroke-width="1"
  style="overflow:visible"
  viewBox="0, -0.1099, 1, 0.124299996"
  xmlns="http://www.w3.org/2000/svg">
    <title>USNPS4 (smoothed)</title>
    <path 
      vector-effect="non-scaling-stroke"
      d="M1,-0.0039L0.9975,-0.005L0.9907,-0.0081L0.9804,-0.0124L0.967,-0.0176L0.9504,-0.0236L0.9306,-0.0301L0.9078,-0.0369L0.882,-0.0439L0.8537,-0.0509L0.8231,-0.0578L0.7905,-0.0646L0.7562,-0.0711L0.7204,-0.0773L0.6836,-0.0831L0.6459,-0.0884L0.6078,-0.0932L0.5694,-0.0975L0.531,-0.1012L0.4927,-0.1043L0.4543,-0.1067L0.4164,-0.1085L0.3789,-0.1096L0.342,-0.1099L0.3061,-0.1095L0.2712,-0.1082L0.2376,-0.106L0.2055,-0.1028L0.175,-0.0986L0.1465,-0.0932L0.12,-0.0866L0.0958,-0.0787L0.074,-0.0695L0.0547,-0.0591L0.0381,-0.0479L0.0243,-0.0365L0.0134,-0.0254L0.0055,-0.015L0.001,-0.0058L0,-0.0002L0.001,0.0045L0.0055,0.0093L0.0134,0.0124L0.0243,0.0139L0.0381,0.0144L0.0547,0.0141L0.074,0.0135L0.0958,0.0129L0.12,0.0122L0.1465,0.0117L0.175,0.0112L0.2055,0.0108L0.2376,0.0105L0.2712,0.0101L0.3061,0.0098L0.342,0.0095L0.3789,0.0092L0.4164,0.0089L0.4543,0.0086L0.4927,0.0082L0.531,0.0079L0.5694,0.0076L0.6078,0.0072L0.6459,0.0069L0.6836,0.0065L0.7204,0.0062L0.7562,0.0059L0.7905,0.0056L0.8231,0.0053L0.8537,0.005L0.882,0.0048L0.9078,0.0046L0.9306,0.0044L0.9504,0.0042L0.967,0.0041L0.9804,0.004L0.9907,0.0039L0.9975,0.0039L1,0.0038"
    />
</svg>
