
<svg 
  class="airfoil-v13006"
  fill="none"
  stroke="black" 
  stroke-width="1"
  style="overflow:visible"
  viewBox="0, -0.0384, 1, 0.060200002"
  xmlns="http://www.w3.org/2000/svg">
    <title>BOEING VERTOL V13006-.7 AIRFOIL</title>
    <path 
      vector-effect="non-scaling-stroke"
      d="M1,-0.0006L0.9502,-0.0046L0.9003,-0.0084L0.8006,-0.0155L0.7009,-0.0218L0.6011,-0.0275L0.5014,-0.0324L0.4016,-0.0361L0.3019,-0.0382L0.252,-0.0384L0.2021,-0.038L0.1521,-0.0361L0.1022,-0.0323L0.0772,-0.0287L0.0522,-0.024L0.0272,-0.0173L0.0146,-0.013L0.0096,-0.0106L0.0046,-0.0079L0.0021,-0.0056L0,-0L0.0019,0.0051L0.0044,0.007L0.0094,0.0089L0.0144,0.0101L0.0268,0.0118L0.0517,0.0141L0.0767,0.0157L0.1016,0.0167L0.1515,0.0184L0.2014,0.0198L0.2512,0.0209L0.3011,0.0216L0.4009,0.0218L0.5008,0.0205L0.6006,0.018L0.7004,0.0147L0.8003,0.0107L0.9001,0.006L0.9501,0.0034L1,0.0006"
    />
</svg>
