
<svg 
  class="airfoil-v13009"
  fill="none"
  stroke="black" 
  stroke-width="1"
  style="overflow:visible"
  viewBox="0, -0.0575, 1, 0.0907"
  xmlns="http://www.w3.org/2000/svg">
    <title>BOEING VERTOL V(1.95)3009-1.25 AIRFOIL</title>
    <path 
      vector-effect="non-scaling-stroke"
      d="M1,-0.0005L0.9501,-0.0065L0.9002,-0.0119L0.8004,-0.0222L0.7006,-0.0321L0.6007,-0.0412L0.5009,-0.0487L0.401,-0.0544L0.351,-0.0561L0.301,-0.0573L0.251,-0.0575L0.201,-0.0565L0.1509,-0.0537L0.1009,-0.0488L0.0758,-0.0441L0.0507,-0.0375L0.0255,-0.0274L0.0128,-0.0194L0.0052,-0.0117L0,-0L0.0048,0.0101L0.0122,0.0147L0.0247,0.0189L0.0496,0.023L0.0746,0.0252L0.0995,0.0268L0.1495,0.029L0.1995,0.0305L0.2494,0.0318L0.2994,0.0327L0.3494,0.0332L0.3994,0.0332L0.4995,0.031L0.5995,0.0271L0.6996,0.0216L0.7997,0.0151L0.8999,0.0084L0.9499,0.0047L1,0.0005"
    />
</svg>
