
<svg 
  class="airfoil-v23010"
  fill="none"
  stroke="black" 
  stroke-width="1"
  style="overflow:visible"
  viewBox="0, -0.0662, 1, 0.103300005"
  xmlns="http://www.w3.org/2000/svg">
    <title>BOEING-VERTOL V23010-1.58 AIRFOIL</title>
    <path 
      vector-effect="non-scaling-stroke"
      d="M1,-0L0.95,-0.0057L0.9,-0.0115L0.85,-0.017L0.8,-0.023L0.75,-0.0281L0.7,-0.0337L0.65,-0.0395L0.6,-0.0447L0.55,-0.0493L0.5,-0.0537L0.45,-0.0575L0.4,-0.0605L0.35,-0.063L0.3,-0.065L0.25,-0.0659L0.2,-0.0662L0.15,-0.0642L0.125,-0.0613L0.1,-0.0571L0.075,-0.0514L0.05,-0.0428L0.03,-0.0331L0.02,-0.027L0.01,-0.0192L0,-0L0.01,0.0151L0.02,0.0176L0.03,0.019L0.05,0.0206L0.075,0.0227L0.1,0.0247L0.125,0.0268L0.15,0.0291L0.2,0.0327L0.25,0.0353L0.3,0.0368L0.35,0.0371L0.4,0.0368L0.45,0.0355L0.5,0.0338L0.55,0.0315L0.6,0.0287L0.65,0.0254L0.7,0.0222L0.75,0.0185L0.8,0.0149L0.85,0.0112L0.9,0.0076L0.95,0.0038L1,-0"
    />
</svg>
