
<svg 
  class="airfoil-v43015"
  fill="none"
  stroke="black" 
  stroke-width="1"
  style="overflow:visible"
  viewBox="0, -0.1078, 1, 0.1538"
  xmlns="http://www.w3.org/2000/svg">
    <title>BOEING VERTOL V43015-2.48 AIRFOIL</title>
    <path 
      vector-effect="non-scaling-stroke"
      d="M1,-0L0.95,-0.0109L0.9,-0.0217L0.8,-0.0416L0.7,-0.0593L0.6,-0.075L0.5,-0.0885L0.4,-0.0991L0.3,-0.1062L0.25,-0.1078L0.2,-0.1071L0.15,-0.1036L0.125,-0.0998L0.1,-0.0941L0.075,-0.0861L0.05,-0.0741L0.04,-0.068L0.03,-0.0608L0.02,-0.0522L0.01,-0.0412L0,-0L0.01,0.0096L0.02,0.013L0.03,0.015L0.04,0.0166L0.05,0.0179L0.075,0.0202L0.1,0.023L0.125,0.0265L0.15,0.03L0.2,0.0365L0.25,0.0412L0.3,0.0441L0.4,0.046L0.5,0.044L0.6,0.0392L0.7,0.032L0.8,0.0233L0.9,0.013L0.95,0.0068L1,-0"
    />
</svg>
