
<svg 
  class="airfoil-v43012"
  fill="none"
  stroke="black" 
  stroke-width="1"
  style="overflow:visible"
  viewBox="0, -0.0929, 1, 0.124400005"
  xmlns="http://www.w3.org/2000/svg">
    <title>BOEING VERTOL V43012-1.58 AIRFOIL</title>
    <path 
      vector-effect="non-scaling-stroke"
      d="M1,-0L0.98,-0.0038L0.955,-0.0084L0.94,-0.0113L0.925,-0.014L0.91,-0.0167L0.89,-0.0203L0.86,-0.0253L0.83,-0.0301L0.8,-0.035L0.76,-0.041L0.72,-0.0469L0.68,-0.0527L0.64,-0.0582L0.6,-0.0635L0.56,-0.0685L0.52,-0.0733L0.48,-0.078L0.44,-0.082L0.4,-0.085L0.36,-0.088L0.32,-0.0905L0.28,-0.092L0.245,-0.0926L0.21,-0.0929L0.18,-0.092L0.15,-0.0901L0.125,-0.0869L0.11,-0.084L0.09,-0.0791L0.075,-0.0745L0.05,-0.0631L0.04,-0.0571L0.03,-0.0503L0.02,-0.0423L0.01,-0.0321L0,-0L0.01,0.0077L0.02,0.009L0.03,0.01L0.04,0.0108L0.05,0.0108L0.075,0.011L0.09,0.0115L0.11,0.013L0.125,0.0142L0.15,0.0167L0.18,0.02L0.21,0.0231L0.245,0.026L0.28,0.0281L0.32,0.0299L0.36,0.031L0.4,0.0315L0.44,0.0314L0.48,0.031L0.52,0.0304L0.56,0.0293L0.6,0.0279L0.64,0.0263L0.68,0.0244L0.72,0.0222L0.76,0.0198L0.8,0.0172L0.83,0.0149L0.86,0.0125L0.89,0.01L0.91,0.0084L0.925,0.007L0.94,0.0057L0.955,0.0043L0.98,0.002L1,-0"
    />
</svg>
