
<svg 
  class="airfoil-vr1"
  fill="none"
  stroke="black" 
  stroke-width="1"
  style="overflow:visible"
  viewBox="0, -0.0695, 1, 0.1099"
  xmlns="http://www.w3.org/2000/svg">
    <title>BOEING-VERTOL VR-1 AIRFOIL</title>
    <path 
      vector-effect="non-scaling-stroke"
      d="M1,-0L0.9865,-0.0022L0.9462,-0.0088L0.9118,-0.0145L0.8329,-0.0275L0.7539,-0.0398L0.6745,-0.0509L0.6347,-0.0557L0.5947,-0.0599L0.5547,-0.0635L0.5143,-0.0663L0.4333,-0.0695L0.3527,-0.0693L0.3125,-0.0681L0.2322,-0.0633L0.1921,-0.0596L0.1525,-0.0551L0.1133,-0.0494L0.0844,-0.0444L0.0517,-0.0375L0.0373,-0.0334L0.0294,-0.0307L0.0185,-0.026L0.0056,-0.0167L0,-0L0.0056,0.01L0.0185,0.0157L0.0294,0.0191L0.0373,0.0212L0.0517,0.0243L0.0844,0.0297L0.1133,0.0327L0.1525,0.0358L0.1921,0.038L0.2322,0.0399L0.3125,0.0404L0.3527,0.0404L0.4333,0.0388L0.5143,0.0358L0.5547,0.034L0.5947,0.0318L0.6347,0.0292L0.6745,0.0265L0.7539,0.0205L0.8329,0.0138L0.9118,0.0069L0.9462,0.0039L0.9865,0.0008L1,-0"
    />
</svg>
