
<svg 
  class="airfoil-vr11x"
  fill="none"
  stroke="black" 
  stroke-width="1"
  style="overflow:visible"
  viewBox="0, -0.0789, 1, 0.11"
  xmlns="http://www.w3.org/2000/svg">
    <title>BOEING-VERTOL VR-11X AIRFOIL</title>
    <path 
      vector-effect="non-scaling-stroke"
      d="M1,-0.003L0.995,-0.0033L0.99,-0.0037L0.98,-0.0043L0.97,-0.005L0.955,-0.0082L0.935,-0.0126L0.91,-0.018L0.88,-0.0248L0.845,-0.0322L0.81,-0.0408L0.77,-0.05L0.73,-0.0573L0.69,-0.0626L0.65,-0.0662L0.6,-0.0702L0.55,-0.073L0.5,-0.0758L0.45,-0.0775L0.4,-0.0786L0.35,-0.0789L0.3,-0.0783L0.25,-0.0772L0.2,-0.0745L0.15,-0.0704L0.1,-0.0636L0.075,-0.0573L0.05,-0.0481L0.025,-0.0345L0.0125,-0.0242L0.0075,-0.0193L0.005,-0.016L0.002,-0.0105L0,-0L0.002,0.0045L0.005,0.0067L0.0075,0.0078L0.0125,0.0094L0.025,0.0123L0.05,0.016L0.075,0.0189L0.1,0.0211L0.15,0.0245L0.2,0.0269L0.25,0.0289L0.3,0.03L0.35,0.0308L0.4,0.0311L0.45,0.031L0.5,0.0303L0.55,0.0292L0.6,0.0277L0.65,0.026L0.69,0.0245L0.73,0.0228L0.77,0.0209L0.81,0.0189L0.845,0.0169L0.88,0.0146L0.91,0.0121L0.935,0.01L0.955,0.008L0.97,0.0061L0.98,0.0046L0.99,0.0028L0.995,0.0016L1,-0"
    />
</svg>
