
<svg 
  class="airfoil-vr12"
  fill="none"
  stroke="black" 
  stroke-width="1"
  style="overflow:visible"
  viewBox="0, -0.0751, 1, 0.106199995"
  xmlns="http://www.w3.org/2000/svg">
    <title>BOEING-VERTOL VR-12 AIRFOIL</title>
    <path 
      vector-effect="non-scaling-stroke"
      d="M1,-0.0015L0.995,-0.0017L0.99,-0.0022L0.98,-0.0031L0.97,-0.0042L0.955,-0.0062L0.935,-0.0093L0.91,-0.0136L0.88,-0.0188L0.845,-0.0248L0.81,-0.0308L0.77,-0.0371L0.73,-0.0433L0.69,-0.0493L0.65,-0.0547L0.6,-0.0607L0.55,-0.0654L0.5,-0.0691L0.45,-0.0718L0.4,-0.0738L0.35,-0.0749L0.3,-0.0751L0.25,-0.0746L0.2,-0.0732L0.15,-0.07L0.114,-0.0656L0.088,-0.0606L0.0685,-0.0553L0.0535,-0.0497L0.0416,-0.0443L0.032,-0.0392L0.0245,-0.0343L0.0186,-0.0299L0.0142,-0.0261L0.011,-0.0231L0.009,-0.0208L0.007,-0.0184L0.0052,-0.0158L0.0034,-0.0128L0.0019,-0.0097L0.0008,-0.0062L0.0001,-0.0024L0,-0L0.0005,0.0025L0.002,0.0047L0.004,0.0068L0.0062,0.0084L0.0086,0.0098L0.011,0.011L0.0147,0.0123L0.0195,0.0135L0.0261,0.0148L0.0343,0.016L0.0445,0.0174L0.0569,0.0189L0.0724,0.0205L0.0924,0.0221L0.1185,0.0238L0.15,0.0256L0.2,0.0276L0.25,0.0291L0.3,0.0301L0.35,0.0308L0.4,0.0311L0.45,0.031L0.5,0.0306L0.55,0.03L0.6,0.0291L0.65,0.0278L0.69,0.0264L0.73,0.0248L0.77,0.0229L0.81,0.0207L0.845,0.0185L0.88,0.0161L0.91,0.0133L0.935,0.0108L0.955,0.0088L0.97,0.0068L0.98,0.0052L0.99,0.0036L0.995,0.0025L1,0.0015"
    />
</svg>
