
<svg 
  class="airfoil-vr13"
  fill="none"
  stroke="black" 
  stroke-width="1"
  style="overflow:visible"
  viewBox="0, -0.0672, 1, 0.095"
  xmlns="http://www.w3.org/2000/svg">
    <title>BOEING-VERTOL VR-13 AIRFOIL</title>
    <path 
      vector-effect="non-scaling-stroke"
      d="M1,-0.0013L0.995,-0.0015L0.99,-0.0019L0.98,-0.003L0.97,-0.0038L0.955,-0.0055L0.935,-0.0084L0.91,-0.0122L0.88,-0.0168L0.845,-0.0222L0.81,-0.0275L0.77,-0.0332L0.73,-0.0388L0.69,-0.0441L0.65,-0.049L0.6,-0.0543L0.55,-0.0585L0.5,-0.0618L0.45,-0.0642L0.4,-0.066L0.35,-0.067L0.3,-0.0672L0.25,-0.0667L0.2,-0.0655L0.15,-0.0626L0.114,-0.0587L0.088,-0.0542L0.0685,-0.0495L0.0535,-0.0445L0.0416,-0.0396L0.032,-0.0351L0.0245,-0.0307L0.0186,-0.0268L0.0142,-0.0233L0.011,-0.0206L0.009,-0.0186L0.007,-0.0164L0.0052,-0.0142L0.0034,-0.0114L0.0019,-0.0087L0.0008,-0.0056L0.0001,-0.0022L0,-0L0.0005,0.0022L0.002,0.0042L0.004,0.006L0.0062,0.0075L0.0086,0.0088L0.011,0.0098L0.0147,0.011L0.0195,0.0121L0.0261,0.0132L0.0343,0.0144L0.0445,0.0156L0.0569,0.0169L0.0724,0.0183L0.0924,0.0198L0.1185,0.0213L0.15,0.0229L0.2,0.0247L0.25,0.026L0.3,0.0269L0.35,0.0276L0.4,0.0278L0.45,0.0277L0.5,0.0274L0.55,0.0268L0.6,0.026L0.65,0.0248L0.69,0.0236L0.73,0.0222L0.77,0.0205L0.81,0.0185L0.845,0.0166L0.88,0.0144L0.91,0.0119L0.935,0.0097L0.955,0.0078L0.97,0.0061L0.98,0.0047L0.99,0.0032L0.995,0.0023L1,0.0013"
    />
</svg>
