
<svg 
  class="airfoil-vr14"
  fill="none"
  stroke="black" 
  stroke-width="1"
  style="overflow:visible"
  viewBox="0, -0.0566, 1, 0.08"
  xmlns="http://www.w3.org/2000/svg">
    <title>BOEING-VERTOL VR-14 AIRFOIL</title>
    <path 
      vector-effect="non-scaling-stroke"
      d="M1,-0.0011L0.995,-0.0013L0.99,-0.0016L0.98,-0.0024L0.97,-0.0032L0.955,-0.0046L0.935,-0.007L0.91,-0.0103L0.88,-0.0141L0.845,-0.0187L0.81,-0.0232L0.77,-0.028L0.73,-0.0326L0.69,-0.0372L0.65,-0.0412L0.6,-0.0457L0.55,-0.0492L0.5,-0.0521L0.45,-0.054L0.4,-0.0556L0.35,-0.0564L0.3,-0.0566L0.25,-0.0562L0.2,-0.0551L0.15,-0.0527L0.114,-0.0494L0.088,-0.0457L0.0685,-0.0417L0.0535,-0.0374L0.0416,-0.0333L0.032,-0.0295L0.0245,-0.0259L0.0186,-0.0225L0.0142,-0.0197L0.011,-0.0174L0.009,-0.0157L0.007,-0.0138L0.0052,-0.0119L0.0034,-0.0096L0.0019,-0.0073L0.0008,-0.0047L0.0001,-0.0018L0,-0L0.0005,0.0019L0.002,0.0035L0.004,0.0051L0.0062,0.0063L0.0086,0.0074L0.011,0.0082L0.0147,0.0093L0.0195,0.0102L0.0261,0.0111L0.0343,0.0121L0.0445,0.0131L0.0569,0.0142L0.0724,0.0154L0.0924,0.0166L0.1185,0.018L0.15,0.0192L0.2,0.0208L0.25,0.0219L0.3,0.0227L0.35,0.0232L0.4,0.0234L0.45,0.0234L0.5,0.0231L0.55,0.0226L0.6,0.0219L0.65,0.0209L0.69,0.0199L0.73,0.0187L0.77,0.0173L0.81,0.0156L0.845,0.014L0.88,0.0121L0.91,0.01L0.935,0.0082L0.955,0.0066L0.97,0.0051L0.98,0.0039L0.99,0.0027L0.995,0.0019L1,0.0011"
    />
</svg>
