
<svg 
  class="airfoil-vr15"
  fill="none"
  stroke="black" 
  stroke-width="1"
  style="overflow:visible"
  viewBox="0, -0.052, 1, 0.08"
  xmlns="http://www.w3.org/2000/svg">
    <title>BOEING-VERTOL VR-15 AIRFOIL</title>
    <path 
      vector-effect="non-scaling-stroke"
      d="M1,-0.001L0.995,-0.0012L0.99,-0.0015L0.98,-0.0022L0.97,-0.0029L0.955,-0.0043L0.935,-0.0065L0.91,-0.0094L0.88,-0.013L0.845,-0.0172L0.81,-0.0213L0.77,-0.0257L0.73,-0.03L0.69,-0.0342L0.65,-0.0379L0.6,-0.042L0.55,-0.0452L0.5,-0.0478L0.45,-0.0497L0.4,-0.0511L0.35,-0.0518L0.3,-0.052L0.25,-0.0517L0.2,-0.0507L0.15,-0.0485L0.114,-0.0454L0.088,-0.042L0.0685,-0.0383L0.0535,-0.0344L0.0416,-0.0306L0.032,-0.0271L0.0245,-0.0238L0.0186,-0.0207L0.0142,-0.0181L0.011,-0.016L0.009,-0.0144L0.007,-0.0127L0.0052,-0.011L0.0034,-0.0089L0.0019,-0.0067L0.0008,-0.0043L0.0001,-0.0017L0,-0L0.0005,0.0023L0.002,0.0042L0.004,0.0061L0.0062,0.0076L0.0086,0.0088L0.011,0.0099L0.0147,0.0111L0.0195,0.0122L0.0261,0.0133L0.0343,0.0144L0.0445,0.0157L0.0569,0.017L0.0724,0.0185L0.0924,0.0199L0.1185,0.0215L0.15,0.023L0.2,0.0248L0.25,0.0262L0.3,0.0271L0.35,0.0277L0.4,0.028L0.45,0.0279L0.5,0.0276L0.55,0.027L0.6,0.0262L0.65,0.025L0.69,0.0238L0.73,0.0224L0.77,0.0206L0.81,0.0186L0.845,0.0167L0.88,0.0145L0.91,0.012L0.935,0.0098L0.955,0.0079L0.97,0.0061L0.98,0.0047L0.99,0.0032L0.995,0.0023L1,0.0014"
    />
</svg>
