
<svg 
  class="airfoil-vr5"
  fill="none"
  stroke="black" 
  stroke-width="1"
  style="overflow:visible"
  viewBox="0, -0.094, 1, 0.12019999"
  xmlns="http://www.w3.org/2000/svg">
    <title>BOEING-VERTOL VR-5 AIRFOIL</title>
    <path 
      vector-effect="non-scaling-stroke"
      d="M1,-0.0004L0.98,-0.0018L0.95,-0.0054L0.89,-0.015L0.85,-0.0226L0.81,-0.0309L0.77,-0.0394L0.73,-0.0473L0.68,-0.0567L0.63,-0.0659L0.58,-0.0743L0.53,-0.0814L0.48,-0.0876L0.43,-0.092L0.35,-0.094L0.31,-0.093L0.27,-0.0903L0.21,-0.084L0.16,-0.076L0.12,-0.0664L0.085,-0.0563L0.06,-0.0472L0.04,-0.0386L0.0225,-0.0291L0.011,-0.0209L0.007,-0.0172L0.0035,-0.0134L0,-0L0.0035,0.0046L0.007,0.0068L0.011,0.0086L0.0225,0.0114L0.04,0.0134L0.06,0.0152L0.085,0.0167L0.12,0.0181L0.16,0.0196L0.21,0.022L0.27,0.0244L0.31,0.0258L0.35,0.026L0.43,0.0262L0.48,0.026L0.53,0.0244L0.58,0.022L0.63,0.019L0.68,0.0158L0.73,0.0126L0.77,0.0098L0.81,0.0072L0.85,0.005L0.89,0.0029L0.95,0.0004L0.98,0.0004L1,0.0004"
    />
</svg>
