
<svg 
  class="airfoil-vr7b"
  fill="none"
  stroke="black" 
  stroke-width="1"
  style="overflow:visible"
  viewBox="0, -0.0914, 1, 0.1204"
  xmlns="http://www.w3.org/2000/svg">
    <title>BOEING-VERTOL VR-7 AIRFOIL WITH TAB</title>
    <path 
      vector-effect="non-scaling-stroke"
      d="M1,-0.005L0.96,-0.005L0.935,-0.0062L0.91,-0.0105L0.88,-0.0167L0.845,-0.0235L0.81,-0.0301L0.77,-0.0374L0.73,-0.0447L0.69,-0.0514L0.65,-0.058L0.61,-0.0646L0.57,-0.071L0.53,-0.0767L0.49,-0.0816L0.45,-0.0856L0.41,-0.0887L0.37,-0.0905L0.33,-0.0914L0.29,-0.0909L0.255,-0.0892L0.225,-0.0867L0.2,-0.0838L0.18,-0.0808L0.16,-0.0775L0.14,-0.0737L0.12,-0.0691L0.102,-0.0645L0.085,-0.0593L0.07,-0.0541L0.06,-0.0503L0.05,-0.0461L0.04,-0.0415L0.03,-0.0362L0.02,-0.0298L0.01,-0.0218L0.005,-0.0165L0,-0L0.005,0.0058L0.01,0.0081L0.02,0.0109L0.03,0.0129L0.04,0.0144L0.05,0.0159L0.06,0.0171L0.07,0.0181L0.085,0.0199L0.102,0.0214L0.12,0.0228L0.14,0.0241L0.16,0.0251L0.18,0.026L0.2,0.0266L0.225,0.0273L0.255,0.028L0.29,0.0285L0.33,0.0289L0.37,0.029L0.41,0.0285L0.45,0.0275L0.49,0.026L0.53,0.024L0.57,0.022L0.61,0.0199L0.65,0.0179L0.69,0.0158L0.73,0.0138L0.77,0.0108L0.81,0.0084L0.845,0.0064L0.88,0.0043L0.91,0.0023L0.935,0.0006L0.96,-0L1,-0"
    />
</svg>
