
<svg 
  class="airfoil-vr8b"
  fill="none"
  stroke="black" 
  stroke-width="1"
  style="overflow:visible"
  viewBox="0, -0.0535, 1.01, 0.0815"
  xmlns="http://www.w3.org/2000/svg">
    <title>BOEING-VERTOL VR-8 AIRFOIL WITH TAB</title>
    <path 
      vector-effect="non-scaling-stroke"
      d="M1.01,-0.0034L0.96,-0.0034L0.945,-0.0052L0.92,-0.0076L0.89,-0.0105L0.85,-0.0143L0.8,-0.019L0.75,-0.0237L0.7,-0.0285L0.65,-0.0333L0.6,-0.038L0.55,-0.0426L0.5,-0.0467L0.45,-0.0502L0.4,-0.0525L0.35,-0.0535L0.3,-0.053L0.25,-0.051L0.2,-0.048L0.16,-0.0444L0.125,-0.0402L0.095,-0.0357L0.07,-0.0309L0.05,-0.0261L0.035,-0.0217L0.025,-0.0183L0.02,-0.0143L0.01,-0.0117L0.005,-0.0085L0,-0L0.005,0.0054L0.01,0.0074L0.02,0.0088L0.025,0.0109L0.035,0.0126L0.05,0.0147L0.07,0.0169L0.095,0.019L0.125,0.0212L0.16,0.0232L0.2,0.025L0.25,0.0266L0.3,0.0277L0.35,0.028L0.4,0.0276L0.45,0.0265L0.5,0.0247L0.55,0.0225L0.6,0.02L0.65,0.0175L0.7,0.015L0.75,0.0125L0.8,0.01L0.85,0.0075L0.89,0.0055L0.92,0.004L0.945,0.0027L0.96,0.0016L1.01,0.0016"
    />
</svg>
