
<svg 
  class="airfoil-vr9"
  fill="none"
  stroke="black" 
  stroke-width="1"
  style="overflow:visible"
  viewBox="0, -0.0336, 1, 0.060599998"
  xmlns="http://www.w3.org/2000/svg">
    <title>BOEING-VERTOL VR-9 AIRFOIL</title>
    <path 
      vector-effect="non-scaling-stroke"
      d="M1,-0L0.98,-0.0012L0.965,-0.0021L0.945,-0.0034L0.92,-0.0049L0.89,-0.0067L0.85,-0.0092L0.8,-0.0122L0.75,-0.0153L0.7,-0.0183L0.65,-0.0214L0.6,-0.0244L0.55,-0.0273L0.5,-0.0298L0.45,-0.0317L0.4,-0.0328L0.35,-0.0336L0.3,-0.0333L0.25,-0.0322L0.2,-0.0301L0.16,-0.0279L0.125,-0.0254L0.095,-0.0225L0.07,-0.0197L0.05,-0.0166L0.035,-0.014L0.025,-0.0118L0.02,-0.0092L0.01,-0.0076L0.005,-0.0055L0,-0L0.005,0.0048L0.01,0.0066L0.02,0.008L0.025,0.0102L0.035,0.0119L0.05,0.014L0.07,0.0161L0.095,0.0182L0.125,0.0208L0.16,0.0228L0.2,0.0246L0.25,0.0261L0.3,0.0269L0.35,0.027L0.4,0.0265L0.45,0.0255L0.5,0.024L0.55,0.0222L0.6,0.0198L0.65,0.0174L0.7,0.0149L0.75,0.0124L0.8,0.0099L0.85,0.0074L0.89,0.0055L0.92,0.004L0.945,0.0027L0.965,0.0017L0.98,0.001L1,-0"
    />
</svg>
