
<svg 
  class="airfoil-w1011"
  fill="none"
  stroke="black" 
  stroke-width="1"
  style="overflow:visible"
  viewBox="0, -0.055, 1, 0.11"
  xmlns="http://www.w3.org/2000/svg">
    <title>W1011</title>
    <path 
      vector-effect="non-scaling-stroke"
      d="M1,-0.0008L0.9959,-0.0011L0.989,-0.0018L0.981,-0.0025L0.9723,-0.0034L0.963,-0.0043L0.9533,-0.0052L0.9435,-0.0061L0.9336,-0.007L0.9236,-0.0079L0.9135,-0.0088L0.9033,-0.0097L0.8931,-0.0105L0.8829,-0.0114L0.8727,-0.0123L0.8624,-0.0131L0.8522,-0.014L0.842,-0.0149L0.8317,-0.0158L0.8215,-0.0166L0.8113,-0.0175L0.801,-0.0184L0.7908,-0.0193L0.7806,-0.0202L0.7703,-0.021L0.7601,-0.0219L0.7499,-0.0228L0.7397,-0.0237L0.7294,-0.0246L0.7192,-0.0255L0.709,-0.0264L0.6988,-0.0273L0.6886,-0.0282L0.6783,-0.0291L0.6681,-0.03L0.6579,-0.031L0.6476,-0.0319L0.6374,-0.0328L0.6272,-0.0337L0.617,-0.0346L0.6068,-0.0355L0.5967,-0.0363L0.5865,-0.0372L0.5763,-0.0381L0.5661,-0.0389L0.556,-0.0397L0.5458,-0.0406L0.5356,-0.0414L0.5255,-0.0422L0.5153,-0.043L0.5052,-0.0437L0.4951,-0.0445L0.4849,-0.0452L0.4748,-0.0459L0.4647,-0.0466L0.4546,-0.0473L0.4444,-0.048L0.4343,-0.0486L0.4242,-0.0492L0.4141,-0.0498L0.4041,-0.0504L0.394,-0.0509L0.3839,-0.0514L0.3738,-0.0519L0.3638,-0.0524L0.3537,-0.0528L0.3437,-0.0532L0.3337,-0.0536L0.3237,-0.0539L0.3137,-0.0542L0.3037,-0.0544L0.2937,-0.0546L0.2837,-0.0548L0.2738,-0.0549L0.2639,-0.055L0.254,-0.055L0.2441,-0.055L0.2342,-0.0549L0.2244,-0.0548L0.2146,-0.0546L0.2048,-0.0543L0.1951,-0.0539L0.1854,-0.0535L0.1758,-0.0531L0.1662,-0.0525L0.1567,-0.0518L0.1472,-0.0511L0.1379,-0.0502L0.1286,-0.0493L0.1194,-0.0482L0.1103,-0.047L0.1014,-0.0457L0.0927,-0.0443L0.0841,-0.0427L0.0758,-0.0411L0.0679,-0.0393L0.0603,-0.0373L0.0531,-0.0353L0.0465,-0.0333L0.0405,-0.0312L0.035,-0.0291L0.0302,-0.027L0.0259,-0.025L0.0221,-0.0231L0.0189,-0.0212L0.016,-0.0194L0.0135,-0.0177L0.0113,-0.0161L0.0094,-0.0145L0.0077,-0.0131L0.0063,-0.0116L0.005,-0.0103L0.0039,-0.0089L0.0029,-0.0076L0.0021,-0.0064L0.0014,-0.0052L0.0009,-0.004L0.0004,-0.0028L0.0002,-0.0017L0,-0.0005L0,0.0005L0.0002,0.0017L0.0004,0.0028L0.0009,0.004L0.0014,0.0052L0.0021,0.0064L0.0029,0.0076L0.0039,0.0089L0.005,0.0103L0.0063,0.0116L0.0077,0.0131L0.0094,0.0145L0.0113,0.0161L0.0135,0.0177L0.016,0.0194L0.0189,0.0212L0.0221,0.0231L0.0259,0.025L0.0302,0.027L0.035,0.0291L0.0405,0.0312L0.0465,0.0333L0.0531,0.0353L0.0603,0.0373L0.0679,0.0393L0.0758,0.0411L0.0841,0.0427L0.0927,0.0443L0.1014,0.0457L0.1103,0.047L0.1194,0.0482L0.1286,0.0493L0.1379,0.0502L0.1472,0.0511L0.1567,0.0518L0.1662,0.0525L0.1758,0.053L0.1854,0.0535L0.1951,0.0539L0.2048,0.0543L0.2146,0.0545L0.2244,0.0547L0.2342,0.0549L0.2441,0.055L0.254,0.055L0.2639,0.055L0.2738,0.0549L0.2837,0.0548L0.2937,0.0546L0.3037,0.0544L0.3137,0.0541L0.3237,0.0539L0.3337,0.0535L0.3437,0.0532L0.3537,0.0528L0.3638,0.0524L0.3738,0.0519L0.3839,0.0514L0.394,0.0509L0.4041,0.0503L0.4141,0.0498L0.4242,0.0492L0.4343,0.0486L0.4444,0.0479L0.4546,0.0473L0.4647,0.0466L0.4748,0.0459L0.4849,0.0452L0.4951,0.0444L0.5052,0.0437L0.5153,0.0429L0.5255,0.0421L0.5356,0.0413L0.5458,0.0405L0.556,0.0397L0.5661,0.0389L0.5763,0.038L0.5865,0.0372L0.5967,0.0363L0.6068,0.0354L0.617,0.0345L0.6272,0.0336L0.6374,0.0327L0.6476,0.0318L0.6579,0.0309L0.6681,0.03L0.6783,0.0291L0.6886,0.0282L0.6988,0.0273L0.709,0.0264L0.7192,0.0255L0.7294,0.0246L0.7397,0.0237L0.7499,0.0228L0.7601,0.0219L0.7703,0.021L0.7806,0.0201L0.7908,0.0192L0.801,0.0183L0.8113,0.0175L0.8215,0.0166L0.8317,0.0157L0.842,0.0148L0.8522,0.0139L0.8624,0.0131L0.8727,0.0122L0.8829,0.0113L0.8931,0.0105L0.9033,0.0096L0.9135,0.0087L0.9236,0.0078L0.9336,0.007L0.9435,0.0061L0.9533,0.0051L0.963,0.0042L0.9723,0.0033L0.981,0.0025L0.989,0.0017L0.9959,0.0011L1,0.0008"
    />
</svg>
