
<svg 
  class="airfoil-w1015"
  fill="none"
  stroke="black" 
  stroke-width="1"
  style="overflow:visible"
  viewBox="0, -0.075, 1, 0.15"
  xmlns="http://www.w3.org/2000/svg">
    <title>W1015</title>
    <path 
      vector-effect="non-scaling-stroke"
      d="M1,-0.0008L0.9954,-0.0014L0.988,-0.0026L0.9799,-0.0039L0.9711,-0.0053L0.9617,-0.0067L0.9519,-0.0083L0.9417,-0.0098L0.9312,-0.0113L0.9205,-0.0128L0.9096,-0.0143L0.8984,-0.0157L0.8871,-0.0172L0.8756,-0.0187L0.8641,-0.0202L0.8526,-0.0217L0.841,-0.0231L0.8294,-0.0246L0.8178,-0.0261L0.8061,-0.0276L0.7945,-0.0291L0.7828,-0.0306L0.7712,-0.032L0.7595,-0.0335L0.7479,-0.035L0.7363,-0.0364L0.7247,-0.0379L0.713,-0.0394L0.7014,-0.0408L0.6898,-0.0422L0.6783,-0.0437L0.6667,-0.0451L0.6552,-0.0465L0.6436,-0.0478L0.6321,-0.0492L0.6206,-0.0505L0.6091,-0.0519L0.5976,-0.0532L0.5862,-0.0544L0.5747,-0.0557L0.5633,-0.0569L0.5519,-0.0581L0.5405,-0.0593L0.5291,-0.0604L0.5177,-0.0615L0.5063,-0.0626L0.4949,-0.0637L0.4836,-0.0647L0.4722,-0.0656L0.4609,-0.0666L0.4496,-0.0675L0.4383,-0.0683L0.4271,-0.0691L0.4158,-0.0699L0.4046,-0.0706L0.3934,-0.0713L0.3822,-0.0719L0.371,-0.0725L0.3599,-0.073L0.3487,-0.0735L0.3376,-0.0739L0.3266,-0.0742L0.3156,-0.0745L0.3046,-0.0747L0.2936,-0.0749L0.2827,-0.075L0.2719,-0.075L0.261,-0.0749L0.2503,-0.0747L0.2396,-0.0745L0.229,-0.0742L0.2184,-0.0738L0.208,-0.0732L0.1976,-0.0726L0.1874,-0.0719L0.1772,-0.0711L0.1672,-0.0702L0.1574,-0.0691L0.1477,-0.068L0.1383,-0.0667L0.129,-0.0653L0.1201,-0.0639L0.1114,-0.0623L0.103,-0.0606L0.095,-0.0588L0.0874,-0.0569L0.0802,-0.055L0.0734,-0.0531L0.0671,-0.0511L0.0612,-0.0491L0.0557,-0.0471L0.0507,-0.045L0.046,-0.0431L0.0417,-0.0411L0.0378,-0.0392L0.0342,-0.0373L0.0308,-0.0354L0.0278,-0.0336L0.025,-0.0318L0.0224,-0.03L0.02,-0.0283L0.0178,-0.0266L0.0158,-0.025L0.0139,-0.0233L0.0122,-0.0218L0.0107,-0.0202L0.0092,-0.0186L0.0079,-0.0171L0.0067,-0.0156L0.0056,-0.0142L0.0046,-0.0127L0.0037,-0.0113L0.0029,-0.0099L0.0022,-0.0085L0.0016,-0.0072L0.0011,-0.0058L0.0006,-0.0045L0.0003,-0.0032L0.0001,-0.0019L0,-0.0006L0,0.0006L0.0001,0.0019L0.0003,0.0032L0.0006,0.0045L0.0011,0.0058L0.0016,0.0072L0.0022,0.0085L0.0029,0.0099L0.0037,0.0113L0.0046,0.0127L0.0056,0.0142L0.0067,0.0156L0.0079,0.0171L0.0092,0.0186L0.0107,0.0202L0.0122,0.0218L0.0139,0.0233L0.0158,0.025L0.0178,0.0266L0.02,0.0283L0.0224,0.03L0.025,0.0318L0.0278,0.0336L0.0308,0.0354L0.0342,0.0373L0.0378,0.0392L0.0417,0.0411L0.046,0.0431L0.0507,0.045L0.0557,0.0471L0.0612,0.0491L0.0671,0.0511L0.0734,0.0531L0.0802,0.055L0.0874,0.0569L0.095,0.0588L0.103,0.0606L0.1114,0.0623L0.1201,0.0639L0.129,0.0653L0.1383,0.0667L0.1477,0.068L0.1574,0.0691L0.1672,0.0702L0.1772,0.0711L0.1874,0.0719L0.1976,0.0726L0.208,0.0732L0.2184,0.0738L0.229,0.0742L0.2396,0.0745L0.2503,0.0747L0.261,0.0749L0.2719,0.075L0.2827,0.075L0.2936,0.0749L0.3046,0.0747L0.3156,0.0745L0.3266,0.0742L0.3376,0.0739L0.3487,0.0735L0.3599,0.073L0.371,0.0725L0.3822,0.0719L0.3934,0.0713L0.4046,0.0706L0.4158,0.0699L0.4271,0.0691L0.4383,0.0683L0.4496,0.0675L0.4609,0.0666L0.4722,0.0656L0.4836,0.0647L0.4949,0.0637L0.5063,0.0626L0.5177,0.0615L0.5291,0.0604L0.5405,0.0593L0.5519,0.0581L0.5633,0.0569L0.5747,0.0557L0.5862,0.0544L0.5976,0.0532L0.6091,0.0519L0.6206,0.0505L0.6321,0.0492L0.6436,0.0478L0.6552,0.0465L0.6667,0.0451L0.6783,0.0436L0.6898,0.0422L0.7014,0.0408L0.713,0.0394L0.7247,0.0379L0.7363,0.0364L0.7479,0.035L0.7595,0.0335L0.7712,0.032L0.7828,0.0306L0.7945,0.0291L0.8061,0.0276L0.8178,0.0261L0.8294,0.0246L0.841,0.0231L0.8526,0.0217L0.8641,0.0202L0.8756,0.0187L0.8871,0.0172L0.8984,0.0157L0.9096,0.0143L0.9205,0.0128L0.9312,0.0113L0.9417,0.0098L0.9519,0.0083L0.9617,0.0067L0.9711,0.0053L0.9799,0.0039L0.988,0.0026L0.9954,0.0014L1,0.0008"
    />
</svg>
