
<svg 
  class="airfoil-waspsm"
  fill="none"
  stroke="black" 
  stroke-width="1"
  style="overflow:visible"
  viewBox="0, -0.0754, 1, 0.0974"
  xmlns="http://www.w3.org/2000/svg">
    <title>WASP (smoothed)</title>
    <path 
      vector-effect="non-scaling-stroke"
      d="M1,-0.0001L0.9975,-0.0013L0.9907,-0.0039L0.9804,-0.0063L0.967,-0.0083L0.9504,-0.0106L0.9306,-0.0137L0.9078,-0.0175L0.882,-0.0217L0.8537,-0.0262L0.8231,-0.0307L0.7905,-0.0353L0.7562,-0.04L0.7204,-0.0447L0.6836,-0.0492L0.6459,-0.0536L0.6078,-0.0578L0.5694,-0.0615L0.531,-0.0649L0.4927,-0.068L0.4543,-0.0706L0.4164,-0.0727L0.3789,-0.0742L0.342,-0.0751L0.3061,-0.0754L0.2712,-0.0748L0.2376,-0.0734L0.2055,-0.0712L0.175,-0.0681L0.1465,-0.0642L0.12,-0.0594L0.0958,-0.0539L0.074,-0.0475L0.0547,-0.0404L0.0381,-0.0329L0.0243,-0.0253L0.0134,-0.0178L0.0055,-0.0106L0.001,-0.0039L0,0.0004L0.001,0.0043L0.0055,0.009L0.0134,0.0127L0.0243,0.0157L0.0381,0.018L0.0547,0.0197L0.074,0.0209L0.0958,0.0217L0.12,0.022L0.1465,0.0219L0.175,0.0215L0.2055,0.0208L0.2376,0.0198L0.2712,0.0187L0.3061,0.0175L0.342,0.0161L0.3789,0.0146L0.4164,0.0131L0.4543,0.0115L0.4927,0.01L0.531,0.0086L0.5694,0.0072L0.6078,0.006L0.6459,0.005L0.6836,0.0042L0.7204,0.0035L0.7562,0.003L0.7905,0.0026L0.8231,0.0023L0.8537,0.0022L0.882,0.0022L0.9078,0.0024L0.9306,0.0026L0.9504,0.0029L0.967,0.0032L0.9804,0.0031L0.9907,0.0022L0.9975,0.0009L1,0.0002"
    />
</svg>
