
<svg 
  class="airfoil-wb13535sm"
  fill="none"
  stroke="black" 
  stroke-width="1"
  style="overflow:visible"
  viewBox="0, -0.1, 1, 0.1408"
  xmlns="http://www.w3.org/2000/svg">
    <title>WB-135/35 13.5% smoothed</title>
    <path 
      vector-effect="non-scaling-stroke"
      d="M1,-0L0.95,-0.012L0.9,-0.0231L0.85,-0.0342L0.8,-0.045L0.75,-0.0551L0.7,-0.0646L0.65,-0.0736L0.6,-0.0817L0.55,-0.0887L0.5,-0.0943L0.45,-0.0979L0.4,-0.0997L0.35,-0.1L0.3,-0.099L0.275,-0.098L0.25,-0.0966L0.225,-0.0947L0.2,-0.092L0.175,-0.0882L0.15,-0.0833L0.125,-0.077L0.1,-0.0692L0.075,-0.059L0.05,-0.0465L0.025,-0.03L0.0125,-0.0188L0,-0L0.0125,0.012L0.025,0.018L0.05,0.0267L0.075,0.0327L0.1,0.0369L0.125,0.0393L0.15,0.0405L0.175,0.0408L0.2,0.0406L0.225,0.0399L0.25,0.0389L0.275,0.0375L0.3,0.0358L0.35,0.0318L0.4,0.0278L0.45,0.0235L0.5,0.0192L0.55,0.0153L0.6,0.012L0.65,0.0094L0.7,0.0075L0.75,0.006L0.8,0.005L0.85,0.004L0.9,0.0033L0.95,0.0025L1,-0"
    />
</svg>
