
<svg 
  class="airfoil-wb140"
  fill="none"
  stroke="black" 
  stroke-width="1"
  style="overflow:visible"
  viewBox="0, -0.1045, 1, 0.1453"
  xmlns="http://www.w3.org/2000/svg">
    <title>WB-140/35/FB 14%</title>
    <path 
      vector-effect="non-scaling-stroke"
      d="M1,-0.0025L0.95,-0.0148L0.9,-0.0278L0.85,-0.04L0.8,-0.0515L0.75,-0.0627L0.7,-0.071L0.65,-0.083L0.6,-0.091L0.55,-0.0972L0.5,-0.1013L0.45,-0.1037L0.4,-0.1045L0.35,-0.1045L0.3,-0.1023L0.275,-0.1005L0.25,-0.0978L0.225,-0.0955L0.2,-0.0922L0.175,-0.0883L0.15,-0.0833L0.125,-0.077L0.1,-0.0695L0.075,-0.059L0.05,-0.0463L0.025,-0.03L0.0125,-0.0188L0,-0L0.0125,0.0135L0.025,0.018L0.05,0.0265L0.075,0.0327L0.1,0.0367L0.125,0.0395L0.15,0.0405L0.175,0.0408L0.175,0.0405L0.225,0.0402L0.25,0.0395L0.275,0.038L0.3,0.037L0.35,0.0347L0.4,0.0322L0.45,0.0298L0.5,0.0275L0.55,0.0247L0.6,0.0227L0.65,0.0205L0.7,0.018L0.75,0.0158L0.8,0.013L0.85,0.0103L0.9,0.008L0.95,0.005L1,0.0025"
    />
</svg>
