
<svg 
  class="airfoil-whitcomb"
  fill="none"
  stroke="black" 
  stroke-width="1"
  style="overflow:visible"
  viewBox="0, -0.055, 1, 0.1099"
  xmlns="http://www.w3.org/2000/svg">
    <title>WHITCOMB INTEGRAL SUPERCRITICAL AIRFOIL</title>
    <path 
      vector-effect="non-scaling-stroke"
      d="M1,0.0008L0.975,-0.0074L0.95,-0.0144L0.925,-0.0204L0.9,-0.0255L0.875,-0.03L0.85,-0.0337L0.825,-0.037L0.8,-0.0398L0.775,-0.0422L0.75,-0.0442L0.725,-0.046L0.7,-0.0476L0.675,-0.0489L0.65,-0.0501L0.625,-0.0511L0.6,-0.0519L0.575,-0.0527L0.55,-0.0533L0.5,-0.0543L0.45,-0.0548L0.4,-0.055L0.35,-0.0547L0.3,-0.054L0.25,-0.0528L0.2,-0.0507L0.175,-0.0493L0.15,-0.0476L0.125,-0.0455L0.1,-0.0428L0.075,-0.0394L0.05,-0.0347L0.0375,-0.0316L0.025,-0.0276L0.0125,-0.0215L0.0075,-0.0176L0,-0L0.0075,0.0176L0.0125,0.0216L0.025,0.0281L0.0375,0.0324L0.05,0.0358L0.075,0.0408L0.1,0.0444L0.125,0.0472L0.15,0.0493L0.175,0.051L0.2,0.0522L0.25,0.054L0.3,0.0548L0.35,0.0549L0.4,0.0541L0.45,0.0524L0.5,0.0497L0.55,0.0455L0.575,0.0426L0.6,0.0389L0.625,0.0342L0.65,0.0282L0.675,0.0215L0.7,0.0149L0.725,0.009L0.75,0.0036L0.775,-0.0012L0.8,-0.0053L0.825,-0.0088L0.85,-0.0114L0.875,-0.0132L0.9,-0.0138L0.925,-0.0131L0.95,-0.0106L0.975,-0.006L1,0.0013"
    />
</svg>
