
<svg 
  class="airfoil-ys900"
  fill="none"
  stroke="black" 
  stroke-width="1"
  style="overflow:visible"
  viewBox="0, -0.045, 1, 0.09"
  xmlns="http://www.w3.org/2000/svg">
    <title>YS-900</title>
    <path 
      vector-effect="non-scaling-stroke"
      d="M1,-0L0.999,-0L0.996,-0.0003L0.9912,-0.001L0.9848,-0.0022L0.977,-0.0039L0.968,-0.006L0.9578,-0.0084L0.9465,-0.011L0.9341,-0.0139L0.9207,-0.017L0.9065,-0.0202L0.8917,-0.0235L0.8763,-0.0266L0.8601,-0.0292L0.8428,-0.0314L0.8245,-0.0334L0.8053,-0.0352L0.7853,-0.0369L0.7644,-0.0384L0.7428,-0.0397L0.7205,-0.0409L0.6976,-0.0419L0.6741,-0.0428L0.6501,-0.0435L0.6256,-0.0441L0.6008,-0.0446L0.5757,-0.0449L0.5504,-0.045L0.5249,-0.045L0.4993,-0.0449L0.4737,-0.0446L0.4482,-0.0442L0.4227,-0.0437L0.3974,-0.043L0.3724,-0.0422L0.3477,-0.0413L0.3234,-0.0402L0.2996,-0.0391L0.2762,-0.0378L0.2535,-0.0364L0.2314,-0.035L0.21,-0.0334L0.1893,-0.0318L0.1695,-0.03L0.1505,-0.0282L0.1325,-0.0264L0.1154,-0.0244L0.0994,-0.0225L0.0844,-0.0205L0.0706,-0.0184L0.0578,-0.0164L0.0463,-0.0143L0.0359,-0.0123L0.0268,-0.0103L0.019,-0.0083L0.0125,-0.0063L0.0072,-0.0045L0.0034,-0.0027L0.0009,-0.0012L0,-0L0.0009,0.0012L0.0034,0.0027L0.0072,0.0045L0.0125,0.0063L0.019,0.0083L0.0268,0.0103L0.0359,0.0123L0.0463,0.0143L0.0578,0.0164L0.0706,0.0184L0.0844,0.0205L0.0994,0.0225L0.1154,0.0244L0.1325,0.0264L0.1505,0.0282L0.1695,0.03L0.1893,0.0318L0.21,0.0334L0.2314,0.035L0.2535,0.0364L0.2762,0.0378L0.2996,0.0391L0.3234,0.0402L0.3477,0.0413L0.3724,0.0422L0.3974,0.043L0.4227,0.0437L0.4482,0.0442L0.4737,0.0446L0.4993,0.0449L0.5249,0.045L0.5504,0.045L0.5757,0.0449L0.6008,0.0446L0.6256,0.0441L0.6501,0.0435L0.6741,0.0428L0.6976,0.0419L0.7205,0.0409L0.7428,0.0397L0.7644,0.0384L0.7853,0.0369L0.8053,0.0352L0.8245,0.0334L0.8428,0.0314L0.8601,0.0292L0.8763,0.0266L0.8917,0.0235L0.9065,0.0202L0.9207,0.017L0.9341,0.0139L0.9465,0.011L0.9578,0.0084L0.968,0.006L0.977,0.0039L0.9848,0.0022L0.9912,0.001L0.996,0.0003L0.999,0L1,-0"
    />
</svg>
