
<svg 
  class="airfoil-ys915"
  fill="none"
  stroke="black" 
  stroke-width="1"
  style="overflow:visible"
  viewBox="0, -0.0583, 1, 0.0968"
  xmlns="http://www.w3.org/2000/svg">
    <title>YS-915</title>
    <path 
      vector-effect="non-scaling-stroke"
      d="M1,-0L0.9991,-0.0001L0.9963,-0.0005L0.9919,-0.0013L0.986,-0.0025L0.9787,-0.0042L0.9702,-0.0062L0.9605,-0.0084L0.9496,-0.0108L0.9375,-0.0132L0.9242,-0.0159L0.9098,-0.0189L0.8944,-0.022L0.8781,-0.0253L0.8609,-0.0288L0.8431,-0.0323L0.8246,-0.0359L0.8057,-0.0394L0.7864,-0.0426L0.7664,-0.0453L0.7457,-0.0476L0.7243,-0.0497L0.7022,-0.0515L0.6795,-0.053L0.6563,-0.0544L0.6326,-0.0556L0.6086,-0.0565L0.5842,-0.0573L0.5596,-0.0578L0.5347,-0.0582L0.5098,-0.0583L0.4847,-0.0583L0.4597,-0.0581L0.4347,-0.0576L0.4099,-0.0571L0.3853,-0.0563L0.3609,-0.0553L0.3369,-0.0542L0.3132,-0.0529L0.29,-0.0515L0.2673,-0.0499L0.2453,-0.0482L0.2238,-0.0463L0.203,-0.0443L0.183,-0.0422L0.1638,-0.0399L0.1454,-0.0376L0.128,-0.0352L0.1115,-0.0327L0.0959,-0.0301L0.0815,-0.0275L0.068,-0.0249L0.0557,-0.0222L0.0446,-0.0195L0.0346,-0.0168L0.0258,-0.0141L0.0182,-0.0115L0.0119,-0.009L0.0069,-0.0065L0.0032,-0.0042L0.0009,-0.0019L0,-0L0.0008,0.0018L0.0033,0.0039L0.007,0.0062L0.012,0.0085L0.0183,0.0109L0.0259,0.0133L0.0347,0.0158L0.0447,0.0182L0.0558,0.0205L0.068,0.0228L0.0813,0.0251L0.0956,0.0272L0.111,0.0292L0.1273,0.0311L0.1444,0.0329L0.1625,0.0344L0.1813,0.0358L0.2009,0.037L0.2212,0.0378L0.2421,0.0384L0.2637,0.0385L0.286,0.0382L0.3092,0.0376L0.333,0.0368L0.3575,0.0358L0.3825,0.0346L0.408,0.0334L0.4338,0.032L0.46,0.0306L0.4864,0.0291L0.513,0.0276L0.5395,0.0261L0.5661,0.0245L0.5925,0.023L0.6188,0.0214L0.6448,0.0199L0.6704,0.0184L0.6955,0.017L0.7202,0.0156L0.7442,0.0143L0.7675,0.013L0.7901,0.0118L0.8119,0.0106L0.8328,0.0095L0.8526,0.0085L0.8715,0.0076L0.8892,0.0067L0.9058,0.0058L0.9211,0.0051L0.9352,0.0043L0.948,0.0036L0.9593,0.0028L0.9694,0.002L0.9783,0.0013L0.9858,0.0006L0.9918,0.0002L0.9963,0L0.9991,-0L1,-0"
    />
</svg>
