
<svg 
  class="airfoil-ys920"
  fill="none"
  stroke="black" 
  stroke-width="1"
  style="overflow:visible"
  viewBox="0.0001, -0.0621, 0.9999, 0.0984"
  xmlns="http://www.w3.org/2000/svg">
    <title>YS-920</title>
    <path 
      vector-effect="non-scaling-stroke"
      d="M1,-0L0.9991,-0.0001L0.9963,-0.0006L0.9919,-0.0015L0.9861,-0.0029L0.9789,-0.0047L0.9705,-0.0069L0.961,-0.0093L0.9503,-0.0118L0.9384,-0.0145L0.9253,-0.0174L0.9111,-0.0205L0.8959,-0.0238L0.8798,-0.0272L0.8629,-0.0309L0.8452,-0.0346L0.827,-0.0383L0.8083,-0.042L0.7891,-0.0453L0.7694,-0.0481L0.7489,-0.0505L0.7276,-0.0527L0.7057,-0.0546L0.6833,-0.0563L0.6603,-0.0578L0.6368,-0.059L0.6129,-0.0601L0.5887,-0.0609L0.5642,-0.0615L0.5395,-0.0619L0.5146,-0.0621L0.4897,-0.0621L0.4647,-0.0619L0.4399,-0.0615L0.4151,-0.0609L0.3905,-0.0601L0.3662,-0.0592L0.3422,-0.058L0.3185,-0.0567L0.2953,-0.0552L0.2726,-0.0536L0.2505,-0.0518L0.2289,-0.0498L0.2081,-0.0477L0.188,-0.0455L0.1686,-0.0431L0.1501,-0.0407L0.1325,-0.0381L0.1158,-0.0355L0.1001,-0.0328L0.0854,-0.03L0.0717,-0.0272L0.0591,-0.0244L0.0477,-0.0215L0.0374,-0.0187L0.0283,-0.0158L0.0204,-0.013L0.0137,-0.0103L0.0084,-0.0077L0.0043,-0.0051L0.0015,-0.0027L0.0001,-0.0006L0.0004,0.0013L0.0024,0.0034L0.0057,0.0058L0.0103,0.0081L0.0162,0.0105L0.0234,0.013L0.0317,0.0154L0.0413,0.0179L0.052,0.0202L0.0637,0.0225L0.0766,0.0247L0.0905,0.0269L0.1054,0.0288L0.1213,0.0306L0.1381,0.0323L0.1557,0.0337L0.1741,0.0349L0.1933,0.0358L0.2131,0.0363L0.2338,0.0363L0.2558,0.0359L0.2778,0.0352L0.3011,0.0344L0.3251,0.0333L0.3497,0.0321L0.3749,0.0308L0.4006,0.0294L0.4267,0.028L0.4532,0.0265L0.4798,0.025L0.5066,0.0234L0.5335,0.0219L0.5603,0.0203L0.5871,0.0189L0.6136,0.0174L0.6399,0.0159L0.6658,0.0146L0.6913,0.0133L0.7163,0.012L0.7406,0.0108L0.7643,0.0097L0.7872,0.0087L0.8092,0.0077L0.8304,0.0068L0.8506,0.006L0.8697,0.0052L0.8877,0.0046L0.9045,0.004L0.9201,0.0034L0.9344,0.0029L0.9473,0.0024L0.9589,0.0018L0.9692,0.0012L0.9781,0.0007L0.9857,0.0003L0.9918,-0L0.9963,-0.0001L0.9991,-0L1,-0"
    />
</svg>
