
<svg 
  class="airfoil-ys930"
  fill="none"
  stroke="black" 
  stroke-width="1"
  style="overflow:visible"
  viewBox="0, -0.0724, 1, 0.1036"
  xmlns="http://www.w3.org/2000/svg">
    <title>YS-930</title>
    <path 
      vector-effect="non-scaling-stroke"
      d="M1,-0L0.9991,-0.0002L0.9964,-0.0007L0.9921,-0.0018L0.9864,-0.0033L0.9795,-0.0054L0.9714,-0.0077L0.9622,-0.0102L0.9518,-0.0128L0.9401,-0.0155L0.9273,-0.0183L0.9133,-0.0213L0.8982,-0.0245L0.8821,-0.0279L0.8651,-0.0314L0.8472,-0.035L0.8285,-0.0387L0.8092,-0.0426L0.7893,-0.0464L0.7689,-0.0502L0.748,-0.0539L0.7268,-0.0575L0.7054,-0.0607L0.6837,-0.0633L0.6613,-0.0655L0.6385,-0.0673L0.6152,-0.0688L0.5916,-0.0701L0.5677,-0.0711L0.5435,-0.0718L0.5192,-0.0722L0.4948,-0.0724L0.4703,-0.0723L0.4459,-0.072L0.4215,-0.0714L0.3973,-0.0707L0.3733,-0.0697L0.3496,-0.0684L0.3262,-0.067L0.3032,-0.0653L0.2807,-0.0635L0.2587,-0.0614L0.2372,-0.0592L0.2164,-0.0568L0.1963,-0.0543L0.1769,-0.0516L0.1583,-0.0488L0.1405,-0.0459L0.1236,-0.0428L0.1077,-0.0397L0.0926,-0.0365L0.0786,-0.0332L0.0657,-0.0299L0.0538,-0.0266L0.043,-0.0233L0.0333,-0.0199L0.0248,-0.0167L0.0175,-0.0135L0.0114,-0.0104L0.0066,-0.0074L0.003,-0.0046L0.0007,-0.002L0,0.0002L0.001,0.0023L0.0034,0.0048L0.0072,0.0072L0.0122,0.0098L0.0185,0.0123L0.026,0.0148L0.0347,0.0173L0.0444,0.0198L0.0553,0.022L0.0672,0.0242L0.0801,0.0261L0.094,0.0279L0.1088,0.0294L0.1245,0.0305L0.1411,0.0312L0.1587,0.0312L0.1776,0.0309L0.1975,0.0303L0.2185,0.0295L0.2404,0.0284L0.2633,0.0273L0.2869,0.026L0.3114,0.0247L0.3365,0.0232L0.3621,0.0218L0.3883,0.0203L0.4149,0.0188L0.4418,0.0172L0.469,0.0157L0.4964,0.0143L0.5238,0.0128L0.5512,0.0115L0.5785,0.0101L0.6056,0.0089L0.6325,0.0077L0.6589,0.0066L0.685,0.0056L0.7104,0.0047L0.7353,0.0038L0.7595,0.0031L0.7829,0.0025L0.8055,0.0019L0.8271,0.0014L0.8477,0.001L0.8672,0.0007L0.8856,0.0005L0.9028,0.0003L0.9188,0.0002L0.9334,0.0001L0.9467,0L0.9585,-0.0001L0.969,-0.0002L0.9781,-0.0004L0.9857,-0.0004L0.9918,-0.0004L0.9963,-0.0003L0.9991,-0.0001L1,-0"
    />
</svg>
