
<svg 
  class="airfoil-zv15_35"
  fill="none"
  stroke="black" 
  stroke-width="1"
  style="overflow:visible"
  viewBox="-0.0001, -0.0818, 0.9928, 0.1604"
  xmlns="http://www.w3.org/2000/svg">
    <title>Zv(15-35)16</title>
    <path 
      vector-effect="non-scaling-stroke"
      d="M0.99,-0.0008L0.9801,-0.0016L0.9701,-0.0024L0.9601,-0.0032L0.9502,-0.0041L0.9402,-0.005L0.9302,-0.0058L0.9203,-0.0067L0.9103,-0.0077L0.9004,-0.0086L0.8904,-0.0095L0.8805,-0.0105L0.8705,-0.0115L0.8606,-0.0124L0.8506,-0.0134L0.8407,-0.0144L0.8307,-0.0154L0.8208,-0.0165L0.8108,-0.0175L0.8009,-0.0185L0.7909,-0.0196L0.781,-0.0207L0.771,-0.0217L0.7611,-0.0228L0.7512,-0.0239L0.7412,-0.025L0.7313,-0.026L0.7213,-0.0271L0.7114,-0.0282L0.7014,-0.0293L0.6915,-0.0304L0.6816,-0.0316L0.6716,-0.0327L0.6617,-0.0338L0.6518,-0.0349L0.6418,-0.036L0.6319,-0.0371L0.6219,-0.0382L0.612,-0.0393L0.6021,-0.0405L0.5921,-0.0416L0.5822,-0.0427L0.5723,-0.0438L0.5623,-0.0449L0.5524,-0.046L0.5424,-0.047L0.5325,-0.0481L0.5225,-0.0492L0.5126,-0.0503L0.5027,-0.0514L0.4927,-0.0524L0.4828,-0.0535L0.4728,-0.0546L0.4629,-0.0556L0.453,-0.0567L0.443,-0.0577L0.4331,-0.0588L0.4231,-0.0598L0.4132,-0.0608L0.4032,-0.0619L0.3933,-0.0629L0.3833,-0.064L0.3734,-0.065L0.3634,-0.066L0.3535,-0.067L0.3435,-0.068L0.3336,-0.069L0.3236,-0.07L0.3137,-0.0709L0.3037,-0.0718L0.2938,-0.0728L0.2838,-0.0736L0.2738,-0.0745L0.2639,-0.0753L0.2539,-0.0761L0.2439,-0.0769L0.234,-0.0777L0.224,-0.0784L0.214,-0.0791L0.204,-0.0797L0.194,-0.0804L0.1841,-0.081L0.1741,-0.0815L0.1641,-0.0818L0.1541,-0.0818L0.1441,-0.0816L0.1341,-0.0811L0.1241,-0.0802L0.1142,-0.0789L0.1043,-0.0773L0.0945,-0.0753L0.0847,-0.073L0.0751,-0.0702L0.0656,-0.0669L0.0563,-0.0633L0.0472,-0.0591L0.0383,-0.0544L0.0298,-0.0492L0.0218,-0.0433L0.0145,-0.0364L0.008,-0.0284L0.0029,-0.0191L-0.0001,-0.0093L0.0001,0.0005L0.0039,0.0097L0.01,0.018L0.0171,0.0252L0.0248,0.0314L0.0331,0.037L0.0419,0.0418L0.0509,0.0462L0.0601,0.0501L0.0695,0.0536L0.079,0.0567L0.0886,0.0596L0.0983,0.0621L0.108,0.0644L0.1178,0.0664L0.1277,0.0683L0.1375,0.0699L0.1475,0.0714L0.1574,0.0727L0.1673,0.0738L0.1773,0.0748L0.1873,0.0756L0.1973,0.0763L0.2073,0.0769L0.2173,0.0774L0.2273,0.0779L0.2373,0.0782L0.2473,0.0784L0.2573,0.0785L0.2673,0.0786L0.2773,0.0786L0.2873,0.0785L0.2973,0.0783L0.3073,0.078L0.3173,0.0777L0.3273,0.0774L0.3373,0.0769L0.3473,0.0764L0.3572,0.0759L0.3672,0.0753L0.3772,0.0747L0.3872,0.074L0.3972,0.0733L0.4071,0.0725L0.4171,0.0717L0.427,0.0708L0.437,0.07L0.447,0.069L0.4569,0.0681L0.4669,0.0671L0.4768,0.0661L0.4868,0.0651L0.4967,0.064L0.5067,0.0629L0.5166,0.0618L0.5265,0.0606L0.5365,0.0594L0.5464,0.0582L0.5563,0.057L0.5662,0.0558L0.5762,0.0545L0.5861,0.0533L0.596,0.052L0.6059,0.0507L0.6158,0.0494L0.6257,0.048L0.6356,0.0467L0.6456,0.0454L0.6555,0.044L0.6654,0.0427L0.6753,0.0414L0.6852,0.04L0.6951,0.0386L0.705,0.0373L0.7149,0.0359L0.7248,0.0346L0.7347,0.0332L0.7446,0.0318L0.7545,0.0305L0.7645,0.0291L0.7744,0.0278L0.7843,0.0264L0.7942,0.0251L0.8041,0.0238L0.814,0.0224L0.8239,0.0211L0.8338,0.0198L0.8437,0.0185L0.8537,0.0172L0.8636,0.0159L0.8735,0.0146L0.8834,0.0134L0.8933,0.0122L0.9033,0.0109L0.9132,0.0097L0.9231,0.0085L0.933,0.0074L0.943,0.0062L0.9529,0.0051L0.9629,0.004L0.9728,0.0029L0.9827,0.0018L0.9927,0.0008"
    />
</svg>
